<svg width="335" height="280" viewBox="0 0 335 280" fill="none" xmlns="http://www.w3.org/2000/svg">
<mask id="mask0_6258_103957" style="mask-type:alpha" maskUnits="userSpaceOnUse" x="0" y="0" width="335" height="280">
<path d="M310.507 280H10C4.47715 280 0 275.523 0 270V10C0 4.47715 4.47714 0 9.99999 0H325C330.523 0 335 4.47716 335 10V255.398C335 258.037 333.957 260.57 332.097 262.443L317.604 277.045C315.726 278.936 313.172 280 310.507 280Z" fill="#050505"/>
</mask>
<g mask="url(#mask0_6258_103957)">
<g filter="url(#filter0_f_6258_103957)">
<circle cx="36" cy="32" r="132" fill="#1E1D49"/>
</g>
<g filter="url(#filter1_f_6258_103957)">
<circle cx="290" cy="223" r="132" fill="#1E1D49"/>
</g>
</g>
<g clip-path="url(#clip0_6258_103957)">
<g opacity="0.6" clip-path="url(#clip1_6258_103957)">
<path d="M137.908 177.85L137.976 173.569C137.984 173.11 137.788 172.775 137.393 172.578C136.612 172.182 135.361 172.431 135.186 172.519L135.09 178.521L137.908 177.85ZM137.971 177.9L135.027 178.603L135.123 172.491V172.489C135.165 172.362 138.067 171.784 138.036 173.569C138.021 174.638 137.971 177.9 137.971 177.9Z" fill="#E9EEF1"/>
<path d="M135.027 178.603L137.971 177.901C137.971 177.901 138.021 174.638 138.038 173.571C138.066 171.784 135.165 172.365 135.125 172.492V172.494L135.027 178.603ZM135.059 172.492V172.489L135.1 170.005C135.1 169.97 135.127 169.942 135.16 169.942H135.162L145.471 170.106C145.257 169.792 144.589 168.829 144.24 168.621C144.177 168.586 144.142 168.527 144.124 168.449C144.029 167.96 144.966 166.702 145.074 166.56C145.084 166.545 145.104 166.535 145.122 166.535C145.132 166.535 145.702 166.538 146.548 166.54C147.392 166.54 148.513 166.548 149.628 166.555C154.187 166.596 154.202 166.654 154.219 166.728C154.234 166.743 154.373 166.834 154.508 166.92C155.101 167.301 156.329 168.094 156.264 168.981C156.261 169.017 156.234 169.047 156.196 169.042C156.163 169.039 156.136 169.009 156.138 168.973C156.196 168.16 155.011 167.397 154.44 167.027C154.232 166.895 154.147 166.837 154.111 166.794C153.745 166.705 148.595 166.667 145.152 166.662C144.858 167.055 144.175 168.066 144.245 168.423C144.255 168.464 144.273 168.492 144.298 168.507C144.74 168.773 145.599 170.076 145.637 170.134C145.649 170.155 145.652 170.18 145.642 170.2C145.629 170.221 145.609 170.233 145.586 170.233C145.586 170.233 145.586 170.233 145.584 170.233L135.22 170.066L135.183 172.383C135.436 172.286 136.006 172.225 136.351 172.233C137.488 172.251 138.109 172.725 138.096 173.566L138.028 177.895C138.028 177.923 138.008 177.949 137.981 177.956L135.037 178.658C135.032 178.658 135.027 178.661 135.022 178.661C135.007 178.661 134.994 178.656 134.982 178.646C134.967 178.636 134.959 178.615 134.959 178.598L135.054 172.489L135.059 172.492Z" fill="#E9EEF1"/>
<path d="M340.71 117.357C330.472 116.909 309.714 115.565 308.371 115.477C307.584 114.99 304.811 113.084 304.184 112.65L305.887 85.6386C305.889 85.484 305.874 85.3268 305.844 85.1722C305.663 84.2825 304.945 80.6529 304.038 76.0601C301.662 64.0408 297.688 43.9257 297.319 42.6077C297.256 42.3871 297.163 42.0526 284.845 37.3939C278.88 35.138 271.97 32.6135 270.347 32.099C270.106 32.0229 269.857 31.99 269.604 32.0026L140.061 38.4432C138.951 38.499 138.044 39.926 138.034 41.0843L139.368 77.3376L139.227 77.33L137.632 83.0837L139.242 86.4269L141.52 86.4624L142.58 85.1798C143.562 85.6867 144.738 85.9402 146.092 85.9225L151.208 86.7285H151.231C152.092 86.7234 152.801 87.4103 152.826 88.2721L153.753 118.62C153.775 119.398 154.217 120.102 154.901 120.46C155.423 120.733 155.752 121.271 155.755 121.866L155.883 144.648C155.473 144.625 154.627 144.61 152.861 144.582L152.756 144.58L152.7 148.07L152.781 148.09C153.185 148.199 153.77 148.232 154.338 148.232C154.973 148.232 155.589 148.191 155.9 148.166L156.011 167.868C156.016 168.674 155.883 169.452 155.632 170.177L145.592 170.066L145.589 170.281L153.655 170.37C151.914 170.585 149.965 170.981 149.563 171.543C149.053 172.261 149.201 173.252 149.282 173.617L144.74 173.543C144.743 173.127 144.735 172.785 144.71 172.628L144.698 172.552C144.6 171.918 144.306 169.995 141.362 169.974L141.36 170.19C144.12 170.21 144.384 171.936 144.484 172.585L144.497 172.664C144.57 173.117 144.482 175.315 144.449 176.07L139.182 177.327L139.257 172.562C139.26 172.524 139.29 171.594 138.524 170.834C137.815 170.129 136.68 169.815 135.153 169.901L135.166 170.116C136.63 170.035 137.71 170.327 138.373 170.986C139.071 171.678 139.046 172.547 139.046 172.56L138.971 177.34L139.127 177.343L130.634 179.365C129.569 179.619 128.874 180.635 129.017 181.73C129.336 184.181 129.946 189.471 130.649 195.595C131.842 205.959 133.329 218.858 134.319 225.973C134.774 229.225 137.986 232.269 141.485 232.758L250.984 246.934C251.331 246.977 251.675 247 252.019 247C252.657 247 253.29 246.924 253.905 246.777L253.96 246.965C253.96 246.965 312.314 229.491 329.455 224.353C332.388 223.473 334.418 220.807 334.503 217.72L335.377 186.315L335.38 186.204L313.942 162.53L328.628 155.669L339.492 155.694C339.497 155.694 339.504 155.694 339.509 155.694C343.925 155.694 347.57 152.075 347.64 147.619L347.994 125.164C348.064 120.967 344.862 117.54 340.71 117.357ZM269.629 32.5552C269.817 32.5451 270.001 32.5704 270.179 32.6262C273.844 33.7896 295.551 41.8878 296.804 42.8206C297.256 44.5923 301.154 64.317 303.498 76.1691C304.442 80.9444 305.123 84.3941 305.306 85.2863C305.329 85.4003 305.341 85.5169 305.339 85.6208L302.993 122.802C302.985 123.217 302.631 123.897 302.106 124.492C301.576 125.096 300.994 125.483 300.614 125.483C300.612 125.483 300.609 125.483 300.607 125.483L300.451 125.481L300.431 125.514C299.75 125.648 296.028 126.284 292.172 124.918C287.965 123.428 285.23 117.106 285.202 117.04L285.094 117.086C285.368 103.911 285.621 90.822 285.712 86.0923L285.717 85.8109L280.216 85.8287V85.7805L270.365 85.8262C270.895 85.56 271.312 85.1722 271.319 84.6019C271.385 80.2752 270.847 63.5972 270.415 50.1939C270.181 42.9651 269.981 36.7222 269.92 33.8758C269.91 33.4449 269.752 33.0849 269.448 32.8087C269.35 32.72 269.24 32.6439 269.124 32.578L269.629 32.5552ZM150.412 182.949L147.323 182.686L147.951 181.634L151.13 181.9L150.412 182.949ZM150.573 195.235L147.488 194.966L147.149 182.975L147.199 182.891L150.344 183.16L150.573 195.235ZM148.415 181.456L174.312 175.018L177.379 175.221C174.141 175.916 154.265 181.01 151.515 181.715L148.415 181.456ZM249.969 86.7589L249.612 109.426L236.584 109.219C235.099 109.196 233.331 109.926 233.273 113.548C233.256 114.61 232.919 115.573 232.324 116.257C231.703 116.97 230.839 117.34 229.86 117.322L207.281 116.959C204.787 116.919 204.23 115.142 204.199 113.659C204.139 110.575 204.132 108.129 204.174 107.672L219.353 110.499C219.466 110.519 219.579 110.526 219.69 110.526C220.174 110.526 220.644 110.349 221.016 110.019C221.473 109.614 221.722 109.028 221.697 108.415L220.837 86.5637L285.159 86.366C285.031 93.017 284.865 101.445 284.692 109.992L250.158 109.439L250.514 86.7716L249.969 86.7589ZM203.936 107.804C203.795 107.809 203.697 107.703 203.682 107.655L203.833 107.627H203.931L204.159 107.67C204.122 107.733 204.046 107.799 203.936 107.804ZM221.154 108.435C221.172 108.881 220.991 109.307 220.659 109.604C220.328 109.9 219.886 110.027 219.451 109.954L204.009 107.079L203.986 107.074L157.623 106.582L157.935 86.7538L220.297 86.5612L221.154 108.435ZM203.644 107.624C203.564 108.2 203.576 109.703 203.652 113.672C203.7 116.113 204.983 117.476 207.271 117.512L229.85 117.874C229.872 117.874 229.897 117.874 229.92 117.874C231.048 117.874 232.02 117.441 232.733 116.62C233.414 115.837 233.801 114.749 233.818 113.555C233.859 111.043 234.765 109.769 236.514 109.769C236.534 109.769 236.554 109.769 236.571 109.769L249.6 109.976L284.68 110.539C284.283 129.99 283.843 149.859 283.715 150.577L283.981 150.642L283.959 150.749L286.061 151.208L284.393 178.08C284.328 179.15 283.851 180.128 283.054 180.838C282.258 181.548 281.233 181.897 280.173 181.829L185.288 175.53C185.411 174.02 185.514 160.852 185.519 160.272V160.168L174.548 159.656L174.437 159.651L174.199 174.793L160.183 173.863C159.412 173.812 157.932 173.148 157.932 172.37L157.242 119.981L157.445 107.13L203.644 107.624ZM182.4 175.553L184.472 175.69L157.917 182.25L157.146 182.186L182.4 175.553ZM177.896 175.039L174.412 174.808L174.648 159.876L178.062 160.036C178.087 161.306 178.328 173.784 177.896 175.039ZM182.724 175.36L182.962 160.264L185.306 160.373C185.268 165.313 185.173 174.438 185.077 175.518L182.724 175.36ZM154.697 184.08C154.73 183.93 154.868 183.75 155.054 183.563L156.609 183.697L156.573 183.74L156.611 195.759L154.624 195.587C154.619 194.92 154.559 184.701 154.697 184.08ZM155.265 183.365C155.742 182.952 156.383 182.544 156.674 182.364L157.626 182.442L156.769 183.492L155.265 183.365ZM156.867 183.717L259.484 192.5C259.481 192.545 259.479 192.591 259.479 192.637L259.524 204.712L156.825 195.777L156.787 183.814L156.867 183.717ZM259.506 192.287L157.031 183.517L157.87 182.485L157.932 182.47L260.2 191.025C259.838 191.349 259.587 191.793 259.506 192.287ZM158.588 182.308L185.18 175.738L280.163 182.044C280.256 182.049 280.349 182.055 280.442 182.055C281.459 182.055 282.429 181.687 283.2 181.003C284.042 180.257 284.541 179.226 284.612 178.098L286.285 151.177C286.465 151.018 287.503 150.153 288.693 150.288C289.364 150.364 289.969 150.744 290.497 151.421C290.178 151.781 289.974 152.242 289.949 152.744L288.676 177.872C288.525 180.83 286.526 183.355 283.702 184.153L261.034 190.571C260.825 190.629 260.634 190.721 260.458 190.835L158.588 182.308ZM288.711 150.07C287.437 149.93 286.365 150.81 286.146 151.005L284.263 150.592C284.403 148.939 284.752 133.577 285.076 118.052C285.403 118.703 285.933 119.682 286.651 120.736C287.744 122.34 288.889 123.567 290.075 124.414C289.856 126.201 288.771 136.839 293.23 142.387C294.86 144.417 297.06 145.555 299.765 145.784L299.76 147.33C299.735 149.413 298.386 149.591 297.404 149.722C297.158 149.755 296.942 149.783 296.776 149.842L291.358 150.83L291.311 150.843C291.059 150.939 290.838 151.086 290.645 151.261C290.085 150.554 289.437 150.151 288.711 150.07ZM293.395 142.255C289.075 136.877 290.03 126.616 290.273 124.556C290.838 124.938 291.414 125.233 291.994 125.438C293.981 126.142 295.907 126.338 297.439 126.338C298.625 126.338 299.572 126.221 300.127 126.13C299.986 126.485 299.838 126.997 299.823 127.58L299.768 145.571C297.128 145.345 294.985 144.232 293.395 142.255ZM138.582 41.0767C138.589 40.1921 139.302 39.0338 140.089 38.9958L267.117 32.6794L267.125 32.7681C267.137 32.7656 268.471 32.6642 269.086 33.2218C269.277 33.3942 269.373 33.6147 269.378 33.891C269.438 36.7374 269.639 42.9828 269.873 50.2142C270.305 63.6099 270.842 80.2829 270.777 84.5943C270.764 85.4485 268.682 85.8033 268.152 85.8186V85.8363L251.039 85.9174L162.677 86.1886C191.492 85.5854 262.232 84.1153 266.276 84.1153C266.318 84.1153 266.354 84.1153 266.381 84.1153C266.936 84.1203 267.491 83.8669 267.943 83.3979C268.403 82.9214 268.712 82.265 268.695 81.8011C268.551 78.027 268.441 71.5231 268.31 63.9901C268.16 55.2429 267.989 45.3274 267.725 37.181V37.1455C267.69 36.0353 267.645 34.6539 265.801 34.6235C265.798 34.6235 265.793 34.6235 265.788 34.6235C263.618 34.6235 143.148 41.0058 142.314 41.0767C140.041 41.2694 139.976 43.7837 139.976 43.8142C140.021 45.0004 140.875 67.9467 141.339 77.4516L139.915 77.3705L138.582 41.0767ZM139.586 85.8819L138.215 83.0304L139.634 77.9053L139.787 77.9155C140.448 77.9941 140.857 78.027 141.113 78.0346C141.101 78.1664 141.096 78.2957 141.088 78.4249L139.564 83.2459L141.106 85.9047L139.586 85.8819ZM142.113 84.8858L141.319 85.8464L139.797 83.2205L141.066 79.2082C141.076 81.9861 141.993 83.8897 142.347 84.5208L142.113 84.8858ZM151.251 86.1785L146.155 85.375L146.132 85.3725H146.109C144.881 85.3877 143.826 85.1747 142.942 84.7439L143.05 84.6146L142.937 84.4422C142.924 84.4245 142.088 83.1166 141.751 80.9393C141.716 80.473 141.671 79.7227 141.621 78.7519C141.631 78.4325 141.653 78.1056 141.691 77.7659L141.724 77.477L141.556 77.4668C141.083 67.8123 140.199 44.1006 140.189 43.8142C140.192 43.7178 140.254 41.4696 142.332 41.2922C144.673 41.0945 264.344 34.8389 265.791 34.8389C265.793 34.8389 265.796 34.8389 265.796 34.8389C267.436 34.8643 267.474 36.0277 267.509 37.1531V37.1886C267.773 45.335 267.943 55.248 268.094 63.9951C268.225 71.5281 268.335 78.0346 268.478 81.8113C268.491 82.1585 268.26 82.7643 267.79 83.2509C267.501 83.55 267.029 83.9023 266.404 83.9023C266.396 83.9023 266.391 83.9023 266.384 83.9023C263.251 83.8618 162.509 85.9782 151.57 86.2089C151.464 86.1911 151.359 86.1785 151.251 86.1785ZM152.916 147.903L152.964 144.798C153.969 144.815 155.325 144.838 155.883 144.856L155.9 147.951C155.35 147.994 153.76 148.098 152.916 147.903ZM144.738 173.759L149.561 173.835L149.52 173.695C149.518 173.683 149.174 172.458 149.736 171.667C150.211 170.998 153.652 170.504 155.539 170.413C154.747 172.448 153.022 174.025 150.799 174.554L144.668 176.017C144.69 175.523 144.728 174.552 144.738 173.759ZM130.762 179.903L150.927 175.092C153.409 174.499 155.325 172.702 156.136 170.398C156.151 170.398 156.169 170.398 156.184 170.398L156.187 170.243C156.433 169.493 156.566 168.692 156.561 167.863L156.305 121.861C156.3 121.06 155.86 120.336 155.154 119.968C154.644 119.704 154.318 119.18 154.3 118.602L153.373 88.2544C153.348 87.4458 152.871 86.7488 152.195 86.4066C153.358 86.3812 155.124 86.3458 157.39 86.2976L157.066 106.851L157.234 106.854L157.028 119.983L157.719 172.372C157.719 173.28 159.309 174.02 160.168 174.078L173.608 174.97L147.898 181.363L147.855 181.373L147.835 181.406L130.569 179.961C130.632 179.941 130.695 179.918 130.762 179.903ZM130.215 180.151L147.712 181.613L147.084 182.665L129.572 181.165C129.647 180.754 129.878 180.389 130.215 180.151ZM129.559 181.659C129.547 181.565 129.544 181.472 129.547 181.38L146.958 182.871L146.931 182.919L147.272 194.948L130.963 193.529C130.358 188.267 129.846 183.841 129.559 181.659ZM130.988 193.747L259.521 204.93L259.529 206.679C258.534 206.458 254.669 205.999 239.688 204.631C229.018 203.655 214.141 202.355 195.463 200.763C164.468 198.122 133.071 195.539 131.212 195.387L131.056 194.337C131.034 194.14 131.011 193.942 130.988 193.747ZM251.054 246.384L141.561 232.21C138.29 231.754 135.286 228.92 134.864 225.897C133.874 218.805 132.395 205.951 131.202 195.602C135.063 195.919 254.264 205.726 259.529 206.874L259.647 238.722C259.655 240.937 258.715 243.051 257.072 244.519C255.427 245.986 253.234 246.668 251.054 246.384ZM256.568 245.606C256.869 245.403 257.16 245.178 257.434 244.932C259.197 243.358 260.205 241.094 260.195 238.719L260.072 205.487C260.257 205.442 260.544 205.371 260.918 205.277C280.565 200.383 284.71 199.574 285.3 199.574C285.305 199.574 285.31 199.574 285.315 199.574C285.375 200.885 284.609 220.969 284.278 229.648C284.17 232.502 284.097 234.39 284.094 234.535C284.059 236.745 283.976 237.209 282.424 237.863C271.154 241.239 261.202 244.217 256.568 245.606ZM347.097 147.606C347.032 151.763 343.631 155.139 339.514 155.139C339.509 155.139 339.504 155.139 339.497 155.139L329.977 155.119L333.549 153.37L333.509 153.286L333.679 153.296L335.249 123.349L335.036 123.339L333.468 153.208L333.313 152.873L313.035 162.348L334.83 186.414L333.958 217.707C333.878 220.556 332.007 223.015 329.299 223.826C320.445 226.48 300.587 232.426 283.461 237.556C284.185 237.016 284.285 236.291 284.313 234.54C284.315 234.398 284.386 232.512 284.496 229.658C285.086 214.164 285.619 199.779 285.521 199.463C285.458 199.267 285.365 198.971 260.873 205.072C260.531 205.158 260.262 205.224 260.077 205.269L260.029 192.639C260.026 191.927 260.501 191.293 261.179 191.101L283.848 184.683C286.9 183.819 289.06 181.094 289.221 177.898L290.494 152.769C290.524 152.148 290.914 151.603 291.484 151.372L296.899 150.384L296.947 150.371C297.055 150.328 297.261 150.303 297.477 150.275C298.457 150.146 300.278 149.905 300.31 147.34L300.371 127.59C300.388 126.878 300.649 126.274 300.773 126.026C301.506 125.93 302.227 125.192 302.518 124.857C303.005 124.3 303.53 123.471 303.541 122.822L304.141 113.294C305.1 113.953 307.497 115.596 308.145 115.986L308.202 116.022L308.268 116.027C308.285 116.027 308.428 116.037 308.685 116.055C312.098 117.362 332.358 122.622 334.827 123.261L334.86 123.268L344.334 119.474L344.257 119.274L334.845 123.043C325.938 120.736 313.198 117.34 309.438 116.103C314.103 116.402 331.564 117.512 340.687 117.912C344.54 118.082 347.512 121.263 347.449 125.156L347.097 147.606Z" fill="#E9EEF1"/>
<path d="M162.013 158.134L231.451 161.285C231.484 161.287 231.519 161.287 231.552 161.287C232.685 161.287 233.767 160.443 234.335 159.11L234.357 159.059L234.712 125.766C234.845 124.489 234.443 123.057 233.709 122.198C233.338 121.759 232.911 121.518 232.474 121.498L161.694 120.104C161.069 120.076 160.318 120.297 159.702 120.694C158.999 121.151 158.594 121.746 158.567 122.383L158.454 154.294C158.451 154.367 158.446 154.446 158.441 154.527C158.399 155.234 158.336 156.304 159.054 157.097C159.642 157.744 160.611 158.083 162.013 158.134ZM158.991 154.558C158.996 154.474 159.001 154.393 159.004 154.304L159.117 122.393C159.137 121.957 159.459 121.508 159.999 121.156C160.516 120.821 161.154 120.626 161.679 120.651L232.459 122.045C232.808 122.061 233.107 122.329 233.297 122.552C233.93 123.295 234.287 124.598 234.169 125.716L233.815 158.937C233.315 160.068 232.401 160.775 231.479 160.729L170.151 157.949C168.076 157.612 163.955 156.96 162.654 156.877L162.804 153.118L164.5 153.341C164.377 155.599 164.454 155.691 164.49 155.729L164.525 155.762L164.565 155.767H164.568L164.56 155.934L166.08 156.005C167.536 156.241 169.712 156.593 171.098 156.818L171.131 156.606C170.651 156.527 169.317 156.309 167.976 156.094L198.791 157.541C198.811 157.541 198.833 157.541 198.853 157.541C199.732 157.541 200.695 157.244 201.438 156.742C202.312 156.152 202.802 155.348 202.814 154.479L203.041 126.225C203.056 125.318 202.764 124.382 202.242 123.658C201.662 122.851 200.868 122.4 200.009 122.388L191.923 122.111V122.101L191.71 122.099V122.106L163.455 121.138C163.44 121.138 163.425 121.138 163.41 121.138C162.556 121.138 161.674 121.521 160.986 122.192C160.285 122.877 159.878 123.772 159.863 124.651L159.649 152.238C159.624 153.779 160.895 155.364 162.483 155.772L162.43 157.082L162.535 157.087C163.395 157.125 166.06 157.523 168.232 157.863L162.033 157.581C160.8 157.538 159.933 157.249 159.459 156.725C158.898 156.101 158.951 155.244 158.991 154.558ZM160.812 123.3C160.961 123.047 161.149 122.806 161.37 122.588C161.483 122.476 161.604 122.378 161.727 122.286L161.38 144.214L160.584 144.188L160.913 123.303L160.812 123.3ZM200.134 145.451L199.23 145.423L199.584 122.93L199.996 122.945C200.165 122.948 200.328 122.973 200.489 123.016L200.134 145.451ZM200.7 123.087C201.008 123.211 201.295 123.412 201.549 123.685L201.204 145.486L200.345 145.458L200.7 123.087ZM199.017 145.415L198.13 145.387L198.484 122.892L199.371 122.922L199.017 145.415ZM197.919 145.38L197.045 145.352L197.399 122.854L198.273 122.884L197.919 145.38ZM196.831 145.344L195.945 145.316L196.299 122.816L197.186 122.846L196.831 145.344ZM195.731 145.311L194.845 145.283L195.199 122.781L196.085 122.811L195.731 145.311ZM194.634 145.276L193.747 145.248L194.101 122.743L194.988 122.773L194.634 145.276ZM193.533 145.24L192.659 145.212L193.013 122.704L193.888 122.735L193.533 145.24ZM192.446 145.205L191.559 145.177L191.913 122.666L192.8 122.697L192.446 145.205ZM191.348 145.169L190.544 145.144L190.899 122.631L191.702 122.659L191.348 145.169ZM190.331 145.139L189.444 145.111L189.798 122.595L190.685 122.626L190.331 145.139ZM189.231 145.103L188.357 145.075L188.711 122.557L189.585 122.588L189.231 145.103ZM188.146 145.068L187.259 145.04L187.613 122.519L188.5 122.55L188.146 145.068ZM187.045 145.032L186.249 145.007L186.603 122.484L187.4 122.512L187.045 145.032ZM186.038 145.002L185.152 144.974L185.506 122.448L186.392 122.479L186.038 145.002ZM184.938 144.966L184.064 144.939L184.418 122.41L185.292 122.441L184.938 144.966ZM183.85 144.931L182.964 144.903L183.318 122.372L184.205 122.403L183.85 144.931ZM182.753 144.895L181.944 144.87L182.298 122.337L183.107 122.365L182.753 144.895ZM181.731 144.862L180.844 144.835L181.198 122.299L182.085 122.329L181.731 144.862ZM180.63 144.83L179.756 144.802L180.11 122.263L180.985 122.294L180.63 144.83ZM179.543 144.794L178.656 144.766L179.01 122.225L179.897 122.256L179.543 144.794ZM178.445 144.759L177.641 144.733L177.996 122.19L178.799 122.218L178.445 144.759ZM177.782 122.182L177.428 144.726L176.541 144.698L176.895 122.152L177.83 122.185L177.782 122.182ZM176.328 144.69L175.454 144.662L175.808 122.114L176.682 122.144L176.328 144.69ZM175.243 144.657L174.356 144.629L174.71 122.078L175.597 122.109L175.243 144.657ZM174.142 144.622L173.346 144.596L173.7 122.129L173.487 122.127L173.133 144.589L172.246 144.561L172.6 122.005L174.494 122.071L174.142 144.622ZM172.035 144.553L171.161 144.525L171.515 121.967L172.389 121.997L172.035 144.553ZM171.304 121.962L170.95 144.52L170.063 144.492L170.417 121.931L171.427 121.967L171.304 121.962ZM169.85 144.485L169.182 144.465L169.536 121.901L170.204 121.924L169.85 144.485ZM168.968 144.457L168.082 144.429L168.436 121.863L169.322 121.893L168.968 144.457ZM167.868 144.421L166.994 144.394L167.351 121.825L168.225 121.855L167.868 144.421ZM166.783 144.386L165.896 144.358L166.253 121.787L167.14 121.817L166.783 144.386ZM165.683 144.35L164.879 144.325L165.233 121.805L165.02 121.802L164.665 144.32L163.779 144.292L164.135 121.716L166.037 121.782L165.683 144.35ZM163.568 144.285L162.694 144.257L163.048 121.721C163.181 121.701 163.312 121.688 163.442 121.693L163.922 121.708L163.568 144.285ZM162.48 144.249L161.594 144.221L161.94 122.139C162.224 121.962 162.528 121.83 162.832 121.759L162.48 144.249ZM160.373 144.183L160.277 144.181L160.26 144.708L168.961 144.984V145.012L169.174 145.015V144.992L172.028 145.083V145.126L172.241 145.129V145.088L175.235 145.184V145.255L175.449 145.258V145.189L181.723 145.39H181.741L188.138 145.595V145.605L188.352 145.608V145.603L199.012 145.942V145.955L199.225 145.957V145.947L202.234 146.044L202.252 145.516L201.425 145.491L201.765 123.934C201.777 123.952 201.792 123.967 201.805 123.984C202.257 124.616 202.511 125.429 202.498 126.223L202.272 154.476C202.262 155.158 201.857 155.802 201.139 156.289C200.468 156.742 199.592 157.006 198.813 156.993L164.648 155.389C164.64 154.973 164.673 154.073 164.721 153.257L164.726 153.158L162.603 152.877L162.51 155.204C161.229 154.816 160.182 153.493 160.202 152.248L160.416 124.661C160.421 124.279 160.521 123.888 160.699 123.521L160.373 144.183Z" fill="#E9EEF1"/>
<path d="M249.29 174.555L277.545 176.053C277.603 176.058 277.661 176.06 277.718 176.06C278.474 176.06 279.321 175.693 280.014 175.051C280.584 174.527 280.928 173.924 280.936 173.442L282.096 120.212C282.147 117.071 282.182 114.803 279.311 114.757L251.787 114.318C251.156 114.313 249.215 114.544 248.024 115.725C247.386 116.359 247.059 117.157 247.057 118.098L246.223 171.123V171.13C246.208 172.05 246.175 174.504 249.29 174.555ZM246.768 171.135V171.13L247.602 118.1C247.605 117.309 247.876 116.643 248.406 116.118C249.441 115.092 251.179 114.868 251.749 114.868C251.759 114.868 251.769 114.868 251.777 114.868L279.301 115.307C281.531 115.342 281.602 116.833 281.549 120.199L280.388 173.429C280.383 173.754 280.092 174.23 279.645 174.641C279.007 175.229 278.238 175.548 277.578 175.498L249.305 173.997C246.73 173.962 246.756 172.053 246.768 171.135Z" fill="#E9EEF1"/>
<path d="M228.007 164.798L207.257 163.534C206.114 163.463 205.007 163.848 204.145 164.619C203.286 165.387 202.774 166.449 202.703 167.604L202.555 170.086C202.485 171.242 202.867 172.357 203.63 173.226C204.391 174.093 205.444 174.61 206.589 174.681L227.339 175.946C227.427 175.951 227.515 175.954 227.603 175.954C228.653 175.954 229.655 175.571 230.448 174.861C231.308 174.093 231.82 173.031 231.89 171.875L232.038 169.394C232.184 167.004 230.376 164.943 228.007 164.798ZM219.874 165.037C220.293 165.044 220.685 165.217 220.979 165.521C221.273 165.825 221.431 166.228 221.424 166.651L221.353 171.097C221.331 172.575 220.708 172.679 219.753 172.661C219.721 172.661 219.688 172.653 219.655 172.651C219.736 172.593 219.814 172.532 219.886 172.461C220.261 172.096 220.472 171.607 220.479 171.084L220.55 166.639C220.557 166.117 220.364 165.622 219.999 165.245C219.927 165.169 219.849 165.103 219.768 165.042C219.804 165.039 219.839 165.037 219.874 165.037ZM219.492 164.857C219.49 164.857 219.487 164.859 219.485 164.859C219.482 164.859 219.48 164.857 219.48 164.857H219.492ZM218.628 165.174C219.005 165.179 219.359 165.336 219.625 165.612C219.891 165.888 220.032 166.251 220.027 166.631L219.957 171.077C219.952 171.457 219.796 171.814 219.522 172.083C219.248 172.349 218.892 172.489 218.512 172.489C217.729 172.476 217.101 171.822 217.113 171.031L217.184 166.585C217.196 165.802 217.832 165.174 218.603 165.174C218.613 165.174 218.62 165.174 218.628 165.174ZM207.343 164.117L217.947 164.763C217.691 164.857 217.458 165.001 217.254 165.199C217.008 165.44 216.832 165.736 216.739 166.061L207.37 165.458L207.355 165.683L216.689 166.284C216.674 166.38 216.661 166.476 216.661 166.578L216.591 171.024C216.586 171.292 216.636 171.553 216.737 171.797L207.235 171.062L207.343 164.117ZM204.06 172.844C203.399 172.091 203.068 171.125 203.128 170.121L203.276 167.64C203.336 166.636 203.781 165.716 204.524 165.049C205.245 164.403 206.167 164.076 207.129 164.109L207.019 171.11L204.517 173.279C204.356 173.148 204.2 173.006 204.06 172.844ZM230.072 174.43C229.326 175.097 228.366 175.426 227.374 175.371L206.624 174.106C205.918 174.063 205.255 173.819 204.69 173.416L207.159 171.275L216.845 172.022C216.925 172.164 217.023 172.299 217.139 172.42C217.5 172.798 217.985 173.011 218.502 173.018C218.512 173.018 218.523 173.018 218.533 173.018C218.821 173.018 219.103 172.952 219.356 172.831C219.482 172.861 219.613 172.879 219.746 172.882C219.791 172.882 219.836 172.882 219.879 172.882C220.504 172.882 221.047 172.795 221.336 172.238L231.059 173.001C230.853 173.541 230.519 174.032 230.072 174.43ZM231.471 169.358L231.323 171.84C231.302 172.167 231.24 172.484 231.139 172.788L221.431 172.025C221.514 171.787 221.562 171.485 221.569 171.1L221.64 166.654C221.64 166.631 221.637 166.606 221.637 166.583L228.924 167.044C230.006 167.11 230.948 167.736 231.448 168.666C231.473 168.892 231.483 169.123 231.471 169.358ZM228.934 166.821L221.615 166.357C221.514 165.683 221.042 165.125 220.411 164.913L227.972 165.374C229.582 165.473 230.891 166.596 231.32 168.073C230.75 167.348 229.893 166.879 228.934 166.821Z" fill="#E9EEF1"/>
<path d="M136.15 201.217L138.185 212.899L140.019 226.077L252.923 239.442L253.272 239.483L250.952 211.984L136.15 201.217ZM138.936 214.126L144.221 214.686L144.949 219.487L145.233 219.444L145.203 219.732L147.064 219.938L148.292 222.465L148.277 222.604L148.365 222.614L148.373 222.63L140.511 225.423L138.936 214.126ZM252.642 238.824L141.541 225.671L145.866 224.135L145.863 224.148L252.398 235.964L252.642 238.824ZM252.351 235.376L147.092 223.699L148.868 223.068L148.772 222.794L148.996 222.685L252.268 234.368L252.351 235.376ZM252.248 234.15L148.928 222.462L148.287 221.142L252.14 232.87L252.248 234.15ZM252.119 232.649L148.177 220.911L147.742 220.014L252.032 231.562L252.119 232.649ZM251.979 230.974L145.484 219.18L144.811 214.749L251.564 226.072L251.979 230.974ZM138.853 213.535L138.753 212.808L136.846 201.866L250.422 212.516L251.517 225.484L138.853 213.535Z" fill="#E9EEF1"/>
<path d="M206.106 158.665L230.314 159.72H230.317C230.324 159.72 230.332 159.72 230.339 159.72C230.915 159.72 231.485 159.367 231.947 158.726C232.361 158.153 232.623 157.416 232.633 156.8L232.696 152.775C232.723 152.755 232.751 152.737 232.778 152.717L232.698 152.605L233.01 132.779L233.06 132.698C233.045 132.688 233.027 132.677 233.012 132.67L233.082 128.224L233.097 128.201C233.092 128.199 233.087 128.194 233.082 128.191L233.123 125.667C233.133 125.058 232.904 124.478 232.482 124.037C232.06 123.596 231.492 123.347 230.892 123.337L206.678 122.506C205.418 122.498 204.385 123.966 204.365 125.203L203.875 156.339C203.865 156.947 204.094 157.527 204.516 157.966C204.94 158.409 205.505 158.658 206.106 158.665ZM224.638 153.629C220.986 153.571 217.617 152.09 215.148 149.459C212.719 146.872 211.413 143.46 211.468 139.856C211.496 138.157 211.853 136.52 212.506 135.009C212.82 135.161 213.192 135.316 213.616 135.476C212.983 136.875 212.636 138.393 212.611 139.97C212.559 143.252 213.784 146.357 216.062 148.714C218.376 151.11 221.536 152.458 224.954 152.514C225.007 152.514 225.06 152.514 225.115 152.514C227.436 152.514 229.865 151.708 232.344 150.121L232.326 151.224C231.193 151.948 227.604 153.68 224.638 153.629ZM232.324 151.48L232.311 152.278C229.897 154.035 227.064 154.939 224.105 154.891C216.417 154.767 210.263 148.164 210.388 140.172C210.421 138.165 210.843 136.229 211.614 134.452C211.767 134.599 212.006 134.753 212.315 134.913C211.647 136.454 211.283 138.122 211.255 139.853C211.197 143.513 212.523 146.978 214.992 149.609C217.499 152.281 220.925 153.786 224.633 153.847C224.673 153.847 224.716 153.847 224.756 153.847C227.657 153.844 231.075 152.24 232.324 151.48ZM224.959 152.298C221.596 152.245 218.491 150.917 216.216 148.565C213.978 146.248 212.772 143.196 212.825 139.975C212.85 138.396 213.199 136.903 213.812 135.549C214.154 135.676 214.525 135.803 214.92 135.932C214.297 137.202 213.96 138.583 213.938 140.02C213.892 142.95 215.053 145.723 217.21 147.83C219.398 149.966 222.385 151.173 225.615 151.226C225.66 151.226 225.703 151.226 225.748 151.226C228.418 151.226 230.515 149.941 232.369 148.775L232.351 149.868C229.809 151.515 227.333 152.334 224.959 152.298ZM213.636 131.106C213.932 130.738 214.249 130.384 214.583 130.044C214.282 130.376 213.96 130.736 213.636 131.106ZM225.617 151.006C222.44 150.955 219.506 149.771 217.359 147.67C215.246 145.607 214.106 142.89 214.151 140.02C214.174 138.606 214.508 137.245 215.126 135.995C215.628 136.155 216.165 136.317 216.731 136.479C216.191 137.607 215.894 138.834 215.874 140.107C215.831 142.758 216.884 145.27 218.836 147.176C220.817 149.112 223.52 150.202 226.444 150.25C226.484 150.25 226.524 150.25 226.562 150.25C228.883 150.25 230.736 149.16 232.374 148.134L232.369 148.514C230.485 149.703 228.348 151.051 225.617 151.006ZM226.449 150.035C223.578 149.989 220.928 148.92 218.986 147.021C217.077 145.156 216.047 142.702 216.088 140.109C216.108 138.854 216.402 137.648 216.939 136.538C217.396 136.667 217.868 136.796 218.356 136.926C217.924 137.909 217.688 138.971 217.67 140.069C217.59 145.153 221.676 149.203 226.971 149.29C227.006 149.29 227.042 149.29 227.077 149.29C229.136 149.29 230.892 148.324 232.389 147.363L232.382 147.878C230.711 148.93 228.82 150.07 226.449 150.035ZM226.974 149.097C221.784 149.013 217.781 145.049 217.858 140.074C217.876 138.991 218.112 137.945 218.542 136.976C219.041 137.108 219.551 137.24 220.066 137.369C219.782 138.178 219.622 139.047 219.607 139.96C219.534 144.651 222.879 148.111 227.564 148.185C227.599 148.185 227.637 148.185 227.672 148.185C229.219 148.185 230.88 147.655 232.397 146.684L232.389 147.133C230.869 148.116 229.081 149.13 226.974 149.097ZM227.677 148.01C227.642 148.01 227.607 148.01 227.571 148.01C222.987 147.936 219.712 144.552 219.785 139.962C219.8 139.065 219.958 138.208 220.24 137.412C220.584 137.498 220.93 137.585 221.279 137.668C221.066 138.309 220.945 138.991 220.935 139.704C220.905 141.599 221.689 144.355 224 145.883C224.831 146.433 226.022 146.915 227.644 146.915C228.943 146.915 230.525 146.6 232.414 145.772L232.404 146.471C230.89 147.462 229.227 148.01 227.677 148.01ZM220.285 134.459C220.436 134.31 220.589 134.163 220.752 134.023C222.573 132.447 224.994 131.605 227.554 131.643C228.383 131.656 229.156 131.818 229.877 132.064C229.382 131.927 228.863 131.841 228.312 131.831C228.262 131.831 228.209 131.831 228.159 131.831C225.283 131.831 222.774 133.141 221.229 135.194C220.895 134.949 220.579 134.703 220.285 134.459ZM224.083 145.754C221.825 144.261 221.058 141.561 221.086 139.706C221.096 139.007 221.217 138.335 221.428 137.704C221.84 137.803 222.252 137.901 222.663 137.998C222.553 138.403 222.493 138.814 222.485 139.227C222.455 141.161 223.07 142.882 224.223 144.071C225.333 145.219 226.853 145.807 228.737 145.822C228.77 145.822 228.802 145.822 228.835 145.822C230.312 145.822 231.515 145.543 232.429 144.998L232.419 145.602C228.187 147.477 225.552 146.727 224.083 145.754ZM228.739 145.607C226.913 145.592 225.444 145.024 224.377 143.919C223.266 142.77 222.671 141.105 222.701 139.23C222.706 138.832 222.766 138.434 222.874 138.046C223.425 138.173 223.97 138.299 224.51 138.421C224.482 138.606 224.462 138.791 224.459 138.979C224.419 141.452 225.253 143.181 226.933 144.121C227.931 144.679 229.109 144.864 230.151 144.864C231.123 144.864 231.972 144.702 232.439 144.527L232.437 144.748C231.533 145.32 230.262 145.619 228.739 145.607ZM232.437 144.322C231.653 144.639 229.033 145.082 227.019 143.954C225.404 143.052 224.603 141.376 224.643 138.979C224.645 138.806 224.663 138.631 224.688 138.459C228.26 139.26 231.435 139.889 232.505 140.096L232.437 144.322ZM232.505 140.074C229.47 139.303 226.994 138.388 224.979 137.412C225.258 136.733 225.7 136.089 226.288 135.544C227.325 134.581 228.684 134.036 230.005 134.061C231.013 134.077 231.869 134.508 232.585 134.951L232.505 140.074ZM232.588 134.733C231.869 134.297 231.015 133.889 230.008 133.874C228.642 133.854 227.235 134.411 226.162 135.407C225.56 135.967 225.102 136.632 224.814 137.331C224.349 137.103 223.907 136.87 223.49 136.634C223.824 136.092 224.253 135.587 224.771 135.146C226.049 134.056 227.717 133.443 229.347 133.471C230.626 133.491 231.701 134.074 232.59 134.652L232.588 134.733ZM232.593 134.401C231.698 133.831 230.626 133.276 229.35 133.255C227.674 133.23 225.949 133.859 224.63 134.981C224.093 135.44 223.646 135.965 223.301 136.528C222.962 136.332 222.636 136.137 222.327 135.94C223.681 134.051 226.012 132.847 228.699 132.895C230.229 132.921 231.52 133.598 232.593 134.287V134.401ZM232.598 134.11C231.523 133.425 230.231 132.769 228.704 132.743C228.657 132.743 228.609 132.743 228.561 132.743C225.881 132.743 223.558 133.965 222.201 135.861C221.912 135.673 221.636 135.486 221.372 135.298C222.885 133.288 225.341 132.008 228.159 132.008C228.209 132.008 228.26 132.008 228.31 132.008C229.993 132.036 231.417 132.802 232.605 133.59L232.598 134.11ZM232.613 133.205C231.224 132.335 229.548 131.481 227.556 131.448C224.957 131.408 222.483 132.267 220.626 133.874C220.456 134.021 220.295 134.175 220.137 134.333C219.825 134.066 219.536 133.805 219.27 133.544C219.303 133.516 219.333 133.486 219.365 133.458C221.435 131.727 224.183 130.797 227.094 130.845C229.252 130.88 231.085 131.76 232.618 132.677L232.613 133.205ZM232.625 132.434C231.091 131.524 229.259 130.667 227.102 130.632C224.13 130.581 221.34 131.529 219.232 133.293C219.195 133.326 219.157 133.359 219.119 133.392C218.763 133.035 218.449 132.683 218.172 132.345C220.413 130.629 223.299 129.714 226.333 129.765C228.81 129.806 230.9 130.853 232.63 131.907L232.625 132.434ZM232.638 131.661C230.905 130.614 228.817 129.593 226.338 129.552C223.246 129.507 220.317 130.434 218.039 132.181C217.758 131.823 217.517 131.479 217.313 131.154C219.566 129.415 222.503 128.396 225.74 128.447C228.453 128.49 230.726 129.745 232.595 130.964L232.65 130.878L232.638 131.661ZM232.65 130.746C230.769 129.522 228.481 128.275 225.743 128.232C222.581 128.181 219.584 129.157 217.21 130.987C216.952 130.556 216.753 130.161 216.605 129.816C219.102 127.915 222.209 126.906 225.494 126.962C228.312 127.007 230.691 128.29 232.665 129.595L232.65 130.746ZM232.673 129.339C230.694 128.044 228.317 126.789 225.499 126.746C222.189 126.693 219.049 127.704 216.522 129.611C216.349 129.175 216.258 128.832 216.211 128.617C218.569 126.85 221.39 125.897 224.341 125.897C224.414 125.897 224.49 125.897 224.562 125.9C227.245 125.943 230.35 127.007 232.683 128.678L232.673 129.339ZM232.696 127.92C230.309 126.318 227.242 125.312 224.575 125.269C220.682 125.21 216.997 126.721 214.199 129.537C211.403 132.351 209.831 136.122 209.765 140.162C209.635 148.504 216.062 155.393 224.098 155.522C224.176 155.522 224.253 155.525 224.329 155.525C227.185 155.525 229.925 154.676 232.299 153.059L232.258 155.654C232.246 156.516 231.538 157.233 231.096 157.233C231.093 157.233 231.091 157.233 231.088 157.233L207.907 156.861C207.284 156.851 206.764 156.678 206.405 156.361C206.078 156.072 205.902 155.672 205.907 155.231L206.37 125.862C206.385 124.99 207.093 124.288 207.954 124.288C207.962 124.288 207.972 124.288 207.98 124.288L231.161 124.66C231.583 124.668 231.977 124.84 232.271 125.147C232.567 125.454 232.726 125.859 232.718 126.283L232.696 127.92ZM204.579 125.208C204.596 124.075 205.523 122.721 206.651 122.721C206.658 122.721 206.666 122.721 206.673 122.721L230.887 123.553C231.435 123.56 231.947 123.786 232.329 124.186C232.713 124.587 232.919 125.109 232.909 125.662L232.904 125.933C232.841 125.583 232.678 125.261 232.424 124.997C232.09 124.648 231.641 124.453 231.163 124.445L207.982 124.072C206.992 124.06 206.171 124.858 206.156 125.857L205.694 155.226C205.686 155.73 205.887 156.192 206.264 156.524C206.661 156.876 207.229 157.066 207.904 157.076L231.085 157.449C231.088 157.449 231.09 157.449 231.093 157.449C231.565 157.449 232.258 156.833 232.432 156.009L232.419 156.797C232.399 157.999 231.42 159.504 230.337 159.504C230.332 159.504 230.324 159.504 230.319 159.504L206.111 158.45C205.563 158.442 205.051 158.217 204.669 157.816C204.285 157.416 204.079 156.894 204.089 156.341L204.579 125.208Z" fill="#E9EEF1"/>
<path d="M211.325 166.525L208.555 167.843L211.051 169.864L211.066 168.933C211.066 168.933 212.825 168.923 213.018 168.964L213.068 167.483L211.421 167.347L211.325 166.525Z" fill="#E9EEF1"/>
<path d="M261.21 42.159C261.21 42.1286 261.205 42.1007 261.202 42.0703L261.253 42.0247C261.235 42.0044 261.213 41.9866 261.195 41.9664C261.157 41.4898 261.007 41.1122 260.738 40.8536C260.366 40.4963 259.896 40.476 259.713 40.4811L215.742 42.0247L215.649 42.0272C215.154 42.0424 214.328 42.0678 214.312 43.0943L215.023 72.912L215.033 72.9551C215.31 73.5508 215.784 73.9158 216.272 73.9158C216.284 73.9158 216.297 73.9158 216.309 73.9158L218.382 73.8853C218.402 73.8853 218.419 73.8879 218.442 73.8879C218.485 73.8879 218.53 73.8828 218.575 73.8828L230.102 73.713V73.7434L230.31 73.7383V73.7104L246.933 73.4646V73.4697L247.142 73.4646V73.462L260.484 73.2643C260.876 73.2567 261.195 73.1224 261.436 72.8639C261.926 72.3392 261.946 71.4445 261.933 71.0845L261.21 42.159ZM216.304 73.7028C215.807 73.7257 215.435 73.2973 215.239 72.8892L214.529 43.0994C214.541 42.3466 215.023 42.2705 215.656 42.2502L259.721 40.7041C259.879 40.699 260.276 40.7168 260.59 41.0159C260.781 41.1984 260.904 41.4569 260.959 41.7788C260.655 41.5938 260.336 41.5811 260.185 41.5862L257.864 41.6673V41.6242L257.656 41.6293V41.6749L217.631 43.0791L217.54 43.0816C217.063 43.0968 216.262 43.1222 216.247 44.1158L216.935 72.9754L216.945 73.0185C217.083 73.3176 217.286 73.5381 217.548 73.6851L216.304 73.7028ZM218.301 73.6724C217.749 73.6344 217.357 73.3961 217.141 72.9475L216.453 44.1132C216.465 43.3832 216.932 43.3097 217.543 43.292L217.791 43.2844L218.585 73.6699L218.301 73.6724ZM220.738 73.6369L219.946 43.2616L219.738 43.2666L220.529 73.6395L218.791 73.6648L217.997 43.2768L221.662 43.1475L222.448 73.6116L220.738 73.6369ZM224.52 73.5812L223.729 43.2083L223.521 43.2134L224.312 73.5837L222.654 73.6091L221.868 43.1399L227.396 42.9473L228.175 73.5279L224.52 73.5812ZM231.759 73.4747L230.971 42.9169L230.762 42.9219L231.551 73.4773L230.305 73.495L229.526 42.8864L229.318 42.8915L230.097 73.4975L228.386 73.5229L227.607 42.9371L232.689 42.7597L233.477 73.3936L233.686 73.3885L232.897 42.7546L236.562 42.6254L237.346 73.3911L231.759 73.4747ZM241.337 73.3328L240.551 42.5443L240.342 42.5493L241.126 73.3378L237.549 73.3911L236.765 42.6203L242.294 42.4251L243.077 73.1934L243.286 73.1883L242.502 42.4175L246.124 42.2908L246.926 73.2517L241.337 73.3328ZM247.136 73.2491L246.333 42.2832L248.051 42.2224L248.855 73.2213L247.136 73.2491ZM249.066 73.2187L248.262 42.2148L249.997 42.1539L250.801 73.1934L249.066 73.2187ZM251.01 73.1908L250.206 42.1463L251.924 42.0855L252.72 73.163L251.01 73.1908ZM252.929 73.163L252.132 42.0804L253.778 42.0221L254.584 73.1376L252.929 73.163ZM254.795 73.1351L253.989 42.0145L255.707 41.9537L256.505 73.1097L254.795 73.1351ZM256.714 73.1072L255.915 41.9461L257.658 41.8853L258.457 73.0793L256.714 73.1072ZM258.668 73.0768L257.869 41.8777L259.577 41.8168L260.379 73.0514L258.668 73.0768ZM261.283 72.7194C261.105 72.9095 260.868 73.0134 260.587 73.0413L259.786 41.8118L260.193 41.7965C260.343 41.7889 260.695 41.8092 260.986 42.0576C260.989 42.0931 260.994 42.126 260.994 42.1615L261.72 71.0947C261.732 71.4293 261.715 72.2555 261.283 72.7194Z" fill="#E9EEF1"/>
<path d="M244.425 42.3891L244.217 42.3945L245.003 73.2498L245.211 73.2444L244.425 42.3891Z" fill="#E9EEF1"/>
<path d="M238.632 42.7094L238.424 42.7148L239.213 73.3522L239.422 73.3468L238.632 42.7094Z" fill="#E9EEF1"/>
<path d="M234.845 42.7641L234.637 42.7695L235.426 73.4069L235.635 73.4014L234.845 42.7641Z" fill="#E9EEF1"/>
<path d="M225.66 43.0452L225.451 43.0508L226.244 73.4626L226.452 73.4571L225.66 43.0452Z" fill="#E9EEF1"/>
<path d="M210.736 71.9468C210.724 71.8404 210.713 71.7517 210.711 71.6908L209.782 46.9044C209.759 46.1288 209.726 45.5179 209.666 45.0338H209.706L209.701 44.8158L209.633 44.8184C209.397 43.3204 208.802 43.2139 207.119 43.2393L146.522 44.7702C146.03 44.7601 145.638 44.9248 145.342 45.2543C144.633 46.0426 144.691 47.5685 144.787 48.4024L145.897 74.1849C145.94 74.8997 146.954 76.0885 147.66 76.0885C147.673 76.0885 147.685 76.0885 147.698 76.0885L208.787 75.1557C209.435 75.2064 209.935 75.0543 210.274 74.6969C210.465 74.4967 210.59 74.2458 210.673 73.9771H210.714L210.711 73.8402C210.874 73.1635 210.786 72.3929 210.736 71.9468ZM146.113 74.1748L145.003 48.3846C144.91 47.5812 144.852 46.1237 145.503 45.4013C145.749 45.1276 146.08 44.9882 146.492 44.9882C146.502 44.9882 146.515 44.9882 146.525 44.9882L207.127 43.4547C208.689 43.4319 209.219 43.4775 209.427 44.8209L148.662 46.3417C148.168 46.3316 147.778 46.4963 147.482 46.8258C146.774 47.6141 146.831 49.14 146.927 49.9739L147.851 73.2522L146.186 74.4815C146.146 74.37 146.118 74.2661 146.113 74.1748ZM210.118 74.5449C209.824 74.8516 209.38 74.9834 208.8 74.9377H208.794L147.688 75.8705C147.256 75.9009 146.613 75.285 146.299 74.7147L210.445 73.9771C210.372 74.1951 210.269 74.3903 210.118 74.5449ZM210.508 73.7617L146.535 74.4967L147.999 73.4144L210.495 72.8644L210.492 72.6464L148.067 73.1964L147.143 49.9561C147.05 49.1526 146.992 47.6952 147.643 46.9728C147.896 46.6915 148.24 46.5495 148.665 46.5597L209.458 45.0389C209.515 45.5103 209.543 46.1212 209.566 46.912L210.495 71.701C210.5 71.7669 210.51 71.8607 210.523 71.9722C210.57 72.3955 210.653 73.1305 210.508 73.7617Z" fill="#E9EEF1"/>
<path d="M248.951 173.299C249.348 173.411 249.845 173.479 250.282 173.487L276.269 174.214C276.382 174.217 276.49 174.217 276.595 174.217C277.864 174.217 278.587 174.085 278.859 173.806C279.004 173.656 278.999 173.494 278.997 173.373C278.997 173.352 278.997 173.332 278.997 173.317L279.009 173.061C279.421 172.384 279.436 171.525 279.444 170.932L279.929 146.69C279.941 146.683 279.954 146.672 279.964 146.665L279.929 146.614L279.931 146.437C279.999 146.373 280.067 146.312 280.122 146.254L279.939 146.072L280.486 118.631C280.504 117.471 279.582 116.51 278.432 116.49L251.558 116.059C250.408 116.044 249.016 116.959 248.996 118.127L248.634 149.491L248.584 149.493C248.582 149.679 248.579 149.924 248.627 150.178L248.446 165.913L248.232 172.82C248.235 173.005 248.474 173.167 248.951 173.299ZM278.756 173.699C278.587 173.869 278.175 173.981 277.527 174.032C278.15 173.907 278.57 173.634 278.851 173.286V173.312C278.851 173.332 278.851 173.355 278.851 173.378C278.856 173.484 278.859 173.596 278.756 173.699ZM279.233 170.929C279.225 171.38 279.213 171.951 279.042 172.473L279.313 166.924L279.233 170.929ZM279.677 148.639H279.645C279.635 149.286 279.612 150.373 276.867 150.325L271.08 150.087C271.494 150.051 271.911 149.993 272.325 149.917C273.981 149.793 275.455 149.255 276.975 148.51C277.304 148.363 277.62 148.198 277.932 148.018C278.19 147.881 278.449 147.739 278.715 147.595L278.69 147.549C279.029 147.326 279.366 147.091 279.71 146.847L279.677 148.639ZM265.056 147.978C263.434 147.113 261.977 145.95 260.764 144.518C258.282 141.588 257.114 137.9 257.473 134.131C257.843 130.278 259.535 126.801 262.243 124.34C265.031 121.805 268.653 120.611 272.451 120.984C275.038 121.235 277.294 122.7 279.379 124.322C278.891 124.023 278.409 123.772 277.919 123.569C276.39 122.484 274.85 121.949 272.798 121.749C265.687 121.057 259.297 126.753 258.558 134.448C258.016 140.151 260.724 145.372 265.056 147.978ZM272.474 120.738C268.611 120.36 264.918 121.574 262.08 124.157C259.327 126.659 257.606 130.195 257.232 134.108C256.865 137.943 258.053 141.697 260.58 144.678C262.454 146.89 264.898 148.48 267.643 149.311C261.128 148.008 256.237 141.943 256.351 134.754C256.476 126.707 262.823 120.266 270.502 120.385C273.943 120.441 276.578 121.45 278.874 123.63C276.94 122.19 274.852 120.968 272.474 120.738ZM258.787 134.471C259.51 126.9 265.79 121.295 272.778 121.977C274.425 122.137 275.734 122.52 276.98 123.237C276.764 123.174 276.543 123.12 276.317 123.072C275.576 122.847 274.779 122.7 273.888 122.611C266.777 121.916 260.415 127.33 259.711 134.678C259.37 138.237 260.392 141.715 262.587 144.467C264.783 147.222 267.89 148.926 271.336 149.26C271.735 149.298 272.117 149.319 272.489 149.324C272.127 149.397 271.763 149.455 271.401 149.496C270.999 149.496 270.585 149.476 270.15 149.433C263.157 148.756 258.061 142.042 258.787 134.471ZM267.945 149.955L256.443 149.481L255.451 149.26C253.917 149.235 253.181 148.616 253.201 147.364L253.402 120.672C253.419 119.519 254.208 118.555 255.258 118.274L256.742 118.292L257.28 118.36C256.067 118.604 255.145 119.63 255.125 120.875L254.725 146.307C254.7 147.856 255.494 148.657 257.388 148.994L267.945 149.955ZM273.722 122.824C266.885 122.852 261.274 128.623 261.158 135.809C261.053 142.597 265.888 148.279 272.182 149.098C271.914 149.088 271.64 149.07 271.356 149.042C267.97 148.713 264.916 147.04 262.758 144.33C260.6 141.621 259.596 138.202 259.93 134.701C260.618 127.523 266.787 122.228 273.722 122.824ZM279.733 145.877C279.012 146.609 277.326 147.681 275.302 148.48C274.767 148.596 274.194 148.657 273.561 148.644C266.915 148.538 261.598 142.784 261.708 135.816C261.816 128.915 267.211 123.374 273.772 123.374C273.835 123.374 273.898 123.374 273.961 123.376C276.397 123.414 278.035 123.964 280.004 125.407C280.029 125.427 280.054 125.447 280.079 125.467L280.145 125.391L279.733 145.877ZM280.145 125.234C280.14 125.232 280.137 125.229 280.132 125.224L280.145 125.206V125.234ZM280.157 124.623C280.107 124.583 280.054 124.542 280.004 124.499L280.162 124.357L280.157 124.623ZM280.165 124.177C277.55 121.24 274.566 119.896 270.509 119.83C262.524 119.704 255.934 126.393 255.8 134.744C255.69 141.834 260.271 147.871 266.538 149.615L257.408 148.786C255.622 148.469 254.904 147.752 254.926 146.31L255.326 120.877C255.346 119.567 256.464 118.515 257.837 118.515C257.85 118.515 257.865 118.515 257.88 118.515L259.545 118.325L277.404 118.533C278.093 118.576 280.331 118.893 280.192 121.11L280.225 121.113L280.165 124.177ZM249.217 118.132C249.232 117.123 250.493 116.279 251.53 116.279C251.54 116.279 251.55 116.279 251.561 116.279L278.434 116.71C279.466 116.725 280.293 117.587 280.278 118.629L280.25 120.018C279.971 119.263 279.245 118.436 277.417 118.32L256.757 118.079L255.946 117.975C255.7 117.97 255.461 118.003 255.235 118.061L251.528 118.018C250.867 117.929 250.325 118.059 249.913 118.401C249.546 118.705 249.333 119.143 249.202 119.574L249.217 118.132ZM249.184 120.941L249.207 120.943L249.21 120.887C249.237 120.421 249.312 119.179 250.046 118.568C250.41 118.264 250.897 118.152 251.51 118.234L254.68 118.272C253.811 118.718 253.203 119.623 253.188 120.674L252.987 147.367C252.977 148.092 253.203 148.637 253.66 148.989C253.934 149.199 254.283 149.339 254.71 149.412L250.88 149.255C249.973 149.24 249.011 148.938 249.019 148.406L248.865 148.404L249.184 120.941ZM248.865 148.675C249.099 149.199 250.013 149.453 250.875 149.468L256.433 149.699L256.682 149.755L256.692 149.709L276.862 150.543C276.917 150.543 276.97 150.543 277.022 150.543C278.693 150.543 279.376 150.107 279.66 149.613L279.645 150.421H279.572C279.567 150.715 279.517 151.146 279.127 151.498C278.66 151.919 277.816 152.122 276.636 152.107L250.945 151.25C250.119 151.293 249.528 151.149 249.187 150.817C248.996 150.629 248.898 150.403 248.85 150.173L248.865 148.675ZM248.84 150.723C248.893 150.809 248.956 150.893 249.034 150.971C249.42 151.346 250.064 151.516 250.943 151.465L276.626 152.322C276.676 152.322 276.729 152.322 276.776 152.322C277.942 152.322 278.778 152.099 279.263 151.658C279.419 151.516 279.537 151.354 279.622 151.169L279.461 159.232C279.308 158.925 279.06 158.666 278.718 158.474C278.095 158.121 277.349 158.061 276.962 158.053L250.757 156.968C250.747 156.968 250.734 156.968 250.724 156.968C249.79 156.968 248.983 157.617 248.752 158.03L248.84 150.723ZM248.707 162.405L248.835 158.233C248.838 158.002 249.672 157.115 250.729 157.115C250.739 157.115 250.749 157.115 250.759 157.115L276.965 158.2C277.341 158.205 278.06 158.266 278.653 158.601C279.092 158.849 279.363 159.196 279.459 159.632L279.416 161.817L278.876 172.858C278.555 173.441 277.937 173.885 276.736 173.885C276.711 173.885 276.683 173.885 276.658 173.885L262.484 173.051L262.866 157.625L262.658 157.62L262.391 168.336L249.127 171.484L249.174 171.687L262.386 168.552L262.356 169.766L250.681 172.359H250.676C250.169 172.351 249.649 172.138 249.247 171.776C248.83 171.401 248.607 170.924 248.614 170.435L248.707 162.405ZM262.349 169.986L262.273 173.043L251.445 172.407L262.349 169.986ZM248.446 170.866C248.539 171.261 248.762 171.631 249.104 171.94C249.544 172.338 250.116 172.572 250.669 172.579L275.616 174.044L250.285 173.337C249.858 173.329 249.375 173.261 248.988 173.155C248.509 173.02 248.383 172.883 248.386 172.825L248.446 170.866Z" fill="#E9EEF1"/>
<path d="M269.097 129.849C269.926 128.739 270.955 127.766 272.231 127.137L272.314 127.091L272.289 127.018C272.257 126.924 272.241 126.876 267.554 127.935L267.517 127.943L267.499 127.976C267.464 128.037 264.03 134.14 265.726 138.13L265.849 138.421L265.889 138.107C265.897 138.056 266.306 135.005 267.776 132.029C267.698 132.237 267.62 132.455 267.547 132.683C267.087 134.105 266.68 136.135 267.361 137.734L267.484 138.026L267.524 137.712C267.532 137.648 268.381 131.307 272.354 129.35L272.435 129.307L272.41 129.233C272.377 129.139 272.367 129.109 269.097 129.849ZM265.769 137.767C264.445 134.011 267.366 128.572 267.63 128.098C268.984 127.791 270.865 127.375 271.732 127.208C270.564 127.877 269.617 128.835 268.846 129.907C268.82 129.912 268.798 129.918 268.773 129.923L268.735 129.93L268.717 129.963C268.715 129.968 268.599 130.171 268.431 130.516C266.623 133.352 265.942 136.728 265.769 137.767ZM267.404 137.367C266.628 135.02 267.969 131.849 268.582 130.594C268.697 130.414 268.818 130.237 268.941 130.062C269.906 129.844 271.171 129.565 271.85 129.428C268.655 131.352 267.627 136.087 267.404 137.367Z" fill="#E9EEF1"/>
<path d="M235.76 45.3327L235.547 45.3398L236.331 69.1007L236.545 69.0935L235.76 45.3327Z" fill="#E9EEF1"/>
<path d="M239.565 44.1934L239.352 44.1992L240.082 71.289L240.295 71.2831L239.565 44.1934Z" fill="#E9EEF1"/>
<path d="M243.588 44.896L243.375 44.9023L244.128 70.6619L244.342 70.6556L243.588 44.896Z" fill="#E9EEF1"/>
<path d="M247.268 45.9694L247.055 45.9766L247.839 69.7374L248.053 69.7302L247.268 45.9694Z" fill="#E9EEF1"/>
<path d="M262.769 153.01L262.732 155.326L265.028 155.363L265.064 153.047L262.769 153.01Z" fill="#E9EEF1"/>
<path d="M231.985 44.0684L231.771 44.0742L232.502 71.164L232.715 71.1581L231.985 44.0684Z" fill="#E9EEF1"/>
<path d="M228.604 46.487L228.391 46.4941L229.175 70.255L229.389 70.2478L228.604 46.487Z" fill="#E9EEF1"/>
</g>
</g>
<defs>
<filter id="filter0_f_6258_103957" x="-186" y="-190" width="444" height="444" filterUnits="userSpaceOnUse" color-interpolation-filters="sRGB">
<feFlood flood-opacity="0" result="BackgroundImageFix"/>
<feBlend mode="normal" in="SourceGraphic" in2="BackgroundImageFix" result="shape"/>
<feGaussianBlur stdDeviation="45" result="effect1_foregroundBlur_6258_103957"/>
</filter>
<filter id="filter1_f_6258_103957" x="68" y="1" width="444" height="444" filterUnits="userSpaceOnUse" color-interpolation-filters="sRGB">
<feFlood flood-opacity="0" result="BackgroundImageFix"/>
<feBlend mode="normal" in="SourceGraphic" in2="BackgroundImageFix" result="shape"/>
<feGaussianBlur stdDeviation="45" result="effect1_foregroundBlur_6258_103957"/>
</filter>
<clipPath id="clip0_6258_103957">
<rect width="315" height="240" fill="white" transform="translate(20 20)"/>
</clipPath>
<clipPath id="clip1_6258_103957">
<rect width="219" height="215" fill="white" transform="translate(129 32)"/>
</clipPath>
</defs>
</svg>
