<svg width="325" height="400" viewBox="0 0 325 400" fill="none" xmlns="http://www.w3.org/2000/svg">
<mask id="mask0_6259_105287" style="mask-type:alpha" maskUnits="userSpaceOnUse" x="0" y="0" width="325" height="400">
<path d="M286.678 400H20C8.95431 400 0 391.046 0 380V20C0 8.95431 8.9543 0 20 0H305C316.046 0 325 8.9543 325 20V361.559C325 366.841 322.911 371.909 319.188 375.656L300.866 394.096C297.111 397.875 292.005 400 286.678 400Z" fill="#050505"/>
<path d="M286.678 399.5H20C9.23045 399.5 0.5 390.77 0.5 380V20C0.5 9.23045 9.23045 0.5 20 0.5H305C315.77 0.5 324.5 9.23044 324.5 20V361.559C324.5 366.709 322.463 371.65 318.833 375.303L300.511 393.744C296.85 397.428 291.871 399.5 286.678 399.5Z" stroke="url(#paint0_linear_6259_105287)" stroke-opacity="0.5"/>
</mask>
<g mask="url(#mask0_6259_105287)">
<g filter="url(#filter0_f_6259_105287)">
<circle cx="257" cy="328" r="135" fill="#0F351F"/>
</g>
<g filter="url(#filter1_f_6259_105287)">
<circle cx="8" cy="24" r="135" fill="#0F351F"/>
</g>
</g>
<g clip-path="url(#clip0_6259_105287)">
<g opacity="0.6">
<path d="M190.896 215.076C190.395 215.076 189.938 215.254 189.582 215.6C189.228 215.945 189.03 216.409 189.022 216.905C189.014 217.402 189.199 217.87 189.541 218.23C189.884 218.586 190.344 218.786 190.836 218.795C190.847 218.795 190.855 218.795 190.866 218.795C191.347 218.795 191.801 218.608 192.147 218.271C192.878 217.558 192.895 216.379 192.187 215.641C191.847 215.287 191.388 215.084 190.896 215.076ZM191.964 218.082C191.339 218.693 190.335 218.677 189.732 218.046C189.438 217.742 189.28 217.338 189.286 216.913C189.294 216.488 189.462 216.091 189.767 215.795C190.074 215.496 190.469 215.348 190.866 215.348C191.279 215.348 191.692 215.509 192 215.833C192.293 216.14 192.451 216.541 192.443 216.966C192.438 217.388 192.269 217.785 191.964 218.082Z" fill="#E9EEF1"/>
<path d="M190.907 215.965C190.64 215.973 190.393 216.061 190.202 216.245C190.012 216.428 189.906 216.678 189.901 216.944C189.892 217.492 190.327 217.947 190.871 217.956C190.877 217.956 190.882 217.956 190.888 217.956C191.146 217.956 191.388 217.857 191.576 217.676C191.766 217.492 191.872 217.243 191.878 216.977C191.886 216.428 191.451 215.976 190.907 215.965ZM190.88 217.692C190.686 217.69 190.504 217.61 190.371 217.47C190.235 217.33 190.164 217.147 190.167 216.952C190.17 216.757 190.249 216.574 190.387 216.439C190.523 216.308 190.703 216.234 190.89 216.234C190.893 216.234 190.899 216.234 190.901 216.234C191.301 216.239 191.619 216.574 191.614 216.974C191.608 217.377 191.277 217.69 190.88 217.692Z" fill="#E9EEF1"/>
<path d="M209.571 215.781C209.204 215.477 208.755 215.345 208.304 215.408C207.852 215.474 207.458 215.726 207.191 216.124C206.645 216.933 206.811 218.095 207.559 218.718C207.863 218.973 208.228 219.107 208.6 219.107C208.674 219.107 208.75 219.102 208.823 219.091C209.275 219.025 209.669 218.773 209.936 218.375C210.485 217.566 210.319 216.401 209.571 215.781ZM209.721 218.224C209.495 218.559 209.166 218.77 208.788 218.825C208.41 218.88 208.035 218.767 207.725 218.512C207.077 217.975 206.936 216.971 207.409 216.272C207.635 215.937 207.967 215.723 208.342 215.671C208.404 215.663 208.467 215.658 208.527 215.658C208.84 215.658 209.144 215.77 209.403 215.984C210.05 216.521 210.191 217.528 209.721 218.224Z" fill="#E9EEF1"/>
<path d="M208.241 216.28C207.996 216.316 207.784 216.453 207.64 216.667C207.499 216.878 207.442 217.136 207.477 217.396C207.548 217.895 207.95 218.26 208.402 218.26C208.442 218.26 208.481 218.257 208.521 218.252C209.019 218.18 209.362 217.679 209.286 217.136C209.207 216.593 208.739 216.209 208.241 216.28ZM208.483 217.988C208.13 218.038 207.795 217.755 207.738 217.358C207.711 217.163 207.752 216.968 207.858 216.815C207.961 216.664 208.108 216.568 208.279 216.543C208.306 216.541 208.334 216.538 208.361 216.538C208.682 216.538 208.97 216.807 209.024 217.174C209.079 217.572 208.837 217.939 208.483 217.988Z" fill="#E9EEF1"/>
<path d="M254.775 105.034C254.435 105.141 254.081 105.371 253.774 105.678C253.47 105.986 253.241 106.345 253.135 106.688C253.004 107.104 253.062 107.464 253.295 107.699C253.448 107.853 253.649 107.93 253.888 107.93C254.016 107.93 254.155 107.908 254.299 107.861C254.639 107.754 254.993 107.524 255.3 107.217C255.604 106.91 255.833 106.551 255.939 106.208C256.069 105.791 256.012 105.432 255.778 105.196C255.545 104.963 255.188 104.905 254.775 105.034ZM255.294 106.005C255.221 106.241 255.05 106.507 254.824 106.734C254.598 106.962 254.334 107.135 254.1 107.209C253.929 107.263 253.812 107.25 253.777 107.214C253.741 107.178 253.731 107.063 253.785 106.888C253.858 106.652 254.03 106.386 254.255 106.158C254.481 105.931 254.745 105.758 254.979 105.684C255.063 105.657 255.134 105.648 255.186 105.648C255.243 105.648 255.284 105.659 255.3 105.678C255.335 105.714 255.349 105.832 255.294 106.005Z" fill="#E9EEF1"/>
<path d="M304.547 155.414L304.561 154.624C304.993 154.646 305.374 154.66 305.698 154.66C306.563 154.66 307.06 154.572 307.313 154.333C307.433 154.221 307.498 154.075 307.498 153.914H307.185L307.498 153.908L307.226 138.017H307.183C307.215 137.828 307.234 137.628 307.207 137.436C307.139 136.92 306.669 136.484 305.921 136.12V127.468H305.885C305.885 125.743 300.827 124.811 296.067 124.811C291.308 124.811 286.249 125.743 286.249 127.468H286.214V136.262C285.597 136.605 285.227 137.008 285.227 137.485C285.227 137.491 285.235 137.795 285.281 138.127V141.108C285.034 141.012 284.778 140.965 284.514 140.965C283.435 140.965 282.51 141.793 282.124 142.964C281.408 142.723 280.541 142.591 279.643 142.591C279.393 142.591 279.148 142.588 278.915 142.583C277.065 142.558 275.471 142.531 275.431 144.568C275.42 145.108 275.561 145.523 275.863 145.832C276.562 146.551 277.993 146.551 279.646 146.551C280.688 146.551 281.67 146.375 282.439 146.06C282.91 146.853 283.666 147.371 284.517 147.371C284.778 147.371 285.037 147.316 285.284 147.22V147.645V153.908C285.284 154.048 285.333 154.174 285.425 154.281L262.55 146.872C262.317 141.332 260.217 135.859 256.573 131.356C253.01 126.952 248.286 123.796 243.205 122.4C243.39 122.214 243.589 122.016 243.809 121.797C245.139 120.467 247.029 118.564 249.273 116.291C253.423 112.087 257.53 107.897 258.27 107.126C258.362 107.03 258.735 106.674 258.808 106.619C260.682 105.396 265.485 103.452 266.624 104.669C268.381 108.111 271.892 110.294 275.776 110.294C281.452 110.294 286.07 105.637 286.07 99.9171C286.07 94.1941 281.452 89.5379 275.776 89.5379C275.463 89.5379 275.148 89.5516 274.841 89.579L274.884 90.0534L274.841 89.579C274.441 89.6147 274.044 89.6805 273.652 89.7655L273.152 89.5406L269.355 87.8295L268.936 88.7756L272.281 90.281C274.161 91.7591 275.216 93.9336 275.132 96.2014C275.025 98.971 273.725 100.721 272.651 101.7C271.18 103.043 269.181 103.8 267.245 103.759C267.217 103.699 267.187 103.644 267.163 103.583L266.91 103.69C264.661 102.338 259.295 105.168 258.3 105.818C258.123 105.933 257.601 106.457 257.595 106.463C255.7 108.434 242.659 121.696 240.902 123.333C240.034 122.99 237.383 121.956 236.026 121.43C240.981 116.154 252.749 103.943 254.946 103.098C257.068 102.281 259.79 101.845 260.652 101.719L260.769 101.771L260.802 101.697C260.845 101.691 260.878 101.686 260.897 101.683C265.46 101.664 269.611 97.6356 269.611 93.2124C269.611 91.4218 269.118 89.7874 268.248 88.4602L268.936 88.7701L269.355 87.824L266.312 86.4529C265.697 86.0197 265.012 85.6741 264.261 85.4438L264.239 85.5206L247.864 78.1441L247.834 78.2126C246.398 76.9841 244.516 76.252 242.398 76.252C237.875 76.252 234.195 79.9621 234.195 84.5224C234.195 88.2079 236.599 91.3368 239.907 92.4007L239.874 92.4775L252.463 98.0826H252.246C252.246 98.11 252.229 100.923 251.092 102.366C249.939 103.827 235.161 118.863 233.271 120.782C231.769 120.22 230.17 119.601 228.726 118.986C226.322 117.969 225.963 118.103 225.794 118.227L191.755 106.013L191.728 106.093C189.054 103.827 185.823 101.902 181.981 100.279L181.953 100.348C179.144 98.4281 176.098 97.3532 172.97 97.2215L153.375 91.3203L153.362 91.3505C149.497 89.3597 145.203 88.2463 140.683 88.2463C123.832 88.2463 110.119 103.696 110.119 122.688C110.119 141.47 123.53 156.788 140.125 157.125L140.114 157.182L157.085 160.336C158.975 161.337 162.312 162.829 165.423 162.829C165.513 162.829 165.603 162.829 165.693 162.826C167.498 162.774 169.266 162.546 170.98 162.157L170.971 162.319C171.485 162.343 171.994 162.357 172.503 162.357C174.398 162.357 176.258 162.179 178.062 161.83L182.576 162.911C182.486 168.881 182.497 170.021 182.663 170.331C182.617 170.263 182.601 170.191 182.598 170.153C182.598 170.175 182.598 170.205 182.598 170.243C182.56 171.68 183.324 172.583 184.877 172.928C185.339 173.03 186.302 173.084 187.561 173.101C187.545 173.485 187.531 173.863 187.518 174.233H181.717L181.733 174.381C181.736 174.406 181.983 176.855 181.246 177.68C181.094 177.85 180.912 177.935 180.694 177.935V178.201H180.754C180.849 179.564 179.925 180.137 179.778 180.22C179.487 180.231 179.256 180.343 179.095 180.56C178.693 181.111 178.875 182.123 178.973 182.534C178.858 182.534 178.712 182.537 178.565 182.539C178.353 182.542 178.149 182.545 178.089 182.545C176.941 182.545 176.006 184.196 176.006 186.222C176.006 188.057 176.772 189.579 177.768 189.853V189.902H179.188C179.052 190.481 179.315 192.11 180.316 192.886C181.431 193.75 181.73 196.829 181.733 196.859L181.744 196.969L188.005 197.583L187.991 197.608L188.217 197.745L190.167 194.457L190.197 194.408L189.25 191.257C190.295 193.667 191.456 193.862 191.714 193.873C191.714 193.873 193.928 193.881 195.484 193.892L195.489 192.971C194.04 192.963 192.024 192.954 191.75 192.952C191.527 192.897 187.703 191.679 188.472 173.189H192.506C192.451 175.651 192.291 186.65 193.588 189.59C193.865 190.218 194.779 191.347 195.535 191.262L195.437 190.347C195.456 190.344 195.465 190.347 195.467 190.347C195.274 190.314 194.668 189.768 194.423 189.214C193.83 187.873 193.566 184.563 193.458 181.259L197.921 181.314L197.918 181.316L207.271 181.412C207.192 183.403 207.099 185.838 207.053 187.363L195.701 187.196L195.699 187.538C195.641 192.2 195.669 194.849 195.731 196.366C194.559 196.544 193.55 197.457 193.596 198.313C193.61 198.579 193.713 198.831 193.887 199.072L193.999 202.695C184.586 204.164 183.058 207.746 182.998 207.899L182.971 207.968L183.444 218.794L183.449 218.92L183.534 219.011C183.672 219.161 184.213 219.726 184.79 220.077C181.7 227.207 143.699 314.853 139.211 325.252H138.096L133.775 334.512L135.028 338.721L135.156 338.787C135.303 338.864 138.572 340.559 141.112 340.559C141.281 340.559 141.447 340.55 141.607 340.537C141.841 340.515 142.274 340.471 145.874 332.044L145.91 331.962L145.703 330.16L145.306 330.207C161.417 292.674 191.11 223.714 193.436 219.129C194.54 218.843 195.462 218.64 195.908 218.805C198.396 219.724 202.791 219.249 204.668 219.049C205.024 219.011 205.332 218.986 205.408 218.981C205.443 218.983 205.516 219.005 205.609 219.035C206.591 222.063 227.393 286.269 229.844 294.163L229.743 294.092L228.601 295.685L230.94 302.305L239.716 303.21L241.34 298.31L239.439 292.019L237.978 291.229L237.921 291.336L231.824 272.626L262.167 338.055L260.475 338.45L265.295 348.763H265.509C265.648 348.763 268.925 348.758 270.076 348.278C270.446 348.121 276.238 344.76 276.899 344.378L277.163 344.225L272.439 333.552L271.672 333.947L219.324 218.758C220.02 218.446 220.496 218.218 220.556 218.188L220.76 218.089L220.747 217.862C220.744 217.807 220.434 212.254 220.35 209.652C220.276 207.458 217.679 205.7 214.799 204.362C214.777 203.386 214.701 201.068 214.502 200.575C214.412 200.35 214.203 200.175 213.888 200.051C213.186 199.777 211.94 199.769 211.19 199.826L211.116 198.096C211.176 197.931 211.203 197.764 211.192 197.597C211.149 196.804 210.393 196.154 209 195.688L208.72 195.521V193.401C208.927 193.478 209.158 193.522 209.422 193.522C211.388 193.522 215.079 193.585 215.117 193.585V193.522C215.457 193.67 215.797 193.75 216.131 193.75C216.186 193.75 216.237 193.747 216.292 193.744C217.358 193.667 218.141 192.85 218.636 192.239C219.147 191.611 219.814 187.149 220.328 183.071L226.24 183.176C226.784 183.809 227.434 184.155 228.166 184.155C228.968 184.155 229.433 184.034 229.594 183.787C229.618 183.749 229.632 183.71 229.64 183.672C231.554 183.458 232.536 178.596 232.92 176.035C233.98 176.194 234.911 176.293 235.585 176.328C235.979 176.348 236.374 176.359 236.765 176.359C238.759 176.359 240.725 176.104 242.634 175.613L242.632 175.624L256.524 178.881L256.676 178.218L256.597 178.199L256.866 172.939L259.6 173.616C259.983 178.618 261.539 181.733 263.799 181.868L263.826 181.401L263.818 181.87L265.961 181.903C266.023 181.912 266.086 181.922 266.149 181.925V181.906L271.139 181.983L271.142 181.859C271.335 181.925 271.531 181.969 271.729 181.98C271.773 181.983 271.816 181.983 271.86 181.983C273.23 181.983 274.555 180.683 275.599 178.3C275.692 178.089 275.782 177.87 275.869 177.645L282.88 179.38C282.358 185.655 282.515 185.836 282.632 185.967L282.736 186.08L303.658 187.124L303.998 187.226L308.412 172.009C309.679 171.864 311.395 171.59 311.395 170.169C311.395 169.44 310.93 168.798 309.984 168.228L311.526 163.215L310.879 163.012L310.696 163.607L304.447 161.318L304.46 160.489L311.545 163.174L311.643 162.812C311.651 162.779 312.557 159.404 312.78 158.693L312.88 158.378L304.547 155.414ZM285.124 99.9226C285.124 105.122 280.93 109.35 275.773 109.35C272.975 109.35 270.391 108.103 268.645 106.027C270.263 106.611 272.428 106.923 273.753 106.923C278.24 106.923 281.89 103.243 281.89 98.7188C281.89 96.0204 280.631 93.5936 278.675 92.1046L278.7 92.047L278.433 91.9263C277.661 91.3861 276.791 90.9858 275.852 90.7637L275.281 90.5059C275.444 90.4977 275.61 90.4922 275.773 90.4922C280.927 90.4922 285.124 94.7234 285.124 99.9226ZM274.397 90.5991L274.367 90.6649L274.397 90.5991ZM272.934 90.0178L272.757 90.4154L272.934 90.0178ZM267.386 103.981C269.322 103.981 271.313 103.208 272.784 101.864C273.889 100.858 275.224 99.0588 275.333 96.2179C275.414 94.1119 274.536 92.0827 272.945 90.5909L274.158 91.1366L275.015 91.5232L275.009 91.5753C275.077 91.5836 275.142 91.6 275.21 91.6137L278.251 92.9793C279.896 94.3038 280.949 96.3961 280.949 98.7188C280.949 102.72 277.721 105.972 273.755 105.972C272.072 105.972 268.882 105.401 267.71 104.51L267.652 104.584C267.579 104.453 267.503 104.324 267.435 104.187L267.443 104.181C267.435 104.17 267.424 104.162 267.416 104.151C267.389 104.093 267.361 104.033 267.334 103.976C267.353 103.978 267.37 103.981 267.386 103.981ZM306.873 153.916C306.873 153.914 306.873 153.914 306.873 153.916V153.916ZM296.067 125.376C301.806 125.376 305.328 126.596 305.328 127.471H305.293V128.214C303.998 127.106 299.967 126.467 296.046 126.467C292.165 126.467 288.175 127.092 286.84 128.178V127.471H286.804C286.807 126.596 290.329 125.376 296.067 125.376ZM286.84 128.548C287.677 127.611 291.167 126.741 296.046 126.741C301.006 126.741 304.528 127.641 305.293 128.595V135.856C303.193 135.08 299.685 134.713 296.388 134.713C293.269 134.713 289.097 135.069 286.84 135.971V128.548ZM296.388 135.453C302.79 135.453 306.361 136.663 306.478 137.537C306.508 137.754 306.44 138.031 306.364 138.25C304.67 137.26 300.435 136.693 296.309 136.693C292.023 136.693 287.623 137.304 286.07 138.368C286.013 138.16 285.958 137.641 285.958 137.491C285.961 136.657 290.022 135.453 296.388 135.453ZM285.281 142.577V146.556C284.887 146.022 284.658 145.311 284.658 144.568C284.658 143.825 284.884 143.115 285.281 142.577ZM279.643 146.268C278.052 146.268 276.679 146.268 276.064 145.635C275.82 145.383 275.705 145.037 275.714 144.577C275.749 142.824 277.005 142.843 278.909 142.871C279.146 142.874 279.393 142.879 279.643 142.879C280.119 142.879 280.584 142.917 281.022 142.992C280.873 143.378 280.786 143.85 280.786 144.352C280.786 145.051 280.941 145.69 281.213 146.107L281.452 145.948C281.215 145.583 281.074 144.988 281.074 144.352C281.074 143.861 281.158 143.403 281.311 143.044C281.569 143.098 281.816 143.162 282.048 143.241C281.974 143.534 281.936 143.847 281.936 144.171C281.936 144.771 282.072 145.331 282.303 145.81C281.572 146.107 280.636 146.268 279.643 146.268ZM282.222 144.173C282.222 143.825 282.273 143.493 282.36 143.183L282.407 143.068C282.404 143.066 282.398 143.066 282.396 143.066C282.738 142.007 283.56 141.258 284.517 141.258C284.781 141.258 285.039 141.319 285.284 141.428V142.128C285.262 142.15 285.24 142.172 285.219 142.196C284.683 142.802 284.373 143.666 284.373 144.568C284.373 145.487 284.68 146.334 285.221 146.94C284.996 147.034 284.759 147.086 284.517 147.086C283.25 147.086 282.222 145.778 282.222 144.173ZM285.907 138.881C286.666 137.913 290.653 136.983 296.309 136.983C301.235 136.983 304.895 137.688 306.261 138.508C306.255 138.522 306.247 138.541 306.242 138.552L306.535 138.7C306.563 138.722 306.587 138.747 306.612 138.769L306.87 153.884C306.565 154.141 304.482 153.999 302.641 153.873C300.862 153.752 298.651 153.598 296.29 153.598C293.916 153.598 291.73 153.752 289.973 153.875C288.112 154.004 286.192 154.139 285.904 153.886V147.651V138.881H285.907ZM280.661 156.563C281.52 159.107 281.719 162.34 281.205 165.434C280.467 169.86 278.689 173.66 276.581 175.423C277.049 173.641 277.359 171.628 277.484 169.528C277.68 166.19 277.383 163.018 276.646 160.594C275.863 158.024 274.653 156.563 273.236 156.478C273.228 156.478 273.222 156.478 273.214 156.478V156.467L267.924 156.393C267.851 153.179 267.149 150.576 266.002 148.978L278.433 153.003C279.323 153.697 280.111 154.939 280.661 156.563ZM263.69 179.641L268.974 179.561C269.265 180.154 269.589 180.642 269.94 181.023L264.683 180.941C264.326 180.612 263.995 180.173 263.69 179.641ZM263.551 179.386C263.26 178.835 263.002 178.199 262.773 177.494L268.188 177.417C268.229 177.568 268.273 177.716 268.316 177.859C268.477 178.391 268.659 178.87 268.855 179.306L263.551 179.386ZM266.013 157.303C265.613 157.585 265.224 157.975 264.854 158.455L263.633 158.419C263.823 158.197 264.019 158.002 264.22 157.838C264.704 157.443 265.199 157.248 265.692 157.254V157.3L266.013 157.303ZM263.429 158.669L264.666 158.707C264.283 159.242 263.921 159.87 263.589 160.58L262.338 160.542C262.67 159.809 263.035 159.179 263.429 158.669ZM262.227 160.794L263.472 160.832C263.141 161.57 262.841 162.387 262.583 163.265L261.395 163.229C261.634 162.338 261.914 161.521 262.227 160.794ZM261.329 163.481L262.512 163.517C262.273 164.364 262.072 165.266 261.917 166.204L260.785 166.221C260.924 165.255 261.109 164.337 261.329 163.481ZM260.745 166.481L261.87 166.465C261.756 167.202 261.669 167.965 261.615 168.738L260.513 168.743C260.565 167.967 260.644 167.211 260.745 166.481ZM267.625 174.453L262.093 174.532C261.968 173.718 261.881 172.86 261.841 171.971L267.435 171.839C267.459 172.742 267.525 173.619 267.625 174.453ZM267.427 171.582L261.83 171.713C261.797 170.852 261.802 169.964 261.857 169.064C261.86 169.04 261.86 169.018 261.862 168.993L267.478 168.971C267.427 169.857 267.41 170.732 267.427 171.582ZM261.593 169.048C261.539 169.958 261.531 170.852 261.563 171.719L260.44 171.746C260.424 170.86 260.44 169.947 260.494 169.031C260.494 169.02 260.497 169.009 260.497 168.999L261.599 168.993C261.599 169.012 261.596 169.031 261.593 169.048ZM260.445 172.004L261.577 171.977C261.618 172.865 261.699 173.723 261.822 174.535L260.63 174.551C260.53 173.756 260.467 172.903 260.445 172.004ZM261.86 174.793C262.001 175.668 262.186 176.49 262.409 177.244L261.142 177.263C260.94 176.531 260.777 175.709 260.66 174.812L261.86 174.793ZM262.488 177.499C262.708 178.199 262.967 178.835 263.252 179.391L261.985 179.411C261.694 178.892 261.435 178.256 261.218 177.519L262.488 177.499ZM262.695 177.239C262.466 176.487 262.278 175.665 262.134 174.787L267.658 174.708C267.772 175.577 267.93 176.4 268.123 177.159L262.695 177.239ZM267.495 168.716L261.881 168.738C261.936 167.962 262.023 167.2 262.137 166.462L267.723 166.38L267.72 166.122L262.181 166.204C262.336 165.269 262.537 164.37 262.773 163.528L268.224 163.695C267.856 165.244 267.609 166.947 267.495 168.716ZM268.281 163.44L262.844 163.273C263.102 162.39 263.404 161.573 263.733 160.84L269.023 161.005C268.74 161.754 268.493 162.574 268.281 163.44ZM269.363 160.158C269.279 160.35 269.2 160.547 269.118 160.75L263.848 160.585C264.188 159.867 264.558 159.236 264.949 158.713L270.019 158.866C269.79 159.255 269.57 159.683 269.363 160.158ZM270.174 158.617L265.145 158.466C265.569 157.947 266.013 157.555 266.467 157.314L271.164 157.38C270.818 157.703 270.489 158.12 270.174 158.617ZM255.868 131.938C259.608 136.558 261.667 142.229 261.667 147.906C261.667 155.88 258.536 163.457 253.081 168.694C248.748 172.854 243.339 175.201 237.668 175.429C243.29 174.979 248.607 172.415 252.773 168.102C257.837 162.856 260.565 155.795 260.451 148.215C260.288 137.356 253.508 127.468 243.747 123.522C248.348 124.962 252.607 127.909 255.868 131.938ZM246.129 142.756C245.324 142.753 242.599 142.081 240.173 141.36C240.255 140.219 240.374 136.693 239.221 132.588C238.234 129.078 236.124 124.641 231.642 121.298L234.815 122.436L234.813 122.447C234.878 122.466 234.943 122.488 235.006 122.505L237.462 123.385L237.472 123.357C237.478 123.36 237.481 123.36 237.486 123.363L237.462 123.448C237.723 123.522 237.981 123.601 238.237 123.684C238.568 123.829 238.898 123.983 239.224 124.142C241.106 125.957 247.318 132.799 246.129 142.756ZM237.19 132.546C235.618 127.792 233.08 124.94 230.573 122.565C228.933 121.01 227.113 119.891 225.86 119.219L226.703 119.521C232.645 122.022 236.561 126.489 238.345 132.799C239.684 137.537 239.248 141.593 239.243 141.634L239.199 142.013L239.561 142.122C242.691 143.071 244.826 143.573 245.941 143.63L244.916 144.42L238.06 142.627C238.209 141.854 238.873 137.639 237.19 132.546ZM241.06 124.759C249.659 128.653 255.215 137.044 255.215 146.658C255.215 160.542 244.291 172.72 231.837 172.72C230.567 172.72 228.84 172.596 227.282 172.333L227.298 172.264C227.684 172.273 228.068 172.278 228.446 172.278C228.751 172.278 229.047 172.275 229.338 172.275C229.61 172.273 229.876 172.273 230.129 172.273C243.118 172.273 254.09 160.385 254.09 146.315C254.09 140.688 252.072 135.333 248.253 130.827C246.246 128.458 243.826 126.44 241.16 124.877C241.128 124.835 241.092 124.797 241.06 124.759ZM226.012 173.008C227.867 173.435 230.216 173.63 231.84 173.63C244.775 173.63 256.121 161.027 256.121 146.658C256.121 136.728 250.418 128.058 241.574 123.991C241.759 123.826 241.998 123.596 242.319 123.281C252.689 126.796 260.01 136.981 260.179 148.215C260.29 155.721 257.592 162.713 252.577 167.907C248.087 172.558 242.251 175.157 236.143 175.229C234.815 175.245 232.92 175.111 231.293 174.839C230.896 174.765 230.491 174.683 230.086 174.598C229.923 174.56 229.765 174.519 229.615 174.475L229.61 174.494C228.351 174.211 227.089 173.871 225.979 173.485C225.99 173.328 226.001 173.169 226.012 173.008ZM268.661 93.2234C268.661 97.0543 264.938 100.674 260.97 100.74L243.056 92.7655C247.271 92.4254 250.6 88.8606 250.6 84.5224C250.6 82.8031 250.13 81.2373 249.306 79.9402L266.124 87.5169C267.71 88.814 268.661 90.8624 268.661 93.2234ZM243.676 91.0351C240.551 91.0351 238.011 88.4712 238.011 85.3231C238.011 82.1724 240.554 79.6111 243.676 79.6111C246.801 79.6111 249.341 82.1751 249.341 85.3231C249.344 88.4739 246.801 91.0351 243.676 91.0351ZM235.136 84.5224C235.136 80.4859 238.394 77.2008 242.398 77.2008C246.605 77.2008 249.659 80.2802 249.659 84.5224C249.659 85.0544 249.602 85.5699 249.496 86.069C249.526 85.825 249.548 85.5754 249.548 85.3231C249.548 82.0599 246.915 79.4055 243.679 79.4055C240.442 79.4055 237.81 82.0599 237.81 85.3231C237.81 88.5864 240.442 91.2408 243.679 91.2408C244.862 91.2408 245.963 90.8843 246.885 90.2728C245.65 91.2545 244.092 91.8441 242.4 91.8441C238.394 91.8441 235.136 88.5589 235.136 84.5224ZM251.827 102.958C252.934 101.557 253.138 99.2453 253.176 98.4034L259.067 101.025C257.813 101.258 256.088 101.647 254.601 102.218C251.664 103.348 235.536 120.566 234.851 121.298L234.802 121.35C234.617 121.282 234.426 121.213 234.236 121.144C237.092 118.246 250.676 104.417 251.827 102.958ZM174.752 98.7188C181.102 101.206 192.318 108.481 192.266 128.787C192.245 138.165 188.712 147.05 182.576 153.165C177.591 158.131 171.249 160.857 164.692 160.857C164.618 160.857 164.545 160.857 164.471 160.857C163.34 160.846 162.179 160.509 161.058 160.185C160.093 159.905 159.176 159.642 158.428 159.65L157.357 159.45C157.321 159.431 157.283 159.412 157.248 159.393L157.229 159.426L143.876 156.944C145.515 156.752 147.134 156.415 148.719 155.929C155.07 153.985 160.501 149.833 164.439 144.338C168.994 138.418 171.589 130.808 171.589 122.842C171.589 116.422 169.954 110.283 166.908 105.015C164.341 100.197 160.759 96.1384 156.497 93.2234L174.752 98.7188ZM163.269 100.978C163.62 101.445 163.96 101.919 164.287 102.407C162.6 101.96 160.868 101.73 159.116 101.73C147 101.73 137.142 112.592 137.142 125.943C137.142 138.79 146.269 149.329 157.754 150.108C157.188 150.557 156.612 150.988 156.016 151.394C150.169 151.141 144.846 148.476 140.946 143.822C136.954 139.059 134.754 132.651 134.754 125.784C134.754 119.036 137.218 112.652 141.694 107.806C146.187 102.942 152.135 100.263 158.439 100.263C158.578 100.263 158.722 100.263 158.872 100.26C160.185 100.249 161.988 100.232 163.171 101.11L163.269 100.978ZM158.809 149.227C147.338 149.044 138.055 138.673 138.055 125.943C138.055 113.099 147.504 102.651 159.116 102.651C161.134 102.651 163.128 102.966 165.045 103.589C168.382 109.013 170.343 115.597 170.343 122.691C170.346 133.295 165.907 143.011 158.809 149.227ZM171.249 122.688C171.249 120.034 170.98 117.448 170.474 114.964C171.034 117.511 171.325 120.152 171.325 122.842C171.325 127.024 170.604 131.104 169.258 134.894C170.544 131.071 171.249 126.95 171.249 122.688ZM163.084 100.732C161.842 99.9692 160.139 99.9829 158.872 99.9939C158.722 99.9939 158.578 99.9966 158.442 99.9966C152.062 99.9966 146.046 102.706 141.504 107.625C136.984 112.52 134.493 118.97 134.493 125.787C134.493 132.717 136.715 139.185 140.748 143.998C144.618 148.613 149.87 151.298 155.649 151.646C154.92 152.129 154.172 152.575 153.405 152.99C149.848 154.662 146.016 155.534 142.081 155.534C125.956 155.534 112.836 140.869 112.836 122.845C112.836 104.82 125.953 90.1521 142.078 90.1521C147.479 90.1521 152.66 91.781 157.166 94.8248C159.364 96.4921 161.355 98.4802 163.084 100.732ZM111.022 122.688C111.022 104.198 124.329 89.154 140.683 89.154C145.178 89.154 149.443 90.292 153.266 92.3267C149.764 90.7253 145.981 89.8834 142.081 89.8834C125.809 89.8834 112.572 104.667 112.572 122.839C112.572 141.012 125.809 155.795 142.081 155.795C144.392 155.795 146.671 155.496 148.877 154.917C148.736 154.964 148.597 155.013 148.455 155.057C145.934 155.828 143.321 156.22 140.683 156.22C124.329 156.223 111.022 141.179 111.022 122.688ZM165.665 161.913C163.501 161.97 161.159 161.208 159.326 160.407L159.397 160.023C159.892 160.122 160.43 160.278 160.985 160.437C162.07 160.753 163.302 161.109 164.469 161.12C164.545 161.12 164.618 161.12 164.694 161.12C171.32 161.12 177.73 158.367 182.764 153.352C188.948 147.187 192.511 138.234 192.533 128.787C192.555 119.568 190.243 112.018 185.655 106.348C182.44 102.374 178.701 100.095 175.663 98.7955L175.744 98.5241C180.286 99.6072 184.543 102.816 187.953 107.798C191.948 113.636 194.287 121.29 194.366 128.795C194.556 146.606 181.681 161.46 165.665 161.913ZM195.269 128.787C195.187 121.103 192.791 113.263 188.695 107.283C187.455 105.47 186.104 103.885 184.665 102.539C189.672 105.105 193.425 108.316 196.074 112.298C199.231 117.045 200.768 122.787 200.768 129.859C200.768 139.594 197.417 148.172 191.331 154.012C186.558 158.592 180.332 161.175 173.582 161.425C186.223 157.21 195.432 144.055 195.269 128.787ZM191.954 154.671C198.22 148.657 201.671 139.846 201.671 129.856C201.671 122.598 200.085 116.688 196.824 111.788C195.81 110.263 194.641 108.851 193.311 107.54L224.249 118.641L224.22 118.718C224.252 118.731 227.587 120.102 230.39 122.757C232.871 125.107 235.381 127.931 236.937 132.629C238.77 138.168 237.788 142.649 237.777 142.693L237.747 142.819L244.973 144.711L246.382 143.622C246.537 143.606 246.657 143.576 246.733 143.524C246.874 143.43 246.964 143.29 246.986 143.126C248.057 134.957 244.331 128.762 241.688 125.507C244.065 126.994 246.23 128.847 248.049 130.994C251.824 135.45 253.82 140.746 253.82 146.31C253.82 160.237 242.969 172.001 230.124 172.001C229.868 172.001 229.604 172.004 229.33 172.004C228.304 172.009 227.16 172.012 226.08 171.935C226.33 168.414 226.629 164.167 226.629 164.167L226.648 163.884L226.376 163.813C225.756 163.648 211.187 159.777 210.493 159.659L210.129 159.598L210.096 160.007L210.004 159.543L204.744 160.599L204.676 161.904H204.339L204.331 162.074L204.282 161.929C204.203 161.957 204.081 162.009 203.912 162.083C203.039 162.469 200.716 163.495 195.992 164.005C193.928 164.227 191.592 164.024 189.484 163.684L189.498 163.627L180.041 161.361C184.515 160.174 188.584 157.904 191.954 154.671ZM193.914 173.021C198.513 172.89 203.259 172.654 204.165 172.607V174.146L206.474 174.996C202.936 175.193 201.358 175.341 200.637 175.462L200.654 175.418L193.914 173.021ZM183.501 170.268C183.504 170.169 183.506 170.041 183.463 169.92C183.411 169.369 183.441 165.798 183.476 163.254C185.353 163.816 191.32 165.436 196.101 164.918C200.964 164.392 203.376 163.325 204.284 162.925C204.29 162.922 204.293 162.922 204.298 162.919L203.847 171.713C197.907 172.012 186.876 172.443 185.067 172.042C183.463 171.683 183.49 170.729 183.501 170.268ZM181.442 177.859C182.155 177.061 182.051 175.067 182.008 174.502H187.51C187.496 174.924 187.488 175.336 187.48 175.739C187.387 176.509 187.197 177.296 186.824 177.691C186.669 177.856 186.495 177.935 186.297 177.935H181.371C181.393 177.911 181.418 177.886 181.442 177.859ZM181.015 178.201H186.155C186.128 179.309 185.794 179.871 185.416 180.217H180.224C180.583 179.896 181.083 179.257 181.015 178.201ZM179.307 180.716C179.424 180.557 179.59 180.48 179.816 180.48H185.065C185.002 180.521 184.942 180.56 184.882 180.595C184.738 180.686 184.6 180.768 184.494 180.867C184.075 181.253 184.05 182.062 184.058 182.389L179.242 182.526C179.133 182.106 178.981 181.163 179.307 180.716ZM184.464 182.808C185.383 182.808 186.161 184.371 186.161 186.219C186.161 188.068 185.383 189.631 184.464 189.631C183.544 189.631 182.767 188.068 182.767 186.219C182.767 184.371 183.544 182.808 184.464 182.808ZM176.269 186.219C176.269 184.338 177.085 182.808 178.086 182.808C178.149 182.808 178.353 182.805 178.565 182.803C178.741 182.8 178.924 182.797 179.041 182.797L179.046 182.811L183.969 182.657C183.115 183.058 182.5 184.475 182.5 186.217C182.5 187.783 182.998 189.091 183.718 189.628H179.424H178.086C177.085 189.631 176.269 188.101 176.269 186.219ZM181.983 196.719C181.918 196.141 181.57 193.516 180.477 192.669C179.821 192.162 179.508 191.24 179.432 190.547C179.391 190.176 179.43 189.963 179.459 189.897H184.464H185.715C185.663 190.467 185.535 192.48 186.196 193.196C186.297 193.305 186.386 193.393 186.465 193.473C186.977 193.983 187.14 194.144 187.7 197.279L181.983 196.719ZM189.103 190.903C189.082 190.854 189.057 190.793 189.035 190.728C189.06 190.788 189.082 190.848 189.103 190.903ZM188.747 189.875C188.581 190.495 188.894 191.087 188.954 191.194L189.906 194.367L188.016 197.553L187.991 197.408C187.387 194.021 187.216 193.851 186.65 193.286C186.571 193.207 186.484 193.122 186.389 193.017C185.715 192.285 185.987 189.806 185.992 189.782L186.008 189.634H185.206C185.927 189.093 186.425 187.788 186.425 186.222C186.425 184.16 185.562 182.545 184.464 182.545C184.417 182.545 184.374 182.553 184.33 182.556L184.328 182.509C184.328 182.498 184.249 181.459 184.673 181.064C184.76 180.982 184.882 180.908 185.021 180.823C185.568 180.486 186.386 179.978 186.422 178.188C186.642 178.157 186.841 178.056 187.012 177.875C187.2 177.678 187.344 177.395 187.458 177.074C187.412 183.464 187.994 187.423 188.747 189.875ZM193.406 173.806L199.987 176.147C200.646 178.338 199.036 180.209 198.628 180.634L193.43 180.571C193.36 177.845 193.381 175.218 193.406 173.806ZM200.689 176.131C201.573 175.994 204.35 175.796 206.958 175.654C206.969 175.722 206.98 175.791 206.991 175.857L206.936 177.047H208.614L208.543 180.735L199.52 180.642C200.191 179.797 201.2 178.116 200.689 176.131ZM207.306 197.323C207.333 195.864 207.366 193.7 207.377 191.69C207.524 192.178 207.733 192.62 208.043 192.949V196.072L207.306 197.323ZM196.368 187.881L206.675 188.032C206.751 190.728 206.651 196.292 206.61 198.296C205.361 198.315 200.02 198.049 196.493 197.857C196.332 196.758 196.33 191.421 196.368 187.881ZM203.161 205.5C200.986 205.588 198.799 205.418 197.167 205.036C195.582 204.666 194.874 204.184 194.711 203.808L194.586 199.708C195.897 200.597 198.375 201.17 201.214 201.17C201.611 201.17 202.019 201.159 202.43 201.134C204.706 201.005 206.863 200.597 208.505 199.988C209.365 199.667 210.023 199.313 210.474 198.932L210.648 203.018C210.545 203.52 209.83 204.068 208.677 204.513C207.241 205.064 205.283 205.415 203.161 205.5ZM185.503 206.254C186.86 205.333 189.435 204.101 194.018 203.375L194.026 203.676H193.993C193.996 203.761 194.012 203.844 194.034 203.923L194.04 204.071L194.086 204.068C194.252 204.458 194.641 204.806 195.244 205.105L195.25 205.409C193.346 205.42 189.688 207.296 187.254 208.544C186.482 208.939 185.872 209.251 185.494 209.413C185.138 209.567 184.804 209.572 184.502 209.429C184.116 209.248 183.844 208.856 183.67 208.527L183.65 208.086C183.762 207.877 184.222 207.123 185.503 206.254ZM185.581 220.352C186.207 220.368 186.816 220.346 187.406 220.302C187.376 220.352 187.363 220.393 187.357 220.417L140.495 329.461C140.468 329.436 140.435 329.409 140.403 329.381C139.538 327.311 139.385 326.658 139.407 326.502C139.706 325.759 182.677 226.648 185.416 220.332C185.47 220.343 185.527 220.352 185.581 220.352ZM134.495 334.556L137.955 327.146L139.355 330.703L135.483 337.874L134.495 334.556ZM141.447 339.854C139.312 340.013 136.25 338.562 135.591 338.236V338.233L139.549 330.906L144.993 332.37C143.525 335.768 141.885 339.327 141.447 339.854ZM145.214 331.847C145.175 331.937 145.135 332.03 145.097 332.124L139.676 330.667L139.758 330.517L139.527 330.39L139.521 330.401L138.11 326.82L138.526 325.929H138.918C138.836 326.121 138.787 326.231 138.782 326.25C138.627 326.639 138.907 327.566 139.842 329.795L139.897 329.927L140.033 329.869L139.978 330.056L144.765 331.454L144.884 331.177C144.952 331.021 145.02 330.865 145.086 330.706L145.214 331.847ZM168.412 274.784C157.077 301.06 145.662 327.646 144.381 330.632L140.737 329.568L187.605 220.513L187.613 220.486C187.613 220.483 187.643 220.385 187.809 220.269C189.634 220.094 191.266 219.685 192.59 219.34C191.823 220.917 189.971 225.076 185.135 236.166C181.07 245.492 175.443 258.485 168.412 274.784ZM193.539 218.388C193.458 218.331 193.343 218.331 193.199 218.355C193.202 218.355 193.207 218.353 193.21 218.353C193.205 218.353 193.199 218.355 193.194 218.358C193.115 218.372 193.028 218.394 192.935 218.416C192.734 218.465 192.449 218.534 192.109 218.619C191.502 218.767 190.724 218.961 189.952 219.153L189.976 219.255C188.652 219.518 187.167 219.71 185.598 219.672C185.25 219.663 184.551 219.085 184.113 218.63L183.694 209.067C183.873 209.309 184.102 209.536 184.39 209.673C184.572 209.759 184.763 209.802 184.959 209.802C185.165 209.802 185.377 209.756 185.598 209.66C185.984 209.495 186.596 209.18 187.374 208.782C189.645 207.617 193.414 205.675 195.255 205.678L195.478 218.056C194.962 218.056 194.314 218.194 193.539 218.388ZM204.597 218.358C202.767 218.555 198.481 219.016 196.142 218.152C196.022 218.108 195.889 218.084 195.745 218.07L195.514 205.226C195.932 205.404 196.433 205.563 197.015 205.7C198.413 206.029 200.197 206.205 202.035 206.205C202.419 206.205 202.805 206.196 203.191 206.183C203.762 206.161 204.323 206.117 204.864 206.057L205.274 218.289C205.133 218.298 204.924 218.325 204.597 218.358ZM211.421 220.81L211.437 220.749C211.562 220.763 211.685 220.777 211.807 220.788L265.779 337.007L262.833 337.868L208.198 220.055L208.225 219.984C209.038 220.256 209.955 220.513 210.888 220.67L211.421 220.81ZM207.292 219.71L220.184 247.505L236.251 295.2L230.66 294.553C229.422 290.371 215.218 246.477 206.436 219.381L207.292 219.71ZM229.479 296.118L237.323 297.106L239.167 302.453L231.438 301.655L229.479 296.118ZM240.63 298.285L239.346 302.162L237.53 296.892L239.104 293.236L240.63 298.285ZM238.873 292.474L238.985 292.844L237.279 296.801L237.225 296.82L237.228 296.826L229.381 295.839L229.36 295.781L230.048 294.821C230.059 294.854 230.067 294.884 230.072 294.904L230.067 295.172L236.956 295.97L236.975 295.811L237.075 295.852L238.378 292.71L238.177 292.09L238.873 292.474ZM237.655 292.685L236.594 295.244L236.54 295.238L221.201 249.707L229.526 267.657L229.498 267.665L237.655 292.685ZM261.443 338.91L262.461 338.675L262.466 338.688L265.058 337.929L269.673 347.683C268.781 347.971 266.711 348.053 265.724 348.064L261.443 338.91ZM272.113 334.471L276.296 343.923C273.916 345.305 270.579 347.228 269.918 347.579L265.316 337.852L266.222 337.586L266.189 337.476L271.664 334.698L271.672 334.696L271.955 334.553V334.55L272.113 334.471ZM271.066 334.24L265.983 336.818L212.109 220.81C212.25 220.818 212.392 220.821 212.53 220.821C212.756 220.821 212.982 220.81 213.202 220.79C214.829 220.637 217.396 219.608 219.028 218.89L218.704 219.038L271.066 334.24ZM220.056 217.67C219.123 218.111 215.215 219.913 213.137 220.11C212.463 220.173 211.745 220.121 211.029 220.003L208.361 219.312C207.703 219.09 207.118 218.863 206.653 218.684C206.063 218.457 205.742 218.336 205.536 218.298L205.149 206.8C205.998 207.159 209.762 208.821 212.37 211.204C212.536 211.354 212.783 211.42 213.091 211.42C214.869 211.42 218.598 209.21 219.417 208.711C219.566 209.024 219.659 209.344 219.67 209.673C219.748 211.98 219.999 216.592 220.056 217.67ZM219.294 208.478C217.619 209.501 213.406 211.79 212.552 211.009C209.775 208.475 205.718 206.748 205.144 206.509L205.128 206.026C206.566 205.851 207.874 205.555 208.919 205.152C210.061 204.713 210.812 204.186 211.143 203.605C213.058 204.304 217.907 206.114 219.294 208.478ZM213.874 200.833C213.98 201.093 214.073 202.571 214.113 204.052C213.172 203.641 212.223 203.273 211.337 202.947C211.337 202.914 211.339 202.881 211.339 202.845H211.32L211.22 200.495C212.065 200.432 213.741 200.506 213.874 200.833ZM210.504 197.558L210.415 197.561L210.431 197.959C210.183 198.417 209.406 198.924 208.269 199.346C206.71 199.925 204.567 200.328 202.389 200.454C197.6 200.726 194.328 199.316 194.271 198.266C194.246 197.833 194.934 197.197 195.764 197.046C195.843 198.307 195.957 198.398 196.036 198.458L196.117 198.521L196.221 198.526C202.422 198.869 205.068 198.971 206.224 198.971C207.059 198.971 207.116 198.919 207.173 198.864L207.279 198.76V198.705L208.688 196.308C209.746 196.648 210.412 197.103 210.504 197.558ZM208.72 192.321V189.93H208.043V190.363C207.991 189.916 207.961 189.433 207.94 188.948L207.932 188.756C207.918 188.479 208.035 185.04 208.182 181.415L209.21 181.426L209.308 176.364H208.024C207.945 176.016 207.806 175.33 207.785 174.798L207.771 174.491L205.079 173.501V172.168L205.631 161.37L210.072 160.479L209.06 173.411L213.833 174.349C213.926 175.034 213.722 177.412 213.542 179.531C212.979 186.148 212.647 191.328 213.863 192.644C212.598 192.625 210.668 192.601 209.422 192.601C209.131 192.603 208.902 192.499 208.72 192.321ZM218.111 191.805C217.695 192.318 217.048 193.004 216.243 193.061C215.887 193.086 215.514 192.987 215.128 192.768L215.13 192.664C215.125 192.664 215.065 192.664 214.956 192.661C214.769 192.538 214.578 192.389 214.385 192.211C213.232 191.144 213.822 184.19 214.214 179.589C214.502 176.2 214.641 174.406 214.407 173.907L214.334 173.751L209.778 172.854L210.752 160.421C212.647 160.884 221.116 163.125 225.938 164.405C225.851 165.639 225.501 170.638 225.272 173.814C225.18 175.105 225.131 175.783 225.103 176.136C224.331 176.008 222.49 175.695 221.25 175.434C221.057 175.393 220.858 175.437 220.706 175.552C220.556 175.665 220.464 175.829 220.447 176.016C220.26 178.168 219.651 183.376 219.066 187.234C219.074 187.086 219.077 186.935 219.077 186.782C219.077 184.22 218.065 182.213 216.773 182.213C215.481 182.213 214.47 184.22 214.47 186.782C214.47 189.343 215.481 191.35 216.773 191.35C217.633 191.35 218.367 190.456 218.761 189.107C218.516 190.555 218.285 191.586 218.111 191.805ZM218.818 186.782C218.818 189.154 217.905 191.084 216.779 191.084C215.653 191.084 214.739 189.154 214.739 186.782C214.739 184.41 215.653 182.479 216.779 182.479C217.905 182.479 218.818 184.41 218.818 186.782ZM220.36 182.805C220.779 179.457 221.092 176.433 221.125 176.104C222.153 176.32 223.578 176.57 224.483 176.723C224.532 179.457 225.098 181.632 226.023 182.904L220.36 182.805ZM224.75 176.77C224.875 176.792 224.987 176.808 225.076 176.825V176.863L225.405 176.877C225.498 176.88 225.569 176.858 225.617 176.819C226.025 181.053 227.353 183.546 229.343 183.675C229.265 183.746 228.998 183.889 228.166 183.889C226.183 183.889 224.834 181.048 224.75 176.77ZM229.507 183.417C227.431 183.417 226.093 180.639 225.805 175.881L225.911 174.423C228 175.125 230.554 175.67 232.659 175.997C231.965 180.653 230.796 183.417 229.507 183.417ZM255.925 178.04L243.945 175.232C246.491 174.417 248.914 173.169 251.139 171.521L256.195 172.775L255.925 178.04ZM252.077 170.786C252.632 170.334 253.176 169.857 253.703 169.352C259.338 163.945 262.569 156.127 262.569 147.906C262.569 147.892 262.569 147.881 262.569 147.867L264.479 148.487C266.045 149.608 267.079 152.551 267.171 156.384L266.089 156.368L266.091 156.346C265.243 156.217 264.416 156.472 263.638 157.106C261.487 158.858 259.891 163.517 259.57 168.974C259.513 169.958 259.494 170.943 259.515 171.894C259.521 172.144 259.529 172.391 259.54 172.632L252.077 170.786ZM262.134 179.666L263.383 179.646C263.663 180.154 263.97 180.59 264.299 180.938L263.845 180.93C263.211 180.891 262.629 180.442 262.134 179.666ZM271.784 181.061C270.786 181.001 269.839 179.737 269.186 177.593C268.479 175.27 268.196 172.212 268.387 168.982C268.577 165.752 269.219 162.749 270.193 160.528C271.03 158.617 272.034 157.495 272.972 157.399L273.198 157.402V157.394C274.188 157.47 275.126 158.729 275.773 160.86C276.48 163.182 276.763 166.24 276.573 169.47C276.383 172.7 275.741 175.703 274.767 177.924C273.867 179.978 272.768 181.127 271.784 181.061ZM276.315 176.356L276.393 176.482C278.92 174.87 281.093 170.581 281.928 165.554C282.469 162.297 282.265 159.02 281.357 156.321C280.973 155.186 280.484 154.232 279.921 153.483L291.055 157.089L291.042 157.139C297.675 158.913 300.258 162.228 300.258 168.96C300.258 175.278 296.486 180.42 291.849 180.42C291.131 180.42 290.416 180.296 289.728 180.05L289.712 180.099L276.192 176.751C276.228 176.625 276.271 176.493 276.315 176.356ZM297.838 159.472C298.82 160.075 299.807 160.912 300.623 162.072C302.431 164.647 302.964 168.187 302.203 172.596C301.681 175.621 299.872 178.404 297.482 179.86C296.513 180.45 295.483 180.798 294.419 180.908C298.333 179.419 301.205 174.631 301.205 168.968C301.208 164.674 300.177 161.63 297.838 159.472ZM283.184 185.419C283.168 184.624 283.345 181.994 283.546 179.545L289.921 181.124C290.008 181.149 290.095 181.168 290.182 181.19L290.188 181.193C290.623 181.295 291.061 181.358 291.504 181.377C292.244 181.58 292.981 181.687 293.707 181.687C295.154 181.687 296.56 181.286 297.862 180.494C300.43 178.931 302.369 175.953 302.926 172.725C303.721 168.116 303.147 164.389 301.221 161.649C299.211 158.789 296.247 157.758 294.621 157.394C293.669 156.958 292.605 156.582 291.42 156.258L291.425 156.239L286.521 154.651C287.258 154.698 288.371 154.627 290.013 154.511C291.76 154.388 293.933 154.237 296.288 154.237C298.627 154.237 300.827 154.388 302.595 154.509C303.065 154.542 303.489 154.569 303.881 154.594L303.631 169.196C303.62 169.311 303.598 169.443 303.576 169.583C303.503 170.038 303.408 170.619 303.598 171.129L303.337 186.431L283.184 185.419ZM304.267 171.886C304.683 172.127 305.265 172.245 306.04 172.245C306.514 172.245 307.06 172.199 307.678 172.111L304.05 184.618L304.267 171.886ZM310.093 170.891C309.943 170.803 309.834 170.66 309.791 170.49C309.747 170.32 309.772 170.145 309.859 169.991C309.946 169.838 310.087 169.731 310.256 169.687C310.381 169.654 310.506 169.662 310.62 169.698C310.702 169.851 310.745 170.008 310.745 170.167C310.745 170.512 310.55 170.756 310.185 170.934C310.155 170.924 310.123 170.91 310.093 170.891ZM310.427 169.413C310.365 169.413 310.299 169.418 310.237 169.432L305.787 168.154L305.717 168.401L309.875 169.596C309.63 169.783 309.494 170.09 309.522 170.405L305.461 170.723L305.48 170.978L309.581 170.658C309.644 170.819 309.75 170.956 309.889 171.058C309.448 171.206 308.847 171.302 308.11 171.384L308.091 171.387C305.624 171.807 304.71 171.499 304.381 171.165C304.341 171.124 304.308 171.08 304.281 171.036L304.319 168.735C304.368 168.464 304.493 168.137 304.817 167.91C305.04 167.751 305.393 167.614 305.945 167.614C306.454 167.614 307.134 167.729 308.037 168.052C309.212 168.469 310.014 168.93 310.427 169.413ZM310.62 163.851L309.377 167.896C309.046 167.737 308.673 167.584 308.254 167.433C306.53 166.818 305.249 166.799 304.441 167.372C304.403 167.4 304.373 167.43 304.341 167.457L304.441 161.584L310.62 163.851ZM311.088 162.269L304.474 159.766L304.536 156.135L312.043 158.803C311.792 159.659 311.298 161.488 311.088 162.269Z" fill="#E9EEF1"/>
<path d="M215.879 186.782C215.879 188.641 216.426 190.097 217.122 190.097C217.818 190.097 218.365 188.641 218.365 186.782C218.365 184.923 217.818 183.467 217.122 183.467C216.426 183.467 215.879 184.923 215.879 186.782ZM218.201 186.782C218.201 188.666 217.644 189.93 217.122 189.93C216.6 189.93 216.042 188.666 216.042 186.782C216.042 184.898 216.6 183.634 217.122 183.634C217.644 183.634 218.201 184.898 218.201 186.782Z" fill="#E9EEF1"/>
</g>
</g>
<defs>
<filter id="filter0_f_6259_105287" x="-78" y="-7" width="670" height="670" filterUnits="userSpaceOnUse" color-interpolation-filters="sRGB">
<feFlood flood-opacity="0" result="BackgroundImageFix"/>
<feBlend mode="normal" in="SourceGraphic" in2="BackgroundImageFix" result="shape"/>
<feGaussianBlur stdDeviation="100" result="effect1_foregroundBlur_6259_105287"/>
</filter>
<filter id="filter1_f_6259_105287" x="-327" y="-311" width="670" height="670" filterUnits="userSpaceOnUse" color-interpolation-filters="sRGB">
<feFlood flood-opacity="0" result="BackgroundImageFix"/>
<feBlend mode="normal" in="SourceGraphic" in2="BackgroundImageFix" result="shape"/>
<feGaussianBlur stdDeviation="100" result="effect1_foregroundBlur_6259_105287"/>
</filter>
<linearGradient id="paint0_linear_6259_105287" x1="162.5" y1="1" x2="162.5" y2="400" gradientUnits="userSpaceOnUse">
<stop stop-color="#E9EEF1"/>
<stop offset="1" stop-color="#1E1E1E"/>
</linearGradient>
<clipPath id="clip0_6259_105287">
<rect width="285" height="320" fill="white" transform="translate(40 40)"/>
</clipPath>
</defs>
</svg>
