<svg width="335" height="280" viewBox="0 0 335 280" fill="none" xmlns="http://www.w3.org/2000/svg">
<mask id="mask0_6258_102908" style="mask-type:alpha" maskUnits="userSpaceOnUse" x="0" y="0" width="335" height="280">
<path d="M310.507 280H10C4.47715 280 0 275.523 0 270V10C0 4.47715 4.47714 0 9.99999 0H325C330.523 0 335 4.47716 335 10V255.398C335 258.037 333.957 260.57 332.097 262.443L317.604 277.045C315.726 278.936 313.172 280 310.507 280Z" fill="#050505"/>
</mask>
<g mask="url(#mask0_6258_102908)">
<g filter="url(#filter0_f_6258_102908)">
<circle cx="36" cy="32" r="132" fill="#0F351F"/>
</g>
<g filter="url(#filter1_f_6258_102908)">
<circle cx="290" cy="223" r="132" fill="#0F351F"/>
</g>
</g>
<g clip-path="url(#clip0_6258_102908)">
<g opacity="0.6">
<path d="M211.983 143.746C211.545 143.746 211.145 143.902 210.834 144.203C210.525 144.504 210.351 144.908 210.344 145.341C210.337 145.774 210.499 146.183 210.798 146.496C211.098 146.807 211.5 146.982 211.93 146.989C211.94 146.989 211.947 146.989 211.956 146.989C212.377 146.989 212.775 146.826 213.077 146.532C213.716 145.91 213.731 144.882 213.112 144.239C212.815 143.93 212.413 143.753 211.983 143.746ZM212.917 146.367C212.37 146.9 211.493 146.886 210.965 146.336C210.708 146.07 210.57 145.719 210.575 145.348C210.582 144.978 210.729 144.631 210.996 144.373C211.264 144.112 211.609 143.983 211.956 143.983C212.318 143.983 212.679 144.124 212.948 144.406C213.205 144.674 213.343 145.023 213.336 145.394C213.331 145.762 213.184 146.109 212.917 146.367Z" fill="#E9EEF1"/>
<path d="M211.991 144.52C211.758 144.527 211.542 144.603 211.375 144.763C211.209 144.924 211.116 145.141 211.111 145.373C211.104 145.852 211.485 146.248 211.96 146.256C211.965 146.256 211.97 146.256 211.975 146.256C212.201 146.256 212.412 146.17 212.576 146.012C212.743 145.852 212.836 145.634 212.84 145.402C212.848 144.924 212.467 144.529 211.991 144.52ZM211.968 146.026C211.799 146.024 211.639 145.954 211.523 145.832C211.404 145.71 211.342 145.55 211.344 145.38C211.347 145.211 211.416 145.05 211.537 144.933C211.656 144.818 211.813 144.754 211.977 144.754C211.98 144.754 211.984 144.754 211.987 144.754C212.336 144.759 212.615 145.05 212.61 145.4C212.605 145.751 212.315 146.024 211.968 146.026Z" fill="#E9EEF1"/>
<path d="M228.314 144.36C227.993 144.095 227.601 143.98 227.206 144.035C226.811 144.092 226.466 144.312 226.233 144.659C225.755 145.365 225.9 146.378 226.554 146.921C226.82 147.144 227.139 147.261 227.465 147.261C227.529 147.261 227.596 147.256 227.66 147.247C228.055 147.189 228.4 146.969 228.633 146.622C229.113 145.917 228.968 144.901 228.314 144.36ZM228.445 146.491C228.247 146.783 227.96 146.967 227.629 147.015C227.299 147.062 226.97 146.964 226.699 146.742C226.133 146.273 226.009 145.398 226.423 144.788C226.621 144.496 226.911 144.31 227.239 144.265C227.294 144.257 227.348 144.253 227.401 144.253C227.674 144.253 227.941 144.351 228.167 144.537C228.733 145.006 228.856 145.883 228.445 146.491Z" fill="#E9EEF1"/>
<path d="M227.15 144.795C226.936 144.826 226.75 144.945 226.624 145.132C226.501 145.316 226.451 145.541 226.482 145.768C226.543 146.203 226.895 146.521 227.29 146.521C227.326 146.521 227.359 146.519 227.395 146.514C227.83 146.452 228.13 146.014 228.063 145.541C227.994 145.067 227.585 144.732 227.15 144.795ZM227.362 146.284C227.052 146.327 226.76 146.081 226.71 145.734C226.686 145.565 226.722 145.395 226.815 145.261C226.905 145.129 227.033 145.046 227.183 145.024C227.207 145.022 227.231 145.019 227.255 145.019C227.535 145.019 227.787 145.254 227.835 145.574C227.882 145.921 227.671 146.241 227.362 146.284Z" fill="#E9EEF1"/>
<path d="M267.846 47.7833C267.548 47.8765 267.239 48.0774 266.97 48.3452C266.704 48.6131 266.504 48.9263 266.412 49.2253C266.297 49.5887 266.347 49.902 266.552 50.1077C266.685 50.2416 266.861 50.3085 267.07 50.3085C267.182 50.3085 267.303 50.2894 267.429 50.2487C267.727 50.1555 268.036 49.9546 268.305 49.6868C268.571 49.419 268.771 49.1057 268.864 48.8068C268.978 48.4433 268.928 48.13 268.723 47.9244C268.519 47.7211 268.207 47.6709 267.846 47.7833ZM268.3 48.6298C268.236 48.8355 268.086 49.0674 267.888 49.2659C267.691 49.4644 267.46 49.615 267.256 49.6796C267.106 49.7274 267.004 49.7155 266.973 49.6844C266.942 49.6533 266.932 49.5529 266.98 49.3998C267.044 49.1942 267.194 48.9622 267.391 48.7637C267.589 48.5652 267.82 48.4146 268.024 48.35C268.098 48.3261 268.16 48.3189 268.205 48.3189C268.255 48.3189 268.29 48.3285 268.305 48.3452C268.336 48.3763 268.347 48.4792 268.3 48.6298Z" fill="#E9EEF1"/>
<path d="M311.37 91.7169L311.382 91.0282C311.76 91.0473 312.093 91.0593 312.376 91.0593C313.132 91.0593 313.568 90.9827 313.789 90.7747C313.893 90.6766 313.95 90.5499 313.95 90.4088H313.677L313.95 90.404L313.713 76.5462H313.675C313.703 76.3812 313.72 76.2066 313.696 76.0392C313.637 75.5897 313.225 75.2094 312.571 74.8914V67.3467H312.54C312.54 65.8425 308.116 65.0295 303.954 65.0295C299.792 65.0295 295.369 65.8425 295.369 67.3467H295.338V75.0157C294.798 75.3147 294.474 75.6662 294.474 76.0823C294.474 76.0871 294.482 76.3525 294.522 76.6419V79.2412C294.306 79.1575 294.082 79.1169 293.851 79.1169C292.907 79.1169 292.098 79.8391 291.761 80.8602C291.135 80.6497 290.377 80.535 289.592 80.535C289.373 80.535 289.159 80.5326 288.954 80.5278C287.337 80.5063 285.943 80.4824 285.908 82.2591C285.898 82.7302 286.022 83.0913 286.286 83.3615C286.897 83.9881 288.148 83.9881 289.594 83.9881C290.505 83.9881 291.364 83.835 292.037 83.56C292.448 84.2511 293.109 84.7031 293.854 84.7031C294.082 84.7031 294.308 84.6552 294.524 84.5715V84.9422V90.404C294.524 90.526 294.567 90.636 294.648 90.7293L274.644 84.2678C274.439 79.4373 272.603 74.6642 269.416 70.7376C266.301 66.8971 262.17 64.1447 257.727 62.9275C257.889 62.7649 258.062 62.5927 258.255 62.4014C259.418 61.2416 261.071 59.582 263.033 57.5996C266.662 53.9337 270.254 50.2797 270.9 49.6077C270.981 49.524 271.307 49.2132 271.371 49.1653C273.01 48.0988 277.21 46.4033 278.207 47.4651C279.743 50.4662 282.813 52.3697 286.21 52.3697C291.173 52.3697 295.212 48.3092 295.212 43.3209C295.212 38.3302 291.173 34.2696 286.21 34.2696C285.936 34.2696 285.66 34.2816 285.392 34.3055L285.43 34.7192L285.392 34.3055C285.042 34.3366 284.695 34.394 284.352 34.4681L283.915 34.272L280.595 32.7798L280.228 33.6049L283.154 34.9177C284.797 36.2066 285.72 38.103 285.646 40.0806C285.553 42.4959 284.416 44.0215 283.477 44.8753C282.19 46.047 280.442 46.707 278.749 46.6712C278.725 46.6185 278.699 46.5707 278.678 46.5181L278.456 46.6114C276.49 45.4324 271.797 47.9003 270.927 48.4671C270.772 48.5675 270.315 49.0242 270.311 49.029C268.653 50.7484 257.249 62.3129 255.713 63.7406C254.954 63.4416 252.635 62.5401 251.448 62.081C255.781 57.48 266.072 46.8314 267.994 46.0948C269.849 45.3822 272.23 45.002 272.984 44.892L273.086 44.9374L273.115 44.8729C273.153 44.8681 273.181 44.8633 273.198 44.8609C277.189 44.8442 280.818 41.3313 280.818 37.474C280.818 35.9125 280.388 34.4873 279.627 33.3299L280.228 33.6001L280.595 32.7751L277.933 31.5794C277.396 31.2016 276.796 30.9002 276.14 30.6994L276.121 30.7663L261.801 24.3336L261.775 24.3934C260.519 23.3221 258.873 22.6836 257.021 22.6836C253.065 22.6836 249.848 25.9191 249.848 29.8959C249.848 33.1098 251.95 35.8384 254.842 36.7662L254.814 36.8332L265.823 41.7211H265.632C265.632 41.745 265.618 44.1985 264.624 45.4564C263.616 46.7309 250.692 59.8427 249.039 61.5166C247.726 61.0264 246.328 60.4859 245.065 59.9503C242.962 59.0631 242.648 59.1803 242.501 59.2879L212.734 48.6368L212.71 48.7062C210.372 46.7309 207.547 45.0522 204.186 43.6365L204.162 43.6963C201.706 42.0224 199.042 41.085 196.307 40.9702L179.171 35.824L179.159 35.8503C175.779 34.1142 172.024 33.1433 168.071 33.1433C153.335 33.1433 141.344 46.6162 141.344 63.1786C141.344 79.5569 153.071 92.9149 167.584 93.2091L167.574 93.2593L182.415 96.0093C184.068 96.8822 186.986 98.1831 189.707 98.1831C189.785 98.1831 189.864 98.1831 189.942 98.1807C191.522 98.1352 193.068 97.9368 194.566 97.5972L194.559 97.7383C195.008 97.7598 195.453 97.7718 195.898 97.7718C197.555 97.7718 199.182 97.6163 200.759 97.3126L204.707 98.2548C204.629 103.461 204.638 104.456 204.783 104.726C204.743 104.666 204.728 104.604 204.726 104.57C204.726 104.589 204.726 104.616 204.726 104.649C204.693 105.902 205.361 106.689 206.719 106.99C207.123 107.079 207.965 107.127 209.066 107.141C209.052 107.476 209.04 107.806 209.028 108.129H203.955L203.97 108.258C203.972 108.279 204.189 110.415 203.544 111.135C203.411 111.283 203.251 111.357 203.061 111.357V111.589H203.114C203.197 112.777 202.388 113.277 202.26 113.349C202.005 113.359 201.803 113.457 201.663 113.645C201.311 114.126 201.47 115.009 201.556 115.367C201.456 115.367 201.327 115.37 201.199 115.372C201.013 115.374 200.835 115.377 200.783 115.377C199.779 115.377 198.961 116.816 198.961 118.584C198.961 120.183 199.632 121.511 200.502 121.75V121.793H201.744C201.625 122.297 201.855 123.718 202.731 124.395C203.706 125.148 203.967 127.833 203.97 127.86L203.979 127.955L209.454 128.491L209.442 128.512L209.64 128.632L211.345 125.765L211.371 125.722L210.543 122.974C211.457 125.076 212.472 125.246 212.698 125.255C212.698 125.255 214.634 125.263 215.995 125.272L215.999 124.469C214.732 124.462 212.969 124.454 212.729 124.452C212.534 124.404 209.19 123.342 209.863 107.218H213.39C213.343 109.365 213.202 118.957 214.337 121.52C214.579 122.068 215.379 123.053 216.04 122.979L215.954 122.18C215.971 122.178 215.978 122.18 215.98 122.18C215.811 122.152 215.281 121.676 215.067 121.193C214.549 120.023 214.318 117.137 214.223 114.255L218.126 114.303L218.123 114.306L226.302 114.389C226.233 116.125 226.152 118.249 226.112 119.578L216.185 119.433L216.182 119.731C216.132 123.797 216.156 126.107 216.211 127.429C215.186 127.585 214.304 128.381 214.344 129.127C214.356 129.359 214.446 129.579 214.598 129.789L214.696 132.948C206.465 134.23 205.128 137.353 205.076 137.487L205.052 137.547L205.466 146.988L205.47 147.098L205.544 147.177C205.665 147.308 206.139 147.801 206.643 148.107C203.941 154.325 170.709 230.757 166.785 239.825H165.81L162.03 247.9L163.127 251.571L163.239 251.628C163.367 251.695 166.226 253.173 168.447 253.173C168.595 253.173 168.74 253.166 168.88 253.154C169.084 253.135 169.463 253.097 172.612 245.748L172.642 245.676L172.462 244.105L172.114 244.146C186.204 211.416 212.17 151.278 214.204 147.28C215.169 147.031 215.976 146.854 216.366 146.998C218.542 147.799 222.385 147.385 224.026 147.21C224.338 147.177 224.606 147.155 224.673 147.151C224.704 147.153 224.768 147.172 224.849 147.198C225.708 149.838 243.899 205.829 246.042 212.714L245.954 212.652L244.955 214.041L247.001 219.814L254.676 220.603L256.095 216.33L254.433 210.844L253.156 210.155L253.106 210.249L247.774 193.932L274.309 250.99L272.829 251.334L277.044 260.328H277.232C277.353 260.328 280.219 260.323 281.225 259.905C281.548 259.768 286.614 256.837 287.192 256.504L287.423 256.37L283.292 247.063L282.621 247.408L236.843 146.957C237.452 146.684 237.868 146.486 237.92 146.459L238.099 146.373L238.087 146.175C238.084 146.127 237.813 141.285 237.74 139.015C237.675 137.102 235.404 135.569 232.885 134.402C232.866 133.551 232.8 131.53 232.626 131.1C232.548 130.904 232.365 130.751 232.089 130.643C231.475 130.404 230.386 130.397 229.729 130.447L229.665 128.938C229.717 128.795 229.741 128.649 229.732 128.503C229.694 127.812 229.032 127.245 227.815 126.839L227.57 126.693V124.844C227.751 124.911 227.953 124.949 228.183 124.949C229.903 124.949 233.13 125.004 233.164 125.004V124.949C233.461 125.079 233.758 125.148 234.051 125.148C234.098 125.148 234.144 125.145 234.191 125.143C235.123 125.076 235.808 124.363 236.241 123.83C236.688 123.283 237.271 119.392 237.721 115.836L242.891 115.927C243.367 116.479 243.935 116.781 244.575 116.781C245.276 116.781 245.683 116.675 245.823 116.46C245.845 116.427 245.857 116.393 245.864 116.36C247.538 116.173 248.397 111.933 248.732 109.7C249.66 109.838 250.473 109.925 251.063 109.956C251.408 109.972 251.753 109.982 252.095 109.982C253.838 109.982 255.558 109.76 257.227 109.332L257.225 109.341L269.374 112.182L269.507 111.603L269.438 111.587L269.673 107L272.063 107.591C272.399 111.952 273.759 114.669 275.736 114.786L275.759 114.38L275.752 114.789L277.626 114.817C277.681 114.824 277.736 114.834 277.79 114.836V114.82L282.155 114.887L282.157 114.779C282.326 114.836 282.497 114.875 282.671 114.884C282.709 114.887 282.747 114.887 282.785 114.887C283.984 114.887 285.142 113.753 286.055 111.675C286.136 111.491 286.214 111.3 286.291 111.103L292.422 112.617C291.965 118.089 292.103 118.246 292.205 118.361L292.296 118.459L310.592 119.37L310.89 119.459L314.75 106.189C315.858 106.063 317.359 105.823 317.359 104.585C317.359 103.949 316.952 103.389 316.124 102.892L317.473 98.5202L316.907 98.3433L316.747 98.8622L311.282 96.8654L311.294 96.1433L317.489 98.4844L317.575 98.1687C317.582 98.14 318.374 95.1963 318.569 94.5769L318.657 94.3019L311.37 91.7169ZM294.384 43.3257C294.384 47.8597 290.717 51.5471 286.207 51.5471C283.76 51.5471 281.501 50.459 279.974 48.6488C281.389 49.1582 283.282 49.4308 284.44 49.4308C288.364 49.4308 291.556 46.2216 291.556 42.2759C291.556 39.9228 290.455 37.8064 288.745 36.5079L288.766 36.4577L288.533 36.3525C287.858 35.8814 287.097 35.5323 286.276 35.3386L285.777 35.1138C285.92 35.1066 286.065 35.1018 286.207 35.1018C290.714 35.1018 294.384 38.7917 294.384 43.3257ZM285.004 35.1951L284.978 35.2525L285.004 35.1951ZM283.724 34.6881L283.57 35.0349L283.724 34.6881ZM278.873 46.8649C280.566 46.8649 282.307 46.1905 283.594 45.0187C284.559 44.1411 285.727 42.5724 285.822 40.095C285.893 38.2584 285.125 36.4888 283.734 35.1879L284.795 35.6638L285.544 36.001L285.539 36.0464C285.598 36.0536 285.656 36.0679 285.715 36.0799L288.374 37.2708C289.813 38.4258 290.733 40.2504 290.733 42.2759C290.733 45.7648 287.91 48.601 284.443 48.601C282.97 48.601 280.181 48.1036 279.156 47.3264L279.106 47.3909C279.041 47.2762 278.975 47.1638 278.915 47.0442L278.923 47.0394C278.915 47.0299 278.906 47.0227 278.899 47.0131C278.875 46.9629 278.851 46.9103 278.827 46.8601C278.844 46.8625 278.858 46.8649 278.873 46.8649ZM313.403 90.4112C313.403 90.4088 313.403 90.4088 313.403 90.4112V90.4112ZM303.954 65.5221C308.973 65.5221 312.053 66.5863 312.053 67.3491H312.022V67.9972C310.89 67.031 307.365 66.4739 303.935 66.4739C300.542 66.4739 297.052 67.0191 295.885 67.9661V67.3491H295.854C295.856 66.5863 298.936 65.5221 303.954 65.5221ZM295.885 68.2889C296.617 67.4711 299.669 66.713 303.935 66.713C308.273 66.713 311.353 67.4974 312.022 68.3295V74.6618C310.186 73.9851 307.118 73.6646 304.235 73.6646C301.507 73.6646 297.859 73.9755 295.885 74.7623V68.2889ZM304.235 74.3103C309.834 74.3103 312.956 75.3649 313.059 76.1277C313.085 76.3166 313.025 76.5582 312.959 76.7495C311.477 75.8862 307.774 75.3912 304.166 75.3912C300.418 75.3912 296.57 75.9245 295.212 76.8523C295.162 76.6706 295.114 76.2186 295.114 76.0871C295.117 75.3601 298.667 74.3103 304.235 74.3103ZM294.522 80.523V83.9928C294.177 83.5265 293.977 82.9072 293.977 82.2591C293.977 81.6111 294.175 80.9917 294.522 80.523ZM289.592 83.7418C288.2 83.7418 286.999 83.7418 286.462 83.1894C286.248 82.9693 286.148 82.668 286.155 82.2663C286.186 80.7382 287.285 80.755 288.95 80.7789C289.156 80.7813 289.373 80.7861 289.592 80.7861C290.008 80.7861 290.415 80.8195 290.798 80.8841C290.667 81.2213 290.591 81.6326 290.591 82.0702C290.591 82.68 290.726 83.2372 290.964 83.6007L291.173 83.462C290.966 83.1439 290.843 82.625 290.843 82.0702C290.843 81.6422 290.916 81.2428 291.05 80.9295C291.276 80.9774 291.492 81.0324 291.694 81.1017C291.63 81.3576 291.597 81.6302 291.597 81.9124C291.597 82.4361 291.716 82.9239 291.918 83.3424C291.278 83.6007 290.46 83.7418 289.592 83.7418ZM291.846 81.9148C291.846 81.6111 291.892 81.3217 291.968 81.0515L292.008 80.9511C292.006 80.9487 292.001 80.9487 291.999 80.9487C292.298 80.0256 293.016 79.3728 293.854 79.3728C294.084 79.3728 294.31 79.4254 294.524 79.521V80.1308C294.505 80.15 294.486 80.1691 294.467 80.1906C293.999 80.7191 293.728 81.4724 293.728 82.2591C293.728 83.0602 293.996 83.7991 294.47 84.3276C294.272 84.4089 294.065 84.4544 293.854 84.4544C292.745 84.4544 291.846 83.3137 291.846 81.9148ZM295.069 77.2995C295.733 76.4553 299.219 75.6447 304.166 75.6447C308.473 75.6447 311.674 76.2592 312.868 76.9742C312.864 76.9862 312.856 77.0029 312.852 77.0125L313.109 77.1416C313.132 77.1608 313.154 77.1823 313.175 77.2014L313.401 90.3825C313.135 90.6073 311.313 90.4829 309.703 90.3729C308.147 90.2677 306.214 90.1338 304.149 90.1338C302.073 90.1338 300.161 90.2677 298.625 90.3753C296.998 90.4877 295.319 90.6049 295.067 90.3849V84.947V77.2995H295.069ZM290.481 92.7188C291.233 94.938 291.406 97.7574 290.957 100.455C290.312 104.314 288.757 107.629 286.914 109.167C287.323 107.612 287.594 105.857 287.703 104.025C287.875 101.115 287.615 98.3481 286.971 96.2341C286.286 93.9934 285.227 92.7189 283.988 92.6447C283.981 92.6447 283.976 92.6447 283.969 92.6447V92.6352L279.344 92.5706C279.279 89.7679 278.666 87.4985 277.662 86.1044L288.533 89.6149C289.311 90.2199 290.001 91.3032 290.481 92.7188ZM275.64 112.844L280.262 112.775C280.516 113.292 280.799 113.717 281.106 114.05L276.509 113.978C276.197 113.691 275.907 113.308 275.64 112.844ZM275.519 112.622C275.265 112.141 275.039 111.587 274.839 110.972L279.574 110.905C279.61 111.037 279.648 111.166 279.686 111.29C279.826 111.754 279.986 112.172 280.157 112.553L275.519 112.622ZM277.672 93.3645C277.322 93.6108 276.982 93.9504 276.658 94.3689L275.591 94.3378C275.757 94.1441 275.928 93.9743 276.104 93.8308C276.528 93.4865 276.96 93.3167 277.391 93.3215V93.3621L277.672 93.3645ZM275.412 94.5554L276.494 94.5889C276.159 95.0552 275.843 95.6028 275.552 96.2222L274.458 96.1887C274.749 95.5502 275.067 95.0002 275.412 94.5554ZM274.361 96.4087L275.45 96.4422C275.16 97.0854 274.898 97.7981 274.672 98.5633L273.633 98.5322C273.842 97.755 274.087 97.0424 274.361 96.4087ZM273.576 98.7522L274.611 98.7833C274.401 99.5222 274.225 100.309 274.09 101.127L273.1 101.141C273.222 100.299 273.383 99.4983 273.576 98.7522ZM273.065 101.368L274.049 101.354C273.949 101.997 273.873 102.662 273.826 103.336L272.863 103.341C272.908 102.664 272.977 102.004 273.065 101.368ZM279.082 108.32L274.244 108.389C274.135 107.679 274.059 106.931 274.023 106.156L278.915 106.041C278.937 106.828 278.994 107.593 279.082 108.32ZM278.908 105.816L274.014 105.931C273.985 105.18 273.99 104.405 274.037 103.621C274.04 103.599 274.04 103.58 274.042 103.559L278.953 103.54C278.908 104.312 278.894 105.075 278.908 105.816ZM273.807 103.607C273.759 104.401 273.752 105.18 273.781 105.936L272.798 105.96C272.784 105.187 272.798 104.391 272.846 103.592C272.846 103.583 272.848 103.573 272.848 103.564L273.812 103.559C273.812 103.576 273.809 103.592 273.807 103.607ZM272.803 106.185L273.793 106.161C273.828 106.935 273.9 107.684 274.007 108.392L272.965 108.406C272.877 107.713 272.822 106.969 272.803 106.185ZM274.04 108.616C274.164 109.379 274.325 110.097 274.52 110.754L273.412 110.771C273.236 110.133 273.093 109.415 272.991 108.633L274.04 108.616ZM274.589 110.977C274.782 111.587 275.008 112.141 275.258 112.627L274.149 112.644C273.895 112.192 273.669 111.637 273.479 110.993L274.589 110.977ZM274.77 110.75C274.57 110.094 274.406 109.377 274.28 108.612L279.11 108.542C279.21 109.3 279.348 110.018 279.517 110.68L274.77 110.75ZM278.968 103.317L274.059 103.336C274.106 102.66 274.183 101.995 274.282 101.352L279.168 101.28L279.165 101.055L274.32 101.127C274.456 100.311 274.632 99.527 274.839 98.7929L279.605 98.9387C279.284 100.29 279.068 101.775 278.968 103.317ZM279.655 98.7163L274.901 98.5705C275.127 97.8005 275.391 97.0878 275.679 96.4493L280.304 96.5928C280.057 97.2457 279.841 97.9607 279.655 98.7163ZM280.602 95.8539C280.528 96.0213 280.459 96.1935 280.388 96.3704L275.778 96.227C276.076 95.6004 276.399 95.0504 276.742 94.5937L281.175 94.7276C280.975 95.0671 280.782 95.4402 280.602 95.8539ZM281.31 94.51L276.913 94.3784C277.284 93.9265 277.672 93.5845 278.069 93.3741L282.176 93.4315C281.874 93.7137 281.586 94.0771 281.31 94.51ZM268.8 71.2446C272.071 75.274 273.871 80.2193 273.871 85.1694C273.871 92.1234 271.134 98.7307 266.363 103.298C262.574 106.926 257.843 108.973 252.885 109.171C257.801 108.779 262.45 106.543 266.094 102.782C270.522 98.207 272.908 92.0493 272.808 85.4396C272.665 75.9699 266.736 67.3467 258.2 63.9056C262.224 65.161 265.949 67.7317 268.8 71.2446ZM260.284 80.6784C259.58 80.676 257.197 80.0902 255.075 79.4612C255.146 78.4664 255.251 75.3912 254.243 71.8113C253.379 68.7504 251.534 64.8812 247.614 61.9662L250.39 62.9586L250.387 62.9682C250.445 62.9849 250.502 63.004 250.556 63.0184L252.704 63.786L252.713 63.7621C252.718 63.7645 252.721 63.7645 252.725 63.7669L252.704 63.841C252.932 63.9056 253.158 63.9749 253.382 64.0467C253.672 64.1734 253.96 64.3073 254.245 64.446C255.891 66.0291 261.323 71.9955 260.284 80.6784ZM252.466 71.7755C251.091 67.6289 248.872 65.1419 246.68 63.071C245.246 61.7151 243.654 60.7394 242.558 60.1535L243.295 60.4166C248.492 62.5975 251.917 66.493 253.477 71.9955C254.647 76.1277 254.266 79.6645 254.262 79.7004L254.224 80.0304L254.54 80.126C257.277 80.9534 259.144 81.3911 260.12 81.4413L259.223 82.13L253.227 80.566C253.358 79.8917 253.938 76.2162 252.466 71.7755ZM255.85 64.9841C263.371 68.3798 268.23 75.6973 268.23 84.0813C268.23 96.1887 258.676 106.809 247.786 106.809C246.675 106.809 245.165 106.701 243.802 106.471L243.816 106.412C244.154 106.419 244.489 106.424 244.82 106.424C245.086 106.424 245.345 106.421 245.6 106.421C245.838 106.419 246.071 106.419 246.292 106.419C257.651 106.419 267.245 96.0524 267.245 83.7824C267.245 78.8754 265.48 74.2051 262.141 70.2761C260.386 68.21 258.269 66.45 255.938 65.0869C255.91 65.051 255.879 65.0175 255.85 64.9841ZM242.691 107.06C244.313 107.433 246.368 107.603 247.788 107.603C259.099 107.603 269.022 96.612 269.022 84.0813C269.022 75.4223 264.034 67.8608 256.3 64.3145C256.462 64.171 256.671 63.9701 256.952 63.6951C266.02 66.7608 272.423 75.6423 272.57 85.4396C272.668 91.9847 270.308 98.0826 265.923 102.612C261.996 106.668 256.892 108.935 251.55 108.997C250.39 109.011 248.732 108.894 247.31 108.657C246.963 108.593 246.608 108.521 246.254 108.447C246.111 108.413 245.973 108.377 245.842 108.339L245.838 108.356C244.737 108.11 243.633 107.813 242.663 107.476C242.672 107.34 242.682 107.201 242.691 107.06ZM279.988 37.4836C279.988 40.8243 276.732 43.9809 273.262 44.0383L257.596 37.0843C261.283 36.7877 264.194 33.679 264.194 29.8959C264.194 28.3965 263.782 27.0311 263.062 25.8999L277.769 32.5072C279.156 33.6383 279.988 35.4247 279.988 37.4836ZM258.138 35.5753C255.406 35.5753 253.184 33.3394 253.184 30.5942C253.184 27.8465 255.408 25.613 258.138 25.613C260.871 25.613 263.092 27.8489 263.092 30.5942C263.095 33.3418 260.871 35.5753 258.138 35.5753ZM250.67 29.8959C250.67 26.3758 253.52 23.511 257.021 23.511C260.7 23.511 263.371 26.1965 263.371 29.8959C263.371 30.3598 263.321 30.8094 263.228 31.2446C263.254 31.0318 263.273 30.8142 263.273 30.5942C263.273 27.7485 260.971 25.4336 258.141 25.4336C255.311 25.4336 253.008 27.7485 253.008 30.5942C253.008 33.4399 255.311 35.7547 258.141 35.7547C259.175 35.7547 260.139 35.4438 260.945 34.9105C259.865 35.7666 258.502 36.2808 257.023 36.2808C253.52 36.2808 250.67 33.4159 250.67 29.8959ZM265.266 45.9729C266.234 44.7509 266.413 42.735 266.446 42.0009L271.597 44.287C270.501 44.4902 268.993 44.8298 267.692 45.3272C265.124 46.3125 251.02 61.3277 250.421 61.9662L250.378 62.0116C250.216 61.9518 250.05 61.8921 249.883 61.8323C252.38 59.3046 264.26 47.2451 265.266 45.9729ZM197.865 42.2759C203.418 44.4448 213.226 50.789 213.181 68.4969C213.162 76.6753 210.073 84.4233 204.707 89.756C200.348 94.0867 194.801 96.4637 189.067 96.4637C189.003 96.4637 188.939 96.4637 188.875 96.4637C187.885 96.4541 186.87 96.16 185.89 95.8778C185.045 95.6339 184.244 95.4043 183.59 95.4115L182.653 95.2369C182.622 95.2202 182.589 95.2035 182.558 95.1867L182.541 95.2154L170.863 93.0512C172.298 92.8839 173.713 92.5897 175.099 92.1665C180.653 90.471 185.402 86.8505 188.846 82.0582C192.83 76.8953 195.099 70.2594 195.099 63.3125C195.099 57.7144 193.669 52.3602 191.005 47.7664C188.76 43.5648 185.628 40.0256 181.901 37.4836L197.865 42.2759ZM187.823 44.2463C188.13 44.6529 188.427 45.0666 188.713 45.4922C187.238 45.1024 185.723 44.9016 184.192 44.9016C173.596 44.9016 164.975 54.3737 164.975 66.0171C164.975 77.2206 172.956 86.4105 183 87.0896C182.505 87.4818 182.001 87.8572 181.48 88.2112C176.367 87.9912 171.713 85.6668 168.302 81.6087C164.811 77.4549 162.887 71.8663 162.887 65.8784C162.887 59.9933 165.041 54.4263 168.956 50.2008C172.885 45.9585 178.086 43.6222 183.599 43.6222C183.721 43.6222 183.847 43.6222 183.978 43.6198C185.126 43.6102 186.703 43.5959 187.738 44.3611L187.823 44.2463ZM183.923 86.322C173.891 86.1618 165.774 77.1177 165.774 66.0171C165.774 54.8161 174.036 45.7051 184.192 45.7051C185.956 45.7051 187.7 45.9801 189.376 46.5229C192.295 51.253 194.009 56.9946 194.009 63.181C194.012 72.4283 190.13 80.9008 183.923 86.322ZM194.801 63.1786C194.801 60.8638 194.566 58.6087 194.123 56.4422C194.613 58.6637 194.868 60.9666 194.868 63.3125C194.868 66.9593 194.238 70.5176 193.06 73.8225C194.185 70.4889 194.801 66.8947 194.801 63.1786ZM187.662 44.0311C186.575 43.3663 185.086 43.3783 183.978 43.3878C183.847 43.3878 183.721 43.3902 183.602 43.3902C178.022 43.3902 172.761 45.7529 168.79 50.0429C164.837 54.3115 162.658 59.9359 162.658 65.8808C162.658 71.9237 164.601 77.5649 168.128 81.7617C171.513 85.7863 176.105 88.1275 181.159 88.4312C180.522 88.8521 179.868 89.2418 179.197 89.6029C176.086 91.0616 172.735 91.8221 169.294 91.8221C155.193 91.8221 143.72 79.0332 143.72 63.3149C143.72 47.5966 155.19 34.8053 169.291 34.8053C174.015 34.8053 178.545 36.2258 182.486 38.8802C184.408 40.3341 186.149 42.0678 187.662 44.0311ZM142.133 63.1786C142.133 47.0538 153.77 33.9349 168.071 33.9349C172.003 33.9349 175.732 34.9273 179.076 36.7016C176.013 35.3051 172.704 34.571 169.294 34.571C155.064 34.571 143.489 47.4627 143.489 63.3101C143.489 79.1575 155.064 92.0493 169.294 92.0493C171.315 92.0493 173.308 91.7886 175.237 91.284C175.114 91.3247 174.992 91.3677 174.869 91.406C172.664 92.078 170.378 92.4199 168.071 92.4199C153.77 92.4223 142.133 79.3034 142.133 63.1786ZM189.919 97.3844C188.025 97.4346 185.978 96.7698 184.375 96.0715L184.437 95.7367C184.869 95.8228 185.34 95.9591 185.826 96.0978C186.774 96.3728 187.852 96.6837 188.872 96.6933C188.939 96.6933 189.003 96.6933 189.07 96.6933C194.863 96.6933 200.469 94.2924 204.871 89.9186C210.279 84.5429 213.395 76.7351 213.414 68.4969C213.433 60.4572 211.411 53.8739 207.399 48.9286C204.588 45.4635 201.318 43.4763 198.661 42.3428L198.733 42.1061C202.704 43.0507 206.427 45.8485 209.409 50.1936C212.903 55.2848 214.948 61.959 215.017 68.5041C215.184 84.0359 203.925 96.9898 189.919 97.3844ZM215.807 68.4969C215.735 61.7964 213.64 54.9595 210.058 49.744C208.974 48.1634 207.792 46.7812 206.534 45.607C210.912 47.8453 214.194 50.6456 216.511 54.1178C219.272 58.2572 220.616 63.2647 220.616 69.432C220.616 77.9212 217.686 85.4013 212.363 90.4949C208.189 94.4884 202.745 96.7411 196.842 96.9587C207.896 93.2832 215.949 81.8119 215.807 68.4969ZM212.907 91.0688C218.387 85.8246 221.405 78.1412 221.405 69.4296C221.405 63.0997 220.019 57.9463 217.167 53.673C216.28 52.3434 215.257 51.1119 214.094 49.9688L241.15 59.649L241.124 59.7159C241.152 59.7279 244.068 60.9236 246.52 63.2384C248.689 65.2878 250.885 67.7508 252.245 71.8472C253.848 76.6777 252.989 80.5852 252.98 80.6234L252.954 80.7334L259.273 82.3835L260.505 81.4341C260.64 81.4198 260.745 81.3935 260.812 81.348C260.935 81.2667 261.014 81.1448 261.033 81.0013C261.97 73.8775 258.712 68.4754 256.4 65.6369C258.478 66.933 260.372 68.5496 261.963 70.422C265.264 74.3079 267.01 78.9256 267.01 83.7776C267.01 95.9232 257.52 106.182 246.287 106.182C246.064 106.182 245.833 106.185 245.593 106.185C244.696 106.189 243.695 106.192 242.751 106.125C242.969 103.054 243.231 99.35 243.231 99.35L243.248 99.1037L243.01 99.0416C242.468 98.8981 229.727 95.5215 229.12 95.4187L228.802 95.3661L228.773 95.7224L228.692 95.3182L224.093 96.2389L224.033 97.3772H223.738L223.731 97.5255L223.688 97.3987C223.619 97.4226 223.512 97.4681 223.365 97.5326C222.602 97.8698 220.57 98.7642 216.439 99.209C214.634 99.4027 212.591 99.2257 210.748 98.9292L210.76 98.879L202.49 96.9037C206.403 95.8682 209.961 93.8882 212.907 91.0688ZM214.622 107.072C218.644 106.957 222.794 106.751 223.586 106.711V108.052L225.605 108.793C222.511 108.966 221.132 109.095 220.501 109.2L220.516 109.162L214.622 107.072ZM205.516 104.671C205.518 104.585 205.52 104.472 205.482 104.367C205.437 103.886 205.463 100.773 205.494 98.5537C207.135 99.0439 212.353 100.457 216.534 100.005C220.787 99.5461 222.896 98.6159 223.691 98.2668C223.696 98.2644 223.698 98.2644 223.703 98.262L223.308 105.931C218.114 106.192 208.467 106.567 206.886 106.218C205.482 105.905 205.506 105.073 205.516 104.671ZM203.715 111.29C204.338 110.594 204.248 108.856 204.21 108.363H209.021C209.009 108.731 209.002 109.09 208.995 109.442C208.914 110.113 208.748 110.8 208.422 111.144C208.286 111.288 208.134 111.357 207.961 111.357H203.653C203.672 111.335 203.694 111.314 203.715 111.29ZM203.342 111.589H207.837C207.813 112.555 207.521 113.045 207.19 113.347H202.65C202.964 113.067 203.401 112.51 203.342 111.589ZM201.848 113.782C201.951 113.643 202.096 113.576 202.293 113.576H206.883C206.828 113.612 206.776 113.645 206.724 113.677C206.598 113.755 206.476 113.827 206.384 113.913C206.017 114.251 205.996 114.956 206.003 115.241L201.791 115.36C201.696 114.994 201.563 114.172 201.848 113.782ZM206.358 115.606C207.161 115.606 207.842 116.969 207.842 118.581C207.842 120.193 207.161 121.556 206.358 121.556C205.554 121.556 204.873 120.193 204.873 118.581C204.873 116.969 205.554 115.606 206.358 115.606ZM199.192 118.581C199.192 116.941 199.905 115.606 200.78 115.606C200.835 115.606 201.013 115.604 201.199 115.602C201.354 115.599 201.513 115.597 201.615 115.597L201.62 115.609L205.925 115.475C205.178 115.824 204.64 117.06 204.64 118.579C204.64 119.944 205.076 121.085 205.706 121.554H201.951H200.78C199.905 121.556 199.192 120.222 199.192 118.581ZM204.189 127.738C204.131 127.233 203.827 124.945 202.871 124.206C202.298 123.763 202.024 122.96 201.958 122.355C201.922 122.032 201.955 121.845 201.981 121.788H206.358H207.452C207.406 122.285 207.295 124.041 207.873 124.665C207.961 124.76 208.039 124.837 208.108 124.906C208.555 125.351 208.698 125.492 209.188 128.226L204.189 127.738ZM210.415 122.666C210.396 122.623 210.375 122.57 210.356 122.513C210.377 122.565 210.396 122.618 210.415 122.666ZM210.103 121.769C209.958 122.309 210.232 122.826 210.284 122.919L211.117 125.686L209.464 128.465L209.442 128.338C208.914 125.385 208.764 125.236 208.27 124.744C208.201 124.674 208.125 124.6 208.041 124.509C207.452 123.871 207.689 121.709 207.694 121.688L207.708 121.558H207.007C207.637 121.087 208.072 119.949 208.072 118.584C208.072 116.785 207.318 115.377 206.358 115.377C206.317 115.377 206.279 115.384 206.241 115.386L206.239 115.346C206.239 115.336 206.17 114.43 206.541 114.085C206.617 114.014 206.724 113.949 206.845 113.875C207.323 113.581 208.039 113.139 208.07 111.577C208.263 111.551 208.436 111.462 208.586 111.304C208.75 111.132 208.876 110.886 208.976 110.606C208.936 116.178 209.445 119.631 210.103 121.769ZM214.177 107.756L219.933 109.798C220.509 111.709 219.101 113.339 218.744 113.71L214.199 113.655C214.137 111.278 214.156 108.987 214.177 107.756ZM220.547 109.783C221.32 109.664 223.748 109.492 226.029 109.367C226.038 109.427 226.048 109.487 226.057 109.544L226.01 110.582H227.477L227.415 113.799L219.524 113.717C220.111 112.981 220.994 111.515 220.547 109.783ZM226.333 128.264C226.357 126.992 226.385 125.105 226.395 123.352C226.523 123.778 226.706 124.163 226.978 124.45V127.173L226.333 128.264ZM216.767 120.03L225.781 120.162C225.848 122.513 225.76 127.365 225.724 129.113C224.633 129.129 219.962 128.897 216.877 128.73C216.737 127.771 216.734 123.118 216.767 120.03ZM222.709 135.395C220.806 135.471 218.894 135.323 217.467 134.991C216.08 134.668 215.462 134.247 215.319 133.919L215.21 130.344C216.356 131.119 218.523 131.619 221.006 131.619C221.353 131.619 221.71 131.609 222.069 131.588C224.059 131.475 225.945 131.119 227.382 130.588C228.133 130.308 228.709 130 229.104 129.667L229.256 133.231C229.166 133.668 228.54 134.146 227.532 134.534C226.276 135.015 224.564 135.321 222.709 135.395ZM207.266 136.052C208.453 135.249 210.705 134.175 214.713 133.541L214.72 133.805H214.691C214.694 133.879 214.708 133.95 214.727 134.02L214.732 134.149L214.772 134.146C214.917 134.486 215.257 134.79 215.785 135.05L215.79 135.316C214.125 135.325 210.926 136.961 208.798 138.049C208.122 138.393 207.59 138.666 207.259 138.807C206.947 138.941 206.655 138.946 206.391 138.822C206.053 138.664 205.815 138.322 205.663 138.035L205.646 137.65C205.744 137.468 206.146 136.81 207.266 136.052ZM207.335 148.346C207.882 148.361 208.415 148.341 208.931 148.303C208.905 148.346 208.893 148.382 208.888 148.404L167.907 243.495C167.883 243.474 167.855 243.45 167.826 243.426C167.07 241.621 166.937 241.051 166.956 240.915C167.218 240.267 204.795 153.837 207.19 148.33C207.238 148.339 207.287 148.346 207.335 148.346ZM162.661 247.939L165.686 241.477L166.911 244.579L163.524 250.832L162.661 247.939ZM168.74 252.559C166.873 252.697 164.195 251.432 163.619 251.148V251.145L167.08 244.756L171.841 246.033C170.557 248.995 169.123 252.099 168.74 252.559ZM172.034 245.576C172 245.655 171.965 245.736 171.931 245.817L167.191 244.548L167.263 244.416L167.061 244.306L167.056 244.316L165.821 241.193L166.185 240.415H166.528C166.456 240.583 166.414 240.678 166.409 240.695C166.273 241.035 166.518 241.843 167.336 243.787L167.384 243.902L167.503 243.852L167.455 244.014L171.641 245.234L171.746 244.992C171.805 244.856 171.865 244.72 171.922 244.581L172.034 245.576ZM192.321 195.814C182.408 218.728 172.426 241.912 171.306 244.517L168.119 243.589L209.105 148.487L209.112 148.463C209.112 148.461 209.138 148.375 209.283 148.275C210.879 148.121 212.306 147.765 213.464 147.464C212.793 148.839 211.174 152.467 206.945 162.137C203.389 170.27 198.469 181.6 192.321 195.814ZM214.294 146.634C214.223 146.584 214.123 146.584 213.997 146.605C213.999 146.605 214.004 146.603 214.006 146.603C214.001 146.603 213.997 146.605 213.992 146.608C213.923 146.62 213.847 146.639 213.766 146.658C213.59 146.701 213.34 146.761 213.043 146.835C212.513 146.964 211.832 147.134 211.157 147.301L211.178 147.39C210.02 147.619 208.722 147.787 207.349 147.753C207.045 147.746 206.434 147.241 206.051 146.845L205.684 138.506C205.841 138.716 206.041 138.915 206.293 139.034C206.453 139.109 206.619 139.147 206.79 139.147C206.971 139.147 207.157 139.106 207.349 139.022C207.687 138.879 208.222 138.604 208.902 138.257C210.888 137.241 214.185 135.548 215.795 135.55L215.99 146.345C215.538 146.345 214.972 146.464 214.294 146.634ZM223.964 146.608C222.364 146.78 218.615 147.182 216.57 146.428C216.465 146.39 216.349 146.369 216.223 146.357L216.021 135.156C216.387 135.311 216.825 135.45 217.334 135.569C218.556 135.856 220.116 136.009 221.724 136.009C222.059 136.009 222.397 136.002 222.735 135.99C223.234 135.971 223.724 135.933 224.197 135.88L224.556 146.548C224.433 146.555 224.25 146.579 223.964 146.608ZM229.931 148.746L229.946 148.693C230.055 148.705 230.162 148.717 230.269 148.726L277.467 250.076L274.891 250.827L227.113 148.088L227.137 148.026C227.848 148.263 228.65 148.487 229.465 148.624L229.931 148.746ZM226.321 147.787L237.594 172.025L251.646 213.618L246.756 213.054C245.674 209.407 233.252 171.129 225.572 147.5L226.321 147.787ZM245.724 214.419L252.583 215.28L254.195 219.943L247.436 219.247L245.724 214.419ZM255.475 216.308L254.352 219.69L252.763 215.093L254.14 211.906L255.475 216.308ZM253.938 211.241L254.036 211.564L252.545 215.015L252.497 215.031L252.499 215.036L245.638 214.175L245.619 214.125L246.221 213.288C246.23 213.317 246.237 213.343 246.242 213.36L246.237 213.594L252.262 214.29L252.278 214.151L252.366 214.187L253.505 211.447L253.329 210.906L253.938 211.241ZM252.873 211.425L251.945 213.656L251.898 213.651L238.484 173.946L245.764 189.599L245.74 189.607L252.873 211.425ZM273.676 251.736L274.565 251.53L274.57 251.542L276.837 250.88L280.873 259.386C280.093 259.637 278.283 259.709 277.419 259.718L273.676 251.736ZM283.006 247.864L286.664 256.107C284.583 257.313 281.665 258.989 281.087 259.295L277.063 250.813L277.855 250.581L277.826 250.485L282.614 248.063L282.621 248.06L282.868 247.936V247.934L283.006 247.864ZM282.09 247.664L277.645 249.911L230.533 148.746C230.657 148.753 230.781 148.755 230.902 148.755C231.099 148.755 231.297 148.746 231.489 148.729C232.912 148.595 235.157 147.698 236.584 147.072L236.301 147.201L282.09 247.664ZM237.483 146.008C236.667 146.393 233.249 147.964 231.432 148.136C230.842 148.191 230.215 148.145 229.589 148.043L227.256 147.44C226.68 147.246 226.169 147.048 225.762 146.892C225.246 146.694 224.966 146.589 224.785 146.555L224.447 136.528C225.189 136.842 228.481 138.291 230.762 140.369C230.907 140.5 231.123 140.558 231.392 140.558C232.947 140.558 236.208 138.63 236.924 138.195C237.055 138.468 237.135 138.747 237.145 139.034C237.214 141.045 237.433 145.068 237.483 146.008ZM236.817 137.992C235.352 138.884 231.668 140.88 230.921 140.199C228.493 137.989 224.944 136.483 224.442 136.275L224.428 135.854C225.686 135.701 226.83 135.443 227.743 135.091C228.742 134.708 229.399 134.249 229.689 133.742C231.363 134.352 235.604 135.93 236.817 137.992ZM232.077 131.325C232.169 131.552 232.25 132.841 232.286 134.132C231.463 133.773 230.633 133.453 229.858 133.168C229.858 133.14 229.86 133.111 229.86 133.08H229.843L229.755 131.031C230.495 130.976 231.96 131.04 232.077 131.325ZM229.13 128.469L229.052 128.472L229.066 128.819C228.849 129.218 228.169 129.66 227.175 130.029C225.812 130.533 223.938 130.885 222.033 130.995C217.845 131.231 214.984 130.002 214.934 129.086C214.912 128.709 215.514 128.154 216.239 128.022C216.308 129.122 216.408 129.201 216.477 129.254L216.549 129.309L216.639 129.314C222.062 129.612 224.376 129.701 225.387 129.701C226.117 129.701 226.167 129.656 226.217 129.608L226.309 129.517V129.469L227.541 127.379C228.466 127.675 229.049 128.072 229.13 128.469ZM227.57 123.902V121.817H226.978V122.195C226.932 121.805 226.906 121.384 226.887 120.961L226.88 120.793C226.868 120.552 226.97 117.553 227.099 114.392L227.998 114.401L228.084 109.987H226.961C226.892 109.683 226.771 109.085 226.752 108.621L226.74 108.353L224.385 107.49V106.328L224.868 96.9109L228.752 96.1337L227.867 107.411L232.041 108.229C232.122 108.827 231.944 110.9 231.787 112.749C231.294 118.519 231.004 123.036 232.067 124.184C230.961 124.167 229.273 124.146 228.183 124.146C227.929 124.148 227.729 124.057 227.57 123.902ZM235.782 123.452C235.418 123.9 234.852 124.497 234.148 124.548C233.837 124.569 233.511 124.483 233.173 124.292L233.176 124.201C233.171 124.201 233.118 124.201 233.023 124.198C232.859 124.091 232.693 123.962 232.524 123.806C231.515 122.876 232.032 116.812 232.374 112.799C232.626 109.843 232.747 108.279 232.543 107.844L232.479 107.708L228.495 106.926L229.346 96.0835C231.004 96.4876 238.41 98.4413 242.627 99.5581C242.551 100.634 242.244 104.994 242.044 107.763C241.963 108.889 241.921 109.48 241.897 109.788C241.221 109.676 239.611 109.403 238.527 109.176C238.358 109.14 238.184 109.178 238.051 109.279C237.92 109.377 237.839 109.52 237.825 109.683C237.661 111.56 237.128 116.101 236.617 119.466C236.624 119.337 236.626 119.205 236.626 119.071C236.626 116.838 235.742 115.087 234.612 115.087C233.482 115.087 232.598 116.838 232.598 119.071C232.598 121.305 233.482 123.055 234.612 123.055C235.364 123.055 236.006 122.276 236.351 121.099C236.137 122.362 235.934 123.261 235.782 123.452ZM236.401 119.071C236.401 121.14 235.601 122.823 234.617 122.823C233.632 122.823 232.833 121.14 232.833 119.071C232.833 117.003 233.632 115.319 234.617 115.319C235.601 115.319 236.401 117.003 236.401 119.071ZM237.749 115.604C238.115 112.684 238.389 110.047 238.417 109.76C239.316 109.948 240.563 110.166 241.355 110.3C241.397 112.684 241.892 114.581 242.701 115.69L237.749 115.604ZM241.588 110.341C241.697 110.36 241.795 110.374 241.873 110.388V110.422L242.161 110.434C242.242 110.436 242.304 110.417 242.346 110.384C242.703 114.076 243.864 116.25 245.605 116.362C245.536 116.424 245.303 116.549 244.575 116.549C242.841 116.549 241.661 114.071 241.588 110.341ZM245.747 116.137C243.933 116.137 242.763 113.715 242.51 109.566L242.603 108.294C244.43 108.906 246.663 109.382 248.504 109.666C247.897 113.727 246.875 116.137 245.747 116.137ZM268.85 111.448L258.374 108.999C260.6 108.289 262.719 107.201 264.665 105.764L269.086 106.856L268.85 111.448ZM265.485 105.123C265.97 104.728 266.446 104.312 266.907 103.872C271.835 99.1563 274.661 92.3386 274.661 85.1694C274.661 85.1574 274.661 85.1479 274.661 85.1359L276.33 85.6763C277.7 86.6544 278.604 89.2203 278.685 92.5634L277.738 92.5491L277.741 92.5299C276.998 92.4175 276.275 92.6399 275.595 93.1923C273.714 94.7204 272.318 98.7833 272.037 103.542C271.987 104.401 271.971 105.259 271.99 106.089C271.995 106.306 272.002 106.522 272.011 106.732L265.485 105.123ZM274.28 112.866L275.372 112.849C275.617 113.292 275.885 113.672 276.173 113.975L275.776 113.968C275.222 113.935 274.713 113.543 274.28 112.866ZM282.718 114.083C281.846 114.03 281.018 112.928 280.447 111.058C279.829 109.033 279.581 106.366 279.748 103.549C279.914 100.732 280.476 98.1137 281.327 96.1767C282.06 94.51 282.937 93.5319 283.758 93.4482L283.955 93.4506V93.4434C284.821 93.5104 285.641 94.608 286.207 96.4661C286.826 98.4916 287.073 101.158 286.907 103.975C286.74 106.792 286.179 109.41 285.327 111.347C284.54 113.139 283.579 114.14 282.718 114.083ZM286.681 109.98L286.75 110.09C288.959 108.683 290.859 104.943 291.589 100.56C292.063 97.7191 291.884 94.8615 291.09 92.5084C290.755 91.5184 290.327 90.6862 289.834 90.0334L299.571 93.178L299.559 93.221C305.36 94.7682 307.619 97.6594 307.619 103.53C307.619 109.04 304.321 113.524 300.266 113.524C299.638 113.524 299.012 113.416 298.411 113.201L298.396 113.244L286.574 110.324C286.605 110.214 286.643 110.099 286.681 109.98ZM305.503 95.2561C306.361 95.7822 307.225 96.5115 307.938 97.5231C309.52 99.7685 309.986 102.856 309.32 106.701C308.863 109.339 307.282 111.766 305.191 113.036C304.344 113.55 303.443 113.854 302.513 113.949C305.936 112.651 308.447 108.475 308.447 103.537C308.449 99.7924 307.548 97.1381 305.503 95.2561ZM292.688 117.883C292.674 117.189 292.829 114.896 293.005 112.761L298.579 114.138C298.655 114.16 298.732 114.176 298.808 114.195L298.812 114.198C299.193 114.286 299.576 114.341 299.964 114.358C300.61 114.535 301.255 114.628 301.89 114.628C303.155 114.628 304.385 114.279 305.524 113.588C307.769 112.225 309.465 109.628 309.953 106.813C310.647 102.794 310.145 99.5437 308.461 97.1548C306.704 94.6606 304.111 93.7615 302.689 93.4434C301.857 93.0632 300.927 92.7356 299.89 92.4534L299.895 92.4367L295.606 91.0521C296.251 91.0927 297.224 91.0306 298.66 90.9301C300.187 90.8225 302.087 90.691 304.147 90.691C306.192 90.691 308.116 90.8225 309.662 90.9277C310.074 90.9564 310.445 90.9803 310.787 91.0019L310.569 103.736C310.559 103.836 310.54 103.951 310.521 104.073C310.457 104.47 310.373 104.977 310.54 105.422L310.312 118.765L292.688 117.883ZM311.125 106.082C311.489 106.292 311.998 106.395 312.676 106.395C313.09 106.395 313.568 106.354 314.107 106.278L310.935 117.185L311.125 106.082ZM316.219 105.214C316.089 105.137 315.993 105.013 315.955 104.864C315.917 104.716 315.939 104.563 316.015 104.429C316.091 104.295 316.215 104.202 316.362 104.164C316.472 104.135 316.581 104.142 316.681 104.173C316.752 104.307 316.79 104.444 316.79 104.582C316.79 104.884 316.619 105.096 316.3 105.252C316.274 105.242 316.246 105.23 316.219 105.214ZM316.512 103.925C316.457 103.925 316.4 103.929 316.345 103.941L312.455 102.827L312.393 103.042L316.029 104.085C315.815 104.248 315.696 104.515 315.72 104.79L312.169 105.068L312.186 105.29L315.772 105.01C315.827 105.151 315.92 105.271 316.041 105.359C315.656 105.489 315.13 105.572 314.486 105.644L314.469 105.646C312.312 106.012 311.513 105.744 311.225 105.453C311.189 105.417 311.161 105.379 311.137 105.34L311.17 103.334C311.213 103.097 311.322 102.813 311.605 102.614C311.8 102.476 312.11 102.356 312.592 102.356C313.037 102.356 313.632 102.456 314.421 102.739C315.449 103.102 316.15 103.504 316.512 103.925ZM316.681 99.075L315.594 102.602C315.304 102.464 314.978 102.33 314.612 102.198C313.104 101.662 311.984 101.646 311.277 102.146C311.244 102.169 311.218 102.196 311.189 102.22L311.277 97.0974L316.681 99.075ZM317.09 97.6952L311.306 95.5119L311.36 92.3458L317.925 94.6726C317.706 95.4187 317.273 97.0137 317.09 97.6952Z" fill="#E9EEF1"/>
<path d="M233.83 119.071C233.83 120.692 234.308 121.962 234.917 121.962C235.526 121.962 236.004 120.692 236.004 119.071C236.004 117.449 235.526 116.18 234.917 116.18C234.308 116.18 233.83 117.449 233.83 119.071ZM235.861 119.071C235.861 120.714 235.374 121.816 234.917 121.816C234.46 121.816 233.973 120.714 233.973 119.071C233.973 117.428 234.46 116.326 234.917 116.326C235.374 116.326 235.861 117.428 235.861 119.071Z" fill="#E9EEF1"/>
</g>
</g>
<defs>
<filter id="filter0_f_6258_102908" x="-186" y="-190" width="444" height="444" filterUnits="userSpaceOnUse" color-interpolation-filters="sRGB">
<feFlood flood-opacity="0" result="BackgroundImageFix"/>
<feBlend mode="normal" in="SourceGraphic" in2="BackgroundImageFix" result="shape"/>
<feGaussianBlur stdDeviation="45" result="effect1_foregroundBlur_6258_102908"/>
</filter>
<filter id="filter1_f_6258_102908" x="68" y="1" width="444" height="444" filterUnits="userSpaceOnUse" color-interpolation-filters="sRGB">
<feFlood flood-opacity="0" result="BackgroundImageFix"/>
<feBlend mode="normal" in="SourceGraphic" in2="BackgroundImageFix" result="shape"/>
<feGaussianBlur stdDeviation="45" result="effect1_foregroundBlur_6258_102908"/>
</filter>
<clipPath id="clip0_6258_102908">
<rect width="315" height="240" fill="white" transform="translate(20 20)"/>
</clipPath>
</defs>
</svg>
