<svg width="325" height="400" viewBox="0 0 325 400" fill="none" xmlns="http://www.w3.org/2000/svg">
<mask id="mask0_6259_105242" style="mask-type:alpha" maskUnits="userSpaceOnUse" x="0" y="0" width="325" height="400">
<path d="M286.678 400H20C8.95431 400 0 391.046 0 380V20C0 8.95431 8.9543 0 20 0H305C316.046 0 325 8.9543 325 20V361.559C325 366.841 322.911 371.909 319.188 375.656L300.866 394.096C297.111 397.875 292.005 400 286.678 400Z" fill="#050505"/>
<path d="M286.678 399.5H20C9.23045 399.5 0.5 390.77 0.5 380V20C0.5 9.23045 9.23045 0.5 20 0.5H305C315.77 0.5 324.5 9.23044 324.5 20V361.559C324.5 366.709 322.463 371.65 318.833 375.303L300.511 393.744C296.85 397.428 291.871 399.5 286.678 399.5Z" stroke="url(#paint0_linear_6259_105242)" stroke-opacity="0.5"/>
</mask>
<g mask="url(#mask0_6259_105242)">
<g filter="url(#filter0_f_6259_105242)">
<circle cx="257" cy="328" r="135" fill="#1E1D49"/>
</g>
<g filter="url(#filter1_f_6259_105242)">
<circle cx="8" cy="24" r="135" fill="#1E1D49"/>
</g>
</g>
<g clip-path="url(#clip0_6259_105242)">
<g opacity="0.6" clip-path="url(#clip1_6259_105242)">
<path d="M134.908 227.85L134.976 223.569C134.984 223.11 134.788 222.775 134.393 222.578C133.612 222.182 132.361 222.431 132.186 222.519L132.09 228.521L134.908 227.85ZM134.971 227.9L132.027 228.603L132.123 222.491V222.489C132.165 222.362 135.067 221.784 135.036 223.569C135.021 224.638 134.971 227.9 134.971 227.9Z" fill="#E9EEF1"/>
<path d="M132.027 228.603L134.971 227.901C134.971 227.901 135.021 224.638 135.038 223.571C135.066 221.784 132.165 222.365 132.125 222.492V222.494L132.027 228.603ZM132.059 222.492V222.489L132.1 220.005C132.1 219.97 132.127 219.942 132.16 219.942H132.162L142.471 220.106C142.257 219.792 141.589 218.829 141.24 218.621C141.177 218.586 141.142 218.527 141.124 218.449C141.029 217.96 141.966 216.702 142.074 216.56C142.084 216.545 142.104 216.535 142.122 216.535C142.132 216.535 142.702 216.538 143.548 216.54C144.392 216.54 145.513 216.548 146.628 216.555C151.187 216.596 151.202 216.654 151.219 216.728C151.234 216.743 151.373 216.834 151.508 216.92C152.101 217.301 153.329 218.094 153.264 218.981C153.261 219.017 153.234 219.047 153.196 219.042C153.163 219.039 153.136 219.009 153.138 218.973C153.196 218.16 152.011 217.397 151.44 217.027C151.232 216.895 151.147 216.837 151.111 216.794C150.745 216.705 145.595 216.667 142.152 216.662C141.858 217.055 141.175 218.066 141.245 218.423C141.255 218.464 141.273 218.492 141.298 218.507C141.74 218.773 142.599 220.076 142.637 220.134C142.649 220.155 142.652 220.18 142.642 220.2C142.629 220.221 142.609 220.233 142.586 220.233C142.586 220.233 142.586 220.233 142.584 220.233L132.22 220.066L132.183 222.383C132.436 222.286 133.006 222.225 133.351 222.233C134.488 222.251 135.109 222.725 135.096 223.566L135.028 227.895C135.028 227.923 135.008 227.949 134.981 227.956L132.037 228.658C132.032 228.658 132.027 228.661 132.022 228.661C132.007 228.661 131.994 228.656 131.982 228.646C131.967 228.636 131.959 228.615 131.959 228.598L132.054 222.489L132.059 222.492Z" fill="#E9EEF1"/>
<path d="M337.71 167.357C327.472 166.909 306.714 165.565 305.371 165.477C304.584 164.99 301.811 163.084 301.184 162.65L302.887 135.639C302.889 135.484 302.874 135.327 302.844 135.172C302.663 134.283 301.945 130.653 301.038 126.06C298.662 114.041 294.688 93.9257 294.319 92.6077C294.256 92.3871 294.163 92.0526 281.845 87.3939C275.88 85.138 268.97 82.6135 267.347 82.099C267.106 82.0229 266.857 81.99 266.604 82.0026L137.061 88.4432C135.951 88.499 135.044 89.926 135.034 91.0843L136.368 127.338L136.227 127.33L134.632 133.084L136.242 136.427L138.52 136.462L139.58 135.18C140.562 135.687 141.738 135.94 143.092 135.922L148.208 136.728H148.231C149.092 136.723 149.801 137.41 149.826 138.272L150.753 168.62C150.775 169.398 151.217 170.102 151.901 170.46C152.423 170.733 152.752 171.271 152.755 171.866L152.883 194.648C152.473 194.625 151.627 194.61 149.861 194.582L149.756 194.58L149.7 198.07L149.781 198.09C150.185 198.199 150.77 198.232 151.338 198.232C151.973 198.232 152.589 198.191 152.9 198.166L153.011 217.868C153.016 218.674 152.883 219.452 152.632 220.177L142.592 220.066L142.589 220.281L150.655 220.37C148.914 220.585 146.965 220.981 146.563 221.543C146.053 222.261 146.201 223.252 146.282 223.617L141.74 223.543C141.743 223.127 141.735 222.785 141.71 222.628L141.698 222.552C141.6 221.918 141.306 219.995 138.362 219.974L138.36 220.19C141.12 220.21 141.384 221.936 141.484 222.585L141.497 222.664C141.57 223.117 141.482 225.315 141.449 226.07L136.182 227.327L136.257 222.562C136.26 222.524 136.29 221.594 135.524 220.834C134.815 220.129 133.68 219.815 132.153 219.901L132.166 220.116C133.63 220.035 134.71 220.327 135.373 220.986C136.071 221.678 136.046 222.547 136.046 222.56L135.971 227.34L136.127 227.343L127.634 229.365C126.569 229.619 125.874 230.635 126.017 231.73C126.336 234.181 126.946 239.471 127.649 245.595C128.842 255.959 130.329 268.858 131.319 275.973C131.774 279.225 134.986 282.269 138.485 282.758L247.984 296.934C248.331 296.977 248.675 297 249.019 297C249.657 297 250.29 296.924 250.905 296.777L250.96 296.965C250.96 296.965 309.314 279.491 326.455 274.353C329.388 273.473 331.418 270.807 331.503 267.72L332.377 236.315L332.38 236.204L310.942 212.53L325.628 205.669L336.492 205.694C336.497 205.694 336.504 205.694 336.509 205.694C340.925 205.694 344.57 202.075 344.64 197.619L344.994 175.164C345.064 170.967 341.862 167.54 337.71 167.357ZM266.629 82.5552C266.817 82.5451 267.001 82.5704 267.179 82.6262C270.844 83.7896 292.551 91.8878 293.804 92.8206C294.256 94.5923 298.154 114.317 300.498 126.169C301.442 130.944 302.123 134.394 302.306 135.286C302.329 135.4 302.341 135.517 302.339 135.621L299.993 172.802C299.985 173.217 299.631 173.897 299.106 174.492C298.576 175.096 297.994 175.483 297.614 175.483C297.612 175.483 297.609 175.483 297.607 175.483L297.451 175.481L297.431 175.514C296.75 175.648 293.028 176.284 289.172 174.918C284.965 173.428 282.23 167.106 282.202 167.04L282.094 167.086C282.368 153.911 282.621 140.822 282.712 136.092L282.717 135.811L277.216 135.829V135.781L267.365 135.826C267.895 135.56 268.312 135.172 268.319 134.602C268.385 130.275 267.847 113.597 267.415 100.194C267.181 92.9651 266.981 86.7222 266.92 83.8758C266.91 83.4449 266.752 83.0849 266.448 82.8087C266.35 82.72 266.24 82.6439 266.124 82.578L266.629 82.5552ZM147.412 232.949L144.323 232.686L144.951 231.634L148.13 231.9L147.412 232.949ZM147.573 245.235L144.488 244.966L144.149 232.975L144.199 232.891L147.344 233.16L147.573 245.235ZM145.415 231.456L171.312 225.018L174.379 225.221C171.141 225.916 151.265 231.01 148.515 231.715L145.415 231.456ZM246.969 136.759L246.612 159.426L233.584 159.219C232.099 159.196 230.331 159.926 230.273 163.548C230.256 164.61 229.919 165.573 229.324 166.257C228.703 166.97 227.839 167.34 226.86 167.322L204.281 166.959C201.787 166.919 201.23 165.142 201.199 163.659C201.139 160.575 201.132 158.129 201.174 157.672L216.353 160.499C216.466 160.519 216.579 160.526 216.69 160.526C217.174 160.526 217.644 160.349 218.016 160.019C218.473 159.614 218.722 159.028 218.697 158.415L217.837 136.564L282.159 136.366C282.031 143.017 281.865 151.445 281.692 159.992L247.158 159.439L247.514 136.772L246.969 136.759ZM200.936 157.804C200.795 157.809 200.697 157.703 200.682 157.655L200.833 157.627H200.931L201.159 157.67C201.122 157.733 201.046 157.799 200.936 157.804ZM218.154 158.435C218.172 158.881 217.991 159.307 217.659 159.604C217.328 159.9 216.886 160.027 216.451 159.954L201.009 157.079L200.986 157.074L154.623 156.582L154.935 136.754L217.297 136.561L218.154 158.435ZM200.644 157.624C200.564 158.2 200.576 159.703 200.652 163.672C200.7 166.113 201.983 167.476 204.271 167.512L226.85 167.874C226.872 167.874 226.897 167.874 226.92 167.874C228.048 167.874 229.02 167.441 229.733 166.62C230.414 165.837 230.801 164.749 230.818 163.555C230.859 161.043 231.765 159.769 233.514 159.769C233.534 159.769 233.554 159.769 233.571 159.769L246.6 159.976L281.68 160.539C281.283 179.99 280.843 199.859 280.715 200.577L280.981 200.642L280.959 200.749L283.061 201.208L281.393 228.08C281.328 229.15 280.851 230.128 280.054 230.838C279.258 231.548 278.233 231.897 277.173 231.829L182.288 225.53C182.411 224.02 182.514 210.852 182.519 210.272V210.168L171.548 209.656L171.437 209.651L171.199 224.793L157.183 223.863C156.412 223.812 154.932 223.148 154.932 222.37L154.242 169.981L154.445 157.13L200.644 157.624ZM179.4 225.553L181.472 225.69L154.917 232.25L154.146 232.186L179.4 225.553ZM174.896 225.039L171.412 224.808L171.648 209.876L175.062 210.036C175.087 211.306 175.328 223.784 174.896 225.039ZM179.724 225.36L179.962 210.264L182.306 210.373C182.268 215.313 182.173 224.438 182.077 225.518L179.724 225.36ZM151.697 234.08C151.73 233.93 151.868 233.75 152.054 233.563L153.609 233.697L153.573 233.74L153.611 245.759L151.624 245.587C151.619 244.92 151.559 234.701 151.697 234.08ZM152.265 233.365C152.742 232.952 153.383 232.544 153.674 232.364L154.626 232.442L153.769 233.492L152.265 233.365ZM153.867 233.717L256.484 242.5C256.481 242.545 256.479 242.591 256.479 242.637L256.524 254.712L153.825 245.777L153.787 233.814L153.867 233.717ZM256.506 242.287L154.031 233.517L154.87 232.485L154.932 232.47L257.2 241.025C256.838 241.349 256.587 241.793 256.506 242.287ZM155.588 232.308L182.18 225.738L277.163 232.044C277.256 232.049 277.349 232.055 277.442 232.055C278.459 232.055 279.429 231.687 280.2 231.003C281.042 230.257 281.541 229.226 281.612 228.098L283.285 201.177C283.465 201.018 284.503 200.153 285.693 200.288C286.364 200.364 286.969 200.744 287.497 201.421C287.178 201.781 286.974 202.242 286.949 202.744L285.676 227.872C285.525 230.83 283.526 233.355 280.702 234.153L258.034 240.571C257.825 240.629 257.634 240.721 257.458 240.835L155.588 232.308ZM285.711 200.07C284.437 199.93 283.365 200.81 283.146 201.005L281.263 200.592C281.403 198.939 281.752 183.577 282.076 168.052C282.403 168.703 282.933 169.682 283.651 170.736C284.744 172.34 285.889 173.567 287.075 174.414C286.856 176.201 285.771 186.839 290.23 192.387C291.86 194.417 294.06 195.555 296.765 195.784L296.76 197.33C296.735 199.413 295.386 199.591 294.404 199.722C294.158 199.755 293.942 199.783 293.776 199.842L288.358 200.83L288.311 200.843C288.059 200.939 287.838 201.086 287.645 201.261C287.085 200.554 286.437 200.151 285.711 200.07ZM290.395 192.255C286.075 186.877 287.03 176.616 287.273 174.556C287.838 174.938 288.414 175.233 288.994 175.438C290.981 176.142 292.907 176.338 294.439 176.338C295.625 176.338 296.572 176.221 297.127 176.13C296.986 176.485 296.838 176.997 296.823 177.58L296.768 195.571C294.128 195.345 291.985 194.232 290.395 192.255ZM135.582 91.0767C135.589 90.1921 136.302 89.0338 137.089 88.9958L264.117 82.6794L264.125 82.7681C264.137 82.7656 265.471 82.6642 266.086 83.2218C266.277 83.3942 266.373 83.6147 266.378 83.891C266.438 86.7374 266.639 92.9828 266.873 100.214C267.305 113.61 267.842 130.283 267.777 134.594C267.764 135.448 265.682 135.803 265.152 135.819V135.836L248.039 135.917L159.677 136.189C188.492 135.585 259.232 134.115 263.276 134.115C263.318 134.115 263.354 134.115 263.381 134.115C263.936 134.12 264.491 133.867 264.943 133.398C265.403 132.921 265.712 132.265 265.695 131.801C265.551 128.027 265.441 121.523 265.31 113.99C265.16 105.243 264.989 95.3274 264.725 87.181V87.1455C264.69 86.0353 264.645 84.6539 262.801 84.6235C262.798 84.6235 262.793 84.6235 262.788 84.6235C260.618 84.6235 140.148 91.0058 139.314 91.0767C137.041 91.2694 136.976 93.7837 136.976 93.8142C137.021 95.0004 137.875 117.947 138.339 127.452L136.915 127.371L135.582 91.0767ZM136.586 135.882L135.215 133.03L136.634 127.905L136.787 127.915C137.448 127.994 137.857 128.027 138.113 128.035C138.101 128.166 138.096 128.296 138.088 128.425L136.564 133.246L138.106 135.905L136.586 135.882ZM139.113 134.886L138.319 135.846L136.797 133.221L138.066 129.208C138.076 131.986 138.993 133.89 139.347 134.521L139.113 134.886ZM148.251 136.178L143.155 135.375L143.132 135.372H143.109C141.881 135.388 140.826 135.175 139.942 134.744L140.05 134.615L139.937 134.442C139.924 134.424 139.088 133.117 138.751 130.939C138.716 130.473 138.671 129.723 138.621 128.752C138.631 128.433 138.653 128.106 138.691 127.766L138.724 127.477L138.556 127.467C138.083 117.812 137.199 94.1006 137.189 93.8142C137.192 93.7178 137.254 91.4696 139.332 91.2922C141.673 91.0945 261.344 84.8389 262.791 84.8389C262.793 84.8389 262.796 84.8389 262.796 84.8389C264.436 84.8643 264.474 86.0277 264.509 87.1531V87.1886C264.773 95.335 264.943 105.248 265.094 113.995C265.225 121.528 265.335 128.035 265.478 131.811C265.491 132.159 265.26 132.764 264.79 133.251C264.501 133.55 264.029 133.902 263.404 133.902C263.396 133.902 263.391 133.902 263.384 133.902C260.251 133.862 159.509 135.978 148.57 136.209C148.464 136.191 148.359 136.178 148.251 136.178ZM149.916 197.903L149.964 194.798C150.969 194.815 152.325 194.838 152.883 194.856L152.9 197.951C152.35 197.994 150.76 198.098 149.916 197.903ZM141.738 223.759L146.561 223.835L146.52 223.695C146.518 223.683 146.174 222.458 146.736 221.667C147.211 220.998 150.652 220.504 152.539 220.413C151.747 222.448 150.022 224.025 147.799 224.554L141.668 226.017C141.69 225.523 141.728 224.552 141.738 223.759ZM127.762 229.903L147.927 225.092C150.409 224.499 152.325 222.702 153.136 220.398C153.151 220.398 153.169 220.398 153.184 220.398L153.187 220.243C153.433 219.493 153.566 218.692 153.561 217.863L153.305 171.861C153.3 171.06 152.86 170.336 152.154 169.968C151.644 169.704 151.318 169.18 151.3 168.602L150.373 138.254C150.348 137.446 149.871 136.749 149.195 136.407C150.358 136.381 152.124 136.346 154.39 136.298L154.066 156.851L154.234 156.854L154.028 169.983L154.719 222.372C154.719 223.28 156.309 224.02 157.168 224.078L170.608 224.97L144.898 231.363L144.855 231.373L144.835 231.406L127.569 229.961C127.632 229.941 127.695 229.918 127.762 229.903ZM127.215 230.151L144.712 231.613L144.084 232.665L126.572 231.165C126.647 230.754 126.878 230.389 127.215 230.151ZM126.559 231.659C126.547 231.565 126.544 231.472 126.547 231.38L143.958 232.871L143.931 232.919L144.272 244.948L127.963 243.529C127.358 238.267 126.846 233.841 126.559 231.659ZM127.988 243.747L256.521 254.93L256.529 256.679C255.534 256.458 251.669 255.999 236.688 254.631C226.018 253.655 211.141 252.355 192.463 250.763C161.468 248.122 130.071 245.539 128.212 245.387L128.056 244.337C128.034 244.14 128.011 243.942 127.988 243.747ZM248.054 296.384L138.561 282.21C135.29 281.754 132.286 278.92 131.864 275.897C130.874 268.805 129.395 255.951 128.202 245.602C132.063 245.919 251.264 255.726 256.529 256.874L256.647 288.722C256.655 290.937 255.715 293.051 254.072 294.519C252.427 295.986 250.234 296.668 248.054 296.384ZM253.568 295.606C253.869 295.403 254.16 295.178 254.434 294.932C256.197 293.358 257.205 291.094 257.195 288.719L257.072 255.487C257.257 255.442 257.544 255.371 257.918 255.277C277.565 250.383 281.71 249.574 282.3 249.574C282.305 249.574 282.31 249.574 282.315 249.574C282.375 250.885 281.609 270.969 281.278 279.648C281.17 282.502 281.097 284.39 281.094 284.535C281.059 286.745 280.976 287.209 279.424 287.863C268.154 291.239 258.202 294.217 253.568 295.606ZM344.097 197.606C344.032 201.763 340.631 205.139 336.514 205.139C336.509 205.139 336.504 205.139 336.497 205.139L326.977 205.119L330.549 203.37L330.509 203.286L330.679 203.296L332.249 173.349L332.036 173.339L330.468 203.208L330.313 202.873L310.035 212.348L331.83 236.414L330.958 267.707C330.878 270.556 329.007 273.015 326.299 273.826C317.445 276.48 297.587 282.426 280.461 287.556C281.185 287.016 281.285 286.291 281.313 284.54C281.315 284.398 281.386 282.512 281.496 279.658C282.086 264.164 282.619 249.779 282.521 249.463C282.458 249.267 282.365 248.971 257.873 255.072C257.531 255.158 257.262 255.224 257.077 255.269L257.029 242.639C257.026 241.927 257.501 241.293 258.179 241.101L280.848 234.683C283.9 233.819 286.06 231.094 286.221 227.898L287.494 202.769C287.524 202.148 287.914 201.603 288.484 201.372L293.899 200.384L293.947 200.371C294.055 200.328 294.261 200.303 294.477 200.275C295.457 200.146 297.278 199.905 297.31 197.34L297.371 177.59C297.388 176.878 297.649 176.274 297.773 176.026C298.506 175.93 299.227 175.192 299.518 174.857C300.005 174.3 300.53 173.471 300.541 172.822L301.141 163.294C302.1 163.953 304.497 165.596 305.145 165.986L305.202 166.022L305.268 166.027C305.285 166.027 305.428 166.037 305.685 166.055C309.098 167.362 329.358 172.622 331.827 173.261L331.86 173.268L341.334 169.474L341.257 169.274L331.845 173.043C322.938 170.736 310.198 167.34 306.438 166.103C311.103 166.402 328.564 167.512 337.687 167.912C341.54 168.082 344.512 171.263 344.449 175.156L344.097 197.606Z" fill="#E9EEF1"/>
<path d="M159.013 208.134L228.451 211.285C228.484 211.287 228.519 211.287 228.552 211.287C229.685 211.287 230.767 210.443 231.335 209.11L231.357 209.059L231.712 175.766C231.845 174.489 231.443 173.057 230.709 172.198C230.338 171.759 229.911 171.518 229.474 171.498L158.694 170.104C158.069 170.076 157.318 170.297 156.702 170.694C155.999 171.151 155.594 171.746 155.567 172.383L155.454 204.294C155.451 204.367 155.446 204.446 155.441 204.527C155.399 205.234 155.336 206.304 156.054 207.097C156.642 207.744 157.611 208.083 159.013 208.134ZM155.991 204.558C155.996 204.474 156.001 204.393 156.004 204.304L156.117 172.393C156.137 171.957 156.459 171.508 156.999 171.156C157.516 170.821 158.154 170.626 158.679 170.651L229.459 172.045C229.808 172.061 230.107 172.329 230.297 172.552C230.93 173.295 231.287 174.598 231.169 175.716L230.815 208.937C230.315 210.068 229.401 210.775 228.479 210.729L167.151 207.949C165.076 207.612 160.955 206.96 159.654 206.877L159.804 203.118L161.5 203.341C161.377 205.599 161.454 205.691 161.49 205.729L161.525 205.762L161.565 205.767H161.568L161.56 205.934L163.08 206.005C164.536 206.241 166.712 206.593 168.098 206.818L168.131 206.606C167.651 206.527 166.317 206.309 164.976 206.094L195.791 207.541C195.811 207.541 195.833 207.541 195.853 207.541C196.732 207.541 197.695 207.244 198.438 206.742C199.312 206.152 199.802 205.348 199.814 204.479L200.041 176.225C200.056 175.318 199.764 174.382 199.242 173.658C198.662 172.851 197.868 172.4 197.009 172.388L188.923 172.111V172.101L188.71 172.099V172.106L160.455 171.138C160.44 171.138 160.425 171.138 160.41 171.138C159.556 171.138 158.674 171.521 157.986 172.192C157.285 172.877 156.878 173.772 156.863 174.651L156.649 202.238C156.624 203.779 157.895 205.364 159.483 205.772L159.43 207.082L159.535 207.087C160.395 207.125 163.06 207.523 165.232 207.863L159.033 207.581C157.8 207.538 156.933 207.249 156.459 206.725C155.898 206.101 155.951 205.244 155.991 204.558ZM157.812 173.3C157.961 173.047 158.149 172.806 158.37 172.588C158.483 172.476 158.604 172.378 158.727 172.286L158.38 194.214L157.584 194.188L157.913 173.303L157.812 173.3ZM197.134 195.451L196.23 195.423L196.584 172.93L196.996 172.945C197.165 172.948 197.328 172.973 197.489 173.016L197.134 195.451ZM197.7 173.087C198.008 173.211 198.295 173.412 198.549 173.685L198.204 195.486L197.345 195.458L197.7 173.087ZM196.017 195.415L195.13 195.387L195.484 172.892L196.371 172.922L196.017 195.415ZM194.919 195.38L194.045 195.352L194.399 172.854L195.273 172.884L194.919 195.38ZM193.831 195.344L192.945 195.316L193.299 172.816L194.186 172.846L193.831 195.344ZM192.731 195.311L191.845 195.283L192.199 172.781L193.085 172.811L192.731 195.311ZM191.634 195.276L190.747 195.248L191.101 172.743L191.988 172.773L191.634 195.276ZM190.533 195.24L189.659 195.212L190.013 172.704L190.888 172.735L190.533 195.24ZM189.446 195.205L188.559 195.177L188.913 172.666L189.8 172.697L189.446 195.205ZM188.348 195.169L187.544 195.144L187.899 172.631L188.702 172.659L188.348 195.169ZM187.331 195.139L186.444 195.111L186.798 172.595L187.685 172.626L187.331 195.139ZM186.231 195.103L185.357 195.075L185.711 172.557L186.585 172.588L186.231 195.103ZM185.146 195.068L184.259 195.04L184.613 172.519L185.5 172.55L185.146 195.068ZM184.045 195.032L183.249 195.007L183.603 172.484L184.4 172.512L184.045 195.032ZM183.038 195.002L182.152 194.974L182.506 172.448L183.392 172.479L183.038 195.002ZM181.938 194.966L181.064 194.939L181.418 172.41L182.292 172.441L181.938 194.966ZM180.85 194.931L179.964 194.903L180.318 172.372L181.205 172.403L180.85 194.931ZM179.753 194.895L178.944 194.87L179.298 172.337L180.107 172.365L179.753 194.895ZM178.731 194.862L177.844 194.835L178.198 172.299L179.085 172.329L178.731 194.862ZM177.63 194.83L176.756 194.802L177.11 172.263L177.985 172.294L177.63 194.83ZM176.543 194.794L175.656 194.766L176.01 172.225L176.897 172.256L176.543 194.794ZM175.445 194.759L174.641 194.733L174.996 172.19L175.799 172.218L175.445 194.759ZM174.782 172.182L174.428 194.726L173.541 194.698L173.895 172.152L174.83 172.185L174.782 172.182ZM173.328 194.69L172.454 194.662L172.808 172.114L173.682 172.144L173.328 194.69ZM172.243 194.657L171.356 194.629L171.71 172.078L172.597 172.109L172.243 194.657ZM171.142 194.622L170.346 194.596L170.7 172.129L170.487 172.127L170.133 194.589L169.246 194.561L169.6 172.005L171.494 172.071L171.142 194.622ZM169.035 194.553L168.161 194.525L168.515 171.967L169.389 171.997L169.035 194.553ZM168.304 171.962L167.95 194.52L167.063 194.492L167.417 171.931L168.427 171.967L168.304 171.962ZM166.85 194.485L166.182 194.465L166.536 171.901L167.204 171.924L166.85 194.485ZM165.968 194.457L165.082 194.429L165.436 171.863L166.322 171.893L165.968 194.457ZM164.868 194.421L163.994 194.394L164.351 171.825L165.225 171.855L164.868 194.421ZM163.783 194.386L162.896 194.358L163.253 171.787L164.14 171.817L163.783 194.386ZM162.683 194.35L161.879 194.325L162.233 171.805L162.02 171.802L161.665 194.32L160.779 194.292L161.135 171.716L163.037 171.782L162.683 194.35ZM160.568 194.285L159.694 194.257L160.048 171.721C160.181 171.701 160.312 171.688 160.442 171.693L160.922 171.708L160.568 194.285ZM159.48 194.249L158.594 194.221L158.94 172.139C159.224 171.962 159.528 171.83 159.832 171.759L159.48 194.249ZM157.373 194.183L157.277 194.181L157.26 194.708L165.961 194.984V195.012L166.174 195.015V194.992L169.028 195.083V195.126L169.241 195.129V195.088L172.235 195.184V195.255L172.449 195.258V195.189L178.723 195.39H178.741L185.138 195.595V195.605L185.352 195.608V195.603L196.012 195.942V195.955L196.225 195.957V195.947L199.234 196.044L199.252 195.516L198.425 195.491L198.765 173.934C198.777 173.952 198.792 173.967 198.805 173.984C199.257 174.616 199.511 175.429 199.498 176.223L199.272 204.476C199.262 205.158 198.857 205.802 198.139 206.289C197.468 206.742 196.592 207.006 195.813 206.993L161.648 205.389C161.64 204.973 161.673 204.073 161.721 203.257L161.726 203.158L159.603 202.877L159.51 205.204C158.229 204.816 157.182 203.493 157.202 202.248L157.416 174.661C157.421 174.279 157.521 173.888 157.699 173.521L157.373 194.183Z" fill="#E9EEF1"/>
<path d="M246.29 224.555L274.545 226.053C274.603 226.058 274.661 226.06 274.718 226.06C275.474 226.06 276.321 225.693 277.014 225.051C277.584 224.527 277.928 223.924 277.936 223.442L279.096 170.212C279.147 167.071 279.182 164.803 276.311 164.757L248.787 164.318C248.156 164.313 246.215 164.544 245.024 165.725C244.386 166.359 244.059 167.157 244.057 168.098L243.223 221.123V221.13C243.208 222.05 243.175 224.504 246.29 224.555ZM243.768 221.135V221.13L244.602 168.1C244.605 167.309 244.876 166.643 245.406 166.118C246.441 165.092 248.179 164.868 248.749 164.868C248.759 164.868 248.769 164.868 248.777 164.868L276.301 165.307C278.531 165.342 278.602 166.833 278.549 170.199L277.388 223.429C277.383 223.754 277.092 224.23 276.645 224.641C276.007 225.229 275.238 225.548 274.578 225.498L246.305 223.997C243.73 223.962 243.756 222.053 243.768 221.135Z" fill="#E9EEF1"/>
<path d="M225.007 214.798L204.257 213.534C203.114 213.463 202.007 213.848 201.145 214.619C200.286 215.387 199.774 216.449 199.703 217.604L199.555 220.086C199.485 221.242 199.867 222.357 200.63 223.226C201.391 224.093 202.444 224.61 203.589 224.681L224.339 225.946C224.427 225.951 224.515 225.954 224.603 225.954C225.653 225.954 226.655 225.571 227.448 224.861C228.308 224.093 228.82 223.031 228.89 221.875L229.038 219.394C229.184 217.004 227.376 214.943 225.007 214.798ZM216.874 215.037C217.293 215.044 217.685 215.217 217.979 215.521C218.273 215.825 218.431 216.228 218.424 216.651L218.353 221.097C218.331 222.575 217.708 222.679 216.753 222.661C216.721 222.661 216.688 222.653 216.655 222.651C216.736 222.593 216.814 222.532 216.886 222.461C217.261 222.096 217.472 221.607 217.479 221.084L217.55 216.639C217.557 216.117 217.364 215.622 216.999 215.245C216.927 215.169 216.849 215.103 216.768 215.042C216.804 215.039 216.839 215.037 216.874 215.037ZM216.492 214.857C216.49 214.857 216.487 214.859 216.485 214.859C216.482 214.859 216.48 214.857 216.48 214.857H216.492ZM215.628 215.174C216.005 215.179 216.359 215.336 216.625 215.612C216.891 215.888 217.032 216.251 217.027 216.631L216.957 221.077C216.952 221.457 216.796 221.814 216.522 222.083C216.248 222.349 215.892 222.489 215.512 222.489C214.729 222.476 214.101 221.822 214.113 221.031L214.184 216.585C214.196 215.802 214.832 215.174 215.603 215.174C215.613 215.174 215.62 215.174 215.628 215.174ZM204.343 214.117L214.947 214.763C214.691 214.857 214.458 215.001 214.254 215.199C214.008 215.44 213.832 215.736 213.739 216.061L204.37 215.458L204.355 215.683L213.689 216.284C213.674 216.38 213.661 216.476 213.661 216.578L213.591 221.024C213.586 221.292 213.636 221.553 213.737 221.797L204.235 221.062L204.343 214.117ZM201.06 222.844C200.399 222.091 200.068 221.125 200.128 220.121L200.276 217.64C200.336 216.636 200.781 215.716 201.524 215.049C202.245 214.403 203.167 214.076 204.129 214.109L204.019 221.11L201.517 223.279C201.356 223.148 201.2 223.006 201.06 222.844ZM227.072 224.43C226.326 225.097 225.366 225.426 224.374 225.371L203.624 224.106C202.918 224.063 202.255 223.819 201.69 223.416L204.159 221.275L213.845 222.022C213.925 222.164 214.023 222.299 214.139 222.42C214.5 222.798 214.985 223.011 215.502 223.018C215.512 223.018 215.523 223.018 215.533 223.018C215.821 223.018 216.103 222.952 216.356 222.831C216.482 222.861 216.613 222.879 216.746 222.882C216.791 222.882 216.836 222.882 216.879 222.882C217.504 222.882 218.047 222.795 218.336 222.238L228.059 223.001C227.853 223.541 227.519 224.032 227.072 224.43ZM228.471 219.358L228.323 221.84C228.302 222.167 228.24 222.484 228.139 222.788L218.431 222.025C218.514 221.787 218.562 221.485 218.569 221.1L218.64 216.654C218.64 216.631 218.637 216.606 218.637 216.583L225.924 217.044C227.006 217.11 227.948 217.736 228.448 218.666C228.473 218.892 228.483 219.123 228.471 219.358ZM225.934 216.821L218.615 216.357C218.514 215.683 218.042 215.125 217.411 214.913L224.972 215.374C226.582 215.473 227.891 216.596 228.32 218.073C227.75 217.348 226.893 216.879 225.934 216.821Z" fill="#E9EEF1"/>
<path d="M133.15 251.217L135.185 262.899L137.019 276.077L249.923 289.442L250.272 289.483L247.952 261.984L133.15 251.217ZM135.936 264.126L141.221 264.686L141.949 269.487L142.233 269.444L142.203 269.732L144.064 269.938L145.292 272.465L145.277 272.604L145.365 272.614L145.373 272.63L137.511 275.423L135.936 264.126ZM249.642 288.824L138.541 275.671L142.866 274.135L142.863 274.148L249.398 285.964L249.642 288.824ZM249.351 285.376L144.092 273.699L145.868 273.068L145.772 272.794L145.996 272.685L249.268 284.368L249.351 285.376ZM249.248 284.15L145.928 272.462L145.287 271.142L249.14 282.87L249.248 284.15ZM249.119 282.649L145.177 270.911L144.742 270.014L249.032 281.562L249.119 282.649ZM248.979 280.974L142.484 269.18L141.811 264.749L248.564 276.072L248.979 280.974ZM135.853 263.535L135.753 262.808L133.846 251.866L247.422 262.516L248.517 275.484L135.853 263.535Z" fill="#E9EEF1"/>
<path d="M203.106 208.665L227.314 209.72H227.317C227.324 209.72 227.332 209.72 227.339 209.72C227.915 209.72 228.485 209.367 228.947 208.726C229.361 208.153 229.623 207.416 229.633 206.8L229.696 202.775C229.723 202.755 229.751 202.737 229.778 202.717L229.698 202.605L230.01 182.779L230.06 182.698C230.045 182.688 230.027 182.677 230.012 182.67L230.082 178.224L230.097 178.201C230.092 178.199 230.087 178.194 230.082 178.191L230.123 175.667C230.133 175.058 229.904 174.478 229.482 174.037C229.06 173.596 228.492 173.347 227.892 173.337L203.678 172.506C202.418 172.498 201.385 173.966 201.365 175.203L200.875 206.339C200.865 206.947 201.094 207.527 201.516 207.966C201.94 208.409 202.505 208.658 203.106 208.665ZM221.638 203.629C217.986 203.571 214.617 202.09 212.148 199.459C209.719 196.872 208.413 193.46 208.468 189.856C208.496 188.157 208.853 186.52 209.506 185.009C209.82 185.161 210.192 185.316 210.616 185.476C209.983 186.875 209.636 188.393 209.611 189.97C209.559 193.252 210.784 196.357 213.062 198.714C215.376 201.11 218.536 202.458 221.954 202.514C222.007 202.514 222.06 202.514 222.115 202.514C224.436 202.514 226.865 201.708 229.344 200.121L229.326 201.224C228.193 201.948 224.604 203.68 221.638 203.629ZM229.324 201.48L229.311 202.278C226.897 204.035 224.064 204.939 221.105 204.891C213.417 204.767 207.263 198.164 207.388 190.172C207.421 188.165 207.843 186.229 208.614 184.452C208.767 184.599 209.006 184.753 209.315 184.913C208.647 186.454 208.283 188.122 208.255 189.853C208.197 193.513 209.523 196.978 211.992 199.609C214.499 202.281 217.925 203.786 221.633 203.847C221.673 203.847 221.716 203.847 221.756 203.847C224.657 203.844 228.075 202.24 229.324 201.48ZM221.959 202.298C218.596 202.245 215.491 200.917 213.216 198.565C210.978 196.248 209.772 193.196 209.825 189.975C209.85 188.396 210.199 186.903 210.812 185.549C211.154 185.676 211.525 185.803 211.92 185.932C211.297 187.202 210.96 188.583 210.938 190.02C210.892 192.95 212.053 195.723 214.21 197.83C216.398 199.966 219.385 201.173 222.615 201.226C222.66 201.226 222.703 201.226 222.748 201.226C225.418 201.226 227.515 199.941 229.369 198.775L229.351 199.868C226.809 201.515 224.333 202.334 221.959 202.298ZM210.636 181.106C210.932 180.738 211.249 180.384 211.583 180.044C211.282 180.376 210.96 180.736 210.636 181.106ZM222.617 201.006C219.44 200.955 216.506 199.771 214.359 197.67C212.246 195.607 211.106 192.89 211.151 190.02C211.174 188.606 211.508 187.245 212.126 185.995C212.628 186.155 213.165 186.317 213.731 186.479C213.191 187.607 212.894 188.834 212.874 190.107C212.831 192.758 213.884 195.27 215.836 197.176C217.817 199.112 220.52 200.202 223.444 200.25C223.484 200.25 223.524 200.25 223.562 200.25C225.883 200.25 227.736 199.16 229.374 198.134L229.369 198.514C227.485 199.703 225.348 201.051 222.617 201.006ZM223.449 200.035C220.578 199.989 217.928 198.92 215.986 197.021C214.077 195.156 213.047 192.702 213.088 190.109C213.108 188.854 213.402 187.648 213.939 186.538C214.396 186.667 214.868 186.796 215.356 186.926C214.924 187.909 214.688 188.971 214.67 190.069C214.59 195.153 218.676 199.203 223.971 199.29C224.006 199.29 224.042 199.29 224.077 199.29C226.136 199.29 227.892 198.324 229.389 197.363L229.382 197.878C227.711 198.93 225.82 200.07 223.449 200.035ZM223.974 199.097C218.784 199.013 214.781 195.049 214.858 190.074C214.876 188.991 215.112 187.945 215.542 186.976C216.041 187.108 216.551 187.24 217.066 187.369C216.782 188.178 216.622 189.047 216.607 189.96C216.534 194.651 219.879 198.111 224.564 198.185C224.599 198.185 224.637 198.185 224.672 198.185C226.219 198.185 227.88 197.655 229.397 196.684L229.389 197.133C227.869 198.116 226.081 199.13 223.974 199.097ZM224.677 198.01C224.642 198.01 224.607 198.01 224.571 198.01C219.987 197.936 216.712 194.552 216.785 189.962C216.8 189.065 216.958 188.208 217.24 187.412C217.584 187.498 217.93 187.585 218.279 187.668C218.066 188.309 217.945 188.991 217.935 189.704C217.905 191.599 218.689 194.355 221 195.883C221.831 196.433 223.022 196.915 224.644 196.915C225.943 196.915 227.525 196.6 229.414 195.772L229.404 196.471C227.89 197.462 226.227 198.01 224.677 198.01ZM217.285 184.459C217.436 184.31 217.589 184.163 217.752 184.023C219.573 182.447 221.994 181.605 224.554 181.643C225.383 181.656 226.156 181.818 226.877 182.064C226.382 181.927 225.863 181.841 225.312 181.831C225.262 181.831 225.209 181.831 225.159 181.831C222.283 181.831 219.774 183.141 218.229 185.194C217.895 184.949 217.579 184.703 217.285 184.459ZM221.083 195.754C218.825 194.261 218.058 191.561 218.086 189.706C218.096 189.007 218.217 188.335 218.428 187.704C218.84 187.803 219.252 187.901 219.663 187.998C219.553 188.403 219.493 188.814 219.485 189.227C219.455 191.161 220.07 192.882 221.223 194.071C222.333 195.219 223.853 195.807 225.737 195.822C225.77 195.822 225.802 195.822 225.835 195.822C227.312 195.822 228.515 195.543 229.429 194.998L229.419 195.602C225.187 197.477 222.552 196.727 221.083 195.754ZM225.739 195.607C223.913 195.592 222.444 195.024 221.377 193.919C220.266 192.77 219.671 191.105 219.701 189.23C219.706 188.832 219.766 188.434 219.874 188.046C220.425 188.173 220.97 188.299 221.51 188.421C221.482 188.606 221.462 188.791 221.459 188.979C221.419 191.452 222.253 193.181 223.933 194.121C224.931 194.679 226.109 194.864 227.151 194.864C228.123 194.864 228.972 194.702 229.439 194.527L229.437 194.748C228.533 195.32 227.262 195.619 225.739 195.607ZM229.437 194.322C228.653 194.639 226.033 195.082 224.019 193.954C222.404 193.052 221.603 191.376 221.643 188.979C221.645 188.806 221.663 188.631 221.688 188.459C225.26 189.26 228.435 189.889 229.505 190.096L229.437 194.322ZM229.505 190.074C226.47 189.303 223.994 188.388 221.979 187.412C222.258 186.733 222.7 186.089 223.288 185.544C224.325 184.581 225.684 184.036 227.005 184.061C228.013 184.077 228.869 184.508 229.585 184.951L229.505 190.074ZM229.588 184.733C228.869 184.297 228.015 183.889 227.008 183.874C225.642 183.854 224.235 184.411 223.162 185.407C222.56 185.967 222.102 186.632 221.814 187.331C221.349 187.103 220.907 186.87 220.49 186.634C220.824 186.092 221.253 185.587 221.771 185.146C223.049 184.056 224.717 183.443 226.347 183.471C227.626 183.491 228.701 184.074 229.59 184.652L229.588 184.733ZM229.593 184.401C228.698 183.831 227.626 183.276 226.35 183.255C224.674 183.23 222.949 183.859 221.63 184.981C221.093 185.44 220.646 185.965 220.301 186.528C219.962 186.332 219.636 186.137 219.327 185.94C220.681 184.051 223.012 182.847 225.699 182.895C227.229 182.921 228.52 183.598 229.593 184.287V184.401ZM229.598 184.11C228.523 183.425 227.231 182.769 225.704 182.743C225.657 182.743 225.609 182.743 225.561 182.743C222.881 182.743 220.558 183.965 219.201 185.861C218.912 185.673 218.636 185.486 218.372 185.298C219.885 183.288 222.341 182.008 225.159 182.008C225.209 182.008 225.26 182.008 225.31 182.008C226.993 182.036 228.417 182.802 229.605 183.59L229.598 184.11ZM229.613 183.205C228.224 182.335 226.548 181.481 224.556 181.448C221.957 181.408 219.483 182.267 217.626 183.874C217.456 184.021 217.295 184.175 217.137 184.333C216.825 184.066 216.536 183.805 216.27 183.544C216.303 183.516 216.333 183.486 216.365 183.458C218.435 181.727 221.183 180.797 224.094 180.845C226.252 180.88 228.085 181.76 229.618 182.677L229.613 183.205ZM229.625 182.434C228.091 181.524 226.259 180.667 224.102 180.632C221.13 180.581 218.34 181.529 216.232 183.293C216.195 183.326 216.157 183.359 216.119 183.392C215.763 183.035 215.449 182.683 215.172 182.345C217.413 180.629 220.299 179.714 223.333 179.765C225.81 179.806 227.9 180.853 229.63 181.907L229.625 182.434ZM229.638 181.661C227.905 180.614 225.817 179.593 223.338 179.552C220.246 179.507 217.317 180.434 215.039 182.181C214.758 181.823 214.517 181.479 214.313 181.154C216.566 179.415 219.503 178.396 222.74 178.447C225.453 178.49 227.726 179.745 229.595 180.964L229.65 180.878L229.638 181.661ZM229.65 180.746C227.769 179.522 225.481 178.275 222.743 178.232C219.581 178.181 216.584 179.157 214.21 180.987C213.952 180.556 213.753 180.161 213.605 179.816C216.102 177.915 219.209 176.906 222.494 176.962C225.312 177.007 227.691 178.29 229.665 179.595L229.65 180.746ZM229.673 179.339C227.694 178.044 225.317 176.789 222.499 176.746C219.189 176.693 216.049 177.704 213.522 179.611C213.349 179.175 213.258 178.832 213.211 178.617C215.569 176.85 218.39 175.897 221.341 175.897C221.414 175.897 221.49 175.897 221.562 175.9C224.245 175.943 227.35 177.007 229.683 178.678L229.673 179.339ZM229.696 177.92C227.309 176.318 224.242 175.312 221.575 175.269C217.682 175.21 213.997 176.721 211.199 179.537C208.403 182.351 206.831 186.122 206.765 190.162C206.635 198.504 213.062 205.393 221.098 205.522C221.176 205.522 221.253 205.525 221.329 205.525C224.185 205.525 226.925 204.676 229.299 203.059L229.258 205.654C229.246 206.516 228.538 207.233 228.096 207.233C228.093 207.233 228.091 207.233 228.088 207.233L204.907 206.861C204.284 206.851 203.764 206.678 203.405 206.361C203.078 206.072 202.902 205.672 202.907 205.231L203.37 175.862C203.385 174.99 204.093 174.288 204.954 174.288C204.962 174.288 204.972 174.288 204.98 174.288L228.161 174.66C228.583 174.668 228.977 174.84 229.271 175.147C229.567 175.454 229.726 175.859 229.718 176.283L229.696 177.92ZM201.579 175.208C201.596 174.075 202.523 172.721 203.651 172.721C203.658 172.721 203.666 172.721 203.673 172.721L227.887 173.553C228.435 173.56 228.947 173.786 229.329 174.186C229.713 174.587 229.919 175.109 229.909 175.662L229.904 175.933C229.841 175.583 229.678 175.261 229.424 174.997C229.09 174.648 228.641 174.453 228.163 174.445L204.982 174.072C203.992 174.06 203.171 174.858 203.156 175.857L202.694 205.226C202.686 205.73 202.887 206.192 203.264 206.524C203.661 206.876 204.229 207.066 204.904 207.076L228.085 207.449C228.088 207.449 228.09 207.449 228.093 207.449C228.565 207.449 229.258 206.833 229.432 206.009L229.419 206.797C229.399 207.999 228.42 209.504 227.337 209.504C227.332 209.504 227.324 209.504 227.319 209.504L203.111 208.45C202.563 208.442 202.051 208.217 201.669 207.816C201.285 207.416 201.079 206.894 201.089 206.341L201.579 175.208Z" fill="#E9EEF1"/>
<path d="M208.325 216.525L205.555 217.843L208.051 219.864L208.066 218.933C208.066 218.933 209.825 218.923 210.018 218.964L210.068 217.483L208.421 217.347L208.325 216.525Z" fill="#E9EEF1"/>
<path d="M258.21 92.159C258.21 92.1286 258.205 92.1007 258.202 92.0703L258.253 92.0247C258.235 92.0044 258.213 91.9866 258.195 91.9664C258.157 91.4898 258.007 91.1122 257.738 90.8536C257.366 90.4963 256.896 90.476 256.713 90.4811L212.742 92.0247L212.649 92.0272C212.154 92.0424 211.328 92.0678 211.312 93.0943L212.023 122.912L212.033 122.955C212.31 123.551 212.784 123.916 213.272 123.916C213.284 123.916 213.297 123.916 213.309 123.916L215.382 123.885C215.402 123.885 215.419 123.888 215.442 123.888C215.485 123.888 215.53 123.883 215.575 123.883L227.102 123.713V123.743L227.31 123.738V123.71L243.933 123.465V123.47L244.142 123.465V123.462L257.484 123.264C257.876 123.257 258.195 123.122 258.436 122.864C258.926 122.339 258.946 121.444 258.933 121.085L258.21 92.159ZM213.304 123.703C212.807 123.726 212.435 123.297 212.239 122.889L211.529 93.0994C211.541 92.3466 212.023 92.2705 212.656 92.2502L256.721 90.7041C256.879 90.699 257.276 90.7168 257.59 91.0159C257.781 91.1984 257.904 91.4569 257.959 91.7788C257.655 91.5938 257.336 91.5811 257.185 91.5862L254.864 91.6673V91.6242L254.656 91.6293V91.6749L214.631 93.0791L214.54 93.0816C214.063 93.0968 213.262 93.1222 213.247 94.1158L213.935 122.975L213.945 123.018C214.083 123.318 214.286 123.538 214.548 123.685L213.304 123.703ZM215.301 123.672C214.749 123.634 214.357 123.396 214.141 122.948L213.453 94.1132C213.465 93.3832 213.932 93.3097 214.543 93.292L214.791 93.2844L215.585 123.67L215.301 123.672ZM217.738 123.637L216.946 93.2616L216.738 93.2666L217.529 123.639L215.791 123.665L214.997 93.2768L218.662 93.1475L219.448 123.612L217.738 123.637ZM221.52 123.581L220.729 93.2083L220.521 93.2134L221.312 123.584L219.654 123.609L218.868 93.1399L224.396 92.9473L225.175 123.528L221.52 123.581ZM228.759 123.475L227.971 92.9169L227.762 92.9219L228.551 123.477L227.305 123.495L226.526 92.8864L226.318 92.8915L227.097 123.498L225.386 123.523L224.607 92.9371L229.689 92.7597L230.477 123.394L230.686 123.389L229.897 92.7546L233.562 92.6254L234.346 123.391L228.759 123.475ZM238.337 123.333L237.551 92.5443L237.342 92.5493L238.126 123.338L234.549 123.391L233.765 92.6203L239.294 92.4251L240.077 123.193L240.286 123.188L239.502 92.4175L243.124 92.2908L243.926 123.252L238.337 123.333ZM244.136 123.249L243.333 92.2832L245.051 92.2224L245.855 123.221L244.136 123.249ZM246.066 123.219L245.262 92.2148L246.997 92.1539L247.801 123.193L246.066 123.219ZM248.01 123.191L247.206 92.1463L248.924 92.0855L249.72 123.163L248.01 123.191ZM249.929 123.163L249.132 92.0804L250.778 92.0221L251.584 123.138L249.929 123.163ZM251.795 123.135L250.989 92.0145L252.707 91.9537L253.505 123.11L251.795 123.135ZM253.714 123.107L252.915 91.9461L254.658 91.8853L255.457 123.079L253.714 123.107ZM255.668 123.077L254.869 91.8777L256.577 91.8168L257.379 123.051L255.668 123.077ZM258.283 122.719C258.105 122.909 257.868 123.013 257.587 123.041L256.786 91.8118L257.193 91.7965C257.343 91.7889 257.695 91.8092 257.986 92.0576C257.989 92.0931 257.994 92.126 257.994 92.1615L258.72 121.095C258.732 121.429 258.715 122.256 258.283 122.719Z" fill="#E9EEF1"/>
<path d="M241.425 92.3891L241.217 92.3945L242.003 123.25L242.211 123.244L241.425 92.3891Z" fill="#E9EEF1"/>
<path d="M235.632 92.7094L235.424 92.7148L236.213 123.352L236.422 123.347L235.632 92.7094Z" fill="#E9EEF1"/>
<path d="M231.845 92.7641L231.637 92.7695L232.426 123.407L232.635 123.401L231.845 92.7641Z" fill="#E9EEF1"/>
<path d="M222.66 93.0452L222.451 93.0508L223.244 123.463L223.452 123.457L222.66 93.0452Z" fill="#E9EEF1"/>
<path d="M207.736 121.947C207.724 121.84 207.713 121.752 207.711 121.691L206.782 96.9044C206.759 96.1288 206.726 95.5179 206.666 95.0338H206.706L206.701 94.8158L206.633 94.8184C206.397 93.3204 205.802 93.2139 204.119 93.2393L143.522 94.7702C143.03 94.7601 142.638 94.9248 142.342 95.2543C141.633 96.0426 141.691 97.5685 141.787 98.4024L142.897 124.185C142.94 124.9 143.954 126.088 144.66 126.088C144.673 126.088 144.685 126.088 144.698 126.088L205.787 125.156C206.435 125.206 206.935 125.054 207.274 124.697C207.465 124.497 207.59 124.246 207.673 123.977H207.714L207.711 123.84C207.874 123.163 207.786 122.393 207.736 121.947ZM143.113 124.175L142.003 98.3846C141.91 97.5812 141.852 96.1237 142.503 95.4013C142.749 95.1276 143.08 94.9882 143.492 94.9882C143.502 94.9882 143.515 94.9882 143.525 94.9882L204.127 93.4547C205.689 93.4319 206.219 93.4775 206.427 94.8209L145.662 96.3417C145.168 96.3316 144.778 96.4963 144.482 96.8258C143.774 97.6141 143.831 99.14 143.927 99.9739L144.851 123.252L143.186 124.482C143.146 124.37 143.118 124.266 143.113 124.175ZM207.118 124.545C206.824 124.852 206.38 124.983 205.8 124.938H205.794L144.688 125.87C144.256 125.901 143.613 125.285 143.299 124.715L207.445 123.977C207.372 124.195 207.269 124.39 207.118 124.545ZM207.508 123.762L143.535 124.497L144.999 123.414L207.495 122.864L207.492 122.646L145.067 123.196L144.143 99.9561C144.05 99.1526 143.992 97.6952 144.643 96.9728C144.896 96.6915 145.24 96.5495 145.665 96.5597L206.458 95.0389C206.515 95.5103 206.543 96.1212 206.566 96.912L207.495 121.701C207.5 121.767 207.51 121.861 207.523 121.972C207.57 122.395 207.653 123.131 207.508 123.762Z" fill="#E9EEF1"/>
<path d="M245.951 223.299C246.348 223.411 246.845 223.479 247.282 223.487L273.269 224.214C273.382 224.217 273.49 224.217 273.595 224.217C274.864 224.217 275.587 224.085 275.859 223.806C276.004 223.656 275.999 223.494 275.997 223.373C275.997 223.352 275.997 223.332 275.997 223.317L276.009 223.061C276.421 222.384 276.436 221.525 276.444 220.932L276.929 196.69C276.941 196.683 276.954 196.672 276.964 196.665L276.929 196.614L276.931 196.437C276.999 196.373 277.067 196.312 277.122 196.254L276.939 196.072L277.486 168.631C277.504 167.471 276.582 166.51 275.432 166.49L248.558 166.059C247.408 166.044 246.016 166.959 245.996 168.127L245.634 199.491L245.584 199.493C245.582 199.679 245.579 199.924 245.627 200.178L245.446 215.913L245.232 222.82C245.235 223.005 245.474 223.167 245.951 223.299ZM275.756 223.699C275.587 223.869 275.175 223.981 274.527 224.032C275.15 223.907 275.57 223.634 275.851 223.286V223.312C275.851 223.332 275.851 223.355 275.851 223.378C275.856 223.484 275.859 223.596 275.756 223.699ZM276.233 220.929C276.225 221.38 276.213 221.951 276.042 222.473L276.313 216.924L276.233 220.929ZM276.677 198.639H276.645C276.635 199.286 276.612 200.373 273.867 200.325L268.08 200.087C268.494 200.051 268.911 199.993 269.325 199.917C270.981 199.793 272.455 199.255 273.975 198.51C274.304 198.363 274.62 198.198 274.932 198.018C275.19 197.881 275.449 197.739 275.715 197.595L275.69 197.549C276.029 197.326 276.366 197.091 276.71 196.847L276.677 198.639ZM262.056 197.978C260.434 197.113 258.977 195.95 257.764 194.518C255.282 191.588 254.114 187.9 254.473 184.131C254.843 180.278 256.535 176.801 259.243 174.34C262.031 171.805 265.653 170.611 269.451 170.984C272.038 171.235 274.294 172.7 276.379 174.322C275.891 174.023 275.409 173.772 274.919 173.569C273.39 172.484 271.85 171.949 269.798 171.749C262.687 171.057 256.297 176.753 255.558 184.448C255.016 190.151 257.724 195.372 262.056 197.978ZM269.474 170.738C265.611 170.36 261.918 171.574 259.08 174.157C256.327 176.659 254.606 180.195 254.232 184.108C253.865 187.943 255.053 191.697 257.58 194.678C259.454 196.89 261.898 198.48 264.643 199.311C258.128 198.008 253.237 191.943 253.351 184.754C253.476 176.707 259.823 170.266 267.502 170.385C270.943 170.441 273.578 171.45 275.874 173.63C273.94 172.19 271.852 170.968 269.474 170.738ZM255.787 184.471C256.51 176.9 262.79 171.295 269.778 171.977C271.425 172.137 272.734 172.52 273.98 173.237C273.764 173.174 273.543 173.12 273.317 173.072C272.576 172.847 271.779 172.7 270.888 172.611C263.777 171.916 257.415 177.33 256.711 184.678C256.37 188.237 257.392 191.715 259.587 194.467C261.783 197.222 264.89 198.926 268.336 199.26C268.735 199.298 269.117 199.319 269.489 199.324C269.127 199.397 268.763 199.455 268.401 199.496C267.999 199.496 267.585 199.476 267.15 199.433C260.157 198.756 255.061 192.042 255.787 184.471ZM264.945 199.955L253.443 199.481L252.451 199.26C250.917 199.235 250.181 198.616 250.201 197.364L250.402 170.672C250.419 169.519 251.208 168.555 252.258 168.274L253.742 168.292L254.28 168.36C253.067 168.604 252.145 169.63 252.125 170.875L251.725 196.307C251.7 197.856 252.494 198.657 254.388 198.994L264.945 199.955ZM270.722 172.824C263.885 172.852 258.274 178.623 258.158 185.809C258.053 192.597 262.888 198.279 269.182 199.098C268.914 199.088 268.64 199.07 268.356 199.042C264.97 198.713 261.916 197.04 259.758 194.33C257.6 191.621 256.596 188.202 256.93 184.701C257.618 177.523 263.787 172.228 270.722 172.824ZM276.733 195.877C276.012 196.609 274.326 197.681 272.302 198.48C271.767 198.596 271.194 198.657 270.561 198.644C263.915 198.538 258.598 192.784 258.708 185.816C258.816 178.915 264.211 173.374 270.772 173.374C270.835 173.374 270.898 173.374 270.961 173.376C273.397 173.414 275.035 173.964 277.004 175.407C277.029 175.427 277.054 175.447 277.079 175.467L277.145 175.391L276.733 195.877ZM277.145 175.234C277.14 175.232 277.137 175.229 277.132 175.224L277.145 175.206V175.234ZM277.157 174.623C277.107 174.583 277.054 174.542 277.004 174.499L277.162 174.357L277.157 174.623ZM277.165 174.177C274.55 171.24 271.566 169.896 267.509 169.83C259.524 169.704 252.934 176.393 252.8 184.744C252.69 191.834 257.271 197.871 263.538 199.615L254.408 198.786C252.622 198.469 251.904 197.752 251.926 196.31L252.326 170.877C252.346 169.567 253.464 168.515 254.837 168.515C254.85 168.515 254.865 168.515 254.88 168.515L256.545 168.325L274.404 168.533C275.093 168.576 277.331 168.893 277.192 171.11L277.225 171.113L277.165 174.177ZM246.217 168.132C246.232 167.123 247.493 166.279 248.53 166.279C248.54 166.279 248.55 166.279 248.561 166.279L275.434 166.71C276.466 166.725 277.293 167.587 277.278 168.629L277.25 170.018C276.971 169.263 276.245 168.436 274.417 168.32L253.757 168.079L252.946 167.975C252.7 167.97 252.461 168.003 252.235 168.061L248.528 168.018C247.867 167.929 247.325 168.059 246.913 168.401C246.546 168.705 246.333 169.143 246.202 169.574L246.217 168.132ZM246.184 170.941L246.207 170.943L246.21 170.887C246.237 170.421 246.312 169.179 247.046 168.568C247.41 168.264 247.897 168.152 248.51 168.234L251.68 168.272C250.811 168.718 250.203 169.623 250.188 170.674L249.987 197.367C249.977 198.092 250.203 198.637 250.66 198.989C250.934 199.199 251.283 199.339 251.71 199.412L247.88 199.255C246.973 199.24 246.011 198.938 246.019 198.406L245.865 198.404L246.184 170.941ZM245.865 198.675C246.099 199.199 247.013 199.453 247.875 199.468L253.433 199.699L253.682 199.755L253.692 199.709L273.862 200.543C273.917 200.543 273.97 200.543 274.022 200.543C275.693 200.543 276.376 200.107 276.66 199.613L276.645 200.421H276.572C276.567 200.715 276.517 201.146 276.127 201.498C275.66 201.919 274.816 202.122 273.636 202.107L247.945 201.25C247.119 201.293 246.528 201.149 246.187 200.817C245.996 200.629 245.898 200.403 245.85 200.173L245.865 198.675ZM245.84 200.723C245.893 200.809 245.956 200.893 246.034 200.971C246.42 201.346 247.064 201.516 247.943 201.465L273.626 202.322C273.676 202.322 273.729 202.322 273.776 202.322C274.942 202.322 275.778 202.099 276.263 201.658C276.419 201.516 276.537 201.354 276.622 201.169L276.461 209.232C276.308 208.925 276.06 208.666 275.718 208.474C275.095 208.121 274.349 208.061 273.962 208.053L247.757 206.968C247.747 206.968 247.734 206.968 247.724 206.968C246.79 206.968 245.983 207.617 245.752 208.03L245.84 200.723ZM245.707 212.405L245.835 208.233C245.838 208.002 246.672 207.115 247.729 207.115C247.739 207.115 247.749 207.115 247.759 207.115L273.965 208.2C274.341 208.205 275.06 208.266 275.653 208.601C276.092 208.849 276.363 209.196 276.459 209.632L276.416 211.817L275.876 222.858C275.555 223.441 274.937 223.885 273.736 223.885C273.711 223.885 273.683 223.885 273.658 223.885L259.484 223.051L259.866 207.625L259.658 207.62L259.391 218.336L246.127 221.484L246.174 221.687L259.386 218.552L259.356 219.766L247.681 222.359H247.676C247.169 222.351 246.649 222.138 246.247 221.776C245.83 221.401 245.607 220.924 245.614 220.435L245.707 212.405ZM259.349 219.986L259.273 223.043L248.445 222.407L259.349 219.986ZM245.446 220.866C245.539 221.261 245.762 221.631 246.104 221.94C246.544 222.338 247.116 222.572 247.669 222.579L272.616 224.044L247.285 223.337C246.858 223.329 246.375 223.261 245.988 223.155C245.509 223.02 245.383 222.883 245.386 222.825L245.446 220.866Z" fill="#E9EEF1"/>
<path d="M266.097 179.849C266.926 178.739 267.955 177.766 269.231 177.137L269.314 177.091L269.289 177.018C269.257 176.924 269.241 176.876 264.554 177.935L264.517 177.943L264.499 177.976C264.464 178.037 261.03 184.14 262.726 188.13L262.849 188.421L262.889 188.107C262.897 188.056 263.306 185.005 264.776 182.029C264.698 182.237 264.62 182.455 264.547 182.683C264.087 184.105 263.68 186.135 264.361 187.734L264.484 188.026L264.524 187.712C264.532 187.648 265.381 181.307 269.354 179.35L269.435 179.307L269.41 179.233C269.377 179.139 269.367 179.109 266.097 179.849ZM262.769 187.767C261.445 184.011 264.366 178.572 264.63 178.098C265.984 177.791 267.865 177.375 268.732 177.208C267.564 177.877 266.617 178.835 265.846 179.907C265.82 179.912 265.798 179.918 265.773 179.923L265.735 179.93L265.717 179.963C265.715 179.968 265.599 180.171 265.431 180.516C263.623 183.352 262.942 186.728 262.769 187.767ZM264.404 187.367C263.628 185.02 264.969 181.849 265.582 180.594C265.697 180.414 265.818 180.237 265.941 180.062C266.906 179.844 268.171 179.565 268.85 179.428C265.655 181.352 264.627 186.087 264.404 187.367Z" fill="#E9EEF1"/>
<path d="M232.76 95.3327L232.547 95.3398L233.331 119.101L233.545 119.094L232.76 95.3327Z" fill="#E9EEF1"/>
<path d="M236.565 94.1934L236.352 94.1992L237.082 121.289L237.295 121.283L236.565 94.1934Z" fill="#E9EEF1"/>
<path d="M240.588 94.896L240.375 94.9023L241.128 120.662L241.342 120.656L240.588 94.896Z" fill="#E9EEF1"/>
<path d="M244.268 95.9694L244.055 95.9766L244.839 119.737L245.053 119.73L244.268 95.9694Z" fill="#E9EEF1"/>
<path d="M259.769 203.01L259.732 205.326L262.028 205.363L262.064 203.047L259.769 203.01Z" fill="#E9EEF1"/>
<path d="M228.985 94.0684L228.771 94.0742L229.502 121.164L229.715 121.158L228.985 94.0684Z" fill="#E9EEF1"/>
<path d="M225.604 96.487L225.391 96.4941L226.175 120.255L226.389 120.248L225.604 96.487Z" fill="#E9EEF1"/>
</g>
</g>
<defs>
<filter id="filter0_f_6259_105242" x="-78" y="-7" width="670" height="670" filterUnits="userSpaceOnUse" color-interpolation-filters="sRGB">
<feFlood flood-opacity="0" result="BackgroundImageFix"/>
<feBlend mode="normal" in="SourceGraphic" in2="BackgroundImageFix" result="shape"/>
<feGaussianBlur stdDeviation="100" result="effect1_foregroundBlur_6259_105242"/>
</filter>
<filter id="filter1_f_6259_105242" x="-327" y="-311" width="670" height="670" filterUnits="userSpaceOnUse" color-interpolation-filters="sRGB">
<feFlood flood-opacity="0" result="BackgroundImageFix"/>
<feBlend mode="normal" in="SourceGraphic" in2="BackgroundImageFix" result="shape"/>
<feGaussianBlur stdDeviation="100" result="effect1_foregroundBlur_6259_105242"/>
</filter>
<linearGradient id="paint0_linear_6259_105242" x1="162.5" y1="1" x2="162.5" y2="400" gradientUnits="userSpaceOnUse">
<stop stop-color="#E9EEF1"/>
<stop offset="1" stop-color="#1E1E1E"/>
</linearGradient>
<clipPath id="clip0_6259_105242">
<rect width="285" height="324" fill="white" transform="translate(40 40)"/>
</clipPath>
<clipPath id="clip1_6259_105242">
<rect width="219" height="215" fill="white" transform="translate(126 82)"/>
</clipPath>
</defs>
</svg>
