<svg width="502" height="512" viewBox="0 0 502 512" fill="none" xmlns="http://www.w3.org/2000/svg">
<g opacity="0.8" clip-path="url(#clip0_3830_31525)">
<path d="M501.379 400.083C496.284 397.184 490.844 394.087 485.146 390.844L485.165 390.816L484.845 390.628L484.826 390.661C430.78 359.875 353.34 315.601 317.377 294.554L321.757 287.249L323.418 229.519L323.126 229.298C320.096 227.02 316.934 223.899 317.052 222.882C321.075 188.134 316.751 160.14 312.417 142.773C307.872 124.554 302.348 113.875 301.938 113.093C301.496 111.912 292.88 89.33 273.236 64.7007C261.439 49.9128 248.034 37.2804 233.381 27.1614C215.063 14.5008 194.746 5.75609 172.988 1.15781C170.781 0.69186 168.457 0.371816 166.019 0.202381V0C165.737 0 165.267 0.0376522 164.645 0.117663C163.257 0.0517718 161.832 0.0282392 160.373 0.0564784V0.00941306C160.274 0.00941306 160.053 0.0329457 159.724 0.0753045C150.586 0.320044 140.098 2.32503 128.358 6.10908C113.352 10.9427 96.6767 18.5061 78.801 28.5781C48.4044 45.7145 19.9794 67.454 13.4813 76.2458C5.741 86.7178 2.48489 103.327 1.11093 115.414C-0.517124 129.754 -0.150106 143.497 0.880366 150.195C3.13423 164.842 6.48915 174.942 9.19002 183.061C10.7287 187.692 12.0509 191.678 12.7661 195.401L12.6532 195.429C12.6579 195.453 12.7802 195.975 13.0296 196.912C13.2319 198.267 13.3448 199.59 13.3448 200.908C13.3354 201.016 13.2131 201.402 13.1096 201.741C12.5543 203.482 11.4015 207.106 11.7215 213.046C12.112 220.332 14.5824 228.704 19.0666 237.939C27.4703 255.24 43.8261 267.26 43.9861 267.378L44.0614 267.435L57.4434 272.602L80.8761 292.76L80.9467 292.812C81.0408 292.873 90.3762 299.091 103.476 306.489C135.726 324.708 190.421 355.569 194.416 357.569C199.456 360.087 217.708 366.168 224.192 366.168C224.559 366.168 224.893 366.149 225.18 366.107C229.669 365.467 245.399 362.765 249.078 361.24L428.964 467.42C428.249 473.369 435.057 506.832 435.867 510.781L436.121 512.014L495.168 456.995L495.361 456.816L501.728 400.935L502.015 400.446L501.379 400.083ZM232.558 28.2957C247.093 38.3347 260.395 50.8635 272.106 65.5337C292.057 90.5348 300.55 113.39 300.635 113.62L300.677 113.715C300.734 113.818 306.408 124.483 311.067 143.168C318.854 174.41 317.857 203.67 315.654 222.718C315.617 223.047 315.692 223.41 315.847 223.796L315.254 222.92L212.546 292.417C211.403 290.897 207.798 286.788 199.978 282.877C197.479 281.629 189.89 279.902 187.692 279.417C187.772 277.958 187.89 276.32 188.022 274.461C189.273 257.057 191.602 224.69 172.852 186.656C174.023 186.059 179.383 186.247 188.807 187.216C190.308 187.372 191.038 187.447 191.315 187.447H191.744L191.941 187.066C192.115 186.727 192.134 186.694 190.045 181.329C188.916 178.434 187.081 173.873 184.747 168.583C180.667 159.34 174.334 146.232 167.299 136.268C159.465 125.165 172.541 111.182 173.308 110.378C175.233 108.923 235.108 63.9523 260.395 62.5498C261.971 62.4604 262.526 61.7215 262.714 61.119C264.493 55.4476 237.757 34.16 232.384 29.9524C226.949 25.6977 221.35 21.7489 216.865 18.7038C222.244 21.5983 227.481 24.7893 232.558 28.2957ZM164.396 133.816C159.07 126.963 151.414 117.969 141.448 108.744C130.489 98.6018 109.965 81.2959 87.153 70.4991C103.297 54.6664 121.112 42.8812 137.044 34.353C143.288 37.7134 149.974 41.7328 157.07 46.4017C181.853 62.7145 203.954 81.936 207.516 85.0658C189.127 96.6721 173.68 108.326 172.423 109.281L172.348 109.347C172.207 109.493 159.893 122.21 164.396 133.816ZM137.044 33.9341C136.225 33.4964 135.411 33.0634 134.611 32.6492C135.755 32.0421 136.884 31.4537 138.004 30.8796C138.808 31.2937 139.618 31.722 140.441 32.1597C139.317 32.7339 138.187 33.3269 137.044 33.9341ZM140.836 32.3715C147.142 35.7555 153.894 39.8078 161.065 44.5285C185.029 60.3001 206.485 78.792 211.097 82.8302C210 83.508 208.913 84.1857 207.836 84.8635C204.547 81.9642 182.276 62.5545 157.272 46.0958C150.252 41.474 143.631 37.4875 137.434 34.1412C138.583 33.534 139.712 32.9457 140.836 32.3715ZM134.207 32.4468C127.68 29.0817 121.657 26.4695 116.19 24.6434C112.002 23.2456 108.134 22.309 104.591 21.8336C105.65 21.2829 106.694 20.7417 107.73 20.2193C111.466 20.657 115.578 21.6218 120.067 23.1185C125.393 24.8975 131.256 27.4297 137.594 30.6772C136.479 31.2467 135.35 31.835 134.207 32.4468ZM103.956 21.7442C102.944 21.6218 101.965 21.5418 101.01 21.4947C102.017 20.9676 103.015 20.4546 103.998 19.951C104.986 19.9698 106.007 20.031 107.057 20.1392C106.036 20.6617 105 21.1982 103.956 21.7442ZM103.368 22.0548C86.7766 30.8372 67.7623 43.3848 50.3195 60.8366C49.2843 60.8272 48.2586 60.846 47.2469 60.8931C64.6379 43.2436 83.7181 30.6254 100.347 21.843C101.33 21.8713 102.332 21.9418 103.368 22.0548ZM104.022 22.1254C107.678 22.5772 111.696 23.5327 116.072 24.9917C121.46 26.7896 127.388 29.3593 133.811 32.6539C117.823 41.2057 99.9281 53.0332 83.7181 68.9413C81.6431 68.0282 79.5539 67.1716 77.4506 66.3856C67.8893 62.8181 59.015 60.9778 50.8371 60.8413C68.3551 43.3848 87.4306 30.8654 104.022 22.1254ZM134.211 32.861C135.016 33.2799 135.835 33.7082 136.653 34.1459C120.716 42.6977 102.921 54.4969 86.7954 70.3344C85.8967 69.9108 84.9933 69.5014 84.0851 69.1013C100.314 53.2026 118.222 41.3892 134.211 32.861ZM200.373 10.9474C202.646 11.8652 204.9 12.8347 207.13 13.8513L207.06 13.9643C207.187 14.0443 219.759 21.8477 231.523 31.0537C251.939 47.0371 262.145 58.248 261.378 60.686C261.298 60.9496 260.941 61.1002 260.324 61.1331C248.227 61.8062 228.892 71.8687 211.431 82.6279C207.008 78.7497 185.415 60.1071 161.276 44.2226C154.181 39.5537 147.494 35.5296 141.241 32.1644C148.181 28.6157 154.684 25.6977 160.434 23.3397C182.051 14.482 198.877 11.1074 200.378 11.1074V10.9474H200.373ZM197.225 9.72369C198.138 10.072 199.051 10.4203 199.959 10.7827C197.169 11.1545 181.735 14.209 160.288 23.0008C154.468 25.387 147.876 28.3474 140.836 31.9573C140.018 31.5196 139.208 31.0913 138.404 30.6772C145.226 27.2038 151.616 24.3375 157.282 22.0172C178.898 13.1595 195.724 9.78488 197.225 9.78488V9.72369ZM172.701 2.52741C180.884 4.2547 188.864 6.57973 196.604 9.48366C193.315 9.96843 178.103 13.0795 157.145 21.6689C151.409 24.0174 144.925 26.9308 138.004 30.4654C131.557 27.152 125.6 24.5728 120.189 22.7655C115.893 21.33 111.936 20.384 108.322 19.918C114.138 17 119.592 14.562 124.481 12.5523C139.001 6.57502 151.226 3.20515 158.651 1.5861C164.693 1.30842 169.323 1.81201 172.701 2.52741ZM156.392 1.72259C148.84 3.49695 137.529 6.77741 124.339 12.2087C119.305 14.2796 113.677 16.807 107.664 19.838C106.647 19.7204 105.654 19.6451 104.695 19.6074C110.477 16.7035 115.898 14.2796 120.768 12.2746C133.129 7.19158 143.655 4.08527 150.755 2.32973C152.746 2.05205 154.623 1.85437 156.392 1.72259ZM146.812 2.94629C140.018 4.79125 131.035 7.64811 120.632 11.9263C115.583 14.0019 109.936 16.5387 103.918 19.5792C101.82 19.5415 99.8575 19.6968 98.0412 20.0451C118.566 10.0532 134.588 5.10659 146.812 2.94629ZM96.5967 20.7558C98.6059 20.224 100.808 19.9557 103.198 19.9463C102.229 20.4405 101.255 20.9441 100.267 21.4665C98.1635 21.41 96.1967 21.5418 94.371 21.8665C95.1192 21.49 95.8626 21.1229 96.5967 20.7558ZM79.5021 29.8065C82.7206 27.9944 85.8449 26.2907 88.8799 24.6905L88.9834 24.8034C89.1434 24.6575 89.3034 24.521 89.4681 24.3845C90.7009 23.7397 91.9195 23.1091 93.1194 22.4972C95.0957 22.0266 97.2554 21.8007 99.594 21.8195C82.9841 30.6536 63.9933 43.2954 46.7011 60.9213C37.7892 61.4296 29.7759 64.0983 22.7038 68.9319C34.039 58.9399 54.8978 43.6766 79.5021 29.8065ZM2.27786 149.978C2.09905 148.806 1.93907 147.413 1.80732 145.841H1.94848C1.94848 144.843 1.93907 143.846 1.93437 142.848C1.90143 138.268 1.8732 133.623 2.38608 128.79L2.48489 128.794C2.49901 128.324 2.52253 127.872 2.55077 127.42C3.13423 122.864 4.24469 118.134 6.33387 113.136C9.8723 106.838 14.7753 104.706 16.2716 104.179C17.495 105.728 22.0733 111.507 23.1743 112.886C17.8149 116.322 13.2743 121.188 9.80642 127.335C4.24469 137.181 4.69641 155.937 6.31976 169.016C4.84227 163.608 3.41655 157.377 2.27786 149.978ZM13.1472 190.897H13.1425C12.4273 188.327 11.5239 185.602 10.531 182.613C10.1123 181.357 9.67938 180.048 9.23707 178.688L9.36412 178.66C6.65854 166.823 4.37174 139.822 11.0298 128.027C17.9279 115.809 29.1878 108.824 42.7298 108.363C68.5904 107.488 98.2765 129.576 124.227 168.988C147.127 203.765 157.54 241.727 151.414 268.056C148.53 280.453 142.234 289.574 132.701 295.17C122.448 301.19 104.361 298.709 88.7199 289.132C62.1723 272.875 43.1768 247.502 31.9216 229.081C19.3254 208.466 13.2931 191.683 13.1378 190.822C13.1472 190.855 13.1472 190.878 13.1472 190.897ZM130.706 176.697C132.983 177.144 138.62 178.462 142.3 179.347L142.93 179.498C144.662 180.66 150.595 185.88 156.444 197.655C162.015 208.862 168.452 228.351 167.483 257.551C166.424 289.4 146.855 300.183 144.916 300.328C143.834 300.079 138.498 297.608 134.517 295.702C143.773 289.856 149.922 280.679 152.783 268.376C158.51 243.817 150.078 209.375 130.706 176.697ZM44.739 266.178C43.5532 265.293 28.289 253.71 20.3276 237.313C17.7773 232.065 10.0229 216.086 14.4506 202.16C14.4694 202.103 14.4788 202.061 14.4977 202.014C16.0928 207.186 18.7842 214.98 22.845 223.857C28.929 237.148 39.2902 255.405 55.0954 270.174L44.739 266.178ZM102.577 303.872L102.431 304.263C90.6962 297.561 82.3724 292.054 81.7607 291.65L60.9301 273.732L61.0807 273.548C42.6027 258.327 30.797 237.821 24.1483 223.297C20.0029 214.241 17.2926 206.33 15.7305 201.209C18.8219 208.255 23.706 218.265 30.3876 229.265C41.7699 248.006 61.0054 273.812 87.9906 290.332C98.1306 296.54 109.311 299.82 118.862 299.82C124.292 299.82 129.195 298.756 133.087 296.573C135.049 297.519 143.184 301.42 144.681 301.717C144.737 301.731 144.803 301.736 144.874 301.736C145.998 301.736 148.647 300.291 151.24 298.234C154.284 295.82 158.684 291.471 162.349 284.458C166.354 276.801 168.556 267.759 168.89 257.593C169.84 228.916 163.676 209.535 158.34 198.324C152.487 186.03 145.702 179.38 143.335 178.086C143.133 177.973 142.69 177.733 142.276 177.883C139.693 177.267 130.748 175.139 129.769 175.125C128.367 172.805 126.913 170.499 125.403 168.202C99.6834 129.143 70.1949 106.918 44.2167 106.918C43.7038 106.918 43.1909 106.928 42.678 106.947C35.5071 107.191 28.9572 109.201 23.3061 112.787L24.2801 112.011C23.0238 110.443 17.0668 102.913 17.0668 102.913L16.7798 102.551L16.3327 102.668C16.1869 102.706 12.8508 103.633 9.30766 107.027C17.3679 92.6669 30.5523 84.4352 46.447 83.8516C77.2812 82.722 112.896 109.286 144.182 156.746C171.793 198.639 184.399 244.175 177.072 275.591C173.675 290.167 166.274 300.879 155.079 307.435C143.885 314.001 126.217 312.801 102.577 303.872ZM224.973 364.7C220.315 365.368 200.609 359.08 195.042 356.294C191.212 354.378 140.055 325.523 107.518 307.144C118.994 311.045 128.988 313.003 137.444 313.003C144.718 313.003 150.854 311.554 155.804 308.654C167.346 301.896 174.969 290.878 178.456 275.911C185.862 244.132 173.186 198.173 145.368 155.97C113.809 108.095 77.7423 81.3006 46.4 82.4443C29.9547 83.0467 16.3233 91.5703 8.01839 106.443C6.795 108.631 5.77393 110.764 4.91285 112.849C3.50125 115.465 2.579 118.242 1.99083 120.944C2.1367 119.174 2.30609 117.376 2.51312 115.574C3.86356 103.657 7.0632 87.3109 14.6153 77.0883C15.6693 75.6622 17.4809 73.7372 19.9418 71.431C27.6538 65.2608 36.594 61.8815 46.6964 61.2979L46.7717 61.3732C46.7999 61.3449 46.8281 61.3167 46.8564 61.2884C47.9339 61.2273 49.0255 61.199 50.1266 61.2037L50.3007 61.3732C50.3572 61.3167 50.4136 61.2649 50.4701 61.2084C58.7045 61.2932 67.6635 63.124 77.3235 66.7339C79.3704 67.4964 81.4078 68.3341 83.4311 69.219C83.3558 69.2943 83.2805 69.3649 83.2099 69.4355L83.4687 69.699C83.577 69.5908 83.6899 69.4872 83.7981 69.379C84.7062 69.779 85.6097 70.1885 86.5131 70.6121C86.4613 70.6639 86.4096 70.7109 86.3578 70.7627L86.6166 71.0263C86.7013 70.9415 86.786 70.8615 86.8707 70.7768C109.687 81.5454 130.235 98.8701 141.199 109.017C151.753 118.783 159.714 128.295 165.055 135.27C165.37 135.878 165.737 136.48 166.156 137.078C178.235 154.191 188.309 180.566 190.294 185.946C189.909 185.908 189.452 185.861 188.963 185.809C177.035 184.581 172.489 184.609 171.576 185.922C171.337 186.27 171.313 186.703 171.511 187.108C190.181 224.869 187.866 257.061 186.624 274.358C186.469 276.485 186.337 278.321 186.262 279.944L186.234 280.542L186.817 280.669C186.916 280.688 196.642 282.783 199.352 284.143C208.575 288.755 211.741 293.716 211.77 293.768L212.155 294.394L315.993 224.125C317.09 226.295 320.463 229.034 321.988 230.201L320.355 286.835L316.567 293.151L313.292 291.32C313.885 288.011 312.864 274.57 310.827 272.089C310.436 271.614 310.031 271.515 309.759 271.515C307.895 271.515 271.928 293.791 267.834 296.328C256.165 303.567 229.448 320.275 226.747 323.183C226.667 323.254 226.601 323.339 226.554 323.438L227.801 324.101L227.805 324.096C227.711 324.256 227.485 324.407 227.217 324.407C226.902 324.398 226.714 324.181 226.671 324.078C226.714 324.181 226.766 324.435 226.817 324.76L226.718 324.769L229.306 349.243L229.344 349.596L247.483 360.304C242.806 361.744 229.495 364.055 224.973 364.7ZM311.984 290.577L295.276 281.225C303.148 276.513 308.592 273.384 309.735 272.951C311.024 274.17 312.525 286.176 311.984 290.577ZM384.385 385.903L384.428 385.931H393.208C402.125 391.823 445.96 420.759 446.906 420.759C447.809 420.759 479.819 422.835 481.636 422.952L484.793 426.633C477.373 438.912 470.893 449.257 469.698 450.17C467.83 450.824 449.461 458.275 438.191 462.859L438.248 462.793L434.507 459.677L424.484 442.447L424.461 442.405L366.726 410.08L361.734 402.587L361.682 402.535C360.435 401.731 239.277 323.522 233.593 319.837C238.115 316.783 245.074 312.283 253.755 306.8L253.732 306.838L384.385 385.903ZM422.579 462.007L429.223 455.936L428.973 455.663L422.245 461.814L416.843 458.623L426.404 449.582L426.15 449.314L416.514 458.43L411.804 455.649L420.523 447.464L420.268 447.196L411.469 455.456L407.112 452.881L418.292 442.433L417.328 441.402L405.847 452.133L401.405 449.511L409.239 441.576L408.976 441.317L401.075 449.318L395.758 446.179L406.651 435.227L406.388 434.968L395.429 445.986L390.535 443.096L398.412 435.698L398.158 435.429L390.206 442.899L386.837 440.908L398.299 430.196L397.335 429.165L385.571 440.16L381.958 438.027L389.947 430.285L389.688 430.022L381.623 437.834L376.019 434.526L387.355 423.931L387.1 423.663L375.685 434.333L370.476 431.259L379.351 422.755L379.097 422.486L370.147 431.062L366.58 428.958L377.591 418.669L376.626 417.639L365.315 428.214L361.649 426.049L370.646 418.293L370.406 418.011L361.315 425.847L356.506 423.009L367.362 412.636L367.107 412.367L356.177 422.811L351.744 420.194L360.769 412.17L360.525 411.892L351.41 419.997L347.787 417.86L359.009 407.369L358.045 406.338L346.517 417.112L342.705 414.862L351.354 406.988L351.105 406.715L342.371 414.664L331.958 408.517L341.477 399.693L341.228 399.42L331.629 408.32L328.401 406.414L339.718 395.833L338.753 394.803L327.131 405.665L323.893 403.754L330.655 397.575L330.406 397.302L323.559 403.557L318.158 400.37L327.832 391.221L327.578 390.953L317.828 400.178L313.118 397.396L321.955 389.103L321.701 388.835L312.789 397.203L308.432 394.629L319.725 384.072L318.76 383.041L307.161 393.88L302.724 391.259L310.667 383.215L310.403 382.956L302.395 391.066L297.078 387.926L308.079 376.861L307.815 376.603L296.748 387.733L291.85 384.844L299.84 377.341L299.586 377.073L291.516 384.651L288.001 382.575L299.487 371.839L298.522 370.809L286.731 381.827L283.263 379.779L291.365 371.924L291.107 371.661L282.929 379.586L277.325 376.278L288.773 365.575L288.519 365.307L276.99 376.08L271.786 373.007L280.774 364.394L280.52 364.125L271.457 372.809L267.622 370.545L279.428 360.309L278.506 359.24L266.342 369.787L262.95 367.787L272.064 359.927L271.824 359.645L262.658 367.547L262.766 367.674L257.811 364.747L268.78 354.265L268.526 353.997L257.482 364.549L253.045 361.932L262.187 353.799L261.943 353.522L252.711 361.735L249.582 359.89L261.317 349.714L260.395 348.646L248.302 359.127L244.015 356.595L252.781 348.617L252.532 348.344L243.681 356.402L233.268 350.255L242.9 341.322L242.651 341.049L232.991 350.006L233.155 350.185L230.685 348.726L230.483 346.815L230.535 346.871L241.813 336.277L240.849 335.246L230.309 345.149L229.749 339.877L234.44 334.964L234.172 334.71L229.697 339.397L229.137 334.103L232.092 330.723L231.814 330.478L229.085 333.599L228.667 329.631L228.77 329.594L228.652 329.514L228.558 328.615C228.699 328.709 228.789 328.836 228.812 328.921C228.756 328.728 228.638 327.753 228.544 326.972C228.347 325.325 228.229 324.374 228.078 323.809C228.761 323.188 230.549 321.898 233.264 320.058C236.807 322.364 358.859 401.147 361.456 402.823L366.477 410.358L424.193 442.673L434.206 459.885L437.895 462.972C433.9 464.596 430.841 465.843 429.811 466.262L422.579 462.007ZM494.006 456.124L436.991 509.251C433.933 494.214 429.707 471.067 430.333 467.575C434.018 466.074 468.23 452.142 470.197 451.483C470.748 451.3 471.769 450.961 486.901 425.852C492.18 417.093 497.37 408.306 499.954 403.919L494.006 456.124ZM484.991 426.299L481.815 422.59L481.735 422.585C480.351 422.496 447.875 420.392 446.929 420.392C445.743 420.086 411.375 397.495 393.363 385.592L393.316 385.559H384.531L254.061 306.602C258.442 303.835 263.256 300.827 268.413 297.627C271.194 295.9 273.923 294.215 276.581 292.582L274.219 296.088L274.525 296.295L277.339 292.111C279.517 290.774 281.639 289.47 283.691 288.223L275.137 302.051L276.336 302.795L286.349 286.604C288.307 285.413 290.184 284.279 291.968 283.206L282.679 299.397L282.999 299.58L292.622 282.815C292.951 282.618 293.28 282.42 293.605 282.227L297.068 284.063L285.088 305.134L285.408 305.317L297.435 284.166C298.278 284.736 299.694 285.625 301.623 286.802L291.638 304.009L291.958 304.193L301.938 286.995C302.978 287.626 304.15 288.336 305.453 289.117L290.65 315.262L291.878 315.959L306.667 289.842C307.844 290.544 309.109 291.297 310.46 292.092L299.746 310.928L300.066 311.111L310.784 292.276C312.031 293.014 313.353 293.791 314.737 294.605L302.061 316.811L302.381 316.994L315.052 294.789C316.412 295.589 317.838 296.422 319.32 297.293L308.733 315.493L309.053 315.676L319.64 297.476C320.854 298.187 322.115 298.921 323.404 299.674L308.267 325.292L309.481 326.012L324.618 300.385C325.677 301.001 326.754 301.632 327.86 302.272L316.92 321.508L317.24 321.691L328.18 302.461C329.474 303.214 330.796 303.981 332.147 304.767L319.23 327.4L319.55 327.584L332.467 304.955C333.864 305.769 335.295 306.598 336.748 307.44L325.903 326.087L326.223 326.271L337.073 307.624C338.042 308.184 339.021 308.753 340.014 309.327L325.004 335.251L326.227 335.957L341.237 310.033C342.136 310.551 343.04 311.078 343.957 311.605L333.177 330.224L333.497 330.408L344.277 311.789C345.698 312.608 347.138 313.441 348.597 314.283L335.831 336.324L336.151 336.508L348.917 314.467C350.385 315.314 351.871 316.171 353.372 317.037L342.842 335.213L343.162 335.397L353.692 317.22C354.723 317.813 355.763 318.416 356.807 319.018L341.209 345.295L342.423 346.015L358.031 319.724C359.052 320.312 360.082 320.905 361.113 321.498L350.46 340.452L350.78 340.63L361.433 321.682C362.962 322.562 364.505 323.452 366.058 324.346L353.415 346.74L353.735 346.923L366.373 324.529C368.02 325.48 369.686 326.436 371.356 327.396L360.727 345.817L361.047 346.001L371.676 327.579C372.98 328.328 374.283 329.081 375.596 329.834L359.353 356.411L360.558 357.146L376.819 330.535C378.057 331.246 379.294 331.956 380.541 332.672L369.441 351.272L369.757 351.46L380.861 332.855C382.4 333.74 383.943 334.625 385.491 335.51L372.236 357.63L372.552 357.819L385.811 335.693C387.472 336.644 389.133 337.599 390.799 338.555L379.567 356.896L379.882 357.089L391.119 338.738C392.394 339.468 393.669 340.197 394.944 340.932L378.88 366.752L380.08 367.495L396.168 341.633C397.542 342.419 398.92 343.21 400.294 343.996L389.312 362.619L389.632 362.808L400.614 344.179C402.327 345.163 404.044 346.142 405.753 347.121L392.625 369.279L392.945 369.467L406.072 347.304C407.922 348.363 409.771 349.422 411.611 350.477L400.44 368.889L400.755 369.081L411.931 350.665C413.055 351.31 414.175 351.95 415.295 352.59L399.301 379.172L400.511 379.902L416.509 353.31L415.798 352.882C417.544 353.879 419.285 354.877 421.017 355.866L410.124 374.588L410.444 374.772L421.337 356.049C422.918 356.953 424.494 357.852 426.056 358.751L413.069 380.975L413.389 381.163L426.376 358.934C428.084 359.908 429.778 360.878 431.463 361.843L420.485 380.222L420.8 380.41L431.783 362.022C432.926 362.676 434.065 363.325 435.194 363.97L420.024 390.303L421.247 391.009L436.422 364.671C437.852 365.486 439.269 366.3 440.676 367.1L429.769 385.488L430.089 385.677L440.996 367.284C442.859 368.347 444.703 369.402 446.524 370.437L433.429 392.416L433.745 392.605L446.844 370.621C448.863 371.774 450.849 372.903 452.797 374.019L441.617 392.308L441.932 392.501L453.117 374.202C454.481 374.983 455.832 375.751 457.158 376.508L441.405 402.695L442.614 403.425L458.387 377.21C459.516 377.854 460.631 378.49 461.727 379.116L451.117 397.627L451.437 397.81L462.047 379.299C463.831 380.316 465.572 381.309 467.27 382.279L454.589 404.3L454.909 404.484L467.59 382.462C469.524 383.568 471.402 384.637 473.213 385.667L462.476 403.863L462.795 404.051L473.538 385.851C474.978 386.674 476.38 387.47 477.74 388.246L463.506 413.779L464.739 414.467L478.963 388.943C480.751 389.96 482.454 390.934 484.073 391.852L473.284 410.151L473.604 410.339L484.398 392.035C486.233 393.08 487.95 394.059 489.545 394.967L476.606 416.815L476.926 417.003L489.87 395.151C491.95 396.337 493.804 397.391 495.413 398.304L484.421 416.42L484.737 416.613L495.733 398.488C497.483 399.486 498.928 400.305 500.029 400.935C495.521 408.696 490.044 417.931 484.991 426.299Z" fill="#E9EEF1"/>
<path d="M192.82 150.355C192.797 150.369 192.773 150.383 192.75 150.397L192.891 150.637C195.239 159.801 202.297 176.777 209.99 194.549C210.974 196.827 211.863 198.884 212.55 200.498C212.795 202.235 213.392 204.334 214.555 206.857C218.639 215.705 220.361 220.614 222.257 237.233C224.549 257.273 223.678 265.703 223.669 265.783L223.655 265.91L223.688 266.032C223.716 266.15 224.436 268.931 226.647 269.877C227.127 270.084 227.635 270.183 228.167 270.183C229.071 270.183 230.045 269.887 231.075 269.298C235.922 266.526 305.523 220.788 310.031 217.828C310.798 217.654 312.595 216.557 312.595 210.095C312.595 203.562 311.377 182.345 311.202 179.342C312.224 178.462 315.423 175.601 316.087 173.605C316.275 173.045 316.618 172.005 308.902 156.393C305.147 148.797 301.255 141.365 301.218 141.29L300.959 140.796L300.418 140.932C300.023 141.031 298.235 142.015 295.44 143.643C294.781 140.561 292.146 132.013 289.144 123.725C286.523 116.501 281.643 104.061 278.406 101.925C277.889 101.581 277.413 101.501 276.995 101.68C272.915 103.431 268.285 105.417 193.112 150.185C192.265 146.834 192.082 144.58 192.905 144.076C214.63 130.776 272.27 96.1026 278.025 95.4484C286.034 94.526 299.336 140.504 299.472 140.965L299.825 140.862C299.279 138.974 286.546 95.0625 278.246 95.0625C278.157 95.0625 278.072 95.0672 277.983 95.0766C271.08 95.8673 193.493 143.281 192.712 143.756C191.776 144.33 191.903 146.688 192.82 150.355ZM300.267 142.523C306.05 153.598 314.826 171.191 314.731 173.196C314.172 174.782 311.146 177.549 310.021 178.49L309.749 178.716L309.767 179.074C309.767 179.084 309.772 179.145 309.777 179.248C302.446 183.851 230.412 229.015 226.454 229.679L226.516 230.041C230.562 229.368 301.124 185.117 309.8 179.672C309.871 180.891 310.04 183.856 310.238 187.522C304.841 191.739 234.209 235.247 230.407 236.682L230.539 237.026C234.303 235.604 303.443 193.029 310.266 187.965C310.393 190.323 310.53 192.94 310.657 195.556C304.883 199.995 234.665 243.243 230.873 244.678L231.004 245.022C234.759 243.601 303.585 201.228 310.68 195.999C310.953 201.67 311.184 207.262 311.184 210.085C311.184 215.616 309.861 216.373 309.716 216.439H309.565L309.386 216.557C308.647 217.042 235.244 265.288 230.379 268.07C229.146 268.776 228.078 268.945 227.212 268.578C225.847 267.999 225.231 266.248 225.095 265.797C225.207 264.592 225.847 256.129 223.669 237.073C221.749 220.252 219.999 215.263 215.844 206.264C212.145 198.248 214.625 195.01 214.945 194.639C237.168 180.82 293.877 145.738 300.267 142.523ZM277.136 102.014C277.437 101.887 277.785 101.953 278.199 102.226C280.533 103.765 284.297 111.446 288.796 123.848C292.005 132.701 294.522 141.064 295.105 143.836C277.347 154.205 221.42 188.948 214.117 193.49L214.009 193.575C213.9 193.674 212.211 195.33 212.428 199.275C211.887 198.013 211.2 196.422 210.329 194.408C205.238 182.642 196.015 161.321 193.206 150.557C268.445 105.742 273.066 103.76 277.136 102.014Z" fill="#E9EEF1"/>
<path d="M311.057 205.586L310.821 205.299C306.436 208.914 234.698 253.113 230.863 254.557L230.995 254.901C234.83 253.456 306.667 209.205 311.057 205.586Z" fill="#E9EEF1"/>
<path d="M449.253 446.019C453.774 446.019 458.16 444.494 460.155 442.226C461.002 441.266 461.378 440.202 461.246 439.152C461.223 438.978 461.232 438.686 461.242 438.38C461.256 437.957 461.27 437.477 461.218 437.067L461.185 437.072C461.195 436.959 461.199 436.851 461.199 436.738C461.199 433.001 455.911 429.965 449.408 429.965C442.905 429.965 437.616 433.006 437.616 436.738C437.616 436.804 437.621 436.87 437.626 436.936H437.616C437.607 437.058 437.593 437.241 437.574 437.458C437.527 437.966 437.461 438.663 437.461 439.251C437.466 442.979 442.754 446.019 449.253 446.019ZM449.413 430.328C455.708 430.328 460.832 433.199 460.832 436.733C460.832 440.268 455.708 443.139 449.413 443.139C443.117 443.139 437.993 440.268 437.993 436.733C437.993 433.199 443.112 430.328 449.413 430.328ZM437.884 438.159C439.028 441.214 443.761 443.506 449.413 443.506C454.97 443.506 459.642 441.284 460.879 438.305C460.879 438.324 460.879 438.347 460.879 438.366C460.87 438.705 460.861 438.997 460.889 439.199C461.011 440.155 460.672 441.091 459.887 441.981C457.953 444.174 453.685 445.647 449.257 445.647C442.961 445.647 437.837 442.776 437.837 439.242C437.833 438.903 437.856 438.522 437.884 438.159Z" fill="#E9EEF1"/>
<path d="M412.551 423.898C419.247 423.898 424.489 421.037 424.489 417.38C424.489 416.015 424.498 415.13 424.517 414.74H424.494C424.494 414.697 424.498 414.655 424.498 414.612C424.498 410.876 419.209 407.84 412.707 407.84C406.51 407.84 401.419 410.598 400.953 414.09C400.84 414.424 400.76 416.523 400.76 417.121C400.764 420.858 406.053 423.898 412.551 423.898ZM412.711 408.207C419.007 408.207 424.131 411.078 424.131 414.612C424.131 418.147 419.007 421.018 412.711 421.018C406.416 421.018 401.291 418.147 401.291 414.612C401.291 411.078 406.411 408.207 412.711 408.207ZM401.164 415.987C402.275 419.065 407.027 421.385 412.711 421.385C418.193 421.385 422.809 419.225 424.127 416.312C424.127 416.627 424.122 416.98 424.122 417.375C424.122 420.825 419.04 423.527 412.551 423.527C406.256 423.527 401.131 420.656 401.131 417.121C401.131 416.82 401.146 416.406 401.164 415.987Z" fill="#E9EEF1"/>
<path d="M361.62 399.01C362.603 399.599 365.168 399.839 366.847 399.839C367.506 399.839 368.024 399.801 368.264 399.735C370.358 401.618 374.032 402.874 378.206 402.874C384.911 402.874 389.969 400.145 389.969 396.521C389.969 396.342 390.007 395.932 390.045 395.504C390.101 394.873 390.162 394.224 390.144 393.922H390.139C390.148 393.814 390.153 393.701 390.153 393.588C390.153 390.36 386.2 387.653 380.93 386.98L380.968 386.924L340.864 362.384L340.766 362.464C340.173 362.925 326.179 373.76 324.984 374.95L324.918 375.016L324.927 375.106C325.003 375.718 355.954 395.612 361.62 399.01ZM389.598 396.521C389.598 399.933 384.699 402.503 378.206 402.503C371.91 402.503 366.786 399.632 366.786 396.097C366.786 395.645 366.791 395.311 366.81 394.944C367.906 398.031 372.668 400.361 378.361 400.361C383.711 400.361 388.233 398.304 389.673 395.494C389.631 395.946 389.598 396.332 389.598 396.521ZM389.781 393.593C389.781 397.123 384.657 399.999 378.361 399.999C372.066 399.999 366.941 397.128 366.941 393.593C366.941 390.058 372.066 387.187 378.361 387.187C384.657 387.187 389.781 390.058 389.781 393.593ZM340.888 362.831L380.225 386.905C379.618 386.849 378.997 386.82 378.361 386.82C371.859 386.82 366.57 389.861 366.57 393.593C366.57 393.654 366.574 393.715 366.579 393.772L366.542 393.767C366.424 394.821 366.414 395.245 366.414 396.102C366.414 397.306 366.97 398.441 367.934 399.424C366.909 399.504 363.135 399.49 361.808 398.695C353.771 393.871 327.459 376.73 325.379 375.082C327.167 373.463 339.632 363.805 340.888 362.831Z" fill="#E9EEF1"/>
<path d="M475.01 462.633L455.29 472.498L455.182 472.555L455.191 472.677C455.233 473.336 455.492 476.649 456.273 477.172C456.358 477.228 456.447 477.256 456.537 477.256C456.584 477.256 456.636 477.247 456.683 477.233C457.619 476.922 475.09 469.392 475.833 469.072L475.89 469.048L485.959 451.738L487.07 445.878L484.712 449.022L475.01 462.633ZM486.416 447.365L485.625 451.573L475.636 468.752C474.521 469.232 457.468 476.579 456.57 476.88C456.541 476.889 456.518 476.889 456.48 476.861C456.005 476.541 455.676 474.235 455.567 472.771L475.222 462.944L475.264 462.925L485.014 449.238L486.416 447.365Z" fill="#E9EEF1"/>
<path d="M347.833 400.833L336.932 411.25L337.188 411.519L348.09 401.102L347.833 400.833Z" fill="#E9EEF1"/>
<path d="M249.249 342.474L238.348 352.891L238.604 353.16L249.506 342.742L249.249 342.474Z" fill="#E9EEF1"/>
<path d="M59.7956 231.975C58.0122 231.975 56.0219 231.439 53.848 230.371C43.8773 225.471 39.0496 213.837 39.8919 196.719L42.2399 149.056L49.0721 152.412L49.0626 152.567L46.7335 199.868C46.2112 210.518 48.6956 216.82 54.5585 219.701C56.8124 220.807 58.5769 220.948 59.9696 220.129C62.2141 218.807 63.461 214.985 63.781 208.448L66.129 160.789L72.9094 164.121L72.9 164.277L70.5708 211.577C70.0579 222.035 67.7335 228.554 63.6681 230.949C62.5152 231.637 61.2213 231.975 59.7956 231.975ZM42.6728 149.799L40.3624 196.747C39.5296 213.662 44.2632 225.146 54.055 229.956C57.8146 231.801 60.9719 232.004 63.4328 230.554C67.3523 228.243 69.5968 221.856 70.105 211.563L72.4247 164.413L66.5666 161.533L64.2562 208.48C63.9268 215.187 62.6046 219.136 60.2143 220.543C58.6992 221.438 56.7277 221.296 54.3609 220.134C48.3098 217.159 45.7407 210.716 46.2771 199.853L48.5968 152.703L42.6728 149.799Z" fill="#E9EEF1"/>
<path d="M105.861 254.379L97.857 250.449L90.2108 218.496L79.8543 241.61L71.9775 237.741L86.8088 207.318L76.4382 165.863L83.9009 169.529L91.1377 199.745L101.043 177.949L108.378 181.554L94.5962 210.744L105.861 254.379ZM98.2616 250.124L105.15 253.508L94.1068 210.693L107.766 181.771L101.282 178.585L91.0107 201.185L83.5057 169.849L77.1487 166.729L87.3123 207.365L72.6128 237.52L79.6284 240.965L90.3519 217.037L98.2616 250.124Z" fill="#E9EEF1"/>
</g>
<defs>
<clipPath id="clip0_3830_31525">
<rect width="502" height="512" fill="white"/>
</clipPath>
</defs>
</svg>
