<svg width="50" height="39" viewBox="0 0 50 39" fill="none" xmlns="http://www.w3.org/2000/svg">
<path d="M28.125 0V38.4838L38.7422 32.5762L49.2911 38.4838V0H28.125Z" fill="#A89160"/>
<path d="M37.6319 26.6051C36.5578 26.6051 35.7469 26.339 35.1993 25.8066C34.6517 25.2677 34.3779 24.5457 34.3779 23.6407V19.4785H35.9786V23.6607C35.9786 24.1664 36.126 24.5523 36.4209 24.8185C36.7157 25.0847 37.1194 25.2177 37.6319 25.2177C38.1374 25.2177 38.534 25.0847 38.8218 24.8185C39.1167 24.5523 39.2641 24.1664 39.2641 23.6607V19.4785H40.8648V23.6407C40.8648 24.5457 40.5945 25.2677 40.0539 25.8066C39.5134 26.339 38.706 26.6051 37.6319 26.6051Z" fill="#E9EEF1"/>
<path d="M41.9172 19.4785H43.5178V26.4554H41.9172V19.4785Z" fill="#E9EEF1"/>
<path d="M0 0V38.4838L10.5968 32.5762L21.1255 38.4838V0H0Z" fill="#400835"/>
<path d="M5.28306 19.3445C5.35121 19.4795 5.41935 19.6145 5.45343 19.682C5.55565 19.8508 5.62379 20.0196 5.72601 20.1884L7.12302 22.9565C7.1571 23.024 7.22524 23.1253 7.19117 23.2266L5.21491 26.9399C5.18084 27.0412 5.07862 27.1425 5.24899 27.1425H6.40748C6.57785 27.1425 6.57785 27.0412 6.68007 26.8387L8.00893 24.0705C8.11115 24.138 9.2015 26.5011 9.44001 27.0075C9.47409 27.1087 9.50816 27.1087 9.64445 27.1087C9.84889 27.1087 10.8711 27.1425 10.9733 27.075C11.0074 26.9737 10.8029 26.6699 10.7348 26.5686L10.2237 25.5896C9.81482 24.8132 9.33779 23.868 8.92891 23.1253C8.86077 22.9903 8.86077 22.9903 9.06521 22.619C9.16743 22.4502 9.23557 22.2814 9.33779 22.1126C9.40594 21.9438 9.50816 21.8088 9.57631 21.64L10.36 20.1546C10.4281 20.0196 10.7689 19.412 10.837 19.2094C10.8711 19.1419 10.7348 19.1419 10.6667 19.1419H9.64445C9.54223 19.1419 9.50816 19.1757 9.47409 19.2432L8.45188 21.3699C8.41781 21.4712 8.14522 22.1126 8.07708 22.1463C7.97486 21.8763 7.83856 21.64 7.73634 21.3699L6.98673 19.8171C6.91858 19.682 6.88451 19.547 6.81636 19.4457C6.78229 19.3782 6.74822 19.3107 6.71414 19.2432C6.68007 19.1419 6.68007 19.1082 6.54378 19.1082H5.35121C5.21491 19.1757 5.21491 19.1757 5.28306 19.3445Z" fill="#ED6CEF"/>
<path d="M12.611 24.274C12.611 23.8014 12.6451 23.3288 12.9176 22.9237C12.9858 22.8224 13.0539 22.7211 13.1221 22.6536C13.4628 22.3498 14.008 22.1473 14.5872 22.316V25.9619C13.4628 26.3332 12.611 25.6243 12.611 24.274ZM14.6213 21.1683H14.1443C13.2243 21.1683 12.4747 21.6071 12.0658 22.0122C11.6569 22.4511 11.248 23.2613 11.248 24.1052C11.248 25.0504 11.4184 25.7593 11.9636 26.367C12.3384 26.8058 13.0539 27.1771 13.9058 27.1771C14.3487 27.1771 14.6895 27.1434 15.1324 27.0421C15.3369 26.9746 15.848 26.8396 15.9842 26.7045C15.9842 26.637 15.9502 26.4007 15.9502 26.2657C15.9502 25.8268 15.9502 25.253 15.9502 24.8141V19.2779C15.9502 19.1766 15.9502 19.1428 15.848 19.1428H14.7235C14.5532 19.1428 14.6213 19.2441 14.6213 19.5479V21.1683Z" fill="#ED6CEF"/>
</svg>
