<svg width="210" height="40" viewBox="0 0 210 40" fill="none" xmlns="http://www.w3.org/2000/svg">
<path d="M11.2427 15.771C11.2427 15.771 9.851 15.6313 9.851 16.8603V22.3631H18.9803V24.0112C18.9803 24.0112 19.0082 24.8212 18.1453 24.8212H9.851V31.9721H19.8153C19.8153 31.9721 25.8552 31.0503 25.9108 24.8212V15.771H11.2427ZM25.6325 7H7.65217C1.13917 8.53631 1 13.8994 1 13.8994V32H7.90267V15.5196C7.90267 14.1229 9.29433 13.8715 9.29433 13.8715H25.6047L25.6325 7ZM49.3743 26.8045C48.9012 27.1117 48.5393 27.3631 48.2888 27.5028C47.3982 28.0615 46.5632 28.4804 45.7838 28.8156C44.6427 29.2905 43.6407 29.514 42.7222 29.514C39.6048 29.514 37.0163 28.5643 34.9567 26.6369C32.8692 24.7095 31.8393 22.2793 31.8393 19.3743C31.8393 16.5531 32.7578 14.1229 34.6505 12.0279C36.5153 9.96089 38.7977 8.92737 41.4697 8.92737C42.583 8.92737 43.7798 9.12291 45.0045 9.51397C46.6188 10.0168 47.8992 10.7989 48.9568 11.7765L47.1755 13.7598C46.424 13.0056 45.422 12.4749 44.2808 12.1397C43.418 11.8883 42.4717 11.7486 41.414 11.7486C39.5492 11.7486 37.9627 12.5028 36.6823 14.0112C35.4298 15.5475 34.7897 17.3352 34.7897 19.4581C34.7897 21.5531 35.5133 23.2849 36.9607 24.6536C38.408 26.0223 40.245 26.7207 42.4717 26.7207C43.3902 26.7207 44.3365 26.4134 45.3107 25.8547C46.1178 25.2402 46.5353 24.933 46.5353 24.933V20.5754H40.4955L41.3583 17.8659H49.3743V26.8045ZM67.5495 21.4972C67.5495 23.5922 66.798 25.4078 65.3228 26.9441C63.8477 28.4805 62.0107 29.2626 59.8118 29.2626C57.78 29.2626 56.0265 28.5084 54.4957 27C52.9648 25.4916 52.2133 23.676 52.2133 21.5251C52.2133 19.4022 52.937 17.5866 54.3843 16.0223C55.8317 14.4581 57.613 13.7039 59.6727 13.7039C61.9828 13.7039 63.8477 14.4581 65.3228 15.9385C66.798 17.3911 67.5495 19.2626 67.5495 21.4972ZM64.7383 21.5531C64.7383 20.1285 64.2652 18.9274 63.3188 17.9497C62.3725 16.9441 61.2035 16.4693 59.784 16.4693C58.4758 16.4693 57.3625 16.9721 56.4162 18.0056C55.4977 19.0112 55.0245 20.1844 55.0245 21.4972C55.0245 22.8659 55.4977 24.0391 56.4162 25.0168C57.3347 25.9944 58.5037 26.4972 59.8953 26.4972C61.2035 26.4972 62.3168 26.0223 63.2632 25.0447C64.2652 24.0391 64.7383 22.8659 64.7383 21.5531ZM85.502 21.4972C85.502 23.5922 84.7505 25.4078 83.2753 26.9441C81.8002 28.4805 79.9632 29.2626 77.7643 29.2626C75.7325 29.2626 73.979 28.5084 72.4482 27C70.9173 25.4916 70.1658 23.676 70.1658 21.5251C70.1658 19.4022 70.8895 17.5866 72.3368 16.0223C73.7842 14.4581 75.5655 13.7039 77.6252 13.7039C79.9353 13.7039 81.8002 14.4581 83.2753 15.9385C84.7505 17.3911 85.502 19.2626 85.502 21.4972ZM82.663 21.5531C82.663 20.1285 82.1898 18.9274 81.2435 17.9497C80.2972 16.9441 79.1282 16.4693 77.7087 16.4693C76.4005 16.4693 75.2872 16.9721 74.3408 18.0056C73.4223 19.0112 72.9492 20.1844 72.9492 21.4972C72.9492 22.8659 73.4223 24.0391 74.3408 25.0168C75.2593 25.9944 76.4283 26.4972 77.82 26.4972C79.1282 26.4972 80.2415 26.0223 81.1878 25.0447C82.1898 24.0391 82.663 22.8659 82.663 21.5531ZM102.091 28.8436L99.5022 29.2346V26.7207L98.9455 27.3631C98.4445 27.838 97.8878 28.2011 97.3033 28.5084C96.4127 28.9274 95.4663 29.1229 94.4922 29.1229C92.4603 29.1229 90.7347 28.3687 89.343 26.8883C87.9513 25.4078 87.2277 23.5922 87.2277 21.5251C87.2277 19.3743 87.9235 17.5307 89.3152 16.0223C90.7068 14.486 92.3768 13.7318 94.4087 13.7318C95.5777 13.7318 96.5797 13.9274 97.4147 14.2905C98.027 14.5698 98.528 14.933 98.9733 15.3799C99.1125 15.5754 99.2517 15.7709 99.4187 15.9665V9.34637L102.174 8.95531L102.091 28.8436ZM99.6692 21.6927C99.6692 20.2123 99.1682 18.9553 98.1662 17.9497C97.1642 16.9162 96.023 16.4134 94.7148 16.4134C93.2675 16.4134 92.1263 16.8883 91.2357 17.8659C90.4007 18.7877 89.9832 19.933 89.9832 21.2737C89.9832 22.7821 90.4285 24.0391 91.2913 25.0168C92.1542 25.9944 93.2397 26.4693 94.6035 26.4693C95.9117 26.4693 97.0807 26.0224 98.1105 25.1006C99.1403 24.1788 99.6692 23.0335 99.6692 21.6927ZM116.675 12.0838H108.938V17.3631H114.95V20.0726H108.938V28.8156L105.932 29.2626V9.34637H116.091L116.675 12.0838ZM122.882 10.5475L121.017 12.8939L119.236 10.5475L121.101 8.22905L122.882 10.5475ZM122.326 28.8436L119.57 29.2346V14.486L122.326 14.067V28.8436ZM134.795 13.8994L133.487 16.9162C133.32 16.8883 133.153 16.8883 132.958 16.8883C132.68 16.8883 132.429 16.9162 132.151 16.9441C131.872 16.9721 131.594 17.0838 131.288 17.2514C130.703 17.5028 130.202 18.0615 129.785 18.8715C129.312 19.8212 129.061 20.8548 129.061 21.9162V28.8156L126.306 29.2626V14.486L128.866 14.0112V17.0838C129.2 16.5531 129.534 16.0223 129.868 15.4637C130.342 14.905 130.898 14.514 131.51 14.2626C131.844 14.1229 132.429 14.0391 133.348 13.9553C134.238 13.8994 134.739 13.8715 134.795 13.8994ZM155.392 28.8436L152.636 29.2346V19.1229C152.636 18.2011 152.441 17.5028 152.024 17.0838C151.606 16.6648 150.994 16.4413 150.187 16.4413C149.212 16.4413 148.489 16.8324 147.988 17.6425C147.654 18.2011 147.459 18.7877 147.459 19.3743V28.7877L144.703 29.2905V19.1508C144.703 18.257 144.509 17.5866 144.091 17.1117C143.674 16.6369 143.145 16.4134 142.449 16.4134H142.171C141.197 16.4134 140.501 16.8045 140.055 17.6425C139.721 18.257 139.554 19.0391 139.554 19.9888V28.7598L136.688 29.2626V14.4302L139.276 13.9832V15.8827C139.554 15.4358 139.861 15.0726 140.111 14.8212C140.863 14.1229 141.725 13.7877 142.7 13.7877C143.785 13.7877 144.592 13.9553 145.149 14.3184C145.622 14.6257 146.067 15.2123 146.54 16.0503C147.487 14.5419 148.823 13.7877 150.604 13.7877C152.302 13.7877 153.554 14.3184 154.389 15.4078C155.057 16.3017 155.392 17.6145 155.392 19.3184V28.8436ZM168 24.3743C168 25.743 167.527 26.8603 166.58 27.7263C165.634 28.6201 164.437 29.0391 162.99 29.0391C161.904 29.0391 160.93 28.7877 160.04 28.2849C159.149 27.7821 158.481 27.1955 158.063 26.5251L160.012 24.7933C160.151 25.0168 160.29 25.1844 160.402 25.2961C161.125 26.0503 161.988 26.4134 162.99 26.4134C163.686 26.4134 164.242 26.2179 164.632 25.8547C165.05 25.4916 165.244 24.9888 165.244 24.3184C165.244 23.5642 164.771 23.0615 163.825 22.7821C161.96 22.2235 160.93 21.8883 160.791 21.8324C159.928 21.3855 159.316 20.9106 158.926 20.3799C158.481 19.7654 158.258 18.9553 158.258 17.9218C158.258 16.6369 158.732 15.6034 159.65 14.7374C160.568 13.8994 161.682 13.4804 162.962 13.4804C163.936 13.4804 164.827 13.7039 165.662 14.1508C166.497 14.5978 167.081 15.0726 167.443 15.6034L165.801 17.3911C165.551 17.1397 165.272 16.9162 164.994 16.7207C164.326 16.2458 163.686 16.0223 163.101 16.0223C162.517 16.0223 162.044 16.162 161.682 16.4134C161.236 16.7207 161.014 17.1955 161.014 17.8101C161.014 18.3966 161.209 18.8436 161.654 19.1229C162.016 19.3464 162.795 19.5978 164.048 19.8771C165.272 20.1844 166.246 20.6872 166.914 21.4134C167.694 22.1955 168 23.1453 168 24.3743Z" fill="#3A7AF3"/>
</svg>
