<svg width="76" height="30" viewBox="0 0 76 30" fill="none" xmlns="http://www.w3.org/2000/svg">
<path d="M20.6328 4.57983H23.85V24.287H20.6328V4.57983Z" fill="#E9EEF1"/>
<path d="M35.0394 18.0413C35.0394 21.0945 32.5216 21.3721 31.6824 21.3721C29.7241 21.3721 29.4443 19.5679 29.4443 18.5964V10.9634H26.2272V18.4577C26.2272 20.2618 26.7867 21.9272 27.9057 22.8987C28.8848 23.8702 30.1437 24.2865 31.6824 24.2865C32.8014 24.2865 34.2002 24.009 35.0394 23.1763V24.2865H38.2566V10.9634H35.0394V18.0413Z" fill="#E9EEF1"/>
<path d="M44.5512 6.10645H41.334V10.9638H38.9561V14.0171H41.334V24.287H44.5512V14.0171H46.9291V10.9638H44.5512V6.10645Z" fill="#E9EEF1"/>
<path d="M57.0006 20.2623C56.3012 20.8174 55.3221 21.2338 54.3429 21.2338C52.1049 21.2338 50.5662 19.5684 50.5662 17.3479C50.5662 15.1273 52.1049 13.6007 54.3429 13.6007C55.3221 13.6007 56.3012 13.8783 57.0006 14.5722L57.4202 14.9885L59.6582 12.9068L59.0987 12.4905C57.8398 11.3802 56.1613 10.6863 54.3429 10.6863C50.4263 10.6863 47.4889 13.6007 47.4889 17.4866C47.4889 21.3726 50.4263 24.287 54.3429 24.287C56.1613 24.287 57.8398 23.5931 59.0987 22.4828L59.6582 22.0665L57.4202 19.846L57.0006 20.2623Z" fill="#E9EEF1"/>
<path d="M70.9876 12.0741C70.0084 11.1026 69.0293 10.6863 67.4906 10.6863C66.3716 10.6863 65.2526 10.9638 64.4133 11.7965V4.57983H61.1962V24.287H64.4133V16.9315C64.4133 13.8783 66.5115 13.6007 67.3508 13.6007C69.309 13.6007 69.1692 15.4049 69.1692 16.3764V24.1482H72.3863V16.5152C72.3863 14.711 71.9667 13.0456 70.9876 12.0741Z" fill="#E9EEF1"/>
<path d="M54.2023 19.7072C55.4384 19.7072 56.4404 18.713 56.4404 17.4866C56.4404 16.2603 55.4384 15.2661 54.2023 15.2661C52.9663 15.2661 51.9643 16.2603 51.9643 17.4866C51.9643 18.713 52.9663 19.7072 54.2023 19.7072Z" fill="#EF4335"/>
<path d="M16.1564 19.4296C15.0374 20.5399 13.3589 21.2338 11.5404 21.2338C8.04352 21.2338 5.52573 18.4581 5.52573 14.711C5.52573 10.9639 8.04352 8.1882 11.6803 8.1882C13.3589 8.1882 15.0374 8.88211 16.2963 10.1312L16.7159 10.5475L18.8141 8.46577L18.3944 8.04942C16.576 6.24524 14.1981 5.27376 11.6803 5.27376C6.36499 5.13497 2.44843 9.29846 2.44843 14.711C2.44843 20.1235 6.36499 24.287 11.5404 24.287C14.0582 24.287 16.576 23.3155 18.2546 21.5114L18.6742 21.095L16.576 19.0133L16.1564 19.4296Z" fill="#E9EEF1"/>
</svg>
