<svg width="96" height="25" viewBox="0 0 96 25" fill="none" xmlns="http://www.w3.org/2000/svg">
<g clip-path="url(#clip0_3969_28863)">
<path d="M11.5916 22.5C17.801 22.5 22.8347 17.545 22.8347 11.4326C22.8347 5.32028 17.801 0.365234 11.5916 0.365234C5.3823 0.365234 0.348633 5.32028 0.348633 11.4326C0.348633 17.545 5.3823 22.5 11.5916 22.5Z" fill="#C95D3C"/>
<path d="M13.0904 5.89893H7.65625V16.9663H9.90485V13.6461H13.0904C15.264 13.6461 17.0254 11.9122 17.0254 9.77252C17.0254 7.63282 15.264 5.89893 13.0904 5.89893ZM13.0904 11.4326H9.90485V8.11241H13.0904C14.0217 8.11241 14.7768 8.85577 14.7768 9.77252C14.7768 10.6893 14.0217 11.4326 13.0904 11.4326Z" fill="#E9EEF1"/>
<path d="M30.3301 15.1217V7.74341H33.7733C35.3744 7.74341 36.2458 8.80864 36.2458 10.0796C36.2458 11.3403 35.3632 12.4046 33.7733 12.4046H31.8975V15.1217H30.3301ZM34.6465 10.0796C34.6465 9.47084 34.1714 9.10101 33.5531 9.10101H31.8975V11.0461H33.5531C34.1705 11.047 34.6465 10.6772 34.6465 10.0796Z" fill="#C95D3C"/>
<path d="M37.1992 15.1216V9.74284H38.6008V10.4493C38.9878 9.99277 39.639 9.61279 40.3014 9.61279V10.9603C40.202 10.9381 40.0802 10.928 39.9144 10.928C39.4506 10.928 38.8323 11.189 38.5999 11.5256V15.1225H37.1992V15.1216Z" fill="#C95D3C"/>
<path d="M40.833 12.3614C40.833 10.8728 41.8927 9.61206 43.6485 9.61206C45.4145 9.61206 46.4742 10.8728 46.4742 12.3614C46.4742 13.85 45.4145 15.1218 43.6485 15.1218C41.8927 15.1218 40.833 13.85 40.833 12.3614ZM45.0173 12.3614C45.0173 11.5461 44.531 10.8396 43.6485 10.8396C42.7752 10.8396 42.2899 11.5461 42.2899 12.3614C42.2899 13.1878 42.7752 13.8933 43.6485 13.8933C44.531 13.8933 45.0173 13.1878 45.0173 12.3614Z" fill="#C95D3C"/>
<path d="M51.1908 15.1217V14.3174C50.7711 14.8395 50.1977 15.1217 49.5456 15.1217C48.2095 15.1217 47.1836 14.1219 47.1836 12.3613C47.1836 10.6551 48.1889 9.61196 49.5456 9.61196C50.1752 9.61196 50.7711 9.87296 51.1908 10.4162V7.74341H52.6037V15.1217H51.1908ZM51.1908 13.2956V11.4372C50.9584 11.0895 50.4506 10.8395 49.9869 10.8395C49.1811 10.8395 48.6293 11.4593 48.6293 12.3613C48.6293 13.2743 49.1811 13.8932 49.9869 13.8932C50.4516 13.8932 50.9594 13.6433 51.1908 13.2956Z" fill="#C95D3C"/>
<path d="M57.5968 15.1217V14.3285C57.2323 14.7196 56.5924 15.1217 55.7211 15.1217C54.5509 15.1217 53.999 14.4908 53.999 13.4699V9.74292H55.4007V12.9266C55.4007 13.6552 55.7876 13.8941 56.3835 13.8941C56.925 13.8941 57.3551 13.6008 57.5977 13.2965V9.74292H59.0003V15.1217H57.5968Z" fill="#C95D3C"/>
<path d="M60.0518 12.3614C60.0518 10.7529 61.2435 9.61206 62.8775 9.61206C63.9709 9.61206 64.6333 10.0797 64.9865 10.5574L64.0693 11.405C63.8154 11.0351 63.4293 10.8396 62.944 10.8396C62.0933 10.8396 61.4974 11.4483 61.4974 12.3614C61.4974 13.2744 62.0933 13.8933 62.944 13.8933C63.4293 13.8933 63.8163 13.6756 64.0693 13.3169L64.9865 14.1645C64.6333 14.6431 63.9709 15.1209 62.8775 15.1209C61.2435 15.1218 60.0518 13.9809 60.0518 12.3614Z" fill="#C95D3C"/>
<path d="M66.1912 13.6765V10.9493H65.3086V9.74299H66.1912V8.30884H67.5937V9.74299H68.6749V10.9493H67.5937V13.3076C67.5937 13.6442 67.7699 13.8942 68.0791 13.8942C68.2889 13.8942 68.4885 13.8176 68.5644 13.7309L68.8633 14.7851C68.6534 14.9705 68.2777 15.1227 67.693 15.1227C66.7102 15.1217 66.1912 14.6219 66.1912 13.6765Z" fill="#C95D3C"/>
<path d="M77.6547 15.1217V11.938H74.1769V15.1217H72.6104V7.74341H74.1769V10.5905H77.6547V7.74341H79.2334V15.1217H77.6547Z" fill="#C95D3C"/>
<path d="M84.2501 15.1217V14.3285C83.8856 14.7196 83.2457 15.1217 82.3744 15.1217C81.2042 15.1217 80.6523 14.4908 80.6523 13.4699V9.74292H82.054V12.9266C82.054 13.6552 82.4409 13.8941 83.0368 13.8941C83.5783 13.8941 84.0084 13.6008 84.251 13.2965V9.74292H85.6536V15.1217H84.2501Z" fill="#C95D3C"/>
<path d="M90.6446 15.1216V11.818C90.6446 11.0894 90.2586 10.8394 89.6618 10.8394C89.1099 10.8394 88.6911 11.1438 88.4475 11.4481V15.1216H87.0459V9.74284H88.4475V10.417C88.7904 10.026 89.4528 9.61279 90.3139 9.61279C91.4953 9.61279 92.0575 10.2648 92.0575 11.2858V15.1216H90.6446Z" fill="#C95D3C"/>
<path d="M93.7273 13.6765V10.9493H92.8447V9.74299H93.7273V8.30884H95.1299V9.74299H96.2111V10.9493H95.1299V13.3076C95.1299 13.6442 95.306 13.8942 95.6152 13.8942C95.8251 13.8942 96.0246 13.8176 96.1015 13.7309L96.3994 14.7851C96.1895 14.9705 95.8138 15.1227 95.2292 15.1227C94.2464 15.1217 93.7273 14.6219 93.7273 13.6765Z" fill="#C95D3C"/>
</g>
<defs>
<clipPath id="clip0_3969_28863">
<rect width="96" height="25" fill="white"/>
</clipPath>
</defs>
</svg>
