<svg width="76" height="26" viewBox="0 0 76 26" fill="none" xmlns="http://www.w3.org/2000/svg">
<path d="M18.0156 2.07178H21.0989V20.7707H18.0156V2.07178Z" fill="#E9EEF1"/>
<path d="M31.8225 14.8445C31.8225 17.7415 29.4095 18.0048 28.6051 18.0048C26.7284 18.0048 26.4602 16.293 26.4602 15.3712V8.12866H23.377V15.2395C23.377 16.9514 23.9132 18.5316 24.9856 19.4533C25.924 20.3751 27.1305 20.7702 28.6051 20.7702C29.6776 20.7702 31.0181 20.5068 31.8225 19.7167V20.7702H34.9058V8.12866H31.8225V14.8445Z" fill="#E9EEF1"/>
<path d="M40.9384 3.52026H37.8551V8.12914H35.5762V11.0262H37.8551V20.7706H40.9384V11.0262H43.2174V8.12914H40.9384V3.52026Z" fill="#E9EEF1"/>
<path d="M52.8697 16.9518C52.1994 17.4785 51.261 17.8736 50.3227 17.8736C48.1778 17.8736 46.7031 16.2934 46.7031 14.1865C46.7031 12.0796 48.1778 10.631 50.3227 10.631C51.261 10.631 52.1994 10.8944 52.8697 11.5528L53.2719 11.9479L55.4168 9.97264L54.8806 9.57759C53.6741 8.52413 52.0654 7.86572 50.3227 7.86572C46.5691 7.86572 43.7539 10.631 43.7539 14.3182C43.7539 18.0053 46.5691 20.7706 50.3227 20.7706C52.0654 20.7706 53.6741 20.1122 54.8806 19.0587L55.4168 18.6637L53.2719 16.5567L52.8697 16.9518Z" fill="#E9EEF1"/>
<path d="M66.2745 9.18262C65.3362 8.26084 64.3978 7.8658 62.9231 7.8658C61.8507 7.8658 60.7782 8.12916 59.9739 8.91925V2.07178H56.8906V20.7707H59.9739V13.7915C59.9739 10.8945 61.9848 10.6311 62.7891 10.6311C64.6659 10.6311 64.5318 12.343 64.5318 13.2648V20.639H67.6151V13.3965C67.6151 11.6846 67.2129 10.1044 66.2745 9.18262Z" fill="#E9EEF1"/>
<path d="M50.1879 16.425C51.3725 16.425 52.3328 15.4817 52.3328 14.3181C52.3328 13.1545 51.3725 12.2112 50.1879 12.2112C49.0033 12.2112 48.043 13.1545 48.043 14.3181C48.043 15.4817 49.0033 16.425 50.1879 16.425Z" fill="#EF4335"/>
<path d="M13.7254 16.1618C12.6529 17.2153 11.0443 17.8737 9.30153 17.8737C5.95013 17.8737 3.53712 15.2401 3.53712 11.6846C3.53712 8.12922 5.95013 5.49558 9.43559 5.49558C11.0443 5.49558 12.6529 6.15399 13.8594 7.33913L14.2616 7.73417L16.2724 5.75894L15.8703 5.36389C14.1275 3.65202 11.8486 2.73025 9.43559 2.73025C4.34146 2.59857 0.587891 6.54903 0.587891 11.6846C0.587891 16.8202 4.34146 20.7707 9.30153 20.7707C11.7145 20.7707 14.1275 19.8489 15.7362 18.1371L16.1384 17.742L14.1275 15.7668L13.7254 16.1618Z" fill="#E9EEF1"/>
</svg>
