<svg width="670" height="671" viewBox="0 0 670 671" fill="none" xmlns="http://www.w3.org/2000/svg">
<g opacity="0.8" clip-path="url(#clip0_3833_30609)">
<path d="M376.805 607.74L376.451 607.998L385.676 620.635L386.03 620.377L376.805 607.74Z" fill="#E9EEF1"/>
<path d="M368.782 610.833L368.382 610.999L374.613 626.028L375.012 625.863L368.782 610.833Z" fill="#E9EEF1"/>
<path d="M366.314 612.161L365.907 612.323L371.478 626.374L371.885 626.213L366.314 612.161Z" fill="#E9EEF1"/>
<path d="M363.727 629H363.683C362.701 628.994 339.153 628.567 301.475 600.607C279.412 584.236 257.095 561.757 235.132 533.792C207.709 498.858 180.768 455.215 155.058 404.06C123.356 340.984 103.4 282.972 94.0479 226.703C81.7749 152.858 98.089 118.186 107.413 113.709C107.607 113.614 107.829 113.537 108.067 113.465C125.512 107.157 253.669 60.8508 256.879 60.7732C266.003 60.5513 282.3 60.3848 283.914 60.3682L340.096 42L360.739 51.7694H369.076L369.259 51.8692L428.108 83.2577L437.37 91.4349H444.083L444.333 91.7178L489.827 143.35L489.855 143.394L533.764 209.033L534.911 221.665L532.689 226.675C532.905 230.941 533.376 237.898 533.747 239.013C534.113 240.1 535.128 252.394 535.726 261.847C537.118 283.743 536.186 284.759 535.787 285.191C535.71 285.274 535.344 285.507 534.706 285.879L535.455 285.857L537.938 366.664L533.792 369.06V386.496L532.123 389.725L531.569 403.983L528.808 407.655V431.432L528.72 431.61C528.653 431.748 527.007 435.01 525.305 436.952C525.033 437.546 524.917 440.719 524.795 444.07C524.313 457.146 523.32 484.357 512.117 512.738C497.222 550.484 475.415 564.392 475.198 564.531C458.995 574.911 378.029 626.742 376.349 627.302C374.647 627.868 364.891 628.889 363.788 629.005L363.727 629ZM108.1 115.229C103.693 117.381 97.7065 127.217 94.2419 144.37C91.1875 159.46 88.9646 185.95 95.6943 226.436C105.013 282.528 124.919 340.39 156.544 403.317C182.165 454.288 209.001 497.787 236.313 532.604C258.154 560.448 280.344 582.833 302.268 599.131C321.758 613.622 337.424 620.523 347.136 623.757C357.197 627.108 363.112 627.324 363.649 627.341C367.923 626.897 374.653 626.104 375.806 625.721C377.868 624.778 441.134 584.358 474.295 563.122C474.356 563.083 479.738 559.682 486.862 551.733C493.436 544.393 502.887 531.567 510.554 512.128C521.652 484.013 522.638 456.996 523.115 444.009C523.326 438.25 523.415 436.558 524.008 435.887C525.366 434.35 526.763 431.732 527.123 431.038V407.1L529.906 403.4L530.46 389.287L532.118 386.091V368.101L536.231 365.721L533.797 286.395C522.589 292.725 466.584 322.05 427.808 342.188C407.231 352.872 377.718 368.145 353.998 380.189C319.957 397.475 319.291 397.259 318.72 397.07C318.388 396.959 317.839 396.932 317.08 396.887C312.706 396.643 302.462 396.072 273.126 380.067C268.387 377.482 252.649 367.357 250.554 366.009L229.389 366.087L229.145 365.843C228.846 365.543 199 335.68 178.268 301.701C157.63 267.883 134.659 224.55 134.659 220.695V220.273L150.102 208.961C149.404 205.039 145.224 181.334 145.751 177.079C146.261 172.974 149.154 142.162 149.576 137.674L128.882 126.23L118.439 115.778C116.194 115.301 110.95 114.43 108.638 115.029C108.461 115.096 108.283 115.162 108.1 115.229ZM251.036 364.339L251.241 364.472C251.418 364.589 268.996 375.917 273.919 378.602C302.922 394.43 313.271 395.007 317.168 395.223C317.955 395.267 318.548 395.301 319.047 395.428C322.379 394.541 363.816 373.548 427.636 340.396C481.185 312.58 531.574 286.023 534.529 284.06C535.726 280.809 532.761 241.665 532.156 239.523C531.585 237.809 531.064 227.701 531.009 226.553L530.998 226.353L533.21 221.377L532.14 209.599L488.497 144.359L443.324 93.0881H436.733L427.149 84.6224L368.66 53.4337H360.368L339.985 43.7863L284.191 62.0325H284.063C283.886 62.0325 266.469 62.2045 256.923 62.4375C253.68 62.8202 164.576 94.8134 113.411 113.304C116.066 113.559 118.566 114.091 119.043 114.197L119.281 114.247L129.902 124.876L151.339 136.731L151.289 137.275C151.255 137.63 147.957 172.841 147.408 177.273C146.981 180.707 150.119 199.641 151.837 209.167L151.932 209.677L136.394 221.061C137.669 226.098 158.057 265.37 179.687 300.824C199.322 333.006 227.188 361.493 230.076 364.411L251.036 364.339Z" fill="#E9EEF1"/>
<path d="M380.584 550.479C380.13 550.479 379.609 550.385 379.016 550.163C378.655 550.024 335.439 527.872 303.376 490.032C294.557 479.625 281.658 463.747 270.294 447.215C248.27 415.178 229.744 382.585 229.561 382.264L230.465 381.753L226.074 381.548L225.853 381.354C225.309 380.877 213.097 370.081 210.054 366.741C207.887 367.313 199.294 369.571 197.653 370.064C196.068 370.536 193.829 369.632 191.672 367.64C187.964 364.212 184.266 357.266 186.035 348.961L186.101 348.64L193.141 343.791C188.008 334.182 180.275 322.294 172.104 309.728C163.684 296.786 154.981 283.399 147.519 270.202C144.969 265.68 133.212 236.528 131.394 231.812L131.288 231.54L134.697 220.445L136.288 220.933L133.046 231.479C135.008 236.505 146.521 265.053 148.966 269.381C156.4 282.534 165.086 295.898 173.495 308.819C181.877 321.706 189.793 333.872 194.959 343.663L195.303 344.318L187.598 349.627C186.134 357.1 189.46 363.324 192.803 366.414C194.704 368.167 196.373 368.705 197.182 368.467C199.084 367.901 209.688 365.116 210.137 364.999L210.653 364.866L210.991 365.277C213.025 367.74 224.966 378.342 226.739 379.911L244.451 380.733L244.661 380.899C244.911 381.093 269.579 400.393 277.655 402.895C285.915 405.453 311.037 416.143 312.102 416.592L312.335 416.692L312.473 416.909C320.295 429.036 333.372 448.624 335.323 449.817C337.529 450.405 340.805 451.387 340.839 451.393L341.11 451.476L341.276 451.709C341.47 451.986 361.033 479.519 372.846 505.06C382.397 525.709 386.76 545.242 382.78 549.525C382.325 550.007 381.621 550.479 380.584 550.479ZM231.202 381.787C233.242 385.359 250.897 416.065 271.663 446.278C282.988 462.749 295.849 478.582 304.646 488.961C336.298 526.308 379.243 548.471 379.603 548.609C380.767 549.048 381.277 548.698 381.56 548.393C384.559 545.164 381.094 526.863 371.333 505.759C360.163 481.611 342.008 455.631 340.085 452.907C339.242 452.658 336.653 451.898 334.841 451.409C334.253 451.254 333.155 450.96 321.891 434.223C316.902 426.811 312.08 419.366 311.209 418.024C308.593 416.914 284.917 406.884 277.156 404.482C269.102 401.986 246.435 384.394 243.841 382.369L231.202 381.787Z" fill="#E9EEF1"/>
<path d="M139.625 217.749H137.962L137.996 187.303L139.548 174.677L145.246 158.75C142.369 156.492 128.012 145.014 126.41 139.66C125.872 137.863 126.188 135.095 126.526 132.166C126.931 128.637 127.391 124.637 126.088 123.267C125.817 122.984 125.75 122.574 125.911 122.202C126.282 121.337 127.269 119.034 203.779 89.7152C235.891 77.4105 280.089 60.923 281.291 60.923V61.7551L281.408 62.5762C279.828 62.9035 244.04 76.068 204.521 91.213C141.111 115.512 129.653 121.298 127.718 122.668C129.054 124.782 128.611 128.626 128.184 132.36C127.884 134.995 127.568 137.719 128.006 139.183C129.326 143.594 141.981 154.123 146.748 157.807L147.225 158.178L141.155 175.154L139.664 187.459L139.625 217.749Z" fill="#E9EEF1"/>
<path d="M381.35 602.998L380.058 601.95C381.161 600.585 382.048 599.281 382.835 598.127C382.913 598.016 382.991 597.9 383.063 597.794C378.39 599.059 367.475 600.696 350.717 595.481C337.607 591.404 323.616 583.942 309.131 573.302C291.059 560.032 272.151 541.736 252.932 518.935C215.06 473.999 176.711 399.034 176.328 398.285L176.894 397.986L176.301 398.224C176.273 398.157 176.134 397.858 175.896 397.336C168.717 381.786 150.441 341.139 135.89 299.709C131.278 286.573 127.963 273.713 124.753 261.275C123.894 257.941 123.001 254.491 122.12 251.168C117.092 232.228 113.539 210.931 112.114 191.203C110.867 173.917 111.36 158.838 113.428 150.872C114.958 144.986 117.153 141.635 120.135 140.648C124.293 139.261 128.805 142.872 132.431 145.774C133.534 146.656 134.576 147.488 135.463 148.065L134.559 149.463C133.6 148.842 132.525 147.987 131.388 147.077C128.079 144.431 123.96 141.136 120.657 142.229C118.284 143.017 116.394 146.068 115.036 151.294C111.366 165.434 112.341 207.863 123.722 250.746C124.609 254.074 125.496 257.531 126.355 260.865C129.554 273.269 132.857 286.095 137.447 299.166C151.977 340.534 170.225 381.121 177.398 396.649C177.559 396.998 177.692 397.281 177.781 397.52L177.792 397.514L177.781 397.52C177.786 397.531 177.786 397.536 177.792 397.547L177.809 397.542C178.191 398.291 216.451 473.089 254.202 517.875C297.501 569.252 330.855 587.576 351.21 593.906C373.079 600.707 384.837 595.476 384.953 595.42L388.567 593.756L385.923 596.729C385.441 597.273 384.87 598.111 384.21 599.081C383.406 600.246 382.497 601.578 381.35 602.998Z" fill="#E9EEF1"/>
<path d="M360.322 612.268C351.653 612.268 341.203 608.94 328.853 602.288C293.591 583.287 260.381 545.475 260.054 545.097C259.91 544.953 244.161 529.187 223.202 501.277C203.855 475.519 175.978 433.856 153.034 381.642C118.998 304.175 100.71 239.867 98.6923 190.499C97.4229 159.46 100.161 142.051 108.155 130.423C108.981 129.22 110.101 128.576 111.475 128.509C117.44 128.221 126.415 138.828 126.792 139.283L126.459 139.56C126.37 139.455 117.484 128.937 111.714 128.937C111.642 128.937 111.57 128.937 111.492 128.942C110.256 129.003 109.252 129.58 108.51 130.667C100.677 142.062 97.8719 159.948 99.1247 190.476C101.142 239.789 119.413 304.047 153.433 381.465C176.355 433.634 204.21 475.269 223.545 501.005C244.494 528.893 260.22 544.643 260.376 544.798C260.719 545.186 293.874 582.938 329.063 601.9C353.349 614.986 370.19 615.131 380.539 602.332L380.877 602.604C375.666 609.05 368.854 612.268 360.322 612.268Z" fill="#E9EEF1"/>
<path d="M381.348 602.921L380.462 601.511C399.647 589.423 380.312 529.919 380.112 529.32L381.692 528.799C382.518 531.301 401.632 590.144 381.348 602.921Z" fill="#E9EEF1"/>
<path d="M341.416 452.341L339.781 452.042L342.63 436.464L343.007 436.281C343.179 436.198 347.164 434.267 351.277 435.604C357.78 434.5 484.573 358.77 533.083 329.561L533.942 330.987C533.499 331.253 488.797 358.165 444.206 384.566C353.672 438.162 351.782 437.524 350.873 437.219C348.035 436.253 345.13 437.207 344.121 437.612L341.416 452.341Z" fill="#E9EEF1"/>
<path d="M368.581 51.858L150.146 136.397L150.746 137.95L369.181 53.4103L368.581 51.858Z" fill="#E9EEF1"/>
<path d="M379.536 624.684L379.359 624.285C389.159 619.935 395.307 610.549 397.635 596.391C399.503 585.029 398.927 570.589 395.922 553.469C390.928 525.015 380.772 498.453 380.179 496.928L376.443 494.575L357.806 461.933L368.799 460.041C375.811 456.075 529.041 369.426 532.899 368.361L533.015 368.783C529.207 369.831 370.584 459.531 368.982 460.435L368.91 460.458L358.494 462.249L376.798 494.304L380.539 496.628L380.567 496.695C380.673 496.966 391.227 524.178 396.355 553.38C399.37 570.545 399.947 585.035 398.073 596.452C395.712 610.776 389.481 620.274 379.536 624.684Z" fill="#E9EEF1"/>
<path d="M389.123 569.579C288.926 529.154 223.609 405.808 205.975 368.972C205.576 368.139 205.26 367.479 205.194 367.363L206.585 366.447C206.679 366.581 206.796 366.819 207.478 368.25C225.045 404.953 290.107 527.839 389.749 568.037L389.123 569.579Z" fill="#E9EEF1"/>
<path d="M473.005 124.943L471.453 124.344L474.469 116.527C474.347 110.575 466.703 105.332 465.162 104.339L454.701 106.491L454.369 104.86L465.472 102.575L465.749 102.741C466.17 102.996 476.137 109.082 476.132 116.677V116.832L473.005 124.943Z" fill="#E9EEF1"/>
<path d="M532.894 207.78L531.442 206.97L535.522 199.653C536.232 193.739 529.402 187.481 528.016 186.277L517.362 186.943L517.257 185.284L528.571 184.58L528.82 184.785C529.203 185.096 538.222 192.518 537.146 200.041L537.124 200.196L532.894 207.78Z" fill="#E9EEF1"/>
<path d="M244.882 381.936L243.402 381.171C249.533 369.299 253.447 358.315 251.956 357.188C230.708 341.128 204.183 301.868 185.674 271.761C165.646 239.179 150.424 209.999 150.274 209.71L151.748 208.939C151.898 209.228 167.098 238.364 187.093 270.895C205.525 300.88 231.911 339.958 252.954 355.857C254.157 356.767 254.944 359.23 250.304 370.298C247.832 376.206 244.91 381.881 244.882 381.936Z" fill="#E9EEF1"/>
<path d="M236.429 422.663L200.812 441.746L201.597 443.214L237.214 424.13L236.429 422.663Z" fill="#E9EEF1"/>
<path d="M212.922 459.67L212.096 458.227C212.179 458.177 220.754 453.257 229.336 448.563C247.335 438.716 247.756 439.332 248.338 440.192L246.958 441.124C247.124 441.374 247.351 441.418 247.446 441.424C245.339 441.479 225.15 452.646 212.922 459.67Z" fill="#E9EEF1"/>
<path d="M214.433 383.945L213.629 382.486C223.596 376.999 223.818 377.199 224.345 377.693L223.214 378.913C223.458 379.14 223.746 379.135 223.829 379.113C223.164 379.268 218.524 381.692 214.433 383.945Z" fill="#E9EEF1"/>
<path d="M242.371 401.232L227.394 408.391L228.11 409.893L243.087 402.734L242.371 401.232Z" fill="#E9EEF1"/>
<path d="M206.284 451.337L205.497 449.873L242.499 429.973L256.058 422.656L256.845 424.121L243.291 431.438L206.284 451.337Z" fill="#E9EEF1"/>
<path d="M257.29 454.344L256.641 452.813C256.763 452.763 268.753 447.659 271.686 446.023L272.495 447.476C269.491 449.157 257.789 454.133 257.29 454.344Z" fill="#E9EEF1"/>
<path d="M286.672 468.799L273.883 475.676L274.67 477.142L287.459 470.265L286.672 468.799Z" fill="#E9EEF1"/>
<path d="M303.548 488.77L291.486 496.272L292.364 497.685L304.425 490.184L303.548 488.77Z" fill="#E9EEF1"/>
<path d="M319.693 506.885L308.161 513.354L308.974 514.806L320.507 508.337L319.693 506.885Z" fill="#E9EEF1"/>
<path d="M328.143 531.861L327.234 530.469C339.712 522.303 339.962 522.48 340.538 522.935L339.518 524.25C339.784 524.455 340.073 524.427 340.161 524.4C339.38 524.644 333.382 528.427 328.143 531.861Z" fill="#E9EEF1"/>
<path d="M172.747 386.391L172.115 384.849C175.546 383.44 205.685 371.063 207.371 370.675L207.742 372.295C206.522 372.583 186.145 380.882 172.747 386.391Z" fill="#E9EEF1"/>
<path d="M186.977 418.04L186.195 416.57C195.696 411.511 220.542 398.263 221.357 397.758L222.244 399.167C221.285 399.767 188.379 417.291 186.977 418.04Z" fill="#E9EEF1"/>
<path d="M228.164 484.728L227.322 483.297C228.674 482.498 260.449 463.747 263.769 462.482L264.363 464.036C261.807 465.007 239.567 477.994 228.164 484.728Z" fill="#E9EEF1"/>
<path d="M246.062 509.321L245.22 507.884C245.563 507.679 279.771 487.635 281.961 486.326L282.815 487.752C280.62 489.072 246.406 509.121 246.062 509.321Z" fill="#E9EEF1"/>
<path d="M460.425 574.239L460.242 573.846C471.251 568.67 478.346 546.59 481.329 508.228C482.886 488.19 483.236 464.441 482.36 437.64C482.265 434.778 482.271 434.767 482.31 434.683L482.338 434.622L482.393 434.589L527.849 407.195L528.07 407.567L482.715 434.905C482.715 435.221 482.748 436.259 482.792 437.629C483.668 464.446 483.324 488.212 481.761 508.267C478.762 546.79 471.583 568.991 460.425 574.239Z" fill="#E9EEF1"/>
<path d="M416.656 601.19L416.423 600.824C433.253 590.15 436.407 554.495 436.085 526.463C435.758 497.765 431.823 471.004 431.34 467.83L378.435 497.993L372.254 505.549L371.916 505.271L378.18 497.632L431.673 467.137L431.723 467.448C431.767 467.73 436.174 496.007 436.518 526.452C436.723 544.343 435.503 559.472 432.904 571.427C429.639 586.405 424.173 596.419 416.656 601.19Z" fill="#E9EEF1"/>
<path d="M432.692 475.32L432.453 474.953C432.93 474.643 480.198 443.787 482.576 442.283L482.809 442.65C480.431 444.153 433.168 475.009 432.692 475.32Z" fill="#E9EEF1"/>
<path d="M433.247 481.528L433.009 481.167C434.938 479.891 480.227 449.884 482.628 449.102L482.761 449.518C480.41 450.278 433.719 481.217 433.247 481.528Z" fill="#E9EEF1"/>
<path d="M327.202 331.264C302.457 331.264 277.55 306.655 274.496 302.428C257.866 279.388 210.598 210.403 199.206 190.892C194.904 183.525 198.319 151.194 198.469 149.818C198.74 144.359 202.094 140.226 208.447 137.552L357.014 74.8971C359.703 73.7654 362.541 73.1885 365.463 73.1885H368.872C370.973 73.1885 382.01 75.058 393.795 83.7068C400.663 88.744 426.905 118.169 449.284 144.631C470.825 170.106 494.03 198.97 495.676 204.878L495.759 204.872C495.887 206.553 498.764 246.08 494.035 251.101C490.055 255.328 379.282 310.893 341.072 328.329C336.548 330.388 331.881 331.264 327.202 331.264ZM365.457 73.6212C362.597 73.6212 359.814 74.187 357.181 75.2966L208.613 137.951C202.432 140.559 199.162 144.564 198.901 149.851C198.862 150.201 195.353 183.425 199.583 190.671C210.969 210.176 258.226 279.133 274.851 302.172C278.454 307.165 312.729 340.784 340.883 327.93C379.072 310.499 489.75 255.006 493.714 250.796C498.06 246.175 495.643 209.566 495.349 205.3L495.321 205.305C494.8 201.316 476.601 177.611 448.946 144.908C426.584 118.463 400.375 89.0713 393.534 84.0563C380.369 74.4034 368.972 73.6212 368.866 73.6212H365.457Z" fill="#E9EEF1"/>
<path d="M321.802 350.365C317.151 350.365 311.568 348.961 304.462 345.056L270.642 324.74L270.864 324.369L304.678 344.678C318.509 352.279 326.491 350.287 333.049 347.003L493.912 264.854C501.539 261.037 505.719 253.536 505.087 244.793L503.746 222.298L504.178 222.27L505.52 244.766C506.163 253.692 501.894 261.348 494.106 265.242L333.243 347.391C329.956 349.039 326.319 350.365 321.802 350.365Z" fill="#E9EEF1"/>
<path d="M325.424 341.244C316.388 341.244 283.194 324.851 274.126 315.698C267.972 309.484 239.446 267.938 193.808 198.715C192.832 197.239 192.134 196.18 191.751 195.597C186.247 187.281 191.829 147.632 195.182 143.172C199.113 137.941 224.025 127.361 267.218 112.582C268.577 112.116 269.475 111.811 269.585 111.761L269.752 112.161C269.63 112.211 268.931 112.455 267.357 112.993C224.862 127.533 199.357 138.346 195.532 143.433C193.852 145.668 191.668 156.509 190.559 168.103C189.262 181.734 189.839 191.919 192.111 195.353C192.494 195.93 193.192 196.995 194.168 198.471C239.795 267.672 268.299 309.19 274.436 315.387C279.652 320.652 291.704 327.47 301.249 332.096C313.079 337.833 322.852 341.228 326.156 340.756C330.607 340.118 373.457 319.453 412.072 300.325C455.693 278.723 492.312 259.938 493.715 258.446C496.969 254.979 495.976 242.119 495.971 241.992L496.403 241.959C496.448 242.497 497.418 255.14 494.031 258.746C492.429 260.449 450.343 281.863 412.266 300.719C373.618 319.858 330.718 340.54 326.216 341.189C325.978 341.228 325.712 341.244 325.424 341.244Z" fill="#E9EEF1"/>
<path d="M189.876 148.514C167.431 144.77 154.376 138.9 154.249 138.845L154.431 138.451C154.559 138.512 167.569 144.359 189.953 148.093L189.876 148.514Z" fill="#E9EEF1"/>
<path d="M530.078 279.594C530 279.555 522.068 275.295 506.313 257.642L506.641 257.354C522.339 274.951 530.2 279.172 530.277 279.211L530.078 279.594Z" fill="#E9EEF1"/>
<path d="M319.21 389.043C314.232 389.043 298.865 385.043 289.275 380.117C271.398 370.93 256.459 358.747 256.309 358.625L256.586 358.287C256.736 358.409 271.642 370.564 289.475 379.728C300.65 385.47 318.589 389.548 320.396 388.444C320.418 388.427 320.446 388.41 320.446 388.394C320.446 379.384 322.07 356.051 322.087 355.812L322.519 355.84C322.502 356.073 320.878 379.395 320.878 388.388C320.878 388.488 320.845 388.671 320.618 388.81C320.374 388.971 319.886 389.043 319.21 389.043Z" fill="#E9EEF1"/>
<path d="M369.089 52.6017H368.651V73.4053H369.089V52.6017Z" fill="#E9EEF1"/>
<path d="M531.088 226.603C522.878 206.337 437.189 93.3987 436.324 92.2614L436.668 91.9951C436.884 92.278 458.548 120.821 480.948 151.499C501.631 179.82 527.185 215.813 531.487 226.436L531.088 226.603Z" fill="#E9EEF1"/>
<path d="M483.739 222.033L306.143 308.439L306.335 308.833L483.93 222.427L483.739 222.033Z" fill="#E9EEF1"/>
<path d="M387.27 516.367L387.054 515.989L434.128 488.922L434.344 489.3L387.27 516.367Z" fill="#E9EEF1"/>
<path d="M434.67 495.699L389.25 521.748L389.468 522.128L434.888 496.079L434.67 495.699Z" fill="#E9EEF1"/>
<path d="M379.865 525.72C379.82 525.72 379.798 525.709 379.787 525.703L379.698 525.664L379.66 525.559C379.615 525.42 379.538 525.165 386.993 516.045L387.254 515.723L389.083 522.081L388.906 522.158C381.433 525.381 380.147 525.72 379.865 525.72ZM387.071 516.644C384.588 519.684 381.178 523.922 380.291 525.193C381.611 524.766 385.79 523.024 388.562 521.831L387.071 516.644Z" fill="#E9EEF1"/>
<path d="M396.372 554.074C395.657 554.074 392.07 551.006 385.701 544.953L385.169 544.449L385.89 544.582C392.769 545.863 394.582 546.357 395.075 546.601C396.028 546.185 405.519 540.632 415.807 534.396C430.514 525.481 436.024 521.753 436.279 521.232L436.7 521.343C436.556 522.025 429.593 526.552 416.007 534.785C409.166 538.929 395.552 547.056 395.058 547.056L394.837 546.879C394.848 546.934 394.881 546.973 394.898 546.978C394.521 546.723 389.842 545.775 386.533 545.148C390.008 548.432 395.147 553.12 396.184 553.619C396.5 553.07 398.95 551.111 416.14 540.771C426.04 534.812 436.096 528.937 436.196 528.876L436.417 529.254C420.791 538.391 397.375 552.41 396.577 553.785C396.588 553.963 396.472 554.041 396.433 554.063C396.428 554.068 396.405 554.074 396.372 554.074Z" fill="#E9EEF1"/>
<path d="M436.018 511.817L435.924 511.568C435.741 511.102 435.342 506.375 435.264 505.427L435.253 505.299L435.358 505.227C437.165 503.99 479.583 474.915 482.687 474.915C482.693 474.915 482.699 474.915 482.699 474.915L482.687 475.353C482.682 475.353 482.682 475.353 482.676 475.353C480.315 475.353 451.002 495.03 435.707 505.521C435.863 507.401 436.123 510.225 436.267 511.135L482.527 481.161L482.765 481.527L436.018 511.817Z" fill="#E9EEF1"/>
<path d="M483.026 468.701V459.614L483.132 459.553L527.844 431.05L528.077 431.416L483.464 459.853V467.908L523.892 442.284L524.125 442.65L483.026 468.701Z" fill="#E9EEF1"/>
<path d="M482.4 499.896C482.395 499.896 482.395 499.896 482.4 499.896C482.312 499.896 482.251 499.896 482.212 499.64L482.19 499.635C482.19 499.624 482.195 499.613 482.206 499.596C482.129 499.036 482.101 497.427 482.04 492.789V492.667L482.14 492.6C483.648 491.624 519.07 468.735 522.124 468.646L522.135 469.084C519.79 469.156 495.228 484.656 482.472 492.906C482.506 495.08 482.556 498.126 482.589 499.23C485.743 496.689 506.714 484.035 519.602 476.313L519.824 476.684C505.311 485.377 483.542 498.609 482.617 499.69C482.589 499.868 482.461 499.896 482.4 499.896Z" fill="#E9EEF1"/>
<path d="M436.202 544.288C436.18 544.288 436.153 544.282 436.125 544.277C435.925 544.221 435.51 544.099 436.28 537.287L436.291 537.187L481.253 508.029L481.492 508.395L436.701 537.442C436.419 539.977 436.208 542.712 436.275 543.633C438.525 541.104 476.314 516.577 480.699 513.737L480.937 514.103C463.454 525.437 437.211 542.735 436.579 543.949C436.53 544.038 436.408 544.288 436.202 544.288Z" fill="#E9EEF1"/>
<path d="M479.784 527.761C479.773 527.761 479.762 527.761 479.745 527.761C479.662 527.75 479.606 527.745 479.595 527.501L479.562 527.489C479.568 527.473 479.573 527.423 479.584 527.345C479.584 527.329 479.59 527.318 479.601 527.295C479.617 526.724 479.756 525.426 480.078 522.447L480.089 522.347L480.172 522.291L515.594 498.825L515.832 499.185L480.499 522.596C480.349 523.967 480.155 525.792 480.055 526.802C483.825 523.44 508.914 507.279 514.252 503.851L514.485 504.217C500.915 512.932 480.538 526.302 480.005 527.428C479.989 527.578 479.967 527.761 479.784 527.761Z" fill="#E9EEF1"/>
<path d="M475.569 548.632L476.201 543.933L476.284 543.877C488.097 536.344 505.83 524.716 506.268 523.54L506.678 523.695C506.052 525.37 480.004 542.024 476.605 544.194L476.129 547.716L503.48 528.877L503.729 529.237L475.569 548.632Z" fill="#E9EEF1"/>
<path d="M433.479 567.582L434.588 561.058L434.671 561.003L478.081 534.058L478.309 534.43L434.987 561.325L434.073 566.7L476.973 539.894L477.206 540.266L433.479 567.582Z" fill="#E9EEF1"/>
<path d="M427.83 586.256L429.859 580.935L473.563 553.685L473.795 554.057L430.213 581.229L428.656 585.313C434.615 581.884 471.75 558.09 472.138 557.841L472.371 558.207C471.966 558.462 432.126 583.998 428.34 585.984L427.83 586.256Z" fill="#E9EEF1"/>
<path d="M398.904 576.841L390.046 569.957L389.043 565.363L398.921 572.059C409.67 565.164 434.31 549.436 435.513 549.436C435.524 549.436 435.529 549.436 435.535 549.442L435.468 549.652L435.463 549.869C434.36 550.035 413.068 563.499 399.032 572.514L398.91 572.592L389.697 566.345L390.434 569.718L398.927 576.32L435.186 553.697L435.418 554.068L398.904 576.841Z" fill="#E9EEF1"/>
<path d="M398.001 595.104C397.979 595.104 397.973 595.098 397.962 595.093L397.846 595.021L397.851 594.965C397.374 594.327 392.701 588.813 389.569 585.14L389.503 585.068L390.091 580.958L398.954 590.544C404.814 587.016 431.893 570.733 433.024 570.733C433.029 570.733 433.029 570.733 433.035 570.733L433.013 570.95L433.018 571.166C431.987 571.316 412.131 583.116 399.032 591.01L398.882 591.104L390.395 581.928L389.963 584.941C396.011 592.036 397.679 594.039 398.128 594.649C400.041 593.573 420.751 581.124 431.81 574.467L432.032 574.839C400.451 593.845 398.278 595.104 398.001 595.104Z" fill="#E9EEF1"/>
<path d="M394.875 608.052C394.138 608.052 388.556 601.522 385.285 597.617L385.18 597.495L386.139 596.03L395.413 605.922L427.143 586.932L427.365 587.304L395.335 606.471L386.2 596.729L385.717 597.462C388.888 601.24 393.983 607.126 394.825 607.597C396.732 606.121 419.149 593.173 426.195 589.118L426.411 589.495C417.919 594.388 395.729 607.242 395.064 607.947C395.041 607.997 394.969 608.046 394.881 608.058C394.886 608.052 394.881 608.052 394.875 608.052ZM394.781 607.641C394.753 607.658 394.725 607.68 394.709 607.719C394.714 607.697 394.736 607.675 394.781 607.641Z" fill="#E9EEF1"/>
<path d="M495.093 542.389L471.78 559.014L472.031 559.366L495.344 542.742L495.093 542.389Z" fill="#E9EEF1"/>
<path d="M377.767 605.642L377.422 605.912L387.551 618.852L387.896 618.582L377.767 605.642Z" fill="#E9EEF1"/>
<path d="M354.619 438.868L354.257 439.115L368.669 460.374L369.031 460.128L354.619 438.868Z" fill="#E9EEF1"/>
<path d="M357.962 462.216C356.52 459.964 343.893 440.148 343.71 439.027L344.137 438.955C344.292 439.781 352.712 453.173 358.328 461.977L357.962 462.216Z" fill="#E9EEF1"/>
<path d="M359.597 626.897L357.918 611.88L358.006 611.808C361 609.278 387.298 587.088 388.8 586.899L388.855 587.332L388.828 587.115L388.855 587.332C387.713 587.548 370.036 602.216 358.378 612.063L360.035 626.847L359.597 626.897Z" fill="#E9EEF1"/>
<path d="M346.133 624.606L345.695 624.368C345.535 624.279 344.127 623.508 343.738 622.925C343.367 622.365 340.401 609.594 339.814 607.043L339.781 606.893L388.706 575.282L388.945 575.648L340.279 607.092C341.682 613.15 343.833 622.199 344.11 622.687C344.315 622.992 344.969 623.43 345.462 623.73L341.272 607.447L341.405 607.364C342.087 606.932 345.285 604.857 349.714 601.983C362.913 593.429 387.481 577.501 389.277 576.564L389.477 576.952C387.697 577.884 363.14 593.8 349.953 602.349C345.762 605.068 342.669 607.07 341.771 607.647L346.133 624.606Z" fill="#E9EEF1"/>
<path d="M328.799 616.967L327.457 601.55L327.568 601.478L388.462 563.005L388.301 562.134L326.099 601.118L327.746 615.858L327.313 615.908L325.634 600.896L325.75 600.824L388.612 561.43L388.944 563.216L388.822 563.294L327.917 601.778L329.237 616.928L328.799 616.967Z" fill="#E9EEF1"/>
<path d="M312.823 607.764L312.701 607.686C312.419 607.503 310.861 606.133 310.684 605.977L310.617 605.922L308.932 590.216L309.048 590.144L376.694 548.282L376.921 548.654L309.392 590.444L311.033 605.711C311.537 606.149 312.219 606.748 312.629 607.081C312.602 606.327 312.441 604.08 311.787 597.584C311.377 593.501 313.283 589.606 316.759 587.432C344.321 570.145 377.304 549.525 377.886 549.436L377.952 549.869L377.919 549.652L377.98 549.863C376.849 550.29 331.011 579.01 316.992 587.803C313.655 589.895 311.831 593.628 312.225 597.545C313.228 607.525 313.117 607.592 312.945 607.697L312.823 607.764Z" fill="#E9EEF1"/>
<path d="M294.375 594.338L293.959 594.011C293.626 593.745 293.205 593.401 292.767 593.046C292.163 592.552 292.512 581.357 292.69 576.569L292.695 576.458L292.789 576.397L354.448 534.624L354.692 534.984L293.127 576.697C292.911 582.605 292.712 592.097 293.078 592.735C293.493 593.068 293.915 593.406 294.247 593.673L294.275 593.695C294.419 591.986 294.308 583.632 294.186 577.99V577.873L294.286 577.807C315.306 563.555 355.257 536.416 355.984 535.744L356.289 536.055C355.551 536.787 298.255 575.643 294.624 578.101C294.957 594.061 294.669 594.2 294.513 594.277L294.375 594.338Z" fill="#E9EEF1"/>
<path d="M284.784 550.984C283.719 550.984 282.406 549.758 282.239 549.597L282.034 549.403L282.273 549.253L320.899 525.32L321.126 525.692L282.749 549.469C283.331 549.968 284.457 550.767 285.072 550.49C285.41 550.335 290.283 547.206 295.926 543.583C315.926 530.735 321.508 527.229 321.974 527.323L321.93 527.534L321.941 527.75C321.071 527.939 306.076 537.575 296.159 543.949C289.423 548.276 285.599 550.728 285.249 550.889C285.105 550.956 284.95 550.984 284.784 550.984Z" fill="#E9EEF1"/>
<path d="M265.488 531.805L262.467 529.026L299.901 505.132L302.506 507.795L265.488 531.805ZM263.176 529.093L265.532 531.256L301.819 507.718L299.834 505.687L263.176 529.093Z" fill="#E9EEF1"/>
<path d="M277.793 579.942L277.677 579.837L275.687 577.99L275.127 561.707L287.095 554.163L289.185 555.971L288.808 556.076C288.708 556.126 287.538 556.731 277.494 563.233C278.325 579.698 278.098 579.809 277.926 579.887L277.793 579.942ZM276.119 577.795L277.671 579.238C277.721 577.346 277.35 568.869 277.056 563.122L277.05 562.994L277.156 562.928C285.16 557.752 287.61 556.254 288.359 555.821L287.056 554.695L275.576 561.935L276.119 577.795Z" fill="#E9EEF1"/>
<path d="M260.687 563.372L260.576 563.255C260.293 562.956 259.118 560.681 258.885 560.226L258.863 560.132L258.303 544.194L258.42 544.127L270.593 537.209L272.705 538.951L272.289 539.056C271.774 539.19 264.966 543.356 260.449 546.174C261.219 563.144 261.014 563.233 260.831 563.305L260.687 563.372ZM259.295 560.076C259.667 560.803 260.221 561.846 260.576 562.462C260.598 560.176 260.266 551.81 260.005 546.074L259.999 545.947L260.105 545.88C261.169 545.214 269.85 539.811 271.824 538.801L270.543 537.747L258.747 544.449L259.295 560.076Z" fill="#E9EEF1"/>
<path d="M242.393 542.684L240.187 539.128V523.129L253.635 517.576L255.459 519.911L255.065 519.95C254.533 520.006 247.122 523.14 242.183 525.276L242.393 542.684ZM240.619 539.006L241.933 541.126L241.739 524.993L241.872 524.938C243.042 524.433 252.61 520.305 254.672 519.617L253.497 518.108L240.625 523.423V539.006H240.619Z" fill="#E9EEF1"/>
<path d="M225.398 519.972L222.688 516.256V500.384L235.631 494.575L235.809 494.975L223.12 500.667V516.117L224.905 518.563L224.278 502.514L224.411 502.453C224.905 502.226 236.507 496.856 237.771 496.578L237.865 497.005C236.906 497.216 228.929 500.844 224.727 502.791L225.398 519.972Z" fill="#E9EEF1"/>
<path d="M209.795 497.749L207.339 494.054V478.931L207.461 478.87L220.677 472.324L220.871 472.712L207.772 479.197V493.915L209.318 496.234L208.897 481.211L209.013 481.145C209.479 480.89 220.427 474.837 221.747 474.51L221.852 474.931C220.849 475.175 213.298 479.27 209.341 481.461L209.795 497.749Z" fill="#E9EEF1"/>
<path d="M194.001 474.277L193.657 473.733L195.076 472.862L194.367 473.295L194.245 472.485C193.857 472.551 193.646 472.862 193.607 473.039C193.79 472.224 194.001 463.614 194.089 458.377L194.101 457.9L206.595 450.91L207.405 452.364L195.741 458.887C195.481 473.872 195.392 473.899 194.599 474.116L194.001 474.277Z" fill="#E9EEF1"/>
<path d="M179.179 448.963L178.835 448.347C176.873 444.869 176.939 444.747 177.023 444.608L177.089 444.497H177.139C177.072 442.589 177.516 436.325 177.732 433.429L177.743 433.307L177.849 433.252L191.252 426.267L192.649 427.649C192.865 427.865 192.965 428.17 192.915 428.47C192.865 428.775 192.671 429.019 192.394 429.152C189.517 430.5 181.357 434.816 180.337 435.36L179.179 448.963ZM177.488 444.896C177.605 445.174 177.937 445.851 178.868 447.52L179.927 435.099L180.033 435.044C180.121 434.994 189.146 430.212 192.217 428.769C192.367 428.703 192.466 428.57 192.494 428.409C192.522 428.248 192.472 428.087 192.355 427.971L191.186 426.811L178.17 433.59C177.86 437.729 177.438 444.342 177.605 444.846L177.488 444.896Z" fill="#E9EEF1"/>
<path d="M164.738 420.964L164.65 420.803C164.406 420.337 164.378 420.187 164.361 419.965C164.339 419.732 164.306 419.383 163.685 417.946L163.663 417.896L163.668 417.846C163.946 413.391 164.328 406.601 164.245 406.163L164.206 406.08L164.25 406.019C164.367 405.68 168.685 403.439 177.089 399.356L177.277 399.75C172.532 402.058 165.387 405.614 164.677 406.174C164.738 407.25 164.411 412.975 164.112 417.818C164.627 419.011 164.744 419.477 164.783 419.755C164.966 417.585 165.237 411.866 165.398 407.872L165.403 407.744L165.52 407.688C165.974 407.461 176.656 402.169 178.841 401.514L178.963 401.93C176.928 402.54 167.011 407.433 165.825 408.021C165.304 420.836 165.121 420.881 164.905 420.931L164.738 420.964Z" fill="#E9EEF1"/>
<path d="M152.686 397.498C152.581 397.498 152.442 397.431 152.32 397.181C151.694 395.917 151.489 394.369 151.483 394.302L151.35 379.285L151.445 379.218C152.387 378.564 153.618 378.12 165.386 373.831L166.345 373.482L166.495 373.892L165.536 374.242C154.222 378.364 152.692 378.924 151.788 379.512L151.916 394.274C151.916 394.274 152.11 395.728 152.675 396.915C153.146 395.123 152.897 382.441 152.32 381.121L152.282 381.032L152.32 380.927C152.448 380.638 154.056 379.995 163.695 376.744C165.541 376.123 167.132 375.584 167.276 375.512L167.371 375.707L167.387 375.701L167.587 375.784C167.531 375.912 167.531 375.912 163.834 377.154C160.236 378.364 153.667 380.583 152.769 381.093C153.047 382.108 153.268 385.97 153.34 389.476C153.501 397.148 152.986 397.387 152.814 397.47C152.781 397.481 152.736 397.498 152.686 397.498Z" fill="#E9EEF1"/>
<path d="M138.278 366.153C138.156 366.153 138.078 366.015 137.84 365.576L136.909 362.481L136.925 362.42L140.246 351.153L140.362 351.119L155.185 346.992L155.302 347.413L140.595 351.508L137.358 362.481L137.995 364.622C138.006 364.483 138.023 364.339 138.051 364.195L141.244 352.961L141.36 352.928L156.144 348.695L156.266 349.117L141.598 353.316L138.472 364.3C138.361 364.866 138.444 365.415 138.494 365.709C138.522 365.909 138.55 366.081 138.361 366.142C138.333 366.148 138.306 366.153 138.278 366.153Z" fill="#E9EEF1"/>
<path d="M160.121 356.6L159.473 355.069C162.677 353.716 190.831 341.833 192.517 341.444L192.888 343.064C191.68 343.353 172.627 351.319 160.121 356.6Z" fill="#E9EEF1"/>
<path d="M148.038 328.507L147.44 326.954C150.306 325.844 175.472 316.108 177.141 315.725L177.512 317.345C176.337 317.617 159.242 324.169 148.038 328.507Z" fill="#E9EEF1"/>
<path d="M138.717 300.675L138.052 299.149C140.109 298.256 158.208 290.395 159.893 290.007L160.264 291.627C159.106 291.898 146.744 297.185 138.717 300.675Z" fill="#E9EEF1"/>
<path d="M129.353 272.199C128.699 272.199 128.516 271.733 128.472 271.572C128.2 270.568 128.2 270.568 143.339 264.926C144.725 264.41 145.928 263.96 146.078 263.894L146.732 265.425C146.554 265.503 145.69 265.824 143.921 266.485C139.941 267.966 130.617 271.444 129.802 271.977C129.991 271.855 130.202 271.483 130.057 271.078C129.919 270.673 129.52 270.518 129.298 270.534L129.625 272.165C129.531 272.193 129.437 272.199 129.353 272.199Z" fill="#E9EEF1"/>
<path d="M122.541 246.569L122.036 244.982C124.897 244.072 134.27 241.088 134.863 240.994L135.118 242.636L134.991 241.815L135.135 242.636C134.564 242.763 127.291 245.054 122.541 246.569Z" fill="#E9EEF1"/>
<path d="M90.914 177.318L90.6479 176.974L99.2291 170.2L145.993 162.084L146.07 162.511L99.3566 170.616L90.914 177.318Z" fill="#E9EEF1"/>
<path d="M93.0393 202.365L92.6846 202.105L98.8044 193.866L138.85 185.373L138.938 185.8L99.0539 194.26L93.0393 202.365Z" fill="#E9EEF1"/>
<path d="M93.1226 153.99L92.8787 153.629L101.077 148.082L130.479 145.086L130.524 145.519L101.177 148.509L93.1226 153.99Z" fill="#E9EEF1"/>
<path d="M120.136 132.804L106.804 131.988L97.9568 127.816L98.1453 127.422L106.954 131.572L120.163 132.371L120.136 132.804Z" fill="#E9EEF1"/>
<path d="M197.692 369.898L197.576 369.476C198.119 369.327 198.557 368.85 198.873 368.062C200.12 364.944 199.1 358.337 196.772 354.465C193.413 348.873 190.691 348.257 189.36 348.39C188.424 348.484 187.864 348.978 187.808 349.122C187.814 349.111 187.819 349.067 187.792 349.022L187.409 349.228C187.243 348.917 187.736 348.529 188.058 348.346C188.745 347.952 192.426 346.387 197.143 354.243C199.527 358.209 200.563 365.005 199.277 368.223C198.906 369.149 198.374 369.709 197.692 369.898Z" fill="#E9EEF1"/>
<path d="M95.8495 226.68L95.5613 226.353C96.6145 225.415 97.385 224.628 98.0613 223.934C99.813 222.142 100.872 221.055 104.314 220.178C113.644 217.704 138.018 211.202 138.772 210.808L138.86 210.975L139.099 211.058C139.049 211.202 138.966 211.446 104.425 220.606C101.099 221.454 100.129 222.447 98.3718 224.245C97.6899 224.944 96.9194 225.737 95.8495 226.68Z" fill="#E9EEF1"/>
<path d="M100.956 255.556L100.69 255.218L108.539 249.06L122.076 245.809L122.176 246.23L108.689 249.47L100.956 255.556Z" fill="#E9EEF1"/>
<path d="M106.147 281.07L105.909 280.709L114.7 274.879L128.298 269.592L128.454 269.997L114.9 275.267L106.147 281.07Z" fill="#E9EEF1"/>
<path d="M116.439 308.225L116.068 307.998L121.445 299.221L121.511 299.194L135.225 293.774L135.386 294.184L121.738 299.571L116.439 308.225Z" fill="#E9EEF1"/>
<path d="M126.827 340.346L126.428 340.174L131.999 327.015L145.675 321.079L145.847 321.478L132.332 327.348L126.827 340.346Z" fill="#E9EEF1"/>
<path d="M114.437 114.236H113.999V128.72H114.437V114.236Z" fill="#E9EEF1"/>
<path d="M126.469 122.627L122.541 134.59L122.957 134.727L126.885 122.763L126.469 122.627Z" fill="#E9EEF1"/>
<path d="M289.906 280.942C285.155 280.942 281.352 279.167 279.473 276.642L212.554 186.427C210.913 184.219 210.492 181.495 211.34 178.549C212.692 173.856 217.138 169.213 222.16 167.26L378.217 102.68C384.015 100.422 391.66 102.353 396.006 107.168L462.731 187.531C465.259 190.332 466.296 194.31 465.497 198.166C464.76 201.727 462.554 204.59 459.438 206.021L299.402 278.739C296.037 280.282 292.794 280.942 289.906 280.942ZM378.372 103.085L222.321 167.67C217.415 169.579 213.075 174.106 211.755 178.677C210.946 181.484 211.345 184.075 212.903 186.172L279.822 276.382C283.586 281.447 292.639 281.358 299.219 278.346L459.25 205.622C462.238 204.251 464.355 201.5 465.065 198.077C465.83 194.354 464.832 190.515 462.393 187.814L395.668 107.451C391.449 102.774 384.01 100.894 378.372 103.085Z" fill="#E9EEF1"/>
<path d="M288.781 272.676L288.382 272.149L218.519 179.714L386.339 108.1L386.732 108.577L459.056 195.764L288.781 272.676ZM221.13 180.408L289.308 270.612L456.384 195.142L385.851 110.119L221.13 180.408Z" fill="#E9EEF1"/>
<path d="M284.611 292.475C283.78 292.475 282.921 292.198 282.161 291.688C280.421 290.506 279.761 288.42 280.698 287.033C281.158 286.351 281.923 285.946 282.849 285.879C283.758 285.818 284.717 286.096 285.554 286.661C287.3 287.843 287.954 289.929 287.017 291.31C286.557 291.993 285.792 292.398 284.866 292.464C284.783 292.475 284.7 292.475 284.611 292.475ZM283.109 286.306C283.032 286.306 282.96 286.306 282.882 286.312C282.089 286.367 281.441 286.711 281.058 287.277C280.254 288.464 280.859 290.279 282.405 291.327C283.165 291.837 284.029 292.087 284.839 292.032C285.631 291.976 286.28 291.632 286.663 291.066C287.466 289.879 286.862 288.065 285.315 287.022C284.628 286.556 283.852 286.306 283.109 286.306Z" fill="#E9EEF1"/>
<path d="M474.655 205.128C474.129 205.128 473.596 204.923 473.114 204.529C472.51 204.03 472.066 203.286 471.861 202.432C471.656 201.578 471.712 200.712 472.028 199.991C472.349 199.253 472.898 198.754 473.574 198.593C474.949 198.26 476.412 199.447 476.845 201.234C477.05 202.088 476.995 202.953 476.679 203.675C476.357 204.412 475.808 204.912 475.132 205.073C474.971 205.111 474.81 205.128 474.655 205.128ZM473.674 199.015C473.136 199.142 472.693 199.553 472.427 200.163C472.155 200.795 472.105 201.566 472.288 202.326C472.471 203.092 472.865 203.752 473.397 204.19C473.912 204.612 474.494 204.773 475.032 204.645C475.575 204.518 476.019 204.107 476.279 203.497C476.551 202.865 476.601 202.093 476.418 201.333C476.041 199.78 474.81 198.743 473.674 199.015Z" fill="#E9EEF1"/>
<path d="M384.868 112.033L224.105 180.832L224.275 181.23L385.038 112.43L384.868 112.033Z" fill="#E9EEF1"/>
<path d="M385.012 112.226L384.675 112.505L451.847 193.661L452.184 193.381L385.012 112.226Z" fill="#E9EEF1"/>
<path d="M209.299 366.664L209.138 366.259C209.565 366.092 209.914 365.643 210.164 364.927C211.306 361.676 210.131 354.453 207.78 350.343C205.652 346.615 202.913 344.473 199.648 343.974C196.017 343.419 192.736 345.161 192.181 345.677L191.882 345.361C192.492 344.79 195.862 342.959 199.709 343.547C203.113 344.063 205.956 346.282 208.152 350.132C210.546 354.326 211.744 361.732 210.569 365.077C210.28 365.909 209.848 366.447 209.299 366.664Z" fill="#E9EEF1"/>
<path d="M199.274 343.391L191.512 348.378L191.746 348.742L199.508 343.755L199.274 343.391Z" fill="#E9EEF1"/>
<path d="M203.85 345.466L194.538 350.738L194.753 351.12L204.066 345.848L203.85 345.466Z" fill="#E9EEF1"/>
<path d="M207.46 349.344L197.08 354.224L197.266 354.621L207.647 349.741L207.46 349.344Z" fill="#E9EEF1"/>
<path d="M209.685 353.761L198.51 358.477L198.678 358.876L209.853 354.16L209.685 353.761Z" fill="#E9EEF1"/>
<path d="M210.694 359.318L199.743 362.498L199.865 362.919L210.816 359.739L210.694 359.318Z" fill="#E9EEF1"/>
<path d="M210.395 363.757L199.448 366.39L199.551 366.816L210.497 364.183L210.395 363.757Z" fill="#E9EEF1"/>
<path d="M459.7 109.099L459.489 108.721L466.696 104.655L466.906 105.032L459.7 109.099Z" fill="#E9EEF1"/>
<path d="M470.558 108.914L462.802 113.542L463.026 113.918L470.782 109.29L470.558 108.914Z" fill="#E9EEF1"/>
<path d="M467.664 118.152L467.415 117.792L474.067 113.17L474.316 113.525L467.664 118.152Z" fill="#E9EEF1"/>
<path d="M520.478 190.843L520.295 190.449L529.165 186.377L529.348 186.777L520.478 190.843Z" fill="#E9EEF1"/>
<path d="M532.496 190.62L523.629 195.25L523.832 195.638L532.698 191.009L532.496 190.62Z" fill="#E9EEF1"/>
<path d="M534.862 194.933L527.652 201.219L527.936 201.545L535.146 195.259L534.862 194.933Z" fill="#E9EEF1"/>
<path d="M303.947 259.955L292.833 255.95L292.689 255.783L268.032 226.985L268.847 221.998L261.241 219.058L261.103 218.897L237.776 191.658L237.566 183.559L248.808 185.312L280.604 200.34L290.078 212.351L280.05 211.33L261.23 202.354L271.807 214.575L271.524 219.979L278.636 222.348L303.443 251.012L303.947 259.955ZM345.883 239.545L335.229 235.695L310.638 208.484L311.309 203.774L303.947 200.934L293.459 189.273L295.56 202.254L291.702 210.897L283.897 199.314L283.864 199.17L277.683 174.411L280.521 167.265L290.316 170.866L313.643 196.662L314.136 201.771L320.472 204.074L320.611 204.224L344.935 231.007L345.883 239.545Z" fill="#E9EEF1"/>
<path d="M379.703 222.07L367.009 219.657L338.438 207.241L330.007 198.149L341.032 196.812L366.371 210.221L379.703 222.07ZM380.662 221.682L371.754 212.556L371.693 212.395L363.405 190.748L366.332 182.643L373.96 190.998L374.015 191.187L379.675 211.325L380.662 221.682ZM329.879 197.982L319.652 194.155L296.475 168.846L295.727 161.107L305.949 164.969L329.153 190.083L329.879 197.982ZM366.51 182.51L357.302 178.166L357.197 178.055L334.197 153.995L333.355 146.761L343.084 150.395L366.122 174.305L366.51 182.51Z" fill="#E9EEF1"/>
<path d="M410.597 210.126L400.857 205.999L400.735 205.86L378.262 180.657L377.586 175.936L371.71 173.528L349.193 148.27L348.389 136.759L361.178 131.794L367.237 134.612L366.15 129.863L378.989 124.881L387.509 128.044L387.603 128.132L393.678 130.701L415.857 159.415L415.514 167.631L404.527 172.613L398.767 169.684L399.421 174.583L388.595 178.799L409.632 202.382L410.597 210.126ZM359.57 146.456L379.742 168.397L388.906 165.279L396.683 166.422L396.927 162.172L404.97 158.028L386.378 136.049L375.502 140.27L370.152 138.257L370.391 142.257L359.57 146.456Z" fill="#E9EEF1"/>
</g>
<defs>
<clipPath id="clip0_3833_30609">
<rect width="618" height="587" fill="white" transform="translate(26 42)"/>
</clipPath>
</defs>
</svg>
