<svg width="618" height="587" viewBox="0 0 618 587" fill="none" xmlns="http://www.w3.org/2000/svg">
<g opacity="0.8" clip-path="url(#clip0_3421_16031)">
<path d="M350.805 565.74L350.451 565.998L359.676 578.635L360.03 578.377L350.805 565.74Z" fill="#E9EEF1"/>
<path d="M342.782 568.833L342.382 568.999L348.613 584.028L349.012 583.863L342.782 568.833Z" fill="#E9EEF1"/>
<path d="M340.314 570.161L339.907 570.323L345.478 584.374L345.885 584.213L340.314 570.161Z" fill="#E9EEF1"/>
<path d="M337.727 587H337.683C336.701 586.994 313.153 586.567 275.475 558.607C253.412 542.236 231.095 519.757 209.132 491.791C181.709 456.858 154.768 413.215 129.058 362.06C97.3556 298.984 77.3995 240.972 68.0479 184.703C55.7749 110.858 72.089 76.1855 81.4129 71.7086C81.607 71.6143 81.8287 71.5366 82.0671 71.4645C99.512 65.1569 227.669 18.8508 230.879 18.7732C240.003 18.5513 256.3 18.3848 257.914 18.3682L314.096 0L334.739 9.76937H343.076L343.259 9.86923L402.108 41.2577L411.37 49.4349H418.083L418.333 49.7178L463.827 101.35L463.855 101.394L507.764 167.033L508.911 179.665L506.689 184.675C506.905 188.941 507.376 195.898 507.747 197.013C508.113 198.1 509.128 210.394 509.726 219.847C511.118 241.743 510.186 242.759 509.787 243.191C509.71 243.274 509.344 243.507 508.706 243.879L509.455 243.857L511.938 324.664L507.792 327.06V344.496L506.123 347.725L505.569 361.983L502.808 365.655V389.432L502.72 389.61C502.653 389.748 501.007 393.01 499.305 394.952C499.033 395.546 498.917 398.719 498.795 402.07C498.313 415.146 497.32 442.357 486.117 470.738C471.222 508.484 449.415 522.392 449.198 522.531C432.995 532.911 352.029 584.742 350.349 585.302C348.647 585.868 338.891 586.889 337.788 587.005L337.727 587ZM82.1003 73.2287C77.6933 75.3811 71.7065 85.2171 68.2419 102.37C65.1875 117.46 62.9646 143.95 69.6943 184.436C79.0127 240.528 98.9189 298.39 130.544 361.317C156.165 412.288 183.001 455.787 210.313 490.604C232.154 518.448 254.344 540.833 276.268 557.131C295.758 571.622 311.424 578.523 321.136 581.757C331.197 585.108 337.112 585.324 337.649 585.341C341.923 584.897 348.653 584.104 349.806 583.721C351.868 582.778 415.134 542.358 448.295 521.122C448.356 521.083 453.738 517.682 460.862 509.733C467.436 502.393 476.887 489.567 484.554 470.128C495.652 442.013 496.638 414.996 497.115 402.009C497.326 396.25 497.415 394.558 498.008 393.887C499.366 392.35 500.763 389.732 501.123 389.038V365.1L503.906 361.4L504.46 347.287L506.118 344.092V326.101L510.231 323.721L507.797 244.395C496.589 250.725 440.584 280.05 401.808 300.188C381.231 310.872 351.718 326.145 327.998 338.189C293.957 355.475 293.291 355.259 292.72 355.07C292.388 354.959 291.839 354.932 291.08 354.887C286.706 354.643 276.462 354.072 247.126 338.067C242.387 335.482 226.649 325.357 224.554 324.009L203.389 324.087L203.145 323.843C202.846 323.543 173 293.68 152.268 259.701C131.63 225.883 108.659 182.55 108.659 178.695V178.273L124.102 166.961C123.404 163.039 119.224 139.334 119.751 135.079C120.261 130.974 123.154 100.162 123.576 95.6744L102.882 84.2296L92.4387 73.7779C90.1936 73.3008 84.9496 72.4298 82.638 73.0289C82.4606 73.0955 82.2832 73.1621 82.1003 73.2287ZM225.036 322.339L225.241 322.472C225.418 322.589 242.996 333.917 247.919 336.602C276.922 352.43 287.271 353.007 291.168 353.223C291.955 353.267 292.548 353.301 293.047 353.428C296.379 352.541 337.816 331.548 401.636 298.396C455.185 270.58 505.574 244.023 508.529 242.06C509.726 238.809 506.761 199.665 506.156 197.523C505.585 195.809 505.064 185.701 505.009 184.553L504.998 184.353L507.21 179.377L506.14 167.599L462.497 102.359L417.324 51.0881H410.733L401.149 42.6224L342.66 11.4337H334.368L313.985 1.78634L258.191 20.0325H258.063C257.886 20.0325 240.469 20.2045 230.923 20.4375C227.68 20.8202 138.576 52.8134 87.4109 71.3036C90.0661 71.5588 92.5662 72.0914 93.0429 72.1968L93.2813 72.2467L103.902 82.876L125.339 94.7313L125.289 95.2749C125.255 95.63 121.957 130.841 121.408 135.273C120.981 138.707 124.119 157.641 125.837 167.167L125.932 167.677L110.394 179.061C111.669 184.098 132.057 223.37 153.687 258.824C173.322 291.006 201.188 319.493 204.076 322.411L225.036 322.339Z" fill="#E9EEF1"/>
<path d="M354.584 508.479C354.13 508.479 353.609 508.385 353.016 508.163C352.655 508.024 309.439 485.872 277.376 448.032C268.557 437.625 255.658 421.747 244.294 405.215C222.27 373.178 203.744 340.585 203.561 340.264L204.465 339.753L200.074 339.548L199.853 339.354C199.309 338.877 187.097 328.081 184.054 324.741C181.887 325.313 173.294 327.571 171.653 328.064C170.068 328.536 167.829 327.632 165.672 325.64C161.964 322.212 158.266 315.266 160.035 306.961L160.101 306.64L167.141 301.791C162.008 292.182 154.275 280.294 146.104 267.728C137.684 254.786 128.981 241.399 121.519 228.202C118.969 223.68 107.212 194.528 105.394 189.812L105.288 189.54L108.697 178.445L110.288 178.933L107.046 189.479C109.008 194.505 120.521 223.053 122.966 227.381C130.4 240.534 139.086 253.898 147.495 266.819C155.877 279.706 163.793 291.872 168.959 301.663L169.303 302.318L161.598 307.627C160.134 315.1 163.46 321.324 166.803 324.414C168.704 326.167 170.373 326.705 171.182 326.467C173.084 325.901 183.688 323.116 184.137 322.999L184.653 322.866L184.991 323.277C187.025 325.74 198.966 336.342 200.739 337.911L218.451 338.733L218.661 338.899C218.911 339.093 243.579 358.393 251.655 360.895C259.915 363.453 285.037 374.143 286.102 374.592L286.335 374.692L286.473 374.909C294.295 387.036 307.372 406.624 309.323 407.817C311.529 408.405 314.805 409.387 314.839 409.393L315.11 409.476L315.276 409.709C315.47 409.986 335.033 437.519 346.846 463.06C356.397 483.709 360.76 503.242 356.78 507.525C356.325 508.007 355.621 508.479 354.584 508.479ZM205.202 339.787C207.242 343.359 224.897 374.065 245.663 404.278C256.988 420.749 269.849 436.582 278.646 446.961C310.298 484.308 353.243 506.471 353.603 506.609C354.767 507.048 355.277 506.698 355.56 506.393C358.559 503.164 355.094 484.863 345.333 463.759C334.163 439.611 316.008 413.631 314.085 410.907C313.242 410.658 310.653 409.898 308.841 409.409C308.253 409.254 307.155 408.96 295.891 392.223C290.902 384.811 286.08 377.366 285.209 376.024C282.593 374.914 258.917 364.884 251.156 362.482C243.102 359.986 220.435 342.394 217.841 340.369L205.202 339.787Z" fill="#E9EEF1"/>
<path d="M113.625 175.749H111.962L111.996 145.303L113.548 132.677L119.246 116.75C116.369 114.492 102.012 103.014 100.41 97.6605C99.8722 95.863 100.188 93.0948 100.526 90.1656C100.931 86.6373 101.391 82.6375 100.088 81.2672C99.8168 80.9843 99.7502 80.5738 99.911 80.2021C100.282 79.3366 101.269 77.0344 177.779 47.7152C209.891 35.4105 254.089 18.923 255.291 18.923V19.7551L255.408 20.5762C253.828 20.9035 218.04 34.068 178.521 49.213C115.111 73.5116 103.653 79.2978 101.718 80.6681C103.054 82.7817 102.611 86.6262 102.184 90.3598C101.884 92.9949 101.568 95.7188 102.006 97.1834C103.326 101.594 115.981 112.123 120.748 115.807L121.225 116.178L115.155 133.154L113.664 145.459L113.625 175.749Z" fill="#E9EEF1"/>
<path d="M355.35 560.998L354.058 559.95C355.161 558.585 356.048 557.281 356.835 556.127C356.913 556.016 356.991 555.9 357.063 555.794C352.39 557.059 341.475 558.696 324.717 553.481C311.607 549.404 297.616 541.942 283.131 531.302C265.059 518.032 246.151 499.736 226.932 476.935C189.06 431.999 150.711 357.034 150.328 356.285L150.894 355.986L150.301 356.224C150.273 356.157 150.134 355.858 149.896 355.336C142.717 339.786 124.441 299.139 109.89 257.709C105.278 244.573 101.963 231.713 98.7531 219.275C97.8938 215.941 97.0014 212.491 96.12 209.168C91.0921 190.228 87.5388 168.931 86.1142 149.203C84.8669 131.917 85.3603 116.838 87.428 108.872C88.9579 102.986 91.1531 99.6352 94.1354 98.6477C98.293 97.2608 102.805 100.872 106.431 103.774C107.534 104.656 108.576 105.488 109.463 106.065L108.559 107.463C107.6 106.842 106.525 105.987 105.388 105.077C102.079 102.431 97.9604 99.1359 94.6565 100.229C92.2839 101.017 90.3937 104.068 89.0355 109.294C85.3658 123.434 86.3415 165.863 97.722 208.746C98.6089 212.074 99.4959 215.531 100.355 218.865C103.554 231.269 106.857 244.095 111.447 257.166C125.977 298.534 144.225 339.121 151.398 354.649C151.559 354.998 151.692 355.281 151.781 355.519L151.792 355.514L151.781 355.519C151.786 355.531 151.786 355.536 151.792 355.547L151.809 355.542C152.191 356.291 190.451 431.089 228.202 475.875C271.501 527.252 304.855 545.576 325.211 551.906C347.079 558.707 358.837 553.476 358.953 553.42L362.567 551.756L359.923 554.729C359.441 555.273 358.87 556.111 358.21 557.081C357.406 558.246 356.497 559.578 355.35 560.998Z" fill="#E9EEF1"/>
<path d="M334.322 570.268C325.653 570.268 315.203 566.94 302.853 560.288C267.591 541.287 234.381 503.475 234.054 503.097C233.91 502.953 218.161 487.187 197.202 459.277C177.855 433.519 149.978 391.856 127.034 339.642C92.9976 262.175 74.7101 197.867 72.6923 148.499C71.4229 117.46 74.1613 100.051 82.1548 88.4234C82.9808 87.2195 84.1005 86.576 85.4753 86.5094C91.4399 86.221 100.415 96.828 100.792 97.2829L100.459 97.5603C100.37 97.4549 91.4843 86.9366 85.7136 86.9366C85.6416 86.9366 85.5695 86.9366 85.4919 86.9422C84.2557 87.0032 83.2524 87.5801 82.5096 88.6675C74.6768 100.062 71.8719 117.948 73.1247 148.476C75.1425 197.789 93.4134 262.047 127.433 339.465C150.355 391.634 178.21 433.269 197.545 459.005C218.494 486.893 234.22 502.643 234.376 502.798C234.719 503.186 267.874 540.938 303.063 559.9C327.349 572.986 344.19 573.131 354.539 560.332L354.877 560.604C349.666 567.05 342.854 570.268 334.322 570.268Z" fill="#E9EEF1"/>
<path d="M355.348 560.921L354.462 559.511C373.647 547.423 354.312 487.919 354.112 487.32L355.692 486.799C356.518 489.301 375.632 548.144 355.348 560.921Z" fill="#E9EEF1"/>
<path d="M315.416 410.341L313.781 410.042L316.63 394.464L317.007 394.281C317.179 394.198 321.164 392.267 325.277 393.604C331.78 392.5 458.573 316.77 507.083 287.561L507.942 288.987C507.499 289.253 462.797 316.165 418.206 342.566C327.672 396.162 325.782 395.524 324.873 395.219C322.035 394.253 319.13 395.207 318.121 395.612L315.416 410.341Z" fill="#E9EEF1"/>
<path d="M342.581 9.85797L124.146 94.3975L124.746 95.9497L343.181 11.4103L342.581 9.85797Z" fill="#E9EEF1"/>
<path d="M353.536 582.684L353.359 582.284C363.159 577.935 369.307 568.549 371.635 554.391C373.503 543.03 372.927 528.589 369.922 511.469C364.928 483.015 354.772 456.453 354.179 454.928L350.443 452.575L331.806 419.933L342.799 418.041C349.811 414.075 503.041 327.426 506.899 326.361L507.015 326.783C503.207 327.831 344.584 417.531 342.982 418.435L342.91 418.458L332.494 420.249L350.798 452.304L354.539 454.628L354.567 454.695C354.673 454.966 365.227 482.178 370.355 511.38C373.37 528.545 373.947 543.035 372.073 554.452C369.712 568.776 363.481 578.274 353.536 582.684Z" fill="#E9EEF1"/>
<path d="M363.123 527.579C262.926 487.154 197.609 363.808 179.975 326.972C179.576 326.139 179.26 325.479 179.194 325.363L180.585 324.447C180.679 324.581 180.796 324.819 181.478 326.25C199.045 362.953 264.107 485.839 363.749 526.037L363.123 527.579Z" fill="#E9EEF1"/>
<path d="M447.005 82.9429L445.453 82.3437L448.469 74.5271C448.347 68.5745 440.703 63.332 439.162 62.339L428.701 64.4915L428.369 62.8604L439.472 60.5748L439.749 60.7413C440.17 60.9964 450.137 67.0822 450.132 74.6769V74.8322L447.005 82.9429Z" fill="#E9EEF1"/>
<path d="M506.894 165.78L505.442 164.97L509.522 157.653C510.232 151.739 503.402 145.481 502.016 144.277L491.362 144.943L491.257 143.284L502.571 142.58L502.82 142.785C503.203 143.096 512.222 150.518 511.146 158.041L511.124 158.196L506.894 165.78Z" fill="#E9EEF1"/>
<path d="M218.882 339.936L217.402 339.171C223.533 327.299 227.447 316.315 225.956 315.188C204.708 299.128 178.183 259.868 159.674 229.761C139.646 197.179 124.424 167.999 124.274 167.71L125.748 166.939C125.898 167.228 141.098 196.364 161.093 228.895C179.525 258.88 205.911 297.958 226.954 313.857C228.157 314.767 228.944 317.23 224.304 328.298C221.832 334.206 218.91 339.881 218.882 339.936Z" fill="#E9EEF1"/>
<path d="M210.429 380.663L174.812 399.746L175.597 401.214L211.214 382.13L210.429 380.663Z" fill="#E9EEF1"/>
<path d="M186.922 417.67L186.096 416.227C186.179 416.177 194.754 411.257 203.336 406.563C221.335 396.716 221.756 397.332 222.338 398.192L220.958 399.124C221.124 399.374 221.351 399.418 221.446 399.424C219.339 399.479 199.15 410.646 186.922 417.67Z" fill="#E9EEF1"/>
<path d="M188.433 341.945L187.629 340.486C197.596 334.999 197.818 335.199 198.345 335.693L197.214 336.913C197.458 337.14 197.746 337.135 197.829 337.113C197.164 337.268 192.524 339.692 188.433 341.945Z" fill="#E9EEF1"/>
<path d="M216.371 359.232L201.394 366.391L202.11 367.893L217.087 360.734L216.371 359.232Z" fill="#E9EEF1"/>
<path d="M180.284 409.337L179.497 407.873L216.499 387.973L230.058 380.656L230.845 382.121L217.291 389.438L180.284 409.337Z" fill="#E9EEF1"/>
<path d="M231.29 412.344L230.641 410.813C230.763 410.763 242.753 405.659 245.686 404.023L246.495 405.476C243.491 407.157 231.789 412.133 231.29 412.344Z" fill="#E9EEF1"/>
<path d="M260.672 426.799L247.883 433.676L248.67 435.142L261.459 428.265L260.672 426.799Z" fill="#E9EEF1"/>
<path d="M277.548 446.77L265.486 454.272L266.364 455.685L278.425 448.184L277.548 446.77Z" fill="#E9EEF1"/>
<path d="M293.693 464.885L282.161 471.354L282.974 472.806L294.507 466.337L293.693 464.885Z" fill="#E9EEF1"/>
<path d="M302.143 489.861L301.234 488.469C313.712 480.303 313.962 480.48 314.538 480.935L313.518 482.25C313.784 482.455 314.073 482.427 314.161 482.4C313.38 482.644 307.382 486.427 302.143 489.861Z" fill="#E9EEF1"/>
<path d="M146.747 344.391L146.115 342.849C149.546 341.44 179.685 329.063 181.371 328.675L181.742 330.295C180.522 330.583 160.145 338.882 146.747 344.391Z" fill="#E9EEF1"/>
<path d="M160.977 376.04L160.195 374.57C169.696 369.511 194.542 356.263 195.357 355.758L196.244 357.167C195.285 357.767 162.379 375.291 160.977 376.04Z" fill="#E9EEF1"/>
<path d="M202.164 442.728L201.322 441.297C202.674 440.498 234.449 421.747 237.769 420.482L238.363 422.036C235.807 423.007 213.567 435.994 202.164 442.728Z" fill="#E9EEF1"/>
<path d="M220.062 467.321L219.22 465.884C219.563 465.679 253.771 445.635 255.961 444.326L256.815 445.752C254.62 447.072 220.406 467.121 220.062 467.321Z" fill="#E9EEF1"/>
<path d="M434.425 532.239L434.242 531.846C445.251 526.67 452.346 504.59 455.329 466.228C456.886 446.19 457.236 422.441 456.36 395.64C456.265 392.778 456.271 392.767 456.31 392.683L456.338 392.622L456.393 392.589L501.849 365.195L502.07 365.567L456.715 392.905C456.715 393.221 456.748 394.259 456.792 395.629C457.668 422.446 457.324 446.212 455.761 466.267C452.762 504.79 445.583 526.991 434.425 532.239Z" fill="#E9EEF1"/>
<path d="M390.656 559.19L390.423 558.824C407.253 548.15 410.407 512.495 410.085 484.463C409.758 455.765 405.823 429.004 405.34 425.83L352.435 455.993L346.254 463.549L345.916 463.271L352.18 455.632L405.673 425.137L405.723 425.448C405.767 425.73 410.174 454.007 410.518 484.452C410.723 502.343 409.503 517.472 406.904 529.427C403.639 544.405 398.173 554.419 390.656 559.19Z" fill="#E9EEF1"/>
<path d="M406.692 433.32L406.453 432.953C406.93 432.643 454.198 401.787 456.576 400.283L456.809 400.65C454.431 402.153 407.168 433.009 406.692 433.32Z" fill="#E9EEF1"/>
<path d="M407.247 439.528L407.009 439.167C408.938 437.891 454.227 407.884 456.628 407.102L456.761 407.518C454.41 408.278 407.719 439.217 407.247 439.528Z" fill="#E9EEF1"/>
<path d="M301.202 289.264C276.457 289.264 251.55 264.655 248.496 260.428C231.866 237.388 184.598 168.403 173.206 148.892C168.904 141.525 172.319 109.194 172.469 107.818C172.74 102.359 176.094 98.226 182.447 95.552L331.014 32.8971C333.703 31.7654 336.541 31.1885 339.463 31.1885H342.872C344.973 31.1885 356.01 33.058 367.795 41.7068C374.663 46.744 400.905 76.1686 423.284 102.631C444.825 128.106 468.03 156.97 469.676 162.878L469.759 162.872C469.887 164.553 472.764 204.08 468.035 209.101C464.055 213.328 353.282 268.893 315.072 286.329C310.548 288.388 305.881 289.264 301.202 289.264ZM339.457 31.6212C336.597 31.6212 333.814 32.187 331.181 33.2966L182.613 95.9515C176.432 98.5589 173.162 102.564 172.901 107.851C172.862 108.201 169.353 141.425 173.583 148.671C184.969 168.176 232.226 237.133 248.851 260.172C252.454 265.165 286.729 298.784 314.883 285.93C353.072 268.499 463.75 213.006 467.714 208.796C472.06 204.175 469.643 167.566 469.349 163.3L469.321 163.305C468.8 159.316 450.601 135.611 422.946 102.908C400.584 76.4627 374.375 47.0713 367.534 42.0563C354.369 32.4034 342.972 31.6212 342.866 31.6212H339.457Z" fill="#E9EEF1"/>
<path d="M295.802 308.365C291.151 308.365 285.568 306.961 278.462 303.056L244.642 282.74L244.864 282.369L278.678 302.678C292.509 310.279 300.491 308.287 307.049 305.003L467.912 222.854C475.539 219.037 479.719 211.536 479.087 202.793L477.746 180.298L478.178 180.27L479.52 202.766C480.163 211.692 475.894 219.348 468.106 223.242L307.243 305.391C303.956 307.039 300.319 308.365 295.802 308.365Z" fill="#E9EEF1"/>
<path d="M299.424 299.244C290.388 299.244 257.194 282.851 248.126 273.698C241.972 267.484 213.446 225.938 167.808 156.715C166.832 155.239 166.134 154.18 165.751 153.597C160.247 145.281 165.829 105.632 169.182 101.172C173.113 95.9406 198.025 85.3613 241.218 70.5824C242.577 70.1164 243.475 69.8113 243.585 69.7614L243.752 70.1608C243.63 70.2107 242.931 70.4548 241.357 70.9929C198.862 85.5333 173.357 96.3456 169.532 101.433C167.852 103.668 165.668 114.509 164.559 126.103C163.262 139.734 163.839 149.919 166.111 153.353C166.494 153.93 167.192 154.995 168.168 156.471C213.795 225.672 242.299 267.19 248.436 273.387C253.652 278.652 265.704 285.47 275.249 290.096C287.079 295.833 296.852 299.228 300.155 298.756C304.607 298.118 347.457 277.453 386.072 258.325C429.693 236.723 466.312 217.938 467.715 216.446C470.969 212.979 469.976 200.119 469.971 199.992L470.403 199.959C470.448 200.497 471.418 213.14 468.031 216.746C466.429 218.449 424.343 239.863 386.266 258.719C347.618 277.858 304.718 298.54 300.216 299.189C299.978 299.228 299.712 299.244 299.424 299.244Z" fill="#E9EEF1"/>
<path d="M163.876 106.514C141.431 102.77 128.376 96.9003 128.249 96.8448L128.431 96.4509C128.559 96.512 141.569 102.359 163.953 106.093L163.876 106.514Z" fill="#E9EEF1"/>
<path d="M504.078 237.594C504 237.555 496.068 233.295 480.313 215.642L480.641 215.354C496.339 232.951 504.2 237.172 504.277 237.211L504.078 237.594Z" fill="#E9EEF1"/>
<path d="M293.21 347.043C288.232 347.043 272.865 343.043 263.275 338.117C245.398 328.93 230.459 316.747 230.309 316.625L230.586 316.287C230.736 316.409 245.642 328.564 263.475 337.728C274.65 343.47 292.589 347.548 294.396 346.444C294.418 346.427 294.446 346.41 294.446 346.394C294.446 337.384 296.07 314.051 296.087 313.812L296.519 313.84C296.502 314.073 294.878 337.395 294.878 346.388C294.878 346.488 294.845 346.671 294.618 346.81C294.374 346.971 293.886 347.043 293.21 347.043Z" fill="#E9EEF1"/>
<path d="M343.089 10.6017H342.651V31.4053H343.089V10.6017Z" fill="#E9EEF1"/>
<path d="M505.088 184.603C496.878 164.337 411.189 51.3987 410.324 50.2614L410.668 49.9951C410.884 50.278 432.548 78.8206 454.948 109.499C475.631 137.82 501.185 173.813 505.487 184.436L505.088 184.603Z" fill="#E9EEF1"/>
<path d="M457.739 180.033L280.143 266.439L280.335 266.833L457.93 180.427L457.739 180.033Z" fill="#E9EEF1"/>
<path d="M361.27 474.367L361.054 473.989L408.128 446.922L408.344 447.3L361.27 474.367Z" fill="#E9EEF1"/>
<path d="M408.67 453.699L363.25 479.748L363.468 480.128L408.888 454.079L408.67 453.699Z" fill="#E9EEF1"/>
<path d="M353.865 483.72C353.82 483.72 353.798 483.709 353.787 483.703L353.698 483.664L353.66 483.559C353.615 483.42 353.538 483.165 360.993 474.045L361.254 473.723L363.083 480.081L362.906 480.158C355.433 483.381 354.147 483.72 353.865 483.72ZM361.071 474.644C358.588 477.684 355.178 481.922 354.291 483.193C355.611 482.766 359.79 481.024 362.562 479.831L361.071 474.644Z" fill="#E9EEF1"/>
<path d="M370.372 512.074C369.657 512.074 366.07 509.006 359.701 502.953L359.169 502.449L359.89 502.582C366.769 503.863 368.582 504.357 369.075 504.601C370.028 504.185 379.519 498.632 389.807 492.396C404.514 483.481 410.024 479.753 410.279 479.232L410.7 479.343C410.556 480.025 403.593 484.552 390.007 492.785C383.166 496.929 369.552 505.056 369.058 505.056L368.837 504.879C368.848 504.934 368.881 504.973 368.898 504.978C368.521 504.723 363.842 503.775 360.533 503.148C364.008 506.432 369.147 511.12 370.184 511.619C370.5 511.07 372.95 509.111 390.14 498.771C400.04 492.812 410.096 486.937 410.196 486.876L410.417 487.254C394.791 496.391 371.375 510.41 370.577 511.785C370.588 511.963 370.472 512.041 370.433 512.063C370.428 512.068 370.405 512.074 370.372 512.074Z" fill="#E9EEF1"/>
<path d="M410.018 469.817L409.924 469.568C409.741 469.102 409.342 464.375 409.264 463.427L409.253 463.299L409.358 463.227C411.165 461.99 453.583 432.915 456.687 432.915C456.693 432.915 456.699 432.915 456.699 432.915L456.687 433.353C456.682 433.353 456.682 433.353 456.676 433.353C454.315 433.353 425.002 453.03 409.707 463.521C409.863 465.401 410.123 468.225 410.267 469.135L456.527 439.161L456.765 439.527L410.018 469.817Z" fill="#E9EEF1"/>
<path d="M457.026 426.701V417.614L457.132 417.553L501.844 389.05L502.077 389.416L457.464 417.853V425.908L497.892 400.284L498.125 400.65L457.026 426.701Z" fill="#E9EEF1"/>
<path d="M456.4 457.896C456.395 457.896 456.395 457.896 456.4 457.896C456.312 457.896 456.251 457.896 456.212 457.64L456.19 457.635C456.19 457.624 456.195 457.613 456.206 457.596C456.129 457.036 456.101 455.427 456.04 450.789V450.667L456.14 450.6C457.648 449.624 493.07 426.735 496.124 426.646L496.135 427.084C493.79 427.156 469.228 442.656 456.472 450.906C456.506 453.08 456.556 456.126 456.589 457.23C459.743 454.689 480.714 442.035 493.602 434.313L493.824 434.684C479.311 443.377 457.542 456.609 456.617 457.69C456.589 457.868 456.461 457.896 456.4 457.896Z" fill="#E9EEF1"/>
<path d="M410.202 502.288C410.18 502.288 410.153 502.282 410.125 502.277C409.925 502.221 409.51 502.099 410.28 495.287L410.291 495.187L455.253 466.029L455.492 466.395L410.701 495.442C410.419 497.977 410.208 500.712 410.275 501.633C412.525 499.104 450.314 474.577 454.699 471.737L454.937 472.103C437.454 483.437 411.211 500.735 410.579 501.949C410.53 502.038 410.408 502.288 410.202 502.288Z" fill="#E9EEF1"/>
<path d="M453.784 485.761C453.773 485.761 453.762 485.761 453.745 485.761C453.662 485.75 453.606 485.745 453.595 485.501L453.562 485.489C453.568 485.473 453.573 485.423 453.584 485.345C453.584 485.329 453.59 485.318 453.601 485.295C453.617 484.724 453.756 483.426 454.078 480.447L454.089 480.347L454.172 480.291L489.594 456.825L489.832 457.185L454.499 480.596C454.349 481.967 454.155 483.792 454.055 484.802C457.825 481.44 482.914 465.279 488.252 461.851L488.485 462.217C474.915 470.932 454.538 484.302 454.005 485.428C453.989 485.578 453.967 485.761 453.784 485.761Z" fill="#E9EEF1"/>
<path d="M449.569 506.632L450.201 501.933L450.284 501.877C462.097 494.344 479.83 482.716 480.268 481.54L480.678 481.695C480.052 483.37 454.004 500.024 450.605 502.194L450.129 505.716L477.48 486.877L477.729 487.237L449.569 506.632Z" fill="#E9EEF1"/>
<path d="M407.479 525.582L408.588 519.058L408.671 519.003L452.081 492.058L452.309 492.43L408.987 519.325L408.073 524.7L450.973 497.894L451.206 498.266L407.479 525.582Z" fill="#E9EEF1"/>
<path d="M401.83 544.256L403.859 538.935L447.563 511.685L447.795 512.057L404.213 539.229L402.656 543.313C408.615 539.884 445.75 516.09 446.138 515.841L446.371 516.207C445.966 516.462 406.126 541.998 402.34 543.984L401.83 544.256Z" fill="#E9EEF1"/>
<path d="M372.904 534.841L364.046 527.957L363.043 523.363L372.921 530.059C383.67 523.164 408.31 507.436 409.513 507.436C409.524 507.436 409.529 507.436 409.535 507.442L409.468 507.652L409.463 507.869C408.36 508.035 387.068 521.499 373.032 530.514L372.91 530.592L363.697 524.345L364.434 527.718L372.927 534.32L409.186 511.697L409.418 512.068L372.904 534.841Z" fill="#E9EEF1"/>
<path d="M372.001 553.104C371.979 553.104 371.973 553.098 371.962 553.093L371.846 553.021L371.851 552.965C371.374 552.327 366.701 546.813 363.569 543.14L363.503 543.068L364.091 538.958L372.954 548.544C378.814 545.016 405.893 528.733 407.024 528.733C407.029 528.733 407.029 528.733 407.035 528.733L407.013 528.95L407.018 529.166C405.987 529.316 386.131 541.116 373.032 549.01L372.882 549.104L364.395 539.928L363.963 542.941C370.011 550.036 371.679 552.039 372.128 552.649C374.041 551.573 394.751 539.124 405.81 532.467L406.032 532.839C374.451 551.845 372.278 553.104 372.001 553.104Z" fill="#E9EEF1"/>
<path d="M368.875 566.052C368.138 566.052 362.556 559.522 359.285 555.617L359.18 555.495L360.139 554.03L369.413 563.922L401.143 544.932L401.365 545.304L369.335 564.471L360.2 554.729L359.717 555.462C362.888 559.24 367.983 565.126 368.825 565.597C370.732 564.121 393.149 551.173 400.195 547.118L400.411 547.495C391.919 552.388 369.729 565.242 369.064 565.947C369.041 565.997 368.969 566.046 368.881 566.058C368.886 566.052 368.881 566.052 368.875 566.052ZM368.781 565.641C368.753 565.658 368.725 565.68 368.709 565.719C368.714 565.697 368.736 565.675 368.781 565.641Z" fill="#E9EEF1"/>
<path d="M469.093 500.389L445.78 517.014L446.031 517.366L469.344 500.742L469.093 500.389Z" fill="#E9EEF1"/>
<path d="M351.767 563.642L351.422 563.912L361.551 576.852L361.896 576.582L351.767 563.642Z" fill="#E9EEF1"/>
<path d="M328.619 396.868L328.257 397.115L342.669 418.374L343.031 418.128L328.619 396.868Z" fill="#E9EEF1"/>
<path d="M331.962 420.216C330.52 417.964 317.893 398.148 317.71 397.027L318.137 396.955C318.292 397.781 326.712 411.173 332.328 419.977L331.962 420.216Z" fill="#E9EEF1"/>
<path d="M333.597 584.897L331.918 569.88L332.006 569.808C335 567.278 361.298 545.088 362.8 544.899L362.855 545.332L362.828 545.115L362.855 545.332C361.713 545.548 344.036 560.216 332.378 570.063L334.035 584.847L333.597 584.897Z" fill="#E9EEF1"/>
<path d="M320.133 582.606L319.695 582.368C319.535 582.279 318.127 581.508 317.738 580.925C317.367 580.365 314.401 567.594 313.814 565.043L313.781 564.893L362.706 533.282L362.945 533.648L314.279 565.092C315.682 571.15 317.833 580.199 318.11 580.687C318.315 580.992 318.969 581.43 319.462 581.73L315.272 565.447L315.405 565.364C316.087 564.932 319.285 562.857 323.714 559.983C336.913 551.429 361.481 535.501 363.277 534.564L363.477 534.952C361.697 535.884 337.14 551.8 323.953 560.349C319.762 563.068 316.669 565.07 315.771 565.647L320.133 582.606Z" fill="#E9EEF1"/>
<path d="M302.799 574.967L301.457 559.55L301.568 559.478L362.462 521.005L362.301 520.134L300.099 559.118L301.746 573.858L301.313 573.908L299.634 558.896L299.75 558.824L362.612 519.43L362.944 521.216L362.822 521.294L301.917 559.778L303.237 574.928L302.799 574.967Z" fill="#E9EEF1"/>
<path d="M286.823 565.764L286.701 565.686C286.419 565.503 284.861 564.133 284.684 563.977L284.617 563.922L282.932 548.216L283.048 548.144L350.694 506.282L350.921 506.654L283.392 548.444L285.033 563.711C285.537 564.149 286.219 564.748 286.629 565.081C286.602 564.327 286.441 562.08 285.787 555.584C285.377 551.501 287.283 547.606 290.759 545.432C318.321 528.145 351.304 507.525 351.886 507.436L351.952 507.869L351.919 507.652L351.98 507.863C350.849 508.29 305.011 537.01 290.992 545.803C287.655 547.895 285.831 551.628 286.225 555.545C287.228 565.525 287.117 565.592 286.945 565.697L286.823 565.764Z" fill="#E9EEF1"/>
<path d="M268.375 552.338L267.959 552.011C267.626 551.745 267.205 551.401 266.767 551.046C266.163 550.552 266.512 539.357 266.69 534.569L266.695 534.458L266.789 534.397L328.448 492.624L328.692 492.984L267.127 534.697C266.911 540.605 266.712 550.097 267.078 550.735C267.493 551.068 267.915 551.406 268.247 551.673L268.275 551.695C268.419 549.986 268.308 541.632 268.186 535.99V535.873L268.286 535.807C289.306 521.555 329.257 494.416 329.984 493.744L330.289 494.055C329.551 494.787 272.255 533.643 268.624 536.101C268.957 552.061 268.669 552.2 268.513 552.277L268.375 552.338Z" fill="#E9EEF1"/>
<path d="M258.784 508.984C257.719 508.984 256.406 507.758 256.239 507.597L256.034 507.403L256.273 507.253L294.899 483.32L295.126 483.692L256.749 507.469C257.331 507.968 258.457 508.767 259.072 508.49C259.41 508.335 264.283 505.206 269.926 501.583C289.926 488.735 295.508 485.229 295.974 485.323L295.93 485.534L295.941 485.75C295.071 485.939 280.076 495.575 270.159 501.949C263.423 506.276 259.599 508.728 259.249 508.889C259.105 508.956 258.95 508.984 258.784 508.984Z" fill="#E9EEF1"/>
<path d="M239.488 489.805L236.467 487.026L273.901 463.132L276.506 465.795L239.488 489.805ZM237.176 487.093L239.532 489.256L275.819 465.718L273.834 463.687L237.176 487.093Z" fill="#E9EEF1"/>
<path d="M251.793 537.942L251.677 537.837L249.687 535.99L249.127 519.707L261.095 512.163L263.185 513.971L262.808 514.076C262.708 514.126 261.538 514.731 251.494 521.233C252.325 537.698 252.098 537.809 251.926 537.887L251.793 537.942ZM250.119 535.795L251.671 537.238C251.721 535.346 251.35 526.869 251.056 521.122L251.05 520.994L251.156 520.928C259.16 515.752 261.61 514.254 262.359 513.821L261.056 512.695L249.576 519.935L250.119 535.795Z" fill="#E9EEF1"/>
<path d="M234.687 521.372L234.576 521.255C234.293 520.956 233.118 518.681 232.885 518.226L232.863 518.132L232.303 502.194L232.42 502.127L244.593 495.209L246.705 496.951L246.289 497.056C245.774 497.19 238.966 501.356 234.449 504.174C235.219 521.144 235.014 521.233 234.831 521.305L234.687 521.372ZM233.295 518.076C233.667 518.803 234.221 519.846 234.576 520.462C234.598 518.176 234.266 509.81 234.005 504.074L233.999 503.947L234.105 503.88C235.169 503.214 243.85 497.811 245.824 496.801L244.543 495.747L232.747 502.449L233.295 518.076Z" fill="#E9EEF1"/>
<path d="M216.393 500.684L214.187 497.128V481.129L227.635 475.576L229.459 477.911L229.065 477.95C228.533 478.006 221.122 481.14 216.183 483.276L216.393 500.684ZM214.619 497.006L215.933 499.126L215.739 482.993L215.872 482.938C217.042 482.433 226.61 478.305 228.672 477.617L227.497 476.108L214.625 481.423V497.006H214.619Z" fill="#E9EEF1"/>
<path d="M199.398 477.972L196.688 474.256V458.384L209.631 452.575L209.809 452.975L197.12 458.667V474.117L198.905 476.563L198.278 460.514L198.411 460.453C198.905 460.226 210.507 454.856 211.771 454.578L211.865 455.005C210.906 455.216 202.929 458.844 198.727 460.791L199.398 477.972Z" fill="#E9EEF1"/>
<path d="M183.795 455.749L181.339 452.054V436.931L181.461 436.87L194.677 430.324L194.871 430.712L181.772 437.197V451.915L183.318 454.234L182.897 439.211L183.013 439.145C183.479 438.89 194.427 432.837 195.747 432.51L195.852 432.931C194.849 433.175 187.298 437.27 183.341 439.461L183.795 455.749Z" fill="#E9EEF1"/>
<path d="M168.001 432.277L167.657 431.733L169.076 430.862L168.367 431.295L168.245 430.485C167.857 430.551 167.646 430.862 167.607 431.039C167.79 430.224 168.001 421.614 168.089 416.377L168.101 415.9L180.595 408.91L181.405 410.364L169.741 416.887C169.481 431.872 169.392 431.899 168.599 432.116L168.001 432.277Z" fill="#E9EEF1"/>
<path d="M153.179 406.963L152.835 406.347C150.873 402.869 150.939 402.747 151.023 402.608L151.089 402.497H151.139C151.072 400.589 151.516 394.325 151.732 391.429L151.743 391.307L151.849 391.252L165.252 384.267L166.649 385.649C166.865 385.865 166.965 386.17 166.915 386.47C166.865 386.775 166.671 387.019 166.394 387.152C163.517 388.5 155.357 392.816 154.337 393.36L153.179 406.963ZM151.488 402.896C151.605 403.174 151.937 403.851 152.868 405.52L153.927 393.099L154.033 393.044C154.121 392.994 163.146 388.212 166.217 386.769C166.367 386.703 166.466 386.57 166.494 386.409C166.522 386.248 166.472 386.087 166.355 385.971L165.186 384.811L152.17 391.59C151.86 395.729 151.438 402.342 151.605 402.846L151.488 402.896Z" fill="#E9EEF1"/>
<path d="M138.738 378.964L138.65 378.803C138.406 378.337 138.378 378.187 138.361 377.965C138.339 377.732 138.306 377.383 137.685 375.946L137.663 375.896L137.668 375.846C137.946 371.391 138.328 364.601 138.245 364.163L138.206 364.08L138.25 364.019C138.367 363.68 142.685 361.439 151.089 357.356L151.277 357.75C146.532 360.058 139.387 363.614 138.677 364.174C138.738 365.25 138.411 370.975 138.112 375.818C138.627 377.011 138.744 377.477 138.783 377.755C138.966 375.585 139.237 369.866 139.398 365.872L139.403 365.744L139.52 365.688C139.974 365.461 150.656 360.169 152.841 359.514L152.963 359.93C150.928 360.54 141.011 365.433 139.825 366.021C139.304 378.836 139.121 378.881 138.905 378.931L138.738 378.964Z" fill="#E9EEF1"/>
<path d="M126.686 355.498C126.581 355.498 126.442 355.431 126.32 355.181C125.694 353.917 125.489 352.369 125.483 352.302L125.35 337.285L125.445 337.218C126.387 336.564 127.618 336.12 139.386 331.831L140.345 331.482L140.495 331.892L139.536 332.242C128.222 336.364 126.692 336.924 125.788 337.512L125.916 352.274C125.916 352.274 126.11 353.728 126.675 354.915C127.146 353.123 126.897 340.441 126.32 339.121L126.282 339.032L126.32 338.927C126.448 338.638 128.056 337.995 137.695 334.744C139.541 334.123 141.132 333.584 141.276 333.512L141.371 333.707L141.387 333.701L141.587 333.784C141.531 333.912 141.531 333.912 137.834 335.154C134.236 336.364 127.667 338.583 126.769 339.093C127.047 340.108 127.268 343.97 127.34 347.476C127.501 355.148 126.986 355.387 126.814 355.47C126.781 355.481 126.736 355.498 126.686 355.498Z" fill="#E9EEF1"/>
<path d="M112.278 324.153C112.156 324.153 112.078 324.015 111.84 323.576L110.909 320.481L110.925 320.42L114.246 309.153L114.362 309.119L129.185 304.992L129.302 305.413L114.595 309.508L111.358 320.481L111.995 322.622C112.006 322.483 112.023 322.339 112.051 322.195L115.244 310.961L115.36 310.928L130.144 306.695L130.266 307.117L115.598 311.316L112.472 322.3C112.361 322.866 112.444 323.415 112.494 323.709C112.522 323.909 112.55 324.081 112.361 324.142C112.333 324.148 112.306 324.153 112.278 324.153Z" fill="#E9EEF1"/>
<path d="M134.121 314.6L133.473 313.069C136.677 311.716 164.831 299.833 166.517 299.444L166.888 301.064C165.68 301.353 146.627 309.319 134.121 314.6Z" fill="#E9EEF1"/>
<path d="M122.038 286.507L121.44 284.954C124.306 283.844 149.472 274.108 151.141 273.725L151.512 275.345C150.337 275.617 133.242 282.169 122.038 286.507Z" fill="#E9EEF1"/>
<path d="M112.717 258.675L112.052 257.149C114.109 256.256 132.208 248.395 133.893 248.007L134.264 249.627C133.106 249.898 120.744 255.185 112.717 258.675Z" fill="#E9EEF1"/>
<path d="M103.353 230.199C102.699 230.199 102.516 229.733 102.472 229.572C102.2 228.568 102.2 228.568 117.339 222.926C118.725 222.41 119.928 221.96 120.078 221.894L120.732 223.425C120.554 223.503 119.69 223.824 117.921 224.485C113.941 225.966 104.617 229.444 103.802 229.977C103.991 229.855 104.202 229.483 104.057 229.078C103.919 228.673 103.52 228.518 103.298 228.534L103.625 230.165C103.531 230.193 103.437 230.199 103.353 230.199Z" fill="#E9EEF1"/>
<path d="M96.5406 204.569L96.0361 202.982C98.8965 202.072 108.27 199.088 108.863 198.994L109.118 200.636L108.991 199.815L109.135 200.636C108.564 200.763 101.291 203.054 96.5406 204.569Z" fill="#E9EEF1"/>
<path d="M64.914 135.318L64.6479 134.974L73.2291 128.2L119.993 120.084L120.07 120.511L73.3566 128.616L64.914 135.318Z" fill="#E9EEF1"/>
<path d="M67.0393 160.365L66.6846 160.105L72.8044 151.866L112.85 143.373L112.938 143.8L73.0539 152.26L67.0393 160.365Z" fill="#E9EEF1"/>
<path d="M67.1226 111.99L66.8787 111.629L75.0773 106.082L104.479 103.086L104.524 103.519L75.1771 106.509L67.1226 111.99Z" fill="#E9EEF1"/>
<path d="M94.1358 90.8036L80.804 89.9881L71.9568 85.8162L72.1453 85.4224L80.9537 89.572L94.1635 90.3709L94.1358 90.8036Z" fill="#E9EEF1"/>
<path d="M171.692 327.898L171.576 327.476C172.119 327.327 172.557 326.85 172.873 326.062C174.12 322.944 173.1 316.337 170.772 312.465C167.413 306.873 164.691 306.257 163.36 306.39C162.424 306.484 161.864 306.978 161.808 307.122C161.814 307.111 161.819 307.067 161.792 307.022L161.409 307.228C161.243 306.917 161.736 306.529 162.058 306.346C162.745 305.952 166.426 304.387 171.143 312.243C173.527 316.209 174.563 323.005 173.277 326.223C172.906 327.149 172.374 327.709 171.692 327.898Z" fill="#E9EEF1"/>
<path d="M69.8495 184.68L69.5613 184.353C70.6145 183.415 71.385 182.628 72.0613 181.934C73.813 180.142 74.8718 179.055 78.3142 178.178C87.6437 175.704 112.018 169.202 112.772 168.808L112.86 168.975L113.099 169.058C113.049 169.202 112.966 169.446 78.4251 178.606C75.0991 179.454 74.129 180.447 72.3718 182.245C71.6899 182.944 70.9194 183.737 69.8495 184.68Z" fill="#E9EEF1"/>
<path d="M74.956 213.556L74.6899 213.218L82.5393 207.06L96.0762 203.809L96.176 204.23L82.689 207.47L74.956 213.556Z" fill="#E9EEF1"/>
<path d="M80.1471 239.07L79.9087 238.709L88.7005 232.879L102.298 227.592L102.454 227.997L88.9 233.267L80.1471 239.07Z" fill="#E9EEF1"/>
<path d="M90.439 266.225L90.0676 265.998L95.4447 257.221L95.5112 257.194L109.225 251.774L109.386 252.184L95.7385 257.571L90.439 266.225Z" fill="#E9EEF1"/>
<path d="M100.827 298.346L100.428 298.174L105.999 285.015L119.675 279.079L119.847 279.478L106.332 285.348L100.827 298.346Z" fill="#E9EEF1"/>
<path d="M88.437 72.2356H87.999V86.7205H88.437V72.2356Z" fill="#E9EEF1"/>
<path d="M100.469 80.6265L96.5413 92.59L96.9573 92.7267L100.885 80.7633L100.469 80.6265Z" fill="#E9EEF1"/>
<path d="M263.906 238.942C259.155 238.942 255.352 237.167 253.473 234.642L186.554 144.427C184.913 142.219 184.492 139.495 185.34 136.549C186.692 131.856 191.138 127.213 196.16 125.26L352.217 60.6799C358.015 58.422 365.66 60.3526 370.006 65.1679L436.731 145.531C439.259 148.332 440.296 152.31 439.497 156.166C438.76 159.727 436.554 162.59 433.438 164.021L273.402 236.739C270.037 238.282 266.794 238.942 263.906 238.942ZM352.372 61.0849L196.321 125.67C191.415 127.579 187.075 132.106 185.755 136.677C184.946 139.484 185.345 142.075 186.903 144.172L253.822 234.382C257.586 239.447 266.639 239.358 273.219 236.346L433.25 163.622C436.238 162.251 438.355 159.5 439.065 156.077C439.83 152.354 438.832 148.515 436.393 145.814L369.668 65.4509C365.449 60.7742 358.01 58.8936 352.372 61.0849Z" fill="#E9EEF1"/>
<path d="M262.781 230.676L262.382 230.149L192.519 137.714L360.339 66.1L360.732 66.5771L433.056 153.764L262.781 230.676ZM195.13 138.408L263.308 228.612L430.384 153.142L359.851 68.1193L195.13 138.408Z" fill="#E9EEF1"/>
<path d="M258.611 250.475C257.78 250.475 256.921 250.198 256.161 249.688C254.421 248.506 253.761 246.42 254.698 245.033C255.158 244.351 255.923 243.946 256.849 243.879C257.758 243.818 258.717 244.096 259.554 244.661C261.3 245.843 261.954 247.929 261.017 249.31C260.557 249.993 259.792 250.398 258.866 250.464C258.783 250.475 258.7 250.475 258.611 250.475ZM257.109 244.306C257.032 244.306 256.96 244.306 256.882 244.312C256.089 244.367 255.441 244.711 255.058 245.277C254.254 246.464 254.859 248.279 256.405 249.327C257.165 249.837 258.029 250.087 258.839 250.032C259.631 249.976 260.28 249.632 260.663 249.066C261.466 247.879 260.862 246.065 259.315 245.022C258.628 244.556 257.852 244.306 257.109 244.306Z" fill="#E9EEF1"/>
<path d="M448.655 163.128C448.129 163.128 447.596 162.923 447.114 162.529C446.51 162.03 446.066 161.286 445.861 160.432C445.656 159.578 445.712 158.712 446.028 157.991C446.349 157.253 446.898 156.754 447.574 156.593C448.949 156.26 450.412 157.447 450.845 159.234C451.05 160.088 450.995 160.953 450.679 161.675C450.357 162.412 449.808 162.912 449.132 163.073C448.971 163.111 448.81 163.128 448.655 163.128ZM447.674 157.015C447.136 157.142 446.693 157.553 446.427 158.163C446.155 158.795 446.105 159.566 446.288 160.326C446.471 161.092 446.865 161.752 447.397 162.19C447.912 162.612 448.494 162.773 449.032 162.645C449.575 162.518 450.019 162.107 450.279 161.497C450.551 160.865 450.601 160.093 450.418 159.333C450.041 157.78 448.81 156.743 447.674 157.015Z" fill="#E9EEF1"/>
<path d="M358.868 70.0326L198.105 138.832L198.275 139.23L359.038 70.4305L358.868 70.0326Z" fill="#E9EEF1"/>
<path d="M359.012 70.2259L358.675 70.5055L425.847 151.661L426.184 151.381L359.012 70.2259Z" fill="#E9EEF1"/>
<path d="M183.299 324.664L183.138 324.259C183.565 324.092 183.914 323.643 184.164 322.927C185.306 319.676 184.131 312.453 181.78 308.343C179.652 304.615 176.913 302.473 173.648 301.974C170.017 301.419 166.736 303.161 166.181 303.677L165.882 303.361C166.492 302.79 169.862 300.959 173.709 301.547C177.113 302.063 179.956 304.282 182.152 308.132C184.546 312.326 185.744 319.732 184.569 323.077C184.28 323.909 183.848 324.447 183.299 324.664Z" fill="#E9EEF1"/>
<path d="M173.274 301.391L165.512 306.378L165.746 306.742L173.508 301.755L173.274 301.391Z" fill="#E9EEF1"/>
<path d="M177.85 303.466L168.538 308.738L168.753 309.12L178.066 303.848L177.85 303.466Z" fill="#E9EEF1"/>
<path d="M181.46 307.344L171.08 312.224L171.266 312.621L181.647 307.741L181.46 307.344Z" fill="#E9EEF1"/>
<path d="M183.685 311.761L172.51 316.477L172.678 316.876L183.853 312.16L183.685 311.761Z" fill="#E9EEF1"/>
<path d="M184.694 317.318L173.743 320.498L173.865 320.919L184.816 317.739L184.694 317.318Z" fill="#E9EEF1"/>
<path d="M184.395 321.757L173.448 324.39L173.551 324.816L184.497 322.183L184.395 321.757Z" fill="#E9EEF1"/>
<path d="M433.7 67.0986L433.489 66.7213L440.696 62.6549L440.906 63.0321L433.7 67.0986Z" fill="#E9EEF1"/>
<path d="M444.558 66.9136L436.802 71.5415L437.026 71.9179L444.782 67.29L444.558 66.9136Z" fill="#E9EEF1"/>
<path d="M441.664 76.1522L441.415 75.7916L448.067 71.1704L448.316 71.5255L441.664 76.1522Z" fill="#E9EEF1"/>
<path d="M494.478 148.843L494.295 148.449L503.165 144.377L503.348 144.777L494.478 148.843Z" fill="#E9EEF1"/>
<path d="M506.496 148.62L497.629 153.25L497.832 153.638L506.698 149.009L506.496 148.62Z" fill="#E9EEF1"/>
<path d="M508.862 152.933L501.652 159.219L501.936 159.545L509.146 153.259L508.862 152.933Z" fill="#E9EEF1"/>
<path d="M277.947 217.955L266.833 213.95L266.689 213.783L242.032 184.985L242.847 179.998L235.241 177.058L235.103 176.897L211.776 149.658L211.566 141.559L222.808 143.312L254.604 158.34L264.078 170.351L254.05 169.33L235.23 160.354L245.807 172.575L245.524 177.979L252.636 180.348L277.443 209.012L277.947 217.955ZM319.883 197.545L309.229 193.695L284.638 166.484L285.309 161.774L277.947 158.934L267.459 147.273L269.56 160.254L265.702 168.897L257.897 157.314L257.864 157.17L251.683 132.411L254.521 125.265L264.316 128.866L287.643 154.662L288.136 159.771L294.472 162.074L294.611 162.224L318.935 189.008L319.883 197.545Z" fill="#E9EEF1"/>
<path d="M353.703 180.07L341.009 177.657L312.438 165.241L304.007 156.149L315.032 154.812L340.371 168.221L353.703 180.07ZM354.662 179.682L345.754 170.556L345.693 170.395L337.405 148.748L340.332 140.643L347.96 148.998L348.015 149.187L353.675 169.325L354.662 179.682ZM303.879 155.982L293.652 152.155L270.475 126.846L269.727 119.107L279.949 122.969L303.153 148.083L303.879 155.982ZM340.51 140.51L331.302 136.166L331.197 136.055L308.197 111.995L307.355 104.761L317.084 108.395L340.122 132.305L340.51 140.51Z" fill="#E9EEF1"/>
<path d="M384.597 168.126L374.857 163.999L374.735 163.86L352.262 138.657L351.586 133.936L345.71 131.528L323.193 106.27L322.389 94.7588L335.178 89.7937L341.237 92.6119L340.15 87.8631L352.989 82.8813L361.509 86.0435L361.603 86.1323L367.678 88.7008L389.857 117.415L389.514 125.631L378.527 130.613L372.767 127.684L373.421 132.583L362.595 136.799L383.632 160.382L384.597 168.126ZM333.57 104.456L353.742 126.397L362.906 123.279L370.683 124.422L370.927 120.172L378.97 116.028L360.378 94.0487L349.502 98.2705L344.152 96.2567L344.391 100.257L333.57 104.456Z" fill="#E9EEF1"/>
</g>
<defs>
<clipPath id="clip0_3421_16031">
<rect width="618" height="587" fill="white"/>
</clipPath>
</defs>
</svg>
