<svg width="705" height="687" viewBox="0 0 705 687" fill="none" xmlns="http://www.w3.org/2000/svg">
<g opacity="0.8" clip-path="url(#clip0_3833_30491)">
<path d="M28.6798 466.04L28.8981 452.36C28.9224 450.894 28.2917 449.825 27.0222 449.194C24.5075 447.93 20.4807 448.724 19.9147 449.007L19.6074 468.186L28.6798 466.04ZM28.8819 466.202L19.4053 468.445L19.7125 448.918V448.91C19.85 448.505 29.1892 446.659 29.0922 452.36C29.0436 455.778 28.8819 466.202 28.8819 466.202Z" fill="#E9EEF1"/>
<path d="M19.4058 468.445L28.8825 466.202C28.8825 466.202 29.0442 455.778 29.1008 452.368C29.1897 446.659 19.8505 448.513 19.7212 448.918V448.926L19.4058 468.445ZM19.5109 448.918V448.91L19.6403 440.973C19.6403 440.86 19.7293 440.77 19.8344 440.77H19.8425L53.0269 441.297C52.3396 440.293 50.1888 437.215 49.0648 436.551C48.8627 436.437 48.7495 436.251 48.6929 436C48.3856 434.437 51.4017 430.42 51.7493 429.966C51.7817 429.918 51.8464 429.885 51.903 429.885C51.9353 429.885 53.7708 429.893 56.4958 429.901C59.2126 429.901 62.8189 429.926 66.409 429.95C81.0849 430.08 81.1334 430.266 81.19 430.501C81.2386 430.549 81.6833 430.841 82.1199 431.116C84.0282 432.331 87.9822 434.866 87.772 437.701C87.7639 437.814 87.6749 437.911 87.5536 437.895C87.4485 437.887 87.3596 437.79 87.3677 437.677C87.5536 435.077 83.7371 432.639 81.9016 431.456C81.2305 431.035 80.9556 430.849 80.8424 430.711C79.6618 430.428 63.0858 430.306 52 430.29C51.054 431.546 48.8546 434.777 49.081 435.919C49.1133 436.049 49.17 436.138 49.2508 436.186C50.6739 437.037 53.4393 441.2 53.5606 441.386C53.601 441.451 53.6091 441.532 53.5768 441.597C53.5363 441.661 53.4716 441.702 53.3989 441.702C53.3989 441.702 53.3989 441.702 53.3908 441.702L20.0284 441.167L19.9071 448.57C20.7238 448.262 22.5593 448.068 23.6671 448.092C27.33 448.149 29.3272 449.663 29.2868 452.352L29.0684 466.185C29.0684 466.275 29.0038 466.356 28.9148 466.38L19.4382 468.623C19.422 468.623 19.4058 468.631 19.3896 468.631C19.3411 468.631 19.3007 468.615 19.2603 468.583C19.2118 468.55 19.1875 468.486 19.1875 468.429L19.4948 448.91L19.5109 448.918Z" fill="#E9EEF1"/>
<path d="M681.534 272.746C648.576 271.312 581.754 267.02 577.429 266.736C574.898 265.181 565.971 259.091 563.949 257.706L569.432 171.393C569.44 170.899 569.391 170.397 569.294 169.903C568.712 167.06 566.399 155.463 563.48 140.787C555.831 102.381 543.039 38.1062 541.851 33.8947C541.648 33.1901 541.349 32.121 501.696 17.2348C482.492 10.0266 460.248 1.95986 455.024 0.315737C454.248 0.0727631 453.448 -0.0325255 452.631 0.00797013L35.6097 20.5878C32.0357 20.766 29.1167 25.3258 29.0844 29.0271L33.378 144.869L32.9252 144.845L27.7906 163.23L32.9737 173.912L40.3076 174.026L43.7198 169.928C46.8814 171.547 50.6656 172.357 55.0239 172.301L71.4948 174.876H71.5676C74.3411 174.86 76.6213 177.055 76.7021 179.808L79.6858 276.779C79.7586 279.266 81.1817 281.517 83.3811 282.659C85.063 283.534 86.1222 285.251 86.1303 287.154L86.5427 359.949C85.2247 359.876 82.4997 359.828 76.8153 359.739L76.4757 359.731L76.2979 370.883L76.5566 370.948C77.8584 371.296 79.7424 371.401 81.5698 371.401C83.6156 371.401 85.5966 371.272 86.5993 371.191L86.955 434.145C86.9712 436.721 86.5427 439.207 85.7341 441.524L53.4148 441.167L53.4067 441.856L79.3705 442.139C73.767 442.827 67.4923 444.091 66.1986 445.889C64.5572 448.181 65.0342 451.348 65.293 452.514L50.6737 452.279C50.6818 450.951 50.6575 449.858 50.5767 449.355L50.5362 449.112C50.2209 447.088 49.2748 440.94 39.7982 440.876L39.7901 441.564C48.6765 441.629 49.5255 447.144 49.8489 449.218L49.8894 449.469C50.1238 450.919 49.8408 457.94 49.7357 460.354L32.7796 464.371L33.0222 449.145C33.0303 449.023 33.1273 446.051 30.6611 443.621C28.3809 441.37 24.7261 440.365 19.8099 440.641L19.8503 441.329C24.5644 441.07 28.0413 442.001 30.176 444.107C32.4238 446.318 32.343 449.096 32.343 449.137L32.1004 464.412L32.6017 464.42L5.26337 470.883C1.83496 471.693 -0.404835 474.94 0.0560604 478.439C1.08297 486.271 3.04784 503.174 5.31188 522.742C9.15268 555.859 13.9395 597.075 17.1254 619.81C18.5889 630.201 28.9307 639.928 40.1944 641.491L392.69 686.789C393.806 686.927 394.914 687 396.022 687C398.076 687 400.113 686.757 402.094 686.287L402.272 686.886C402.272 686.886 590.123 631.051 645.301 614.634C654.746 611.824 661.279 603.303 661.554 593.439L664.368 493.091L664.376 492.734L595.363 417.088L642.641 395.164L677.613 395.245C677.629 395.245 677.653 395.245 677.669 395.245C691.884 395.245 703.617 383.68 703.843 369.441L704.983 297.691C705.21 284.279 694.9 273.329 681.534 272.746ZM452.712 1.77358C453.318 1.74118 453.909 1.82217 454.483 2.00035C466.28 5.71785 536.158 31.5945 540.193 34.575C541.648 40.2363 554.198 103.264 561.742 141.135C564.782 156.394 566.973 167.417 567.564 170.268C567.636 170.632 567.677 171.005 567.669 171.337L560.117 290.143C560.092 291.471 558.952 293.642 557.262 295.545C555.556 297.473 553.68 298.712 552.459 298.712C552.451 298.712 552.443 298.712 552.435 298.712L551.934 298.704L551.869 298.809C549.678 299.238 537.694 301.271 525.283 296.906C511.739 292.143 502.933 271.944 502.844 271.734L502.497 271.879C503.378 229.78 504.195 187.956 504.486 172.843L504.502 171.944L486.794 172.001V171.847L455.081 171.993C456.787 171.142 458.129 169.903 458.154 168.081C458.364 154.256 456.634 100.964 455.243 58.1354C454.491 35.0367 453.844 15.0885 453.65 5.99322C453.617 4.61637 453.108 3.4663 452.13 2.58349C451.814 2.30002 451.459 2.05705 451.087 1.84647L452.712 1.77358ZM68.9316 482.335L58.986 481.493L61.0074 478.132L71.2442 478.982L68.9316 482.335ZM69.4491 521.591L59.5196 520.733L58.4281 482.416L58.5898 482.149L68.7133 483.007L69.4491 521.591ZM62.5033 477.565L145.869 456.993L155.742 457.641C145.319 459.86 81.3354 476.139 72.4813 478.391L62.5033 477.565ZM389.424 174.973L388.275 247.404L346.334 246.74C341.555 246.667 335.863 248.999 335.677 260.573C335.62 263.966 334.537 267.044 332.62 269.231C330.623 271.507 327.842 272.689 324.688 272.633L252.004 271.474C243.975 271.345 242.18 265.667 242.083 260.929C241.889 251.073 241.864 243.257 242.002 241.799L290.865 250.83C291.229 250.895 291.593 250.919 291.948 250.919C293.509 250.919 295.021 250.352 296.218 249.299C297.689 248.003 298.49 246.132 298.409 244.172L295.644 174.35L502.707 173.718C502.294 194.97 501.761 221.9 501.203 249.21L390.03 247.444L391.178 175.014L389.424 174.973ZM241.234 242.22C240.781 242.237 240.465 241.896 240.417 241.743L240.902 241.653H241.218L241.953 241.791C241.832 241.994 241.589 242.204 241.234 242.22ZM296.662 244.237C296.719 245.662 296.137 247.023 295.069 247.971C294.002 248.918 292.579 249.323 291.18 249.088L241.468 239.904L241.395 239.888L92.1462 238.317L93.1488 174.957L293.905 174.342L296.662 244.237ZM240.296 241.645C240.037 243.484 240.077 248.287 240.32 260.97C240.474 268.769 244.605 273.127 251.972 273.24L324.656 274.398C324.729 274.398 324.809 274.398 324.882 274.398C328.513 274.398 331.642 273.013 333.938 270.389C336.13 267.886 337.375 264.412 337.431 260.597C337.561 252.571 340.48 248.497 346.108 248.497C346.172 248.497 346.237 248.497 346.294 248.497L388.235 249.161L501.162 250.959C499.885 313.112 498.47 376.601 498.057 378.893L498.915 379.104L498.842 379.444L505.61 380.91L500.241 466.777C500.03 470.194 498.494 473.321 495.931 475.588C493.368 477.856 490.069 478.974 486.656 478.755L181.204 458.629C181.6 453.802 181.932 411.727 181.948 409.872V409.54L146.629 407.904L146.273 407.888L145.505 456.272L100.386 453.3C97.9033 453.138 93.1407 451.016 93.1407 448.529L90.9171 281.129L91.5721 240.066L240.296 241.645ZM171.905 458.702L178.576 459.139L93.0922 480.1L90.6099 479.897L171.905 458.702ZM157.407 457.058L146.192 456.321L146.952 408.609L157.941 409.119C158.022 413.177 158.798 453.049 157.407 457.058ZM172.948 458.086L173.717 409.848L181.261 410.196C181.139 425.981 180.832 455.138 180.525 458.588L172.948 458.086ZM82.7261 485.947C82.8312 485.469 83.276 484.894 83.8743 484.295L88.8795 484.724L88.7663 484.862L88.8876 523.268L82.4916 522.717C82.4755 520.587 82.2814 487.931 82.7261 485.947ZM84.5535 483.663C86.0899 482.343 88.1518 481.039 89.0897 480.464L92.1543 480.715L89.397 484.068L84.5535 483.663ZM89.7123 484.789L420.053 512.852C420.045 512.998 420.037 513.144 420.037 513.29L420.182 551.874L89.5749 523.325L89.4536 485.097L89.7123 484.789ZM420.126 512.172L90.2379 484.149L92.9386 480.853L93.1407 480.804L422.357 508.139C421.193 509.176 420.384 510.593 420.126 512.172ZM95.2512 480.286L180.856 459.293L486.624 479.444C486.923 479.46 487.222 479.476 487.522 479.476C490.796 479.476 493.917 478.302 496.4 476.115C499.109 473.734 500.718 470.437 500.944 466.833L506.329 380.813C506.912 380.302 510.251 377.54 514.084 377.97C516.243 378.213 518.191 379.428 519.889 381.59C518.862 382.74 518.208 384.214 518.127 385.818L514.027 466.112C513.542 475.564 507.106 483.631 498.017 486.182L425.042 506.689C424.371 506.875 423.756 507.167 423.19 507.531L95.2512 480.286ZM514.14 377.273C510.041 376.828 506.588 379.638 505.885 380.262L499.82 378.942C500.273 373.661 501.397 324.572 502.44 274.965C503.491 277.047 505.197 280.173 507.51 283.542C511.027 288.669 514.714 292.589 518.531 295.294C517.828 301.004 514.334 334.996 528.687 352.725C533.935 359.212 541.018 362.849 549.726 363.578L549.71 368.518C549.629 375.176 545.287 375.742 542.126 376.164C541.333 376.269 540.638 376.358 540.104 376.544L522.663 379.703L522.509 379.743C521.701 380.051 520.989 380.521 520.366 381.08C518.563 378.82 516.477 377.532 514.14 377.273ZM529.22 352.304C515.313 335.117 518.385 302.332 519.17 295.747C520.989 296.97 522.841 297.91 524.709 298.566C531.104 300.818 537.306 301.441 542.239 301.441C546.055 301.441 549.104 301.069 550.891 300.777C550.438 301.911 549.961 303.547 549.912 305.41L549.734 362.897C541.236 362.176 534.339 358.621 529.22 352.304ZM30.8471 29.0028C30.8714 26.1762 33.1678 22.4749 35.6986 22.3535L444.626 2.17044L444.65 2.45391C444.691 2.44581 448.984 2.12184 450.965 3.90365C451.58 4.45439 451.887 5.15901 451.903 6.04182C452.097 15.1371 452.744 35.0934 453.496 58.2002C454.887 101.004 456.617 154.28 456.407 168.057C456.367 170.786 449.663 171.92 447.957 171.969V172.025L392.868 172.284L108.415 173.151C201.176 171.223 428.899 166.526 441.917 166.526C442.055 166.526 442.168 166.526 442.257 166.526C444.044 166.542 445.831 165.732 447.286 164.234C448.766 162.711 449.76 160.614 449.704 159.131C449.243 147.072 448.887 126.289 448.467 102.219C447.982 74.2688 447.432 42.5851 446.583 16.5545V16.4411C446.47 12.8937 446.324 8.47965 440.389 8.38246C440.381 8.38246 440.365 8.38246 440.349 8.38246C433.362 8.38246 45.5472 28.7761 42.8627 29.0028C35.545 29.6184 35.3348 37.6527 35.3348 37.7499C35.4803 41.5403 38.2295 114.862 39.7254 145.233L35.1407 144.974L30.8471 29.0028ZM34.0815 172.171L29.6666 163.06L34.2351 146.683L34.7283 146.715C36.8549 146.967 38.1729 147.072 38.9977 147.096C38.9572 147.517 38.9411 147.93 38.9168 148.343L34.0087 163.748L38.9734 172.244L34.0815 172.171ZM42.2159 168.988L39.6607 172.058L34.7607 163.667L38.844 150.846C38.8764 159.723 41.8277 165.805 42.9678 167.822L42.2159 168.988ZM71.6323 173.119L55.226 170.551L55.1533 170.543H55.0805C51.1265 170.592 47.7304 169.911 44.8842 168.535L45.2319 168.121L44.868 167.571C44.8276 167.514 42.135 163.335 41.0515 156.378C40.9383 154.887 40.7927 152.49 40.631 149.388C40.6634 148.368 40.7361 147.323 40.8574 146.238L40.9625 145.314L40.4208 145.282C38.9006 114.432 36.0544 38.6651 36.0221 37.7499C36.0302 37.4421 36.2323 30.2582 42.9193 29.6913C50.4554 29.0595 435.699 9.07089 440.357 9.07089C440.365 9.07089 440.373 9.07089 440.373 9.07089C445.653 9.15188 445.774 12.8694 445.887 16.4654V16.5788C446.736 42.6094 447.286 74.285 447.771 102.235C448.192 126.306 448.548 147.096 449.009 159.164C449.049 160.273 448.305 162.209 446.793 163.764C445.863 164.72 444.343 165.846 442.33 165.846C442.305 165.846 442.289 165.846 442.265 165.846C432.182 165.716 107.873 172.479 72.6592 173.216C72.3196 173.159 71.98 173.119 71.6323 173.119ZM76.9932 370.348L77.1469 360.427C80.3812 360.484 84.7476 360.557 86.5427 360.613L86.5993 370.502C84.8285 370.64 79.7101 370.972 76.9932 370.348ZM50.6656 452.968L66.1905 453.211L66.0611 452.765C66.053 452.725 64.9453 448.813 66.7565 446.286C68.2847 444.148 79.3624 442.568 85.4349 442.277C82.8878 448.78 77.3328 453.818 70.1768 455.511L50.4392 460.184C50.512 458.605 50.6333 455.503 50.6656 452.968ZM5.67575 472.6L70.5892 457.228C78.5781 455.333 84.7476 449.59 87.3593 442.228C87.4079 442.228 87.4645 442.228 87.513 442.228L87.5211 441.734C88.3135 439.337 88.742 436.777 88.7259 434.129L87.9011 287.138C87.8849 284.579 86.4699 282.262 84.1978 281.088C82.5563 280.246 81.5052 278.569 81.4486 276.723L78.4649 179.752C78.384 177.168 76.8477 174.941 74.6726 173.848C78.4164 173.767 84.1007 173.653 91.3942 173.499L90.3511 239.175L90.8929 239.183L90.2298 281.137L92.4534 448.537C92.4534 451.437 97.5718 453.802 100.337 453.988L143.605 456.839L60.8376 477.265L60.7002 477.297L60.6355 477.403L5.05314 472.786C5.25528 472.721 5.45743 472.648 5.67575 472.6ZM3.91303 473.394L60.2393 478.067L58.2178 481.428L1.84304 476.633C2.08562 475.321 2.82952 474.155 3.91303 473.394ZM1.80261 478.213C1.76218 477.913 1.7541 477.613 1.76218 477.322L57.8135 482.084L57.7246 482.238L58.8243 520.676L6.32262 516.141C4.37392 499.327 2.7244 485.186 1.80261 478.213ZM6.40348 516.837L420.174 552.571L420.198 558.159C416.996 557.454 404.552 555.988 356.328 551.615C321.979 548.497 274.087 544.342 213.96 539.256C114.18 530.816 13.1067 522.563 7.12312 522.077L6.6218 518.724C6.54902 518.093 6.47625 517.461 6.40348 516.837ZM392.917 685.032L40.437 639.741C29.9091 638.284 20.2384 629.229 18.88 619.567C15.6942 596.905 10.9316 555.835 7.09078 522.766C19.5188 523.778 403.25 555.114 420.198 558.783L420.579 660.548C420.603 667.627 417.579 674.381 412.291 679.071C406.994 683.76 399.935 685.939 392.917 685.032ZM410.665 682.545C411.636 681.897 412.574 681.177 413.455 680.391C419.131 675.361 422.374 668.129 422.341 660.54L421.945 554.352C422.543 554.207 423.465 553.98 424.67 553.68C487.918 538.041 501.259 535.457 503.16 535.457C503.176 535.457 503.192 535.457 503.208 535.457C503.402 539.644 500.936 603.822 499.869 631.553C499.521 640.673 499.286 646.707 499.278 647.168C499.165 654.231 498.898 655.713 493.901 657.802C457.62 668.591 425.584 678.107 410.665 682.545ZM702.097 369.401C701.886 382.683 690.938 393.471 677.685 393.471C677.669 393.471 677.653 393.471 677.629 393.471L646.983 393.407L658.481 387.818L658.352 387.551L658.902 387.583L663.956 291.892L663.268 291.86L658.223 387.3L657.721 386.231L592.444 416.505L662.605 493.407L659.799 593.398C659.541 602.502 653.517 610.358 644.8 612.95C616.297 621.429 552.37 640.43 497.241 656.823C499.57 655.097 499.893 652.781 499.982 647.185C499.99 646.731 500.216 640.705 500.572 631.586C502.472 582.076 504.187 536.113 503.871 535.101C503.669 534.477 503.37 533.53 424.524 553.024C423.425 553.299 422.56 553.51 421.961 553.656L421.808 513.298C421.799 511.022 423.328 508.997 425.511 508.382L498.486 487.875C508.31 485.113 515.264 476.406 515.782 466.193L519.881 385.899C519.978 383.914 521.232 382.173 523.067 381.436L540.5 378.277L540.654 378.237C541.002 378.099 541.665 378.018 542.36 377.929C545.514 377.516 551.376 376.747 551.481 368.55L551.675 305.442C551.732 303.166 552.573 301.239 552.969 300.445C555.33 300.137 557.65 297.78 558.588 296.711C560.157 294.929 561.847 292.281 561.879 290.208L563.812 259.763C566.901 261.869 574.615 267.117 576.701 268.364L576.887 268.478L577.097 268.494C577.154 268.494 577.615 268.526 578.439 268.583C589.428 272.762 654.649 289.568 662.597 291.609L662.702 291.633L693.202 279.509L692.951 278.869L662.654 290.912C633.981 283.542 592.97 272.689 580.865 268.737C595.88 269.693 652.094 273.24 681.461 274.52C693.865 275.062 703.431 285.227 703.229 297.667L702.097 369.401Z" fill="#E9EEF1"/>
<path d="M106.28 403.045L329.814 413.112C329.919 413.12 330.032 413.12 330.137 413.12C333.784 413.12 337.269 410.423 339.096 406.163L339.169 406.001L340.309 299.619C340.738 295.537 339.444 290.961 337.083 288.215C335.886 286.814 334.512 286.045 333.105 285.98L105.253 281.525C103.239 281.436 100.822 282.141 98.8407 283.412C96.5766 284.87 95.2748 286.774 95.1859 288.806L94.822 390.774C94.8139 391.009 94.7977 391.26 94.7816 391.52C94.6441 393.779 94.442 397.197 96.7545 399.732C98.6466 401.797 101.768 402.883 106.28 403.045ZM96.5524 391.617C96.5685 391.349 96.5847 391.09 96.5928 390.807L96.9567 288.839C97.0213 287.446 98.0563 286.012 99.7948 284.886C101.46 283.817 103.514 283.194 105.204 283.275L333.056 287.729C334.18 287.778 335.143 288.636 335.757 289.349C337.795 291.722 338.943 295.885 338.563 299.457L337.423 405.612C335.814 409.224 332.87 411.484 329.903 411.338L132.478 402.453C125.799 401.376 112.53 399.295 108.342 399.027L108.827 387.016L114.285 387.729C113.888 394.945 114.139 395.237 114.252 395.359L114.366 395.464L114.495 395.48H114.503L114.479 396.015L119.371 396.241C124.061 396.995 131.063 398.12 135.526 398.841L135.631 398.161C134.087 397.91 129.793 397.213 125.476 396.525L224.673 401.149C224.738 401.149 224.811 401.149 224.875 401.149C227.705 401.149 230.802 400.202 233.196 398.598C236.01 396.711 237.586 394.144 237.627 391.366L238.354 301.085C238.403 298.185 237.465 295.197 235.783 292.88C233.915 290.305 231.36 288.863 228.595 288.823L202.566 287.94V287.907L201.879 287.899V287.924L110.921 284.83C110.872 284.83 110.824 284.83 110.775 284.83C108.026 284.83 105.188 286.053 102.973 288.199C100.717 290.386 99.4067 293.245 99.3582 296.055L98.6709 384.206C98.59 389.13 102.681 394.192 107.792 395.496L107.622 399.683L107.962 399.7C110.727 399.821 119.306 401.093 126.3 402.178L106.344 401.279C102.374 401.141 99.5846 400.218 98.0563 398.541C96.2532 396.549 96.423 393.812 96.5524 391.617ZM102.415 291.738C102.892 290.928 103.498 290.159 104.21 289.462C104.574 289.106 104.962 288.79 105.358 288.499L104.242 358.564L101.679 358.483L102.738 291.746L102.415 291.738ZM228.999 362.517L226.088 362.427L227.228 290.556L228.554 290.604C229.096 290.613 229.622 290.694 230.139 290.831L228.999 362.517ZM230.818 291.058C231.813 291.455 232.735 292.095 233.551 292.969L232.444 362.63L229.678 362.541L230.818 291.058ZM225.401 362.403L222.547 362.314L223.687 290.434L226.541 290.532L225.401 362.403ZM221.867 362.29L219.053 362.201L220.194 290.313L223.007 290.41L221.867 362.29ZM218.366 362.176L215.512 362.087L216.652 290.191L219.506 290.289L218.366 362.176ZM214.825 362.071L211.97 361.982L213.11 290.078L215.965 290.175L214.825 362.071ZM211.291 361.958L208.437 361.869L209.577 289.957L212.431 290.054L211.291 361.958ZM207.749 361.844L204.936 361.755L206.076 289.835L208.89 289.932L207.749 361.844ZM204.248 361.731L201.394 361.642L202.534 289.714L205.388 289.811L204.248 361.731ZM200.715 361.618L198.127 361.537L199.267 289.6L201.855 289.689L200.715 361.618ZM197.44 361.52L194.586 361.431L195.726 289.487L198.58 289.584L197.44 361.52ZM193.898 361.407L191.084 361.318L192.225 289.365L195.038 289.462L193.898 361.407ZM190.405 361.294L187.551 361.205L188.691 289.244L191.545 289.341L190.405 361.294ZM186.864 361.18L184.3 361.099L185.44 289.13L188.004 289.22L186.864 361.18ZM183.621 361.083L180.767 360.994L181.907 289.017L184.761 289.114L183.621 361.083ZM180.08 360.97L177.266 360.881L178.406 288.896L181.22 288.993L180.08 360.97ZM176.578 360.856L173.724 360.767L174.864 288.774L177.718 288.871L176.578 360.856ZM173.045 360.743L170.441 360.662L171.581 288.661L174.185 288.75L173.045 360.743ZM169.754 360.638L166.9 360.549L168.04 288.539L170.894 288.636L169.754 360.638ZM166.212 360.532L163.398 360.443L164.538 288.426L167.352 288.523L166.212 360.532ZM162.711 360.419L159.857 360.33L160.997 288.304L163.851 288.402L162.711 360.419ZM159.178 360.306L156.59 360.225L157.73 288.191L160.318 288.28L159.178 360.306ZM157.043 288.167L155.903 360.2L153.048 360.111L154.189 288.069L157.196 288.175L157.043 288.167ZM152.361 360.087L149.547 359.998L150.687 287.948L153.501 288.045L152.361 360.087ZM148.868 359.982L146.014 359.892L147.154 287.835L150.008 287.932L148.868 359.982ZM145.326 359.868L142.763 359.787L143.903 287.997L143.216 287.988L142.076 359.763L139.222 359.674L140.362 287.6L146.458 287.81L145.326 359.868ZM138.542 359.649L135.728 359.56L136.869 287.478L139.682 287.575L138.542 359.649ZM136.189 287.462L135.049 359.544L132.195 359.455L133.335 287.365L136.586 287.478L136.189 287.462ZM131.508 359.431L129.357 359.366L130.497 287.268L132.648 287.341L131.508 359.431ZM128.669 359.342L125.815 359.253L126.955 287.146L129.81 287.243L128.669 359.342ZM125.128 359.228L122.314 359.139L123.462 287.025L126.276 287.122L125.128 359.228ZM121.635 359.115L118.78 359.026L119.929 286.903L122.783 287L121.635 359.115ZM118.093 359.002L115.506 358.921L116.646 286.96L115.958 286.952L114.818 358.904L111.964 358.815L113.112 286.676L119.233 286.887L118.093 359.002ZM111.285 358.791L108.471 358.702L109.611 286.693C110.04 286.628 110.46 286.587 110.881 286.604L112.425 286.652L111.285 358.791ZM107.784 358.678L104.929 358.589L106.045 288.029C106.959 287.462 107.937 287.041 108.916 286.814L107.784 358.678ZM101 358.467L100.692 358.459L100.636 360.144L128.645 361.026V361.115L129.333 361.124V361.051L138.518 361.342V361.48L139.205 361.488V361.358L148.844 361.666V361.893L149.531 361.901V361.682L169.73 362.322H169.786L190.381 362.978V363.011L191.068 363.019V363.003L225.385 364.088V364.128L226.072 364.136V364.104L235.759 364.412L235.816 362.727L233.155 362.646L234.247 293.763C234.287 293.82 234.336 293.868 234.376 293.925C235.832 295.942 236.648 298.542 236.608 301.077L235.88 391.358C235.848 393.536 234.546 395.593 232.233 397.148C230.075 398.598 227.253 399.441 224.746 399.4L114.762 394.273C114.738 392.945 114.843 390.07 114.996 387.462L115.012 387.146L108.18 386.247L107.881 393.682C103.757 392.443 100.385 388.215 100.45 384.238L101.137 296.088C101.153 294.865 101.477 293.617 102.051 292.443L101 358.467Z" fill="#E9EEF1"/>
<path d="M387.24 455.511L478.198 460.297C478.384 460.314 478.57 460.322 478.756 460.322C481.19 460.322 483.915 459.147 486.146 457.098C487.982 455.422 489.09 453.494 489.114 451.955L492.85 281.866C493.011 271.831 493.124 264.582 483.882 264.436L395.277 263.035C393.248 263.019 386.997 263.756 383.165 267.53C381.111 269.555 380.06 272.106 380.051 275.111L377.367 444.545V444.569C377.318 447.509 377.213 455.349 387.24 455.511ZM379.122 444.585V444.569L381.806 275.119C381.814 272.592 382.687 270.462 384.394 268.786C387.725 265.505 393.32 264.793 395.156 264.793C395.188 264.793 395.221 264.793 395.245 264.793L483.85 266.194C491.03 266.307 491.257 271.07 491.087 281.825L487.351 451.915C487.335 452.952 486.397 454.474 484.958 455.786C482.904 457.665 480.43 458.686 478.303 458.524L387.288 453.729C379 453.616 379.081 447.517 379.122 444.585Z" fill="#E9EEF1"/>
<path d="M318.723 424.337L251.925 420.296C248.246 420.069 244.681 421.3 241.907 423.762C239.142 426.216 237.492 429.61 237.266 433.303L236.789 441.232C236.562 444.925 237.791 448.489 240.249 451.267C242.7 454.037 246.087 455.689 249.775 455.916L316.572 459.957C316.855 459.973 317.138 459.982 317.421 459.982C320.801 459.982 324.027 458.759 326.582 456.491C329.348 454.037 330.997 450.643 331.224 446.95L331.701 439.021C332.17 431.384 326.348 424.799 318.723 424.337ZM292.541 425.099C293.891 425.123 295.153 425.674 296.099 426.646C297.045 427.617 297.554 428.905 297.53 430.258L297.303 444.464C297.231 449.185 295.225 449.518 292.153 449.461C292.048 449.461 291.943 449.436 291.837 449.428C292.096 449.242 292.347 449.048 292.581 448.821C293.786 447.655 294.465 446.092 294.49 444.423L294.716 430.217C294.74 428.549 294.118 426.97 292.945 425.763C292.711 425.52 292.46 425.309 292.201 425.115C292.314 425.107 292.428 425.099 292.541 425.099ZM291.312 424.524C291.304 424.524 291.296 424.532 291.288 424.532C291.279 424.532 291.271 424.524 291.271 424.524H291.312ZM288.53 425.536C289.743 425.552 290.883 426.054 291.74 426.937C292.597 427.82 293.05 428.978 293.034 430.193L292.808 444.399C292.792 445.614 292.29 446.756 291.409 447.614C290.528 448.465 289.379 448.91 288.158 448.91C285.636 448.87 283.614 446.78 283.654 444.253L283.881 430.047C283.921 427.545 285.967 425.536 288.449 425.536C288.482 425.536 288.506 425.536 288.53 425.536ZM252.2 422.159L286.339 424.224C285.514 424.524 284.762 424.985 284.107 425.617C283.315 426.386 282.749 427.334 282.45 428.371L252.289 426.443L252.241 427.164L282.288 429.083C282.239 429.391 282.199 429.699 282.199 430.023L281.973 444.229C281.956 445.087 282.118 445.921 282.442 446.699L251.853 444.35L252.2 422.159ZM241.632 450.044C239.506 447.638 238.438 444.553 238.632 441.345L239.109 433.416C239.303 430.209 240.735 427.269 243.128 425.139C245.449 423.074 248.416 422.029 251.513 422.134L251.157 444.504L243.104 451.437C242.586 451.016 242.085 450.562 241.632 450.044ZM325.37 455.114C322.968 457.244 319.879 458.297 316.685 458.119L249.888 454.077C247.616 453.94 245.481 453.162 243.662 451.874L251.61 445.031L282.789 447.42C283.048 447.873 283.363 448.303 283.735 448.691C284.9 449.898 286.46 450.578 288.126 450.603C288.158 450.603 288.191 450.603 288.223 450.603C289.153 450.603 290.059 450.392 290.875 450.003C291.279 450.101 291.7 450.157 292.129 450.165C292.274 450.165 292.42 450.165 292.557 450.165C294.57 450.165 296.317 449.89 297.247 448.108L328.547 450.546C327.884 452.271 326.809 453.842 325.37 455.114ZM329.873 438.908L329.396 446.837C329.332 447.881 329.13 448.894 328.806 449.866L297.554 447.428C297.821 446.667 297.975 445.703 297.999 444.472L298.225 430.266C298.225 430.193 298.217 430.112 298.217 430.039L321.674 431.513C325.159 431.724 328.192 433.724 329.801 436.697C329.881 437.417 329.914 438.154 329.873 438.908ZM321.707 430.8L298.144 429.318C297.821 427.164 296.301 425.382 294.271 424.702L318.61 426.176C323.793 426.492 328.006 430.08 329.388 434.801C327.553 432.485 324.795 430.987 321.707 430.8Z" fill="#E9EEF1"/>
<path d="M23.019 540.705L29.5686 578.034L35.4713 620.142L398.932 662.848L400.056 662.978L392.584 575.11L23.019 540.705ZM31.9863 581.954L48.999 583.744L51.3439 599.084L52.2576 598.946L52.1606 599.869L58.1522 600.525L62.1062 608.6L62.0577 609.046L62.3407 609.078L62.3649 609.127L37.0561 618.052L31.9863 581.954ZM398.026 660.872L40.3713 618.846L54.2952 613.938L54.2871 613.978L397.242 651.736L398.026 660.872ZM397.088 649.857L58.2411 612.545L63.9579 610.528L63.6506 609.653L64.3702 609.305L396.821 646.634L397.088 649.857ZM396.757 645.937L64.1519 608.592L62.09 604.373L396.409 641.847L396.757 645.937ZM396.344 641.143L61.7342 603.636L60.3354 600.768L396.061 637.668L396.344 641.143ZM395.891 635.789L53.0662 598.104L50.8992 583.947L394.557 620.125L395.891 635.789ZM31.7195 580.067L31.396 577.743L25.2588 542.779L390.878 576.811L394.404 618.246L31.7195 580.067Z" fill="#E9EEF1"/>
<path d="M248.222 404.737L326.154 408.107H326.162C326.186 408.107 326.21 408.107 326.234 408.107C328.086 408.107 329.922 406.981 331.409 404.932C332.744 403.101 333.584 400.745 333.617 398.777L333.819 385.915C333.908 385.85 333.997 385.794 334.086 385.729L333.827 385.372L334.83 322.021L334.991 321.762C334.943 321.73 334.886 321.697 334.838 321.673L335.064 307.467L335.113 307.394C335.097 307.386 335.08 307.37 335.064 307.362L335.194 299.295C335.226 297.351 334.49 295.497 333.132 294.087C331.773 292.678 329.946 291.884 328.013 291.852L250.065 289.195C246.006 289.171 242.683 293.86 242.618 297.813L241.042 397.302C241.009 399.246 241.745 401.101 243.103 402.502C244.47 403.919 246.289 404.713 248.222 404.737ZM307.879 388.645C296.123 388.458 285.279 383.728 277.331 375.321C269.512 367.052 265.307 356.151 265.485 344.634C265.574 339.207 266.722 333.975 268.825 329.148C269.835 329.634 271.032 330.128 272.399 330.639C270.361 335.109 269.245 339.961 269.164 344.998C268.994 355.487 272.94 365.408 280.274 372.94C287.721 380.594 297.893 384.903 308.898 385.081C309.068 385.081 309.238 385.081 309.416 385.081C316.887 385.081 324.706 382.505 332.687 377.435L332.63 380.958C328.984 383.275 317.429 388.806 307.879 388.645ZM332.622 381.776L332.582 384.328C324.811 389.94 315.69 392.832 306.165 392.678C281.414 392.281 261.604 371.183 262.008 345.646C262.113 339.232 263.472 333.044 265.954 327.367C266.447 327.836 267.216 328.33 268.21 328.841C266.059 333.765 264.887 339.094 264.798 344.626C264.612 356.321 268.881 367.392 276.83 375.799C284.899 384.336 295.929 389.147 307.863 389.341C307.993 389.341 308.13 389.341 308.259 389.341C317.599 389.333 328.604 384.206 332.622 381.776ZM308.914 384.392C298.087 384.222 288.093 379.978 280.767 372.462C273.563 365.06 269.682 355.309 269.852 345.015C269.932 339.969 271.056 335.198 273.029 330.873C274.129 331.278 275.326 331.683 276.595 332.096C274.59 336.154 273.506 340.568 273.434 345.16C273.288 354.523 277.024 363.383 283.969 370.114C291.012 376.941 300.626 380.796 311.025 380.967C311.17 380.967 311.308 380.967 311.453 380.967C320.049 380.967 326.8 376.86 332.768 373.135L332.711 376.625C324.528 381.89 316.556 384.506 308.914 384.392ZM272.463 316.676C273.417 315.501 274.436 314.367 275.512 313.282C274.541 314.343 273.506 315.493 272.463 316.676ZM311.033 380.262C300.804 380.1 291.36 376.318 284.447 369.603C277.646 363.011 273.975 354.329 274.121 345.16C274.194 340.641 275.269 336.292 277.258 332.299C278.875 332.809 280.606 333.328 282.425 333.846C280.687 337.45 279.732 341.37 279.668 345.436C279.53 353.907 282.918 361.934 289.201 368.024C295.581 374.212 304.281 377.694 313.693 377.848C313.823 377.848 313.952 377.848 314.073 377.848C321.545 377.848 327.512 374.366 332.784 371.086L332.768 372.3C326.703 376.099 319.822 380.408 311.033 380.262ZM313.709 377.16C304.467 377.014 295.937 373.596 289.686 367.53C283.541 361.569 280.226 353.729 280.355 345.444C280.42 341.435 281.366 337.58 283.096 334.032C284.568 334.445 286.088 334.858 287.657 335.271C286.266 338.414 285.506 341.807 285.449 345.314C285.19 361.561 298.346 374.503 315.391 374.779C315.504 374.779 315.618 374.779 315.731 374.779C322.361 374.779 328.013 371.693 332.832 368.623L332.808 370.268C327.431 373.629 321.342 377.273 313.709 377.16ZM315.399 374.163C298.694 373.896 285.805 361.229 286.056 345.33C286.112 341.872 286.872 338.527 288.255 335.433C289.864 335.854 291.506 336.276 293.163 336.689C292.249 339.272 291.732 342.05 291.683 344.966C291.449 359.957 302.219 371.013 317.3 371.248C317.413 371.248 317.534 371.248 317.647 371.248C322.628 371.248 327.973 369.555 332.857 366.453L332.832 367.886C327.941 371.029 322.183 374.269 315.399 374.163ZM317.663 370.689C317.55 370.689 317.437 370.689 317.324 370.689C302.567 370.454 292.023 359.642 292.258 344.974C292.306 342.107 292.815 339.369 293.721 336.826C294.829 337.102 295.945 337.377 297.069 337.644C296.381 339.693 295.993 341.872 295.961 344.148C295.864 350.206 298.387 359.01 305.826 363.894C308.502 365.651 312.335 367.19 317.558 367.19C321.739 367.19 326.833 366.186 332.913 363.537L332.881 365.773C328.005 368.939 322.652 370.689 317.663 370.689ZM293.867 327.391C294.352 326.913 294.845 326.443 295.371 325.998C301.233 320.96 309.028 318.271 317.267 318.393C319.936 318.433 322.426 318.952 324.747 319.737C323.154 319.3 321.48 319.024 319.709 318.992C319.547 318.992 319.378 318.992 319.216 318.992C309.958 318.992 301.88 323.179 296.907 329.74C295.831 328.954 294.813 328.168 293.867 327.391ZM306.092 363.481C298.823 358.71 296.357 350.085 296.446 344.156C296.478 341.921 296.866 339.774 297.546 337.758C298.872 338.074 300.198 338.389 301.524 338.697C301.168 339.993 300.974 341.305 300.95 342.625C300.853 348.805 302.834 354.304 306.545 358.103C310.119 361.772 315.011 363.651 321.076 363.699C321.181 363.699 321.286 363.699 321.391 363.699C326.145 363.699 330.019 362.808 332.962 361.067L332.93 362.995C319.305 368.988 310.823 366.591 306.092 363.481ZM321.084 363.011C315.205 362.962 310.475 361.148 307.039 357.617C303.465 353.948 301.548 348.627 301.645 342.633C301.661 341.362 301.855 340.09 302.203 338.851C303.974 339.256 305.729 339.661 307.467 340.05C307.378 340.641 307.313 341.232 307.305 341.832C307.176 349.736 309.86 355.26 315.27 358.265C318.48 360.047 322.272 360.638 325.628 360.638C328.757 360.638 331.49 360.119 332.994 359.561L332.986 360.265C330.075 362.096 325.984 363.051 321.084 363.011ZM332.986 358.905C330.463 359.917 322.03 361.334 315.545 357.73C310.346 354.847 307.766 349.493 307.896 341.832C307.904 341.281 307.96 340.722 308.041 340.171C319.539 342.731 329.76 344.739 333.204 345.403L332.986 358.905ZM333.204 345.33C323.437 342.868 315.464 339.944 308.979 336.826C309.877 334.656 311.3 332.599 313.192 330.857C316.531 327.78 320.906 326.038 325.159 326.119C328.401 326.168 331.159 327.545 333.463 328.962L333.204 345.33ZM333.471 328.266C331.159 326.873 328.41 325.569 325.167 325.52C320.768 325.455 316.24 327.237 312.788 330.42C310.847 332.21 309.375 334.332 308.445 336.567C306.95 335.838 305.526 335.093 304.184 334.34C305.26 332.607 306.642 330.995 308.308 329.586C312.424 326.103 317.793 324.143 323.04 324.232C327.156 324.297 330.617 326.16 333.479 328.006L333.471 328.266ZM333.487 327.205C330.609 325.382 327.156 323.609 323.049 323.544C317.655 323.463 312.1 325.471 307.855 329.059C306.125 330.525 304.686 332.202 303.578 334C302.486 333.376 301.435 332.752 300.44 332.121C304.799 326.087 312.302 322.24 320.954 322.394C325.879 322.475 330.035 324.637 333.487 326.84V327.205ZM333.504 326.273C330.043 324.086 325.887 321.989 320.971 321.908C320.817 321.908 320.663 321.908 320.51 321.908C311.882 321.908 304.403 325.812 300.036 331.87C299.106 331.27 298.217 330.671 297.368 330.072C302.236 323.649 310.144 319.559 319.216 319.559C319.378 319.559 319.539 319.559 319.701 319.559C325.119 319.648 329.703 322.094 333.528 324.613L333.504 326.273ZM333.552 323.382C329.081 320.604 323.687 317.874 317.275 317.769C308.906 317.64 300.942 320.385 294.966 325.52C294.416 325.99 293.899 326.484 293.39 326.986C292.387 326.136 291.457 325.301 290.6 324.467C290.705 324.378 290.802 324.281 290.907 324.192C297.57 318.66 306.416 315.688 315.787 315.842C322.733 315.955 328.636 318.765 333.568 321.697L333.552 323.382ZM333.593 320.92C328.652 318.012 322.757 315.275 315.812 315.161C306.246 314.999 297.263 318.028 290.479 323.665C290.357 323.771 290.236 323.876 290.115 323.981C288.967 322.839 287.956 321.713 287.066 320.636C294.279 315.153 303.57 312.229 313.337 312.391C321.31 312.521 328.038 315.866 333.609 319.235L333.593 320.92ZM333.633 318.449C328.054 315.104 321.334 311.841 313.354 311.711C303.4 311.565 293.972 314.529 286.638 320.11C285.732 318.968 284.956 317.866 284.301 316.83C291.554 311.274 301.006 308.018 311.429 308.18C320.162 308.317 327.48 312.326 333.496 316.222L333.673 315.947L333.633 318.449ZM333.673 315.526C327.617 311.614 320.251 307.629 311.437 307.491C301.257 307.329 291.611 310.447 283.969 316.295C283.137 314.918 282.498 313.655 282.021 312.553C290.058 306.479 300.06 303.255 310.637 303.434C319.709 303.579 327.366 307.678 333.722 311.849L333.673 315.526ZM333.746 311.031C327.375 306.892 319.725 302.883 310.653 302.745C299.996 302.575 289.888 305.807 281.754 311.897C281.196 310.504 280.905 309.411 280.751 308.722C288.344 303.077 297.424 300.032 306.925 300.032C307.16 300.032 307.402 300.032 307.637 300.04C316.273 300.178 326.267 303.579 333.779 308.917L333.746 311.031ZM333.819 306.495C326.137 301.376 316.265 298.161 307.677 298.023C295.144 297.837 283.282 302.664 274.275 311.662C265.275 320.652 260.213 332.704 260.003 345.614C259.582 372.268 280.274 394.281 306.141 394.695C306.392 394.695 306.642 394.703 306.885 394.703C316.079 394.703 324.9 391.989 332.541 386.822L332.412 395.116C332.372 397.869 330.091 400.161 328.668 400.161C328.66 400.161 328.652 400.161 328.644 400.161L254.019 398.971C252.014 398.938 250.34 398.388 249.184 397.375C248.133 396.452 247.567 395.172 247.583 393.763L249.071 299.919C249.119 297.133 251.4 294.889 254.173 294.889C254.197 294.889 254.23 294.889 254.254 294.889L328.879 296.08C330.237 296.104 331.506 296.655 332.452 297.635C333.407 298.615 333.916 299.911 333.892 301.263L333.819 306.495ZM243.306 297.829C243.362 294.209 246.346 289.884 249.976 289.884C250.001 289.884 250.025 289.884 250.049 289.884L327.997 292.54C329.76 292.565 331.409 293.285 332.638 294.565C333.876 295.845 334.539 297.513 334.506 299.279L334.49 300.145C334.288 299.028 333.762 297.999 332.946 297.157C331.87 296.039 330.423 295.416 328.887 295.391L254.262 294.201C251.076 294.16 248.432 296.711 248.384 299.902L246.896 393.747C246.871 395.359 247.518 396.833 248.731 397.894C250.009 399.019 251.836 399.627 254.011 399.659L328.636 400.85C328.644 400.85 328.652 400.85 328.66 400.85C330.18 400.85 332.412 398.882 332.97 396.25L332.93 398.768C332.865 402.607 329.711 407.418 326.226 407.418C326.21 407.418 326.186 407.418 326.17 407.418L248.238 404.049C246.475 404.025 244.826 403.304 243.597 402.024C242.36 400.745 241.697 399.076 241.729 397.311L243.306 297.829Z" fill="#E9EEF1"/>
<path d="M265.024 429.853L256.105 434.064L264.143 440.519L264.191 437.547C264.191 437.547 269.851 437.515 270.474 437.644L270.636 432.914L265.331 432.477L265.024 429.853Z" fill="#E9EEF1"/>
<path d="M425.608 32.4611C425.608 32.364 425.592 32.2749 425.583 32.1777L425.745 32.0319C425.689 31.9671 425.616 31.9104 425.559 31.8456C425.438 30.323 424.953 29.1162 424.088 28.2901C422.891 27.1481 421.379 27.0833 420.789 27.0995L279.237 32.0319L278.938 32.04C277.345 32.0886 274.685 32.1696 274.636 35.4497L276.925 130.728L276.957 130.866C277.846 132.769 279.375 133.935 280.943 133.935C280.984 133.935 281.024 133.935 281.065 133.935L287.735 133.838C287.8 133.838 287.857 133.846 287.929 133.846C288.067 133.846 288.212 133.83 288.358 133.83L325.464 133.287V133.384L326.135 133.368V133.279L379.648 132.493V132.51L380.319 132.493V132.485L423.271 131.854C424.532 131.829 425.559 131.4 426.335 130.574C427.912 128.897 427.977 126.038 427.936 124.888L425.608 32.4611ZM281.048 133.255C279.447 133.328 278.251 131.959 277.62 130.655L275.332 35.4659C275.372 33.0605 276.925 32.8175 278.962 32.7527L420.813 27.8122C421.322 27.7961 422.6 27.8527 423.611 28.8084C424.225 29.3916 424.621 30.2177 424.799 31.2463C423.821 30.655 422.794 30.6145 422.309 30.6307L414.837 30.8899V30.7522L414.166 30.7684V30.9142L285.318 35.4011L285.027 35.4092C283.49 35.4578 280.911 35.5388 280.862 38.7137L283.078 130.93L283.11 131.068C283.555 132.024 284.21 132.728 285.051 133.198L281.048 133.255ZM287.477 133.158C285.698 133.036 284.436 132.275 283.741 130.841L281.525 38.7056C281.566 36.373 283.07 36.1381 285.035 36.0815L285.835 36.0572L288.39 133.149L287.477 133.158ZM295.32 133.044L292.773 35.9843L292.102 36.0005L294.649 133.052L289.053 133.133L286.498 36.0329L298.296 35.6198L300.826 132.963L295.32 133.044ZM307.497 132.866L304.95 35.8142L304.279 35.8304L306.826 132.874L301.489 132.955L298.959 35.5955L316.756 34.98L319.262 132.696L307.497 132.866ZM330.801 132.526L328.262 34.8828L327.591 34.899L330.13 132.534L326.119 132.591L323.612 34.7856L322.941 34.8018L325.448 132.599L319.941 132.68L317.435 34.9476L333.793 34.3806L336.332 132.267L337.003 132.25L334.464 34.3644L346.261 33.9514L348.784 132.259L330.801 132.526ZM361.632 132.072L359.101 33.6922L358.43 33.7084L360.953 132.088L349.439 132.259L346.916 33.9352L364.713 33.3116L367.236 131.627L367.907 131.611L365.384 33.2873L377.044 32.8823L379.623 131.813L361.632 132.072ZM380.303 131.805L377.715 32.858L383.246 32.6636L385.833 131.716L380.303 131.805ZM386.512 131.708L383.925 32.6393L389.512 32.4449L392.1 131.627L386.512 131.708ZM392.771 131.619L390.183 32.4206L395.714 32.2263L398.277 131.53L392.771 131.619ZM398.949 131.53L396.385 32.2101L401.682 32.0238L404.277 131.449L398.949 131.53ZM404.956 131.441L402.361 31.9995L407.892 31.8051L410.463 131.36L404.956 131.441ZM411.134 131.351L408.563 31.7808L414.174 31.5864L416.746 131.262L411.134 131.351ZM417.425 131.254L414.854 31.5621L420.352 31.3678L422.931 131.173L417.425 131.254ZM425.842 130.112C425.268 130.72 424.508 131.052 423.602 131.141L421.023 31.3516L422.333 31.303C422.818 31.2787 423.95 31.3435 424.888 32.1372C424.896 32.2506 424.912 32.3559 424.912 32.4692L427.249 124.921C427.29 125.99 427.233 128.63 425.842 130.112Z" fill="#E9EEF1"/>
<path d="M371.577 33.1949L370.906 33.2122L373.437 131.806L374.108 131.788L371.577 33.1949Z" fill="#E9EEF1"/>
<path d="M352.926 34.222L352.255 34.2395L354.797 132.137L355.468 132.119L352.926 34.222Z" fill="#E9EEF1"/>
<path d="M340.739 34.3949L340.068 34.4124L342.61 132.309L343.281 132.292L340.739 34.3949Z" fill="#E9EEF1"/>
<path d="M311.166 35.2936L310.495 35.3113L313.047 132.488L313.718 132.47L311.166 35.2936Z" fill="#E9EEF1"/>
<path d="M263.124 127.642C263.084 127.302 263.051 127.018 263.043 126.824L260.051 47.6226C259.979 45.1443 259.874 43.1924 259.679 41.6455H259.809L259.793 40.949L259.574 40.9571C258.814 36.1705 256.898 35.8303 251.48 35.9113L56.4085 40.8032C54.8236 40.7708 53.5622 41.2972 52.6081 42.3501C50.3279 44.8689 50.5138 49.7446 50.8211 52.4092L54.3951 134.793C54.5325 137.077 57.7992 140.876 60.0714 140.876C60.1118 140.876 60.1522 140.876 60.1926 140.876L256.849 137.895C258.936 138.057 260.545 137.572 261.636 136.43C262.251 135.79 262.655 134.988 262.922 134.129H263.051L263.043 133.692C263.569 131.53 263.286 129.067 263.124 127.642ZM55.0905 134.761L51.5165 52.3525C51.2173 49.7851 51.0313 45.1281 53.1256 42.8198C53.918 41.9451 54.9853 41.4997 56.3114 41.4997C56.3438 41.4997 56.3842 41.4997 56.4165 41.4997L251.505 36.5997C256.534 36.5268 258.24 36.6726 258.911 40.9652L63.2976 45.8246C61.7047 45.7922 60.4514 46.3187 59.4973 47.3716C57.217 49.8904 57.403 54.7661 57.7103 57.4307L60.6859 131.813L55.3249 135.741C55.1956 135.385 55.1066 135.053 55.0905 134.761ZM261.135 135.944C260.189 136.924 258.758 137.345 256.89 137.199H256.874L60.1603 140.179C58.7695 140.277 56.6995 138.309 55.6888 136.486L262.186 134.129C261.952 134.826 261.62 135.45 261.135 135.944ZM262.388 133.441L56.4489 135.79L61.163 132.331L262.348 130.574L262.34 129.877L61.3813 131.635L58.4057 57.374C58.1065 54.8065 57.9205 50.1496 60.0148 47.8413C60.8314 46.9423 61.9392 46.4888 63.3057 46.5211L259.008 41.6617C259.194 43.1681 259.283 45.12 259.356 47.6469L262.348 126.856C262.364 127.067 262.396 127.367 262.437 127.723C262.59 129.076 262.857 131.424 262.388 133.441Z" fill="#E9EEF1"/>
<path d="M386.148 451.502C387.425 451.858 389.026 452.077 390.433 452.101L474.09 454.425C474.453 454.434 474.801 454.434 475.141 454.434C479.224 454.434 481.553 454.012 482.426 453.121C482.895 452.644 482.879 452.125 482.871 451.737C482.871 451.672 482.871 451.607 482.871 451.558L482.911 450.74C484.237 448.578 484.286 445.832 484.31 443.937L485.871 366.477C485.911 366.453 485.952 366.42 485.984 366.396L485.871 366.234L485.879 365.667C486.097 365.465 486.315 365.27 486.493 365.084L485.903 364.501L487.666 276.82C487.722 273.11 484.755 270.041 481.052 269.976L394.541 268.599C390.837 268.551 386.358 271.474 386.293 275.208L385.129 375.427L384.967 375.435C384.959 376.026 384.951 376.812 385.104 377.621L384.522 427.901L383.835 449.971C383.843 450.562 384.611 451.081 386.148 451.502ZM482.095 452.781C481.553 453.324 480.227 453.68 478.141 453.842C480.146 453.445 481.496 452.571 482.402 451.461V451.542C482.402 451.607 482.402 451.68 482.402 451.753C482.418 452.093 482.426 452.449 482.095 452.781ZM483.631 443.929C483.607 445.371 483.566 447.193 483.016 448.861L483.89 431.132L483.631 443.929ZM485.062 372.705H484.957C484.925 374.771 484.852 378.245 476.014 378.091L457.384 377.33C458.718 377.217 460.061 377.03 461.395 376.787C466.723 376.39 471.47 374.673 476.362 372.292C477.421 371.823 478.44 371.296 479.442 370.721C480.275 370.284 481.108 369.83 481.965 369.368L481.884 369.223C482.976 368.51 484.059 367.757 485.167 366.979L485.062 372.705ZM437.994 370.591C432.771 367.83 428.081 364.112 424.175 359.536C416.187 350.174 412.427 338.389 413.583 326.346C414.772 314.035 420.221 302.923 428.938 295.059C437.913 286.96 449.573 283.145 461.799 284.336C470.127 285.138 477.389 289.819 484.1 295.002C482.531 294.047 480.979 293.245 479.402 292.597C474.478 289.13 469.521 287.422 462.915 286.782C440.024 284.571 419.453 302.769 417.076 327.358C415.329 345.581 424.046 362.266 437.994 370.591ZM461.872 283.55C449.436 282.343 437.549 286.223 428.412 294.476C419.55 302.47 414.011 313.768 412.807 326.273C411.626 338.527 415.451 350.522 423.585 360.046C429.617 367.117 437.485 372.195 446.323 374.852C425.348 370.689 409.605 351.307 409.969 328.338C410.373 302.624 430.806 282.044 455.524 282.424C466.602 282.603 475.084 285.826 482.475 292.791C476.249 288.191 469.529 284.287 461.872 283.55ZM417.812 327.431C420.141 303.239 440.355 285.332 462.85 287.511C468.155 288.021 472.367 289.244 476.378 291.536C475.683 291.333 474.971 291.163 474.243 291.009C471.858 290.289 469.295 289.819 466.424 289.535C443.533 287.316 423.052 304.616 420.787 328.095C419.688 339.467 422.979 350.579 430.046 359.374C437.113 368.178 447.115 373.621 458.209 374.69C459.495 374.811 460.724 374.876 461.92 374.892C460.756 375.127 459.584 375.313 458.419 375.443C457.125 375.443 455.791 375.378 454.392 375.24C431.881 373.078 415.475 351.623 417.812 327.431ZM447.293 376.909L410.268 375.394L407.074 374.69C402.133 374.609 399.764 372.632 399.829 368.631L400.476 283.34C400.532 279.655 403.071 276.577 406.451 275.678L411.23 275.735L412.96 275.953C409.055 276.731 406.087 280.011 406.023 283.988L404.737 365.254C404.656 370.203 407.211 372.762 413.308 373.839L447.293 376.909ZM465.89 290.216C443.881 290.305 425.817 308.747 425.445 331.708C425.105 353.397 440.671 371.555 460.934 374.171C460.069 374.139 459.187 374.082 458.274 373.993C447.374 372.94 437.541 367.595 430.596 358.937C423.65 350.279 420.416 339.353 421.491 328.168C423.706 305.232 443.565 288.312 465.89 290.216ZM485.24 363.877C482.919 366.218 477.494 369.644 470.976 372.195C469.254 372.568 467.411 372.762 465.373 372.722C443.978 372.381 426.86 353.996 427.216 331.732C427.563 309.678 444.932 291.973 466.052 291.973C466.254 291.973 466.457 291.973 466.659 291.981C474.502 292.103 479.774 293.86 486.113 298.469C486.194 298.534 486.275 298.598 486.356 298.663L486.566 298.42L485.24 363.877ZM486.566 297.918C486.55 297.91 486.542 297.902 486.526 297.886L486.566 297.829V297.918ZM486.607 295.966C486.445 295.837 486.275 295.707 486.113 295.569L486.623 295.116L486.607 295.966ZM486.631 294.541C478.213 285.154 468.607 280.861 455.549 280.651C429.844 280.246 408.626 301.619 408.198 328.306C407.842 350.959 422.591 370.251 442.765 375.823L413.373 373.175C407.624 372.163 405.311 369.871 405.384 365.262L406.669 283.996C406.734 279.808 410.332 276.447 414.755 276.447C414.796 276.447 414.844 276.447 414.893 276.447L420.254 275.84L477.744 276.504C479.96 276.642 487.164 277.654 486.72 284.741L486.825 284.749L486.631 294.541ZM387.005 275.224C387.053 272.001 391.112 269.304 394.452 269.304C394.484 269.304 394.516 269.304 394.549 269.304L481.06 270.681C484.383 270.729 487.043 273.483 486.995 276.812L486.906 281.25C486.008 278.837 483.671 276.196 477.785 275.824L411.278 275.054L408.667 274.722C407.874 274.706 407.106 274.811 406.378 274.998L394.444 274.86C392.317 274.576 390.571 274.989 389.244 276.083C388.064 277.055 387.377 278.456 386.956 279.833L387.005 275.224ZM386.899 284.198L386.972 284.206L386.98 284.028C387.069 282.538 387.312 278.569 389.673 276.617C390.845 275.645 392.414 275.289 394.387 275.548L404.591 275.67C401.794 277.095 399.837 279.987 399.788 283.348L399.142 368.64C399.109 370.956 399.837 372.697 401.309 373.823C402.19 374.495 403.314 374.941 404.688 375.176L392.357 374.673C389.438 374.625 386.342 373.661 386.366 371.96L385.873 371.952L386.899 284.198ZM385.873 372.819C386.625 374.495 389.568 375.305 392.341 375.354L410.235 376.091L411.036 376.269L411.068 376.123L475.998 378.788C476.176 378.788 476.346 378.788 476.515 378.788C481.892 378.788 484.092 377.395 485.006 375.815L484.957 378.399H484.722C484.706 379.339 484.545 380.715 483.291 381.841C481.787 383.186 479.071 383.834 475.27 383.785L392.568 381.047C389.907 381.185 388.007 380.723 386.908 379.662C386.293 379.063 385.978 378.342 385.824 377.605L385.873 372.819ZM385.792 379.363C385.962 379.638 386.164 379.905 386.414 380.157C387.66 381.355 389.73 381.898 392.56 381.736L475.238 384.473C475.399 384.473 475.569 384.473 475.723 384.473C479.475 384.473 482.167 383.761 483.728 382.351C484.229 381.898 484.609 381.379 484.884 380.788L484.367 406.552C483.874 405.572 483.073 404.745 481.973 404.13C479.968 403.004 477.567 402.81 476.321 402.785L391.961 399.319C391.929 399.319 391.888 399.319 391.856 399.319C388.848 399.319 386.253 401.392 385.509 402.713L385.792 379.363ZM385.363 416.692L385.776 403.361C385.784 402.623 388.468 399.789 391.872 399.789C391.905 399.789 391.937 399.789 391.969 399.789L476.329 403.255C477.542 403.271 479.855 403.466 481.763 404.535C483.178 405.329 484.051 406.438 484.359 407.831L484.221 414.813L482.483 450.092C481.448 451.955 479.459 453.373 475.594 453.373C475.513 453.373 475.424 453.373 475.343 453.373L429.714 450.708L430.943 401.417L430.272 401.401L429.415 435.644L386.714 445.703L386.867 446.351L429.399 436.332L429.302 440.212L391.719 448.497H391.703C390.069 448.473 388.395 447.792 387.102 446.634C385.759 445.435 385.04 443.913 385.064 442.35L385.363 416.692ZM429.278 440.916L429.035 450.684L394.177 448.651L429.278 440.916ZM384.522 443.727C384.821 444.99 385.541 446.172 386.641 447.161C388.056 448.432 389.899 449.177 391.678 449.202L471.987 453.883L390.441 451.623C389.067 451.599 387.514 451.38 386.269 451.04C384.724 450.611 384.32 450.173 384.328 449.987L384.522 443.727Z" fill="#E9EEF1"/>
<path d="M450.998 312.659C453.667 309.111 456.982 306.001 461.089 303.992L461.356 303.847L461.275 303.612C461.17 303.312 461.122 303.158 446.033 306.544L445.912 306.568L445.856 306.673C445.742 306.868 434.689 326.37 440.147 339.118L440.543 340.05L440.673 339.046C440.697 338.884 442.015 329.132 446.745 319.624C446.494 320.288 446.244 320.984 446.009 321.713C444.53 326.257 443.22 332.744 445.411 337.855L445.807 338.786L445.936 337.782C445.961 337.58 448.694 317.316 461.486 311.063L461.744 310.925L461.664 310.69C461.558 310.391 461.526 310.294 450.998 312.659ZM440.284 337.96C436.023 325.957 445.427 308.577 446.276 307.062C450.634 306.082 456.691 304.754 459.48 304.219C455.72 306.357 452.672 309.419 450.19 312.845C450.109 312.861 450.036 312.877 449.955 312.893L449.834 312.918L449.777 313.023C449.769 313.039 449.397 313.687 448.855 314.789C443.034 323.852 440.842 334.64 440.284 337.96ZM445.548 336.681C443.05 329.181 447.368 319.049 449.341 315.04C449.713 314.465 450.101 313.898 450.497 313.339C453.602 312.642 457.677 311.751 459.86 311.314C449.575 317.461 446.268 332.591 445.548 336.681Z" fill="#E9EEF1"/>
<path d="M343.68 42.6031L342.993 42.626L345.519 118.55L346.206 118.527L343.68 42.6031Z" fill="#E9EEF1"/>
<path d="M355.929 38.9622L355.242 38.981L357.594 125.542L358.281 125.523L355.929 38.9622Z" fill="#E9EEF1"/>
<path d="M368.886 41.2092L368.199 41.2295L370.624 123.54L371.311 123.52L368.886 41.2092Z" fill="#E9EEF1"/>
<path d="M380.73 44.6353L380.043 44.6582L382.569 120.582L383.256 120.559L380.73 44.6353Z" fill="#E9EEF1"/>
<path d="M430.629 386.669L430.512 394.071L437.901 394.189L438.019 386.787L430.629 386.669Z" fill="#E9EEF1"/>
<path d="M331.529 38.5643L330.842 38.583L333.193 125.144L333.88 125.125L331.529 38.5643Z" fill="#E9EEF1"/>
<path d="M320.646 46.2932L319.959 46.3162L322.485 122.24L323.172 122.217L320.646 46.2932Z" fill="#E9EEF1"/>
</g>
<defs>
<clipPath id="clip0_3833_30491">
<rect width="705" height="687" fill="white"/>
</clipPath>
</defs>
</svg>
