<svg width="1224" height="654" viewBox="0 0 1224 654" fill="none" xmlns="http://www.w3.org/2000/svg">
<g opacity="0.8" clip-path="url(#clip0_6111_131048)">
<path d="M1005.87 584.482L961.441 581.551L614.987 297.349L617.425 294.368L962.916 577.786L1004.76 580.549L1084.71 523.655L1138.04 428.154L1153.48 297.953L1132.95 166.095L1073.45 83.1889L990.578 27.3612L960.119 29.0576L959.914 25.2149L991.656 23.4414L1076.17 80.3744L1136.62 164.591L1136.69 165.041L1157.37 297.876L1141.77 429.362L1141.58 429.696L1087.65 526.289L1087.29 526.546L1005.87 584.482Z" fill="#E9EEF1"/>
<path d="M959.572 25.4719L615.067 295.656L617.44 298.692L961.945 28.5078L959.572 25.4719Z" fill="#E9EEF1"/>
<path d="M1092.28 481.514L1091.92 481.167L1047.9 438.628L1047.88 438.448L1029.99 304.546L1045.13 170.259L1045.24 170.143L1088.09 122.9L1088.46 123.235C1090.23 124.841 1131.71 162.625 1133.2 166.468L1132.26 166.827C1131.11 163.859 1100.41 135.469 1088.17 124.314L1046.1 170.696L1030.99 304.533L1048.85 438.139L1092.27 480.1L1127.36 445.131L1128.07 445.85L1092.28 481.514Z" fill="#E9EEF1"/>
<path d="M963.186 580.345L1008.14 524.98L1093.03 480.654L1093.14 481.348C1093.19 481.644 1087.09 521.908 1085.8 523.129C1084.78 524.106 985.139 570.192 965.175 579.419L963.186 580.345ZM1008.69 525.828L966.702 577.607C1008.07 558.484 1083.43 523.54 1085.12 522.371C1085.87 521.034 1091.28 488.288 1092.04 482.312L1008.69 525.828Z" fill="#E9EEF1"/>
<path d="M961.835 582.258C960.116 582.258 956.742 578.646 954.779 576.359L955.548 575.703C958.256 578.852 961.219 581.435 961.822 581.268C961.809 581.268 961.989 580.998 961.694 579.803C960.244 573.75 939.613 558.726 939.408 558.585L938.728 558.096L1011.18 522.613L921.061 504.942L978.899 394.263L977.745 393.518L881.133 307.823L975.615 215.406L977.834 213.916L916.339 106.925L916.391 106.72L930.119 53.9121L1008.06 86.7996C1003.23 82.1858 992.435 71.8659 981.825 61.546C952.803 33.298 953.354 32.5526 953.791 31.9615C954.163 31.4731 954.83 31.8586 955.189 32.0643C963.49 36.8708 1074.23 81.1962 1075.34 81.6461L1075.56 81.736L1088.94 124.879L1011.85 89.6012L1045.18 170.091L979.182 214.224L1031.08 304.507L980.247 393.929L1049 438.216L1048.85 438.602L1014.95 521.88L940.678 558.263C944.36 560.975 961.271 573.737 962.669 579.572C962.887 580.484 963.093 581.756 962.271 582.18C962.143 582.219 961.989 582.258 961.835 582.258ZM922.575 504.184L1011.89 521.7L1011.77 522.304L1014.17 521.135L1047.76 438.602L979.759 394.803L922.575 504.184ZM882.609 307.759L978.348 392.682L979.387 393.351L1029.91 304.481L978.335 214.751L976.243 216.152L882.609 307.759ZM917.417 106.745L978.668 213.324L1043.92 169.68L1010.59 89.19C1010.51 89.1129 1010.38 88.9972 1010.22 88.8302L1008.7 88.1362L930.799 55.2616L917.417 106.745ZM1010.8 87.9819L1087.31 123.003L1074.75 82.4686C1067.85 79.7054 967.557 39.5311 955.382 33.2852C960.334 39.4668 990.1 68.306 1010.8 87.9819Z" fill="#E9EEF1"/>
<path d="M862.944 203.391L862.058 202.916L884.755 160.621L882.523 117.555L882.625 117.413L928.865 53.8491C929.981 52.1912 952.447 31.7313 953.409 30.8574L954.089 31.6028C947.597 37.5146 930.572 53.1165 929.699 54.4274L883.549 117.863L885.769 160.852L885.704 160.981L862.944 203.391Z" fill="#E9EEF1"/>
<path d="M941.49 563.02L888.514 497.99L888.527 497.785L891.965 455.927L865.266 410.226L865.291 410.046L873.015 357.432L850.742 307.194L850.819 307.002L871.27 256.096L862.007 203.237L862.995 203.057L871.989 254.323L891.863 204.856L885.447 160.621L885.537 160.467L916.574 106.361L1010.94 88.3945L1011.13 89.3841L917.215 107.261L886.5 160.814L892.915 204.972L892.863 205.101L872.335 256.199L881.355 307.631L881.342 307.708L874.067 357.29L896.866 408.723L896.854 408.851L893.004 455.696L921.398 504.301L941.49 563.02ZM889.553 497.669L938.706 558.021L920.474 504.738L892.851 457.456L889.553 497.669ZM866.318 410.034L892.106 454.192L895.827 408.915L873.785 359.179L866.318 410.034ZM851.832 307.182L873.284 355.568L880.315 307.644L871.604 257.972L851.832 307.182Z" fill="#E9EEF1"/>
<path d="M975.898 216.242L892.31 205.42L892.451 204.418L976.027 215.239L975.898 216.242Z" fill="#E9EEF1"/>
<path d="M977.91 392.629L896.229 408.367L896.42 409.364L978.101 393.626L977.91 392.629Z" fill="#E9EEF1"/>
<path d="M616.45 295.405L616.03 296.328L867.681 411.406L868.102 410.482L616.45 295.405Z" fill="#E9EEF1"/>
<path d="M616.509 296.73L615.909 297.549L889.435 498.695L890.035 497.876L616.509 296.73Z" fill="#E9EEF1"/>
<path d="M616.267 295.751L616.22 296.766L851.267 307.726L851.314 306.712L616.267 295.751Z" fill="#E9EEF1"/>
<path d="M615.14 297.607L614.716 296.694C637.092 286.4 880.956 118.891 882.829 117.465L883.432 118.274C881.559 119.688 637.541 287.3 615.14 297.607Z" fill="#E9EEF1"/>
<path d="M929.351 51.2136L929.256 54.8496L930.27 54.8761L930.365 51.2401L929.351 51.2136Z" fill="#E9EEF1"/>
<path d="M617.705 297.992L617.333 297.054L862.774 201.682L863.133 202.62L617.705 297.992Z" fill="#E9EEF1"/>
<path d="M225.272 584.482L224.721 584.083L143.493 526.289L89.3751 429.362L73.7736 297.876L73.8121 297.619L94.52 164.591L154.976 80.3744L239.488 23.4414L271.23 25.2149L271.012 29.0576L240.553 27.3612L157.696 83.1889L98.1766 166.095L77.6612 297.953L93.1087 428.154L146.431 523.655L226.389 580.549L268.215 577.786L613.706 294.368L616.144 297.349L269.703 581.551L225.272 584.482Z" fill="#E9EEF1"/>
<path d="M271.561 25.5126L269.188 28.5488L613.737 298.646L616.109 295.609L271.561 25.5126Z" fill="#E9EEF1"/>
<path d="M138.861 481.514L103.065 445.85L103.771 445.131L138.861 480.1L182.279 438.139L200.151 304.418L185.05 170.696L142.98 124.314C130.74 135.456 100.024 163.846 98.8823 166.827L97.9457 166.468C99.434 162.638 140.914 124.841 142.685 123.235L143.057 122.9L143.39 123.273L186.012 170.259L186.025 170.426L201.139 304.43L183.241 438.628L183.112 438.743L138.861 481.514Z" fill="#E9EEF1"/>
<path d="M267.959 580.344L265.983 579.431C246.02 570.204 146.38 524.118 145.354 523.141C144.058 521.907 137.964 481.656 138.015 481.36L138.131 480.666L138.746 480.987L223.092 525.03L267.959 580.344ZM139.093 482.311C139.824 488.094 145.277 521.033 146.098 522.473C147.715 523.552 223.079 558.496 264.444 577.619L222.451 525.84L139.093 482.311Z" fill="#E9EEF1"/>
<path d="M269.304 582.26C269.15 582.26 268.996 582.234 268.868 582.157C268.047 581.733 268.252 580.474 268.47 579.548C269.868 573.714 286.791 560.952 290.461 558.24L216.187 521.857L182.136 438.18L182.482 437.948L250.893 393.893L200.059 304.471L251.957 214.175L185.946 170.042L186.1 169.657L219.266 89.5523L142.17 124.83L155.551 81.687L155.77 81.5971C156.886 81.1473 267.623 36.8218 275.924 32.0153C276.284 31.8097 276.951 31.4112 277.323 31.9125C277.759 32.5036 278.311 33.249 249.289 61.497C238.678 71.8298 227.888 82.1368 223.051 86.7506L300.994 53.8631L314.774 106.876L314.671 107.056L253.279 213.867L255.422 215.306L349.98 307.787L349.57 308.146L253.42 393.43L252.201 394.214L310.04 504.893L309.373 505.021L219.908 522.564L292.36 558.047L291.68 558.536C291.474 558.69 270.844 573.714 269.394 579.754C269.099 580.988 269.291 581.232 269.291 581.232C269.92 581.438 272.845 578.803 275.539 575.654L276.309 576.31C274.397 578.649 271.023 582.26 269.304 582.26ZM216.982 521.125L219.382 522.294L219.266 521.69L308.577 504.173L251.406 394.78L183.406 438.578L216.982 521.125ZM201.227 304.484L251.752 393.353L252.856 392.646L348.53 307.761L254.819 216.103L252.804 214.753L201.227 304.484ZM187.204 169.682L252.458 213.327L313.709 106.761L300.327 55.2768L222.41 88.1514L220.908 88.8326C220.729 88.9996 220.601 89.1282 220.524 89.1924L187.204 169.682ZM156.385 82.471L143.825 123.005L220.344 87.9844C241.039 68.3084 270.805 39.4693 275.757 33.2876C263.594 39.5335 163.288 79.7079 156.385 82.471Z" fill="#E9EEF1"/>
<path d="M368.2 203.391L345.363 160.852V160.711L347.582 117.863L301.445 54.4403C300.56 53.1165 283.534 37.5017 277.042 31.6028L277.722 30.8574C278.684 31.7313 301.15 52.1912 302.266 53.8619L348.609 117.555L348.596 117.735L346.376 160.621L369.086 202.916L368.2 203.391Z" fill="#E9EEF1"/>
<path d="M289.652 563.021L309.719 504.391L338.15 455.709L334.288 408.736L334.34 408.621L357.088 357.304L349.8 307.645L349.813 307.568L358.82 256.213L338.24 204.986L338.266 204.857L344.655 160.827L313.94 107.274L220.023 89.3978L220.215 88.4082L314.581 106.375L345.694 160.622L339.279 204.857L359.153 254.323L368.147 203.058L369.135 203.238L359.872 256.097L380.4 307.195L358.127 357.432L365.876 410.227L365.787 410.381L339.177 455.941L342.628 497.991L289.652 563.021ZM338.291 457.457L310.63 504.816L292.436 558.009L341.602 497.657L338.291 457.457ZM335.315 408.903L339.036 454.193L364.824 410.021L357.357 359.167L335.315 408.903ZM350.827 307.658L357.857 355.582L379.31 307.195L359.538 257.999L350.827 307.658Z" fill="#E9EEF1"/>
<path d="M255.244 216.242L255.115 215.239L338.691 204.418L338.82 205.42L255.244 216.242Z" fill="#E9EEF1"/>
<path d="M253.222 392.546L253.03 393.543L334.711 409.29L334.903 408.293L253.222 392.546Z" fill="#E9EEF1"/>
<path d="M614.659 295.264L364.427 410.629L364.851 411.551L615.083 296.187L614.659 295.264Z" fill="#E9EEF1"/>
<path d="M614.581 296.686L341.123 497.9L341.723 498.719L615.181 297.505L614.581 296.686Z" fill="#E9EEF1"/>
<path d="M614.901 295.637L379.854 306.785L379.902 307.799L614.949 296.651L614.901 295.637Z" fill="#E9EEF1"/>
<path d="M616.003 297.607C593.666 287.338 349.584 119.688 347.698 118.274L348.301 117.465C350.187 118.891 594.115 286.426 616.414 296.694L616.003 297.607Z" fill="#E9EEF1"/>
<path d="M301.796 51.2527L300.783 51.2793L300.878 54.9152L301.891 54.8886L301.796 51.2527Z" fill="#E9EEF1"/>
<path d="M613.435 297.99L369.289 203.903L369.648 202.965L613.794 297.052L613.435 297.99Z" fill="#E9EEF1"/>
<path d="M73.5056 317.385C83.5463 317.385 91.6859 309.231 91.6859 299.174C91.6859 289.116 83.5463 280.963 73.5056 280.963C63.4648 280.963 55.3252 289.116 55.3252 299.174C55.3252 309.231 63.4648 317.385 73.5056 317.385Z" fill="#E9EEF1"/>
<path d="M1155.43 315.353C1165.47 315.353 1173.61 307.2 1173.61 297.142C1173.61 287.085 1165.47 278.932 1155.43 278.932C1145.39 278.932 1137.25 287.085 1137.25 297.142C1137.25 307.2 1145.39 315.353 1155.43 315.353Z" fill="#E9EEF1"/>
<path d="M616.208 314.455C626.248 314.455 634.388 306.302 634.388 296.244C634.388 286.186 626.248 278.033 616.208 278.033C606.167 278.033 598.027 286.186 598.027 296.244C598.027 306.302 606.167 314.455 616.208 314.455Z" fill="#E9EEF1"/>
<path d="M617.102 616.662V653.932" stroke="#C4D9DC" stroke-width="2" stroke-miterlimit="10"/>
<path d="M617.102 555.539V592.809" stroke="#C4D9DC" stroke-width="2" stroke-miterlimit="10"/>
<path d="M617.102 494.416V531.686" stroke="#C4D9DC" stroke-width="2" stroke-miterlimit="10"/>
<path d="M617.102 433.295V470.565" stroke="#C4D9DC" stroke-width="2" stroke-miterlimit="10"/>
<path d="M617.102 372.172V409.442" stroke="#C4D9DC" stroke-width="2" stroke-miterlimit="10"/>
<path d="M617.102 311.049V348.319" stroke="#C4D9DC" stroke-width="2" stroke-miterlimit="10"/>
<path d="M962.645 618.949H960.079V656.219H962.645V618.949Z" fill="#C4D9DC"/>
<path d="M963.056 579.662H960.49V595.097H963.056V579.662Z" fill="#C4D9DC"/>
<path d="M271.028 616.727H268.462V653.996H271.028V616.727Z" fill="#C4D9DC"/>
<path d="M271.013 579.674H268.447V592.885H271.013V579.674Z" fill="#C4D9DC"/>
<path d="M1196.97 349.409C1195.95 353.43 1195.38 356.125 1192.19 356.125C1190.03 356.125 1188.72 354.074 1188.72 350.656C1188.72 346.675 1190.52 344.584 1193.91 344.142L1193.91 339.357C1187.9 339.759 1184.55 344.343 1184.55 350.656C1184.55 356.929 1187.45 360.869 1192.64 360.869C1198.2 360.869 1199.95 356.004 1201.1 351.5C1202.53 345.831 1203.18 343.378 1206.65 343.378C1208.9 343.378 1210.82 345.026 1210.82 349.289C1210.82 354.436 1208.37 356.929 1204.65 357.17L1204.65 361.955C1211.27 361.674 1214.98 356.326 1214.98 349.289C1214.98 342.051 1211.1 338.593 1206.45 338.593C1199.91 338.593 1198.56 343.257 1196.97 349.409Z" fill="#E9EEF1"/>
<path d="M1214.98 327.182C1214.98 333.616 1210.45 337.516 1203.95 337.516C1197.46 337.516 1192.93 333.616 1192.93 327.182C1192.93 320.748 1197.46 316.848 1203.95 316.848C1210.45 316.848 1214.98 320.748 1214.98 327.182ZM1211.47 327.182C1211.47 323.161 1208.24 321.07 1203.95 321.07C1199.62 321.07 1196.44 323.161 1196.44 327.182C1196.44 331.203 1199.62 333.294 1203.95 333.294C1208.24 333.294 1211.47 331.203 1211.47 327.182Z" fill="#E9EEF1"/>
<path d="M1185.17 315.056L1214.37 315.056L1214.37 310.793L1185.17 310.793L1185.17 315.056Z" fill="#E9EEF1"/>
<path d="M1193.5 294.389L1206.2 294.389C1209.31 294.389 1211.31 296.48 1211.31 299.737C1211.31 302.632 1209.51 303.798 1206.69 303.798L1193.5 303.798L1193.5 308.061L1207.92 308.061C1212.7 308.061 1214.94 305.045 1214.94 301.225C1214.94 297.686 1213.31 295.555 1211.67 294.469L1211.67 294.389L1214.37 294.389L1214.37 290.167L1193.5 290.167L1193.5 294.389Z" fill="#E9EEF1"/>
<path d="M1197.01 277.54L1193.5 277.54L1193.5 281.4L1186.92 281.4L1186.92 285.663L1193.5 285.663L1193.5 288.638L1197.01 288.638L1197.01 285.663L1208.69 285.663C1213.1 285.663 1214.66 283.813 1214.66 280.435C1214.66 279.309 1214.53 278.385 1214.33 277.54L1210.82 277.54C1210.98 280.274 1210.69 281.4 1208.33 281.4L1197.01 281.4L1197.01 277.54Z" fill="#E9EEF1"/>
<path d="M1189.99 273.305C1189.99 272.059 1189.17 270.893 1187.7 270.893C1186.23 270.893 1185.45 272.059 1185.45 273.305C1185.45 274.472 1186.23 275.678 1187.7 275.678C1189.17 275.678 1189.99 274.472 1189.99 273.305ZM1193.5 275.396L1214.37 275.396L1214.37 271.174L1193.5 271.174L1193.5 275.396Z" fill="#E9EEF1"/>
<path d="M1214.98 258.84C1214.98 265.273 1210.45 269.174 1203.95 269.174C1197.46 269.174 1192.93 265.273 1192.93 258.84C1192.93 252.406 1197.46 248.505 1203.95 248.505C1210.45 248.505 1214.98 252.406 1214.98 258.84ZM1211.47 258.84C1211.47 254.819 1208.24 252.728 1203.95 252.728C1199.62 252.728 1196.44 254.819 1196.44 258.84C1196.44 262.861 1199.62 264.952 1203.95 264.952C1208.24 264.952 1211.47 262.861 1211.47 258.84Z" fill="#E9EEF1"/>
<path d="M1192.93 235.736C1192.93 239.274 1194.56 241.405 1196.19 242.491L1196.19 242.572L1193.5 242.572L1193.5 246.794L1214.37 246.794L1214.37 242.572L1201.67 242.572C1198.56 242.572 1196.56 240.481 1196.56 237.224C1196.56 234.328 1198.36 233.162 1201.18 233.162L1214.37 233.162L1214.37 228.9L1199.95 228.9C1195.17 228.9 1192.93 231.916 1192.93 235.736Z" fill="#E9EEF1"/>
<path d="M456.568 50.1612H461.307V26.451H470.388V22.5508H447.448V26.451H456.568V50.1612Z" fill="#E9EEF1"/>
<path d="M482.862 29.8878C479.437 29.8878 477.326 31.4325 476.251 32.9771H476.171V22.5508H471.99V50.1612H476.171V38.1516C476.171 35.2168 478.362 33.3246 481.429 33.3246C484.336 33.3246 485.491 35.0237 485.491 37.6882V50.1612H489.713V36.5298C489.713 32.0117 486.726 29.8878 482.862 29.8878Z" fill="#E9EEF1"/>
<path d="M501.343 47.4195C497.639 47.4195 495.448 44.6777 495.448 41.3568H511.061C511.061 34.3287 507.835 29.8878 501.263 29.8878C495.13 29.8878 491.267 33.9039 491.267 40.3141C491.267 46.4927 495.13 50.7404 501.462 50.7404C506.68 50.7404 509.707 47.8829 510.742 44.1371H506.56C506.202 45.3342 504.808 47.4195 501.343 47.4195ZM501.263 33.0929C504.649 33.0929 506.879 35.2941 506.879 38.3447H495.448C495.448 35.2941 497.878 33.0929 501.263 33.0929Z" fill="#E9EEF1"/>
<path d="M533.421 22.5508V32.8226H533.341C532.266 31.3166 530.274 29.8878 527.128 29.8878C521.911 29.8878 518.047 33.8266 518.047 40.3141C518.047 46.8016 521.911 50.7404 527.128 50.7404C530.274 50.7404 532.266 49.2344 533.341 47.8829H533.421V50.1612H537.603V22.5508H533.421ZM527.845 47.4195C524.181 47.4195 522.229 44.1757 522.229 40.3141C522.229 36.4525 524.181 33.2088 527.845 33.2088C531.27 33.2088 533.381 35.9119 533.381 40.3141C533.381 44.6777 531.27 47.4195 527.845 47.4195Z" fill="#E9EEF1"/>
<path d="M549.569 50.7404C543.196 50.7404 539.333 46.4541 539.333 40.3141C539.333 34.1742 543.196 29.8878 549.569 29.8878C555.941 29.8878 559.804 34.1742 559.804 40.3141C559.804 46.4541 555.941 50.7404 549.569 50.7404ZM549.569 47.4195C553.552 47.4195 555.623 44.3688 555.623 40.3141C555.623 36.2208 553.552 33.2088 549.569 33.2088C545.586 33.2088 543.515 36.2208 543.515 40.3141C543.515 44.3688 545.586 47.4195 549.569 47.4195Z" fill="#E9EEF1"/>
<path d="M574.882 30.4284V42.438C574.882 45.3728 572.811 47.265 569.585 47.265C566.717 47.265 565.562 45.5659 565.562 42.9014V30.4284H561.341V44.0599C561.341 48.5779 564.328 50.7018 568.111 50.7018C571.616 50.7018 573.727 49.1572 574.802 47.6125H574.882V50.1612H579.064V30.4284H574.882Z" fill="#E9EEF1"/>
<path d="M592.327 29.8878C589.18 29.8878 587.189 31.3166 586.114 32.8226H586.034V22.5508H581.852V50.1612H586.034V47.8829H586.114C587.189 49.2344 589.18 50.7404 592.327 50.7404C597.544 50.7404 601.407 46.8016 601.407 40.3141C601.407 33.8266 597.544 29.8878 592.327 29.8878ZM591.61 47.4195C588.185 47.4195 586.074 44.6777 586.074 40.3141C586.074 35.9119 588.185 33.2088 591.61 33.2088C595.274 33.2088 597.226 36.4525 597.226 40.3141C597.226 44.1757 595.274 47.4195 591.61 47.4195Z" fill="#E9EEF1"/>
<path d="M603.218 22.5508V50.1612H607.439V22.5508H603.218Z" fill="#E9EEF1"/>
<path d="M619.306 47.4195C615.602 47.4195 613.412 44.6777 613.412 41.3568H629.024C629.024 34.3287 625.798 29.8878 619.227 29.8878C613.093 29.8878 609.23 33.9039 609.23 40.3141C609.23 46.4927 613.093 50.7404 619.426 50.7404C624.643 50.7404 627.67 47.8829 628.706 44.1371H624.524C624.165 45.3342 622.771 47.4195 619.306 47.4195ZM619.227 33.0929C622.612 33.0929 624.842 35.2941 624.842 38.3447H613.412C613.412 35.2941 615.841 33.0929 619.227 33.0929Z" fill="#E9EEF1"/>
<path d="M651.384 22.5508V32.8226H651.305C650.229 31.3166 648.238 29.8878 645.092 29.8878C639.874 29.8878 636.011 33.8266 636.011 40.3141C636.011 46.8016 639.874 50.7404 645.092 50.7404C648.238 50.7404 650.229 49.2344 651.305 47.8829H651.384V50.1612H655.566V22.5508H651.384ZM645.808 47.4195C642.144 47.4195 640.193 44.1757 640.193 40.3141C640.193 36.4525 642.144 33.2088 645.808 33.2088C649.234 33.2088 651.344 35.9119 651.344 40.3141C651.344 44.6777 649.234 47.4195 645.808 47.4195Z" fill="#E9EEF1"/>
<path d="M660.411 27.1075C661.645 27.1075 662.8 26.3351 662.8 24.945C662.8 23.5548 661.645 22.8211 660.411 22.8211C659.256 22.8211 658.061 23.5548 658.061 24.945C658.061 26.3351 659.256 27.1075 660.411 27.1075ZM658.34 30.4284V50.1612H662.522V30.4284H658.34Z" fill="#E9EEF1"/>
<path d="M677.885 35.603C677.885 37.4952 675.973 37.8813 672.827 38.4606C667.729 39.426 664.423 40.7775 664.423 45.1025C664.423 48.4235 666.972 50.7404 671.114 50.7404C674.261 50.7404 676.571 49.5433 677.845 47.8056H677.925C678.323 49.7364 679.359 50.5087 681.589 50.5087C682.385 50.5087 683.063 50.4315 684.018 50.084V48.1532C682.385 48.3076 682.067 47.5739 682.067 46.1838V36.8001C682.067 31.5483 678.721 29.8878 674.221 29.8878C668.087 29.8878 665.578 32.8612 665.379 36.6456H669.442C669.641 34.097 670.875 33.0929 674.221 33.0929C677.009 33.0929 677.885 34.1742 677.885 35.603ZM672.03 47.5353C669.76 47.5353 668.645 46.5313 668.645 44.7163C668.645 42.7083 670.158 41.7429 673.623 41.0092C675.575 40.6231 677.208 40.1597 677.885 39.6963V42.6697C677.885 45.8748 675.495 47.5353 672.03 47.5353Z" fill="#E9EEF1"/>
<path d="M707.732 29.8878C704.586 29.8878 702.594 31.3938 701.081 33.286H701.001C700.165 31.1621 698.452 29.8878 695.585 29.8878C692.518 29.8878 690.606 31.4325 689.531 32.9771H689.451V30.4284H685.27V50.1612H689.451V38.1516C689.451 35.2168 691.244 33.3246 694.032 33.3246C696.939 33.3246 697.497 35.0237 697.497 37.6882V50.1612H701.718V38.1516C701.718 35.2168 703.471 33.3246 706.298 33.3246C709.166 33.3246 709.724 35.0237 709.724 37.6882V50.1612H713.945V36.5298C713.945 32.282 711.834 29.8878 707.732 29.8878Z" fill="#E9EEF1"/>
<path d="M725.789 50.7404C719.417 50.7404 715.554 46.4541 715.554 40.3141C715.554 34.1742 719.417 29.8878 725.789 29.8878C732.162 29.8878 736.025 34.1742 736.025 40.3141C736.025 46.4541 732.162 50.7404 725.789 50.7404ZM725.789 47.4195C729.772 47.4195 731.843 44.3688 731.843 40.3141C731.843 36.2208 729.772 33.2088 725.789 33.2088C721.806 33.2088 719.735 36.2208 719.735 40.3141C719.735 44.3688 721.806 47.4195 725.789 47.4195Z" fill="#E9EEF1"/>
<path d="M748.673 29.8878C745.168 29.8878 743.057 31.4325 741.982 32.9771H741.902V30.4284H737.72V50.1612H741.902V38.1516C741.902 35.2168 743.973 33.3246 747.199 33.3246C750.067 33.3246 751.222 35.0237 751.222 37.6882V50.1612H755.443V36.5298C755.443 32.0117 752.456 29.8878 748.673 29.8878Z" fill="#E9EEF1"/>
<path d="M772.371 22.5508V32.8226H772.291C771.216 31.3166 769.224 29.8878 766.078 29.8878C760.861 29.8878 756.997 33.8266 756.997 40.3141C756.997 46.8016 760.861 50.7404 766.078 50.7404C769.224 50.7404 771.216 49.2344 772.291 47.8829H772.371V50.1612H776.552V22.5508H772.371ZM766.795 47.4195C763.131 47.4195 761.179 44.1757 761.179 40.3141C761.179 36.4525 763.131 33.2088 766.795 33.2088C770.22 33.2088 772.331 35.9119 772.331 40.3141C772.331 44.6777 770.22 47.4195 766.795 47.4195Z" fill="#E9EEF1"/>
<path d="M91.2928 633.194H100.73C107.38 633.194 111.309 628.878 111.309 621.062C111.309 613.246 107.246 608.896 100.629 608.896H91.2928V633.194ZM95.2894 612.329H100.428C105.801 612.329 107.313 616.407 107.313 621.062C107.313 625.718 105.801 629.761 100.428 629.761H95.2894V612.329Z" fill="#E9EEF1"/>
<path d="M115.118 612.906C116.159 612.906 117.133 612.227 117.133 611.003C117.133 609.78 116.159 609.134 115.118 609.134C114.144 609.134 113.137 609.78 113.137 611.003C113.137 612.227 114.144 612.906 115.118 612.906ZM113.372 615.829V633.194H116.898V615.829H113.372Z" fill="#E9EEF1"/>
<path d="M126.898 622.693C124.413 622.116 122.498 621.98 122.498 620.213C122.498 618.989 123.64 618.174 125.756 618.174C128.51 618.174 129.182 619.567 129.417 620.926H132.842C132.607 617.902 130.391 615.353 125.722 615.353C121.424 615.353 118.938 617.63 118.938 620.484C118.938 624.426 122.633 624.97 125.353 625.616C127.872 626.227 129.921 626.397 129.921 628.572C129.921 629.66 128.879 630.883 126.428 630.883C122.801 630.883 121.995 629.286 121.827 627.417H118.401C118.569 631.087 120.953 633.703 126.495 633.703C130.659 633.703 133.481 631.63 133.481 628.3C133.481 624.154 130.055 623.441 126.898 622.693Z" fill="#E9EEF1"/>
<path d="M146.918 622.183H150.445C150.008 618.242 147.086 615.353 142.62 615.353C137.515 615.353 134.19 619.091 134.19 624.528C134.19 629.965 137.515 633.703 142.653 633.703C147.12 633.703 150.176 630.747 150.445 626.737H146.918C146.784 628.674 145.676 630.781 142.653 630.781C139.16 630.781 137.716 627.791 137.716 624.528C137.716 621.266 139.194 618.276 142.653 618.276C145.676 618.276 146.784 620.416 146.918 622.183Z" fill="#E9EEF1"/>
<path d="M159.491 633.703C154.118 633.703 150.86 629.931 150.86 624.528C150.86 619.125 154.118 615.353 159.491 615.353C164.865 615.353 168.123 619.125 168.123 624.528C168.123 629.931 164.865 633.703 159.491 633.703ZM159.491 630.781C162.85 630.781 164.596 628.096 164.596 624.528C164.596 620.926 162.85 618.276 159.491 618.276C156.133 618.276 154.387 620.926 154.387 624.528C154.387 628.096 156.133 630.781 159.491 630.781Z" fill="#E9EEF1"/>
<path d="M167.447 615.829L173.526 633.194H177.522L183.601 615.829H179.873L175.541 629.422H175.507L171.175 615.829H167.447Z" fill="#E9EEF1"/>
<path d="M191.451 630.781C188.328 630.781 186.481 628.368 186.481 625.446H199.646C199.646 619.261 196.926 615.353 191.384 615.353C186.212 615.353 182.955 618.887 182.955 624.528C182.955 629.965 186.212 633.703 191.552 633.703C195.952 633.703 198.504 631.189 199.377 627.892H195.851C195.549 628.946 194.373 630.781 191.451 630.781ZM191.384 618.174C194.239 618.174 196.12 620.111 196.12 622.795H186.481C186.481 620.111 188.53 618.174 191.384 618.174Z" fill="#E9EEF1"/>
<path d="M209.218 615.421C206.967 615.421 205.557 616.916 204.65 619.091H204.583V615.829H201.056V633.194H204.583V624.324C204.583 620.62 207.303 618.31 210.695 618.887H210.762V615.523C210.259 615.455 209.822 615.421 209.218 615.421Z" fill="#E9EEF1"/>
<path d="M423.779 633.198H433.148C439.749 633.198 443.65 628.924 443.65 621.182C443.65 613.44 439.616 609.132 433.048 609.132H423.779V633.198ZM427.747 612.532H432.848C438.182 612.532 439.683 616.571 439.683 621.182C439.683 625.793 438.182 629.799 432.848 629.799H427.747V612.532Z" fill="#E9EEF1"/>
<path d="M452.999 630.809C449.899 630.809 448.065 628.419 448.065 625.524H461.134C461.134 619.398 458.434 615.527 452.933 615.527C447.798 615.527 444.564 619.028 444.564 624.615C444.564 630.001 447.798 633.703 453.099 633.703C457.467 633.703 460.001 631.213 460.868 627.948H457.367C457.067 628.991 455.9 630.809 452.999 630.809ZM452.933 618.321C455.767 618.321 457.634 620.24 457.634 622.899H448.065C448.065 620.24 450.099 618.321 452.933 618.321Z" fill="#E9EEF1"/>
<path d="M470.244 612.027V609.132C469.544 608.997 468.777 608.896 467.91 608.896C465.11 608.896 463.576 610.176 463.576 613.811V615.999H461.142V618.893H463.576V633.198H467.11V618.893H470.244V615.999H467.11V614.114C467.11 612.161 467.977 611.926 470.244 612.027Z" fill="#E9EEF1"/>
<path d="M473.53 613.104C474.563 613.104 475.53 612.431 475.53 611.219C475.53 610.007 474.563 609.368 473.53 609.368C472.563 609.368 471.563 610.007 471.563 611.219C471.563 612.431 472.563 613.104 473.53 613.104ZM471.796 615.999V633.198H475.297V615.999H471.796Z" fill="#E9EEF1"/>
<path d="M487.024 615.527C484.09 615.527 482.323 616.874 481.423 618.22H481.356V615.999H477.856V633.198H481.356V622.73C481.356 620.172 483.09 618.523 485.791 618.523C488.191 618.523 489.158 620.004 489.158 622.327V633.198H492.692V621.317C492.692 617.379 490.192 615.527 487.024 615.527Z" fill="#E9EEF1"/>
<path d="M502.428 630.809C499.328 630.809 497.494 628.419 497.494 625.524H510.564C510.564 619.398 507.863 615.527 502.362 615.527C497.227 615.527 493.993 619.028 493.993 624.615C493.993 630.001 497.227 633.703 502.528 633.703C506.896 633.703 509.43 631.213 510.297 627.948H506.796C506.496 628.991 505.329 630.809 502.428 630.809ZM502.362 618.321C505.196 618.321 507.063 620.24 507.063 622.899H497.494C497.494 620.24 499.528 618.321 502.362 618.321Z" fill="#E9EEF1"/>
<path d="M723.58 631.127H732.881C739.435 631.127 743.307 626.777 743.307 618.901C743.307 611.024 739.302 606.641 732.782 606.641H723.58V631.127ZM727.519 610.099H732.583C737.879 610.099 739.369 614.209 739.369 618.901C739.369 623.592 737.879 627.668 732.583 627.668H727.519V610.099Z" fill="#E9EEF1"/>
<path d="M752.589 628.695C749.51 628.695 747.69 626.264 747.69 623.319H760.665C760.665 617.086 757.984 613.147 752.522 613.147C747.425 613.147 744.214 616.709 744.214 622.394C744.214 627.873 747.425 631.64 752.688 631.64C757.024 631.64 759.54 629.106 760.4 625.784H756.925C756.627 626.846 755.468 628.695 752.589 628.695ZM752.522 615.99C755.336 615.99 757.189 617.942 757.189 620.647H747.69C747.69 617.942 749.709 615.99 752.522 615.99Z" fill="#E9EEF1"/>
<path d="M760.012 613.627L766.003 631.127H769.942L775.933 613.627H772.259L767.989 627.325H767.956L763.686 613.627H760.012Z" fill="#E9EEF1"/>
<path d="M783.67 628.695C780.592 628.695 778.771 626.264 778.771 623.319H791.746C791.746 617.086 789.065 613.147 783.604 613.147C778.506 613.147 775.296 616.709 775.296 622.394C775.296 627.873 778.506 631.64 783.769 631.64C788.105 631.64 790.621 629.106 791.481 625.784H788.006C787.708 626.846 786.549 628.695 783.67 628.695ZM783.604 615.99C786.417 615.99 788.271 617.942 788.271 620.647H778.771C778.771 617.942 780.79 615.99 783.604 615.99Z" fill="#E9EEF1"/>
<path d="M793.202 606.641V631.127H796.711V606.641H793.202Z" fill="#E9EEF1"/>
<path d="M806.705 631.64C801.41 631.64 798.199 627.839 798.199 622.394C798.199 616.949 801.41 613.147 806.705 613.147C812.001 613.147 815.212 616.949 815.212 622.394C815.212 627.839 812.001 631.64 806.705 631.64ZM806.705 628.695C810.015 628.695 811.737 625.99 811.737 622.394C811.737 618.764 810.015 616.093 806.705 616.093C803.396 616.093 801.674 618.764 801.674 622.394C801.674 625.99 803.396 628.695 806.705 628.695Z" fill="#E9EEF1"/>
<path d="M825.392 613.147C822.744 613.147 821.09 614.449 820.196 615.682H820.13V613.627H816.621V637.085H820.13V629.038H820.196C821.09 630.339 822.744 631.64 825.392 631.64C829.695 631.64 832.906 628.147 832.906 622.394C832.906 616.641 829.695 613.147 825.392 613.147ZM824.73 628.695C821.917 628.695 820.163 626.264 820.163 622.394C820.163 618.49 821.917 616.093 824.73 616.093C827.776 616.093 829.397 618.969 829.397 622.394C829.397 625.818 827.776 628.695 824.73 628.695Z" fill="#E9EEF1"/>
<path d="M1045.92 633.194H1055.32C1061.94 633.194 1065.86 628.878 1065.86 621.062C1065.86 613.246 1061.81 608.896 1055.22 608.896H1045.92V633.194ZM1049.9 612.329H1055.02C1060.37 612.329 1061.88 616.407 1061.88 621.062C1061.88 625.718 1060.37 629.761 1055.02 629.761H1049.9V612.329Z" fill="#E9EEF1"/>
<path d="M1075.24 630.781C1072.13 630.781 1070.29 628.368 1070.29 625.446H1083.4C1083.4 619.261 1080.69 615.353 1075.17 615.353C1070.02 615.353 1066.77 618.887 1066.77 624.528C1066.77 629.965 1070.02 633.703 1075.34 633.703C1079.72 633.703 1082.26 631.189 1083.13 627.892H1079.62C1079.32 628.946 1078.15 630.781 1075.24 630.781ZM1075.17 618.174C1078.01 618.174 1079.89 620.111 1079.89 622.795H1070.29C1070.29 620.111 1072.33 618.174 1075.17 618.174Z" fill="#E9EEF1"/>
<path d="M1084.87 608.896V633.194H1088.42V608.896H1084.87Z" fill="#E9EEF1"/>
<path d="M1092.53 612.906C1093.57 612.906 1094.54 612.227 1094.54 611.003C1094.54 609.78 1093.57 609.134 1092.53 609.134C1091.56 609.134 1090.56 609.78 1090.56 611.003C1090.56 612.227 1091.56 612.906 1092.53 612.906ZM1090.8 615.829V633.194H1094.31V615.829H1090.8Z" fill="#E9EEF1"/>
<path d="M1095.2 615.829L1101.26 633.194H1105.24L1111.29 615.829H1107.58L1103.26 629.422H1103.23L1098.92 615.829H1095.2Z" fill="#E9EEF1"/>
<path d="M1119.11 630.781C1116 630.781 1114.16 628.368 1114.16 625.446H1127.27C1127.27 619.261 1124.56 615.353 1119.04 615.353C1113.89 615.353 1110.65 618.887 1110.65 624.528C1110.65 629.965 1113.89 633.703 1119.21 633.703C1123.59 633.703 1126.13 631.189 1127 627.892H1123.49C1123.19 628.946 1122.02 630.781 1119.11 630.781ZM1119.04 618.174C1121.89 618.174 1123.76 620.111 1123.76 622.795H1114.16C1114.16 620.111 1116.2 618.174 1119.04 618.174Z" fill="#E9EEF1"/>
<path d="M1136.8 615.421C1134.56 615.421 1133.16 616.916 1132.25 619.091H1132.19V615.829H1128.68V633.194H1132.19V624.324C1132.19 620.62 1134.9 618.31 1138.28 618.887H1138.34V615.523C1137.84 615.455 1137.41 615.421 1136.8 615.421Z" fill="#E9EEF1"/>
<path d="M43.3537 366.465L43.3537 361.678L31.873 361.678L31.873 354.237C31.873 348.726 29.2637 344.744 23.2424 344.744C17.221 344.744 14.6519 348.726 14.6519 354.237L14.6519 366.465L43.3537 366.465ZM18.7063 361.678L18.7063 354.438C18.7063 351.22 20.1113 349.531 23.2424 349.531C26.4136 349.531 27.7784 351.22 27.7784 354.438L27.7784 361.678L18.7063 361.678Z" fill="#E9EEF1"/>
<path d="M22.3592 333.436C22.3592 336.131 24.1255 337.82 26.6946 338.906L26.6946 338.987L22.8409 338.987L22.8409 343.21L43.3537 343.21L43.3537 338.987L32.8765 338.987C28.501 338.987 25.7713 335.728 26.4537 331.666L26.4537 331.585L22.4797 331.585C22.3994 332.189 22.3592 332.712 22.3592 333.436Z" fill="#E9EEF1"/>
<path d="M43.9558 321.496C43.9558 327.931 39.5 331.833 33.1174 331.833C26.7347 331.833 22.279 327.931 22.279 321.496C22.279 315.06 26.7347 311.158 33.1174 311.158C39.5 311.158 43.9558 315.06 43.9558 321.496ZM40.5036 321.496C40.5036 317.473 37.3323 315.382 33.1174 315.382C28.8623 315.382 25.7312 317.473 25.7312 321.496C25.7312 325.518 28.8623 327.61 33.1174 327.61C37.3323 327.61 40.5036 325.518 40.5036 321.496Z" fill="#E9EEF1"/>
<path d="M22.2789 298.867C22.2789 302.045 23.7642 304.056 25.3298 305.142L25.3298 305.222L14.6519 305.222L14.6519 309.446L43.3537 309.446L43.3537 305.222L40.9853 305.222L40.9853 305.142C42.3902 304.056 43.9558 302.045 43.9558 298.867C43.9558 293.598 39.8613 289.696 33.1174 289.696C26.3735 289.696 22.2789 293.598 22.2789 298.867ZM40.5036 299.591C40.5036 303.05 37.6534 305.182 33.1174 305.182C28.5411 305.182 25.7312 303.05 25.7312 299.591C25.7312 295.89 29.1031 293.92 33.1174 293.92C37.1316 293.92 40.5036 295.89 40.5036 299.591Z" fill="#E9EEF1"/>
<path d="M14.6519 287.868L43.3537 287.868L43.3537 283.604L14.6519 283.604L14.6519 287.868Z" fill="#E9EEF1"/>
<path d="M40.5035 271.619C40.5035 275.36 37.6534 277.572 34.2012 277.572L34.2012 261.805C26.8953 261.805 22.2789 265.063 22.2789 271.699C22.2789 277.894 26.4537 281.796 33.1174 281.796C39.5401 281.796 43.9558 277.894 43.9558 271.498C43.9558 266.229 40.9853 263.172 37.0915 262.126L37.0915 266.35C38.3359 266.712 40.5035 268.12 40.5035 271.619ZM25.6108 271.699C25.6108 268.28 27.8989 266.028 31.0701 266.028L31.0701 277.572C27.8989 277.572 25.6108 275.118 25.6108 271.699Z" fill="#E9EEF1"/>
<path d="M22.2789 237.429C22.2789 240.607 23.8445 242.618 25.8115 244.147L25.8115 244.227C23.6036 245.072 22.2789 246.801 22.2789 249.698C22.2789 252.795 23.8846 254.725 25.4903 255.812L25.4903 255.892L22.8409 255.892L22.8409 260.115L43.3537 260.115L43.3537 255.892L30.8694 255.892C27.8186 255.892 25.8516 254.082 25.8516 251.266C25.8516 248.33 27.6179 247.767 30.3877 247.767L43.3536 247.767L43.3536 243.503L30.8694 243.503C27.8186 243.503 25.8516 241.733 25.8516 238.877C25.8516 235.981 27.6179 235.418 30.3877 235.418L43.3536 235.418L43.3536 231.154L29.1834 231.154C24.7678 231.154 22.2789 233.286 22.2789 237.429Z" fill="#E9EEF1"/>
</g>
<defs>
<clipPath id="clip0_6111_131048">
<rect width="1224" height="654" fill="white"/>
</clipPath>
</defs>
</svg>
