<svg width="536" height="715" viewBox="0 0 536 715" fill="none" xmlns="http://www.w3.org/2000/svg">
<path d="M213.612 364.253C212.291 364.253 211.085 364.721 210.145 365.627C209.212 366.533 208.688 367.749 208.666 369.051C208.645 370.353 209.133 371.583 210.037 372.525C210.942 373.46 212.155 373.985 213.454 374.006C213.483 374.006 213.505 374.006 213.533 374.006C214.804 374.006 216.003 373.517 216.915 372.633C218.846 370.763 218.889 367.67 217.022 365.735C216.125 364.807 214.912 364.275 213.612 364.253ZM216.434 372.136C214.783 373.74 212.134 373.697 210.54 372.043C209.764 371.245 209.348 370.187 209.362 369.072C209.384 367.958 209.829 366.915 210.633 366.138C211.444 365.354 212.485 364.965 213.533 364.965C214.625 364.965 215.716 365.39 216.527 366.239C217.302 367.044 217.719 368.094 217.697 369.209C217.683 370.317 217.238 371.36 216.434 372.136Z" fill="#E9EEF1"/>
<path d="M213.639 366.584C212.935 366.606 212.282 366.836 211.779 367.318C211.277 367.8 210.997 368.455 210.983 369.152C210.961 370.591 212.11 371.785 213.546 371.806C213.56 371.806 213.574 371.806 213.589 371.806C214.271 371.806 214.91 371.547 215.405 371.073C215.907 370.591 216.187 369.936 216.202 369.239C216.223 367.8 215.075 366.613 213.639 366.584ZM213.567 371.116C213.057 371.109 212.576 370.9 212.225 370.533C211.866 370.166 211.679 369.684 211.686 369.174C211.693 368.663 211.902 368.181 212.268 367.829C212.627 367.484 213.1 367.289 213.596 367.289C213.603 367.289 213.617 367.289 213.624 367.289C214.68 367.304 215.52 368.181 215.505 369.231C215.491 370.289 214.615 371.109 213.567 371.116Z" fill="#E9EEF1"/>
<path d="M262.911 366.102C261.942 365.304 260.758 364.959 259.566 365.124C258.374 365.297 257.333 365.959 256.63 367.001C255.187 369.123 255.625 372.173 257.599 373.806C258.403 374.474 259.365 374.827 260.348 374.827C260.542 374.827 260.743 374.812 260.937 374.784C262.129 374.611 263.17 373.949 263.873 372.906C265.323 370.785 264.885 367.728 262.911 366.102ZM263.306 372.511C262.71 373.388 261.842 373.942 260.844 374.086C259.846 374.23 258.855 373.935 258.037 373.266C256.328 371.856 255.955 369.224 257.204 367.39C257.8 366.512 258.676 365.951 259.666 365.815C259.831 365.793 259.997 365.779 260.155 365.779C260.98 365.779 261.784 366.074 262.466 366.635C264.175 368.044 264.548 370.684 263.306 372.511Z" fill="#E9EEF1"/>
<path d="M259.398 367.412C258.752 367.505 258.192 367.865 257.811 368.426C257.438 368.979 257.287 369.656 257.38 370.339C257.567 371.648 258.629 372.604 259.821 372.604C259.929 372.604 260.029 372.597 260.137 372.583C261.451 372.396 262.355 371.08 262.154 369.656C261.946 368.231 260.711 367.225 259.398 367.412ZM260.037 371.892C259.103 372.022 258.22 371.281 258.069 370.238C257.998 369.727 258.105 369.217 258.385 368.814C258.658 368.418 259.046 368.167 259.498 368.102C259.57 368.095 259.642 368.088 259.713 368.088C260.561 368.088 261.322 368.792 261.465 369.756C261.609 370.799 260.97 371.763 260.037 371.892Z" fill="#E9EEF1"/>
<path d="M382.234 75.6264C381.336 75.9069 380.403 76.5111 379.592 77.3166C378.788 78.1222 378.185 79.0644 377.905 79.9635C377.56 81.0567 377.711 81.9989 378.328 82.6175C378.73 83.0203 379.262 83.2217 379.893 83.2217C380.231 83.2217 380.597 83.1641 380.977 83.0419C381.875 82.7613 382.808 82.1572 383.619 81.3516C384.423 80.5461 385.026 79.6038 385.306 78.7048C385.651 77.6115 385.5 76.6693 384.883 76.0508C384.265 75.4394 383.325 75.2883 382.234 75.6264ZM383.605 78.1725C383.411 78.7911 382.959 79.4888 382.363 80.0857C381.767 80.6827 381.071 81.1358 380.453 81.33C380.001 81.4739 379.692 81.4379 379.599 81.3444C379.506 81.2509 379.477 80.9488 379.621 80.4885C379.814 79.87 380.267 79.1723 380.862 78.5753C381.458 77.9783 382.155 77.5252 382.772 77.331C382.995 77.2591 383.181 77.2375 383.318 77.2375C383.468 77.2375 383.576 77.2663 383.619 77.3166C383.713 77.4101 383.748 77.7194 383.605 78.1725Z" fill="#E9EEF1"/>
<path d="M513.615 207.767L513.651 205.695C514.793 205.753 515.798 205.789 516.652 205.789C518.935 205.789 520.249 205.559 520.917 204.933C521.232 204.638 521.405 204.257 521.405 203.832H520.579L521.405 203.818L520.687 162.138H520.572C520.658 161.641 520.708 161.116 520.637 160.613C520.457 159.261 519.215 158.117 517.241 157.16V134.468H517.148C517.148 129.944 503.795 127.498 491.231 127.498C478.668 127.498 465.315 129.944 465.315 134.468H465.222V157.534C463.592 158.433 462.616 159.491 462.616 160.742C462.616 160.757 462.637 161.555 462.759 162.425V170.243C462.106 169.992 461.431 169.869 460.735 169.869C457.885 169.869 455.444 172.042 454.425 175.113C452.536 174.48 450.246 174.135 447.877 174.135C447.217 174.135 446.571 174.127 445.953 174.113C441.072 174.048 436.865 173.976 436.757 179.32C436.728 180.737 437.102 181.823 437.898 182.636C439.743 184.521 443.52 184.521 447.884 184.521C450.634 184.521 453.226 184.06 455.257 183.233C456.499 185.312 458.495 186.671 460.742 186.671C461.431 186.671 462.113 186.527 462.767 186.276V187.39V203.818C462.767 204.185 462.896 204.516 463.14 204.796L402.757 185.362C402.14 170.833 396.598 156.477 386.978 144.667C377.573 133.116 365.103 124.837 351.693 121.176C352.181 120.687 352.705 120.169 353.287 119.594C356.797 116.106 361.787 111.114 367.709 105.151C378.664 94.1253 389.505 83.1352 391.457 81.1141C391.702 80.8624 392.685 79.9273 392.879 79.7835C397.825 76.5756 410.503 71.4761 413.511 74.6696C418.149 83.6962 427.417 89.4214 437.669 89.4214C452.651 89.4214 464.841 77.2086 464.841 62.205C464.841 47.1943 452.651 34.9814 437.669 34.9814C436.843 34.9814 436.01 35.0174 435.199 35.0893L435.314 36.3336L435.199 35.0893C434.144 35.1828 433.096 35.3554 432.062 35.5784L430.741 34.9886L420.719 30.5005L419.614 32.9819L428.444 36.9306C433.404 40.8073 436.19 46.511 435.967 52.4592C435.687 59.7236 432.256 64.3124 429.42 66.8801C425.536 70.4045 420.26 72.3896 415.148 72.2817C415.076 72.1235 414.997 71.9796 414.933 71.8214L414.265 72.1019C408.328 68.556 394.164 75.9786 391.536 77.6833C391.07 77.9854 389.691 79.3591 389.677 79.3735C384.673 84.5449 350.25 119.328 345.612 123.622C343.322 122.723 336.323 120.011 332.74 118.63C345.82 104.792 376.884 72.7636 382.685 70.5483C388.284 68.405 395.471 67.2613 397.746 66.9305L398.055 67.0671L398.141 66.8729C398.256 66.8586 398.342 66.8442 398.392 66.837C410.439 66.7866 421.394 56.2209 421.394 44.6194C421.394 39.9227 420.095 35.6359 417.797 32.1548L419.614 32.9675L420.719 30.4861L412.686 26.8899C411.063 25.7535 409.254 24.8472 407.273 24.243L407.215 24.4444L363.991 5.09661L363.912 5.27642C360.121 2.05419 355.153 0.133789 349.561 0.133789C337.622 0.133789 327.909 9.86524 327.909 21.8264C327.909 31.4931 334.255 39.6997 342.985 42.4904L342.899 42.6918L376.13 57.3932H375.556C375.556 57.4652 375.513 64.8447 372.512 68.6279C369.468 72.4615 330.457 111.898 325.468 116.933C321.505 115.458 317.284 113.833 313.472 112.222C307.126 109.553 306.178 109.906 305.733 110.229L215.88 78.1939L215.809 78.4025C208.752 72.4615 200.223 67.4124 190.079 63.1544L190.007 63.3342C182.591 58.2995 174.551 55.48 166.295 55.1348L114.57 39.6565L114.534 39.7357C104.333 34.5139 92.9973 31.5938 81.0658 31.5938C36.5846 31.5938 0.388062 72.1163 0.388062 121.931C0.388062 171.193 35.7878 211.37 79.5941 212.255L79.5654 212.406L124.362 220.677C129.352 223.303 138.16 227.215 146.373 227.215C146.61 227.215 146.847 227.215 147.084 227.208C151.851 227.071 156.517 226.474 161.04 225.453L161.018 225.877C162.375 225.942 163.718 225.978 165.06 225.978C170.064 225.978 174.974 225.511 179.734 224.597L191.651 227.431C191.414 243.089 191.443 246.081 191.881 246.894C191.759 246.714 191.716 246.527 191.709 246.426C191.709 246.484 191.709 246.563 191.709 246.664C191.608 250.433 193.625 252.799 197.725 253.705C198.945 253.971 201.486 254.115 204.81 254.158C204.767 255.165 204.731 256.158 204.695 257.129H189.383L189.426 257.517C189.433 257.582 190.086 264.005 188.141 266.17C187.739 266.616 187.258 266.839 186.683 266.839V267.536H186.841C187.093 271.111 184.652 272.614 184.264 272.83C183.496 272.859 182.886 273.154 182.462 273.722C181.4 275.168 181.881 277.822 182.139 278.9C181.838 278.9 181.45 278.908 181.062 278.915C180.502 278.922 179.964 278.929 179.806 278.929C176.776 278.929 174.307 283.259 174.307 288.574C174.307 293.386 176.331 297.378 178.959 298.097V298.227H182.706C182.347 299.744 183.044 304.017 185.685 306.052C188.629 308.318 189.419 316.395 189.426 316.474L189.454 316.762L205.981 318.373L205.945 318.438L206.541 318.797L211.688 310.173L211.767 310.044L209.269 301.78C212.025 308.102 215.091 308.613 215.773 308.641C215.773 308.641 221.616 308.663 225.723 308.692L225.737 306.275C221.911 306.254 216.591 306.232 215.866 306.225C215.277 306.081 205.184 302.887 207.215 254.388H217.862C217.718 260.847 217.295 289.696 220.719 297.407C221.451 299.054 223.863 302.017 225.859 301.794L225.601 299.392C225.651 299.385 225.673 299.392 225.68 299.392C225.17 299.306 223.569 297.874 222.923 296.421C221.358 292.904 220.662 284.223 220.374 275.556L232.155 275.7L232.148 275.707L256.837 275.959C256.628 281.181 256.384 287.567 256.262 291.566L226.297 291.128L226.29 292.027C226.139 304.254 226.211 311.202 226.376 315.179C223.282 315.647 220.619 318.042 220.741 320.286C220.776 320.984 221.049 321.646 221.509 322.278L221.803 331.78C196.957 335.635 192.922 345.028 192.764 345.431L192.692 345.611L193.941 374.007L193.956 374.338L194.178 374.575C194.544 374.971 195.973 376.452 197.495 377.373C189.34 396.073 89.0273 625.96 77.1819 653.234H74.2385L62.8311 677.523L66.1406 688.563L66.478 688.736C66.8657 688.937 75.4949 693.382 82.2001 693.382C82.6452 693.382 83.0831 693.361 83.5066 693.325C84.124 693.267 85.2655 693.152 94.7705 671.05L94.8638 670.834L94.3182 666.108L93.2701 666.231C135.799 567.787 214.179 386.91 220.317 374.884C223.232 374.136 225.665 373.604 226.843 374.036C233.412 376.445 245.013 375.201 249.966 374.676C250.907 374.575 251.718 374.51 251.919 374.496C252.012 374.503 252.206 374.561 252.45 374.64C255.042 382.58 309.954 550.985 316.422 571.693L316.157 571.506L313.142 575.684L319.316 593.047L342.482 595.421L346.768 582.568L341.75 566.068L337.895 563.997L337.744 564.277L321.649 515.203L401.745 686.816L397.28 687.851L410.001 714.902H410.568C410.934 714.902 419.585 714.888 422.622 713.629C423.598 713.219 438.889 704.401 440.634 703.402L441.33 702.999L428.86 675.006L426.836 676.041L288.654 373.913C290.492 373.093 291.748 372.496 291.906 372.417L292.445 372.158L292.409 371.561C292.401 371.418 291.583 356.853 291.361 350.027C291.167 344.273 284.311 339.663 276.708 336.153C276.651 333.592 276.45 327.515 275.926 326.22C275.689 325.63 275.136 325.17 274.303 324.846C272.451 324.127 269.163 324.105 267.182 324.256L266.988 319.718C267.146 319.286 267.217 318.848 267.189 318.409C267.074 316.33 265.078 314.626 261.402 313.403L260.663 312.964V307.404C261.209 307.606 261.819 307.721 262.515 307.721C267.706 307.721 277.448 307.886 277.548 307.886V307.721C278.445 308.109 279.343 308.318 280.226 308.318C280.369 308.318 280.506 308.311 280.649 308.303C283.464 308.102 285.531 305.959 286.838 304.355C288.187 302.708 289.946 291.005 291.303 280.31L306.91 280.584C308.346 282.245 310.062 283.151 311.993 283.151C314.111 283.151 315.338 282.835 315.762 282.187C315.827 282.087 315.862 281.986 315.884 281.885C320.938 281.324 323.53 268.572 324.542 261.854C327.342 262.271 329.797 262.53 331.577 262.624C332.618 262.674 333.659 262.703 334.693 262.703C339.955 262.703 345.146 262.034 350.185 260.747L350.178 260.775L386.849 269.32L387.251 267.58L387.042 267.529L387.753 253.734L394.968 255.511C395.98 268.63 400.087 276.8 406.052 277.153L406.124 275.93L406.103 277.16L411.76 277.246C411.925 277.268 412.09 277.297 412.255 277.304V277.253L425.429 277.455L425.436 277.131C425.945 277.304 426.462 277.419 426.986 277.448C427.101 277.455 427.216 277.455 427.331 277.455C430.949 277.455 434.445 274.046 437.202 267.795C437.446 267.241 437.683 266.666 437.913 266.076L456.42 270.629C455.042 287.086 455.458 287.56 455.767 287.906L456.04 288.2L511.268 290.941L512.165 291.207L523.817 251.296C527.162 250.915 531.692 250.195 531.692 246.47C531.692 244.556 530.465 242.873 527.966 241.377L532.037 228.229L530.328 227.697L529.847 229.258L513.35 223.252L513.386 221.08L532.087 228.122L532.346 227.172C532.367 227.086 534.758 218.232 535.346 216.369L535.612 215.542L513.615 207.767ZM462.343 62.2194C462.343 75.8564 451.273 86.9472 437.662 86.9472C430.274 86.9472 423.454 83.6746 418.845 78.2299C423.117 79.7619 428.831 80.5818 432.328 80.5818C444.173 80.5818 453.807 70.9295 453.807 59.0619C453.807 51.9845 450.483 45.6191 445.322 41.7136L445.386 41.5626L444.683 41.2461C442.644 39.8292 440.347 38.7791 437.87 38.1965L436.362 37.5204C436.793 37.4988 437.231 37.4844 437.662 37.4844C451.266 37.4844 462.343 48.5824 462.343 62.2194ZM434.029 37.7649L433.95 37.9375L434.029 37.7649ZM430.167 36.2401L429.7 37.283L430.167 36.2401ZM415.521 72.8643C420.633 72.8643 425.888 70.836 429.772 67.3117C432.686 64.672 436.211 59.9538 436.499 52.5023C436.714 46.9785 434.395 41.6561 430.195 37.7433L433.397 39.1747L435.659 40.1888L435.644 40.3255C435.824 40.347 435.996 40.3902 436.176 40.4261L444.202 44.008C448.545 47.482 451.323 52.9699 451.323 59.0619C451.323 69.5557 442.802 78.086 432.335 78.086C427.891 78.086 419.47 76.59 416.376 74.2524L416.225 74.4466C416.031 74.1014 415.83 73.7634 415.651 73.4037L415.672 73.3894C415.651 73.3606 415.622 73.339 415.6 73.3102C415.529 73.1592 415.457 73.001 415.385 72.8499C415.435 72.8571 415.478 72.8643 415.521 72.8643ZM519.754 203.84C519.754 203.832 519.754 203.832 519.754 203.84V203.84ZM491.231 128.98C506.379 128.98 515.676 132.181 515.676 134.475H515.583V136.424C512.165 133.519 501.526 131.843 491.174 131.843C480.929 131.843 470.398 133.483 466.873 136.331V134.475H466.78C466.787 132.181 476.084 128.98 491.231 128.98ZM466.873 137.302C469.084 134.842 478.295 132.562 491.174 132.562C504.268 132.562 513.565 134.921 515.583 137.424V156.47C510.04 154.434 500.779 153.471 492.078 153.471C483.844 153.471 472.832 154.406 466.873 156.772V137.302ZM492.078 155.413C508.978 155.413 518.404 158.584 518.713 160.879C518.792 161.447 518.612 162.174 518.411 162.749C513.939 160.152 502.761 158.664 491.87 158.664C480.556 158.664 468.941 160.268 464.841 163.058C464.691 162.512 464.547 161.152 464.547 160.757C464.554 158.57 475.272 155.413 492.078 155.413ZM462.759 174.099V184.535C461.718 183.132 461.115 181.27 461.115 179.32C461.115 177.371 461.711 175.508 462.759 174.099ZM447.877 183.78C443.678 183.78 440.052 183.78 438.43 182.118C437.784 181.457 437.482 180.55 437.504 179.342C437.597 174.746 440.914 174.796 445.939 174.868C446.564 174.875 447.217 174.89 447.877 174.89C449.134 174.89 450.361 174.991 451.517 175.185C451.122 176.199 450.892 177.436 450.892 178.752C450.892 180.586 451.302 182.262 452.02 183.355L452.651 182.938C452.027 181.982 451.653 180.421 451.653 178.752C451.653 177.465 451.876 176.264 452.278 175.321C452.96 175.465 453.613 175.631 454.224 175.839C454.03 176.609 453.929 177.429 453.929 178.277C453.929 179.853 454.288 181.32 454.898 182.579C452.967 183.355 450.498 183.78 447.877 183.78ZM454.683 178.285C454.683 177.371 454.819 176.501 455.049 175.688L455.171 175.386C455.164 175.379 455.15 175.379 455.142 175.379C456.047 172.603 458.215 170.639 460.742 170.639C461.438 170.639 462.12 170.797 462.767 171.085V172.919C462.709 172.977 462.652 173.034 462.594 173.099C461.18 174.688 460.362 176.954 460.362 179.32C460.362 181.73 461.173 183.952 462.601 185.542C462.006 185.786 461.381 185.923 460.742 185.923C457.397 185.923 454.683 182.492 454.683 178.285ZM464.411 164.403C466.413 161.864 476.938 159.426 491.87 159.426C504.871 159.426 514.534 161.274 518.138 163.425C518.124 163.461 518.102 163.511 518.088 163.54L518.863 163.928C518.935 163.986 519 164.051 519.064 164.108L519.746 203.753C518.942 204.429 513.443 204.055 508.583 203.725C503.888 203.408 498.051 203.005 491.82 203.005C485.553 203.005 479.781 203.408 475.143 203.732C470.233 204.07 465.164 204.422 464.403 203.76V187.405V164.403H464.411ZM450.562 210.78C452.831 217.455 453.355 225.935 451.998 234.048C450.053 245.657 445.357 255.626 439.794 260.25C441.029 255.575 441.847 250.296 442.177 244.786C442.694 236.033 441.912 227.712 439.966 221.353C437.898 214.614 434.704 210.78 430.964 210.557C430.942 210.557 430.928 210.557 430.906 210.557V210.529L416.943 210.334C416.749 201.905 414.897 195.079 411.867 190.886L444.683 201.445C447.03 203.264 449.112 206.522 450.562 210.78ZM405.765 271.312L419.714 271.104C420.482 272.657 421.337 273.938 422.263 274.937L408.386 274.722C407.445 273.859 406.569 272.708 405.765 271.312ZM405.399 270.644C404.631 269.198 403.949 267.529 403.346 265.681L417.639 265.479C417.747 265.875 417.862 266.263 417.977 266.637C418.4 268.033 418.881 269.291 419.398 270.435L405.399 270.644ZM411.896 212.722C410.841 213.463 409.814 214.485 408.838 215.743L405.614 215.65C406.117 215.067 406.634 214.556 407.165 214.125C408.443 213.089 409.75 212.579 411.049 212.593V212.715L411.896 212.722ZM405.076 216.304L408.342 216.405C407.33 217.807 406.375 219.455 405.5 221.317L402.197 221.217C403.073 219.296 404.035 217.642 405.076 216.304ZM401.903 221.878L405.191 221.979C404.315 223.914 403.525 226.057 402.843 228.359L399.706 228.265C400.338 225.928 401.077 223.784 401.903 221.878ZM399.534 228.927L402.657 229.021C402.025 231.243 401.494 233.609 401.085 236.069L398.098 236.112C398.464 233.581 398.952 231.171 399.534 228.927ZM397.99 236.796L400.962 236.752C400.661 238.687 400.431 240.687 400.288 242.715L397.38 242.729C397.517 240.694 397.725 238.709 397.99 236.796ZM416.153 257.704L401.551 257.913C401.221 255.777 400.991 253.525 400.883 251.195L415.651 250.85C415.715 253.216 415.888 255.518 416.153 257.704ZM415.629 250.174L400.855 250.519C400.769 248.26 400.783 245.93 400.927 243.571C400.934 243.506 400.934 243.449 400.941 243.384L415.766 243.326C415.629 245.65 415.586 247.944 415.629 250.174ZM400.23 243.528C400.087 245.916 400.065 248.26 400.151 250.533L397.186 250.605C397.143 248.282 397.186 245.887 397.33 243.485C397.33 243.456 397.337 243.427 397.337 243.398L400.245 243.384C400.245 243.434 400.237 243.485 400.23 243.528ZM397.201 251.281L400.187 251.209C400.295 253.54 400.51 255.791 400.833 257.92L397.689 257.963C397.423 255.877 397.258 253.64 397.201 251.281ZM400.934 258.596C401.307 260.891 401.795 263.048 402.384 265.026L399.038 265.077C398.507 263.156 398.077 260.998 397.768 258.646L400.934 258.596ZM402.592 265.695C403.174 267.529 403.856 269.198 404.609 270.658L401.264 270.708C400.496 269.349 399.814 267.68 399.24 265.745L402.592 265.695ZM403.138 265.012C402.535 263.041 402.039 260.883 401.659 258.582L416.239 258.373C416.541 260.653 416.957 262.811 417.467 264.803L403.138 265.012ZM415.809 242.658L400.991 242.715C401.135 240.68 401.365 238.68 401.666 236.745L416.412 236.53L416.405 235.853L401.781 236.069C402.19 233.617 402.721 231.257 403.346 229.049L417.733 229.488C416.763 233.552 416.11 238.018 415.809 242.658ZM417.883 228.819L403.533 228.38C404.215 226.064 405.011 223.921 405.88 222.001L419.843 222.432C419.097 224.396 418.443 226.546 417.883 228.819ZM420.741 220.21C420.518 220.713 420.31 221.231 420.095 221.763L406.182 221.332C407.079 219.447 408.055 217.793 409.089 216.419L422.471 216.822C421.868 217.843 421.286 218.965 420.741 220.21ZM422.88 216.168L409.606 215.772C410.726 214.413 411.896 213.384 413.095 212.751L425.493 212.924C424.581 213.772 423.713 214.866 422.88 216.168ZM385.118 146.192C394.99 158.311 400.424 173.185 400.424 188.074C400.424 208.989 392.161 228.862 377.76 242.6C366.324 253.511 352.045 259.668 337.076 260.265C351.915 259.085 365.95 252.36 376.949 241.046C390.316 227.287 397.517 208.766 397.215 188.886C396.784 160.404 378.887 134.468 353.122 124.118C365.268 127.894 376.511 135.626 385.118 146.192ZM359.41 174.566C357.285 174.559 350.092 172.797 343.688 170.905C343.904 167.913 344.22 158.664 341.176 147.896C338.57 138.69 332.999 127.053 321.168 118.285L329.546 121.27L329.538 121.299C329.711 121.349 329.883 121.406 330.048 121.45L336.531 123.758L336.56 123.686C336.574 123.694 336.581 123.694 336.595 123.701L336.531 123.924C337.22 124.118 337.902 124.327 338.577 124.542C339.453 124.924 340.321 125.326 341.183 125.744C346.151 130.505 362.548 148.45 359.41 174.566ZM335.813 147.789C331.663 135.317 324.965 127.837 318.346 121.608C314.017 117.53 309.215 114.595 305.905 112.833L308.131 113.624C323.817 120.184 334.155 131.9 338.864 148.45C342.396 160.879 341.247 171.517 341.233 171.624L341.118 172.617L342.073 172.905C350.336 175.393 355.972 176.71 358.915 176.861L356.209 178.932L338.11 174.228C338.505 172.2 340.257 161.145 335.813 147.789ZM346.029 127.362C368.729 137.575 383.395 159.584 383.395 184.801C383.395 221.217 354.557 253.159 321.685 253.159C318.332 253.159 313.773 252.835 309.66 252.144L309.703 251.965C310.722 251.986 311.735 252.001 312.732 252.001C313.536 252.001 314.319 251.993 315.087 251.993C315.805 251.986 316.509 251.986 317.176 251.986C351.463 251.986 380.423 220.807 380.423 183.902C380.423 169.143 375.096 155.096 365.017 143.279C359.719 137.065 353.33 131.771 346.294 127.671C346.208 127.563 346.115 127.463 346.029 127.362ZM306.307 253.914C311.203 255.036 317.406 255.546 321.692 255.546C355.835 255.546 385.786 222.49 385.786 184.801C385.786 158.757 370.732 136.014 347.385 125.348C347.874 124.916 348.505 124.312 349.353 123.485C376.726 132.706 396.052 159.419 396.497 188.886C396.791 208.572 389.67 226.913 376.432 240.536C364.579 252.734 349.173 259.553 333.049 259.74C329.546 259.783 324.542 259.43 320.249 258.718C319.201 258.524 318.131 258.308 317.061 258.085C316.631 257.985 316.214 257.877 315.819 257.762L315.805 257.812C312.481 257.071 309.15 256.179 306.221 255.165C306.25 254.755 306.279 254.338 306.307 253.914ZM418.888 44.6481C418.888 54.6961 409.06 64.1901 398.586 64.3628L351.298 43.447C362.426 42.5551 371.213 33.2049 371.213 21.8264C371.213 17.3167 369.971 13.2097 367.795 9.80769L412.19 29.6806C416.376 33.0826 418.888 38.4554 418.888 44.6481ZM352.935 38.9085C344.686 38.9085 337.981 32.1835 337.981 23.9266C337.981 15.6624 344.693 8.9446 352.935 8.9446C361.184 8.9446 367.889 15.6696 367.889 23.9266C367.896 32.1907 361.184 38.9085 352.935 38.9085ZM330.393 21.8264C330.393 11.239 338.993 2.62239 349.561 2.62239C360.667 2.62239 368.729 10.6996 368.729 21.8264C368.729 23.2217 368.578 24.5739 368.298 25.8829C368.377 25.2428 368.434 24.5883 368.434 23.9266C368.434 15.3675 361.485 8.40516 352.942 8.40516C344.399 8.40516 337.45 15.3675 337.45 23.9266C337.45 32.4856 344.399 39.448 352.942 39.448C356.065 39.448 358.972 38.5129 361.406 36.909C358.147 39.4839 354.033 41.0303 349.568 41.0303C338.993 41.0303 330.393 32.4137 330.393 21.8264ZM374.45 70.1815C377.372 66.5061 377.911 60.4429 378.011 58.2348L393.561 65.1108C390.251 65.7221 385.7 66.7435 381.773 68.2395C374.02 71.2028 331.448 116.365 329.639 118.285L329.51 118.422C329.022 118.242 328.519 118.062 328.017 117.882C335.555 110.28 371.414 74.0079 374.45 70.1815ZM170.997 59.0619C187.76 65.5855 217.366 84.6672 217.23 137.928C217.173 162.526 207.847 185.83 191.651 201.869C178.492 214.895 161.751 222.044 144.442 222.044C144.248 222.044 144.054 222.044 143.861 222.044C140.874 222.015 137.809 221.13 134.851 220.282C132.302 219.548 129.883 218.858 127.909 218.879L125.08 218.354C124.987 218.304 124.886 218.253 124.793 218.203L124.743 218.289L89.4939 211.78C93.8229 211.277 98.0944 210.392 102.28 209.119C119.043 204.019 133.379 193.13 143.774 178.716C155.799 163.188 162.648 143.228 162.648 122.334C162.648 105.497 158.333 89.3926 150.293 75.5759C143.516 62.9387 134.061 52.2938 122.812 44.6481L170.997 59.0619ZM140.687 64.9885C141.614 66.2112 142.511 67.4555 143.372 68.7358C138.921 67.5634 134.348 66.9593 129.725 66.9593C97.7426 66.9593 71.7187 95.4487 71.7187 130.469C71.7187 164.166 95.8115 191.807 126.128 193.849C124.635 195.029 123.113 196.158 121.541 197.223C106.106 196.561 92.0568 189.57 81.7621 177.364C71.2234 164.871 65.4155 148.062 65.4155 130.052C65.4155 112.351 71.9197 95.607 83.7364 82.8978C95.5961 70.1383 111.297 63.1113 127.938 63.1113C128.304 63.1113 128.684 63.1113 129.079 63.1041C132.546 63.0753 137.306 63.0322 140.429 65.3338L140.687 64.9885ZM128.914 191.54C98.6328 191.059 74.1309 163.857 74.1309 130.469C74.1309 96.7794 99.0707 69.3759 129.725 69.3759C135.052 69.3759 140.314 70.2031 145.375 71.8358C154.184 86.0625 159.36 103.332 159.36 121.939C159.367 149.752 147.651 175.235 128.914 191.54ZM161.751 121.931C161.751 114.969 161.04 108.187 159.705 101.67C161.184 108.352 161.952 115.278 161.952 122.334C161.952 133.303 160.049 144.005 156.496 153.945C159.891 143.919 161.751 133.109 161.751 121.931ZM140.199 64.3412C136.918 62.3417 132.424 62.3776 129.079 62.4064C128.684 62.4064 128.304 62.4136 127.945 62.4136C111.103 62.4136 95.2228 69.5198 83.2338 82.4231C71.3023 95.2617 64.7263 112.178 64.7263 130.059C64.7263 148.234 70.5916 165.202 81.2381 177.824C91.4538 189.929 105.316 196.971 120.572 197.884C118.648 199.15 116.674 200.322 114.649 201.409C105.259 205.796 95.1438 208.083 84.7558 208.083C42.1914 208.083 7.55989 169.618 7.55989 122.341C7.55989 75.0652 42.1843 36.5925 84.7486 36.5925C99.0061 36.5925 112.682 40.8649 124.578 48.8486C130.378 53.2216 135.633 58.4361 140.199 64.3412ZM2.77149 121.931C2.77149 73.4325 37.8984 33.9745 81.0658 33.9745C92.9327 33.9745 104.189 36.9594 114.283 42.2962C105.036 38.0958 95.0505 35.8877 84.7558 35.8877C41.8038 35.8877 6.86353 74.6624 6.86353 122.327C6.86353 169.992 41.8038 208.766 84.7558 208.766C90.8579 208.766 96.874 207.982 102.696 206.465C102.323 206.587 101.957 206.717 101.583 206.832C94.9284 208.853 88.0294 209.881 81.0658 209.881C37.8984 209.889 2.77149 170.43 2.77149 121.931ZM147.012 224.813C141.298 224.964 135.117 222.964 130.278 220.864L130.465 219.857C131.771 220.116 133.193 220.526 134.657 220.943C137.522 221.771 140.774 222.706 143.853 222.734C144.054 222.734 144.248 222.734 144.449 222.734C161.937 222.734 178.858 215.513 192.147 202.358C208.472 186.189 217.876 162.706 217.934 137.928C217.991 113.746 211.889 93.9455 199.778 79.0714C191.292 68.6495 181.421 62.6725 173.402 59.2633L173.618 58.5512C185.607 61.3923 196.842 69.8075 205.844 82.8763C216.39 98.1891 222.564 118.263 222.772 137.949C223.275 184.664 189.289 223.626 147.012 224.813ZM225.156 137.928C224.94 117.774 218.616 97.2109 207.804 81.5241C204.53 76.7698 200.962 72.6126 197.165 69.081C210.381 75.8132 220.288 84.2356 227.281 94.6791C235.615 107.129 239.672 122.19 239.672 140.74C239.672 166.273 230.827 188.771 214.76 204.091C202.161 216.103 185.729 222.878 167.91 223.533C201.278 212.478 225.586 177.975 225.156 137.928ZM216.404 205.818C232.945 190.044 242.055 166.935 242.055 140.733C242.055 121.694 237.87 106.194 229.262 93.3413C226.584 89.3423 223.497 85.6382 219.987 82.2002L301.655 111.315L301.576 111.517C301.662 111.553 310.464 115.149 317.865 122.111C324.413 128.275 331.039 135.684 335.145 148.004C339.984 162.533 337.392 174.286 337.364 174.401L337.285 174.732L356.359 179.694L360.078 176.839C360.487 176.796 360.803 176.717 361.004 176.58C361.377 176.336 361.614 175.969 361.672 175.537C364.5 154.111 354.665 137.863 347.687 129.325C353.961 133.224 359.676 138.086 364.479 143.718C374.443 155.405 379.713 169.294 379.713 183.888C379.713 220.418 351.068 251.274 317.162 251.274C316.487 251.274 315.791 251.281 315.066 251.281C312.359 251.296 309.337 251.303 306.487 251.102C307.147 241.866 307.937 230.725 307.937 230.725L307.987 229.984L307.269 229.797C305.632 229.366 267.174 219.21 265.344 218.901L264.382 218.742L264.296 219.814L264.052 218.599L250.167 221.368L249.988 224.791H249.098L249.076 225.237L248.947 224.856C248.739 224.928 248.416 225.065 247.971 225.259C245.666 226.273 239.535 228.963 227.065 230.301C221.616 230.883 215.45 230.351 209.886 229.459L209.922 229.308L184.96 223.367C196.77 220.253 207.51 214.298 216.404 205.818ZM221.581 253.95C233.72 253.605 246.248 252.986 248.638 252.864V256.899L254.733 259.128C245.393 259.646 241.229 260.035 239.327 260.351L239.37 260.236L221.581 253.95ZM194.092 246.728C194.099 246.47 194.106 246.131 193.992 245.815C193.855 244.369 193.934 235.005 194.027 228.33C198.981 229.805 214.732 234.055 227.352 232.696C240.189 231.315 246.556 228.517 248.954 227.467C248.968 227.46 248.976 227.46 248.99 227.453L247.798 250.519C232.119 251.303 203.001 252.432 198.227 251.382C193.992 250.44 194.063 247.937 194.092 246.728ZM188.658 266.637C190.538 264.544 190.266 259.315 190.151 257.834H204.674C204.638 258.941 204.617 260.02 204.595 261.077C204.351 263.099 203.848 265.163 202.865 266.199C202.456 266.63 201.996 266.839 201.472 266.839H188.471C188.528 266.774 188.593 266.709 188.658 266.637ZM187.53 267.536H201.099C201.027 270.442 200.144 271.917 199.146 272.823H185.441C186.389 271.981 187.71 270.305 187.53 267.536ZM183.022 274.132C183.331 273.715 183.769 273.513 184.365 273.513H198.22C198.055 273.621 197.897 273.722 197.739 273.815C197.359 274.053 196.992 274.269 196.712 274.527C195.607 275.542 195.542 277.663 195.564 278.519L182.85 278.879C182.563 277.778 182.161 275.304 183.022 274.132ZM196.633 279.62C199.06 279.62 201.113 283.719 201.113 288.567C201.113 293.415 199.06 297.515 196.633 297.515C194.207 297.515 192.154 293.415 192.154 288.567C192.154 283.719 194.207 279.62 196.633 279.62ZM175.003 288.567C175.003 283.633 177.157 279.62 179.799 279.62C179.964 279.62 180.502 279.613 181.062 279.605C181.529 279.598 182.01 279.591 182.319 279.591L182.333 279.627L195.327 279.224C193.073 280.274 191.45 283.993 191.45 288.56C191.45 292.667 192.764 296.098 194.666 297.508H183.331H179.799C177.157 297.515 175.003 293.501 175.003 288.567ZM190.086 316.107C189.914 314.59 188.995 307.706 186.109 305.484C184.379 304.153 183.553 301.737 183.352 299.917C183.245 298.946 183.345 298.385 183.424 298.212H196.633H199.936C199.799 299.708 199.462 304.988 201.207 306.865C201.472 307.153 201.709 307.383 201.917 307.591C203.267 308.929 203.698 309.354 205.176 317.575L190.086 316.107ZM208.881 300.852C208.823 300.723 208.759 300.564 208.701 300.392C208.766 300.55 208.823 300.708 208.881 300.852ZM207.94 298.155C207.502 299.78 208.328 301.334 208.486 301.614L210.999 309.936L206.009 318.294L205.945 317.913C204.351 309.03 203.899 308.584 202.405 307.102C202.197 306.894 201.967 306.671 201.716 306.397C199.936 304.477 200.654 297.975 200.668 297.91L200.711 297.522H198.593C200.496 296.105 201.81 292.681 201.81 288.574C201.81 283.166 199.534 278.929 196.633 278.929C196.511 278.929 196.397 278.951 196.282 278.958L196.275 278.836C196.275 278.807 196.066 276.081 197.186 275.045C197.416 274.83 197.739 274.635 198.105 274.412C199.548 273.528 201.709 272.197 201.802 267.5C202.384 267.421 202.908 267.155 203.36 266.68C203.856 266.163 204.236 265.422 204.538 264.58C204.416 281.339 205.952 291.725 207.94 298.155ZM220.238 256.007L237.611 262.149C239.349 267.896 235.099 272.801 234.022 273.916L220.303 273.751C220.116 266.601 220.173 259.711 220.238 256.007ZM239.463 262.106C241.797 261.746 249.126 261.229 256.011 260.855C256.04 261.034 256.068 261.214 256.097 261.387L255.954 264.508H260.383L260.196 274.182L236.376 273.938C238.15 271.722 240.813 267.313 239.463 262.106ZM256.93 317.69C257.002 313.863 257.088 308.188 257.117 302.916C257.504 304.197 258.057 305.354 258.875 306.218V314.41L256.93 317.69ZM228.056 292.926L255.264 293.321C255.465 300.392 255.2 314.985 255.092 320.243C251.797 320.293 237.697 319.596 228.386 319.092C227.963 316.208 227.956 302.211 228.056 292.926ZM245.989 339.138C240.246 339.368 234.474 338.922 230.167 337.922C225.981 336.951 224.115 335.685 223.684 334.7L223.354 323.947C226.814 326.277 233.354 327.781 240.849 327.781C241.897 327.781 242.974 327.752 244.058 327.687C250.067 327.349 255.76 326.277 260.096 324.681C262.365 323.839 264.102 322.911 265.294 321.912L265.753 332.628C265.48 333.945 263.592 335.383 260.548 336.548C256.758 337.994 251.589 338.915 245.989 339.138ZM199.376 341.116C202.958 338.699 209.757 335.469 221.853 333.563L221.875 334.355H221.789C221.796 334.578 221.839 334.793 221.896 335.002L221.911 335.39L222.033 335.383C222.471 336.404 223.497 337.318 225.091 338.102L225.105 338.9C220.08 338.929 210.424 343.849 203.999 347.121C201.96 348.157 200.352 348.977 199.354 349.401C198.414 349.804 197.531 349.819 196.734 349.444C195.715 348.97 194.997 347.941 194.537 347.078L194.487 345.92C194.781 345.374 195.995 343.396 199.376 341.116ZM199.584 378.092C201.235 378.135 202.843 378.078 204.401 377.963C204.322 378.092 204.286 378.2 204.272 378.265L80.5704 664.274C80.4986 664.21 80.4125 664.138 80.3263 664.066C78.0434 658.635 77.6414 656.924 77.6988 656.514C78.4885 654.565 191.917 394.606 199.146 378.042C199.29 378.071 199.44 378.092 199.584 378.092ZM64.7335 677.638L73.8652 658.204L77.5624 667.533L67.3395 686.341L64.7335 677.638ZM83.0831 691.534C77.4476 691.951 69.364 688.146 67.6267 687.29V687.283L78.0721 668.065L92.4445 671.906C88.5678 680.817 84.2389 690.153 83.0831 691.534ZM93.026 670.532C92.9255 670.769 92.8178 671.014 92.7173 671.258L78.4095 667.439L78.6249 667.043L78.0147 666.713L78.0003 666.741L74.2744 657.348L75.3728 655.01H76.4066C76.1912 655.514 76.062 655.802 76.0476 655.852C75.6384 656.873 76.3779 659.304 78.8475 665.152L78.991 665.497L79.35 665.346L79.2064 665.835L91.8415 669.503L92.1573 668.777C92.3368 668.367 92.5163 667.957 92.6886 667.54L93.026 670.532ZM154.263 520.863C124.341 589.782 94.2105 659.513 90.8292 667.346L81.2094 664.555L204.925 378.517L204.947 378.445C204.947 378.437 205.026 378.179 205.464 377.876C210.281 377.416 214.588 376.344 218.084 375.438C216.06 379.574 211.171 390.485 198.407 419.571C187.674 444.033 172.821 478.111 154.263 520.863ZM220.59 372.942C220.374 372.791 220.073 372.791 219.692 372.856C219.7 372.856 219.714 372.849 219.721 372.849C219.707 372.849 219.692 372.856 219.678 372.863C219.47 372.899 219.24 372.957 218.996 373.014C218.465 373.144 217.711 373.324 216.814 373.547C215.213 373.935 213.16 374.446 211.121 374.949L211.185 375.215C207.689 375.906 203.769 376.409 199.627 376.308C198.708 376.287 196.863 374.769 195.707 373.575L194.602 348.495C195.076 349.128 195.679 349.725 196.44 350.085C196.921 350.308 197.423 350.423 197.94 350.423C198.486 350.423 199.046 350.3 199.627 350.049C200.647 349.617 202.262 348.79 204.315 347.747C210.309 344.69 220.26 339.598 225.12 339.605L225.708 372.072C224.344 372.072 222.636 372.432 220.59 372.942ZM249.78 372.863C244.948 373.381 233.634 374.589 227.46 372.324C227.144 372.209 226.792 372.144 226.412 372.108L225.802 338.418C226.907 338.886 228.228 339.303 229.765 339.663C233.455 340.526 238.164 340.986 243.017 340.986C244.029 340.986 245.049 340.965 246.068 340.929C247.576 340.871 249.055 340.756 250.483 340.598L251.567 372.683C251.194 372.705 250.641 372.777 249.78 372.863ZM267.792 379.293L267.835 379.135C268.165 379.171 268.488 379.207 268.811 379.236L411.279 684.068L403.504 686.327L259.285 377.315L259.357 377.128C261.503 377.84 263.922 378.517 266.385 378.927L267.792 379.293ZM256.894 376.409L290.923 449.312L333.336 574.411L318.576 572.714C315.31 561.745 277.814 446.615 254.633 375.546L256.894 376.409ZM315.46 576.821L336.165 579.41L341.032 593.435L320.629 591.342L315.46 576.821ZM344.894 582.503L341.506 592.673L336.71 578.849L340.867 569.262L344.894 582.503ZM340.257 567.262L340.551 568.233L336.05 578.612L335.906 578.662L335.913 578.677L315.202 576.087L315.145 575.936L316.961 573.419C316.99 573.505 317.011 573.584 317.025 573.635L317.011 574.339L335.196 576.432L335.246 576.015L335.511 576.123L338.95 567.881L338.419 566.255L340.257 567.262ZM337.041 567.816L334.241 574.526L334.097 574.512L293.608 455.088L315.582 502.17L315.511 502.192L337.041 567.816ZM399.835 689.06L402.52 688.441L402.535 688.477L409.376 686.485L421.559 712.069C419.204 712.824 413.741 713.039 411.135 713.068L399.835 689.06ZM427.999 677.415L439.04 702.208C432.758 705.833 423.95 710.875 422.205 711.795L410.058 686.283L412.449 685.586L412.363 685.298L426.814 678.012L426.836 678.005L427.582 677.631V677.624L427.999 677.415ZM425.235 676.811L411.817 683.572L269.608 379.293C269.981 379.315 270.355 379.322 270.721 379.322C271.317 379.322 271.913 379.293 272.494 379.243C276.787 378.84 283.564 376.143 287.872 374.259L287.017 374.647L425.235 676.811ZM290.585 371.058C288.123 372.216 277.807 376.941 272.322 377.459C270.541 377.625 268.646 377.488 266.758 377.179L259.715 375.366C257.978 374.784 256.435 374.187 255.207 373.719C253.649 373.122 252.802 372.806 252.256 372.705L251.237 342.547C253.477 343.489 263.413 347.848 270.297 354.098C270.735 354.494 271.388 354.666 272.2 354.666C276.895 354.666 286.737 348.869 288.898 347.56C289.293 348.38 289.537 349.222 289.566 350.085C289.774 356.134 290.434 368.231 290.585 371.058ZM288.575 346.949C284.153 349.632 273.033 355.637 270.778 353.587C263.449 346.942 252.737 342.41 251.223 341.784L251.18 340.519C254.977 340.058 258.43 339.281 261.187 338.224C264.202 337.073 266.184 335.692 267.06 334.168C272.114 336.002 284.914 340.749 288.575 346.949ZM274.267 326.896C274.547 327.579 274.791 331.456 274.899 335.34C272.415 334.261 269.91 333.297 267.569 332.441C267.569 332.355 267.576 332.269 267.576 332.175H267.526L267.261 326.011C269.493 325.846 273.916 326.04 274.267 326.896ZM265.372 318.308L265.136 318.315L265.179 319.358C264.525 320.559 262.472 321.89 259.471 322.998C255.358 324.515 249.701 325.573 243.95 325.903C231.308 326.616 222.672 322.919 222.521 320.164C222.456 319.027 224.273 317.359 226.462 316.963C226.67 320.272 226.972 320.509 227.18 320.667L227.396 320.833L227.668 320.847C244.036 321.746 251.022 322.012 254.073 322.012C256.277 322.012 256.427 321.876 256.578 321.732L256.858 321.458V321.315L260.577 315.028C263.37 315.92 265.128 317.114 265.372 318.308ZM260.663 304.571V298.299H258.875V299.435C258.739 298.263 258.66 296.997 258.603 295.724L258.581 295.22C258.545 294.494 258.854 285.474 259.242 275.966L261.955 275.995L262.214 262.717H258.825C258.617 261.804 258.251 260.006 258.193 258.61L258.158 257.805L251.05 255.208V251.713L252.508 223.389L264.231 221.051L261.56 254.971L274.16 257.431C274.404 259.229 273.865 265.465 273.391 271.025C271.905 288.38 271.03 301.967 274.239 305.419C270.9 305.369 265.803 305.304 262.515 305.304C261.747 305.311 261.144 305.038 260.663 304.571ZM285.452 303.218C284.354 304.563 282.645 306.361 280.52 306.512C279.58 306.577 278.596 306.318 277.577 305.743L277.584 305.47C277.57 305.47 277.412 305.47 277.125 305.462C276.629 305.139 276.127 304.75 275.617 304.283C272.573 301.485 274.131 283.245 275.165 271.176C275.926 262.286 276.292 257.582 275.674 256.273L275.481 255.863L263.456 253.511L266.026 220.9C271.03 222.116 293.385 227.992 306.113 231.351C305.884 234.588 304.958 247.699 304.355 256.028C304.11 259.416 303.981 261.193 303.909 262.12C301.871 261.782 297.01 260.962 293.737 260.279C293.227 260.171 292.703 260.286 292.301 260.588C291.906 260.883 291.662 261.315 291.619 261.804C291.124 267.45 289.516 281.109 287.972 291.228C287.994 290.84 288.001 290.444 288.001 290.042C288.001 283.324 285.33 278.059 281.92 278.059C278.51 278.059 275.84 283.324 275.84 290.042C275.84 296.759 278.51 302.024 281.92 302.024C284.189 302.024 286.127 299.68 287.168 296.141C286.522 299.939 285.912 302.643 285.452 303.218ZM287.319 290.042C287.319 296.263 284.907 301.327 281.934 301.327C278.962 301.327 276.55 296.263 276.55 290.042C276.55 283.82 278.962 278.757 281.934 278.757C284.907 278.757 287.319 283.82 287.319 290.042ZM291.389 279.613C292.495 270.831 293.32 262.897 293.407 262.034C296.12 262.602 299.882 263.257 302.273 263.66C302.402 270.831 303.895 276.534 306.336 279.871L291.389 279.613ZM302.976 263.782C303.306 263.839 303.601 263.883 303.838 263.926V264.026L304.706 264.062C304.95 264.07 305.137 264.012 305.266 263.911C306.343 275.017 309.846 281.555 315.102 281.893C314.893 282.08 314.19 282.454 311.993 282.454C306.759 282.454 303.199 275.002 302.976 263.782ZM315.532 281.216C310.055 281.216 306.523 273.931 305.762 261.452L306.042 257.625C311.555 259.466 318.296 260.898 323.853 261.754C322.022 273.966 318.935 281.216 315.532 281.216ZM385.269 267.112L353.646 259.747C360.365 257.611 366.762 254.338 372.634 250.015L385.98 253.302L385.269 267.112ZM375.111 248.088C376.575 246.901 378.011 245.65 379.404 244.326C394.279 230.143 402.807 209.637 402.807 188.074C402.807 188.038 402.807 188.009 402.807 187.973L407.847 189.598C411.982 192.54 414.71 200.258 414.954 210.313L412.097 210.27L412.104 210.212C409.864 209.874 407.682 210.543 405.629 212.204C399.95 216.801 395.736 229.021 394.889 243.334C394.738 245.916 394.688 248.498 394.745 250.994C394.76 251.648 394.781 252.295 394.81 252.928L375.111 248.088ZM401.659 271.377L404.954 271.327C405.693 272.657 406.505 273.801 407.373 274.714L406.174 274.693C404.502 274.592 402.965 273.413 401.659 271.377ZM427.13 275.038C424.495 274.88 421.997 271.564 420.274 265.94C418.407 259.848 417.661 251.828 418.163 243.355C418.666 234.882 420.36 227.007 422.93 221.181C425.141 216.168 427.79 213.226 430.267 212.974L430.863 212.981V212.96C433.476 213.161 435.953 216.462 437.662 222.051C439.528 228.143 440.275 236.163 439.772 244.635C439.27 253.108 437.575 260.984 435.005 266.81C432.629 272.197 429.729 275.211 427.13 275.038ZM439.09 262.696L439.298 263.027C445.968 258.797 451.704 247.548 453.908 234.365C455.336 225.82 454.798 217.225 452.4 210.147C451.388 207.17 450.096 204.667 448.61 202.703L478 212.161L477.965 212.291C495.474 216.944 502.294 225.64 502.294 243.298C502.294 259.869 492.337 273.355 480.097 273.355C478.201 273.355 476.313 273.031 474.497 272.384L474.454 272.514L438.767 263.732C438.86 263.401 438.975 263.055 439.09 262.696ZM495.905 218.412C498.496 219.994 501.102 222.188 503.256 225.23C508.03 231.984 509.437 241.269 507.427 252.835C506.049 260.768 501.275 268.069 494.964 271.888C492.409 273.434 489.688 274.348 486.881 274.635C497.211 270.73 504.792 258.172 504.792 243.319C504.8 232.056 502.079 224.072 495.905 218.412ZM457.224 286.467C457.181 284.381 457.648 277.484 458.179 271.061L475.007 275.204C475.236 275.268 475.466 275.319 475.696 275.376L475.71 275.383C476.859 275.65 478.015 275.815 479.185 275.865C481.138 276.397 483.083 276.678 485 276.678C488.819 276.678 492.531 275.628 495.969 273.549C502.746 269.45 507.865 261.639 509.337 253.173C511.433 241.082 509.918 231.308 504.836 224.122C499.53 216.621 491.705 213.916 487.412 212.96C484.899 211.816 482.092 210.831 478.962 209.982L478.977 209.932L466.033 205.767C467.979 205.889 470.915 205.702 475.251 205.4C479.86 205.077 485.596 204.681 491.813 204.681C497.987 204.681 503.795 205.077 508.461 205.393C509.703 205.48 510.823 205.551 511.857 205.616L511.196 243.916C511.167 244.218 511.11 244.564 511.053 244.93C510.859 246.124 510.607 247.649 511.11 248.987L510.421 289.121L457.224 286.467ZM512.876 250.972C513.974 251.605 515.511 251.914 517.557 251.914C518.806 251.914 520.249 251.792 521.878 251.562L512.302 284.367L512.876 250.972ZM528.253 248.361C527.859 248.131 527.571 247.757 527.457 247.311C527.342 246.865 527.406 246.405 527.636 246.002C527.866 245.599 528.239 245.319 528.684 245.204C529.014 245.117 529.345 245.139 529.646 245.232C529.862 245.635 529.976 246.045 529.976 246.462C529.976 247.369 529.46 248.009 528.498 248.476C528.419 248.447 528.332 248.412 528.253 248.361ZM529.137 244.484C528.971 244.484 528.799 244.499 528.634 244.535L516.889 241.183L516.702 241.83L527.679 244.966C527.033 245.455 526.674 246.261 526.746 247.088L516.028 247.922L516.078 248.591L526.904 247.75C527.069 248.174 527.349 248.534 527.715 248.8C526.552 249.188 524.966 249.44 523.02 249.656L522.97 249.663C516.458 250.763 514.046 249.958 513.178 249.08C513.07 248.973 512.984 248.857 512.912 248.742L513.012 242.708C513.142 241.996 513.472 241.14 514.326 240.543C514.915 240.126 515.848 239.766 517.305 239.766C518.648 239.766 520.443 240.068 522.826 240.917C525.927 242.01 528.045 243.219 529.137 244.484ZM529.646 229.898L526.365 240.507C525.49 240.09 524.506 239.687 523.401 239.291C518.849 237.68 515.468 237.63 513.336 239.133C513.235 239.205 513.156 239.284 513.07 239.356L513.336 223.95L529.646 229.898ZM530.881 225.748L513.422 219.181L513.587 209.658L533.401 216.657C532.74 218.901 531.434 223.698 530.881 225.748Z" fill="#E9EEF1"/>
<path d="M279.558 290.042C279.558 294.918 281.001 298.737 282.839 298.737C284.677 298.737 286.12 294.918 286.12 290.042C286.12 285.165 284.677 281.346 282.839 281.346C281.001 281.346 279.558 285.165 279.558 290.042ZM285.689 290.042C285.689 294.983 284.217 298.299 282.839 298.299C281.46 298.299 279.989 294.983 279.989 290.042C279.989 285.1 281.46 281.785 282.839 281.785C284.217 281.785 285.689 285.1 285.689 290.042Z" fill="#E9EEF1"/>
</svg>
