<svg width="555" height="500" viewBox="0 0 555 500" fill="none" xmlns="http://www.w3.org/2000/svg">
<mask id="mask0_6992_96540" style="mask-type:alpha" maskUnits="userSpaceOnUse" x="0" y="0" width="555" height="500">
<path d="M515.887 500H20C8.95431 500 0 491.046 0 480V20C0 8.95431 8.95429 0 20 0H535C546.046 0 555 8.9543 555 20V459.791C555 464.902 553.043 469.819 549.531 473.533L530.418 493.742C526.64 497.737 521.385 500 515.887 500Z" fill="#050505"/>
<path d="M515.887 499.5H20C9.23045 499.5 0.5 490.77 0.5 480V20C0.5 9.23045 9.23044 0.5 20 0.5H535C545.77 0.5 554.5 9.23044 554.5 20V459.791C554.5 464.774 552.592 469.569 549.168 473.189L530.055 493.399C526.372 497.293 521.247 499.5 515.887 499.5Z" stroke="url(#paint0_linear_6992_96540)" stroke-opacity="0.5"/>
</mask>
<g mask="url(#mask0_6992_96540)">
<g opacity="0.8">
<path d="M461.707 170.707C469.885 292.752 405.993 401.079 302.723 414.24C199.452 427.402 103.215 339.698 87.7559 218.357C72.2969 97.0151 143.383 -12.7053 246.734 -25.1771C350.808 -37.7359 453.964 55.1055 461.707 170.707Z" stroke="#E9EEF1" stroke-width="3" stroke-miterlimit="10"/>
<path d="M167.001 7.70319C182.929 -0.0196418 199.989 -6.59711 218.201 -8.92133C321.464 -22.083 417.487 63.8461 432.672 182.997C446.905 294.707 384.613 392.632 291.738 415.7" stroke="#E9EEF1" stroke-width="0.7853" stroke-miterlimit="10"/>
<path d="M310.059 431.476C420.217 417.44 496.036 300.253 479.405 169.731C462.774 39.2101 359.991 -55.2196 249.833 -41.1833C139.674 -27.147 63.8551 90.0401 80.486 220.561C97.1169 351.083 199.9 445.512 310.059 431.476Z" stroke="#E9EEF1" stroke-width="3" stroke-miterlimit="10"/>
<path d="M288.595 468.881C420.896 452.023 512.839 318.216 493.956 170.014C475.072 21.8129 352.512 -84.6623 220.211 -67.8046C87.9104 -50.9469 -4.03252 82.8601 14.8512 231.062C33.735 379.263 156.294 485.738 288.595 468.881Z" stroke="#E9EEF1" stroke-width="3" stroke-miterlimit="10"/>
<path d="M287.861 177.117C287.982 177.358 288.102 177.606 288.223 177.854C290.005 181.551 291.244 185.677 291.806 190.078C294.204 208.873 283.28 225.752 267.419 227.775C251.558 229.797 236.749 216.194 234.357 197.399C231.96 178.604 242.884 161.725 258.745 159.702C266.535 158.711 274.063 161.484 279.998 166.789" stroke="#E9EEF1" stroke-width="3" stroke-miterlimit="10"/>
<path d="M273.473 226.287C270.975 227.325 261.35 229.22 259.628 229.174C243.835 228.785 230.305 219.522 227.485 200.707C224.678 181.966 235.837 163.7 251.705 161.684" stroke="#E9EEF1" stroke-width="3" stroke-miterlimit="10"/>
<path d="M281.109 165.771C281.109 165.771 261.042 184.09 236.601 206.462C197.792 241.988 147.952 287.735 149.881 286.644C153.016 284.862 288.912 177.305 288.912 177.305C288.912 177.305 296.106 162.509 281.109 165.771Z" stroke="#E9EEF1" stroke-width="3" stroke-miterlimit="10"/>
<path d="M245.026 206.381L241.154 215.068L166.022 274.218L234.771 208.048L245.026 206.381Z" fill="#E9EEF1" stroke="#E9EEF1" stroke-width="3" stroke-miterlimit="10"/>
<path d="M365.515 349.879L239.532 382.063C228.527 383.081 215.338 384.307 206.062 366.691L186.61 314.011C181.286 300.146 178.432 286.462 198.111 281.003L359.621 242.905C374.048 238.873 379.755 242.383 381.51 259.503L385.663 310.99C386.687 321.989 383.104 343.69 365.515 349.879Z" stroke="#E9EEF1" stroke-width="3" stroke-miterlimit="10"/>
<path d="M368.276 241.378C371.725 243.89 373.641 247.707 374.518 256.267L378.671 307.755C379.689 318.76 376.106 340.462 358.517 346.651L232.533 378.835C227.235 379.324 221.428 379.866 215.802 378.326" stroke="#E9EEF1" stroke-width="0.7853" stroke-miterlimit="10"/>
<path d="M54.002 460.805L242.88 470.203" stroke="#E9EEF1" stroke-width="3" stroke-miterlimit="10"/>
<path d="M54.6697 461.475C-24.4876 428.286 -78.9761 355.398 -95.815 257.761C-116.438 138.174 -61.7153 24.0467 31.4007 -25.0967" stroke="#E9EEF1" stroke-width="3" stroke-miterlimit="10"/>
<path d="M197.451 -4.45324L212.756 40.5173" stroke="#E9EEF1" stroke-width="3" stroke-miterlimit="10"/>
<path d="M122.615 318.506L154.819 290.689" stroke="#E9EEF1" stroke-width="3" stroke-miterlimit="10"/>
<path d="M434.255 199.964L398.233 200.526" stroke="#E9EEF1" stroke-width="3" stroke-miterlimit="10"/>
<path d="M369.316 49.4455L341.479 85.6282" stroke="#E9EEF1" stroke-width="3" stroke-miterlimit="10"/>
<path d="M414.811 119.393L374.79 138.763" stroke="#E9EEF1" stroke-width="3" stroke-miterlimit="10"/>
<path d="M287.863 -2.44448L280.609 47.2147" stroke="#E9EEF1" stroke-width="3" stroke-miterlimit="10"/>
<path d="M92.2266 136.005L137.365 151.324" stroke="#E9EEF1" stroke-width="3" stroke-miterlimit="10"/>
<path d="M89.668 219.449L134.451 211.606" stroke="#E9EEF1" stroke-width="3" stroke-miterlimit="10"/>
<path d="M126.729 54.0678L161.645 85.2405" stroke="#E9EEF1" stroke-width="3" stroke-miterlimit="10"/>
<path d="M168.058 270.582C167.797 271.701 167.208 272.705 166.283 273.596C165.366 274.487 164.147 275.224 162.64 275.8L162.619 275.806C161.112 276.382 159.712 276.644 158.433 276.59C157.154 276.537 156.042 276.182 155.104 275.518C154.167 274.855 153.463 273.904 152.988 272.658C152.512 271.413 152.405 270.227 152.659 269.108C152.914 267.99 153.503 266.978 154.421 266.081C155.339 265.183 156.558 264.447 158.065 263.871L158.085 263.864C159.592 263.288 160.992 263.027 162.271 263.087C163.557 263.14 164.669 263.502 165.607 264.165C166.551 264.828 167.254 265.786 167.73 267.032C168.212 268.278 168.319 269.463 168.058 270.582ZM164.662 265.773C163.966 265.364 163.122 265.17 162.137 265.19C161.146 265.21 160.054 265.451 158.862 265.907L158.842 265.914C157.649 266.369 156.678 266.918 155.928 267.561C155.178 268.204 154.682 268.908 154.441 269.678C154.2 270.448 154.233 271.245 154.548 272.069C154.863 272.893 155.365 273.509 156.055 273.918C156.745 274.326 157.582 274.514 158.567 274.494C159.552 274.474 160.643 274.232 161.836 273.777L161.856 273.77C163.048 273.315 164.019 272.766 164.776 272.129C165.526 271.486 166.029 270.79 166.277 270.019C166.524 269.256 166.491 268.459 166.176 267.635C165.868 266.798 165.359 266.181 164.662 265.773Z" fill="#E9EEF1"/>
<path d="M144.71 220.386V220.433L147.771 224.88L145.855 224.981L142.687 220.52L142.573 218.403L157.825 217.58L157.939 219.676L144.71 220.386Z" fill="#E9EEF1"/>
<path d="M163.079 157.466L159.389 150.031C158.913 149.073 158.511 148.336 158.176 147.807C157.841 147.278 157.513 146.889 157.198 146.635C156.884 146.38 156.522 146.193 156.113 146.079L156.093 146.072C155.591 145.925 155.109 145.932 154.646 146.086C154.184 146.24 153.776 146.521 153.421 146.923C153.066 147.325 152.798 147.834 152.624 148.443C152.423 149.14 152.369 149.796 152.47 150.419C152.563 151.042 152.784 151.571 153.119 152.013C153.454 152.455 153.889 152.75 154.419 152.904L154.472 152.918L153.889 154.934L153.829 154.914C152.979 154.672 152.295 154.197 151.773 153.507C151.25 152.81 150.922 151.987 150.782 151.022C150.641 150.058 150.728 149.06 151.023 148.028C151.317 147.017 151.753 146.173 152.342 145.483C152.932 144.8 153.595 144.317 154.345 144.049C155.095 143.775 155.852 143.748 156.616 143.969L156.636 143.976C157.171 144.13 157.654 144.391 158.096 144.766C158.531 145.141 158.98 145.697 159.449 146.441C159.918 147.184 160.46 148.202 161.083 149.495L163.89 155.269L162.939 154.331L164.07 154.659L163.387 155.128L165.919 146.354L167.547 146.822L164.365 157.847L163.079 157.466Z" fill="#E9EEF1"/>
<path d="M183.797 109.648C183.02 110.211 182.23 110.546 181.419 110.653C180.609 110.76 179.845 110.633 179.122 110.271L179.008 110.211L180.113 108.443L180.207 108.489C180.89 108.811 181.62 108.791 182.41 108.422C183.201 108.054 183.904 107.378 184.514 106.4C184.922 105.75 185.177 105.127 185.284 104.511C185.391 103.901 185.358 103.352 185.177 102.856C184.996 102.367 184.681 101.979 184.226 101.691L184.206 101.678C183.408 101.182 182.611 101.095 181.808 101.43C181.004 101.765 180.274 102.448 179.631 103.486L178.472 105.335L177.106 104.484L178.211 102.716C178.579 102.133 178.807 101.55 178.894 100.981C178.981 100.412 178.934 99.8959 178.753 99.427C178.573 98.9649 178.264 98.5965 177.836 98.3286L177.816 98.3152C177.36 98.0272 176.905 97.8999 176.456 97.92C176.001 97.9401 175.558 98.1075 175.13 98.4223C174.701 98.7372 174.299 99.1926 173.924 99.7954C173.562 100.371 173.321 100.941 173.214 101.503C173.1 102.066 173.12 102.575 173.261 103.051C173.408 103.52 173.683 103.921 174.085 104.25L174.165 104.317L173.06 106.085L172.98 106.018C172.323 105.495 171.868 104.852 171.607 104.102C171.345 103.345 171.292 102.528 171.439 101.637C171.586 100.747 171.948 99.8423 172.524 98.9247C173.114 97.987 173.77 97.2569 174.487 96.7344C175.21 96.212 175.94 95.9173 176.677 95.8436C177.42 95.7699 178.117 95.9441 178.773 96.3527L178.794 96.366C179.323 96.7009 179.718 97.1296 179.959 97.6521C180.207 98.1745 180.321 98.7572 180.301 99.4002C180.281 100.043 180.14 100.706 179.865 101.39L179.899 101.41C180.649 100.385 181.513 99.7151 182.491 99.4002C183.469 99.0854 184.413 99.2194 185.338 99.7954L185.358 99.8088C186.074 100.258 186.577 100.881 186.871 101.678C187.166 102.475 187.233 103.359 187.072 104.337C186.912 105.315 186.53 106.293 185.914 107.277C185.284 108.295 184.574 109.086 183.797 109.648Z" fill="#E9EEF1"/>
<path d="M220.075 68.1472L212.553 72.5947L211.676 71.1077C211.763 70.2571 211.843 69.3997 211.93 68.5491C212.017 67.6917 212.104 66.8411 212.192 65.9837C212.279 65.1264 212.366 64.2757 212.446 63.4251C212.526 62.5744 212.614 61.7171 212.701 60.8664C212.788 60.0158 212.875 59.1584 212.955 58.3078L215.715 56.6735L221.02 65.6488L223.136 64.3963L223.987 65.8364L221.87 67.0889L223.484 69.8217L221.676 70.8867L220.075 68.1472ZM219.218 66.7071L214.743 59.1383L214.683 59.1785C214.61 59.9019 214.529 60.6253 214.455 61.3487C214.375 62.0721 214.301 62.7955 214.221 63.5122C214.141 64.2355 214.067 64.9589 213.987 65.6823C213.906 66.4124 213.833 67.1358 213.752 67.8592C213.672 68.5826 213.598 69.306 213.524 70.0293L213.545 70.0628L219.218 66.7071Z" fill="#E9EEF1"/>
<path d="M273.492 65.2602C272.782 64.6439 272.273 63.9474 271.971 63.1704C271.67 62.3934 271.603 61.5963 271.764 60.7859L271.79 60.672L273.827 61.315L273.813 61.4021C273.733 61.9045 273.793 62.4001 274.001 62.8891C274.208 63.378 274.537 63.8201 274.999 64.2086C275.454 64.5971 276.017 64.8985 276.673 65.1061C277.423 65.3406 278.133 65.4142 278.796 65.3138C279.46 65.2133 280.029 64.9655 280.511 64.5636C280.993 64.1617 281.335 63.6392 281.543 62.9828L281.549 62.9627C281.75 62.3264 281.77 61.7035 281.596 61.1074C281.429 60.5113 281.107 59.9821 280.625 59.52C280.149 59.0578 279.54 58.7095 278.803 58.4751C278.247 58.3009 277.705 58.2072 277.176 58.2005C276.653 58.1938 276.157 58.2808 275.695 58.4617C275.514 58.5353 275.327 58.6224 275.153 58.7229C274.972 58.8234 274.804 58.9372 274.644 59.0712L272.815 58.4952L276.298 50.4575L285.789 53.4649L285.28 55.0792L277.49 52.6143L275.374 57.3297L275.421 57.3431C275.97 56.9747 276.606 56.7671 277.35 56.7202C278.086 56.6733 278.863 56.7805 279.667 57.035C280.732 57.3699 281.61 57.8789 282.3 58.5554C282.989 59.232 283.458 60.0089 283.699 60.8797C283.941 61.7504 283.914 62.6546 283.619 63.5924L283.612 63.6125C283.304 64.5837 282.782 65.3606 282.038 65.9434C281.295 66.5328 280.411 66.8945 279.393 67.0285C278.368 67.1691 277.289 67.0552 276.137 66.6936C275.086 66.352 274.202 65.8764 273.492 65.2602Z" fill="#E9EEF1"/>
<path d="M323.125 98.0732C322.804 97.3164 322.65 96.4992 322.663 95.6284C322.676 94.7577 322.917 93.8535 323.386 92.9224C323.855 91.9914 324.619 91.0537 325.67 90.1026L325.684 90.0892C326.963 88.9438 328.229 88.1668 329.495 87.7516C330.761 87.3363 331.966 87.2894 333.119 87.6109C334.271 87.9324 335.315 88.6223 336.26 89.6739C336.923 90.4107 337.399 91.1742 337.7 91.9713C338.001 92.7684 338.115 93.5453 338.055 94.3156C337.995 95.0859 337.754 95.7825 337.332 96.4255L337.251 96.5461L335.778 94.9051L335.831 94.7912C336.032 94.3826 336.139 93.9539 336.146 93.5052C336.153 93.0564 336.059 92.6009 335.871 92.1388C335.684 91.6766 335.389 91.2278 334.994 90.7858C334.277 89.982 333.487 89.5198 332.636 89.3926C331.779 89.2653 330.908 89.3792 330.024 89.7476C329.14 90.116 328.289 90.6451 327.465 91.335C327.405 91.3752 327.352 91.4154 327.305 91.4623C327.251 91.5092 327.204 91.556 327.151 91.6029L325.63 93.6659C325.148 94.1013 324.826 94.6237 324.659 95.24C324.491 95.8562 324.498 96.4925 324.666 97.1489C324.833 97.8053 325.168 98.4148 325.657 98.9641C326.153 99.5133 326.715 99.9152 327.345 100.156C327.974 100.397 328.604 100.478 329.227 100.391C329.85 100.304 330.406 100.049 330.881 99.6205L330.895 99.6071C331.39 99.165 331.712 98.6426 331.873 98.0531C332.033 97.457 332.02 96.8408 331.846 96.2045C331.665 95.5682 331.323 94.9653 330.814 94.396C330.312 93.8334 329.749 93.4248 329.127 93.1636C328.504 92.9023 327.887 92.8153 327.278 92.8956C326.668 92.976 326.119 93.2305 325.637 93.6659L325.63 93.6726L325.148 93.1368L327.077 91.4087L327.244 91.5962C327.733 91.469 328.276 91.4556 328.859 91.5493C329.441 91.6431 330.031 91.8575 330.627 92.1924C331.223 92.5206 331.779 92.9827 332.308 93.5654C333.052 94.3893 333.547 95.2735 333.795 96.2112C334.05 97.1489 334.056 98.0598 333.829 98.944C333.594 99.8281 333.119 100.592 332.402 101.235L332.388 101.248C331.645 101.918 330.801 102.313 329.863 102.434C328.926 102.554 327.981 102.42 327.03 102.032C326.079 101.643 325.208 101.007 324.411 100.123C323.875 99.5066 323.447 98.8301 323.125 98.0732Z" fill="#E9EEF1"/>
<path d="M368.356 142.903L368.397 142.883L364.324 134.45L365.851 133.714L370.861 144.075L369.267 144.846L353.741 143.754L352.75 141.704L368.356 142.903Z" fill="#E9EEF1"/>
<path d="M373.379 199.06C373.553 198.055 373.915 197.224 374.451 196.561C374.987 195.898 375.677 195.483 376.514 195.309L376.534 195.302C377.15 195.175 377.753 195.215 378.342 195.416C378.932 195.617 379.468 195.952 379.95 196.427C380.432 196.903 380.821 197.486 381.115 198.182L381.155 198.176C381.222 197.191 381.49 196.367 381.966 195.697C382.441 195.028 383.071 194.612 383.861 194.451L383.882 194.445C384.632 194.291 385.355 194.391 386.045 194.753C386.735 195.115 387.338 195.677 387.847 196.454C388.356 197.231 388.724 198.149 388.945 199.22C389.166 200.299 389.186 201.29 389.019 202.201C388.852 203.112 388.517 203.862 388.021 204.465C387.525 205.068 386.902 205.443 386.152 205.597L386.132 205.604C385.342 205.764 384.598 205.63 383.902 205.202C383.205 204.773 382.629 204.117 382.18 203.233L382.14 203.239C382.147 204.003 382.02 204.693 381.758 205.316C381.497 205.939 381.142 206.454 380.673 206.87C380.211 207.285 379.669 207.553 379.059 207.68L379.039 207.687C378.202 207.854 377.405 207.747 376.654 207.352C375.898 206.957 375.248 206.327 374.685 205.47C374.129 204.612 373.727 203.581 373.48 202.375C373.238 201.17 373.205 200.064 373.379 199.06ZM375.891 204.056C376.253 204.612 376.674 205.021 377.163 205.275C377.652 205.537 378.168 205.61 378.704 205.503L378.724 205.497C379.273 205.383 379.722 205.115 380.07 204.686C380.419 204.257 380.66 203.715 380.774 203.058C380.894 202.402 380.874 201.679 380.713 200.895C380.553 200.105 380.291 199.435 379.923 198.879C379.555 198.323 379.126 197.914 378.637 197.66C378.148 197.405 377.626 197.332 377.083 197.439L377.063 197.445C376.52 197.559 376.078 197.827 375.73 198.256C375.382 198.685 375.154 199.234 375.033 199.884C374.92 200.54 374.94 201.257 375.1 202.034C375.268 202.831 375.529 203.501 375.891 204.056ZM383.044 202.308C383.359 202.784 383.734 203.132 384.17 203.346C384.605 203.561 385.06 203.621 385.543 203.521L385.563 203.514C386.045 203.413 386.447 203.179 386.762 202.817C387.077 202.449 387.284 201.987 387.391 201.424C387.499 200.861 387.478 200.239 387.338 199.555C387.197 198.872 386.969 198.289 386.655 197.814C386.34 197.338 385.965 196.99 385.529 196.776C385.094 196.561 384.638 196.501 384.156 196.602L384.136 196.608C383.654 196.709 383.252 196.936 382.937 197.305C382.622 197.673 382.415 198.135 382.308 198.698C382.2 199.261 382.22 199.884 382.361 200.567C382.502 201.25 382.73 201.833 383.044 202.308Z" fill="#E9EEF1"/>
<path d="M201.622 196.589C203.397 195.993 205.112 195.725 206.767 195.772C208.428 195.825 209.968 196.207 211.388 196.917C212.808 197.627 214.081 198.652 215.193 199.985C216.311 201.325 217.202 202.992 217.872 204.995C218.535 206.971 218.83 208.84 218.749 210.588C218.669 212.336 218.28 213.924 217.57 215.337C216.86 216.75 215.862 217.976 214.57 219.021C213.284 220.066 211.75 220.883 209.975 221.479C208.2 222.075 206.485 222.35 204.831 222.296C203.176 222.242 201.636 221.867 200.216 221.171C198.796 220.474 197.53 219.449 196.411 218.103C195.293 216.757 194.402 215.089 193.739 213.113C193.062 211.11 192.768 209.242 192.855 207.5C192.935 205.765 193.33 204.178 194.034 202.758C194.737 201.338 195.735 200.099 197.028 199.054C198.314 198.002 199.847 197.185 201.622 196.589ZM202.614 199.556C201.06 200.079 199.754 200.795 198.689 201.7C197.624 202.611 196.813 203.629 196.257 204.767C195.701 205.906 195.393 207.125 195.32 208.424C195.253 209.724 195.44 211.043 195.889 212.383C196.338 213.716 196.981 214.888 197.825 215.879C198.662 216.877 199.647 217.661 200.778 218.23C201.91 218.8 203.17 219.121 204.563 219.188C205.956 219.255 207.43 219.027 208.977 218.505C210.531 217.983 211.837 217.273 212.909 216.382C213.974 215.491 214.791 214.473 215.34 213.334C215.896 212.195 216.204 210.976 216.278 209.677C216.345 208.378 216.157 207.058 215.708 205.718C215.26 204.386 214.617 203.213 213.773 202.222C212.935 201.224 211.951 200.44 210.819 199.871C209.687 199.302 208.428 198.974 207.028 198.893C205.641 198.813 204.168 199.034 202.614 199.556Z" fill="#E9EEF1"/>
<path d="M209.772 160.842C211.554 161.404 213.101 162.202 214.407 163.22C215.713 164.238 216.731 165.457 217.461 166.87C218.192 168.283 218.607 169.857 218.721 171.592C218.835 173.327 218.567 175.202 217.93 177.219C217.301 179.208 216.437 180.882 215.338 182.249C214.24 183.615 212.994 184.66 211.581 185.383C210.174 186.107 208.64 186.509 206.986 186.589C205.331 186.669 203.61 186.428 201.828 185.859C200.047 185.296 198.499 184.499 197.193 183.481C195.887 182.463 194.862 181.251 194.132 179.851C193.402 178.451 192.98 176.877 192.873 175.129C192.766 173.381 193.027 171.512 193.657 169.522C194.3 167.506 195.164 165.825 196.255 164.465C197.347 163.112 198.6 162.068 200.013 161.331C201.426 160.594 202.96 160.185 204.615 160.105C206.269 160.031 207.99 160.272 209.772 160.842ZM208.828 163.822C207.267 163.327 205.787 163.133 204.394 163.233C203 163.333 201.741 163.688 200.623 164.278C199.504 164.867 198.533 165.671 197.709 166.683C196.885 167.694 196.262 168.873 195.834 170.212C195.405 171.559 195.237 172.878 195.331 174.178C195.418 175.477 195.753 176.689 196.329 177.821C196.905 178.953 197.729 179.951 198.814 180.829C199.899 181.706 201.219 182.389 202.779 182.885C204.34 183.381 205.814 183.582 207.207 183.488C208.6 183.394 209.853 183.059 210.971 182.463C212.09 181.874 213.061 181.07 213.885 180.058C214.709 179.047 215.332 177.868 215.76 176.529C216.189 175.189 216.356 173.863 216.263 172.563C216.175 171.264 215.841 170.052 215.264 168.92C214.688 167.788 213.865 166.783 212.786 165.892C211.708 165.008 210.388 164.318 208.828 163.822Z" fill="#E9EEF1"/>
<path d="M237.335 136.742C238.44 138.249 239.223 139.803 239.672 141.397C240.128 142.991 240.228 144.579 239.987 146.153C239.739 147.727 239.15 149.247 238.219 150.714C237.281 152.181 235.968 153.541 234.26 154.793C232.579 156.026 230.891 156.87 229.196 157.332C227.502 157.787 225.874 157.894 224.314 157.647C222.753 157.399 221.279 156.823 219.893 155.905C218.506 154.994 217.261 153.782 216.155 152.275C215.05 150.768 214.267 149.214 213.818 147.62C213.362 146.025 213.255 144.445 213.49 142.884C213.724 141.323 214.313 139.803 215.258 138.323C216.202 136.849 217.515 135.489 219.196 134.257C220.904 133.005 222.592 132.161 224.273 131.705C225.955 131.256 227.582 131.149 229.156 131.39C230.73 131.631 232.211 132.201 233.597 133.118C234.977 134.023 236.229 135.228 237.335 136.742ZM234.809 138.591C233.845 137.271 232.766 136.24 231.574 135.503C230.382 134.766 229.17 134.304 227.91 134.123C226.658 133.942 225.399 134.016 224.139 134.344C222.88 134.672 221.681 135.255 220.543 136.092C219.404 136.923 218.493 137.894 217.796 138.999C217.1 140.104 216.651 141.277 216.45 142.529C216.249 143.782 216.323 145.074 216.684 146.421C217.046 147.767 217.709 149.1 218.674 150.419C219.645 151.739 220.717 152.77 221.889 153.521C223.068 154.264 224.28 154.733 225.533 154.914C226.785 155.095 228.044 155.021 229.304 154.693C230.563 154.364 231.762 153.782 232.9 152.945C234.039 152.114 234.95 151.143 235.647 150.038C236.343 148.932 236.792 147.76 236.993 146.508C237.194 145.255 237.12 143.956 236.779 142.603C236.437 141.25 235.774 139.91 234.809 138.591Z" fill="#E9EEF1"/>
<path d="M274.317 134.699C274.243 136.568 273.881 138.269 273.238 139.797C272.595 141.33 271.691 142.63 270.519 143.701C269.347 144.78 267.94 145.597 266.292 146.16C264.645 146.722 262.769 146.963 260.653 146.876C258.569 146.789 256.721 146.401 255.113 145.704C253.506 145.008 252.166 144.077 251.101 142.911C250.036 141.746 249.246 140.373 248.73 138.792C248.214 137.218 248 135.49 248.074 133.621C248.147 131.752 248.509 130.051 249.152 128.524C249.795 126.997 250.693 125.69 251.851 124.612C253.01 123.534 254.417 122.717 256.078 122.154C257.739 121.591 259.608 121.35 261.691 121.437C263.801 121.524 265.656 121.913 267.25 122.609C268.844 123.306 270.184 124.237 271.262 125.402C272.341 126.568 273.138 127.941 273.653 129.522C274.169 131.109 274.39 132.831 274.317 134.699ZM271.189 134.572C271.256 132.938 271.055 131.457 270.586 130.145C270.117 128.825 269.454 127.707 268.583 126.782C267.719 125.858 266.688 125.135 265.495 124.605C264.303 124.076 263.004 123.782 261.597 123.728C260.19 123.668 258.871 123.855 257.638 124.284C256.406 124.713 255.321 125.356 254.383 126.206C253.445 127.057 252.695 128.122 252.139 129.394C251.583 130.667 251.269 132.127 251.202 133.762C251.135 135.396 251.329 136.876 251.784 138.189C252.24 139.509 252.896 140.627 253.767 141.551C254.631 142.476 255.663 143.206 256.855 143.728C258.047 144.257 259.346 144.552 260.753 144.606C262.16 144.666 263.479 144.478 264.712 144.05C265.944 143.621 267.029 142.978 267.967 142.127C268.905 141.277 269.661 140.212 270.231 138.939C270.8 137.66 271.122 136.206 271.189 134.572Z" fill="#E9EEF1"/>
<path d="M304.186 157.125C302.914 158.498 301.54 159.563 300.06 160.313C298.58 161.064 297.046 161.465 295.459 161.526C293.871 161.586 292.264 161.298 290.643 160.662C289.022 160.025 287.441 158.987 285.887 157.554C284.353 156.141 283.201 154.64 282.431 153.073C281.661 151.499 281.245 149.925 281.192 148.344C281.138 146.763 281.426 145.209 282.056 143.675C282.685 142.142 283.637 140.688 284.909 139.315C286.182 137.942 287.555 136.877 289.035 136.127C290.515 135.377 292.043 134.968 293.623 134.901C295.204 134.834 296.805 135.122 298.439 135.765C300.067 136.408 301.648 137.44 303.181 138.86C304.735 140.293 305.887 141.793 306.651 143.361C307.415 144.921 307.83 146.502 307.897 148.089C307.964 149.677 307.683 151.244 307.046 152.778C306.403 154.292 305.459 155.752 304.186 157.125ZM301.889 155.002C303.001 153.803 303.804 152.544 304.3 151.238C304.796 149.931 305.017 148.645 304.956 147.379C304.896 146.114 304.581 144.894 304.019 143.722C303.456 142.55 302.652 141.485 301.621 140.527C300.583 139.57 299.457 138.853 298.245 138.384C297.033 137.915 295.787 137.701 294.521 137.741C293.255 137.781 291.996 138.103 290.743 138.712C289.491 139.322 288.305 140.226 287.2 141.425C286.088 142.631 285.278 143.876 284.769 145.176C284.26 146.475 284.038 147.755 284.099 149.021C284.159 150.286 284.467 151.505 285.037 152.678C285.599 153.85 286.403 154.921 287.434 155.873C288.466 156.83 289.591 157.54 290.81 158.016C292.023 158.485 293.268 158.699 294.534 158.659C295.8 158.619 297.066 158.297 298.325 157.701C299.591 157.098 300.777 156.201 301.889 155.002Z" fill="#E9EEF1"/>
<path d="M313.565 192.737C311.723 193.052 309.982 193.052 308.354 192.743C306.726 192.435 305.259 191.819 303.967 190.895C302.674 189.97 301.575 188.765 300.685 187.271C299.794 185.777 299.164 183.989 298.816 181.906C298.468 179.85 298.468 177.961 298.816 176.246C299.164 174.525 299.8 173.024 300.718 171.738C301.636 170.452 302.815 169.394 304.255 168.564C305.688 167.733 307.329 167.164 309.178 166.849C311.02 166.534 312.761 166.534 314.389 166.842C316.016 167.15 317.483 167.76 318.769 168.671C320.062 169.582 321.154 170.787 322.051 172.294C322.949 173.801 323.572 175.583 323.92 177.639C324.275 179.722 324.275 181.618 323.927 183.319C323.579 185.021 322.942 186.528 322.025 187.827C321.107 189.127 319.928 190.192 318.495 191.022C317.055 191.853 315.414 192.422 313.565 192.737ZM313.043 189.649C314.657 189.374 316.057 188.872 317.249 188.142C318.441 187.412 319.399 186.528 320.122 185.489C320.846 184.451 321.341 183.293 321.616 182.02C321.884 180.747 321.904 179.408 321.663 178.021C321.428 176.635 320.973 175.382 320.296 174.264C319.62 173.145 318.769 172.221 317.745 171.477C316.713 170.74 315.521 170.225 314.154 169.943C312.788 169.662 311.301 169.655 309.687 169.93C308.073 170.205 306.666 170.7 305.474 171.417C304.282 172.134 303.317 173.011 302.594 174.049C301.87 175.087 301.368 176.246 301.1 177.519C300.832 178.791 300.812 180.124 301.053 181.518C301.287 182.904 301.743 184.157 302.419 185.275C303.096 186.387 303.947 187.318 304.971 188.062C305.996 188.798 307.195 189.321 308.562 189.615C309.941 189.91 311.428 189.924 313.043 189.649Z" fill="#E9EEF1"/>
<path d="M410.296 242.315C411.542 241.069 413.263 240.299 415.165 240.299C418.97 240.299 422.051 243.38 422.051 247.184C422.051 250.989 418.97 254.07 415.165 254.07" stroke="#E9EEF1" stroke-width="0.7853" stroke-miterlimit="10"/>
<path d="M415.169 254.07C411.364 254.07 408.283 250.989 408.283 247.184C408.283 245.282 409.053 243.561 410.299 242.315" stroke="#E9EEF1" stroke-width="0.7853" stroke-miterlimit="10"/>
<path d="M416.358 253.735C415.112 254.988 413.344 255.376 411.475 255.765C404.931 257.111 403.25 252.684 403.25 248.879C403.25 244.485 408.287 242.107 411.428 241.464" stroke="#E9EEF1" stroke-width="0.7853" stroke-miterlimit="10"/>
<path d="M158.708 316.637C159.914 315.431 161.575 314.688 163.41 314.688C167.081 314.688 170.061 317.669 170.061 321.339C170.061 325.01 167.081 327.99 163.41 327.99" stroke="#E9EEF1" stroke-width="0.7853" stroke-miterlimit="10"/>
<path d="M163.412 327.99C159.741 327.99 156.761 325.009 156.761 321.339C156.761 319.503 157.504 317.842 158.71 316.637" stroke="#E9EEF1" stroke-width="0.7853" stroke-miterlimit="10"/>
<path d="M164.564 327.662C163.358 328.874 161.69 329.617 159.848 329.617C156.178 329.617 153.197 326.637 153.197 322.966C153.197 318.726 156.774 316.422 159.802 315.806" stroke="#E9EEF1" stroke-width="0.7853" stroke-miterlimit="10"/>
<path d="M190.919 460.082L35.2031 453.759" stroke="#E9EEF1" stroke-width="0.7853" stroke-miterlimit="10"/>
<path d="M171.395 452.673L29.8125 448.742" stroke="#E9EEF1" stroke-width="0.7853" stroke-miterlimit="10"/>
<path d="M156.382 445.104L17.8799 440.415" stroke="#E9EEF1" stroke-width="0.7853" stroke-miterlimit="10"/>
<path d="M145.103 437.818L4.85938 433.886" stroke="#E9EEF1" stroke-width="0.7853" stroke-miterlimit="10"/>
<path d="M-18.0117 12.452L100.791 -13.5029" stroke="#E9EEF1" stroke-width="0.7853" stroke-miterlimit="10"/>
<path d="M-10.8457 4.35447L112.056 -21.52" stroke="#E9EEF1" stroke-width="0.7853" stroke-miterlimit="10"/>
<path d="M298.986 468.394C165.561 485.394 42.0427 380.007 23.1007 231.351C4.15865 82.6946 96.9665 -51.6009 230.391 -68.6005" stroke="#E9EEF1" stroke-width="0.7853" stroke-miterlimit="10"/>
<path d="M461.953 174.11L432.676 183.005" stroke="#E9EEF1" stroke-width="0.7853" stroke-miterlimit="10"/>
<path d="M461.954 167.928L432.007 176.823" stroke="#E9EEF1" stroke-width="0.7853" stroke-miterlimit="10"/>
<path d="M461.277 161.739L431.33 171.297" stroke="#E9EEF1" stroke-width="0.7853" stroke-miterlimit="10"/>
<path d="M459.941 155.557L429.994 165.122" stroke="#E9EEF1" stroke-width="0.7853" stroke-miterlimit="10"/>
<path d="M457.702 151.002L428.425 159.89" stroke="#E9EEF1" stroke-width="0.7853" stroke-miterlimit="10"/>
<path d="M457.703 144.819L427.756 153.707" stroke="#E9EEF1" stroke-width="0.7853" stroke-miterlimit="10"/>
<path d="M455.699 132.449L424.412 142.007" stroke="#E9EEF1" stroke-width="0.7853" stroke-miterlimit="10"/>
</g>
</g>
<defs>
<linearGradient id="paint0_linear_6992_96540" x1="277.5" y1="1.25" x2="277.5" y2="500" gradientUnits="userSpaceOnUse">
<stop stop-color="#E9EEF1"/>
<stop offset="1" stop-color="#1E1E1E"/>
</linearGradient>
</defs>
</svg>
