<svg width="455" height="500" viewBox="0 0 455 500" fill="none" xmlns="http://www.w3.org/2000/svg">
<mask id="mask0_6992_96479" style="mask-type:alpha" maskUnits="userSpaceOnUse" x="0" y="0" width="455" height="500">
<g opacity="0.8" clip-path="url(#clip0_6992_96479)">
<path d="M625.396 299.711L628 242.051L611.571 240.255C612.345 237.701 614.595 229.266 611.853 225.573C611.14 224.611 610.156 224.025 608.94 223.832L614.224 209.034L607.552 197.315L610.305 182.457L610.222 182.241C610.062 181.826 594.125 140.147 573.783 96.4225C546.409 37.5906 524.507 3.27425 508.692 -5.58122C495.259 -13.1045 391.805 -13.5854 316.261 -13.9337L306.946 -13.9779C303.939 -13.9945 300.96 -14 297.986 -14C196.107 -14 116.428 -5.6365 93.9628 -3.01081C90.331 -2.58518 87.1414 -0.556488 85.2122 2.55011L67.2577 31.4714L90.1044 44.7767L93.4874 39.4037L100.569 38.4584L103.742 32.0739L127.246 54.2126C169.85 94.3386 248.478 168.399 252.193 171.943C252.298 173.701 248.915 184.331 245.493 193.866L245.808 193.982C201.425 195.773 160.552 200.604 128.004 208.034C85.7374 217.674 62.465 230.659 62.465 244.594C62.465 245.064 62.4926 245.539 62.5479 246.009C59.8669 246.761 47.1749 250.343 34.5548 254.069C5.55552 262.631 5.25701 263.521 5.00826 264.229C4.90875 264.516 4.95851 264.826 5.10776 265.019C6.08619 267.015 7.13649 293.797 6.67767 295.588C6.11383 297.279 0.630178 344.044 0.00552788 349.373L0 362.916L0.331673 363.165C0.409063 363.22 7.94356 368.88 10.5859 374.248C13.2006 379.56 10.5417 395.662 10.514 395.828L10.3924 396.569L11.1166 396.768C28.1369 401.417 428.073 510.612 437.952 512.259C441.29 512.818 443.911 513.006 445.928 513.006C450.013 513.006 451.628 512.232 451.727 512.187L451.821 512.138L621.057 363.131L621.317 362.905L622.057 350.086L621.659 350.064C623.003 347.93 625.076 342.634 625.7 333.088L626.806 304.78C626.806 302.873 626.071 300.883 624.965 299.7L625.396 299.711ZM454.966 338.782L203.542 292.492C229.092 294.786 256.56 295.991 284.84 295.991C344.077 295.991 399.782 290.723 441.683 281.16C451.921 278.822 461.036 276.29 468.985 273.598L468.88 274.14L525.568 285.074L600.034 241.996L600.482 241.736L600.443 241.217C600.443 241.206 600.432 241.018 600.416 240.703L611.82 241.952C596.43 251.504 457.741 337.566 455.215 338.207C455.033 338.207 454.718 338.207 454.69 338.455C454.684 338.538 454.679 338.627 454.966 338.782ZM349.87 266.982L333.884 270.016V262.814L349.389 259.801L349.87 266.982ZM308.483 274.754L300.656 271.326V266.241L306.117 269.077L332.22 264.522V270.646L308.483 274.754ZM349.312 258.69L349.356 259.37L324.807 264.135L306.797 267.28C308.406 263.753 310.755 258.784 311.131 258.452C312.331 257.899 364.348 248.198 391.683 243.151L391.606 242.726C378.239 245.197 311.529 257.54 310.882 258.104C310.302 258.607 307.267 265.207 306.305 267.313L301.551 264.842L306.808 254.577C308.472 254.218 314.851 252.797 316.897 251.565L317.295 251.321V248.115L324.094 252.14L324.204 251.952L324.243 252.167L391.247 239.608C392.004 240.951 392.507 242.477 391.971 243.71C391.821 243.732 391.672 243.754 391.523 243.776L391.235 243.82L388.411 246.855C387.316 247.253 381.744 249.282 379.754 250C377.946 250.658 377.477 252.278 377.482 253.488L349.312 258.69ZM388.798 236.993L389.312 236.916C389.776 237.447 390.445 238.265 391.02 239.205L324.249 251.719L317.875 247.944C345.116 242.803 385.558 235.783 388.599 236.916L388.798 236.993ZM389.826 236.839L484.795 222.892C484.839 222.914 484.889 222.936 484.939 222.958L484.983 222.865L512.832 218.774C514.098 218.592 514.999 218.791 515.502 219.371C516.376 220.377 516.116 222.444 515.872 223.467C510.77 225.507 440.102 236.524 392.479 243.632C393.27 241.294 391.07 238.292 389.826 236.839ZM485.049 221.179C448.2 203.91 371.623 193.197 284.846 193.197C282.557 193.197 280.274 193.208 277.991 193.225L281.292 179.527L286.897 174.038V173.69C286.897 171.495 288.539 169.638 290.711 169.361C316.781 166.061 348.212 166.1 381.617 169.472C437.642 175.127 486.381 186.177 502.396 189.809C504.955 190.389 507.083 191.964 508.393 194.242C509.698 196.519 509.98 199.15 509.189 201.654L503.883 218.42L485.049 221.179ZM516.37 225.004L516.713 265.196L517.149 265.191L516.807 224.832C517.105 224.694 517.177 224.595 517.243 224.512L517.332 224.39L517.376 224.246C517.498 223.848 518.493 220.294 516.757 218.282C516.033 217.447 514.982 217.038 513.628 217.049L513.081 216.314C512.898 216.065 512.965 215.822 513.009 215.728C513.053 215.634 513.169 215.408 513.473 215.358L530.162 212.721C530.339 212.693 530.527 212.716 530.693 212.782L536.685 215.214C537.061 215.369 537.31 215.728 537.31 216.137V231.714L530.201 231.029V225.977H520.118V265.185H520.555V249.558C532.86 252.057 539.145 246.916 542.174 244.439C543.097 243.682 543.844 243.085 544.203 243.146C544.264 243.157 544.352 243.185 544.446 243.339C546.226 246.142 548.155 250.586 549.499 253.908L516.901 271.896L487.813 265.815C500.533 259.259 507.227 252.062 507.227 244.589C507.227 239.426 503.623 233.865 497.078 228.868C510.505 226.546 514.861 225.534 516.37 225.004ZM520.333 209.719C521.445 209.443 522.766 209.122 524.214 208.774L547.392 210.925L546.309 232.588L538.968 231.88V216.148C538.968 215.059 538.316 214.097 537.31 213.688L531.317 211.256C530.87 211.074 530.383 211.019 529.902 211.096L520.969 212.505L520.333 209.719ZM598.741 238.845L562.235 234.849L562.688 227.878H573.241V208.769L566.121 201.599L565.767 201.605C565.717 201.605 563.567 201.632 560.847 201.654L568.537 173.933L599.294 233.163C598.885 235.263 598.763 237.32 598.741 238.845ZM530.328 205.612L533.739 194.8L555.104 196.978L553.716 201.666C552.301 201.654 551.091 201.638 550.339 201.605C548.31 201.516 538.47 203.7 530.328 205.612ZM533.871 194.38L540.505 173.369L561.627 174.994L555.231 196.563L533.871 194.38ZM554.17 201.671L555.546 197.028L561.511 197.636L560.394 201.654C558.382 201.671 556.115 201.677 554.17 201.671ZM568.238 173.363L561.627 197.21L555.673 196.602L562.119 174.856L562.196 174.596L540.201 172.905L533.44 194.33L528.57 193.833L536.093 169.428L567.857 172.601L568.238 173.363ZM528.432 194.258L533.302 194.756L529.847 205.695L524.634 206.585L528.432 194.258ZM550.156 203.258C550.195 203.258 550.228 203.258 550.267 203.258C553.34 203.401 563.39 203.285 565.441 203.258L571.588 209.443V226.209H561.135L560.482 236.314L582.34 238.707C583.208 239.105 583.86 239.592 584.12 240.194C584.418 240.885 584.142 241.703 583.307 242.626C582.522 243.5 581.815 244.296 581.168 245.02C577.74 248.878 576.016 250.813 572.815 252.853C569.266 255.119 553.407 257.706 551.549 258.004C551.373 257.518 550.814 256.014 550.04 254.085L550.173 254.013L549.963 253.632L549.88 253.676C548.924 251.305 547.669 248.386 546.381 245.877H546.735V232.809L547.851 210.504L525.53 208.437C534.601 206.281 547.719 203.258 550.156 203.258ZM546.298 233.019V245.744C545.8 244.782 545.297 243.881 544.805 243.107C544.662 242.886 544.485 242.753 544.264 242.72C543.7 242.632 543.014 243.185 541.892 244.108C538.907 246.551 532.71 251.625 520.549 249.121V226.419H529.764V231.433L546.298 233.019ZM516.89 272.338L516.967 272.355L549.659 254.317C550.582 256.623 551.19 258.297 551.201 258.342L551.262 258.513L551.439 258.485C552.163 258.375 569.217 255.688 573.047 253.245C576.298 251.172 578.034 249.221 581.494 245.335C582.141 244.611 582.848 243.815 583.633 242.941C584.59 241.88 584.888 240.902 584.518 240.045C584.319 239.586 583.932 239.188 583.418 238.845L598.752 240.526C598.758 240.636 598.758 240.736 598.763 240.824L525.275 283.338L471.08 272.885C477.216 270.724 482.611 268.469 487.238 266.125L487.233 266.152L516.89 272.338ZM610.521 226.557C612.643 229.415 610.886 236.933 609.891 240.067L600.399 239.028C600.438 235.888 600.897 230.167 603.616 227.231C604.739 226.021 606.104 225.429 607.79 225.418H607.84C609.05 225.385 609.929 225.756 610.521 226.557ZM612.411 209.189L607.199 223.782C605.308 223.92 603.699 224.7 602.4 226.104C601.245 227.353 600.443 228.989 599.896 230.731L496.475 31.5598L508.393 -2.63493C509.936 -1.12585 511.378 0.864146 512.512 3.51747C517.371 14.8494 602.782 191.041 605.855 197.382L605.817 197.603L612.411 209.189ZM526.094 92.1993L212.204 80.1488C210.678 80.088 209.258 79.4357 208.213 78.3081C207.168 77.1804 206.621 75.7155 206.682 74.1843L206.693 73.8969C206.754 72.3712 207.406 70.9506 208.534 69.9059C209.661 68.8611 211.115 68.3083 212.657 68.3747L519.842 80.1654L526.094 92.1993ZM495.066 32.4442L501.633 45.0973C497.056 45.6335 484.458 45.0254 483.009 44.9536L477.387 32.0352L495.066 32.4442ZM608.592 182.611L605.988 196.663C599.985 184.281 517.669 14.4569 512.91 3.34611C511.738 0.615396 510.212 -1.47962 508.543 -3.07715L508.736 -3.63545C545.292 18.752 605.966 175.779 608.592 182.611ZM507.194 -4.2435C506.962 -4.42592 506.729 -4.59728 506.497 -4.75759C506.774 -4.65256 507.028 -4.54753 507.266 -4.4425L507.194 -4.2435ZM306.941 -12.3196L316.255 -12.2753C373.784 -12.01 455.11 -11.6286 490.986 -7.62649L120.126 -4.09425C157.981 -7.6873 225.902 -12.712 306.941 -12.3196ZM86.6163 3.4235C88.2802 0.742536 91.0275 -0.998709 94.1508 -1.36354C98.7997 -1.90526 105.909 -2.69573 115.146 -3.60781L494.33 -7.22297C498.686 -6.65913 502.202 -6.02897 504.723 -5.32695C505.491 -4.91789 506.271 -4.41486 507.044 -3.81234L494.988 30.7804L353.11 27.5079L362.098 7.36479L361.402 7.00549C361.285 6.94468 358.51 5.5738 351.894 5.2753C332.192 4.38533 144.742 8.03918 104.753 9.0784C100.574 9.18895 97.7052 11.5382 97.5836 11.6378L97.4896 11.7151L86.0525 29.1442L70.3422 29.6361L86.6163 3.4235ZM89.5516 42.5379L85.7761 40.3324L91.3647 39.658L89.5516 42.5379ZM92.5975 39.072L85.1569 39.973L70.3091 31.3055L86.9701 30.7859L87.1028 30.5814L99.6234 38.2207L92.5975 39.072ZM87.3405 30.2165L96.1961 16.7233L107.241 24.2908L100.187 38.0549L87.3405 30.2165ZM250.789 183.479C254.537 171.943 253.978 171.384 253.486 170.893C252.74 170.146 188.517 109.65 128.379 53.002L104.505 30.5814L107.711 24.324L107.805 24.1471L107.639 24.0476L96.4283 16.3695L98.7389 12.8539C99.2199 12.489 101.591 10.8252 104.797 10.7423C144.775 9.70856 332.154 6.05471 351.816 6.93916C356.167 7.13263 358.748 7.81254 359.909 8.20501L350.578 29.111L476.906 32.0241L482.661 45.2465L482.716 45.3681L482.849 45.3737C483.28 45.3958 490.118 45.7496 495.801 45.7496C498.222 45.7496 500.433 45.6832 501.843 45.5063L519.609 79.7232L212.668 67.938C211.027 67.8772 209.451 68.4576 208.235 69.5853C207.019 70.7129 206.317 72.233 206.251 73.8803L206.24 74.1678C206.179 75.8095 206.759 77.3849 207.887 78.601C209.015 79.8171 210.535 80.5192 212.182 80.5855L526.315 92.6471L567.597 172.147L535.939 168.985L535.762 168.969L524.104 206.795L524.004 207.121C521.577 207.707 519.781 208.15 519.139 208.31L519.339 209.117L518.531 209.299L519.322 212.765L513.208 213.733C512.418 213.86 511.771 214.374 511.467 215.115C511.174 215.839 511.268 216.635 511.716 217.27L505.696 218.155L510.759 202.158C511.682 199.25 511.34 196.066 509.819 193.418C508.305 190.77 505.729 188.869 502.749 188.194C486.707 184.557 437.902 173.496 381.772 167.825C348.251 164.442 316.687 164.403 290.495 167.72C287.615 168.084 285.41 170.467 285.238 173.336L279.777 178.681L276.267 193.241C266.455 193.324 256.753 193.551 247.212 193.921C247.748 192.451 249.324 187.99 250.789 183.479ZM128.368 209.642C170.154 200.107 225.725 194.855 284.846 194.855C369.605 194.855 444.546 205.076 482.02 221.626L388.93 235.296C382.811 234.036 323.193 245.252 316.316 246.551L315.642 246.678V248.745C306.405 249.586 296.598 250.017 286.482 250.017C241.784 250.017 211.756 241.985 211.756 234.478C211.756 230.637 219.578 226.612 232.685 223.716C246.123 220.747 264.028 219.067 283.287 218.951C282.414 221.228 281.927 224.081 281.927 227.132C281.927 230.045 282.364 232.792 283.199 235.075L283.387 235.589L292.718 236.076L292.95 235.562C294.105 233.008 294.641 230.327 294.641 227.132C294.641 224.031 294.138 221.223 293.293 219.006C335.288 219.813 361.214 227.613 361.214 234.478C361.214 235.103 360.998 235.75 360.567 236.391L361.943 237.314C362.562 236.396 362.872 235.44 362.872 234.478C362.872 224.103 326.747 217.928 292.524 217.337C291.408 215.303 289.926 214.081 288.284 214.081C286.814 214.081 285.454 215.01 284.354 216.773C284.254 216.933 284.16 217.116 284.067 217.287C241.806 217.436 210.104 224.777 210.104 234.478C210.104 245.241 248.942 251.675 286.488 251.675C296.537 251.675 306.278 251.255 315.47 250.426C313.259 251.415 308.08 252.615 306.09 253.03L305.703 253.112L299.335 265.55L300.23 266.014V271.608L308.295 275.141C308.478 275.616 309.484 278.485 308.262 281.586C308.107 281.978 308.024 282.233 307.997 282.404C253.376 284.035 202.243 281 162.918 273.748C120.817 265.981 97.3238 254.329 96.7655 240.946L96.3288 240.962C96.8981 254.566 120.519 266.362 162.84 274.173C195.261 280.154 235.703 283.272 279.506 283.272C288.948 283.272 298.55 283.123 308.251 282.83L308.284 282.841C308.29 282.841 308.301 282.83 308.312 282.824C312.203 282.708 316.106 282.575 320.025 282.41L320.009 281.973C316.255 282.128 312.518 282.266 308.793 282.382C309.904 281.033 312.17 276.992 312.894 275.052L312.485 274.897C311.662 277.103 309.506 280.729 308.566 281.984C308.594 281.912 308.621 281.835 308.66 281.741C309.854 278.717 309.053 275.97 308.754 275.141L332.225 271.078V272.012L351.617 268.33L351.064 260.044L378.532 254.97L379.362 254.809L379.196 253.98C379.157 253.787 378.859 252.079 380.323 251.543C382.535 250.741 389.168 248.325 389.168 248.325L389.356 248.259L392.059 245.357C395.26 244.876 424.53 240.498 453.623 235.932C473.043 232.881 486.492 230.681 495.823 229.078L495.392 229.664C501.859 234.406 505.569 239.846 505.569 244.583C505.569 257.474 482.152 270.21 441.324 279.53C399.538 289.065 343.967 294.316 284.846 294.316C225.725 294.316 170.159 289.065 128.368 279.53C87.5395 270.221 64.1234 257.479 64.1234 244.594C64.1234 231.709 87.5395 218.962 128.368 209.642ZM285.377 218.945V218.326C285.498 218.094 285.62 217.867 285.753 217.657C286.526 216.425 287.422 215.745 288.279 215.745C290.501 215.745 292.977 220.427 292.977 227.137C292.977 229.874 292.557 232.19 291.656 234.368L284.575 233.997C283.934 232.013 283.58 229.603 283.58 227.132C283.58 224.036 284.127 221.096 285.078 218.94C285.178 218.945 285.277 218.945 285.377 218.945ZM62.8409 247.645C65.1294 256.938 77.8546 265.721 99.7118 273.261L29.4415 260.437L63.355 251.062L63.2389 250.642L27.5012 260.52L100.237 273.792L100.298 273.455C108.341 276.202 117.595 278.778 128.004 281.155C148.921 285.931 173.277 289.634 199.794 292.144L199.777 292.238L459.04 339.97L459.129 339.992L616.198 242.974L615.971 242.604L459.051 339.528C457.664 339.191 456.182 338.782 455.475 338.533C462.263 335.283 593.158 254.047 612.522 242.024L625.656 243.461L457.371 349.257L445.867 349.262L7.1199 264.605C12.2664 262.189 42.2827 253.411 62.8409 247.645ZM8.24759 296.113C8.49635 295.361 8.41896 288.617 8.12598 281.503L430.727 368.571C433.524 369.129 435.436 371.688 435.177 374.535L427.924 452.72L425.37 458.59L425.431 458.358L1.65836 350.014V349.903L426.857 454.859L426.962 454.439L1.66389 349.456C4.0851 328.771 7.82747 297.578 8.24759 296.113ZM141.503 399.775C141.641 400.775 142.243 403.307 142.271 403.418L142.299 403.539L154.499 406.983C154.72 408.376 154.952 409.753 155.057 410.377L138.374 405.441L136.671 398.498L141.503 399.775ZM141.956 399.897L154.41 403.174L154.007 403.147C153.979 403.517 154.184 404.977 154.421 406.513L142.658 403.191C142.547 402.694 142.111 400.831 141.956 399.897ZM136.196 398.376L138.014 405.795L155.604 410.996L155.543 410.654C155.223 408.802 154.399 403.86 154.438 403.186L287.881 438.337L276.864 451.05L107.65 406.773L95.7318 387.724L136.196 398.376ZM2.42121 362.695C2.10612 362.44 1.84631 362.236 1.65836 362.087V350.462L425.287 458.767L425.171 459.033L425.149 459.077L425.691 474.184L2.42121 362.695ZM425.591 459.16L428.333 452.858L428.344 452.825L435.608 374.574C435.89 371.512 433.828 368.748 430.815 368.145L44.3225 288.518L438.04 364.922C439.411 365.188 440.428 365.801 441.064 366.741C442.142 368.35 441.744 370.411 441.733 370.467L437.338 491.364L429.975 478.358L426.127 474.372L425.591 459.16ZM441.639 511.087C442.042 496.942 447.636 351.567 447.697 350.036L447.26 350.02C447.023 356.26 441.611 496.809 441.202 511.043C440.284 510.938 439.289 510.8 438.217 510.618C428.615 509.015 31.8295 400.698 12.2664 395.358C12.7805 392.019 14.6157 378.67 12.0729 373.513C10.0884 369.483 5.73794 365.464 3.21722 363.353L95.1182 387.559L107.373 407.149L276.886 451.504L277.018 451.537L288.351 438.458L425.807 474.665L429.616 478.601L437.719 492.918L442.164 370.522C442.18 370.428 442.606 368.267 441.429 366.503C440.732 365.459 439.621 364.784 438.128 364.497L8.1094 281.05C7.82747 274.383 7.35208 267.496 6.7827 264.986L445.823 349.688H457.205L451.169 510.49L450.903 510.723C450.417 510.911 447.775 511.745 441.639 511.087ZM451.616 510.092L457.642 349.594L469.184 342.336C469.704 350.473 464.889 486.157 464.436 498.805L451.616 510.092ZM464.889 498.412C465.458 482.432 470.223 348.217 469.599 342.082L626.27 243.588L623.777 298.816C623.71 298.788 623.644 298.75 623.572 298.727C623.478 298.512 623.379 298.302 623.274 298.103C623.047 295.715 621.554 292.581 618.951 290.939C617.364 289.938 614.711 289.115 611.079 290.856C604.705 293.913 596.85 299.159 588.531 304.72C585.59 306.687 582.544 308.722 579.438 310.745C570.339 316.676 568.824 331.69 567.823 341.623C567.602 343.79 567.414 345.664 567.177 347.145L565.867 380.898C566.204 384.629 568.404 387.796 571.472 388.968C572.279 389.278 573.103 389.427 573.915 389.427C575.651 389.427 577.343 388.736 578.78 387.393L585.712 380.726L585.645 380.654C586.182 380.395 586.696 380.052 587.182 379.626L596.602 371.307L620.316 351.086C620.322 351.092 620.327 351.092 620.333 351.097L619.697 362.109L464.889 498.412ZM578.034 347.046L576.419 374.342C576.712 377.371 578.437 379.869 580.914 380.859C581.616 381.135 582.334 381.274 583.047 381.274C583.423 381.274 583.794 381.235 584.164 381.157C582.401 382.152 580.377 382.285 578.443 381.506C575.778 380.433 573.937 377.896 573.644 374.922L575.43 345.304C575.048 339.948 578.807 321.441 588.089 315.659C591.82 313.337 595.402 311.027 598.874 308.788C605.319 304.631 611.411 300.701 617.845 297.064C619.255 296.268 620.283 296.024 621.085 296.306C621.737 296.533 622.284 297.113 622.854 298.213C622.865 298.335 622.865 298.451 622.87 298.567C622.4 298.529 621.919 298.606 621.433 298.816C616.309 301.022 610.764 304.885 604.341 309.352C599.57 312.669 594.639 316.101 589.172 319.363C580.394 324.608 577.691 342.203 578.034 347.046ZM574.999 345.315L573.213 374.939C573.528 378.106 575.469 380.782 578.282 381.915C579.172 382.274 580.079 382.451 580.974 382.451C582.041 382.451 583.086 382.197 584.07 381.705L578.481 387.078C576.502 388.924 574.004 389.466 571.632 388.559C568.719 387.443 566.624 384.419 566.303 380.887L567.608 347.189C567.846 345.719 568.039 343.845 568.255 341.667C569.244 331.817 570.748 316.925 579.675 311.11C582.787 309.081 585.828 307.047 588.774 305.079C597.083 299.529 604.927 294.289 611.273 291.248C614.009 289.938 616.585 289.96 618.724 291.304C620.77 292.592 622.163 294.98 622.666 297.086C622.268 296.539 621.803 296.113 621.228 295.914C620.3 295.593 619.155 295.842 617.63 296.704C611.184 300.347 605.092 304.283 598.636 308.44C595.17 310.673 591.582 312.989 587.857 315.305C577.973 321.458 574.65 340.429 574.999 345.315ZM620.277 350.55L615.325 354.773L620.338 350.346C620.311 350.418 620.294 350.484 620.277 350.55ZM624.462 299.789C625.601 300.856 626.369 302.857 626.369 304.764L625.264 333.055C624.672 342.087 622.743 347.3 621.499 349.511L621.085 349.865C621.068 349.881 621.046 349.892 621.029 349.915L621.007 349.937C621.068 349.826 621.134 349.699 621.217 349.566L621.925 348.372L596.32 370.986L585.413 380.29C584.02 380.958 582.506 381.036 581.074 380.466C578.747 379.538 577.127 377.183 576.851 374.347L578.465 347.057C578.127 342.248 580.775 324.896 589.393 319.761C594.871 316.494 599.808 313.055 604.584 309.733C610.985 305.278 616.519 301.425 621.604 299.236C621.975 299.076 622.323 299.009 622.643 299.009C622.859 299.009 623.064 299.043 623.257 299.098C623.318 299.242 623.384 299.385 623.445 299.54L623.749 299.418L623.738 299.651L624.313 299.678C624.368 299.7 624.418 299.745 624.462 299.789Z" fill="#E9EEF1"/>
<path d="M161.342 381.815L211.862 393.28C212.702 393.473 213.553 393.567 214.405 393.567C216.842 393.567 219.236 392.788 221.226 391.312C223.913 389.322 225.593 386.265 225.836 382.926L228.136 351.053C228.517 345.78 224.897 340.993 219.722 339.92L171.088 329.86C168.28 329.279 165.422 329.849 163.051 331.463C160.679 333.077 159.104 335.526 158.612 338.356L153.211 369.626C152.249 375.21 155.82 380.56 161.342 381.815ZM153.642 369.698L159.048 338.422C159.518 335.714 161.027 333.364 163.299 331.817C164.991 330.661 166.942 330.064 168.938 330.064C169.623 330.064 170.314 330.136 171.005 330.28L219.639 340.34C224.604 341.369 228.075 345.957 227.71 351.015L225.411 382.888C225.178 386.099 223.564 389.04 220.977 390.958C218.39 392.876 215.107 393.562 211.967 392.854L161.448 381.39C156.141 380.19 152.713 375.055 153.642 369.698Z" fill="#E9EEF1"/>
<path d="M254.355 396.635L257.483 397.205C257.787 397.26 258.097 397.287 258.396 397.287C260.8 397.287 262.939 395.568 263.387 393.12C263.63 391.793 263.337 390.444 262.564 389.322C261.79 388.2 260.634 387.454 259.302 387.21L256.173 386.641C253.415 386.138 250.773 387.973 250.27 390.726C249.767 393.484 251.602 396.132 254.355 396.635ZM250.701 390.809C251.16 388.288 253.581 386.613 256.101 387.072L259.23 387.642C261.751 388.1 263.426 390.521 262.967 393.042C262.508 395.563 260.087 397.238 257.566 396.779L254.438 396.21C251.917 395.751 250.242 393.33 250.701 390.809Z" fill="#E9EEF1"/>
<path d="M275.515 401.046L278.644 401.616C278.948 401.671 279.252 401.699 279.556 401.699C280.347 401.699 281.121 401.511 281.845 401.146L281.646 400.759C280.734 401.223 279.722 401.372 278.721 401.19L275.593 400.621C273.072 400.162 271.397 397.741 271.856 395.22C272.315 392.699 274.736 391.024 277.257 391.483L280.385 392.053L280.463 391.627L277.334 391.058C274.576 390.555 271.928 392.39 271.43 395.143C270.933 397.895 272.762 400.543 275.515 401.046Z" fill="#E9EEF1"/>
<path d="M254.675 363.319L257.793 363.944C258.124 364.01 258.462 364.043 258.793 364.043C259.783 364.043 260.756 363.75 261.602 363.187C262.735 362.435 263.503 361.291 263.768 359.964C264.034 358.637 263.763 357.289 263.011 356.155C262.259 355.022 261.115 354.254 259.788 353.988L256.671 353.364C255.35 353.099 253.995 353.369 252.862 354.121C251.729 354.873 250.96 356.017 250.695 357.344C250.43 358.671 250.701 360.019 251.452 361.152C252.21 362.286 253.354 363.054 254.675 363.319ZM251.121 357.432C251.364 356.222 252.066 355.177 253.105 354.486C253.879 353.972 254.769 353.701 255.676 353.701C255.98 353.701 256.284 353.729 256.588 353.789L259.705 354.414C260.916 354.657 261.961 355.359 262.652 356.399C263.343 357.432 263.586 358.67 263.343 359.881C263.1 361.092 262.398 362.136 261.358 362.827C260.325 363.518 259.086 363.762 257.876 363.518L254.758 362.894C253.547 362.65 252.503 361.948 251.812 360.909C251.126 359.876 250.877 358.643 251.121 357.432Z" fill="#E9EEF1"/>
<path d="M275.758 368.106L278.876 368.731C279.208 368.797 279.545 368.83 279.876 368.83C280.866 368.83 281.839 368.538 282.685 367.974C283.818 367.222 284.586 366.078 284.852 364.751C285.117 363.424 284.846 362.076 284.094 360.942C283.342 359.809 282.198 359.041 280.872 358.775L277.754 358.151C276.433 357.886 275.078 358.156 273.945 358.908C272.812 359.66 272.043 360.804 271.778 362.131C271.225 364.873 273.011 367.554 275.758 368.106ZM272.204 362.214C272.447 361.003 273.149 359.958 274.188 359.267C274.962 358.753 275.852 358.483 276.759 358.483C277.063 358.483 277.367 358.51 277.671 358.571L280.789 359.196C281.999 359.439 283.044 360.141 283.735 361.18C284.426 362.214 284.669 363.452 284.426 364.663C284.183 365.873 283.481 366.918 282.441 367.609C281.402 368.3 280.169 368.543 278.959 368.3L275.841 367.675C273.331 367.178 271.701 364.723 272.204 362.214Z" fill="#E9EEF1"/>
<path d="M121.005 334.752L124.123 335.377C124.455 335.443 124.792 335.476 125.123 335.476C126.113 335.476 127.086 335.183 127.932 334.619C129.065 333.867 129.833 332.723 130.099 331.397C130.364 330.07 130.093 328.721 129.341 327.588C128.589 326.455 127.445 325.686 126.118 325.421L123.001 324.796C120.253 324.244 117.572 326.029 117.025 328.776C116.76 330.103 117.031 331.452 117.782 332.585C118.534 333.718 119.684 334.487 121.005 334.752ZM117.451 328.859C117.954 326.35 120.408 324.719 122.918 325.222L126.036 325.847C127.246 326.09 128.291 326.792 128.982 327.831C129.673 328.865 129.916 330.103 129.673 331.314C129.43 332.524 128.728 333.569 127.688 334.26C126.655 334.951 125.416 335.194 124.206 334.951L121.088 334.326C119.877 334.083 118.833 333.381 118.142 332.342C117.456 331.308 117.208 330.075 117.451 328.859Z" fill="#E9EEF1"/>
<path d="M142.088 339.533L145.206 340.158C145.543 340.224 145.875 340.257 146.206 340.257C148.572 340.257 150.701 338.588 151.182 336.178C151.447 334.851 151.176 333.503 150.424 332.369C149.672 331.236 148.528 330.468 147.201 330.202L144.084 329.578C141.342 329.025 138.655 330.816 138.108 333.558C137.843 334.885 138.114 336.233 138.865 337.366C139.617 338.5 140.762 339.268 142.088 339.533ZM138.534 333.646C139.037 331.137 141.497 329.5 144.001 330.009L147.119 330.634C148.329 330.877 149.374 331.579 150.065 332.618C150.756 333.652 150.999 334.89 150.756 336.101C150.253 338.61 147.798 340.246 145.289 339.738L142.171 339.113C140.961 338.87 139.916 338.168 139.225 337.129C138.539 336.09 138.291 334.857 138.534 333.646Z" fill="#E9EEF1"/>
<path d="M367.145 435.247C370.208 437.043 373.386 437.955 376.449 437.955C376.919 437.955 377.383 437.933 377.842 437.889C381.474 439.332 385.227 440.056 388.931 440.056C392.491 440.056 395.995 439.387 399.284 438.049C414.984 431.659 421.833 411.914 414.552 394.037C407.272 376.155 388.582 366.807 372.883 373.197C362.043 377.609 355.078 388.443 354.713 401.472L354.918 401.477C354.663 402.146 354.431 402.837 354.238 403.55C352.718 409.106 353.221 415.463 355.653 421.449C358.096 427.43 362.176 432.333 367.145 435.247ZM373.055 373.595C388.533 367.299 406.968 376.536 414.154 394.197C421.341 411.853 414.602 431.344 399.124 437.646C392.761 440.238 385.564 440.271 378.77 437.773C379.887 437.596 380.982 437.297 382.043 436.866C382.563 436.656 383.066 436.413 383.552 436.142L390.235 433.489C391.894 433.262 393.524 432.825 395.078 432.195C406.957 427.358 412.01 412.091 406.338 398.161C400.666 384.231 386.388 376.829 374.508 381.666C369.871 383.551 366.15 387.05 363.735 391.782L363.978 391.903L363.773 391.986C359.937 393.545 356.957 396.652 355.183 400.853C355.741 388.283 362.546 377.874 373.055 373.595ZM394.624 431.51L394.707 431.709C404.215 427.839 407.858 414.622 402.817 402.251C397.775 389.88 385.946 382.959 376.438 386.834L364.21 391.809C366.576 387.26 370.186 383.894 374.669 382.069C386.321 377.327 400.351 384.618 405.934 398.327C411.512 412.035 406.57 427.049 394.912 431.792C394.11 432.118 393.292 432.383 392.463 432.604L394.713 431.709L394.624 431.51ZM376.603 387.232C385.885 383.451 397.471 390.262 402.419 402.412C407.366 414.562 403.834 427.524 394.547 431.305L385.404 434.937C388.306 432.726 390.445 429.415 391.573 425.297C393.093 419.741 392.59 413.384 390.158 407.398C385.708 396.464 375.951 389.797 367.173 391.063L376.603 387.232ZM354.663 403.666C356.156 398.222 359.45 394.219 363.939 392.39C365.675 391.682 367.494 391.345 369.334 391.345C377.328 391.345 385.73 397.691 389.754 407.569C392.153 413.467 392.651 419.725 391.153 425.186C389.832 430.006 387.095 433.693 383.37 435.744L380.678 436.816L380.7 436.877C376.498 438.171 371.816 437.48 367.366 434.871C362.48 432.007 358.466 427.182 356.062 421.283C353.663 415.391 353.165 409.133 354.663 403.666Z" fill="#E9EEF1"/>
<path d="M383.834 402.522L384.226 402.34C381.329 395.983 376.233 395.729 376.183 395.723L376.172 396.16C376.222 396.165 381.053 396.425 383.834 402.522Z" fill="#E9EEF1"/>
<path d="M357.903 385.165C357.925 385.171 357.947 385.171 357.969 385.171C358.118 385.171 358.185 385.027 358.373 384.618C358.809 383.667 359.965 381.146 362.59 378.46C366.648 374.298 372.618 371.252 372.679 371.224L372.856 371.136L370.855 366.21L370.622 366.465C370.097 367.04 357.709 380.533 357.715 384.867C357.715 385.038 357.776 385.137 357.903 385.165ZM370.711 367.006L372.303 370.926C371.562 371.318 368.627 372.916 365.658 375.193L364.652 374.104C364.818 373.894 364.984 373.689 365.15 373.485L366.2 374.624L366.521 374.331L365.426 373.148C367.798 370.246 370.009 367.786 370.711 367.006ZM364.376 374.452L365.31 375.464C364.26 376.288 363.221 377.194 362.275 378.156C360.302 380.179 359.141 382.108 358.494 383.369C359.384 381.064 361.866 377.609 364.376 374.452Z" fill="#E9EEF1"/>
<path d="M282.043 383.203C281.606 384.358 281.269 385.58 281.02 386.846L278.079 384.27L278.013 384.651C277.958 384.966 277.809 385.928 277.659 386.89L273.79 383.501L273.723 383.883C273.602 384.579 273.01 388.437 273.005 388.476L272.955 388.813L277.565 387.487C277.422 388.426 277.294 389.233 277.294 389.25L277.245 389.587L280.744 388.581C280.174 393.147 280.783 398.233 282.75 403.18C285.575 410.283 290.606 415.8 296.565 418.31C298.748 419.227 300.932 419.691 303.054 419.691C303.508 419.691 303.961 419.669 304.409 419.625C307.952 421.068 311.617 421.792 315.227 421.792C318.704 421.792 322.126 421.123 325.337 419.785C340.655 413.395 347.338 393.65 340.24 375.773C336.492 366.332 329.417 358.847 320.838 355.232C313.784 352.264 306.233 352.153 299.572 354.934C288.991 359.35 282.192 370.179 281.838 383.208L282.043 383.203ZM273.486 388.2C273.613 387.382 273.934 385.292 274.088 384.336L277.261 387.116L273.486 388.2ZM277.775 388.974C277.831 388.614 277.925 388.001 278.024 387.343L278.14 387.31L278.041 387.221C278.162 386.436 278.289 385.613 278.372 385.104L280.921 387.332C280.877 387.586 280.838 387.84 280.805 388.095L277.775 388.974ZM296.73 417.9C290.882 415.435 285.929 410.007 283.148 403.014C281.004 397.614 280.495 392.058 281.385 387.216L281.407 387.188L281.391 387.177C282.507 381.135 285.802 376.216 290.832 374.121C292.513 373.419 294.287 373.07 296.111 373.07C298.179 373.07 300.307 373.518 302.43 374.414C308.278 376.879 313.231 382.307 316.012 389.3C320.572 400.787 317.742 412.992 309.765 417.491L307.156 418.553L307.178 418.614C303.9 419.642 300.313 419.41 296.73 417.9ZM320.694 413.036L311.772 416.668C318.549 411.356 320.705 399.924 316.421 389.134C313.602 382.031 308.566 376.52 302.607 374.005C299.699 372.777 296.786 372.374 294.022 372.783L303.198 368.958C306.786 367.46 310.793 367.565 314.801 369.251C320.65 371.716 325.603 377.144 328.383 384.137C333.203 396.292 329.754 409.255 320.694 413.036ZM320.777 413.235L320.86 413.434C330.141 409.565 333.69 396.348 328.776 383.977C325.951 376.873 320.92 371.357 314.961 368.847C310.849 367.111 306.719 367.012 303.021 368.554L291.103 373.524C293.408 368.98 296.935 365.613 301.308 363.789C306.133 361.777 311.639 361.871 316.813 364.049C323.408 366.824 328.87 372.656 331.805 380.041C337.25 393.75 332.424 408.769 321.048 413.511C320.268 413.838 319.472 414.103 318.665 414.324L320.86 413.428L320.777 413.235ZM299.727 355.321C306.277 352.584 313.712 352.695 320.661 355.619C329.135 359.19 336.122 366.586 339.826 375.923C346.841 393.584 340.262 413.075 325.16 419.371C318.953 421.963 311.932 421.997 305.304 419.498C306.393 419.321 307.46 419.023 308.494 418.591C308.997 418.381 309.478 418.138 309.948 417.878L316.482 415.219C318.101 414.993 319.693 414.556 321.208 413.926C332.8 409.089 337.731 393.822 332.197 379.897C329.218 372.401 323.673 366.487 316.974 363.662C311.689 361.434 306.062 361.34 301.131 363.402C296.603 365.293 292.972 368.786 290.617 373.518L290.854 373.64L290.655 373.723C286.819 375.326 283.961 378.526 282.275 382.6C282.833 370.013 289.472 359.599 299.727 355.321Z" fill="#E9EEF1"/>
<path d="M310.241 384.247L310.639 384.071C307.815 377.714 302.834 377.454 302.784 377.454L302.768 377.891C302.812 377.891 307.527 378.15 310.241 384.247Z" fill="#E9EEF1"/>
<path d="M316.383 366.962L316.217 367.36C316.3 367.393 324.498 370.865 327.328 377.752L327.731 377.586C324.824 370.533 316.466 366.995 316.383 366.962Z" fill="#E9EEF1"/>
<path d="M317.228 351.241C321.114 351.993 323.773 353.005 326.405 354.746L326.642 354.386C323.961 352.612 321.258 351.578 317.311 350.815C315.321 350.434 313.995 350.307 312.275 350.329L312.281 350.766C313.972 350.738 315.272 350.865 317.228 351.241Z" fill="#E9EEF1"/>
<path d="M337.482 365.973L335.498 364.629L335.255 364.989L337.908 366.785L337.936 366.741L338.074 366.857L338.262 366.691C338.267 366.68 338.256 366.636 338.234 366.575H338.245C338.229 366.454 337.825 363.651 337.687 363.17L337.272 363.292C337.339 363.529 337.488 364.442 337.626 365.331C336.427 363.181 333.48 358.919 328.306 355.492L328.068 355.851C333.701 359.588 336.548 364.22 337.482 365.973Z" fill="#E9EEF1"/>
<path d="M298.561 354.906L296.974 354.751C298.456 353.767 303.425 350.871 310.628 350.76L310.623 350.324C303.741 350.429 298.848 353.049 297.03 354.199C297.361 353.712 297.765 353.148 297.975 352.938L297.671 352.634C297.245 353.06 296.167 354.718 296.123 354.785L295.93 355.083L298.528 355.337L298.561 354.906Z" fill="#E9EEF1"/>
<path d="M222.315 429.387L257.5 438.624L256.826 434.285L221.591 424.915V425.197C221.591 426.037 222.26 429.122 222.287 429.249L222.315 429.387ZM256.439 434.633L256.969 438.033L222.685 429.028C222.569 428.492 222.138 426.424 222.044 425.485L256.439 434.633Z" fill="#E9EEF1"/>
<path d="M115.876 404.33C116.185 404.33 116.495 404.275 116.782 404.153C117.6 403.81 118.17 403.031 118.391 401.958C118.607 400.914 118.457 399.714 117.982 398.57C117.506 397.426 116.755 396.48 115.859 395.894C114.942 395.297 113.985 395.154 113.167 395.496C112.349 395.839 111.78 396.619 111.558 397.691C111.343 398.736 111.492 399.935 111.968 401.079C112.797 403.047 114.411 404.33 115.876 404.33ZM111.99 397.779C112.178 396.851 112.659 396.182 113.338 395.9C113.576 395.8 113.825 395.751 114.09 395.751C114.582 395.751 115.107 395.922 115.627 396.259C116.445 396.795 117.142 397.674 117.584 398.736C118.026 399.797 118.164 400.914 117.965 401.87C117.777 402.799 117.296 403.467 116.616 403.749C115.179 404.352 113.278 403.075 112.371 400.908C111.929 399.847 111.796 398.736 111.99 397.779Z" fill="#E9EEF1"/>
<path d="M239.423 350.329C237.665 350.329 236.233 352.247 236.233 354.602C236.233 356.957 237.665 358.875 239.423 358.875C241.181 358.875 242.613 356.957 242.613 354.602C242.613 352.247 241.186 350.329 239.423 350.329ZM239.423 358.438C237.903 358.438 236.67 356.719 236.67 354.602C236.67 352.485 237.908 350.766 239.423 350.766C240.938 350.766 242.176 352.485 242.176 354.602C242.181 356.719 240.943 358.438 239.423 358.438Z" fill="#E9EEF1"/>
<path d="M260.96 350.788L264.42 351.628L264.746 346.913L261.286 346.073L261.115 348.549L256.327 344.779L256.283 345.161C256.184 345.973 255.736 350.478 255.73 350.523L255.697 350.86L261.087 348.997L260.96 350.788ZM256.189 350.23C256.283 349.301 256.543 346.703 256.665 345.597L260.606 348.704L256.189 350.23ZM264.288 347.25L264.022 351.086L261.413 350.451L261.678 346.614L264.288 347.25Z" fill="#E9EEF1"/>
<path d="M282.297 350.617L278.837 349.776L278.511 354.492L281.971 355.332L282.297 350.617ZM281.579 354.79L278.97 354.154L279.235 350.318L281.844 350.954L281.579 354.79Z" fill="#E9EEF1"/>
<path d="M257.516 379.637L252.099 381.677L256.427 384.9L256.499 384.568C256.504 384.552 256.67 383.75 256.869 382.821L260.722 385.69L260.794 385.359C260.8 385.32 261.607 381.506 261.739 380.809L261.811 380.428L256.996 382.241C257.195 381.29 257.394 380.339 257.45 380.024L257.516 379.637ZM261.225 381.102C261.032 382.053 260.601 384.12 260.429 384.933L257.278 382.589L261.225 381.102ZM256.482 382.534C256.35 383.181 256.217 383.789 256.145 384.148L252.994 381.804L256.941 380.317C256.842 380.82 256.67 381.638 256.504 382.418L256.383 382.462L256.482 382.534Z" fill="#E9EEF1"/>
<path d="M118.429 365.917L118.391 365.967C119.026 366.465 119.789 366.946 120.723 367.427L139.303 371.158C139.374 371.158 139.452 371.158 139.524 371.158C142.89 371.158 145.814 369.085 146.378 366.26L146.505 365.636C147.119 362.584 144.924 359.555 141.613 358.892L141.586 359.019C141.077 358.742 140.53 358.538 139.949 358.422L120.812 354.586C117.677 353.961 114.626 355.995 113.996 359.124C113.377 362.225 115.361 365.243 118.429 365.917ZM146.074 365.558L145.947 366.183C145.411 368.858 142.586 370.821 139.347 370.732L120.889 367.034C120.298 366.724 119.778 366.42 119.319 366.111L137.666 369.787C138.048 369.864 138.429 369.903 138.805 369.903C139.933 369.903 141.044 369.571 142.006 368.925C143.294 368.068 144.173 366.758 144.477 365.249C144.781 363.74 144.471 362.197 143.614 360.904C143.277 360.395 142.863 359.953 142.398 359.583C144.974 360.506 146.583 363.021 146.074 365.558ZM114.422 359.218C114.93 356.675 117.174 354.917 119.673 354.917C120.021 354.917 120.375 354.95 120.729 355.022L128.374 356.553L127.208 367.178L127.639 367.227L128.8 356.642L129.817 356.846L128.661 367.349L129.093 367.399L130.242 356.935L139.861 358.864C141.259 359.146 142.464 359.953 143.261 361.147C144.057 362.341 144.338 363.767 144.062 365.166C143.78 366.564 142.968 367.769 141.774 368.565C140.579 369.361 139.153 369.643 137.755 369.367L118.617 365.531C115.726 364.939 113.841 362.114 114.422 359.218Z" fill="#E9EEF1"/>
<path d="M99.535 350.677L99.5074 350.804C99.0043 350.528 98.4571 350.324 97.8711 350.207L78.7336 346.371C77.2245 346.067 75.6822 346.377 74.3887 347.234C73.0952 348.09 72.2218 349.4 71.9177 350.91C71.6137 352.419 71.9233 353.961 72.7801 355.254C73.6203 356.515 74.8862 357.377 76.3511 357.698L76.3124 357.747C76.9481 358.245 77.7109 358.726 78.6452 359.207L97.2243 362.938C97.2962 362.938 97.3736 362.938 97.4455 362.938C100.812 362.938 103.736 360.865 104.3 358.04L104.427 357.416C105.041 354.37 102.846 351.341 99.535 350.677ZM73.1449 355.017C72.3489 353.823 72.067 352.396 72.3434 350.998C72.6253 349.599 73.4379 348.394 74.6319 347.598C75.5274 347.001 76.5501 346.697 77.5948 346.697C77.9431 346.697 78.2969 346.731 78.6507 346.802L86.2957 348.334L85.1293 358.958L85.5605 359.008L86.7214 348.422L87.7385 348.627L86.5832 359.129L87.0144 359.179L88.1642 348.715L97.7827 350.644C100.679 351.225 102.559 354.055 101.978 356.946C101.398 359.842 98.5731 361.722 95.6765 361.141L76.539 357.305C75.146 357.018 73.9409 356.211 73.1449 355.017ZM104.002 357.338L103.874 357.963C103.338 360.638 100.491 362.606 97.2741 362.512L78.8165 358.814C78.225 358.505 77.7054 358.201 77.2466 357.891L95.5936 361.567C95.975 361.644 96.3565 361.683 96.7324 361.683C99.4355 361.683 101.857 359.776 102.404 357.029C102.846 354.829 101.967 352.673 100.325 351.363C102.901 352.28 104.51 354.796 104.002 357.338Z" fill="#E9EEF1"/>
<path d="M58.5181 340.512L58.4905 340.639C57.9875 340.363 57.4402 340.158 56.8487 340.042L37.7112 336.206C34.5824 335.581 31.5255 337.615 30.8953 340.744C30.2762 343.84 32.2607 346.858 35.3287 347.532L35.29 347.582C35.9257 348.079 36.6886 348.56 37.6228 349.041L56.202 352.772C56.2738 352.772 56.3457 352.772 56.4231 352.772C59.7896 352.772 62.7138 350.7 63.2776 347.875L63.4048 347.25C63.7033 345.774 63.3495 344.254 62.4208 342.977C61.4977 341.706 60.1102 340.832 58.5181 340.512ZM31.3265 340.827C31.9069 337.93 34.7317 336.051 37.6283 336.631L45.2733 338.163L44.1125 348.787L44.5437 348.837L45.7045 338.251L46.7217 338.455L45.5663 348.958L45.9975 349.008L47.1473 338.544L56.7658 340.473C59.6624 341.054 61.5419 343.884 60.9615 346.775C60.381 349.671 57.5508 351.551 54.6597 350.97L35.5222 347.134C32.6311 346.548 30.7461 343.723 31.3265 340.827ZM62.9847 347.167L62.8575 347.792C62.3213 350.467 59.48 352.413 56.2572 352.341L37.7997 348.643C37.2082 348.334 36.6886 348.03 36.2297 347.72L54.5768 351.396C54.9582 351.473 55.3396 351.512 55.7155 351.512C58.4186 351.512 60.8399 349.605 61.3871 346.858C61.8293 344.658 60.9504 342.502 59.3086 341.192C60.4197 341.59 61.3816 342.297 62.0726 343.243C62.9349 344.414 63.2555 345.813 62.9847 347.167Z" fill="#E9EEF1"/>
<path d="M18.1042 342.64C20.4314 342.64 22.3275 340.34 22.3275 337.516C22.3275 334.691 20.4314 332.391 18.1042 332.391C15.7769 332.391 13.8809 334.691 13.8809 337.516C13.8809 340.34 15.7769 342.64 18.1042 342.64ZM18.1042 332.828C20.1937 332.828 21.8963 334.934 21.8963 337.516C21.8963 340.097 20.1937 342.203 18.1042 342.203C16.0146 342.203 14.312 340.097 14.312 337.516C14.312 334.934 16.0146 332.828 18.1042 332.828Z" fill="#E9EEF1"/>
<path d="M17.5506 340.982C19.1316 340.982 20.4196 339.428 20.4196 337.516C20.4196 335.603 19.1316 334.05 17.5506 334.05C15.9696 334.05 14.6816 335.603 14.6816 337.516C14.6816 339.428 15.9696 340.982 17.5506 340.982ZM17.5506 334.486C18.8939 334.486 19.9884 335.846 19.9884 337.516C19.9884 339.185 18.8939 340.545 17.5506 340.545C16.2073 340.545 15.1128 339.185 15.1128 337.516C15.1128 335.846 16.2073 334.486 17.5506 334.486Z" fill="#E9EEF1"/>
<path d="M171.325 370.953C176.057 371.987 187.334 374.817 198.235 377.554C218.345 382.6 222.397 383.562 223.199 383.562C223.287 383.562 223.337 383.551 223.365 383.529L223.453 383.457V383.352C223.453 382.921 224.415 358.129 224.774 349.345C224.852 347.505 223.591 345.891 221.789 345.515L171.53 334.99C170.38 334.752 169.214 335.045 168.318 335.797C167.423 336.549 166.936 337.654 166.975 338.821L167.986 367.67C168.053 369.378 169.175 370.484 171.325 370.953ZM168.6 336.129C169.214 335.614 169.965 335.344 170.745 335.344C170.977 335.344 171.209 335.366 171.441 335.415L221.701 345.94C223.298 346.272 224.409 347.698 224.343 349.329C224 357.703 223.11 380.638 223.027 383.137C221.391 382.916 209.689 379.975 198.346 377.133C187.439 374.397 176.162 371.567 171.425 370.528C169.462 370.097 168.484 369.157 168.429 367.653L167.417 338.804C167.373 337.77 167.81 336.797 168.6 336.129Z" fill="#E9EEF1"/>
<path d="M59.8345 305.588L59.7451 306.01L109.914 316.635L110.004 316.213L59.8345 305.588Z" fill="#E9EEF1"/>
<path d="M119.302 318.193L119.213 318.615L131.413 321.199L131.502 320.777L119.302 318.193Z" fill="#E9EEF1"/>
<path d="M139.56 322.466L139.471 322.888L150.222 325.165L150.311 324.743L139.56 322.466Z" fill="#E9EEF1"/>
<path d="M16.357 326.053L16.2637 326.479L22.8627 327.923L22.9561 327.497L16.357 326.053Z" fill="#E9EEF1"/>
<path d="M32.1285 329.481L32.0352 329.907L66.9257 337.539L67.019 337.113L32.1285 329.481Z" fill="#E9EEF1"/>
<path d="M82.3268 340.49L82.2334 340.917L104.99 345.897L105.083 345.47L82.3268 340.49Z" fill="#E9EEF1"/>
<path d="M117.655 348.21L117.562 348.637L127.028 350.708L127.121 350.282L117.655 348.21Z" fill="#E9EEF1"/>
<path d="M136.561 352.356L136.468 352.783L148.202 355.351L148.296 354.925L136.561 352.356Z" fill="#E9EEF1"/>
<path d="M17.4517 303.968L39.718 307.865C39.8948 307.898 40.0773 307.909 40.2542 307.909C40.9009 307.909 41.5311 307.705 42.0618 307.307C42.7417 306.804 43.1729 306.063 43.2724 305.223L43.6759 301.917C43.8915 300.132 42.6809 298.495 40.9064 298.186L18.9221 294.338C18.0929 294.195 17.2582 294.388 16.5838 294.891C15.9039 295.394 15.4782 296.129 15.3732 296.97L14.931 300.574C14.743 302.199 15.8486 303.686 17.4517 303.968ZM15.3732 300.629L15.8154 297.025C15.9039 296.306 16.2742 295.676 16.8547 295.245C17.3135 294.908 17.8497 294.731 18.4025 294.731C18.5517 294.731 18.7065 294.742 18.8613 294.77L40.8456 298.617C42.3879 298.888 43.4493 300.314 43.2558 301.873L42.8523 305.178C42.7638 305.897 42.3934 306.533 41.813 306.964C41.2326 307.395 40.5195 307.566 39.8009 307.439L17.5346 303.542C16.1471 303.299 15.2018 302.022 15.3732 300.629Z" fill="#E9EEF1"/>
<path d="M234.91 342.661L234.82 343.083L245.571 345.36L245.661 344.938L234.91 342.661Z" fill="#E9EEF1"/>
</g>
</mask>
<g mask="url(#mask0_6992_96479)">
<path d="M415.887 500H-80C-91.0457 500 -100 491.046 -100 480V20C-100 8.95431 -91.0457 0 -80 0H435C446.046 0 455 8.9543 455 20V459.791C455 464.902 453.043 469.819 449.531 473.533L430.418 493.742C426.64 497.737 421.385 500 415.887 500Z" fill="#E9EEF1"/>
<path d="M415.887 499.5H-80C-90.7696 499.5 -99.5 490.77 -99.5 480V20C-99.5 9.23045 -90.7696 0.5 -80 0.5H435C445.77 0.5 454.5 9.23044 454.5 20V459.791C454.5 464.774 452.592 469.569 449.168 473.189L430.055 493.399C426.372 497.293 421.247 499.5 415.887 499.5Z" stroke="url(#paint0_linear_6992_96479)" stroke-opacity="0.5"/>
</g>
<defs>
<linearGradient id="paint0_linear_6992_96479" x1="177.5" y1="1.25" x2="177.5" y2="500" gradientUnits="userSpaceOnUse">
<stop stop-color="#E9EEF1"/>
<stop offset="1" stop-color="#1E1E1E"/>
</linearGradient>
<clipPath id="clip0_6992_96479">
<rect width="455" height="500" fill="white"/>
</clipPath>
</defs>
</svg>
