<svg width="555" height="500" viewBox="0 0 555 500" fill="none" xmlns="http://www.w3.org/2000/svg">
<g opacity="0.8" clip-path="url(#clip0_6992_97314)">
<path d="M245.367 343.103C244.174 343.103 243.085 343.526 242.235 344.345C241.392 345.164 240.919 346.262 240.899 347.439C240.88 348.615 241.321 349.727 242.138 350.578C242.955 351.423 244.051 351.898 245.225 351.917C245.251 351.917 245.27 351.917 245.296 351.917C246.444 351.917 247.527 351.475 248.351 350.676C250.095 348.986 250.134 346.191 248.448 344.442C247.637 343.604 246.541 343.123 245.367 343.103ZM247.916 350.227C246.425 351.677 244.031 351.638 242.592 350.143C241.891 349.421 241.515 348.466 241.528 347.458C241.548 346.451 241.95 345.508 242.676 344.806C243.409 344.098 244.349 343.747 245.296 343.747C246.282 343.747 247.268 344.13 248.001 344.897C248.701 345.625 249.077 346.574 249.058 347.582C249.045 348.583 248.643 349.525 247.916 350.227Z" fill="#E9EEF1"/>
<path d="M245.391 345.21C244.755 345.229 244.165 345.437 243.711 345.873C243.257 346.308 243.004 346.9 242.991 347.53C242.972 348.83 244.01 349.909 245.307 349.929C245.32 349.929 245.333 349.929 245.346 349.929C245.962 349.929 246.539 349.695 246.986 349.266C247.44 348.83 247.693 348.239 247.706 347.608C247.726 346.308 246.688 345.236 245.391 345.21ZM245.326 349.305C244.866 349.298 244.431 349.11 244.113 348.778C243.789 348.447 243.621 348.012 243.627 347.55C243.634 347.088 243.822 346.653 244.152 346.334C244.477 346.022 244.905 345.847 245.352 345.847C245.359 345.847 245.372 345.847 245.378 345.847C246.331 345.86 247.09 346.653 247.077 347.602C247.064 348.557 246.273 349.298 245.326 349.305Z" fill="#E9EEF1"/>
<path d="M289.903 344.774C289.028 344.053 287.958 343.741 286.881 343.89C285.804 344.046 284.864 344.644 284.229 345.587C282.925 347.504 283.321 350.26 285.104 351.736C285.83 352.34 286.699 352.659 287.588 352.659C287.763 352.659 287.945 352.646 288.12 352.62C289.196 352.464 290.137 351.866 290.772 350.923C292.082 349.006 291.687 346.243 289.903 344.774ZM290.26 350.566C289.722 351.359 288.937 351.859 288.035 351.989C287.134 352.119 286.239 351.853 285.5 351.248C283.956 349.974 283.619 347.595 284.747 345.938C285.286 345.145 286.077 344.638 286.972 344.514C287.121 344.495 287.27 344.482 287.413 344.482C288.159 344.482 288.885 344.748 289.501 345.255C291.045 346.529 291.382 348.915 290.26 350.566Z" fill="#E9EEF1"/>
<path d="M286.729 345.957C286.145 346.042 285.639 346.367 285.295 346.874C284.958 347.374 284.822 347.985 284.906 348.603C285.075 349.786 286.035 350.65 287.111 350.65C287.208 350.65 287.299 350.644 287.397 350.631C288.583 350.462 289.4 349.272 289.219 347.985C289.031 346.698 287.915 345.788 286.729 345.957ZM287.306 350.007C286.463 350.124 285.665 349.454 285.529 348.512C285.464 348.05 285.561 347.589 285.814 347.225C286.061 346.867 286.411 346.64 286.819 346.581C286.884 346.575 286.949 346.568 287.014 346.568C287.779 346.568 288.467 347.205 288.596 348.076C288.726 349.019 288.149 349.89 287.306 350.007Z" fill="#E9EEF1"/>
<path d="M397.695 82.2644C396.885 82.5179 396.042 83.0639 395.309 83.7919C394.582 84.5199 394.038 85.3714 393.785 86.1839C393.473 87.1719 393.61 88.0235 394.167 88.5825C394.53 88.9465 395.01 89.1285 395.581 89.1285C395.886 89.1285 396.217 89.0765 396.56 88.966C397.371 88.7125 398.214 88.1665 398.947 87.4385C399.673 86.7104 400.218 85.8589 400.471 85.0464C400.782 84.0584 400.646 83.2069 400.088 82.6479C399.531 82.0954 398.681 81.9589 397.695 82.2644ZM398.934 84.5654C398.759 85.1244 398.35 85.7549 397.812 86.2945C397.274 86.834 396.645 87.2435 396.087 87.419C395.678 87.549 395.399 87.5165 395.315 87.432C395.231 87.3475 395.205 87.0745 395.335 86.6584C395.51 86.0994 395.918 85.4689 396.457 84.9294C396.995 84.3899 397.624 83.9804 398.182 83.8049C398.383 83.7399 398.551 83.7204 398.675 83.7204C398.811 83.7204 398.908 83.7464 398.947 83.7919C399.031 83.8764 399.064 84.1559 398.934 84.5654Z" fill="#E9EEF1"/>
<path d="M516.383 201.683L516.415 199.811C517.446 199.863 518.354 199.895 519.126 199.895C521.188 199.895 522.375 199.687 522.978 199.122C523.263 198.855 523.419 198.511 523.419 198.127H522.673L523.419 198.114L522.771 160.447H522.667C522.745 159.998 522.79 159.523 522.725 159.068C522.563 157.846 521.441 156.813 519.658 155.948V135.441H519.573C519.573 131.352 507.511 129.142 496.161 129.142C484.812 129.142 472.749 131.352 472.749 135.441H472.665V156.286C471.193 157.099 470.311 158.054 470.311 159.186C470.311 159.199 470.33 159.92 470.44 160.707V167.772C469.85 167.545 469.241 167.434 468.612 167.434C466.037 167.434 463.832 169.397 462.911 172.173C461.205 171.601 459.136 171.289 456.996 171.289C456.4 171.289 455.816 171.282 455.258 171.269C450.848 171.211 447.048 171.146 446.951 175.975C446.925 177.256 447.262 178.237 447.982 178.972C449.648 180.675 453.06 180.675 457.003 180.675C459.487 180.675 461.828 180.259 463.663 179.511C464.785 181.39 466.588 182.618 468.618 182.618C469.241 182.618 469.857 182.488 470.447 182.261V183.268V198.114C470.447 198.446 470.564 198.745 470.784 198.998L416.236 181.435C415.678 168.305 410.672 155.331 401.981 144.658C393.485 134.219 382.22 126.737 370.106 123.429C370.547 122.987 371.02 122.519 371.546 121.999C374.717 118.846 379.224 114.335 384.575 108.947C394.471 98.9823 404.264 89.0503 406.028 87.2238C406.249 86.9963 407.137 86.1513 407.312 86.0213C411.781 83.1223 423.234 78.5137 425.951 81.3998C430.141 89.5573 438.513 94.7313 447.774 94.7313C461.309 94.7313 472.321 83.6943 472.321 70.1352C472.321 56.5697 461.309 45.5326 447.774 45.5326C447.028 45.5326 446.276 45.5651 445.543 45.6301L445.647 46.7546L445.543 45.6301C444.59 45.7146 443.643 45.8706 442.709 46.0721L441.516 45.5391L432.462 41.4831L431.464 43.7256L439.441 47.2941C443.922 50.7977 446.438 55.9522 446.237 61.3277C445.984 67.8927 442.884 72.0397 440.323 74.3602C436.814 77.5452 432.047 79.3392 427.43 79.2417C427.365 79.0987 427.293 78.9687 427.235 78.8257L426.632 79.0792C421.269 75.8747 408.473 82.5828 406.099 84.1233C405.678 84.3963 404.433 85.6378 404.42 85.6508C399.899 90.3243 368.802 121.758 364.613 125.639C362.544 124.826 356.221 122.376 352.985 121.128C364.801 108.622 392.863 79.6772 398.103 77.6752C403.162 75.7382 409.653 74.7047 411.709 74.4057L411.988 74.5292L412.066 74.3537C412.17 74.3407 412.248 74.3277 412.293 74.3212C423.175 74.2757 433.072 64.7272 433.072 54.2427C433.072 49.9982 431.898 46.1241 429.823 42.9781L431.464 43.7126L432.462 41.4701L425.205 38.2201C423.74 37.1931 422.105 36.3741 420.315 35.8281L420.263 36.0101L381.215 18.5251L381.144 18.6876C377.72 15.7755 373.232 14.04 368.18 14.04C357.395 14.04 348.62 22.8346 348.62 33.6441C348.62 42.3801 354.353 49.7967 362.239 52.3187L362.161 52.5007L392.182 65.7867H391.663C391.663 65.8517 391.624 72.5207 388.913 75.9397C386.163 79.4042 350.922 115.044 346.415 119.594C342.835 118.261 339.022 116.792 335.578 115.336C329.845 112.925 328.989 113.243 328.587 113.536L247.416 84.5848L247.351 84.7733C240.976 79.4042 233.272 74.8412 224.108 70.9932L224.043 71.1557C217.344 66.6057 210.08 64.0577 202.622 63.7457L155.895 49.7577L155.863 49.8292C146.647 45.1101 136.407 42.4711 125.628 42.4711C85.4451 42.4711 52.7461 79.0922 52.7461 124.111C52.7461 168.63 84.7253 204.939 124.299 205.739L124.273 205.875L164.741 213.35C169.249 215.723 177.206 219.259 184.625 219.259C184.839 219.259 185.053 219.259 185.267 219.252C189.574 219.129 193.789 218.589 197.875 217.666L197.855 218.05C199.081 218.108 200.294 218.141 201.507 218.141C206.027 218.141 210.463 217.718 214.763 216.893L225.528 219.454C225.314 233.604 225.34 236.308 225.736 237.043C225.626 236.88 225.587 236.711 225.58 236.62C225.58 236.672 225.58 236.744 225.58 236.835C225.489 240.241 227.312 242.379 231.015 243.198C232.117 243.439 234.413 243.569 237.416 243.608C237.377 244.518 237.345 245.415 237.312 246.292H223.479L223.518 246.643C223.524 246.702 224.115 252.506 222.357 254.463C221.994 254.866 221.559 255.067 221.04 255.067V255.698H221.183C221.41 258.928 219.205 260.287 218.855 260.482C218.161 260.508 217.61 260.774 217.227 261.288C216.267 262.594 216.702 264.993 216.935 265.968C216.663 265.968 216.313 265.974 215.962 265.981C215.457 265.987 214.97 265.994 214.828 265.994C212.091 265.994 209.86 269.907 209.86 274.71C209.86 279.059 211.689 282.666 214.062 283.316V283.433H217.448C217.123 284.805 217.752 288.666 220.139 290.505C222.798 292.553 223.511 299.852 223.518 299.924L223.544 300.184L238.473 301.64L238.441 301.698L238.979 302.023L243.629 294.23L243.7 294.113L241.443 286.644C243.934 292.358 246.703 292.819 247.319 292.845C247.319 292.845 252.598 292.865 256.308 292.891L256.321 290.707C252.864 290.687 248.058 290.668 247.403 290.661C246.872 290.531 237.753 287.645 239.589 243.816H249.206C249.077 249.653 248.694 275.724 251.787 282.692C252.449 284.181 254.628 286.859 256.431 286.657L256.197 284.486C256.243 284.48 256.262 284.486 256.269 284.486C255.808 284.408 254.362 283.115 253.778 281.802C252.365 278.623 251.736 270.778 251.476 262.945L262.119 263.075L262.112 263.082L284.415 263.309C284.227 268.028 284.007 273.8 283.896 277.414L256.827 277.018L256.82 277.83C256.684 288.88 256.749 295.159 256.898 298.754C254.103 299.176 251.697 301.341 251.807 303.369C251.839 303.999 252.086 304.597 252.501 305.169L252.767 313.756C230.321 317.24 226.676 325.729 226.534 326.093L226.469 326.256L227.597 351.918L227.61 352.217L227.811 352.431C228.142 352.789 229.432 354.128 230.807 354.96C223.44 371.86 132.82 579.613 122.12 604.261H119.461L109.156 626.212L112.145 636.19L112.45 636.346C112.8 636.528 120.596 640.545 126.653 640.545C127.055 640.545 127.451 640.525 127.833 640.493C128.391 640.441 129.422 640.337 138.009 620.362L138.093 620.167L137.6 615.896L136.653 616.007C175.072 527.041 245.879 363.579 251.424 352.711C254.057 352.035 256.256 351.554 257.319 351.944C263.253 354.121 273.734 352.997 278.209 352.522C279.058 352.431 279.791 352.373 279.973 352.36C280.057 352.366 280.232 352.418 280.453 352.49C282.794 359.666 332.4 511.857 338.243 530.571L338.003 530.402L335.28 534.178L340.857 549.869L361.785 552.014L365.657 540.399L361.124 525.488L357.641 523.616L357.505 523.869L342.965 479.52L415.322 634.61L411.288 635.546L422.78 659.993H423.292C423.623 659.993 431.438 659.98 434.181 658.842C435.063 658.472 448.877 650.503 450.453 649.599L451.082 649.235L439.817 623.937L437.988 624.873L313.158 351.833C314.818 351.092 315.953 350.553 316.096 350.481L316.582 350.247L316.55 349.708C316.543 349.578 315.804 336.415 315.603 330.247C315.428 325.047 309.234 320.88 302.367 317.708C302.315 315.394 302.133 309.901 301.66 308.731C301.446 308.198 300.946 307.782 300.194 307.49C298.521 306.84 295.55 306.82 293.76 306.957L293.585 302.855C293.728 302.465 293.793 302.069 293.767 301.672C293.663 299.794 291.86 298.253 288.54 297.148L287.872 296.752V291.727C288.365 291.909 288.916 292.013 289.545 292.013C294.234 292.013 303.035 292.163 303.125 292.163V292.013C303.936 292.364 304.747 292.553 305.544 292.553C305.674 292.553 305.797 292.546 305.927 292.54C308.469 292.358 310.337 290.421 311.517 288.971C312.737 287.483 314.325 276.907 315.551 267.242L329.65 267.489C330.947 268.99 332.497 269.809 334.242 269.809C336.155 269.809 337.264 269.523 337.647 268.938C337.705 268.847 337.738 268.756 337.757 268.665C342.323 268.158 344.664 256.634 345.578 250.563C348.108 250.94 350.326 251.174 351.934 251.258C352.874 251.304 353.815 251.33 354.749 251.33C359.502 251.33 364.191 250.725 368.744 249.562L368.737 249.588L401.865 257.31L402.228 255.737L402.04 255.691L402.682 243.224L409.199 244.83C410.114 256.686 413.823 264.07 419.213 264.388L419.278 263.283L419.258 264.395L424.369 264.473C424.518 264.492 424.667 264.518 424.816 264.525V264.479L436.717 264.661L436.723 264.369C437.184 264.525 437.651 264.629 438.124 264.655C438.228 264.661 438.332 264.661 438.435 264.661C441.704 264.661 444.862 261.58 447.353 255.932C447.573 255.431 447.787 254.911 447.995 254.378L464.714 258.493C463.469 273.365 463.845 273.794 464.124 274.106L464.37 274.372L514.262 276.849L515.072 277.089L525.598 241.021C528.62 240.676 532.713 240.026 532.713 236.659C532.713 234.93 531.604 233.409 529.347 232.057L533.024 220.175L531.48 219.694L531.046 221.105L516.143 215.677L516.175 213.714L533.069 220.078L533.303 219.22C533.322 219.142 535.482 211.14 536.014 209.457L536.254 208.709L516.383 201.683ZM470.064 70.1482C470.064 82.4723 460.064 92.4953 447.768 92.4953C441.094 92.4953 434.933 89.5378 430.77 84.6173C434.628 86.0018 439.791 86.7428 442.949 86.7428C453.65 86.7428 462.353 78.0197 462.353 67.2947C462.353 60.8987 459.35 55.1462 454.688 51.6167L454.746 51.4802L454.11 51.1942C452.269 49.9137 450.193 48.9646 447.956 48.4381L446.594 47.8271C446.983 47.8076 447.379 47.7946 447.768 47.7946C460.057 47.7946 470.064 57.8242 470.064 70.1482ZM444.486 48.0481L444.415 48.2041L444.486 48.0481ZM440.997 46.6701L440.575 47.6126L440.997 46.6701ZM427.767 79.7682C432.384 79.7682 437.132 77.9352 440.64 74.7502C443.273 72.3647 446.458 68.1007 446.717 61.3667C446.912 56.3747 444.817 51.5647 441.023 48.0286L443.915 49.3222L445.958 50.2387L445.945 50.3622C446.107 50.3817 446.263 50.4207 446.425 50.4532L453.676 53.6902C457.599 56.8297 460.109 61.7892 460.109 67.2947C460.109 76.7782 452.411 84.4873 442.956 84.4873C438.941 84.4873 431.334 83.1353 428.539 81.0228L428.402 81.1983C428.227 80.8863 428.046 80.5808 427.884 80.2558L427.903 80.2427C427.884 80.2167 427.858 80.1972 427.838 80.1712C427.773 80.0347 427.709 79.8917 427.644 79.7552C427.689 79.7617 427.728 79.7682 427.767 79.7682ZM521.927 198.134C521.927 198.127 521.927 198.127 521.927 198.134V198.134ZM496.161 130.481C509.845 130.481 518.244 133.374 518.244 135.447H518.159V137.209C515.072 134.583 505.461 133.068 496.109 133.068C486.855 133.068 477.341 134.55 474.156 137.124V135.447H474.072C474.079 133.374 482.477 130.481 496.161 130.481ZM474.156 138.002C476.154 135.779 484.475 133.718 496.109 133.718C507.939 133.718 516.337 135.85 518.159 138.112V155.324C513.153 153.485 504.787 152.614 496.927 152.614C489.488 152.614 479.539 153.459 474.156 155.597V138.002ZM496.927 154.369C512.193 154.369 520.708 157.235 520.987 159.309C521.058 159.823 520.896 160.479 520.715 160.999C516.674 158.652 506.577 157.307 496.738 157.307C486.518 157.307 476.024 158.757 472.321 161.279C472.185 160.785 472.055 159.556 472.055 159.199C472.062 157.222 481.744 154.369 496.927 154.369ZM470.44 171.256V180.688C469.5 179.42 468.955 177.737 468.955 175.975C468.955 174.214 469.494 172.53 470.44 171.256ZM456.996 180.005C453.202 180.005 449.927 180.005 448.462 178.504C447.878 177.906 447.606 177.087 447.625 175.995C447.709 171.841 450.706 171.887 455.245 171.952C455.809 171.958 456.4 171.971 456.996 171.971C458.131 171.971 459.24 172.062 460.284 172.238C459.928 173.154 459.72 174.272 459.72 175.462C459.72 177.119 460.09 178.634 460.738 179.622L461.309 179.245C460.745 178.38 460.408 176.97 460.408 175.462C460.408 174.298 460.609 173.213 460.972 172.361C461.588 172.491 462.178 172.641 462.729 172.829C462.554 173.525 462.463 174.266 462.463 175.033C462.463 176.456 462.788 177.782 463.339 178.92C461.594 179.622 459.363 180.005 456.996 180.005ZM463.144 175.039C463.144 174.214 463.268 173.427 463.475 172.693L463.585 172.42C463.579 172.413 463.566 172.413 463.559 172.413C464.377 169.904 466.335 168.13 468.618 168.13C469.247 168.13 469.863 168.273 470.447 168.533V170.19C470.395 170.242 470.343 170.294 470.291 170.353C469.014 171.789 468.274 173.837 468.274 175.975C468.274 178.153 469.007 180.161 470.298 181.598C469.759 181.819 469.195 181.942 468.618 181.942C465.596 181.942 463.144 178.842 463.144 175.039ZM471.932 162.494C473.741 160.2 483.249 157.996 496.738 157.996C508.483 157.996 517.213 159.667 520.468 161.61C520.455 161.643 520.436 161.688 520.423 161.714L521.123 162.065C521.188 162.117 521.246 162.176 521.305 162.228L521.921 198.056C521.195 198.667 516.227 198.329 511.836 198.03C507.595 197.744 502.322 197.38 496.693 197.38C491.031 197.38 485.817 197.744 481.628 198.036C477.192 198.342 472.613 198.66 471.926 198.062V183.281V162.494H471.932ZM459.422 204.406C461.471 210.438 461.945 218.102 460.719 225.434C458.961 235.925 454.72 244.934 449.694 249.113C450.809 244.888 451.549 240.117 451.847 235.138C452.314 227.228 451.607 219.707 449.849 213.961C447.982 207.871 445.096 204.406 441.717 204.205C441.697 204.205 441.684 204.205 441.665 204.205V204.179L429.051 204.003C428.876 196.385 427.203 190.217 424.466 186.427L454.11 195.969C456.231 197.614 458.112 200.558 459.422 204.406ZM418.953 259.11L431.554 258.922C432.248 260.326 433.02 261.483 433.857 262.386L421.321 262.191C420.471 261.411 419.68 260.371 418.953 259.11ZM418.623 258.506C417.929 257.199 417.313 255.691 416.768 254.021L429.68 253.839C429.777 254.196 429.881 254.547 429.985 254.885C430.368 256.146 430.802 257.284 431.269 258.317L418.623 258.506ZM424.492 206.161C423.538 206.831 422.611 207.754 421.729 208.891L418.817 208.807C419.271 208.28 419.738 207.819 420.218 207.429C421.372 206.493 422.553 206.031 423.727 206.044V206.155L424.492 206.161ZM418.331 209.398L421.282 209.489C420.367 210.757 419.505 212.245 418.713 213.929L415.73 213.838C416.521 212.102 417.39 210.607 418.331 209.398ZM415.464 214.436L418.435 214.527C417.643 216.275 416.93 218.212 416.314 220.292L413.48 220.208C414.05 218.095 414.718 216.158 415.464 214.436ZM413.324 220.806L416.145 220.89C415.575 222.899 415.095 225.037 414.725 227.26L412.027 227.299C412.358 225.011 412.799 222.834 413.324 220.806ZM411.93 227.917L414.615 227.878C414.342 229.626 414.135 231.433 414.005 233.266L411.378 233.279C411.502 231.44 411.69 229.646 411.93 227.917ZM428.338 246.812L415.146 247.001C414.848 245.07 414.641 243.036 414.543 240.93L427.884 240.618C427.942 242.756 428.098 244.836 428.338 246.812ZM427.864 240.007L414.517 240.319C414.44 238.278 414.453 236.172 414.582 234.04C414.589 233.981 414.589 233.929 414.595 233.871L427.987 233.819C427.864 235.918 427.825 237.992 427.864 240.007ZM413.953 234.001C413.823 236.159 413.804 238.278 413.882 240.332L411.203 240.397C411.164 238.297 411.203 236.133 411.333 233.962C411.333 233.936 411.34 233.91 411.34 233.884L413.966 233.871C413.966 233.916 413.96 233.962 413.953 234.001ZM411.216 241.008L413.914 240.943C414.012 243.049 414.206 245.083 414.498 247.007L411.657 247.046C411.417 245.161 411.268 243.14 411.216 241.008ZM414.589 247.618C414.926 249.692 415.367 251.642 415.899 253.429L412.877 253.475C412.397 251.739 412.008 249.789 411.729 247.664L414.589 247.618ZM416.087 254.034C416.612 255.691 417.228 257.199 417.909 258.519L414.887 258.564C414.193 257.336 413.577 255.828 413.058 254.079L416.087 254.034ZM416.58 253.416C416.035 251.635 415.587 249.685 415.244 247.605L428.415 247.417C428.688 249.477 429.064 251.427 429.524 253.228L416.58 253.416ZM428.026 233.214L414.641 233.266C414.77 231.427 414.978 229.62 415.25 227.871L428.571 227.676L428.565 227.065L415.354 227.26C415.724 225.044 416.204 222.912 416.768 220.916L429.764 221.313C428.889 224.985 428.299 229.022 428.026 233.214ZM429.901 220.708L416.936 220.312C417.553 218.219 418.272 216.282 419.057 214.546L431.671 214.936C430.997 216.711 430.406 218.654 429.901 220.708ZM432.482 212.928C432.281 213.383 432.093 213.851 431.898 214.332L419.329 213.942C420.14 212.239 421.022 210.744 421.956 209.502L434.045 209.866C433.5 210.789 432.975 211.803 432.482 212.928ZM434.414 209.275L422.423 208.917C423.435 207.689 424.492 206.759 425.575 206.187L436.775 206.343C435.951 207.11 435.167 208.098 434.414 209.275ZM400.302 146.036C409.219 156.988 414.128 170.431 414.128 183.886C414.128 202.788 406.664 220.747 393.654 233.162C383.323 243.023 370.424 248.587 356.902 249.126C370.307 248.06 382.986 241.983 392.921 231.758C404.997 219.324 411.502 202.586 411.229 184.62C410.84 158.88 394.672 135.441 371.396 126.087C382.37 129.5 392.526 136.487 400.302 146.036ZM377.078 171.679C375.158 171.672 368.66 170.08 362.875 168.37C363.069 165.666 363.355 157.307 360.605 147.576C358.251 139.256 353.218 128.739 342.53 120.816L350.099 123.513L350.092 123.539C350.248 123.585 350.403 123.637 350.553 123.676L356.409 125.762L356.435 125.697C356.448 125.704 356.454 125.704 356.467 125.71L356.409 125.912C357.031 126.087 357.647 126.276 358.257 126.471C359.048 126.815 359.833 127.179 360.611 127.556C365.099 131.859 379.912 148.077 377.078 171.679ZM355.76 147.479C352.012 136.208 345.961 129.448 339.981 123.819C336.071 120.133 331.732 117.481 328.742 115.889L330.753 116.604C344.923 122.532 354.262 133.12 358.517 148.077C361.707 159.309 360.67 168.923 360.657 169.02L360.553 169.917L361.415 170.177C368.88 172.426 373.971 173.616 376.63 173.752L374.185 175.624L357.836 171.373C358.192 169.54 359.775 159.549 355.76 147.479ZM364.989 129.019C385.496 138.249 398.745 158.139 398.745 180.928C398.745 213.838 372.693 242.704 342.997 242.704C339.968 242.704 335.85 242.412 332.134 241.788L332.173 241.625C333.094 241.645 334.008 241.658 334.91 241.658C335.636 241.658 336.343 241.651 337.037 241.651C337.686 241.645 338.321 241.645 338.924 241.645C369.898 241.645 396.06 213.467 396.06 180.116C396.06 166.778 391.248 154.083 382.143 143.403C377.356 137.787 371.584 133.003 365.229 129.298C365.151 129.201 365.067 129.11 364.989 129.019ZM329.106 243.387C333.529 244.401 339.132 244.862 343.004 244.862C373.848 244.862 400.905 214.988 400.905 180.928C400.905 157.391 387.305 136.838 366.215 127.199C366.656 126.809 367.226 126.263 367.992 125.515C392.72 133.848 410.179 157.989 410.581 184.62C410.847 202.411 404.413 218.986 392.454 231.297C381.747 242.321 367.829 248.483 353.263 248.652C350.099 248.691 345.578 248.372 341.7 247.729C340.753 247.553 339.787 247.358 338.821 247.157C338.431 247.066 338.055 246.968 337.699 246.864L337.686 246.91C334.683 246.24 331.674 245.434 329.028 244.518C329.054 244.147 329.08 243.77 329.106 243.387ZM430.809 54.2687C430.809 63.3492 421.93 71.9292 412.468 72.0852L369.749 53.1832C379.801 52.3772 387.739 43.9271 387.739 33.6441C387.739 29.5686 386.617 25.8571 384.652 22.7826L424.758 40.7421C428.539 43.8166 430.809 48.6721 430.809 54.2687ZM371.228 49.0817C363.776 49.0817 357.719 43.0041 357.719 35.5421C357.719 28.0736 363.783 22.0026 371.228 22.0026C378.679 22.0026 384.737 28.0801 384.737 35.5421C384.743 43.0106 378.679 49.0817 371.228 49.0817ZM350.864 33.6441C350.864 24.0761 358.633 16.289 368.18 16.289C378.212 16.289 385.496 23.5886 385.496 33.6441C385.496 34.9051 385.359 36.1271 385.106 37.3101C385.178 36.7316 385.23 36.1401 385.23 35.5421C385.23 27.8071 378.952 21.5151 371.234 21.5151C363.517 21.5151 357.239 27.8071 357.239 35.5421C357.239 43.2771 363.517 49.5692 371.234 49.5692C374.055 49.5692 376.682 48.7241 378.88 47.2746C375.936 49.6017 372.22 50.9992 368.186 50.9992C358.633 50.9992 350.864 43.2121 350.864 33.6441ZM390.664 77.3437C393.304 74.0222 393.79 68.5427 393.881 66.5472L407.928 72.7612C404.939 73.3137 400.827 74.2367 397.279 75.5887C390.275 78.2667 351.817 119.08 350.183 120.816L350.066 120.939C349.625 120.777 349.171 120.614 348.717 120.452C355.527 113.581 387.921 80.8018 390.664 77.3437ZM206.87 67.2947C222.013 73.1902 248.759 90.4348 248.636 138.567C248.584 160.798 240.159 181.858 225.528 196.353C213.641 208.124 198.517 214.585 182.881 214.585C182.706 214.585 182.531 214.585 182.355 214.585C179.658 214.559 176.888 213.76 174.216 212.993C171.914 212.33 169.729 211.706 167.945 211.725L165.39 211.251C165.306 211.205 165.215 211.16 165.13 211.114L165.085 211.192L133.242 205.31C137.153 204.855 141.011 204.055 144.792 202.905C159.936 198.296 172.887 188.455 182.278 175.429C193.141 161.396 199.328 143.358 199.328 124.475C199.328 109.259 195.43 94.7053 188.166 82.2188C182.044 70.7982 173.503 61.1782 163.34 54.2687L206.87 67.2947ZM179.489 72.6507C180.326 73.7557 181.136 74.8802 181.914 76.0372C177.894 74.9777 173.762 74.4317 169.586 74.4317C140.694 74.4317 117.184 100.178 117.184 131.827C117.184 162.28 138.949 187.259 166.337 189.105C164.988 190.171 163.613 191.192 162.193 192.154C148.249 191.556 135.557 185.238 126.257 174.207C116.737 162.917 111.49 147.726 111.49 131.45C111.49 115.453 117.366 100.321 128.041 88.8358C138.755 77.3047 152.938 70.9542 167.971 70.9542C168.302 70.9542 168.645 70.9542 169.002 70.9477C172.135 70.9217 176.434 70.8827 179.255 72.9627L179.489 72.6507ZM168.853 187.019C141.498 186.583 119.363 162 119.363 131.827C119.363 101.381 141.893 76.6157 169.586 76.6157C174.398 76.6157 179.152 77.3632 183.724 78.8387C191.681 91.6958 196.357 107.302 196.357 124.118C196.364 149.253 185.78 172.283 168.853 187.019ZM198.517 124.111C198.517 117.819 197.875 111.69 196.669 105.801C198.005 111.839 198.698 118.099 198.698 124.475C198.698 134.388 196.98 144.06 193.77 153.043C196.837 143.982 198.517 134.212 198.517 124.111ZM179.048 72.0657C176.084 70.2587 172.024 70.2912 169.002 70.3172C168.645 70.3172 168.302 70.3237 167.977 70.3237C152.763 70.3237 138.417 76.7457 127.587 88.4068C116.808 100.009 110.868 115.297 110.868 131.456C110.868 147.882 116.166 163.216 125.784 174.623C135.013 185.563 147.536 191.926 161.317 192.752C159.579 193.896 157.796 194.955 155.967 195.937C147.484 199.902 138.346 201.969 128.962 201.969C90.5102 201.969 59.2249 167.207 59.2249 124.482C59.2249 81.7573 90.5037 46.9886 128.955 46.9886C141.835 46.9886 154.19 50.8497 164.936 58.0647C170.176 62.0167 174.923 66.7292 179.048 72.0657ZM54.8992 124.111C54.8992 80.2817 86.632 44.6226 125.628 44.6226C136.349 44.6226 146.518 47.3201 155.636 52.1432C147.283 48.3471 138.262 46.3516 128.962 46.3516C90.16 46.3516 58.5959 81.3933 58.5959 124.469C58.5959 167.545 90.16 202.586 128.962 202.586C134.474 202.586 139.909 201.878 145.169 200.506C144.831 200.617 144.501 200.734 144.163 200.838C138.151 202.664 131.919 203.594 125.628 203.594C86.632 203.6 54.8992 167.941 54.8992 124.111ZM185.203 217.088C180.04 217.224 174.456 215.417 170.085 213.519L170.254 212.609C171.434 212.843 172.718 213.214 174.041 213.591C176.629 214.338 179.567 215.183 182.349 215.209C182.531 215.209 182.706 215.209 182.887 215.209C198.686 215.209 213.971 208.683 225.976 196.795C240.723 182.183 249.219 160.96 249.271 138.567C249.323 116.714 243.81 98.8198 232.87 85.3778C225.204 75.9592 216.287 70.5577 209.043 67.4767L209.237 66.8332C220.068 69.4007 230.217 77.0057 238.35 88.8163C247.877 102.655 253.454 120.796 253.642 138.587C254.096 180.805 223.395 216.015 185.203 217.088ZM255.795 138.567C255.601 120.354 249.887 101.771 240.12 87.5943C237.163 83.2978 233.94 79.5407 230.509 76.3492C242.449 82.4333 251.398 90.0448 257.715 99.4828C265.244 110.734 268.909 124.345 268.909 141.109C268.909 164.184 260.919 184.516 246.405 198.361C235.023 209.216 220.178 215.339 204.081 215.931C234.225 205.94 256.184 174.76 255.795 138.567ZM247.89 199.921C262.832 185.667 271.062 164.782 271.062 141.102C271.062 123.897 267.281 109.889 259.505 98.2738C257.086 94.6598 254.297 91.3123 251.126 88.2053L324.903 114.517L324.832 114.699C324.91 114.732 332.861 117.982 339.547 124.274C345.462 129.844 351.448 136.539 355.157 147.674C359.528 160.804 357.187 171.425 357.161 171.529L357.09 171.828L374.321 176.313L377.681 173.733C378.05 173.694 378.336 173.622 378.517 173.499C378.855 173.278 379.069 172.946 379.12 172.556C381.676 153.192 372.791 138.509 366.487 130.793C372.155 134.316 377.318 138.71 381.656 143.8C390.658 154.362 395.418 166.914 395.418 180.103C395.418 213.116 369.542 241.001 338.911 241.001C338.302 241.001 337.673 241.008 337.018 241.008C334.573 241.021 331.842 241.027 329.268 240.845C329.864 232.499 330.578 222.431 330.578 222.431L330.623 221.761L329.975 221.592C328.496 221.202 293.754 212.024 292.1 211.745L291.231 211.602L291.153 212.57L290.933 211.472L278.39 213.974L278.228 217.068H277.424L277.404 217.471L277.288 217.127C277.1 217.192 276.808 217.315 276.406 217.491C274.324 218.407 268.785 220.838 257.52 222.047C252.598 222.574 247.027 222.093 242.001 221.287L242.033 221.15L219.484 215.781C230.152 212.967 239.854 207.585 247.89 199.921ZM252.566 243.419C263.532 243.107 274.849 242.548 277.009 242.438V246.084L282.515 248.099C274.078 248.567 270.316 248.918 268.597 249.204L268.636 249.1L252.566 243.419ZM227.733 236.893C227.74 236.659 227.746 236.354 227.643 236.068C227.519 234.761 227.591 226.298 227.675 220.266C232.15 221.599 246.379 225.44 257.78 224.212C269.376 222.964 275.128 220.435 277.294 219.486C277.307 219.48 277.314 219.48 277.327 219.473L276.25 240.319C262.086 241.027 235.782 242.048 231.469 241.099C227.643 240.247 227.707 237.985 227.733 236.893ZM222.824 254.885C224.523 252.994 224.277 248.268 224.173 246.929H237.293C237.26 247.93 237.241 248.905 237.221 249.861C237.001 251.687 236.547 253.553 235.658 254.489C235.289 254.879 234.874 255.067 234.4 255.067H222.655C222.707 255.009 222.766 254.95 222.824 254.885ZM221.806 255.698H234.063C233.998 258.324 233.2 259.656 232.299 260.475H219.918C220.775 259.715 221.968 258.2 221.806 255.698ZM217.733 261.658C218.012 261.281 218.407 261.099 218.946 261.099H231.462C231.313 261.197 231.171 261.288 231.028 261.372C230.684 261.587 230.353 261.782 230.1 262.016C229.102 262.932 229.043 264.85 229.063 265.623L217.577 265.948C217.318 264.954 216.955 262.718 217.733 261.658ZM230.029 266.618C232.221 266.618 234.076 270.323 234.076 274.704C234.076 279.085 232.221 282.79 230.029 282.79C227.837 282.79 225.982 279.085 225.982 274.704C225.982 270.323 227.837 266.618 230.029 266.618ZM210.489 274.704C210.489 270.245 212.434 266.618 214.821 266.618C214.97 266.618 215.457 266.611 215.962 266.605C216.384 266.598 216.819 266.592 217.097 266.592L217.11 266.624L228.849 266.26C226.812 267.209 225.347 270.57 225.347 274.697C225.347 278.409 226.534 281.509 228.252 282.783H218.012H214.821C212.434 282.79 210.489 279.163 210.489 274.704ZM224.115 299.592C223.959 298.221 223.129 292 220.522 289.992C218.959 288.789 218.213 286.605 218.031 284.961C217.934 284.083 218.025 283.576 218.096 283.42H230.029H233.012C232.889 284.772 232.584 289.543 234.16 291.24C234.4 291.5 234.614 291.708 234.802 291.896C236.022 293.105 236.411 293.489 237.747 300.918L224.115 299.592ZM241.093 285.806C241.041 285.689 240.983 285.546 240.931 285.39C240.989 285.533 241.041 285.676 241.093 285.806ZM240.244 283.368C239.848 284.837 240.594 286.241 240.736 286.495L243.006 294.015L238.499 301.568L238.441 301.224C237.001 293.196 236.592 292.793 235.243 291.454C235.055 291.266 234.848 291.064 234.621 290.817C233.012 289.082 233.661 283.206 233.674 283.147L233.713 282.796H231.8C233.518 281.516 234.705 278.422 234.705 274.71C234.705 269.822 232.649 265.994 230.029 265.994C229.919 265.994 229.815 266.013 229.711 266.02L229.705 265.909C229.705 265.883 229.517 263.42 230.529 262.484C230.736 262.289 231.028 262.113 231.359 261.912C232.662 261.112 234.614 259.91 234.699 255.665C235.224 255.594 235.697 255.353 236.106 254.924C236.553 254.456 236.897 253.787 237.169 253.026C237.059 268.171 238.447 277.557 240.244 283.368ZM251.353 245.278L267.047 250.829C268.617 256.023 264.778 260.456 263.805 261.463L251.411 261.314C251.243 254.853 251.295 248.626 251.353 245.278ZM268.721 250.79C270.828 250.465 277.45 249.997 283.669 249.659C283.695 249.822 283.721 249.984 283.747 250.14L283.617 252.961H287.619L287.45 261.704L265.932 261.483C267.534 259.481 269.94 255.496 268.721 250.79ZM284.499 301.022C284.564 297.564 284.642 292.436 284.668 287.671C285.018 288.828 285.518 289.875 286.257 290.655V298.058L284.499 301.022ZM258.415 278.643L282.995 279C283.176 285.39 282.936 298.578 282.839 303.33C279.862 303.375 267.125 302.745 258.714 302.29C258.331 299.683 258.325 287.034 258.415 278.643ZM274.616 320.406C269.428 320.614 264.213 320.211 260.322 319.307C256.541 318.43 254.855 317.286 254.466 316.395L254.168 306.677C257.293 308.783 263.202 310.142 269.972 310.142C270.919 310.142 271.892 310.116 272.871 310.057C278.299 309.752 283.442 308.783 287.359 307.34C289.409 306.58 290.978 305.741 292.055 304.838L292.47 314.523C292.223 315.712 290.518 317.013 287.768 318.066C284.344 319.372 279.674 320.204 274.616 320.406ZM232.507 322.193C235.743 320.009 241.884 317.09 252.812 315.368L252.832 316.083H252.754C252.76 316.284 252.799 316.479 252.851 316.668L252.864 317.019L252.974 317.012C253.37 317.935 254.297 318.761 255.737 319.47L255.75 320.191C251.21 320.217 242.487 324.663 236.683 327.621C234.841 328.557 233.389 329.298 232.487 329.681C231.637 330.045 230.84 330.058 230.12 329.72C229.199 329.291 228.55 328.362 228.135 327.582L228.09 326.535C228.356 326.041 229.452 324.254 232.507 322.193ZM232.695 355.61C234.186 355.649 235.639 355.597 237.046 355.493C236.975 355.61 236.943 355.707 236.93 355.766L125.181 614.239C125.116 614.18 125.038 614.115 124.96 614.05C122.898 609.143 122.535 607.596 122.587 607.225C123.3 605.464 225.768 370.534 232.299 355.564C232.429 355.59 232.565 355.61 232.695 355.61ZM110.874 626.316L119.123 608.753L122.463 617.183L113.228 634.181L110.874 626.316ZM127.451 638.874C122.36 639.251 115.057 635.813 113.488 635.039V635.033L122.924 617.664L135.908 621.135C132.405 629.189 128.495 637.626 127.451 638.874ZM136.433 619.894C136.342 620.108 136.245 620.329 136.154 620.55L123.229 617.099L123.423 616.741L122.872 616.442L122.859 616.468L119.493 607.979L120.485 605.867H121.419C121.225 606.322 121.108 606.582 121.095 606.627C120.725 607.55 121.393 609.747 123.624 615.032L123.754 615.344L124.078 615.207L123.949 615.649L135.363 618.964L135.648 618.308C135.81 617.937 135.972 617.567 136.128 617.19L136.433 619.894ZM191.753 484.635C164.722 546.918 137.503 609.936 134.448 617.014L125.758 614.492L237.52 355.993L237.539 355.928C237.539 355.922 237.61 355.688 238.006 355.415C242.358 354.999 246.249 354.03 249.407 353.211C247.578 356.949 243.162 366.809 231.631 393.095C221.935 415.202 208.517 445.999 191.753 484.635ZM251.671 350.956C251.476 350.819 251.204 350.819 250.86 350.878C250.867 350.878 250.879 350.871 250.886 350.871C250.873 350.871 250.86 350.878 250.847 350.884C250.659 350.917 250.451 350.969 250.231 351.021C249.751 351.138 249.07 351.3 248.259 351.502C246.813 351.853 244.958 352.314 243.117 352.769L243.175 353.01C240.017 353.634 236.476 354.089 232.734 353.998C231.903 353.978 230.237 352.607 229.193 351.528L228.194 328.862C228.622 329.434 229.167 329.974 229.854 330.299C230.289 330.5 230.743 330.604 231.209 330.604C231.702 330.604 232.208 330.494 232.734 330.266C233.654 329.876 235.114 329.129 236.968 328.186C242.384 325.424 251.372 320.822 255.763 320.828L256.295 350.169C255.063 350.169 253.519 350.494 251.671 350.956ZM278.04 350.884C273.675 351.352 263.455 352.444 257.877 350.397C257.592 350.293 257.274 350.234 256.93 350.202L256.379 319.756C257.378 320.178 258.571 320.555 259.959 320.88C263.292 321.66 267.547 322.076 271.931 322.076C272.845 322.076 273.766 322.057 274.687 322.024C276.049 321.972 277.385 321.868 278.676 321.725L279.655 350.722C279.318 350.741 278.818 350.806 278.04 350.884ZM294.312 356.695L294.351 356.552C294.649 356.585 294.941 356.617 295.233 356.643L423.934 632.127L416.91 634.168L286.627 354.908L286.691 354.739C288.631 355.382 290.816 355.993 293.041 356.364L294.312 356.695ZM284.467 354.089L315.207 419.973L353.523 533.028L340.189 531.494C337.238 521.581 303.365 417.535 282.424 353.309L284.467 354.089ZM337.374 535.205L356.078 537.545L360.475 550.22L342.044 548.329L337.374 535.205ZM363.964 540.34L360.903 549.531L356.571 537.038L360.326 528.374L363.964 540.34ZM359.775 526.567L360.041 527.444L355.974 536.824L355.845 536.869L355.851 536.882L337.141 534.542L337.089 534.406L338.73 532.131C338.756 532.209 338.775 532.28 338.788 532.326L338.775 532.963L355.203 534.854L355.248 534.477L355.488 534.575L358.594 527.126L358.114 525.657L359.775 526.567ZM356.869 527.067L354.34 533.132L354.21 533.119L317.633 425.192L337.485 467.741L337.42 467.761L356.869 527.067ZM413.596 636.638L416.022 636.079L416.035 636.112L422.215 634.311L433.221 657.432C431.094 658.114 426.159 658.309 423.804 658.335L413.596 636.638ZM439.038 626.114L449.013 648.52C443.338 651.796 435.381 656.353 433.805 657.185L422.832 634.129L424.991 633.499L424.913 633.238L437.968 626.654L437.988 626.647L438.662 626.309V626.303L439.038 626.114ZM436.542 625.568L424.42 631.679L295.953 356.695C296.29 356.715 296.627 356.721 296.958 356.721C297.496 356.721 298.034 356.695 298.56 356.65C302.438 356.286 308.56 353.848 312.451 352.145L311.679 352.496L436.542 625.568ZM314.903 349.253C312.678 350.299 303.359 354.57 298.404 355.038C296.796 355.187 295.084 355.064 293.378 354.784L287.016 353.146C285.446 352.62 284.052 352.08 282.943 351.658C281.536 351.118 280.77 350.832 280.277 350.741L279.357 323.487C281.38 324.338 290.356 328.277 296.575 333.926C296.971 334.283 297.561 334.439 298.294 334.439C302.535 334.439 311.427 329.2 313.379 328.017C313.735 328.758 313.956 329.519 313.982 330.299C314.17 335.765 314.766 346.698 314.903 349.253ZM313.087 327.465C309.092 329.889 299.046 335.317 297.01 333.464C290.388 327.458 280.712 323.363 279.344 322.798L279.305 321.654C282.735 321.238 285.855 320.536 288.345 319.58C291.069 318.54 292.859 317.292 293.65 315.914C298.216 317.572 309.779 321.862 313.087 327.465ZM300.162 309.342C300.414 309.96 300.635 313.463 300.732 316.973C298.488 315.998 296.225 315.127 294.111 314.354C294.111 314.276 294.117 314.198 294.117 314.113H294.072L293.832 308.543C295.849 308.393 299.844 308.569 300.162 309.342ZM292.126 301.581L291.912 301.588L291.951 302.53C291.361 303.616 289.506 304.818 286.795 305.819C283.079 307.191 277.969 308.146 272.774 308.445C261.353 309.089 253.551 305.748 253.415 303.258C253.357 302.231 254.998 300.723 256.976 300.366C257.164 303.356 257.436 303.57 257.624 303.713L257.819 303.863L258.065 303.876C272.852 304.688 279.162 304.929 281.918 304.929C283.909 304.929 284.045 304.805 284.182 304.675L284.435 304.428V304.298L287.794 298.617C290.317 299.423 291.906 300.502 292.126 301.581ZM287.872 289.166V283.498H286.257V284.525C286.134 283.466 286.062 282.322 286.011 281.171L285.991 280.716C285.959 280.06 286.238 271.909 286.588 263.316L289.039 263.342L289.273 251.343H286.212C286.023 250.517 285.693 248.892 285.641 247.631L285.608 246.903L279.188 244.557V241.398L280.504 215.801L291.095 213.688L288.682 244.342L300.064 246.565C300.285 248.19 299.798 253.826 299.37 258.85C298.028 274.535 297.237 286.813 300.136 289.933C297.12 289.888 292.515 289.829 289.545 289.829C288.851 289.836 288.306 289.589 287.872 289.166ZM310.266 287.944C309.273 289.16 307.73 290.785 305.81 290.921C304.961 290.98 304.072 290.746 303.151 290.226L303.158 289.979C303.145 289.979 303.002 289.979 302.743 289.972C302.295 289.68 301.841 289.329 301.381 288.906C298.631 286.378 300.038 269.894 300.972 258.987C301.66 250.953 301.99 246.702 301.433 245.519L301.258 245.148L290.395 243.023L292.716 213.552C297.237 214.65 317.432 219.961 328.93 222.996C328.723 225.921 327.886 237.771 327.342 245.298C327.121 248.359 327.004 249.965 326.939 250.803C325.098 250.498 320.707 249.757 317.75 249.139C317.289 249.042 316.816 249.146 316.453 249.419C316.096 249.685 315.875 250.075 315.837 250.517C315.389 255.62 313.936 267.963 312.542 277.109C312.561 276.758 312.568 276.4 312.568 276.036C312.568 269.965 310.155 265.207 307.075 265.207C303.994 265.207 301.582 269.965 301.582 276.036C301.582 282.107 303.994 286.865 307.075 286.865C309.124 286.865 310.875 284.746 311.816 281.548C311.232 284.98 310.681 287.424 310.266 287.944ZM311.952 276.036C311.952 281.659 309.773 286.235 307.088 286.235C304.403 286.235 302.224 281.659 302.224 276.036C302.224 270.414 304.403 265.838 307.088 265.838C309.773 265.838 311.952 270.414 311.952 276.036ZM315.629 266.611C316.628 258.675 317.374 251.505 317.451 250.725C319.903 251.239 323.301 251.83 325.461 252.194C325.578 258.675 326.926 263.829 329.132 266.845L315.629 266.611ZM326.096 252.305C326.395 252.357 326.661 252.396 326.875 252.435V252.526L327.659 252.558C327.88 252.565 328.048 252.513 328.165 252.422C329.138 262.458 332.303 268.366 337.05 268.672C336.862 268.841 336.226 269.179 334.242 269.179C329.514 269.179 326.297 262.445 326.096 252.305ZM337.439 268.061C332.491 268.061 329.3 261.476 328.613 250.199L328.866 246.741C333.846 248.405 339.936 249.698 344.956 250.472C343.302 261.509 340.513 268.061 337.439 268.061ZM400.438 255.314L371.87 248.658C377.94 246.728 383.719 243.77 389.024 239.864L401.08 242.834L400.438 255.314ZM391.261 238.122C392.584 237.049 393.881 235.918 395.139 234.722C408.577 221.904 416.281 203.373 416.281 183.886C416.281 183.853 416.281 183.827 416.281 183.795L420.834 185.264C424.57 187.922 427.034 194.897 427.255 203.984L424.673 203.945L424.68 203.893C422.656 203.587 420.685 204.192 418.83 205.693C413.7 209.847 409.893 220.89 409.128 233.825C408.992 236.159 408.946 238.492 408.998 240.748C409.011 241.339 409.031 241.924 409.057 242.496L391.261 238.122ZM415.244 259.169L418.22 259.123C418.888 260.326 419.621 261.359 420.406 262.185L419.323 262.165C417.812 262.074 416.424 261.008 415.244 259.169ZM438.254 262.477C435.874 262.334 433.617 259.338 432.06 254.255C430.374 248.749 429.7 241.502 430.154 233.845C430.607 226.188 432.138 219.07 434.46 213.805C436.457 209.275 438.85 206.616 441.088 206.389L441.626 206.395V206.376C443.987 206.558 446.224 209.541 447.768 214.592C449.454 220.097 450.128 227.345 449.674 235.002C449.22 242.659 447.69 249.776 445.368 255.041C443.221 259.91 440.601 262.633 438.254 262.477ZM449.058 251.323L449.246 251.622C455.271 247.8 460.453 237.634 462.444 225.72C463.735 217.998 463.248 210.23 461.082 203.834C460.168 201.143 459 198.881 457.658 197.107L484.209 205.654L484.176 205.771C499.994 209.977 506.155 217.835 506.155 233.793C506.155 248.769 497.16 260.956 486.102 260.956C484.39 260.956 482.685 260.664 481.044 260.079L481.005 260.196L448.766 252.259C448.851 251.96 448.955 251.648 449.058 251.323ZM500.383 211.303C502.724 212.733 505.079 214.715 507.024 217.465C511.337 223.568 512.608 231.96 510.792 242.412C509.547 249.581 505.234 256.179 499.534 259.63C497.225 261.028 494.767 261.853 492.231 262.113C501.563 258.584 508.412 247.235 508.412 233.812C508.418 223.633 505.961 216.418 500.383 211.303ZM465.44 272.806C465.401 270.921 465.823 264.687 466.303 258.883L481.504 262.627C481.712 262.685 481.919 262.731 482.127 262.783L482.14 262.789C483.178 263.03 484.222 263.179 485.279 263.225C487.043 263.706 488.8 263.959 490.532 263.959C493.982 263.959 497.335 263.01 500.442 261.132C506.564 257.427 511.188 250.368 512.517 242.717C514.411 231.791 513.043 222.957 508.451 216.464C503.658 209.684 496.589 207.24 492.711 206.376C490.441 205.342 487.905 204.452 485.078 203.685L485.091 203.639L473.398 199.876C475.155 199.986 477.808 199.817 481.725 199.544C485.888 199.252 491.07 198.894 496.687 198.894C502.264 198.894 507.511 199.252 511.726 199.538C512.848 199.616 513.86 199.681 514.794 199.739L514.197 234.352C514.171 234.625 514.119 234.937 514.067 235.268C513.892 236.347 513.665 237.725 514.119 238.934L513.497 275.204L465.44 272.806ZM515.715 240.728C516.707 241.3 518.095 241.58 519.943 241.58C521.071 241.58 522.375 241.469 523.847 241.261L515.196 270.908L515.715 240.728ZM529.606 238.369C529.249 238.161 528.99 237.823 528.886 237.42C528.782 237.017 528.841 236.601 529.048 236.237C529.256 235.873 529.593 235.619 529.995 235.515C530.294 235.437 530.592 235.457 530.864 235.541C531.059 235.905 531.163 236.276 531.163 236.653C531.163 237.472 530.696 238.05 529.827 238.473C529.755 238.447 529.677 238.414 529.606 238.369ZM530.404 234.865C530.255 234.865 530.099 234.878 529.95 234.911L519.34 231.882L519.171 232.467L529.087 235.301C528.504 235.743 528.179 236.471 528.244 237.218L518.562 237.972L518.607 238.577L528.387 237.816C528.536 238.2 528.789 238.525 529.12 238.765C528.069 239.116 526.636 239.344 524.878 239.539L524.833 239.545C518.951 240.54 516.772 239.812 515.987 239.019C515.89 238.921 515.812 238.817 515.747 238.713L515.838 233.26C515.954 232.616 516.253 231.843 517.025 231.303C517.556 230.926 518.399 230.601 519.716 230.601C520.929 230.601 522.55 230.874 524.703 231.641C527.505 232.629 529.418 233.721 530.404 234.865ZM530.864 221.683L527.9 231.271C527.109 230.894 526.221 230.53 525.222 230.172C521.11 228.716 518.056 228.671 516.13 230.029C516.039 230.094 515.967 230.166 515.89 230.231L516.13 216.308L530.864 221.683ZM531.98 217.933L516.207 211.998L516.357 203.392L534.256 209.717C533.659 211.745 532.479 216.08 531.98 217.933Z" fill="#E9EEF1"/>
<path d="M304.94 276.036C304.94 280.443 306.244 283.895 307.904 283.895C309.564 283.895 310.868 280.443 310.868 276.036C310.868 271.629 309.564 268.178 307.904 268.178C306.244 268.178 304.94 271.629 304.94 276.036ZM310.479 276.036C310.479 280.502 309.149 283.498 307.904 283.498C306.659 283.498 305.33 280.502 305.33 276.036C305.33 271.571 306.659 268.574 307.904 268.574C309.149 268.574 310.479 271.571 310.479 276.036Z" fill="#E9EEF1"/>
</g>
<defs>
<clipPath id="clip0_6992_97314">
<rect width="555" height="500" fill="white"/>
</clipPath>
</defs>
</svg>
