<svg width="555" height="500" viewBox="0 0 555 500" fill="none" xmlns="http://www.w3.org/2000/svg">
<mask id="mask0_6992_96426" style="mask-type:alpha" maskUnits="userSpaceOnUse" x="0" y="0" width="555" height="500">
<g opacity="0.8" clip-path="url(#clip0_6992_96426)">
<path d="M800.065 887.32C795.882 878.027 791.158 867.505 790.839 853.316C792.995 853.178 794.768 852.468 795.521 851.186C797.04 848.632 793.6 835.938 792.973 833.702L802.783 834.03C802.815 834.03 802.847 834.03 802.879 834.03C804.196 834.03 805.024 833.13 805.268 832.229C805.565 831.127 805.077 830.067 804.047 829.527L790.638 822.49C790.308 822.321 789.948 822.225 789.587 822.204C789.024 821.124 788.397 820.064 787.686 819.057C787.442 818.718 787.187 818.379 786.932 818.051C789.894 815.772 796.488 810.05 796.742 804.031C796.859 801.191 795.617 798.701 793.037 796.624C789.916 794.102 785.945 794.696 782.77 795.172C779.83 795.607 778.396 795.713 777.918 794.791C776.283 791.654 772.546 788.306 768.554 787.977C766.463 787.797 763.394 788.37 760.634 792.047C757.799 795.808 754.105 795.077 750.527 794.367C748.191 793.901 745.972 793.466 744.316 794.6C740.557 797.165 741.3 801.658 741.842 804.943C742.086 806.416 742.341 807.941 742.107 808.62C741.778 809.149 739.655 810.103 738.264 810.739C734.898 812.265 731.098 813.992 730.747 817.033C730.545 818.824 731.565 820.541 733.858 822.289C739.825 826.835 744.252 828.626 746.588 829.325C745.77 832.038 745.133 834.963 744.708 838.078C742.819 851.684 737.478 863.171 732.764 873.312C731.172 876.734 729.622 880.083 728.252 883.4L470.355 787.119V772.061C470.355 764.103 459.005 757.109 438.366 752.309L438.738 629.516C452.869 624.525 466.108 617.287 477.957 608.015C477.787 608.365 477.702 608.683 477.681 608.99C477.649 609.584 477.872 610.124 478.296 610.516C484.083 615.846 490.134 618.411 496.271 618.093C502.949 617.764 508.194 614.13 511.305 611.3C511.666 612.869 512.281 615.052 513.258 618.114C514.522 622.056 517.229 629.813 521.178 637.527C528.483 651.758 536.371 659.07 544.621 659.25L545.353 659.271C548.91 672.284 561.502 683.527 580.039 689.652C588.957 692.597 598.566 694.123 608.62 694.198C608.864 694.198 609.098 694.198 609.342 694.198C641.819 694.198 668.723 678.398 672.97 657.841C673.139 657.915 673.32 657.978 673.511 658C678.31 658.646 684.712 654.333 691.517 645.856C706.87 626.75 723.655 586.78 712.921 557.703C712.815 557.406 712.826 557.268 712.815 557.268C713.282 556.664 716.446 556.569 717.805 556.516C720.64 556.421 722.88 556.357 723.666 554.715C723.963 554.1 724.101 553.104 723.135 551.822C722.381 550.826 720.587 548.728 718.092 545.835C712.412 539.233 695.138 519.131 695.541 515.613L694.596 515.454C697.675 515.115 701.986 513.769 704.13 511.258C705.224 509.976 705.649 508.535 705.415 506.966C704.576 501.477 700.828 497.758 694.607 491.591L693.949 490.934C689.797 486.812 687.175 478.578 687.143 478.493L686.347 478.748C686.453 479.097 689.065 487.257 693.354 491.527L694.012 492.184C700.319 498.436 703.791 501.88 704.576 507.094C704.778 508.418 704.406 509.637 703.483 510.728C701.189 513.42 696.125 514.681 693.269 514.712C693.206 514.712 693.152 514.712 693.099 514.712C688.056 514.712 685.54 512.296 682.631 509.499C681.177 508.1 679.68 506.648 677.715 505.345C670.337 500.407 667.258 492.883 670.56 487.861C672.927 484.247 678.522 480.009 681.134 478.26C681.76 478.027 682.217 477.794 682.44 477.603C682.631 477.444 682.811 477.275 682.79 477.042L683.395 477.116C683.48 477.126 692.526 478.271 708.834 482.446L710.033 482.753L695.743 464.781L696.136 464.686C696.008 464.177 695.679 463.096 695.212 461.634C694.979 460.903 694.766 460.235 694.681 459.907C693.216 454.789 691.082 450.433 688.311 446.862C692.622 444.828 702.103 439.72 701.03 434.592C699.618 427.789 687.95 426.358 684.404 426.083C684.139 426.061 683.99 426.03 683.905 425.998C684.117 425.701 684.871 425.108 685.498 424.62C687.759 422.861 691.539 419.905 689.532 416.609C688.141 414.331 684.935 413.515 682.482 413.239C676.813 412.593 669.933 414.172 667.481 416.694C665.93 418.283 665.4 417.828 664.242 416.853C662.883 415.698 661.025 414.119 656.736 415.189C651.014 416.62 646.661 421.674 644.155 429.781C642.881 433.903 642.382 437.866 642.191 440.006C642.021 440.102 641.841 440.187 641.692 440.282C624.354 450.465 615.585 476.469 615.893 496.889C616.147 513.653 586.112 538.618 574.518 546.82C566.874 552.235 556.618 555.297 546.203 557.523L546.649 556.633C546.489 556.558 530.797 548.706 524.724 541.14C524.47 540.822 524.172 540.494 523.865 540.165C527.007 528.975 528.621 517.393 528.621 505.684C528.621 469.189 513.481 435.291 485.983 410.145L504.499 389.545C509.341 392.724 515.01 395.437 521.38 397.546C530.288 400.492 539.907 402.018 549.961 402.092C550.205 402.092 550.439 402.092 550.683 402.092C585.985 402.092 614.725 383.431 614.905 360.278L614.916 359.313C615.33 358.847 615.723 358.381 616.116 357.893C622.857 349.427 626.637 336.637 625.32 326.792C624.609 321.452 622.401 317.298 618.94 314.755C608.291 306.934 588.756 315.74 578.701 326.188C577.746 322.543 575.824 317.934 573.011 313.547C568.074 305.864 562.001 301.509 555.896 301.297C542.264 300.81 531.445 319.46 529.768 333.701C527.103 328.827 523.472 324.186 519.384 320.562C512.419 314.373 505.179 312.01 499 313.875C494.774 315.157 491.185 318.432 488.627 323.359C484.04 332.165 483.127 345.326 486.418 355.35C486.684 356.177 487.002 356.982 487.332 357.777L485.675 357.766L485.665 359.356C485.633 363.626 486.556 367.78 488.34 371.722L487.554 371.001L465.726 394.812C452.763 386.949 431.497 379.193 409.743 376.141C409.817 375.388 409.849 374.625 409.849 373.873V303.236C409.849 296.465 407.025 289.969 402.045 285.18C402.82 284.13 403.5 283.007 404.073 281.831L404.19 283.029C418.99 281.545 423.322 277.391 427.515 273.386C427.876 273.047 428.227 272.697 428.598 272.358C435.085 266.297 438.387 256.24 441.307 247.36C442.772 242.889 444.163 238.671 445.777 235.577C449.992 227.481 456.298 218.188 463.21 217.679C462.488 220.148 461.808 224.302 463.868 227.619C465.683 230.554 469.145 232.144 474.145 232.313C479.539 232.515 484.422 229.028 486.238 223.656C487.777 219.078 487.172 212.657 481.428 207.411C489.933 207.326 498.862 203.109 504.998 195.395C511.74 186.928 515.53 174.138 514.203 164.294C513.492 158.953 511.283 154.799 507.822 152.256C505.465 150.529 502.662 149.617 499.626 149.352C501.813 135.63 502.938 121.473 502.938 107.199C502.938 62.312 497.301 25.7114 486.185 -1.58539C473.328 -33.1526 452.72 -53.4557 424.946 -61.9648V-83.815C424.946 -85.8813 424.67 -87.9159 424.129 -89.8868C425.445 -89.8444 426.921 -89.5689 428.46 -88.9013C431.21 -87.7039 433.206 -85.5528 435.319 -83.2746C438.377 -79.9684 441.848 -76.2278 448.208 -74.9244C450.151 -74.5323 452.635 -74.278 455.449 -74.278C463.39 -74.278 473.848 -76.249 481.375 -82.3738C487.926 -87.7039 491.249 -95.2487 491.249 -104.786C491.249 -119.261 488.531 -131.118 485.941 -139.839C488.053 -138.599 490.495 -138.133 493.181 -138.483C500.868 -139.5 508.353 -147.13 509.882 -155.49C510.636 -159.612 510.434 -167.2 501.219 -172.614C509.606 -176.44 514.861 -183.222 514.861 -190.544V-192.133H505.274C508.619 -197.018 510.455 -202.963 510.455 -209.226C510.455 -223.679 499.976 -245.116 485.505 -245.116C471.034 -245.116 460.555 -223.679 460.555 -209.226C460.555 -202.963 462.392 -197.018 465.737 -192.133H456.68V-190.544C456.68 -183.476 461.415 -177.023 469.251 -173.112C458.761 -167.253 454.875 -157.048 458.273 -143.739C460.131 -136.48 462.796 -130.504 464.94 -125.693C469.123 -116.315 471.427 -111.154 465.673 -105.443C458.145 -97.972 450.703 -103.461 442.453 -110.826C441.88 -111.334 441.328 -111.832 440.787 -112.299C434.193 -118.063 426.454 -123.637 418.088 -116.76C417.493 -116.262 417.036 -116.336 414.637 -119.006C413.023 -120.797 411.07 -122.969 408.469 -123.499V-157.663C413.49 -159.464 418.756 -162.24 422.695 -165.229C428.078 -169.298 430.923 -173.568 430.923 -177.595V-179.184H421.347C424.691 -184.069 426.528 -190.014 426.528 -196.277C426.528 -210.73 416.049 -232.167 401.578 -232.167C387.107 -232.167 376.628 -210.73 376.628 -196.277C376.628 -190.014 378.465 -184.069 381.809 -179.184H372.753V-177.595C372.753 -171.269 379.24 -162.463 391.619 -157.8V-122.853C385.982 -120.956 381.915 -115.785 381.915 -109.702V-105.209C367.827 -113.337 361.223 -109.448 353.653 -104.987C349.852 -102.74 345.913 -100.43 340.435 -99.1482C327.907 -96.2236 318.277 -97.8449 311.822 -103.98C297.808 -117.279 301.609 -147.914 303.881 -160.471C306.206 -173.25 309.072 -183.794 311.387 -192.271C314.763 -204.68 316.621 -211.515 313.723 -214.407C311.727 -216.389 308.414 -215.488 307.331 -215.192C305.516 -214.694 303.615 -213.962 303.339 -212.256C303.042 -210.381 304.868 -209.183 306.991 -207.785C309.423 -206.184 311.387 -204.764 310.792 -203.525C308.276 -198.248 304.38 -195.408 299.793 -195.397C295.323 -195.429 290.97 -198.417 288.964 -202.825C286.267 -208.717 287.987 -215.902 293.699 -222.588C293.752 -222.662 299.655 -229.825 315.294 -228.893C319.201 -228.66 322.651 -226.89 325.008 -223.934C328.767 -219.218 329.871 -211.525 328.215 -201.702C327.27 -196.107 326.336 -190.798 325.444 -185.775C320.624 -158.553 317.141 -138.885 322.577 -125.269C323.872 -122.037 326.059 -119.78 329.075 -118.572C337.59 -115.17 350.489 -121.073 357.411 -124.252L357.518 -124.305C370.715 -130.345 380.843 -125.555 387.012 -120.469L389.039 -122.916C382.17 -128.575 370.884 -133.916 356.19 -127.187L356.084 -127.134C350.054 -124.368 337.505 -118.625 330.253 -121.518C328.045 -122.397 326.495 -124.008 325.529 -126.434C320.422 -139.214 323.841 -158.51 328.576 -185.214C329.468 -190.247 330.412 -195.556 331.357 -201.162C333.629 -214.662 330.55 -222.026 327.546 -225.831C336.793 -229.508 342.686 -236.65 342.686 -244.406V-246.017H333.099C336.443 -250.902 338.28 -256.847 338.28 -263.109C338.28 -277.563 327.801 -299 313.33 -299C298.859 -299 288.38 -277.563 288.38 -263.109C288.38 -256.847 290.216 -250.902 293.561 -246.017H284.505V-244.428C284.505 -237.423 288.359 -231.86 295.684 -228.172C292.69 -226.435 291.321 -224.75 291.215 -224.623C284.696 -217.004 282.806 -208.579 286.033 -201.522C288.592 -195.927 293.975 -192.282 299.74 -192.229C299.772 -192.229 299.814 -192.229 299.846 -192.229C303.254 -192.229 306.397 -193.49 309.03 -195.842C308.786 -194.952 308.541 -194.041 308.287 -193.119C305.961 -184.589 303.074 -173.96 300.727 -161.054C298.349 -147.988 294.463 -116.05 309.603 -101.691C314.604 -96.9442 321.154 -94.5705 329.191 -94.5705C332.865 -94.5705 336.857 -95.0686 341.146 -96.0752C347.102 -97.4634 351.434 -100.017 355.256 -102.274C362.731 -106.672 368.198 -109.893 381.544 -101.744C377.276 -97.7919 375.195 -91.9002 375.195 -83.8468V-66.2034C347.049 -63.7132 324.573 -49.4396 308.372 -23.7429C294.049 -1.03436 284.972 29.95 281.341 68.3627C278.803 65.9043 274.291 61.6445 269.216 57.374C258.62 48.4835 250.721 43.874 245.753 43.6833C243.056 43.5773 242.047 44.7217 241.654 45.6966C240.009 49.7657 249.214 59.5357 256.178 66.1374C246.772 64.1135 235.199 62.1955 232.704 64.3678C231.441 65.4698 230.825 66.9745 230.942 68.7018C231.367 75.3988 243.512 85.9424 252.951 93.1693C250.159 92.3852 247.43 91.9401 245.413 92.3004C243.746 92.5971 242.61 93.3707 242.026 94.5787C240.72 97.3232 242.854 101.202 245.551 106.118C246.315 107.507 247.112 108.948 247.833 110.399C248.439 111.618 249.065 112.773 249.691 113.928C252.908 119.894 255.955 125.521 256.837 139.54C257.951 157.162 266.307 168.691 275.523 179.902C275.692 180.114 288.305 195.193 299.676 201.827C297.075 202.219 294.623 202.833 292.414 203.724C284.409 206.956 282.763 213.716 283.878 218.961C285.343 225.828 290.981 230.851 297.107 230.628C302.108 230.448 305.558 228.869 307.384 225.934C309.444 222.607 308.764 218.463 308.042 215.994C314.965 216.514 321.261 225.796 325.476 233.892C327.079 236.976 328.47 241.204 329.945 245.676C332.865 254.555 336.177 264.622 342.654 270.673C343.015 271.012 343.376 271.351 343.737 271.701C347.92 275.706 352.252 279.849 366.999 281.344C367.158 281.799 367.328 282.244 367.519 282.689C360.745 287.521 356.721 295.109 356.721 303.215V375.918H358.983C327.503 381.142 298.71 396.698 277.529 420.382L230.379 389.45C246.06 381.683 255.51 369.656 255.807 356.421C256.072 356.421 256.338 356.421 256.603 356.431C259.119 357.088 268.218 359.345 273.707 359.345C275.034 359.345 276.149 359.218 276.913 358.889C281.15 357.109 286.511 354.386 290.429 349.045C292.35 346.428 297.468 336.711 302.097 326.92C306.269 318.082 308.297 312.996 309.221 309.997C311.939 313.144 316.472 317.118 322.736 318.294C328.82 319.438 335.201 317.701 341.709 313.155C342.187 312.826 342.473 312.318 342.526 311.724C342.696 309.891 340.445 307.316 332.631 299.411C330.975 297.737 328.969 295.702 327.482 294.091C328.055 294.282 328.629 294.473 329.149 294.653C335.084 296.677 338.503 297.726 339.872 295.744C340.944 294.187 339.67 292.29 338.29 290.626C334.5 286.091 325.093 281.524 317.545 277.847C315.135 276.681 312.342 275.314 310.527 274.286C311.281 274.191 312.013 274.106 312.735 274.021C317.226 273.492 319.933 273.174 320.868 271.33C321.165 270.747 321.367 269.804 320.687 268.596C314.689 257.946 270.628 251.981 264.884 251.249L244.5 244.775C247.112 243.312 247.313 242.306 247.398 241.903C247.547 241.204 247.324 240.504 246.804 239.985C246.167 239.36 243.831 238.025 237.822 234.666C232.035 231.423 224.837 227.386 222.767 225.69C219.953 223.37 215.76 216.545 214.21 213.547C216.322 213.451 220.346 213.61 223.786 213.875L227.682 214.172L211.799 196.094C211.194 194.547 207.521 184.152 210.387 165.968C213.403 146.873 211.014 129.823 204.591 123.762C207.999 121.441 215.908 115.38 215.08 109.583C214.029 102.282 204.113 103.173 200.843 103.459L200.683 103.469C200.545 103.48 200.439 103.448 200.344 103.374C199.77 102.897 199.611 101.011 199.452 99.1882C199.208 96.3059 198.932 93.0316 197.042 91.8236C196.139 91.2513 194.972 91.2196 193.57 91.7282C190.406 92.8727 188.23 94.6317 186.637 95.9244C185.257 97.0477 184.248 97.853 183.367 97.7365C182.826 97.6623 182.263 97.2278 181.647 96.3907C179.237 93.1375 175.457 89.6301 172.06 89.5453C170.457 89.5029 169.151 90.1705 168.047 91.5269C166.189 93.8051 165.955 96.7828 165.764 99.1776C165.541 102.07 165.35 103.575 163.535 103.48C162.303 103.416 160.657 102.865 158.916 102.272C154.797 100.894 149.679 99.167 148.034 103.755C146.176 108.916 154.5 119.746 157.504 123.423C153.82 126.517 150.837 130.597 148.586 135.641C148.448 135.948 148.151 136.573 147.821 137.251C147.153 138.661 146.654 139.688 146.462 140.186L146.834 140.335L130.346 156.071L131.291 156.134C133.106 156.251 134.954 156.304 136.79 156.304C142.821 156.304 148.777 155.753 153.385 155.159C152.949 156.05 149.35 163.17 144.934 166.508L144.18 167.081C137.151 172.379 132.905 175.579 131.312 180.899C129.603 186.578 133.563 190.467 137.481 192.078C138.266 192.406 138.999 192.989 139.721 193.678C134.763 197.111 108.698 221.727 107.392 223.031C106.405 224.027 106.022 225.033 106.277 226.008C106.691 227.619 108.475 228.138 110.184 228.636C110.726 228.795 111.543 229.028 112 229.251C111.925 229.346 111.819 229.473 111.681 229.622C110.927 230.406 109.791 231.54 108.454 232.885C94.6835 246.682 90.8507 251.334 91.3285 253.644C91.7638 255.742 94.142 256.336 96.2335 256.866C96.9555 257.046 98.1021 257.332 98.5799 257.607C98.5693 257.628 98.548 257.66 98.5374 257.692C98.3251 258.052 98.0066 258.572 97.6031 259.207C87.7612 275.145 84.9583 283.007 87.9204 286.356C88.9928 287.564 90.0969 288.496 91.0737 289.312C93.6536 291.474 95.2143 292.788 94.5454 297.641C94.418 298.584 94.2375 299.729 94.0358 301.011C91.87 314.924 90.2774 328.71 96.637 331.095C99.408 332.133 102.168 332.409 104.398 332.621C107.912 332.97 108.963 333.225 109.101 334.305C109.622 338.322 115.726 353.252 118.901 355.435C119.612 355.922 120.239 355.944 120.674 355.859C121.173 355.806 123.254 355.774 126.556 355.753C126.556 379.065 155.54 398.023 191.171 398.023C192.88 398.023 194.579 397.97 196.267 397.874L262.028 441.49C250.286 461.401 244.075 484.025 244.075 507.051C244.075 540.981 257.336 573.227 281.426 597.97L267.071 613.769C258.673 615.931 250.01 621.293 244.341 627.185C243.385 623.539 241.463 618.93 238.65 614.543C233.713 606.86 227.64 602.505 221.535 602.283C207.914 601.838 197.084 620.456 195.407 634.687C192.742 629.802 189.111 625.171 185.023 621.547C178.059 615.369 170.818 612.985 164.639 614.861C160.413 616.143 156.825 619.417 154.266 624.345C149.679 633.151 148.766 646.312 152.058 656.336C152.323 657.152 152.631 657.968 152.971 658.763L151.325 658.752L151.314 660.341C151.187 676.575 164.872 691.209 187.019 698.532C195.927 701.477 205.546 703.003 215.6 703.077C215.845 703.077 216.078 703.077 216.322 703.077C251.624 703.077 280.364 684.417 280.544 661.263L280.555 660.299C280.969 659.843 281.362 659.367 281.744 658.879C288.486 650.412 292.276 637.622 290.949 627.778C290.843 626.983 290.694 626.22 290.524 625.479L300.653 614.352C309.03 620.276 317.959 625.214 327.302 629.134L326.93 751.631C305.133 756.294 293.168 763.499 293.168 772.019V787.416L35.7061 883.537C34.3365 880.221 32.7864 876.872 31.1939 873.449C26.4799 863.308 21.129 851.822 19.2498 838.216C18.8145 835.1 18.1774 832.176 17.3705 829.463C19.7063 828.764 24.1336 826.973 30.1003 822.427C32.3936 820.678 33.4128 818.962 33.2111 817.171C32.8713 814.13 29.0598 812.403 25.6943 810.877C24.2928 810.241 22.18 809.287 21.8722 808.81C21.6173 808.079 21.8722 806.553 22.1163 805.07C22.6578 801.785 23.401 797.292 19.6426 794.727C17.9863 793.594 15.7674 794.028 13.4316 794.494C9.85372 795.204 6.14839 795.935 3.32427 792.174C0.563854 788.497 -2.51507 787.935 -4.596 788.105C-8.58799 788.433 -12.3252 791.781 -13.9602 794.918C-14.438 795.84 -15.8712 795.734 -18.8121 795.3C-21.9972 794.823 -25.9574 794.24 -29.0788 796.751C-31.6587 798.828 -32.9009 801.319 -32.7841 804.158C-32.5293 810.167 -25.9361 815.899 -22.9846 818.178C-23.2394 818.506 -23.4942 818.845 -23.7384 819.184C-24.4498 820.191 -25.0762 821.251 -25.6389 822.332C-25.9998 822.353 -26.3608 822.438 -26.69 822.618L-40.0992 829.654C-41.1291 830.194 -41.6068 831.254 -41.3202 832.356C-41.076 833.267 -40.2478 834.157 -38.9313 834.157C-38.8995 834.157 -38.8676 834.157 -38.8358 834.157L-29.0257 833.829C-29.6521 836.065 -33.0814 848.76 -31.5738 851.313C-30.82 852.585 -29.0469 853.295 -26.8917 853.443C-27.2102 867.632 -31.9347 878.154 -36.1178 887.448C-39.3029 894.516 -42.0527 900.63 -42.0527 906.797C-42.0527 927.821 -27.9958 938.936 -1.4109 938.936C6.72171 938.936 14.8756 937.209 21.7872 933.617L21.8297 933.797C69.4044 922.575 150.985 903.671 218.902 887.977C234.955 917.023 304.91 937.983 386.438 937.983C465.991 937.983 535.246 917.764 552.987 889.652C619.205 904.953 696.338 922.84 742.065 933.617L742.107 933.437C749.03 937.029 757.184 938.767 765.305 938.767C791.89 938.767 805.947 927.651 805.947 906.627C806 900.503 803.251 894.399 800.065 887.32ZM308.733 -210.455C308.17 -210.826 307.405 -211.324 306.906 -211.726C307.182 -211.843 307.586 -211.981 308.159 -212.14C309.847 -212.595 311.026 -212.617 311.461 -212.172C312.034 -211.599 312.119 -210.169 311.865 -208.145C310.877 -209.046 309.709 -209.808 308.733 -210.455ZM291.586 -263.109C291.586 -277.531 301.832 -295.821 313.351 -295.821C324.87 -295.821 335.116 -277.531 335.116 -263.109C335.116 -256.688 332.982 -250.658 329.138 -246.017H297.574C293.71 -250.658 291.586 -256.688 291.586 -263.109ZM287.785 -242.838H339.405C338.598 -236.703 333.173 -231.139 325.125 -228.342C322.45 -230.557 319.127 -231.86 315.485 -232.072C308.52 -232.496 303.265 -231.415 299.464 -229.953C292.319 -232.845 288.39 -237.169 287.785 -242.838ZM794.81 850.773C793.525 852.945 787.506 853.263 782.877 850.625C779.575 848.738 779.384 846.682 779.246 845.178C779.203 844.669 779.161 844.235 779.012 843.864C778.736 843.207 778.11 842.899 777.228 842.465C775.976 841.85 774.086 840.918 771.739 838.311C771.017 837.506 770.837 836.743 771.187 835.948C772.323 833.416 778.258 831.54 779.798 831.275C780.106 832.335 781.019 833.32 782.569 833.373L792.294 833.702L792.113 833.755C793.78 839.615 795.861 849.003 794.81 850.773ZM803.675 830.279C804.493 830.713 804.631 831.466 804.472 832.027C804.323 832.589 803.76 833.235 802.815 833.214L782.611 832.536C781.284 832.494 780.605 831.551 780.53 830.629C780.456 829.802 780.849 828.753 782.197 828.467C782.547 828.393 782.919 828.319 783.291 828.245C785.711 827.789 787.166 825.669 787.962 823.974C788.058 823.773 788.196 823.593 788.366 823.444L789.066 823.105C789.204 823.073 789.332 823.042 789.47 823.042C789.746 823.042 790.011 823.105 790.266 823.243L803.675 830.279ZM735.79 819.788C734.559 818.845 733.847 817.955 733.911 817.415C734.049 816.164 737.51 814.596 739.581 813.653C742.33 812.403 744.507 811.417 745.091 809.732C745.611 808.238 745.303 806.394 744.985 804.434C744.411 800.937 744.178 798.553 746.11 797.228C746.662 796.847 748.382 797.186 749.9 797.493C753.584 798.224 759.148 799.326 763.182 793.964C764.7 791.951 766.41 791.008 768.299 791.156C771.102 791.39 773.895 793.964 775.094 796.264C776.676 799.305 780.159 798.786 783.238 798.32C786.072 797.896 789.003 797.461 791.041 799.104C792.814 800.534 793.642 802.103 793.568 803.904C793.387 808.291 787.962 813.303 784.851 815.656C780.286 811.014 774.266 808.249 768.384 808.249C759.339 808.249 751.79 815.062 747.596 826.326C745.675 825.765 741.545 824.165 735.79 819.788ZM723.751 900.058L432.941 801.234L468.518 789.842L727.084 886.377C725.343 890.987 724.09 895.522 723.751 900.058ZM306.652 614.617L325.359 591.474C342.25 602.166 361.817 607.793 382.213 607.793C410.613 607.793 439.099 595.628 459.016 575.134C462.509 582.297 476.523 590.489 482.766 593.858C482.851 593.975 482.957 594.092 483.063 594.187C457.392 621.505 421.241 637.029 382.637 637.029C355.235 637.039 329.096 629.293 306.652 614.617ZM383.051 488.443C383.55 488.443 384.049 488.475 384.548 488.518L384.686 488.645L384.793 488.528C394.974 489.376 403.001 497.578 403.001 507.549C403.001 518.082 394.051 526.655 383.051 526.655C372.052 526.655 363.102 518.082 363.102 507.549C363.102 497.016 372.052 488.443 383.051 488.443ZM354.524 420.35V470.896L351.445 468.872V420.795H351.031C363.293 415.963 376.596 413.388 390.239 413.388C396.588 413.388 402.926 413.949 409.106 415.041C410.953 415.507 412.779 416.037 414.584 416.599H414.372V451.122L383.455 485.254C383.328 485.254 383.189 485.243 383.062 485.243C381.119 485.243 379.24 485.476 377.435 485.911L355.352 471.425V420.329H354.524V420.35ZM348.249 420.795V421.028C335.413 426.464 323.809 434.401 314.243 444.468L309.752 441.522C328.873 422.384 354.587 411.841 382.223 411.841C387.394 411.841 392.416 412.169 397.299 412.816C394.942 412.667 392.585 412.561 390.229 412.561C375.779 412.561 361.701 415.433 348.822 420.795H348.249ZM348.249 421.929V466.784L314.943 444.934C324.34 435.09 335.7 427.301 348.249 421.929ZM436.466 426.729L421.697 443.037V419.163C426.847 421.25 431.773 423.772 436.466 426.729ZM418.512 418.729V446.555L415.2 450.222V416.81C417.026 417.393 418.831 418.04 420.604 418.729H418.512ZM479.974 416.821C480.983 417.828 481.981 418.834 482.957 419.862L460.333 442.836C459.706 442.147 459.058 441.479 458.411 440.801L479.974 416.821ZM515.966 529.474C515.753 529.134 515.551 528.806 515.339 528.467C510.466 520.636 505.869 513.24 501.633 512.434C500.412 512.201 499.307 512.455 498.405 513.155C496.037 515.03 495.846 519.64 495.666 524.101C495.592 525.839 495.496 528.361 495.177 529.315C494.371 529.251 493.288 529.06 492.247 528.88C489.2 528.34 486.333 527.831 484.741 529.187C484.284 529.579 483.732 530.289 483.754 531.466C483.775 532.695 484.667 534.973 486.376 539.233C487.724 542.581 490.092 548.484 490.315 550.857C483.053 546.937 478.933 547.657 476.651 549.183C482.713 536.308 485.803 522.554 485.803 508.227C485.803 484.3 476.991 461.496 460.885 443.461L483.52 420.477C505.794 444.33 517.983 474.816 517.983 507.094C517.983 514.617 517.303 522.119 515.966 529.474ZM474.241 565.311C470.44 565.014 463.56 564.94 460.216 567.77C460.056 567.897 459.918 568.034 459.78 568.183L394.911 526.665C399.497 524.016 403.054 519.873 404.859 514.946L473.158 555.954C472.765 559.419 473.551 563.001 474.241 565.311ZM418.512 545.538V597.26C417.408 597.557 416.304 597.864 415.2 598.129V543.419L418.512 545.538ZM415.9 598.796C415.667 598.881 415.423 598.955 415.189 599.04V598.977C415.433 598.924 415.667 598.86 415.9 598.796ZM423.98 595.607C423.226 595.861 422.462 596.094 421.697 596.327V547.572L458.315 571.012C458.294 571.108 458.273 571.203 458.262 571.309C448.675 581.63 436.88 589.895 423.98 595.607ZM406.027 510.156L473.901 552.881C473.636 553.591 473.434 554.322 473.296 555.064L405.145 514.151C405.57 512.858 405.857 511.523 406.027 510.156ZM456.277 443.185C473.264 460.998 482.628 484.014 482.628 508.227C482.628 522.416 479.507 536.043 473.338 548.759L421.697 516.26V481.662L456.277 443.185ZM418.512 514.257L415.2 512.169V488.899L418.512 485.211V514.257ZM414.361 511.639L406.165 506.479C406.058 504.328 405.634 502.261 404.933 500.312L414.361 489.821V511.639ZM383.051 529.823C386.045 529.823 388.901 529.272 391.524 528.265L414.35 542.878V598.309C406.504 600.11 398.435 601.032 390.218 601.032C378.115 601.032 366.383 599.061 355.352 595.257V554.365L377.902 529.579L377.424 529.145C379.229 529.59 381.109 529.823 383.051 529.823ZM354.524 594.982C353.345 594.568 352.188 594.123 351.031 593.668H351.445V558.667L354.524 555.276V594.982ZM348.249 592.523C341.826 589.768 335.689 586.356 329.913 582.319L348.249 562.175V592.523ZM329.351 582.933C335.296 587.098 341.624 590.605 348.249 593.424V593.668H348.801C361.701 599.061 375.704 601.869 390.218 601.869C398.435 601.869 406.504 600.947 414.35 599.167V599.337C403.967 602.781 393.085 604.625 382.202 604.625C361.637 604.625 341.964 598.712 325.157 587.543L329.351 582.933ZM484.847 601.138C472.202 612.572 457.625 621.452 441.859 627.492C458.772 619.809 474.039 608.8 486.716 594.929C488.425 594.812 490.633 594.399 493.351 593.858C493.882 593.752 494.466 593.636 495.039 593.53C493.341 594.929 491.079 596.677 489.2 598.108C487.608 599.326 486.227 600.396 485.028 601.35L484.847 601.138ZM609.342 691.029C609.108 691.029 608.875 691.029 608.641 691.029C598.927 690.955 589.647 689.482 581.048 686.642C561.321 680.125 548.761 667.674 547.615 653.772L547.774 653.273C556.979 653.369 612.081 653.92 646.554 653.793L670.315 653.962C668.84 674.636 642.063 691.04 609.342 691.029ZM707.836 481.323C694.639 477.995 686.411 476.692 684.139 476.374C685.402 474.414 689.882 467.685 693.524 465.311L694.851 464.993L707.836 481.323ZM656.927 415.995C660.792 415.03 662.406 416.387 663.69 417.478C664.858 418.474 665.973 419.417 668.064 417.266C670.368 414.903 676.93 413.43 682.376 414.055C685.583 414.416 687.865 415.475 688.81 417.033C690.307 419.491 687.844 421.706 684.977 423.953C683.608 425.023 682.854 425.606 683.045 426.252C683.194 426.74 683.81 426.856 684.33 426.888C686.75 427.079 698.864 428.34 700.202 434.74C701.158 439.318 691.815 444.256 687.759 446.174C684.584 442.316 680.635 439.424 675.9 437.527C663.807 432.705 650.228 435.863 643.061 439.508C643.645 433.85 646.204 418.686 656.927 415.995ZM576.344 549.416C576.758 549.12 616.116 521.028 618.908 499.443C621.711 503.024 624.28 504.773 626.711 504.773C626.733 504.773 626.754 504.773 626.775 504.773C630.215 504.73 632.476 501.096 633.973 498.69C634.578 497.716 635.141 496.804 635.523 496.582L635.099 495.861C634.547 496.19 634.016 497.048 633.273 498.245C631.786 500.63 629.758 503.893 626.775 503.936C624.439 503.978 621.87 502.039 619.035 498.214C619.067 497.747 619.088 497.281 619.078 496.825C618.78 477.317 627.009 452.563 643.306 443.005C649.209 439.54 662.968 435.789 674.743 440.483C683.034 443.789 688.715 450.614 691.624 460.765C691.719 461.115 691.942 461.814 692.186 462.577C692.42 463.298 692.675 464.146 692.866 464.75C688.47 467.801 683.353 476.067 683.109 476.469L682.811 476.957C682.811 476.946 682.811 476.936 682.811 476.925L682.727 476.66L682.461 476.618C682.249 476.596 681.654 476.925 680.752 477.508C677.715 478.589 669.742 480.136 662.576 478.61C656.63 477.349 652.5 474.329 650.292 469.645L649.538 469.995C651.863 474.922 656.195 478.101 662.406 479.415C668.16 480.644 674.615 479.934 678.65 478.97C675.656 481.185 671.727 484.565 669.88 487.384C666.323 492.809 669.498 500.82 677.259 506.023C679.149 507.295 680.624 508.715 682.058 510.082C684.839 512.752 687.472 515.285 692.388 515.507C692.314 519.831 700.913 530.724 715.671 547.901C717.656 550.211 719.291 552.118 720.173 553.199C719.44 553.284 718.453 553.316 717.71 553.337C714.652 553.432 711.499 553.538 710.182 555.488C709.747 556.124 709.365 557.215 709.948 558.794C715.692 574.371 712.624 592.163 709.025 604.36C704.757 618.845 697.293 633.606 689.044 643.864C683.958 650.19 679.074 654.111 675.549 654.778C676.123 653.464 676.696 652.013 675.836 650.868C675.539 650.476 674.849 649.861 673.479 650.042C670.984 650.381 660.622 650.54 646.831 650.582L544.366 649.84L544.355 651.43C544.355 652.065 544.377 652.712 544.408 653.348L543.548 655.965C526.721 653.793 514.352 613.038 513.991 608.344C514.277 607.517 513.81 606.85 513.471 606.585C513.354 606.49 512.26 605.695 511.167 606.924C509.149 609.202 503.639 614.532 496.133 614.903C491.132 615.158 486.111 613.112 481.216 608.831C482.703 607.104 487.724 603.247 491.175 600.587C499.647 594.07 500.783 592.958 500.55 591.432C500.454 590.785 500.019 590.255 499.382 590.022C498.352 589.641 496.738 589.906 492.746 590.711C491.971 590.87 490.973 591.061 489.964 591.252C490.272 590.891 490.591 590.531 490.888 590.171L489.635 589.132C494.402 586.303 502.216 583.707 508.215 581.715C517.303 578.695 519.681 577.826 519.639 575.738C519.628 575.028 519.257 574.075 517.547 573.587C516.061 573.153 514.607 572.782 513.322 572.464C511.464 571.998 509.022 571.372 508.088 570.853C511.262 567.091 521.847 565.216 533.059 563.224C547.901 560.617 564.74 557.639 576.344 549.416ZM542.795 558.222C539.323 558.911 535.851 559.525 532.496 560.119C519.437 562.429 509.118 564.262 505.391 569.137C504.542 570.249 504.616 571.213 504.839 571.828C505.518 573.778 508.162 574.445 512.526 575.558C513.226 575.738 513.938 575.918 514.66 576.109C512.717 576.893 509.744 577.879 507.196 578.716C499.201 581.365 489.243 584.671 484.847 588.666C484.221 589.228 483.616 589.832 483.159 590.457C467.287 581.789 461.352 574.636 461.405 572.019C461.415 571.266 461.702 570.684 462.286 570.186C465.174 567.738 473.413 568.299 476.354 568.723L479.135 569.126L478.042 566.54C478.01 566.456 474.538 558.074 477.298 553.062C479.39 549.279 485.452 551.832 488.882 553.687C490.814 554.736 491.971 554.291 492.598 553.729C494.625 551.938 493.16 547.572 489.338 538.057C488.351 535.598 487.14 532.568 486.971 531.561C487.841 531.338 490.326 531.773 491.706 532.017C493.16 532.271 494.54 532.515 495.655 532.515C498.532 532.515 498.681 528.859 498.872 524.228C499 521.198 499.18 516.62 500.412 515.656C500.486 515.592 500.635 515.486 501.059 515.56C503.926 516.111 508.767 523.9 512.653 530.152C514.054 532.409 515.498 534.708 516.879 536.774L516.624 536.955C517.643 538.417 519.013 539.784 520.212 540.992C520.998 541.776 521.731 542.518 522.24 543.143C527.294 549.437 537.985 555.626 542.795 558.222ZM527.772 505.684C527.772 517.15 526.211 528.499 523.174 539.466C522.941 539.222 522.697 538.979 522.453 538.735C521.656 537.93 520.839 537.114 520.127 536.276L520.297 536.16C519.692 535.291 519.076 534.359 518.45 533.394C520.244 524.79 521.157 515.952 521.157 507.104C521.157 472.241 507.291 439.424 482.087 414.458L485.399 410.77C512.738 435.757 527.772 469.433 527.772 505.684ZM550.672 398.913C550.439 398.913 550.205 398.913 549.972 398.913C540.257 398.839 530.967 397.366 522.378 394.526C515.923 392.396 510.232 389.62 505.465 386.377L504.138 385.19L504 385.349C494.838 378.652 489.391 370.111 488.892 360.977L610.085 361.846L611.051 363.033C611.232 362.884 611.402 362.726 611.582 362.577C609.533 382.891 583.012 398.913 550.672 398.913ZM535.904 358.127L533.462 358.105C533.707 357.183 533.929 356.262 534.078 355.308C534.651 356.315 535.257 357.258 535.904 358.127ZM570.579 358.37C570.983 357.957 571.376 357.523 571.747 357.056C571.949 357.501 572.161 357.946 572.395 358.381L570.579 358.37ZM617.029 317.33C619.778 319.343 621.541 322.776 622.146 327.227C623.335 336.139 619.747 348.208 613.599 355.922C612.835 356.887 611.996 357.798 611.126 358.656L576.111 358.402C575.187 356.993 574.465 355.467 573.945 353.856C573.987 353.793 574.019 353.74 574.062 353.665L573.839 353.538C571.853 347.021 573.117 339.233 577.555 332.621C577.979 331.985 578.447 331.349 578.924 330.745H579.413C579.413 330.565 579.402 330.363 579.391 330.173C588.671 318.951 607.994 310.696 617.029 317.33ZM532.73 336.382C533.292 321.971 544.217 304.052 555.769 304.487C566.885 304.889 574.996 321.886 576.089 329.251C575.686 329.781 575.272 330.321 574.9 330.872C570.176 337.919 568.69 346.205 570.484 353.379C569.05 355.562 567.829 356.802 565.738 358.286L565.78 358.339L540.13 358.158C537.667 355.711 535.649 351.97 534.333 347.784C534.121 345.464 533.643 343.143 532.9 340.875C532.9 340.865 532.889 340.854 532.889 340.844C532.73 339.339 532.666 337.845 532.73 336.382ZM489.434 354.365C486.429 345.231 487.278 332.811 491.44 324.832C493.606 320.689 496.536 317.955 499.913 316.927C506.761 314.85 513.715 319.809 517.25 322.946C522.729 327.81 527.485 334.888 529.746 341.511C530.012 343.885 530.511 346.248 531.201 348.494C531.456 351.79 531.105 355.043 530.16 358.084L490.846 357.798C490.304 356.685 489.816 355.541 489.434 354.365ZM489.328 373.757C492.088 378.906 496.335 383.633 501.845 387.712L403.5 497.133C400.262 491.252 394.38 486.928 387.383 485.646L440.893 426.559L489.328 373.757ZM462.488 398.33C449.238 389.334 434.671 382.732 419.298 378.695C437.389 382.414 454.408 388.984 465.142 395.437L462.488 398.33ZM399.295 283.537C397.045 286.494 392.936 290.033 386.099 290.096C378.752 290.16 373.602 287.617 370.959 282.509C368.697 278.154 368.22 271.828 369.6 264.707C371.946 252.637 377.955 240.451 386.12 240.451C392.437 240.451 397.161 244.436 402.661 264.813C404.402 271.33 403.118 278.504 399.295 283.537ZM511.039 164.707C512.228 173.619 508.64 185.688 502.493 193.402C495.422 202.293 484.284 206.065 475.239 203.416C474.527 203.109 473.795 202.844 473.041 202.622C471.756 202.071 470.525 201.382 469.378 200.534C465.312 197.546 462.679 192.989 461.978 187.712C461.097 181.1 463.242 173.968 467.881 168.14C474.793 159.462 487.767 152.436 497.641 152.436C500.826 152.436 503.692 153.167 505.922 154.81C508.672 156.823 510.434 160.246 511.039 164.707ZM483.223 -0.39859C494.19 26.5168 499.743 62.7147 499.743 107.189C499.743 121.452 498.607 135.598 496.398 149.289C490.166 149.617 483.286 152.256 477.277 155.954C480.101 140.653 481.545 124.684 481.545 108.45C481.545 48.1126 471.342 -26.604 423.29 -43.3466C424.352 -46.0063 424.935 -48.878 424.935 -51.8874V-58.6587C451.276 -50.2662 470.886 -30.6837 483.223 -0.39859ZM463.73 -209.226C463.73 -223.648 473.975 -241.937 485.495 -241.937C497.014 -241.937 507.26 -223.648 507.26 -209.226C507.26 -202.804 505.126 -196.775 501.282 -192.133H469.718C465.864 -196.775 463.73 -202.804 463.73 -209.226ZM459.961 -188.954H511.56C510.763 -182.914 505.508 -177.446 497.672 -174.607C493.68 -176.503 485.75 -179.089 476.099 -176.037C475.026 -175.698 474.007 -175.327 473.02 -174.924C465.556 -177.87 460.704 -183.105 459.961 -188.954ZM417.981 -113.316L417.971 -113.326C418.65 -113.411 419.362 -113.719 420.105 -114.323C425.965 -119.144 431.146 -116.495 438.674 -109.925C439.205 -109.459 439.746 -108.971 440.309 -108.473C447.21 -102.317 457.636 -93.0022 467.902 -103.207C475.218 -110.465 472.117 -117.406 467.828 -127.007C465.62 -131.945 463.125 -137.55 461.341 -144.544C457.657 -158.966 462.944 -168.545 477.054 -173.017C489.168 -176.853 498.511 -170.527 498.607 -170.463L498.766 -170.368C506.729 -166.108 507.493 -160.238 506.729 -156.073C505.455 -149.09 499.053 -142.478 492.746 -141.651C488.945 -141.143 485.834 -142.923 483.732 -146.791C483.647 -147.066 483.552 -147.331 483.467 -147.585C483.371 -147.861 483.276 -148.147 483.191 -148.433C483.318 -149.344 484.306 -150.319 486.1 -151.792C487.746 -153.148 489.296 -154.42 488.913 -156.221C488.542 -157.949 486.546 -158.712 484.645 -159.231C482.734 -159.75 480.367 -160.153 478.955 -158.68C477.235 -156.868 478.116 -153.657 479.974 -148.02C480.006 -147.448 480.154 -146.844 480.462 -146.208C480.568 -145.975 480.685 -145.752 480.802 -145.54C483.817 -136.406 488.064 -122.938 488.064 -104.807C488.064 -96.2766 485.134 -89.5583 479.358 -84.864C469.675 -76.9802 454.621 -76.8742 448.845 -78.061C443.483 -79.1631 440.649 -82.2149 437.644 -85.4574C435.404 -87.8735 433.089 -90.3743 429.734 -91.8366C427.675 -92.7373 425.615 -93.0976 423.704 -93.0976C423.47 -93.0976 423.237 -93.0764 423.014 -93.0658C423.003 -93.0976 422.993 -93.1294 422.971 -93.1612L422.738 -93.0552C419.956 -92.8751 417.525 -91.9638 415.858 -90.8829C415.232 -90.4696 414.711 -90.0352 414.297 -89.5901C412.599 -91.7624 409.679 -96.7746 410.443 -102.041C411.208 -107.35 417.918 -113.252 417.981 -113.316ZM481.938 -152.333C481.333 -154.356 480.972 -155.999 481.227 -156.455C481.237 -156.455 481.354 -156.518 481.704 -156.518C482.076 -156.518 482.724 -156.444 483.796 -156.158C484.72 -155.904 485.251 -155.692 485.548 -155.533C485.187 -155.151 484.539 -154.621 484.072 -154.229C483.403 -153.7 482.639 -153.064 481.938 -152.333ZM379.813 -196.287C379.813 -210.709 390.059 -228.999 401.578 -228.999C413.098 -228.999 423.343 -210.709 423.343 -196.287C423.343 -189.866 421.209 -183.836 417.366 -179.195H385.801C381.947 -183.836 379.813 -189.866 379.813 -196.287ZM376.097 -176.005H427.515C425.912 -170.145 415.953 -163.544 406.664 -160.397L406.674 -160.365H405.273V-124.379H394.804V-160.365H392.777L392.904 -160.704C385.228 -163.565 377.308 -169.87 376.097 -176.005ZM384.644 -100.187H385.101V-100.526C385.292 -100.664 385.472 -100.801 385.674 -100.939L385.101 -101.808V-109.713C385.101 -115.647 390.154 -120.469 396.365 -120.469H407.248C409.052 -120.469 410.677 -118.657 412.259 -116.898C412.96 -116.113 413.756 -115.223 414.637 -114.535C412.418 -112.341 408.001 -107.424 407.279 -102.486C406.165 -94.846 411.303 -87.439 413.448 -85.9131C414.361 -85.2667 415.104 -85.4786 415.454 -85.6588C415.985 -85.9343 416.325 -86.4747 416.368 -87.0787C416.506 -87.3648 417.312 -88.2232 419.022 -88.9543C419.447 -89.1345 420.084 -89.3676 420.88 -89.5583C421.443 -87.7039 421.74 -85.7753 421.74 -83.815V-51.8768C421.74 -48.6237 420.933 -45.5613 419.542 -42.8168C414 -40.1888 407.216 -38.7477 400.049 -38.7477C392.915 -38.7477 386.141 -40.1782 380.599 -42.7956C380.089 -43.781 379.665 -44.8089 379.325 -45.8792C378.709 -47.8183 378.401 -49.8317 378.401 -51.8768V-63.2258C378.433 -63.2258 378.454 -63.2258 378.486 -63.2364L378.401 -64.6775V-83.815C378.401 -91.6141 380.397 -96.8488 384.644 -100.187ZM418.884 -41.6193C415.147 -35.3568 408.118 -31.1287 400.07 -31.1287C392.267 -31.1287 385.111 -35.272 381.289 -41.5981C386.736 -39.2351 393.233 -37.9317 400.049 -37.9317C406.908 -37.9211 413.427 -39.2351 418.884 -41.6193ZM311.079 -22.0262C326.665 -46.7375 348.238 -60.5025 375.216 -62.9821V-51.8768C375.216 -50.4781 375.354 -49.0899 375.609 -47.7124C341.221 -44.0248 301.619 -13.3264 301.619 108.46C301.619 123.285 302.766 136.234 305.452 151.472C297.585 151.779 290.662 154.153 287.371 159.493C287.212 159.748 287.084 160.023 286.946 160.299C283.315 142.475 282.795 123.571 282.795 107.199C282.795 95.6383 283.231 84.3742 284.091 73.714C287.318 33.4469 296.406 1.23331 311.079 -22.0262ZM368.113 223.137L368.931 223.327C372.063 209.891 368.411 203.226 367.487 201.827L367.625 201.509C367.689 201.361 369.271 197.768 373.029 198.065C376.745 198.351 381.289 203.851 381.278 209.912C381.278 213.133 381.268 222.935 374.282 225.012C371.267 225.913 368.294 223.56 368.262 223.539L367.901 223.253L367.646 223.645C367.593 223.73 362.412 231.635 358.441 230.215C354.747 228.88 355.309 224.684 355.415 224.037C361.849 215.073 356.286 205.493 354.672 203.067C354.747 202.971 354.821 202.897 354.895 202.78C355.192 202.314 355.373 201.731 355.553 201.117C355.999 199.633 356.509 197.959 358.845 197.164C364.111 195.374 366.733 201.276 366.85 201.53L366.967 201.795L366.616 202.06C366.669 202.102 371.49 208.63 368.113 223.137ZM354.014 203.565C355.596 205.928 360.841 215.03 354.736 223.529C353.844 223.963 346.518 227.492 342.367 226.591C343.694 225.553 345.361 223.052 346.38 221.07C347.453 218.983 350.118 212.964 347.761 208.715L347.75 207.803C347.623 207.803 347.389 207.761 347.07 207.708C346.497 207.009 345.743 206.373 344.777 205.854C339.713 203.12 338.8 203.279 335.402 203.893C335.01 203.967 334.596 204.042 334.139 204.116L335.562 203.151C337.398 202.579 339.129 201.827 340.732 200.884C346.242 199.665 349.311 201.52 351.264 202.706C352.283 203.342 353.207 203.893 354.014 203.565ZM331.432 204.105C332.005 204.02 332.578 203.914 333.141 203.798L332.387 204.306C332.079 204.243 331.761 204.179 331.432 204.105ZM345.563 207.379C344.671 207.167 343.62 206.913 342.579 206.659C340.403 206.129 337.781 205.493 334.861 204.836C335.105 204.794 335.339 204.751 335.562 204.709C338.81 204.116 339.586 203.978 344.395 206.585C344.83 206.828 345.213 207.093 345.563 207.379ZM310.208 196.783C300.557 191.294 291.512 180.305 289.187 171.234C288.146 167.187 288.443 163.796 290.078 161.157C292.669 156.95 298.954 154.566 307.374 154.566C307.65 154.566 307.926 154.566 308.202 154.577C316.504 154.725 325.794 157.173 332.44 160.956C339.851 165.173 345.138 171.627 346.943 178.652C348.217 183.643 347.601 188.38 345.138 192.364C339.012 202.272 323.341 204.264 310.208 196.783ZM277.996 177.9C269.121 167.102 261.073 156.018 260.022 139.349C259.098 124.641 255.743 118.432 252.505 112.434C251.9 111.311 251.295 110.187 250.689 108.99C249.936 107.496 249.129 106.023 248.354 104.603C246.549 101.318 244.309 97.2384 244.914 95.9562C245.052 95.6595 245.572 95.5112 245.986 95.437C250.233 94.6741 260.298 99.1776 263.823 100.979L265.436 98.2451C256.89 92.5124 234.605 75.9817 234.127 68.5005C234.084 67.7481 234.286 67.2183 234.764 66.7944C236.696 65.6712 250.031 67.8753 261.285 70.5562L267.411 72.0185L262.719 67.8223C252.675 58.8576 244.309 49.2147 244.606 46.9576C244.723 46.9152 245.02 46.841 245.636 46.8622C254.129 47.1907 273.771 65.2049 280.969 72.453C280.937 72.7815 280.905 73.0994 280.884 73.4279C280.014 84.1728 279.578 95.5323 279.578 107.167C279.578 125.076 280.194 145.983 284.77 165.375L285.471 165.205C285.269 167.303 285.46 169.592 286.086 171.997C288.645 181.979 298.116 193.551 308.616 199.527C309.858 200.237 311.121 200.841 312.406 201.403C310.23 201.276 308.074 201.233 305.961 201.286C297.34 198.69 283.804 184.968 277.996 177.9ZM345.945 269.422C345.573 269.073 345.212 268.723 344.841 268.373C338.959 262.874 335.785 253.22 332.982 244.701C331.474 240.102 330.041 235.757 328.321 232.44C321.016 218.4 313.16 211.671 305.579 212.964L303.541 213.314L304.401 215.189C304.422 215.242 306.853 220.784 304.698 224.27C303.477 226.252 300.887 227.322 297.022 227.46C291.979 227.619 288.019 222.946 287.021 218.305C285.917 213.133 288.39 208.789 293.635 206.669C297.128 205.26 301.354 204.624 305.887 204.497C306.875 204.751 307.83 204.9 308.743 204.9C309.465 204.9 310.166 204.815 310.824 204.635L310.803 204.54C322.492 205.027 335.095 208.1 341.836 209.742C345.372 210.601 346.869 210.95 347.729 210.982C348.079 212.635 347.867 214.405 347.495 215.92C346.157 221.335 342.197 226.231 341.412 226.252L341.051 227.004C344.82 228.827 352.241 225.637 354.545 224.546C354.449 226.135 354.64 229.685 358.176 230.967C358.59 231.116 359.015 231.19 359.439 231.19C363.176 231.19 367.094 225.913 368.113 224.44C369.058 225.097 371.713 226.633 374.526 225.796C378.783 224.525 380.652 220.731 381.48 217.044C384.464 217.022 388.233 217.139 392.225 217.245C396.386 217.361 400.612 217.489 404.36 217.489C408.033 217.489 411.25 217.372 413.49 217.022L413.002 213.886C408.776 214.543 400.039 214.299 392.32 214.076C388.519 213.971 384.92 213.865 381.969 213.865C382.117 212.222 382.128 210.792 382.128 209.859C382.128 203.83 377.669 197.567 373.103 197.217C369.876 196.984 368.018 199.241 367.264 200.439C366.287 198.733 363.41 194.706 358.601 196.338C355.861 197.27 355.235 199.337 354.778 200.841C354.609 201.403 354.449 201.933 354.216 202.293C353.706 203.088 353.313 202.961 351.721 201.986C349.895 200.873 347.145 199.199 342.495 199.729C344.639 198.182 346.465 196.274 347.867 193.996C350.744 189.333 351.519 183.59 350.043 177.836C348.026 169.984 342.197 162.81 334.033 158.169C327.291 154.333 317.64 151.694 308.711 151.44C306.004 136.16 304.836 123.242 304.836 108.439C304.836 -11.525 343.27 -41.2908 376.437 -44.6288C379.718 -34.8057 389.39 -27.9603 400.102 -27.9603C409.52 -27.9603 417.727 -33.0255 421.941 -40.4749C468.529 -24.5694 478.392 49.0027 478.392 108.439C478.392 124.249 477.001 139.784 474.304 154.693C474.496 149.013 474.177 141.299 471.576 137.05C465.577 127.237 457.275 115.761 454.652 112.169C456.606 110.315 458.644 108.46 459.09 108.185L459.823 107.708L459.918 106.924C460.248 104.19 445.681 86.6206 438.016 79.256C434.724 76.0982 431.9 68.5959 429.862 57.5542L429.352 57.6496C431.359 56.6323 432.081 55.4455 433.61 52.6374C435.234 49.6385 431.369 44.6158 428.651 41.6275L444.131 36.1173C444.694 36.1703 445.235 36.2232 445.766 36.2868L446.86 36.4034L446.116 35.5874C445.575 34.994 434.363 22.8291 426.539 22.8398C426.475 21.6105 426.294 19.8939 425.806 17.9759C427.016 16.9586 427.983 15.8036 428.789 14.8181C429.947 13.4088 430.86 12.2961 431.858 12.2961L432.081 12.2643L432.208 12.1266C432.781 11.512 437.888 0.692871 437.209 -8.17648C437.081 -9.84015 436.519 -11.0164 435.531 -11.6628C433.45 -13.0403 429.925 -11.8641 426.517 -10.7303C423.725 -9.79776 420.827 -8.8335 419.33 -9.55405C417.535 -10.4124 417.058 -12.4469 416.548 -14.6086C415.922 -17.2684 415.2 -20.2884 411.813 -21.4858C408.437 -22.6832 404.795 -19.3559 401.281 -16.1239C398.499 -13.5701 395.601 -10.9316 393.318 -11.1436C391.173 -11.3449 389.538 -12.8072 387.808 -14.3437C385.44 -16.4524 382.765 -18.8473 378.369 -17.9572C374.515 -17.1836 374.462 -13.231 374.42 -9.74478C374.377 -5.9512 374.335 -2.66626 370.492 -2.48611C366.489 -2.30597 363.548 -0.790649 362.221 1.7843C361.117 3.91425 361.297 6.47858 362.709 8.65088C363.792 10.3358 365.618 11.8087 367.232 13.1227C368.687 14.3095 370.194 15.5281 370.099 16.1851C370.056 16.4712 369.621 16.7043 369.271 16.8421C365.894 18.1878 366.245 22.5006 366.882 24.514C367.052 26.7605 369.515 27.7777 372.18 28.2228C363.59 43.3547 344.119 69.2528 336.252 74.5617C328.3 79.9236 306.11 80.3686 305.887 80.3792L305.94 83.5582C306.407 83.5476 312.194 83.4311 318.946 82.5939C318.712 89.842 319.965 94.3032 322.758 96.2105C326.113 98.4994 330.911 96.3907 334.086 95.0026C335.36 94.4409 336.56 93.9217 337.122 93.9323C337.186 93.9323 337.25 93.9429 337.292 93.9429C337.122 94.1336 336.814 94.4197 336.56 94.6635C334.988 96.1152 332.069 98.8173 334.171 102.378C334.956 103.702 336.528 104.37 338.853 104.37C339.363 104.37 339.915 104.338 340.499 104.275C345.765 103.692 353.027 100.492 355.553 98.2345C355.426 99.7392 355.437 101.837 356.413 103.088C356.891 103.702 357.549 104.063 358.367 104.137C368.007 105.112 374.059 95.9986 375.036 93.6885C375.163 93.3918 375.259 93.2435 375.312 93.1693C375.46 93.3495 375.683 93.8157 375.842 94.1654C376.373 95.278 377.095 96.8146 378.444 96.8887C381.109 97.0477 383.752 95.9138 386.321 93.4978C390.844 89.2486 393.711 82.2336 393.711 80.411H392.872C392.872 82.0747 390.027 88.8565 385.738 92.8832C383.349 95.1297 380.928 96.2 378.486 96.041C377.626 95.988 377.053 94.7694 376.586 93.7839C376.172 92.9044 375.864 92.258 375.29 92.258H375.28C374.77 92.2686 374.473 92.8091 374.25 93.3389C372.997 96.2953 366.956 104.137 358.441 103.289C357.857 103.226 357.411 102.992 357.072 102.558C356.307 101.572 356.137 99.665 356.562 96.8887C356.615 96.5285 356.668 96.1894 356.286 96.094C355.904 96.0092 355.808 96.2847 355.628 96.8463C355.15 98.3193 346.741 102.738 340.414 103.427C338.428 103.649 335.848 103.565 334.893 101.933C333.13 98.955 335.54 96.7298 337.133 95.2569C337.929 94.5257 338.407 94.0807 338.227 93.5826C338.057 93.127 337.441 93.0952 337.175 93.0846C336.443 93.0422 335.317 93.5402 333.767 94.2184C330.582 95.6171 326.219 97.5351 323.246 95.5006C320.719 93.7839 319.562 89.3864 319.795 82.4668C326.431 81.5978 333.831 80.019 338.046 77.1791C346.731 71.3192 367.774 43.1852 376.044 27.8095C376.989 26.0611 377.849 24.3975 378.656 22.8186C384.899 10.7278 388.041 4.66656 404.062 5.34476C421.113 6.06534 423.279 18.262 423.417 23.4756L423.831 23.4649C423.746 23.5073 423.651 23.5391 423.566 23.5921L423.98 24.3127C430.021 20.8264 441.668 32.1436 444.768 35.3331C444.662 35.3225 444.534 35.312 444.418 35.3014L444.365 35.153L444.057 35.2589C438.801 34.7609 426.592 33.9238 425.689 36.7743C424.978 38.9995 425.18 39.5506 425.498 39.8049C425.615 39.9003 425.753 39.9426 425.88 39.9426C428.545 42.454 434.597 49.1405 432.909 52.2453C430.743 56.2402 430.509 56.6641 424.797 58.4867C419.945 60.0444 416.867 58.4443 414.149 57.0455C413.735 56.8336 413.342 56.6323 412.949 56.4415C410.857 55.4348 409.477 53.8772 408.829 51.8108C407.025 45.9933 411.569 37.9505 411.611 37.8657L412.641 36.0643L410.995 37.3359C410.9 37.4101 401.737 44.4462 394.39 43.8422C387.181 43.2594 384.272 37.8127 384.251 37.7597L383.508 38.1412C383.635 38.3849 386.629 44.0541 394.327 44.6687C400.262 45.1456 407.184 40.9811 410.104 38.9995C408.829 41.7017 406.6 47.4238 408.044 52.0651C408.755 54.3646 410.284 56.0813 412.588 57.1939C412.97 57.3846 413.363 57.586 413.766 57.7873C415.699 58.7834 417.96 59.9596 420.975 59.9596C422.196 59.9596 423.555 59.7689 425.052 59.2814C425.732 59.0695 426.326 58.8682 426.868 58.6774C429.055 70.2277 432.081 77.9314 435.85 81.5449C444.152 89.5135 454.345 102.621 456.457 106.256C454.971 107.507 452.625 109.742 451.478 110.844L450.469 111.809L451.308 112.932C451.414 113.07 461.798 127.078 468.911 138.703C471.926 143.63 471.3 155.785 470.737 160.754C468.72 162.482 466.926 164.304 465.461 166.148C460.29 172.644 457.901 180.644 458.899 188.115C459.6 193.381 461.978 198.023 465.63 201.456C459.388 201.308 452.136 202.802 443.674 205.175C442.772 201.71 440.776 197.811 438.079 197.578C435.16 197.323 433.068 199.655 432.208 200.831L432.187 200.852C431.359 199.326 428.959 195.84 424.638 196.719C420.413 197.578 419.701 199.983 419.245 201.583C419.192 201.774 419.139 201.943 419.086 202.102C418.226 201.18 416.23 199.421 413.66 199.612C411.08 199.803 408.702 201.88 406.568 205.801L406.037 206.701L407.014 206.405C407.046 206.405 408.415 206.299 412.057 210.982C414.117 213.642 413.83 219.301 412.949 223.327C412.312 226.263 411.59 227.513 411.367 227.63C411.388 227.619 411.463 227.608 411.526 227.64L411.123 228.371C414.457 230.226 420.965 226.273 423.003 224.938C423.173 226.496 423.884 230.014 427.006 231.307C427.377 231.466 427.76 231.529 428.142 231.529C430.913 231.529 433.779 227.799 435.149 225.733C435.191 225.828 435.255 225.923 435.34 226.008C435.765 226.464 436.497 226.496 437.57 226.135C443.643 224.058 444.014 214.352 444.163 210.209C444.173 209.817 444.195 209.467 444.205 209.191C444.216 208.927 444.216 208.63 444.195 208.323C457.296 204.635 465.652 203.702 471.884 205.525C472.638 205.843 473.413 206.14 474.198 206.373C475.313 206.871 476.375 207.454 477.383 208.153C483.807 212.657 484.635 218.58 483.276 222.617C481.896 226.708 478.392 229.272 474.326 229.113C470.461 228.975 467.881 227.905 466.65 225.923C464.463 222.405 466.915 216.885 466.936 216.832L467.796 214.956L465.758 214.606C458.188 213.314 450.321 220.042 443.016 234.083C441.286 237.4 439.863 241.744 438.355 246.333C435.552 254.852 432.378 264.506 426.496 270.005C426.125 270.355 425.753 270.705 425.392 271.054C421.527 274.753 417.843 278.249 405.05 279.701C406.897 274.806 407.226 269.189 405.814 263.965C402.013 249.882 397.66 237.251 386.194 237.251C379.208 237.251 370.385 244.298 366.553 264.082C365.799 267.992 365.289 273.11 366.224 278.027C353.473 276.586 349.799 273.11 345.945 269.422ZM426.21 39.2009L425.987 38.989L425.965 38.9995C425.965 38.7346 426.05 38.173 426.411 37.0392C426.931 35.4073 434.979 35.3967 442.092 35.9477L427.993 40.9705C427.027 39.9638 426.316 39.2963 426.21 39.2009ZM373.167 26.326C372.965 26.6969 372.764 27.0784 372.551 27.4598C370.279 27.1102 367.784 26.3048 367.636 24.3657C367.614 24.3127 366.022 19.0143 369.525 17.6262C370.343 17.2977 370.789 16.8739 370.874 16.3228C371.044 15.189 369.578 13.9916 367.71 12.4869C366.149 11.2259 364.376 9.78476 363.368 8.21646C362.125 6.29846 361.966 4.04138 362.922 2.17639C364.111 -0.112488 366.797 -1.46884 370.492 -1.6384C375.11 -1.85034 375.163 -6.02539 375.205 -9.71298C375.248 -13.1887 375.29 -16.4842 378.486 -17.1306C382.467 -17.9359 384.878 -15.7954 387.203 -13.7185C388.954 -12.1608 390.77 -10.5395 393.18 -10.3064C395.856 -10.0415 398.733 -12.7012 401.79 -15.4987C405.124 -18.5505 408.564 -21.7189 411.484 -20.6805C414.446 -19.6314 415.072 -16.9717 415.688 -14.3967C416.219 -12.1502 416.771 -9.81897 418.926 -8.79111C420.742 -7.92218 423.651 -8.89706 426.74 -9.92493C429.968 -10.9952 433.291 -12.1078 435.032 -10.9528C435.797 -10.4442 436.221 -9.51166 436.338 -8.09171C436.965 -0.00653076 432.431 10.2404 431.624 11.4908C430.329 11.5968 429.342 12.8048 428.11 14.3095C427.356 15.2208 426.528 16.2063 425.519 17.0964C423.661 10.7914 418.48 2.80157 404.126 2.19757C386.067 1.4346 381.958 9.37149 375.758 21.388C374.94 22.9457 374.091 24.5988 373.167 26.326ZM443.303 209.16C443.282 209.446 443.271 209.785 443.26 210.188C443.112 214.161 442.761 223.476 437.23 225.362C436.221 225.701 435.935 225.521 435.882 225.457C435.733 225.309 435.775 224.927 435.86 224.609L436.423 224.726C438.971 212.158 434.268 203.914 432.665 201.551C433.312 200.619 435.266 198.192 437.941 198.415C440.213 198.616 441.976 202.229 442.804 205.408C442.793 205.408 442.772 205.419 442.761 205.419L443.016 206.32C443.239 207.443 443.345 208.45 443.303 209.16ZM422.961 223.931C422.133 224.503 415.646 228.848 412.153 227.937C413.788 225.627 416.028 214.85 412.641 210.484C409.987 207.062 408.373 205.991 407.502 205.695C409.403 202.378 411.462 200.608 413.628 200.449C416.569 200.237 418.767 203.109 418.788 203.141L419.17 203.649L419.478 203.088C419.68 202.728 419.807 202.282 419.945 201.806C420.402 200.237 420.975 198.288 424.712 197.525C429.48 196.56 431.56 201.625 431.656 201.837L431.975 202.632L432.155 202.325C433.833 204.921 437.867 212.657 435.627 224.217L435.16 223.995C433.907 226.21 430.032 231.709 427.239 230.544C424.033 229.219 423.725 224.927 423.704 224.281C429.458 212.498 420.052 202.886 419.956 202.791L419.362 203.374C419.478 203.469 428.45 212.688 422.961 223.931ZM359.917 303.236C359.917 296.295 363.304 289.779 369.037 285.529C371.574 289.376 376.458 293.286 385.791 293.286C385.897 293.286 386.014 293.286 386.12 293.286C391.481 293.233 396.301 291.23 399.943 287.606C404.211 291.781 406.642 297.408 406.642 303.247V373.884C406.642 374.509 406.611 375.124 406.557 375.749C405.496 375.622 404.434 375.516 403.383 375.41V302.781H402.544V375.314C402.151 375.282 401.748 375.24 401.355 375.208C395.187 374.414 388.944 373.979 382.627 373.979C375.959 373.979 369.345 374.445 362.837 375.346V302.039H361.998V375.463C361.297 375.569 360.597 375.653 359.896 375.77V303.236H359.917ZM382.637 377.158C410.666 377.158 437.474 385.307 460.301 400.693L438.621 424.334C422.366 413.939 403.415 408.651 382.213 408.651C353.547 408.651 326.888 419.65 307.129 439.614L307.681 440.155L280.226 422.151C306.004 393.551 343.216 377.158 382.637 377.158ZM373.592 487.214C371.776 487.998 370.077 489.005 368.549 490.203L221.525 393.159C223.414 392.502 225.23 391.792 226.982 391.04L373.592 487.214ZM148.862 104.094C150.232 100.28 154.542 101.721 158.704 103.12C160.498 103.724 162.197 104.296 163.545 104.37C166.242 104.508 166.433 101.986 166.645 99.3048C166.837 96.9099 167.049 94.1866 168.737 92.1097C169.671 90.9652 170.754 90.4036 172.081 90.4354C175.171 90.5096 178.728 93.8475 181.01 96.9417C181.785 97.9802 182.507 98.5206 183.303 98.616C184.556 98.7749 185.66 97.8742 187.2 96.6238C188.835 95.2993 190.863 93.6674 193.889 92.5653C195.056 92.1414 195.948 92.1414 196.628 92.5759C198.167 93.5614 198.422 96.6132 198.656 99.3048C198.847 101.572 199.006 103.353 199.845 104.063C200.11 104.285 200.429 104.391 200.79 104.359L200.949 104.349C204.346 104.041 213.35 103.247 214.284 109.753C215.059 115.125 207.128 121.091 203.964 123.242C203.932 123.221 203.911 123.2 203.879 123.179C199.898 120.095 183.866 113.833 169.586 117.404C165.265 118.485 161.454 120.339 158.184 122.946C155.275 119.354 147.163 108.799 148.862 104.094ZM132.353 155.414L147.737 140.727L149.361 141.373C153.321 144.298 159.426 151.207 161.156 153.199C157.982 153.782 144.615 156.049 132.353 155.414ZM120.292 352.765C120.302 352.765 120.313 352.765 120.323 352.765H120.334C120.323 352.765 120.313 352.765 120.292 352.765ZM120.61 352.754C118.625 351.006 112.828 337.972 112.308 333.945C111.819 330.194 108.231 329.844 104.759 329.505C102.614 329.293 100.194 329.06 97.8155 328.17C93.3457 326.496 96.1698 308.376 97.2421 301.551C97.4439 300.237 97.6244 299.082 97.7624 298.129C98.6754 291.538 96.0106 289.302 93.1865 286.928C92.2522 286.144 91.286 285.339 90.373 284.3C89.5873 283.41 88.9928 279.362 100.374 260.924C100.778 260.267 101.107 259.737 101.33 259.366C102.094 258.084 101.945 257.077 101.691 256.463C101.001 254.82 99.0046 254.322 97.0723 253.835C96.3609 253.655 95.1187 253.347 94.6198 253.051C95.8301 250.179 106.628 239.36 110.779 235.195C112.138 233.839 113.274 232.695 114.049 231.9C114.474 231.455 115.769 230.12 115.333 228.488C114.866 226.739 112.892 226.167 111.15 225.659C110.768 225.553 110.237 225.394 109.823 225.235C114.251 220.816 139.36 197.578 141.6 196.306C141.589 196.306 141.536 196.348 141.43 196.38L140.942 194.865C142.555 196.486 144.339 198.192 146.908 198.192C147.906 198.192 149.021 197.938 150.295 197.313C155.689 194.664 160.849 190.043 165 186.335C167.251 184.321 169.183 182.583 170.839 181.418C175.351 178.239 172.856 173.248 170.446 168.426C170.075 167.695 169.714 166.953 169.353 166.201C167.166 161.57 167.58 156.452 168.418 155.901C168.482 155.859 168.61 155.997 168.663 156.049C170 157.554 178.494 156.314 179.46 156.166C181.339 155.88 190.757 154.322 191.999 151.567L191.234 151.228C190.565 152.712 185.777 154.365 179.333 155.35C173.791 156.187 169.809 156.081 169.289 155.499C168.684 154.81 168.121 155.096 167.962 155.202C166.603 156.103 166.338 161.772 168.599 166.551C168.949 167.303 169.331 168.045 169.692 168.787C172.145 173.703 174.268 177.953 170.351 180.729C168.652 181.926 166.698 183.675 164.437 185.699C160.328 189.376 155.222 193.943 149.924 196.55C145.825 198.563 143.66 196.401 141.366 194.102C140.23 192.968 139.169 191.898 137.863 191.357C134.274 189.874 130.622 186.324 132.172 181.185C133.69 176.119 137.619 173.163 144.743 167.791L145.496 167.218C150.359 163.552 154.085 155.806 154.245 155.477L153.64 155.191C158.608 154.555 161.963 153.888 162.038 153.877L162.728 153.739L162.271 153.199C161.921 152.786 154.521 144.107 149.817 140.653C150.094 140.07 150.454 139.296 150.752 138.671C151.092 137.961 151.399 137.315 151.548 136.986C155.476 128.18 161.815 122.628 170.383 120.487C183.41 117.234 198.433 122.967 201.947 125.69C208.678 130.914 209.729 150.115 207.287 165.523C204.017 186.218 208.816 197.185 209.018 197.652L209.113 197.874L220.208 210.516C212.288 210.103 211.481 210.845 211.067 211.226C210.695 211.565 210.494 212.031 210.494 212.519C210.494 214.617 217.246 225.288 220.781 228.191C223.064 230.067 230.092 234.009 236.303 237.484C239.043 239.021 242.068 240.716 243.619 241.659C242.684 242.242 241.102 243.005 239.552 243.609L235.327 245.241L264.088 254.375L264.375 254.439C264.502 254.45 276.701 256.018 289.441 258.815C310.697 263.488 316.366 267.748 317.81 269.995C316.823 270.387 314.296 270.683 312.385 270.917C311.068 271.076 309.571 271.245 308.042 271.478C306.291 271.743 305.792 272.644 305.685 273.343C305.367 275.41 307.596 276.586 316.175 280.75C323.065 284.099 332.515 288.698 335.87 292.714C336.156 293.063 336.379 293.35 336.549 293.593C334.85 293.286 331.941 292.29 330.2 291.697C326.357 290.383 324.796 289.906 323.724 290.149C323.065 290.298 322.566 290.764 322.375 291.389C321.94 292.873 322.906 294.123 330.381 301.689C333.428 304.762 337.844 309.234 339.076 311.141C333.587 314.776 328.289 316.143 323.331 315.21C316.005 313.833 311.334 307.867 309.656 305.366C308.743 303.999 307.554 304.635 307.427 304.72C307.002 304.963 306.354 305.684 306.768 306.722C306.843 310.484 292.021 341.522 287.87 347.201C284.42 351.917 279.546 354.375 275.692 355.997C273.484 356.919 263.568 355.001 257.24 353.337L256.847 353.284C226.355 353.04 129.029 352.32 120.61 352.754ZM129.836 357.385H252.601C251.709 371.563 238.947 384.226 218.849 390.701C210.228 393.477 200.928 394.886 191.213 394.886C158.184 394.897 131.153 378.207 129.836 357.385ZM219.826 393.731C220.059 393.657 220.293 393.572 220.527 393.498L367.869 490.753C364.143 493.88 361.467 498.129 360.416 502.95L351.434 496.995V496.868H351.243L201.48 397.546C207.839 396.878 213.987 395.617 219.826 393.731ZM311.196 565.279C297.245 548.802 289.569 528.266 289.569 507.21C289.569 492.883 292.945 479.171 299.57 466.403L348.249 498.69V524.461L311.196 565.279ZM306.025 570.97C290.408 553.507 281.808 531.296 281.808 508.227C281.808 492.269 285.948 476.522 293.784 462.567L298.869 465.947C292.149 478.854 288.73 492.724 288.73 507.21C288.73 528.499 296.502 549.257 310.622 565.905L306.025 570.97ZM351.434 500.81L354.513 502.855V517.563L351.434 520.954V500.81ZM355.352 503.406L359.949 506.458C359.928 506.818 359.917 507.178 359.917 507.549C359.917 508.874 360.044 510.166 360.278 511.427L360.182 511.332L355.352 516.652V503.406ZM291.119 460.808C290.662 461.624 290.217 462.439 289.781 463.266L262.464 447.339C263.196 445.983 263.95 444.637 264.736 443.313L291.119 460.808ZM247.303 507.104C247.303 486.515 252.399 466.265 262.071 448.07L289.399 464.008C282.339 477.677 278.623 492.862 278.623 508.238C278.623 532.197 287.594 555.266 303.87 573.354L283.613 595.66C260.192 571.531 247.303 540.134 247.303 507.104ZM198.443 637.41C199.006 622.999 210.005 605.08 221.472 605.515C232.588 605.917 240.699 622.914 241.792 630.279C241.389 630.809 240.975 631.349 240.603 631.9C235.879 638.947 234.392 647.233 236.187 654.407C234.753 656.601 233.532 657.83 231.441 659.314L231.483 659.367L205.833 659.186C203.37 656.739 201.352 652.998 200.036 648.812C199.823 646.492 199.356 644.171 198.603 641.903C198.603 641.893 198.592 641.882 198.592 641.872C198.443 640.367 198.38 638.873 198.443 637.41ZM237.461 658.095C237.662 658.54 237.875 658.985 238.108 659.42L236.293 659.409C236.717 658.985 237.1 658.54 237.461 658.095ZM201.628 659.155L199.186 659.133C199.431 658.211 199.654 657.29 199.802 656.336C200.376 657.343 200.981 658.286 201.628 659.155ZM155.147 655.393C152.143 646.258 152.992 633.839 157.154 625.86C159.32 621.717 162.239 618.983 165.626 617.955C172.474 615.878 179.428 620.837 182.964 623.974C188.442 628.838 193.198 635.916 195.46 642.539C195.725 644.913 196.224 647.276 196.914 649.522C197.169 652.818 196.819 656.082 195.874 659.123L156.559 658.837C156.018 657.713 155.529 656.569 155.147 655.393ZM216.386 699.951C216.152 699.951 215.919 699.951 215.685 699.951C205.971 699.877 196.681 698.404 188.092 695.565C168.047 688.942 155.381 676.183 154.606 662.005L275.799 662.874L276.765 664.061C276.945 663.912 277.115 663.753 277.296 663.605C275.247 683.919 248.725 699.951 216.386 699.951ZM279.313 656.961C278.548 657.925 277.71 658.837 276.839 659.695L241.814 659.441C240.89 658.031 240.168 656.505 239.648 654.895C239.69 654.831 239.722 654.768 239.765 654.704L239.542 654.577C237.556 648.06 238.82 640.271 243.258 633.659C243.682 633.023 244.149 632.388 244.627 631.784H245.116C245.116 631.603 245.105 631.413 245.094 631.211C254.395 619.968 273.707 611.714 282.742 618.347C285.492 620.371 287.254 623.794 287.86 628.244C289.049 637.167 285.449 649.236 279.313 656.961ZM284.632 615.793C282.742 614.405 280.576 613.557 278.241 613.134L359.078 524.419L358.462 523.857L277.434 612.784L277.742 613.059C275.99 612.784 274.132 612.752 272.231 612.932L350.967 526.22H351.434V525.701L361.223 514.914C363.463 521.07 368.442 525.987 374.738 528.34L289.452 622.067C288.337 619.449 286.713 617.33 284.632 615.793ZM323.002 589.916C323.554 590.287 324.106 590.658 324.658 591.018L305.94 614.172C304.9 613.483 303.881 612.763 302.861 612.042L323.002 589.916ZM346.508 635.641V769.635H347.347V635.853C355.553 637.919 363.983 639.265 372.572 639.848V771.701H373.411V639.901C376.48 640.091 379.558 640.219 382.659 640.219C389.507 640.219 396.291 639.731 402.948 638.799V772.337H403.786V638.671C408.978 637.908 414.096 636.87 419.128 635.556V768.596H419.967V635.333C423.088 634.496 426.167 633.564 429.203 632.525C431.338 631.943 433.461 631.307 435.563 630.618L435.16 766.233C432.93 771.902 412.046 777.815 382.765 777.815C351.763 777.815 330.158 771.192 330.158 765.237L330.572 630.47C335.742 632.515 341.072 634.231 346.508 635.641ZM326.973 754.948L326.941 765.237C326.941 775.473 355.681 780.994 382.733 780.994C409.785 780.994 438.525 775.473 438.525 765.237H438.323L438.355 755.594C465.046 761.92 467.17 769.783 467.17 772.083C467.17 782.838 432.866 794.346 381.788 794.346C330.71 794.346 296.406 782.828 296.406 772.083C296.406 769.582 298.668 761.115 326.973 754.948ZM381.788 797.536C418.448 797.536 456.171 790.786 467.17 779.14V786.95L428.152 799.443V860.892L429.384 861.179C429.649 861.242 433.089 862.037 439.088 863.415C424.298 870.991 403.457 875.293 381.109 875.293C359.248 875.293 338.683 871.139 323.936 863.828C330.55 862.302 334.351 861.433 334.638 861.369L335.87 861.083V799.634L296.417 787.002V779.161C307.395 790.786 345.117 797.536 381.788 797.536ZM319.169 864.909C334.521 873.524 357.082 878.462 381.098 878.462C405.602 878.462 428.397 873.365 443.759 864.485C456.595 867.441 477.182 872.189 502.015 877.921C470.599 889.132 427.781 895.522 383.423 895.522C338.63 895.522 295.525 889.026 264.024 877.625C287.276 872.263 306.641 867.802 319.169 864.909ZM295.493 790.033L331.071 801.424L40.2608 900.248C39.9104 895.713 38.6576 891.177 36.927 886.568L295.493 790.033ZM-29.5672 804.084C-29.6415 802.283 -28.8133 800.714 -27.0403 799.284C-25.0019 797.641 -22.0716 798.076 -19.2368 798.5C-16.1579 798.955 -12.6649 799.475 -11.0936 796.444C-9.89388 794.134 -7.10161 791.559 -4.29873 791.336C-2.44075 791.177 -0.699566 792.131 0.808044 794.145C4.8425 799.517 10.4058 798.415 14.0899 797.673C15.6081 797.377 17.3281 797.027 17.8802 797.408C19.8125 798.733 19.5789 801.117 19.0056 804.614C18.6871 806.564 18.3792 808.408 18.8994 809.912C19.4833 811.587 21.6598 812.583 24.4096 813.833C26.4799 814.766 29.9411 816.344 30.0791 817.595C30.1428 818.135 29.4421 819.025 28.1999 819.969C22.4455 824.355 18.3048 825.956 16.3938 826.517C12.2001 815.253 4.65139 808.439 -4.39428 808.439C-10.2761 808.439 -16.2959 811.205 -20.8612 815.846C-23.9614 813.483 -29.3867 808.471 -29.5672 804.084ZM-38.8146 833.394C-39.7807 833.447 -40.3222 832.78 -40.4708 832.208C-40.6194 831.646 -40.492 830.883 -39.6745 830.459L-26.2653 823.423C-25.9043 823.232 -25.4902 823.19 -25.0974 823.275L-24.3755 823.624C-24.2056 823.773 -24.0676 823.942 -23.9614 824.154C-23.1651 825.85 -21.7106 827.969 -19.2899 828.425C-18.9077 828.499 -18.5467 828.573 -18.1964 828.647C-16.848 828.933 -16.4552 829.993 -16.5295 830.809C-16.6144 831.72 -17.2833 832.663 -18.6104 832.716L-38.8146 833.394ZM-30.8093 850.953C-31.8604 849.183 -29.7795 839.795 -28.1232 833.924L-28.3037 833.871L-18.5892 833.543C-17.0391 833.49 -16.1261 832.504 -15.8182 831.445C-14.2787 831.71 -8.3438 833.585 -7.20778 836.118C-6.85742 836.902 -7.03791 837.675 -7.75986 838.481C-10.1062 841.087 -11.996 842.02 -13.2488 842.635C-14.1301 843.069 -14.7565 843.376 -15.0325 844.033C-15.1811 844.404 -15.2236 844.839 -15.2661 845.347C-15.4041 846.852 -15.5846 848.908 -18.8971 850.794C-23.5049 853.443 -29.5247 853.125 -30.8093 850.953ZM-38.8146 906.85C-38.8146 901.361 -36.1922 895.543 -33.1663 888.804C-29.0469 879.659 -23.9402 868.289 -23.6535 853.327C-21.8911 853.04 -20.0862 852.447 -18.4724 851.525C-14.7883 849.427 -14.576 847.022 -14.4273 845.432C-14.3849 844.987 -14.353 844.616 -14.2468 844.362C-14.0982 844.002 -13.6098 843.758 -12.8666 843.387C-11.5607 842.74 -9.58599 841.766 -7.13346 839.042C-5.94436 837.728 -6.10361 836.542 -6.44336 835.789C-7.73863 832.907 -13.8965 830.957 -15.7014 830.639C-15.7014 829.453 -16.3809 828.181 -18.0265 827.842C-18.3875 827.768 -18.7591 827.693 -19.1413 827.619C-21.0205 827.259 -22.2414 825.68 -22.9846 824.26C-22.4432 823.158 -21.8061 822.088 -21.0948 821.081C-16.9754 815.242 -10.5734 811.618 -4.38366 811.618C7.99575 811.618 14.4084 826.221 16.139 838.724C18.0925 852.807 23.539 864.527 28.3485 874.87C33.0837 885.053 37.1712 893.848 37.1712 902.717C37.1712 905.875 36.7359 909.139 35.8016 912.328C35.3557 911.417 34.8992 910.453 34.5488 909.616C32.9669 905.801 28.4122 906.076 22.626 906.839C22.1057 906.913 21.4156 906.924 21.0971 906.617C20.269 905.801 20.6193 902.738 20.8742 900.503C21.0334 899.157 21.182 897.758 21.182 896.508C21.182 894.717 20.683 893.329 19.7063 892.396C18.0394 890.796 15.555 890.891 13.1556 890.997C12.646 891.019 12.1258 891.04 11.6161 891.04C11.2764 890.595 10.013 887.776 13.0707 872.485L9.94927 871.86C6.78541 887.649 7.87896 891.506 9.19547 893.096C9.79002 893.816 10.6075 894.208 11.51 894.208C12.0939 894.208 12.6885 894.187 13.283 894.166C15.0136 894.092 16.8185 894.028 17.498 894.685C17.8271 895.003 17.9969 895.618 17.9969 896.508C17.9969 897.578 17.8589 898.828 17.6997 900.142C17.3175 903.501 16.9246 906.977 18.8569 908.885C19.8443 909.859 21.2564 910.23 23.0294 909.997C28.8475 909.234 31.0134 909.446 31.5973 910.845C32.3936 912.742 33.6358 915.147 34.294 916.408C29.5801 926.984 18.6658 935.832 -1.37906 935.832C-26.2122 935.821 -38.8146 926.072 -38.8146 906.85ZM40.367 902.707C40.367 902.166 40.3457 901.636 40.3245 901.096L332.408 801.838L332.674 801.922V858.53C315.273 862.535 120.907 907.284 28.9324 928.912C35.8441 922.989 40.367 914.342 40.367 902.707ZM386.491 934.857C346.72 934.857 308.106 929.77 277.784 920.52C249.405 911.873 229.806 900.121 222.204 887.278C234.891 884.343 247.08 881.535 258.429 878.917C290.609 891.495 336.124 898.701 383.434 898.701C430.318 898.701 475.557 891.601 507.663 879.214C520.786 882.245 534.981 885.519 549.749 888.931C531.711 915.698 464.176 934.857 386.491 934.857ZM431.327 858.36V801.753L431.592 801.668L723.676 900.927C723.644 901.467 723.634 901.997 723.634 902.537C723.634 914.172 728.157 922.819 735.068 928.753C643.093 907.115 448.728 862.365 431.327 858.36ZM765.359 935.641C745.324 935.641 734.399 926.793 729.686 916.217C730.354 914.956 731.597 912.551 732.382 910.654C732.966 909.255 735.121 909.043 740.95 909.806C742.723 910.04 744.135 909.669 745.123 908.694C747.055 906.797 746.662 903.321 746.28 899.962C746.131 898.648 745.983 897.398 745.983 896.328C745.983 895.438 746.152 894.823 746.482 894.505C747.172 893.848 748.966 893.911 750.697 893.986C751.291 894.007 751.886 894.028 752.47 894.028C753.372 894.028 754.189 893.636 754.784 892.916C756.09 891.326 757.194 887.469 754.03 871.68L750.909 872.305C753.967 887.596 752.703 890.404 752.363 890.86C751.854 890.86 751.334 890.839 750.824 890.817C748.424 890.722 745.94 890.616 744.273 892.216C743.297 893.159 742.797 894.547 742.797 896.328C742.797 897.578 742.957 898.977 743.105 900.323C743.36 902.558 743.711 905.621 742.882 906.426C742.564 906.734 741.874 906.723 741.354 906.649C735.567 905.896 731.023 905.61 729.431 909.425C729.08 910.262 728.624 911.226 728.178 912.138C727.244 908.948 726.808 905.684 726.808 902.527C726.808 893.657 730.896 884.862 735.631 874.679C740.44 864.336 745.887 852.617 747.841 838.534C749.571 826.03 755.984 811.428 768.363 811.428C774.553 811.428 780.955 815.052 785.074 820.89C785.786 821.908 786.423 822.967 786.964 824.069C786.221 825.489 784.989 827.068 783.121 827.428C782.739 827.503 782.367 827.577 782.006 827.651C780.36 828.001 779.681 829.262 779.681 830.448C777.876 830.766 771.718 832.716 770.423 835.598C770.083 836.361 769.924 837.538 771.113 838.852C773.565 841.586 775.54 842.56 776.846 843.196C777.589 843.557 778.078 843.8 778.226 844.171C778.333 844.426 778.364 844.796 778.407 845.241C778.555 846.831 778.768 849.236 782.452 851.334C784.066 852.256 785.871 852.85 787.633 853.136C787.92 868.098 793.037 879.468 797.146 888.613C800.182 895.353 802.805 901.17 802.805 906.659C802.815 925.892 790.213 935.641 765.359 935.641Z" fill="#E9EEF1"/>
<path d="M485.628 382.378L398.292 479.905L398.917 480.463L486.253 382.935L485.628 382.378Z" fill="#E9EEF1"/>
<path d="M382.701 517.701C385.472 517.701 388.243 516.683 390.356 514.66C392.405 512.689 393.541 510.071 393.541 507.284C393.541 504.497 392.416 501.88 390.356 499.909C386.13 495.851 379.261 495.851 375.036 499.909C372.987 501.88 371.851 504.497 371.851 507.284C371.851 510.071 372.976 512.689 375.036 514.66C377.159 516.694 379.93 517.701 382.701 517.701ZM375.62 500.503C377.573 498.627 380.132 497.694 382.701 497.694C385.27 497.694 387.829 498.627 389.783 500.503C391.672 502.315 392.702 504.72 392.702 507.284C392.702 509.849 391.662 512.254 389.783 514.066C385.876 517.817 379.527 517.817 375.62 514.066C373.73 512.254 372.7 509.849 372.7 507.284C372.7 504.72 373.74 502.315 375.62 500.503Z" fill="#E9EEF1"/>
<path d="M382.977 520.509C386.417 520.509 389.857 519.248 392.48 516.736C395.017 514.289 396.418 511.046 396.418 507.592C396.418 504.137 395.017 500.884 392.48 498.447C387.245 493.413 378.72 493.413 373.486 498.447C370.948 500.884 369.547 504.137 369.547 507.592C369.547 511.046 370.948 514.299 373.486 516.736C376.098 519.248 379.537 520.509 382.977 520.509ZM374.048 499.04C376.512 496.677 379.739 495.501 382.967 495.501C386.194 495.501 389.422 496.677 391.885 499.04C394.263 501.318 395.569 504.36 395.569 507.581C395.569 510.802 394.263 513.844 391.885 516.132C386.969 520.858 378.964 520.858 374.048 516.132C371.67 513.844 370.364 510.813 370.364 507.581C370.364 504.36 371.67 501.318 374.048 499.04Z" fill="#E9EEF1"/>
<path d="M416.58 169.316C417.366 170.641 418.619 172.379 420.179 172.877C420.923 173.11 421.666 173.046 422.377 172.676C430.913 168.214 430.499 157.406 429.947 154.969C429.883 154.672 429.862 154.502 429.862 154.407C430.096 154.481 430.552 154.736 430.892 154.937C431.986 155.562 433.472 156.431 434.629 155.763C436.869 154.471 438.366 152.161 439.078 148.876C440.384 142.867 438.589 135.397 437.485 133.86L436.806 134.348C437.814 135.757 439.492 143.016 438.26 148.706C437.602 151.737 436.243 153.877 434.204 155.043C433.461 155.467 432.262 154.778 431.295 154.216C430.425 153.708 429.788 153.347 429.321 153.686C428.917 153.983 428.992 154.587 429.119 155.149C429.83 158.254 429.469 168.013 421.974 171.934C421.464 172.199 420.955 172.252 420.413 172.082C419.192 171.701 417.918 170.217 416.612 167.674C416.442 167.345 416.294 167.038 415.922 167.187C415.55 167.335 415.646 167.621 415.826 168.183C416.283 169.592 412.217 177.455 407.513 181.598C405.91 183.007 403.606 184.512 401.759 183.654C398.542 182.149 399.211 179.012 399.657 176.935C399.88 175.897 400.007 175.272 399.583 174.964C399.19 174.678 398.659 174.996 398.436 175.123C397.799 175.494 397.172 176.512 396.291 177.921C394.518 180.771 392.098 184.66 388.52 184.703C385.281 184.713 381.619 181.608 377.552 175.409L376.852 175.865C381.12 182.371 384.91 185.54 388.456 185.54C388.477 185.54 388.498 185.54 388.53 185.54C392.565 185.497 395.23 181.206 397.003 178.366C397.725 177.211 398.404 176.109 398.861 175.844C398.924 175.802 398.988 175.77 399.03 175.749C399.009 176.003 398.924 176.406 398.85 176.755C398.415 178.8 397.597 182.626 401.419 184.406C403.203 185.243 405.517 184.491 408.087 182.223C412.004 178.769 415.848 172.442 416.58 169.316Z" fill="#E9EEF1"/>
<path d="M397.533 32.6839C399.603 32.6839 401.291 31.0414 401.291 29.0175C401.291 26.9935 399.603 25.3511 397.533 25.3511C395.462 25.3511 393.774 26.9935 393.774 29.0175C393.774 31.0414 395.462 32.6839 397.533 32.6839ZM397.533 28.5301C397.851 28.5301 398.106 28.7526 398.106 29.0175C398.106 29.2824 397.851 29.505 397.533 29.505C397.214 29.505 396.959 29.2824 396.959 29.0175C396.959 28.7526 397.214 28.5301 397.533 28.5301Z" fill="#E9EEF1"/>
<path d="M210.429 326.273C212.022 326.4 213.392 325.945 214.496 324.927C216.534 323.041 217.192 319.672 217.405 317.658C221.62 325.923 231.462 336.298 237.949 336.298C238.469 336.298 238.957 336.234 239.424 336.096C242.61 335.164 244.69 333.659 245.604 331.614C247.09 328.308 245.211 324.376 243.979 321.78C243.544 320.869 243.002 319.735 243.045 319.513C243.045 319.513 243.119 319.491 243.342 319.534C244.011 319.661 245.858 320.636 248.183 321.865C255.817 325.881 270.012 333.373 277.975 330.024C281.319 328.615 283.262 326.602 283.729 324.027C284.982 317.192 275.745 308.439 271.307 304.232L271.297 304.222C275.873 307.157 284.823 312.773 290.004 310.929C291.586 310.368 292.69 309.16 293.284 307.337C295.535 300.449 286.904 296.126 281.192 293.275C278.898 292.131 276.52 290.944 276.446 290.277C276.446 290.255 276.435 290.171 276.594 290.033C277.667 289.111 281.616 290.319 285.438 291.474C290.556 293.021 296.342 294.78 299.304 293.085C300.239 292.555 300.844 291.707 301.109 290.573C302.935 282.795 290.842 276.84 284.196 274.784C282.434 274.244 276.648 272.601 275.926 274.445L276.701 274.753C276.86 274.329 279.228 274.127 283.941 275.59C290.333 277.571 301.98 283.219 300.292 290.393C300.079 291.304 299.612 291.951 298.88 292.375C296.236 293.89 290.62 292.195 285.672 290.69C281.085 289.302 277.465 288.2 276.042 289.408C275.628 289.757 275.575 290.139 275.607 290.383C275.735 291.442 277.476 292.364 280.809 294.028C286.596 296.921 294.516 300.884 292.488 307.093C291.968 308.683 291.065 309.679 289.728 310.156C284.801 311.904 275.416 305.885 271.413 303.31C269.248 301.912 269.014 301.774 268.695 302.134C268.409 302.452 268.717 302.812 268.918 303.045C269.226 303.406 269.863 304.01 270.745 304.847C274.737 308.63 284.09 317.499 282.922 323.889C282.508 326.178 280.735 327.979 277.667 329.272C270.076 332.462 256.104 325.097 248.597 321.144C246.018 319.788 244.308 318.887 243.523 318.728C243.331 318.697 242.758 318.58 242.44 318.983C242.004 319.544 242.472 320.519 243.247 322.151C244.414 324.61 246.187 328.34 244.86 331.285C244.053 333.087 242.153 334.443 239.212 335.301C232.969 337.124 221.269 324.472 217.49 315.857L216.693 314.034V316.016C216.693 316.069 216.662 321.801 213.944 324.313C213.02 325.171 211.863 325.553 210.504 325.447C210.376 325.436 197.339 324.111 189.312 296.751C182.868 274.795 189.259 245.474 189.323 245.177L188.505 244.997C188.442 245.294 182.008 274.827 188.516 296.984C196.691 324.885 210.291 326.263 210.429 326.273Z" fill="#E9EEF1"/>
<path d="M179.545 134.591C176.986 134.591 174.905 136.615 174.905 139.116C174.905 141.606 176.986 143.641 179.545 143.641C182.104 143.641 184.185 141.617 184.185 139.116C184.195 136.615 182.104 134.591 179.545 134.591ZM179.545 140.451C178.738 140.451 178.09 139.847 178.09 139.106C178.09 138.364 178.749 137.76 179.545 137.76C180.352 137.76 180.999 138.364 180.999 139.106C180.999 139.847 180.352 140.451 179.545 140.451Z" fill="#E9EEF1"/>
<path d="M191.235 360.712C184.556 360.977 176.87 364.241 172.941 368.479C171.062 370.514 170.16 372.601 170.245 374.721C170.553 382.117 182.847 387.066 191.5 387.066C191.787 387.066 192.063 387.066 192.339 387.055C197.499 386.854 202.202 384.84 205.26 381.534C207.51 379.108 208.625 376.236 208.498 373.248C208.2 365.968 200.471 360.362 191.235 360.712ZM204.654 380.952C201.745 384.099 197.244 386.017 192.307 386.207C183.197 386.578 171.36 381.206 171.083 374.678C171.009 372.803 171.837 370.906 173.557 369.041C177.284 365.014 184.896 361.793 191.266 361.539C200.004 361.199 207.394 366.455 207.68 373.258C207.797 376.024 206.746 378.684 204.654 380.952Z" fill="#E9EEF1"/>
<path d="M553.56 364.559C545.321 363.552 532.389 367.515 531.391 375.049C531.105 377.179 531.859 379.468 533.568 381.672C536.976 386.059 543.93 389.8 550.12 390.552C550.916 390.647 551.712 390.7 552.498 390.7C560.259 390.7 566.863 386.017 567.723 379.5C568.126 376.501 567.234 373.407 565.217 370.811C562.584 367.42 558.337 365.142 553.56 364.559ZM566.895 379.394C566.003 386.112 558.528 390.753 550.215 389.726C544.227 388.994 537.507 385.392 534.226 381.153C532.634 379.108 531.965 377.084 532.22 375.155C532.984 369.359 542.561 365.226 550.778 365.226C551.691 365.226 552.594 365.279 553.454 365.385C558.008 365.947 562.053 368.109 564.548 371.33C566.438 373.746 567.266 376.618 566.895 379.394Z" fill="#E9EEF1"/>
</g>
</mask>
<g mask="url(#mask0_6992_96426)">
<path d="M515.887 500H20C8.95431 500 0 491.046 0 480V20C0 8.95431 8.95429 0 20 0H535C546.046 0 555 8.9543 555 20V459.791C555 464.902 553.043 469.819 549.531 473.533L530.418 493.742C526.64 497.737 521.385 500 515.887 500Z" fill="#E9EEF1"/>
<path d="M515.887 499.5H20C9.23045 499.5 0.5 490.77 0.5 480V20C0.5 9.23045 9.23044 0.5 20 0.5H535C545.77 0.5 554.5 9.23044 554.5 20V459.791C554.5 464.774 552.592 469.569 549.168 473.189L530.055 493.399C526.372 497.293 521.247 499.5 515.887 499.5Z" stroke="url(#paint0_linear_6992_96426)" stroke-opacity="0.5"/>
</g>
<defs>
<linearGradient id="paint0_linear_6992_96426" x1="277.5" y1="1.25" x2="277.5" y2="500" gradientUnits="userSpaceOnUse">
<stop stop-color="#E9EEF1"/>
<stop offset="1" stop-color="#1E1E1E"/>
</linearGradient>
<clipPath id="clip0_6992_96426">
<rect width="555" height="500" fill="white"/>
</clipPath>
</defs>
</svg>
