<svg width="835" height="774" viewBox="0 0 835 774" fill="none" xmlns="http://www.w3.org/2000/svg">
<g clip-path="url(#clip0_2041_15629)">
<path d="M744.097 235.951C740.046 340.927 678.528 434.373 545.897 519.461C508.117 543.7 478.267 552.763 457.328 554.118C429.781 555.902 417.021 548.918 407.225 544.495C363.132 524.597 237.043 465.537 183.538 417.636C169.715 405.258 165.806 397.702 165.522 382.697C162.517 224.969 193.199 65.9914 196.553 49.2727C200.556 29.3093 214.569 24.3155 214.569 24.3155C216.571 23.3144 346.699 -43.566 573.928 53.2654C573.922 53.2654 748.101 132.13 744.097 235.951Z" stroke="#E9EEF1" stroke-width="3" stroke-miterlimit="10"/>
<path d="M165.516 337.777C165.516 337.777 337.044 452.128 450.697 487.938C458.444 490.382 466.829 489.793 474.175 486.324C518.699 465.283 681.841 381.531 742.095 257.917" stroke="#E9EEF1" stroke-width="3" stroke-miterlimit="10"/>
<path d="M314.664 2.3557C314.664 2.3557 457.806 -7.62601 545.897 52.2702C607.007 93.8223 583.328 117.119 563.092 127.489C554.158 132.071 516.898 147.199 491.843 161.08C482.832 166.073 476.72 208.103 472.823 236.947C465.814 288.857 447.691 467.969 455.805 489.51" stroke="#E9EEF1" stroke-width="3" stroke-miterlimit="10"/>
<path d="M573.426 53.2651C636.491 90.701 611.466 132.129 567.922 151.598C558.876 155.644 534.92 165.066 509.865 178.051C500.854 182.721 499.744 222.448 495.852 249.431C488.843 297.979 470.721 464.376 478.834 484.528" stroke="#E9EEF1" stroke-miterlimit="10"/>
<path d="M198.708 41.2871C198.708 41.2871 302.157 106.672 485.341 171.562" stroke="#E9EEF1" stroke-miterlimit="10"/>
<path d="M206.213 29.8037C206.213 29.8037 309.663 95.1883 492.847 160.078" stroke="#E9EEF1" stroke-miterlimit="10"/>
<path d="M245.594 388.186V410.74C245.594 413.785 247.2 416.605 249.816 418.166C265.936 427.783 323.959 462.033 349.568 472.35C352.503 473.534 355.704 471.39 355.704 468.234V448.082" stroke="#E9EEF1" stroke-width="3" stroke-miterlimit="10"/>
<path d="M310.076 441.904L290.725 431.31C288.753 430.232 287.141 427.736 287.141 425.769V424.438C287.141 422.471 288.753 421.747 290.725 422.824L310.076 433.418C312.048 434.496 313.66 436.993 313.66 438.96V440.291C313.666 442.258 312.048 442.982 310.076 441.904Z" stroke="#E9EEF1" stroke-miterlimit="10"/>
<path d="M224.867 87.427C221.915 85.9076 218.33 87.6743 217.752 90.9309C213.943 112.467 203.267 179.753 200.391 205.382C197.929 227.365 193.388 285.224 192.23 306.395C191.959 311.412 194.522 316.158 198.879 318.702C218.177 329.968 271.623 361.02 293.016 371.773C319.435 385.053 393.867 420.121 417.812 431.375C421.379 433.053 425.518 430.586 425.707 426.664C426.646 407.248 429.392 356.592 434.594 307.979C438.887 267.881 446.959 224.221 450.597 205.523C451.665 200.035 448.807 194.54 443.682 192.238C421.432 182.244 363.002 155.95 340.652 145.539C314.316 133.26 245.523 98.0329 224.867 87.427Z" stroke="#E9EEF1" stroke-width="3" stroke-miterlimit="10"/>
<path d="M224.578 87.209C216.571 83.2163 210.807 88.6106 210.229 91.8671C206.42 113.403 195.549 180.048 192.384 209.375C190.01 231.364 185.381 289.217 184.223 310.387C183.952 315.405 186.514 320.151 190.872 322.695C210.17 333.96 263.616 365.013 285.009 375.766C311.428 389.045 391.824 425.686 415.769 436.94C419.336 438.618 425.778 435.609 425.778 426.958" stroke="#E9EEF1" stroke-width="3" stroke-miterlimit="10"/>
<path d="M601.953 480.029C602.372 478.781 602.685 468.087 602.726 460.113C602.803 445.762 610.497 432.535 622.957 425.357C643.701 413.408 674.838 393.021 689.399 371.167C690.882 368.947 694.354 370.289 693.964 372.928L693.545 384.193" stroke="#E9EEF1" stroke-miterlimit="10"/>
<path d="M417.151 532.659L394.735 522.441C382.589 516.906 373.359 502.366 374.222 490.135C375.084 477.903 385.73 472.427 397.877 477.962L420.292 488.18C432.439 493.715 441.668 508.255 440.806 520.486C439.944 532.717 429.297 538.194 417.151 532.659Z" stroke="#E9EEF1" stroke-width="3" stroke-miterlimit="10"/>
<path d="M204.826 421.652L188.386 410.905C179.482 405.081 173.441 390.364 174.976 378.198C176.505 366.031 185.05 360.843 193.955 366.662L210.394 377.409C219.299 383.233 225.34 397.949 223.804 410.116C222.275 422.282 213.736 427.47 204.826 421.652Z" stroke="#E9EEF1" stroke-width="3" stroke-miterlimit="10"/>
<path d="M242.771 445.879L233.37 440.303C228.274 437.282 224.991 431.157 226.066 426.687C227.141 422.218 232.189 421.034 237.285 424.055L246.686 429.632C251.782 432.653 255.065 438.777 253.991 443.247C252.916 447.711 247.867 448.9 242.771 445.879Z" stroke="#E9EEF1" stroke-miterlimit="10"/>
<path d="M360.563 502.496C363.278 500.368 363.125 495.655 360.22 491.97C357.316 488.286 352.761 487.024 350.045 489.153C347.33 491.281 347.483 495.994 350.388 499.678C353.292 503.363 357.847 504.625 360.563 502.496Z" stroke="#E9EEF1" stroke-miterlimit="10"/>
<path d="M350.366 488.998C353.979 486.166 359.241 486.831 362.116 490.482C364.992 494.133 364.396 499.386 360.788 502.219" stroke="#E9EEF1" stroke-miterlimit="10"/>
<path d="M461.81 489.51C461.81 489.51 460.05 533.654 444.792 542.917C433.283 549.907 420.227 543.176 385.234 528.442C302.399 493.568 169.13 418.131 167.016 395.676" stroke="#E9EEF1" stroke-miterlimit="10"/>
<path d="M392.409 513.525C387.272 510.681 383.067 504.156 383.067 499.033V487.785C383.067 482.662 387.272 480.795 392.409 483.645C397.546 486.489 401.751 493.014 401.751 498.138V509.386C401.751 514.509 397.546 516.37 392.409 513.525Z" stroke="#E9EEF1" stroke-miterlimit="10"/>
<path d="M222.121 447.128C222.121 447.128 219.618 453.994 230.719 461.273C261.632 481.537 352.84 527.146 360.014 530.721C371.358 536.38 375.727 537.093 381.396 533.1" stroke="#E9EEF1" stroke-width="3" stroke-miterlimit="10"/>
<path d="M197.899 429.579C197.899 429.579 189.561 460.495 207.884 472.532C263.952 509.368 325.541 537.134 364.62 556.096C374.871 561.072 389.628 565.966 410.431 546.415" stroke="#E9EEF1" stroke-width="3" stroke-miterlimit="10"/>
<path d="M541.101 671.441C541.101 691.563 518.018 707.875 489.55 707.875C469.834 707.875 452.703 700.049 444.029 688.554C440.179 683.448 438 677.624 438 671.435C438 651.312 461.083 635 489.55 635C518.018 635 541.101 651.318 541.101 671.441Z" stroke="#E9EEF1" stroke-width="3" stroke-miterlimit="10"/>
<path d="M442.334 685.916C449.007 698.559 480.345 711.574 489.048 686.917C495.39 668.95 506.067 668.614 523.752 675.269C541.851 682.082 541.101 671.441 541.101 671.441" stroke="#E9EEF1" stroke-miterlimit="10"/>
<path d="M303.226 692.454L8.09571 523.654C1.80692 520.062 -2.31475 508.525 4.13348 504.479L90.0331 459.73C96.4813 455.684 106.904 455.319 113.192 458.911L410.472 618.872C415.94 624.325 414.476 637.557 408.028 641.603L326.385 691.635C319.937 695.681 309.692 696.511 303.403 692.913L303.226 692.454Z" fill="#021B1B" stroke="#E9EEF1" stroke-width="3" stroke-miterlimit="10"/>
<path d="M300.729 685.317L5.60402 516.523C-0.684775 512.924 -0.548961 506.676 5.89927 502.631L90.0333 449.86C96.4815 445.814 106.904 445.449 113.193 449.041L408.323 617.841C414.612 621.439 414.476 627.688 408.028 631.733L323.894 684.504C317.44 688.544 307.017 688.915 300.729 685.317Z" fill="#021B1B" stroke="#E9EEF1" stroke-width="3" stroke-miterlimit="10"/>
<path d="M327.112 601.005L337.634 607.017C338.13 607.3 338.75 607.441 339.376 607.441C340.05 607.441 340.723 607.276 341.236 606.958L351.375 600.598C351.954 600.233 352.285 599.697 352.273 599.126C352.261 598.549 351.907 598.019 351.299 597.678L340.776 591.659C339.748 591.07 338.166 591.1 337.174 591.724L327.035 598.084C326.456 598.449 326.126 598.985 326.137 599.556C326.149 600.127 326.504 600.657 327.112 601.005Z" fill="#021B1B" stroke="#E9EEF1" stroke-width="3" stroke-miterlimit="10"/>
<path d="M341.921 608.578C341.933 609.155 342.288 609.685 342.896 610.027L353.418 616.045C353.914 616.328 354.534 616.469 355.16 616.469C355.834 616.469 356.507 616.304 357.02 615.98L367.159 609.62C367.738 609.255 368.069 608.719 368.057 608.148C368.045 607.571 367.691 607.041 367.083 606.699L356.56 600.681C355.532 600.092 353.956 600.122 352.958 600.746L342.819 607.106C342.234 607.471 341.91 608.007 341.921 608.578Z" fill="#021B1B" stroke="#E9EEF1" stroke-width="3" stroke-miterlimit="10"/>
<path d="M357.705 617.606C357.717 618.183 358.072 618.713 358.68 619.055L369.202 625.073C369.698 625.356 370.318 625.497 370.944 625.497C371.618 625.497 372.291 625.332 372.804 625.014L382.943 618.654C383.522 618.289 383.853 617.753 383.841 617.182C383.829 616.605 383.475 616.075 382.866 615.727L372.344 609.715C371.316 609.126 369.734 609.155 368.742 609.779L358.603 616.14C358.018 616.499 357.694 617.035 357.705 617.606Z" fill="#021B1B" stroke="#E9EEF1" stroke-width="3" stroke-miterlimit="10"/>
<path d="M398.645 624.755L388.122 618.742C387.095 618.153 385.512 618.183 384.52 618.807L374.381 625.167C373.802 625.532 373.472 626.068 373.484 626.639C373.495 627.216 373.85 627.746 374.458 628.088L384.981 634.106C385.477 634.389 386.097 634.53 386.722 634.53C387.396 634.53 388.069 634.365 388.583 634.047L398.721 627.687C399.3 627.322 399.625 626.786 399.619 626.215C399.607 625.626 399.253 625.096 398.645 624.755Z" fill="#021B1B" stroke="#E9EEF1" stroke-width="3" stroke-miterlimit="10"/>
<path d="M312.332 610.274L322.854 616.292C323.35 616.575 323.97 616.716 324.596 616.716C325.269 616.716 325.943 616.551 326.456 616.233L336.595 609.873C337.174 609.508 337.505 608.972 337.493 608.401C337.481 607.824 337.127 607.294 336.518 606.947L325.996 600.928C324.968 600.339 323.386 600.369 322.394 600.993L312.255 607.353C311.676 607.718 311.346 608.254 311.357 608.825C311.369 609.396 311.723 609.926 312.332 610.274Z" fill="#021B1B" stroke="#E9EEF1" stroke-width="3" stroke-miterlimit="10"/>
<path d="M340.374 625.738C341.048 625.738 341.721 625.574 342.234 625.25L352.373 618.89C352.952 618.524 353.283 617.989 353.271 617.417C353.259 616.84 352.905 616.31 352.296 615.969L341.774 609.95C340.746 609.367 339.164 609.391 338.172 610.015L328.033 616.375C327.454 616.74 327.124 617.276 327.135 617.847C327.147 618.424 327.502 618.954 328.11 619.296L338.632 625.314C339.128 625.597 339.748 625.738 340.374 625.738Z" fill="#021B1B" stroke="#E9EEF1" stroke-width="3" stroke-miterlimit="10"/>
<path d="M356.158 634.766C356.832 634.766 357.505 634.601 358.018 634.283L368.157 627.923C368.736 627.558 369.067 627.022 369.055 626.451C369.043 625.873 368.689 625.343 368.081 625.002L357.558 618.983C356.53 618.4 354.948 618.424 353.956 619.048L343.817 625.408C343.238 625.773 342.908 626.309 342.919 626.88C342.931 627.458 343.286 627.988 343.894 628.335L354.416 634.348C354.912 634.624 355.532 634.766 356.158 634.766Z" fill="#021B1B" stroke="#E9EEF1" stroke-width="3" stroke-miterlimit="10"/>
<path d="M383.864 634.024L373.342 628.012C372.314 627.423 370.738 627.452 369.74 628.076L359.601 634.436C359.022 634.801 358.692 635.337 358.703 635.909C358.715 636.486 359.069 637.016 359.678 637.357L370.2 643.376C370.696 643.658 371.316 643.8 371.942 643.8C372.616 643.8 373.289 643.635 373.802 643.317L383.941 636.957C384.52 636.592 384.845 636.056 384.839 635.485C384.827 634.896 384.473 634.372 383.864 634.024Z" fill="#021B1B" stroke="#E9EEF1" stroke-width="3" stroke-miterlimit="10"/>
<path d="M297.551 619.543L308.074 625.562C308.57 625.844 309.19 625.986 309.816 625.986C310.489 625.986 311.162 625.821 311.676 625.497L321.815 619.137C322.394 618.772 322.724 618.236 322.713 617.665C322.701 617.088 322.346 616.558 321.738 616.21L311.216 610.198C310.188 609.609 308.606 609.638 307.614 610.262L297.475 616.622C296.896 616.988 296.565 617.523 296.577 618.095C296.589 618.672 296.943 619.196 297.551 619.543Z" fill="#021B1B" stroke="#E9EEF1" stroke-width="3" stroke-miterlimit="10"/>
<path d="M323.398 619.29L313.259 625.65C312.68 626.015 312.349 626.551 312.361 627.122C312.373 627.699 312.727 628.229 313.335 628.571L323.858 634.589C324.354 634.872 324.974 635.013 325.6 635.013C326.273 635.013 326.946 634.848 327.46 634.524L337.599 628.164C338.178 627.799 338.508 627.263 338.497 626.692C338.485 626.115 338.13 625.585 337.522 625.243L327 619.225C325.972 618.636 324.39 618.666 323.398 619.29Z" fill="#021B1B" stroke="#E9EEF1" stroke-width="3" stroke-miterlimit="10"/>
<path d="M341.378 644.035C342.051 644.035 342.725 643.87 343.238 643.552L353.377 637.192C353.956 636.827 354.287 636.291 354.275 635.72C354.263 635.143 353.909 634.613 353.3 634.265L342.778 628.253C341.75 627.664 340.168 627.693 339.176 628.318L329.037 634.678C328.458 635.043 328.127 635.579 328.139 636.15C328.151 636.727 328.505 637.257 329.114 637.599L339.636 643.617C340.132 643.894 340.752 644.035 341.378 644.035Z" fill="#021B1B" stroke="#E9EEF1" stroke-width="3" stroke-miterlimit="10"/>
<path d="M369.084 643.293L358.562 637.275C357.534 636.686 355.952 636.715 354.96 637.34L344.821 643.7C344.242 644.065 343.911 644.601 343.923 645.172C343.935 645.749 344.289 646.279 344.898 646.62L355.42 652.639C355.916 652.922 356.536 653.063 357.162 653.063C357.835 653.063 358.509 652.898 359.022 652.58L369.161 646.22C369.74 645.855 370.07 645.319 370.059 644.748C370.047 644.171 369.693 643.641 369.084 643.293Z" fill="#021B1B" stroke="#E9EEF1" stroke-width="3" stroke-miterlimit="10"/>
<path d="M282.771 628.818L293.294 634.83C293.79 635.113 294.41 635.254 295.036 635.254C295.709 635.254 296.382 635.09 296.896 634.772L307.035 628.412C307.614 628.046 307.944 627.511 307.932 626.939C307.921 626.362 307.566 625.832 306.958 625.491L296.435 619.472C295.408 618.889 293.825 618.913 292.833 619.537L282.695 625.897C282.116 626.262 281.785 626.798 281.797 627.369C281.809 627.94 282.163 628.47 282.771 628.818Z" fill="#021B1B" stroke="#E9EEF1" stroke-width="3" stroke-miterlimit="10"/>
<path d="M308.617 628.559L298.479 634.919C297.9 635.284 297.569 635.82 297.581 636.391C297.593 636.968 297.947 637.498 298.555 637.84L309.078 643.858C309.574 644.141 310.194 644.282 310.82 644.282C311.493 644.282 312.166 644.117 312.68 643.794L322.819 637.434C323.398 637.068 323.728 636.533 323.716 635.961C323.705 635.384 323.35 634.854 322.742 634.513L312.219 628.494C311.192 627.911 309.609 627.935 308.617 628.559Z" fill="#021B1B" stroke="#E9EEF1" stroke-width="3" stroke-miterlimit="10"/>
<path d="M326.598 653.304C327.271 653.304 327.944 653.139 328.458 652.821L338.597 646.461C339.176 646.096 339.506 645.56 339.495 644.989C339.483 644.412 339.128 643.882 338.52 643.534L327.998 637.522C326.97 636.933 325.388 636.962 324.395 637.587L314.257 643.947C313.678 644.312 313.347 644.848 313.359 645.419C313.371 645.996 313.725 646.526 314.333 646.868L324.856 652.886C325.352 653.163 325.972 653.304 326.598 653.304Z" fill="#021B1B" stroke="#E9EEF1" stroke-width="3" stroke-miterlimit="10"/>
<path d="M354.304 652.562L343.782 646.55C342.754 645.961 341.172 645.99 340.18 646.614L330.041 652.974C329.462 653.34 329.131 653.875 329.143 654.447C329.155 655.024 329.509 655.554 330.117 655.895L340.64 661.914C341.136 662.197 341.756 662.338 342.382 662.338C343.055 662.338 343.728 662.173 344.242 661.855L354.381 655.495C354.96 655.13 355.284 654.594 355.278 654.023C355.267 653.44 354.912 652.91 354.304 652.562Z" fill="#021B1B" stroke="#E9EEF1" stroke-width="3" stroke-miterlimit="10"/>
<path d="M267.985 638.087L278.508 644.106C279.004 644.389 279.624 644.53 280.25 644.53C280.923 644.53 281.596 644.365 282.11 644.047L292.249 637.687C292.828 637.322 293.158 636.786 293.146 636.215C293.135 635.638 292.78 635.108 292.172 634.76L281.649 628.742C280.622 628.159 279.039 628.182 278.047 628.807L267.909 635.166C267.33 635.532 266.999 636.067 267.011 636.639C267.029 637.21 267.383 637.74 267.985 638.087Z" fill="#021B1B" stroke="#E9EEF1" stroke-width="3" stroke-miterlimit="10"/>
<path d="M296.034 653.552C296.707 653.552 297.38 653.387 297.894 653.063L308.033 646.703C308.612 646.338 308.942 645.802 308.93 645.231C308.919 644.654 308.564 644.124 307.956 643.782L297.433 637.764C296.406 637.175 294.823 637.204 293.831 637.828L283.693 644.188C283.114 644.553 282.783 645.089 282.795 645.661C282.807 646.238 283.161 646.768 283.769 647.109L294.292 653.128C294.788 653.41 295.408 653.552 296.034 653.552Z" fill="#021B1B" stroke="#E9EEF1" stroke-width="3" stroke-miterlimit="10"/>
<path d="M299.553 656.137L310.076 662.149C310.572 662.432 311.192 662.573 311.818 662.573C312.491 662.573 313.164 662.408 313.678 662.09L323.817 655.73C324.395 655.365 324.726 654.829 324.714 654.258C324.703 653.681 324.348 653.151 323.74 652.803L313.217 646.785C312.19 646.196 310.607 646.226 309.615 646.85L299.477 653.21C298.898 653.575 298.567 654.111 298.579 654.682C298.591 655.259 298.945 655.789 299.553 656.137Z" fill="#021B1B" stroke="#E9EEF1" stroke-width="3" stroke-miterlimit="10"/>
<path d="M339.524 661.831L329.001 655.819C327.974 655.23 326.397 655.259 325.399 655.883L315.261 662.244C314.682 662.609 314.351 663.145 314.363 663.716C314.375 664.293 314.729 664.823 315.337 665.164L325.86 671.183C326.356 671.466 326.976 671.607 327.602 671.607C328.275 671.607 328.948 671.442 329.462 671.124L339.601 664.764C340.179 664.399 340.504 663.863 340.498 663.292C340.481 662.709 340.126 662.179 339.524 661.831Z" fill="#021B1B" stroke="#E9EEF1" stroke-width="3" stroke-miterlimit="10"/>
<path d="M278.366 645.478C278.354 644.901 278 644.371 277.392 644.029L266.869 638.011C265.842 637.422 264.259 637.451 263.267 638.075L253.128 644.435C252.55 644.8 252.219 645.336 252.231 645.908C252.243 646.485 252.597 647.015 253.205 647.356L263.728 653.375C264.224 653.657 264.844 653.799 265.47 653.799C266.143 653.799 266.816 653.634 267.33 653.31L277.469 646.95C278.047 646.585 278.378 646.049 278.366 645.478Z" fill="#021B1B" stroke="#E9EEF1" stroke-width="3" stroke-miterlimit="10"/>
<path d="M294.15 654.506C294.138 653.929 293.784 653.398 293.176 653.057L282.653 647.038C281.626 646.45 280.043 646.479 279.051 647.103L268.912 653.463C268.334 653.828 268.003 654.364 268.015 654.936C268.027 655.513 268.381 656.043 268.989 656.384L279.512 662.403C280.008 662.685 280.628 662.827 281.254 662.827C281.927 662.827 282.6 662.662 283.114 662.338L293.253 655.978C293.831 655.607 294.156 655.071 294.15 654.506Z" fill="#021B1B" stroke="#E9EEF1" stroke-width="3" stroke-miterlimit="10"/>
<path d="M309.928 663.528C309.917 662.95 309.562 662.42 308.954 662.073L298.431 656.06C297.404 655.472 295.821 655.501 294.829 656.125L284.69 662.485C284.112 662.85 283.781 663.386 283.793 663.957C283.805 664.535 284.159 665.065 284.767 665.406L295.29 671.425C295.786 671.707 296.406 671.849 297.032 671.849C297.705 671.849 298.378 671.684 298.892 671.366L309.031 665.006C309.615 664.635 309.94 664.099 309.928 663.528Z" fill="#021B1B" stroke="#E9EEF1" stroke-width="3" stroke-miterlimit="10"/>
<path d="M324.744 671.106L314.221 665.088C313.194 664.499 311.611 664.528 310.619 665.153L300.48 671.513C299.902 671.878 299.571 672.414 299.583 672.985C299.595 673.562 299.949 674.092 300.557 674.433L311.08 680.452C311.576 680.735 312.196 680.876 312.822 680.876C313.495 680.876 314.168 680.711 314.682 680.393L324.821 674.033C325.399 673.668 325.73 673.132 325.718 672.561C325.7 671.978 325.346 671.448 324.744 671.106Z" fill="#021B1B" stroke="#E9EEF1" stroke-width="3" stroke-miterlimit="10"/>
<path d="M93.2572 461.102L104.193 467.356C104.713 467.651 105.356 467.798 106.012 467.798C106.762 467.798 107.524 467.609 108.12 467.232L112.643 464.394C113.334 463.958 113.724 463.322 113.712 462.645C113.7 461.991 113.31 461.397 112.649 461.02L101.713 454.766C100.597 454.13 98.9083 454.183 97.7804 454.889L93.2572 457.728C92.5663 458.164 92.1766 458.8 92.1884 459.477C92.2061 460.13 92.5899 460.719 93.2572 461.102Z" fill="#021B1B" stroke="#E9EEF1" stroke-width="3" stroke-miterlimit="10"/>
<path d="M108.51 468.805C108.522 469.459 108.911 470.053 109.573 470.43L120.509 476.684C121.028 476.979 121.672 477.126 122.327 477.126C123.077 477.126 123.839 476.937 124.435 476.561L128.959 473.722C129.65 473.286 130.039 472.65 130.027 471.973C130.016 471.319 129.626 470.725 128.965 470.348L118.029 464.094C116.918 463.458 115.224 463.511 114.096 464.217L109.573 467.056C108.888 467.486 108.498 468.128 108.51 468.805Z" fill="#021B1B" stroke="#E9EEF1" stroke-width="3" stroke-miterlimit="10"/>
<path d="M124.825 478.133C124.837 478.787 125.227 479.381 125.888 479.758L136.824 486.012C137.344 486.307 137.987 486.454 138.643 486.454C139.393 486.454 140.154 486.26 140.751 485.889L145.274 483.05C145.965 482.614 146.355 481.978 146.343 481.301C146.331 480.648 145.941 480.053 145.28 479.676L134.344 473.422C133.228 472.786 131.539 472.839 130.411 473.546L125.888 476.384C125.203 476.82 124.813 477.456 124.825 478.133Z" fill="#021B1B" stroke="#E9EEF1" stroke-width="3" stroke-miterlimit="10"/>
<path d="M141.147 487.467C141.158 488.121 141.548 488.715 142.209 489.092L153.145 495.346C153.665 495.641 154.309 495.788 154.964 495.788C155.714 495.788 156.47 495.6 157.072 495.223L161.595 492.384C162.286 491.948 162.676 491.312 162.664 490.635C162.652 489.982 162.263 489.387 161.601 489.01L150.665 482.756C149.555 482.12 147.86 482.173 146.733 482.88L142.209 485.718C141.519 486.148 141.129 486.79 141.147 487.467Z" fill="#021B1B" stroke="#E9EEF1" stroke-width="3" stroke-miterlimit="10"/>
<path d="M157.462 496.795C157.474 497.448 157.863 498.043 158.525 498.42L169.461 504.68C169.98 504.974 170.624 505.122 171.28 505.122C172.03 505.122 172.791 504.933 173.388 504.556L177.911 501.718C178.602 501.282 178.991 500.646 178.98 499.969C178.968 499.315 178.578 498.72 177.917 498.343L166.981 492.089C165.871 491.453 164.176 491.506 163.048 492.213L158.525 495.051C157.834 495.481 157.45 496.117 157.462 496.795Z" fill="#021B1B" stroke="#E9EEF1" stroke-width="3" stroke-miterlimit="10"/>
<path d="M173.777 506.129C173.789 506.782 174.179 507.377 174.84 507.754L185.776 514.008C186.296 514.302 186.94 514.45 187.595 514.45C188.345 514.45 189.107 514.261 189.703 513.884L194.226 511.046C194.917 510.61 195.307 509.974 195.295 509.297C195.283 508.643 194.894 508.048 194.232 507.672L183.296 501.417C182.18 500.781 180.491 500.834 179.363 501.541L174.84 504.38C174.155 504.809 173.766 505.451 173.777 506.129Z" fill="#021B1B" stroke="#E9EEF1" stroke-width="3" stroke-miterlimit="10"/>
<path d="M190.099 515.457C190.111 516.11 190.5 516.705 191.162 517.082L202.098 523.336C202.617 523.631 203.261 523.778 203.916 523.778C204.666 523.778 205.428 523.583 206.024 523.212L210.548 520.374C211.239 519.938 211.628 519.302 211.616 518.625C211.605 517.971 211.215 517.377 210.554 517L199.618 510.746C198.501 510.11 196.813 510.163 195.685 510.869L191.162 513.708C190.471 514.144 190.081 514.78 190.099 515.457Z" fill="#021B1B" stroke="#E9EEF1" stroke-width="3" stroke-miterlimit="10"/>
<path d="M206.414 524.791C206.426 525.444 206.816 526.039 207.477 526.416L218.413 532.67C218.933 532.965 219.576 533.112 220.232 533.112C220.982 533.112 221.743 532.923 222.34 532.546L226.863 529.708C227.554 529.272 227.944 528.636 227.932 527.959C227.92 527.305 227.53 526.711 226.869 526.334L215.933 520.08C214.823 519.444 213.128 519.497 212 520.203L207.477 523.042C206.792 523.472 206.402 524.114 206.414 524.791Z" fill="#021B1B" stroke="#E9EEF1" stroke-width="3" stroke-miterlimit="10"/>
<path d="M222.73 534.119C222.741 534.773 223.131 535.367 223.792 535.744L234.729 541.998C235.248 542.293 235.892 542.44 236.547 542.44C237.297 542.44 238.059 542.251 238.655 541.875L243.179 539.036C243.869 538.6 244.259 537.964 244.247 537.287C244.236 536.633 243.846 536.039 243.184 535.662L232.248 529.408C231.138 528.772 229.444 528.825 228.316 529.531L223.792 532.37C223.108 532.806 222.718 533.442 222.73 534.119Z" fill="#021B1B" stroke="#E9EEF1" stroke-width="3" stroke-miterlimit="10"/>
<path d="M239.051 543.453C239.063 544.107 239.452 544.701 240.114 545.078L251.05 551.332C251.569 551.627 252.213 551.774 252.869 551.774C253.619 551.774 254.38 551.585 254.977 551.209L259.5 548.37C260.191 547.934 260.58 547.298 260.569 546.621C260.557 545.967 260.167 545.373 259.506 544.996L248.57 538.742C247.46 538.106 245.765 538.159 244.637 538.865L240.114 541.704C239.423 542.134 239.033 542.77 239.051 543.453Z" fill="#021B1B" stroke="#E9EEF1" stroke-width="3" stroke-miterlimit="10"/>
<path d="M255.366 552.781C255.378 553.435 255.768 554.029 256.429 554.406L267.365 560.66C267.885 560.955 268.529 561.102 269.184 561.102C269.934 561.102 270.696 560.914 271.292 560.537L275.815 557.698C276.506 557.262 276.896 556.626 276.884 555.949C276.872 555.296 276.483 554.701 275.821 554.324L264.885 548.07C263.775 547.434 262.08 547.487 260.952 548.193L256.429 551.032C255.738 551.468 255.355 552.104 255.366 552.781Z" fill="#021B1B" stroke="#E9EEF1" stroke-width="3" stroke-miterlimit="10"/>
<path d="M271.682 562.114C271.694 562.768 272.083 563.363 272.745 563.74L283.681 569.994C284.2 570.288 284.844 570.435 285.499 570.435C286.249 570.435 287.005 570.247 287.608 569.87L292.131 567.032C292.822 566.596 293.211 565.96 293.2 565.283C293.188 564.629 292.798 564.034 292.137 563.657L281.201 557.403C280.09 556.767 278.396 556.82 277.268 557.527L272.745 560.365C272.06 560.795 271.67 561.437 271.682 562.114Z" fill="#021B1B" stroke="#E9EEF1" stroke-width="3" stroke-miterlimit="10"/>
<path d="M288.003 571.443C288.015 572.096 288.405 572.691 289.066 573.068L300.002 579.322C300.522 579.616 301.165 579.764 301.821 579.764C302.571 579.764 303.327 579.575 303.929 579.198L308.452 576.36C309.143 575.924 309.533 575.288 309.521 574.611C309.509 573.957 309.119 573.362 308.458 572.985L297.522 566.731C296.406 566.095 294.717 566.148 293.589 566.855L289.066 569.694C288.375 570.129 287.985 570.765 288.003 571.443Z" fill="#021B1B" stroke="#E9EEF1" stroke-width="3" stroke-miterlimit="10"/>
<path d="M324.779 582.319L313.843 576.065C312.733 575.429 311.038 575.482 309.911 576.189L305.387 579.028C304.697 579.463 304.307 580.099 304.319 580.777C304.33 581.43 304.72 582.025 305.381 582.402L316.317 588.656C316.837 588.95 317.481 589.098 318.136 589.098C318.886 589.098 319.648 588.909 320.244 588.532L324.768 585.694C325.458 585.258 325.848 584.622 325.836 583.945C325.824 583.285 325.441 582.696 324.779 582.319Z" fill="#021B1B" stroke="#E9EEF1" stroke-width="3" stroke-miterlimit="10"/>
<path d="M77.3433 471.078L87.866 477.096C88.3856 477.391 89.0292 477.538 89.6847 477.538C90.4346 477.538 91.1964 477.35 91.7928 476.973L102.581 470.206C103.272 469.771 103.662 469.135 103.65 468.457C103.638 467.804 103.248 467.209 102.587 466.832L92.0644 460.813C90.9543 460.177 89.2595 460.23 88.1317 460.937L77.3433 467.704C76.6524 468.139 76.2627 468.775 76.2745 469.453C76.2922 470.106 76.676 470.701 77.3433 471.078Z" fill="#021B1B" stroke="#E9EEF1" stroke-width="3" stroke-miterlimit="10"/>
<path d="M61.4294 481.06L79.4632 491.371C79.9828 491.666 80.6265 491.813 81.2819 491.813C82.0319 491.813 82.7936 491.619 83.39 491.248L94.1784 484.481C94.8693 484.045 95.259 483.409 95.2472 482.732C95.2354 482.079 94.8456 481.484 94.1843 481.107L76.1505 470.795C75.0404 470.159 73.3456 470.212 72.2178 470.919L61.4294 477.685C60.7385 478.121 60.3488 478.757 60.3606 479.434C60.3783 480.088 60.7681 480.683 61.4294 481.06Z" fill="#021B1B" stroke="#E9EEF1" stroke-width="3" stroke-miterlimit="10"/>
<path d="M45.5155 491.041L67.5115 503.62C68.0312 503.914 68.6748 504.062 69.3303 504.062C70.0802 504.062 70.8419 503.873 71.4383 503.496L82.2267 496.73C82.9176 496.294 83.3073 495.658 83.2955 494.981C83.2837 494.327 82.894 493.732 82.2326 493.356L60.2366 480.777C59.1265 480.141 57.4317 480.194 56.3039 480.901L45.5155 487.667C44.8246 488.103 44.4349 488.739 44.4467 489.416C44.4644 490.07 44.8542 490.664 45.5155 491.041Z" fill="#021B1B" stroke="#E9EEF1" stroke-width="3" stroke-miterlimit="10"/>
<path d="M29.6016 501.023L59.7701 518.272C60.2897 518.566 60.9334 518.714 61.5888 518.714C62.3388 518.714 63.1005 518.525 63.6969 518.142L74.4853 511.376C75.1762 510.94 75.5659 510.304 75.5541 509.627C75.5423 508.973 75.1526 508.378 74.4912 508.002L44.3227 490.753C43.2126 490.117 41.5178 490.17 40.39 490.877L29.6016 497.643C28.9107 498.079 28.521 498.715 28.5328 499.392C28.5505 500.052 28.9403 500.646 29.6016 501.023Z" fill="#021B1B" stroke="#E9EEF1" stroke-width="3" stroke-miterlimit="10"/>
<path d="M118.371 475.854L107.848 469.835C106.732 469.199 105.044 469.252 103.916 469.959L93.1273 476.725C92.4364 477.161 92.0467 477.797 92.0585 478.474C92.0703 479.128 92.46 479.723 93.1214 480.1L103.644 486.118C104.164 486.413 104.807 486.56 105.463 486.56C106.213 486.56 106.974 486.372 107.571 485.995L118.359 479.228C119.05 478.793 119.44 478.156 119.428 477.479C119.422 476.826 119.032 476.231 118.371 475.854Z" fill="#021B1B" stroke="#E9EEF1" stroke-width="3" stroke-miterlimit="10"/>
<path d="M134.155 484.875L123.632 478.857C122.522 478.221 120.828 478.274 119.7 478.981L108.911 485.747C108.22 486.183 107.831 486.819 107.842 487.496C107.854 488.15 108.244 488.744 108.905 489.121L119.428 495.14C119.948 495.434 120.597 495.581 121.253 495.581C122.003 495.581 122.764 495.393 123.361 495.016L134.149 488.25C134.84 487.814 135.23 487.178 135.218 486.501C135.206 485.847 134.816 485.258 134.155 484.875Z" fill="#021B1B" stroke="#E9EEF1" stroke-width="3" stroke-miterlimit="10"/>
<path d="M149.939 493.903L139.416 487.885C138.306 487.249 136.612 487.302 135.484 488.008L124.695 494.775C124.004 495.211 123.615 495.847 123.626 496.524C123.638 497.177 124.028 497.772 124.689 498.149L135.212 504.168C135.732 504.462 136.375 504.609 137.031 504.609C137.781 504.609 138.542 504.421 139.145 504.038L149.933 497.272C150.624 496.836 151.014 496.2 151.002 495.523C150.99 494.875 150.6 494.28 149.939 493.903Z" fill="#021B1B" stroke="#E9EEF1" stroke-width="3" stroke-miterlimit="10"/>
<path d="M165.723 502.931L155.2 496.913C154.09 496.277 152.395 496.33 151.268 497.036L140.479 503.803C139.788 504.238 139.399 504.874 139.41 505.552C139.422 506.205 139.812 506.8 140.473 507.177L150.996 513.195C151.516 513.49 152.159 513.637 152.815 513.637C153.565 513.637 154.326 513.449 154.923 513.072L165.711 506.305C166.402 505.87 166.792 505.234 166.78 504.556C166.774 503.903 166.384 503.308 165.723 502.931Z" fill="#021B1B" stroke="#E9EEF1" stroke-width="3" stroke-miterlimit="10"/>
<path d="M181.507 511.953L170.984 505.935C169.874 505.299 168.179 505.352 167.052 506.058L156.263 512.825C155.572 513.26 155.183 513.896 155.194 514.574C155.206 515.227 155.596 515.822 156.257 516.199L166.78 522.217C167.3 522.512 167.943 522.659 168.599 522.659C169.349 522.659 170.11 522.471 170.707 522.094L181.495 515.327C182.186 514.892 182.576 514.256 182.564 513.578C182.552 512.925 182.168 512.336 181.507 511.953Z" fill="#021B1B" stroke="#E9EEF1" stroke-width="3" stroke-miterlimit="10"/>
<path d="M197.291 520.98L186.768 514.962C185.658 514.326 183.963 514.379 182.836 515.086L172.047 521.852C171.356 522.288 170.967 522.924 170.978 523.601C170.99 524.255 171.38 524.849 172.041 525.226L182.564 531.245C183.084 531.539 183.727 531.686 184.383 531.686C185.133 531.686 185.894 531.498 186.491 531.121L197.279 524.355C197.97 523.919 198.36 523.283 198.348 522.606C198.336 521.952 197.952 521.357 197.291 520.98Z" fill="#021B1B" stroke="#E9EEF1" stroke-width="3" stroke-miterlimit="10"/>
<path d="M213.075 530.002L202.552 523.99C201.442 523.354 199.747 523.407 198.62 524.113L187.831 530.88C187.14 531.316 186.751 531.952 186.762 532.629C186.774 533.282 187.164 533.877 187.825 534.254L198.348 540.273C198.868 540.567 199.511 540.714 200.167 540.714C200.917 540.714 201.678 540.52 202.275 540.149L213.063 533.383C213.754 532.947 214.144 532.311 214.132 531.634C214.12 530.974 213.736 530.385 213.075 530.002Z" fill="#021B1B" stroke="#E9EEF1" stroke-width="3" stroke-miterlimit="10"/>
<path d="M228.853 539.03L218.33 533.012C217.22 532.376 215.526 532.429 214.398 533.135L203.609 539.902C202.918 540.338 202.529 540.974 202.54 541.651C202.552 542.304 202.942 542.899 203.603 543.276L214.126 549.295C214.646 549.589 215.289 549.736 215.945 549.736C216.695 549.736 217.456 549.548 218.059 549.171L228.847 542.405C229.538 541.969 229.928 541.333 229.916 540.656C229.904 540.002 229.514 539.407 228.853 539.03Z" fill="#021B1B" stroke="#E9EEF1" stroke-width="3" stroke-miterlimit="10"/>
<path d="M244.637 548.058L234.114 542.04C233.004 541.404 231.31 541.457 230.182 542.163L219.393 548.93C218.702 549.365 218.313 550.001 218.325 550.679C218.336 551.332 218.726 551.927 219.387 552.304L229.91 558.317C230.43 558.611 231.073 558.758 231.735 558.758C232.485 558.758 233.246 558.57 233.843 558.193L244.631 551.426C245.322 550.991 245.712 550.355 245.7 549.677C245.688 549.03 245.298 548.435 244.637 548.058Z" fill="#021B1B" stroke="#E9EEF1" stroke-width="3" stroke-miterlimit="10"/>
<path d="M260.421 557.079L249.898 551.061C248.788 550.425 247.094 550.478 245.966 551.185L235.177 557.951C234.486 558.387 234.097 559.023 234.108 559.7C234.12 560.354 234.51 560.949 235.171 561.325L245.694 567.344C246.214 567.638 246.857 567.786 247.513 567.786C248.263 567.786 249.024 567.597 249.621 567.22L260.409 560.454C261.1 560.018 261.49 559.382 261.478 558.705C261.472 558.051 261.082 557.462 260.421 557.079Z" fill="#021B1B" stroke="#E9EEF1" stroke-width="3" stroke-miterlimit="10"/>
<path d="M277.268 567.733C277.256 567.079 276.866 566.484 276.205 566.107L265.682 560.095C264.566 559.459 262.877 559.512 261.75 560.218L250.961 566.985C250.27 567.421 249.881 568.057 249.892 568.734C249.904 569.387 250.294 569.982 250.955 570.359L261.478 576.372C261.998 576.666 262.641 576.813 263.297 576.813C264.047 576.813 264.808 576.625 265.405 576.248L276.193 569.482C276.89 569.052 277.28 568.41 277.268 567.733Z" fill="#021B1B" stroke="#E9EEF1" stroke-width="3" stroke-miterlimit="10"/>
<path d="M293.052 576.76C293.04 576.107 292.65 575.512 291.989 575.135L281.466 569.123C280.35 568.487 278.661 568.54 277.534 569.246L266.745 576.013C266.054 576.448 265.665 577.084 265.676 577.762C265.688 578.415 266.078 579.01 266.739 579.387L277.262 585.405C277.782 585.7 278.425 585.847 279.081 585.847C279.831 585.847 280.592 585.659 281.189 585.276L291.977 578.509C292.674 578.074 293.064 577.438 293.052 576.76Z" fill="#021B1B" stroke="#E9EEF1" stroke-width="3" stroke-miterlimit="10"/>
<path d="M83.827 492.849C83.8388 493.503 84.2285 494.098 84.8899 494.475L95.4125 500.487C95.9322 500.782 96.5758 500.929 97.2313 500.929C97.9812 500.929 98.7429 500.741 99.3393 500.364L110.128 493.597C110.819 493.162 111.208 492.526 111.197 491.848C111.185 491.195 110.795 490.6 110.134 490.223L99.611 484.21C98.5008 483.574 96.8061 483.627 95.6782 484.334L84.8899 491.1C84.199 491.536 83.8093 492.172 83.827 492.849Z" fill="#021B1B" stroke="#E9EEF1" stroke-width="3" stroke-miterlimit="10"/>
<path d="M72.9264 503.337C72.2355 503.773 71.8458 504.409 71.8576 505.086C71.8694 505.74 72.2591 506.335 72.9205 506.712L83.4431 512.73C83.9628 513.025 84.6064 513.172 85.2619 513.172C86.0118 513.172 86.7735 512.977 87.3699 512.606L98.1583 505.84C98.8492 505.404 99.2389 504.768 99.2271 504.091C99.2153 503.437 98.8256 502.843 98.1642 502.466L87.6416 496.453C86.5314 495.817 84.8367 495.87 83.7089 496.577L72.9264 503.337Z" fill="#021B1B" stroke="#E9EEF1" stroke-width="3" stroke-miterlimit="10"/>
<path d="M87.7479 514.173C87.7597 514.827 88.1494 515.422 88.8108 515.799L99.3334 521.817C99.8531 522.111 100.497 522.259 101.152 522.259C101.902 522.259 102.664 522.07 103.26 521.693L114.049 514.927C114.739 514.491 115.129 513.855 115.117 513.178C115.106 512.524 114.716 511.93 114.055 511.553L103.532 505.534C102.422 504.898 100.727 504.951 99.5991 505.658L88.8108 512.424C88.1199 512.854 87.7302 513.496 87.7479 514.173Z" fill="#021B1B" stroke="#E9EEF1" stroke-width="3" stroke-miterlimit="10"/>
<path d="M104.695 524.885L115.218 530.904C115.737 531.198 116.381 531.345 117.037 531.345C117.786 531.345 118.548 531.157 119.145 530.774L129.933 524.008C130.624 523.572 131.014 522.936 131.002 522.259C130.99 521.605 130.6 521.01 129.939 520.633L119.416 514.615C118.306 513.979 116.611 514.032 115.484 514.738L104.695 521.505C104.004 521.941 103.615 522.577 103.626 523.254C103.644 523.913 104.034 524.508 104.695 524.885Z" fill="#021B1B" stroke="#E9EEF1" stroke-width="3" stroke-miterlimit="10"/>
<path d="M120.58 533.966L131.102 539.984C131.622 540.278 132.265 540.426 132.921 540.426C133.671 540.426 134.433 540.231 135.035 539.86L145.823 533.094C146.514 532.658 146.904 532.022 146.892 531.345C146.88 530.691 146.491 530.097 145.829 529.72L135.307 523.701C134.196 523.065 132.502 523.118 131.374 523.825L120.585 530.591C119.895 531.027 119.505 531.663 119.517 532.34C119.534 533 119.918 533.589 120.58 533.966Z" fill="#021B1B" stroke="#E9EEF1" stroke-width="3" stroke-miterlimit="10"/>
<path d="M136.47 543.052L146.992 549.07C147.512 549.365 148.156 549.512 148.811 549.512C149.561 549.512 150.323 549.318 150.919 548.941L161.708 542.175C162.399 541.739 162.788 541.103 162.776 540.426C162.765 539.772 162.375 539.177 161.714 538.8L151.191 532.782C150.081 532.146 148.386 532.199 147.258 532.905L136.47 539.672C135.779 540.108 135.389 540.744 135.401 541.421C135.419 542.08 135.808 542.675 136.47 543.052Z" fill="#021B1B" stroke="#E9EEF1" stroke-width="3" stroke-miterlimit="10"/>
<path d="M152.354 552.139L162.877 558.157C163.396 558.452 164.04 558.599 164.696 558.599C165.445 558.599 166.207 558.411 166.804 558.028L177.592 551.261C178.283 550.826 178.673 550.19 178.661 549.512C178.649 548.859 178.259 548.264 177.598 547.887L167.075 541.869C165.965 541.233 164.27 541.286 163.143 541.992L152.354 548.759C151.663 549.194 151.274 549.83 151.285 550.508C151.303 551.167 151.693 551.756 152.354 552.139Z" fill="#021B1B" stroke="#E9EEF1" stroke-width="3" stroke-miterlimit="10"/>
<path d="M168.239 561.219L178.761 567.238C179.281 567.532 179.924 567.68 180.58 567.68C181.33 567.68 182.092 567.491 182.688 567.114L193.476 560.348C194.167 559.912 194.557 559.276 194.545 558.599C194.533 557.945 194.144 557.35 193.482 556.974L182.96 550.955C181.849 550.319 180.155 550.372 179.027 551.079L168.239 557.845C167.548 558.281 167.158 558.917 167.17 559.594C167.193 560.248 167.577 560.843 168.239 561.219Z" fill="#021B1B" stroke="#E9EEF1" stroke-width="3" stroke-miterlimit="10"/>
<path d="M184.129 570.306L194.651 576.325C195.171 576.619 195.815 576.767 196.47 576.767C197.22 576.767 197.982 576.572 198.578 576.195L209.367 569.429C210.058 568.993 210.447 568.357 210.435 567.68C210.424 567.026 210.034 566.431 209.373 566.055L198.85 560.036C197.734 559.4 196.045 559.453 194.917 560.16L184.129 566.926C183.438 567.362 183.048 567.998 183.06 568.675C183.078 569.335 183.467 569.93 184.129 570.306Z" fill="#021B1B" stroke="#E9EEF1" stroke-width="3" stroke-miterlimit="10"/>
<path d="M200.013 579.393L210.536 585.411C211.055 585.706 211.699 585.853 212.355 585.853C213.104 585.853 213.866 585.664 214.463 585.288L225.251 578.521C225.942 578.085 226.332 577.449 226.32 576.772C226.308 576.119 225.918 575.524 225.257 575.147L214.734 569.128C213.618 568.492 211.929 568.545 210.802 569.252L200.013 576.018C199.322 576.454 198.933 577.09 198.944 577.767C198.962 578.421 199.352 579.01 200.013 579.393Z" fill="#021B1B" stroke="#E9EEF1" stroke-width="3" stroke-miterlimit="10"/>
<path d="M215.898 588.473L226.42 594.492C226.94 594.786 227.583 594.934 228.239 594.934C228.989 594.934 229.751 594.745 230.347 594.362L241.135 587.596C241.826 587.16 242.216 586.524 242.204 585.847C242.192 585.193 241.803 584.599 241.141 584.222L230.619 578.203C229.503 577.567 227.814 577.62 226.686 578.327L215.898 585.093C215.207 585.529 214.817 586.165 214.829 586.842C214.852 587.502 215.236 588.096 215.898 588.473Z" fill="#021B1B" stroke="#E9EEF1" stroke-width="3" stroke-miterlimit="10"/>
<path d="M244.123 604.02C244.873 604.02 245.635 603.831 246.231 603.449L257.02 596.682C257.711 596.247 258.1 595.611 258.089 594.933C258.077 594.28 257.687 593.685 257.026 593.308L246.503 587.29C245.387 586.654 243.698 586.707 242.57 587.413L231.782 594.18C231.091 594.615 230.701 595.251 230.713 595.929C230.725 596.582 231.115 597.177 231.776 597.554L242.299 603.572C242.824 603.873 243.474 604.02 244.123 604.02Z" fill="#021B1B" stroke="#E9EEF1" stroke-width="3" stroke-miterlimit="10"/>
<path d="M64.1162 519.744C64.128 520.398 64.5177 520.992 65.1791 521.369L75.7017 527.388C76.2214 527.682 76.865 527.83 77.5205 527.83C78.2704 527.83 79.0321 527.641 79.6285 527.264L90.4169 520.498C91.1078 520.062 91.4975 519.426 91.4857 518.749C91.4739 518.095 91.0842 517.5 90.4228 517.123L79.9002 511.105C78.7841 510.469 77.0953 510.522 75.9674 511.229L65.1791 517.995C64.4941 518.425 64.1044 519.067 64.1162 519.744Z" fill="#021B1B" stroke="#E9EEF1" stroke-width="3" stroke-miterlimit="10"/>
<path d="M38.9964 507.86C38.9846 507.207 38.5949 506.612 37.9335 506.235L28.5741 500.882C27.4581 500.246 25.7693 500.299 24.6414 501.006L13.8531 507.772C13.1622 508.208 12.7724 508.844 12.7843 509.521C12.7961 510.175 13.1858 510.769 13.8472 511.146L23.2065 516.499C23.7262 516.794 24.3698 516.941 25.0253 516.941C25.7752 516.941 26.5369 516.752 27.1333 516.376L37.9217 509.609C38.6185 509.179 39.0082 508.537 38.9964 507.86Z" fill="#021B1B" stroke="#E9EEF1" stroke-width="3" stroke-miterlimit="10"/>
<path d="M91.4503 537.858C91.4385 537.204 91.0488 536.61 90.3874 536.233L76.6701 528.389C75.5541 527.753 73.8653 527.806 72.7374 528.512L61.9491 535.279C61.2582 535.715 60.8684 536.35 60.8803 537.028C60.8921 537.681 61.2818 538.276 61.9431 538.653L75.6604 546.497C76.18 546.792 76.8237 546.939 77.485 546.939C78.235 546.939 78.9908 546.75 79.5931 546.373L90.3815 539.607C91.0724 539.171 91.4621 538.535 91.4503 537.858Z" fill="#021B1B" stroke="#E9EEF1" stroke-width="3" stroke-miterlimit="10"/>
<path d="M72.33 526.922C72.3182 526.269 71.9284 525.674 71.2671 525.297L59.9945 518.854C58.8785 518.218 57.1896 518.271 56.0618 518.978L45.2734 525.745C44.5825 526.18 44.1928 526.816 44.2046 527.494C44.2164 528.147 44.6061 528.742 45.2675 529.119L56.5401 535.561C57.0597 535.856 57.7034 536.003 58.3588 536.003C59.1088 536.003 59.8646 535.815 60.4669 535.438L71.2553 528.671C71.958 528.241 72.3418 527.605 72.33 526.922Z" fill="#021B1B" stroke="#E9EEF1" stroke-width="3" stroke-miterlimit="10"/>
<path d="M55.6603 517.394C55.6484 516.74 55.2587 516.146 54.5974 515.769L43.3248 509.326C42.2087 508.69 40.5199 508.743 39.3921 509.45L28.6037 516.216C27.9128 516.652 27.5231 517.288 27.5349 517.965C27.5467 518.619 27.9364 519.214 28.5978 519.591L39.8704 526.033C40.39 526.327 41.0336 526.475 41.6891 526.475C42.439 526.475 43.2008 526.286 43.7972 525.909L54.5856 519.143C55.2882 518.707 55.678 518.071 55.6603 517.394Z" fill="#021B1B" stroke="#E9EEF1" stroke-width="3" stroke-miterlimit="10"/>
<path d="M81.0989 530.473L91.6215 536.492C92.1412 536.786 92.7848 536.933 93.4403 536.933C94.1902 536.933 94.9519 536.745 95.5483 536.368L106.337 529.602C107.028 529.166 107.417 528.53 107.406 527.853C107.394 527.199 107.004 526.604 106.343 526.227L95.82 520.215C94.7039 519.579 93.0151 519.632 91.8873 520.339L81.0989 527.105C80.408 527.541 80.0183 528.177 80.0301 528.854C80.0478 529.502 80.4375 530.091 81.0989 530.473Z" fill="#021B1B" stroke="#E9EEF1" stroke-width="3" stroke-miterlimit="10"/>
<path d="M97.0187 539.578L107.541 545.596C108.061 545.891 108.705 546.038 109.36 546.038C110.11 546.038 110.872 545.85 111.468 545.467L122.257 538.7C122.947 538.265 123.337 537.629 123.325 536.951C123.314 536.298 122.924 535.703 122.262 535.326L111.74 529.308C110.624 528.672 108.935 528.725 107.807 529.431L97.0187 536.198C96.3278 536.633 95.9381 537.269 95.9499 537.947C95.9676 538.606 96.3573 539.195 97.0187 539.578Z" fill="#021B1B" stroke="#E9EEF1" stroke-width="3" stroke-miterlimit="10"/>
<path d="M171.037 583.368C171.026 582.714 170.636 582.12 169.975 581.743L95.7786 539.313C94.6626 538.677 92.9738 538.73 91.8459 539.437L81.0575 546.203C80.3667 546.639 79.9769 547.275 79.9887 547.952C80.0006 548.606 80.3903 549.2 81.0516 549.577L155.248 592.007C155.767 592.301 156.411 592.449 157.066 592.449C157.816 592.449 158.578 592.26 159.174 591.883L169.963 585.117C170.665 584.687 171.055 584.051 171.037 583.368Z" fill="#021B1B" stroke="#E9EEF1" stroke-width="3" stroke-miterlimit="10"/>
<path d="M112.938 548.676L123.461 554.694C123.981 554.989 124.624 555.136 125.28 555.136C126.03 555.136 126.792 554.948 127.388 554.571L138.176 547.799C138.867 547.363 139.257 546.727 139.245 546.05C139.233 545.396 138.844 544.801 138.182 544.424L127.66 538.412C126.549 537.776 124.855 537.829 123.727 538.535L112.938 545.302C112.248 545.737 111.858 546.373 111.87 547.051C111.887 547.704 112.277 548.299 112.938 548.676Z" fill="#021B1B" stroke="#E9EEF1" stroke-width="3" stroke-miterlimit="10"/>
<path d="M128.858 557.78L139.381 563.799C139.901 564.093 140.544 564.241 141.2 564.241C141.95 564.241 142.711 564.046 143.308 563.675L154.096 556.909C154.787 556.473 155.177 555.837 155.165 555.16C155.153 554.506 154.763 553.911 154.102 553.535L143.579 547.522C142.469 546.886 140.775 546.939 139.647 547.646L128.858 554.412C128.167 554.848 127.778 555.484 127.789 556.161C127.807 556.809 128.191 557.404 128.858 557.78Z" fill="#021B1B" stroke="#E9EEF1" stroke-width="3" stroke-miterlimit="10"/>
<path d="M144.772 566.885L155.295 572.903C155.814 573.197 156.458 573.345 157.114 573.345C157.863 573.345 158.625 573.15 159.222 572.773L170.01 566.007C170.701 565.571 171.091 564.935 171.079 564.258C171.067 563.604 170.677 563.01 170.016 562.633L159.493 556.62C158.383 555.984 156.688 556.037 155.561 556.744L144.772 563.51C144.081 563.946 143.692 564.582 143.703 565.259C143.727 565.913 144.111 566.502 144.772 566.885Z" fill="#021B1B" stroke="#E9EEF1" stroke-width="3" stroke-miterlimit="10"/>
<path d="M160.692 575.983L171.215 582.002C171.734 582.296 172.378 582.443 173.039 582.443C173.789 582.443 174.551 582.255 175.147 581.878L185.936 575.112C186.627 574.676 187.016 574.04 187.005 573.363C186.993 572.709 186.603 572.114 185.942 571.737L175.419 565.719C174.309 565.083 172.614 565.136 171.486 565.842L160.698 572.609C160.007 573.045 159.617 573.681 159.629 574.358C159.641 575.017 160.031 575.606 160.692 575.983Z" fill="#021B1B" stroke="#E9EEF1" stroke-width="3" stroke-miterlimit="10"/>
<path d="M176.612 585.087L187.134 591.106C187.654 591.4 188.298 591.547 188.953 591.547C189.703 591.547 190.465 591.359 191.061 590.982L201.85 584.216C202.541 583.78 202.93 583.144 202.918 582.467C202.907 581.813 202.517 581.218 201.856 580.841L191.333 574.823C190.217 574.187 188.528 574.24 187.4 574.946L176.612 581.713C175.921 582.149 175.531 582.785 175.543 583.462C175.561 584.115 175.95 584.71 176.612 585.087Z" fill="#021B1B" stroke="#E9EEF1" stroke-width="3" stroke-miterlimit="10"/>
<path d="M190.158 594.303C190.146 593.65 189.756 593.055 189.095 592.678L175.378 584.828C174.262 584.192 172.573 584.245 171.445 584.952L160.657 591.718C159.966 592.154 159.576 592.79 159.588 593.467C159.6 594.121 159.989 594.716 160.651 595.093L174.368 602.937C174.888 603.231 175.531 603.378 176.187 603.378C176.937 603.378 177.698 603.19 178.295 602.807L189.083 596.041C189.78 595.617 190.17 594.981 190.158 594.303Z" fill="#021B1B" stroke="#E9EEF1" stroke-width="3" stroke-miterlimit="10"/>
<path d="M206.479 603.638C206.467 602.984 206.078 602.389 205.416 602.012L194.492 595.764C193.382 595.128 191.687 595.181 190.559 595.888L179.771 602.654C179.08 603.09 178.69 603.726 178.702 604.403C178.714 605.057 179.104 605.652 179.765 606.029L190.689 612.277C191.209 612.571 191.853 612.718 192.508 612.718C193.258 612.718 194.02 612.53 194.616 612.153L205.404 605.387C206.101 604.951 206.491 604.315 206.479 603.638Z" fill="#021B1B" stroke="#E9EEF1" stroke-width="3" stroke-miterlimit="10"/>
<path d="M217.563 616.399C218.254 615.963 218.643 615.327 218.632 614.65C218.62 613.996 218.23 613.401 217.569 613.024L207.424 607.224C206.308 606.588 204.619 606.641 203.491 607.347L196.086 611.988C195.395 612.424 195.006 613.06 195.018 613.737C195.029 614.39 195.419 614.985 196.08 615.362L206.225 621.163C206.745 621.457 207.388 621.604 208.044 621.604C208.794 621.604 209.556 621.416 210.152 621.039L217.563 616.399Z" fill="#021B1B" stroke="#E9EEF1" stroke-width="3" stroke-miterlimit="10"/>
<path d="M236.087 622.929C236.778 622.494 237.167 621.858 237.155 621.18C237.144 620.527 236.754 619.932 236.093 619.555L225.948 613.754C224.838 613.118 223.143 613.171 222.015 613.878L211.227 620.644C210.536 621.08 210.146 621.716 210.158 622.393C210.17 623.047 210.559 623.642 211.221 624.019L221.366 629.819C221.885 630.114 222.529 630.261 223.184 630.261C223.934 630.261 224.696 630.073 225.292 629.696L236.087 622.929Z" fill="#021B1B" stroke="#E9EEF1" stroke-width="3" stroke-miterlimit="10"/>
<path d="M192.532 594.192L203.054 600.204C203.574 600.499 204.218 600.646 204.873 600.646C205.623 600.646 206.385 600.457 206.981 600.081L217.769 593.314C218.46 592.878 218.85 592.242 218.838 591.565C218.826 590.911 218.437 590.317 217.775 589.94L207.253 583.927C206.137 583.291 204.448 583.344 203.32 584.051L192.532 590.817C191.841 591.253 191.451 591.889 191.463 592.566C191.48 593.22 191.864 593.815 192.532 594.192Z" fill="#021B1B" stroke="#E9EEF1" stroke-width="3" stroke-miterlimit="10"/>
<path d="M208.445 603.296L218.968 609.308C219.488 609.603 220.131 609.75 220.787 609.75C221.537 609.75 222.299 609.561 222.895 609.185L233.683 602.418C234.374 601.982 234.764 601.346 234.752 600.669C234.74 600.016 234.351 599.421 233.689 599.044L223.167 593.025C222.051 592.389 220.362 592.442 219.234 593.149L208.445 599.915C207.755 600.351 207.365 600.987 207.377 601.664C207.4 602.324 207.784 602.919 208.445 603.296Z" fill="#021B1B" stroke="#E9EEF1" stroke-width="3" stroke-miterlimit="10"/>
<path d="M125.876 499.221L115.354 493.209C114.238 492.573 112.549 492.625 111.421 493.332L100.633 500.099C99.9416 500.534 99.5519 501.17 99.5637 501.848C99.5755 502.501 99.9653 503.096 100.627 503.473L111.149 509.491C111.669 509.786 112.313 509.933 112.968 509.933C113.718 509.933 114.474 509.745 115.076 509.368L125.864 502.601C126.555 502.166 126.945 501.53 126.933 500.852C126.927 500.193 126.538 499.604 125.876 499.221Z" fill="#021B1B" stroke="#E9EEF1" stroke-width="3" stroke-miterlimit="10"/>
<path d="M141.613 508.225L131.09 502.207C129.98 501.571 128.285 501.624 127.158 502.33L116.369 509.097C115.678 509.532 115.289 510.168 115.3 510.846C115.312 511.499 115.702 512.094 116.363 512.471L126.886 518.489C127.406 518.784 128.049 518.931 128.705 518.931C129.455 518.931 130.211 518.743 130.813 518.366L141.601 511.599C142.292 511.164 142.682 510.528 142.67 509.85C142.664 509.197 142.274 508.602 141.613 508.225Z" fill="#021B1B" stroke="#E9EEF1" stroke-width="3" stroke-miterlimit="10"/>
<path d="M157.356 517.224L146.833 511.205C145.723 510.569 144.028 510.622 142.9 511.329L132.112 518.095C131.421 518.531 131.031 519.167 131.043 519.844C131.055 520.498 131.445 521.093 132.106 521.469L142.629 527.488C143.148 527.782 143.792 527.93 144.447 527.93C145.197 527.93 145.959 527.741 146.555 527.364L157.344 520.598C158.035 520.162 158.424 519.526 158.413 518.849C158.401 518.195 158.017 517.6 157.356 517.224Z" fill="#021B1B" stroke="#E9EEF1" stroke-width="3" stroke-miterlimit="10"/>
<path d="M173.092 526.227L162.57 520.209C161.454 519.573 159.765 519.626 158.637 520.333L147.849 527.099C147.158 527.535 146.768 528.171 146.78 528.848C146.792 529.502 147.181 530.096 147.843 530.473L158.365 536.492C158.885 536.786 159.529 536.934 160.184 536.934C160.934 536.934 161.696 536.745 162.292 536.368L173.081 529.602C173.771 529.166 174.161 528.53 174.149 527.853C174.144 527.199 173.754 526.604 173.092 526.227Z" fill="#021B1B" stroke="#E9EEF1" stroke-width="3" stroke-miterlimit="10"/>
<path d="M188.835 535.226L178.312 529.213C177.202 528.577 175.508 528.63 174.38 529.337L163.591 536.103C162.9 536.539 162.511 537.175 162.523 537.852C162.534 538.506 162.924 539.101 163.585 539.478L174.108 545.496C174.628 545.791 175.271 545.938 175.927 545.938C176.677 545.938 177.438 545.749 178.035 545.373L188.823 538.606C189.514 538.17 189.904 537.534 189.892 536.857C189.88 536.198 189.496 535.603 188.835 535.226Z" fill="#021B1B" stroke="#E9EEF1" stroke-width="3" stroke-miterlimit="10"/>
<path d="M204.572 544.224L194.049 538.211C192.939 537.575 191.244 537.628 190.116 538.335L179.328 545.101C178.637 545.537 178.247 546.173 178.259 546.85C178.271 547.504 178.661 548.099 179.322 548.476L189.845 554.494C190.364 554.789 191.008 554.936 191.664 554.936C192.413 554.936 193.175 554.747 193.772 554.371L204.56 547.604C205.251 547.168 205.641 546.532 205.629 545.855C205.623 545.196 205.233 544.607 204.572 544.224Z" fill="#021B1B" stroke="#E9EEF1" stroke-width="3" stroke-miterlimit="10"/>
<path d="M220.314 553.228L209.792 547.21C208.676 546.574 206.987 546.627 205.859 547.334L195.071 554.1C194.38 554.536 193.99 555.172 194.002 555.849C194.014 556.503 194.403 557.097 195.065 557.474L205.587 563.493C206.107 563.787 206.751 563.934 207.406 563.934C208.156 563.934 208.912 563.746 209.514 563.369L220.303 556.603C220.994 556.167 221.383 555.531 221.371 554.854C221.36 554.2 220.976 553.605 220.314 553.228Z" fill="#021B1B" stroke="#E9EEF1" stroke-width="3" stroke-miterlimit="10"/>
<path d="M236.051 562.226L225.529 556.214C224.418 555.578 222.724 555.631 221.596 556.338L210.807 563.104C210.117 563.54 209.727 564.176 209.739 564.853C209.75 565.507 210.14 566.101 210.802 566.478L221.324 572.497C221.844 572.791 222.488 572.938 223.143 572.938C223.893 572.938 224.649 572.75 225.251 572.373L236.039 565.607C236.73 565.171 237.12 564.535 237.108 563.858C237.102 563.198 236.713 562.603 236.051 562.226Z" fill="#021B1B" stroke="#E9EEF1" stroke-width="3" stroke-miterlimit="10"/>
<path d="M225.481 573.857C225.493 574.511 225.883 575.106 226.544 575.483L237.067 581.501C237.587 581.796 238.23 581.943 238.886 581.943C239.636 581.943 240.397 581.754 240.994 581.377L251.782 574.611C252.473 574.175 252.863 573.539 252.851 572.862C252.839 572.208 252.449 571.614 251.788 571.237L241.265 565.224C240.155 564.588 238.46 564.641 237.333 565.348L226.544 572.114C225.859 572.538 225.47 573.174 225.481 573.857Z" fill="#021B1B" stroke="#E9EEF1" stroke-width="3" stroke-miterlimit="10"/>
<path d="M252.804 590.499C253.323 590.794 253.967 590.941 254.622 590.941C255.372 590.941 256.134 590.752 256.73 590.376L267.519 583.609C268.21 583.173 268.599 582.537 268.588 581.86C268.576 581.206 268.186 580.612 267.525 580.235L257.002 574.216C255.886 573.58 254.197 573.633 253.069 574.34L242.281 581.106C241.59 581.542 241.2 582.178 241.212 582.855C241.224 583.509 241.614 584.104 242.275 584.481L252.804 590.499Z" fill="#021B1B" stroke="#E9EEF1" stroke-width="3" stroke-miterlimit="10"/>
<path d="M270.365 599.939C271.115 599.939 271.871 599.751 272.473 599.368L283.261 592.602C283.952 592.166 284.342 591.53 284.33 590.853C284.318 590.199 283.929 589.604 283.267 589.227L272.745 583.215C271.635 582.579 269.94 582.632 268.812 583.339L258.024 590.105C257.333 590.541 256.943 591.177 256.955 591.854C256.967 592.508 257.356 593.102 258.018 593.479L268.54 599.492C269.066 599.792 269.71 599.939 270.365 599.939Z" fill="#021B1B" stroke="#E9EEF1" stroke-width="3" stroke-miterlimit="10"/>
<path d="M299.01 598.225L288.487 592.213C287.377 591.577 285.683 591.63 284.555 592.337L273.766 599.103C273.075 599.539 272.686 600.175 272.697 600.852C272.709 601.506 273.099 602.1 273.76 602.477L284.283 608.496C284.803 608.79 285.446 608.937 286.102 608.937C286.852 608.937 287.613 608.749 288.21 608.372L298.998 601.606C299.689 601.17 300.079 600.534 300.067 599.857C300.061 599.203 299.671 598.608 299.01 598.225Z" fill="#021B1B" stroke="#E9EEF1" stroke-width="3" stroke-miterlimit="10"/>
<path d="M314.924 588.25L296.991 577.997C295.88 577.361 294.186 577.414 293.058 578.121L282.269 584.887C281.579 585.323 281.189 585.959 281.201 586.636C281.212 587.29 281.602 587.885 282.264 588.261L300.197 598.514C300.717 598.809 301.36 598.956 302.016 598.956C302.766 598.956 303.527 598.761 304.124 598.39L314.912 591.624C315.603 591.188 315.993 590.552 315.981 589.875C315.975 589.221 315.585 588.627 314.924 588.25Z" fill="#021B1B" stroke="#E9EEF1" stroke-width="3" stroke-miterlimit="10"/>
<path d="M283.096 608.207L262.252 596.288C261.141 595.652 259.447 595.705 258.319 596.412L247.53 603.178C246.84 603.614 246.45 604.25 246.462 604.927C246.473 605.581 246.863 606.176 247.525 606.552L268.369 618.472C268.889 618.766 269.532 618.913 270.188 618.913C270.938 618.913 271.7 618.719 272.296 618.342L283.084 611.576C283.775 611.14 284.165 610.504 284.153 609.827C284.147 609.179 283.757 608.59 283.096 608.207Z" fill="#021B1B" stroke="#E9EEF1" stroke-width="3" stroke-miterlimit="10"/>
<path d="M267.182 618.189L238.915 602.024C237.805 601.388 236.11 601.441 234.982 602.148L224.194 608.914C223.503 609.35 223.113 609.986 223.125 610.663C223.137 611.317 223.527 611.911 224.188 612.288L252.455 628.453C252.975 628.748 253.618 628.895 254.274 628.895C255.024 628.895 255.786 628.707 256.382 628.33L267.17 621.563C267.861 621.128 268.251 620.492 268.239 619.814C268.233 619.161 267.844 618.572 267.182 618.189Z" fill="#021B1B" stroke="#E9EEF1" stroke-width="3" stroke-miterlimit="10"/>
<path d="M247.832 630.326L237.687 624.525C236.571 623.889 234.882 623.942 233.754 624.649L226.349 629.29C225.658 629.725 225.269 630.361 225.281 631.039C225.292 631.692 225.682 632.287 226.343 632.664L236.488 638.464C237.008 638.759 237.651 638.906 238.307 638.906C239.057 638.906 239.819 638.718 240.415 638.341L247.82 633.7C248.511 633.265 248.9 632.629 248.889 631.951C248.883 631.298 248.493 630.709 247.832 630.326Z" fill="#021B1B" stroke="#E9EEF1" stroke-width="3" stroke-miterlimit="10"/>
<path d="M338.142 604.338L327.62 598.319C326.811 597.86 326.787 597.083 327.566 596.594L337.705 590.234C338.485 589.745 339.778 589.728 340.587 590.187L351.11 596.205C351.919 596.665 351.942 597.442 351.163 597.931L341.024 604.291C340.244 604.78 338.951 604.797 338.142 604.338Z" fill="#021B1B" stroke="#E9EEF1" stroke-miterlimit="10"/>
<path d="M353.926 613.36L343.404 607.341C342.595 606.882 342.571 606.105 343.35 605.616L353.489 599.256C354.269 598.767 355.562 598.743 356.371 599.209L366.894 605.227C367.703 605.687 367.72 606.464 366.947 606.953L356.808 613.313C356.028 613.801 354.729 613.825 353.926 613.36Z" fill="#021B1B" stroke="#E9EEF1" stroke-miterlimit="10"/>
<path d="M369.71 622.387L359.188 616.369C358.379 615.909 358.355 615.132 359.134 614.643L369.273 608.283C370.053 607.795 371.346 607.777 372.155 608.236L382.678 614.255C383.487 614.714 383.51 615.491 382.731 615.98L372.592 622.34C371.812 622.829 370.513 622.847 369.71 622.387Z" fill="#021B1B" stroke="#E9EEF1" stroke-miterlimit="10"/>
<path d="M385.494 631.415L374.972 625.397C374.163 624.937 374.139 624.16 374.918 623.671L385.057 617.311C385.837 616.822 387.13 616.805 387.939 617.264L398.462 623.283C399.27 623.742 399.294 624.519 398.515 625.008L388.376 631.368C387.596 631.851 386.297 631.874 385.494 631.415Z" fill="#021B1B" stroke="#E9EEF1" stroke-miterlimit="10"/>
<path d="M323.362 613.607L312.839 607.589C312.03 607.129 312.007 606.352 312.786 605.863L322.925 599.503C323.705 599.014 324.998 598.997 325.807 599.456L336.329 605.474C337.138 605.934 337.162 606.711 336.383 607.2L326.244 613.56C325.464 614.049 324.165 614.066 323.362 613.607Z" fill="#021B1B" stroke="#E9EEF1" stroke-miterlimit="10"/>
<path d="M339.146 622.635L328.623 616.616C327.814 616.157 327.791 615.38 328.57 614.891L338.709 608.531C339.489 608.042 340.782 608.024 341.591 608.484L352.113 614.502C352.922 614.962 352.94 615.739 352.167 616.228L342.028 622.588C341.248 623.071 339.949 623.094 339.146 622.635Z" fill="#021B1B" stroke="#E9EEF1" stroke-miterlimit="10"/>
<path d="M354.93 631.657L344.407 625.638C343.598 625.179 343.575 624.402 344.354 623.913L354.493 617.553C355.273 617.064 356.566 617.046 357.375 617.506L367.897 623.524C368.706 623.984 368.73 624.761 367.951 625.25L357.812 631.61C357.032 632.098 355.733 632.122 354.93 631.657Z" fill="#021B1B" stroke="#E9EEF1" stroke-miterlimit="10"/>
<path d="M370.714 640.684L360.191 634.666C359.382 634.207 359.359 633.429 360.138 632.941L370.277 626.581C371.057 626.092 372.35 626.068 373.159 626.533L383.681 632.552C384.49 633.011 384.514 633.789 383.735 634.277L373.596 640.637C372.816 641.126 371.517 641.144 370.714 640.684Z" fill="#021B1B" stroke="#E9EEF1" stroke-miterlimit="10"/>
<path d="M308.582 622.876L298.059 616.858C297.25 616.399 297.227 615.621 298.006 615.133L308.145 608.773C308.924 608.284 310.218 608.266 311.027 608.725L321.549 614.744C322.358 615.203 322.382 615.981 321.602 616.469L311.464 622.829C310.684 623.318 309.385 623.336 308.582 622.876Z" fill="#021B1B" stroke="#E9EEF1" stroke-miterlimit="10"/>
<path d="M324.366 631.904L313.843 625.885C313.034 625.426 313.011 624.649 313.79 624.16L323.929 617.8C324.708 617.311 326.002 617.293 326.811 617.753L337.333 623.771C338.142 624.231 338.16 625.008 337.386 625.497L327.248 631.857C326.468 632.34 325.169 632.363 324.366 631.904Z" fill="#021B1B" stroke="#E9EEF1" stroke-miterlimit="10"/>
<path d="M340.144 640.926L329.621 634.907C328.812 634.448 328.789 633.671 329.568 633.182L339.707 626.822C340.487 626.333 341.78 626.315 342.589 626.775L353.111 632.793C353.92 633.253 353.944 634.03 353.165 634.519L343.026 640.879C342.246 641.368 340.953 641.391 340.144 640.926Z" fill="#021B1B" stroke="#E9EEF1" stroke-miterlimit="10"/>
<path d="M355.928 649.953L345.405 643.935C344.596 643.476 344.573 642.698 345.352 642.21L355.491 635.85C356.271 635.361 357.564 635.337 358.373 635.802L368.895 641.821C369.704 642.28 369.728 643.058 368.948 643.546L358.81 649.906C358.03 650.395 356.737 650.413 355.928 649.953Z" fill="#021B1B" stroke="#E9EEF1" stroke-miterlimit="10"/>
<path d="M293.802 632.146L283.279 626.127C282.47 625.668 282.447 624.89 283.226 624.402L293.365 618.042C294.144 617.553 295.438 617.535 296.246 617.995L306.769 624.013C307.578 624.472 307.602 625.25 306.822 625.738L296.683 632.098C295.904 632.587 294.605 632.611 293.802 632.146Z" fill="#021B1B" stroke="#E9EEF1" stroke-miterlimit="10"/>
<path d="M309.586 641.173L299.063 635.154C298.254 634.695 298.231 633.918 299.01 633.429L309.149 627.069C309.928 626.58 311.221 626.563 312.03 627.022L322.553 633.04C323.362 633.5 323.38 634.277 322.606 634.766L312.467 641.126C311.682 641.615 310.389 641.632 309.586 641.173Z" fill="#021B1B" stroke="#E9EEF1" stroke-miterlimit="10"/>
<path d="M325.364 650.201L314.841 644.182C314.032 643.723 314.009 642.946 314.788 642.457L324.927 636.097C325.706 635.608 327 635.59 327.809 636.05L338.331 642.068C339.14 642.528 339.164 643.305 338.384 643.794L328.246 650.154C327.466 650.637 326.173 650.66 325.364 650.201Z" fill="#021B1B" stroke="#E9EEF1" stroke-miterlimit="10"/>
<path d="M341.148 659.223L330.625 653.204C329.816 652.745 329.793 651.967 330.572 651.479L340.711 645.119C341.49 644.63 342.784 644.606 343.593 645.072L354.115 651.09C354.924 651.549 354.948 652.327 354.168 652.815L344.03 659.175C343.25 659.664 341.957 659.688 341.148 659.223Z" fill="#021B1B" stroke="#E9EEF1" stroke-miterlimit="10"/>
<path d="M279.022 641.42L268.499 635.402C267.69 634.943 267.666 634.165 268.446 633.677L278.585 627.317C279.364 626.828 280.657 626.81 281.466 627.269L291.989 633.288C292.798 633.747 292.822 634.525 292.042 635.013L281.903 641.373C281.124 641.856 279.825 641.88 279.022 641.42Z" fill="#021B1B" stroke="#E9EEF1" stroke-miterlimit="10"/>
<path d="M294.8 650.442L284.277 644.424C283.468 643.965 283.445 643.187 284.224 642.699L294.363 636.338C295.142 635.85 296.435 635.832 297.244 636.291L307.767 642.31C308.576 642.769 308.594 643.547 307.82 644.035L297.681 650.395C296.902 650.884 295.609 650.908 294.8 650.442Z" fill="#021B1B" stroke="#E9EEF1" stroke-miterlimit="10"/>
<path d="M310.584 659.47L300.061 653.451C299.252 652.992 299.228 652.215 300.008 651.726L310.147 645.366C310.926 644.877 312.219 644.859 313.028 645.319L323.551 651.337C324.36 651.797 324.384 652.574 323.604 653.063L313.465 659.423C312.686 659.906 311.393 659.929 310.584 659.47Z" fill="#021B1B" stroke="#E9EEF1" stroke-miterlimit="10"/>
<path d="M326.368 668.492L315.845 662.473C315.036 662.014 315.012 661.236 315.792 660.748L325.931 654.388C326.71 653.899 328.003 653.875 328.812 654.341L339.335 660.359C340.144 660.818 340.168 661.596 339.388 662.084L329.249 668.444C328.47 668.933 327.177 668.957 326.368 668.492Z" fill="#021B1B" stroke="#E9EEF1" stroke-miterlimit="10"/>
<path d="M264.236 650.689L253.713 644.671C252.904 644.212 252.88 643.434 253.66 642.946L263.799 636.586C264.578 636.097 265.871 636.079 266.68 636.538L277.203 642.557C278.012 643.016 278.036 643.794 277.256 644.282L267.117 650.642C266.338 651.125 265.045 651.149 264.236 650.689Z" fill="#021B1B" stroke="#E9EEF1" stroke-miterlimit="10"/>
<path d="M280.02 659.711L269.497 653.693C268.688 653.234 268.664 652.456 269.444 651.968L279.583 645.608C280.362 645.119 281.655 645.101 282.464 645.56L292.987 651.579C293.796 652.038 293.814 652.816 293.04 653.304L282.901 659.664C282.122 660.153 280.829 660.177 280.02 659.711Z" fill="#021B1B" stroke="#E9EEF1" stroke-miterlimit="10"/>
<path d="M295.804 668.739L285.281 662.721C284.472 662.261 284.448 661.484 285.228 660.995L295.367 654.635C296.146 654.147 297.439 654.129 298.248 654.588L308.771 660.607C309.58 661.066 309.604 661.843 308.824 662.332L298.685 668.692C297.906 669.181 296.613 669.199 295.804 668.739Z" fill="#021B1B" stroke="#E9EEF1" stroke-miterlimit="10"/>
<path d="M311.588 677.767L301.065 671.749C300.256 671.289 300.232 670.512 301.012 670.023L311.151 663.663C311.93 663.174 313.223 663.151 314.032 663.616L324.555 669.634C325.364 670.094 325.388 670.871 324.608 671.36L314.469 677.72C313.69 678.203 312.397 678.226 311.588 677.767Z" fill="#021B1B" stroke="#E9EEF1" stroke-miterlimit="10"/>
<path d="M104.92 464.577L93.9835 458.322C93.1745 457.863 93.1923 457.062 94.019 456.538L98.5422 453.7C99.3689 453.181 100.703 453.134 101.512 453.594L112.448 459.848C113.257 460.307 113.24 461.108 112.413 461.632L107.89 464.47C107.057 464.989 105.723 465.036 104.92 464.577Z" fill="#021B1B" stroke="#E9EEF1" stroke-miterlimit="10"/>
<path d="M121.235 473.905L110.299 467.651C109.49 467.191 109.508 466.39 110.334 465.872L114.858 463.034C115.684 462.515 117.019 462.468 117.828 462.928L128.764 469.182C129.573 469.641 129.555 470.442 128.728 470.966L124.205 473.804C123.378 474.323 122.038 474.37 121.235 473.905Z" fill="#021B1B" stroke="#E9EEF1" stroke-miterlimit="10"/>
<path d="M137.55 483.239L126.614 476.985C125.805 476.525 125.823 475.724 126.65 475.2L131.173 472.362C132 471.844 133.334 471.796 134.143 472.256L145.079 478.51C145.888 478.969 145.871 479.77 145.044 480.294L140.521 483.133C139.694 483.651 138.359 483.698 137.55 483.239Z" fill="#021B1B" stroke="#E9EEF1" stroke-miterlimit="10"/>
<path d="M153.872 492.567L142.936 486.313C142.127 485.853 142.144 485.052 142.971 484.528L147.494 481.69C148.321 481.172 149.656 481.125 150.465 481.584L161.401 487.838C162.21 488.297 162.192 489.098 161.365 489.622L156.842 492.461C156.009 492.985 154.675 493.032 153.872 492.567Z" fill="#021B1B" stroke="#E9EEF1" stroke-miterlimit="10"/>
<path d="M170.187 501.9L159.251 495.646C158.442 495.187 158.46 494.386 159.287 493.862L163.81 491.023C164.636 490.505 165.971 490.458 166.78 490.917L177.716 497.171C178.525 497.631 178.507 498.432 177.681 498.956L173.157 501.794C172.331 502.312 170.996 502.36 170.187 501.9Z" fill="#021B1B" stroke="#E9EEF1" stroke-miterlimit="10"/>
<path d="M186.503 511.228L175.567 504.974C174.758 504.515 174.775 503.714 175.602 503.196L180.125 500.357C180.952 499.839 182.286 499.792 183.095 500.251L194.031 506.505C194.84 506.965 194.823 507.766 193.996 508.29L189.473 511.128C188.646 511.646 187.312 511.694 186.503 511.228Z" fill="#021B1B" stroke="#E9EEF1" stroke-miterlimit="10"/>
<path d="M202.824 520.562L191.888 514.308C191.079 513.849 191.097 513.048 191.923 512.524L196.447 509.686C197.273 509.167 198.608 509.12 199.417 509.58L210.353 515.834C211.162 516.293 211.144 517.094 210.317 517.618L205.794 520.456C204.962 520.975 203.627 521.022 202.824 520.562Z" fill="#021B1B" stroke="#E9EEF1" stroke-miterlimit="10"/>
<path d="M219.139 529.89L208.203 523.636C207.394 523.177 207.412 522.376 208.239 521.858L212.762 519.019C213.589 518.501 214.923 518.454 215.732 518.913L226.668 525.168C227.477 525.627 227.459 526.428 226.633 526.952L222.11 529.79C221.283 530.309 219.942 530.356 219.139 529.89Z" fill="#021B1B" stroke="#E9EEF1" stroke-miterlimit="10"/>
<path d="M235.455 539.224L224.519 532.97C223.71 532.511 223.728 531.71 224.554 531.192L229.077 528.353C229.904 527.835 231.239 527.788 232.048 528.247L242.984 534.501C243.793 534.961 243.775 535.762 242.948 536.286L238.425 539.124C237.598 539.637 236.264 539.684 235.455 539.224Z" fill="#021B1B" stroke="#E9EEF1" stroke-miterlimit="10"/>
<path d="M251.776 548.553L240.84 542.299C240.031 541.839 240.049 541.038 240.876 540.514L245.399 537.676C246.225 537.158 247.56 537.11 248.369 537.57L259.305 543.824C260.114 544.283 260.096 545.084 259.27 545.608L254.746 548.447C253.914 548.971 252.579 549.018 251.776 548.553Z" fill="#021B1B" stroke="#E9EEF1" stroke-miterlimit="10"/>
<path d="M268.092 557.886L257.156 551.632C256.347 551.173 256.364 550.372 257.191 549.854L261.714 547.016C262.541 546.497 263.875 546.45 264.684 546.91L275.62 553.164C276.429 553.623 276.412 554.424 275.585 554.948L271.062 557.786C270.235 558.299 268.895 558.346 268.092 557.886Z" fill="#021B1B" stroke="#E9EEF1" stroke-miterlimit="10"/>
<path d="M284.407 567.215L273.471 560.961C272.662 560.501 272.68 559.7 273.506 559.182L278.03 556.344C278.856 555.825 280.191 555.778 281 556.238L291.936 562.492C292.745 562.951 292.727 563.752 291.9 564.276L287.377 567.115C286.551 567.633 285.216 567.68 284.407 567.215Z" fill="#021B1B" stroke="#E9EEF1" stroke-miterlimit="10"/>
<path d="M300.728 576.548L289.792 570.294C288.983 569.835 289.001 569.034 289.828 568.51L294.351 565.671C295.178 565.153 296.512 565.106 297.321 565.565L308.257 571.819C309.066 572.279 309.048 573.08 308.222 573.604L303.699 576.442C302.866 576.96 301.531 577.007 300.728 576.548Z" fill="#021B1B" stroke="#E9EEF1" stroke-miterlimit="10"/>
<path d="M317.044 585.876L306.108 579.622C305.305 579.163 305.317 578.362 306.143 577.844L310.666 575.005C311.493 574.487 312.828 574.44 313.637 574.899L324.573 581.153C325.382 581.613 325.364 582.414 324.537 582.938L320.014 585.776C319.187 586.294 317.847 586.342 317.044 585.876Z" fill="#021B1B" stroke="#E9EEF1" stroke-miterlimit="10"/>
<path d="M88.5864 474.317L78.0637 468.298C77.2547 467.839 77.2725 467.038 78.0991 466.514L88.8875 459.748C89.7142 459.229 91.0487 459.182 91.8577 459.642L102.38 465.66C103.189 466.119 103.172 466.92 102.345 467.444L91.5566 474.211C90.7299 474.735 89.3954 474.782 88.5864 474.317Z" fill="#021B1B" stroke="#E9EEF1" stroke-miterlimit="10"/>
<path d="M80.1836 488.598L62.1498 478.286C61.3408 477.827 61.3586 477.026 62.1853 476.502L72.9736 469.735C73.8003 469.217 75.1349 469.17 75.9438 469.629L93.9776 479.941C94.7866 480.4 94.7689 481.201 93.9422 481.725L83.1538 488.492C82.3271 489.01 80.9926 489.057 80.1836 488.598Z" fill="#021B1B" stroke="#E9EEF1" stroke-miterlimit="10"/>
<path d="M68.2319 500.84L46.2359 488.262C45.4269 487.802 45.4447 487.001 46.2714 486.477L57.0597 479.711C57.8864 479.193 59.221 479.146 60.0299 479.605L82.026 492.184C82.8349 492.643 82.8172 493.444 81.9905 493.968L71.2021 500.734C70.3754 501.253 69.0409 501.3 68.2319 500.84Z" fill="#021B1B" stroke="#E9EEF1" stroke-miterlimit="10"/>
<path d="M60.4905 515.498L30.322 498.249C29.513 497.79 29.5308 496.989 30.3575 496.465L41.1458 489.699C41.9725 489.18 43.3071 489.133 44.116 489.593L74.2845 506.841C75.0935 507.301 75.0758 508.102 74.2491 508.626L63.4607 515.392C62.634 515.91 61.2995 515.957 60.4905 515.498Z" fill="#021B1B" stroke="#E9EEF1" stroke-miterlimit="10"/>
<path d="M104.37 483.345L93.8477 477.326C93.0387 476.867 93.0564 476.066 93.8831 475.542L104.672 468.775C105.498 468.257 106.833 468.21 107.642 468.669L118.164 474.688C118.973 475.147 118.956 475.948 118.129 476.472L107.341 483.239C106.514 483.757 105.173 483.804 104.37 483.345Z" fill="#021B1B" stroke="#E9EEF1" stroke-miterlimit="10"/>
<path d="M120.154 492.372L109.632 486.354C108.823 485.895 108.84 485.094 109.667 484.57L120.461 477.803C121.288 477.285 122.623 477.238 123.432 477.697L133.954 483.716C134.763 484.175 134.746 484.976 133.919 485.5L123.13 492.266C122.298 492.785 120.957 492.832 120.154 492.372Z" fill="#021B1B" stroke="#E9EEF1" stroke-miterlimit="10"/>
<path d="M135.938 501.394L125.416 495.375C124.607 494.916 124.624 494.115 125.451 493.591L136.239 486.825C137.066 486.306 138.401 486.259 139.21 486.719L149.732 492.737C150.541 493.196 150.524 493.997 149.697 494.521L138.909 501.288C138.076 501.806 136.741 501.853 135.938 501.394Z" fill="#021B1B" stroke="#E9EEF1" stroke-miterlimit="10"/>
<path d="M151.722 510.422L141.2 504.403C140.391 503.944 140.408 503.143 141.235 502.619L152.023 495.852C152.85 495.334 154.185 495.287 154.994 495.746L165.516 501.765C166.325 502.224 166.308 503.025 165.481 503.549L154.693 510.316C153.86 510.834 152.525 510.881 151.722 510.422Z" fill="#021B1B" stroke="#E9EEF1" stroke-miterlimit="10"/>
<path d="M167.5 519.444L156.978 513.425C156.169 512.966 156.186 512.165 157.013 511.641L167.802 504.874C168.628 504.356 169.963 504.309 170.772 504.768L181.294 510.787C182.103 511.246 182.086 512.047 181.259 512.571L170.471 519.338C169.644 519.862 168.309 519.909 167.5 519.444Z" fill="#021B1B" stroke="#E9EEF1" stroke-miterlimit="10"/>
<path d="M183.284 528.471L172.762 522.453C171.953 521.993 171.97 521.192 172.797 520.668L183.586 513.902C184.412 513.384 185.747 513.336 186.556 513.796L197.078 519.814C197.887 520.274 197.87 521.075 197.043 521.599L186.255 528.365C185.428 528.883 184.093 528.93 183.284 528.471Z" fill="#021B1B" stroke="#E9EEF1" stroke-miterlimit="10"/>
<path d="M199.068 537.499L188.546 531.48C187.737 531.021 187.754 530.22 188.581 529.696L199.37 522.93C200.196 522.411 201.531 522.364 202.34 522.824L212.862 528.842C213.671 529.301 213.654 530.102 212.827 530.626L202.039 537.393C201.212 537.911 199.877 537.958 199.068 537.499Z" fill="#021B1B" stroke="#E9EEF1" stroke-miterlimit="10"/>
<path d="M214.852 546.521L204.33 540.502C203.521 540.043 203.538 539.242 204.365 538.718L215.154 531.952C215.98 531.433 217.315 531.386 218.124 531.846L228.646 537.864C229.455 538.323 229.438 539.124 228.611 539.648L217.823 546.415C216.996 546.939 215.661 546.986 214.852 546.521Z" fill="#021B1B" stroke="#E9EEF1" stroke-miterlimit="10"/>
<path d="M230.636 555.549L220.114 549.53C219.305 549.071 219.322 548.27 220.149 547.746L230.938 540.979C231.764 540.461 233.099 540.414 233.908 540.873L244.43 546.892C245.239 547.351 245.222 548.158 244.395 548.676L233.607 555.443C232.78 555.961 231.445 556.008 230.636 555.549Z" fill="#021B1B" stroke="#E9EEF1" stroke-miterlimit="10"/>
<path d="M246.42 564.576L235.898 558.558C235.089 558.098 235.106 557.297 235.933 556.773L246.721 550.007C247.548 549.489 248.883 549.441 249.692 549.901L260.214 555.919C261.023 556.379 261.006 557.179 260.179 557.704L249.391 564.47C248.564 564.988 247.223 565.035 246.42 564.576Z" fill="#021B1B" stroke="#E9EEF1" stroke-miterlimit="10"/>
<path d="M262.204 573.598L251.682 567.579C250.873 567.12 250.89 566.319 251.717 565.795L262.505 559.029C263.332 558.511 264.667 558.463 265.476 558.923L275.998 564.941C276.807 565.401 276.79 566.201 275.963 566.726L265.175 573.492C264.348 574.016 263.007 574.063 262.204 573.598Z" fill="#021B1B" stroke="#E9EEF1" stroke-miterlimit="10"/>
<path d="M277.988 582.626L267.466 576.607C266.657 576.148 266.674 575.347 267.501 574.823L278.289 568.057C279.116 567.538 280.451 567.491 281.26 567.951L291.782 573.969C292.591 574.428 292.574 575.235 291.747 575.753L280.958 582.52C280.132 583.038 278.791 583.085 277.988 582.626Z" fill="#021B1B" stroke="#E9EEF1" stroke-miterlimit="10"/>
<path d="M96.1329 497.714L85.6103 491.695C84.8013 491.236 84.819 490.435 85.6457 489.911L96.4341 483.144C97.2608 482.626 98.5953 482.579 99.4043 483.038L109.927 489.057C110.736 489.516 110.718 490.317 109.892 490.841L99.1031 497.608C98.2764 498.132 96.9419 498.179 96.1329 497.714Z" fill="#021B1B" stroke="#E9EEF1" stroke-miterlimit="10"/>
<path d="M84.1695 509.956L73.6468 503.938C72.8378 503.479 72.8555 502.678 73.6822 502.154L84.4706 495.387C85.2973 494.869 86.6318 494.822 87.4408 495.281L97.9635 501.3C98.7725 501.759 98.7547 502.56 97.928 503.084L87.1397 509.85C86.313 510.369 84.9725 510.416 84.1695 509.956Z" fill="#021B1B" stroke="#E9EEF1" stroke-miterlimit="10"/>
<path d="M100.054 519.037L89.5312 513.019C88.7222 512.56 88.7399 511.759 89.5666 511.235L100.355 504.468C101.182 503.95 102.516 503.903 103.325 504.362L113.848 510.381C114.657 510.84 114.639 511.641 113.812 512.165L103.024 518.931C102.197 519.45 100.863 519.497 100.054 519.037Z" fill="#021B1B" stroke="#E9EEF1" stroke-miterlimit="10"/>
<path d="M115.938 528.124L105.416 522.105C104.607 521.646 104.624 520.845 105.451 520.321L116.239 513.555C117.066 513.036 118.401 512.989 119.21 513.449L129.732 519.467C130.541 519.926 130.523 520.727 129.697 521.251L118.908 528.018C118.082 528.536 116.747 528.583 115.938 528.124Z" fill="#021B1B" stroke="#E9EEF1" stroke-miterlimit="10"/>
<path d="M131.828 537.204L121.306 531.186C120.497 530.727 120.515 529.926 121.341 529.402L132.13 522.635C132.956 522.117 134.291 522.07 135.1 522.529L145.622 528.548C146.431 529.007 146.414 529.808 145.587 530.332L134.799 537.098C133.972 537.622 132.632 537.67 131.828 537.204Z" fill="#021B1B" stroke="#E9EEF1" stroke-miterlimit="10"/>
<path d="M147.713 546.291L137.19 540.273C136.381 539.814 136.399 539.013 137.226 538.488L148.014 531.722C148.841 531.204 150.175 531.157 150.984 531.616L161.507 537.635C162.316 538.094 162.298 538.895 161.471 539.419L150.683 546.185C149.856 546.704 148.522 546.751 147.713 546.291Z" fill="#021B1B" stroke="#E9EEF1" stroke-miterlimit="10"/>
<path d="M163.597 555.378L153.075 549.359C152.266 548.9 152.283 548.099 153.11 547.575L163.898 540.809C164.725 540.29 166.06 540.243 166.869 540.703L177.391 546.721C178.2 547.18 178.182 547.981 177.356 548.505L166.567 555.272C165.741 555.79 164.406 555.837 163.597 555.378Z" fill="#021B1B" stroke="#E9EEF1" stroke-miterlimit="10"/>
<path d="M179.488 564.458L168.965 558.44C168.156 557.98 168.174 557.18 169 556.655L179.789 549.889C180.615 549.371 181.95 549.324 182.759 549.783L193.282 555.802C194.091 556.261 194.073 557.062 193.246 557.586L182.458 564.352C181.631 564.871 180.291 564.924 179.488 564.458Z" fill="#021B1B" stroke="#E9EEF1" stroke-miterlimit="10"/>
<path d="M195.372 573.545L184.849 567.527C184.04 567.067 184.058 566.267 184.885 565.742L195.673 558.976C196.5 558.458 197.834 558.411 198.643 558.87L209.166 564.888C209.975 565.348 209.957 566.149 209.13 566.673L198.342 573.439C197.515 573.957 196.175 574.005 195.372 573.545Z" fill="#021B1B" stroke="#E9EEF1" stroke-miterlimit="10"/>
<path d="M211.256 582.626L200.734 576.607C199.925 576.148 199.942 575.347 200.769 574.823L211.557 568.057C212.384 567.538 213.719 567.491 214.528 567.951L225.05 573.969C225.859 574.428 225.842 575.229 225.015 575.753L214.226 582.52C213.4 583.044 212.065 583.091 211.256 582.626Z" fill="#021B1B" stroke="#E9EEF1" stroke-miterlimit="10"/>
<path d="M227.147 591.712L216.624 585.694C215.821 585.234 215.833 584.433 216.659 583.909L227.448 577.143C228.274 576.625 229.609 576.578 230.418 577.037L240.941 583.056C241.75 583.515 241.732 584.316 240.905 584.84L230.117 591.606C229.29 592.124 227.95 592.172 227.147 591.712Z" fill="#021B1B" stroke="#E9EEF1" stroke-miterlimit="10"/>
<path d="M243.031 600.799L232.508 594.781C231.699 594.321 231.717 593.52 232.544 592.996L243.332 586.23C244.159 585.712 245.493 585.665 246.302 586.124L256.825 592.142C257.634 592.602 257.616 593.403 256.789 593.927L246.001 600.693C245.174 601.211 243.834 601.258 243.031 600.799Z" fill="#021B1B" stroke="#E9EEF1" stroke-miterlimit="10"/>
<path d="M76.428 524.608L65.9054 518.59C65.0964 518.13 65.1141 517.33 65.9408 516.805L76.7292 510.039C77.5559 509.521 78.8904 509.474 79.6994 509.933L90.2221 515.952C91.031 516.411 91.0133 517.212 90.1866 517.736L79.3983 524.502C78.5716 525.02 77.2311 525.068 76.428 524.608Z" fill="#021B1B" stroke="#E9EEF1" stroke-miterlimit="10"/>
<path d="M23.9269 513.725L14.5676 508.372C13.7586 507.913 13.7763 507.112 14.603 506.588L25.3914 499.822C26.2181 499.304 27.5526 499.256 28.3616 499.716L37.721 505.069C38.5299 505.528 38.5122 506.329 37.6855 506.853L26.8971 513.619C26.0704 514.138 24.7359 514.185 23.9269 513.725Z" fill="#021B1B" stroke="#E9EEF1" stroke-miterlimit="10"/>
<path d="M76.3808 543.723L62.6636 535.879C61.8546 535.42 61.8723 534.619 62.699 534.095L73.4874 527.329C74.3141 526.81 75.6486 526.763 76.4576 527.223L90.1748 535.067C90.9838 535.526 90.9661 536.327 90.1394 536.851L79.351 543.617C78.5243 544.136 77.1898 544.183 76.3808 543.723Z" fill="#021B1B" stroke="#E9EEF1" stroke-miterlimit="10"/>
<path d="M57.2664 532.788L45.9938 526.346C45.1848 525.886 45.2026 525.085 46.0292 524.561L56.8176 517.795C57.6443 517.277 58.9789 517.23 59.7878 517.689L71.0604 524.131C71.8694 524.591 71.8517 525.392 71.025 525.916L60.2366 532.682C59.4099 533.206 58.0695 533.253 57.2664 532.788Z" fill="#021B1B" stroke="#E9EEF1" stroke-miterlimit="10"/>
<path d="M40.5967 523.26L29.33 516.811C28.521 516.352 28.5387 515.551 29.3654 515.027L40.1538 508.267C40.9805 507.748 42.315 507.701 43.124 508.161L54.3966 514.603C55.2056 515.062 55.1879 515.863 54.3612 516.387L43.5728 523.154C42.7402 523.672 41.4057 523.719 40.5967 523.26Z" fill="#021B1B" stroke="#E9EEF1" stroke-miterlimit="10"/>
<path d="M92.3478 533.712L81.8252 527.694C81.0162 527.234 81.0339 526.433 81.8606 525.909L92.649 519.143C93.4757 518.625 94.8102 518.578 95.6192 519.037L106.142 525.055C106.951 525.515 106.933 526.316 106.106 526.84L95.318 533.606C94.4854 534.124 93.1509 534.172 92.3478 533.712Z" fill="#021B1B" stroke="#E9EEF1" stroke-miterlimit="10"/>
<path d="M108.262 542.811L97.7391 536.792C96.9301 536.333 96.9478 535.532 97.7745 535.008L108.563 528.242C109.39 527.723 110.724 527.676 111.533 528.136L122.056 534.154C122.865 534.613 122.847 535.414 122.02 535.938L111.232 542.705C110.405 543.229 109.071 543.276 108.262 542.811Z" fill="#021B1B" stroke="#E9EEF1" stroke-miterlimit="10"/>
<path d="M155.974 589.233L81.7839 546.809C80.9749 546.35 80.9926 545.549 81.8193 545.025L92.6077 538.259C93.4344 537.741 94.7689 537.693 95.5779 538.153L169.774 580.582C170.583 581.042 170.565 581.843 169.738 582.367L158.95 589.133C158.117 589.651 156.783 589.698 155.974 589.233Z" fill="#021B1B" stroke="#E9EEF1" stroke-miterlimit="10"/>
<path d="M124.182 551.915L113.659 545.902C112.85 545.443 112.868 544.642 113.694 544.118L124.483 537.352C125.309 536.833 126.644 536.786 127.453 537.246L137.976 543.264C138.785 543.723 138.767 544.524 137.94 545.048L127.152 551.815C126.325 552.327 124.991 552.374 124.182 551.915Z" fill="#021B1B" stroke="#E9EEF1" stroke-miterlimit="10"/>
<path d="M140.101 561.019L129.579 555.001C128.77 554.542 128.787 553.741 129.614 553.217L140.403 546.45C141.229 545.932 142.564 545.885 143.373 546.344L153.895 552.363C154.704 552.822 154.687 553.623 153.86 554.147L143.072 560.913C142.245 561.432 140.91 561.479 140.101 561.019Z" fill="#021B1B" stroke="#E9EEF1" stroke-miterlimit="10"/>
<path d="M156.021 570.123L145.498 564.105C144.69 563.646 144.707 562.845 145.534 562.321L156.322 555.554C157.149 555.036 158.484 554.989 159.293 555.448L169.815 561.467C170.624 561.926 170.606 562.727 169.78 563.251L158.991 570.017C158.165 570.536 156.824 570.583 156.021 570.123Z" fill="#021B1B" stroke="#E9EEF1" stroke-miterlimit="10"/>
<path d="M171.935 579.222L161.412 573.203C160.603 572.744 160.621 571.943 161.448 571.419L172.236 564.653C173.063 564.135 174.397 564.087 175.206 564.547L185.729 570.565C186.538 571.025 186.52 571.825 185.694 572.35L174.905 579.116C174.079 579.64 172.744 579.687 171.935 579.222Z" fill="#021B1B" stroke="#E9EEF1" stroke-miterlimit="10"/>
<path d="M187.855 588.326L177.332 582.308C176.523 581.848 176.541 581.047 177.368 580.523L188.156 573.757C188.983 573.239 190.317 573.191 191.126 573.651L201.649 579.669C202.458 580.129 202.44 580.929 201.613 581.454L190.825 588.22C189.998 588.738 188.664 588.785 187.855 588.326Z" fill="#021B1B" stroke="#E9EEF1" stroke-miterlimit="10"/>
<path d="M175.094 600.169L161.377 592.325C160.568 591.865 160.586 591.064 161.412 590.54L172.201 583.774C173.027 583.256 174.362 583.209 175.171 583.668L188.888 591.512C189.697 591.971 189.679 592.772 188.853 593.296L178.064 600.063C177.238 600.581 175.897 600.628 175.094 600.169Z" fill="#021B1B" stroke="#E9EEF1" stroke-miterlimit="10"/>
<path d="M191.416 609.503L180.491 603.255C179.682 602.795 179.7 601.995 180.527 601.47L191.315 594.704C192.142 594.186 193.476 594.139 194.285 594.598L205.21 600.846C206.019 601.306 206.001 602.106 205.174 602.631L194.386 609.397C193.559 609.915 192.219 609.962 191.416 609.503Z" fill="#021B1B" stroke="#E9EEF1" stroke-miterlimit="10"/>
<path d="M206.957 618.389L196.813 612.588C196.01 612.129 196.021 611.328 196.848 610.804L204.253 606.164C205.08 605.645 206.414 605.598 207.223 606.058L217.368 611.858C218.177 612.317 218.159 613.118 217.332 613.637L209.928 618.277C209.101 618.801 207.761 618.848 206.957 618.389Z" fill="#021B1B" stroke="#E9EEF1" stroke-miterlimit="10"/>
<path d="M235.85 620.167C236.677 619.649 236.695 618.848 235.886 618.383L225.741 612.582C224.932 612.123 223.598 612.17 222.771 612.688C218.484 615.38 216.27 616.769 211.983 619.455C211.156 619.973 211.138 620.774 211.947 621.239L222.092 627.04C222.901 627.499 224.235 627.452 225.062 626.934C229.343 624.248 231.558 622.859 235.85 620.167Z" fill="#021B1B" stroke="#E9EEF1" stroke-miterlimit="10"/>
<path d="M203.775 597.43L193.252 591.412C192.443 590.953 192.461 590.152 193.287 589.628L204.076 582.861C204.902 582.343 206.237 582.296 207.046 582.755L217.569 588.774C218.378 589.233 218.36 590.034 217.533 590.558L206.745 597.324C205.918 597.843 204.578 597.89 203.775 597.43Z" fill="#021B1B" stroke="#E9EEF1" stroke-miterlimit="10"/>
<path d="M219.694 606.534L209.172 600.516C208.363 600.057 208.381 599.256 209.207 598.732L219.996 591.965C220.822 591.447 222.157 591.4 222.966 591.859L233.488 597.878C234.297 598.337 234.28 599.138 233.453 599.662L222.665 606.428C221.838 606.947 220.498 606.994 219.694 606.534Z" fill="#021B1B" stroke="#E9EEF1" stroke-miterlimit="10"/>
<path d="M111.876 506.718L101.353 500.699C100.544 500.24 100.562 499.439 101.388 498.915L112.177 492.148C113.003 491.63 114.338 491.583 115.147 492.042L125.67 498.061C126.479 498.52 126.461 499.321 125.634 499.845L114.846 506.612C114.013 507.13 112.679 507.177 111.876 506.718Z" fill="#021B1B" stroke="#E9EEF1" stroke-miterlimit="10"/>
<path d="M127.612 515.716L117.09 509.697C116.281 509.238 116.298 508.437 117.125 507.913L127.913 501.146C128.74 500.628 130.081 500.581 130.884 501.04L141.406 507.059C142.215 507.518 142.198 508.319 141.371 508.843L130.583 515.61C129.756 516.128 128.421 516.175 127.612 515.716Z" fill="#021B1B" stroke="#E9EEF1" stroke-miterlimit="10"/>
<path d="M143.349 524.714L132.826 518.696C132.017 518.236 132.035 517.435 132.862 516.911L143.65 510.145C144.477 509.627 145.811 509.58 146.62 510.039L157.143 516.057C157.952 516.517 157.934 517.318 157.108 517.842L146.319 524.608C145.493 525.132 144.158 525.179 143.349 524.714Z" fill="#021B1B" stroke="#E9EEF1" stroke-miterlimit="10"/>
<path d="M159.092 533.719L148.569 527.7C147.76 527.241 147.778 526.44 148.605 525.922L159.393 519.155C160.22 518.637 161.554 518.59 162.363 519.049L172.886 525.068C173.695 525.527 173.677 526.328 172.85 526.852L162.062 533.618C161.235 534.131 159.901 534.178 159.092 533.719Z" fill="#021B1B" stroke="#E9EEF1" stroke-miterlimit="10"/>
<path d="M174.828 542.717L164.306 536.698C163.497 536.239 163.515 535.438 164.341 534.92L175.13 528.153C175.956 527.635 177.291 527.588 178.1 528.047L188.622 534.066C189.431 534.525 189.414 535.326 188.587 535.85L177.799 542.616C176.972 543.129 175.637 543.176 174.828 542.717Z" fill="#021B1B" stroke="#E9EEF1" stroke-miterlimit="10"/>
<path d="M190.571 551.72L180.048 545.702C179.239 545.243 179.257 544.442 180.084 543.918L190.872 537.151C191.699 536.633 193.039 536.586 193.842 537.045L204.365 543.064C205.174 543.523 205.156 544.324 204.33 544.848L193.541 551.614C192.715 552.133 191.374 552.18 190.571 551.72Z" fill="#021B1B" stroke="#E9EEF1" stroke-miterlimit="10"/>
<path d="M206.308 560.719L195.785 554.701C194.976 554.241 194.994 553.44 195.821 552.916L206.609 546.15C207.436 545.632 208.776 545.585 209.579 546.044L220.102 552.062C220.911 552.522 220.893 553.323 220.066 553.847L209.278 560.613C208.451 561.131 207.117 561.178 206.308 560.719Z" fill="#021B1B" stroke="#E9EEF1" stroke-miterlimit="10"/>
<path d="M222.051 569.717L211.528 563.699C210.719 563.239 210.737 562.438 211.563 561.92L222.352 555.154C223.178 554.636 224.513 554.588 225.322 555.048L235.845 561.066C236.654 561.526 236.636 562.326 235.809 562.851L225.021 569.617C224.194 570.135 222.854 570.182 222.051 569.717Z" fill="#021B1B" stroke="#E9EEF1" stroke-miterlimit="10"/>
<path d="M237.787 578.721L227.265 572.703C226.456 572.244 226.473 571.443 227.3 570.925L238.088 564.158C238.915 563.64 240.25 563.593 241.059 564.052L251.581 570.071C252.39 570.53 252.373 571.331 251.54 571.855L240.752 578.621C239.931 579.134 238.596 579.181 237.787 578.721Z" fill="#021B1B" stroke="#E9EEF1" stroke-miterlimit="10"/>
<path d="M253.53 587.72L243.007 581.701C242.198 581.242 242.216 580.441 243.043 579.917L253.831 573.15C254.658 572.632 255.992 572.585 256.801 573.044L267.324 579.063C268.133 579.522 268.115 580.323 267.289 580.847L256.5 587.614C255.673 588.132 254.333 588.179 253.53 587.72Z" fill="#021B1B" stroke="#E9EEF1" stroke-miterlimit="10"/>
<path d="M269.267 596.718L258.744 590.7C257.935 590.24 257.953 589.439 258.779 588.915L269.568 582.149C270.395 581.631 271.729 581.584 272.538 582.043L283.061 588.061C283.87 588.521 283.852 589.322 283.025 589.846L272.237 596.612C271.41 597.136 270.076 597.183 269.267 596.718Z" fill="#021B1B" stroke="#E9EEF1" stroke-miterlimit="10"/>
<path d="M285.009 605.722L274.487 599.703C273.678 599.244 273.695 598.443 274.522 597.919L285.31 591.153C286.137 590.635 287.478 590.587 288.281 591.047L298.803 597.065C299.612 597.525 299.595 598.325 298.768 598.85L287.98 605.616C287.153 606.134 285.812 606.181 285.009 605.722Z" fill="#021B1B" stroke="#E9EEF1" stroke-miterlimit="10"/>
<path d="M300.923 595.74L282.99 585.488C282.181 585.028 282.199 584.227 283.025 583.703L293.814 576.937C294.64 576.419 295.975 576.372 296.784 576.831L314.717 587.084C315.526 587.543 315.508 588.344 314.682 588.868L303.893 595.634C303.061 596.152 301.726 596.2 300.923 595.74Z" fill="#021B1B" stroke="#E9EEF1" stroke-miterlimit="10"/>
<path d="M269.095 615.704L248.251 603.785C247.442 603.325 247.46 602.524 248.286 602L259.075 595.234C259.901 594.716 261.236 594.669 262.045 595.128L282.889 607.047C283.698 607.506 283.681 608.307 282.854 608.831L272.066 615.598C271.239 616.116 269.899 616.163 269.095 615.704Z" fill="#021B1B" stroke="#E9EEF1" stroke-miterlimit="10"/>
<path d="M253.182 625.68L224.914 609.515C224.105 609.055 224.123 608.254 224.95 607.73L235.738 600.964C236.565 600.446 237.899 600.398 238.708 600.858L266.976 617.023C267.785 617.482 267.767 618.283 266.94 618.807L256.152 625.574C255.325 626.098 253.985 626.145 253.182 625.68Z" fill="#021B1B" stroke="#E9EEF1" stroke-miterlimit="10"/>
<path d="M237.22 635.691L227.076 629.89C226.273 629.431 226.284 628.63 227.111 628.106L234.516 623.465C235.343 622.947 236.677 622.9 237.486 623.359L247.631 629.16C248.44 629.619 248.422 630.42 247.595 630.938L240.191 635.579C239.358 636.109 238.023 636.156 237.22 635.691Z" fill="#021B1B" stroke="#E9EEF1" stroke-miterlimit="10"/>
</g>
<defs>
<clipPath id="clip0_2041_15629">
<rect width="835" height="774" fill="white"/>
</clipPath>
</defs>
</svg>
