<svg width="274" height="162" viewBox="0 0 274 162" fill="none" xmlns="http://www.w3.org/2000/svg">
<path d="M259.617 69.6915L154.532 9.02112C144.04 2.96334 127.086 2.96334 116.661 9.02112L12.262 69.6915C1.83716 75.7492 1.89139 85.5712 12.3864 91.629L117.468 152.299C127.96 158.357 144.914 158.357 155.339 152.299L259.738 91.629C270.163 85.5712 270.109 75.7492 259.617 69.6915Z" stroke="#E9EEF1" stroke-width="3" stroke-miterlimit="10"/>
<path d="M193.737 58.0575C193.731 58.134 193.724 58.2106 193.712 58.2872C193.699 58.3478 193.68 58.4116 193.664 58.4722C193.645 58.5455 193.625 58.6189 193.6 58.6891C193.562 58.7976 193.517 58.9028 193.466 59.0081C193.456 59.0272 193.447 59.0432 193.437 59.0623C193.377 59.1772 193.31 59.2888 193.233 59.4005C193.22 59.4164 193.208 59.4324 193.198 59.4483C193.125 59.5504 193.045 59.6493 192.959 59.7482C192.943 59.7673 192.927 59.7865 192.911 59.8056C192.818 59.9077 192.713 60.0066 192.605 60.1055C192.534 60.1693 192.458 60.2299 192.381 60.2905C192.314 60.3447 192.251 60.3989 192.177 60.45C192.094 60.5106 192.005 60.568 191.916 60.6254C191.823 60.686 191.737 60.7466 191.638 60.8041L164.124 82.4098L153.479 90.7676L191.616 68.6068C191.644 68.5908 191.676 68.5717 191.705 68.5557C191.772 68.5143 191.829 68.4728 191.893 68.4313C191.983 68.3739 192.072 68.3165 192.155 68.2559C192.228 68.2048 192.292 68.1506 192.359 68.0964C192.436 68.0358 192.512 67.9751 192.582 67.9113C192.595 67.8986 192.614 67.8858 192.627 67.8731C192.719 67.7869 192.806 67.6976 192.889 67.6083C192.905 67.5892 192.92 67.57 192.936 67.5509C192.984 67.4966 193.035 67.4424 193.077 67.385C193.112 67.3403 193.141 67.2957 193.172 67.251C193.185 67.2351 193.198 67.2191 193.208 67.2032C193.265 67.1202 193.319 67.0341 193.367 66.9512C193.383 66.9224 193.396 66.8937 193.412 66.865C193.421 66.8459 193.431 66.8299 193.44 66.8108C193.485 66.7215 193.527 66.629 193.562 66.5365C193.568 66.5205 193.568 66.5077 193.574 66.4918C193.6 66.4184 193.619 66.3483 193.638 66.2749C193.651 66.227 193.67 66.176 193.68 66.1281C193.683 66.1154 193.683 66.1026 193.683 66.0899C193.696 66.0133 193.702 65.9367 193.708 65.8602C193.712 65.8091 193.724 65.7613 193.724 65.7103C193.724 65.6879 193.724 65.6688 193.724 65.6465L193.747 57.8438C193.756 57.9139 193.743 57.9873 193.737 58.0575Z" stroke="#E9EEF1" stroke-width="3" stroke-miterlimit="10"/>
<path d="M191.609 54.8453C194.458 56.4913 194.474 59.1581 191.644 60.801L153.486 90.7645L118.495 70.5623L156.653 40.5988C159.483 38.9527 164.089 38.9527 166.941 40.5988L191.609 54.8453Z" stroke="#E9EEF1" stroke-width="3" stroke-miterlimit="10"/>
<path d="M153.486 90.7676L115.35 112.928C112.52 114.574 107.914 114.574 105.065 112.928L80.3937 98.6852C77.5418 97.0391 77.5259 94.3723 80.3586 92.7263L118.495 70.5654L153.486 90.7676Z" stroke="#E9EEF1" stroke-width="3" stroke-miterlimit="10"/>
<path d="M180.83 55.7959C181.861 56.3925 181.867 57.3558 180.843 57.9492L180.518 58.1374C179.494 58.7339 177.829 58.7339 176.798 58.1374L161.298 49.1895C160.268 48.593 160.261 47.6296 161.285 47.0362L161.611 46.848C162.635 46.2515 164.3 46.2515 165.33 46.848L180.83 55.7959Z" fill="#373737"/>
</svg>
