<svg width="272" height="162" viewBox="0 0 272 162" fill="none" xmlns="http://www.w3.org/2000/svg">
<g opacity="0.8">
<path d="M251.089 67.4022L149.456 8.72467C139.309 2.86587 122.911 2.86587 112.829 8.72467L11.8593 67.4022C1.77685 73.261 1.8293 82.7603 11.9796 88.6191L113.609 147.297C123.757 153.155 140.154 153.155 150.237 147.297L251.206 88.6191C261.289 82.7603 261.236 73.261 251.089 67.4022Z" stroke="#E9EEF1" stroke-width="2" stroke-miterlimit="10"/>
<path d="M187.373 56.1506C187.367 56.2246 187.36 56.2986 187.348 56.3727C187.336 56.4313 187.317 56.493 187.302 56.5516C187.283 56.6226 187.265 56.6936 187.24 56.7614C187.203 56.8663 187.16 56.9681 187.111 57.07C187.101 57.0885 187.092 57.1039 187.083 57.1224C187.024 57.2335 186.959 57.3414 186.885 57.4494C186.873 57.4649 186.861 57.4803 186.851 57.4957C186.78 57.5944 186.703 57.6901 186.62 57.7857C186.605 57.8042 186.589 57.8227 186.574 57.8413C186.484 57.94 186.382 58.0356 186.278 58.1313C186.21 58.193 186.136 58.2516 186.062 58.3102C185.997 58.3627 185.935 58.4151 185.864 58.4645C185.784 58.5231 185.698 58.5786 185.611 58.6341C185.522 58.6928 185.438 58.7514 185.343 58.8069L158.733 79.703L148.438 87.7862L185.321 66.3533C185.349 66.3379 185.38 66.3194 185.408 66.304C185.472 66.2639 185.528 66.2238 185.59 66.1836C185.676 66.1281 185.762 66.0726 185.843 66.014C185.913 65.9646 185.975 65.9121 186.04 65.8597C186.114 65.8011 186.188 65.7425 186.256 65.6808C186.268 65.6684 186.287 65.6561 186.299 65.6437C186.389 65.5604 186.472 65.474 186.552 65.3877C186.568 65.3691 186.583 65.3506 186.598 65.3321C186.645 65.2797 186.694 65.2272 186.734 65.1717C186.768 65.1285 186.796 65.0853 186.827 65.0421C186.839 65.0267 186.851 65.0113 186.861 64.9958C186.916 64.9156 186.969 64.8323 187.015 64.7521C187.03 64.7243 187.043 64.6966 187.058 64.6688C187.067 64.6503 187.077 64.6349 187.086 64.6164C187.129 64.53 187.169 64.4405 187.203 64.351C187.209 64.3356 187.209 64.3233 187.215 64.3078C187.24 64.2369 187.259 64.169 187.277 64.098C187.289 64.0518 187.308 64.0024 187.317 63.9561C187.32 63.9438 187.32 63.9314 187.32 63.9191C187.333 63.8451 187.339 63.771 187.345 63.697C187.348 63.6476 187.36 63.6013 187.36 63.552C187.36 63.5304 187.36 63.5119 187.36 63.4903L187.382 55.9438C187.391 56.0117 187.379 56.0827 187.373 56.1506Z" stroke="#E9EEF1" stroke-width="2" stroke-miterlimit="10"/>
<path d="M185.316 53.0438C188.071 54.6358 188.087 57.215 185.35 58.8039L148.445 87.7832L114.604 68.2446L151.509 39.2653C154.245 37.6733 158.7 37.6733 161.459 39.2653L185.316 53.0438Z" stroke="#E9EEF1" stroke-width="2" stroke-miterlimit="10"/>
<path d="M148.444 87.7862L111.56 109.219C108.824 110.811 104.369 110.811 101.614 109.219L77.7525 95.4436C74.9944 93.8517 74.9789 91.2724 77.7186 89.6805L114.602 68.2476L148.444 87.7862Z" stroke="#E9EEF1" stroke-width="2" stroke-miterlimit="10"/>
<path d="M174.89 53.9627C175.887 54.5396 175.893 55.4713 174.902 56.0452L174.588 56.2272C173.597 56.8041 171.987 56.8041 170.99 56.2272L155.999 47.5732C155.003 46.9963 154.997 46.0646 155.987 45.4907L156.302 45.3087C157.292 44.7317 158.902 44.7317 159.899 45.3087L174.89 53.9627Z" fill="#373737"/>
</g>
</svg>
