<svg width="1360" height="825" viewBox="0 0 1360 825" fill="none" xmlns="http://www.w3.org/2000/svg">
<g clip-path="url(#clip0_6895_95695)">
<path d="M1345.14 825H14.861C6.67125 825 0 818.326 0 810.133V95.419C0 87.2262 6.67125 80.5524 14.861 80.5524H119.382V84.4476H14.861C8.8128 84.4476 3.89372 89.3685 3.89372 95.419V810.12C3.89372 816.171 8.8128 821.092 14.861 821.092H1345.14C1351.19 821.092 1356.11 816.171 1356.11 810.12V95.419C1356.11 89.3685 1351.19 84.4476 1345.14 84.4476H1237.33V80.5524H1345.14C1353.33 80.5524 1360 87.2262 1360 95.419V810.12C1360 818.326 1353.34 825 1345.14 825Z" fill="#E9EEF1"/>
<path d="M858.71 80.5525H498.631V84.4477H858.71V80.5525Z" fill="#E9EEF1"/>
<path d="M111.608 568.113C100.147 568.113 90.8281 558.79 90.8281 547.325C90.8281 535.86 100.147 526.538 111.608 526.538C123.068 526.538 132.387 535.873 132.387 547.325C132.387 558.777 123.068 568.113 111.608 568.113ZM111.608 527.564C100.718 527.564 91.8535 536.432 91.8535 547.325C91.8535 558.219 100.718 567.087 111.608 567.087C122.497 567.087 131.362 558.219 131.362 547.325C131.362 536.432 122.51 527.564 111.608 527.564Z" fill="#E9EEF1"/>
<path d="M111.609 563.373C102.757 563.373 95.5664 556.18 95.5664 547.325C95.5664 538.47 102.757 531.277 111.609 531.277C120.46 531.277 127.651 538.47 127.651 547.325C127.651 556.18 120.46 563.373 111.609 563.373ZM111.609 532.303C103.328 532.303 96.5918 539.041 96.5918 547.325C96.5918 555.609 103.328 562.348 111.609 562.348C119.889 562.348 126.625 555.609 126.625 547.325C126.625 539.041 119.889 532.303 111.609 532.303Z" fill="#E9EEF1"/>
<path d="M88.5691 622.593C76.5245 605.649 74.9021 580.668 84.5585 560.413C86.3886 556.57 88.5691 552.986 91.061 549.753L91.8657 550.377C89.4257 553.558 87.2711 557.076 85.48 560.855C75.9793 580.785 77.5498 605.364 89.3997 622.009L88.5691 622.593Z" fill="#E9EEF1"/>
<path d="M143.744 550.467C142.446 550.467 141.148 550 139.967 549.078C139.734 548.935 139.5 548.805 139.266 548.676C136.878 547.312 134.347 546.313 131.764 545.689L131.998 544.703C134.685 545.352 137.306 546.39 139.772 547.793C139.98 547.91 140.175 548.026 140.382 548.156L140.395 548.143L141.395 548.792L141.382 548.818C142.926 549.701 144.302 549.533 145.25 549.195C146.976 548.572 148.43 546.897 148.78 545.118C149.221 542.859 149.143 540.496 146.054 538.301L143.835 537.003L143.861 536.964C137.865 533.614 131.245 531.991 124.535 532.238L124.496 531.212C131.79 530.953 138.968 532.822 145.392 536.665C145.769 536.873 146.106 537.081 146.418 537.302C146.535 537.38 146.638 537.444 146.755 537.522L146.742 537.535C150.208 540.041 150.26 542.833 149.766 545.313C149.338 547.455 147.664 549.403 145.574 550.143C144.99 550.364 144.367 550.467 143.744 550.467Z" fill="#E9EEF1"/>
<path d="M92.2681 624.619C90.4121 624.619 88.3614 623.333 86.168 618.867L87.0895 618.412C90.2953 624.956 92.8911 623.71 94.2929 623.048C95.5648 622.437 96.707 620.788 97.1483 618.932C97.4208 617.815 97.6285 615.751 96.4085 613.608C87.4399 600.637 86.3237 581.642 93.618 566.321C94.4876 564.49 95.474 562.724 96.5383 561.075L97.3949 561.634C96.3436 563.257 95.3831 564.983 94.5395 566.762C87.5697 581.382 88.4263 599.404 96.5902 612.05C98.1866 614.128 98.7317 616.647 98.1347 619.165C97.6155 621.334 96.2787 623.216 94.7212 623.957C93.9684 624.346 93.1377 624.619 92.2681 624.619Z" fill="#E9EEF1"/>
<path d="M207.133 620.529C180.162 620.529 158.215 598.573 158.215 571.579C158.215 544.586 180.162 522.63 207.133 522.63C234.104 522.63 256.051 544.586 256.051 571.579C256.051 598.573 234.117 620.529 207.133 620.529ZM207.133 523.669C180.721 523.669 159.24 545.17 159.24 571.592C159.24 598.015 180.721 619.516 207.133 619.516C233.545 619.516 255.026 598.015 255.026 571.592C255.026 545.17 233.545 523.669 207.133 523.669Z" fill="#E9EEF1"/>
<path d="M205.225 599.923C188.936 599.923 175.672 586.654 175.672 570.359C175.672 554.051 188.924 540.794 205.225 540.794C221.514 540.794 234.779 554.064 234.779 570.359C234.779 586.654 221.514 599.923 205.225 599.923ZM205.225 541.794C189.495 541.794 176.697 554.596 176.697 570.346C176.697 586.095 189.495 598.898 205.225 598.898C220.956 598.898 233.753 586.095 233.753 570.346C233.753 554.596 220.956 541.794 205.225 541.794Z" fill="#E9EEF1"/>
<path d="M205.16 594.184C192.155 594.184 181.564 583.59 181.564 570.58C181.564 557.57 192.155 546.975 205.16 546.975C218.178 546.975 228.756 557.57 228.756 570.58C228.756 583.59 218.165 594.184 205.16 594.184ZM205.16 547.988C192.713 547.988 182.577 558.128 182.577 570.58C182.577 583.031 192.701 593.172 205.16 593.172C217.607 593.172 227.744 583.031 227.744 570.58C227.744 558.128 217.607 547.988 205.16 547.988Z" fill="#E9EEF1"/>
<path d="M412.216 563.958C404.403 563.958 398.043 557.596 398.043 549.779C398.043 541.963 404.403 535.601 412.216 535.601C420.03 535.601 426.389 541.963 426.389 549.779C426.389 557.596 420.03 563.958 412.216 563.958ZM412.216 536.601C404.961 536.601 399.055 542.508 399.055 549.766C399.055 557.024 404.961 562.932 412.216 562.932C419.471 562.932 425.377 557.024 425.377 549.766C425.377 542.508 419.471 536.601 412.216 536.601Z" fill="#E9EEF1"/>
<path d="M412.956 570.125C405.779 570.125 399.237 566.36 396.291 560.543L399.769 558.777C402.054 563.308 407.232 566.23 412.969 566.23C419.563 566.23 424.495 562.348 425.818 556.089L429.621 556.894C427.908 564.931 421.367 570.125 412.956 570.125Z" fill="#E9EEF1"/>
<path d="M1243.9 567.658C1232.44 567.658 1223.12 558.336 1223.12 546.871C1223.12 535.406 1232.44 526.083 1243.9 526.083C1255.36 526.083 1264.68 535.406 1264.68 546.871C1264.68 558.336 1255.36 567.658 1243.9 567.658ZM1243.9 527.109C1233.01 527.109 1224.15 535.977 1224.15 546.871C1224.15 557.764 1233.01 566.632 1243.9 566.632C1254.79 566.632 1263.65 557.764 1263.65 546.871C1263.67 535.977 1254.8 527.109 1243.9 527.109Z" fill="#E9EEF1"/>
<path d="M1243.9 562.919C1235.05 562.919 1227.86 555.726 1227.86 546.871C1227.86 538.016 1235.05 530.822 1243.9 530.822C1252.75 530.822 1259.94 538.016 1259.94 546.871C1259.94 555.726 1252.75 562.919 1243.9 562.919ZM1243.9 531.835C1235.62 531.835 1228.88 538.574 1228.88 546.858C1228.88 555.141 1235.62 561.88 1243.9 561.88C1252.18 561.88 1258.92 555.141 1258.92 546.858C1258.92 538.574 1252.2 531.835 1243.9 531.835Z" fill="#E9EEF1"/>
<path d="M1266.94 622.126L1266.11 621.528C1277.95 604.883 1279.53 580.304 1270.03 560.374C1268.24 556.596 1266.08 553.077 1263.64 549.896L1264.45 549.273C1266.94 552.506 1269.12 556.089 1270.95 559.933C1280.61 580.201 1279 605.182 1266.94 622.126Z" fill="#E9EEF1"/>
<path d="M1211.78 550.013C1211.15 550.013 1210.53 549.909 1209.92 549.688C1207.85 548.935 1206.16 547.001 1205.73 544.858C1205.24 542.378 1205.3 539.6 1208.75 537.081L1208.74 537.068C1208.86 536.99 1208.96 536.925 1209.08 536.847C1209.39 536.626 1209.74 536.419 1210.1 536.211C1216.53 532.368 1223.71 530.498 1231 530.758L1230.96 531.783C1224.25 531.537 1217.63 533.16 1211.64 536.51L1211.66 536.549L1209.44 537.847C1206.35 540.041 1206.27 542.404 1206.72 544.663C1207.07 546.442 1208.52 548.117 1210.25 548.74C1211.19 549.078 1212.57 549.234 1214.11 548.364L1214.1 548.338L1215.1 547.689L1215.11 547.702C1215.32 547.585 1215.52 547.455 1215.72 547.338C1218.19 545.923 1220.81 544.884 1223.5 544.248L1223.73 545.235C1221.14 545.858 1218.6 546.858 1216.23 548.221C1216 548.351 1215.76 548.494 1215.53 548.637C1214.37 549.532 1213.08 550.013 1211.78 550.013Z" fill="#E9EEF1"/>
<path d="M1263.24 624.164C1262.37 624.164 1261.55 623.879 1260.77 623.515C1259.22 622.775 1257.88 620.892 1257.36 618.724C1256.76 616.205 1257.31 613.673 1258.91 611.609C1267.07 598.962 1267.93 580.941 1260.96 566.321C1260.1 564.529 1259.14 562.802 1258.1 561.192L1258.96 560.634C1260.02 562.283 1261.01 564.048 1261.88 565.879C1269.17 581.2 1268.06 600.196 1259.09 613.167C1257.88 615.309 1258.09 617.374 1258.35 618.49C1258.79 620.347 1259.94 621.996 1261.2 622.606C1262.6 623.268 1265.2 624.515 1268.41 617.971L1269.33 618.425C1267.15 622.879 1265.1 624.164 1263.24 624.164Z" fill="#E9EEF1"/>
<path d="M1148.38 620.074C1121.4 620.074 1099.46 598.118 1099.46 571.125C1099.46 544.131 1121.4 522.175 1148.38 522.175C1175.35 522.175 1197.29 544.131 1197.29 571.125C1197.29 598.118 1175.35 620.074 1148.38 620.074ZM1148.38 523.201C1121.96 523.201 1100.48 544.702 1100.48 571.125C1100.48 597.547 1121.96 619.049 1148.38 619.049C1174.79 619.049 1196.27 597.547 1196.27 571.125C1196.27 544.702 1174.79 523.201 1148.38 523.201Z" fill="#E9EEF1"/>
<path d="M1150.3 599.456C1134.01 599.456 1120.74 586.186 1120.74 569.891C1120.74 553.584 1133.99 540.327 1150.3 540.327C1166.58 540.327 1179.85 553.597 1179.85 569.891C1179.85 586.199 1166.58 599.456 1150.3 599.456ZM1150.3 541.34C1134.56 541.34 1121.77 554.142 1121.77 569.891C1121.77 585.641 1134.56 598.443 1150.3 598.443C1166.03 598.443 1178.82 585.641 1178.82 569.891C1178.82 554.142 1166.03 541.34 1150.3 541.34Z" fill="#E9EEF1"/>
<path d="M1150.36 593.73C1137.34 593.73 1126.77 583.135 1126.77 570.125C1126.77 557.115 1137.36 546.52 1150.36 546.52C1163.37 546.52 1173.96 557.115 1173.96 570.125C1173.96 583.135 1163.37 593.73 1150.36 593.73ZM1150.36 547.52C1137.91 547.52 1127.78 557.66 1127.78 570.112C1127.78 582.564 1137.9 592.704 1150.36 592.704C1162.81 592.704 1172.95 582.564 1172.95 570.112C1172.95 557.66 1162.81 547.52 1150.36 547.52Z" fill="#E9EEF1"/>
<path d="M943.306 563.49C935.493 563.49 929.133 557.128 929.133 549.312C929.133 541.495 935.493 535.133 943.306 535.133C951.119 535.133 957.479 541.495 957.479 549.312C957.479 557.128 951.119 563.49 943.306 563.49ZM943.306 536.146C936.051 536.146 930.145 542.054 930.145 549.312C930.145 556.57 936.051 562.477 943.306 562.477C950.561 562.477 956.467 556.57 956.467 549.312C956.454 542.054 950.561 536.146 943.306 536.146Z" fill="#E9EEF1"/>
<path d="M942.566 569.671C934.156 569.671 927.614 564.477 925.914 556.44L929.717 555.635C931.041 561.893 935.973 565.775 942.566 565.775C948.29 565.775 953.469 562.854 955.766 558.323L959.244 560.088C956.285 565.905 949.744 569.671 942.566 569.671Z" fill="#E9EEF1"/>
<path d="M289.641 586.615C281.114 581.486 272.366 575.436 263.903 569.58C239.113 552.428 215.686 536.237 197.879 541.768C193.829 543.028 186.782 544.767 178.631 546.793C161.252 551.104 137.461 557.011 129.544 561.66C117.785 568.554 108.063 569.333 100.639 563.958C81.4693 550.065 77.4588 496.013 88.7117 403.281C97.0832 334.337 111.23 268.599 111.373 267.95L112.373 268.17C111.801 270.793 56.1991 530.485 101.249 563.127C108.31 568.242 117.655 567.45 129.038 560.777C137.085 556.063 159.993 550.376 178.397 545.806C186.535 543.781 193.57 542.041 197.593 540.794C215.881 535.12 239.503 551.454 264.5 568.749C272.95 574.592 281.685 580.629 290.173 585.745L289.641 586.615Z" fill="url(#paint0_linear_6895_95695)"/>
<path d="M515.594 563.945C499.098 560.011 480.681 554.311 464.444 549.286C438.81 541.353 416.694 534.497 408.387 536.146C399.925 537.821 390.035 548.974 379.794 561.231L379.016 560.582C389.373 548.169 399.393 536.886 408.193 535.146C416.746 533.458 438.992 540.34 464.755 548.312C480.979 553.337 499.371 559.024 515.841 562.958L515.594 563.945Z" fill="url(#paint1_linear_6895_95695)"/>
<path d="M755.578 563.438L755.098 562.543L758.057 560.959C763.794 557.907 770.283 554.441 775.747 550.649C783.055 545.56 791.997 541.106 801.602 537.743C822.796 530.342 935.598 528.187 948.797 534.926C957.091 539.158 969.084 547.429 981.699 557.622L981.063 558.414C968.5 548.26 956.572 540.028 948.33 535.835C935.221 529.135 823.03 531.342 801.939 538.704C792.412 542.028 783.561 546.442 776.331 551.48C770.828 555.311 764.3 558.79 758.537 561.854L755.578 563.438Z" fill="url(#paint2_linear_6895_95695)"/>
<path d="M1071.53 595.262L1071.06 594.353C1085.49 586.952 1100.96 573.903 1111.4 564.269L1114.79 561.14C1116.84 559.244 1118.82 557.401 1120.73 555.661C1121.73 554.739 1124 553.194 1125.83 551.947C1126.48 551.506 1127.05 551.117 1127.45 550.818L1128.05 551.649C1127.64 551.934 1127.07 552.337 1126.42 552.778C1124.72 553.947 1122.38 555.544 1121.43 556.401C1119.51 558.154 1117.53 559.985 1115.49 561.88L1112.1 565.009C1101.61 574.695 1086.06 587.809 1071.53 595.262Z" fill="url(#paint3_linear_6895_95695)"/>
<path d="M1245.2 568.71C1242.77 568.71 1240.16 568.359 1237.36 567.645C1210.65 560.842 1189.77 556.077 1173.52 553.064L1173.7 552.065C1189.96 555.064 1210.87 559.842 1237.61 566.658C1245.33 568.632 1251.6 567.775 1256.24 564.14C1263.8 558.232 1264.86 546.936 1264.82 540.73C1264.75 528.213 1236.36 247.007 1236.07 244.163L1237.09 244.059C1237.37 246.903 1265.76 528.161 1265.84 540.717C1265.9 551.753 1262.72 560.348 1256.87 564.932C1253.67 567.451 1249.77 568.71 1245.2 568.71Z" fill="url(#paint4_linear_6895_95695)"/>
<path d="M1070.5 544.677H981.58V545.702H1070.5V544.677Z" fill="#E9EEF1"/>
<path d="M1070.5 639.316H981.58V640.342H1070.5V639.316Z" fill="#E9EEF1"/>
<path d="M982.1 545.183H981.074V640.109H982.1V545.183Z" fill="#E9EEF1"/>
<path d="M1071.6 545.326H1070.58V640.784H1071.6V545.326Z" fill="#E9EEF1"/>
<path d="M978.557 580.071H977.531V636.551H978.557V580.071Z" fill="#E9EEF1"/>
<path d="M1074.37 584.174H1073.34V640.654H1074.37V584.174Z" fill="#E9EEF1"/>
<path d="M785.948 609.025H785.857L572.545 608.817L572.468 608.791L515.84 588.368V479.848L515.957 479.705L525.847 467.786H837.851L845.327 478.575V588.368L785.948 609.025ZM572.727 607.805L785.779 608.012L844.314 587.653V478.9L837.319 468.811H526.314L516.852 480.224V587.653L572.727 607.805Z" fill="#E9EEF1"/>
<path d="M697.353 599.456H697.236L579.503 597.911L530.131 576.981C524.926 574.773 521.564 569.697 521.564 564.049V516.028C521.564 509.186 527.119 503.629 533.959 503.629H745.441C750.853 503.629 755.253 508.03 755.253 513.445V563.477C755.253 569.476 751.722 574.942 746.258 577.396L697.353 599.456ZM579.711 596.898L697.132 598.443L745.843 576.487C750.944 574.189 754.24 569.086 754.24 563.49V513.457C754.24 508.601 750.295 504.654 745.441 504.654H533.959C527.691 504.654 522.59 509.757 522.59 516.028V564.049C522.59 569.294 525.705 574.007 530.533 576.046L579.711 596.898Z" fill="#E9EEF1"/>
<path d="M697.353 591.575H697.236L579.503 590.03L530.131 569.099C524.926 566.892 521.564 561.815 521.564 556.167V515.028H522.59V556.167C522.59 561.413 525.705 566.126 530.533 568.165L579.724 589.004L697.145 590.549L745.856 568.593C750.957 566.295 754.253 561.192 754.253 555.596V512.445H755.279V555.596C755.279 561.595 751.748 567.061 746.284 569.515L697.353 591.575Z" fill="#E9EEF1"/>
<path d="M697.353 571.411H697.236L579.503 569.865L530.131 548.935C524.926 546.728 521.564 541.651 521.564 536.003V515.028H522.59V536.003C522.59 541.249 525.705 545.962 530.533 548L579.724 568.84L697.145 570.385L745.856 548.429C750.957 546.131 754.253 541.028 754.253 535.432V512.458H755.279V535.432C755.279 541.431 751.748 546.897 746.284 549.364L697.353 571.411Z" fill="#E9EEF1"/>
<path d="M743.144 490.481H530.936V494.377H743.144V490.481Z" fill="url(#paint5_linear_6895_95695)"/>
<path d="M802.899 599.456C787.117 599.456 774.268 586.602 774.268 570.813C774.268 555.025 787.117 542.171 802.899 542.171C818.682 542.171 831.531 555.025 831.531 570.813C831.531 586.602 818.695 599.456 802.899 599.456ZM802.899 543.196C787.675 543.196 775.28 555.583 775.28 570.826C775.28 586.069 787.662 598.456 802.899 598.456C818.137 598.456 830.519 586.069 830.519 570.826C830.519 555.583 818.124 543.196 802.899 543.196Z" fill="#E9EEF1"/>
<path d="M802.913 591.951C802.472 591.951 802.018 591.938 801.576 591.912C789.441 591.185 780.161 580.707 780.901 568.567C781.251 562.685 783.873 557.297 788.286 553.389C792.699 549.481 798.358 547.52 804.237 547.884C816.373 548.611 825.653 559.089 824.926 571.229C824.212 582.914 814.478 591.951 802.913 591.951ZM802.874 548.844C797.735 548.844 792.829 550.701 788.961 554.142C784.756 557.868 782.251 563.01 781.913 568.619C781.212 580.201 790.064 590.185 801.641 590.886C813.232 591.575 823.2 582.733 823.9 571.151C824.601 559.569 815.75 549.585 804.172 548.883C803.744 548.857 803.303 548.844 802.874 548.844Z" fill="#E9EEF1"/>
<path d="M773.384 547.974C763.299 547.974 755.109 539.769 755.109 529.693C755.109 519.604 763.312 511.412 773.384 511.412C783.469 511.412 791.659 519.617 791.659 529.693C791.659 539.769 783.456 547.974 773.384 547.974ZM773.384 512.411C763.87 512.411 756.122 520.163 756.122 529.68C756.122 539.197 763.87 546.949 773.384 546.949C782.898 546.949 790.646 539.197 790.646 529.68C790.646 520.163 782.898 512.411 773.384 512.411Z" fill="#E9EEF1"/>
<path d="M773.385 539.016C770.996 539.016 768.608 538.107 766.778 536.289C763.144 532.653 763.144 526.72 766.778 523.084C770.425 519.449 776.344 519.449 779.978 523.084C783.612 526.72 783.612 532.653 779.978 536.289C778.161 538.107 775.773 539.016 773.385 539.016ZM773.385 524.24C771.996 524.24 770.594 524.772 769.543 525.837C767.427 527.953 767.427 531.42 769.543 533.536C771.658 535.653 775.124 535.653 777.239 533.536C779.355 531.42 779.355 527.953 777.239 525.837C776.162 524.772 774.773 524.24 773.385 524.24Z" fill="#E9EEF1"/>
<path d="M841.668 474.906L840.643 474.912L841.292 589.171L842.317 589.165L841.668 474.906Z" fill="#E9EEF1"/>
<path d="M378.898 543.651H289.979V544.677H378.898V543.651Z" fill="#E9EEF1"/>
<path d="M378.898 638.291H289.979V639.317H378.898V638.291Z" fill="#E9EEF1"/>
<path d="M379.416 544.157H378.391V639.083H379.416V544.157Z" fill="#E9EEF1"/>
<path d="M289.912 544.313H288.887V639.771H289.912V544.313Z" fill="#E9EEF1"/>
<path d="M382.961 579.045H381.936V635.525H382.961V579.045Z" fill="#E9EEF1"/>
<path d="M287.148 583.148H286.123V639.628H287.148V583.148Z" fill="#E9EEF1"/>
<path d="M620.193 404.515H607.059V378.924H620.193V404.515ZM608.084 403.489H619.181V379.936H608.084V403.489Z" fill="#E9EEF1"/>
<path d="M607.565 401.931H604.463V376.353H620.194V401.425H619.168V377.366H605.488V400.918H607.565V401.931Z" fill="#E9EEF1"/>
<path d="M667.748 404.1H654.613V378.508H667.748V404.1ZM655.639 403.074H666.736V379.534H655.639V403.074Z" fill="#E9EEF1"/>
<path d="M655.133 401.516H652.018V375.937H667.748V401.009H666.736V376.95H653.043V400.503H655.133V401.516Z" fill="#E9EEF1"/>
<path d="M715.043 404.216H701.908V378.625H715.043V404.216ZM702.934 403.204H714.031V379.651H702.934V403.204Z" fill="#E9EEF1"/>
<path d="M702.428 401.646H699.326V376.054H715.044V401.126H714.031V377.08H700.339V400.62H702.428V401.646Z" fill="#E9EEF1"/>
<path d="M762.611 403.801H749.477V378.222H762.611V403.801ZM750.489 402.788H761.586V379.248H750.489V402.788Z" fill="#E9EEF1"/>
<path d="M749.983 401.217H746.881V375.639H762.611V400.711H761.586V376.651H747.893V400.204H749.983V401.217Z" fill="#E9EEF1"/>
<path d="M660.687 362.395C658.052 362.395 655.924 360.253 655.924 357.63C655.924 355.007 658.065 352.865 660.687 352.865C663.309 352.865 665.451 355.007 665.451 357.63C665.451 360.253 663.309 362.395 660.687 362.395ZM660.687 353.877C658.623 353.877 656.936 355.565 656.936 357.63C656.936 359.694 658.623 361.382 660.687 361.382C662.751 361.382 664.438 359.694 664.438 357.63C664.438 355.565 662.751 353.877 660.687 353.877Z" fill="#E9EEF1"/>
<path d="M625.293 362.291H595.883V363.317H625.293V362.291Z" fill="#E9EEF1"/>
<path d="M673.329 369.225H645.139V370.25H673.329V369.225Z" fill="#E9EEF1"/>
<path d="M711.695 361.382H699.832V362.408H711.695V361.382Z" fill="#E9EEF1"/>
<path d="M711.695 368.51H699.832V369.536H711.695V368.51Z" fill="#E9EEF1"/>
<path d="M760.677 363.005H748.814V364.031H760.677V363.005Z" fill="#E9EEF1"/>
<path d="M760.677 370.133H748.814V371.159H760.677V370.133Z" fill="#E9EEF1"/>
<path d="M620.985 368.965H606.279V369.991H620.985V368.965Z" fill="#E9EEF1"/>
<path d="M1335.35 123.49C1330.86 123.49 1327.2 119.829 1327.2 115.336C1327.2 110.844 1330.86 107.182 1335.35 107.182C1339.84 107.182 1343.5 110.844 1343.5 115.336C1343.5 119.829 1339.84 123.49 1335.35 123.49ZM1335.35 111.091C1333 111.091 1331.09 112.999 1331.09 115.349C1331.09 117.699 1333 119.608 1335.35 119.608C1337.7 119.608 1339.61 117.699 1339.61 115.349C1339.61 112.999 1337.7 111.091 1335.35 111.091Z" fill="#E9EEF1"/>
<path d="M1335.35 806.121C1330.86 806.121 1327.2 802.46 1327.2 797.967C1327.2 793.475 1330.86 789.813 1335.35 789.813C1339.84 789.813 1343.5 793.475 1343.5 797.967C1343.5 802.46 1339.84 806.121 1335.35 806.121ZM1335.35 793.709C1333 793.709 1331.09 795.617 1331.09 797.967C1331.09 800.317 1333 802.226 1335.35 802.226C1337.7 802.226 1339.61 800.317 1339.61 797.967C1339.61 795.617 1337.7 793.709 1335.35 793.709Z" fill="#E9EEF1"/>
<path d="M680.596 299.462C665.515 299.462 653.236 287.192 653.236 272.092C653.236 256.991 665.502 244.722 680.596 244.722C695.691 244.722 707.956 256.991 707.956 272.092C707.956 287.192 695.678 299.462 680.596 299.462ZM680.596 245.747C666.073 245.747 654.262 257.563 654.262 272.092C654.262 286.621 666.073 298.436 680.596 298.436C695.12 298.436 706.931 286.621 706.931 272.092C706.931 257.563 695.12 245.747 680.596 245.747Z" fill="#E9EEF1"/>
<path d="M656.078 258.978L641.334 250.499L641.658 249.928L656.403 258.407L656.078 258.978Z" fill="#E9EEF1"/>
<path d="M651.549 238.323L651.055 238.743L662.064 251.705L662.558 251.285L651.549 238.323Z" fill="#E9EEF1"/>
<path d="M664.642 230.61L664.035 230.84L670.059 246.745L670.666 246.515L664.642 230.61Z" fill="#E9EEF1"/>
<path d="M679.645 227.861L678.996 227.874L679.338 244.88L679.987 244.866L679.645 227.861Z" fill="#E9EEF1"/>
<path d="M694.063 230.07L688.656 246.196L689.272 246.403L694.678 230.277L694.063 230.07Z" fill="#E9EEF1"/>
<path d="M707.498 237.211L696.99 250.583L697.5 250.984L708.008 237.612L707.498 237.211Z" fill="#E9EEF1"/>
<path d="M717.786 248.475L703.389 257.522L703.734 258.072L718.132 249.025L717.786 248.475Z" fill="#E9EEF1"/>
<path d="M723.634 262.459L707.043 266.177L707.185 266.811L723.776 263.092L723.634 262.459Z" fill="#E9EEF1"/>
<path d="M724.453 278.337L707.58 276.233L707.658 275.597L724.531 277.688L724.453 278.337Z" fill="#E9EEF1"/>
<path d="M704.983 284.613L704.691 285.193L719.885 292.828L720.176 292.248L704.983 284.613Z" fill="#E9EEF1"/>
<path d="M699.47 292.252L699 292.7L710.735 305.008L711.205 304.56L699.47 292.252Z" fill="#E9EEF1"/>
<path d="M691.702 297.633L691.109 297.897L698.026 313.435L698.619 313.17L691.702 297.633Z" fill="#E9EEF1"/>
<path d="M663.919 314.069L663.309 313.822L669.629 298.034L670.239 298.28L663.919 314.069Z" fill="#E9EEF1"/>
<path d="M661.641 293.011L650.389 305.762L650.875 306.192L662.128 293.44L661.641 293.011Z" fill="#E9EEF1"/>
<path d="M641.296 294.385L640.984 293.814L655.858 285.595L656.183 286.166L641.296 294.385Z" fill="#E9EEF1"/>
<path d="M636.182 280.064L636.078 279.415L652.847 276.662L652.951 277.298L636.182 280.064Z" fill="#E9EEF1"/>
<path d="M636.353 264.201L636.236 264.839L652.96 267.904L653.077 267.266L636.353 264.201Z" fill="#E9EEF1"/>
<path d="M680.26 294.995C667.501 294.995 657.131 284.621 657.131 271.858C657.131 259.095 667.501 248.721 680.26 248.721C693.018 248.721 703.388 259.095 703.388 271.858C703.388 284.621 693.005 294.995 680.26 294.995ZM680.26 249.733C668.072 249.733 658.156 259.653 658.156 271.845C658.156 284.037 668.072 293.957 680.26 293.957C692.447 293.957 702.376 284.037 702.376 271.845C702.376 259.653 692.447 249.733 680.26 249.733Z" fill="url(#paint6_linear_6895_95695)"/>
<path d="M654.782 322.404C653.756 324.157 652.212 325.235 650.512 324.248C648.811 323.261 648.98 321.392 650.005 319.626C651.031 317.873 652.575 316.808 654.263 317.795C655.963 318.782 655.807 320.638 654.782 322.404ZM653.86 318.509C652.679 317.821 651.628 318.795 650.862 320.106C650.096 321.431 649.759 322.833 650.94 323.521C652.121 324.209 653.172 323.235 653.951 321.911C654.704 320.587 655.041 319.197 653.86 318.509Z" fill="#E9EEF1"/>
<path d="M633.535 305.473L632.873 305.889C632.12 304.785 631.666 304.772 630.887 305.136L630.498 304.525L636.533 300.669L637.04 301.461L632.432 304.409C632.847 304.5 633.185 304.928 633.535 305.473Z" fill="#E9EEF1"/>
<path d="M625.981 275.415C625.176 274.091 624.916 273.468 623.878 273.481C623.281 273.494 622.554 273.728 622.567 274.831C622.58 276.091 623.437 276.402 624.423 276.389L624.436 277.363C622.957 277.389 621.762 276.597 621.736 274.818C621.724 273.598 622.476 272.52 623.852 272.494C625.241 272.468 625.929 273.585 626.539 274.623C627.019 275.428 627.473 276.195 628.226 276.376H628.252L628.187 272.533L629.018 272.52L629.096 277.493C627.811 277.519 626.772 276.714 625.981 275.415Z" fill="#E9EEF1"/>
<path d="M631.381 252.031L631.835 251.161C632.757 251.642 633.587 251.577 634.21 250.382C634.781 249.292 634.522 248.694 633.795 248.305C632.835 247.799 632.263 248.383 631.939 249.006L631.589 249.681L630.849 249.292L631.186 248.643C631.524 247.993 631.459 247.37 630.732 246.981C630.213 246.708 629.551 246.76 629.097 247.63C628.448 248.876 628.993 249.461 629.629 249.785L629.174 250.655C628.006 250.045 627.539 248.824 628.357 247.253C628.928 246.163 630.057 245.539 631.186 246.124C631.861 246.474 632.108 247.033 632.03 247.812L632.043 247.825C632.757 247.11 633.509 247.046 634.249 247.435C635.469 248.071 635.703 249.331 634.989 250.694C634.132 252.33 632.809 252.784 631.381 252.031Z" fill="#E9EEF1"/>
<path d="M652.964 229.154L650.017 230.971L649.576 230.27L650.082 224.492L650.874 223.999L653.314 227.972L654.158 227.453L654.599 228.154L653.755 228.673L654.638 230.102L653.846 230.595L652.964 229.154ZM652.522 228.453L650.757 225.583L650.394 229.764L652.522 228.453Z" fill="#E9EEF1"/>
<path d="M676.404 221.493L677.378 221.48C677.469 222.181 677.858 222.856 678.974 222.843C679.961 222.83 680.609 222.207 680.584 221.052C680.571 219.974 679.948 219.52 679.026 219.533C678.377 219.546 677.819 219.753 677.469 220.234L676.469 220.247L677.157 216.377L681.103 216.326L681.116 217.157L677.923 217.195L677.533 219.377V219.403C677.897 218.987 678.429 218.728 679.221 218.715C680.571 218.702 681.531 219.727 681.544 221.052C681.57 222.597 680.454 223.661 679 223.687C677.391 223.7 676.456 222.649 676.404 221.493Z" fill="#E9EEF1"/>
<path d="M702.556 224.921C703.621 222.896 705.139 222.065 706.71 222.883C707.891 223.506 708.202 224.7 707.8 225.674L706.93 225.22C707.177 224.557 707.021 223.986 706.32 223.623C705.022 222.947 704.075 224.038 703.452 225.22L703.413 225.298L703.426 225.311C704.075 224.882 704.867 224.895 705.593 225.272C706.814 225.908 707.216 227.193 706.554 228.453C705.944 229.634 704.581 230.193 703.205 229.478C701.466 228.57 701.492 226.947 702.556 224.921ZM703.582 228.751C704.451 229.206 705.204 228.907 705.645 228.063C706.126 227.154 705.879 226.375 705.113 225.986C704.192 225.505 703.309 225.778 702.868 226.635C702.452 227.453 702.673 228.271 703.582 228.751Z" fill="#E9EEF1"/>
<path d="M728.775 245.267L728.788 245.254L726.712 241.917L727.413 241.475L730.034 245.695L729.411 246.085C727.387 245.423 724.349 245.76 722.377 246.981L721.857 246.137C723.921 244.877 727.14 244.786 728.775 245.267Z" fill="#E9EEF1"/>
<path d="M732.019 268.067C733.018 268.002 733.537 268.612 733.888 269.274H733.914C734.148 268.755 734.576 268.261 735.381 268.209C736.614 268.132 737.405 269.027 737.496 270.404C737.587 271.767 736.925 272.767 735.692 272.858C734.887 272.91 734.394 272.481 734.096 272.001H734.07C733.81 272.689 733.369 273.377 732.382 273.442C730.942 273.533 730.15 272.429 730.046 270.897C729.942 269.365 730.578 268.17 732.019 268.067ZM730.877 270.845C730.942 271.91 731.461 272.52 732.343 272.468C733.213 272.416 733.641 271.741 733.576 270.663C733.512 269.599 732.979 268.988 732.123 269.04C731.227 269.105 730.799 269.78 730.877 270.845ZM734.407 270.611C734.459 271.442 734.822 271.936 735.627 271.884C736.406 271.832 736.717 271.287 736.665 270.456C736.614 269.625 736.224 269.131 735.445 269.183C734.641 269.248 734.355 269.78 734.407 270.611Z" fill="#E9EEF1"/>
<path d="M727.386 296.06L726.932 296.93C726.27 296.696 725.699 296.839 725.336 297.553C724.661 298.852 725.764 299.799 726.945 300.41L727.023 300.449L727.036 300.436C726.595 299.786 726.608 298.994 726.984 298.267C727.607 297.047 728.892 296.631 730.151 297.293C731.332 297.904 731.903 299.254 731.189 300.643C730.281 302.383 728.658 302.37 726.633 301.318C724.609 300.267 723.765 298.748 724.583 297.177C725.219 295.982 726.413 295.67 727.386 296.06ZM727.711 298.722C727.231 299.644 727.516 300.526 728.373 300.968C729.19 301.396 730.008 301.176 730.488 300.254C730.943 299.371 730.644 298.631 729.787 298.189C728.879 297.722 728.1 297.969 727.711 298.722Z" fill="#E9EEF1"/>
<path d="M712.265 317.587C713.407 319.275 713.692 321.132 712.07 322.236C710.448 323.339 708.825 322.365 707.683 320.677C706.541 318.99 706.268 317.133 707.891 316.042C709.513 314.939 711.123 315.899 712.265 317.587ZM708.358 316.73C707.216 317.496 707.644 318.873 708.501 320.132C709.357 321.405 710.474 322.313 711.616 321.547C712.758 320.781 712.33 319.405 711.473 318.133C710.616 316.86 709.487 315.951 708.358 316.73Z" fill="#E9EEF1"/>
<path d="M668.137 203.043H669.071V209.639H672.965V210.47H668.137V203.043Z" fill="#E9EEF1"/>
<path d="M673.887 203.043H674.821V210.47H673.887V203.043Z" fill="#E9EEF1"/>
<path d="M676.365 203.043H677.507L681.206 209.132H681.232V203.043H682.167V210.47H681.025L677.326 204.38H677.3V210.47H676.365V203.043Z" fill="#E9EEF1"/>
<path d="M683.699 203.043H688.839V203.874H684.634V206.211H688.333V207.042H684.634V209.639H688.956V210.47H683.699V203.043Z" fill="#E9EEF1"/>
<path d="M629.018 226.297C626.241 226.297 623.982 224.038 623.982 221.259C623.982 218.481 626.241 216.222 629.018 216.222C631.796 216.222 634.054 218.481 634.054 221.259C634.054 224.038 631.783 226.297 629.018 226.297ZM629.018 217.247C626.812 217.247 625.008 219.052 625.008 221.259C625.008 223.467 626.812 225.271 629.018 225.271C631.225 225.271 633.029 223.467 633.029 221.259C633.029 219.052 631.225 217.247 629.018 217.247Z" fill="#E9EEF1"/>
<path d="M629.03 222.908C628.121 222.908 627.395 222.168 627.395 221.272C627.395 220.377 628.134 219.636 629.03 219.636C629.925 219.636 630.665 220.377 630.665 221.272C630.665 222.168 629.938 222.908 629.03 222.908ZM629.03 220.636C628.692 220.636 628.407 220.909 628.407 221.259C628.407 221.61 628.679 221.883 629.03 221.883C629.38 221.883 629.653 221.61 629.653 221.259C629.653 220.909 629.367 220.636 629.03 220.636Z" fill="#E9EEF1"/>
<path d="M642.802 220.753H620.166V221.779H642.802V220.753Z" fill="#E9EEF1"/>
<path d="M644.1 222.571C643.192 222.571 642.465 221.831 642.465 220.935C642.465 220.039 643.205 219.299 644.1 219.299C645.009 219.299 645.736 220.039 645.736 220.935C645.736 221.831 645.009 222.571 644.1 222.571ZM644.1 220.312C643.763 220.312 643.477 220.584 643.477 220.935C643.477 221.285 643.75 221.558 644.1 221.558C644.451 221.558 644.723 221.285 644.723 220.935C644.723 220.584 644.438 220.312 644.1 220.312Z" fill="#E9EEF1"/>
<path d="M1126.09 764.248C1110.46 764.248 1097.74 751.524 1097.74 735.891C1097.74 720.259 1110.46 707.534 1126.09 707.534C1141.72 707.534 1154.44 720.259 1154.44 735.891C1154.44 751.524 1141.72 764.248 1126.09 764.248ZM1126.09 708.547C1111.02 708.547 1098.76 720.817 1098.76 735.891C1098.76 750.966 1111.02 763.235 1126.09 763.235C1141.16 763.235 1153.42 750.966 1153.42 735.891C1153.42 720.817 1141.16 708.547 1126.09 708.547Z" fill="#E9EEF1"/>
<path d="M1100.67 722.258L1085.39 713.468L1085.71 712.91L1100.99 721.7L1100.67 722.258Z" fill="#E9EEF1"/>
<path d="M1095.97 700.893L1095.47 701.313L1106.89 714.751L1107.38 714.331L1095.97 700.893Z" fill="#E9EEF1"/>
<path d="M1115.19 709.612L1108.95 693.122L1109.56 692.901L1115.8 709.391L1115.19 709.612Z" fill="#E9EEF1"/>
<path d="M1125.05 690.08L1124.4 690.093L1124.75 707.722L1125.4 707.709L1125.05 690.08Z" fill="#E9EEF1"/>
<path d="M1135.06 709.222L1134.44 709.015L1140.06 692.304L1140.68 692.512L1135.06 709.222Z" fill="#E9EEF1"/>
<path d="M1154 699.71L1143.1 713.573L1143.61 713.974L1154.51 700.112L1154 699.71Z" fill="#E9EEF1"/>
<path d="M1150.07 721.31L1149.72 720.752L1164.65 711.378L1164.99 711.923L1150.07 721.31Z" fill="#E9EEF1"/>
<path d="M1170.72 725.889L1153.52 729.743L1153.66 730.377L1170.86 726.522L1170.72 725.889Z" fill="#E9EEF1"/>
<path d="M1171.56 742.344L1154.07 740.163L1154.15 739.527L1171.65 741.695L1171.56 742.344Z" fill="#E9EEF1"/>
<path d="M1151.37 748.866L1151.08 749.446L1166.83 757.361L1167.12 756.781L1151.37 748.866Z" fill="#E9EEF1"/>
<path d="M1157.37 770.039L1145.21 757.276L1145.68 756.834L1157.84 769.597L1157.37 770.039Z" fill="#E9EEF1"/>
<path d="M1137.59 762.31L1137 762.574L1144.17 778.681L1144.76 778.417L1137.59 762.31Z" fill="#E9EEF1"/>
<path d="M1108.78 779.401L1108.18 779.154L1114.73 762.781L1115.33 763.028L1108.78 779.401Z" fill="#E9EEF1"/>
<path d="M1095.25 771.259L1094.77 770.831L1106.43 757.613L1106.92 758.042L1095.25 771.259Z" fill="#E9EEF1"/>
<path d="M1085.32 758.99L1085.01 758.418L1100.44 749.901L1100.76 750.459L1085.32 758.99Z" fill="#E9EEF1"/>
<path d="M1080.03 744.123L1079.92 743.487L1097.32 740.617L1097.42 741.267L1080.03 744.123Z" fill="#E9EEF1"/>
<path d="M1080.19 727.73L1080.07 728.368L1097.41 731.545L1097.53 730.907L1080.19 727.73Z" fill="#E9EEF1"/>
<path d="M1125.73 759.613C1112.51 759.613 1101.77 748.862 1101.77 735.644C1101.77 722.427 1112.51 711.676 1125.73 711.676C1138.94 711.676 1149.69 722.427 1149.69 735.644C1149.69 748.862 1138.95 759.613 1125.73 759.613ZM1125.73 712.676C1113.07 712.676 1102.78 722.972 1102.78 735.631C1102.78 748.291 1113.07 758.587 1125.73 758.587C1138.38 758.587 1148.67 748.291 1148.67 735.631C1148.67 722.972 1138.38 712.676 1125.73 712.676Z" fill="url(#paint7_linear_6895_95695)"/>
<path d="M1099.3 788.048C1098.24 789.865 1096.63 790.969 1094.88 789.943C1093.12 788.918 1093.29 786.983 1094.36 785.152C1095.42 783.334 1097.02 782.231 1098.78 783.257C1100.54 784.295 1100.37 786.23 1099.3 788.048ZM1098.34 784.01C1097.12 783.296 1096.03 784.308 1095.23 785.672C1094.44 787.035 1094.08 788.489 1095.3 789.203C1096.52 789.917 1097.63 788.905 1098.42 787.541C1099.22 786.178 1099.57 784.737 1098.34 784.01Z" fill="#E9EEF1"/>
<path d="M1077.24 770.467L1076.56 770.896C1075.78 769.753 1075.32 769.74 1074.5 770.117L1074.1 769.481L1080.36 765.482L1080.88 766.3L1076.11 769.351C1076.54 769.455 1076.89 769.896 1077.24 770.467Z" fill="#E9EEF1"/>
<path d="M1069.44 739.241C1068.61 737.865 1068.35 737.229 1067.26 737.242C1066.63 737.255 1065.88 737.501 1065.89 738.644C1065.91 739.942 1066.79 740.28 1067.81 740.267L1067.83 741.28C1066.28 741.306 1065.06 740.475 1065.04 738.644C1065.02 737.371 1065.82 736.268 1067.23 736.242C1068.67 736.216 1069.39 737.371 1070.02 738.449C1070.51 739.28 1070.99 740.072 1071.77 740.267H1071.8L1071.75 736.281L1072.6 736.268L1072.68 741.422C1071.33 741.422 1070.25 740.591 1069.44 739.241Z" fill="#E9EEF1"/>
<path d="M1075.08 714.974L1075.55 714.078C1076.5 714.585 1077.37 714.52 1078.02 713.273C1078.61 712.144 1078.34 711.52 1077.59 711.131C1076.6 710.612 1076.01 711.209 1075.67 711.845L1075.29 712.546L1074.53 712.144L1074.88 711.481C1075.23 710.806 1075.17 710.157 1074.41 709.755C1073.88 709.469 1073.18 709.521 1072.71 710.417C1072.03 711.702 1072.6 712.312 1073.25 712.65L1072.79 713.546C1071.58 712.91 1071.1 711.65 1071.96 710.014C1072.55 708.885 1073.72 708.235 1074.89 708.859C1075.59 709.222 1075.85 709.793 1075.76 710.611L1075.77 710.624C1076.51 709.884 1077.29 709.819 1078.06 710.235C1079.31 710.897 1079.55 712.208 1078.81 713.611C1077.95 715.286 1076.58 715.753 1075.08 714.974Z" fill="#E9EEF1"/>
<path d="M1097.54 691.304L1094.47 693.174L1094.02 692.434L1094.56 686.435L1095.4 685.929L1097.91 690.058L1098.78 689.526L1099.22 690.266L1098.35 690.798L1099.26 692.291L1098.43 692.797L1097.54 691.304ZM1097.08 690.564L1095.27 687.578L1094.86 691.915L1097.08 690.564Z" fill="#E9EEF1"/>
<path d="M1121.9 683.397L1122.91 683.384C1123 684.111 1123.4 684.812 1124.56 684.799C1125.58 684.786 1126.26 684.15 1126.25 682.956C1126.23 681.839 1125.6 681.372 1124.64 681.385C1123.98 681.398 1123.39 681.618 1123.01 682.099L1121.98 682.112L1122.7 678.1L1126.79 678.048L1126.8 678.905L1123.49 678.944L1123.08 681.203V681.229C1123.46 680.8 1124.01 680.528 1124.84 680.515C1126.25 680.502 1127.23 681.566 1127.25 682.943C1127.26 684.553 1126.1 685.643 1124.6 685.669C1122.91 685.682 1121.95 684.605 1121.9 683.397Z" fill="#E9EEF1"/>
<path d="M1149.04 687.059C1150.14 684.968 1151.74 684.111 1153.35 684.968C1154.57 685.617 1154.88 686.851 1154.48 687.864L1153.58 687.396C1153.83 686.708 1153.69 686.124 1152.95 685.734C1151.61 685.02 1150.61 686.163 1149.97 687.383L1149.92 687.474L1149.93 687.5C1150.61 687.059 1151.43 687.072 1152.18 687.474C1153.44 688.136 1153.85 689.474 1153.17 690.772C1152.52 691.993 1151.12 692.577 1149.69 691.824C1147.9 690.837 1147.94 689.149 1149.04 687.059ZM1150.1 691.032C1151.01 691.512 1151.79 691.201 1152.26 690.331C1152.75 689.383 1152.5 688.578 1151.71 688.162C1150.76 687.656 1149.84 687.942 1149.38 688.825C1148.92 689.681 1149.14 690.525 1150.1 691.032Z" fill="#E9EEF1"/>
<path d="M1176.18 708.3L1176.19 708.287L1174.05 704.808L1174.79 704.353L1177.49 708.755L1176.84 709.144C1174.74 708.443 1171.58 708.781 1169.54 710.04L1169.01 709.17C1171.14 707.872 1174.48 707.794 1176.18 708.3Z" fill="#E9EEF1"/>
<path d="M1179.43 731.97C1180.46 731.905 1181.01 732.541 1181.37 733.229H1181.39C1181.64 732.684 1182.08 732.191 1182.93 732.139C1184.2 732.061 1185.02 733.009 1185.11 734.424C1185.2 735.839 1184.5 736.878 1183.22 736.956C1182.38 737.008 1181.89 736.553 1181.58 736.06H1181.55C1181.28 736.774 1180.82 737.488 1179.79 737.54C1178.29 737.631 1177.47 736.488 1177.38 734.891C1177.27 733.307 1177.94 732.061 1179.43 731.97ZM1178.23 734.84C1178.29 735.943 1178.82 736.579 1179.75 736.527C1180.65 736.475 1181.1 735.774 1181.03 734.671C1180.97 733.567 1180.43 732.931 1179.53 732.983C1178.6 733.035 1178.16 733.736 1178.23 734.84ZM1181.89 734.619C1181.94 735.476 1182.32 735.995 1183.15 735.943C1183.95 735.891 1184.29 735.333 1184.24 734.476C1184.19 733.619 1183.78 733.1 1182.98 733.152C1182.15 733.203 1181.84 733.762 1181.89 734.619Z" fill="#E9EEF1"/>
<path d="M1174.46 761.028L1174 761.924C1173.31 761.677 1172.73 761.833 1172.34 762.56C1171.63 763.91 1172.76 764.884 1173.98 765.533L1174.07 765.572L1174.09 765.559C1173.63 764.884 1173.66 764.066 1174.05 763.313C1174.71 762.054 1176.03 761.625 1177.35 762.313C1178.57 762.95 1179.15 764.352 1178.41 765.78C1177.46 767.585 1175.79 767.546 1173.69 766.455C1171.58 765.365 1170.73 763.781 1171.58 762.158C1172.22 760.95 1173.45 760.626 1174.46 761.028ZM1174.78 763.794C1174.28 764.754 1174.57 765.663 1175.45 766.131C1176.29 766.572 1177.15 766.351 1177.64 765.404C1178.12 764.495 1177.81 763.716 1176.93 763.248C1176 762.755 1175.19 763.015 1174.78 763.794Z" fill="#E9EEF1"/>
<path d="M1158.64 783.257C1159.81 785.01 1160.11 786.944 1158.41 788.074C1156.72 789.203 1155.05 788.191 1153.88 786.438C1152.71 784.685 1152.43 782.763 1154.11 781.634C1155.81 780.504 1157.48 781.504 1158.64 783.257ZM1154.61 782.348C1153.43 783.14 1153.85 784.555 1154.74 785.88C1155.62 787.191 1156.76 788.152 1157.94 787.36C1159.12 786.568 1158.68 785.139 1157.81 783.828C1156.93 782.504 1155.79 781.556 1154.61 782.348Z" fill="#E9EEF1"/>
<path d="M1113.16 664.272H1114.14V671.114H1118.17V671.971H1113.16V664.272Z" fill="#E9EEF1"/>
<path d="M1119.13 664.272H1120.11V671.971H1119.13V664.272Z" fill="#E9EEF1"/>
<path d="M1121.69 664.272H1122.87L1126.71 670.595H1126.74V664.272H1127.71V671.971H1126.53L1122.69 665.648H1122.66V671.971H1121.69V664.272Z" fill="#E9EEF1"/>
<path d="M1129.31 664.272H1134.65V665.129H1130.28V667.557H1134.13V668.414H1130.28V671.114H1134.77V671.971H1129.31V664.272Z" fill="#E9EEF1"/>
<path d="M1072.59 688.37C1069.72 688.37 1067.4 686.033 1067.4 683.176C1067.4 680.32 1069.73 677.983 1072.59 677.983C1075.45 677.983 1077.78 680.32 1077.78 683.176C1077.78 686.033 1075.46 688.37 1072.59 688.37ZM1072.59 678.983C1070.29 678.983 1068.41 680.852 1068.41 683.163C1068.41 685.475 1070.28 687.344 1072.59 687.344C1074.9 687.344 1076.77 685.475 1076.77 683.163C1076.77 680.865 1074.9 678.983 1072.59 678.983Z" fill="#E9EEF1"/>
<path d="M1072.62 684.851C1071.7 684.851 1070.93 684.098 1070.93 683.163C1070.93 682.241 1071.68 681.488 1072.62 681.488C1073.54 681.488 1074.29 682.241 1074.29 683.163C1074.29 684.098 1073.54 684.851 1072.62 684.851ZM1072.62 682.501C1072.25 682.501 1071.96 682.8 1071.96 683.163C1071.96 683.527 1072.25 683.825 1072.62 683.825C1072.98 683.825 1073.28 683.527 1073.28 683.163C1073.28 682.8 1072.98 682.501 1072.62 682.501Z" fill="#E9EEF1"/>
<path d="M1086.88 682.657H1063.41V683.683H1086.88V682.657Z" fill="#E9EEF1"/>
<path d="M1088.24 684.501C1087.32 684.501 1086.56 683.748 1086.56 682.813C1086.56 681.878 1087.31 681.125 1088.24 681.125C1089.17 681.125 1089.92 681.878 1089.92 682.813C1089.92 683.748 1089.17 684.501 1088.24 684.501ZM1088.24 682.164C1087.88 682.164 1087.58 682.462 1087.58 682.826C1087.58 683.189 1087.88 683.488 1088.24 683.488C1088.61 683.488 1088.91 683.189 1088.91 682.826C1088.91 682.462 1088.61 682.164 1088.24 682.164Z" fill="#E9EEF1"/>
<path d="M1261.3 765.014C1245.67 765.014 1232.95 752.29 1232.95 736.657C1232.95 721.025 1245.67 708.3 1261.3 708.3C1276.92 708.3 1289.64 721.025 1289.64 736.657C1289.64 752.29 1276.94 765.014 1261.3 765.014ZM1261.3 709.313C1246.23 709.313 1233.96 721.583 1233.96 736.657C1233.96 751.732 1246.23 764.001 1261.3 764.001C1276.36 764.001 1288.63 751.732 1288.63 736.657C1288.63 721.583 1276.36 709.313 1261.3 709.313Z" fill="#E9EEF1"/>
<path d="M1235.87 723.037L1220.59 714.247L1220.92 713.676L1236.19 722.479L1235.87 723.037Z" fill="#E9EEF1"/>
<path d="M1231.18 701.675L1230.69 702.096L1242.1 715.533L1242.6 715.113L1231.18 701.675Z" fill="#E9EEF1"/>
<path d="M1250.41 710.391L1244.15 693.901L1244.76 693.667L1251 710.157L1250.41 710.391Z" fill="#E9EEF1"/>
<path d="M1260.3 690.771L1259.65 690.784L1260.01 708.412L1260.66 708.399L1260.3 690.771Z" fill="#E9EEF1"/>
<path d="M1270.26 710.001L1269.65 709.793L1275.27 693.083L1275.88 693.291L1270.26 710.001Z" fill="#E9EEF1"/>
<path d="M1289.21 700.488L1278.32 714.351L1278.83 714.752L1289.72 700.89L1289.21 700.488Z" fill="#E9EEF1"/>
<path d="M1285.28 722.076L1284.93 721.531L1299.86 712.144L1300.21 712.689L1285.28 722.076Z" fill="#E9EEF1"/>
<path d="M1305.92 726.666L1288.72 730.521L1288.86 731.154L1306.06 727.3L1305.92 726.666Z" fill="#E9EEF1"/>
<path d="M1306.78 743.11L1289.28 740.942L1289.36 740.293L1306.85 742.474L1306.78 743.11Z" fill="#E9EEF1"/>
<path d="M1286.57 749.636L1286.28 750.216L1302.03 758.131L1302.32 757.551L1286.57 749.636Z" fill="#E9EEF1"/>
<path d="M1292.58 770.818L1280.41 758.055L1280.88 757.6L1293.04 770.364L1292.58 770.818Z" fill="#E9EEF1"/>
<path d="M1272.79 763.131L1272.2 763.395L1279.37 779.502L1279.96 779.238L1272.79 763.131Z" fill="#E9EEF1"/>
<path d="M1243.99 780.166L1243.38 779.933L1249.94 763.56L1250.54 763.807L1243.99 780.166Z" fill="#E9EEF1"/>
<path d="M1241.58 758.413L1229.94 771.648L1230.42 772.077L1242.07 758.842L1241.58 758.413Z" fill="#E9EEF1"/>
<path d="M1220.53 759.756L1220.22 759.184L1235.65 750.667L1235.97 751.238L1220.53 759.756Z" fill="#E9EEF1"/>
<path d="M1215.23 744.902L1215.13 744.266L1232.52 741.396L1232.62 742.033L1215.23 744.902Z" fill="#E9EEF1"/>
<path d="M1215.39 728.501L1215.28 729.139L1232.61 732.316L1232.73 731.678L1215.39 728.501Z" fill="#E9EEF1"/>
<path d="M1260.94 760.379C1247.73 760.379 1236.98 749.628 1236.98 736.411C1236.98 723.193 1247.73 712.442 1260.94 712.442C1274.16 712.442 1284.9 723.193 1284.9 736.411C1284.9 749.628 1274.16 760.379 1260.94 760.379ZM1260.94 713.455C1248.29 713.455 1238 723.751 1238 736.411C1238 749.07 1248.29 759.366 1260.94 759.366C1273.6 759.366 1283.89 749.07 1283.89 736.411C1283.89 723.751 1273.6 713.455 1260.94 713.455Z" fill="url(#paint8_linear_6895_95695)"/>
<path d="M1234.52 788.827C1233.45 790.644 1231.85 791.748 1230.09 790.722C1228.34 789.697 1228.51 787.762 1229.57 785.931C1230.64 784.114 1232.23 783.01 1234 784.036C1235.75 785.074 1235.58 787.009 1234.52 788.827ZM1233.56 784.789C1232.34 784.075 1231.25 785.087 1230.44 786.451C1229.65 787.814 1229.3 789.268 1230.52 789.982C1231.74 790.696 1232.84 789.684 1233.64 788.32C1234.44 786.944 1234.78 785.503 1233.56 784.789Z" fill="#E9EEF1"/>
<path d="M1212.45 771.233L1211.78 771.662C1211 770.519 1210.53 770.506 1209.71 770.883L1209.31 770.247L1215.58 766.248L1216.1 767.066L1211.32 770.117C1211.74 770.234 1212.09 770.675 1212.45 771.233Z" fill="#E9EEF1"/>
<path d="M1204.65 740.007C1203.82 738.631 1203.56 737.995 1202.47 738.008C1201.85 738.021 1201.1 738.267 1201.11 739.41C1201.12 740.708 1202.01 741.046 1203.03 741.033L1203.04 742.046C1201.5 742.072 1200.28 741.241 1200.25 739.41C1200.24 738.137 1201.03 737.034 1202.45 737.008C1203.89 736.982 1204.6 738.137 1205.24 739.215C1205.73 740.046 1206.21 740.838 1206.99 741.033H1207.02L1206.96 737.047L1207.82 737.034L1207.9 742.188C1206.54 742.201 1205.47 741.37 1204.65 740.007Z" fill="#E9EEF1"/>
<path d="M1210.3 715.74L1210.77 714.844C1211.72 715.351 1212.58 715.286 1213.23 714.039C1213.83 712.91 1213.56 712.286 1212.81 711.897C1211.82 711.377 1211.22 711.975 1210.88 712.611L1210.51 713.312L1209.74 712.91L1210.09 712.247C1210.44 711.572 1210.39 710.923 1209.63 710.52C1209.09 710.235 1208.39 710.287 1207.93 711.183C1207.25 712.468 1207.82 713.078 1208.47 713.416L1208 714.312C1206.8 713.676 1206.32 712.416 1207.17 710.78C1207.77 709.651 1208.94 709.001 1210.11 709.625C1210.81 709.988 1211.07 710.559 1210.98 711.377L1210.99 711.39C1211.73 710.65 1212.51 710.585 1213.27 711.001C1214.53 711.663 1214.77 712.974 1214.03 714.377C1213.16 716.052 1211.78 716.519 1210.3 715.74Z" fill="#E9EEF1"/>
<path d="M1232.74 692.07L1229.68 693.94L1229.22 693.2L1229.77 687.201L1230.6 686.695L1233.12 690.824L1233.99 690.292L1234.43 691.032L1233.56 691.564L1234.47 693.057L1233.64 693.563L1232.74 692.07ZM1232.3 691.33L1230.48 688.344L1230.08 692.681L1232.3 691.33Z" fill="#E9EEF1"/>
<path d="M1257.12 684.176L1258.13 684.163C1258.22 684.89 1258.62 685.591 1259.78 685.578C1260.8 685.565 1261.48 684.929 1261.46 683.735C1261.45 682.618 1260.81 682.151 1259.85 682.164C1259.19 682.177 1258.61 682.397 1258.23 682.878L1257.19 682.891L1257.92 678.879L1262.01 678.827L1262.02 679.684L1258.71 679.723L1258.3 681.982V682.008C1258.67 681.579 1259.23 681.307 1260.06 681.294C1261.46 681.281 1262.45 682.345 1262.46 683.722C1262.48 685.332 1261.32 686.422 1259.81 686.448C1258.13 686.461 1257.17 685.371 1257.12 684.176Z" fill="#E9EEF1"/>
<path d="M1284.26 687.838C1285.36 685.747 1286.96 684.89 1288.56 685.747C1289.78 686.397 1290.1 687.63 1289.69 688.643L1288.8 688.175C1289.04 687.487 1288.9 686.903 1288.16 686.513C1286.83 685.799 1285.83 686.942 1285.19 688.162L1285.14 688.253L1285.15 688.279C1285.83 687.838 1286.64 687.851 1287.4 688.253C1288.66 688.915 1289.07 690.253 1288.38 691.551C1287.73 692.772 1286.33 693.356 1284.9 692.603C1283.1 691.616 1283.14 689.928 1284.26 687.838ZM1285.31 691.798C1286.22 692.278 1286.99 691.967 1287.46 691.097C1287.95 690.149 1287.71 689.344 1286.92 688.928C1285.97 688.422 1285.05 688.708 1284.58 689.591C1284.14 690.448 1284.36 691.304 1285.31 691.798Z" fill="#E9EEF1"/>
<path d="M1311.39 709.079L1311.41 709.066L1309.26 705.587L1310 705.132L1312.7 709.534L1312.05 709.923C1309.95 709.222 1306.8 709.56 1304.76 710.819L1304.23 709.949C1306.34 708.651 1309.69 708.573 1311.39 709.079Z" fill="#E9EEF1"/>
<path d="M1314.64 732.749C1315.66 732.684 1316.21 733.32 1316.57 734.009H1316.6C1316.85 733.463 1317.29 732.97 1318.13 732.918C1319.4 732.84 1320.22 733.788 1320.31 735.203C1320.4 736.618 1319.7 737.657 1318.43 737.735C1317.59 737.787 1317.09 737.332 1316.78 736.839H1316.75C1316.48 737.553 1316.03 738.267 1314.99 738.319C1313.5 738.41 1312.68 737.267 1312.59 735.67C1312.48 734.073 1313.15 732.84 1314.64 732.749ZM1313.43 735.606C1313.5 736.709 1314.03 737.345 1314.95 737.293C1315.86 737.242 1316.3 736.54 1316.24 735.437C1316.17 734.333 1315.64 733.697 1314.73 733.749C1313.81 733.814 1313.37 734.502 1313.43 735.606ZM1317.11 735.385C1317.16 736.242 1317.53 736.761 1318.36 736.709C1319.17 736.657 1319.51 736.099 1319.45 735.242C1319.4 734.385 1319 733.866 1318.2 733.918C1317.36 733.97 1317.05 734.528 1317.11 735.385Z" fill="#E9EEF1"/>
<path d="M1309.68 761.807L1309.21 762.703C1308.53 762.456 1307.94 762.612 1307.55 763.339C1306.85 764.69 1307.98 765.664 1309.2 766.313L1309.29 766.352L1309.3 766.339C1308.85 765.663 1308.88 764.846 1309.27 764.092C1309.93 762.833 1311.25 762.405 1312.56 763.093C1313.78 763.729 1314.37 765.131 1313.63 766.559C1312.68 768.364 1311 768.325 1308.9 767.235C1306.8 766.144 1305.94 764.56 1306.8 762.937C1307.42 761.716 1308.67 761.392 1309.68 761.807ZM1309.99 764.573C1309.5 765.534 1309.78 766.443 1310.67 766.91C1311.51 767.351 1312.37 767.131 1312.86 766.183C1313.34 765.274 1313.03 764.495 1312.15 764.028C1311.2 763.534 1310.39 763.781 1309.99 764.573Z" fill="#E9EEF1"/>
<path d="M1293.86 784.023C1295.03 785.775 1295.33 787.71 1293.63 788.84C1291.94 789.969 1290.26 788.956 1289.1 787.204C1287.93 785.451 1287.64 783.529 1289.33 782.4C1291.03 781.27 1292.69 782.27 1293.86 784.023ZM1289.81 783.114C1288.63 783.906 1289.06 785.321 1289.94 786.645C1290.82 787.957 1291.97 788.918 1293.15 788.126C1294.33 787.334 1293.89 785.905 1293.02 784.594C1292.13 783.27 1290.99 782.335 1289.81 783.114Z" fill="#E9EEF1"/>
<path d="M1248.38 665.038H1249.35V671.88H1253.39V672.737H1248.38V665.038Z" fill="#E9EEF1"/>
<path d="M1254.34 665.038H1255.31V672.737H1254.34V665.038Z" fill="#E9EEF1"/>
<path d="M1256.91 665.038H1258.09L1261.93 671.361H1261.96V665.038H1262.93V672.737H1261.75L1257.91 666.414H1257.88V672.737H1256.91V665.038Z" fill="#E9EEF1"/>
<path d="M1264.51 665.038H1269.85V665.895H1265.49V668.323H1269.33V669.18H1265.49V671.88H1269.98V672.737H1264.51V665.038Z" fill="#E9EEF1"/>
<path d="M1207.81 689.136C1204.94 689.136 1202.62 686.799 1202.62 683.942C1202.62 681.086 1204.95 678.749 1207.81 678.749C1210.66 678.749 1213 681.086 1213 683.942C1213 686.799 1210.66 689.136 1207.81 689.136ZM1207.81 679.762C1205.51 679.762 1203.63 681.631 1203.63 683.942C1203.63 686.254 1205.5 688.123 1207.81 688.123C1210.12 688.123 1211.99 686.254 1211.99 683.942C1211.99 681.631 1210.1 679.762 1207.81 679.762Z" fill="#E9EEF1"/>
<path d="M1207.82 685.617C1206.9 685.617 1206.13 684.864 1206.13 683.929C1206.13 683.008 1206.89 682.255 1207.82 682.255C1208.75 682.255 1209.51 683.008 1209.51 683.929C1209.51 684.864 1208.74 685.617 1207.82 685.617ZM1207.82 683.28C1207.46 683.28 1207.16 683.579 1207.16 683.942C1207.16 684.306 1207.46 684.605 1207.82 684.605C1208.18 684.605 1208.48 684.306 1208.48 683.942C1208.48 683.579 1208.18 683.28 1207.82 683.28Z" fill="#E9EEF1"/>
<path d="M1222.1 683.436H1198.63V684.462H1222.1V683.436Z" fill="#E9EEF1"/>
<path d="M1223.45 685.28C1222.53 685.28 1221.76 684.527 1221.76 683.605C1221.76 682.683 1222.51 681.917 1223.45 681.917C1224.38 681.917 1225.13 682.67 1225.13 683.605C1225.12 684.514 1224.37 685.28 1223.45 685.28ZM1223.45 682.93C1223.08 682.93 1222.79 683.228 1222.79 683.592C1222.79 683.955 1223.08 684.254 1223.45 684.254C1223.81 684.254 1224.11 683.955 1224.11 683.592C1224.11 683.228 1223.81 682.93 1223.45 682.93Z" fill="#E9EEF1"/>
<path d="M1048.32 530.108C902.527 530.108 783.924 411.448 783.924 265.612C783.924 119.777 902.527 1.10352 1048.32 1.10352C1194.11 1.10352 1312.72 119.764 1312.72 265.599C1312.72 411.435 1194.1 530.108 1048.32 530.108ZM1048.32 4.9987C904.681 4.9987 787.818 121.906 787.818 265.599C787.818 409.293 904.681 526.2 1048.32 526.2C1191.96 526.2 1308.82 409.293 1308.82 265.599C1308.82 121.906 1191.96 4.9987 1048.32 4.9987Z" fill="#E9EEF1"/>
<path d="M1048.32 366.55C995.534 366.55 952.6 323.599 952.6 270.793C952.6 217.987 995.534 175.036 1048.32 175.036C1101.11 175.036 1144.04 217.987 1144.04 270.793C1144.03 323.599 1101.09 366.55 1048.32 366.55ZM1048.32 178.932C997.689 178.932 956.493 220.143 956.493 270.793C956.493 321.443 997.689 362.654 1048.32 362.654C1098.95 362.654 1140.15 321.443 1140.15 270.793C1140.13 220.143 1098.95 178.932 1048.32 178.932Z" fill="#E9EEF1"/>
<path d="M1044.93 467.565C1037.03 467.565 1029.77 463.644 1025.02 456.788C1019.68 449.076 1018.47 439.13 1021.8 430.184C1025.36 420.667 1030.09 408.514 1035.08 395.647C1039.44 384.441 1043.93 372.86 1047.78 362.732L1048.72 363.096C1044.88 373.236 1040.38 384.818 1036.03 396.023C1031.03 408.89 1026.31 421.043 1022.75 430.547C1019.53 439.182 1020.69 448.777 1025.85 456.217C1030.41 462.787 1037.37 466.552 1044.92 466.552C1093.96 466.552 1183.29 451.555 1230.61 351.138C1234.39 343.127 1234.23 333.947 1230.2 326.585C1226.86 320.496 1221.4 316.678 1214.82 315.834L1135.16 303.941L1135.32 302.928L1214.96 314.822C1221.86 315.704 1227.6 319.703 1231.09 326.092C1235.28 333.739 1235.44 343.256 1231.53 351.566C1183.99 452.49 1094.21 467.565 1044.93 467.565Z" fill="#E9EEF1"/>
<path d="M904.927 388.506C904.395 388.506 903.863 388.493 903.331 388.454C895.011 387.986 887.873 383.844 883.746 377.106C865.497 347.32 854.387 316.562 850.714 285.673C845.366 240.696 856.269 197.148 883.097 156.21C887.847 148.965 896.076 144.368 905.122 143.94C913.208 143.55 920.489 146.576 925.058 152.263L973.106 211.638L972.315 212.274L924.266 152.899C919.905 147.472 912.922 144.576 905.174 144.953C896.452 145.381 888.522 149.796 883.953 156.768C857.255 197.499 846.418 240.826 851.739 285.543C855.386 316.289 866.457 346.905 884.628 376.56C888.587 383.013 895.427 386.973 903.409 387.428C912.442 387.947 921.229 383.922 926.901 376.651C932.56 369.419 939.049 361.746 945.915 353.618C953.962 344.1 962.269 334.272 969.888 324.378L970.692 325.001C963.061 334.921 954.741 344.763 946.694 354.28C939.828 362.395 933.352 370.068 927.706 377.274C922.138 384.39 913.727 388.506 904.927 388.506Z" fill="#E9EEF1"/>
<path d="M1127.8 221.363L1127.61 220.363L1220.16 201.822C1226.95 200.433 1232.61 195.772 1235.66 189.046C1239.1 181.477 1238.68 172.621 1234.57 165.337C1210.57 122.958 1177.13 93.5232 1135.14 77.8386C1106.31 67.0749 1074.14 62.9331 1039.48 65.5299C1031.71 66.1141 1024.96 70.3339 1020.96 77.1245C1016.65 84.4475 1016.31 93.6661 1020.05 101.794C1029.36 121.997 1042.97 151.432 1054.95 176.971L1054.03 177.4C1042.05 151.86 1028.44 122.426 1019.13 102.222C1015.25 93.7959 1015.6 84.2138 1020.08 76.6052C1024.24 69.5289 1031.28 65.1274 1039.39 64.5171C1074.19 61.9073 1106.52 66.0622 1135.48 76.8778C1177.7 92.6403 1211.32 122.231 1235.44 164.831C1239.72 172.401 1240.15 181.606 1236.57 189.462C1233.38 196.486 1227.47 201.355 1220.35 202.809L1127.8 221.363Z" fill="#E9EEF1"/>
<path d="M1048.61 470.265C1045.3 470.265 1042.23 470.188 1039.47 470.071C1032.12 469.746 1025.33 465.5 1020.86 458.411C1015.35 449.699 1014.34 438.637 1018.2 429.522C1022.1 420.277 1026.62 409.163 1030.98 398.412C1035.9 386.272 1041 373.73 1045.28 363.758L1046.22 364.161C1041.95 374.119 1036.85 386.675 1031.93 398.802C1027.57 409.552 1023.05 420.667 1019.13 429.924C1015.41 438.727 1016.39 449.439 1021.73 457.866C1026.02 464.669 1032.51 468.746 1039.52 469.058C1078.58 470.746 1175.22 463.54 1229.42 360.356C1233.27 353.033 1233.4 344.256 1229.76 336.881C1226.52 330.324 1220.79 325.897 1214.02 324.728L1133.66 311.355L1133.83 310.355L1214.19 323.729C1221.29 324.949 1227.29 329.584 1230.68 336.427C1234.45 344.087 1234.32 353.215 1230.33 360.824C1179.68 457.204 1092.2 470.265 1048.61 470.265Z" fill="#E9EEF1"/>
<path d="M1124.74 218.325L1124.53 217.325C1147.09 212.677 1193.7 202.952 1212.03 199.07C1222.05 196.953 1230.44 190.487 1233.93 182.191C1236.54 175.984 1236.02 169.479 1232.47 163.857C1211.31 130.489 1149.7 54.4286 1034.76 68.8278C1026.01 69.9184 1018.56 74.6186 1014.82 81.3962C1011.75 86.9793 1011.58 93.3155 1014.34 99.2362L1051.05 176.971L1050.12 177.4L1013.42 99.6646C1010.51 93.4453 1010.69 86.7846 1013.93 80.9028C1017.82 73.8396 1025.56 68.9576 1034.63 67.815C1150.13 53.3379 1212.06 129.774 1233.32 163.299C1237.06 169.207 1237.62 176.049 1234.87 182.567C1231.25 191.163 1222.58 197.875 1212.23 200.057C1193.92 203.939 1147.3 213.664 1124.74 218.325Z" fill="#E9EEF1"/>
<path d="M903.137 392.31C902.605 392.31 902.073 392.297 901.527 392.271C893.208 391.803 886.069 387.662 881.942 380.923C854.764 336.583 818.202 248.422 878.684 156.145C883.305 149.095 892.728 144.394 903.254 143.888C912.845 143.421 921.269 146.537 925.824 152.198L971.277 208.886L970.485 209.522L925.033 152.834C920.685 147.42 912.56 144.446 903.306 144.901C893.091 145.394 883.98 149.926 879.528 156.703C819.357 248.513 855.75 336.258 882.799 380.391C886.744 386.844 893.597 390.804 901.579 391.258C910.626 391.764 919.4 387.739 925.071 380.481C930.678 373.314 937.363 365.173 944.436 356.552C953.171 345.918 962.192 334.921 970.122 324.625L970.927 325.248C962.996 335.557 953.963 346.554 945.228 357.201C938.154 365.81 931.483 373.951 925.889 381.105C920.347 388.194 911.937 392.31 903.137 392.31Z" fill="#E9EEF1"/>
<path d="M933.845 156.43L933.092 155.742C956.104 130.45 981.984 115.92 1017 108.636L1017.21 109.636C982.412 116.868 956.701 131.306 933.845 156.43Z" fill="url(#paint9_linear_6895_95695)"/>
<path d="M1017.38 431.69C984.489 424.38 954.637 406.618 931.041 380.339L931.794 379.663C955.234 405.787 984.904 423.432 1017.59 430.703L1017.38 431.69Z" fill="url(#paint10_linear_6895_95695)"/>
<path d="M1216.48 315.782L1215.49 315.51C1219.6 300.903 1221.71 285.725 1221.71 270.403C1221.72 247.669 1217.19 225.635 1208.25 204.886L1209.18 204.484C1218.18 225.349 1222.75 247.526 1222.73 270.403C1222.73 285.815 1220.63 301.085 1216.48 315.782Z" fill="url(#paint11_linear_6895_95695)"/>
<path d="M940.439 162.65L939.699 161.949C961.491 139.162 992.252 121.867 1019.99 116.803L1020.17 117.803C992.641 122.815 962.088 140.006 940.439 162.65Z" fill="url(#paint12_linear_6895_95695)"/>
<path d="M1016.16 423.939C985.151 417.057 954.806 398.386 934.961 373.99L935.753 373.34C955.455 397.568 985.605 416.109 1016.38 422.939L1016.16 423.939Z" fill="url(#paint13_linear_6895_95695)"/>
<path d="M1208.65 309.238L1207.68 308.94C1211.6 296.06 1213.64 282.647 1213.74 269.04C1213.87 249.824 1210.17 231.179 1202.75 213.625L1203.68 213.222C1211.16 230.906 1214.89 249.681 1214.76 269.04C1214.66 282.738 1212.61 296.255 1208.65 309.238Z" fill="url(#paint14_linear_6895_95695)"/>
<path d="M944.033 165.948L943.293 165.247C965.15 142.382 994.067 125.827 1020.64 120.984L1020.82 121.984C994.456 126.788 965.747 143.226 944.033 165.948Z" fill="url(#paint15_linear_6895_95695)"/>
<path d="M1016.9 420.238C987.085 413.63 958.582 395.803 938.686 371.341L939.477 370.692C959.231 394.985 987.539 412.682 1017.12 419.239L1016.9 420.238Z" fill="url(#paint16_linear_6895_95695)"/>
<path d="M1203.95 309.29L1202.98 308.992C1206.82 296.397 1208.82 283.258 1208.9 269.962C1209.03 251.161 1205.41 232.919 1198.14 215.741L1199.07 215.339C1206.39 232.646 1210.04 251.018 1209.91 269.962C1209.83 283.374 1207.82 296.592 1203.95 309.29Z" fill="url(#paint17_linear_6895_95695)"/>
<path d="M1167.51 149.419C1146.61 128.515 1120.03 114.999 1090.67 110.325L1090.83 109.312C1120.4 114.025 1147.17 127.645 1168.22 148.692L1167.51 149.419Z" fill="#E9EEF1"/>
<path d="M914.571 319.6C902.695 290.451 901.007 257.64 909.833 227.232L910.807 227.518C902.046 257.705 903.72 290.282 915.505 319.223L914.571 319.6Z" fill="#E9EEF1"/>
<path d="M1116.6 412.383L1116.29 411.409C1129.11 407.306 1141.31 401.347 1152.54 393.686C1168.41 382.858 1181.64 369.198 1191.84 353.098L1192.7 353.644C1182.42 369.861 1169.1 383.611 1153.11 394.53C1141.81 402.243 1129.52 408.254 1116.6 412.383Z" fill="#E9EEF1"/>
<path d="M1049.83 523.344C907.823 523.344 792.283 407.774 792.283 265.703C792.283 123.646 907.81 8.06299 1049.83 8.06299C1191.83 8.06299 1307.37 123.633 1307.37 265.703C1307.37 407.761 1191.83 523.344 1049.83 523.344ZM1049.83 9.08872C908.381 9.08872 793.309 124.204 793.309 265.703C793.309 407.202 908.381 522.318 1049.83 522.318C1191.27 522.318 1306.35 407.202 1306.35 265.703C1306.35 124.204 1191.27 9.08872 1049.83 9.08872Z" fill="#E9EEF1"/>
<path d="M1049.59 455.516C945.332 455.516 860.514 370.665 860.514 266.365C860.514 162.065 945.332 77.2153 1049.59 77.2153C1153.85 77.2153 1238.67 162.065 1238.67 266.365C1238.67 370.665 1153.85 455.516 1049.59 455.516ZM1049.59 81.1105C947.474 81.1105 864.407 164.221 864.407 266.365C864.407 368.51 947.474 451.62 1049.59 451.62C1151.7 451.62 1234.78 368.51 1234.78 266.365C1234.78 164.221 1151.7 81.1105 1049.59 81.1105Z" fill="#E9EEF1"/>
<path d="M310.188 529.005C164.394 529.005 45.791 410.345 45.791 264.509C45.791 118.673 164.394 0 310.188 0C455.969 0 574.585 118.66 574.585 264.496C574.585 410.332 455.969 529.005 310.188 529.005ZM310.188 3.89518C166.535 3.89518 49.6718 120.803 49.6718 264.496C49.6718 408.189 166.535 525.097 310.175 525.097C453.814 525.097 570.678 408.189 570.678 264.496C570.678 120.803 453.827 3.89518 310.188 3.89518Z" fill="#E9EEF1"/>
<path d="M310.188 365.446C257.402 365.446 214.467 322.495 214.467 269.689C214.467 216.884 257.402 173.933 310.188 173.933C362.973 173.933 405.908 216.884 405.908 269.689C405.895 322.495 362.96 365.446 310.188 365.446ZM310.188 177.841C259.556 177.841 218.361 219.052 218.361 269.702C218.361 320.353 259.556 361.564 310.188 361.564C360.819 361.564 402.014 320.353 402.014 269.702C402.002 219.039 360.819 177.841 310.188 177.841Z" fill="#E9EEF1"/>
<path d="M306.801 466.461C298.896 466.461 291.641 462.54 286.891 455.685C281.543 447.972 280.336 438.026 283.672 429.08C285.761 423.484 288.15 417.044 290.694 410.189C296.326 394.998 302.725 377.781 308.345 362.927L309.293 363.291C303.673 378.144 297.287 395.361 291.641 410.552C289.097 417.421 286.709 423.861 284.619 429.457C281.4 438.091 282.556 447.686 287.721 455.126C292.277 461.696 299.234 465.461 306.788 465.461C355.823 465.461 445.158 450.465 492.479 350.047C496.256 342.036 496.1 332.856 492.064 325.495C488.728 319.405 483.264 315.588 476.684 314.744L397.031 302.851L397.187 301.838L476.827 313.731C483.731 314.614 489.468 318.613 492.96 325.001C497.152 332.649 497.307 342.166 493.401 350.476C445.858 451.387 356.082 466.461 306.801 466.461Z" fill="#E9EEF1"/>
<path d="M166.796 387.402C166.264 387.402 165.732 387.389 165.186 387.363C156.867 386.896 149.728 382.754 145.601 376.015C127.352 346.23 116.242 315.471 112.569 284.582C107.222 239.606 118.124 196.058 144.952 155.119C149.702 147.874 157.931 143.278 166.978 142.849C175.064 142.447 182.345 145.485 186.913 151.172L234.962 210.548L234.17 211.184L186.122 151.808C181.761 146.381 174.778 143.486 167.029 143.862C158.308 144.291 150.377 148.705 145.809 155.678C119.111 196.408 108.273 239.736 113.595 284.452C117.242 315.198 128.313 345.814 146.484 375.47C150.429 381.923 157.282 385.883 165.264 386.337C174.298 386.857 183.085 382.832 188.756 375.561L193.403 369.614C204.967 354.825 218.076 338.063 230.445 321.989L231.25 322.612C218.881 338.686 205.772 355.449 194.208 370.237L189.561 376.184C184.006 383.286 175.596 387.402 166.796 387.402Z" fill="#E9EEF1"/>
<path d="M389.671 220.26L389.476 219.26L482.03 200.719C488.818 199.33 494.477 194.669 497.527 187.943C500.967 180.373 500.551 171.518 496.437 164.234C472.439 121.868 438.979 92.4199 396.991 76.7483C368.165 65.9846 335.99 61.8427 301.335 64.4395C293.561 65.0238 286.812 69.2436 282.814 76.0342C278.505 83.3571 278.168 92.5757 281.906 100.704C291.212 120.907 304.827 150.341 316.807 175.881L315.885 176.309C303.905 150.77 290.29 121.335 280.984 101.132C277.104 92.7056 277.454 83.1234 281.932 75.5148C286.098 68.4386 293.133 64.037 301.245 63.4268C336.042 60.817 368.372 64.9719 397.329 75.7875C439.55 91.55 473.179 121.14 497.294 163.741C501.577 171.31 502.005 180.516 498.423 188.371C495.23 195.396 489.324 200.265 482.199 201.719L389.671 220.26Z" fill="#E9EEF1"/>
<path d="M310.474 469.162C307.164 469.162 304.101 469.084 301.336 468.967C293.99 468.643 287.202 464.397 282.724 457.308C277.221 448.595 276.209 437.533 280.064 428.418C283.97 419.187 288.474 408.072 292.835 397.335C297.767 385.195 302.868 372.626 307.138 362.655L308.073 363.057C303.789 373.029 298.702 385.584 293.77 397.724C289.409 408.462 284.905 419.576 280.985 428.821C277.26 437.624 278.247 448.336 283.568 456.762C287.864 463.566 294.354 467.643 301.362 467.954C340.416 469.655 437.059 462.436 491.259 359.253C495.114 351.93 495.231 343.153 491.597 335.778C488.365 329.221 482.628 324.793 475.866 323.625L395.5 310.251L395.668 309.252L476.035 322.625C483.134 323.846 489.144 328.481 492.518 335.336C496.295 342.997 496.165 352.125 492.168 359.733C441.549 456.1 354.07 469.162 310.474 469.162Z" fill="#E9EEF1"/>
<path d="M386.621 217.221L386.414 216.221C408.919 211.586 455.527 201.848 473.906 197.966C483.925 195.85 492.323 189.384 495.814 181.087C498.423 174.88 497.904 168.375 494.348 162.753C473.192 129.385 411.58 53.3248 296.637 67.724C287.889 68.8146 280.439 73.5148 276.701 80.2924C273.625 85.8755 273.457 92.2117 276.221 98.1324L312.926 175.867L312.005 176.296L275.287 98.5738C272.379 92.3545 272.561 85.6937 275.793 79.812C279.687 72.7487 287.422 67.8668 296.495 66.7242C411.995 52.2471 473.932 128.684 495.191 162.208C498.929 168.116 499.487 174.958 496.736 181.476C493.115 190.085 484.445 196.784 474.1 198.966C455.735 202.848 409.114 212.586 386.621 217.221Z" fill="#E9EEF1"/>
<path d="M165.004 391.206C164.472 391.206 163.94 391.193 163.395 391.167C155.075 390.7 147.937 386.558 143.809 379.819C116.631 335.479 80.0689 247.318 140.551 155.041C145.172 147.991 154.595 143.291 165.134 142.784C174.673 142.33 183.149 145.42 187.704 151.094L237.051 210.366L236.272 211.015L186.926 151.73C182.565 146.303 174.453 143.343 165.186 143.797C154.971 144.291 145.86 148.809 141.408 155.6C81.237 247.409 117.63 335.155 144.679 379.287C148.624 385.74 155.477 389.7 163.46 390.155C172.506 390.661 181.28 386.636 186.952 379.378C192.559 372.211 199.23 364.07 206.303 355.461C215.038 344.828 224.072 333.83 231.989 323.534L232.794 324.157C224.864 334.466 215.83 345.477 207.082 356.111C200.022 364.719 193.337 372.847 187.743 380.001C182.214 387.09 173.804 391.206 165.004 391.206Z" fill="#E9EEF1"/>
<path d="M195.712 155.327L194.959 154.639C217.971 129.346 243.851 114.817 278.869 107.533L279.076 108.533C244.279 115.778 218.568 130.203 195.712 155.327Z" fill="url(#paint18_linear_6895_95695)"/>
<path d="M279.245 430.587C246.356 423.277 216.504 405.515 192.908 379.235L193.661 378.56C217.101 404.684 246.771 422.329 279.453 429.6L279.245 430.587Z" fill="url(#paint19_linear_6895_95695)"/>
<path d="M478.344 314.679L477.358 314.406C481.472 299.799 483.575 284.621 483.575 269.3C483.588 246.565 479.058 224.531 470.115 203.783L471.05 203.38C480.044 224.246 484.613 246.422 484.6 269.3C484.6 284.712 482.497 299.981 478.344 314.679Z" fill="#E9EEF1"/>
<path d="M202.318 161.546L201.578 160.845C223.357 138.058 254.13 120.764 281.867 115.7L282.048 116.7C254.507 121.712 223.954 138.902 202.318 161.546Z" fill="url(#paint20_linear_6895_95695)"/>
<path d="M278.025 422.835C247.018 415.954 216.673 397.283 196.828 372.886L197.62 372.237C217.322 396.465 247.46 415.006 278.246 421.836L278.025 422.835Z" fill="url(#paint21_linear_6895_95695)"/>
<path d="M470.519 308.135L469.545 307.836C473.465 294.956 475.503 281.531 475.607 267.937C475.736 248.72 472.037 230.075 464.613 212.521L465.548 212.119C473.024 229.803 476.762 248.578 476.632 267.937C476.528 281.635 474.477 295.164 470.519 308.135Z" fill="url(#paint22_linear_6895_95695)"/>
<path d="M205.9 164.844L205.16 164.143C227.017 141.278 255.934 124.724 282.503 119.881L282.684 120.881C256.324 125.698 227.614 142.122 205.9 164.844Z" fill="url(#paint23_linear_6895_95695)"/>
<path d="M278.765 419.135C248.952 412.526 220.45 394.699 200.553 370.237L201.344 369.588C221.099 393.881 249.406 411.578 278.998 418.135L278.765 419.135Z" fill="url(#paint24_linear_6895_95695)"/>
<path d="M465.819 308.187L464.845 307.888C468.687 295.294 470.686 282.154 470.764 268.859C470.893 250.058 467.272 231.815 460.004 214.638L460.938 214.235C468.259 231.543 471.906 249.915 471.776 268.859C471.698 282.271 469.686 295.502 465.819 308.187Z" fill="url(#paint25_linear_6895_95695)"/>
<path d="M429.373 148.316C408.477 127.412 381.896 113.895 352.537 109.221L352.693 108.208C382.272 112.921 409.035 126.542 430.087 147.589L429.373 148.316Z" fill="#E9EEF1"/>
<path d="M176.438 318.509C164.562 289.36 162.875 256.55 171.7 226.141L172.674 226.427C163.913 256.615 165.587 289.192 177.372 318.133L176.438 318.509Z" fill="#E9EEF1"/>
<path d="M378.47 411.28L378.158 410.306C390.982 406.203 403.182 400.243 414.409 392.583C430.282 381.754 443.508 368.095 453.709 351.995L454.566 352.54C444.287 368.757 430.97 382.52 414.98 393.427C403.675 401.152 391.384 407.151 378.47 411.28Z" fill="#E9EEF1"/>
<path d="M311.694 522.24C169.69 522.24 54.1504 406.67 54.1504 264.6C54.1504 122.543 169.677 6.95947 311.694 6.95947C453.698 6.95947 569.238 122.53 569.238 264.6C569.238 406.67 453.698 522.24 311.694 522.24ZM311.694 7.9852C170.248 7.9852 55.1757 123.101 55.1757 264.6C55.1757 406.099 170.248 521.215 311.694 521.215C453.14 521.215 568.213 406.099 568.213 264.6C568.213 123.101 453.14 7.9852 311.694 7.9852Z" fill="#E9EEF1"/>
<path d="M311.46 454.412C207.199 454.412 122.381 369.562 122.381 265.262C122.381 160.962 207.199 76.1118 311.46 76.1118C415.721 76.1118 500.539 160.962 500.539 265.262C500.539 369.562 415.721 454.412 311.46 454.412ZM311.46 80.02C209.354 80.02 126.275 163.13 126.275 265.275C126.275 367.42 209.354 450.53 311.46 450.53C413.567 450.53 496.646 367.42 496.646 265.275C496.646 163.117 413.567 80.02 311.46 80.02Z" fill="#E9EEF1"/>
<path d="M87.5083 716.412L84.1484 718.381L122.366 783.643L125.726 781.674L87.5083 716.412Z" fill="url(#paint26_linear_6895_95695)"/>
<path d="M84.6229 727.023L84.3633 726.439C99.5877 719.57 117.408 715.844 135.929 715.675C136.345 715.675 136.773 715.675 137.188 715.675C155.255 715.675 172.673 719.077 187.664 725.53L187.404 726.127C172.154 719.557 154.346 716.182 135.929 716.337C117.499 716.493 99.7565 720.194 84.6229 727.023Z" fill="#E9EEF1"/>
<path d="M77.4862 710.948L76.9102 711.247L84.6562 726.185L85.2323 725.886L77.4862 710.948Z" fill="#E9EEF1"/>
<path d="M96.5772 721.024L91.0352 705.145L91.6582 704.924L97.1872 720.817L96.5772 721.024Z" fill="#E9EEF1"/>
<path d="M106.363 700.835L105.729 700.972L109.268 717.422L109.902 717.285L106.363 700.835Z" fill="#E9EEF1"/>
<path d="M121.347 698.55L120.701 698.616L122.4 715.357L123.046 715.291L121.347 698.55Z" fill="#E9EEF1"/>
<path d="M136.358 714.662H135.709L135.748 697.835H136.397L136.358 714.662Z" fill="#E9EEF1"/>
<path d="M150.751 698.571L149.045 715.311L149.691 715.377L151.396 698.637L150.751 698.571Z" fill="#E9EEF1"/>
<path d="M165.702 700.879L162.289 717.356L162.925 717.488L166.337 701.011L165.702 700.879Z" fill="#E9EEF1"/>
<path d="M180.357 704.718L175.156 720.721L175.773 720.921L180.974 704.919L180.357 704.718Z" fill="#E9EEF1"/>
<path d="M188.027 725.764L187.443 725.491L194.556 710.235L195.153 710.52L188.027 725.764Z" fill="#E9EEF1"/>
<path d="M188.054 727.633C179.851 724.024 170.857 721.323 161.33 719.635L162.018 715.805C171.843 717.558 181.136 720.336 189.624 724.076L188.054 727.633Z" fill="#E9EEF1"/>
<path d="M84.7917 703.431L84.61 702.899L85.0642 702.003C86.1675 699.9 86.6217 698.822 86.3102 697.861C86.0896 697.212 85.5704 696.718 84.6229 697.043C84.0389 697.238 83.6625 697.692 83.4548 698.043L82.9746 697.523C83.2861 697.004 83.8312 696.511 84.5581 696.264C85.9338 695.797 86.8294 696.537 87.1409 697.459C87.5432 698.64 87.0111 699.874 86.1026 701.626L85.7521 702.276V702.302L88.6205 701.328L88.8671 702.042L84.7917 703.431Z" fill="#E9EEF1"/>
<path d="M93.0725 697.173C93.7215 699.38 93.2672 700.834 91.8395 701.263C90.5805 701.639 89.3605 700.705 88.7115 698.575C88.0626 696.407 88.6466 694.927 89.9575 694.537C91.3203 694.135 92.4495 695.108 93.0725 697.173ZM89.5811 698.316C90.0873 700.003 90.8791 700.795 91.6838 700.562C92.5793 700.289 92.6961 699.12 92.2029 697.472C91.7227 695.875 91.0088 694.953 90.1003 695.225C89.3345 695.459 89.062 696.563 89.5811 698.316Z" fill="#E9EEF1"/>
<path d="M101.86 692.499H101.834L100.821 693.356L100.51 692.707L101.795 691.629L102.56 691.473L103.962 698.082L103.093 698.264L101.86 692.499Z" fill="#E9EEF1"/>
<path d="M110.088 693.447C110.478 695.706 109.868 697.095 108.388 697.355C107.09 697.588 106 696.524 105.598 694.329C105.208 692.096 105.948 690.707 107.298 690.473C108.713 690.226 109.725 691.33 110.088 693.447ZM106.506 694.187C106.805 695.913 107.519 696.796 108.336 696.654C109.258 696.498 109.504 695.342 109.206 693.641C108.92 692.005 108.31 691.006 107.376 691.174C106.584 691.317 106.182 692.382 106.506 694.187Z" fill="#E9EEF1"/>
<path d="M123.91 688.552L123.962 689.149L121.548 695.524L120.601 695.602L123.028 689.409V689.383L119.731 689.655L119.666 688.902L123.91 688.552Z" fill="#E9EEF1"/>
<path d="M138.137 688.928L135.567 688.915L135.294 690.642C135.45 690.616 135.593 690.603 135.839 690.603C136.358 690.603 136.878 690.72 137.293 690.98C137.825 691.278 138.253 691.863 138.24 692.719C138.227 694.044 137.176 695.018 135.709 695.005C134.97 695.005 134.347 694.784 134.035 694.576L134.269 693.875C134.541 694.044 135.099 694.252 135.709 694.265C136.566 694.265 137.306 693.719 137.319 692.81C137.319 691.94 136.735 691.317 135.385 691.304C134.996 691.304 134.697 691.343 134.45 691.369L134.905 688.136L138.137 688.162V688.928Z" fill="#E9EEF1"/>
<path d="M148.325 694.407C148.572 694.602 149.143 694.927 149.766 694.992C150.934 695.109 151.375 694.407 151.414 693.849C151.505 692.914 150.7 692.421 149.818 692.33L149.311 692.278L149.376 691.603L149.883 691.655C150.544 691.72 151.414 691.473 151.505 690.681C151.557 690.149 151.271 689.629 150.428 689.538C149.896 689.486 149.35 689.668 149.039 689.837L148.87 689.149C149.247 688.928 149.96 688.746 150.674 688.811C151.998 688.954 152.517 689.798 152.426 690.616C152.349 691.304 151.881 691.85 151.025 692.07V692.096C151.829 692.343 152.439 693.044 152.336 693.979C152.219 695.057 151.284 695.901 149.675 695.732C148.922 695.654 148.286 695.342 147.975 695.095L148.325 694.407Z" fill="#E9EEF1"/>
<path d="M164.925 691.94H164.899L163.627 692.33L163.588 691.616L165.184 691.135L165.95 691.291L164.626 697.913L163.757 697.744L164.925 691.94Z" fill="#E9EEF1"/>
<path d="M182.796 699.082C182.122 701.276 180.94 702.237 179.513 701.795C178.254 701.406 177.761 699.964 178.397 697.822C179.058 695.654 180.356 694.745 181.667 695.147C183.03 695.576 183.432 697.03 182.796 699.082ZM179.266 698.108C178.76 699.783 178.981 700.899 179.772 701.133C180.668 701.406 181.408 700.497 181.914 698.848C182.407 697.264 182.316 696.095 181.408 695.81C180.642 695.589 179.798 696.355 179.266 698.108Z" fill="#E9EEF1"/>
<path d="M194.79 700.848L194.764 700.835L193.44 700.977L193.544 700.263L195.205 700.081L195.932 700.38L193.388 706.638L192.57 706.301L194.79 700.848Z" fill="#E9EEF1"/>
<path d="M178.046 775.181H96.875V776.206H178.046V775.181Z" fill="#E9EEF1"/>
<path d="M74.72 697.329H68.2305V698.354H74.72V697.329Z" fill="#E9EEF1"/>
<path d="M204.147 697.329H197.723V698.354H204.147V697.329Z" fill="#E9EEF1"/>
<path d="M220.956 784.568H48.373V670.803H220.943V784.568H220.956ZM52.2668 780.673H217.049V674.698H52.2668V780.673Z" fill="#E9EEF1"/>
<path d="M128.986 739.812H130.012L132.153 746.33H132.166L134.282 739.812H135.255L132.659 747.239H131.647L128.986 739.812Z" fill="#E9EEF1"/>
<path d="M136.1 744.772V739.825H137.034V744.772C137.034 745.98 137.657 746.564 138.942 746.564C140.227 746.564 140.85 745.98 140.85 744.772V739.825H141.784V744.772C141.784 746.291 140.928 747.395 138.942 747.395C136.956 747.395 136.1 746.278 136.1 744.772Z" fill="#E9EEF1"/>
<path d="M26.27 122.231C21.7792 122.231 18.1191 118.569 18.1191 114.077C18.1191 109.585 21.7792 105.923 26.27 105.923C30.7608 105.923 34.4209 109.585 34.4209 114.077C34.4209 118.569 30.7608 122.231 26.27 122.231ZM26.27 109.818C23.9208 109.818 22.0129 111.727 22.0129 114.077C22.0129 116.427 23.9208 118.336 26.27 118.336C28.6192 118.336 30.5271 116.427 30.5271 114.077C30.5271 111.727 28.6192 109.818 26.27 109.818Z" fill="#E9EEF1"/>
<path d="M26.27 812.328C21.7792 812.328 18.1191 808.666 18.1191 804.174C18.1191 799.681 21.7792 796.02 26.27 796.02C30.7608 796.02 34.4209 799.681 34.4209 804.174C34.4209 808.666 30.7608 812.328 26.27 812.328ZM26.27 799.915C23.9208 799.915 22.0129 801.824 22.0129 804.174C22.0129 806.524 23.9208 808.432 26.27 808.432C28.6192 808.432 30.5271 806.524 30.5271 804.174C30.5271 801.824 28.6192 799.915 26.27 799.915Z" fill="#E9EEF1"/>
</g>
<defs>
<linearGradient id="paint0_linear_6895_95695" x1="82.4844" y1="427.282" x2="290.173" y2="427.282" gradientUnits="userSpaceOnUse">
<stop stop-color="#EB00FF"/>
<stop offset="1" stop-color="#FF8A00"/>
</linearGradient>
<linearGradient id="paint1_linear_6895_95695" x1="379.016" y1="549.417" x2="515.841" y2="549.417" gradientUnits="userSpaceOnUse">
<stop stop-color="#EB00FF"/>
<stop offset="1" stop-color="#FF8A00"/>
</linearGradient>
<linearGradient id="paint2_linear_6895_95695" x1="755.098" y1="547.155" x2="981.699" y2="547.155" gradientUnits="userSpaceOnUse">
<stop stop-color="#EB00FF"/>
<stop offset="1" stop-color="#FF8A00"/>
</linearGradient>
<linearGradient id="paint3_linear_6895_95695" x1="1071.06" y1="573.04" x2="1128.05" y2="573.04" gradientUnits="userSpaceOnUse">
<stop stop-color="#EB00FF"/>
<stop offset="1" stop-color="#FF8A00"/>
</linearGradient>
<linearGradient id="paint4_linear_6895_95695" x1="1173.52" y1="406.385" x2="1265.84" y2="406.385" gradientUnits="userSpaceOnUse">
<stop stop-color="#EB00FF"/>
<stop offset="1" stop-color="#FF8A00"/>
</linearGradient>
<linearGradient id="paint5_linear_6895_95695" x1="530.936" y1="492.429" x2="743.144" y2="492.429" gradientUnits="userSpaceOnUse">
<stop stop-color="#EB00FF"/>
<stop offset="1" stop-color="#FF8A00"/>
</linearGradient>
<linearGradient id="paint6_linear_6895_95695" x1="657.131" y1="271.858" x2="703.388" y2="271.858" gradientUnits="userSpaceOnUse">
<stop stop-color="#EB00FF"/>
<stop offset="1" stop-color="#FF8A00"/>
</linearGradient>
<linearGradient id="paint7_linear_6895_95695" x1="1101.77" y1="735.644" x2="1149.69" y2="735.644" gradientUnits="userSpaceOnUse">
<stop stop-color="#EB00FF"/>
<stop offset="1" stop-color="#FF8A00"/>
</linearGradient>
<linearGradient id="paint8_linear_6895_95695" x1="1236.98" y1="736.411" x2="1284.9" y2="736.411" gradientUnits="userSpaceOnUse">
<stop stop-color="#EB00FF"/>
<stop offset="1" stop-color="#FF8A00"/>
</linearGradient>
<linearGradient id="paint9_linear_6895_95695" x1="933.092" y1="132.533" x2="1017.21" y2="132.533" gradientUnits="userSpaceOnUse">
<stop stop-color="#EB00FF"/>
<stop offset="1" stop-color="#FF8A00"/>
</linearGradient>
<linearGradient id="paint10_linear_6895_95695" x1="931.041" y1="405.677" x2="1017.59" y2="405.677" gradientUnits="userSpaceOnUse">
<stop stop-color="#EB00FF"/>
<stop offset="1" stop-color="#FF8A00"/>
</linearGradient>
<linearGradient id="paint11_linear_6895_95695" x1="1208.25" y1="260.133" x2="1222.73" y2="260.133" gradientUnits="userSpaceOnUse">
<stop stop-color="#EB00FF"/>
<stop offset="1" stop-color="#FF8A00"/>
</linearGradient>
<linearGradient id="paint12_linear_6895_95695" x1="939.699" y1="139.727" x2="1020.17" y2="139.727" gradientUnits="userSpaceOnUse">
<stop stop-color="#EB00FF"/>
<stop offset="1" stop-color="#FF8A00"/>
</linearGradient>
<linearGradient id="paint13_linear_6895_95695" x1="934.961" y1="398.64" x2="1016.38" y2="398.64" gradientUnits="userSpaceOnUse">
<stop stop-color="#EB00FF"/>
<stop offset="1" stop-color="#FF8A00"/>
</linearGradient>
<linearGradient id="paint14_linear_6895_95695" x1="1202.75" y1="261.23" x2="1214.77" y2="261.23" gradientUnits="userSpaceOnUse">
<stop stop-color="#EB00FF"/>
<stop offset="1" stop-color="#FF8A00"/>
</linearGradient>
<linearGradient id="paint15_linear_6895_95695" x1="943.293" y1="143.466" x2="1020.82" y2="143.466" gradientUnits="userSpaceOnUse">
<stop stop-color="#EB00FF"/>
<stop offset="1" stop-color="#FF8A00"/>
</linearGradient>
<linearGradient id="paint16_linear_6895_95695" x1="938.686" y1="395.465" x2="1017.12" y2="395.465" gradientUnits="userSpaceOnUse">
<stop stop-color="#EB00FF"/>
<stop offset="1" stop-color="#FF8A00"/>
</linearGradient>
<linearGradient id="paint17_linear_6895_95695" x1="1198.14" y1="262.315" x2="1209.91" y2="262.315" gradientUnits="userSpaceOnUse">
<stop stop-color="#EB00FF"/>
<stop offset="1" stop-color="#FF8A00"/>
</linearGradient>
<linearGradient id="paint18_linear_6895_95695" x1="194.959" y1="131.43" x2="279.076" y2="131.43" gradientUnits="userSpaceOnUse">
<stop stop-color="#EB00FF"/>
<stop offset="1" stop-color="#FF8A00"/>
</linearGradient>
<linearGradient id="paint19_linear_6895_95695" x1="192.908" y1="404.573" x2="279.453" y2="404.573" gradientUnits="userSpaceOnUse">
<stop stop-color="#EB00FF"/>
<stop offset="1" stop-color="#FF8A00"/>
</linearGradient>
<linearGradient id="paint20_linear_6895_95695" x1="201.578" y1="138.623" x2="282.048" y2="138.623" gradientUnits="userSpaceOnUse">
<stop stop-color="#EB00FF"/>
<stop offset="1" stop-color="#FF8A00"/>
</linearGradient>
<linearGradient id="paint21_linear_6895_95695" x1="196.828" y1="397.536" x2="278.246" y2="397.536" gradientUnits="userSpaceOnUse">
<stop stop-color="#EB00FF"/>
<stop offset="1" stop-color="#FF8A00"/>
</linearGradient>
<linearGradient id="paint22_linear_6895_95695" x1="464.613" y1="260.127" x2="476.635" y2="260.127" gradientUnits="userSpaceOnUse">
<stop stop-color="#EB00FF"/>
<stop offset="1" stop-color="#FF8A00"/>
</linearGradient>
<linearGradient id="paint23_linear_6895_95695" x1="205.16" y1="142.363" x2="282.684" y2="142.363" gradientUnits="userSpaceOnUse">
<stop stop-color="#EB00FF"/>
<stop offset="1" stop-color="#FF8A00"/>
</linearGradient>
<linearGradient id="paint24_linear_6895_95695" x1="200.553" y1="394.361" x2="278.998" y2="394.361" gradientUnits="userSpaceOnUse">
<stop stop-color="#EB00FF"/>
<stop offset="1" stop-color="#FF8A00"/>
</linearGradient>
<linearGradient id="paint25_linear_6895_95695" x1="460.004" y1="261.211" x2="471.779" y2="261.211" gradientUnits="userSpaceOnUse">
<stop stop-color="#EB00FF"/>
<stop offset="1" stop-color="#FF8A00"/>
</linearGradient>
<linearGradient id="paint26_linear_6895_95695" x1="124" y1="781.5" x2="84.0214" y2="715.987" gradientUnits="userSpaceOnUse">
<stop stop-color="#EB00FF"/>
<stop offset="1" stop-color="#FF8A00"/>
</linearGradient>
<clipPath id="clip0_6895_95695">
<rect width="1360" height="825" fill="white"/>
</clipPath>
</defs>
</svg>
