<svg width="659" height="481" viewBox="0 0 659 481" fill="none" xmlns="http://www.w3.org/2000/svg">
<path d="M657.998 20.8674L-9.53674e-06 20.8674" stroke="#99FAF4" stroke-opacity="0.1"/>
<path d="M657.998 52.6006L-9.53674e-06 52.6006" stroke="#99FAF4" stroke-opacity="0.1"/>
<path d="M657.998 84.3339L-9.53674e-06 84.3339" stroke="#99FAF4" stroke-opacity="0.1"/>
<path d="M657.998 116.067L-9.53674e-06 116.067" stroke="#99FAF4" stroke-opacity="0.1"/>
<path d="M658 147.8L0.00194359 147.8" stroke="#99FAF4" stroke-opacity="0.1"/>
<path d="M657.998 179.534L-9.53674e-06 179.534" stroke="#99FAF4" stroke-opacity="0.1"/>
<path d="M657.998 211.267L-9.53674e-06 211.267" stroke="#99FAF4" stroke-opacity="0.1"/>
<path d="M657.998 243L-9.53674e-06 243" stroke="#99FAF4" stroke-opacity="0.1"/>
<path d="M657.998 274.733L-9.53674e-06 274.733" stroke="#99FAF4" stroke-opacity="0.1"/>
<path d="M657.998 306.466L-9.53674e-06 306.466" stroke="#99FAF4" stroke-opacity="0.1"/>
<path d="M657.998 338.2L-9.53674e-06 338.2" stroke="#99FAF4" stroke-opacity="0.1"/>
<path d="M657.998 369.933L-9.53674e-06 369.933" stroke="#99FAF4" stroke-opacity="0.1"/>
<path d="M657.998 401.666L-9.53674e-06 401.666" stroke="#99FAF4" stroke-opacity="0.1"/>
<path d="M657.998 433.399L-9.53674e-06 433.399" stroke="#99FAF4" stroke-opacity="0.1"/>
<path d="M657.998 465.133L-9.53674e-06 465.133" stroke="#99FAF4" stroke-opacity="0.1"/>
<path d="M636.062 480.998L636.063 4.99995" stroke="#99FAF4" stroke-opacity="0.1"/>
<path d="M592.199 480.998L592.199 4.99995" stroke="#99FAF4" stroke-opacity="0.1"/>
<path d="M548.332 480.998L548.332 4.99995" stroke="#99FAF4" stroke-opacity="0.1"/>
<path d="M504.465 480.998L504.465 4.99995" stroke="#99FAF4" stroke-opacity="0.1"/>
<path d="M460.598 481L460.598 5.00154" stroke="#99FAF4" stroke-opacity="0.1"/>
<path d="M416.732 480.998L416.732 4.99995" stroke="#99FAF4" stroke-opacity="0.1"/>
<path d="M372.865 480.998L372.865 4.99995" stroke="#99FAF4" stroke-opacity="0.1"/>
<path d="M328.998 480.998L328.998 4.99995" stroke="#99FAF4" stroke-opacity="0.1"/>
<path d="M285.131 480.998L285.131 4.99995" stroke="#99FAF4" stroke-opacity="0.1"/>
<path d="M241.266 480.998L241.266 4.99995" stroke="#99FAF4" stroke-opacity="0.1"/>
<path d="M197.4 480.998L197.4 4.99995" stroke="#99FAF4" stroke-opacity="0.1"/>
<path d="M153.531 480.998L153.531 4.99995" stroke="#99FAF4" stroke-opacity="0.1"/>
<path d="M109.666 480.998L109.666 4.99995" stroke="#99FAF4" stroke-opacity="0.1"/>
<path d="M65.7988 480.998L65.7989 4.99995" stroke="#99FAF4" stroke-opacity="0.1"/>
<path d="M21.9355 480.998L21.9356 4.99995" stroke="#99FAF4" stroke-opacity="0.1"/>
<path d="M463.1 18H465.242V8.37H465.278L471.092 18H473.468V5.13H471.326V14.796H471.29L465.494 5.13H463.1V18ZM479.786 18.27C476.906 18.27 475.16 16.272 475.16 13.41C475.16 10.548 476.906 8.55 479.786 8.55C482.666 8.55 484.412 10.548 484.412 13.41C484.412 16.272 482.666 18.27 479.786 18.27ZM479.786 16.722C481.586 16.722 482.522 15.3 482.522 13.41C482.522 11.502 481.586 10.098 479.786 10.098C477.986 10.098 477.05 11.502 477.05 13.41C477.05 15.3 477.986 16.722 479.786 16.722ZM489.935 10.35V8.802H488.207V5.904H486.299V8.802H484.967V10.35H486.299V15.498C486.299 17.442 487.127 18.126 488.639 18.126C489.143 18.126 489.557 18.072 489.935 17.982V16.434C488.711 16.506 488.207 16.38 488.207 15.336V10.35H489.935ZM498.714 12.438C497.382 12.132 496.356 12.06 496.356 11.124C496.356 10.476 496.968 10.044 498.102 10.044C499.578 10.044 499.938 10.782 500.064 11.502H501.9C501.774 9.9 500.586 8.55 498.084 8.55C495.78 8.55 494.448 9.756 494.448 11.268C494.448 13.356 496.428 13.644 497.886 13.986C499.236 14.31 500.334 14.4 500.334 15.552C500.334 16.128 499.776 16.776 498.462 16.776C496.518 16.776 496.086 15.93 495.996 14.94H494.16C494.25 16.884 495.528 18.27 498.498 18.27C500.73 18.27 502.242 17.172 502.242 15.408C502.242 13.212 500.406 12.834 498.714 12.438ZM507.716 16.722C506.042 16.722 505.052 15.444 505.052 13.896H512.108C512.108 10.62 510.65 8.55 507.68 8.55C504.908 8.55 503.162 10.422 503.162 13.41C503.162 16.29 504.908 18.27 507.77 18.27C510.128 18.27 511.496 16.938 511.964 15.192H510.074C509.912 15.75 509.282 16.722 507.716 16.722ZM507.68 10.044C509.21 10.044 510.218 11.07 510.218 12.492H505.052C505.052 11.07 506.15 10.044 507.68 10.044ZM519.74 12.168H521.63C521.396 10.08 519.83 8.55 517.436 8.55C514.7 8.55 512.918 10.53 512.918 13.41C512.918 16.29 514.7 18.27 517.454 18.27C519.848 18.27 521.486 16.704 521.63 14.58H519.74C519.668 15.606 519.074 16.722 517.454 16.722C515.582 16.722 514.808 15.138 514.808 13.41C514.808 11.682 515.6 10.098 517.454 10.098C519.074 10.098 519.668 11.232 519.74 12.168ZM528.927 8.802V14.4C528.927 15.768 527.991 16.65 526.533 16.65C525.237 16.65 524.715 15.858 524.715 14.616V8.802H522.807V15.156C522.807 17.262 524.157 18.252 525.867 18.252C527.451 18.252 528.405 17.532 528.891 16.812H528.927V18H530.817V8.802H528.927ZM536.991 8.586C535.785 8.586 535.029 9.378 534.543 10.53H534.507V8.802H532.617V18H534.507V13.302C534.507 11.34 535.965 10.116 537.783 10.422H537.819V8.64C537.549 8.604 537.315 8.586 536.991 8.586ZM542.802 16.722C541.128 16.722 540.138 15.444 540.138 13.896H547.194C547.194 10.62 545.736 8.55 542.766 8.55C539.994 8.55 538.248 10.422 538.248 13.41C538.248 16.29 539.994 18.27 542.856 18.27C545.214 18.27 546.582 16.938 547.05 15.192H545.16C544.998 15.75 544.368 16.722 542.802 16.722ZM542.766 10.044C544.296 10.044 545.304 11.07 545.304 12.492H540.138C540.138 11.07 541.236 10.044 542.766 10.044Z" fill="#E9EEF1"/>
<g clip-path="url(#clip0_6878_108974)">
<path d="M499.914 310.555C481.131 321.48 459.957 330.216 437.368 336.786L437.285 336.821L437.201 336.833C346.593 363.112 233.039 354.364 157.206 310.555C110.171 283.383 86.368 247.762 85.8089 212.081L85.7852 211.974V283.836C85.7852 283.848 85.7852 283.848 85.7852 283.859V284.562L85.8089 284.681C86.368 320.362 110.171 355.983 157.206 383.154C233.039 426.964 346.593 435.712 437.201 409.433L437.285 409.421L437.368 409.385C459.957 402.816 481.119 394.08 499.914 383.154C545.807 356.471 569.205 321.647 570.181 286.597L570.228 286.406V213.807L570.181 213.997C569.194 249.035 545.795 283.871 499.914 310.555Z" stroke="#99FAF4" stroke-width="3" stroke-miterlimit="10"/>
<path d="M85.7852 278.158C85.7852 278.17 85.7852 278.17 85.7852 278.182V278.884L85.8089 279.003C86.368 314.684 110.171 350.306 157.206 377.477C233.039 421.287 346.593 430.034 437.201 403.756L437.285 403.744L437.368 403.708C459.957 397.139 481.119 388.403 499.914 377.477C545.807 350.794 569.205 315.97 570.181 280.92L570.228 280.729" stroke="#99FAF4" stroke-miterlimit="10"/>
<path d="M85.7852 266.257C85.7852 266.269 85.7852 266.269 85.7852 266.281V266.983L85.8089 267.102C86.368 302.783 110.171 338.404 157.206 365.576C233.039 409.385 346.593 418.133 437.201 391.854L437.285 391.842L437.368 391.807C459.957 385.237 481.119 376.501 499.914 365.576C545.807 338.892 569.205 304.068 570.181 269.018L570.228 268.828" stroke="#99FAF4" stroke-miterlimit="10"/>
<path d="M85.7852 254.355C85.7852 254.367 85.7852 254.367 85.7852 254.379V255.081L85.8089 255.2C86.368 290.881 110.171 326.503 157.206 353.674C233.039 397.484 346.593 406.231 437.201 379.953L437.285 379.941L437.368 379.905C459.957 373.335 481.119 364.6 499.914 353.674C545.807 326.991 569.205 292.167 570.181 257.117L570.228 256.926" stroke="#99FAF4" stroke-miterlimit="10"/>
<path d="M85.7852 242.454C85.7852 242.466 85.7852 242.466 85.7852 242.478V243.18L85.8089 243.299C86.368 278.98 110.171 314.601 157.206 341.772C233.039 385.582 346.593 394.33 437.201 368.051L437.285 368.039L437.368 368.003C459.957 361.434 481.119 352.698 499.914 341.772C545.807 315.089 569.205 280.265 570.181 245.215L570.228 245.024" stroke="#99FAF4" stroke-miterlimit="10"/>
<path d="M85.7852 230.552C85.7852 230.564 85.7852 230.564 85.7852 230.576V231.278L85.8089 231.397C86.368 267.078 110.171 302.7 157.206 329.871C233.039 373.681 346.593 382.428 437.201 356.149L437.285 356.138L437.368 356.102C459.957 349.532 481.119 340.796 499.914 329.871C545.807 303.187 569.205 268.363 570.181 233.313L570.228 233.123" stroke="#99FAF4" stroke-miterlimit="10"/>
<path d="M85.7852 218.651C85.7852 218.663 85.7852 218.663 85.7852 218.674V219.377L85.8089 219.496C86.368 255.177 110.171 290.798 157.206 317.969C233.039 361.779 346.593 370.527 437.201 344.248L437.285 344.236L437.368 344.2C459.957 337.631 481.119 328.895 499.914 317.969C545.807 291.286 569.205 256.462 570.181 221.412L570.228 221.221" stroke="#99FAF4" stroke-miterlimit="10"/>
<path d="M85.7852 224.601C85.7852 224.613 85.7852 224.613 85.7852 224.625V225.327L85.8089 225.446C86.368 261.127 110.171 296.749 157.206 323.92C233.039 367.73 346.593 376.477 437.201 350.199L437.285 350.187L437.368 350.151C459.957 343.582 481.119 334.846 499.914 323.92C545.807 297.237 569.205 262.413 570.181 227.363L570.228 227.172" stroke="#99FAF4" stroke-miterlimit="10"/>
<path d="M85.7852 236.503C85.7852 236.515 85.7852 236.515 85.7852 236.527V237.229L85.8089 237.348C86.368 273.029 110.171 308.65 157.206 335.822C233.039 379.631 346.593 388.379 437.201 362.1L437.285 362.088L437.368 362.053C459.957 355.483 481.119 346.747 499.914 335.822C545.807 309.138 569.205 274.314 570.181 239.264L570.228 239.074" stroke="#99FAF4" stroke-miterlimit="10"/>
<path d="M85.7852 248.405C85.7852 248.416 85.7852 248.416 85.7852 248.428V249.131L85.8089 249.25C86.368 284.93 110.171 320.552 157.206 347.723C233.039 391.533 346.593 400.281 437.201 374.002L437.285 373.99L437.368 373.954C459.957 367.385 481.119 358.649 499.914 347.723C545.807 321.04 569.205 286.216 570.181 251.166L570.228 250.975" stroke="#99FAF4" stroke-miterlimit="10"/>
<path d="M85.7852 260.306C85.7852 260.318 85.7852 260.318 85.7852 260.33V261.032L85.8089 261.151C86.368 296.832 110.171 332.454 157.206 359.625C233.039 403.435 346.593 412.182 437.201 385.904L437.285 385.892L437.368 385.856C459.957 379.286 481.119 370.55 499.914 359.625C545.807 332.942 569.205 298.117 570.181 263.067L570.228 262.877" stroke="#99FAF4" stroke-miterlimit="10"/>
<path d="M85.7852 272.208C85.7852 272.22 85.7852 272.22 85.7852 272.231V272.934L85.8089 273.053C86.368 308.734 110.171 344.355 157.206 371.526C233.039 415.336 346.593 424.084 437.201 397.805L437.285 397.793L437.368 397.757C459.957 391.188 481.119 382.452 499.914 371.526C545.807 344.843 569.205 310.019 570.181 274.969L570.228 274.778" stroke="#99FAF4" stroke-miterlimit="10"/>
<path d="M456.568 168.843L455.818 169.164C471.889 181.946 480.43 197.002 480.525 212.7H481.453C481.358 196.883 472.758 181.72 456.568 168.843Z" fill="#99FAF4"/>
<path d="M204.847 258.914L205.632 258.628C190.037 244.501 182.4 226.22 185.231 209.724L184.303 209.665C181.472 226.28 189.145 244.691 204.847 258.914Z" fill="#99FAF4"/>
<path d="M430.254 273.886C442.566 266.828 452.07 258.557 458.47 249.309L457.602 249.107C451.238 258.283 441.816 266.483 429.588 273.505C420.94 278.468 411.162 282.645 400.539 285.93L400.979 286.406C411.697 283.098 421.546 278.885 430.254 273.886Z" fill="#99FAF4"/>
<path d="M365.031 298.843L364.829 298.308C347.794 300.522 330.379 300.676 313.071 298.784C300.819 297.439 289.043 295.094 278.063 291.822L277.635 292.298C288.698 295.606 300.569 297.963 312.905 299.308C330.332 301.224 347.878 301.069 365.031 298.843Z" fill="#99FAF4"/>
<path d="M324.516 134.423L324.551 134.971C353.338 134.602 382.613 139.208 402.871 147.313L403.395 146.86C382.982 138.696 353.505 134.054 324.516 134.423Z" fill="#99FAF4"/>
<path d="M495.275 115.428C402.943 62.0973 253.202 62.0973 161.464 115.428C69.7384 168.759 70.2261 255.546 162.559 308.877C254.891 362.207 404.632 362.219 496.37 308.877C588.096 255.546 587.608 168.759 495.275 115.428ZM495.703 308.508C404.334 361.636 255.177 361.624 163.213 308.508C71.2491 255.379 70.7614 168.95 162.131 115.821C253.5 62.6924 402.657 62.6924 494.621 115.809C586.585 168.938 587.073 255.379 495.703 308.508Z" fill="#99FAF4"/>
<path d="M498.796 112.251C404.001 57.4914 250.276 57.4914 156.1 112.251C61.923 167.01 62.4226 256.105 157.218 310.864C252.013 365.623 405.75 365.623 499.914 310.864C594.091 256.093 593.591 166.998 498.796 112.251ZM497.381 309.388C404.596 363.338 253.119 363.338 159.716 309.388C66.3243 255.438 65.8247 167.652 158.609 113.703C251.394 59.7527 402.871 59.7527 496.263 113.703C589.666 167.664 590.165 255.438 497.381 309.388Z" fill="#99FAF4"/>
<path d="M408.485 141.314L408.985 140.862C381.518 130.448 355.301 126.175 324.016 127.032L324.063 127.568C355.158 126.723 381.185 130.96 408.485 141.314Z" fill="#99FAF4"/>
<path d="M324.326 131.841L324.362 132.388C353.042 132.019 384.006 137.042 405.144 145.492L405.667 145.039C384.375 136.53 353.196 131.472 324.326 131.841Z" fill="#99FAF4"/>
<path d="M263.195 145.611L262.743 145.146C237.37 153.24 217.278 166.188 206.18 181.601L207.048 181.815C218.063 166.51 238 153.656 263.195 145.611Z" fill="#99FAF4"/>
<path d="M465.454 139.898C461.207 137.446 456.735 135.054 452.048 132.721C448.17 130.793 443.459 129.722 438.558 129.579C434.133 128.722 429.518 128.579 425.283 129.246C425.628 129.377 425.973 129.52 426.318 129.651C429.208 129.27 432.254 129.27 435.287 129.627C434.098 129.698 432.896 129.817 431.707 129.996C430.66 130.15 429.625 130.353 428.638 130.591C428.947 130.722 429.232 130.841 429.542 130.972C430.327 130.793 431.124 130.65 431.944 130.531C434.109 130.21 436.286 130.067 438.427 130.127C441.163 130.674 443.828 131.495 446.278 132.602C453.416 135.816 459.875 139.112 465.728 142.492C528.762 178.911 520.59 223.792 513.464 242.537C512.144 245.977 508.278 248.619 502.58 249.964C498.369 250.963 493.539 251.19 488.733 250.69C488.615 250.856 488.496 251.023 488.377 251.201C493.42 251.749 498.5 251.523 502.937 250.475C508.944 249.059 513 246.286 514.38 242.656C521.541 223.828 529.761 178.721 466.394 142.123C460.517 138.732 454.011 135.399 446.838 132.174C445.267 131.472 443.602 130.865 441.889 130.377C445.363 130.805 448.634 131.733 451.453 133.138C456.128 135.459 460.589 137.851 464.824 140.291C482.476 150.49 496.192 161.69 505.708 173.686C522.874 195.347 525.621 218.96 513.857 243.882C511.834 248.167 506.374 251.642 499.261 253.201C495.014 254.129 490.613 254.26 486.569 253.641C487.187 252.832 487.794 252.035 488.733 250.713C514.38 214.33 501.592 170.854 450.501 141.338C443.888 137.518 436.881 134.066 429.542 130.996C429.232 130.865 428.947 130.746 428.638 130.615C427.876 130.293 427.103 129.984 426.33 129.674C425.985 129.532 425.64 129.401 425.295 129.27C391.964 116.166 352.495 110.501 313.906 112.286C313.501 112.31 313.097 112.322 312.514 112.358C273.378 114.345 235.229 124.009 205.431 141.338C175.716 158.619 159.181 180.685 155.803 203.31C155.577 203.179 155.351 203.036 155.137 202.893C150.248 199.727 148.344 195.669 149.938 191.765C157.266 173.805 169.84 158.155 187.326 145.242C212.746 126.461 247.779 114.262 291.423 108.989C298.763 108.097 306.614 109.358 312.704 112.346C313.109 112.322 313.513 112.31 313.561 112.084C313.168 111.858 312.752 111.632 312.335 111.406C305.151 107.645 296.003 105.871 288.437 106.776C189.503 118.677 156.338 165.51 145.382 192.36C143.717 196.442 145.692 200.679 150.795 203.976C151.128 204.19 151.461 204.393 151.806 204.595C152.924 205.238 154.126 205.821 155.41 206.333C153.245 228.719 163.927 251.463 187.421 270.506C186.672 271.506 186.077 272.541 185.672 273.624C183.995 277.968 185.672 282.11 190.252 284.99C191.977 286.073 193.904 287.251 196.069 288.501C224.416 304.878 289.722 332.822 384.874 315.648C389.24 314.863 393.094 313.387 396.044 311.459C396.674 311.043 397.257 310.614 397.804 310.15C399.089 309.067 400.136 307.889 400.862 306.627C401.48 305.544 401.861 304.461 401.992 303.378C403.764 302.902 405.525 302.402 407.273 301.89C407.166 302.176 407.035 302.473 406.893 302.771C405.418 305.734 402.182 308.329 397.793 310.162C397.245 310.614 396.662 311.054 396.032 311.471C401.754 309.555 406.012 306.496 407.797 302.926C408.023 302.473 408.201 302.033 408.332 301.581C423.82 296.951 438.332 290.869 451.287 283.348C466.263 274.648 477.885 264.722 486.557 253.629C486.426 253.796 486.307 253.963 486.176 254.117C490.446 254.796 495.098 254.665 499.582 253.689C506.981 252.082 512.655 248.464 514.749 244.013C526.573 218.972 523.813 195.228 506.541 173.448C496.977 161.38 483.19 150.133 465.454 139.898ZM155.672 203.988C155.589 204.559 155.529 205.13 155.458 205.702C154.399 205.261 153.388 204.761 152.448 204.214C152.115 204.024 151.794 203.821 151.473 203.619C146.584 200.453 144.681 196.395 146.275 192.491C157.183 165.76 190.181 119.142 288.58 107.276C293.886 106.645 300.024 107.383 305.65 109.251C301.047 108.156 296.003 107.847 291.185 108.43C247.303 113.726 212.104 125.985 186.541 144.873C168.971 157.845 156.35 173.579 148.987 191.61C147.321 195.692 149.296 199.929 154.399 203.226C154.732 203.44 155.077 203.643 155.672 203.988ZM425.033 131.65C420.299 133.364 416.564 136.018 414.518 139.243C407.69 150.074 397.888 165.677 389.442 179.34C388.859 178.971 388.264 178.602 387.658 178.245L413.34 136.327C414.97 133.685 418.039 131.662 422.119 130.496C422.94 130.817 423.748 131.138 425.033 131.65ZM408.249 224.792L409.95 225.446L471.069 249C463.491 260.08 452.25 269.994 437.642 278.48C427.876 284.157 416.873 289.013 404.942 292.916C404.811 292.821 404.692 292.714 404.549 292.619L362.118 259.544C371.087 257.117 379.485 253.748 386.872 249.452C398.661 242.597 406.357 234.254 409.95 225.458L408.249 224.792ZM384.351 247.988C351.65 267.007 298.251 267.007 265.336 247.988C232.41 228.969 232.243 198.025 264.944 179.006C297.656 159.988 351.043 159.988 383.958 179.006C416.885 198.037 417.063 228.969 384.351 247.988ZM261.542 248.702C253.358 250.821 244.293 253.141 235.491 255.391C223.904 258.342 212.961 261.151 204.491 263.389C198.888 264.876 194.439 267.399 191.763 270.47C191.228 270.054 190.692 269.625 189.848 268.935C192.893 265.947 197.496 263.555 202.921 262.282C211.438 260.282 221.561 257.807 231.327 255.403C241.51 252.903 252.025 250.333 260.816 248.274C261.28 248.167 261.72 248.059 262.172 247.952C261.72 248.059 261.28 248.155 260.816 248.274C261.066 248.405 261.304 248.559 261.542 248.702ZM204.884 263.877C213.341 261.639 224.285 258.842 235.859 255.879C244.781 253.606 253.964 251.261 262.232 249.107C262.422 249.226 262.624 249.333 262.815 249.452C287.664 263.805 323.696 267.768 354.636 261.33L397.567 295.975C399.529 297.57 400.683 299.415 401.004 301.343C401.052 301.331 401.099 301.319 401.159 301.307C401.111 301.319 401.064 301.331 401.004 301.343C338.196 318.422 260.769 311.935 208.714 281.86C202.968 278.539 197.711 275.028 192.393 270.934C194.951 267.876 199.328 265.352 204.884 263.877ZM159.122 204.952C161.905 182.268 178.166 160.071 207.929 142.766C237.834 125.378 276.328 115.869 315.642 114.25C316.249 114.702 316.808 115.166 317.308 115.642C319.544 117.809 320.531 120.236 320.079 122.653L312.978 162.987L313.906 163.046L314.215 161.309L314.548 161.333L321.602 122.986C322.042 120.546 320.793 117.892 318.129 115.404C317.7 115 317.236 114.607 316.737 114.214C316.749 114.214 316.749 114.214 316.761 114.214C352.935 112.858 389.763 118.178 421.215 130.162C417.146 131.412 414.101 133.483 412.436 136.161L386.908 177.816L386.111 179.125L386.991 179.304L386.099 179.125L386.896 177.816C386.754 177.733 386.599 177.638 386.444 177.554C352.126 157.738 296.479 157.738 262.374 177.554C249.408 185.1 241.403 194.443 238.346 204.202C227.2 205.035 215.685 205.595 204.527 206.13C194.82 206.594 185.637 207.047 177.286 207.63C170.791 208.106 164.296 207.118 159.122 204.952C159.098 205.154 159.074 205.357 159.05 205.559C159.074 205.368 159.098 205.166 159.122 204.952ZM239.178 204.869L239.143 204.702L239.059 204.345L239.166 204.69L239.107 204.488L239.178 204.869ZM159.05 205.583C163.82 207.487 169.613 208.439 175.537 208.272C174.919 208.32 174.3 208.356 173.706 208.403C168.543 208.772 163.404 208.225 158.919 206.916C158.955 206.475 159.003 206.023 159.05 205.583ZM158.884 207.511C163.44 208.784 168.626 209.308 173.836 208.939C182.092 208.356 191.692 207.808 201.838 207.237C214.019 206.535 226.617 205.833 238.155 204.964C238.5 204.94 238.845 204.916 239.19 204.892C238.845 204.916 238.5 204.94 238.155 204.976C233.861 219.984 241.2 235.92 260.15 247.857C251.407 249.904 241.046 252.451 230.982 254.915C221.204 257.319 211.105 259.794 202.588 261.794C201.934 261.949 201.291 262.115 200.661 262.306C195.998 263.662 192.048 265.84 189.277 268.471C167.544 250.44 157.397 229.136 158.884 207.511ZM384.565 315.137C289.901 332.215 224.927 304.425 196.711 288.12C194.57 286.882 192.631 285.704 190.906 284.621C186.541 281.872 184.959 277.909 186.565 273.731C186.921 272.803 187.421 271.886 188.04 271.018C188.741 271.577 189.467 272.148 190.193 272.696C189.86 273.303 189.598 273.933 189.396 274.576C188.063 278.932 190.24 283.133 195.391 286.097C227.437 304.604 295.527 332.656 391.607 312.625C392.202 312.495 392.796 312.364 393.367 312.221C390.869 313.542 387.872 314.542 384.565 315.137ZM400.992 303.64C400.838 304.58 400.481 305.52 399.946 306.449C398.958 308.15 397.4 309.71 395.413 311.031C394.117 311.459 392.737 311.828 391.298 312.126C295.694 332.061 227.937 304.128 196.045 285.716C191.132 282.883 189.039 278.849 190.312 274.671C190.466 274.183 190.657 273.695 190.895 273.231C195.546 276.742 200.649 280.122 206.204 283.324C258.925 313.78 337.137 320.54 401.968 303.366C401.647 303.461 401.314 303.545 400.992 303.64ZM407.713 299.415C406 299.938 404.276 300.438 401.908 301.093C401.528 299.141 400.326 297.284 398.34 295.654L355.564 261.127C357.491 260.711 359.394 260.259 361.285 259.759L403.847 292.928C406.369 294.845 407.69 297.07 407.713 299.415ZM482.798 253.379C474.685 263.71 463.337 273.374 448.729 281.872C436.845 288.775 423.606 294.44 408.629 299.129C408.522 297.07 407.464 295.118 405.477 293.381C417.444 289.453 428.495 284.573 438.297 278.873C452.952 270.363 464.241 260.425 471.854 249.321L480.395 252.606C481.18 252.891 481.977 253.153 482.798 253.379ZM484.832 250.678C484.38 251.309 483.892 251.951 483.178 252.891C482.405 252.677 481.644 252.427 480.918 252.154L410.188 224.899C410.378 224.423 410.544 223.935 410.711 223.459C409.855 223.138 409.022 222.816 408.225 222.519C409.01 222.816 409.843 223.138 410.699 223.459C429.28 230.528 463.277 243.394 476.897 248.524C479.407 249.464 482.096 250.178 484.832 250.678ZM485.177 250.178C482.488 249.702 479.871 248.988 477.409 248.071C463.717 242.906 429.387 229.921 410.889 222.876C415.612 207.892 408.689 191.884 390.144 179.804C389.941 180.125 389.739 180.458 389.537 180.78C389.739 180.458 389.941 180.137 390.144 179.804C398.625 166.081 408.51 150.336 415.386 139.446C417.396 136.256 421.131 133.638 425.854 131.995C433.61 135.173 440.997 138.755 447.944 142.766C497.917 171.616 510.455 214.08 485.177 250.178Z" fill="#99FAF4"/>
<path d="M178.605 210.605L177.666 210.581C176.036 229.315 183.982 247.179 200.648 262.282L201.433 261.996C184.862 246.988 176.976 229.219 178.605 210.605Z" fill="#99FAF4"/>
<path d="M207.726 257.807L208.511 257.521C193.51 243.942 186.54 226.672 189.383 210.129L188.443 210.082C185.588 226.732 192.606 244.132 207.726 257.807Z" fill="#99FAF4"/>
<path d="M433.336 274.969C424.497 280.039 414.505 284.312 403.633 287.668L404.073 288.156C415.029 284.764 425.08 280.467 433.99 275.362C446.575 268.137 456.282 259.687 462.837 250.249L461.968 250.047C455.461 259.414 445.826 267.804 433.336 274.969Z" fill="#99FAF4"/>
<path d="M498.796 112.846C404.001 58.0983 250.264 58.0983 156.088 112.857C61.9113 167.617 62.4109 256.712 157.206 311.471C252.001 366.23 405.738 366.23 499.903 311.471C594.091 256.7 593.58 167.605 498.796 112.846Z" stroke="#99FAF4" stroke-width="3" stroke-miterlimit="10"/>
</g>
<path d="M73.002 83.9999L179.827 83.9999L261.002 165" stroke="#99FAF4"/>
<circle cx="261.002" cy="165" r="4" fill="#99FAF4"/>
<path d="M548.002 31.9999L441.177 31.9999L360.002 113" stroke="#99FAF4"/>
<circle cx="4" cy="4" r="4" transform="matrix(-1 -8.74228e-08 -8.74228e-08 1 364.002 109)" fill="#99FAF4"/>
<path d="M548.002 468L402.177 468L321.002 387" stroke="#99FAF4"/>
<circle cx="321.002" cy="387" r="4" transform="rotate(-180 321.002 387)" fill="#99FAF4"/>
<path d="M74.1 57.1299V69.9999H76.242V66.2019L78.222 64.0779L82.434 69.9999H84.936L79.626 62.5839L84.63 57.1299H82.074L76.242 63.4839V57.1299H74.1ZM86.8643 59.2539C87.4223 59.2539 87.9443 58.8939 87.9443 58.2459C87.9443 57.5979 87.4223 57.2559 86.8643 57.2559C86.3423 57.2559 85.8023 57.5979 85.8023 58.2459C85.8023 58.8939 86.3423 59.2539 86.8643 59.2539ZM85.9283 60.8019V69.9999H87.8183V60.8019H85.9283ZM94.6898 60.5499C93.1058 60.5499 92.1518 61.2699 91.6658 61.9899H91.6298V60.8019H89.7398V69.9999H91.6298V64.4019C91.6298 63.0339 92.5658 62.1519 94.0238 62.1519C95.3198 62.1519 95.8418 62.9439 95.8418 64.1859V69.9999H97.7498V63.6459C97.7498 61.5399 96.3998 60.5499 94.6898 60.5499ZM105.94 57.1299V61.9179H105.904C105.418 61.2159 104.518 60.5499 103.096 60.5499C100.738 60.5499 98.9921 62.3859 98.9921 65.4099C98.9921 68.4339 100.738 70.2699 103.096 70.2699C104.518 70.2699 105.418 69.5679 105.904 68.9379H105.94V69.9999H107.83V57.1299H105.94ZM103.42 68.7219C101.764 68.7219 100.882 67.2099 100.882 65.4099C100.882 63.6099 101.764 62.0979 103.42 62.0979C104.968 62.0979 105.922 63.3579 105.922 65.4099C105.922 67.4439 104.968 68.7219 103.42 68.7219ZM115.2 63.2139C115.2 64.0959 114.336 64.2759 112.914 64.5459C110.61 64.9959 109.116 65.6259 109.116 67.6419C109.116 69.1899 110.268 70.2699 112.14 70.2699C113.562 70.2699 114.606 69.7119 115.182 68.9019H115.218C115.398 69.8019 115.866 70.1619 116.874 70.1619C117.234 70.1619 117.54 70.1259 117.972 69.9639V69.0639C117.234 69.1359 117.09 68.7939 117.09 68.1459V63.7719C117.09 61.3239 115.578 60.5499 113.544 60.5499C110.772 60.5499 109.638 61.9359 109.548 63.6999H111.384C111.474 62.5119 112.032 62.0439 113.544 62.0439C114.804 62.0439 115.2 62.5479 115.2 63.2139ZM112.554 68.7759C111.528 68.7759 111.024 68.3079 111.024 67.4619C111.024 66.5259 111.708 66.0759 113.274 65.7339C114.156 65.5539 114.894 65.3379 115.2 65.1219V66.5079C115.2 68.0019 114.12 68.7759 112.554 68.7759ZM126.483 64.4379C125.151 64.1319 124.125 64.0599 124.125 63.1239C124.125 62.4759 124.737 62.0439 125.871 62.0439C127.347 62.0439 127.707 62.7819 127.833 63.5019H129.669C129.543 61.8999 128.355 60.5499 125.853 60.5499C123.549 60.5499 122.217 61.7559 122.217 63.2679C122.217 65.3559 124.197 65.6439 125.655 65.9859C127.005 66.3099 128.103 66.3999 128.103 67.5519C128.103 68.1279 127.545 68.7759 126.231 68.7759C124.287 68.7759 123.855 67.9299 123.765 66.9399H121.929C122.019 68.8839 123.297 70.2699 126.267 70.2699C128.499 70.2699 130.011 69.1719 130.011 67.4079C130.011 65.2119 128.175 64.8339 126.483 64.4379ZM135.486 68.7219C133.812 68.7219 132.822 67.4439 132.822 65.8959H139.878C139.878 62.6199 138.42 60.5499 135.45 60.5499C132.678 60.5499 130.932 62.4219 130.932 65.4099C130.932 68.2899 132.678 70.2699 135.54 70.2699C137.898 70.2699 139.266 68.9379 139.734 67.1919H137.844C137.682 67.7499 137.052 68.7219 135.486 68.7219ZM135.45 62.0439C136.98 62.0439 137.988 63.0699 137.988 64.4919H132.822C132.822 63.0699 133.92 62.0439 135.45 62.0439ZM147.509 64.1679H149.399C149.165 62.0799 147.599 60.5499 145.205 60.5499C142.469 60.5499 140.687 62.5299 140.687 65.4099C140.687 68.2899 142.469 70.2699 145.223 70.2699C147.617 70.2699 149.255 68.7039 149.399 66.5799H147.509C147.437 67.6059 146.843 68.7219 145.223 68.7219C143.351 68.7219 142.577 67.1379 142.577 65.4099C142.577 63.6819 143.369 62.0979 145.223 62.0979C146.843 62.0979 147.437 63.2319 147.509 64.1679ZM156.696 60.8019V66.3999C156.696 67.7679 155.76 68.6499 154.302 68.6499C153.006 68.6499 152.484 67.8579 152.484 66.6159V60.8019H150.576V67.1559C150.576 69.2619 151.926 70.2519 153.636 70.2519C155.22 70.2519 156.174 69.5319 156.66 68.8119H156.696V69.9999H158.586V60.8019H156.696ZM164.76 60.5859C163.554 60.5859 162.798 61.3779 162.312 62.5299H162.276V60.8019H160.386V69.9999H162.276V65.3019C162.276 63.3399 163.734 62.1159 165.552 62.4219H165.588V60.6399C165.318 60.6039 165.084 60.5859 164.76 60.5859ZM170.572 68.7219C168.898 68.7219 167.908 67.4439 167.908 65.8959H174.964C174.964 62.6199 173.506 60.5499 170.536 60.5499C167.764 60.5499 166.018 62.4219 166.018 65.4099C166.018 68.2899 167.764 70.2699 170.626 70.2699C172.984 70.2699 174.352 68.9379 174.82 67.1919H172.93C172.768 67.7499 172.138 68.7219 170.572 68.7219ZM170.536 62.0439C172.066 62.0439 173.074 63.0699 173.074 64.4919H167.908C167.908 63.0699 169.006 62.0439 170.536 62.0439Z" fill="#E9EEF1"/>
<path d="M411.072 453.608V445.13H408.948V453.608C408.948 455.552 407.976 456.434 405.996 456.434C404.034 456.434 403.062 455.552 403.062 453.608V445.13H400.92V453.608C400.92 456.416 402.414 458.27 405.996 458.27C409.578 458.27 411.072 456.416 411.072 453.608ZM417.858 448.55C416.274 448.55 415.32 449.27 414.834 449.99H414.798V448.802H412.908V458H414.798V452.402C414.798 451.034 415.734 450.152 417.192 450.152C418.488 450.152 419.01 450.944 419.01 452.186V458H420.918V451.646C420.918 449.54 419.568 448.55 417.858 448.55ZM427.38 448.55C425.958 448.55 425.058 449.216 424.572 449.918H424.536V445.13H422.646V458H424.536V456.938H424.572C425.058 457.568 425.958 458.27 427.38 458.27C429.738 458.27 431.484 456.434 431.484 453.41C431.484 450.386 429.738 448.55 427.38 448.55ZM427.056 456.722C425.508 456.722 424.554 455.444 424.554 453.41C424.554 451.358 425.508 450.098 427.056 450.098C428.712 450.098 429.594 451.61 429.594 453.41C429.594 455.21 428.712 456.722 427.056 456.722ZM436.874 456.722C435.2 456.722 434.21 455.444 434.21 453.896H441.266C441.266 450.62 439.808 448.55 436.838 448.55C434.066 448.55 432.32 450.422 432.32 453.41C432.32 456.29 434.066 458.27 436.928 458.27C439.286 458.27 440.654 456.938 441.122 455.192H439.232C439.07 455.75 438.44 456.722 436.874 456.722ZM436.838 450.044C438.368 450.044 439.376 451.07 439.376 452.492H434.21C434.21 451.07 435.308 450.044 436.838 450.044ZM442.598 445.13V458H444.506V445.13H442.598ZM447.263 447.254C447.821 447.254 448.343 446.894 448.343 446.246C448.343 445.598 447.821 445.256 447.263 445.256C446.741 445.256 446.201 445.598 446.201 446.246C446.201 446.894 446.741 447.254 447.263 447.254ZM446.327 448.802V458H448.217V448.802H446.327ZM449.238 448.802L452.496 458H454.638L457.896 448.802H455.898L453.576 456.002H453.558L451.236 448.802H449.238ZM464.067 451.214C464.067 452.096 463.203 452.276 461.781 452.546C459.477 452.996 457.983 453.626 457.983 455.642C457.983 457.19 459.135 458.27 461.007 458.27C462.429 458.27 463.473 457.712 464.049 456.902H464.085C464.265 457.802 464.733 458.162 465.741 458.162C466.101 458.162 466.407 458.126 466.839 457.964V457.064C466.101 457.136 465.957 456.794 465.957 456.146V451.772C465.957 449.324 464.445 448.55 462.411 448.55C459.639 448.55 458.505 449.936 458.415 451.7H460.251C460.341 450.512 460.899 450.044 462.411 450.044C463.671 450.044 464.067 450.548 464.067 451.214ZM461.421 456.776C460.395 456.776 459.891 456.308 459.891 455.462C459.891 454.526 460.575 454.076 462.141 453.734C463.023 453.554 463.761 453.338 464.067 453.122V454.508C464.067 456.002 462.987 456.776 461.421 456.776ZM472.679 448.55C471.257 448.55 470.357 449.216 469.871 449.918H469.835V445.13H467.945V458H469.835V456.938H469.871C470.357 457.568 471.257 458.27 472.679 458.27C475.037 458.27 476.783 456.434 476.783 453.41C476.783 450.386 475.037 448.55 472.679 448.55ZM472.355 456.722C470.807 456.722 469.853 455.444 469.853 453.41C469.853 451.358 470.807 450.098 472.355 450.098C474.011 450.098 474.893 451.61 474.893 453.41C474.893 455.21 474.011 456.722 472.355 456.722ZM478.141 445.13V458H480.049V445.13H478.141ZM490.002 448.802H487.986L485.628 455.84H485.592L483.018 448.802H480.984L484.314 457.064C484.656 457.928 484.404 458.648 484.062 459.062C483.648 459.566 483.054 459.62 482.262 459.512H482.1V460.952C482.46 461.042 482.91 461.132 483.45 461.132C485.214 461.132 485.808 459.998 486.33 458.576L490.002 448.802ZM498.325 452.438C496.993 452.132 495.967 452.06 495.967 451.124C495.967 450.476 496.579 450.044 497.713 450.044C499.189 450.044 499.549 450.782 499.675 451.502H501.511C501.385 449.9 500.197 448.55 497.695 448.55C495.391 448.55 494.059 449.756 494.059 451.268C494.059 453.356 496.039 453.644 497.497 453.986C498.847 454.31 499.945 454.4 499.945 455.552C499.945 456.128 499.387 456.776 498.073 456.776C496.129 456.776 495.697 455.93 495.607 454.94H493.771C493.861 456.884 495.139 458.27 498.109 458.27C500.341 458.27 501.853 457.172 501.853 455.408C501.853 453.212 500.017 452.834 498.325 452.438ZM507.327 456.722C505.653 456.722 504.663 455.444 504.663 453.896H511.719C511.719 450.62 510.261 448.55 507.291 448.55C504.519 448.55 502.773 450.422 502.773 453.41C502.773 456.29 504.519 458.27 507.381 458.27C509.739 458.27 511.107 456.938 511.575 455.192H509.685C509.523 455.75 508.893 456.722 507.327 456.722ZM507.291 450.044C508.821 450.044 509.829 451.07 509.829 452.492H504.663C504.663 451.07 505.761 450.044 507.291 450.044ZM519.351 452.168H521.241C521.007 450.08 519.441 448.55 517.047 448.55C514.311 448.55 512.529 450.53 512.529 453.41C512.529 456.29 514.311 458.27 517.065 458.27C519.459 458.27 521.097 456.704 521.241 454.58H519.351C519.279 455.606 518.685 456.722 517.065 456.722C515.193 456.722 514.419 455.138 514.419 453.41C514.419 451.682 515.211 450.098 517.065 450.098C518.685 450.098 519.279 451.232 519.351 452.168ZM528.538 448.802V454.4C528.538 455.768 527.602 456.65 526.144 456.65C524.848 456.65 524.326 455.858 524.326 454.616V448.802H522.418V455.156C522.418 457.262 523.768 458.252 525.478 458.252C527.062 458.252 528.016 457.532 528.502 456.812H528.538V458H530.428V448.802H528.538ZM536.602 448.586C535.396 448.586 534.64 449.378 534.154 450.53H534.118V448.802H532.228V458H534.118V453.302C534.118 451.34 535.576 450.116 537.394 450.422H537.43V448.64C537.16 448.604 536.926 448.586 536.602 448.586ZM542.413 456.722C540.739 456.722 539.749 455.444 539.749 453.896H546.805C546.805 450.62 545.347 448.55 542.377 448.55C539.605 448.55 537.859 450.422 537.859 453.41C537.859 456.29 539.605 458.27 542.467 458.27C544.825 458.27 546.193 456.938 546.661 455.192H544.771C544.609 455.75 543.979 456.722 542.413 456.722ZM542.377 450.044C543.907 450.044 544.915 451.07 544.915 452.492H539.749C539.749 451.07 540.847 450.044 542.377 450.044Z" fill="#E9EEF1"/>
<path d="M537.579 281.643C516.423 303.139 485.986 320.986 449.332 333.388C412.679 345.789 371.103 352.307 328.79 352.286C286.477 352.264 244.921 345.703 208.305 333.264C171.688 320.825 141.305 302.946 120.212 281.428L329.001 211L537.579 281.643Z" fill="url(#paint0_linear_6878_108974)" fill-opacity="0.5"/>
<path d="M120.424 281.643C99.2842 260.164 88.1556 235.799 88.1564 210.997C88.1573 186.195 99.2875 161.831 120.428 140.352C141.569 118.874 171.976 101.038 208.591 88.6386C245.207 76.239 286.742 69.7121 329.02 69.714L329.002 211L120.424 281.643Z" fill="url(#paint1_linear_6878_108974)" fill-opacity="0.1"/>
<path d="M329.002 68.9999C371.277 68.9999 412.808 75.552 449.427 87.9986C486.045 100.445 516.463 118.348 537.627 139.911C558.791 161.474 569.956 185.937 570.002 210.846C570.048 235.755 558.972 260.233 537.888 281.822L329.002 211L329.002 68.9999Z" fill="url(#paint2_linear_6878_108974)" fill-opacity="0.3"/>
<defs>
<linearGradient id="paint0_linear_6878_108974" x1="458" y1="222" x2="309.358" y2="434.461" gradientUnits="userSpaceOnUse">
<stop stop-color="#99FAF4"/>
<stop offset="1" stop-color="#99FAF4" stop-opacity="0"/>
</linearGradient>
<linearGradient id="paint1_linear_6878_108974" x1="268.5" y1="250.5" x2="241.239" y2="70.3019" gradientUnits="userSpaceOnUse">
<stop stop-color="#99FAF4"/>
<stop offset="1" stop-color="#99FAF4" stop-opacity="0"/>
</linearGradient>
<linearGradient id="paint2_linear_6878_108974" x1="305" y1="152.5" x2="612.5" y2="218" gradientUnits="userSpaceOnUse">
<stop stop-color="#99FAF4"/>
<stop offset="1" stop-color="#99FAF4" stop-opacity="0"/>
</linearGradient>
<clipPath id="clip0_6878_108974">
<rect width="488" height="356" fill="white" transform="translate(84.002 69.9999)"/>
</clipPath>
</defs>
</svg>
