<svg width="36" height="36" viewBox="0 0 36 36" fill="none" xmlns="http://www.w3.org/2000/svg">
<path d="M32.2958 30.7041L25.2547 23.6645C27.2955 21.2144 28.3131 18.0718 28.0959 14.8905C27.8787 11.7092 26.4434 8.73409 24.0885 6.5841C21.7337 4.43411 18.6406 3.27475 15.4527 3.3472C12.2648 3.41965 9.22759 4.71833 6.97284 6.97308C4.71808 9.22784 3.4194 12.2651 3.34695 15.4529C3.2745 18.6408 4.43386 21.7339 6.58386 24.0888C8.73385 26.4436 11.7089 27.879 14.8902 28.0962C18.0715 28.3134 21.2141 27.2957 23.6642 25.2549L30.7039 32.296C30.8084 32.4005 30.9325 32.4835 31.0691 32.54C31.2056 32.5966 31.352 32.6257 31.4998 32.6257C31.6477 32.6257 31.794 32.5966 31.9306 32.54C32.0672 32.4835 32.1912 32.4005 32.2958 32.296C32.4003 32.1915 32.4832 32.0674 32.5398 31.9308C32.5963 31.7943 32.6255 31.6479 32.6255 31.5001C32.6255 31.3523 32.5963 31.2059 32.5398 31.0693C32.4832 30.9328 32.4003 30.8087 32.2958 30.7041ZM5.62483 15.7501C5.62483 13.7475 6.21865 11.79 7.3312 10.1249C8.44375 8.45988 10.0251 7.16213 11.8752 6.3958C13.7253 5.62946 15.7611 5.42895 17.7251 5.81963C19.6892 6.2103 21.4933 7.17461 22.9093 8.59062C24.3253 10.0066 25.2896 11.8107 25.6803 13.7748C26.071 15.7388 25.8705 17.7746 25.1041 19.6247C24.3378 21.4748 23.04 23.0562 21.375 24.1687C19.7099 25.2813 17.7524 25.8751 15.7498 25.8751C13.0654 25.8721 10.4918 24.8044 8.59367 22.9062C6.6955 21.0081 5.62781 18.4345 5.62483 15.7501Z" fill="#99FAF4"/>
</svg>
