<svg width="659" height="481" viewBox="0 0 659 481" fill="none" xmlns="http://www.w3.org/2000/svg">
<path d="M658 20.8672L0.00194359 20.8672" stroke="#FF8A00" stroke-opacity="0.1"/>
<path d="M658 52.6006L0.00194359 52.6006" stroke="#FF8A00" stroke-opacity="0.1"/>
<path d="M658 84.3339L0.00194359 84.3339" stroke="#FF8A00" stroke-opacity="0.1"/>
<path d="M658 116.067L0.00194359 116.067" stroke="#FF8A00" stroke-opacity="0.1"/>
<path d="M658.002 147.8L0.00389671 147.8" stroke="#FF8A00" stroke-opacity="0.1"/>
<path d="M658 179.534L0.00194359 179.534" stroke="#FF8A00" stroke-opacity="0.1"/>
<path d="M658 211.267L0.00194359 211.267" stroke="#FF8A00" stroke-opacity="0.1"/>
<path d="M658 243L0.00194359 243" stroke="#FF8A00" stroke-opacity="0.1"/>
<path d="M658 274.733L0.00194359 274.733" stroke="#FF8A00" stroke-opacity="0.1"/>
<path d="M658 306.466L0.00194359 306.466" stroke="#FF8A00" stroke-opacity="0.1"/>
<path d="M658 338.2L0.00194359 338.2" stroke="#FF8A00" stroke-opacity="0.1"/>
<path d="M658 369.933L0.00194359 369.933" stroke="#FF8A00" stroke-opacity="0.1"/>
<path d="M658 401.666L0.00194359 401.666" stroke="#FF8A00" stroke-opacity="0.1"/>
<path d="M658 433.399L0.00194359 433.399" stroke="#FF8A00" stroke-opacity="0.1"/>
<path d="M658 465.133L0.00194359 465.133" stroke="#FF8A00" stroke-opacity="0.1"/>
<path d="M636.064 480.998L636.064 4.99995" stroke="#FF8A00" stroke-opacity="0.1"/>
<path d="M592.201 480.998L592.201 4.99995" stroke="#FF8A00" stroke-opacity="0.1"/>
<path d="M548.334 480.998L548.334 4.99995" stroke="#FF8A00" stroke-opacity="0.1"/>
<path d="M504.467 480.998L504.467 4.99995" stroke="#FF8A00" stroke-opacity="0.1"/>
<path d="M460.6 481L460.6 5.00154" stroke="#FF8A00" stroke-opacity="0.1"/>
<path d="M416.734 480.998L416.734 4.99995" stroke="#FF8A00" stroke-opacity="0.1"/>
<path d="M372.867 480.998L372.867 4.99995" stroke="#FF8A00" stroke-opacity="0.1"/>
<path d="M329 480.998L329 4.99995" stroke="#FF8A00" stroke-opacity="0.1"/>
<path d="M285.133 480.998L285.133 4.99995" stroke="#FF8A00" stroke-opacity="0.1"/>
<path d="M241.268 480.998L241.268 4.99995" stroke="#FF8A00" stroke-opacity="0.1"/>
<path d="M197.402 480.998L197.402 4.99995" stroke="#FF8A00" stroke-opacity="0.1"/>
<path d="M153.533 480.998L153.533 4.99995" stroke="#FF8A00" stroke-opacity="0.1"/>
<path d="M109.668 480.998L109.668 4.99995" stroke="#FF8A00" stroke-opacity="0.1"/>
<path d="M65.8008 480.998L65.8008 4.99995" stroke="#FF8A00" stroke-opacity="0.1"/>
<path d="M21.9375 480.998L21.9375 4.99995" stroke="#FF8A00" stroke-opacity="0.1"/>
<path d="M445.243 10.692V6.948H452.101V5.13H443.101V18H445.243V12.528H450.805V10.692H445.243ZM458.168 11.214C458.168 12.096 457.304 12.276 455.882 12.546C453.578 12.996 452.084 13.626 452.084 15.642C452.084 17.19 453.236 18.27 455.108 18.27C456.53 18.27 457.574 17.712 458.15 16.902H458.186C458.366 17.802 458.834 18.162 459.842 18.162C460.202 18.162 460.508 18.126 460.94 17.964V17.064C460.202 17.136 460.058 16.794 460.058 16.146V11.772C460.058 9.324 458.546 8.55 456.512 8.55C453.74 8.55 452.606 9.936 452.516 11.7H454.352C454.442 10.512 455 10.044 456.512 10.044C457.772 10.044 458.168 10.548 458.168 11.214ZM455.522 16.776C454.496 16.776 453.992 16.308 453.992 15.462C453.992 14.526 454.676 14.076 456.242 13.734C457.124 13.554 457.862 13.338 458.168 13.122V14.508C458.168 16.002 457.088 16.776 455.522 16.776ZM466.024 12.438C464.692 12.132 463.666 12.06 463.666 11.124C463.666 10.476 464.278 10.044 465.412 10.044C466.888 10.044 467.248 10.782 467.374 11.502H469.21C469.084 9.9 467.896 8.55 465.394 8.55C463.09 8.55 461.758 9.756 461.758 11.268C461.758 13.356 463.738 13.644 465.196 13.986C466.546 14.31 467.644 14.4 467.644 15.552C467.644 16.128 467.086 16.776 465.772 16.776C463.828 16.776 463.396 15.93 463.306 14.94H461.47C461.56 16.884 462.838 18.27 465.808 18.27C468.04 18.27 469.552 17.172 469.552 15.408C469.552 13.212 467.716 12.834 466.024 12.438ZM474.998 10.35V8.802H473.27V5.904H471.362V8.802H470.03V10.35H471.362V15.498C471.362 17.442 472.19 18.126 473.702 18.126C474.206 18.126 474.62 18.072 474.998 17.982V16.434C473.774 16.506 473.27 16.38 473.27 15.336V10.35H474.998ZM490.185 18L488.169 15.552C488.889 14.4 489.303 13.032 489.465 11.808H487.683C487.557 12.6 487.323 13.392 486.981 14.112L484.623 11.268C486.315 10.296 487.287 9.396 487.287 7.938C487.287 6.426 486.063 4.842 483.993 4.86C481.779 4.878 480.699 6.426 480.699 7.938C480.699 9.144 481.311 10.008 482.211 11.106C480.861 11.898 479.511 12.924 479.511 14.832C479.511 16.794 480.915 18.27 483.543 18.27C484.965 18.27 486.117 17.748 486.999 16.956L487.863 18H490.185ZM483.993 6.642C484.947 6.642 485.451 7.29 485.451 8.064C485.451 9 484.803 9.576 483.741 10.224C483.057 9.432 482.535 8.784 482.535 8.064C482.535 7.29 483.057 6.642 483.993 6.642ZM483.669 16.488C482.211 16.488 481.455 15.624 481.455 14.652C481.455 13.68 481.995 12.87 483.075 12.15L485.901 15.606C485.307 16.146 484.569 16.488 483.669 16.488ZM498.762 6.678V5.13C498.384 5.058 497.97 5.004 497.502 5.004C495.99 5.004 495.162 5.688 495.162 7.632V8.802H493.848V10.35H495.162V18H497.07V10.35H498.762V8.802H497.07V7.794C497.07 6.75 497.538 6.624 498.762 6.678ZM506.062 8.802V14.4C506.062 15.768 505.126 16.65 503.668 16.65C502.372 16.65 501.85 15.858 501.85 14.616V8.802H499.942V15.156C499.942 17.262 501.292 18.252 503.002 18.252C504.586 18.252 505.54 17.532 506.026 16.812H506.062V18H507.952V8.802H506.062ZM514.127 8.586C512.921 8.586 512.165 9.378 511.679 10.53H511.643V8.802H509.753V18H511.643V13.302C511.643 11.34 513.101 10.116 514.919 10.422H514.955V8.64C514.685 8.604 514.451 8.586 514.127 8.586ZM517.231 7.254C517.789 7.254 518.311 6.894 518.311 6.246C518.311 5.598 517.789 5.256 517.231 5.256C516.709 5.256 516.169 5.598 516.169 6.246C516.169 6.894 516.709 7.254 517.231 7.254ZM516.295 8.802V18H518.185V8.802H516.295ZM524.246 18.27C521.366 18.27 519.62 16.272 519.62 13.41C519.62 10.548 521.366 8.55 524.246 8.55C527.126 8.55 528.872 10.548 528.872 13.41C528.872 16.272 527.126 18.27 524.246 18.27ZM524.246 16.722C526.046 16.722 526.982 15.3 526.982 13.41C526.982 11.502 526.046 10.098 524.246 10.098C522.446 10.098 521.51 11.502 521.51 13.41C521.51 15.3 522.446 16.722 524.246 16.722ZM536.226 8.802V14.4C536.226 15.768 535.29 16.65 533.832 16.65C532.536 16.65 532.014 15.858 532.014 14.616V8.802H530.106V15.156C530.106 17.262 531.456 18.252 533.166 18.252C534.75 18.252 535.704 17.532 536.19 16.812H536.226V18H538.116V8.802H536.226ZM543.895 12.438C542.563 12.132 541.537 12.06 541.537 11.124C541.537 10.476 542.149 10.044 543.283 10.044C544.759 10.044 545.119 10.782 545.245 11.502H547.081C546.955 9.9 545.767 8.55 543.265 8.55C540.961 8.55 539.629 9.756 539.629 11.268C539.629 13.356 541.609 13.644 543.067 13.986C544.417 14.31 545.515 14.4 545.515 15.552C545.515 16.128 544.957 16.776 543.643 16.776C541.699 16.776 541.267 15.93 541.177 14.94H539.341C539.431 16.884 540.709 18.27 543.679 18.27C545.911 18.27 547.423 17.172 547.423 15.408C547.423 13.212 545.587 12.834 543.895 12.438Z" fill="#E9EEF1"/>
<g clip-path="url(#clip0_6878_109051)">
<path d="M499.915 310.555C481.132 321.48 459.958 330.216 437.369 336.786L437.286 336.822L437.202 336.833C346.594 363.112 233.04 354.364 157.207 310.555C110.172 283.383 86.369 247.762 85.8099 212.081L85.7861 211.974V283.836C85.7861 283.848 85.7861 283.848 85.7861 283.86V284.562L85.8099 284.681C86.369 320.362 110.172 355.983 157.207 383.154C233.04 426.964 346.594 435.712 437.202 409.433L437.286 409.421L437.369 409.385C459.958 402.816 481.12 394.08 499.915 383.154C545.808 356.471 569.206 321.647 570.182 286.597L570.229 286.406V213.807L570.182 213.997C569.194 249.036 545.796 283.871 499.915 310.555Z" stroke="#FF8A00" stroke-width="3" stroke-miterlimit="10"/>
<path d="M85.7861 278.159C85.7861 278.17 85.7861 278.17 85.7861 278.182V278.885L85.8099 279.004C86.369 314.685 110.172 350.306 157.207 377.477C233.04 421.287 346.594 430.035 437.202 403.756L437.286 403.744L437.369 403.708C459.958 397.139 481.12 388.403 499.915 377.477C545.808 350.794 569.206 315.97 570.182 280.92L570.229 280.729" stroke="#FF8A00" stroke-miterlimit="10"/>
<path d="M85.7861 266.257C85.7861 266.269 85.7861 266.269 85.7861 266.281V266.983L85.8099 267.102C86.369 302.783 110.172 338.405 157.207 365.576C233.04 409.386 346.594 418.133 437.202 391.855L437.286 391.843L437.369 391.807C459.958 385.237 481.12 376.502 499.915 365.576C545.808 338.893 569.206 304.069 570.182 269.018L570.229 268.828" stroke="#FF8A00" stroke-miterlimit="10"/>
<path d="M85.7861 254.356C85.7861 254.368 85.7861 254.368 85.7861 254.38V255.082L85.8099 255.201C86.369 290.882 110.172 326.503 157.207 353.674C233.04 397.484 346.594 406.232 437.202 379.953L437.286 379.941L437.369 379.905C459.958 373.336 481.12 364.6 499.915 353.674C545.808 326.991 569.206 292.167 570.182 257.117L570.229 256.926" stroke="#FF8A00" stroke-miterlimit="10"/>
<path d="M85.7861 242.454C85.7861 242.466 85.7861 242.466 85.7861 242.478V243.18L85.8099 243.299C86.369 278.98 110.172 314.601 157.207 341.773C233.04 385.583 346.594 394.33 437.202 368.051L437.286 368.04L437.369 368.004C459.958 361.434 481.12 352.698 499.915 341.773C545.808 315.089 569.206 280.265 570.182 245.215L570.229 245.025" stroke="#FF8A00" stroke-miterlimit="10"/>
<path d="M85.7861 230.552C85.7861 230.564 85.7861 230.564 85.7861 230.576V231.278L85.8099 231.398C86.369 267.078 110.172 302.7 157.207 329.871C233.04 373.681 346.594 382.429 437.202 356.15L437.286 356.138L437.369 356.102C459.958 349.533 481.12 340.797 499.915 329.871C545.808 303.188 569.206 268.364 570.182 233.314L570.229 233.123" stroke="#FF8A00" stroke-miterlimit="10"/>
<path d="M85.7861 218.651C85.7861 218.663 85.7861 218.663 85.7861 218.675V219.377L85.8099 219.496C86.369 255.177 110.172 290.798 157.207 317.969C233.04 361.779 346.594 370.527 437.202 344.248L437.286 344.236L437.369 344.201C459.958 337.631 481.12 328.895 499.915 317.969C545.808 291.286 569.206 256.462 570.182 221.412L570.229 221.221" stroke="#FF8A00" stroke-miterlimit="10"/>
<path d="M85.7861 224.602C85.7861 224.614 85.7861 224.614 85.7861 224.626V225.328L85.8099 225.447C86.369 261.128 110.172 296.749 157.207 323.92C233.04 367.73 346.594 376.478 437.202 350.199L437.286 350.187L437.369 350.152C459.958 343.582 481.12 334.846 499.915 323.92C545.808 297.237 569.206 262.413 570.182 227.363L570.229 227.173" stroke="#FF8A00" stroke-miterlimit="10"/>
<path d="M85.7861 236.503C85.7861 236.515 85.7861 236.515 85.7861 236.527V237.229L85.8099 237.348C86.369 273.029 110.172 308.651 157.207 335.822C233.04 379.632 346.594 388.379 437.202 362.101L437.286 362.089L437.369 362.053C459.958 355.483 481.12 346.748 499.915 335.822C545.808 309.139 569.206 274.315 570.182 239.264L570.229 239.074" stroke="#FF8A00" stroke-miterlimit="10"/>
<path d="M85.7861 248.405C85.7861 248.417 85.7861 248.417 85.7861 248.428V249.131L85.8099 249.25C86.369 284.931 110.172 320.552 157.207 347.723C233.04 391.533 346.594 400.281 437.202 374.002L437.286 373.99L437.369 373.954C459.958 367.385 481.12 358.649 499.915 347.723C545.808 321.04 569.206 286.216 570.182 251.166L570.229 250.975" stroke="#FF8A00" stroke-miterlimit="10"/>
<path d="M85.7861 260.307C85.7861 260.318 85.7861 260.318 85.7861 260.33V261.033L85.8099 261.152C86.369 296.832 110.172 332.454 157.207 359.625C233.04 403.435 346.594 412.183 437.202 385.904L437.286 385.892L437.369 385.856C459.958 379.287 481.12 370.551 499.915 359.625C545.808 332.942 569.206 298.118 570.182 263.068L570.229 262.877" stroke="#FF8A00" stroke-miterlimit="10"/>
<path d="M85.7861 272.208C85.7861 272.22 85.7861 272.22 85.7861 272.232V272.934L85.8099 273.053C86.369 308.734 110.172 344.355 157.207 371.527C233.04 415.336 346.594 424.084 437.202 397.805L437.286 397.793L437.369 397.758C459.958 391.188 481.12 382.452 499.915 371.527C545.808 344.843 569.206 310.019 570.182 274.969L570.229 274.779" stroke="#FF8A00" stroke-miterlimit="10"/>
<path d="M456.569 168.843L455.819 169.164C471.89 181.947 480.431 197.002 480.526 212.7H481.454C481.359 196.883 472.758 181.721 456.569 168.843Z" fill="#FF8A00"/>
<path d="M204.848 258.914L205.633 258.628C190.038 244.501 182.401 226.22 185.232 209.725L184.304 209.665C181.473 226.28 189.146 244.692 204.848 258.914Z" fill="#FF8A00"/>
<path d="M430.255 273.886C442.567 266.829 452.071 258.557 458.471 249.31L457.603 249.107C451.239 258.283 441.817 266.483 429.589 273.505C420.941 278.468 411.163 282.646 400.54 285.931L400.98 286.407C411.698 283.098 421.547 278.885 430.255 273.886Z" fill="#FF8A00"/>
<path d="M365.032 298.844L364.83 298.308C347.795 300.522 330.38 300.676 313.072 298.784C300.82 297.439 289.044 295.095 278.064 291.822L277.636 292.298C288.699 295.606 300.57 297.963 312.906 299.308C330.333 301.224 347.879 301.069 365.032 298.844Z" fill="#FF8A00"/>
<path d="M324.517 134.424L324.552 134.971C353.339 134.602 382.614 139.208 402.872 147.313L403.396 146.861C382.983 138.696 353.506 134.055 324.517 134.424Z" fill="#FF8A00"/>
<path d="M495.276 115.429C402.944 62.0977 253.203 62.0977 161.465 115.429C69.7393 168.76 70.227 255.546 162.56 308.877C254.892 362.208 404.633 362.22 496.371 308.877C588.097 255.546 587.609 168.76 495.276 115.429ZM495.704 308.508C404.335 361.637 255.178 361.625 163.214 308.508C71.2501 255.379 70.7624 168.95 162.132 115.821C253.501 62.6928 402.658 62.6928 494.622 115.81C586.586 168.938 587.074 255.379 495.704 308.508Z" fill="#FF8A00"/>
<path d="M498.797 112.251C404.002 57.4917 250.277 57.4917 156.1 112.251C61.924 167.01 62.4236 256.105 157.219 310.864C252.014 365.624 405.751 365.624 499.915 310.864C594.092 256.093 593.592 166.998 498.797 112.251ZM497.382 309.389C404.597 363.339 253.12 363.339 159.717 309.389C66.3253 255.439 65.8257 167.653 158.61 113.703C251.395 59.753 402.872 59.753 496.263 113.703C589.667 167.665 590.166 255.439 497.382 309.389Z" fill="#FF8A00"/>
<path d="M408.486 141.315L408.986 140.863C381.519 130.449 355.302 126.176 324.017 127.033L324.064 127.568C355.159 126.723 381.186 130.96 408.486 141.315Z" fill="#FF8A00"/>
<path d="M324.327 131.841L324.363 132.388C353.043 132.019 384.007 137.042 405.145 145.492L405.668 145.04C384.376 136.53 353.197 131.472 324.327 131.841Z" fill="#FF8A00"/>
<path d="M263.196 145.611L262.744 145.147C237.371 153.24 217.279 166.189 206.181 181.601L207.049 181.816C218.064 166.51 238.001 153.656 263.196 145.611Z" fill="#FF8A00"/>
<path d="M465.455 139.898C461.208 137.446 456.736 135.054 452.049 132.721C448.171 130.793 443.46 129.722 438.559 129.579C434.134 128.722 429.519 128.58 425.284 129.246C425.629 129.377 425.974 129.52 426.319 129.651C429.209 129.27 432.255 129.27 435.288 129.627C434.099 129.698 432.897 129.817 431.707 129.996C430.661 130.151 429.626 130.353 428.638 130.591C428.948 130.722 429.233 130.841 429.543 130.972C430.328 130.793 431.125 130.65 431.945 130.531C434.11 130.21 436.287 130.067 438.428 130.127C441.164 130.674 443.829 131.495 446.279 132.602C453.417 135.816 459.876 139.113 465.729 142.493C528.763 178.911 520.591 223.792 513.465 242.537C512.145 245.977 508.279 248.619 502.581 249.964C498.37 250.964 493.54 251.19 488.734 250.69C488.615 250.856 488.497 251.023 488.378 251.202C493.421 251.749 498.501 251.523 502.938 250.476C508.945 249.059 513.001 246.286 514.381 242.656C521.542 223.828 529.762 178.721 466.395 142.124C460.518 138.732 454.012 135.399 446.839 132.174C445.268 131.472 443.603 130.865 441.89 130.377C445.363 130.805 448.635 131.734 451.454 133.138C456.129 135.459 460.59 137.851 464.825 140.291C482.477 150.49 496.193 161.69 505.709 173.687C522.874 195.347 525.622 218.96 513.858 243.882C511.835 248.167 506.375 251.642 499.262 253.201C495.015 254.129 490.614 254.26 486.569 253.641C487.188 252.832 487.795 252.035 488.734 250.714C514.381 214.33 501.593 170.854 450.502 141.338C443.888 137.518 436.882 134.066 429.543 130.996C429.233 130.865 428.948 130.746 428.638 130.615C427.877 130.293 427.104 129.984 426.331 129.675C425.986 129.532 425.641 129.401 425.296 129.27C391.965 116.166 352.496 110.501 313.907 112.286C313.502 112.31 313.098 112.322 312.515 112.358C273.379 114.345 235.23 124.009 205.432 141.338C175.717 158.619 159.182 180.685 155.804 203.31C155.578 203.179 155.352 203.036 155.138 202.893C150.249 199.727 148.345 195.669 149.939 191.765C157.267 173.806 169.84 158.155 187.327 145.242C212.747 126.461 247.78 114.262 291.424 108.99C298.764 108.097 306.615 109.359 312.705 112.346C313.11 112.322 313.514 112.31 313.562 112.084C313.169 111.858 312.753 111.632 312.336 111.406C305.152 107.645 296.004 105.871 288.438 106.776C189.504 118.677 156.339 165.51 145.383 192.36C143.718 196.442 145.693 200.679 150.796 203.976C151.129 204.19 151.462 204.393 151.807 204.595C152.925 205.238 154.127 205.821 155.411 206.333C153.246 228.719 163.928 251.463 187.422 270.506C186.673 271.506 186.078 272.541 185.673 273.624C183.996 277.968 185.673 282.11 190.253 284.99C191.978 286.073 193.905 287.251 196.07 288.501C224.417 304.878 289.723 332.823 384.875 315.649C389.241 314.863 393.095 313.387 396.045 311.459C396.675 311.043 397.258 310.614 397.805 310.15C399.09 309.067 400.137 307.889 400.863 306.627C401.481 305.544 401.862 304.461 401.993 303.378C403.765 302.902 405.526 302.402 407.274 301.89C407.167 302.176 407.036 302.474 406.894 302.771C405.419 305.735 402.183 308.329 397.794 310.162C397.246 310.614 396.663 311.055 396.033 311.471C401.755 309.555 406.013 306.496 407.798 302.926C408.024 302.474 408.202 302.033 408.333 301.581C423.821 296.951 438.333 290.87 451.288 283.348C466.264 274.648 477.886 264.722 486.558 253.629C486.427 253.796 486.308 253.963 486.177 254.117C490.447 254.796 495.099 254.665 499.583 253.689C506.982 252.082 512.656 248.464 514.75 244.013C526.574 218.972 523.814 195.228 506.542 173.449C496.978 161.38 483.191 150.133 465.455 139.898ZM155.673 203.988C155.59 204.559 155.53 205.131 155.459 205.702C154.4 205.261 153.389 204.762 152.449 204.214C152.116 204.024 151.795 203.821 151.474 203.619C146.585 200.453 144.682 196.395 146.276 192.491C157.184 165.76 190.182 119.142 288.581 107.276C293.887 106.645 300.025 107.383 305.651 109.251C301.048 108.157 296.004 107.847 291.186 108.43C247.304 113.726 212.105 125.985 186.542 144.873C168.972 157.846 156.351 173.579 148.988 191.61C147.322 195.693 149.297 199.93 154.4 203.226C154.733 203.441 155.078 203.643 155.673 203.988ZM425.034 131.65C420.3 133.364 416.565 136.018 414.519 139.243C407.691 150.074 397.889 165.677 389.443 179.34C388.86 178.971 388.265 178.602 387.659 178.245L413.341 136.328C414.971 133.685 418.04 131.662 422.12 130.496C422.941 130.817 423.749 131.138 425.034 131.65ZM408.25 224.792L409.951 225.447L471.07 249C463.492 260.08 452.251 269.994 437.643 278.48C427.877 284.157 416.874 289.013 404.943 292.917C404.812 292.821 404.693 292.714 404.55 292.619L362.119 259.545C371.088 257.117 379.486 253.749 386.873 249.452C398.662 242.597 406.358 234.254 409.951 225.458L408.25 224.792ZM384.352 247.988C351.651 267.007 298.252 267.007 265.337 247.988C232.411 228.969 232.244 198.025 264.945 179.007C297.657 159.988 351.044 159.988 383.959 179.007C416.886 198.037 417.064 228.969 384.352 247.988ZM261.543 248.702C253.359 250.821 244.294 253.142 235.492 255.391C223.905 258.343 212.962 261.151 204.492 263.389C198.889 264.876 194.44 267.4 191.764 270.47C191.229 270.054 190.693 269.625 189.849 268.935C192.894 265.948 197.497 263.555 202.922 262.282C211.439 260.282 221.562 257.807 231.328 255.403C241.511 252.903 252.026 250.333 260.817 248.274C261.281 248.167 261.721 248.06 262.173 247.952C261.721 248.06 261.281 248.155 260.817 248.274C261.067 248.405 261.305 248.559 261.543 248.702ZM204.885 263.877C213.342 261.639 224.286 258.842 235.86 255.879C244.782 253.606 253.965 251.261 262.233 249.107C262.423 249.226 262.625 249.333 262.816 249.452C287.665 263.805 323.697 267.769 354.637 261.33L397.568 295.975C399.53 297.57 400.684 299.415 401.005 301.343C401.053 301.331 401.1 301.319 401.16 301.307C401.112 301.319 401.065 301.331 401.005 301.343C338.197 318.422 260.77 311.935 208.715 281.86C202.969 278.539 197.712 275.029 192.394 270.934C194.952 267.876 199.329 265.353 204.885 263.877ZM159.123 204.952C161.906 182.268 178.167 160.071 207.93 142.766C237.835 125.378 276.329 115.869 315.643 114.25C316.25 114.702 316.809 115.167 317.309 115.643C319.545 117.809 320.532 120.237 320.08 122.653L312.979 162.987L313.907 163.047L314.216 161.309L314.549 161.333L321.603 122.986C322.043 120.546 320.794 117.892 318.13 115.405C317.701 115 317.237 114.607 316.738 114.214C316.75 114.214 316.75 114.214 316.762 114.214C352.936 112.858 389.764 118.178 421.216 130.163C417.147 131.412 414.102 133.483 412.437 136.161L386.909 177.816L386.112 179.126L386.992 179.304L386.1 179.126L386.897 177.816C386.755 177.733 386.6 177.638 386.445 177.555C352.127 157.738 296.48 157.738 262.375 177.555C249.409 185.1 241.404 194.443 238.347 204.202C227.2 205.035 215.686 205.595 204.528 206.13C194.821 206.594 185.638 207.047 177.287 207.63C170.792 208.106 164.297 207.118 159.123 204.952C159.099 205.154 159.075 205.357 159.051 205.559C159.075 205.369 159.099 205.166 159.123 204.952ZM239.179 204.869L239.144 204.702L239.06 204.345L239.167 204.69L239.108 204.488L239.179 204.869ZM159.051 205.583C163.821 207.487 169.614 208.439 175.538 208.273C174.92 208.32 174.301 208.356 173.707 208.403C168.544 208.772 163.405 208.225 158.92 206.916C158.956 206.475 159.004 206.023 159.051 205.583ZM158.885 207.511C163.441 208.784 168.627 209.308 173.837 208.939C182.093 208.356 191.692 207.808 201.839 207.237C214.02 206.535 226.618 205.833 238.156 204.964C238.501 204.94 238.846 204.916 239.191 204.893C238.846 204.916 238.501 204.94 238.156 204.976C233.862 219.984 241.201 235.92 260.151 247.857C251.408 249.904 241.047 252.451 230.983 254.915C221.205 257.319 211.106 259.794 202.589 261.794C201.934 261.949 201.292 262.115 200.662 262.306C195.999 263.663 192.049 265.84 189.278 268.471C167.545 250.44 157.398 229.136 158.885 207.511ZM384.566 315.137C289.902 332.216 224.928 304.425 196.712 288.12C194.571 286.883 192.632 285.704 190.907 284.621C186.542 281.872 184.96 277.909 186.566 273.731C186.922 272.803 187.422 271.887 188.041 271.018C188.742 271.577 189.468 272.148 190.194 272.696C189.861 273.303 189.599 273.934 189.397 274.576C188.064 278.932 190.241 283.134 195.392 286.097C227.438 304.604 295.528 332.656 391.608 312.626C392.203 312.495 392.797 312.364 393.368 312.221C390.87 313.542 387.873 314.542 384.566 315.137ZM400.993 303.64C400.839 304.58 400.482 305.52 399.947 306.449C398.959 308.151 397.401 309.71 395.414 311.031C394.118 311.459 392.738 311.828 391.299 312.126C295.695 332.061 227.938 304.128 196.046 285.716C191.133 282.884 189.04 278.849 190.313 274.671C190.467 274.184 190.658 273.696 190.895 273.231C195.547 276.742 200.65 280.122 206.205 283.324C258.926 313.78 337.138 320.54 401.969 303.366C401.648 303.461 401.315 303.545 400.993 303.64ZM407.714 299.415C406.001 299.939 404.277 300.438 401.909 301.093C401.529 299.141 400.327 297.284 398.341 295.654L355.565 261.127C357.492 260.711 359.395 260.259 361.286 259.759L403.848 292.928C406.37 294.845 407.691 297.07 407.714 299.415ZM482.799 253.38C474.686 263.71 463.338 273.374 448.73 281.872C436.846 288.775 423.607 294.44 408.63 299.129C408.523 297.07 407.465 295.118 405.478 293.381C417.445 289.453 428.496 284.574 438.298 278.873C452.953 270.363 464.242 260.425 471.855 249.321L480.396 252.606C481.181 252.892 481.978 253.153 482.799 253.38ZM484.833 250.678C484.381 251.309 483.893 251.951 483.179 252.892C482.406 252.677 481.645 252.427 480.919 252.154L410.189 224.899C410.379 224.423 410.545 223.935 410.712 223.459C409.855 223.138 409.023 222.816 408.226 222.519C409.011 222.816 409.844 223.138 410.7 223.459C429.281 230.529 463.278 243.394 476.898 248.524C479.408 249.464 482.097 250.178 484.833 250.678ZM485.178 250.178C482.489 249.702 479.872 248.988 477.41 248.071C463.718 242.906 429.388 229.922 410.89 222.876C415.613 207.892 408.69 191.884 390.145 179.804C389.942 180.125 389.74 180.459 389.538 180.78C389.74 180.459 389.942 180.137 390.145 179.804C398.626 166.081 408.511 150.336 415.387 139.446C417.397 136.256 421.132 133.638 425.855 131.995C433.611 135.173 440.998 138.755 447.945 142.766C497.918 171.616 510.456 214.081 485.178 250.178Z" fill="#FF8A00"/>
<path d="M178.606 210.606L177.667 210.582C176.037 229.315 183.983 247.179 200.649 262.282L201.434 261.997C184.863 246.989 176.977 229.22 178.606 210.606Z" fill="#FF8A00"/>
<path d="M207.727 257.807L208.512 257.522C193.511 243.942 186.541 226.673 189.384 210.13L188.444 210.082C185.589 226.732 192.607 244.132 207.727 257.807Z" fill="#FF8A00"/>
<path d="M433.337 274.969C424.498 280.039 414.506 284.312 403.634 287.668L404.074 288.156C415.03 284.764 425.081 280.468 433.991 275.362C446.576 268.138 456.283 259.688 462.838 250.25L461.969 250.047C455.462 259.414 445.827 267.805 433.337 274.969Z" fill="#FF8A00"/>
<path d="M498.797 112.846C404.002 58.0987 250.265 58.0987 156.089 112.858C61.9123 167.617 62.4119 256.712 157.207 311.471C252.002 366.231 405.739 366.231 499.904 311.471C594.092 256.7 593.581 167.605 498.797 112.846Z" stroke="#FF8A00" stroke-width="3" stroke-miterlimit="10"/>
</g>
<path d="M73.0029 84.0003L179.828 84.0002L261.003 165" stroke="#FF8A00"/>
<circle cx="261.003" cy="165" r="4" fill="#FF8A00"/>
<path d="M548.003 32.0003L441.178 32.0002L360.003 113" stroke="#FF8A00"/>
<circle cx="4" cy="4" r="4" transform="matrix(-1 -8.74228e-08 -8.74228e-08 1 364.003 109)" fill="#FF8A00"/>
<path d="M548.003 468L402.178 468L321.003 387" stroke="#FF8A00"/>
<circle cx="321.003" cy="387" r="4" transform="rotate(-180 321.003 387)" fill="#FF8A00"/>
<path d="M78.9789 62.3322C77.1789 61.8822 75.9729 61.6302 75.9729 60.2262C75.9729 59.2722 76.8909 58.6962 78.4209 58.6962C80.2029 58.6962 81.1389 59.4882 81.3369 60.9822H83.4789C83.2989 58.3362 81.2469 56.8602 78.4209 56.8602C75.6129 56.8602 73.8489 58.1382 73.8489 60.4242C73.8489 62.8722 76.0269 63.6462 78.0429 64.1502C80.5809 64.7802 81.6789 65.0682 81.6789 66.5982C81.6789 67.5882 80.9409 68.4342 79.0329 68.4342C76.7289 68.4342 75.6129 67.3542 75.5049 65.7162H73.3629C73.4889 68.6322 75.8829 70.2702 79.0329 70.2702C82.2729 70.2702 83.8209 68.5602 83.8209 66.5082C83.8209 63.6282 81.7329 63.0342 78.9789 62.3322ZM85.3296 57.1302V70.0002H87.2376V57.1302H85.3296ZM93.2129 70.2702C90.3329 70.2702 88.5869 68.2722 88.5869 65.4102C88.5869 62.5482 90.3329 60.5502 93.2129 60.5502C96.0929 60.5502 97.8389 62.5482 97.8389 65.4102C97.8389 68.2722 96.0929 70.2702 93.2129 70.2702ZM93.2129 68.7222C95.0129 68.7222 95.9489 67.3002 95.9489 65.4102C95.9489 63.5022 95.0129 62.0982 93.2129 62.0982C91.4129 62.0982 90.4769 63.5022 90.4769 65.4102C90.4769 67.3002 91.4129 68.7222 93.2129 68.7222ZM98.0526 60.8022L100.879 70.0002H102.769L104.731 62.9802H104.767L106.747 70.0002H108.655L111.463 60.8022H109.465L107.611 67.7862H107.575L105.685 60.8022H103.831L101.959 67.7862H101.923L100.051 60.8022H98.0526ZM111.813 64.5462V66.3102H116.655V64.5462H111.813ZM119.262 59.2542C119.82 59.2542 120.342 58.8942 120.342 58.2462C120.342 57.5982 119.82 57.2562 119.262 57.2562C118.74 57.2562 118.2 57.5982 118.2 58.2462C118.2 58.8942 118.74 59.2542 119.262 59.2542ZM118.326 60.8022V70.0002H120.216V60.8022H118.326ZM126.115 64.4382C124.783 64.1322 123.757 64.0602 123.757 63.1242C123.757 62.4762 124.369 62.0442 125.503 62.0442C126.979 62.0442 127.339 62.7822 127.465 63.5022H129.301C129.175 61.9002 127.987 60.5502 125.485 60.5502C123.181 60.5502 121.849 61.7562 121.849 63.2682C121.849 65.3562 123.829 65.6442 125.287 65.9862C126.637 66.3102 127.735 66.4002 127.735 67.5522C127.735 68.1282 127.177 68.7762 125.863 68.7762C123.919 68.7762 123.487 67.9302 123.397 66.9402H121.561C121.651 68.8842 122.929 70.2702 125.899 70.2702C128.131 70.2702 129.643 69.1722 129.643 67.4082C129.643 65.2122 127.807 64.8342 126.115 64.4382ZM135.823 60.5502C134.275 60.5502 133.321 61.2702 132.835 61.9902H132.799V57.1302H130.909V70.0002H132.799V64.4022C132.799 63.0342 133.789 62.1522 135.175 62.1522C136.489 62.1522 137.011 62.9442 137.011 64.1862V70.0002H138.919V63.6462C138.919 61.5402 137.569 60.5502 135.823 60.5502Z" fill="#E9EEF1"/>
<path d="M421.137 445.13V458H423.279V445.13H421.137ZM429.654 450.35V448.802H427.926V445.904H426.018V448.802H424.686V450.35H426.018V455.498C426.018 457.442 426.846 458.126 428.358 458.126C428.862 458.126 429.276 458.072 429.654 457.982V456.434C428.43 456.506 427.926 456.38 427.926 455.336V450.35H429.654ZM432.161 447.308C432.161 447.992 431.729 448.55 431.063 448.676V449.702C432.629 449.45 433.277 447.956 433.277 446.642C433.277 445.634 432.863 444.986 432.053 444.986C431.405 444.986 430.883 445.418 430.883 446.192C430.883 447.038 431.459 447.434 432.161 447.308ZM437.959 452.438C436.627 452.132 435.601 452.06 435.601 451.124C435.601 450.476 436.213 450.044 437.347 450.044C438.823 450.044 439.183 450.782 439.309 451.502H441.145C441.019 449.9 439.831 448.55 437.329 448.55C435.025 448.55 433.693 449.756 433.693 451.268C433.693 453.356 435.673 453.644 437.131 453.986C438.481 454.31 439.579 454.4 439.579 455.552C439.579 456.128 439.021 456.776 437.707 456.776C435.763 456.776 435.331 455.93 435.241 454.94H433.405C433.495 456.884 434.773 458.27 437.743 458.27C439.975 458.27 441.487 457.172 441.487 455.408C441.487 453.212 439.651 452.834 437.959 452.438ZM451.742 451.214C451.742 452.096 450.878 452.276 449.456 452.546C447.152 452.996 445.658 453.626 445.658 455.642C445.658 457.19 446.81 458.27 448.682 458.27C450.104 458.27 451.148 457.712 451.724 456.902H451.76C451.94 457.802 452.408 458.162 453.416 458.162C453.776 458.162 454.082 458.126 454.514 457.964V457.064C453.776 457.136 453.632 456.794 453.632 456.146V451.772C453.632 449.324 452.12 448.55 450.086 448.55C447.314 448.55 446.18 449.936 446.09 451.7H447.926C448.016 450.512 448.574 450.044 450.086 450.044C451.346 450.044 451.742 450.548 451.742 451.214ZM449.096 456.776C448.07 456.776 447.566 456.308 447.566 455.462C447.566 454.526 448.25 454.076 449.816 453.734C450.698 453.554 451.436 453.338 451.742 453.122V454.508C451.742 456.002 450.662 456.776 449.096 456.776ZM463.025 452.438C461.693 452.132 460.667 452.06 460.667 451.124C460.667 450.476 461.279 450.044 462.413 450.044C463.889 450.044 464.249 450.782 464.375 451.502H466.211C466.085 449.9 464.897 448.55 462.395 448.55C460.091 448.55 458.759 449.756 458.759 451.268C458.759 453.356 460.739 453.644 462.197 453.986C463.547 454.31 464.645 454.4 464.645 455.552C464.645 456.128 464.087 456.776 462.773 456.776C460.829 456.776 460.397 455.93 460.307 454.94H458.471C458.561 456.884 459.839 458.27 462.809 458.27C465.041 458.27 466.553 457.172 466.553 455.408C466.553 453.212 464.717 452.834 463.025 452.438ZM472.733 448.55C471.185 448.55 470.231 449.27 469.745 449.99H469.709V445.13H467.819V458H469.709V452.402C469.709 451.034 470.699 450.152 472.085 450.152C473.399 450.152 473.921 450.944 473.921 452.186V458H475.829V451.646C475.829 449.54 474.479 448.55 472.733 448.55ZM478.547 458.144C479.195 458.144 479.699 457.694 479.699 456.974C479.699 456.272 479.195 455.804 478.547 455.804C477.881 455.804 477.377 456.272 477.377 456.974C477.377 457.694 477.881 458.144 478.547 458.144ZM482.327 458.144C482.975 458.144 483.479 457.694 483.479 456.974C483.479 456.272 482.975 455.804 482.327 455.804C481.661 455.804 481.157 456.272 481.157 456.974C481.157 457.694 481.661 458.144 482.327 458.144ZM493.62 450.332C491.82 449.882 490.614 449.63 490.614 448.226C490.614 447.272 491.532 446.696 493.062 446.696C494.844 446.696 495.78 447.488 495.978 448.982H498.12C497.94 446.336 495.888 444.86 493.062 444.86C490.254 444.86 488.49 446.138 488.49 448.424C488.49 450.872 490.668 451.646 492.684 452.15C495.222 452.78 496.32 453.068 496.32 454.598C496.32 455.588 495.582 456.434 493.674 456.434C491.37 456.434 490.254 455.354 490.146 453.716H488.004C488.13 456.632 490.524 458.27 493.674 458.27C496.914 458.27 498.462 456.56 498.462 454.508C498.462 451.628 496.374 451.034 493.62 450.332ZM499.97 445.13V458H501.878V445.13H499.97ZM507.853 458.27C504.973 458.27 503.227 456.272 503.227 453.41C503.227 450.548 504.973 448.55 507.853 448.55C510.733 448.55 512.479 450.548 512.479 453.41C512.479 456.272 510.733 458.27 507.853 458.27ZM507.853 456.722C509.653 456.722 510.589 455.3 510.589 453.41C510.589 451.502 509.653 450.098 507.853 450.098C506.053 450.098 505.117 451.502 505.117 453.41C505.117 455.3 506.053 456.722 507.853 456.722ZM512.693 448.802L515.519 458H517.409L519.371 450.98H519.407L521.387 458H523.295L526.103 448.802H524.105L522.251 455.786H522.215L520.325 448.802H518.471L516.599 455.786H516.563L514.691 448.802H512.693Z" fill="#E9EEF1"/>
<path d="M537.58 281.643C516.424 303.139 485.987 320.987 449.333 333.388C412.68 345.79 371.104 352.308 328.791 352.286C286.478 352.264 244.922 345.703 208.306 333.264C171.689 320.825 141.306 302.947 120.213 281.429L329.002 211L537.58 281.643Z" fill="url(#paint0_linear_6878_109051)" fill-opacity="0.5"/>
<path d="M120.425 281.643C99.2852 260.164 88.1566 235.799 88.1574 210.997C88.1582 186.195 99.2885 161.831 120.429 140.352C141.57 118.874 171.977 101.038 208.592 88.6387C245.208 76.2391 286.743 69.7122 329.021 69.7142L329.002 211L120.425 281.643Z" fill="url(#paint1_linear_6878_109051)" fill-opacity="0.1"/>
<path d="M329.003 69.0002C371.278 69.0002 412.809 75.5524 449.428 87.999C486.046 100.446 516.464 118.349 537.628 139.911C558.792 161.474 569.957 185.938 570.003 210.846C570.049 235.755 558.973 260.233 537.889 281.823L329.003 211L329.003 69.0002Z" fill="url(#paint2_linear_6878_109051)" fill-opacity="0.3"/>
<defs>
<linearGradient id="paint0_linear_6878_109051" x1="458.001" y1="222" x2="309.359" y2="434.462" gradientUnits="userSpaceOnUse">
<stop stop-color="#FF8A00"/>
<stop offset="1" stop-color="#FF8A00" stop-opacity="0"/>
</linearGradient>
<linearGradient id="paint1_linear_6878_109051" x1="268.501" y1="250.5" x2="241.239" y2="70.302" gradientUnits="userSpaceOnUse">
<stop stop-color="#FF8A00"/>
<stop offset="1" stop-color="#FF8A00" stop-opacity="0"/>
</linearGradient>
<linearGradient id="paint2_linear_6878_109051" x1="305.001" y1="152.5" x2="612.501" y2="218" gradientUnits="userSpaceOnUse">
<stop stop-color="#FF8A00"/>
<stop offset="1" stop-color="#FF8A00" stop-opacity="0"/>
</linearGradient>
<clipPath id="clip0_6878_109051">
<rect width="488" height="356" fill="white" transform="translate(84.0029 70.0002)"/>
</clipPath>
</defs>
</svg>
