<svg width="1189" height="651" viewBox="0 0 1189 651" fill="none" xmlns="http://www.w3.org/2000/svg">
<path d="M1175.57 650.602H12.9877C5.83027 650.602 0 644.77 0 637.61V12.9925C0 5.83245 5.83027 0 12.9877 0H106.08V3.40415H12.9877C7.70185 3.40415 3.40288 7.70473 3.40288 12.9925V637.598C3.40288 642.886 7.70185 647.187 12.9877 647.187H1175.57C1180.86 647.187 1185.15 642.886 1185.15 637.598V12.9925C1185.15 7.70473 1180.86 3.40415 1175.57 3.40415H1081.36V0H1175.57C1182.73 0 1188.56 5.83245 1188.56 12.9925V637.598C1188.56 644.77 1182.74 650.602 1175.57 650.602Z" fill="#E9EEF1"/>
<path d="M752.208 0H435.773V3.40415H752.208V0Z" fill="#E9EEF1"/>
<path d="M97.5389 426.098C87.5231 426.098 79.3789 417.951 79.3789 407.931C79.3789 397.912 87.5231 389.765 97.5389 389.765C107.555 389.765 115.699 397.923 115.699 407.931C115.699 417.94 107.555 426.098 97.5389 426.098ZM97.5389 390.661C88.0222 390.661 80.275 398.411 80.275 407.931C80.275 417.452 88.0222 425.202 97.5389 425.202C107.056 425.202 114.803 417.452 114.803 407.931C114.803 398.411 107.067 390.661 97.5389 390.661Z" fill="#E9EEF1"/>
<path d="M97.5394 421.956C89.8035 421.956 83.5195 415.67 83.5195 407.931C83.5195 400.193 89.8035 393.906 97.5394 393.906C105.275 393.906 111.559 400.193 111.559 407.931C111.559 415.67 105.275 421.956 97.5394 421.956ZM97.5394 394.803C90.3026 394.803 84.4156 400.692 84.4156 407.931C84.4156 415.171 90.3026 421.06 97.5394 421.06C104.776 421.06 110.663 415.171 110.663 407.931C110.663 400.692 104.776 394.803 97.5394 394.803Z" fill="#E9EEF1"/>
<path d="M77.406 473.711C66.8797 458.903 65.4619 437.071 73.901 419.369C75.5004 416.01 77.406 412.879 79.5838 410.053L80.2871 410.598C78.1546 413.378 76.2717 416.453 74.7063 419.755C66.4033 437.173 67.7758 458.653 78.1319 473.2L77.406 473.711Z" fill="#E9EEF1"/>
<path d="M125.626 410.677C124.492 410.677 123.358 410.269 122.325 409.463C122.121 409.338 121.917 409.225 121.713 409.111C119.626 407.92 117.414 407.046 115.157 406.502L115.361 405.639C117.709 406.206 120 407.114 122.155 408.34C122.337 408.442 122.507 408.544 122.688 408.657L122.7 408.646L123.573 409.213L123.562 409.236C124.912 410.008 126.114 409.86 126.942 409.565C128.451 409.021 129.721 407.557 130.027 406.002C130.413 404.028 130.345 401.963 127.645 400.045L125.706 398.91L125.728 398.876C120.488 395.949 114.703 394.53 108.839 394.746L108.805 393.849C115.179 393.622 121.452 395.256 127.067 398.615C127.396 398.797 127.691 398.978 127.963 399.171C128.065 399.239 128.156 399.296 128.258 399.364L128.246 399.375C131.275 401.565 131.32 404.005 130.889 406.172C130.515 408.045 129.052 409.747 127.226 410.394C126.715 410.586 126.171 410.677 125.626 410.677Z" fill="#E9EEF1"/>
<path d="M80.6378 475.481C79.0158 475.481 77.2236 474.358 75.3066 470.455L76.112 470.057C78.9137 475.776 81.1823 474.687 82.4073 474.108C83.5189 473.575 84.5171 472.134 84.9028 470.511C85.141 469.535 85.3224 467.731 84.2562 465.859C76.4182 454.523 75.4428 437.922 81.8175 424.533C82.5775 422.933 83.4395 421.389 84.3696 419.948L85.1183 420.436C84.1995 421.855 83.3601 423.364 82.6228 424.918C76.5317 437.695 77.2803 453.445 84.415 464.497C85.8102 466.313 86.2866 468.514 85.7648 470.716C85.3111 472.611 84.1428 474.256 82.7816 474.903C82.1237 475.243 81.3978 475.481 80.6378 475.481Z" fill="#E9EEF1"/>
<path d="M181.023 471.907C157.452 471.907 138.271 452.719 138.271 429.128C138.271 405.537 157.452 386.349 181.023 386.349C204.594 386.349 223.774 405.537 223.774 429.128C223.774 452.719 204.605 471.907 181.023 471.907ZM181.023 387.257C157.94 387.257 139.168 406.048 139.168 429.139C139.168 452.231 157.94 471.022 181.023 471.022C204.106 471.022 222.878 452.231 222.878 429.139C222.878 406.048 204.106 387.257 181.023 387.257Z" fill="#E9EEF1"/>
<path d="M179.355 453.899C165.12 453.899 153.527 442.302 153.527 428.061C153.527 413.809 165.108 402.224 179.355 402.224C193.591 402.224 205.183 413.82 205.183 428.061C205.183 442.302 193.591 453.899 179.355 453.899ZM179.355 403.097C165.608 403.097 154.423 414.286 154.423 428.05C154.423 441.814 165.608 453.002 179.355 453.002C193.103 453.002 204.287 441.814 204.287 428.05C204.287 414.286 193.103 403.097 179.355 403.097Z" fill="#E9EEF1"/>
<path d="M179.299 448.883C167.934 448.883 158.678 439.624 158.678 428.254C158.678 416.884 167.934 407.625 179.299 407.625C190.676 407.625 199.921 416.884 199.921 428.254C199.921 439.624 190.665 448.883 179.299 448.883ZM179.299 408.51C168.421 408.51 159.562 417.372 159.562 428.254C159.562 439.136 168.41 447.998 179.299 447.998C190.177 447.998 199.036 439.136 199.036 428.254C199.036 417.372 190.177 408.51 179.299 408.51Z" fill="#E9EEF1"/>
<path d="M360.252 422.467C353.423 422.467 347.865 416.907 347.865 410.076C347.865 403.245 353.423 397.685 360.252 397.685C367.08 397.685 372.638 403.245 372.638 410.076C372.638 416.907 367.08 422.467 360.252 422.467ZM360.252 398.559C353.911 398.559 348.75 403.722 348.75 410.065C348.75 416.408 353.911 421.571 360.252 421.571C366.592 421.571 371.753 416.408 371.753 410.065C371.753 403.722 366.592 398.559 360.252 398.559Z" fill="#E9EEF1"/>
<path d="M360.898 427.857C354.626 427.857 348.909 424.566 346.334 419.483L349.374 417.94C351.37 421.9 355.896 424.453 360.91 424.453C366.672 424.453 370.982 421.06 372.139 415.591L375.463 416.294C373.965 423.318 368.249 427.857 360.898 427.857Z" fill="#E9EEF1"/>
<path d="M1087.09 425.701C1077.08 425.701 1068.93 417.554 1068.93 407.534C1068.93 397.514 1077.08 389.367 1087.09 389.367C1097.11 389.367 1105.25 397.514 1105.25 407.534C1105.25 417.554 1097.11 425.701 1087.09 425.701ZM1087.09 390.264C1077.58 390.264 1069.83 398.014 1069.83 407.534C1069.83 417.054 1077.58 424.804 1087.09 424.804C1096.61 424.804 1104.36 417.054 1104.36 407.534C1104.37 398.014 1096.62 390.264 1087.09 390.264Z" fill="#E9EEF1"/>
<path d="M1087.09 421.559C1079.36 421.559 1073.07 415.273 1073.07 407.534C1073.07 399.795 1079.36 393.509 1087.09 393.509C1094.83 393.509 1101.11 399.795 1101.11 407.534C1101.11 415.273 1094.83 421.559 1087.09 421.559ZM1087.09 394.394C1079.86 394.394 1073.97 400.283 1073.97 407.523C1073.97 414.762 1079.86 420.651 1087.09 420.651C1094.33 420.651 1100.22 414.762 1100.22 407.523C1100.22 400.283 1094.34 394.394 1087.09 394.394Z" fill="#E9EEF1"/>
<path d="M1107.23 473.302L1106.5 472.78C1116.85 458.233 1118.23 436.753 1109.93 419.335C1108.36 416.033 1106.48 412.958 1104.35 410.177L1105.05 409.633C1107.23 412.458 1109.13 415.59 1110.73 418.949C1119.17 436.662 1117.77 458.494 1107.23 473.302Z" fill="#E9EEF1"/>
<path d="M1059.02 410.28C1058.48 410.28 1057.93 410.189 1057.4 409.996C1055.58 409.338 1054.11 407.647 1053.73 405.775C1053.3 403.608 1053.36 401.179 1056.38 398.978L1056.37 398.967C1056.47 398.899 1056.56 398.842 1056.66 398.774C1056.93 398.581 1057.24 398.399 1057.56 398.218C1063.17 394.859 1069.44 393.225 1075.82 393.452L1075.79 394.348C1069.92 394.133 1064.14 395.551 1058.9 398.479L1058.92 398.513L1056.98 399.647C1054.28 401.565 1054.21 403.63 1054.6 405.605C1054.9 407.159 1056.17 408.623 1057.68 409.168C1058.51 409.463 1059.71 409.599 1061.06 408.839L1061.05 408.816L1061.92 408.249L1061.94 408.26C1062.12 408.158 1062.29 408.044 1062.47 407.942C1064.62 406.705 1066.92 405.798 1069.26 405.242L1069.47 406.104C1067.2 406.649 1064.99 407.522 1062.91 408.714C1062.71 408.827 1062.5 408.952 1062.3 409.077C1061.29 409.86 1060.16 410.28 1059.02 410.28Z" fill="#E9EEF1"/>
<path d="M1103.99 475.084C1103.23 475.084 1102.52 474.834 1101.84 474.516C1100.48 473.87 1099.31 472.224 1098.86 470.329C1098.33 468.128 1098.81 465.915 1100.21 464.111C1107.34 453.059 1108.09 437.309 1102 424.532C1101.25 422.966 1100.41 421.457 1099.5 420.05L1100.25 419.562C1101.18 421.003 1102.04 422.546 1102.8 424.146C1109.18 437.536 1108.2 454.137 1100.37 465.473C1099.31 467.345 1099.49 469.149 1099.72 470.125C1100.1 471.748 1101.11 473.189 1102.21 473.722C1103.44 474.301 1105.71 475.39 1108.51 469.671L1109.31 470.068C1107.41 473.96 1105.62 475.084 1103.99 475.084Z" fill="#E9EEF1"/>
<path d="M1003.61 471.509C980.04 471.509 960.859 452.321 960.859 428.731C960.859 405.14 980.04 385.952 1003.61 385.952C1027.18 385.952 1046.36 405.14 1046.36 428.731C1046.36 452.321 1027.18 471.509 1003.61 471.509ZM1003.61 386.848C980.528 386.848 961.756 405.639 961.756 428.731C961.756 451.822 980.528 470.613 1003.61 470.613C1026.69 470.613 1045.47 451.822 1045.47 428.731C1045.47 405.639 1026.69 386.848 1003.61 386.848Z" fill="#E9EEF1"/>
<path d="M1005.29 453.49C991.053 453.49 979.461 441.893 979.461 427.652C979.461 413.4 991.042 401.815 1005.29 401.815C1019.52 401.815 1031.12 413.412 1031.12 427.652C1031.12 441.905 1019.52 453.49 1005.29 453.49ZM1005.29 402.7C991.541 402.7 980.357 413.888 980.357 427.652C980.357 441.417 991.541 452.605 1005.29 452.605C1019.04 452.605 1030.22 441.417 1030.22 427.652C1030.22 413.888 1019.04 402.7 1005.29 402.7Z" fill="#E9EEF1"/>
<path d="M1005.35 448.486C993.969 448.486 984.725 439.227 984.725 427.857C984.725 416.487 993.98 407.228 1005.35 407.228C1016.71 407.228 1025.97 416.487 1025.97 427.857C1025.97 439.227 1016.71 448.486 1005.35 448.486ZM1005.35 408.101C994.468 408.101 985.609 416.963 985.609 427.845C985.609 438.727 994.457 447.589 1005.35 447.589C1016.22 447.589 1025.08 438.727 1025.08 427.845C1025.08 416.963 1016.22 408.101 1005.35 408.101Z" fill="#E9EEF1"/>
<path d="M824.392 422.059C817.564 422.059 812.006 416.499 812.006 409.668C812.006 402.837 817.564 397.276 824.392 397.276C831.221 397.276 836.779 402.837 836.779 409.668C836.779 416.499 831.221 422.059 824.392 422.059ZM824.392 398.161C818.052 398.161 812.891 403.324 812.891 409.668C812.891 416.011 818.052 421.174 824.392 421.174C830.733 421.174 835.894 416.011 835.894 409.668C835.883 403.324 830.733 398.161 824.392 398.161Z" fill="#E9EEF1"/>
<path d="M823.746 427.46C816.396 427.46 810.679 422.921 809.193 415.897L812.517 415.194C813.674 420.663 817.984 424.056 823.746 424.056C828.749 424.056 833.274 421.503 835.282 417.543L838.322 419.086C835.736 424.169 830.019 427.46 823.746 427.46Z" fill="#E9EEF1"/>
<path d="M253.129 442.268C245.677 437.786 238.031 432.498 230.636 427.38C208.971 412.391 188.497 398.241 172.934 403.075C169.395 404.175 163.236 405.696 156.113 407.466C140.925 411.233 120.133 416.396 113.214 420.458C102.937 426.484 94.4413 427.165 87.9531 422.467C71.1996 410.325 69.4781 364.824 82.5878 281.8C94.8229 221.498 99.6296 198.338 108.695 163.774L109.568 163.967C109.069 166.259 49.115 393.214 88.4863 421.741C94.6568 426.212 102.824 425.519 112.771 419.687C119.804 415.568 139.824 410.598 155.909 406.604C163.021 404.833 169.169 403.313 172.685 402.224C188.667 397.265 209.311 411.54 231.158 426.654C238.542 431.76 246.176 437.037 253.594 441.508L253.129 442.268Z" fill="url(#paint0_linear_7536_97336)"/>
<path d="M450.598 422.456C436.181 419.017 420.086 414.036 405.896 409.645C383.493 402.712 364.165 396.72 356.905 398.161C349.51 399.625 340.866 409.372 331.917 420.084L331.236 419.517C340.288 408.669 349.045 398.808 356.735 397.288C364.21 395.812 383.652 401.826 406.168 408.794C420.346 413.185 436.419 418.155 450.814 421.593L450.598 422.456Z" fill="url(#paint1_linear_7536_97336)"/>
<path d="M660.33 422.013L659.91 421.23L662.496 419.846C667.51 417.179 673.181 414.15 677.957 410.836C684.343 406.388 692.158 402.496 700.552 399.557C719.075 393.089 817.656 391.206 829.192 397.095C836.44 400.794 846.921 408.022 857.946 416.93L857.391 417.622C846.411 408.748 835.986 401.554 828.784 397.889C817.327 392.034 719.279 393.963 700.847 400.397C692.521 403.302 684.785 407.16 678.467 411.562C673.658 414.91 667.952 417.951 662.916 420.629L660.33 422.013Z" fill="url(#paint2_linear_7536_97336)"/>
<path d="M936.451 449.825L936.043 449.03C948.656 442.563 962.177 431.159 971.297 422.739L974.257 420.004C976.049 418.348 977.785 416.736 979.452 415.216C980.326 414.41 982.311 413.06 983.91 411.971C984.477 411.585 984.976 411.244 985.328 410.983L985.85 411.71C985.487 411.959 984.988 412.311 984.421 412.697C982.935 413.718 980.893 415.114 980.065 415.863C978.386 417.395 976.651 418.994 974.87 420.651L971.909 423.386C962.744 431.851 949.155 443.311 936.451 449.825Z" fill="url(#paint3_linear_7536_97336)"/>
<path d="M1088.23 426.62C1086.11 426.62 1083.83 426.314 1081.38 425.689C1058.03 419.744 1039.78 415.579 1025.58 412.947L1025.74 412.073C1039.95 414.694 1058.23 418.87 1081.59 424.827C1088.34 426.552 1093.82 425.803 1097.88 422.626C1104.48 417.463 1105.41 407.591 1105.38 402.167C1105.31 391.228 1080.5 145.471 1080.25 142.986L1081.14 142.895C1081.39 145.38 1106.2 391.183 1106.26 402.155C1106.32 411.801 1103.54 419.312 1098.43 423.318C1095.64 425.519 1092.22 426.62 1088.23 426.62Z" fill="url(#paint4_linear_7536_97336)"/>
<path d="M935.55 405.32H857.84V405.921H935.55V405.32Z" fill="#E9EEF1"/>
<path d="M935.55 460.743H857.84V461.343H935.55V460.743Z" fill="#E9EEF1"/>
<path d="M858.295 405.617H857.398V461.206H858.295V405.617Z" fill="#E9EEF1"/>
<path d="M936.515 405.7H935.619V461.602H936.515V405.7Z" fill="#E9EEF1"/>
<path d="M855.199 426.047H854.303V459.123H855.199V426.047Z" fill="#E9EEF1"/>
<path d="M938.933 428.45H938.037V461.526H938.933V428.45Z" fill="#E9EEF1"/>
<path d="M686.87 461.853H686.791L500.37 461.672L500.302 461.649L450.812 443.8V348.96L450.915 348.835L459.558 338.418H732.231L738.764 347.848V443.8L686.87 461.853ZM500.529 460.786L686.723 460.968L737.879 443.176V348.132L731.766 339.315H459.966L451.697 349.289V443.176L500.529 460.786Z" fill="#E9EEF1"/>
<path d="M609.443 453.49H609.341L506.449 452.14L463.301 433.848C458.752 431.919 455.814 427.483 455.814 422.547V380.58C455.814 374.6 460.669 369.743 466.647 369.743H651.469C656.199 369.743 660.044 373.59 660.044 378.322V422.047C660.044 427.29 656.959 432.067 652.183 434.211L609.443 453.49ZM506.631 451.255L609.25 452.605L651.82 433.417C656.278 431.409 659.159 426.949 659.159 422.059V378.333C659.159 374.089 655.711 370.64 651.469 370.64H466.647C461.168 370.64 456.711 375.099 456.711 380.58V422.547C456.711 427.131 459.433 431.25 463.652 433.031L506.631 451.255Z" fill="#E9EEF1"/>
<path d="M609.443 446.603H609.341L506.449 445.252L463.301 426.961C458.752 425.032 455.814 420.595 455.814 415.659V379.706H456.711V415.659C456.711 420.243 459.433 424.362 463.652 426.144L506.642 444.356L609.262 445.706L651.832 426.518C656.289 424.51 659.17 420.05 659.17 415.16V377.448H660.067V415.16C660.067 420.402 656.981 425.179 652.206 427.324L609.443 446.603Z" fill="#E9EEF1"/>
<path d="M609.443 428.98H609.341L506.449 427.63L463.301 409.338C458.752 407.409 455.814 402.973 455.814 398.037V379.706H456.711V398.037C456.711 402.621 459.433 406.74 463.652 408.521L506.642 426.734L609.262 428.084L651.832 408.896C656.289 406.887 659.17 402.428 659.17 397.537V377.459H660.067V397.537C660.067 402.78 656.981 407.557 652.206 409.713L609.443 428.98Z" fill="#E9EEF1"/>
<path d="M649.463 358.253H464.006V361.657H649.463V358.253Z" fill="url(#paint5_linear_7536_97336)"/>
<path d="M701.687 453.49C687.894 453.49 676.664 442.256 676.664 428.458C676.664 414.66 687.894 403.426 701.687 403.426C715.48 403.426 726.709 414.66 726.709 428.458C726.709 442.256 715.491 453.49 701.687 453.49ZM701.687 404.323C688.381 404.323 677.549 415.148 677.549 428.47C677.549 441.791 688.37 452.616 701.687 452.616C715.003 452.616 725.824 441.791 725.824 428.47C725.824 415.148 714.992 404.323 701.687 404.323Z" fill="#E9EEF1"/>
<path d="M701.7 446.932C701.314 446.932 700.917 446.92 700.531 446.898C689.926 446.262 681.815 437.105 682.462 426.495C682.768 421.355 685.059 416.646 688.916 413.23C692.773 409.815 697.718 408.102 702.857 408.419C713.462 409.055 721.572 418.212 720.937 428.822C720.313 439.034 711.806 446.932 701.7 446.932ZM701.666 409.259C697.174 409.259 692.886 410.882 689.506 413.889C685.831 417.145 683.642 421.639 683.347 426.541C682.734 436.662 690.47 445.388 700.588 446.001C710.717 446.603 719.429 438.875 720.041 428.753C720.654 418.632 712.918 409.906 702.8 409.293C702.426 409.27 702.04 409.259 701.666 409.259Z" fill="#E9EEF1"/>
<path d="M675.891 408.499C667.077 408.499 659.92 401.327 659.92 392.522C659.92 383.705 667.089 376.545 675.891 376.545C684.704 376.545 691.862 383.716 691.862 392.522C691.862 401.327 684.693 408.499 675.891 408.499ZM675.891 377.419C667.576 377.419 660.805 384.193 660.805 392.51C660.805 400.828 667.576 407.602 675.891 407.602C684.205 407.602 690.977 400.828 690.977 392.51C690.977 384.193 684.205 377.419 675.891 377.419Z" fill="#E9EEF1"/>
<path d="M675.892 400.669C673.805 400.669 671.718 399.875 670.118 398.286C666.942 395.109 666.942 389.923 670.118 386.746C673.306 383.569 678.478 383.569 681.654 386.746C684.83 389.923 684.83 395.109 681.654 398.286C680.066 399.875 677.979 400.669 675.892 400.669ZM675.892 387.756C674.678 387.756 673.453 388.221 672.534 389.152C670.685 391.001 670.685 394.031 672.534 395.881C674.383 397.73 677.412 397.73 679.261 395.881C681.11 394.031 681.11 391.001 679.261 389.152C678.319 388.221 677.106 387.756 675.892 387.756Z" fill="#E9EEF1"/>
<path d="M735.566 344.641L734.67 344.646L735.237 444.502L736.133 444.497L735.566 344.641Z" fill="#E9EEF1"/>
<path d="M331.134 404.72H253.424V405.32H331.134V404.72Z" fill="#E9EEF1"/>
<path d="M331.134 460.142H253.424V460.743H331.134V460.142Z" fill="#E9EEF1"/>
<path d="M331.587 405.016H330.691V460.606H331.587V405.016Z" fill="#E9EEF1"/>
<path d="M253.367 405.107H252.471V461.009H253.367V405.107Z" fill="#E9EEF1"/>
<path d="M334.685 425.447H333.789V458.522H334.685V425.447Z" fill="#E9EEF1"/>
<path d="M250.951 427.85H250.055V460.925H250.951V427.85Z" fill="#E9EEF1"/>
<path d="M542.01 283.123H530.531V260.758H542.01V283.123ZM531.427 282.227H541.126V261.643H531.427V282.227Z" fill="#E9EEF1"/>
<path d="M530.975 280.865H528.264V258.511H542.011V280.423H541.115V259.396H529.16V279.98H530.975V280.865Z" fill="#E9EEF1"/>
<path d="M583.573 282.76H572.094V260.395H583.573V282.76ZM572.99 281.863H582.688V261.291H572.99V281.863Z" fill="#E9EEF1"/>
<path d="M572.547 280.502H569.824V258.148H583.572V280.059H582.687V259.033H570.72V279.617H572.547V280.502Z" fill="#E9EEF1"/>
<path d="M624.903 282.862H613.424V260.497H624.903V282.862ZM614.32 281.977H624.018V261.393H614.32V281.977Z" fill="#E9EEF1"/>
<path d="M613.879 280.615H611.168V258.25H624.904V280.161H624.02V259.146H612.053V279.719H613.879V280.615Z" fill="#E9EEF1"/>
<path d="M666.473 282.499H654.994V260.145H666.473V282.499ZM655.879 281.614H665.577V261.041H655.879V281.614Z" fill="#E9EEF1"/>
<path d="M655.438 280.241H652.727V257.887H666.474V279.799H665.578V258.772H653.611V279.356H655.438V280.241Z" fill="#E9EEF1"/>
<path d="M577.401 246.313C575.099 246.313 573.238 244.441 573.238 242.149C573.238 239.857 575.11 237.984 577.401 237.984C579.692 237.984 581.564 239.857 581.564 242.149C581.564 244.441 579.692 246.313 577.401 246.313ZM577.401 238.869C575.598 238.869 574.123 240.345 574.123 242.149C574.123 243.953 575.598 245.428 577.401 245.428C579.205 245.428 580.679 243.953 580.679 242.149C580.679 240.345 579.205 238.869 577.401 238.869Z" fill="#E9EEF1"/>
<path d="M546.469 246.222H520.766V247.119H546.469V246.222Z" fill="#E9EEF1"/>
<path d="M588.449 252.282H563.812V253.178H588.449V252.282Z" fill="#E9EEF1"/>
<path d="M621.979 245.428H611.611V246.325H621.979V245.428Z" fill="#E9EEF1"/>
<path d="M621.979 251.658H611.611V252.554H621.979V251.658Z" fill="#E9EEF1"/>
<path d="M664.785 246.847H654.418V247.743H664.785V246.847Z" fill="#E9EEF1"/>
<path d="M664.785 253.076H654.418V253.973H664.785V253.076Z" fill="#E9EEF1"/>
<path d="M542.703 252.055H529.852V252.951H542.703V252.055Z" fill="#E9EEF1"/>
<path d="M1167.02 37.525C1163.09 37.525 1159.89 34.3251 1159.89 30.399C1159.89 26.4729 1163.09 23.2729 1167.02 23.2729C1170.94 23.2729 1174.14 26.4729 1174.14 30.399C1174.14 34.3251 1170.94 37.525 1167.02 37.525ZM1167.02 26.6884C1164.96 26.6884 1163.3 28.3565 1163.3 30.4103C1163.3 32.4642 1164.96 34.1322 1167.02 34.1322C1169.07 34.1322 1170.74 32.4642 1170.74 30.4103C1170.74 28.3565 1169.07 26.6884 1167.02 26.6884Z" fill="#E9EEF1"/>
<path d="M1167.02 634.103C1163.09 634.103 1159.89 630.903 1159.89 626.977C1159.89 623.051 1163.09 619.851 1167.02 619.851C1170.94 619.851 1174.14 623.051 1174.14 626.977C1174.14 630.903 1170.94 634.103 1167.02 634.103ZM1167.02 623.255C1164.96 623.255 1163.3 624.923 1163.3 626.977C1163.3 629.031 1164.96 630.699 1167.02 630.699C1169.07 630.699 1170.74 629.031 1170.74 626.977C1170.74 624.923 1169.07 623.255 1167.02 623.255Z" fill="#E9EEF1"/>
<path d="M594.8 191.313C581.619 191.313 570.889 180.59 570.889 167.393C570.889 154.197 581.608 143.474 594.8 143.474C607.991 143.474 618.711 154.197 618.711 167.393C618.711 180.59 607.98 191.313 594.8 191.313ZM594.8 144.37C582.107 144.37 571.785 154.696 571.785 167.393C571.785 180.091 582.107 190.417 594.8 190.417C607.492 190.417 617.814 180.091 617.814 167.393C617.814 154.696 607.492 144.37 594.8 144.37Z" fill="#E9EEF1"/>
<path d="M573.372 155.933L560.486 148.523L560.77 148.024L573.655 155.434L573.372 155.933Z" fill="#E9EEF1"/>
<path d="M569.415 137.881L568.982 138.249L578.604 149.577L579.036 149.21L569.415 137.881Z" fill="#E9EEF1"/>
<path d="M580.857 131.141L580.326 131.342L585.591 145.242L586.121 145.041L580.857 131.141Z" fill="#E9EEF1"/>
<path d="M593.967 128.738L593.4 128.75L593.699 143.611L594.266 143.6L593.967 128.738Z" fill="#E9EEF1"/>
<path d="M606.567 130.669L601.842 144.762L602.38 144.943L607.105 130.849L606.567 130.669Z" fill="#E9EEF1"/>
<path d="M618.31 136.91L609.127 148.596L609.573 148.947L618.756 137.26L618.31 136.91Z" fill="#E9EEF1"/>
<path d="M627.302 146.754L614.719 154.661L615.02 155.141L627.603 147.235L627.302 146.754Z" fill="#E9EEF1"/>
<path d="M632.412 158.975L617.912 162.225L618.036 162.778L632.536 159.529L632.412 158.975Z" fill="#E9EEF1"/>
<path d="M633.127 172.851L618.381 171.013L618.449 170.457L633.195 172.284L633.127 172.851Z" fill="#E9EEF1"/>
<path d="M616.11 178.336L615.855 178.843L629.134 185.516L629.388 185.009L616.11 178.336Z" fill="#E9EEF1"/>
<path d="M611.293 185.013L610.883 185.404L621.139 196.16L621.549 195.769L611.293 185.013Z" fill="#E9EEF1"/>
<path d="M604.504 189.715L603.986 189.946L610.031 203.525L610.549 203.294L604.504 189.715Z" fill="#E9EEF1"/>
<path d="M580.225 204.079L579.691 203.863L585.215 190.065L585.749 190.281L580.225 204.079Z" fill="#E9EEF1"/>
<path d="M578.234 185.675L568.4 196.819L568.826 197.195L578.659 186.051L578.234 185.675Z" fill="#E9EEF1"/>
<path d="M560.454 186.876L560.182 186.377L573.181 179.194L573.464 179.694L560.454 186.876Z" fill="#E9EEF1"/>
<path d="M555.983 174.361L555.893 173.793L570.548 171.388L570.638 171.944L555.983 174.361Z" fill="#E9EEF1"/>
<path d="M556.133 160.497L556.031 161.055L570.647 163.734L570.749 163.176L556.133 160.497Z" fill="#E9EEF1"/>
<path d="M594.506 187.41C583.356 187.41 574.293 178.343 574.293 167.189C574.293 156.035 583.356 146.968 594.506 146.968C605.656 146.968 614.719 156.035 614.719 167.189C614.719 178.343 605.645 187.41 594.506 187.41ZM594.506 147.853C583.855 147.853 575.189 156.523 575.189 167.178C575.189 177.833 583.855 186.502 594.506 186.502C605.157 186.502 613.834 177.833 613.834 167.178C613.834 156.523 605.157 147.853 594.506 147.853Z" fill="url(#paint6_linear_7536_97336)"/>
<path d="M572.238 211.364C571.342 212.896 569.992 213.837 568.507 212.975C567.021 212.113 567.168 210.479 568.064 208.935C568.96 207.404 570.31 206.473 571.785 207.335C573.271 208.198 573.134 209.82 572.238 211.364ZM571.433 207.96C570.401 207.358 569.482 208.209 568.813 209.355C568.144 210.513 567.849 211.738 568.881 212.34C569.913 212.941 570.832 212.09 571.512 210.932C572.17 209.775 572.465 208.561 571.433 207.96Z" fill="#E9EEF1"/>
<path d="M553.672 196.567L553.093 196.93C552.435 195.966 552.038 195.954 551.358 196.272L551.018 195.739L556.292 192.369L556.734 193.061L552.708 195.637C553.071 195.716 553.366 196.091 553.672 196.567Z" fill="#E9EEF1"/>
<path d="M547.069 170.298C546.365 169.141 546.139 168.596 545.231 168.607C544.709 168.619 544.074 168.823 544.085 169.788C544.097 170.888 544.845 171.161 545.708 171.149L545.719 172C544.426 172.023 543.382 171.331 543.36 169.776C543.348 168.71 544.006 167.768 545.208 167.745C546.422 167.722 547.023 168.698 547.556 169.606C547.976 170.309 548.373 170.979 549.031 171.138H549.054L548.997 167.779L549.723 167.768L549.791 172.114C548.668 172.136 547.761 171.433 547.069 170.298Z" fill="#E9EEF1"/>
<path d="M551.788 149.862L552.185 149.102C552.99 149.522 553.716 149.465 554.26 148.421C554.76 147.468 554.533 146.946 553.897 146.605C553.058 146.163 552.559 146.673 552.275 147.218L551.969 147.808L551.323 147.468L551.618 146.9C551.912 146.333 551.856 145.788 551.22 145.448C550.767 145.21 550.188 145.255 549.791 146.015C549.224 147.105 549.701 147.615 550.256 147.899L549.859 148.659C548.838 148.126 548.43 147.059 549.145 145.686C549.644 144.733 550.631 144.188 551.618 144.699C552.207 145.005 552.423 145.493 552.355 146.174L552.366 146.186C552.99 145.561 553.648 145.505 554.294 145.845C555.361 146.401 555.565 147.502 554.941 148.693C554.192 150.123 553.035 150.52 551.788 149.862Z" fill="#E9EEF1"/>
<path d="M570.65 129.868L568.075 131.457L567.689 130.844L568.132 125.794L568.824 125.363L570.956 128.836L571.694 128.382L572.079 128.994L571.342 129.448L572.113 130.696L571.421 131.128L570.65 129.868ZM570.264 129.255L568.722 126.748L568.404 130.401L570.264 129.255Z" fill="#E9EEF1"/>
<path d="M591.137 123.173L591.987 123.162C592.067 123.775 592.407 124.365 593.383 124.354C594.245 124.342 594.812 123.797 594.789 122.788C594.778 121.846 594.233 121.449 593.428 121.46C592.861 121.471 592.373 121.653 592.067 122.073L591.193 122.084L591.795 118.703L595.243 118.657L595.254 119.383L592.464 119.417L592.124 121.324V121.347C592.441 120.983 592.906 120.756 593.598 120.745C594.778 120.734 595.617 121.63 595.628 122.788C595.651 124.138 594.676 125.068 593.405 125.091C591.999 125.102 591.182 124.183 591.137 123.173Z" fill="#E9EEF1"/>
<path d="M613.99 126.169C614.921 124.399 616.248 123.673 617.62 124.388C618.652 124.932 618.925 125.976 618.573 126.827L617.813 126.43C618.028 125.851 617.892 125.352 617.28 125.034C616.146 124.444 615.318 125.397 614.773 126.43L614.739 126.498L614.75 126.51C615.318 126.135 616.009 126.146 616.645 126.475C617.711 127.031 618.063 128.155 617.484 129.256C616.951 130.288 615.76 130.776 614.558 130.152C613.038 129.358 613.06 127.939 613.99 126.169ZM614.887 129.517C615.647 129.914 616.304 129.653 616.69 128.915C617.11 128.121 616.894 127.44 616.225 127.1C615.42 126.68 614.648 126.918 614.263 127.667C613.9 128.382 614.093 129.097 614.887 129.517Z" fill="#E9EEF1"/>
<path d="M636.905 143.95L636.917 143.939L635.102 141.023L635.714 140.637L638.005 144.325L637.461 144.665C635.691 144.086 633.037 144.381 631.313 145.448L630.859 144.71C632.663 143.61 635.476 143.53 636.905 143.95Z" fill="#E9EEF1"/>
<path d="M639.74 163.876C640.613 163.819 641.067 164.352 641.373 164.931H641.396C641.6 164.477 641.974 164.046 642.677 164.001C643.755 163.932 644.447 164.715 644.526 165.918C644.606 167.11 644.027 167.983 642.95 168.063C642.246 168.108 641.815 167.734 641.554 167.314H641.532C641.305 167.915 640.919 168.517 640.057 168.573C638.798 168.653 638.106 167.688 638.015 166.349C637.925 165.01 638.48 163.967 639.74 163.876ZM638.741 166.304C638.798 167.235 639.252 167.768 640.023 167.722C640.783 167.677 641.157 167.087 641.101 166.145C641.044 165.215 640.579 164.681 639.83 164.727C639.048 164.784 638.673 165.374 638.741 166.304ZM641.827 166.1C641.872 166.826 642.19 167.257 642.893 167.212C643.573 167.166 643.846 166.69 643.8 165.964C643.755 165.237 643.415 164.806 642.734 164.852C642.031 164.908 641.781 165.374 641.827 166.1Z" fill="#E9EEF1"/>
<path d="M635.691 188.34L635.294 189.101C634.716 188.896 634.217 189.021 633.899 189.645C633.309 190.78 634.273 191.608 635.306 192.142L635.374 192.176L635.385 192.164C634.999 191.597 635.011 190.905 635.34 190.269C635.884 189.203 637.007 188.84 638.107 189.418C639.139 189.952 639.638 191.132 639.015 192.346C638.221 193.866 636.803 193.855 635.033 192.936C633.264 192.017 632.527 190.689 633.241 189.316C633.797 188.272 634.84 188 635.691 188.34ZM635.975 190.666C635.555 191.472 635.805 192.244 636.553 192.629C637.268 193.004 637.982 192.811 638.402 192.005C638.799 191.234 638.538 190.587 637.79 190.201C636.996 189.793 636.315 190.008 635.975 190.666Z" fill="#E9EEF1"/>
<path d="M622.476 207.154C623.474 208.629 623.723 210.252 622.306 211.216C620.888 212.181 619.47 211.33 618.472 209.855C617.473 208.379 617.235 206.757 618.653 205.804C620.071 204.839 621.478 205.679 622.476 207.154ZM619.062 206.405C618.063 207.075 618.438 208.277 619.186 209.378C619.935 210.49 620.91 211.284 621.909 210.615C622.907 209.945 622.532 208.743 621.784 207.631C621.035 206.519 620.048 205.724 619.062 206.405Z" fill="#E9EEF1"/>
<path d="M583.91 107.049H584.727V112.814H588.13V113.54H583.91V107.049Z" fill="#E9EEF1"/>
<path d="M588.936 107.049H589.752V113.54H588.936V107.049Z" fill="#E9EEF1"/>
<path d="M591.102 107.049H592.1L595.332 112.371H595.355V107.049H596.172V113.54H595.174L591.941 108.218H591.918V113.54H591.102V107.049Z" fill="#E9EEF1"/>
<path d="M597.512 107.049H602.003V107.776H598.328V109.818H601.561V110.544H598.328V112.814H602.106V113.54H597.512V107.049Z" fill="#E9EEF1"/>
<path d="M549.723 127.372C547.296 127.372 545.322 125.398 545.322 122.97C545.322 120.541 547.296 118.567 549.723 118.567C552.151 118.567 554.124 120.541 554.124 122.97C554.124 125.398 552.139 127.372 549.723 127.372ZM549.723 119.463C547.795 119.463 546.218 121.041 546.218 122.97C546.218 124.899 547.795 126.476 549.723 126.476C551.652 126.476 553.228 124.899 553.228 122.97C553.228 121.041 551.652 119.463 549.723 119.463Z" fill="#E9EEF1"/>
<path d="M549.732 124.411C548.938 124.411 548.303 123.764 548.303 122.981C548.303 122.198 548.949 121.551 549.732 121.551C550.515 121.551 551.161 122.198 551.161 122.981C551.161 123.764 550.526 124.411 549.732 124.411ZM549.732 122.425C549.437 122.425 549.187 122.663 549.187 122.97C549.187 123.276 549.426 123.514 549.732 123.514C550.038 123.514 550.276 123.276 550.276 122.97C550.276 122.663 550.027 122.425 549.732 122.425Z" fill="#E9EEF1"/>
<path d="M561.768 122.527H541.986V123.424H561.768V122.527Z" fill="#E9EEF1"/>
<path d="M562.904 124.116C562.11 124.116 561.475 123.469 561.475 122.686C561.475 121.903 562.121 121.256 562.904 121.256C563.698 121.256 564.333 121.903 564.333 122.686C564.333 123.469 563.698 124.116 562.904 124.116ZM562.904 122.141C562.609 122.141 562.359 122.38 562.359 122.686C562.359 122.992 562.598 123.231 562.904 123.231C563.21 123.231 563.448 122.992 563.448 122.686C563.448 122.38 563.199 122.141 562.904 122.141Z" fill="#E9EEF1"/>
<path d="M1055.3 575.178C1041.64 575.178 1030.53 564.058 1030.53 550.396C1030.53 536.734 1041.64 525.614 1055.3 525.614C1068.96 525.614 1080.07 536.734 1080.07 550.396C1080.07 564.058 1068.97 575.178 1055.3 575.178ZM1055.3 526.499C1042.13 526.499 1031.41 537.222 1031.41 550.396C1031.41 563.57 1042.13 574.293 1055.3 574.293C1068.47 574.293 1079.19 563.57 1079.19 550.396C1079.19 537.222 1068.47 526.499 1055.3 526.499Z" fill="#E9EEF1"/>
<path d="M1033.08 538.492L1019.73 530.81L1020.01 530.311L1033.36 538.004L1033.08 538.492Z" fill="#E9EEF1"/>
<path d="M1028.98 519.823L1028.55 520.19L1038.52 531.934L1038.95 531.567L1028.98 519.823Z" fill="#E9EEF1"/>
<path d="M1045.78 527.44L1040.31 513.029L1040.85 512.825L1046.3 527.236L1045.78 527.44Z" fill="#E9EEF1"/>
<path d="M1054.43 510.293L1053.86 510.305L1054.17 525.711L1054.74 525.7L1054.43 510.293Z" fill="#E9EEF1"/>
<path d="M1063.14 527.1L1062.6 526.918L1067.52 512.314L1068.05 512.496L1063.14 527.1Z" fill="#E9EEF1"/>
<path d="M1079.69 518.786L1070.17 530.901L1070.62 531.252L1080.14 519.137L1079.69 518.786Z" fill="#E9EEF1"/>
<path d="M1076.26 537.653L1075.95 537.176L1089 528.972L1089.3 529.449L1076.26 537.653Z" fill="#E9EEF1"/>
<path d="M1094.3 541.664L1079.27 545.033L1079.39 545.586L1094.42 542.218L1094.3 541.664Z" fill="#E9EEF1"/>
<path d="M1095.04 556.035L1079.75 554.14L1079.82 553.573L1095.11 555.479L1095.04 556.035Z" fill="#E9EEF1"/>
<path d="M1077.39 561.738L1077.13 562.245L1090.9 569.162L1091.15 568.655L1077.39 561.738Z" fill="#E9EEF1"/>
<path d="M1082.63 580.25L1072.01 569.096L1072.41 568.699L1083.04 579.853L1082.63 580.25Z" fill="#E9EEF1"/>
<path d="M1065.34 573.532L1064.82 573.763L1071.09 587.84L1071.61 587.609L1065.34 573.532Z" fill="#E9EEF1"/>
<path d="M1040.18 588.42L1039.64 588.216L1045.37 573.907L1045.89 574.122L1040.18 588.42Z" fill="#E9EEF1"/>
<path d="M1038.07 569.409L1027.89 580.975L1028.32 581.35L1038.5 569.784L1038.07 569.409Z" fill="#E9EEF1"/>
<path d="M1019.67 570.582L1019.4 570.083L1032.88 562.639L1033.17 563.138L1019.67 570.582Z" fill="#E9EEF1"/>
<path d="M1015.04 557.601L1014.95 557.045L1030.15 554.537L1030.24 555.093L1015.04 557.601Z" fill="#E9EEF1"/>
<path d="M1015.18 543.267L1015.08 543.825L1030.23 546.602L1030.33 546.044L1015.18 543.267Z" fill="#E9EEF1"/>
<path d="M1054.99 571.127C1043.44 571.127 1034.05 561.732 1034.05 550.18C1034.05 538.629 1043.44 529.233 1054.99 529.233C1066.54 529.233 1075.93 538.629 1075.93 550.18C1075.93 561.732 1066.54 571.127 1054.99 571.127ZM1054.99 530.118C1043.93 530.118 1034.94 539.117 1034.94 550.18C1034.94 561.244 1043.93 570.242 1054.99 570.242C1066.05 570.242 1075.04 561.244 1075.04 550.18C1075.04 539.117 1066.05 530.118 1054.99 530.118Z" fill="url(#paint7_linear_7536_97336)"/>
<path d="M1031.9 595.989C1030.97 597.577 1029.56 598.542 1028.03 597.645C1026.5 596.749 1026.64 595.058 1027.57 593.458C1028.5 591.87 1029.9 590.905 1031.44 591.802C1032.97 592.709 1032.83 594.4 1031.9 595.989ZM1031.06 592.46C1029.99 591.836 1029.04 592.721 1028.33 593.912C1027.64 595.104 1027.34 596.375 1028.4 596.999C1029.47 597.623 1030.43 596.738 1031.13 595.546C1031.83 594.343 1032.12 593.084 1031.06 592.46Z" fill="#E9EEF1"/>
<path d="M1012.61 580.613L1012.02 580.988C1011.34 579.989 1010.93 579.978 1010.22 580.307L1009.87 579.751L1015.35 576.256L1015.8 576.971L1011.63 579.637C1011.99 579.739 1012.29 580.125 1012.61 580.613Z" fill="#E9EEF1"/>
<path d="M1005.8 553.323C1005.07 552.12 1004.84 551.564 1003.89 551.576C1003.35 551.587 1002.69 551.803 1002.7 552.801C1002.71 553.936 1003.48 554.231 1004.38 554.22L1004.39 555.105C1003.04 555.127 1001.97 554.401 1001.95 552.801C1001.94 551.689 1002.63 550.725 1003.87 550.702C1005.13 550.679 1005.75 551.689 1006.31 552.631C1006.74 553.357 1007.16 554.049 1007.84 554.22H1007.86L1007.82 550.736L1008.56 550.725L1008.63 555.23C1007.44 555.241 1006.51 554.515 1005.8 553.323Z" fill="#E9EEF1"/>
<path d="M1010.73 532.115L1011.14 531.332C1011.97 531.775 1012.73 531.718 1013.29 530.629C1013.82 529.642 1013.58 529.097 1012.92 528.756C1012.06 528.303 1011.54 528.825 1011.24 529.381L1010.91 529.993L1010.24 529.642L1010.55 529.063C1010.86 528.473 1010.81 527.905 1010.14 527.554C1009.68 527.304 1009.06 527.349 1008.65 528.132C1008.06 529.256 1008.56 529.789 1009.13 530.084L1008.72 530.867C1007.67 530.311 1007.25 529.21 1008 527.781C1008.52 526.793 1009.54 526.226 1010.56 526.771C1011.17 527.088 1011.4 527.588 1011.32 528.303L1011.33 528.314C1011.98 527.667 1012.66 527.61 1013.33 527.974C1014.43 528.552 1014.63 529.698 1013.99 530.924C1013.23 532.388 1012.02 532.796 1010.73 532.115Z" fill="#E9EEF1"/>
<path d="M1030.34 511.43L1027.66 513.064L1027.27 512.417L1027.74 507.174L1028.47 506.732L1030.67 510.34L1031.43 509.875L1031.82 510.522L1031.06 510.987L1031.85 512.292L1031.12 512.735L1030.34 511.43ZM1029.96 510.783L1028.37 508.173L1028.02 511.963L1029.96 510.783Z" fill="#E9EEF1"/>
<path d="M1051.64 504.531L1052.53 504.519C1052.61 505.155 1052.96 505.767 1053.97 505.756C1054.87 505.745 1055.46 505.189 1055.44 504.145C1055.43 503.169 1054.88 502.76 1054.04 502.772C1053.46 502.783 1052.95 502.976 1052.62 503.396L1051.71 503.407L1052.35 499.901L1055.92 499.855L1055.93 500.604L1053.04 500.638L1052.68 502.613V502.636C1053.01 502.261 1053.49 502.023 1054.22 502.011C1055.44 502 1056.31 502.931 1056.32 504.133C1056.33 505.54 1055.32 506.494 1054 506.516C1052.53 506.528 1051.69 505.574 1051.64 504.531Z" fill="#E9EEF1"/>
<path d="M1075.36 507.73C1076.33 505.903 1077.72 505.155 1079.13 505.903C1080.2 506.471 1080.47 507.549 1080.12 508.434L1079.33 508.025C1079.55 507.424 1079.42 506.913 1078.78 506.573C1077.61 505.949 1076.74 506.947 1076.18 508.014L1076.14 508.093L1076.15 508.116C1076.74 507.73 1077.45 507.742 1078.11 508.093C1079.21 508.672 1079.57 509.841 1078.97 510.976C1078.4 512.042 1077.18 512.553 1075.93 511.895C1074.35 511.032 1074.39 509.557 1075.36 507.73ZM1076.28 511.191C1077.08 511.611 1077.76 511.339 1078.17 510.579C1078.6 509.75 1078.38 509.047 1077.69 508.684C1076.86 508.241 1076.06 508.491 1075.65 509.262C1075.26 510.011 1075.45 510.76 1076.28 511.191Z" fill="#E9EEF1"/>
<path d="M1099.08 526.294L1099.09 526.283L1097.22 523.242L1097.87 522.845L1100.23 526.691L1099.66 527.032C1097.82 526.419 1095.06 526.714 1093.28 527.815L1092.82 527.054C1094.67 525.92 1097.59 525.852 1099.08 526.294Z" fill="#E9EEF1"/>
<path d="M1101.92 546.98C1102.81 546.923 1103.29 547.479 1103.61 548.081H1103.63C1103.84 547.604 1104.23 547.173 1104.97 547.128C1106.08 547.06 1106.79 547.888 1106.87 549.125C1106.95 550.362 1106.34 551.269 1105.23 551.337C1104.49 551.383 1104.06 550.986 1103.79 550.554H1103.77C1103.53 551.179 1103.13 551.803 1102.22 551.848C1100.92 551.927 1100.2 550.929 1100.12 549.533C1100.03 548.137 1100.61 547.06 1101.92 546.98ZM1100.86 549.476C1100.92 550.441 1101.38 550.997 1102.19 550.952C1102.98 550.906 1103.37 550.293 1103.31 549.329C1103.26 548.364 1102.79 547.808 1102 547.854C1101.19 547.911 1100.81 548.512 1100.86 549.476ZM1104.07 549.284C1104.12 550.032 1104.45 550.486 1105.17 550.441C1105.88 550.396 1106.17 549.908 1106.12 549.159C1106.08 548.41 1105.73 547.956 1105.02 548.001C1104.3 548.047 1104.03 548.535 1104.07 549.284Z" fill="#E9EEF1"/>
<path d="M1097.58 572.376L1097.17 573.159C1096.57 572.943 1096.06 573.079 1095.72 573.715C1095.11 574.895 1096.1 575.746 1097.16 576.313L1097.24 576.347L1097.25 576.336C1096.86 575.746 1096.88 575.031 1097.22 574.373C1097.8 573.272 1098.96 572.898 1100.1 573.499C1101.17 574.055 1101.68 575.281 1101.03 576.529C1100.2 578.106 1098.74 578.072 1096.9 577.119C1095.06 576.166 1094.32 574.781 1095.06 573.363C1095.61 572.296 1096.7 572.012 1097.58 572.376ZM1097.86 574.793C1097.42 575.632 1097.67 576.427 1098.45 576.835C1099.18 577.221 1099.93 577.028 1100.36 576.2C1100.78 575.405 1100.51 574.724 1099.74 574.316C1098.91 573.885 1098.21 574.1 1097.86 574.793Z" fill="#E9EEF1"/>
<path d="M1083.76 591.79C1084.78 593.322 1085.04 595.013 1083.55 596C1082.08 596.987 1080.61 596.102 1079.59 594.57C1078.57 593.038 1078.32 591.359 1079.8 590.372C1081.28 589.385 1082.74 590.258 1083.76 591.79ZM1080.22 590.996C1079.19 591.688 1079.56 592.925 1080.33 594.082C1081.1 595.228 1082.1 596.068 1083.13 595.376C1084.16 594.684 1083.78 593.436 1083.02 592.29C1082.25 591.132 1081.25 590.315 1080.22 590.996Z" fill="#E9EEF1"/>
<path d="M1044.01 487.805H1044.86V493.785H1048.39V494.534H1044.01V487.805Z" fill="#E9EEF1"/>
<path d="M1049.21 487.805H1050.07V494.534H1049.21V487.805Z" fill="#E9EEF1"/>
<path d="M1051.46 487.805H1052.5L1055.85 493.331H1055.88V487.805H1056.73V494.534H1055.69L1052.34 489.007H1052.31V494.534H1051.46V487.805Z" fill="#E9EEF1"/>
<path d="M1058.11 487.805H1062.77V488.554H1058.96V490.675H1062.32V491.424H1058.96V493.785H1062.88V494.534H1058.11V487.805Z" fill="#E9EEF1"/>
<path d="M1008.55 508.865C1006.04 508.865 1004.01 506.822 1004.01 504.326C1004.01 501.83 1006.06 499.787 1008.55 499.787C1011.05 499.787 1013.09 501.83 1013.09 504.326C1013.09 506.822 1011.05 508.865 1008.55 508.865ZM1008.55 500.672C1006.54 500.672 1004.9 502.306 1004.9 504.326C1004.9 506.346 1006.53 507.98 1008.55 507.98C1010.57 507.98 1012.2 506.346 1012.2 504.326C1012.2 502.306 1010.56 500.672 1008.55 500.672Z" fill="#E9EEF1"/>
<path d="M1008.56 505.789C1007.76 505.789 1007.09 505.131 1007.09 504.314C1007.09 503.509 1007.75 502.851 1008.56 502.851C1009.38 502.851 1010.04 503.509 1010.04 504.314C1010.04 505.131 1009.37 505.789 1008.56 505.789ZM1008.56 503.747C1008.24 503.747 1007.98 504.008 1007.98 504.326C1007.98 504.643 1008.24 504.904 1008.56 504.904C1008.88 504.904 1009.14 504.643 1009.14 504.326C1009.14 504.008 1008.88 503.747 1008.56 503.747Z" fill="#E9EEF1"/>
<path d="M1021.04 503.883H1000.53V504.78H1021.04V503.883Z" fill="#E9EEF1"/>
<path d="M1022.22 505.495C1021.41 505.495 1020.74 504.836 1020.74 504.031C1020.74 503.225 1021.4 502.556 1022.22 502.556C1023.04 502.556 1023.69 503.214 1023.69 504.031C1023.68 504.825 1023.02 505.495 1022.22 505.495ZM1022.22 503.441C1021.9 503.441 1021.64 503.702 1021.64 504.019C1021.64 504.337 1021.9 504.598 1022.22 504.598C1022.54 504.598 1022.8 504.337 1022.8 504.019C1022.8 503.702 1022.54 503.441 1022.22 503.441Z" fill="#E9EEF1"/>
<path d="M91.4774 541.703L88.541 543.423L121.941 600.459L124.877 598.738L91.4774 541.703Z" fill="url(#paint8_linear_7536_97336)"/>
<path d="M88.9554 550.976L88.7285 550.465C102.034 544.463 117.608 541.206 133.794 541.059C134.157 541.059 134.531 541.059 134.894 541.059C150.684 541.059 165.906 544.032 179.007 549.671L178.78 550.193C165.452 544.451 149.89 541.501 133.794 541.637C117.687 541.773 102.181 545.007 88.9554 550.976Z" fill="#E9EEF1"/>
<path d="M82.7203 536.927L82.2168 537.188L88.9864 550.243L89.4898 549.982L82.7203 536.927Z" fill="#E9EEF1"/>
<path d="M99.404 545.733L94.5605 531.856L95.105 531.663L99.9371 545.552L99.404 545.733Z" fill="#E9EEF1"/>
<path d="M107.957 528.089L107.402 528.208L110.495 542.585L111.05 542.465L107.957 528.089Z" fill="#E9EEF1"/>
<path d="M121.051 526.092L120.486 526.149L121.971 540.78L122.535 540.723L121.051 526.092Z" fill="#E9EEF1"/>
<path d="M134.171 540.173H133.604L133.638 525.467H134.205L134.171 540.173Z" fill="#E9EEF1"/>
<path d="M146.748 526.11L145.258 540.74L145.822 540.797L147.313 526.168L146.748 526.11Z" fill="#E9EEF1"/>
<path d="M159.815 528.127L156.832 542.527L157.387 542.642L160.37 528.242L159.815 528.127Z" fill="#E9EEF1"/>
<path d="M172.623 531.482L168.078 545.468L168.617 545.643L173.163 531.658L172.623 531.482Z" fill="#E9EEF1"/>
<path d="M179.327 549.875L178.816 549.637L185.032 536.304L185.554 536.553L179.327 549.875Z" fill="#E9EEF1"/>
<path d="M179.349 551.509C172.18 548.355 164.32 545.994 155.994 544.519L156.595 541.172C165.182 542.704 173.303 545.132 180.722 548.4L179.349 551.509Z" fill="#E9EEF1"/>
<path d="M89.1036 530.358L88.9448 529.893L89.3418 529.11C90.306 527.272 90.703 526.33 90.4308 525.49C90.2379 524.923 89.7842 524.491 88.9562 524.775C88.4457 524.945 88.1168 525.343 87.9353 525.649L87.5156 525.195C87.7879 524.741 88.2643 524.31 88.8995 524.094C90.1018 523.686 90.8845 524.333 91.1567 525.138C91.5083 526.171 91.0433 527.249 90.2493 528.781L89.943 529.348V529.371L92.4498 528.52L92.6653 529.144L89.1036 530.358Z" fill="#E9EEF1"/>
<path d="M96.3408 524.889C96.9079 526.818 96.5109 528.089 95.2632 528.463C94.1629 528.792 93.0967 527.975 92.5295 526.114C91.9624 524.219 92.4728 522.926 93.6185 522.585C94.8095 522.234 95.7963 523.085 96.3408 524.889ZM93.2895 525.887C93.7319 527.362 94.4238 528.055 95.1271 527.85C95.9097 527.612 96.0118 526.591 95.5808 525.15C95.1611 523.754 94.5372 522.948 93.7432 523.187C93.074 523.391 92.8358 524.355 93.2895 525.887Z" fill="#E9EEF1"/>
<path d="M104.02 520.804H103.997L103.112 521.553L102.84 520.986L103.963 520.044L104.632 519.908L105.857 525.683L105.097 525.842L104.02 520.804Z" fill="#E9EEF1"/>
<path d="M111.212 521.632C111.553 523.607 111.02 524.821 109.726 525.048C108.592 525.252 107.639 524.321 107.288 522.404C106.947 520.452 107.594 519.238 108.774 519.034C110.01 518.818 110.895 519.783 111.212 521.632ZM108.082 522.279C108.343 523.788 108.967 524.56 109.681 524.435C110.486 524.299 110.702 523.289 110.441 521.802C110.192 520.373 109.658 519.499 108.842 519.646C108.15 519.771 107.798 520.702 108.082 522.279Z" fill="#E9EEF1"/>
<path d="M123.291 517.354L123.337 517.876L121.227 523.448L120.399 523.516L122.52 518.103V518.081L119.639 518.319L119.582 517.661L123.291 517.354Z" fill="#E9EEF1"/>
<path d="M135.723 517.683L133.477 517.672L133.239 519.181C133.375 519.159 133.5 519.147 133.715 519.147C134.169 519.147 134.623 519.249 134.986 519.476C135.451 519.737 135.825 520.248 135.814 520.997C135.802 522.154 134.884 523.005 133.602 522.994C132.955 522.994 132.411 522.801 132.139 522.619L132.343 522.007C132.581 522.154 133.069 522.336 133.602 522.347C134.351 522.347 134.997 521.871 135.008 521.076C135.008 520.316 134.498 519.771 133.318 519.76C132.978 519.76 132.717 519.794 132.502 519.817L132.899 516.991L135.723 517.014V517.683Z" fill="#E9EEF1"/>
<path d="M144.629 522.472C144.844 522.642 145.343 522.926 145.888 522.983C146.908 523.085 147.294 522.472 147.328 521.984C147.408 521.167 146.704 520.736 145.933 520.657L145.491 520.611L145.547 520.021L145.99 520.067C146.568 520.123 147.328 519.908 147.408 519.215C147.453 518.75 147.203 518.296 146.466 518.217C146.001 518.172 145.525 518.33 145.252 518.478L145.105 517.877C145.434 517.684 146.058 517.525 146.682 517.581C147.839 517.706 148.292 518.444 148.213 519.159C148.145 519.76 147.736 520.237 146.988 520.43V520.452C147.691 520.668 148.224 521.281 148.133 522.098C148.031 523.039 147.215 523.777 145.808 523.63C145.15 523.561 144.594 523.289 144.322 523.073L144.629 522.472Z" fill="#E9EEF1"/>
<path d="M159.135 520.316H159.112L158.001 520.656L157.967 520.032L159.362 519.612L160.031 519.748L158.874 525.536L158.114 525.388L159.135 520.316Z" fill="#E9EEF1"/>
<path d="M174.754 526.557C174.164 528.475 173.132 529.314 171.884 528.928C170.784 528.588 170.353 527.329 170.908 525.456C171.487 523.561 172.621 522.767 173.767 523.119C174.958 523.493 175.309 524.764 174.754 526.557ZM171.668 525.706C171.226 527.17 171.419 528.146 172.111 528.35C172.893 528.588 173.54 527.794 173.982 526.353C174.413 524.968 174.334 523.947 173.54 523.697C172.871 523.505 172.133 524.174 171.668 525.706Z" fill="#E9EEF1"/>
<path d="M185.235 528.1L185.212 528.089L184.055 528.214L184.146 527.59L185.598 527.431L186.233 527.692L184.01 533.161L183.295 532.866L185.235 528.1Z" fill="#E9EEF1"/>
<path d="M170.603 593.062H99.6641V593.959H170.603V593.062Z" fill="#E9EEF1"/>
<path d="M80.3004 525.025H74.6289V525.921H80.3004V525.025Z" fill="#E9EEF1"/>
<path d="M193.414 525.025H187.799V525.921H193.414V525.025Z" fill="#E9EEF1"/>
<path d="M208.102 601.267H57.2754V501.843H208.091V601.267H208.102ZM60.6783 597.863H204.688V505.247H60.6783V597.863Z" fill="#E9EEF1"/>
<path d="M127.727 562.153H128.623L130.494 567.85H130.506L132.354 562.153H133.205L130.937 568.644H130.052L127.727 562.153Z" fill="#E9EEF1"/>
<path d="M133.943 566.488V562.165H134.76V566.488C134.76 567.543 135.305 568.054 136.427 568.054C137.55 568.054 138.095 567.543 138.095 566.488V562.165H138.912V566.488C138.912 567.815 138.163 568.78 136.427 568.78C134.692 568.78 133.943 567.804 133.943 566.488Z" fill="#E9EEF1"/>
<path d="M22.9573 36.4244C19.0327 36.4244 15.834 33.2245 15.834 29.2984C15.834 25.3723 19.0327 22.1724 22.9573 22.1724C26.882 22.1724 30.0807 25.3723 30.0807 29.2984C30.0807 33.2245 26.882 36.4244 22.9573 36.4244ZM22.9573 25.5765C20.9043 25.5765 19.2369 27.2446 19.2369 29.2984C19.2369 31.3522 20.9043 33.0203 22.9573 33.0203C25.0104 33.0203 26.6778 31.3522 26.6778 29.2984C26.6778 27.2446 25.0104 25.5765 22.9573 25.5765Z" fill="#E9EEF1"/>
<path d="M22.9573 639.527C19.0327 639.527 15.834 636.327 15.834 632.401C15.834 628.475 19.0327 625.275 22.9573 625.275C26.882 625.275 30.0807 628.475 30.0807 632.401C30.0807 636.327 26.882 639.527 22.9573 639.527ZM22.9573 628.679C20.9043 628.679 19.2369 630.347 19.2369 632.401C19.2369 634.455 20.9043 636.123 22.9573 636.123C25.0104 636.123 26.6778 634.455 26.6778 632.401C26.6778 630.347 25.0104 628.679 22.9573 628.679Z" fill="#E9EEF1"/>
<path fill-rule="evenodd" clip-rule="evenodd" d="M632.553 82.9053C636.887 83.4204 641.266 83.4204 645.599 82.9053C648.129 82.6045 650.124 80.6098 650.425 78.0786C650.94 73.7449 650.94 69.3656 650.425 65.0328C650.124 62.5025 648.129 60.5069 645.599 60.2062C641.265 59.691 636.886 59.691 632.553 60.2062C630.023 60.5079 628.027 62.5025 627.726 65.0328C627.211 69.3666 627.211 73.7458 627.726 78.0786C628.028 80.6089 630.023 82.6045 632.553 82.9053ZM639.075 82.7719C645.27 82.7719 650.292 77.75 650.292 71.5553C650.292 65.3605 645.27 60.3387 639.075 60.3387C632.881 60.3387 627.859 65.3605 627.859 71.5553C627.859 77.75 632.881 82.7719 639.075 82.7719Z" fill="#E9EEF1"/>
<path d="M651.582 60.7893V60.4028H651.83C651.862 60.4028 651.893 60.4056 651.924 60.4111C651.957 60.4148 651.986 60.4232 652.01 60.4362C652.036 60.4491 652.056 60.4677 652.071 60.4918C652.087 60.5159 652.096 60.5483 652.096 60.5891C652.096 60.6373 652.086 60.6753 652.068 60.7031C652.051 60.729 652.028 60.7485 651.999 60.7615C651.969 60.7745 651.935 60.7828 651.897 60.7865C651.86 60.7884 651.82 60.7893 651.778 60.7893H651.582ZM651.394 60.2498V61.465H651.582V60.9422H651.781L652.109 61.465H652.311L651.966 60.9283C652.056 60.9191 652.131 60.8894 652.192 60.8393C652.253 60.7874 652.283 60.7068 652.283 60.5974C652.283 60.4806 652.248 60.3935 652.178 60.336C652.11 60.2786 652.004 60.2498 651.861 60.2498H651.394ZM650.944 60.8533C650.944 60.729 650.965 60.6132 651.007 60.5057C651.051 60.3982 651.111 60.3055 651.187 60.2276C651.264 60.1479 651.354 60.0858 651.457 60.0413C651.562 59.995 651.676 59.9718 651.797 59.9718C651.917 59.9718 652.028 59.995 652.131 60.0413C652.235 60.0858 652.324 60.1479 652.399 60.2276C652.477 60.3055 652.537 60.3982 652.579 60.5057C652.623 60.6132 652.645 60.729 652.645 60.8533C652.645 60.9812 652.623 61.0998 652.579 61.2092C652.537 61.3167 652.477 61.4103 652.399 61.49C652.324 61.5697 652.235 61.6328 652.131 61.6791C652.028 61.7236 651.917 61.7458 651.797 61.7458C651.676 61.7458 651.562 61.7236 651.457 61.6791C651.354 61.6328 651.264 61.5697 651.187 61.49C651.111 61.4103 651.051 61.3167 651.007 61.2092C650.965 61.0998 650.944 60.9812 650.944 60.8533ZM650.756 60.8533C650.756 61.0034 650.783 61.1424 650.839 61.2704C650.894 61.3964 650.969 61.5067 651.062 61.6012C651.158 61.6939 651.269 61.7662 651.394 61.8181C651.521 61.87 651.655 61.896 651.797 61.896C651.939 61.896 652.072 61.87 652.198 61.8181C652.323 61.7662 652.433 61.6939 652.526 61.6012C652.62 61.5067 652.695 61.3964 652.75 61.2704C652.805 61.1424 652.833 61.0034 652.833 60.8533C652.833 60.7068 652.805 60.5706 652.75 60.4445C652.695 60.3184 652.62 60.2091 652.526 60.1164C652.433 60.0237 652.323 59.9514 652.198 59.8995C652.072 59.8457 651.939 59.8188 651.797 59.8188C651.655 59.8188 651.521 59.8457 651.394 59.8995C651.269 59.9514 651.158 60.0237 651.062 60.1164C650.969 60.2091 650.894 60.3184 650.839 60.4445C650.783 60.5706 650.756 60.7068 650.756 60.8533Z" fill="#E9EEF1"/>
<path d="M550.582 63.7783V79.1216H553.873V72.8966H559.489V70.2006H553.873V66.6059H560.718V63.7783H550.582Z" fill="#E9EEF1"/>
<path d="M571.742 67.8552H568.648V73.4007C568.648 74.4528 568.429 75.2638 568.012 75.8337C567.573 76.4036 566.981 76.6886 566.213 76.6886C565.467 76.6886 564.897 76.4475 564.546 75.9214C564.195 75.3954 564.019 74.6282 564.019 73.598V67.8552H560.926V73.9706C560.926 75.8776 561.343 77.2365 562.176 78.0475C563.01 78.8585 564.085 79.2531 565.401 79.2531C566.147 79.2531 566.806 79.1216 567.332 78.8585C567.859 78.5955 568.319 78.2448 568.714 77.7626L568.999 79.1216H571.742V67.8552Z" fill="#E9EEF1"/>
<path d="M573.322 63.7783V79.1216H575.692V63.7783H573.322Z" fill="#E9EEF1"/>
<path d="M586.022 78.1571C586.921 77.4119 587.492 76.4036 587.711 75.0885H585.298C585.144 75.7461 584.837 76.2721 584.355 76.6667C583.872 77.0612 583.258 77.2365 582.534 77.2365C581.568 77.2365 580.8 76.9078 580.23 76.2064C579.66 75.505 579.374 74.6063 579.374 73.4884C579.374 72.3925 579.66 71.5157 580.23 70.8143C580.8 70.1348 581.568 69.7841 582.534 69.7841C583.236 69.7841 583.828 69.9814 584.311 70.354C584.793 70.7485 585.101 71.2527 585.276 71.8883H587.711C587.492 70.617 586.921 69.6307 586.044 68.8854C585.144 68.1402 584.004 67.7676 582.599 67.7676C581.459 67.7676 580.471 68.0087 579.616 68.4909C578.76 68.9731 578.102 69.6307 577.641 70.4855C577.159 71.3623 576.939 72.3486 576.939 73.4884C576.939 74.6282 577.159 75.6365 577.619 76.5132C578.08 77.39 578.738 78.0695 579.594 78.5517C580.427 79.0339 581.415 79.2531 582.534 79.2531C583.938 79.2531 585.101 78.9024 586.022 78.1571Z" fill="#E9EEF1"/>
<path d="M594.701 67.9429H594.196C593.275 67.9429 592.573 68.0964 592.068 68.4032C591.542 68.7101 591.125 69.1265 590.818 69.6307L590.576 67.9429H589.019V79.1216H590.818V73.4227C590.818 72.3705 591.037 71.4938 591.498 70.7705C591.959 70.0691 592.726 69.6964 593.801 69.6964H594.701V67.9429Z" fill="#E9EEF1"/>
<path d="M605.538 67.9429H603.739V73.5322C603.739 74.8035 603.432 75.7899 602.862 76.5132C602.291 77.2585 601.48 77.6092 600.471 77.6092C599.527 77.6092 598.803 77.3242 598.299 76.7105C597.794 76.0968 597.553 75.22 597.553 74.0583V67.9429H595.754V74.1679C595.754 75.9214 596.149 77.2146 596.96 78.0256C597.75 78.8585 598.825 79.2531 600.163 79.2531C601.699 79.2531 602.884 78.727 603.739 77.6311L603.981 79.1216H605.538V67.9429Z" fill="#E9EEF1"/>
<path d="M622.141 69.1046C621.396 68.2936 620.408 67.8772 619.18 67.8772C618.192 67.8772 617.359 68.1402 616.701 68.6224C616.02 69.1265 615.516 69.806 615.187 70.6609C614.924 69.7622 614.463 69.0827 613.827 68.6005C613.168 68.1183 612.401 67.8772 611.523 67.8772C610.623 67.8772 609.878 68.1183 609.263 68.5786C608.649 69.0389 608.188 69.6526 607.903 70.3978L607.728 68.0087H606.762V79.1216H607.859V73.4665C607.859 72.1075 608.166 70.9897 608.803 70.1567C609.417 69.3238 610.272 68.9074 611.326 68.9074C612.313 68.9074 613.081 69.2581 613.629 69.9156C614.178 70.5951 614.463 71.5595 614.463 72.8308V79.1216H615.582V73.0719C615.604 71.8007 615.933 70.7924 616.547 70.0471C617.161 69.3019 617.995 68.9074 619.048 68.9074C620.013 68.9074 620.781 69.2581 621.33 69.9156C621.856 70.5951 622.141 71.5595 622.141 72.8308V79.1216H623.282V72.7651C623.282 71.1431 622.887 69.9375 622.141 69.1046Z" fill="#E9EEF1"/>
<defs>
<linearGradient id="paint0_linear_7536_97336" x1="73.9141" y1="303.021" x2="253.594" y2="303.021" gradientUnits="userSpaceOnUse">
<stop stop-color="#EB00FF"/>
<stop offset="1" stop-color="#FF8A00"/>
</linearGradient>
<linearGradient id="paint1_linear_7536_97336" x1="331.236" y1="409.759" x2="450.814" y2="409.759" gradientUnits="userSpaceOnUse">
<stop stop-color="#EB00FF"/>
<stop offset="1" stop-color="#FF8A00"/>
</linearGradient>
<linearGradient id="paint2_linear_7536_97336" x1="659.91" y1="407.782" x2="857.946" y2="407.782" gradientUnits="userSpaceOnUse">
<stop stop-color="#EB00FF"/>
<stop offset="1" stop-color="#FF8A00"/>
</linearGradient>
<linearGradient id="paint3_linear_7536_97336" x1="936.043" y1="430.404" x2="985.85" y2="430.404" gradientUnits="userSpaceOnUse">
<stop stop-color="#EB00FF"/>
<stop offset="1" stop-color="#FF8A00"/>
</linearGradient>
<linearGradient id="paint4_linear_7536_97336" x1="1025.58" y1="284.757" x2="1106.27" y2="284.757" gradientUnits="userSpaceOnUse">
<stop stop-color="#EB00FF"/>
<stop offset="1" stop-color="#FF8A00"/>
</linearGradient>
<linearGradient id="paint5_linear_7536_97336" x1="464.006" y1="359.955" x2="649.463" y2="359.955" gradientUnits="userSpaceOnUse">
<stop stop-color="#EB00FF"/>
<stop offset="1" stop-color="#FF8A00"/>
</linearGradient>
<linearGradient id="paint6_linear_7536_97336" x1="574.293" y1="167.189" x2="614.719" y2="167.189" gradientUnits="userSpaceOnUse">
<stop stop-color="#EB00FF"/>
<stop offset="1" stop-color="#FF8A00"/>
</linearGradient>
<linearGradient id="paint7_linear_7536_97336" x1="1034.05" y1="550.18" x2="1075.93" y2="550.18" gradientUnits="userSpaceOnUse">
<stop stop-color="#EB00FF"/>
<stop offset="1" stop-color="#FF8A00"/>
</linearGradient>
<linearGradient id="paint8_linear_7536_97336" x1="123.369" y1="598.586" x2="88.43" y2="541.331" gradientUnits="userSpaceOnUse">
<stop stop-color="#EB00FF"/>
<stop offset="1" stop-color="#FF8A00"/>
</linearGradient>
</defs>
</svg>
