<svg width="529" height="530" viewBox="0 0 529 530" fill="none" xmlns="http://www.w3.org/2000/svg">
<path d="M264.397 529.005C118.603 529.005 0 410.345 0 264.509C0 118.673 118.603 0 264.397 0C410.178 0 528.794 118.66 528.794 264.496C528.794 410.332 410.178 529.005 264.397 529.005ZM264.397 3.89518C120.744 3.89518 3.88075 120.803 3.88075 264.496C3.88075 408.189 120.744 525.097 264.384 525.097C408.023 525.097 524.887 408.189 524.887 264.496C524.887 120.803 408.036 3.89518 264.397 3.89518Z" fill="#E9EEF1"/>
<path d="M264.721 360.513C211.935 360.513 169 317.562 169 264.757C169 211.951 211.935 169 264.721 169C317.507 169 360.441 211.951 360.441 264.757C360.428 317.562 317.494 360.513 264.721 360.513ZM264.721 172.908C214.089 172.908 172.894 214.119 172.894 264.77C172.894 315.42 214.089 356.631 264.721 356.631C315.352 356.631 356.548 315.42 356.548 264.77C356.535 214.106 315.352 172.908 264.721 172.908Z" fill="#E9EEF1"/>
<path d="M261.01 466.461C253.105 466.461 245.85 462.54 241.1 455.685C235.752 447.972 234.545 438.027 237.881 429.081C239.97 423.484 242.359 417.044 244.903 410.189C250.535 394.998 260.433 373.99 266.053 359.137L267 359.5C261.38 374.354 251.496 395.361 245.85 410.552C243.306 417.421 240.918 423.861 238.828 429.457C235.609 438.091 236.765 447.687 241.93 455.126C246.486 461.696 253.443 465.462 260.997 465.462C310.032 465.462 399.367 450.465 446.688 350.047C450.465 342.036 450.309 332.857 446.273 325.495C442.937 319.405 437.473 315.588 430.893 314.744L351.24 302.851L351.396 301.838L431.036 313.731C437.94 314.614 443.677 318.613 447.169 325.001C451.361 332.649 451.517 342.166 447.61 350.476C400.067 451.387 310.291 466.461 261.01 466.461Z" fill="#E9EEF1"/>
<path d="M121.005 387.402C120.473 387.402 119.941 387.389 119.395 387.363C111.076 386.896 103.937 382.754 99.81 376.015C81.5614 346.23 70.4513 315.471 66.7782 284.582C61.4309 239.606 72.3333 196.058 99.161 155.119C103.911 147.874 112.14 143.278 121.187 142.849C129.273 142.447 136.554 145.485 141.122 151.172L189.171 210.548L188.379 211.184L140.331 151.808C135.97 146.381 128.987 143.486 121.238 143.862C112.517 144.291 104.586 148.705 100.018 155.678C73.3197 196.408 62.4822 239.736 67.8036 284.452C71.4507 315.198 82.5219 345.814 100.693 375.47C104.638 381.923 111.491 385.883 119.473 386.337C128.507 386.857 137.294 382.832 142.965 375.561L147.612 369.614C159.176 354.825 174.631 335.574 187 319.5L187.805 320.123C175.436 336.197 159.981 355.449 148.417 370.237L143.77 376.184C138.215 383.286 129.805 387.402 121.005 387.402Z" fill="#E9EEF1"/>
<path d="M347 220.5L346.805 219.5L436.239 200.719C443.027 199.33 448.686 194.669 451.736 187.943C455.176 180.373 454.76 171.518 450.646 164.234C426.648 121.868 393.188 92.4199 351.2 76.7483C322.374 65.9846 290.199 61.8427 255.544 64.4395C247.77 65.0238 241.021 69.2436 237.023 76.0342C232.714 83.3571 232.377 92.5757 236.115 100.704C245.421 120.907 256.942 145.532 268.922 171.072L268 171.5C256.02 145.961 244.499 121.335 235.193 101.132C231.313 92.7056 231.663 83.1234 236.141 75.5148C240.307 68.4386 247.342 64.037 255.454 63.4268C290.251 60.817 322.581 64.9719 351.538 75.7875C393.759 91.55 427.387 121.14 451.503 163.741C455.786 171.31 456.214 180.516 452.632 188.371C449.439 195.396 443.533 200.265 436.408 201.719L347 220.5Z" fill="#E9EEF1"/>
<path d="M264.683 469.162C261.373 469.162 258.31 469.084 255.545 468.967C248.199 468.643 241.411 464.397 236.933 457.308C231.43 448.595 230.418 437.533 234.273 428.418C238.179 419.187 242.683 408.072 247.044 397.335C251.976 385.195 258.73 368.972 263 359L263.934 359.403C259.651 369.374 252.911 385.584 247.979 397.724C243.618 408.462 239.114 419.576 235.194 428.821C231.469 437.624 232.456 448.336 237.777 456.762C242.073 463.566 248.563 467.643 255.571 467.954C294.625 469.655 391.268 462.436 445.468 359.253C449.323 351.93 449.44 343.153 445.806 335.778C442.574 329.221 436.837 324.793 430.075 323.625L348.5 307.5L348.669 306.5L430.244 322.625C437.343 323.846 443.353 328.481 446.727 335.336C450.504 342.997 450.374 352.125 446.377 359.733C395.758 456.1 308.279 469.162 264.683 469.162Z" fill="#E9EEF1"/>
<path d="M344 216.5L343.792 215.5C366.298 210.865 409.736 201.848 428.115 197.966C438.134 195.85 446.532 189.384 450.023 181.087C452.632 174.88 452.113 168.375 448.557 162.753C427.401 129.385 365.789 53.3248 250.846 67.724C242.098 68.8146 234.648 73.5148 230.91 80.2924C227.834 85.8755 227.666 92.2117 230.43 98.1324L265.422 171.072L264.5 171.5L229.496 98.5738C226.588 92.3545 226.77 85.6937 230.002 79.812C233.896 72.7487 241.631 67.8668 250.704 66.7242C366.204 52.2471 428.141 128.684 449.4 162.208C453.138 168.116 453.696 174.958 450.945 181.476C447.324 190.085 438.654 196.784 428.309 198.966C409.944 202.848 366.493 211.865 344 216.5Z" fill="#E9EEF1"/>
<path d="M119.213 391.206C118.681 391.206 118.149 391.193 117.604 391.167C109.284 390.7 102.146 386.558 98.0182 379.819C70.84 335.479 34.2779 247.318 94.7604 155.041C99.381 147.991 108.804 143.291 119.343 142.784C128.882 142.33 137.358 145.42 141.913 151.094L190.5 209.5L189.721 210.149L141.135 151.73C136.774 146.303 128.662 143.343 119.395 143.797C109.18 144.291 100.069 148.809 95.617 155.6C35.446 247.409 71.8394 335.155 98.8878 379.287C102.833 385.74 109.686 389.7 117.669 390.155C126.715 390.661 135.489 386.636 141.161 379.378C146.768 372.211 153.439 364.07 160.512 355.461C169.247 344.828 180.778 331.673 188.695 321.377L189.5 322C181.57 332.309 170.039 345.477 161.291 356.111C154.231 364.719 147.546 372.847 141.952 380.001C136.423 387.09 128.013 391.206 119.213 391.206Z" fill="#E9EEF1"/>
<path d="M149.921 155.327L149.168 154.639C172.18 129.346 198.06 114.817 233.078 107.533L233.285 108.533C198.488 115.778 172.777 130.203 149.921 155.327Z" fill="url(#paint0_linear_7367_130125)"/>
<path d="M233.454 430.586C200.565 423.277 170.713 405.514 147.117 379.235L147.87 378.56C171.31 404.684 200.98 422.329 233.662 429.6L233.454 430.586Z" fill="url(#paint1_linear_7367_130125)"/>
<path d="M432.553 314.679L431.567 314.406C435.681 299.799 437.784 284.621 437.784 269.3C437.796 246.565 433.267 224.531 424.324 203.783L425.259 203.38C434.253 224.246 438.822 246.422 438.809 269.3C438.809 284.712 436.706 299.981 432.553 314.679Z" fill="#E9EEF1"/>
<path d="M156.527 161.546L155.787 160.845C177.566 138.058 208.339 120.764 236.076 115.7L236.257 116.7C208.716 121.712 178.163 138.902 156.527 161.546Z" fill="url(#paint2_linear_7367_130125)"/>
<path d="M232.234 422.835C201.227 415.954 170.882 397.283 151.037 372.886L151.829 372.237C171.531 396.465 201.669 415.006 232.455 421.836L232.234 422.835Z" fill="url(#paint3_linear_7367_130125)"/>
<path d="M424.728 308.135L423.754 307.836C427.674 294.956 429.712 281.531 429.816 267.937C429.945 248.72 426.246 230.075 418.822 212.521L419.757 212.119C427.233 229.803 430.971 248.578 430.841 267.937C430.737 281.635 428.686 295.164 424.728 308.135Z" fill="url(#paint4_linear_7367_130125)"/>
<path d="M160.109 164.844L159.369 164.143C181.226 141.278 210.143 124.724 236.711 119.881L236.893 120.881C210.533 125.698 181.823 142.122 160.109 164.844Z" fill="url(#paint5_linear_7367_130125)"/>
<path d="M232.974 419.135C203.161 412.526 174.659 394.699 154.762 370.237L155.553 369.588C175.308 393.881 203.615 411.578 233.207 418.135L232.974 419.135Z" fill="url(#paint6_linear_7367_130125)"/>
<path d="M420.027 308.187L419.054 307.888C422.896 295.294 424.895 282.154 424.973 268.859C425.102 250.058 421.481 231.815 414.213 214.638L415.147 214.235C422.468 231.543 426.115 249.915 425.985 268.859C425.907 282.271 423.895 295.502 420.027 308.187Z" fill="url(#paint7_linear_7367_130125)"/>
<path d="M383.582 148.316C362.686 127.412 336.105 113.895 306.746 109.221L306.902 108.208C336.481 112.921 363.244 126.542 384.296 147.589L383.582 148.316Z" fill="#E9EEF1"/>
<path d="M130.647 318.509C118.771 289.36 117.084 256.55 125.909 226.141L126.883 226.427C118.122 256.615 119.796 289.191 131.581 318.133L130.647 318.509Z" fill="#E9EEF1"/>
<path d="M332.679 411.28L332.367 410.306C345.191 406.203 357.391 400.243 368.618 392.583C384.491 381.754 397.717 368.095 407.918 351.995L408.775 352.54C398.496 368.757 385.179 382.52 369.189 393.427C357.884 401.152 345.593 407.151 332.679 411.28Z" fill="#E9EEF1"/>
<path d="M264.544 522.281C122.54 522.281 7 406.711 7 264.64C7 122.583 122.527 7 264.544 7C406.548 7 522.088 122.57 522.088 264.64C522.088 406.711 406.548 522.281 264.544 522.281ZM264.544 8.02573C123.098 8.02573 8.02534 123.141 8.02534 264.64C8.02534 406.14 123.098 521.255 264.544 521.255C405.99 521.255 521.062 406.14 521.062 264.64C521.062 123.141 405.99 8.02573 264.544 8.02573Z" fill="#E9EEF1"/>
<path d="M264.079 453.3C159.818 453.3 75 368.45 75 264.15C75 159.85 159.818 75 264.079 75C368.34 75 453.158 159.85 453.158 264.15C453.158 368.45 368.34 453.3 264.079 453.3ZM264.079 78.9082C161.973 78.9082 78.8937 162.018 78.8937 264.163C78.8937 366.308 161.973 449.418 264.079 449.418C366.186 449.418 449.265 366.308 449.265 264.163C449.265 162.005 366.186 78.9082 264.079 78.9082Z" fill="#E9EEF1"/>
<defs>
<linearGradient id="paint0_linear_7367_130125" x1="149.168" y1="131.43" x2="233.285" y2="131.43" gradientUnits="userSpaceOnUse">
<stop stop-color="#EB00FF"/>
<stop offset="1" stop-color="#FF8A00"/>
</linearGradient>
<linearGradient id="paint1_linear_7367_130125" x1="147.117" y1="404.573" x2="233.662" y2="404.573" gradientUnits="userSpaceOnUse">
<stop stop-color="#EB00FF"/>
<stop offset="1" stop-color="#FF8A00"/>
</linearGradient>
<linearGradient id="paint2_linear_7367_130125" x1="155.787" y1="138.623" x2="236.257" y2="138.623" gradientUnits="userSpaceOnUse">
<stop stop-color="#EB00FF"/>
<stop offset="1" stop-color="#FF8A00"/>
</linearGradient>
<linearGradient id="paint3_linear_7367_130125" x1="151.037" y1="397.536" x2="232.455" y2="397.536" gradientUnits="userSpaceOnUse">
<stop stop-color="#EB00FF"/>
<stop offset="1" stop-color="#FF8A00"/>
</linearGradient>
<linearGradient id="paint4_linear_7367_130125" x1="418.822" y1="260.127" x2="430.844" y2="260.127" gradientUnits="userSpaceOnUse">
<stop stop-color="#EB00FF"/>
<stop offset="1" stop-color="#FF8A00"/>
</linearGradient>
<linearGradient id="paint5_linear_7367_130125" x1="159.369" y1="142.363" x2="236.893" y2="142.363" gradientUnits="userSpaceOnUse">
<stop stop-color="#EB00FF"/>
<stop offset="1" stop-color="#FF8A00"/>
</linearGradient>
<linearGradient id="paint6_linear_7367_130125" x1="154.762" y1="394.362" x2="233.207" y2="394.362" gradientUnits="userSpaceOnUse">
<stop stop-color="#EB00FF"/>
<stop offset="1" stop-color="#FF8A00"/>
</linearGradient>
<linearGradient id="paint7_linear_7367_130125" x1="414.213" y1="261.211" x2="425.988" y2="261.211" gradientUnits="userSpaceOnUse">
<stop stop-color="#EB00FF"/>
<stop offset="1" stop-color="#FF8A00"/>
</linearGradient>
</defs>
</svg>
