<svg width="117" height="27" viewBox="0 0 117 27" fill="none" xmlns="http://www.w3.org/2000/svg">
<path fill-rule="evenodd" clip-rule="evenodd" d="M93.7938 26.4163C98.7527 27.0058 103.764 27.0058 108.721 26.4163C111.617 26.0722 113.899 23.7898 114.244 20.8935C114.834 15.9346 114.834 10.9237 114.244 5.96591C113.899 3.07067 111.617 0.787185 108.721 0.443069C103.763 -0.146388 98.7516 -0.146388 93.7938 0.443069C90.8985 0.788247 88.6151 3.07067 88.271 5.96591C87.6815 10.9248 87.6815 15.9357 88.271 20.8935C88.6161 23.7888 90.8985 26.0722 93.7938 26.4163ZM101.258 26.2638C108.346 26.2638 114.092 20.5176 114.092 13.4293C114.092 6.34098 108.346 0.594761 101.258 0.594761C94.1693 0.594761 88.423 6.34098 88.423 13.4293C88.423 20.5176 94.1693 26.2638 101.258 26.2638Z" fill="#E9EEF1"/>
<path d="M115.568 1.11043V0.668167H115.853C115.889 0.668167 115.924 0.671349 115.96 0.677713C115.998 0.681955 116.031 0.6915 116.058 0.706348C116.088 0.721196 116.111 0.742408 116.128 0.769983C116.147 0.797558 116.156 0.834679 116.156 0.881344C116.156 0.936495 116.146 0.979979 116.125 1.0118C116.106 1.04149 116.079 1.06376 116.045 1.07861C116.012 1.09346 115.973 1.10301 115.929 1.10725C115.886 1.10937 115.841 1.11043 115.793 1.11043H115.568ZM115.353 0.493171V1.8836H115.568V1.28543H115.796L116.172 1.8836H116.403L116.008 1.26952C116.111 1.25891 116.197 1.22497 116.267 1.1677C116.336 1.10831 116.371 1.01604 116.371 0.89089C116.371 0.757256 116.331 0.657561 116.251 0.591805C116.173 0.526049 116.052 0.493171 115.887 0.493171H115.353ZM114.838 1.18361C114.838 1.04149 114.862 0.90892 114.911 0.785892C114.961 0.662864 115.03 0.556806 115.116 0.467717C115.205 0.376507 115.308 0.305448 115.426 0.25454C115.546 0.201511 115.676 0.174996 115.815 0.174996C115.952 0.174996 116.079 0.201511 116.197 0.25454C116.315 0.305448 116.417 0.376507 116.504 0.467717C116.592 0.556806 116.661 0.662864 116.709 0.785892C116.76 0.90892 116.785 1.04149 116.785 1.18361C116.785 1.32997 116.76 1.46573 116.709 1.59087C116.661 1.7139 116.592 1.82102 116.504 1.91223C116.417 2.00344 116.315 2.07556 116.197 2.12859C116.079 2.1795 115.952 2.20495 115.815 2.20495C115.676 2.20495 115.546 2.1795 115.426 2.12859C115.308 2.07556 115.205 2.00344 115.116 1.91223C115.03 1.82102 114.961 1.7139 114.911 1.59087C114.862 1.46573 114.838 1.32997 114.838 1.18361ZM114.623 1.18361C114.623 1.35543 114.655 1.51451 114.718 1.66087C114.781 1.80511 114.867 1.93132 114.974 2.0395C115.084 2.14556 115.21 2.22828 115.353 2.28768C115.499 2.34707 115.653 2.37677 115.815 2.37677C115.977 2.37677 116.13 2.34707 116.273 2.28768C116.416 2.22828 116.542 2.14556 116.649 2.0395C116.757 1.93132 116.842 1.80511 116.905 1.66087C116.968 1.51451 117 1.35543 117 1.18361C117 1.01604 116.968 0.860133 116.905 0.715893C116.842 0.571654 116.757 0.446505 116.649 0.340447C116.542 0.234389 116.416 0.151663 116.273 0.0922707C116.13 0.0307569 115.977 0 115.815 0C115.653 0 115.499 0.0307569 115.353 0.0922707C115.21 0.151663 115.084 0.234389 114.974 0.340447C114.867 0.446505 114.781 0.571654 114.718 0.715893C114.655 0.860133 114.623 1.01604 114.623 1.18361Z" fill="#E9EEF1"/>
<path d="M0 4.53076V22.0872H3.76554V14.9643H10.1921V11.8794H3.76554V7.76616H11.5979V4.53076H0Z" fill="#E9EEF1"/>
<path d="M24.212 9.19576H20.6724V15.5412C20.6724 16.745 20.4214 17.673 19.9444 18.3251C19.4423 18.9772 18.7645 19.3032 17.8859 19.3032C17.0324 19.3032 16.3797 19.0274 15.978 18.4254C15.5764 17.8235 15.3756 16.9457 15.3756 15.7669V9.19576H11.836V16.1932C11.836 18.3753 12.3129 19.9303 13.2669 20.8582C14.2208 21.7862 15.4509 22.2377 16.9571 22.2377C17.8106 22.2377 18.5637 22.0872 19.1662 21.7862C19.7687 21.4853 20.2959 21.084 20.7477 20.5322L21.0741 22.0872H24.212V9.19576Z" fill="#E9EEF1"/>
<path d="M26.0203 4.53076V22.0872H28.7315V4.53076H26.0203Z" fill="#E9EEF1"/>
<path d="M40.5519 20.9836C41.5812 20.1309 42.2339 18.9772 42.4849 17.4724H39.7235C39.5478 18.2248 39.1963 18.8267 38.644 19.2782C38.0918 19.7296 37.3889 19.9303 36.5604 19.9303C35.4559 19.9303 34.5773 19.554 33.9246 18.7515C33.2719 17.9489 32.9455 16.9206 32.9455 15.6415C32.9455 14.3874 33.2719 13.3842 33.9246 12.5816C34.5773 11.8041 35.4559 11.4029 36.5604 11.4029C37.3638 11.4029 38.0416 11.6286 38.5938 12.0549C39.1461 12.5064 39.4976 13.0833 39.6984 13.8106H42.4849C42.2339 12.3559 41.5812 11.2273 40.577 10.3745C39.5478 9.5218 38.2424 9.09543 36.6358 9.09543C35.3304 9.09543 34.2007 9.37132 33.2217 9.92309C32.2426 10.4749 31.4895 11.2273 30.9623 12.2054C30.4101 13.2087 30.159 14.3373 30.159 15.6415C30.159 16.9457 30.4101 18.0994 30.9372 19.1026C31.4644 20.1058 32.2175 20.8833 33.1966 21.4351C34.1505 21.9869 35.2802 22.2377 36.5604 22.2377C38.1671 22.2377 39.4976 21.8364 40.5519 20.9836Z" fill="#E9EEF1"/>
<path d="M50.4827 9.29608H49.9054C48.851 9.29608 48.0477 9.47164 47.4703 9.82277C46.8678 10.1739 46.3909 10.6504 46.0394 11.2273L45.7633 9.29608H43.9809V22.0872H46.0394V15.5662C46.0394 14.3624 46.2904 13.3591 46.8176 12.5315C47.3448 11.7289 48.2234 11.3025 49.4535 11.3025H50.4827V9.29608Z" fill="#E9EEF1"/>
<path d="M62.8835 9.29608H60.825V15.6916C60.825 17.1463 60.4736 18.2749 59.8209 19.1026C59.1682 19.9553 58.2394 20.3566 57.0846 20.3566C56.0051 20.3566 55.1767 20.0306 54.5993 19.3283C54.022 18.6261 53.7458 17.6228 53.7458 16.2936V9.29608H51.6873V16.419C51.6873 18.4254 52.1392 19.9052 53.068 20.8332C53.9718 21.7862 55.2018 22.2377 56.7331 22.2377C58.4904 22.2377 59.846 21.6357 60.825 20.3817L61.1012 22.0872H62.8835V9.29608Z" fill="#E9EEF1"/>
<path d="M81.8815 10.6254C81.0279 9.69737 79.8983 9.22084 78.4925 9.22084C77.3628 9.22084 76.4089 9.5218 75.6558 10.0736C74.8776 10.6504 74.3002 11.4279 73.9236 12.4061C73.6224 11.3778 73.0952 10.6003 72.3672 10.0485C71.6141 9.49672 70.7355 9.22084 69.7313 9.22084C68.7021 9.22084 67.8485 9.49672 67.1456 10.0234C66.4427 10.5501 65.9156 11.2524 65.5892 12.1051L65.3884 9.37132H64.2838V22.0872H65.539V15.6164C65.539 14.0614 65.8905 12.7823 66.6185 11.8292C67.3214 10.8762 68.3004 10.3996 69.5054 10.3996C70.635 10.3996 71.5137 10.8009 72.1413 11.5533C72.7689 12.3308 73.0952 13.4344 73.0952 14.8891V22.0872H74.3755V15.1649C74.4006 13.7103 74.7771 12.5566 75.48 11.7038C76.1829 10.8511 77.1369 10.3996 78.3419 10.3996C79.4464 10.3996 80.325 10.8009 80.9526 11.5533C81.5551 12.3308 81.8815 13.4344 81.8815 14.8891V22.0872H83.1868V14.8138C83.1868 12.9578 82.735 11.5784 81.8815 10.6254Z" fill="#E9EEF1"/>
</svg>
