<svg width="36" height="36" viewBox="0 0 36 36" fill="none" xmlns="http://www.w3.org/2000/svg">
<path fill-rule="evenodd" clip-rule="evenodd" d="M15.4813 4.26597C10.8797 5.09663 6.88152 8.31999 5.07413 12.6564C1.63947 20.8976 6.78416 30.1905 15.635 31.7321C17.6848 32.0893 18.2693 32.0893 20.3191 31.7321C26.1947 30.7087 30.7072 26.2013 31.7318 20.3325C32.0894 18.285 32.0894 17.7011 31.7318 15.6537C30.7072 9.78478 26.1947 5.27746 20.3191 4.254C18.3573 3.91216 17.4289 3.91459 15.4813 4.26597ZM19.392 11.4712C21.0654 13.2742 21.9943 15.8493 21.8745 18.3519C21.7785 20.3594 21.071 22.0039 19.6648 23.4891C18.8474 24.3524 18.6977 24.6287 18.6001 25.4511C18.4301 26.8843 17.8005 26.6038 17.7925 25.0913C17.7908 24.776 17.503 24.3352 16.9378 23.7823C13.2983 20.2206 13.3371 14.9247 17.0327 10.8053L18.0707 9.64827L18.3301 10.1274C18.473 10.3909 18.9508 10.9956 19.392 11.4712ZM18.0652 17.3322C17.9922 18.1109 17.8295 21.5551 17.9334 22.054C18.0986 22.846 18.3097 22.8729 18.3294 20.8448C18.3416 16.967 18.3165 15.936 18.2738 15.936C18.2311 15.936 18.1373 16.5644 18.0652 17.3322Z" fill="#E9EEF1"/>
</svg>
