<svg width="36" height="36" viewBox="0 0 36 36" fill="none" xmlns="http://www.w3.org/2000/svg">
<path fill-rule="evenodd" clip-rule="evenodd" d="M8.23592 25.6534C8.23913 25.6796 8.24188 25.7019 8.2439 25.7215C8.3334 29.2299 8.91581 31.2449 9.82856 32.4994C10.8756 33.955 12.1805 34.3406 13.6475 34.6446C17.4217 35.4267 18.2169 33.0695 18.6594 31.7443C18.6681 31.7206 18.6762 31.698 18.6842 31.6759C18.7017 31.6272 18.7183 31.5812 18.7375 31.5326C18.9279 31.0277 19.0511 30.3921 19.1352 29.6752C19.2137 28.9911 19.2526 28.2851 19.281 27.5734C19.2873 27.4545 19.2918 27.3065 19.2967 27.1462C19.3002 27.0287 19.304 26.9046 19.3088 26.7806C19.3142 26.5743 19.3032 26.3787 19.2864 26.1996C19.7047 26.3798 20.145 26.5076 20.5967 26.5798C21.7503 26.7697 22.7864 26.5907 23.408 26.4384C23.9286 26.3137 24.5892 26.0203 24.9981 25.6454C25.0653 25.5857 25.1323 25.5152 25.1885 25.45C25.5355 25.727 25.8939 25.9224 26.258 26.0474C27.6128 26.52 28.8058 26.0258 29.8415 24.9069C30.5921 24.1032 31.2641 22.9194 31.8577 21.5561C33.5712 17.6133 34.7023 11.927 34.7749 10.5257C35.3796 -1.19464 24.5105 1.60771 21.5486 2.58544C21.0286 2.28513 20.4716 2.04975 19.8908 1.8849C19.0844 1.65153 18.1888 1.52635 17.1976 1.54271C16.6936 1.54816 16.1951 1.58087 15.6912 1.62972C15.3422 1.66633 14.9948 1.71522 14.6496 1.77629C13.44 1.43955 10.6066 0.836722 7.76202 1.49385C5.8133 1.94466 3.81983 2.94399 2.20706 4.93719C1.1432 6.2569 1.15422 9.26012 2.13983 12.7144C2.85087 15.2127 4.0492 18.0314 5.67883 20.6545C5.31477 20.5677 4.73798 20.4483 3.82523 20.2636C3.11419 20.1223 2.55966 20.1711 2.15647 20.3613C1.45667 20.6872 1.15422 21.2248 1.2046 21.9255C1.22708 22.2841 1.3782 22.6372 1.62465 22.9737C2.03346 23.5113 2.92373 24.1903 3.98218 24.6681C4.49736 24.8962 5.16365 25.0755 5.85243 25.1896C6.54682 25.3034 7.26932 25.3523 7.89086 25.3252H7.95248L8.19331 25.3034C8.19893 25.3577 8.20455 25.4121 8.2158 25.4718C8.223 25.5482 8.23019 25.6068 8.23592 25.6534ZM8.31153 20.964C8.94431 21.138 9.85143 21.4584 9.75631 23.2396C9.80106 23.7668 9.96904 25.2492 10.1593 26.6939C10.3162 27.8777 10.4842 29.0725 10.6018 29.7568C10.7698 30.691 11.0329 31.3644 11.5089 31.8371C11.9794 32.3151 12.696 32.6299 13.7545 32.8525C14.9639 33.1025 15.7255 32.858 16.2182 32.4508C16.7277 32.0325 16.9967 31.4297 17.1646 31.0225C17.3214 30.6314 17.439 29.5887 17.5062 28.1929C17.5732 26.7916 17.5845 25.0699 17.5454 23.3266C17.5449 23.2986 17.5445 23.2708 17.544 23.2431C17.538 22.9007 17.5325 22.5829 17.6517 22.2512C17.7974 21.8656 18.0549 21.518 18.374 21.2953C18.6708 21.089 19.0963 20.9478 19.4604 20.9803C19.5283 20.9862 19.5956 20.997 19.6618 21.0128C19.5998 20.7742 19.5107 20.5142 19.4093 20.2381C19.2823 19.8914 19.2518 19.7876 19.2137 19.6867C19.1686 19.5669 19.1129 19.4511 18.8728 18.9383C18.2676 17.6295 17.495 15.9567 18.3571 12.0734C18.6036 10.9873 19.2308 10.417 20.0203 10.1779C20.5244 10.0261 21.0844 10.0152 21.6387 10.0966C22.1707 10.1781 22.7027 10.3358 23.1727 10.5203C23.4676 10.6394 23.7523 10.781 24.0241 10.9439C23.8395 8.6737 22.8201 3.27532 17.2263 3.36758C12.5897 3.43824 9.9859 6.38716 8.78714 8.49967C8.48469 9.02638 8.27759 9.49899 8.14874 9.85733L8.14749 9.86042C8.13687 9.88665 8.12626 9.91287 8.12085 9.9389C10.8591 9.66191 11.9567 10.5853 12.1863 11.981C12.511 13.9417 10.8647 16.8038 10.0304 18.2539C10.0111 18.2877 9.99219 18.3207 9.97377 18.3528C9.80567 18.6462 9.67827 18.8685 9.63287 18.9762C9.30275 19.7527 8.89372 20.2526 8.56901 20.6381C8.54824 20.664 8.52793 20.6891 8.50818 20.7135C8.43236 20.8073 8.36487 20.8908 8.31153 20.964ZM20.278 22.7674C20.8716 23.5007 21.0567 23.7231 22.8988 24.0926C23.2289 24.1576 23.4533 24.2283 23.5876 24.2935C23.4196 24.4075 23.1619 24.5107 22.9382 24.5652C22.4842 24.6738 21.7284 24.8095 20.9278 24.6738C20.1383 24.5434 19.2926 24.1526 18.6038 23.2237C18.4635 23.0337 18.4918 22.7731 18.5645 22.5611C18.6429 22.3548 18.7772 22.1701 18.9339 22.0614C19.0518 21.9799 19.2422 21.9092 19.3765 21.9201C19.4593 21.9252 19.5372 21.9601 19.5948 22.018C19.8373 22.2548 20.0654 22.5051 20.278 22.7674ZM23.8565 20.2962C23.7229 20.4364 23.5807 20.5688 23.4309 20.6927C24.3291 21.6202 25.1974 22.5746 26.0344 23.5546C26.3427 23.9131 26.6337 24.1303 26.9026 24.2228C27.3953 24.3966 27.9049 24.1358 28.4032 23.5982C29.0022 22.952 29.5682 21.9472 30.0774 20.774C31.7014 17.0428 32.7708 11.6933 32.8381 10.3845C33.2975 1.41233 24.8808 3.40553 22.2773 4.23649C25.1608 6.98474 25.0324 11.8998 25.0265 11.9378C25.0315 12.0393 25.0241 12.1646 25.0147 12.3234C25.0131 12.3513 25.0114 12.3802 25.0097 12.4102C24.9593 13.1759 24.8698 14.6479 25.105 16.2825C25.1646 16.6801 25.1739 17.0832 25.1329 17.4829C25.0265 18.5745 24.5561 19.552 23.8565 20.2962ZM7.94184 8.04928C8.84897 6.44146 10.5065 4.39417 13.144 3.26442C11.8784 3.01448 9.84019 2.79726 7.79635 3.36779C6.35697 3.7752 4.9124 4.57344 3.73093 6.03448C3.04778 6.88703 3.17662 9.25514 4.00527 12.1606C4.72194 14.686 5.97626 17.5699 7.69539 20.1932C7.73346 20.151 7.77173 20.1034 7.80981 20.0561L7.813 20.0521C7.82964 20.0357 7.84651 20.0139 7.86337 19.9921C6.86674 18.4063 7.05699 16.8748 7.23621 15.4356C7.30906 14.8707 7.3763 14.3277 7.35943 13.8117C7.33796 13.2929 7.27072 12.8484 7.20614 12.4215C7.20311 12.4015 7.20009 12.3815 7.19708 12.3615C7.10174 11.7857 7.01764 11.2372 7.04012 10.5692C7.04012 10.5611 7.03878 10.553 7.03743 10.5449C7.03608 10.5367 7.03472 10.5285 7.03472 10.5203C7.00661 10.3629 7.06823 10.0043 7.23621 9.54827C7.42688 9.02999 7.66296 8.52849 7.94184 8.04928ZM24.048 12.2096C24.0529 12.1171 24.0578 12.0247 24.0578 11.9323C24.0524 11.9105 23.515 11.6717 22.8087 11.389C22.3999 11.2316 21.9463 11.0905 21.4984 11.0252C21.0727 10.9653 20.6585 10.9653 20.3059 11.0741C19.8411 11.2152 19.4601 11.5738 19.309 12.2688C18.5085 15.859 19.2081 17.3686 19.757 18.5527C20.0365 19.1492 20.1201 19.379 20.2255 19.6687C20.2514 19.7397 20.2785 19.8143 20.3102 19.8988C20.4271 20.2104 20.5294 20.5081 20.6025 20.7956L20.6129 20.7952C20.7554 20.7899 20.9028 20.7844 21.045 20.7631C21.8516 20.6543 22.5851 20.2526 23.1394 19.6606C23.729 19.0353 24.091 18.2398 24.1698 17.3959C24.2035 17.081 24.1975 16.7497 24.1473 16.4129C23.8952 14.6697 23.9908 13.1434 24.0409 12.3559C24.0428 12.3071 24.0454 12.2583 24.048 12.2096ZM20.0203 11.6987C20.3422 11.5308 20.8282 11.467 21.1853 11.5413C21.4346 11.6016 21.5409 11.7197 21.5489 11.8608C21.5569 12.0019 21.4657 12.1659 21.3196 12.3179C21.1685 12.4699 20.9555 12.6058 20.7149 12.6383H20.7091C20.4628 12.671 20.233 12.5894 20.065 12.4808C19.886 12.3613 19.7682 12.1984 19.7518 12.0843C19.7349 11.9378 19.8357 11.8019 20.0203 11.6987ZM11.2346 12.1279C11.0835 11.21 10.2267 10.6233 8.00929 10.8896C8.0147 11.362 8.08193 11.7857 8.15501 12.2254C8.15749 12.2416 8.15998 12.2578 8.16247 12.274C8.23294 12.7319 8.30689 13.2125 8.32861 13.7842C8.34493 14.3434 8.27541 14.9183 8.20402 15.5088L8.19976 15.544C8.05426 16.7063 7.90315 17.9337 8.48534 19.1285C8.57484 18.9764 8.65894 18.8026 8.74282 18.6179C8.81568 18.4497 8.97263 18.1673 9.18536 17.8033C9.96904 16.4402 11.5035 13.768 11.2346 12.1279ZM7.822 21.8039C7.79171 21.7953 7.76241 21.7871 7.73474 21.7788C6.5938 22.6143 4.68544 22.2695 3.42365 22.0416L3.41184 22.0394C3.71407 22.3219 4.20676 22.6423 4.79479 22.9085C5.36618 23.1635 6.26206 23.3375 7.10195 23.3862C7.58362 23.4082 8.03718 23.3973 8.37876 23.3266C8.59711 23.2885 8.74261 23.2451 8.78757 23.2017C8.84331 22.088 8.31645 21.943 7.98026 21.8505L7.97557 21.8493C7.92355 21.8325 7.87145 21.8178 7.822 21.8039ZM9.11769 11.9487C8.97782 11.8073 8.89372 11.639 8.91058 11.5413C8.92766 11.4272 9.03943 11.3458 9.2126 11.3077C9.36371 11.2695 9.56542 11.2641 9.77815 11.2913C9.99109 11.3238 10.1813 11.3836 10.3158 11.4542C10.4771 11.5438 10.5422 11.6444 10.5404 11.7446C10.5378 11.8912 10.3919 12.0369 10.1928 12.1441C10.0237 12.2324 9.85446 12.264 9.69232 12.2464C9.48391 12.2238 9.28718 12.1196 9.11769 11.9487ZM3.63581 21.1271C6.17256 21.6377 6.92857 21.3173 7.15254 21.1108C5.24295 18.2975 3.85416 15.1475 3.07588 12.4097C2.16875 9.22725 2.0959 6.54421 2.96952 5.45807C4.2967 3.81797 5.91508 2.92181 7.52763 2.471C9.96904 1.78682 12.3769 2.12335 13.6929 2.42214C13.7169 2.42732 13.7396 2.43218 13.7611 2.4368C13.8304 2.45163 13.8881 2.46398 13.9393 2.47645C13.9674 2.48735 14.4658 2.62322 14.8186 2.71548C15.5521 2.54145 16.3529 2.43829 17.2096 2.42759C18.9789 2.40055 20.3454 2.835 21.4039 3.53553C23.1844 2.89476 34.3782 -0.695144 33.8072 10.4277C33.7342 11.7801 32.6368 17.3034 30.9681 21.1378C30.4137 22.4085 29.7976 23.5003 29.1259 24.2281C28.3533 25.0536 27.5073 25.4282 26.5835 25.1079C26.147 24.9558 25.7099 24.6516 25.2903 24.1574C24.1084 22.7779 23.0279 21.6429 22.6247 21.2301C22.1747 21.465 21.6856 21.6213 21.1797 21.6916C21.0219 21.7128 20.8631 21.7255 20.7039 21.7297C20.7039 21.7515 20.7039 21.7731 20.6985 21.7949C20.8166 21.9217 20.9306 22.0521 21.04 22.186C21.4655 22.7129 21.5997 22.8758 23.0895 23.1744C23.7612 23.3103 24.1644 23.4894 24.3827 23.6904C24.6123 23.8968 24.685 24.1301 24.6517 24.3694C24.618 24.5757 24.506 24.7546 24.338 24.9068C24.0524 25.1674 23.5651 25.3794 23.173 25.4771C22.6355 25.6075 21.7394 25.765 20.7599 25.6023C20.0205 25.4771 19.2424 25.1731 18.5368 24.5539C18.5478 25.8793 18.5253 27.1556 18.4752 28.2363C18.4025 29.7191 18.2679 30.8759 18.0607 31.3699C17.8534 31.8696 17.5287 32.6137 16.8456 33.1731C16.1514 33.7382 15.1208 34.0966 13.553 33.7707C12.2987 33.5099 11.4309 33.1134 10.8091 32.489C10.1874 31.8645 9.85165 31.0388 9.64995 29.9147C9.53256 29.2522 9.35896 28.0356 9.20201 26.8081C9.07337 25.8304 8.95555 24.8638 8.87729 24.1742C8.78195 24.2012 8.67559 24.2283 8.56922 24.2501C8.13814 24.3314 7.6061 24.3532 7.0518 24.3262C6.10533 24.2719 5.06935 24.0653 4.39182 23.7613C3.47907 23.3485 2.73452 22.7945 2.40959 22.36C2.2695 22.1696 2.18562 21.9851 2.17438 21.8058C2.15189 21.5127 2.28074 21.29 2.57195 21.1544C2.79592 21.0512 3.14312 21.0294 3.63581 21.1271Z" fill="#E9EEF1"/>
</svg>
