<svg width="36" height="36" viewBox="0 0 36 36" fill="none" xmlns="http://www.w3.org/2000/svg">
<g clip-path="url(#clip0_6613_106282)">
<path d="M24.9442 24.0502C26.2727 23.9117 27.2805 22.7578 27.2347 21.3729C27.189 19.9882 26.0436 18.8804 24.6693 18.8804H24.5777C23.1574 18.9266 22.058 20.1267 22.1039 21.5575C22.1497 22.25 22.4245 22.85 22.8368 23.2654C21.2792 26.3582 18.897 28.6199 15.3238 30.5124C12.8957 31.8049 10.3762 32.2665 7.85658 31.9435C5.79501 31.6665 4.19161 30.7434 3.18361 29.22C1.71773 26.9582 1.58034 24.5117 2.81728 22.0654C3.68775 20.3113 5.06194 19.0188 5.9324 18.3726C5.74917 17.7725 5.47425 16.7571 5.33686 16.0186C-1.30585 20.8653 -0.618611 27.4198 1.39711 30.5124C2.90883 32.8205 5.97825 34.2514 9.3683 34.2514C10.2845 34.2514 11.2006 34.159 12.117 33.9283C17.9809 32.7743 22.4246 29.2661 24.9442 24.0502ZM33.0071 18.3265C29.5253 14.2183 24.3945 11.9566 18.5306 11.9566H17.7976C17.3853 11.1257 16.5149 10.5717 15.5528 10.5717H15.4612C14.0411 10.6179 12.9417 11.818 12.9874 13.249C13.0333 14.6337 14.1785 15.7416 15.5528 15.7416H15.6444C16.6522 15.6954 17.5227 15.0492 17.8892 14.1721H18.7138C22.1955 14.1721 25.4939 15.1876 28.4718 17.1725C30.7623 18.6958 32.4115 20.6806 33.3277 23.0808C34.1065 25.0195 34.0606 26.912 33.236 28.5277C31.9534 30.974 29.8003 32.3127 26.9599 32.3127C25.1274 32.3127 23.3866 31.7587 22.4703 31.3433C21.9665 31.8049 21.0502 32.5434 20.4088 33.0051C22.3788 33.9282 24.3945 34.436 26.3185 34.436C30.7164 34.436 33.9691 31.9895 35.206 29.5431C36.5345 26.8658 36.4428 22.25 33.0071 18.3265ZM9.73476 24.8348C9.78061 26.2196 10.9259 27.3273 12.3002 27.3273H12.3919C13.812 27.2813 14.9115 26.081 14.8656 24.6501C14.8199 23.2653 13.6745 22.1576 12.3002 22.1576H12.2086C12.117 22.1576 11.9794 22.1576 11.888 22.2036C10.0097 19.0649 9.2309 15.6492 9.50583 11.9564C9.68892 9.18689 10.6052 6.78657 12.2086 4.80169C13.5371 3.0938 16.1025 2.26294 17.8435 2.2169C22.6994 2.12452 24.7608 8.21747 24.8984 10.664C25.4939 10.8024 26.5018 11.1256 27.189 11.3564C26.6392 3.87874 22.058 0.00134277 17.6602 0.00134277C13.5371 0.00134277 9.73476 3.0017 8.2229 7.43295C6.11564 13.3413 7.48997 19.0188 10.0554 23.4962C9.82645 23.8193 9.68892 24.327 9.73476 24.8348Z" fill="#E9EEF1"/>
</g>
<defs>
<clipPath id="clip0_6613_106282">
<rect width="36" height="36" fill="white"/>
</clipPath>
</defs>
</svg>
