<svg width="36" height="36" viewBox="0 0 36 36" fill="none" xmlns="http://www.w3.org/2000/svg">
<path fill-rule="evenodd" clip-rule="evenodd" d="M35.0015 18.3099C35.0015 15.8921 33.8304 13.9844 31.5921 13.9844C29.3444 13.9844 27.9844 15.8921 27.9844 18.291C27.9844 21.1338 29.5899 22.5693 31.8943 22.5693C33.0182 22.5693 33.8682 22.3143 34.5104 21.9554V20.0665C33.8682 20.3877 33.1315 20.586 32.1966 20.586C31.2805 20.586 30.4682 20.2649 30.3644 19.1504H34.9826C34.9826 19.0277 35.0015 18.5366 35.0015 18.3099ZM30.336 17.4127C30.336 16.3455 30.9877 15.9016 31.5827 15.9016C32.1588 15.9016 32.7727 16.3455 32.7727 17.4127H30.336Z" fill="#E9EEF1"/>
<path fill-rule="evenodd" clip-rule="evenodd" d="M24.3368 13.9844C23.4112 13.9844 22.8162 14.4188 22.4857 14.721L22.3629 14.1355H20.2852V25.1476L22.6462 24.6471L22.6557 21.9743C22.9957 22.2199 23.4962 22.5693 24.3273 22.5693C26.0179 22.5693 27.5573 21.2093 27.5573 18.2154C27.5479 15.4766 25.9896 13.9844 24.3368 13.9844ZM23.7701 20.4915C23.2129 20.4915 22.8824 20.2932 22.6557 20.0477L22.6462 16.5438C22.8918 16.2699 23.2318 16.081 23.7701 16.081C24.6296 16.081 25.2246 17.0443 25.2246 18.2816C25.2246 19.5471 24.639 20.4915 23.7701 20.4915Z" fill="#E9EEF1"/>
<path fill-rule="evenodd" clip-rule="evenodd" d="M17.0352 13.4272L19.4057 12.9172V11L17.0352 11.5006V13.4272Z" fill="#E9EEF1"/>
<path d="M19.4057 14.1449H17.0352V22.4087H19.4057V14.1449Z" fill="#E9EEF1"/>
<path fill-rule="evenodd" clip-rule="evenodd" d="M14.4977 14.8439L14.3466 14.145H12.3066V22.4088H14.6677V16.8083C15.2249 16.0811 16.1694 16.2133 16.4622 16.3172V14.145C16.1599 14.0317 15.0549 13.8239 14.4977 14.8439Z" fill="#E9EEF1"/>
<path fill-rule="evenodd" clip-rule="evenodd" d="M9.77481 12.0956L7.47038 12.5867L7.46094 20.1516C7.46094 21.5494 8.50926 22.5788 9.90703 22.5788C10.6815 22.5788 11.2481 22.4372 11.5598 22.2672V20.35C11.2576 20.4727 9.76536 20.9072 9.76536 19.5094V16.1567H11.5598V14.145H9.76536L9.77481 12.0956Z" fill="#E9EEF1"/>
<path fill-rule="evenodd" clip-rule="evenodd" d="M3.38942 16.5439C3.38942 16.1756 3.69164 16.0339 4.19219 16.0339C4.90997 16.0339 5.81662 16.2511 6.5344 16.6384V14.4189C5.75051 14.1073 4.97608 13.9845 4.19219 13.9845C2.27499 13.9845 1 14.9856 1 16.6573C1 19.2639 4.58886 18.8483 4.58886 19.9722C4.58886 20.4067 4.21108 20.5483 3.6822 20.5483C2.89832 20.5483 1.89721 20.2272 1.10389 19.7928V22.0405C1.98221 22.4183 2.86998 22.5789 3.6822 22.5789C5.64663 22.5789 6.99717 21.6061 6.99717 19.9156C6.98773 17.1011 3.38942 17.6017 3.38942 16.5439Z" fill="#E9EEF1"/>
</svg>
