<svg width="36" height="36" viewBox="0 0 36 36" fill="none" xmlns="http://www.w3.org/2000/svg">
<path d="M27.233 24.8356C29.9536 23.6619 32.6079 22.5169 33.4818 22.0597C34.112 21.7299 34.5124 21.4507 34.6908 21.1992C34.7299 21.2122 34.7659 21.2248 34.7989 21.2369L34.7981 24.598C34.7983 24.935 34.3951 25.3047 33.4825 25.7822C32.6081 26.2397 29.9515 27.3857 27.2295 28.5599C24.3691 29.7939 21.4364 31.059 20.4231 31.5893C18.4456 32.6244 17.347 32.6143 15.7848 31.8647C15.0291 31.502 12.3254 30.3766 9.5339 29.2147C6.55519 27.9749 3.47637 26.6934 2.55717 26.2523C1.66731 25.8254 1.19928 25.4649 1.19928 25.1245V21.7151C1.19928 21.7151 1.23818 21.7066 1.31205 21.6905C1.49806 21.947 1.9139 22.221 2.55754 22.5298C3.47731 22.9709 6.5596 24.2539 9.54012 25.4946C12.3294 26.6556 15.0295 27.7796 15.7848 28.1417C17.3469 28.8914 18.4454 28.9016 20.4228 27.8668C21.4365 27.3361 24.3714 26.07 27.233 24.8356Z" fill="#E9EEF1"/>
<path d="M27.2329 19.6533C29.9535 18.4796 32.6078 17.3346 33.4817 16.8774C34.3696 16.4128 34.8013 16.0484 34.7988 15.7209C34.7988 15.7209 34.7988 15.7209 34.7988 15.7209L34.798 19.0824C34.7983 19.4193 34.3951 19.789 33.4824 20.2664C32.6084 20.7238 29.9534 21.8692 27.2323 23.0431C24.371 24.2774 21.4366 25.5433 20.423 26.074C18.4455 27.1086 17.347 27.0986 15.7847 26.3489C15.0298 25.9869 12.3316 24.8637 9.5436 23.7032C6.56186 22.462 3.47733 21.1781 2.55711 20.7365C1.66725 20.3097 1.19922 19.9497 1.19922 19.6091V16.2049C1.19935 16.5491 1.65398 16.914 2.55748 17.3475C3.47725 17.7886 6.55954 19.0716 9.54006 20.3123C12.3293 21.4733 15.0295 22.5973 15.7847 22.9594C17.3468 23.7091 18.4454 23.7193 20.4228 22.6845C21.4365 22.1538 24.3714 20.8877 27.2329 19.6533Z" fill="#E9EEF1"/>
<path d="M1.19922 16.2049C1.19922 16.2031 1.19923 16.2011 1.19925 16.1994L1.19922 16.2049Z" fill="#E9EEF1"/>
<path fill-rule="evenodd" clip-rule="evenodd" d="M1.19962 10.4994C1.18534 10.1592 1.61326 9.83984 2.4887 9.49563L2.96368 9.30885C5.56341 8.28639 14.2121 4.88488 16.1458 4.18839C18.2232 3.44015 18.9438 3.41328 20.7118 4.06349C21.5988 4.3897 24.3648 5.48079 27.1217 6.56831L27.1222 6.56848C29.8602 7.64854 32.5894 8.72513 33.4599 9.04529C34.3426 9.36975 34.7966 9.66548 34.7988 9.99959L34.7992 9.99975L34.7984 13.3611C34.7987 13.6977 34.3955 14.0674 33.4828 14.5451C32.6091 15.0021 29.9559 16.1467 27.236 17.3201C24.3737 18.555 21.4374 19.8217 20.4234 20.3526C18.4459 21.3874 17.3474 21.3772 15.7851 20.6275C15.0296 20.2652 12.3276 19.1405 9.53716 17.9789L9.53668 17.9787C6.55729 16.7386 3.47695 15.4564 2.55752 15.0154C1.66765 14.5881 1.19962 14.228 1.19962 13.8879V10.4994ZM21.7059 7.8393L18.8171 8.14036L18.1705 9.70246L17.126 7.95933L13.7903 7.6584L16.2793 6.75733L15.5325 5.37416L17.8628 6.28907L20.0597 5.56705L19.4659 6.99725L21.7059 7.8393ZM17.998 15.4176L12.6067 13.1729L20.332 11.9825L17.998 15.4176ZM10.5234 8.70757C12.8039 8.70757 14.6525 9.42695 14.6525 10.3142C14.6525 11.2017 12.8039 11.921 10.5234 11.921C8.24298 11.921 6.39435 11.2016 6.39435 10.3142C6.39435 9.42695 8.24298 8.70757 10.5234 8.70757ZM25.12 8.26598L29.6922 10.0797L25.124 11.8918L24.6283 12.0864L20.062 10.2745L25.12 8.26598Z" fill="#E9EEF1"/>
</svg>
