<svg width="36" height="36" viewBox="0 0 36 36" fill="none" xmlns="http://www.w3.org/2000/svg">
<path d="M1.80078 17.701V33.601H33.6018V1.79999H1.80078V17.701ZM27.4281 16.434C28.2355 16.6357 28.8517 16.9944 29.4171 17.5797C29.7103 17.8928 30.144 18.4632 30.1793 18.5993C30.1892 18.6391 28.8064 19.5682 27.9682 20.0885C27.9384 20.1083 27.8167 19.9777 27.68 19.7754C27.2711 19.1792 26.8423 18.9223 26.1859 18.8771C25.222 18.8115 24.5959 19.3163 24.6059 20.159C24.6059 20.4065 24.6406 20.5525 24.742 20.7553C24.9542 21.1945 25.3482 21.4569 26.5844 21.9925C28.8611 22.9713 29.835 23.6173 30.4402 24.5365C31.1159 25.561 31.268 27.1968 30.8088 28.4131C30.304 29.7358 29.0524 30.6341 27.291 30.9323C26.7459 31.0282 25.4535 31.0133 24.8682 30.9074C23.5912 30.6803 22.3799 30.0493 21.6326 29.2215C21.3394 28.8986 20.7695 28.0554 20.8048 27.9942C20.8197 27.9744 20.9513 27.8934 21.0979 27.8074L22.279 27.1267L23.1932 26.5965L23.385 26.8798C23.6523 27.2887 24.2382 27.8487 24.5914 28.0355C25.6061 28.5706 26.9993 28.4946 27.6855 27.879C27.9786 27.6117 28.0994 27.3339 28.0994 26.925C28.0994 26.5563 28.0547 26.3948 27.8624 26.1175C27.6149 25.7648 27.1101 25.4666 25.6761 24.8455C24.0354 24.139 23.3289 23.6998 22.6829 23.0031C22.3093 22.5992 21.956 21.9532 21.8094 21.4131C21.6882 20.964 21.6579 19.838 21.7538 19.3839C22.0917 17.7939 23.2881 16.6933 25.0148 16.3654C25.5753 16.2595 26.8781 16.2998 27.4276 16.4359L27.4281 16.434ZM19.9626 17.7606L19.9725 19.0624H15.8335V30.8234H12.9059V19.0624H8.76697V17.7854L8.80175 16.4737C8.81666 16.4538 11.3358 16.4439 14.3896 16.4489L19.9472 16.4638L19.9626 17.7606Z" fill="#E9EEF1"/>
</svg>
