<svg width="36" height="36" viewBox="0 0 36 36" fill="none" xmlns="http://www.w3.org/2000/svg">
<path fill-rule="evenodd" clip-rule="evenodd" d="M20.9833 1.20001C20.7403 1.20001 20.5147 1.25228 20.3065 1.32197C20.749 1.61816 20.992 2.01018 21.1134 2.45446C21.1221 2.51544 21.1395 2.55899 21.1482 2.61997C21.1569 2.67224 21.1655 2.72451 21.1655 2.77678C21.2002 3.54338 20.9659 3.63921 20.8011 4.0922C20.5494 4.67587 20.6188 5.30309 20.9225 5.80835C20.9486 5.86933 20.9833 5.93902 21.0267 6C20.6969 3.79601 22.5278 3.46498 22.8662 2.77678C22.8923 2.17569 22.3977 1.77497 22.0072 1.4962C21.6341 1.2697 21.2957 1.20001 20.9833 1.20001ZM23.7426 1.69656C23.7079 1.89692 23.7339 1.84466 23.7253 1.94919C23.7166 2.01888 23.7166 2.106 23.708 2.17569C23.6906 2.24538 23.6732 2.31507 23.6472 2.38477C23.6299 2.45446 23.6038 2.52415 23.5778 2.59384C23.5431 2.66353 23.5171 2.72451 23.4824 2.7942C23.4563 2.82906 23.439 2.86389 23.4129 2.89874C23.3956 2.92487 23.3782 2.95101 23.3609 2.97714C23.3175 3.03812 23.2741 3.0991 23.2307 3.15137C23.1786 3.20364 23.1353 3.26462 23.0745 3.30818V3.3169C23.0225 3.36046 22.9704 3.41273 22.9097 3.45628C22.7274 3.59566 22.5192 3.7002 22.3283 3.83087C22.2675 3.87443 22.2068 3.90928 22.1547 3.96154C22.094 4.0051 22.0419 4.04866 21.9899 4.10092C21.9291 4.15319 21.8857 4.20546 21.8337 4.26644C21.7903 4.31871 21.7382 4.37969 21.7035 4.44067C21.6601 4.50165 21.6167 4.56263 21.582 4.62361C21.5473 4.6933 21.5213 4.75428 21.4866 4.82397C21.4606 4.89366 21.4345 4.95464 21.4172 5.02433C21.3911 5.10274 21.3738 5.17243 21.3564 5.24212C21.3477 5.27698 21.3477 5.32052 21.3391 5.35537C21.3304 5.39023 21.3304 5.42506 21.3217 5.45991C21.3217 5.5296 21.3131 5.608 21.3131 5.67769C21.3131 5.72996 21.3131 5.78223 21.3217 5.8345C21.3217 5.90419 21.3304 5.97388 21.3478 6.05228C21.3565 6.12197 21.3738 6.19166 21.3912 6.26136C21.4172 6.33105 21.4345 6.40074 21.4606 6.47043C21.4779 6.51399 21.504 6.55755 21.5213 6.59239L19.5256 5.81707C19.1871 5.72125 18.8574 5.63414 18.519 5.55573C18.3368 5.51218 18.1546 5.46862 17.9723 5.42506C17.4517 5.32052 16.9224 5.24212 16.3931 5.18986C16.3757 5.18986 16.367 5.18113 16.3497 5.18113C15.829 5.12886 15.3171 5.10273 14.7965 5.10273C14.4147 5.10273 14.0329 5.12014 13.6597 5.14628C13.1304 5.18114 12.6011 5.25082 12.0718 5.33793C11.9416 5.35534 11.8115 5.3815 11.6813 5.40763C11.4123 5.45989 11.152 5.52088 10.9004 5.58186C10.7702 5.61672 10.64 5.65155 10.5099 5.68639C10.3797 5.73866 10.2583 5.79964 10.1368 5.85191C10.0413 5.89547 9.94587 5.93902 9.85042 5.98258C9.83308 5.99131 9.8157 5.99131 9.80704 5.99999C9.72026 6.04355 9.64217 6.07839 9.56407 6.12195C9.53804 6.13067 9.52068 6.13936 9.50333 6.14809C9.40788 6.19164 9.31243 6.24391 9.23434 6.28747C9.17359 6.3136 9.11286 6.34845 9.06079 6.37458C9.03476 6.39199 9.00005 6.40944 8.9827 6.41814C8.9046 6.46169 8.8265 6.50525 8.75709 6.54881C8.67899 6.59237 8.60957 6.63592 8.54883 6.67948C8.48809 6.72304 8.42735 6.75788 8.37529 6.80144C8.36659 6.81016 8.35795 6.81016 8.34926 6.81885C8.29719 6.85371 8.23645 6.89725 8.18439 6.94081C8.18439 6.94081 8.1757 6.94954 8.16705 6.95822C8.12366 6.99308 8.08027 7.02791 8.03689 7.06275C8.01955 7.07148 8.00217 7.08889 7.98482 7.09761C7.94144 7.13248 7.89805 7.17602 7.85467 7.21086C7.84598 7.22827 7.82864 7.237 7.81995 7.24573C7.76788 7.29799 7.71582 7.34155 7.66375 7.39382C7.65506 7.39382 7.65506 7.40255 7.64641 7.41123C7.59435 7.45478 7.54229 7.50705 7.49022 7.55932C7.48153 7.56805 7.48153 7.57673 7.47288 7.57673C7.4295 7.62029 7.38611 7.66385 7.34272 7.71611C7.32538 7.73352 7.29934 7.75097 7.28198 7.76838C7.2386 7.82065 7.18653 7.87292 7.13447 7.92519C7.12578 7.9426 7.10844 7.95132 7.09975 7.96874C7.03033 8.03844 6.96959 8.10813 6.90017 8.17782C6.89148 8.18655 6.88283 8.19523 6.87414 8.20395C6.7353 8.35205 6.58779 8.50014 6.4316 8.63081C6.27541 8.77019 6.11054 8.90087 5.94567 9.01411C5.77213 9.13608 5.60726 9.24061 5.42504 9.34515C5.25149 9.44097 5.06927 9.52809 4.87837 9.60649C4.69615 9.68489 4.50525 9.75459 4.31435 9.81556C3.9499 9.89396 3.57678 10.0421 3.25572 10.0682C3.18631 10.0682 3.10821 10.0856 3.03879 10.0943C2.9607 10.1117 2.89128 10.1292 2.82186 10.1466C2.75245 10.1727 2.68303 10.1989 2.61361 10.225C2.54419 10.2511 2.47477 10.286 2.40536 10.3208C2.34462 10.3644 2.2752 10.3992 2.21446 10.4428C2.15372 10.4863 2.09297 10.5386 2.04091 10.5909C1.98017 10.6344 1.91943 10.6954 1.86737 10.7477C1.8153 10.8087 1.76324 10.8609 1.71985 10.9219C1.67647 10.9916 1.6244 11.0526 1.58969 11.1223C1.54631 11.1833 1.50292 11.2529 1.46821 11.3226C1.43349 11.401 1.39879 11.4707 1.37276 11.5491C1.34673 11.6188 1.3207 11.6972 1.29467 11.7756C1.27733 11.8453 1.25994 11.915 1.25128 11.9847C1.25128 11.9934 1.24259 12.0021 1.24259 12.0108C1.22525 12.0892 1.22525 12.1938 1.21656 12.2461C1.20787 12.307 1.19922 12.3593 1.19922 12.4203C1.19922 12.4551 1.19922 12.4987 1.20791 12.5335C1.2166 12.5945 1.22525 12.6468 1.24263 12.699C1.25997 12.7513 1.27735 12.8036 1.30337 12.8558V12.8646C1.3294 12.9168 1.36411 12.9691 1.39882 13.0214C1.43354 13.0737 1.46824 13.1259 1.51163 13.1782C1.55501 13.2217 1.60708 13.274 1.65914 13.3176C1.7112 13.3698 1.76327 13.4134 1.824 13.457C2.03226 13.6399 2.08432 13.7009 2.35332 13.8403C2.3967 13.8664 2.44009 13.8838 2.49216 13.9099C2.50085 13.9099 2.5095 13.9187 2.51819 13.9187C2.51819 13.9361 2.51819 13.9448 2.52688 13.9622C2.53557 14.0319 2.55291 14.1016 2.57026 14.1713C2.58761 14.2497 2.61365 14.3194 2.63969 14.3804C2.66572 14.4326 2.68307 14.4849 2.7091 14.5372C2.71779 14.5546 2.72644 14.572 2.73513 14.5807C2.76986 14.6504 2.80455 14.7114 2.83926 14.7724C2.88265 14.8334 2.92603 14.8944 2.96942 14.9553C3.0128 15.0076 3.06487 15.0686 3.11693 15.1208C3.16899 15.1731 3.22106 15.2167 3.2818 15.2689C3.2818 15.2689 3.29049 15.2777 3.29914 15.2777C3.35121 15.3212 3.40327 15.3648 3.45533 15.3996C3.51607 15.4432 3.57681 15.478 3.64623 15.5129C3.70697 15.5477 3.77639 15.5826 3.84581 15.6087C3.89787 15.6348 3.95861 15.6523 4.01935 15.6697C4.02805 15.6784 4.03669 15.6784 4.05408 15.6871C4.0888 15.6958 4.13217 15.7045 4.16688 15.7132C4.14085 16.1836 4.13216 16.6279 4.2016 16.7847C4.27969 16.959 4.66149 16.4276 5.04329 15.8178C4.99123 16.4189 4.95652 17.1245 5.04329 17.3336C5.13874 17.5513 5.65938 16.8718 6.1106 16.1227C12.2628 14.694 17.8769 18.9626 18.467 24.9909C18.3542 24.0501 17.2001 23.5274 16.6708 23.658C16.4105 24.3027 15.9679 25.1303 15.2564 25.6442C15.3172 25.0693 15.2911 24.4769 15.1696 23.902C14.9787 24.7034 14.6056 25.4526 14.0937 26.0972C13.2693 26.1582 12.445 25.7575 12.0111 25.1564C11.9764 25.1303 11.9677 25.078 11.9417 25.0432C11.9157 24.9822 11.8896 24.9212 11.8723 24.8602C11.8463 24.7992 11.8289 24.7383 11.8202 24.6773C11.8115 24.6163 11.8115 24.5553 11.8115 24.4856C11.8115 24.4421 11.8115 24.3985 11.8115 24.355C11.8202 24.294 11.8376 24.233 11.8549 24.172C11.8723 24.111 11.8896 24.0501 11.9157 23.9891C11.9504 23.9281 11.9764 23.8671 12.0198 23.8061C12.1673 23.388 12.1673 23.0482 11.8983 22.8479C11.8462 22.813 11.7942 22.7869 11.7334 22.7608C11.6987 22.752 11.6553 22.7346 11.6206 22.7259C11.5946 22.7172 11.5772 22.7085 11.5512 22.6998C11.4905 22.6824 11.4297 22.6649 11.369 22.6562C11.3082 22.6388 11.2475 22.6301 11.1868 22.6301C11.126 22.6214 11.0566 22.6127 10.9959 22.6127C10.9525 22.6127 10.9091 22.6214 10.8657 22.6214C10.7963 22.6214 10.7355 22.6301 10.6748 22.6475C10.6141 22.6563 10.5533 22.6649 10.4926 22.6824C10.4318 22.6998 10.3711 22.7172 10.3104 22.7434C10.2496 22.7695 10.1976 22.7956 10.1368 22.8218C10.0848 22.8479 10.0327 22.8827 9.97195 22.9089C7.95015 24.233 9.15629 27.3343 10.536 28.2316C10.0153 28.3274 9.48603 28.4406 9.33852 28.5539C9.32982 28.5626 9.32118 28.5713 9.32118 28.5713C9.6943 28.7978 10.0848 28.9894 10.4926 29.155C11.0479 29.3379 11.638 29.5034 11.8983 29.5731V29.5818C12.6185 29.7299 13.3474 29.7822 14.085 29.7386C17.929 29.4686 21.0788 26.5328 21.6515 22.665C21.6689 22.7434 21.6863 22.8131 21.7036 22.8915C21.7296 23.0483 21.7644 23.2138 21.7817 23.3793V23.388C21.799 23.4664 21.8077 23.5448 21.8164 23.6145V23.6494C21.8251 23.7278 21.8338 23.8062 21.8338 23.8759C21.8425 23.9717 21.8511 24.0675 21.8511 24.1634V24.3027C21.8511 24.3463 21.8598 24.3986 21.8598 24.4421C21.8598 24.4944 21.8511 24.5467 21.8511 24.5989V24.7209C21.8511 24.7819 21.8424 24.8341 21.8424 24.8951C21.8424 24.93 21.8424 24.9648 21.8337 25.0084C21.8337 25.0693 21.825 25.1303 21.825 25.2C21.8163 25.2262 21.8163 25.2523 21.8163 25.2784C21.8076 25.3481 21.799 25.4091 21.7903 25.4788C21.7903 25.5049 21.7903 25.5311 21.7816 25.5572C21.7729 25.6443 21.7556 25.7227 21.7469 25.8098V25.8185V25.8273C21.7296 25.9057 21.7122 25.9928 21.6948 26.0712V26.0973C21.6775 26.1757 21.6601 26.2541 21.6428 26.3325C21.6428 26.3413 21.6341 26.3587 21.6341 26.3674C21.6167 26.4458 21.5994 26.5242 21.5733 26.6026V26.6287C21.5473 26.7158 21.5213 26.7942 21.5039 26.8727C21.4952 26.8814 21.4952 26.8901 21.4952 26.8901C21.4692 26.9772 21.4432 27.0643 21.4171 27.1514C21.3824 27.2385 21.3564 27.3169 21.3217 27.404C21.287 27.4911 21.2609 27.5783 21.2262 27.6567C21.1915 27.7438 21.1568 27.8222 21.1221 27.9093H21.1134C21.0787 27.9877 21.044 28.0748 21.0006 28.1532C20.9919 28.1793 20.9833 28.1968 20.9746 28.2142C20.9659 28.2229 20.9659 28.2316 20.9572 28.2403C20.3932 29.3815 19.5602 30.3833 18.5189 31.1674C18.4495 31.2109 18.3801 31.2632 18.3107 31.3155C18.2933 31.3329 18.2673 31.3416 18.2499 31.359C18.1892 31.4026 18.1285 31.4461 18.059 31.4897L18.0851 31.542H18.0938C18.2152 31.5246 18.3367 31.5071 18.4582 31.4897H18.4669C18.6925 31.4548 18.9181 31.4113 19.1437 31.3677C19.2045 31.359 19.2739 31.3416 19.3346 31.3242C19.378 31.3154 19.4127 31.3068 19.4561 31.298C19.5168 31.2893 19.5776 31.2719 19.6383 31.2632C19.6904 31.2458 19.7425 31.237 19.7945 31.2196C20.6622 31.0105 21.5039 30.7231 22.3109 30.3833C20.9312 32.2737 19.083 33.7982 16.9223 34.8C17.9202 34.7303 18.9181 34.5648 19.8813 34.286C23.3782 33.2494 26.3198 30.8886 28.0813 27.7089C27.7255 29.7213 26.9272 31.6378 25.7471 33.3104C26.5888 32.7528 27.3611 32.1082 28.0639 31.3764C30.0076 29.3379 31.2832 26.7507 31.7171 23.9717C32.0121 25.3481 32.0989 26.7681 31.9687 28.1706C38.2337 19.3982 32.4893 10.3035 30.0857 7.90787C30.077 7.89046 30.0684 7.88174 30.0684 7.86431C30.0597 7.87304 30.0597 7.87304 30.0597 7.88172C30.0597 7.873 30.0597 7.873 30.051 7.86431C30.051 7.96885 30.0423 8.07338 30.0337 8.17792C30.0076 8.37829 29.9816 8.56994 29.9469 8.76159C29.9035 8.95324 29.8514 9.14489 29.7994 9.33654C29.7386 9.51948 29.6692 9.71113 29.5911 9.89407C29.513 10.0683 29.4263 10.2512 29.3308 10.4255C29.2354 10.591 29.1312 10.7652 29.0184 10.922C28.9056 11.0875 28.7841 11.2443 28.6627 11.3924C28.5325 11.5492 28.3937 11.6886 28.2548 11.828C28.1681 11.9064 28.09 11.9761 28.0032 12.0458C27.9338 12.1068 27.873 12.159 27.8036 12.22C27.6474 12.342 27.4912 12.4552 27.3177 12.5598C27.1528 12.6643 26.9793 12.7688 26.8057 12.856C26.6235 12.9431 26.4413 13.0215 26.2591 13.0999C26.0768 13.1696 25.8859 13.2305 25.695 13.2828C25.5041 13.3351 25.3046 13.3786 25.1137 13.4135C24.9141 13.4483 24.7145 13.4658 24.5236 13.4832C24.3848 13.4919 24.2459 13.5006 24.1071 13.5006C23.9075 13.5006 23.7079 13.4832 23.517 13.4657C23.3175 13.4483 23.1179 13.4222 22.927 13.3786C22.7274 13.3437 22.5365 13.2915 22.3456 13.2305H22.3369C22.5278 13.2131 22.7187 13.1957 22.9096 13.1608C23.1092 13.126 23.3001 13.0824 23.491 13.0302C23.6819 12.9779 23.8728 12.9169 24.055 12.8472C24.2459 12.7775 24.4281 12.6904 24.6017 12.6033C24.7839 12.5162 24.9488 12.4204 25.1223 12.3158C25.2872 12.2026 25.4521 12.0893 25.6082 11.9674C25.7644 11.8454 25.912 11.7147 26.0508 11.5753C26.1983 11.4447 26.3285 11.2966 26.4586 11.1485C26.5888 10.9917 26.7103 10.8349 26.8231 10.6781C26.8404 10.6519 26.8578 10.6171 26.8751 10.591C26.9619 10.4516 27.0487 10.3122 27.1268 10.1728C27.2222 9.99858 27.309 9.82435 27.3871 9.64141C27.4652 9.45847 27.5346 9.27553 27.5953 9.08388C27.6561 8.90094 27.6995 8.70929 27.7429 8.51764C27.7776 8.31728 27.8123 8.12562 27.8296 7.93398C27.847 7.73361 27.8643 7.53325 27.8643 7.3416C27.8643 7.20221 27.8557 7.06283 27.847 6.92345C27.8297 6.72309 27.8036 6.53144 27.7776 6.33979C27.7429 6.13942 27.6995 5.94777 27.6474 5.75612C27.5867 5.57318 27.5259 5.38153 27.4565 5.19859C27.3871 5.01565 27.3003 4.83271 27.2136 4.65848C27.1181 4.48425 27.0227 4.31003 26.9185 4.14451C26.8057 3.979 26.6929 3.82219 26.5714 3.66538C26.4413 3.51729 26.3111 3.36919 26.1723 3.2211C26.1029 3.15141 26.0248 3.07301 25.9467 3.00332C25.5562 2.69842 25.1484 2.41094 24.7406 2.1496C24.6798 2.11474 24.6278 2.08862 24.567 2.06248C24.2807 1.87954 24.0117 1.78371 23.7427 1.6966L23.7426 1.69656Z" fill="#E9EEF1"/>
</svg>
