<svg width="36" height="36" viewBox="0 0 36 36" fill="none" xmlns="http://www.w3.org/2000/svg">
<path d="M17.9998 1.63965C17.6234 1.63978 17.2474 1.72351 16.9001 1.89137L5.76822 7.26606C5.07576 7.60021 4.57224 8.23312 4.40134 8.98309L1.65072 21.067C1.48074 21.8153 1.65987 22.6021 2.13728 23.2031L9.84353 32.8921C10.3232 33.4955 11.0533 33.847 11.8235 33.847H24.176C24.9462 33.847 25.6764 33.4955 26.156 32.8921L33.8623 23.2045V23.2031C34.3396 22.6025 34.52 21.8166 34.3503 21.0684V21.067L31.5982 8.98309V8.98168C31.4274 8.23291 30.9241 7.60088 30.2313 7.26606L19.1009 1.89137L19.0995 1.88996C18.7522 1.72284 18.3762 1.63952 17.9998 1.63965ZM17.9998 3.07965C18.1615 3.0797 18.3229 3.11562 18.4737 3.18793L29.6056 8.56262C29.9049 8.70731 30.1208 8.97828 30.1948 9.30231L32.9454 21.3862C33.0189 21.7104 32.9419 22.0483 32.7359 22.3073L25.0296 31.9964C24.8224 32.257 24.5089 32.407 24.176 32.407H11.8235C11.4907 32.407 11.1786 32.257 10.9713 31.9964L3.26509 22.3073C3.0585 22.0472 2.98077 21.7093 3.05415 21.3862L5.80618 9.30371C5.88008 8.97943 6.09573 8.70795 6.394 8.56402V8.56262L17.5259 3.18793C17.6759 3.11541 17.838 3.0796 17.9998 3.07965ZM17.9942 6.10871C17.8926 6.10894 17.7894 6.12919 17.6904 6.17059C17.2944 6.34339 17.107 6.80396 17.2798 7.19996C17.4454 7.58876 17.5024 7.97694 17.5456 8.36574C17.56 8.56734 17.5682 8.76197 17.561 8.95637C17.5826 9.15077 17.4814 9.34556 17.3374 9.53996C17.1862 9.73436 17.172 9.92916 17.1504 10.1236C15.1746 10.3175 13.3958 11.1834 12.0359 12.4846L12.0232 12.4776C11.8576 12.3696 11.7001 12.2612 11.4481 12.254C11.2105 12.2396 10.9942 12.1969 10.8574 12.0529C10.7062 11.9377 10.5555 11.8086 10.4187 11.6718C10.1379 11.3982 9.87058 11.1026 9.67618 10.7282C9.58258 10.5482 9.40967 10.4035 9.20087 10.3387C8.78327 10.2235 8.35155 10.4611 8.22915 10.8787C8.10675 11.2891 8.35155 11.7282 8.76915 11.8434C9.17235 11.9658 9.51092 12.1674 9.84212 12.3834C10.0005 12.4914 10.1522 12.6068 10.3034 12.7364C10.469 12.8444 10.555 13.046 10.6198 13.2764C10.6673 13.5071 10.7997 13.6407 10.9292 13.77C9.94361 15.1734 9.35978 16.879 9.35978 18.72C9.35978 19.0245 9.37668 19.3249 9.40759 19.6214C9.24607 19.6779 9.08621 19.7392 8.94915 19.9012C8.79075 20.0812 8.61762 20.2243 8.42322 20.2387C8.23602 20.2891 8.04246 20.3254 7.84806 20.347C7.45926 20.3974 7.06315 20.4264 6.65275 20.34C6.45115 20.304 6.22806 20.3468 6.04806 20.4764C5.69526 20.7212 5.61623 21.2106 5.86103 21.5634C6.11303 21.9162 6.60229 22.0038 6.95509 21.7518C7.30069 21.507 7.66772 21.3694 8.04212 21.247C8.22932 21.1894 8.41725 21.1396 8.61165 21.1036C8.79885 21.0388 9.0072 21.0957 9.2304 21.1893C9.41586 21.2851 9.58006 21.2774 9.74228 21.2611C10.376 23.3158 11.7618 25.0372 13.5715 26.1239C13.5097 26.2969 13.4517 26.4772 13.5068 26.7046C13.55 26.9422 13.557 27.1662 13.4562 27.3318C13.377 27.5118 13.291 27.6836 13.1974 27.8564C12.9958 28.1876 12.7802 28.519 12.4634 28.807C12.3122 28.9438 12.2104 29.1379 12.2032 29.3611C12.1888 29.7931 12.5278 30.1538 12.9598 30.1682C13.3918 30.1826 13.7596 29.8437 13.774 29.4117C13.7812 28.9869 13.8961 28.6133 14.0257 28.2389C14.0905 28.0589 14.1699 27.8787 14.2563 27.7059C14.3211 27.5187 14.4933 27.3809 14.7021 27.2657C14.9101 27.1584 15.0037 27.0066 15.0973 26.8467C16.0061 27.1724 16.9805 27.36 17.9998 27.36C19.0365 27.36 20.0268 27.1663 20.9487 26.8298C21.0462 26.9962 21.1464 27.1544 21.3551 27.2657C21.5639 27.3881 21.7361 27.5187 21.8009 27.7059C21.8873 27.8859 21.9597 28.0659 22.0245 28.2459C22.1541 28.6203 22.2618 28.9939 22.2762 29.4187C22.2762 29.6275 22.3623 29.83 22.5279 29.9812C22.8519 30.2692 23.3422 30.2474 23.6374 29.9306C23.9254 29.6066 23.9036 29.1163 23.5868 28.8211C23.27 28.5403 23.0542 28.2018 22.8598 27.8634C22.7662 27.6978 22.6802 27.5187 22.601 27.3459C22.5002 27.1731 22.507 26.9563 22.5574 26.7187C22.615 26.4739 22.5503 26.2942 22.4927 26.107L22.4871 26.0887C24.2824 24.9912 25.65 23.2645 26.2699 21.2104L26.2938 21.2118C26.4954 21.2262 26.6896 21.247 26.9056 21.1246C27.1216 21.0238 27.3385 20.9658 27.5257 21.0234C27.7129 21.0522 27.9066 21.0953 28.0938 21.1457C28.4682 21.2537 28.8435 21.3835 29.1963 21.6211C29.3691 21.7291 29.585 21.7797 29.801 21.7293C30.2258 21.6357 30.4923 21.2188 30.3987 20.8012C30.3051 20.3764 29.8869 20.11 29.4621 20.2036C29.0445 20.2972 28.6558 20.2817 28.2598 20.2457C28.0654 20.2241 27.8776 20.1961 27.6832 20.1529C27.4888 20.1385 27.3173 20.0093 27.1517 19.8365C26.9861 19.6421 26.7989 19.5918 26.6117 19.5342L26.599 19.53C26.624 19.2629 26.6398 18.9934 26.6398 18.72C26.6398 16.9349 26.0948 15.2738 25.1632 13.8951C25.2998 13.7514 25.4377 13.615 25.4881 13.3706C25.5529 13.1402 25.6389 12.9386 25.8045 12.8306C25.9485 12.701 26.1073 12.5858 26.2657 12.4706C26.5897 12.2546 26.9285 12.0458 27.3317 11.9306C27.5333 11.873 27.7048 11.7356 27.8056 11.534C28.0072 11.1524 27.8569 10.678 27.4681 10.4836C27.0865 10.282 26.6106 10.4323 26.4162 10.8211C26.2218 11.1955 25.9557 11.491 25.6821 11.7646C25.5381 11.9014 25.3946 12.0318 25.2434 12.1542C25.1066 12.2982 24.8903 12.3409 24.6527 12.3553C24.4007 12.3625 24.2418 12.4779 24.0762 12.5859C22.7032 11.2257 20.878 10.3227 18.8492 10.1236C18.8276 9.92916 18.8133 9.73436 18.6621 9.53996C18.5181 9.34556 18.4169 9.15077 18.4385 8.95637C18.4313 8.76197 18.4396 8.56734 18.454 8.36574C18.4972 7.97694 18.5542 7.58876 18.7198 7.19996C18.799 7.01276 18.8062 6.79001 18.7198 6.58121C18.5902 6.28421 18.2989 6.10804 17.9942 6.10871ZM16.962 11.6029L16.9268 11.88C16.826 12.6576 16.7541 13.4424 16.6821 14.22C16.6389 14.6304 16.6026 15.0485 16.5738 15.4589C16.221 15.2069 15.8682 14.9399 15.4938 14.7023C14.8458 14.2631 14.1975 13.8233 13.5279 13.4057L13.3015 13.2651C14.3142 12.3926 15.5727 11.8029 16.962 11.6029ZM19.0376 11.6029C20.4837 11.8111 21.7861 12.4444 22.819 13.3762L22.5785 13.5281C21.9161 13.9529 21.2761 14.3925 20.6281 14.8317C20.3689 15.0045 20.1163 15.1846 19.8715 15.3646C19.6771 15.5014 19.4106 15.3787 19.3962 15.1411C19.3746 14.8315 19.3462 14.5296 19.3174 14.22C19.2454 13.4424 19.1735 12.6576 19.0727 11.88L19.0376 11.6029ZM11.9388 14.8373L12.1681 15.0764C12.7153 15.6452 13.2701 16.1926 13.8317 16.747C14.0693 16.9846 14.3069 17.2086 14.5517 17.4318C14.7245 17.5902 14.6595 17.8705 14.4363 17.9353C14.0835 18.0433 13.7302 18.1435 13.3774 18.2587C12.6358 18.5035 11.8873 18.7348 11.1457 19.0012L10.8195 19.1151C10.8123 18.9834 10.7998 18.8535 10.7998 18.72C10.7998 17.287 11.221 15.9575 11.9388 14.8373ZM24.1465 14.9793C24.8102 16.0698 25.1998 17.3465 25.1998 18.72C25.1998 18.8402 25.1873 18.9569 25.1815 19.0757L24.9256 18.9942C24.1768 18.7494 23.4287 18.5394 22.6727 18.3234C22.1831 18.1794 21.6928 18.0506 21.2032 17.9282C21.5704 17.5754 21.9529 17.2293 22.3057 16.8693C22.8601 16.3149 23.4138 15.7606 23.9538 15.1846L24.1465 14.9793ZM17.554 17.28H18.4315C18.5683 17.28 18.6984 17.3451 18.7704 17.4459L19.3315 18.1518C19.4107 18.2454 19.4403 18.381 19.4187 18.5034L19.2162 19.3753C19.1946 19.5121 19.1008 19.6198 18.9856 19.6846L18.1798 20.0587C18.0646 20.1235 17.9209 20.1235 17.8057 20.0587L16.9985 19.6846C16.8833 19.6198 16.7823 19.5121 16.7679 19.3753L16.5668 18.5034C16.5452 18.381 16.5748 18.2454 16.654 18.1518L17.2151 17.4459C17.2871 17.3451 17.4172 17.28 17.554 17.28ZM14.9538 20.714C15.177 20.678 15.3581 20.9018 15.2717 21.1106C15.1349 21.4706 15.0045 21.8236 14.8821 22.1836C14.6157 22.9252 14.3563 23.6594 14.1115 24.4082L14.0131 24.7176C12.7316 23.8655 11.7474 22.6117 11.2231 21.1359L11.6056 21.1036C12.3904 21.0316 13.1608 20.937 13.9456 20.8434C14.284 20.8074 14.6154 20.7572 14.9538 20.714ZM21.1751 20.8153C21.5135 20.8513 21.845 20.8877 22.1834 20.9165C22.9682 20.9885 23.7456 21.0602 24.5304 21.1106L24.7807 21.1246C24.2658 22.5817 23.3032 23.8236 22.0484 24.6768L21.9668 24.4153C21.7292 23.6665 21.4707 22.925 21.2187 22.1906C21.1035 21.8594 20.9881 21.5358 20.8657 21.2118C20.7865 21.003 20.9591 20.7865 21.1751 20.8153ZM18.0532 22.2356C18.1558 22.2356 18.2586 22.2873 18.3162 22.3917C18.4746 22.6941 18.6412 22.9894 18.814 23.2846C19.2028 23.9614 19.5903 24.6458 20.0079 25.3082L20.1781 25.5839C19.4911 25.8008 18.7597 25.92 17.9998 25.92C17.2627 25.92 16.5523 25.8081 15.8834 25.6036L16.0634 25.3153C16.481 24.6529 16.8767 23.9755 17.2727 23.2987C17.4527 23.0035 17.6261 22.7013 17.7917 22.3917C17.8493 22.2873 17.9506 22.2356 18.0532 22.2356Z" fill="#E9EEF1"/>
</svg>
