<svg width="36" height="36" viewBox="0 0 36 36" fill="none" xmlns="http://www.w3.org/2000/svg">
<path d="M20.9779 8.70856H21.626L23.4729 6.86166L23.5636 6.07754C22.5056 5.1437 21.227 4.49499 19.8485 4.1927C18.4701 3.8904 17.0373 3.9445 15.6856 4.34989C14.3339 4.75527 13.1079 5.49856 12.1233 6.50953C11.1387 7.5205 10.4281 8.76579 10.0586 10.1278C10.2643 10.0434 10.4923 10.0297 10.7066 10.0889L14.4004 9.47972C14.4004 9.47972 14.5883 9.16866 14.6855 9.1881C15.477 8.31887 16.5708 7.78504 17.743 7.6959C18.9152 7.60675 20.0771 7.96902 20.9909 8.70856H20.9779Z" fill="#E9EEF1"/>
<path d="M26.1038 10.1278C25.6793 8.56454 24.8077 7.15916 23.596 6.08411L21.0038 8.67624C21.5441 9.11765 21.977 9.67598 22.27 10.3091C22.563 10.9422 22.7084 11.6336 22.6952 12.3311V12.7912C22.9982 12.7912 23.2981 12.8509 23.578 12.9669C23.8579 13.0828 24.1123 13.2527 24.3265 13.467C24.5407 13.6812 24.7106 13.9355 24.8266 14.2154C24.9425 14.4953 25.0022 14.7953 25.0022 15.0982C25.0022 15.4012 24.9425 15.7012 24.8266 15.9811C24.7106 16.261 24.5407 16.5153 24.3265 16.7295C24.1123 16.9438 23.8579 17.1137 23.578 17.2296C23.2981 17.3456 22.9982 17.4052 22.6952 17.4052H18.0812L17.6211 17.8718V20.6389L18.0812 21.099H22.6952C23.9836 21.1091 25.2411 20.7041 26.2815 19.9441C27.322 19.1841 28.0902 18.1093 28.4725 16.8789C28.8548 15.6484 28.8309 14.3276 28.4043 13.1118C27.9777 11.8959 27.1711 10.8497 26.1038 10.1278Z" fill="#E9EEF1"/>
<path d="M13.4604 21.073H18.0744V17.3792H13.4604C13.1317 17.3792 12.8068 17.3085 12.5078 17.1719L11.8598 17.3728L9.9999 19.2197L9.83789 19.8677C10.8809 20.6553 12.1535 21.0787 13.4604 21.073Z" fill="#E9EEF1"/>
<path d="M13.461 9.09098C12.2109 9.09845 10.9942 9.4962 9.98109 10.2287C8.96795 10.9611 8.20887 11.9918 7.80989 13.1766C7.4109 14.3614 7.39193 15.6412 7.75563 16.8374C8.11933 18.0335 8.84753 19.0862 9.83853 19.8483L12.5149 17.172C12.1748 17.0183 11.877 16.7844 11.6472 16.4904C11.4173 16.1963 11.2623 15.8509 11.1952 15.4838C11.1282 15.1166 11.1513 14.7387 11.2625 14.3824C11.3736 14.0262 11.5696 13.7022 11.8335 13.4383C12.0974 13.1744 12.4214 12.9784 12.7776 12.8673C13.1339 12.7561 13.5118 12.7331 13.879 12.8001C14.2461 12.8671 14.5915 13.0222 14.8856 13.252C15.1796 13.4819 15.4135 13.7796 15.5671 14.1197L18.2435 11.4433C17.6818 10.709 16.9578 10.1145 16.1281 9.7064C15.2984 9.29831 14.3856 9.08768 13.461 9.09098Z" fill="#E9EEF1"/>
<path d="M2.5081 30.4088C2.18 30.413 1.85442 30.3509 1.55088 30.2263C1.24734 30.1017 0.972081 29.917 0.741586 29.6835C0.503835 29.4599 0.31516 29.1892 0.18753 28.8888C0.0599004 28.5884 -0.00389782 28.2648 0.000184218 27.9384C-0.00373464 27.612 0.060137 27.2884 0.187757 26.988C0.315376 26.6876 0.503965 26.417 0.741586 26.1933C0.970951 25.9573 1.24571 25.7702 1.5493 25.6433C1.85289 25.5163 2.17904 25.4521 2.5081 25.4546C2.82165 25.4504 3.13289 25.5086 3.42375 25.6257C3.7146 25.7429 3.97927 25.9167 4.20235 26.1371L3.72593 26.6215C3.39966 26.3062 2.96178 26.133 2.5081 26.1398C2.27276 26.1369 2.03939 26.183 1.82282 26.2751C1.60626 26.3673 1.41123 26.5035 1.25013 26.6751C1.0827 26.8412 0.950624 27.0394 0.861847 27.2579C0.77307 27.4764 0.72943 27.7106 0.733557 27.9464C0.731593 28.1795 0.776284 28.4107 0.864999 28.6263C0.953714 28.8418 1.08466 29.0375 1.25013 29.2017C1.58158 29.532 2.02886 29.7199 2.49677 29.7254C2.96467 29.7309 3.41625 29.5536 3.75537 29.2312C3.96532 29.0012 4.09412 28.7088 4.12206 28.3988H2.51613V27.7136H4.78852C4.81085 27.8516 4.81981 27.9914 4.81528 28.1311C4.82941 28.4203 4.78476 28.7093 4.68401 28.9807C4.58326 29.2522 4.42851 29.5003 4.22912 29.7103C4.00743 29.9411 3.73959 30.1226 3.44305 30.2429C3.14652 30.3633 2.82795 30.4198 2.5081 30.4088ZM7.7916 29.9538C7.48663 30.2461 7.08052 30.4094 6.65808 30.4094C6.23564 30.4094 5.82953 30.2461 5.52457 29.9538C5.37278 29.8066 5.25323 29.6295 5.17352 29.4337C5.09381 29.2379 5.05567 29.0276 5.06153 28.8163C5.05584 28.605 5.09405 28.3948 5.17375 28.199C5.25345 28.0032 5.37291 27.826 5.52457 27.6788C5.82984 27.387 6.23583 27.2243 6.65808 27.2243C7.08033 27.2243 7.48632 27.387 7.7916 27.6788C7.94325 27.826 8.06271 28.0032 8.14241 28.199C8.22211 28.3948 8.26033 28.605 8.25464 28.8163C8.26015 29.0278 8.22158 29.2382 8.14141 29.434C8.06123 29.6299 7.94119 29.8069 7.78892 29.9538H7.7916ZM6.02508 29.5068C6.1062 29.5935 6.20423 29.6625 6.31311 29.7097C6.42199 29.7569 6.53941 29.7813 6.65808 29.7813C6.77676 29.7813 6.89417 29.7569 7.00305 29.7097C7.11194 29.6625 7.20997 29.5935 7.29108 29.5068C7.37953 29.4154 7.44878 29.3072 7.49475 29.1886C7.54072 29.07 7.56247 28.9434 7.55874 28.8163C7.56268 28.6887 7.54103 28.5617 7.49506 28.4426C7.44909 28.3235 7.37973 28.2149 7.29108 28.1231C7.20889 28.0373 7.11021 27.9691 7.00096 27.9225C6.89172 27.8759 6.77418 27.8519 6.65541 27.8519C6.53664 27.8519 6.41909 27.8759 6.30985 27.9225C6.2006 27.9691 6.10192 28.0373 6.01973 28.1231C5.93108 28.2149 5.86172 28.3235 5.81575 28.4426C5.76978 28.5617 5.74813 28.6887 5.75207 28.8163C5.74869 28.9436 5.77087 29.0703 5.8173 29.1889C5.86373 29.3076 5.93348 29.4156 6.0224 29.5068H6.02508ZM11.2765 29.9538C10.9715 30.2461 10.5654 30.4094 10.1429 30.4094C9.7205 30.4094 9.31439 30.2461 9.00942 29.9538C8.85763 29.8066 8.73809 29.6295 8.65838 29.4337C8.57867 29.2379 8.54053 29.0276 8.54638 28.8163C8.54069 28.605 8.57891 28.3948 8.65861 28.199C8.73831 28.0032 8.85777 27.826 9.00942 27.6788C9.31439 27.3864 9.7205 27.2232 10.1429 27.2232C10.5654 27.2232 10.9715 27.3864 11.2765 27.6788C11.4281 27.826 11.5476 28.0032 11.6273 28.199C11.707 28.3948 11.7452 28.605 11.7395 28.8163C11.7453 29.0276 11.7072 29.2379 11.6275 29.4337C11.5478 29.6295 11.4282 29.8066 11.2765 29.9538ZM9.50994 29.5068C9.59105 29.5935 9.68909 29.6625 9.79797 29.7097C9.90685 29.7569 10.0243 29.7813 10.1429 29.7813C10.2616 29.7813 10.379 29.7569 10.4879 29.7097C10.5968 29.6625 10.6948 29.5935 10.7759 29.5068C10.8644 29.4154 10.9336 29.3072 10.9796 29.1886C11.0256 29.07 11.0473 28.9434 11.0436 28.8163C11.0475 28.6887 11.0259 28.5617 10.9799 28.4426C10.9339 28.3235 10.8646 28.2149 10.7759 28.1231C10.6937 28.0373 10.5951 27.9691 10.4858 27.9225C10.3766 27.8759 10.259 27.8519 10.1403 27.8519C10.0215 27.8519 9.90395 27.8759 9.7947 27.9225C9.68546 27.9691 9.58677 28.0373 9.50458 28.1231C9.41593 28.2149 9.34658 28.3235 9.30061 28.4426C9.25464 28.5617 9.23298 28.6887 9.23693 28.8163C9.23355 28.9436 9.25573 29.0703 9.30216 29.1889C9.34859 29.3076 9.41833 29.4156 9.50726 29.5068H9.50994ZM13.5676 31.8381C13.2468 31.8483 12.9322 31.7482 12.6763 31.5544C12.4491 31.3836 12.2702 31.1567 12.157 30.896L12.7673 30.6417C12.8337 30.7975 12.9376 30.9345 13.0697 31.0405C13.2112 31.1545 13.3887 31.2143 13.5703 31.2091C13.6854 31.2161 13.8007 31.1982 13.9083 31.1567C14.0159 31.1151 14.1133 31.0508 14.1939 30.9682C14.3551 30.7737 14.4348 30.5243 14.416 30.2723V30.0421H14.3919C14.29 30.1633 14.1611 30.259 14.0157 30.3217C13.8703 30.3844 13.7123 30.4124 13.5542 30.4035C13.3532 30.4041 13.1543 30.363 12.9701 30.2829C12.7858 30.2027 12.6201 30.0852 12.4836 29.9378C12.3354 29.7915 12.2184 29.6167 12.1398 29.4239C12.0611 29.2312 12.0224 29.0245 12.0259 28.8163C12.0222 28.6069 12.0608 28.3989 12.1395 28.2048C12.2181 28.0107 12.3352 27.8345 12.4836 27.6868C12.6198 27.5387 12.7853 27.4207 12.9696 27.34C13.1539 27.2594 13.353 27.218 13.5542 27.2184C13.7244 27.2181 13.8927 27.2556 14.0467 27.3281C14.1799 27.3863 14.2987 27.4731 14.3946 27.5824H14.4187V27.3281H15.0825V30.1787C15.1 30.4041 15.0712 30.6308 14.9981 30.8448C14.9249 31.0588 14.8088 31.2557 14.6569 31.4232C14.5123 31.5616 14.3413 31.6697 14.1542 31.7409C13.9671 31.8122 13.7677 31.8452 13.5676 31.8381ZM13.6158 29.7825C13.73 29.785 13.8435 29.7624 13.948 29.7161C14.0526 29.6698 14.1456 29.6011 14.2206 29.5149C14.3858 29.3256 14.4729 29.0807 14.4642 28.8297C14.4741 28.5744 14.3871 28.3249 14.2206 28.1311C14.1458 28.0447 14.0527 27.9759 13.9481 27.9296C13.8436 27.8833 13.7301 27.8607 13.6158 27.8634C13.4983 27.861 13.3818 27.8837 13.2738 27.9298C13.1658 27.976 13.0688 28.0446 12.9894 28.1311C12.8124 28.3179 12.7162 28.567 12.7218 28.8243C12.7191 28.9505 12.7413 29.076 12.7872 29.1936C12.8332 29.3112 12.9019 29.4186 12.9894 29.5095C13.0685 29.5969 13.1652 29.6664 13.2732 29.7135C13.3812 29.7605 13.498 29.7841 13.6158 29.7825ZM16.2628 25.6339V30.3125H15.5643V25.6339H16.2628ZM18.1793 30.4088C17.97 30.4142 17.762 30.3763 17.5681 30.2976C17.3742 30.2188 17.1986 30.1009 17.0524 29.9511C16.9041 29.8025 16.7875 29.6253 16.7097 29.4302C16.632 29.2351 16.5947 29.0262 16.6001 28.8163C16.5922 28.6058 16.6267 28.3959 16.7017 28.1991C16.7766 28.0023 16.8905 27.8226 17.0364 27.6707C17.1739 27.5258 17.3401 27.4112 17.5245 27.3342C17.7088 27.2572 17.9072 27.2196 18.107 27.2237C18.2907 27.2218 18.4728 27.2573 18.6423 27.3281C18.795 27.3898 18.9341 27.4807 19.0518 27.5958C19.1529 27.6934 19.2427 27.802 19.3195 27.9197C19.3816 28.019 19.4344 28.1238 19.4774 28.2328L19.5496 28.4148L17.4084 29.2954C17.4732 29.4442 17.5815 29.5699 17.7191 29.6559C17.8567 29.7419 18.0171 29.7842 18.1793 29.7772C18.337 29.7776 18.4921 29.7371 18.6296 29.6597C18.767 29.5823 18.8821 29.4706 18.9635 29.3355L19.4988 29.6969C19.3622 29.8923 19.1874 30.058 18.9849 30.184C18.7441 30.3361 18.464 30.4143 18.1793 30.4088ZM17.2853 28.7681L18.7092 28.1766C18.6653 28.0723 18.5869 27.9863 18.4871 27.933C18.3753 27.8699 18.2487 27.8376 18.1204 27.8394C17.9025 27.845 17.6957 27.9364 17.5449 28.0936C17.4546 28.18 17.3846 28.2852 17.3397 28.4018C17.2948 28.5184 17.2762 28.6435 17.2853 28.7681Z" fill="#E9EEF1"/>
<path d="M23.2084 30.4088C22.9113 30.4139 22.6162 30.3589 22.3409 30.2472C22.0656 30.1354 21.8157 29.9692 21.6062 29.7585C21.3967 29.5477 21.232 29.2969 21.1218 29.0209C21.0117 28.7449 20.9585 28.4495 20.9654 28.1524C20.9585 27.8554 21.0117 27.56 21.1218 27.284C21.232 27.008 21.3967 26.7571 21.6062 26.5464C21.8157 26.3357 22.0656 26.1694 22.3409 26.0577C22.6162 25.9459 22.9113 25.891 23.2084 25.8961C23.5091 25.8867 23.808 25.9454 24.0829 26.0677C24.3577 26.1901 24.6013 26.373 24.7956 26.6027L24.4101 26.9774C24.2675 26.7981 24.0846 26.6549 23.8763 26.5596C23.6679 26.4642 23.44 26.4194 23.2111 26.4287C22.9907 26.4238 22.7715 26.4634 22.5669 26.5453C22.3622 26.6272 22.1762 26.7496 22.02 26.9052C21.8576 27.0684 21.7308 27.2635 21.6474 27.4782C21.564 27.6928 21.5259 27.9224 21.5355 28.1524C21.5259 28.3825 21.564 28.6121 21.6474 28.8267C21.7308 29.0414 21.8576 29.2364 22.02 29.3997C22.1762 29.5553 22.3622 29.6777 22.5669 29.7596C22.7715 29.8415 22.9907 29.8811 23.2111 29.8761C23.4668 29.879 23.72 29.8242 23.9517 29.7157C24.1834 29.6073 24.3877 29.4481 24.5493 29.2498L24.9347 29.6352C24.7329 29.8766 24.4796 30.0695 24.1933 30.2C23.8848 30.3424 23.5482 30.4138 23.2084 30.4088Z" fill="#E9EEF1"/>
<path d="M25.9701 30.3125H25.416V25.9899H25.9701V30.3125Z" fill="#E9EEF1"/>
<path d="M26.8762 27.7109C27.1665 27.4226 27.5591 27.2607 27.9683 27.2607C28.3774 27.2607 28.77 27.4226 29.0603 27.7109C29.2023 27.8608 29.3132 28.0372 29.3867 28.2302C29.4602 28.4231 29.4948 28.6287 29.4885 28.835C29.4948 29.0414 29.4602 29.2469 29.3867 29.4399C29.3132 29.6328 29.2023 29.8093 29.0603 29.9592C28.77 30.2475 28.3774 30.4093 27.9683 30.4093C27.5591 30.4093 27.1665 30.2475 26.8762 29.9592C26.7343 29.8093 26.6233 29.6328 26.5498 29.4399C26.4763 29.2469 26.4417 29.0414 26.448 28.835C26.4417 28.6287 26.4763 28.4231 26.5498 28.2302C26.6233 28.0372 26.7343 27.8608 26.8762 27.7109ZM27.2884 29.6112C27.3757 29.7035 27.4809 29.777 27.5976 29.8272C27.7142 29.8774 27.8399 29.9033 27.9669 29.9033C28.0939 29.9033 28.2196 29.8774 28.3363 29.8272C28.4529 29.777 28.5581 29.7035 28.6454 29.6112C28.7423 29.5073 28.8175 29.3852 28.8666 29.2519C28.9158 29.1186 28.938 28.9769 28.9318 28.835C28.938 28.6931 28.9158 28.5514 28.8666 28.4181C28.8175 28.2849 28.7423 28.1627 28.6454 28.0588C28.5581 27.9666 28.4529 27.8931 28.3363 27.8429C28.2196 27.7926 28.0939 27.7667 27.9669 27.7667C27.8399 27.7667 27.7142 27.7926 27.5976 27.8429C27.4809 27.8931 27.3757 27.9666 27.2884 28.0588C27.1916 28.1627 27.1164 28.2849 27.0672 28.4181C27.018 28.5514 26.9959 28.6931 27.002 28.835C26.9966 28.9767 27.0194 29.118 27.069 29.2508C27.1186 29.3836 27.1941 29.5052 27.2911 29.6085L27.2884 29.6112Z" fill="#E9EEF1"/>
<path d="M32.5572 30.3124H32.0219V29.9029H32.0059C31.9106 30.0585 31.7758 30.1859 31.6151 30.2723C31.4484 30.3689 31.2591 30.4197 31.0664 30.4195C30.91 30.4302 30.7531 30.4054 30.6076 30.347C30.4621 30.2886 30.3316 30.1981 30.226 30.0823C30.0232 29.8258 29.9213 29.504 29.9396 29.1776V27.3575H30.4936V29.0759C30.4936 29.6273 30.7372 29.9029 31.2243 29.9029C31.3326 29.9063 31.44 29.8838 31.5378 29.8372C31.6356 29.7907 31.7208 29.7214 31.7864 29.6353C31.93 29.4533 32.0066 29.2274 32.0032 28.9956V27.3575H32.5572V30.3124Z" fill="#E9EEF1"/>
<path d="M34.439 30.4088C34.251 30.4095 34.0652 30.3693 33.8942 30.2913C33.7233 30.2132 33.5713 30.099 33.4487 29.9565C33.1712 29.65 33.0226 29.2483 33.0338 28.835C33.0226 28.4217 33.1712 28.02 33.4487 27.7136C33.5713 27.5711 33.7233 27.4569 33.8942 27.3788C34.0652 27.3007 34.251 27.2606 34.439 27.2612C34.6495 27.2579 34.8576 27.3076 35.0439 27.4058C35.2076 27.4881 35.3462 27.6129 35.4454 27.7671H35.4695L35.4454 27.3576V25.9899H35.9994V30.3125H35.4641V29.903H35.44C35.3409 30.0571 35.2022 30.1819 35.0385 30.2643C34.8538 30.3616 34.6477 30.4113 34.439 30.4088ZM34.53 29.903C34.6552 29.9048 34.7794 29.88 34.8943 29.8301C35.0092 29.7803 35.1122 29.7066 35.1964 29.6139C35.3847 29.3996 35.4808 29.1198 35.4641 28.835C35.4808 28.5503 35.3847 28.2705 35.1964 28.0562C35.1117 27.963 35.0083 27.8885 34.8931 27.8376C34.7779 27.7866 34.6533 27.7603 34.5273 27.7603C34.4013 27.7603 34.2767 27.7866 34.1615 27.8376C34.0463 27.8885 33.943 27.963 33.8582 28.0562C33.7647 28.1616 33.6929 28.2844 33.647 28.4176C33.601 28.5508 33.5819 28.6917 33.5905 28.8324C33.5819 28.973 33.601 29.1139 33.647 29.2471C33.6929 29.3803 33.7647 29.5031 33.8582 29.6086C33.9425 29.7029 34.0462 29.778 34.1621 29.8288C34.278 29.8796 34.4034 29.9049 34.53 29.903Z" fill="#E9EEF1"/>
</svg>
