<svg width="36" height="36" viewBox="0 0 36 36" fill="none" xmlns="http://www.w3.org/2000/svg">
<g clip-path="url(#clip0_6597_125278)">
<path d="M27.405 29.2119L23.8137 18.1578L33.2147 11.3278H21.594L18.0023 0.273877L18.0012 0.270877H29.6237L33.2162 11.3266L33.2165 11.3263L33.2195 11.3247C35.3057 17.7384 33.157 25.0333 27.405 29.2118V29.2119ZM8.59866 29.2119L8.59579 29.2141L17.9993 36.0459L27.405 29.2122L18.0023 22.3802L8.59879 29.2119H8.59866ZM2.78677 11.3249C0.590512 18.0859 3.1399 25.2498 8.59691 29.2133L8.59779 29.2098L12.1897 18.1563L2.79064 11.3276H14.4087L18.0004 0.273752L18.0012 0.270752H6.37803L2.78664 11.3249H2.78677Z" fill="#E9EEF1"/>
</g>
<defs>
<clipPath id="clip0_6597_125278">
<rect width="36" height="36" fill="white"/>
</clipPath>
</defs>
</svg>
