<svg width="36" height="36" viewBox="0 0 36 36" fill="none" xmlns="http://www.w3.org/2000/svg">
<path d="M6.33333 4H29.6667C30.9553 4 32 5.04467 32 6.33333V29.6667C32 30.9553 30.9553 32 29.6667 32H6.33333C5.04467 32 4 30.9553 4 29.6667V6.33333C4 5.04467 5.04467 4 6.33333 4Z" fill="white"/>
<path d="M18.901 13.6163C22.3029 13.3612 24.3593 11.7489 25 9.59998C20.5105 11.6588 14.9085 9.14011 13.8483 13.6893L13.3047 16.1145C14.2503 14.6544 15.4992 13.8715 18.901 13.6163ZM17.1321 14.0293C15.4601 14.269 14.119 15.041 13.3663 16.3969C13.124 16.8332 13.0389 17.3021 13.0389 17.3021L12.6541 19.0186C13.1361 18.1632 13.998 17.07 16.2569 16.5498C16.3077 16.2776 16.6162 14.7173 17.1321 14.0293ZM12.3031 20.5849L11.7155 23.2069C13.2724 20.2565 16.6229 19.6838 17.0366 19.5978C19.9542 18.9905 21.3589 17.5486 21.9175 15.675C19.3717 17.1078 13.4295 15.3086 12.3031 20.5849ZM11.4325 24.4702L11 26.4C14.4504 26.2066 14.8309 22.9064 15.394 20.2846C14.3205 20.6576 11.9547 22.119 11.4325 24.4702Z" fill="black"/>
</svg>
