<svg width="322" height="470" viewBox="0 0 322 470" fill="none" xmlns="http://www.w3.org/2000/svg">
<g opacity="0.8" clip-path="url(#clip0_6620_111384)">
<path d="M12.5549 424.835C12.2163 424.895 11.926 425.084 11.7325 425.362C11.5471 425.635 11.4785 425.961 11.539 426.283C11.6559 426.874 12.1881 427.289 12.7807 427.289C12.8573 427.289 12.9339 427.28 13.0064 427.268C13.3451 427.208 13.6353 427.019 13.8289 426.741C14.0143 426.468 14.0828 426.142 14.0224 425.82C13.8934 425.156 13.2362 424.714 12.5549 424.835ZM12.8331 426.062C12.8291 426.066 12.817 426.078 12.7968 426.082C12.7565 426.086 12.7283 426.066 12.7283 426.045C12.7323 426.037 12.7444 426.029 12.7646 426.025C12.7686 426.025 12.7726 426.025 12.7807 426.025C12.8129 426.025 12.8331 426.041 12.8371 426.053L12.8331 426.062Z" fill="#E9EEF1"/>
<path d="M319.747 450.38C318.159 446.852 316.365 442.857 316.244 437.47C317.062 437.418 317.735 437.149 318.022 436.662C318.598 435.692 317.292 430.873 317.054 430.024L320.779 430.149C320.791 430.149 320.803 430.149 320.815 430.149C321.315 430.149 321.63 429.807 321.722 429.465C321.835 429.046 321.65 428.644 321.259 428.439L316.167 425.768C316.042 425.703 315.905 425.667 315.768 425.659C315.554 425.249 315.316 424.846 315.046 424.464C314.954 424.336 314.857 424.207 314.76 424.082C315.885 423.217 318.388 421.045 318.485 418.76C318.53 417.682 318.058 416.736 317.078 415.948C315.893 414.99 314.385 415.216 313.18 415.397C312.063 415.562 311.519 415.602 311.337 415.252C310.717 414.061 309.298 412.79 307.782 412.665C306.988 412.597 305.822 412.814 304.774 414.21C303.698 415.638 302.295 415.36 300.936 415.091C300.049 414.914 299.207 414.749 298.578 415.179C297.151 416.153 297.433 417.859 297.639 419.106C297.731 419.665 297.828 420.244 297.739 420.502C297.614 420.703 296.808 421.065 296.28 421.306C295.002 421.886 293.559 422.541 293.426 423.696C293.349 424.376 293.736 425.028 294.607 425.691C296.873 427.417 298.554 428.097 299.441 428.363C299.13 429.392 298.888 430.503 298.727 431.686C298.009 436.851 295.982 441.212 294.192 445.062C293.587 446.361 292.998 447.632 292.478 448.892L194.55 412.339V406.623C194.55 403.601 190.241 400.946 182.404 399.124L182.545 352.506C187.911 350.611 192.938 347.864 197.437 344.343C197.372 344.476 197.34 344.597 197.332 344.714C197.32 344.939 197.405 345.144 197.566 345.293C199.763 347.316 202.061 348.29 204.391 348.169C206.927 348.045 208.918 346.665 210.1 345.591C210.237 346.186 210.471 347.015 210.841 348.177C211.321 349.674 212.349 352.619 213.849 355.547C216.623 360.95 219.618 363.726 222.75 363.794L223.029 363.802C224.379 368.743 229.16 373.011 236.199 375.336C239.586 376.455 243.234 377.034 247.052 377.062C247.145 377.062 247.233 377.062 247.326 377.062C259.658 377.062 269.874 371.064 271.487 363.259C271.551 363.287 271.62 363.312 271.692 363.32C273.514 363.565 275.945 361.928 278.53 358.709C284.359 351.456 290.733 336.281 286.657 325.243C286.617 325.13 286.621 325.078 286.617 325.078C286.794 324.848 287.995 324.812 288.511 324.792C289.588 324.756 290.438 324.732 290.737 324.108C290.85 323.875 290.902 323.497 290.535 323.01C290.249 322.632 289.568 321.835 288.62 320.737C286.463 318.231 279.904 310.599 280.057 309.263L279.699 309.203C280.868 309.074 282.505 308.563 283.319 307.61C283.734 307.123 283.895 306.576 283.807 305.981C283.488 303.897 282.065 302.485 279.703 300.143L279.453 299.894C277.876 298.329 276.881 295.203 276.869 295.171L276.566 295.268C276.607 295.4 277.598 298.498 279.227 300.119L279.477 300.369C281.872 302.742 283.19 304.05 283.488 306.029C283.565 306.532 283.424 306.995 283.073 307.409C282.202 308.431 280.279 308.909 279.195 308.922C279.171 308.922 279.15 308.922 279.13 308.922C277.215 308.922 276.26 308.004 275.155 306.942C274.603 306.411 274.034 305.86 273.289 305.365C270.487 303.491 269.318 300.634 270.571 298.727C271.47 297.356 273.595 295.746 274.587 295.083C274.825 294.994 274.998 294.906 275.083 294.833C275.155 294.773 275.224 294.708 275.216 294.62L275.445 294.648C275.478 294.652 278.913 295.087 285.105 296.672L285.56 296.788L280.134 289.965L280.283 289.929C280.235 289.736 280.11 289.326 279.932 288.771C279.844 288.493 279.763 288.24 279.731 288.115C279.175 286.172 278.364 284.518 277.312 283.163C278.949 282.39 282.549 280.451 282.142 278.504C281.605 275.921 277.175 275.378 275.828 275.274C275.728 275.266 275.671 275.254 275.639 275.241C275.72 275.129 276.006 274.904 276.244 274.718C277.102 274.051 278.538 272.928 277.776 271.677C277.247 270.812 276.03 270.502 275.099 270.398C272.946 270.152 270.334 270.752 269.402 271.709C268.814 272.313 268.612 272.14 268.173 271.77C267.657 271.331 266.951 270.732 265.322 271.138C263.15 271.681 261.497 273.6 260.545 276.678C260.061 278.243 259.872 279.747 259.799 280.56C259.735 280.596 259.666 280.628 259.61 280.664C253.027 284.53 249.697 294.403 249.813 302.155C249.91 308.519 238.505 317.997 234.103 321.111C231.2 323.167 227.306 324.329 223.351 325.174L223.52 324.836C223.46 324.808 217.501 321.827 215.195 318.955C215.099 318.834 214.986 318.709 214.869 318.585C216.062 314.336 216.675 309.939 216.675 305.494C216.675 291.639 210.926 278.77 200.485 269.223L207.516 261.403C209.354 262.609 211.507 263.639 213.926 264.44C217.308 265.558 220.96 266.138 224.778 266.166C224.871 266.166 224.96 266.166 225.052 266.166C238.457 266.166 249.37 259.081 249.439 250.291L249.443 249.925C249.6 249.748 249.749 249.571 249.898 249.386C252.458 246.172 253.893 241.316 253.393 237.579C253.123 235.551 252.285 233.974 250.971 233.009C246.927 230.04 239.509 233.383 235.691 237.349C235.328 235.965 234.599 234.216 233.53 232.55C231.656 229.633 229.35 227.98 227.032 227.9C221.855 227.714 217.747 234.795 217.11 240.202C216.098 238.351 214.72 236.589 213.168 235.213C210.523 232.864 207.774 231.967 205.427 232.675C203.823 233.162 202.46 234.405 201.488 236.275C199.747 239.618 199.4 244.615 200.65 248.421C200.751 248.734 200.872 249.04 200.997 249.342L200.368 249.338L200.364 249.941C200.352 251.562 200.702 253.139 201.38 254.636L201.081 254.362L192.793 263.402C187.87 260.417 179.795 257.472 171.535 256.314C171.563 256.028 171.575 255.738 171.575 255.453V228.636C171.575 226.065 170.503 223.599 168.612 221.781C168.906 221.382 169.164 220.956 169.382 220.509L169.426 220.964C175.046 220.401 176.691 218.824 178.283 217.303C178.421 217.174 178.554 217.042 178.695 216.913C181.158 214.612 182.412 210.794 183.52 207.423C184.077 205.725 184.605 204.124 185.218 202.949C186.818 199.876 189.213 196.348 191.837 196.154C191.563 197.092 191.305 198.669 192.087 199.928C192.777 201.042 194.091 201.646 195.99 201.71C198.038 201.787 199.892 200.463 200.581 198.423C201.166 196.686 200.936 194.248 198.755 192.256C201.984 192.224 205.375 190.623 207.705 187.694C210.265 184.48 211.704 179.624 211.2 175.887C210.93 173.859 210.092 172.282 208.777 171.317C207.882 170.661 206.818 170.315 205.665 170.215C206.496 165.005 206.923 159.63 206.923 154.211C206.923 137.17 204.782 123.275 200.561 112.912C195.679 100.928 187.854 93.2196 177.308 89.9891V81.6938C177.308 80.9094 177.203 80.1369 176.997 79.3887C177.497 79.4048 178.058 79.5094 178.642 79.7628C179.686 80.2174 180.444 81.0341 181.247 81.899C182.408 83.1542 183.726 84.5743 186.141 85.0691C186.879 85.2179 187.822 85.3145 188.89 85.3145C191.906 85.3145 195.877 84.5662 198.735 82.2409C201.222 80.2174 202.484 77.3531 202.484 73.7324C202.484 68.2371 201.452 63.7354 200.469 60.4245C201.271 60.8952 202.198 61.0722 203.218 60.9395C206.137 60.5533 208.979 57.6568 209.559 54.4827C209.846 52.9177 209.769 50.0373 206.27 47.9816C209.455 46.5293 211.45 43.9546 211.45 41.1748V40.5713H207.81C209.08 38.7168 209.777 36.4599 209.777 34.0823C209.777 28.5951 205.798 20.4566 200.303 20.4566C194.808 20.4566 190.829 28.5951 190.829 34.0823C190.829 36.4599 191.527 38.7168 192.797 40.5713H189.358V41.1748C189.358 43.8581 191.156 46.3081 194.131 47.7925C190.148 50.0172 188.673 53.8913 189.963 58.9441C190.668 61.6998 191.68 63.9688 192.494 65.7952C194.083 69.3555 194.958 71.3146 192.772 73.483C189.914 76.3192 187.088 74.2353 183.956 71.4394C183.738 71.2463 183.528 71.0572 183.323 70.8802C180.819 68.6917 177.88 66.5756 174.704 69.1865C174.478 69.3756 174.304 69.3474 173.393 68.3336C172.781 67.6538 172.039 66.8291 171.051 66.6279V53.658C172.958 52.9741 174.958 51.9201 176.453 50.7856C178.497 49.2408 179.578 47.6195 179.578 46.0908V45.4874H175.941C177.211 43.6328 177.909 41.3759 177.909 38.9984C177.909 33.5111 173.929 25.3727 168.435 25.3727C162.94 25.3727 158.961 33.5111 158.961 38.9984C158.961 41.3759 159.658 43.6328 160.928 45.4874H157.489V46.0908C157.489 48.4925 159.952 51.8356 164.653 53.6057V66.8733C162.512 67.5934 160.968 69.5566 160.968 71.8658V73.5715C155.619 70.4859 153.111 71.9623 150.237 73.656C148.793 74.5089 147.298 75.3859 145.217 75.8726C140.46 76.983 136.804 76.3675 134.353 74.0382C129.031 68.9894 130.474 57.3591 131.337 52.5919C132.22 47.7402 133.309 43.7374 134.187 40.519C135.469 35.8082 136.175 33.2134 135.074 32.1151C134.316 31.3628 133.059 31.7048 132.647 31.8174C131.958 32.0065 131.236 32.2841 131.132 32.9318C131.019 33.6438 131.712 34.0984 132.518 34.6295C133.442 35.2369 134.187 35.776 133.962 36.2467C133.006 38.2501 131.527 39.3283 129.785 39.3323C128.088 39.3202 126.435 38.1857 125.673 36.5122C124.649 34.2754 125.302 31.5479 127.471 29.0094C127.491 28.9813 129.733 26.2617 135.671 26.6158C137.155 26.7043 138.465 27.3761 139.36 28.4985C140.787 30.2887 141.206 33.2094 140.577 36.9386C140.219 39.0627 139.864 41.0782 139.525 42.9851C137.695 53.32 136.372 60.7866 138.437 65.9561C138.928 67.1831 139.759 68.04 140.904 68.4986C144.137 69.7899 149.035 67.5492 151.664 66.3423L151.704 66.3222C156.715 64.0291 160.561 65.8475 162.903 67.7785L163.673 66.8492C161.065 64.7009 156.78 62.6734 151.2 65.2279L151.16 65.2481C148.87 66.298 144.105 68.4785 141.351 67.3802C140.513 67.0463 139.924 66.4348 139.557 65.5136C137.618 60.6619 138.916 53.3361 140.714 43.1983C141.053 41.2874 141.412 39.2719 141.771 37.1438C142.633 32.0186 141.464 29.2226 140.323 27.7784C143.835 26.3824 146.072 23.671 146.072 20.7262V20.1147H142.432C143.702 18.2601 144.399 16.0033 144.399 13.6257C144.399 8.13841 140.42 0 134.925 0C129.43 0 125.451 8.13841 125.451 13.6257C125.451 16.0033 126.149 18.2601 127.419 20.1147H123.98V20.7181C123.98 23.3773 125.443 25.4893 128.225 26.8893C127.088 27.5491 126.568 28.1887 126.528 28.237C124.052 31.1295 123.335 34.3277 124.56 37.007C125.532 39.1311 127.576 40.515 129.765 40.5351C129.777 40.5351 129.793 40.5351 129.805 40.5351C131.099 40.5351 132.293 40.0564 133.292 39.1633C133.2 39.5012 133.107 39.8472 133.01 40.1972C132.127 43.4357 131.031 47.4707 130.14 52.3706C129.237 57.3309 127.761 69.456 133.51 74.9071C135.409 76.7094 137.896 77.6105 140.948 77.6105C142.343 77.6105 143.859 77.4215 145.488 77.0393C147.749 76.5123 149.394 75.5427 150.845 74.6859C153.684 73.0163 155.76 71.7934 160.827 74.887C159.207 76.3876 158.416 78.6243 158.416 81.6818V88.38C147.729 89.3253 139.195 94.7442 133.043 104.5C127.604 113.121 124.157 124.884 122.778 139.467C121.815 138.534 120.102 136.917 118.175 135.295C114.151 131.92 111.152 130.17 109.265 130.098C108.241 130.058 107.858 130.492 107.709 130.862C107.084 132.407 110.579 136.116 113.224 138.622C109.652 137.854 105.258 137.126 104.31 137.951C103.831 138.369 103.597 138.94 103.641 139.596C103.802 142.138 108.414 146.141 111.998 148.885C110.938 148.587 109.902 148.418 109.136 148.555C108.503 148.668 108.072 148.961 107.85 149.42C107.354 150.462 108.164 151.934 109.188 153.801C109.479 154.328 109.781 154.875 110.055 155.426C110.285 155.889 110.523 156.327 110.761 156.766C111.982 159.031 113.139 161.167 113.474 166.489C113.897 173.179 117.07 177.556 120.569 181.813C120.634 181.893 125.423 187.618 129.741 190.136C128.753 190.285 127.822 190.518 126.983 190.856C123.944 192.083 123.319 194.65 123.742 196.641C124.298 199.248 126.439 201.155 128.765 201.071C130.664 201.002 131.974 200.403 132.668 199.288C133.45 198.025 133.192 196.452 132.918 195.515C135.546 195.712 137.937 199.236 139.537 202.31C140.146 203.48 140.674 205.085 141.234 206.783C142.343 210.154 143.601 213.976 146.06 216.273C146.197 216.402 146.334 216.531 146.471 216.663C148.06 218.184 149.705 219.757 155.304 220.324C155.365 220.497 155.429 220.666 155.502 220.835C152.93 222.67 151.402 225.55 151.402 228.628V256.229H152.26C140.307 258.212 129.374 264.118 121.331 273.109L103.427 261.366C109.382 258.418 112.97 253.852 113.083 248.827C113.184 248.827 113.284 248.827 113.385 248.831C114.341 249.08 117.796 249.937 119.88 249.937C120.384 249.937 120.807 249.889 121.097 249.764C122.706 249.088 124.742 248.054 126.229 246.027C126.959 245.033 128.902 241.344 130.66 237.627C132.244 234.272 133.014 232.341 133.365 231.202C134.397 232.397 136.119 233.906 138.497 234.352C140.807 234.787 143.23 234.127 145.701 232.401C145.883 232.276 145.992 232.083 146.012 231.858C146.076 231.162 145.222 230.185 142.254 227.183C141.625 226.548 140.864 225.775 140.299 225.164C140.517 225.236 140.735 225.309 140.932 225.377C143.186 226.145 144.484 226.544 145.004 225.791C145.411 225.2 144.927 224.48 144.403 223.848C142.964 222.127 139.392 220.393 136.526 218.997C135.611 218.554 134.55 218.035 133.861 217.645C134.147 217.609 134.425 217.577 134.699 217.544C136.405 217.343 137.433 217.223 137.788 216.523C137.9 216.301 137.977 215.943 137.719 215.485C135.441 211.442 118.711 209.177 116.53 208.899L108.789 206.441C109.781 205.886 109.858 205.504 109.89 205.351C109.946 205.085 109.862 204.82 109.664 204.623C109.422 204.385 108.535 203.879 106.254 202.603C104.056 201.372 101.323 199.84 100.537 199.196C99.4686 198.315 97.8762 195.724 97.2876 194.586C98.0899 194.549 99.6178 194.61 100.924 194.71L102.403 194.823L96.3725 187.96C96.1427 187.372 94.7478 183.426 95.8363 176.523C96.9812 169.273 96.0741 162.8 93.6351 160.499C94.9292 159.618 97.9326 157.317 97.6182 155.116C97.2191 152.345 93.4537 152.683 92.212 152.791L92.1515 152.795C92.0991 152.799 92.0588 152.787 92.0225 152.759C91.8048 152.578 91.7443 151.862 91.6839 151.17C91.5911 150.076 91.4863 148.833 90.7687 148.374C90.4261 148.157 89.9826 148.145 89.4505 148.338C88.2491 148.772 87.4226 149.44 86.8179 149.931C86.2938 150.357 85.9108 150.663 85.5762 150.619C85.3706 150.591 85.157 150.426 84.9231 150.108C84.008 148.873 82.5728 147.541 81.2827 147.509C80.674 147.493 80.1781 147.746 79.7588 148.261C79.0533 149.126 78.9646 150.257 78.8921 151.166C78.8074 152.264 78.7349 152.835 78.0455 152.799C77.5778 152.775 76.953 152.566 76.2918 152.341C74.7276 151.818 72.7844 151.162 72.1596 152.904C71.4541 154.863 74.6147 158.974 75.7556 160.37C74.3567 161.545 73.2239 163.094 72.3692 165.009C72.3168 165.126 72.2039 165.363 72.0789 165.62C71.8249 166.155 71.6355 166.546 71.5629 166.735L71.704 166.791L65.4432 172.765L65.802 172.789C66.4913 172.834 67.1928 172.854 67.8903 172.854C70.1801 172.854 72.4418 172.644 74.1914 172.419C74.0261 172.757 72.6595 175.46 70.9824 176.728L70.6961 176.945C68.0273 178.956 66.4147 180.171 65.81 182.191C65.161 184.347 66.6647 185.824 68.1523 186.435C68.4506 186.56 68.7288 186.781 69.0029 187.043C67.1202 188.346 57.223 197.691 56.7272 198.186C56.3522 198.564 56.2071 198.946 56.3039 199.317C56.4611 199.928 57.1384 200.125 57.7874 200.314C57.993 200.375 58.3035 200.463 58.4768 200.548C58.4486 200.584 58.4083 200.632 58.3559 200.688C58.0696 200.986 57.6383 201.417 57.1303 201.927C51.9015 207.165 50.4462 208.931 50.6276 209.808C50.7929 210.605 51.6959 210.83 52.4901 211.031C52.7642 211.1 53.1996 211.208 53.3811 211.313C53.377 211.321 53.369 211.333 53.3649 211.345C53.2843 211.482 53.1634 211.679 53.0102 211.92C49.273 217.971 48.2087 220.956 49.3335 222.227C49.7407 222.686 50.1599 223.04 50.5308 223.35C51.5105 224.17 52.1031 224.669 51.8491 226.512C51.8007 226.87 51.7322 227.304 51.6556 227.791C50.8332 233.073 50.2285 238.307 52.6433 239.212C53.6955 239.606 54.7437 239.711 55.5903 239.791C56.9247 239.924 57.3238 240.021 57.3762 240.431C57.5738 241.956 59.8919 247.624 61.0973 248.453C61.3674 248.638 61.6052 248.646 61.7705 248.614C61.96 248.594 62.7502 248.581 64.0039 248.573C64.0039 257.424 75.0098 264.621 88.5393 264.621C89.1884 264.621 89.8334 264.601 90.4744 264.565L115.445 281.123C110.986 288.682 108.628 297.271 108.628 306.013C108.628 318.894 113.663 331.136 122.811 340.53L117.36 346.528C114.171 347.349 110.882 349.384 108.729 351.621C108.366 350.237 107.636 348.487 106.568 346.822C104.693 343.905 102.387 342.252 100.069 342.167C94.8969 341.998 90.7849 349.066 90.1479 354.469C89.136 352.615 87.7572 350.857 86.2051 349.481C83.5605 347.135 80.8111 346.23 78.4648 346.942C76.8602 347.429 75.4976 348.672 74.526 350.543C72.7844 353.886 72.4377 358.882 73.6875 362.688C73.7883 362.998 73.9052 363.308 74.0342 363.609L73.4093 363.605L73.4053 364.209C73.3569 370.372 78.5534 375.928 86.9631 378.707C90.3454 379.826 93.9979 380.405 97.8157 380.433C97.9084 380.433 97.9971 380.433 98.0898 380.433C111.494 380.433 122.408 373.349 122.476 364.559L122.48 364.193C122.637 364.02 122.787 363.839 122.932 363.654C125.492 360.439 126.931 355.584 126.427 351.846C126.387 351.545 126.33 351.255 126.266 350.973L130.112 346.749C133.292 348.998 136.683 350.873 140.231 352.361L140.089 398.866C131.813 400.636 127.269 403.372 127.269 406.607V412.452L29.5068 448.944C28.9868 447.685 28.3982 446.413 27.7934 445.114C26.0035 441.264 23.9716 436.903 23.2581 431.738C23.0928 430.555 22.8509 429.445 22.5445 428.415C23.4314 428.149 25.1125 427.469 27.3782 425.744C28.249 425.08 28.636 424.428 28.5594 423.748C28.4304 422.594 26.9831 421.938 25.7052 421.359C25.173 421.117 24.3707 420.755 24.2538 420.574C24.1571 420.297 24.2538 419.717 24.3466 419.154C24.5522 417.907 24.8344 416.201 23.4072 415.228C22.7783 414.797 21.9357 414.962 21.0488 415.139C19.6902 415.409 18.2833 415.686 17.2109 414.258C16.1627 412.862 14.9936 412.649 14.2034 412.713C12.6876 412.838 11.2685 414.109 10.6477 415.3C10.4663 415.65 9.92203 415.61 8.80531 415.445C7.59588 415.264 6.09215 415.043 4.9069 415.996C3.92726 416.785 3.45558 417.73 3.49993 418.808C3.59668 421.089 6.10021 423.266 7.22095 424.13C7.1242 424.255 7.02744 424.384 6.93472 424.513C6.66461 424.895 6.42676 425.297 6.21309 425.707C6.07602 425.715 5.93895 425.748 5.81398 425.816L0.722256 428.487C0.331205 428.692 0.14979 429.095 0.258639 429.513C0.351362 429.859 0.665815 430.197 1.16572 430.197C1.17781 430.197 1.1899 430.197 1.202 430.197L4.92706 430.072C4.6892 430.921 3.38704 435.741 3.95951 436.71C4.24574 437.193 4.919 437.462 5.73738 437.519C5.61644 442.906 3.82244 446.9 2.23405 450.428C1.02461 453.112 -0.0195312 455.433 -0.0195312 457.774C-0.0195312 465.756 5.31811 469.976 15.4129 469.976C18.501 469.976 21.5971 469.32 24.2216 467.956L24.2377 468.025C42.3026 463.764 73.2803 456.588 99.0695 450.63C105.165 461.656 131.728 469.614 162.686 469.614C192.893 469.614 219.191 461.938 225.927 451.265C251.071 457.074 280.36 463.865 297.723 467.956L297.739 467.888C300.368 469.252 303.464 469.911 306.548 469.911C316.643 469.911 321.98 465.691 321.98 457.71C322.001 455.385 320.956 453.067 319.747 450.38ZM133.18 33.6157C132.966 33.4749 132.676 33.2858 132.486 33.1329C132.591 33.0887 132.744 33.0364 132.962 32.976C133.603 32.803 134.05 32.795 134.216 32.964C134.433 33.1812 134.466 33.7243 134.369 34.4927C133.994 34.1507 133.55 33.8611 133.18 33.6157ZM126.669 13.6257C126.669 8.15047 130.559 1.20688 134.933 1.20688C139.307 1.20688 143.198 8.15047 143.198 13.6257C143.198 16.0636 142.387 18.3526 140.928 20.1147H128.943C127.475 18.3526 126.669 16.0636 126.669 13.6257ZM125.226 21.3216H144.826C144.52 23.6509 142.46 25.7629 139.404 26.825C138.388 25.9842 137.126 25.4893 135.744 25.4089C133.099 25.248 131.103 25.6583 129.66 26.2135C126.947 25.1152 125.455 23.4739 125.226 21.3216ZM317.751 436.505C317.264 437.33 314.978 437.45 313.22 436.449C311.966 435.733 311.894 434.952 311.841 434.381C311.825 434.188 311.809 434.023 311.753 433.882C311.648 433.633 311.41 433.516 311.075 433.351C310.6 433.118 309.882 432.764 308.991 431.774C308.717 431.468 308.648 431.179 308.781 430.877C309.213 429.915 311.466 429.203 312.051 429.103C312.168 429.505 312.515 429.879 313.103 429.899L316.796 430.024L316.728 430.044C317.36 432.269 318.151 435.833 317.751 436.505ZM321.118 428.725C321.428 428.89 321.481 429.175 321.42 429.388C321.364 429.602 321.15 429.847 320.791 429.839L313.119 429.582C312.615 429.565 312.357 429.207 312.329 428.857C312.301 428.544 312.45 428.145 312.962 428.037C313.095 428.009 313.236 427.98 313.377 427.952C314.297 427.779 314.849 426.975 315.151 426.331C315.187 426.255 315.24 426.186 315.304 426.13L315.57 426.001C315.623 425.989 315.671 425.977 315.724 425.977C315.828 425.977 315.929 426.001 316.026 426.053L321.118 428.725ZM295.341 424.742C294.873 424.384 294.603 424.046 294.627 423.841C294.68 423.366 295.994 422.771 296.78 422.413C297.824 421.938 298.65 421.564 298.872 420.924C299.07 420.357 298.953 419.657 298.832 418.913C298.614 417.585 298.525 416.68 299.259 416.177C299.469 416.032 300.122 416.161 300.698 416.278C302.097 416.555 304.21 416.974 305.742 414.938C306.318 414.174 306.967 413.816 307.685 413.872C308.749 413.96 309.81 414.938 310.265 415.811C310.866 416.966 312.188 416.768 313.357 416.591C314.434 416.431 315.546 416.266 316.32 416.889C316.994 417.432 317.308 418.028 317.28 418.712C317.211 420.377 315.151 422.28 313.97 423.173C312.236 421.411 309.951 420.361 307.717 420.361C304.282 420.361 301.416 422.948 299.824 427.224C299.094 427.011 297.526 426.403 295.341 424.742ZM290.769 455.216L180.344 417.698L193.853 413.373L292.035 450.022C291.374 451.772 290.898 453.494 290.769 455.216ZM132.389 346.85L139.493 338.064C145.907 342.123 153.337 344.259 161.081 344.259C171.865 344.259 182.682 339.641 190.245 331.86C191.571 334.58 196.893 337.69 199.263 338.969C199.295 339.013 199.336 339.057 199.376 339.094C189.628 349.465 175.901 355.358 161.243 355.358C150.837 355.362 140.912 352.422 132.389 346.85ZM161.4 298.949C161.589 298.949 161.779 298.961 161.968 298.977L162.021 299.025L162.061 298.981C165.927 299.303 168.975 302.416 168.975 306.202C168.975 310.201 165.576 313.455 161.4 313.455C157.223 313.455 153.825 310.201 153.825 306.202C153.825 302.203 157.223 298.949 161.4 298.949ZM150.567 273.097V292.287L149.398 291.518V273.266H149.241C153.897 271.432 158.949 270.454 164.129 270.454C166.54 270.454 168.947 270.667 171.293 271.082C171.994 271.259 172.688 271.46 173.373 271.673H173.293V284.78L161.553 297.738C161.505 297.738 161.452 297.734 161.404 297.734C160.666 297.734 159.952 297.822 159.267 297.987L150.882 292.488V273.089H150.567V273.097ZM148.185 273.266V273.355C143.311 275.418 138.904 278.432 135.272 282.253L133.567 281.135C140.827 273.87 150.591 269.867 161.085 269.867C163.049 269.867 164.955 269.992 166.81 270.237C165.915 270.181 165.02 270.14 164.125 270.14C158.638 270.14 153.292 271.231 148.402 273.266H148.185ZM148.185 273.697V290.726L135.538 282.43C139.106 278.693 143.419 275.736 148.185 273.697ZM181.682 275.519L176.074 281.71V272.647C178.029 273.439 179.9 274.397 181.682 275.519ZM174.865 272.482V283.046L173.607 284.438V271.754C174.3 271.975 174.986 272.22 175.659 272.482H174.865ZM198.203 271.758C198.586 272.14 198.965 272.522 199.336 272.912L190.745 281.634C190.507 281.372 190.261 281.119 190.015 280.862L198.203 271.758ZM211.869 314.525C211.789 314.397 211.712 314.272 211.632 314.143C209.781 311.17 208.036 308.362 206.427 308.057C205.963 307.968 205.544 308.065 205.201 308.33C204.302 309.042 204.23 310.792 204.161 312.486C204.133 313.146 204.097 314.103 203.976 314.465C203.669 314.441 203.258 314.369 202.863 314.3C201.706 314.095 200.618 313.902 200.013 314.417C199.84 314.566 199.63 314.835 199.638 315.282C199.646 315.748 199.985 316.613 200.634 318.231C201.146 319.502 202.045 321.743 202.129 322.644C199.372 321.155 197.808 321.429 196.941 322.008C199.243 317.12 200.416 311.898 200.416 306.459C200.416 297.376 197.07 288.718 190.954 281.871L199.549 273.145C208.007 282.201 212.635 293.775 212.635 306.029C212.635 308.885 212.377 311.734 211.869 314.525ZM196.026 328.131C194.583 328.018 191.97 327.99 190.7 329.064C190.64 329.113 190.587 329.165 190.535 329.221L165.903 313.459C167.644 312.454 168.995 310.881 169.68 309.01L195.615 324.579C195.465 325.894 195.764 327.254 196.026 328.131ZM174.865 320.624V340.26C174.446 340.373 174.026 340.49 173.607 340.59V319.82L174.865 320.624ZM173.873 340.844C173.784 340.876 173.692 340.904 173.603 340.936V340.912C173.696 340.892 173.784 340.868 173.873 340.844ZM176.941 339.633C176.655 339.729 176.364 339.818 176.074 339.906V321.397L189.979 330.295C189.971 330.332 189.963 330.368 189.959 330.408C186.318 334.326 181.839 337.464 176.941 339.633ZM170.124 307.192L195.897 323.412C195.796 323.682 195.719 323.959 195.667 324.241L169.789 308.708C169.95 308.217 170.059 307.711 170.124 307.192ZM189.205 281.767C195.655 288.529 199.211 297.267 199.211 306.459C199.211 311.846 198.025 317.02 195.683 321.847L176.074 309.509V296.374L189.205 281.767ZM174.865 308.749L173.607 307.956V299.122L174.865 297.722V308.749ZM173.288 307.755L170.176 305.796C170.136 304.979 169.975 304.195 169.709 303.454L173.288 299.472V307.755ZM161.4 314.658C162.537 314.658 163.621 314.449 164.617 314.067L173.284 319.614V340.658C170.305 341.342 167.241 341.692 164.121 341.692C159.525 341.692 155.07 340.944 150.882 339.5V323.975L159.444 314.566L159.263 314.401C159.948 314.57 160.662 314.658 161.4 314.658ZM150.567 339.395C150.12 339.238 149.68 339.069 149.241 338.896H149.398V325.609L150.567 324.321V339.395ZM148.185 338.462C145.746 337.416 143.415 336.121 141.222 334.588L148.185 326.94V338.462ZM141.009 334.821C143.266 336.402 145.669 337.734 148.185 338.804V338.896H148.394C153.292 340.944 158.61 342.01 164.121 342.01C167.241 342.01 170.305 341.66 173.284 340.984V341.049C169.342 342.356 165.209 343.056 161.077 343.056C153.268 343.056 145.798 340.811 139.416 336.571L141.009 334.821ZM200.053 341.733C195.252 346.073 189.717 349.445 183.73 351.738C190.152 348.821 195.949 344.641 200.763 339.375C201.412 339.331 202.25 339.174 203.282 338.969C203.484 338.929 203.706 338.884 203.923 338.844C203.278 339.375 202.42 340.039 201.706 340.582C201.101 341.045 200.577 341.451 200.122 341.813L200.053 341.733ZM247.326 375.859C247.237 375.859 247.149 375.859 247.06 375.859C243.371 375.831 239.848 375.272 236.582 374.194C229.092 371.72 224.323 366.993 223.887 361.715L223.948 361.525C227.443 361.562 248.366 361.771 261.456 361.723L270.479 361.787C269.918 369.636 259.751 375.863 247.326 375.859ZM284.726 296.245C279.715 294.982 276.59 294.487 275.728 294.366C276.207 293.622 277.909 291.068 279.291 290.167L279.795 290.046L284.726 296.245ZM265.395 271.444C266.862 271.078 267.475 271.593 267.963 272.007C268.407 272.385 268.83 272.743 269.624 271.927C270.499 271.029 272.99 270.47 275.058 270.708C276.276 270.844 277.143 271.247 277.501 271.838C278.07 272.771 277.135 273.612 276.046 274.465C275.526 274.871 275.24 275.093 275.312 275.338C275.369 275.523 275.603 275.567 275.8 275.579C276.719 275.652 281.319 276.131 281.827 278.56C282.19 280.298 278.642 282.173 277.102 282.901C275.897 281.437 274.397 280.339 272.599 279.618C268.007 277.788 262.851 278.987 260.13 280.371C260.352 278.222 261.323 272.466 265.395 271.444ZM234.796 322.097C234.954 321.984 249.898 311.319 250.958 303.124C252.023 304.484 252.998 305.148 253.922 305.148C253.93 305.148 253.938 305.148 253.946 305.148C255.252 305.132 256.111 303.752 256.679 302.839C256.909 302.469 257.122 302.123 257.268 302.038L257.106 301.765C256.897 301.889 256.695 302.215 256.413 302.67C255.849 303.575 255.079 304.814 253.946 304.83C253.059 304.846 252.083 304.11 251.007 302.658C251.019 302.481 251.027 302.304 251.023 302.131C250.91 294.725 254.034 285.327 260.223 281.698C262.464 280.383 267.689 278.959 272.16 280.741C275.308 281.996 277.465 284.587 278.57 288.441C278.606 288.573 278.691 288.839 278.783 289.129C278.872 289.402 278.969 289.724 279.041 289.953C277.372 291.112 275.429 294.25 275.337 294.403L275.224 294.588C275.224 294.584 275.224 294.58 275.224 294.576L275.191 294.475L275.091 294.459C275.01 294.451 274.784 294.576 274.442 294.797C273.289 295.207 270.261 295.795 267.54 295.215C265.282 294.737 263.714 293.59 262.875 291.812L262.589 291.945C263.472 293.815 265.117 295.022 267.475 295.521C269.66 295.988 272.111 295.718 273.643 295.352C272.507 296.193 271.015 297.476 270.313 298.546C268.963 300.606 270.168 303.647 273.115 305.623C273.833 306.105 274.393 306.645 274.937 307.163C275.994 308.177 276.994 309.139 278.86 309.223C278.832 310.865 282.097 315 287.701 321.521C288.455 322.398 289.076 323.122 289.41 323.533C289.132 323.565 288.757 323.577 288.475 323.585C287.314 323.621 286.117 323.662 285.617 324.402C285.451 324.643 285.306 325.058 285.528 325.657C287.709 331.571 286.544 338.325 285.177 342.956C283.557 348.455 280.723 354.059 277.59 357.953C275.659 360.355 273.805 361.843 272.466 362.097C272.684 361.598 272.902 361.047 272.575 360.612C272.462 360.463 272.2 360.23 271.68 360.298C270.733 360.427 266.798 360.488 261.561 360.504L222.654 360.222L222.65 360.825C222.65 361.067 222.658 361.312 222.67 361.554L222.343 362.547C215.953 361.723 211.257 346.25 211.12 344.468C211.228 344.154 211.051 343.901 210.922 343.8C210.878 343.764 210.462 343.462 210.047 343.929C209.281 344.794 207.189 346.818 204.339 346.958C202.44 347.055 200.533 346.279 198.675 344.653C199.239 343.997 201.146 342.533 202.456 341.523C205.673 339.049 206.104 338.627 206.016 338.048C205.98 337.802 205.814 337.601 205.572 337.513C205.181 337.368 204.569 337.468 203.053 337.774C202.758 337.834 202.379 337.907 201.996 337.979C202.113 337.842 202.234 337.706 202.347 337.569L201.871 337.175C203.682 336.1 206.649 335.115 208.926 334.359C212.377 333.212 213.28 332.882 213.264 332.09C213.26 331.82 213.119 331.458 212.47 331.273C211.906 331.108 211.353 330.967 210.866 330.847C210.16 330.67 209.233 330.432 208.878 330.235C210.084 328.807 214.103 328.095 218.36 327.339C223.996 326.349 230.39 325.218 234.796 322.097ZM222.057 325.44C220.739 325.701 219.42 325.935 218.146 326.16C213.188 327.037 209.269 327.733 207.854 329.583C207.532 330.006 207.56 330.372 207.645 330.605C207.903 331.345 208.906 331.599 210.563 332.021C210.829 332.09 211.099 332.158 211.374 332.23C210.636 332.528 209.507 332.902 208.54 333.22C205.504 334.226 201.722 335.481 200.053 336.998C199.815 337.211 199.586 337.44 199.412 337.677C193.385 334.387 191.132 331.671 191.152 330.678C191.156 330.392 191.265 330.171 191.486 329.982C192.583 329.052 195.711 329.266 196.828 329.426L197.884 329.579L197.469 328.598C197.457 328.566 196.139 325.383 197.187 323.481C197.981 322.044 200.283 323.014 201.585 323.718C202.319 324.116 202.758 323.947 202.996 323.734C203.766 323.054 203.21 321.397 201.759 317.784C201.384 316.851 200.924 315.7 200.86 315.318C201.19 315.233 202.134 315.398 202.658 315.491C203.21 315.587 203.734 315.68 204.157 315.68C205.25 315.68 205.306 314.292 205.379 312.534C205.427 311.384 205.496 309.646 205.963 309.28C205.992 309.255 206.048 309.215 206.209 309.243C207.298 309.453 209.136 312.409 210.612 314.783C211.144 315.64 211.692 316.513 212.216 317.297L212.119 317.366C212.506 317.921 213.026 318.44 213.482 318.898C213.78 319.196 214.059 319.478 214.252 319.715C216.171 322.105 220.231 324.454 222.057 325.44ZM216.352 305.494C216.352 309.847 215.76 314.155 214.607 318.319C214.518 318.227 214.425 318.134 214.333 318.042C214.03 317.736 213.72 317.426 213.45 317.108L213.514 317.064C213.285 316.734 213.051 316.38 212.813 316.014C213.494 312.747 213.841 309.392 213.841 306.033C213.841 292.798 208.576 280.339 199.005 270.86L200.263 269.46C210.644 278.947 216.352 291.731 216.352 305.494ZM225.048 264.959C224.96 264.959 224.871 264.959 224.782 264.959C221.093 264.931 217.566 264.371 214.304 263.293C211.853 262.485 209.692 261.431 207.882 260.2L207.378 259.749L207.326 259.809C203.847 257.267 201.779 254.024 201.589 250.557L247.608 250.887L247.975 251.337C248.044 251.281 248.108 251.22 248.177 251.164C247.399 258.876 237.328 264.959 225.048 264.959ZM219.441 249.475L218.513 249.466C218.606 249.116 218.691 248.766 218.747 248.404C218.965 248.787 219.195 249.145 219.441 249.475ZM232.607 249.567C232.76 249.41 232.91 249.245 233.051 249.068C233.127 249.237 233.208 249.406 233.297 249.571L232.607 249.567ZM250.245 233.986C251.289 234.751 251.958 236.054 252.188 237.744C252.64 241.127 251.277 245.709 248.943 248.638C248.652 249.004 248.334 249.35 248.003 249.676L234.708 249.579C234.357 249.044 234.083 248.465 233.885 247.853C233.901 247.829 233.913 247.809 233.93 247.781L233.845 247.733C233.091 245.258 233.571 242.302 235.256 239.791C235.417 239.55 235.595 239.309 235.776 239.079H235.961C235.961 239.011 235.957 238.934 235.953 238.862C239.477 234.602 246.814 231.468 250.245 233.986ZM218.235 241.219C218.449 235.748 222.597 228.945 226.983 229.11C231.204 229.263 234.284 235.716 234.7 238.512C234.546 238.713 234.389 238.918 234.248 239.128C232.454 241.803 231.89 244.949 232.571 247.672C232.027 248.501 231.563 248.972 230.769 249.535L230.785 249.555L221.045 249.487C220.11 248.557 219.344 247.137 218.844 245.548C218.763 244.667 218.582 243.786 218.3 242.925C218.3 242.921 218.296 242.917 218.296 242.913C218.235 242.342 218.211 241.775 218.235 241.219ZM201.795 248.046C200.654 244.579 200.976 239.864 202.557 236.834C203.379 235.261 204.492 234.224 205.774 233.833C208.374 233.045 211.015 234.928 212.357 236.118C214.438 237.965 216.244 240.652 217.102 243.167C217.203 244.068 217.393 244.965 217.655 245.818C217.751 247.069 217.618 248.304 217.26 249.458L202.331 249.35C202.125 248.927 201.94 248.493 201.795 248.046ZM201.755 255.408C202.803 257.364 204.415 259.158 206.508 260.707L169.164 302.247C167.935 300.015 165.701 298.373 163.045 297.887L183.363 275.455L201.755 255.408ZM191.563 264.738C186.532 261.322 181.001 258.816 175.163 257.283C182.033 258.695 188.495 261.189 192.571 263.639L191.563 264.738ZM167.568 221.157C166.713 222.279 165.153 223.623 162.557 223.647C159.767 223.671 157.812 222.706 156.808 220.767C155.949 219.113 155.768 216.712 156.292 214.008C157.183 209.426 159.465 204.8 162.565 204.8C164.964 204.8 166.758 206.312 168.846 214.049C169.507 216.523 169.019 219.246 167.568 221.157ZM209.999 176.044C210.45 179.427 209.088 184.009 206.754 186.938C204.069 190.313 199.84 191.745 196.405 190.74C196.135 190.623 195.857 190.522 195.57 190.438C195.083 190.229 194.615 189.967 194.179 189.645C192.635 188.511 191.636 186.781 191.37 184.778C191.035 182.267 191.849 179.56 193.611 177.347C196.236 174.052 201.162 171.385 204.911 171.385C206.121 171.385 207.209 171.663 208.056 172.286C209.1 173.051 209.769 174.35 209.999 176.044ZM199.436 113.362C203.601 123.581 205.709 137.323 205.709 154.207C205.709 159.622 205.278 164.993 204.439 170.19C202.073 170.315 199.461 171.317 197.179 172.721C198.251 166.912 198.799 160.849 198.799 154.686C198.799 131.779 194.925 103.414 176.679 97.0574C177.082 96.0477 177.304 94.9575 177.304 93.8149V91.2443C187.306 94.4305 194.752 101.865 199.436 113.362ZM192.035 34.0823C192.035 28.6071 195.925 21.6635 200.299 21.6635C204.673 21.6635 208.564 28.6071 208.564 34.0823C208.564 36.5202 207.753 38.8093 206.294 40.5713H194.308C192.845 38.8093 192.035 36.5202 192.035 34.0823ZM190.604 41.7782H210.196C209.894 44.0713 207.898 46.1471 204.923 47.2253C203.407 46.5052 200.396 45.5236 196.731 46.6822C196.324 46.8109 195.937 46.9517 195.562 47.1046C192.728 45.9862 190.886 43.9989 190.604 41.7782ZM174.663 70.494L174.659 70.4899C174.917 70.4578 175.187 70.3411 175.469 70.1118C177.695 68.2813 179.662 69.2871 182.521 71.7813C182.722 71.9583 182.928 72.1434 183.141 72.3325C185.762 74.6698 189.721 78.2059 193.619 74.3318C196.397 71.5761 195.22 68.9411 193.591 65.2963C192.752 63.4216 191.805 61.2935 191.128 58.6384C189.729 53.1631 191.736 49.5264 197.094 47.8287C201.694 46.3724 205.242 48.7741 205.278 48.7983L205.339 48.8345C208.362 50.4517 208.652 52.6804 208.362 54.2614C207.878 56.9125 205.447 59.4228 203.053 59.7366C201.609 59.9297 200.428 59.2539 199.63 57.7855C199.598 57.6809 199.561 57.5803 199.529 57.4838C199.493 57.3792 199.457 57.2706 199.424 57.1619C199.473 56.816 199.848 56.4459 200.529 55.8867C201.154 55.3717 201.742 54.889 201.597 54.2051C201.456 53.5493 200.698 53.2597 199.977 53.0626C199.251 52.8654 198.352 52.7126 197.816 53.2718C197.163 53.9597 197.497 55.1786 198.203 57.3188C198.215 57.5361 198.271 57.7654 198.388 58.0068C198.429 58.0953 198.473 58.1797 198.517 58.2602C199.662 61.728 201.275 66.8411 201.275 73.7244C201.275 76.9628 200.162 79.5134 197.969 81.2956C194.292 84.2886 188.576 84.3288 186.383 83.8783C184.347 83.4599 183.27 82.3013 182.129 81.0703C181.279 80.153 180.4 79.2036 179.126 78.6485C178.344 78.3065 177.562 78.1697 176.836 78.1697C176.747 78.1697 176.659 78.1778 176.574 78.1818C176.57 78.1697 176.566 78.1577 176.558 78.1456L176.469 78.1858C175.413 78.2542 174.49 78.6002 173.857 79.0105C173.619 79.1674 173.422 79.3324 173.264 79.5013C172.619 78.6766 171.511 76.7738 171.801 74.7744C172.091 72.7589 174.639 70.5181 174.663 70.494ZM198.949 55.6815C198.719 54.9131 198.582 54.2896 198.679 54.1166C198.683 54.1166 198.727 54.0924 198.86 54.0924C199.001 54.0924 199.247 54.1206 199.654 54.2292C200.005 54.3258 200.206 54.4062 200.319 54.4666C200.182 54.6114 199.936 54.8125 199.759 54.9614C199.505 55.1625 199.215 55.4039 198.949 55.6815ZM160.17 38.9944C160.17 33.5191 164.06 26.5755 168.435 26.5755C172.809 26.5755 176.699 33.5191 176.699 38.9944C176.699 41.4323 175.889 43.7213 174.429 45.4833H162.444C160.98 43.7213 160.17 41.4323 160.17 38.9944ZM158.759 46.6943H178.283C177.675 48.9189 173.893 51.4252 170.366 52.62L170.37 52.6321H169.838V66.294H165.863V52.6321H165.093L165.141 52.5034C162.226 51.4172 159.219 49.0235 158.759 46.6943ZM162.004 75.4784H162.178V75.3497C162.25 75.2974 162.319 75.2451 162.396 75.1928L162.178 74.8629V71.8618C162.178 69.6089 164.097 67.7785 166.455 67.7785H170.587C171.273 67.7785 171.89 68.4664 172.49 69.1342C172.756 69.4319 173.059 69.7698 173.393 70.0313C172.551 70.8641 170.874 72.7307 170.6 74.6054C170.176 77.5059 172.127 80.318 172.942 80.8973C173.288 81.1427 173.571 81.0622 173.704 80.9938C173.905 80.8892 174.034 80.6841 174.05 80.4548C174.103 80.3461 174.409 80.0203 175.058 79.7427C175.22 79.6743 175.461 79.5858 175.764 79.5134C175.977 80.2174 176.09 80.9496 176.09 81.6938V93.819C176.09 95.054 175.784 96.2166 175.256 97.2586C173.151 98.2563 170.575 98.8034 167.854 98.8034C165.145 98.8034 162.573 98.2603 160.468 97.2666C160.275 96.8925 160.114 96.5023 159.985 96.0959C159.751 95.3597 159.634 94.5954 159.634 93.819V89.5104C159.646 89.5104 159.654 89.5104 159.666 89.5064L159.634 88.9593V81.6938C159.634 78.7329 160.392 76.7456 162.004 75.4784ZM175.006 97.7132C173.587 100.091 170.918 101.696 167.862 101.696C164.899 101.696 162.182 100.123 160.731 97.7212C162.799 98.6183 165.266 99.1132 167.854 99.1132C170.458 99.1172 172.934 98.6183 175.006 97.7132ZM134.071 105.152C139.989 95.7701 148.181 90.5443 158.425 89.6029V93.819C158.425 94.35 158.477 94.877 158.574 95.4C145.516 96.8 130.479 108.454 130.479 154.69C130.479 160.318 130.914 165.234 131.934 171.019C128.947 171.136 126.318 172.037 125.068 174.065C125.008 174.161 124.959 174.266 124.907 174.37C123.528 167.604 123.331 160.427 123.331 154.211C123.331 149.822 123.496 145.546 123.823 141.499C125.048 126.212 128.499 113.982 134.071 105.152ZM155.727 198.226L156.038 198.299C157.227 193.198 155.84 190.667 155.49 190.136L155.542 190.015C155.566 189.959 156.167 188.595 157.594 188.708C159.005 188.817 160.731 190.905 160.726 193.206C160.726 194.429 160.722 198.15 158.07 198.938C156.925 199.28 155.796 198.387 155.784 198.379L155.647 198.271L155.55 198.419C155.53 198.452 153.563 201.453 152.055 200.914C150.652 200.407 150.866 198.814 150.906 198.568C153.349 195.165 151.236 191.528 150.624 190.607C150.652 190.571 150.68 190.542 150.708 190.498C150.821 190.321 150.89 190.1 150.958 189.867C151.128 189.303 151.321 188.668 152.208 188.366C154.208 187.686 155.203 189.927 155.248 190.024L155.292 190.124L155.159 190.225C155.179 190.241 157.009 192.719 155.727 198.226ZM150.374 190.796C150.974 191.693 152.966 195.149 150.648 198.375C150.309 198.54 147.528 199.88 145.951 199.538C146.455 199.144 147.088 198.194 147.475 197.442C147.882 196.649 148.894 194.364 147.999 192.751L147.995 192.405C147.947 192.405 147.858 192.389 147.737 192.369C147.519 192.103 147.233 191.862 146.866 191.665C144.943 190.627 144.597 190.687 143.307 190.921C143.157 190.949 143 190.977 142.827 191.005L143.367 190.639C144.064 190.422 144.722 190.136 145.33 189.778C147.423 189.315 148.588 190.02 149.33 190.47C149.717 190.711 150.067 190.921 150.374 190.796ZM141.799 191.001C142.017 190.969 142.234 190.929 142.448 190.884L142.162 191.078C142.045 191.053 141.924 191.029 141.799 191.001ZM147.165 192.244C146.826 192.164 146.427 192.067 146.032 191.971C145.205 191.769 144.21 191.528 143.101 191.279C143.194 191.263 143.282 191.247 143.367 191.23C144.601 191.005 144.895 190.953 146.721 191.942C146.887 192.035 147.032 192.136 147.165 192.244ZM133.74 188.221C130.075 186.137 126.641 181.966 125.758 178.522C125.363 176.985 125.475 175.698 126.096 174.696C127.08 173.099 129.467 172.194 132.664 172.194C132.768 172.194 132.873 172.194 132.978 172.198C136.131 172.254 139.658 173.184 142.182 174.62C144.996 176.221 147.003 178.671 147.689 181.338C148.173 183.233 147.939 185.031 147.003 186.544C144.677 190.305 138.727 191.061 133.74 188.221ZM121.509 181.052C118.138 176.953 115.082 172.745 114.683 166.417C114.333 160.833 113.059 158.476 111.829 156.199C111.599 155.772 111.369 155.346 111.14 154.891C110.853 154.324 110.547 153.765 110.253 153.226C109.567 151.979 108.717 150.43 108.947 149.943C108.999 149.83 109.196 149.774 109.354 149.746C110.966 149.456 114.788 151.166 116.127 151.85L116.739 150.812C113.494 148.636 105.032 142.36 104.851 139.52C104.834 139.234 104.911 139.033 105.092 138.872C105.826 138.445 110.89 139.282 115.163 140.3L117.489 140.855L115.707 139.262C111.894 135.859 108.717 132.198 108.83 131.341C108.874 131.325 108.987 131.297 109.221 131.305C112.446 131.429 119.904 138.268 122.637 141.02C122.625 141.145 122.613 141.266 122.605 141.39C122.275 145.469 122.109 149.782 122.109 154.199C122.109 160.998 122.343 168.935 124.081 176.297L124.347 176.233C124.27 177.029 124.343 177.898 124.58 178.812C125.552 182.601 129.148 186.994 133.135 189.263C133.607 189.533 134.087 189.762 134.574 189.975C133.748 189.927 132.93 189.911 132.127 189.931C128.854 188.945 123.714 183.736 121.509 181.052ZM147.31 215.798C147.169 215.666 147.032 215.533 146.891 215.4C144.657 213.312 143.452 209.647 142.387 206.413C141.815 204.667 141.271 203.018 140.618 201.758C137.844 196.428 134.861 193.873 131.982 194.364L131.208 194.497L131.535 195.209C131.543 195.229 132.466 197.333 131.648 198.657C131.184 199.409 130.2 199.815 128.733 199.868C126.818 199.928 125.314 198.154 124.935 196.392C124.516 194.429 125.455 192.779 127.447 191.975C128.773 191.44 130.378 191.198 132.099 191.15C132.474 191.247 132.837 191.303 133.184 191.303C133.458 191.303 133.724 191.271 133.974 191.202L133.966 191.166C138.404 191.351 143.19 192.518 145.75 193.141C147.092 193.467 147.661 193.6 147.987 193.612C148.12 194.24 148.04 194.911 147.898 195.487C147.39 197.542 145.887 199.401 145.588 199.409L145.451 199.695C146.882 200.387 149.7 199.176 150.575 198.761C150.539 199.365 150.612 200.712 151.954 201.199C152.111 201.256 152.273 201.284 152.434 201.284C153.853 201.284 155.34 199.28 155.727 198.721C156.086 198.971 157.094 199.554 158.162 199.236C159.779 198.753 160.489 197.313 160.803 195.913C161.936 195.905 163.367 195.949 164.883 195.99C166.463 196.034 168.068 196.082 169.491 196.082C170.886 196.082 172.107 196.038 172.958 195.905L172.772 194.714C171.168 194.964 167.85 194.871 164.919 194.787C163.476 194.746 162.109 194.706 160.989 194.706C161.045 194.083 161.049 193.54 161.049 193.186C161.049 190.897 159.356 188.519 157.622 188.386C156.397 188.298 155.691 189.155 155.405 189.609C155.034 188.961 153.942 187.433 152.115 188.052C151.075 188.406 150.837 189.191 150.664 189.762C150.599 189.975 150.539 190.176 150.45 190.313C150.257 190.615 150.108 190.567 149.503 190.197C148.81 189.774 147.765 189.138 146 189.34C146.814 188.752 147.507 188.028 148.04 187.163C149.132 185.393 149.426 183.213 148.866 181.028C148.1 178.047 145.887 175.324 142.787 173.562C140.227 172.105 136.562 171.104 133.172 171.007C132.143 165.206 131.7 160.302 131.7 154.682C131.7 109.138 146.294 97.8379 158.888 96.5707C160.134 100.3 163.807 102.899 167.874 102.899C171.45 102.899 174.566 100.976 176.167 98.1477C193.857 104.186 197.602 132.117 197.602 154.682C197.602 160.684 197.074 166.582 196.05 172.242C196.123 170.086 196.002 167.157 195.014 165.544C192.736 161.819 189.584 157.462 188.588 156.098C189.33 155.394 190.104 154.69 190.273 154.585L190.551 154.404L190.587 154.107C190.712 153.069 185.181 146.399 182.271 143.603C181.021 142.404 179.948 139.556 179.174 135.364L178.981 135.4C179.743 135.014 180.017 134.563 180.598 133.497C181.214 132.359 179.747 130.452 178.715 129.317L184.593 127.225C184.806 127.246 185.012 127.266 185.214 127.29L185.629 127.334L185.347 127.024C185.141 126.799 180.884 122.181 177.913 122.185C177.888 121.718 177.82 121.066 177.634 120.338C178.094 119.952 178.461 119.513 178.767 119.139C179.207 118.604 179.553 118.182 179.932 118.182L180.017 118.17L180.065 118.118C180.283 117.884 182.222 113.777 181.964 110.41C181.916 109.778 181.702 109.331 181.327 109.086C180.537 108.563 179.199 109.01 177.904 109.44C176.844 109.794 175.744 110.16 175.175 109.887C174.494 109.561 174.312 108.788 174.119 107.968C173.881 106.958 173.607 105.811 172.321 105.357C171.039 104.902 169.656 106.165 168.322 107.392C167.266 108.362 166.165 109.364 165.298 109.283C164.484 109.207 163.863 108.652 163.206 108.068C162.307 107.268 161.291 106.358 159.622 106.696C158.158 106.99 158.138 108.491 158.122 109.814C158.106 111.254 158.09 112.501 156.631 112.57C155.111 112.638 153.994 113.214 153.49 114.191C153.071 115 153.139 115.973 153.675 116.798C154.087 117.438 154.78 117.997 155.393 118.496C155.945 118.946 156.518 119.409 156.481 119.658C156.465 119.767 156.3 119.855 156.167 119.908C154.885 120.419 155.018 122.056 155.26 122.82C155.324 123.673 156.26 124.059 157.272 124.228C154.01 129.973 146.616 139.805 143.629 141.821C140.61 143.856 132.184 144.025 132.099 144.029L132.119 145.236C132.297 145.232 134.494 145.188 137.058 144.87C136.969 147.622 137.445 149.315 138.505 150.04C139.779 150.908 141.601 150.108 142.807 149.581C143.29 149.368 143.746 149.171 143.96 149.175C143.984 149.175 144.008 149.179 144.024 149.179C143.96 149.251 143.843 149.36 143.746 149.452C143.149 150.003 142.041 151.029 142.839 152.381C143.137 152.884 143.734 153.137 144.617 153.137C144.81 153.137 145.02 153.125 145.242 153.101C147.241 152.88 149.999 151.665 150.958 150.808C150.91 151.379 150.914 152.176 151.285 152.65C151.466 152.884 151.716 153.021 152.027 153.049C155.687 153.419 157.985 149.959 158.356 149.082C158.404 148.969 158.441 148.913 158.461 148.885C158.517 148.953 158.602 149.13 158.662 149.263C158.864 149.686 159.138 150.269 159.65 150.297C160.662 150.357 161.666 149.927 162.641 149.01C164.359 147.396 165.447 144.733 165.447 144.041H165.129C165.129 144.673 164.048 147.248 162.42 148.776C161.513 149.629 160.593 150.036 159.666 149.975C159.34 149.955 159.122 149.492 158.945 149.118C158.787 148.784 158.67 148.539 158.453 148.539H158.449C158.255 148.543 158.142 148.748 158.058 148.949C157.582 150.072 155.288 153.049 152.055 152.727C151.833 152.703 151.664 152.614 151.535 152.449C151.245 152.075 151.18 151.351 151.341 150.297C151.361 150.16 151.382 150.031 151.236 149.995C151.091 149.963 151.055 150.068 150.986 150.281C150.805 150.84 147.612 152.518 145.209 152.779C144.456 152.864 143.476 152.831 143.113 152.212C142.444 151.081 143.359 150.237 143.964 149.677C144.266 149.4 144.447 149.231 144.379 149.042C144.314 148.869 144.081 148.857 143.98 148.853C143.702 148.837 143.274 149.026 142.686 149.283C141.476 149.814 139.819 150.542 138.691 149.77C137.731 149.118 137.292 147.449 137.38 144.822C139.9 144.492 142.71 143.892 144.31 142.814C147.608 140.59 155.598 129.909 158.739 124.071C159.098 123.408 159.424 122.776 159.731 122.177C162.101 117.586 163.295 115.285 169.378 115.543C175.852 115.816 176.675 120.447 176.727 122.426L176.885 122.422C176.852 122.438 176.816 122.45 176.784 122.47L176.941 122.744C179.235 121.42 183.657 125.717 184.835 126.928C184.794 126.924 184.746 126.92 184.702 126.916L184.681 126.859L184.564 126.9C182.569 126.711 177.933 126.393 177.59 127.475C177.32 128.32 177.397 128.529 177.517 128.625C177.562 128.662 177.614 128.678 177.663 128.678C178.674 129.631 180.972 132.17 180.331 133.348C179.509 134.865 179.42 135.026 177.251 135.718C175.409 136.309 174.24 135.702 173.208 135.171C173.051 135.09 172.901 135.014 172.752 134.941C171.958 134.559 171.434 133.968 171.188 133.183C170.503 130.975 172.228 127.921 172.244 127.889L172.635 127.205L172.011 127.688C171.974 127.716 168.495 130.387 165.705 130.158C162.968 129.937 161.863 127.869 161.855 127.849L161.573 127.994C161.621 128.086 162.758 130.239 165.681 130.472C167.935 130.653 170.563 129.072 171.672 128.32C171.188 129.346 170.342 131.518 170.89 133.28C171.16 134.153 171.74 134.805 172.615 135.227C172.76 135.299 172.91 135.376 173.063 135.452C173.796 135.831 174.655 136.277 175.8 136.277C176.264 136.277 176.78 136.205 177.348 136.02C177.606 135.939 177.832 135.863 178.038 135.79C178.868 140.175 180.017 143.1 181.448 144.472C184.601 147.497 188.471 152.473 189.273 153.853C188.709 154.328 187.818 155.177 187.382 155.595L186.999 155.961L187.318 156.388C187.358 156.44 191.301 161.758 194.002 166.172C195.147 168.042 194.909 172.657 194.695 174.543C193.93 175.199 193.248 175.891 192.692 176.591C190.729 179.057 189.821 182.094 190.2 184.93C190.467 186.93 191.37 188.692 192.756 189.995C190.386 189.939 187.632 190.506 184.419 191.407C184.077 190.092 183.319 188.611 182.295 188.523C181.186 188.426 180.392 189.311 180.065 189.758L180.057 189.766C179.743 189.187 178.832 187.863 177.191 188.197C175.586 188.523 175.316 189.436 175.143 190.044C175.123 190.116 175.103 190.18 175.082 190.241C174.756 189.891 173.998 189.223 173.022 189.295C172.043 189.368 171.14 190.156 170.329 191.645L170.128 191.987L170.499 191.874C170.511 191.874 171.031 191.834 172.414 193.612C173.196 194.622 173.087 196.77 172.752 198.299C172.51 199.413 172.236 199.888 172.152 199.932C172.16 199.928 172.188 199.924 172.212 199.936L172.059 200.214C173.325 200.918 175.796 199.417 176.57 198.91C176.635 199.502 176.905 200.837 178.09 201.328C178.231 201.388 178.376 201.412 178.521 201.412C179.574 201.412 180.662 199.996 181.182 199.212C181.198 199.248 181.222 199.284 181.255 199.317C181.416 199.49 181.694 199.502 182.101 199.365C184.407 198.576 184.548 194.891 184.605 193.318C184.609 193.169 184.617 193.037 184.621 192.932C184.625 192.832 184.625 192.719 184.617 192.602C189.592 191.202 192.764 190.848 195.131 191.54C195.417 191.661 195.711 191.774 196.01 191.862C196.433 192.051 196.836 192.272 197.219 192.538C199.658 194.248 199.973 196.496 199.457 198.029C198.933 199.582 197.602 200.556 196.058 200.495C194.591 200.443 193.611 200.037 193.143 199.284C192.313 197.949 193.244 195.853 193.252 195.833L193.579 195.121L192.805 194.988C189.93 194.497 186.943 197.052 184.169 202.382C183.512 203.641 182.972 205.291 182.4 207.033C181.335 210.267 180.13 213.932 177.896 216.02C177.755 216.153 177.614 216.285 177.477 216.418C176.01 217.822 174.611 219.15 169.753 219.701C170.454 217.842 170.579 215.71 170.043 213.727C168.6 208.38 166.947 203.585 162.593 203.585C159.94 203.585 156.59 206.26 155.135 213.771C154.849 215.255 154.655 217.198 155.01 219.065C150.168 218.518 148.773 217.198 147.31 215.798ZM177.788 128.396L177.703 128.316L177.695 128.32C177.695 128.219 177.727 128.006 177.864 127.575C178.062 126.956 181.118 126.952 183.819 127.161L178.465 129.068C178.098 128.686 177.828 128.432 177.788 128.396ZM157.646 123.508C157.57 123.649 157.493 123.794 157.413 123.939C156.55 123.806 155.603 123.5 155.546 122.764C155.538 122.744 154.933 120.732 156.264 120.205C156.574 120.081 156.743 119.92 156.776 119.711C156.84 119.28 156.284 118.826 155.574 118.254C154.982 117.776 154.308 117.228 153.925 116.633C153.454 115.905 153.393 115.048 153.756 114.34C154.208 113.471 155.228 112.956 156.631 112.892C158.384 112.811 158.404 111.226 158.421 109.826C158.437 108.507 158.453 107.256 159.666 107.01C161.178 106.704 162.093 107.517 162.976 108.306C163.641 108.897 164.331 109.512 165.246 109.601C166.262 109.702 167.354 108.692 168.515 107.63C169.781 106.471 171.087 105.268 172.196 105.662C173.321 106.061 173.559 107.071 173.792 108.048C173.994 108.901 174.204 109.786 175.022 110.176C175.711 110.506 176.816 110.136 177.989 109.746C179.215 109.339 180.477 108.917 181.138 109.356C181.428 109.549 181.589 109.903 181.634 110.442C181.871 113.511 180.15 117.401 179.844 117.876C179.352 117.916 178.977 118.375 178.509 118.946C178.223 119.292 177.909 119.666 177.526 120.004C176.82 117.611 174.853 114.577 169.402 114.348C162.545 114.058 160.985 117.072 158.63 121.634C158.32 122.225 157.997 122.853 157.646 123.508ZM184.278 192.92C184.27 193.029 184.266 193.157 184.262 193.31C184.206 194.819 184.073 198.355 181.972 199.071C181.589 199.2 181.48 199.131 181.46 199.107C181.404 199.051 181.42 198.906 181.452 198.785L181.666 198.83C182.633 194.059 180.847 190.929 180.239 190.032C180.485 189.678 181.226 188.756 182.242 188.841C183.105 188.917 183.774 190.289 184.089 191.496C184.085 191.496 184.077 191.5 184.073 191.5L184.169 191.842C184.254 192.268 184.294 192.651 184.278 192.92ZM176.554 198.528C176.24 198.745 173.776 200.395 172.45 200.049C173.071 199.172 173.921 195.08 172.635 193.423C171.628 192.124 171.015 191.717 170.684 191.605C171.406 190.345 172.188 189.674 173.01 189.613C174.127 189.533 174.962 190.623 174.97 190.635L175.115 190.828L175.232 190.615C175.308 190.478 175.357 190.309 175.409 190.128C175.582 189.533 175.8 188.793 177.219 188.503C179.029 188.137 179.819 190.06 179.856 190.14L179.977 190.442L180.045 190.325C180.682 191.311 182.214 194.248 181.363 198.637L181.186 198.552C180.71 199.393 179.239 201.481 178.179 201.038C176.961 200.535 176.844 198.906 176.836 198.661C179.021 194.187 175.449 190.538 175.413 190.502L175.187 190.724C175.232 190.76 178.638 194.26 176.554 198.528ZM152.615 228.636C152.615 226.001 153.901 223.527 156.078 221.913C157.042 223.374 158.896 224.858 162.44 224.858C162.48 224.858 162.525 224.858 162.565 224.858C164.601 224.838 166.431 224.078 167.814 222.702C169.434 224.287 170.358 226.423 170.358 228.64V255.457C170.358 255.694 170.346 255.927 170.325 256.165C169.922 256.116 169.519 256.076 169.12 256.036V228.463H168.801V256C168.652 255.988 168.499 255.972 168.35 255.96C166.008 255.658 163.637 255.493 161.238 255.493C158.707 255.493 156.195 255.67 153.724 256.012V228.181H153.405V256.056C153.139 256.096 152.873 256.128 152.607 256.173V228.636H152.615ZM161.243 256.7C171.886 256.7 182.065 259.793 190.733 265.635L182.5 274.61C176.328 270.663 169.132 268.656 161.081 268.656C150.196 268.656 140.073 272.832 132.571 280.411L132.78 280.616L122.355 273.781C132.144 262.923 146.274 256.7 161.243 256.7ZM157.808 298.482C157.118 298.78 156.473 299.162 155.893 299.616L100.065 262.774C100.783 262.525 101.472 262.255 102.137 261.97L157.808 298.482ZM72.474 153.033C72.9941 151.584 74.6308 152.131 76.2112 152.663C76.8925 152.892 77.5375 153.109 78.0495 153.137C79.0735 153.189 79.1461 152.232 79.2267 151.214C79.2993 150.305 79.3799 149.271 80.0209 148.483C80.3757 148.048 80.7869 147.835 81.2908 147.847C82.4639 147.875 83.8145 149.142 84.6812 150.317C84.9755 150.711 85.2497 150.917 85.552 150.953C86.0277 151.013 86.447 150.671 87.0316 150.196C87.6524 149.694 88.4224 149.074 89.5714 148.656C90.0148 148.495 90.3535 148.495 90.6115 148.66C91.1961 149.034 91.2928 150.192 91.3815 151.214C91.4541 152.075 91.5145 152.751 91.833 153.021C91.9338 153.105 92.0548 153.145 92.1918 153.133L92.2523 153.129C93.5424 153.012 96.961 152.711 97.3158 155.181C97.6101 157.22 94.5986 159.485 93.3972 160.302C93.3851 160.294 93.3771 160.286 93.365 160.278C91.8532 159.107 85.7657 156.73 80.3434 158.085C78.7026 158.496 77.2553 159.2 76.0136 160.189C74.909 158.826 71.829 154.819 72.474 153.033ZM66.2051 172.516L72.0467 166.94L72.6635 167.185C74.1672 168.296 76.4853 170.919 77.1424 171.675C75.937 171.896 70.8614 172.757 66.2051 172.516ZM61.6254 247.439C61.6294 247.439 61.6334 247.439 61.6375 247.439H61.6415C61.6375 247.439 61.6334 247.439 61.6254 247.439ZM61.7463 247.435C60.9924 246.771 58.7913 241.823 58.5937 240.294C58.4083 238.87 57.0457 238.737 55.7274 238.609C54.913 238.528 53.9938 238.44 53.0908 238.102C51.3936 237.466 52.4659 230.587 52.8731 227.996C52.9497 227.497 53.0182 227.059 53.0706 226.697C53.4173 224.194 52.4055 223.346 51.3331 222.444C50.9783 222.147 50.6115 221.841 50.2648 221.447C49.9664 221.109 49.7407 219.572 54.0624 212.572C54.2156 212.323 54.3405 212.122 54.4252 211.981C54.7155 211.494 54.659 211.112 54.5623 210.878C54.3002 210.255 53.5423 210.066 52.8086 209.881C52.5385 209.812 52.0668 209.696 51.8773 209.583C52.3369 208.493 56.4369 204.385 58.0132 202.804C58.5292 202.289 58.9606 201.855 59.2549 201.553C59.4161 201.384 59.908 200.877 59.7427 200.258C59.5653 199.594 58.8155 199.377 58.1543 199.184C58.0092 199.144 57.8076 199.083 57.6504 199.023C59.3315 197.345 68.8659 188.523 69.7165 188.04C69.7125 188.04 69.6923 188.056 69.652 188.068L69.4666 187.493C70.0793 188.109 70.7566 188.756 71.7322 188.756C72.1112 188.756 72.5345 188.66 73.0183 188.422C75.0662 187.417 77.0255 185.663 78.6018 184.255C79.4565 183.49 80.1902 182.831 80.8191 182.388C82.5325 181.181 81.5851 179.286 80.67 177.456C80.5289 177.178 80.3918 176.897 80.2547 176.611C79.4242 174.853 79.5815 172.91 79.8999 172.701C79.9241 172.685 79.9725 172.737 79.9927 172.757C80.5006 173.328 83.7258 172.858 84.0927 172.801C84.8062 172.693 88.3821 172.101 88.8538 171.055L88.5635 170.927C88.3095 171.49 86.4914 172.117 84.0443 172.492C81.9399 172.809 80.4281 172.769 80.2305 172.548C80.0007 172.286 79.7871 172.395 79.7266 172.435C79.2106 172.777 79.1098 174.929 79.9685 176.744C80.1015 177.029 80.2467 177.311 80.3837 177.593C81.315 179.459 82.1213 181.072 80.6337 182.127C79.9886 182.581 79.2468 183.245 78.3882 184.013C76.828 185.409 74.8889 187.143 72.8772 188.133C71.321 188.897 70.4986 188.076 69.6278 187.203C69.1964 186.773 68.7933 186.367 68.2974 186.162C66.9348 185.598 65.548 184.251 66.1366 182.299C66.7131 180.377 68.2047 179.254 70.9098 177.214L71.196 176.997C73.0424 175.605 74.4575 172.665 74.518 172.54L74.2882 172.431C76.1749 172.19 77.4488 171.936 77.477 171.932L77.7391 171.88L77.5657 171.675C77.4327 171.518 74.6228 168.223 72.8368 166.912C72.9417 166.69 73.0787 166.397 73.1916 166.159C73.3206 165.89 73.4375 165.645 73.494 165.52C74.9856 162.177 77.3924 160.069 80.6458 159.256C85.5923 158.021 91.2969 160.197 92.6313 161.231C95.1872 163.215 95.5863 170.504 94.6591 176.354C93.4174 184.21 95.2396 188.374 95.3162 188.551L95.3525 188.636L99.5654 193.435C96.5579 193.278 96.2515 193.56 96.0943 193.705C95.9532 193.833 95.8766 194.01 95.8766 194.195C95.8766 194.992 98.4406 199.043 99.7831 200.145C100.65 200.857 103.319 202.354 105.677 203.673C106.717 204.257 107.866 204.9 108.455 205.258C108.1 205.48 107.499 205.769 106.911 205.999L105.306 206.618L116.227 210.086L116.336 210.11C116.385 210.114 121.017 210.709 125.854 211.772C133.925 213.546 136.078 215.163 136.626 216.016C136.252 216.165 135.292 216.277 134.566 216.366C134.067 216.426 133.498 216.49 132.918 216.579C132.252 216.68 132.063 217.021 132.023 217.287C131.902 218.071 132.748 218.518 136.006 220.099C138.622 221.37 142.21 223.116 143.484 224.641C143.593 224.774 143.677 224.882 143.742 224.975C143.097 224.858 141.992 224.48 141.331 224.255C139.872 223.756 139.279 223.575 138.872 223.667C138.622 223.724 138.433 223.901 138.36 224.138C138.195 224.701 138.562 225.176 141.4 228.048C142.557 229.215 144.234 230.913 144.701 231.637C142.617 233.017 140.606 233.536 138.723 233.182C135.941 232.659 134.167 230.394 133.53 229.444C133.184 228.925 132.732 229.167 132.684 229.199C132.522 229.291 132.277 229.565 132.434 229.959C132.462 231.387 126.834 243.171 125.258 245.327C123.948 247.117 122.097 248.05 120.634 248.666C119.795 249.016 116.03 248.288 113.627 247.656L113.478 247.636C101.9 247.544 64.9433 247.27 61.7463 247.435ZM65.2497 249.193H111.865C111.527 254.576 106.681 259.383 99.0493 261.841C95.7758 262.895 92.2442 263.43 88.5555 263.43C76.0136 263.434 65.7496 257.098 65.2497 249.193ZM99.4202 262.992C99.5089 262.963 99.5976 262.931 99.6863 262.903L155.635 299.826C154.22 301.012 153.204 302.626 152.805 304.456L149.394 302.195V302.147H149.322L92.4539 264.44C94.8687 264.186 97.2029 263.708 99.4202 262.992ZM134.115 328.119C128.818 321.863 125.903 314.067 125.903 306.073C125.903 300.634 127.185 295.429 129.7 290.581L148.185 302.839V312.623L134.115 328.119ZM132.152 330.279C126.221 323.649 122.956 315.217 122.956 306.459C122.956 300.401 124.528 294.423 127.503 289.125L129.434 290.408C126.882 295.308 125.584 300.574 125.584 306.073C125.584 314.155 128.535 322.036 133.897 328.356L132.152 330.279ZM149.394 303.643L150.563 304.42V310.004L149.394 311.291V303.643ZM150.882 304.629L152.627 305.788C152.619 305.924 152.615 306.061 152.615 306.202C152.615 306.705 152.664 307.196 152.752 307.674L152.716 307.638L150.882 309.658V304.629ZM126.491 288.457C126.318 288.767 126.149 289.076 125.983 289.39L115.611 283.344C115.889 282.829 116.175 282.318 116.473 281.815L126.491 288.457ZM109.854 306.033C109.854 298.216 111.789 290.529 115.461 283.621L125.838 289.672C123.157 294.861 121.746 300.626 121.746 306.463C121.746 315.559 125.153 324.317 131.333 331.184L123.641 339.653C114.748 330.492 109.854 318.573 109.854 306.033ZM91.3009 355.503C91.5145 350.032 95.6911 343.229 100.045 343.394C104.266 343.547 107.346 350 107.761 352.796C107.608 352.997 107.451 353.202 107.31 353.411C105.516 356.086 104.951 359.232 105.633 361.956C105.088 362.789 104.625 363.255 103.831 363.819L103.847 363.839L94.1068 363.77C93.1715 362.841 92.4055 361.421 91.9056 359.832C91.825 358.951 91.6476 358.07 91.3614 357.209C91.3614 357.205 91.3573 357.201 91.3573 357.197C91.3009 356.626 91.2767 356.058 91.3009 355.503ZM106.116 363.356C106.193 363.525 106.274 363.694 106.362 363.859L105.673 363.855C105.834 363.694 105.979 363.525 106.116 363.356ZM92.5103 363.758L91.5831 363.75C91.6758 363.4 91.7605 363.05 91.8169 362.688C92.0346 363.07 92.2644 363.428 92.5103 363.758ZM74.8606 362.33C73.7197 358.862 74.0422 354.147 75.6226 351.118C76.445 349.545 77.5536 348.507 78.8397 348.117C81.44 347.329 84.0806 349.211 85.423 350.402C87.5033 352.249 89.3093 354.936 90.1681 357.45C90.2688 358.351 90.4583 359.248 90.7204 360.101C90.8171 361.352 90.6841 362.592 90.3253 363.746L75.3968 363.637C75.1912 363.211 75.0058 362.777 74.8606 362.33ZM98.114 379.247C98.0253 379.247 97.9367 379.247 97.848 379.247C94.1592 379.218 90.6317 378.659 87.3702 377.581C79.7588 375.067 74.9493 370.223 74.655 364.84L120.674 365.17L121.041 365.621C121.109 365.564 121.174 365.504 121.242 365.448C120.464 373.16 110.394 379.247 98.114 379.247ZM122.008 362.925C121.718 363.292 121.4 363.637 121.069 363.963L107.769 363.867C107.419 363.332 107.144 362.752 106.947 362.141C106.963 362.117 106.975 362.093 106.991 362.069L106.907 362.02C106.153 359.546 106.632 356.589 108.318 354.079C108.479 353.838 108.656 353.596 108.838 353.367H109.023C109.023 353.299 109.019 353.226 109.015 353.15C112.547 348.881 119.88 345.747 123.311 348.266C124.355 349.034 125.024 350.334 125.254 352.023C125.705 355.411 124.339 359.993 122.008 362.925ZM124.028 347.296C123.311 346.769 122.488 346.447 121.601 346.287L152.297 312.607L152.063 312.393L121.295 346.154L121.412 346.258C120.747 346.154 120.041 346.142 119.319 346.21L149.217 313.29H149.394V313.093L153.111 308.998C153.962 311.335 155.852 313.202 158.243 314.095L125.858 349.678C125.435 348.684 124.818 347.88 124.028 347.296ZM138.598 337.472C138.807 337.613 139.017 337.754 139.227 337.891L132.119 346.681C131.724 346.419 131.337 346.146 130.95 345.872L138.598 337.472ZM147.523 354.831V405.701H147.842V354.912C150.958 355.696 154.159 356.207 157.421 356.428V406.486H157.739V356.448C158.904 356.521 160.073 356.569 161.251 356.569C163.851 356.569 166.427 356.384 168.955 356.03V406.727H169.273V355.982C171.245 355.692 173.188 355.298 175.099 354.799V405.307H175.417V354.715C176.602 354.397 177.771 354.043 178.924 353.649C179.735 353.427 180.541 353.186 181.339 352.924L181.186 404.41C180.339 406.562 172.41 408.807 161.291 408.807C149.519 408.807 141.315 406.293 141.315 404.032L141.472 352.868C143.436 353.645 145.459 354.296 147.523 354.831ZM140.106 400.126L140.094 404.032C140.094 407.918 151.007 410.014 161.279 410.014C171.551 410.014 182.464 407.918 182.464 404.032H182.387L182.4 400.371C192.535 402.773 193.341 405.758 193.341 406.631C193.341 410.714 180.315 415.083 160.92 415.083C141.525 415.083 128.499 410.71 128.499 406.631C128.499 405.681 129.358 402.467 140.106 400.126ZM160.92 416.294C174.841 416.294 189.164 413.731 193.341 409.31V412.275L178.525 417.018V440.347L178.993 440.456C179.094 440.48 180.4 440.781 182.678 441.304C177.062 444.181 169.148 445.814 160.662 445.814C152.361 445.814 144.552 444.237 138.953 441.461C141.464 440.882 142.907 440.552 143.016 440.528L143.484 440.419V417.09L128.503 412.295V409.318C132.672 413.731 146.995 416.294 160.92 416.294ZM137.143 441.872C142.972 445.142 151.539 447.017 160.658 447.017C169.963 447.017 178.618 445.082 184.452 441.711C189.326 442.833 197.143 444.635 206.572 446.812C194.643 451.068 178.384 453.494 161.541 453.494C144.532 453.494 128.164 451.028 116.203 446.699C125.032 444.664 132.385 442.97 137.143 441.872ZM128.152 413.445L141.662 417.77L31.2363 455.288C31.1033 453.566 30.6276 451.844 29.9704 450.094L128.152 413.445ZM4.72145 418.78C4.69323 418.096 5.00769 417.501 5.68094 416.958C6.45498 416.334 7.56766 416.499 8.64406 416.66C9.81318 416.833 11.1395 417.03 11.7362 415.879C12.1917 415.002 13.252 414.025 14.3163 413.94C15.0218 413.88 15.683 414.242 16.2554 415.006C17.7874 417.046 19.8999 416.628 21.2988 416.346C21.8753 416.233 22.5284 416.101 22.738 416.245C23.4717 416.748 23.383 417.654 23.1653 418.981C23.0444 419.721 22.9275 420.421 23.125 420.993C23.3468 421.628 24.1732 422.006 25.2173 422.481C26.0035 422.835 27.3177 423.434 27.3701 423.909C27.3943 424.114 27.1283 424.452 26.6566 424.81C24.4715 426.476 22.8993 427.083 22.1736 427.297C20.5812 423.02 17.7148 420.433 14.28 420.433C12.0466 420.433 9.76077 421.483 8.02724 423.245C6.85006 422.348 4.78999 420.445 4.72145 418.78ZM1.21006 429.907C0.843199 429.927 0.637595 429.674 0.581155 429.457C0.524715 429.244 0.573092 428.954 0.883514 428.793L5.97524 426.122C6.1123 426.049 6.26953 426.033 6.4187 426.065L6.69283 426.198C6.75734 426.255 6.80975 426.319 6.85006 426.399C7.15242 427.043 7.70473 427.848 8.6239 428.021C8.76903 428.049 8.9061 428.077 9.03914 428.105C9.55113 428.214 9.7003 428.616 9.67208 428.926C9.63982 429.272 9.38584 429.63 8.88191 429.65L1.21006 429.907ZM4.24977 436.573C3.85066 435.902 4.64083 432.337 5.26973 430.109L5.2012 430.088L8.88997 429.964C9.47857 429.944 9.82527 429.569 9.94218 429.167C10.5267 429.268 12.7803 429.98 13.2117 430.941C13.3447 431.239 13.2762 431.533 13.0021 431.838C12.1111 432.828 11.3935 433.182 10.9178 433.415C10.5832 433.58 10.3453 433.697 10.2405 433.946C10.1841 434.087 10.1679 434.252 10.1518 434.445C10.0994 435.017 10.0309 435.797 8.77306 436.513C7.02341 437.519 4.73758 437.398 4.24977 436.573ZM1.21006 457.794C1.21006 455.71 2.20583 453.502 3.35479 450.943C4.919 447.472 6.85812 443.155 6.96697 437.475C7.63619 437.366 8.32154 437.141 8.93432 436.791C10.3332 435.994 10.4139 435.081 10.4703 434.477C10.4864 434.308 10.4985 434.168 10.5388 434.071C10.5953 433.934 10.7807 433.842 11.0629 433.701C11.5588 433.456 12.3086 433.085 13.2399 432.052C13.6914 431.553 13.631 431.102 13.502 430.817C13.0101 429.722 10.6719 428.982 9.98653 428.861C9.98653 428.411 9.72852 427.928 9.10364 427.799C8.96657 427.771 8.82547 427.743 8.68034 427.715C7.96677 427.578 7.50315 426.979 7.22095 426.44C7.42656 426.021 7.66844 425.615 7.93855 425.233C9.50275 423.016 11.9337 421.64 14.2841 421.64C18.9847 421.64 21.4197 427.184 22.0768 431.931C22.8186 437.277 24.8868 441.727 26.713 445.653C28.511 449.519 30.0632 452.858 30.0632 456.225C30.0632 457.424 29.8979 458.663 29.5431 459.874C29.3738 459.528 29.2004 459.162 29.0674 458.844C28.4667 457.396 26.7372 457.501 24.5401 457.79C24.3425 457.819 24.0805 457.823 23.9595 457.706C23.6451 457.396 23.7781 456.233 23.8749 455.385C23.9353 454.874 23.9918 454.343 23.9918 453.868C23.9918 453.188 23.8023 452.661 23.4314 452.307C22.7985 451.7 21.8551 451.736 20.944 451.776C20.7505 451.784 20.553 451.792 20.3595 451.792C20.2304 451.623 19.7507 450.553 20.9118 444.748L19.7265 444.511C18.5251 450.505 18.9404 451.969 19.4403 452.573C19.666 452.846 19.9765 452.995 20.3191 452.995C20.5409 452.995 20.7666 452.987 20.9924 452.979C21.6495 452.951 22.3349 452.927 22.5929 453.176C22.7178 453.297 22.7824 453.53 22.7824 453.868C22.7824 454.274 22.7299 454.749 22.6695 455.248C22.5243 456.523 22.3752 457.843 23.1089 458.567C23.4838 458.937 24.02 459.078 24.6933 458.989C26.9025 458.7 27.7249 458.78 27.9466 459.311C28.249 460.031 28.7207 460.944 28.9706 461.423C27.1807 465.438 23.0363 468.797 15.425 468.797C5.99539 468.793 1.21006 465.092 1.21006 457.794ZM31.2766 456.221C31.2766 456.016 31.2686 455.815 31.2605 455.61L142.17 417.927L142.271 417.959V439.45C135.663 440.97 61.8592 457.959 26.9347 466.17C29.5592 463.921 31.2766 460.639 31.2766 456.221ZM162.706 468.427C147.604 468.427 132.942 466.496 121.428 462.984C110.652 459.701 103.21 455.24 100.323 450.364C105.141 449.25 109.769 448.184 114.079 447.19C126.298 451.965 143.581 454.701 161.545 454.701C179.348 454.701 196.526 452.005 208.717 447.303C213.7 448.453 219.09 449.696 224.698 450.992C217.848 461.154 192.204 468.427 162.706 468.427ZM179.731 439.385V417.895L179.832 417.863L290.741 455.546C290.729 455.751 290.725 455.952 290.725 456.157C290.725 460.574 292.442 463.857 295.066 466.11C260.142 457.895 186.338 440.906 179.731 439.385ZM306.568 468.725C298.961 468.725 294.813 465.366 293.023 461.351C293.277 460.872 293.748 459.959 294.047 459.239C294.268 458.708 295.087 458.627 297.3 458.917C297.973 459.005 298.509 458.864 298.884 458.494C299.618 457.774 299.469 456.455 299.324 455.179C299.267 454.681 299.211 454.206 299.211 453.8C299.211 453.462 299.275 453.228 299.4 453.108C299.662 452.858 300.344 452.882 301.001 452.911C301.227 452.919 301.452 452.927 301.674 452.927C302.017 452.927 302.327 452.778 302.553 452.504C303.049 451.901 303.468 450.436 302.267 444.442L301.081 444.68C302.242 450.485 301.763 451.551 301.634 451.724C301.44 451.724 301.243 451.716 301.049 451.708C300.138 451.671 299.195 451.631 298.562 452.239C298.191 452.597 298.001 453.124 298.001 453.8C298.001 454.274 298.062 454.805 298.118 455.316C298.215 456.165 298.348 457.328 298.034 457.633C297.913 457.75 297.651 457.746 297.453 457.718C295.256 457.432 293.531 457.324 292.926 458.772C292.793 459.09 292.619 459.456 292.45 459.802C292.095 458.591 291.93 457.352 291.93 456.153C291.93 452.786 293.482 449.447 295.28 445.581C297.106 441.654 299.175 437.205 299.916 431.858C300.573 427.111 303.008 421.568 307.709 421.568C310.059 421.568 312.49 422.944 314.055 425.16C314.325 425.547 314.567 425.949 314.772 426.367C314.49 426.906 314.022 427.506 313.313 427.642C313.168 427.671 313.027 427.699 312.89 427.727C312.265 427.86 312.007 428.338 312.007 428.789C311.321 428.91 308.983 429.65 308.491 430.744C308.362 431.034 308.302 431.48 308.753 431.979C309.685 433.017 310.434 433.387 310.93 433.629C311.212 433.765 311.398 433.858 311.454 433.999C311.495 434.095 311.507 434.236 311.523 434.405C311.579 435.008 311.66 435.922 313.059 436.718C313.672 437.068 314.357 437.293 315.026 437.402C315.135 443.083 317.078 447.399 318.638 450.871C319.791 453.43 320.787 455.638 320.787 457.722C320.791 465.024 316.006 468.725 306.568 468.725Z" fill="#E9EEF1"/>
<path d="M309.22 427.22C309.817 427.22 310.349 426.806 310.462 426.214C310.526 425.892 310.458 425.567 310.268 425.293C310.075 425.016 309.785 424.826 309.446 424.766C308.761 424.645 308.104 425.084 307.975 425.752C307.914 426.074 307.983 426.399 308.168 426.673C308.362 426.951 308.652 427.14 308.99 427.2C309.067 427.216 309.144 427.22 309.22 427.22ZM309.232 425.957C309.257 425.961 309.265 425.973 309.273 425.985C309.269 425.997 309.244 426.021 309.204 426.013C309.18 426.009 309.172 425.997 309.168 425.993C309.164 425.989 309.164 425.985 309.164 425.985C309.168 425.973 309.196 425.949 309.232 425.957Z" fill="#E9EEF1"/>
<path d="M208.688 449.877C208.551 449.958 208.43 450.058 208.326 450.179C208.112 450.412 207.975 450.734 207.87 451.088C207.676 451.808 207.733 452.782 208.116 453.856C208.475 454.85 208.983 455.731 209.555 456.318C210.124 456.901 210.765 457.183 211.341 457.03C212.49 456.7 213.454 454.793 212.974 452.677C212.74 451.583 212.123 450.734 211.414 450.203C211.059 449.938 210.676 449.748 210.293 449.66C210.099 449.616 209.914 449.596 209.716 449.596C209.515 449.596 209.317 449.624 209.12 449.68C208.963 449.724 208.821 449.793 208.688 449.877Z" fill="#E9EEF1"/>
<path d="M201.484 453.377C200.024 453.466 199.121 455.031 199.472 457.295C199.803 459.391 200.859 461.101 201.992 461.037C203.117 460.98 204.318 459.387 204.447 457.267C204.58 455.043 203.274 453.256 201.484 453.377Z" fill="#E9EEF1"/>
<path d="M192.865 455.863C191.37 455.791 190.265 457.251 190.386 459.54C190.499 461.66 191.37 463.467 192.478 463.531C193.031 463.567 193.639 463.225 194.163 462.618C194.688 462.014 195.119 461.137 195.32 460.092C195.744 457.903 194.716 455.96 192.865 455.863Z" fill="#E9EEF1"/>
<path d="M183.891 457.517C182.388 457.312 181.166 458.708 181.11 460.985C181.061 463.101 181.795 464.983 182.888 465.128C183.432 465.201 184.061 464.915 184.625 464.36C185.189 463.793 185.689 462.96 185.984 461.942C186.601 459.806 185.75 457.754 183.891 457.517Z" fill="#E9EEF1"/>
<path d="M174.76 458.519C173.265 458.213 171.954 459.532 171.757 461.801C171.58 463.913 172.192 465.832 173.269 466.049C174.341 466.267 175.841 465.068 176.558 463.068C177.312 460.973 176.607 458.877 174.76 458.519Z" fill="#E9EEF1"/>
<path d="M165.553 458.961C164.073 458.571 162.686 459.818 162.364 462.071C162.065 464.167 162.573 466.122 163.634 466.395C164.162 466.532 164.815 466.327 165.444 465.844C166.069 465.353 166.669 464.585 167.085 463.612C167.959 461.56 167.383 459.424 165.553 458.961Z" fill="#E9EEF1"/>
<path d="M156.32 458.889C154.865 458.434 153.413 459.577 152.966 461.829C152.555 463.913 152.954 465.876 153.998 466.214C155.038 466.56 156.659 465.514 157.594 463.624C158.586 461.616 158.122 459.464 156.32 458.889Z" fill="#E9EEF1"/>
<path d="M147.12 458.313C145.697 457.778 144.186 458.836 143.605 461.053C143.069 463.109 143.355 465.092 144.379 465.49C145.399 465.893 147.08 464.947 148.124 463.105C149.225 461.158 148.882 458.993 147.12 458.313Z" fill="#E9EEF1"/>
<path d="M137.998 457.191C136.615 456.567 135.051 457.517 134.317 459.697C133.644 461.709 133.789 463.712 134.793 464.175C135.788 464.649 137.534 463.813 138.695 462.039C139.913 460.16 139.703 457.983 137.998 457.191Z" fill="#E9EEF1"/>
<path d="M129.031 455.441C128.374 455.067 127.644 455.091 126.955 455.473C126.273 455.843 125.628 456.575 125.173 457.621C124.322 459.564 124.29 461.572 125.257 462.131C125.741 462.401 126.439 462.368 127.176 462.063C127.914 461.749 128.692 461.153 129.341 460.317C130.7 458.555 130.66 456.338 129.031 455.441Z" fill="#E9EEF1"/>
<path d="M120.405 452.882C119.228 452.009 117.555 452.637 116.345 454.584C115.228 456.39 114.922 458.374 115.845 459.066C116.301 459.416 117.018 459.46 117.797 459.251C118.579 459.033 119.425 458.522 120.159 457.766C121.703 456.153 121.876 453.944 120.405 452.882Z" fill="#E9EEF1"/>
<path d="M111.881 448.654C111.595 448.554 111.26 448.542 110.889 448.606C110.176 448.727 109.317 449.137 108.438 449.881C107.628 450.573 106.979 451.35 106.652 452.098C106.322 452.838 106.31 453.574 106.705 454.061C107.1 454.536 107.834 454.833 108.68 454.809C109.523 454.813 110.486 454.483 111.361 453.892C112.28 453.265 112.877 452.379 113.099 451.535C113.324 450.674 113.191 449.837 112.655 449.189C112.446 448.92 112.171 448.751 111.881 448.654Z" fill="#E9EEF1"/>
<path d="M183.761 410.098L183.64 409.809C178.202 412.074 170.042 413.373 161.254 413.373C152.695 413.373 144.672 412.13 139.238 409.962L139.121 410.255C144.592 412.44 152.659 413.691 161.254 413.691C170.083 413.687 178.287 412.379 183.761 410.098Z" fill="#E9EEF1"/>
<path d="M200.35 258.681L167.188 295.707L167.425 295.919L200.588 258.893L200.35 258.681Z" fill="#E9EEF1"/>
<path d="M161.267 310.056C162.319 310.056 163.371 309.67 164.173 308.901C164.951 308.153 165.383 307.159 165.383 306.101C165.383 305.043 164.955 304.05 164.173 303.301C162.569 301.761 159.96 301.761 158.356 303.301C157.578 304.05 157.146 305.043 157.146 306.101C157.146 307.159 157.574 308.153 158.356 308.901C159.162 309.674 160.214 310.056 161.267 310.056ZM158.578 303.527C159.319 302.815 160.291 302.461 161.267 302.461C162.242 302.461 163.214 302.815 163.956 303.527C164.673 304.215 165.064 305.128 165.064 306.101C165.064 307.075 164.669 307.988 163.956 308.676C162.472 310.1 160.061 310.1 158.578 308.676C157.86 307.988 157.469 307.075 157.469 306.101C157.469 305.128 157.864 304.215 158.578 303.527Z" fill="#E9EEF1"/>
<path d="M161.371 311.122C162.677 311.122 163.984 310.643 164.979 309.69C165.943 308.761 166.475 307.53 166.475 306.218C166.475 304.907 165.943 303.672 164.979 302.746C162.992 300.835 159.755 300.835 157.767 302.746C156.804 303.672 156.271 304.907 156.271 306.218C156.271 307.53 156.804 308.765 157.767 309.69C158.759 310.643 160.065 311.122 161.371 311.122ZM157.981 302.972C158.916 302.074 160.142 301.628 161.367 301.628C162.593 301.628 163.818 302.074 164.754 302.972C165.657 303.836 166.153 304.991 166.153 306.214C166.153 307.437 165.657 308.592 164.754 309.461C162.887 311.255 159.847 311.255 157.981 309.461C157.078 308.592 156.582 307.441 156.582 306.214C156.582 304.991 157.078 303.836 157.981 302.972Z" fill="#E9EEF1"/>
<path d="M180.956 73.6118C183.008 75.76 185.559 78.4353 189.373 78.556C189.51 78.56 189.647 78.564 189.784 78.564C192.465 78.564 194.582 77.7071 195.916 76.0778C197.303 74.3882 197.71 71.9503 197.065 69.2227C196.88 68.4423 196.396 67.2957 195.783 65.8435C194.469 62.7337 192.667 58.4775 192.582 54.7241C192.514 51.8396 195.247 49.9529 197.823 49.1483C200.629 48.2753 203.31 48.6172 204.197 49.9649L204.463 49.7919C203.483 48.3034 200.714 47.9172 197.73 48.8465C195.041 49.6833 192.195 51.6706 192.268 54.7321C192.357 58.5418 194.171 62.8343 195.493 65.9641C196.078 67.344 196.581 68.5388 196.759 69.2911C197.38 71.9221 196.993 74.2594 195.67 75.8767C194.332 77.51 192.163 78.3307 189.381 78.2422C185.697 78.1255 183.193 75.5025 181.185 73.3945C180.508 72.6865 179.867 72.0146 179.254 71.5118L179.053 71.7572C179.649 72.244 180.286 72.9077 180.956 73.6118Z" fill="#E9EEF1"/>
<path d="M135.143 44.6345C133.821 50.7454 132.68 56.0235 132.337 58.5056C132.047 60.5774 131.418 67.6417 135.397 71.5963C137.183 73.3704 139.638 74.2635 142.718 74.2635C143.561 74.2635 144.448 74.1951 145.383 74.0623L145.339 73.7485C141.09 74.356 137.82 73.5554 135.623 71.371C131.749 67.521 132.37 60.5815 132.652 58.5459C132.995 56.0758 134.135 50.8017 135.454 44.6989C135.942 42.438 136.453 40.0725 136.953 37.7191C137.796 33.7364 137.175 30.8318 135.244 29.7537C133.68 28.8807 131.475 29.3916 129.749 31.0169C129.088 31.6404 128.806 32.3163 128.907 33.0243C129.157 34.7703 131.664 36.0657 131.769 36.122L131.914 35.8404C131.89 35.8283 129.447 34.5651 129.221 32.9801C129.136 32.3807 129.386 31.7973 129.967 31.2462C131.592 29.7134 133.652 29.2226 135.091 30.0272C136.893 31.033 137.461 33.8128 136.647 37.6507C136.143 40.0122 135.631 42.3736 135.143 44.6345Z" fill="#E9EEF1"/>
<path d="M174.131 177.794C174.429 178.297 174.905 178.956 175.497 179.145C175.779 179.234 176.062 179.21 176.332 179.069C179.573 177.375 179.416 173.272 179.206 172.347C179.182 172.234 179.174 172.17 179.174 172.133C179.263 172.162 179.436 172.258 179.565 172.335C179.98 172.572 180.545 172.902 180.984 172.648C181.835 172.158 182.403 171.281 182.673 170.034C183.169 167.753 182.488 164.916 182.069 164.333L181.811 164.518C182.193 165.053 182.83 167.809 182.363 169.969C182.113 171.12 181.597 171.932 180.823 172.375C180.541 172.536 180.085 172.274 179.718 172.061C179.388 171.868 179.146 171.731 178.968 171.86C178.815 171.973 178.843 172.202 178.892 172.415C179.162 173.594 179.025 177.299 176.179 178.787C175.985 178.888 175.792 178.908 175.586 178.844C175.122 178.699 174.639 178.136 174.143 177.17C174.078 177.045 174.022 176.929 173.881 176.985C173.74 177.041 173.776 177.15 173.844 177.363C174.018 177.898 172.474 180.883 170.688 182.456C170.079 182.991 169.204 183.563 168.503 183.237C167.281 182.666 167.535 181.475 167.704 180.686C167.789 180.292 167.838 180.055 167.676 179.938C167.527 179.829 167.326 179.95 167.241 179.998C166.999 180.139 166.761 180.525 166.427 181.06C165.753 182.143 164.834 183.619 163.475 183.635C162.246 183.639 160.855 182.46 159.311 180.107L159.045 180.28C160.666 182.75 162.105 183.953 163.451 183.953C163.459 183.953 163.467 183.953 163.48 183.953C165.011 183.937 166.023 182.307 166.697 181.229C166.971 180.791 167.229 180.372 167.402 180.272C167.426 180.256 167.45 180.244 167.467 180.236C167.459 180.332 167.426 180.485 167.398 180.618C167.233 181.394 166.922 182.847 168.374 183.522C169.051 183.84 169.93 183.555 170.905 182.694C172.393 181.382 173.852 178.981 174.131 177.794Z" fill="#E9EEF1"/>
<path d="M166.898 125.922C167.684 125.922 168.325 125.299 168.325 124.53C168.325 123.762 167.684 123.138 166.898 123.138C166.112 123.138 165.471 123.762 165.471 124.53C165.471 125.299 166.112 125.922 166.898 125.922ZM166.898 124.345C167.019 124.345 167.116 124.43 167.116 124.53C167.116 124.631 167.019 124.715 166.898 124.715C166.777 124.715 166.68 124.631 166.68 124.53C166.68 124.43 166.777 124.345 166.898 124.345Z" fill="#E9EEF1"/>
<path d="M95.8515 237.382C96.4562 237.43 96.9763 237.257 97.3955 236.871C98.1696 236.155 98.4195 234.875 98.5002 234.111C100.101 237.249 103.838 241.187 106.301 241.187C106.499 241.187 106.684 241.163 106.861 241.111C108.071 240.757 108.861 240.186 109.208 239.409C109.772 238.154 109.059 236.661 108.591 235.676C108.426 235.33 108.22 234.899 108.236 234.815C108.236 234.815 108.264 234.807 108.349 234.823C108.603 234.871 109.304 235.241 110.187 235.708C113.086 237.233 118.476 240.077 121.5 238.806C122.769 238.271 123.507 237.506 123.685 236.529C124.16 233.934 120.653 230.611 118.968 229.014L118.964 229.01C120.701 230.124 124.1 232.256 126.067 231.556C126.668 231.343 127.087 230.885 127.313 230.193C128.168 227.578 124.89 225.936 122.721 224.854C121.85 224.42 120.947 223.969 120.919 223.716C120.919 223.708 120.915 223.675 120.975 223.623C121.383 223.273 122.882 223.732 124.334 224.17C126.277 224.758 128.474 225.425 129.599 224.782C129.954 224.581 130.183 224.259 130.284 223.828C130.978 220.875 126.386 218.615 123.862 217.834C123.193 217.629 120.996 217.005 120.722 217.705L121.016 217.822C121.076 217.661 121.975 217.585 123.765 218.14C126.192 218.892 130.615 221.036 129.974 223.76C129.893 224.106 129.716 224.351 129.438 224.512C128.434 225.087 126.301 224.444 124.422 223.873C122.681 223.346 121.306 222.927 120.766 223.386C120.609 223.519 120.588 223.663 120.601 223.756C120.649 224.158 121.31 224.508 122.576 225.14C124.773 226.238 127.781 227.743 127.011 230.1C126.813 230.703 126.47 231.082 125.962 231.263C124.092 231.926 120.528 229.641 119.008 228.664C118.186 228.133 118.097 228.081 117.976 228.217C117.867 228.338 117.984 228.475 118.061 228.563C118.178 228.7 118.42 228.929 118.754 229.247C120.27 230.683 123.822 234.051 123.378 236.476C123.221 237.345 122.548 238.029 121.383 238.52C118.5 239.731 113.195 236.935 110.345 235.434C109.365 234.92 108.716 234.578 108.418 234.517C108.345 234.505 108.127 234.461 108.006 234.614C107.841 234.827 108.018 235.197 108.313 235.817C108.756 236.75 109.429 238.166 108.925 239.284C108.619 239.968 107.897 240.483 106.781 240.809C104.41 241.501 99.9676 236.698 98.5324 233.427L98.23 232.735V233.487C98.23 233.507 98.218 235.684 97.1859 236.637C96.8352 236.963 96.3957 237.108 95.8797 237.068C95.8313 237.064 90.8807 236.561 87.8329 226.174C85.3858 217.838 87.8128 206.707 87.837 206.594L87.5265 206.526C87.5024 206.638 85.0593 217.85 87.5306 226.262C90.6348 236.855 95.7991 237.378 95.8515 237.382Z" fill="#E9EEF1"/>
<path d="M84.125 164.611C83.1534 164.611 82.3633 165.379 82.3633 166.328C82.3633 167.274 83.1534 168.046 84.125 168.046C85.0966 168.046 85.8868 167.278 85.8868 166.328C85.8908 165.379 85.0966 164.611 84.125 164.611ZM84.125 166.835C83.8186 166.835 83.5727 166.606 83.5727 166.324C83.5727 166.043 83.8227 165.813 84.125 165.813C84.4314 165.813 84.6773 166.043 84.6773 166.324C84.6773 166.606 84.4314 166.835 84.125 166.835Z" fill="#E9EEF1"/>
<path d="M88.564 250.456C86.0283 250.557 83.1095 251.796 81.6179 253.405C80.9043 254.177 80.5616 254.97 80.5939 255.774C80.7108 258.582 85.3792 260.461 88.6648 260.461C88.7737 260.461 88.8785 260.461 88.9833 260.457C90.9426 260.381 92.7285 259.616 93.8896 258.361C94.7443 257.44 95.1676 256.35 95.1192 255.215C95.0063 252.451 92.0714 250.323 88.564 250.456ZM93.6598 258.14C92.5552 259.335 90.8459 260.063 88.9712 260.135C85.5122 260.276 81.0172 258.236 80.9124 255.758C80.8841 255.046 81.1986 254.326 81.8517 253.618C83.2667 252.089 86.1573 250.866 88.5761 250.77C91.894 250.641 94.6999 252.637 94.8088 255.219C94.8531 256.269 94.454 257.279 93.6598 258.14Z" fill="#E9EEF1"/>
<path d="M254.116 362.881C251.887 362.781 249.774 363.609 248.557 365.054C246.972 363.847 244.634 362.978 242.55 362.881C239.034 362.724 236.091 364.828 235.954 367.584C235.898 368.718 236.313 369.813 237.16 370.742C238.313 372.009 240.095 372.786 242.05 372.874C242.175 372.878 242.3 372.882 242.429 372.882C244.525 372.882 247.17 372.13 248.843 370.859C249.996 372.049 251.721 372.786 253.616 372.874C253.741 372.878 253.866 372.882 253.995 372.882C257.277 372.882 261.897 371.044 262.038 368.256C262.078 367.455 261.739 366.655 261.034 365.882C259.562 364.261 256.652 362.998 254.116 362.881ZM242.07 372.556C240.195 372.472 238.494 371.732 237.398 370.529C236.607 369.664 236.22 368.65 236.273 367.6C236.398 365.114 239.01 363.187 242.175 363.187C242.296 363.187 242.417 363.191 242.538 363.195C244.957 363.308 247.839 364.551 249.238 366.091C249.887 366.804 250.197 367.524 250.161 368.236C250.036 370.718 245.525 372.721 242.07 372.556ZM253.632 372.556C251.83 372.472 250.193 371.78 249.093 370.657C249.899 369.978 250.427 369.165 250.476 368.252C250.516 367.451 250.177 366.651 249.472 365.878C249.274 365.661 249.052 365.452 248.807 365.251C249.964 363.887 251.971 363.098 254.1 363.195C256.519 363.308 259.401 364.551 260.8 366.091C261.449 366.804 261.76 367.524 261.723 368.236C261.598 370.718 257.087 372.725 253.632 372.556Z" fill="#E9EEF1"/>
<path d="M214.054 338.812C214.095 339.25 214.276 339.596 214.594 339.846C215.618 340.634 217.892 340.26 219.904 339.93C221.403 339.685 222.956 339.427 223.31 339.826C223.363 339.886 223.355 339.914 223.355 339.922C223.29 340.172 222.331 340.498 221.408 340.819C219.106 341.612 215.626 342.807 216.102 345.51C216.227 346.222 216.574 346.729 217.134 347.019C218.981 347.976 222.645 346.307 224.532 345.43C222.629 346.797 218.674 349.638 218.795 352.273C218.839 353.258 219.46 354.107 220.638 354.799C223.451 356.448 229.196 354.336 232.28 353.206C233.224 352.86 233.97 352.586 234.228 352.57C234.248 352.57 234.26 352.57 234.276 352.57C234.3 352.57 234.316 352.57 234.324 352.57C234.32 352.695 234.07 353.077 233.865 353.383C233.256 354.304 232.341 355.692 232.728 357.012C232.966 357.82 233.667 358.484 234.812 358.995C235.074 359.112 235.368 359.164 235.691 359.164C238.17 359.164 242.149 355.922 244.088 353.15C244.06 353.918 244.129 355.217 244.794 356.026C245.157 356.465 245.645 356.702 246.253 356.734C246.302 356.734 251.494 356.891 256.074 346.801C259.71 338.788 258.876 327.363 258.868 327.246L258.553 327.27C258.561 327.383 259.392 338.731 255.788 346.669C251.297 356.561 246.33 356.424 246.269 356.416C245.757 356.388 245.342 356.191 245.04 355.821C244.153 354.747 244.447 352.586 244.451 352.566L244.556 351.818L244.157 352.462C242.27 355.515 237.183 359.695 234.937 358.701C233.881 358.231 233.24 357.631 233.03 356.919C232.684 355.74 233.554 354.425 234.127 353.552C234.518 352.961 234.736 352.631 234.598 352.401C234.502 352.232 234.28 352.245 234.203 352.253C233.897 352.273 233.208 352.526 232.167 352.908C229.132 354.023 223.48 356.103 220.795 354.526C219.714 353.894 219.15 353.13 219.11 352.257C218.997 349.791 223.004 346.91 224.713 345.683C225.092 345.414 225.362 345.216 225.495 345.096C225.584 345.015 225.717 344.899 225.628 344.762C225.528 344.609 225.451 344.645 224.544 345.072C222.895 345.844 219.033 347.646 217.279 346.737C216.804 346.492 216.521 346.069 216.413 345.454C215.981 343.016 219.178 341.918 221.508 341.117C222.851 340.654 223.556 340.397 223.661 340.003C223.685 339.91 223.685 339.769 223.548 339.617C223.081 339.09 221.657 339.323 219.855 339.621C217.908 339.942 215.707 340.304 214.792 339.6C214.542 339.407 214.405 339.142 214.373 338.788C214.135 336.153 218.481 334.483 221.456 334.005C223.238 333.715 224.048 333.904 224.088 334.069L224.395 333.996C224.23 333.292 222.061 333.586 221.404 333.691C218.739 334.117 213.776 335.738 214.054 338.812Z" fill="#E9EEF1"/>
<path d="M267.677 289.559C267.753 289.567 267.834 289.575 267.915 289.575C268.765 289.575 269.93 289.052 270.068 288.095C270.096 287.902 270.084 287.415 269.362 287.101C269.023 286.956 268.608 286.876 268.322 286.836C267.834 286.767 267.326 286.751 266.927 286.799C266.044 286.9 265.802 287.302 265.758 287.624C265.71 287.974 265.81 288.324 266.052 288.642C266.407 289.108 267.06 289.479 267.677 289.559ZM268.677 288.131C268.463 288.272 268.116 288.396 267.838 288.36C267.584 288.328 267.27 288.167 267.088 287.986C267.516 287.946 268.241 288.01 268.677 288.131Z" fill="#E9EEF1"/>
<path d="M280.504 332.657C280.512 332.657 280.52 332.657 280.532 332.657C282.064 332.641 283.076 331.011 283.749 329.933C284.023 329.495 284.282 329.08 284.455 328.976L284.294 328.702C284.052 328.843 283.814 329.229 283.479 329.764C282.806 330.842 281.887 332.323 280.528 332.339C280.52 332.339 280.512 332.339 280.508 332.339C279.295 332.339 277.9 331.152 276.364 328.811L276.098 328.984C277.718 331.454 279.162 332.657 280.504 332.657Z" fill="#E9EEF1"/>
<path d="M266.959 346.866C266.967 346.866 266.975 346.866 266.987 346.866C268.519 346.85 269.531 345.221 270.204 344.142C270.479 343.704 270.737 343.29 270.91 343.185L270.749 342.911C270.507 343.052 270.269 343.438 269.934 343.973C269.261 345.056 268.342 346.532 266.983 346.548C265.766 346.568 264.363 345.373 262.819 343.02L262.553 343.193C264.169 345.663 265.613 346.866 266.959 346.866Z" fill="#E9EEF1"/>
<path d="M275.236 339.15C275.245 339.15 275.253 339.15 275.265 339.15C276.797 339.134 277.809 337.504 278.482 336.426C278.756 335.988 279.014 335.573 279.187 335.469L279.026 335.195C278.784 335.336 278.546 335.722 278.212 336.257C277.538 337.34 276.619 338.816 275.261 338.832C275.253 338.832 275.245 338.832 275.24 338.832C274.027 338.832 272.632 337.645 271.096 335.304L270.83 335.477C272.451 337.951 273.89 339.15 275.236 339.15Z" fill="#E9EEF1"/>
<path d="M279.409 350.466C278.736 351.544 277.816 353.025 276.458 353.041C276.45 353.041 276.442 353.041 276.438 353.041C275.224 353.041 273.829 351.854 272.293 349.513L272.027 349.686C273.648 352.156 275.087 353.359 276.434 353.359C276.442 353.359 276.45 353.359 276.462 353.359C277.994 353.343 279.006 351.713 279.679 350.635C279.953 350.197 280.211 349.782 280.385 349.678L280.223 349.404C279.981 349.545 279.744 349.931 279.409 350.466Z" fill="#E9EEF1"/>
<path d="M258.167 299.902C259.231 299.89 259.924 298.776 260.38 298.039C260.553 297.762 260.735 297.472 260.84 297.412L260.678 297.138C260.505 297.239 260.34 297.504 260.11 297.875C259.662 298.595 259.05 299.58 258.159 299.588C258.155 299.588 258.151 299.588 258.143 299.588C257.34 299.588 256.413 298.796 255.389 297.227L255.123 297.4C256.228 299.085 257.215 299.902 258.143 299.902C258.151 299.902 258.159 299.902 258.167 299.902Z" fill="#E9EEF1"/>
<path d="M99.2137 366.2C96.0853 365.818 91.175 367.322 90.796 370.183C90.6872 370.991 90.9734 371.86 91.6225 372.697C92.9166 374.363 95.5572 375.783 97.9075 376.072C98.2098 376.109 98.5122 376.129 98.8105 376.129C101.758 376.129 104.265 374.351 104.592 371.876C104.745 370.738 104.406 369.563 103.64 368.578C102.64 367.29 101.024 366.421 99.2137 366.2ZM104.277 371.832C103.939 374.383 101.1 376.145 97.9438 375.755C95.67 375.477 93.1181 374.109 91.8724 372.5C91.2677 371.724 91.0137 370.955 91.1105 370.223C91.4007 368.022 95.0371 366.454 98.1574 366.454C98.5041 366.454 98.8468 366.474 99.1774 366.514C100.907 366.727 102.443 367.548 103.39 368.771C104.1 369.688 104.414 370.778 104.277 371.832Z" fill="#E9EEF1"/>
<path d="M226.145 251.916C223.017 251.534 218.107 253.039 217.728 255.899C217.619 256.708 217.905 257.577 218.554 258.413C219.848 260.079 222.489 261.499 224.839 261.785C225.141 261.821 225.444 261.841 225.742 261.841C228.689 261.841 231.197 260.063 231.523 257.589C231.676 256.45 231.338 255.276 230.572 254.29C229.572 253.003 227.959 252.138 226.145 251.916ZM231.209 257.549C230.87 260.099 228.032 261.861 224.875 261.471C222.602 261.193 220.05 259.825 218.804 258.216C218.199 257.44 217.945 256.672 218.042 255.939C218.332 253.739 221.969 252.17 225.089 252.17C225.436 252.17 225.778 252.19 226.105 252.23C227.834 252.443 229.37 253.264 230.318 254.487C231.035 255.404 231.35 256.495 231.209 257.549Z" fill="#E9EEF1"/>
</g>
<defs>
<clipPath id="clip0_6620_111384">
<rect width="322" height="470" fill="white"/>
</clipPath>
</defs>
</svg>
