<svg width="36" height="36" viewBox="0 0 36 36" fill="none" xmlns="http://www.w3.org/2000/svg">
<rect x="1" y="1" width="34" height="34" rx="5" fill="#E9EEF1"/>
<path d="M11.1367 14.473H16.0405V14.8609H11.5862V17.7802H15.7748V18.1681H11.5862V21.3732H16.0915V21.7611H11.1367V14.473ZM16.4797 14.473H17.0008L19.3096 17.6781L21.6695 14.473L24.8794 10.4017L19.6059 18.015L22.3234 21.7611H21.7819L19.3096 18.3518L16.8271 21.7611H16.2959L19.0338 18.015L16.4797 14.473ZM22.5175 14.8609V14.473H28.1057V14.8609H25.5312V21.7611H25.0817V14.8609H22.5175Z" fill="#050505"/>
<path d="M5.00195 14.473H5.56384L13.3119 26.0116L10.11 21.7611L5.47189 15.0242L5.45146 21.7611H5.00195V14.473Z" fill="#050505"/>
<path d="M28.0611 21.2562C28.154 21.2562 28.2218 21.1854 28.2218 21.0939C28.2218 21.0024 28.154 20.9315 28.0611 20.9315C27.9693 20.9315 27.9004 21.0024 27.9004 21.0939C27.9004 21.1854 27.9693 21.2562 28.0611 21.2562ZM28.5028 20.8291C28.5028 21.0993 28.6985 21.2758 28.9839 21.2758C29.2878 21.2758 29.4715 21.0939 29.4715 20.7779V19.6656H29.2266V20.7768C29.2266 20.9522 29.138 21.0459 28.9817 21.0459C28.8417 21.0459 28.7466 20.9588 28.7433 20.8291H28.5028ZM29.7918 20.815C29.8093 21.0961 30.0444 21.2758 30.3942 21.2758C30.7681 21.2758 31.0021 21.0873 31.0021 20.7866C31.0021 20.5502 30.8687 20.4195 30.5451 20.3443L30.3713 20.3018C30.1657 20.2539 30.0826 20.1896 30.0826 20.0774C30.0826 19.9358 30.2116 19.8432 30.4052 19.8432C30.5888 19.8432 30.7157 19.9336 30.7386 20.0785H30.977C30.9627 19.8137 30.7288 19.6274 30.4084 19.6274C30.064 19.6274 29.8345 19.8137 29.8345 20.0937C29.8345 20.3247 29.9646 20.462 30.2499 20.5284L30.4533 20.5775C30.6621 20.6265 30.7539 20.6984 30.7539 20.8182C30.7539 20.9577 30.6096 21.059 30.4128 21.059C30.2018 21.059 30.0553 20.9642 30.0345 20.815H29.7918Z" fill="#050505"/>
</svg>
