<svg width="1006" height="636" viewBox="0 0 1006 636" fill="none" xmlns="http://www.w3.org/2000/svg">
<g opacity="0.8" clip-path="url(#clip0_3422_18458)">
<path d="M892.483 20.4598C886.617 20.4598 881.838 25.2394 881.838 31.106C881.838 36.9727 886.617 41.7522 892.483 41.7522C898.35 41.7522 903.129 36.9727 903.129 31.106C903.129 25.2394 898.35 20.4598 892.483 20.4598ZM892.483 40.9785C887.038 40.9785 882.602 36.5516 882.602 31.0962C882.602 25.6409 887.028 21.214 892.483 21.214C897.938 21.214 902.365 25.6409 902.365 31.0962C902.365 36.5516 897.929 40.9785 892.483 40.9785Z" fill="#E9EEF1"/>
<path d="M110.647 41.3997C116.514 41.3997 121.293 36.6202 121.293 30.7535C121.293 24.8868 116.514 20.1073 110.647 20.1073C104.781 20.1073 100.002 24.8868 100.002 30.7535C100.002 36.63 104.771 41.3997 110.647 41.3997ZM110.647 20.881C116.092 20.881 120.529 25.308 120.529 30.7633C120.529 36.2088 116.102 40.6455 110.647 40.6455C105.192 40.6455 100.766 36.2186 100.766 30.7633C100.766 25.308 105.202 20.881 110.647 20.881Z" fill="#E9EEF1"/>
<path d="M996.98 432.988V31.253C996.98 14.0154 982.966 0 965.729 0H39.8694C22.6426 0 8.6183 14.0154 8.6183 31.253V422.439C0 425.877 0 427.258 0 428.091V557.686L8.6183 570.007V604.757C8.6183 621.985 22.6328 636.01 39.8694 636.01H965.729C982.956 636.01 996.98 621.994 996.98 604.757V580.928L997.156 581.035L1005.02 568.362V567.951C1005.06 562.73 1006 440.108 1006 438.805C1006 437.953 1005.99 436.543 996.98 432.988ZM961.733 618.792C953.115 618.792 946.103 611.779 946.103 603.16C946.103 594.542 953.115 587.529 961.733 587.529C970.352 587.529 977.364 594.542 977.364 603.16C977.364 611.779 970.352 618.792 961.733 618.792ZM961.733 584.581C951.489 584.581 943.165 592.916 943.165 603.151C943.165 612.7 950.412 620.584 959.686 621.603L957.219 621.838L952.851 621.759C948.816 620.868 944.957 618.86 941.804 615.707C933.136 607.039 932.989 593.072 941.49 584.571C945.554 580.507 950.97 578.283 956.758 578.283C956.837 578.283 956.915 578.283 956.983 578.283C962.86 578.342 968.413 580.693 972.614 584.894C975.562 587.842 977.501 591.407 978.47 595.149C975.474 588.91 969.108 584.581 961.733 584.581ZM967.492 620.809C967.678 620.751 967.854 620.672 968.031 620.613L967.639 620.868L967.276 620.897C967.355 620.868 967.423 620.839 967.492 620.809ZM976.453 614.443L976.286 615.08L975.454 615.638C975.797 615.256 976.13 614.854 976.453 614.443ZM973.153 584.356C964.182 575.384 949.727 575.237 940.932 584.042C932.137 592.837 932.284 607.293 941.245 616.265C943.782 618.802 946.759 620.604 949.922 621.73L845.886 619.898L839.001 584.61C848.824 594.688 860.096 605.717 867.04 610.751C873.915 615.746 882.484 617.763 891.054 617.763C904.167 617.763 917.29 613.043 924.4 607.019C931.276 601.202 933.352 594.777 935.751 587.333C936.662 584.493 937.612 581.564 938.895 578.401C939.933 575.835 941.402 556.393 942.998 529.166C944.35 532.868 947.895 535.532 952.057 535.532C957.375 535.532 961.704 531.203 961.704 525.885C961.704 520.567 957.375 516.238 952.057 516.238C948.287 516.238 945.016 518.422 943.429 521.585C943.85 514.102 944.281 506.14 944.722 497.864L980.194 498.422L979.479 596.128C978.608 591.799 976.492 587.695 973.153 584.356ZM694.703 624.345H654.207V633.062H617.902L618.735 632.552L613.407 623.728H575.859V589.85H572.921V623.728V633.052H426.018V624.032V592.779L569.493 593.258V592.485L426.018 592.024V587.509H423.08V624.041H385.522L380.194 632.866L380.527 633.062H344.732V624.649H304.236L299.163 633.062H167.871C169.927 625.236 176.489 594.258 183.168 562.201L230.686 563.357L231.186 565.081C232.263 568.812 235.044 579.028 235.044 581.535V583.004L290.867 583.092V564.826L303.766 565.14L303.648 565.169L316.38 613.728L319.22 612.984L306.606 564.856L334.429 558.842V588.675C334.429 602.191 347.2 614.051 361.763 614.051C376.835 614.051 389.096 601.789 389.096 586.716V556.756C389.096 553.083 388.352 550.517 387.079 547.461L476.171 528.196C476.504 541.506 487.433 552.231 500.821 552.231C513.866 552.231 524.57 542.045 525.422 529.215C543.109 533.417 567.74 539.244 592.655 545.12H591.529V551.281H581.931V568.156L414.06 569.008V549.9H404.472V544.885H401.534V611.622H404.472V583.866H414.07V571.946L581.941 571.094V585.247H591.538V616.353H594.476V545.532C604.123 547.804 613.779 550.076 623.064 552.251C615.327 564.043 615.337 583.171 623.103 594.933C626.893 600.673 631.966 603.836 637.392 603.836C642.817 603.836 647.89 600.673 651.68 594.933C657.586 585.981 659.182 572.24 655.637 560.732L654.902 560.958C658.379 572.26 656.832 585.737 651.044 594.512C647.401 600.026 642.553 603.072 637.392 603.072C632.23 603.072 627.383 600.036 623.749 594.512C616.12 582.965 616.12 564.17 623.749 552.613L623.269 552.299C638.381 555.835 652.493 559.126 663.961 561.761V587.617C663.961 602.269 652.043 614.179 637.401 614.179C622.75 614.179 610.841 602.259 610.841 587.617V559.87C610.841 556.521 611.468 553.24 612.702 550.135L611.987 549.851C610.724 553.044 610.077 556.413 610.077 559.87V587.617C610.077 602.69 622.339 614.952 637.411 614.952C652.483 614.952 664.745 602.69 664.745 587.617V561.937C677.496 564.865 686.839 566.961 690.414 567.647C689.493 572.152 681.629 610.594 680.708 614.904L683.588 615.511C684.538 611.015 692.999 569.694 693.371 567.862C696.025 567.804 702.039 567.637 710.06 567.412V584.571L765.883 584.483V583.014C765.883 580.781 768.184 572.554 769.731 567.569L770.319 565.668H770.045C792.834 565.003 813.097 564.395 818.513 564.239L834.349 633.062H699.982L694.703 624.345ZM696.525 633.062H657.145V627.283H693.038L696.525 633.062ZM615.611 633.062H575.859V626.676H611.752L615.611 633.062ZM423.08 633.062H383.514L387.187 626.98H423.08V633.062ZM341.794 633.062H302.6L305.901 627.587H341.794V633.062ZM27.3337 604.14C27.3337 595.521 34.3459 588.508 42.9642 588.508C51.5825 588.508 58.5946 595.521 58.5946 604.14C58.5946 612.759 51.5825 619.771 42.9642 619.771C34.3459 619.771 27.3337 612.768 27.3337 604.14ZM42.0142 622.67L42.0632 622.7C42.024 622.69 41.9848 622.68 41.9456 622.67C41.9652 622.67 41.9946 622.67 42.0142 622.67ZM43.875 622.817L43.6301 622.68C53.5608 622.327 61.5425 614.159 61.5425 604.14C61.5425 593.895 53.2082 585.57 42.974 585.57C35.5799 585.57 29.1945 589.928 26.2075 596.197C27.1966 592.338 29.1847 588.783 32.0934 585.884C36.2948 581.682 41.8477 579.341 47.7238 579.273C47.8022 579.273 47.8707 579.273 47.9491 579.273C53.7468 579.273 59.1529 581.506 63.2172 585.56C71.7081 594.052 71.571 608.018 62.9038 616.696C59.8286 619.771 56.0189 621.847 51.8959 622.758C47.5867 622.788 44.7074 622.817 43.875 622.817ZM63.4522 617.234C72.4231 608.263 72.5602 593.807 63.7656 585.012C59.5642 580.8 53.9525 578.499 47.9589 578.499C47.8805 578.499 47.8022 578.499 47.7238 578.499C41.642 578.557 35.8932 580.987 31.5547 585.335C27.3729 589.517 25.14 594.884 24.807 600.32C24.7286 600.692 24.6797 601.074 24.6209 601.456L23.4065 595.883V497.394L68.7701 496.689C66.6057 505.112 64.8625 512.79 63.6383 519.519C56.9101 556.403 65.9789 582.23 66.0671 582.446C66.116 582.681 71.7081 605.903 95.3889 612.788C124.544 621.26 146.58 606.97 159.928 593.484C160.349 593.063 160.761 592.632 161.172 592.201C157.842 608.185 155.355 620.143 154.924 622.259C149.028 622.053 81.6975 622.533 54.7164 622.739C57.958 621.593 60.9353 619.752 63.4522 617.234ZM133.104 12.5463L139.871 21.3903H180.524C180.465 24.1523 180.397 26.9926 180.308 29.7741L100.481 61.4776L63.6285 41.5172C65.4893 35.0433 63.8831 27.7663 58.7905 22.6734C58.1245 22.0074 57.3998 21.4099 56.6457 20.8517C54.7947 17.2376 51.8077 14.3092 48.1449 12.5463H133.104ZM940.883 37.864C940.883 32.9572 942.793 28.3539 946.26 24.8868C946.358 24.7889 946.465 24.7007 946.573 24.6028C945.809 26.6302 945.378 28.8143 945.378 31.1061C945.378 34.1521 946.132 37.0217 947.435 39.5584L941.559 42.7415C941.128 41.1646 940.883 39.529 940.883 37.864ZM952.283 20.7243C955.152 17.5021 959.305 15.4649 963.947 15.4649C972.565 15.4649 979.577 22.4775 979.577 31.0963C979.577 39.7151 972.565 46.7277 963.947 46.7277C955.328 46.7277 948.316 39.7151 948.316 31.0963C948.316 27.2374 949.727 23.7017 952.057 20.9692C952.155 20.93 952.243 20.881 952.332 20.8419L952.283 20.7243ZM948.982 42.0657C952.361 46.6787 957.806 49.6855 963.947 49.6855C968.589 49.6855 972.82 47.9617 976.081 45.141C975.17 47.2468 973.877 49.1762 972.212 50.8412C966.473 56.5806 957.845 57.7069 950.96 54.23L943.968 48.0499C943.429 47.2468 942.979 46.3947 942.577 45.5328L948.982 42.0657ZM945.721 51.3799C947.17 52.8294 948.806 53.9949 950.539 54.8764L953.389 57.3935L952.449 254.882C950.598 239.515 947.259 224.452 942.469 209.839L942.851 48.0891L943.41 48.5886C944.085 49.568 944.849 50.5082 945.721 51.3799ZM952.194 307.231C950.53 323.783 947.141 339.953 942.117 355.565L942.137 348.905C948.287 327.868 951.479 305.85 951.479 283.344C951.479 261.326 948.414 239.701 942.44 218.937L942.46 212.307C947.543 228.35 950.882 244.941 952.41 261.855L952.194 307.231ZM953.125 272.462C953.291 276.086 953.379 279.72 953.379 283.363C953.379 287.78 953.242 292.168 953.007 296.546L953.125 272.462ZM952.145 317.613C952.087 319.014 948.943 396.73 945.515 466.954L867.383 466.533C869.733 464.583 872.054 462.615 874.336 460.568L941.48 460.911H941.862L942.107 358.102C946.837 343.891 950.206 329.19 952.155 314.166L952.145 317.613ZM952.038 338.768L951.431 466.973L946.299 466.944C948.649 418.737 950.862 367.015 952.038 338.768ZM710.03 565.561V566.638C699.766 566.932 692.784 567.118 691.912 567.118C691.021 567.118 680.463 564.767 664.725 561.144V560.84H663.952V560.958C626.717 552.388 561.462 536.942 525.461 528.402C525.471 528.118 525.481 527.824 525.481 527.54C525.481 513.936 514.414 502.878 500.821 502.878C487.277 502.878 476.239 513.858 476.161 527.393L305.078 564.385L183.325 561.418C190.396 527.432 197.545 492.467 199.514 482.81L585.721 487.433C623.318 510.097 666.615 522.222 711.813 522.222C716.974 522.222 722.115 522.046 727.228 521.732C727.13 522.623 727.071 523.524 727.071 524.445C727.071 537.452 737.648 548.029 750.654 548.029C763.659 548.029 774.236 537.452 774.236 524.445C774.236 521.007 773.492 517.736 772.16 514.788C783.266 511.997 794.127 508.441 804.675 504.132L818.327 563.455C810.639 563.68 776.283 564.699 745.306 565.6L710.03 565.561ZM499.734 523.094C501.066 523.407 506.286 524.651 514.189 526.531C514.199 526.766 514.228 527.001 514.228 527.236C514.228 534.68 508.166 540.742 500.723 540.742C493.28 540.742 487.218 534.68 487.218 527.236C487.218 526.747 487.247 526.257 487.296 525.787L499.734 523.094ZM487.414 524.974C488.501 518.608 494.044 513.74 500.713 513.74C507.647 513.74 513.376 519 514.13 525.738C505.453 523.681 500.135 522.408 499.822 522.339L499.734 522.32L487.414 524.974ZM500.713 541.516C508.587 541.516 514.982 535.111 514.982 527.246C514.982 527.07 514.963 526.903 514.953 526.727C517.264 527.276 519.791 527.873 522.514 528.519C522.014 540.057 512.475 549.293 500.811 549.293C488.834 549.293 479.089 539.548 479.089 527.569L486.503 525.963C486.464 526.384 486.434 526.815 486.434 527.246C486.444 535.111 492.839 541.516 500.713 541.516ZM514.924 525.914C514.258 518.667 508.137 512.966 500.713 512.966C493.554 512.966 487.629 518.265 486.611 525.15L479.119 526.776C479.54 515.16 489.108 505.836 500.821 505.836C512.798 505.836 522.543 515.581 522.543 527.56C522.543 527.618 522.543 527.677 522.543 527.726C519.791 527.07 517.245 526.472 514.924 525.914ZM335.017 558.705L375.493 549.959L375.405 550.018C383.034 561.888 383.034 581.202 375.405 593.072C371.762 598.743 366.914 601.858 361.763 601.858C356.602 601.858 351.764 598.733 348.12 593.072C342.705 584.64 340.863 569.606 343.85 558.098L343.106 557.902C340.07 569.586 341.951 584.885 347.474 593.484C351.264 599.38 356.337 602.622 361.763 602.622C367.188 602.622 372.261 599.37 376.052 593.484C383.788 581.457 383.818 561.927 376.169 549.812L386.305 547.618C387.579 550.644 388.323 553.152 388.323 556.746V586.706C388.323 601.358 376.404 613.268 361.763 613.268C347.611 613.268 335.203 601.77 335.203 588.665V558.705H335.017ZM76.507 488.726C75.841 491.155 75.2338 493.505 74.656 495.817L69.7592 495.895C71.2772 490.038 72.9911 483.819 74.8812 477.316L80.0326 477.257C78.4755 482.046 77.2709 485.935 76.507 488.726ZM80.8455 477.247L109.247 476.924C114.026 476.924 117.561 478.736 119.187 482.037C120.666 485.024 120.313 488.932 118.315 491.537C115.044 495.827 108.796 495.298 108.698 495.288L75.4591 495.807C76.0173 493.564 76.6049 491.282 77.2513 488.932C78.025 486.101 79.2492 482.135 80.8455 477.247ZM23.3967 477.904L74.0782 477.326C72.1978 483.829 70.4742 490.048 68.966 495.905L23.3967 496.62V477.904ZM75.1065 476.542C76.3797 472.174 77.7214 467.678 79.1316 463.075L84.7727 463.105C83.0784 468.06 81.5604 472.556 80.2775 476.483L75.1065 476.542ZM79.3667 462.311C79.9641 460.382 80.5615 458.433 81.1785 456.474L87.0546 456.503C86.3592 458.511 85.6835 460.46 85.0371 462.341L79.3667 462.311ZM24.7188 26.6498L28.5383 18.8047C31.398 15.6412 35.5211 13.6432 40.1143 13.6432C48.7325 13.6432 55.7447 20.6558 55.7447 29.2746C55.7447 37.8934 48.7325 44.906 40.1143 44.906C31.496 44.906 24.4838 37.8934 24.4838 29.2746C24.4838 28.3735 24.5719 27.5019 24.7188 26.6498ZM62.9332 41.145L56.6359 37.7367C57.9385 35.2 58.6926 32.3303 58.6926 29.2844C58.6926 26.8652 58.2127 24.5538 57.3704 22.4285C57.674 22.6929 57.9776 22.9476 58.2616 23.2316C63.0996 28.0699 64.647 34.965 62.9332 41.145ZM40.1143 47.854C46.2548 47.854 51.7 44.8472 55.0788 40.2342L61.895 43.9266C61.0136 45.8266 59.809 47.619 58.2421 49.186C51.083 56.3455 39.4483 56.3455 32.2892 49.186C30.7125 47.5994 29.4687 45.7875 28.5677 43.7993C31.7506 46.3261 35.7561 47.854 40.1143 47.854ZM62.5806 44.289L63.2074 44.6317L60.6023 47.5994C61.3858 46.5514 62.0419 45.4447 62.5806 44.289ZM59.5838 49.9108L63.6285 45.3173L62.6491 456.386L80.3852 456.474C79.7682 458.433 79.1708 460.382 78.5734 462.311L48.7325 462.155L50.8186 56.1202L59.5838 49.9108ZM935.271 190.75C929.16 176.451 921.609 162.69 912.668 149.654L934.625 149.664V149.125L935.408 149.997L935.271 190.75ZM728.001 521.703C742.76 520.753 757.274 518.51 771.387 515.004C772.709 517.883 773.443 521.086 773.443 524.465C773.443 537.04 763.209 547.275 750.634 547.275C738.059 547.275 727.825 537.04 727.825 524.465C727.835 523.524 727.893 522.604 728.001 521.703ZM728.109 520.929C728.236 520.087 728.422 519.254 728.648 518.441C742.652 517.521 756.422 515.425 769.839 512.173C770.28 512.859 770.681 513.564 771.054 514.298C757.078 517.756 742.721 519.969 728.109 520.929ZM728.873 517.658C729.392 516.003 730.097 514.426 730.959 512.957C742.887 512.095 754.63 510.332 766.118 507.736C767.342 508.863 768.429 510.126 769.379 511.497C756.187 514.661 742.643 516.737 728.873 517.658ZM515.697 149.478C488.021 188.919 473.389 235.205 473.389 283.353C473.389 346.29 498.255 405.466 543.403 449.971C546.185 452.713 549.034 455.387 551.924 457.972L547.565 457.953C545.342 455.916 543.139 453.849 540.984 451.734C495.356 406.759 470.226 346.966 470.226 283.363C470.226 235.313 484.671 189.026 512.005 149.478H515.697ZM611.223 194.06C590.344 218.213 578.846 249.015 578.846 280.787C578.846 354.556 639.732 414.575 714.565 414.575C789.397 414.575 850.283 354.556 850.283 280.787C850.283 249.015 838.786 218.213 817.906 194.06C798.074 171.123 770.936 155.423 741.173 149.585H746.952C808.24 163.944 851.037 217.89 851.037 280.797C851.037 355.154 789.661 415.652 714.222 415.652C638.782 415.652 577.396 355.154 577.396 280.797C577.396 249.809 587.768 220.661 607.384 196.529C626.423 173.111 653.13 156.431 682.589 149.556H688.083C658.271 155.374 631.085 171.083 611.223 194.06ZM691.736 149.556L737.393 149.576L737.374 149.664C768.399 154.874 796.791 170.819 817.318 194.56C838.08 218.575 849.509 249.191 849.509 280.787C849.509 354.135 788.976 413.801 714.565 413.801C640.153 413.801 579.62 354.135 579.62 280.787C579.62 249.191 591.049 218.575 611.811 194.56C632.338 170.819 660.73 154.874 691.755 149.664L691.736 149.556ZM606.787 196.039C587.053 220.309 576.623 249.622 576.623 280.787C576.623 355.575 638.342 416.416 714.212 416.416C790.082 416.416 851.801 355.575 851.801 280.787C851.801 218.575 810.169 165.07 750.164 149.585L845.377 149.634C883.61 185.863 904.667 234.598 904.667 286.86C904.667 363.019 859.048 428.864 793.334 459.265L627.843 458.384C563.157 427.591 518.43 362.274 518.43 286.86C518.43 234.559 539.505 185.804 577.778 149.566L577.72 149.507L679.376 149.556C650.965 156.872 625.287 173.297 606.787 196.039ZM871.643 149.644C905.264 187.518 923.783 236.097 923.783 286.478C923.783 342 901.846 394.213 862.016 433.477C852.095 443.252 841.361 451.939 829.971 459.461L818.297 459.402C877.989 424.34 918.064 360.08 918.064 286.762C918.064 235.617 898.575 186.96 863.171 149.644H871.643ZM908.359 149.664C919.445 165.422 928.445 182.288 935.242 199.927L935.203 212.042C927.858 189.927 917.065 168.939 903.011 149.674L908.359 149.664ZM902.061 149.654C916.693 169.624 927.809 191.465 935.193 214.491L934.733 354.331C923.568 388.415 904.304 419.638 877.871 445.7C872.896 450.598 867.735 455.24 862.407 459.637L842.605 459.53C851.253 453.173 859.499 446.161 867.265 438.512C909.191 397.18 932.284 342.236 932.284 283.794C932.284 234.686 916.164 188.321 885.687 149.654H902.061ZM941.412 329.102C939.845 336.829 937.867 344.439 935.516 351.922L935.967 216.9C938.239 224.265 940.129 231.758 941.627 239.339L941.412 329.102ZM942.381 243.335C944.751 256.537 945.956 270.014 945.956 283.677C945.956 297.692 944.673 311.511 942.195 325.017L942.381 243.335ZM750.644 500.88C742.123 500.88 734.651 505.425 730.508 512.212C724.867 512.614 719.197 512.819 713.487 512.819C675.998 512.819 639.869 504.122 607.453 487.707L630.223 487.982C655.421 497.58 682.471 502.594 710.295 502.594C736.267 502.594 761.564 498.226 785.313 489.843L801.404 490.038L802.647 495.435C790.915 500.234 778.781 504.064 766.343 506.904C762.171 503.162 756.667 500.88 750.644 500.88ZM765.412 507.11C754.307 509.597 742.966 511.282 731.458 512.144C735.523 505.836 742.594 501.654 750.634 501.654C756.275 501.654 761.436 503.711 765.412 507.11ZM693.939 485.807C670.102 483.457 647.459 477.012 626.766 467.218C633.885 467.257 640.868 467.287 647.704 467.316C667.703 474.211 689.19 477.972 711.548 477.972C733.701 477.972 755.002 474.28 774.853 467.502C782.62 467.443 787.8 467.345 789.877 467.218C793.882 466.963 797.349 467.257 800.346 467.933C778.634 477.982 754.845 484.368 729.793 486.238L693.939 485.807ZM647.831 466.542C647.42 466.395 646.999 466.258 646.588 466.111L769.428 466.768C744.768 466.905 700.785 466.797 647.831 466.542ZM772.376 467.522C753.239 473.8 732.79 477.208 711.548 477.208C690.081 477.208 669.416 473.731 650.113 467.326C704.213 467.58 748.695 467.678 772.376 467.522ZM645.461 466.533C638.821 466.503 632.054 466.464 625.159 466.435C624.856 466.288 624.562 466.141 624.258 465.994L644.276 466.102C644.668 466.249 645.06 466.395 645.461 466.533ZM799.161 466.934L802.452 466.954C802.099 467.12 801.746 467.277 801.404 467.443C800.679 467.247 799.935 467.071 799.161 466.934ZM778.957 466.053C783.824 464.27 788.584 462.292 793.255 460.147L815.281 460.264C811.599 462.36 807.828 464.329 803.999 466.19L778.957 466.053ZM776.714 466.043L644.414 465.338C639.458 463.526 634.6 461.508 629.851 459.304L791.453 460.137C786.635 462.301 781.729 464.27 776.714 466.043ZM642.19 465.318L622.672 465.22C618.901 463.33 615.199 461.322 611.566 459.216L627.99 459.304C632.622 461.489 637.362 463.496 642.19 465.318ZM620.948 465.21L604.848 465.122C601.616 463.212 598.423 461.214 595.289 459.128L610.029 459.207C613.603 461.312 617.246 463.32 620.948 465.21ZM622.496 465.984C622.789 466.131 623.093 466.278 623.397 466.425C617.991 466.395 612.506 466.366 606.973 466.337C606.718 466.19 606.464 466.043 606.209 465.896L622.496 465.984ZM624.973 467.208C644.051 476.425 664.804 482.781 686.643 485.719L650.907 485.288C636.069 480.812 621.8 474.73 608.315 467.11C613.936 467.15 619.489 467.179 624.973 467.208ZM758.469 489.519C743.661 492.722 728.393 494.367 712.87 494.367C695.585 494.367 678.622 492.32 662.248 488.364L758.469 489.519ZM737.07 486.326C759.899 483.819 781.601 477.57 801.531 468.227C804.489 469.02 806.976 470.196 809.052 471.596C796.556 477.923 783.452 482.987 769.898 486.718L737.07 486.326ZM802.54 467.757C803.088 467.492 803.627 467.218 804.175 466.954L817.573 467.022C814.997 468.482 812.382 469.882 809.748 471.224C807.711 469.814 805.321 468.619 802.54 467.757ZM805.732 466.2C809.493 464.329 813.175 462.36 816.799 460.274L828.62 460.333C825.437 462.399 822.195 464.378 818.905 466.268L805.732 466.2ZM593.908 459.118C597.003 461.205 600.147 463.203 603.349 465.112L587.229 465.024C584.32 463.095 581.461 461.107 578.64 459.04L593.908 459.118ZM604.642 465.896C604.897 466.043 605.151 466.19 605.406 466.337C600.019 466.307 594.574 466.278 589.09 466.248C588.865 466.102 588.639 465.964 588.414 465.808L604.642 465.896ZM606.757 467.11C619.891 474.632 633.778 480.714 648.223 485.259L624.758 484.975C612.78 480.029 601.263 474.025 590.295 467.012C595.838 467.052 601.332 467.081 606.757 467.11ZM658.937 488.324C676.331 492.81 694.419 495.131 712.87 495.131C729.549 495.131 745.933 493.231 761.779 489.549L783.011 489.803C759.938 497.697 735.444 501.811 710.304 501.811C683.313 501.811 657.067 497.061 632.534 488.001L658.937 488.324ZM772.581 486.748C785.44 483.045 797.878 478.139 809.777 472.086C811.569 473.388 813.019 474.867 814.223 476.376C806.643 480.362 798.848 483.888 790.856 486.963L772.581 486.748ZM810.453 471.743C813.371 470.245 816.26 468.677 819.11 467.042L830.177 467.101C825.192 470.284 820.09 473.261 814.889 476.023C813.655 474.495 812.186 473.036 810.453 471.743ZM820.432 466.278C823.674 464.388 826.877 462.409 830.03 460.343L840.088 460.392C837.228 462.448 834.32 464.427 831.372 466.337L820.432 466.278ZM577.338 459.03C580.129 461.097 582.959 463.095 585.839 465.014L571.217 464.936C568.69 462.997 566.203 460.999 563.744 458.952L577.338 459.03ZM586.984 465.798C587.21 465.945 587.425 466.092 587.65 466.229C582.744 466.2 577.798 466.17 572.823 466.141C572.637 465.994 572.441 465.857 572.255 465.71L586.984 465.798ZM588.865 467.012C599.638 473.986 610.969 479.98 622.731 484.955L601.724 484.701C592.057 479.461 582.754 473.535 573.861 466.924C578.895 466.954 583.899 466.983 588.865 467.012ZM803.754 487.12L792.893 486.992C800.336 484.054 807.623 480.724 814.703 476.993C817.925 481.341 819.042 485.886 819.385 487.776C814.791 490.097 810.13 492.262 805.399 494.269L803.754 487.12ZM815.369 476.63C820.903 473.692 826.309 470.509 831.587 467.101L852.712 467.218C842.37 474.867 831.47 481.606 820.109 487.404C819.561 484.221 818.102 480.264 815.369 476.63ZM832.772 466.346C835.691 464.437 838.56 462.448 841.4 460.401L861.36 460.499C858.852 462.546 856.306 464.525 853.73 466.454L832.772 466.346ZM875.276 459.706C877.95 457.287 880.584 454.819 883.17 452.272C905.332 430.422 922.657 405.084 934.654 377.524L934.429 445.034L918.965 459.931L875.276 459.706ZM882.631 451.724C879.859 454.456 877.029 457.111 874.15 459.696L870.987 459.677C874.561 456.552 878.057 453.32 881.466 449.961C904.882 426.886 922.824 399.854 934.684 370.403L934.664 375.565C922.687 403.694 905.166 429.521 882.631 451.724ZM880.917 449.422C877.313 452.977 873.611 456.386 869.821 459.677L863.602 459.647C868.695 455.406 873.641 450.95 878.41 446.259C904.353 420.686 923.421 390.148 934.733 356.819L934.693 368.366C922.873 398.395 904.725 425.956 880.917 449.422ZM884.688 149.644C915.312 188.262 931.491 234.647 931.491 283.784C931.491 342.02 908.486 396.779 866.707 437.953C858.715 445.828 850.215 453.026 841.293 459.52L831.313 459.471C842.399 452.057 852.859 443.565 862.535 434.026C902.512 394.614 924.538 342.216 924.538 286.487C924.538 236.136 906.116 187.587 872.651 149.654L884.688 149.644ZM862.114 149.634C897.693 186.881 917.29 235.568 917.29 286.752C917.29 360.257 876.863 424.614 816.779 459.383L795.155 459.265C860.331 428.433 905.44 362.735 905.44 286.85C905.44 234.637 884.511 185.941 846.493 149.625L862.114 149.634ZM517.666 286.86C517.666 362.02 561.913 427.18 626.08 458.374L609.98 458.286C550.944 423.262 511.359 359.483 511.359 286.762C511.359 235.499 531.005 186.764 566.673 149.507H576.74C538.644 185.833 517.666 234.588 517.666 286.86ZM510.595 286.762C510.595 359.307 549.818 422.978 608.461 458.276L593.918 458.198C583.214 450.96 573.107 442.713 563.734 433.477C523.904 394.213 501.967 342.01 501.967 286.478C501.967 236.048 520.516 187.42 554.196 149.536L554.147 149.497L565.634 149.507C530.133 186.832 510.595 235.538 510.595 286.762ZM501.193 286.478C501.193 342.216 523.209 394.614 563.196 434.016C572.323 443.017 582.146 451.077 592.537 458.188L577.396 458.11C569.17 451.988 561.306 445.27 553.882 437.953C512.103 396.769 489.098 342.02 489.098 283.784C489.098 234.569 505.326 188.135 536.039 149.478L553.216 149.487C519.664 187.449 501.193 236.067 501.193 286.478ZM488.324 283.784C488.324 342.226 511.418 397.18 553.344 438.502C560.542 445.593 568.151 452.125 576.104 458.1L562.628 458.031C557.986 454.114 553.461 450.01 549.093 445.7C505.189 402.42 481.009 344.88 481.009 283.677C481.009 235.117 496.218 188.723 525.001 149.517L524.952 149.487H535.059C504.484 188.184 488.324 234.598 488.324 283.784ZM480.235 283.677C480.235 345.086 504.494 402.822 548.555 446.249C552.717 450.353 557.006 454.28 561.413 458.021L553.099 457.972C549.984 455.211 546.929 452.36 543.942 449.412C498.941 405.055 474.153 346.075 474.153 283.344C474.153 235.186 488.834 188.899 516.608 149.497L516.559 149.468H524.071C495.395 188.732 480.235 235.127 480.235 283.677ZM552.991 458.913C555.302 460.95 557.643 462.948 560.013 464.887L555.439 464.868C553.128 462.919 550.836 460.93 548.584 458.893L552.991 458.913ZM554.166 458.913L562.53 458.952C564.969 460.999 567.427 462.997 569.934 464.926L561.218 464.877C558.838 462.948 556.487 460.95 554.166 458.913ZM570.962 465.71C571.148 465.857 571.344 465.994 571.53 466.141C568.602 466.121 565.674 466.102 562.726 466.092C562.55 465.955 562.373 465.808 562.197 465.671L570.962 465.71ZM572.558 466.915C581.333 473.506 590.53 479.431 600.059 484.681L589.345 484.554C580.452 479.245 571.893 473.339 563.695 466.866C566.673 466.875 569.62 466.895 572.558 466.915ZM605.719 487.688C638.596 504.612 675.332 513.583 713.477 513.583C719.03 513.583 724.554 513.388 730.038 513.006C729.216 514.484 728.55 516.052 728.05 517.697C722.869 518.03 717.659 518.206 712.43 518.206C670.406 518.206 630.056 507.55 594.525 487.551L605.719 487.688ZM767.019 507.521C779.28 504.7 791.248 500.91 802.824 496.189L803.793 500.401C792.903 504.857 781.68 508.49 770.192 511.301C769.271 509.93 768.204 508.667 767.019 507.521ZM805.576 495.024C810.286 493.026 814.938 490.881 819.512 488.569C819.512 488.589 819.522 488.628 819.522 488.638L820.344 492.859C815.81 495.131 811.207 497.247 806.545 499.225L805.576 495.024ZM820.276 488.53C820.266 488.422 820.246 488.315 820.237 488.207C832.018 482.213 843.3 475.21 853.985 467.228L860.654 467.267C848.246 477.022 834.986 485.465 821.059 492.516L820.276 488.53ZM855.004 466.464C857.56 464.535 860.077 462.546 862.564 460.509L868.842 460.539C866.472 462.576 864.063 464.564 861.624 466.493L855.004 466.464ZM935.085 445.485L935.203 445.367L935.438 375.741C937.592 370.687 939.551 365.555 941.343 360.355L941.108 460.137L919.984 460.029L935.085 445.485ZM935.438 373.743L935.457 368.503C937.641 362.93 939.61 357.279 941.363 351.55L941.343 357.984C939.561 363.312 937.592 368.562 935.438 373.743ZM935.457 366.319L935.496 354.459C937.818 347.358 939.786 340.14 941.392 332.814L941.353 348.798C939.629 354.723 937.661 360.57 935.457 366.319ZM942.176 329.18C945.182 314.352 946.72 299.132 946.72 283.677C946.72 268.613 945.261 253.765 942.391 239.26L942.43 221.729C947.905 241.63 950.706 262.316 950.706 283.344C950.706 304.861 947.787 325.938 942.137 346.143L942.176 329.18ZM941.627 235.607C940.08 228.438 938.19 221.357 935.957 214.383L935.996 201.945C938.111 207.576 939.992 213.286 941.657 219.065L941.627 235.607ZM936.016 199.78L936.035 194.57C938.102 199.633 939.992 204.765 941.696 209.956L941.676 216.342C940.002 210.75 938.111 205.226 936.016 199.78ZM935.252 197.831C928.582 180.956 919.895 164.805 909.289 149.654H911.737C921.129 163.268 928.994 177.685 935.271 192.689L935.252 197.831ZM912.149 148.89C912.139 148.88 912.139 148.87 912.129 148.861L912.09 148.89L871.995 148.87C871.976 148.851 871.966 148.831 871.946 148.821L871.888 148.87L70.6211 148.488L140.243 66.2865L862.515 68.3727L934.429 148.9L912.149 148.89ZM511.085 149.468C483.859 189.046 469.472 235.323 469.472 283.353C469.472 347.162 494.68 407.151 540.455 452.272C542.414 454.202 544.412 456.082 546.429 457.943L88.2298 455.495C107.797 399.227 145.15 299.19 151.075 283.363C151.055 284.343 151.036 285.312 151.036 286.301C151.036 360.55 212.314 420.961 287.636 420.961C362.958 420.961 424.236 360.55 424.236 286.301C424.236 212.052 362.958 151.642 287.636 151.642C235.583 151.642 190.239 180.496 167.185 222.836L166.627 222.61C166.539 222.816 165.638 225.049 164.061 228.957C161.544 234.216 159.36 239.652 157.529 245.254C140.752 287.398 104.595 380.08 81.7661 452.086L71.2478 443.272L70.1706 149.282L511.085 149.468ZM164.756 229.26C186.527 183.884 233.419 152.416 287.626 152.416C362.527 152.416 423.462 212.473 423.462 286.301C423.462 360.129 362.527 420.187 287.626 420.187C212.725 420.187 151.8 360.12 151.8 286.292C151.8 272.071 154.072 258.369 158.253 245.499C160.986 238.643 163.199 233.129 164.756 229.26ZM155.227 253.119C152.916 262.081 151.525 271.395 151.143 280.964C150.615 282.374 108.551 394.673 87.417 455.495L85.8402 455.485L82.4125 452.605C103.929 384.654 137.413 298.103 155.227 253.119ZM84.9294 455.73L81.4233 455.71C81.6682 454.946 81.9032 454.172 82.148 453.399L84.9294 455.73ZM87.8675 456.513L547.438 458.883C549.671 460.921 551.924 462.919 554.225 464.858L85.85 462.35C86.4964 460.46 87.1721 458.521 87.8675 456.513ZM555.155 465.631C555.322 465.769 555.488 465.906 555.655 466.053C471.842 465.543 381.409 464.877 313.118 464.339L555.155 465.631ZM556.37 465.631L560.943 465.651C561.12 465.798 561.296 465.935 561.472 466.072C559.944 466.062 558.407 466.053 556.869 466.043C556.703 465.915 556.536 465.769 556.37 465.631ZM562.452 466.856C570.561 473.32 579.042 479.226 587.836 484.534L582.323 484.466C573.832 479.128 565.644 473.241 557.8 466.817C559.357 466.836 560.914 466.846 562.452 466.856ZM592.949 487.531C628.881 508.04 669.798 518.98 712.43 518.98C717.591 518.98 722.723 518.804 727.835 518.48C727.619 519.293 727.453 520.126 727.325 520.968C722.184 521.291 717.013 521.468 711.813 521.468C667.213 521.468 624.454 509.627 587.229 487.463L592.949 487.531ZM771.817 514.102C771.465 513.378 771.063 512.673 770.642 511.987C782.032 509.186 793.177 505.572 803.979 501.164L804.489 503.398C793.892 507.727 782.972 511.301 771.817 514.102ZM806.712 499.999C811.373 498.03 815.967 495.915 820.491 493.652L820.932 495.915C816.427 498.167 811.853 500.263 807.231 502.222L806.712 499.999ZM821.206 493.29C835.534 486.052 849.157 477.355 861.888 467.267L865.267 467.287C851.693 478.325 837.072 487.776 821.647 495.562L821.206 493.29ZM862.848 466.503C865.267 464.564 867.647 462.576 869.997 460.539L873.18 460.558C870.889 462.595 868.548 464.583 866.188 466.523L862.848 466.503ZM942.166 46.4632L942.078 46.3849L941.696 207.547C939.982 202.493 938.092 197.488 936.035 192.552L936.172 149.86V149.713L862.966 67.7361L862.848 67.6087L140.057 65.5226H139.881L69.4948 148.626L69.4067 148.733L70.484 443.428V443.605L81.5115 452.86C81.2079 453.81 80.9141 454.76 80.6202 455.7L63.4228 455.612L64.4022 45.2684L100.295 64.7097L123.614 55.4444C125.612 55.4934 128.922 55.5228 134.426 55.5228C138.892 55.5228 144.807 55.5032 152.622 55.4738C171.72 55.3955 199.788 55.2094 236.053 54.9156C297.126 54.4161 382.251 53.6129 489.079 52.5258C670.964 50.6747 855.18 48.6082 857.021 48.5886L858.539 48.569L858.5 48.5494L903.795 66.5412L941.921 45.8854C941.99 46.0813 942.078 46.2772 942.166 46.4632ZM851.821 45.905L855.483 47.8442C819.718 48.2458 184.872 55.3171 125.445 54.7295L145.541 46.7473L840.088 41.2528L851.821 45.905ZM147.52 45.954L183.188 31.7819L183.217 30.8221C183.325 27.2668 183.413 24.1425 183.472 21.3805H820.854V33.6036L838.198 40.4888L147.52 45.954ZM27.2847 42.6729C28.2249 45.3075 29.7233 47.6973 31.7506 49.7247C35.4819 53.4562 40.3787 55.3171 45.2754 55.3171C47.8609 55.3171 50.4366 54.7882 52.8458 53.7501L50.0547 55.7187L47.9589 462.527V462.909L78.3384 463.075C76.9281 467.678 75.5766 472.184 74.3132 476.552L23.4065 477.13V37.3058C24.3761 39.3233 25.6884 41.1353 27.2847 42.6729ZM159.36 592.955C146.158 606.275 124.378 620.408 95.5945 612.044C72.3545 605.295 66.8604 582.495 66.7918 582.221C66.7037 581.966 57.6936 556.315 64.3924 519.646C65.6264 512.878 67.3794 505.151 69.5634 496.669L74.4601 496.591C65.0388 534.788 67.0464 557.5 67.4773 561.183C66.8212 564.131 66.4588 567.187 66.4588 570.331C66.4588 593.405 85.233 612.171 108.297 612.171C109.276 612.171 110.246 612.122 111.205 612.063L111.166 612.661C112.018 612.71 112.861 612.739 113.703 612.739C123.966 612.739 133.76 609.027 141.497 602.152C149.87 594.708 154.845 584.454 155.511 573.269C156.177 562.084 152.436 551.31 144.993 542.936C137.041 533.984 125.612 528.852 113.634 528.852C111.881 528.627 110.099 528.5 108.287 528.5C89.1504 528.5 72.9911 541.418 68.0258 558.979C67.7907 556.011 67.5557 550.576 67.9474 542.878C68.4567 532.868 70.1804 517.08 75.2436 496.591L108.649 496.072C108.924 496.101 115.377 496.649 118.913 492.017C121.067 489.186 121.459 484.955 119.853 481.713C118.835 479.647 116.092 476.18 109.217 476.18L81.0805 476.503C82.3635 472.575 83.8815 468.08 85.5758 463.144L202.383 463.771C199.504 464.995 188.496 470.734 183.325 488.501C181.709 494.054 169.359 552.907 161.456 590.79C160.78 591.486 160.085 592.22 159.36 592.955ZM147.206 570.331C147.206 591.78 129.754 609.233 108.307 609.233C86.8587 609.233 69.4067 591.78 69.4067 570.331C69.4067 548.881 86.8587 531.428 108.307 531.428C129.754 531.428 147.206 548.872 147.206 570.331ZM119.628 530.057C129.147 531.458 137.961 536.159 144.435 543.436C151.741 551.663 155.404 562.231 154.757 573.21C154.111 584.189 149.224 594.258 140.997 601.564C133.153 608.537 123.153 612.181 112.714 611.936C133.721 609.722 150.144 591.907 150.144 570.321C150.144 551.183 137.217 535.003 119.628 530.057ZM184.079 488.677C189.72 469.324 202.344 464.544 203.284 464.211C208.396 464.25 395.031 465.827 556.605 466.817C564.371 473.222 572.48 479.108 580.893 484.456L198.348 479.882L197.134 479.872L196.889 481.057C192.952 500.381 185.969 534.386 179.505 565.404C176.744 570.565 171.005 580.271 162.504 589.654C170.388 551.751 182.483 494.152 184.079 488.677ZM287.929 566.991V580.134L237.855 580.056C237.356 576.462 235.505 569.586 234.545 566.158L287.929 566.991ZM582.705 571.065L591.529 571.016V584.444H582.705V571.065ZM591.529 568.088L582.705 568.137V552.035H591.529V568.088ZM404.472 571.976L413.296 571.927V583.073H404.472V571.976ZM404.472 569.038V550.644H413.296V568.989L404.472 569.038ZM766.323 568.597C765.363 571.819 763.552 578.107 763.052 581.545L712.968 581.623V568.499L766.323 568.597ZM807.407 502.996C812.03 501.037 816.593 498.951 821.089 496.708L837.767 582.211C830.637 574.846 824.497 568.235 821.735 565.247L807.407 502.996ZM821.804 496.336C837.62 488.383 852.585 478.658 866.462 467.287L945.476 467.708C945.31 471.067 945.143 474.417 944.977 477.727L895.363 477.159C888.497 477.159 885.755 480.626 884.727 482.693C883.121 485.935 883.513 490.175 885.667 492.996C889.203 497.629 895.656 497.08 895.882 497.051L943.939 497.805C943.439 507.296 942.949 516.365 942.469 524.778C942.43 525.131 942.411 525.483 942.411 525.855C942.411 525.865 942.411 525.865 942.411 525.875C940.746 554.699 939.228 575.512 938.18 578.097C936.887 581.29 935.937 584.238 935.017 587.088C932.656 594.414 930.61 600.741 923.901 606.422C912.599 615.991 884.325 622.347 867.49 610.124C866.188 609.174 864.719 608.008 863.142 606.676C870.556 612.533 879.585 615.677 889.026 615.677C889.869 615.677 890.711 615.648 891.563 615.599L891.524 615.001C892.483 615.07 893.453 615.109 894.432 615.109C917.506 615.109 936.27 596.334 936.27 573.269C936.27 550.204 917.496 531.428 894.432 531.428C892.62 531.428 890.838 531.556 889.085 531.781C877.108 531.781 865.679 536.923 857.726 545.865C850.283 554.239 846.552 565.012 847.208 576.197C847.845 586.892 852.428 596.726 860.145 604.071C853.623 598.273 845.758 590.457 838.737 583.219L821.804 496.336ZM944.937 478.501C944.624 484.808 944.311 491.008 943.987 497.051L895.862 496.297C895.794 496.307 889.555 496.826 886.284 492.546C884.296 489.94 883.943 486.033 885.412 483.045C887.038 479.755 890.574 477.933 895.353 477.933L944.937 478.501ZM852.604 573.269C852.604 594.855 869.028 612.67 890.035 614.884C879.605 615.129 869.606 611.485 861.751 604.512C853.525 597.206 848.648 587.137 847.991 576.158C847.335 565.179 851.008 554.601 858.314 546.384C864.777 539.107 873.592 534.406 883.121 533.005C865.532 537.941 852.604 554.121 852.604 573.269ZM894.442 534.357C915.89 534.357 933.342 551.81 933.342 573.259C933.342 594.708 915.89 612.161 894.442 612.161C872.994 612.161 855.542 594.708 855.542 573.259C855.542 551.81 872.994 534.357 894.442 534.357ZM945.359 525.865C945.359 522.163 948.375 519.156 952.067 519.156C955.759 519.156 958.776 522.173 958.776 525.865C958.776 529.558 955.769 532.574 952.067 532.574C948.365 532.574 945.359 529.558 945.359 525.865ZM944.771 497.061C945.084 491.018 945.408 484.818 945.721 478.511L980.341 478.902L980.204 497.609L944.771 497.061ZM945.76 477.747C945.927 474.427 946.093 471.087 946.26 467.718L951.812 467.747H952.194L952.958 307.28C953.752 299.386 954.153 291.404 954.153 283.363C954.153 276.145 953.82 268.966 953.174 261.836L954.153 57.227V57.0507L952.772 55.8362C954.858 56.5806 957.042 56.9723 959.236 56.9723C964.133 56.9723 969.03 55.1114 972.761 51.3799C974.896 49.2448 976.453 46.6983 977.374 43.8972C980.556 40.5574 982.525 36.0619 982.525 31.0963C982.525 30.3324 982.466 29.5782 982.368 28.8339L983.602 31.1942L980.351 478.129L945.76 477.747ZM975.043 16.2386L975.924 16.5422L976.316 17.2768C975.905 16.9144 975.474 16.5716 975.043 16.2386ZM963.947 12.5267C956.641 12.5267 950.324 16.7773 947.288 22.928C946.739 23.3687 946.211 23.8291 945.711 24.3286C942.097 27.9426 940.109 32.7417 940.109 37.8542C940.109 39.6563 940.374 41.4193 940.854 43.1137L903.579 63.3091L823.782 31.6056V21.3805H862.838L869.919 14.1525V12.4385L963.878 12.4287L964.231 12.5463C964.143 12.5463 964.045 12.5267 963.947 12.5267ZM869.155 13.8391L862.525 20.6068H823.792V12.4385L869.155 12.4287V13.8391ZM820.854 20.6166H183.491C183.56 17.4433 183.609 14.7695 183.628 12.5365L820.854 12.4483V20.6166ZM180.544 20.6166H140.253L134.073 12.5463L180.661 12.5365C180.641 15.0046 180.602 17.7567 180.544 20.6166ZM133.593 11.7823V2.93823H180.563C180.681 4.4955 180.71 7.70796 180.671 11.7725L133.593 11.7823ZM2.93806 556.766V428.502C3.69216 427.875 6.11116 426.69 8.6183 425.623V564.885L2.93806 556.766ZM11.5564 604.747V31.253C11.5564 15.6412 24.2585 2.93823 39.8694 2.93823H132.82V11.7823L46.3331 11.7921C44.3842 11.0967 42.308 10.705 40.124 10.705C29.88 10.705 21.5457 19.03 21.5457 29.2746C21.5457 31.4489 21.9375 33.5252 22.6328 35.4645L22.6426 595.962L24.4054 604.061C24.4054 604.091 24.4054 604.11 24.4054 604.14C24.4054 606.892 25.0224 609.507 26.1095 611.857L26.5992 614.12L27.7744 614.766C30.0465 617.998 33.3078 620.476 37.1272 621.74C40.1632 623.238 43.5322 624.051 47.0481 624.051C47.1264 624.051 47.2048 624.051 47.2831 624.051C48.8892 624.032 50.466 623.845 51.9938 623.512C77.3296 623.317 152.779 622.768 155.188 623.023L155.531 623.062L155.599 622.719C155.688 622.318 158.42 609.096 162.171 591.104C170.094 582.573 175.735 573.651 178.947 567.951C172.239 600.095 166.196 628.449 164.845 633.042H39.8694C24.2585 633.062 11.5564 620.359 11.5564 604.747ZM994.042 604.747C994.042 620.359 981.34 633.062 965.729 633.062H836.709L837.307 632.925L822.078 566.746C825.27 570.203 831.245 576.599 838.031 583.582L845.2 620.329L845.259 620.633L952.762 622.523C954.378 622.876 956.014 623.072 957.659 623.072C960.078 623.072 962.478 622.67 964.779 621.906L967.815 621.622L976.952 615.55L977.746 612.514C979.362 609.762 980.302 606.569 980.302 603.16C980.302 602.543 980.272 601.946 980.214 601.348L980.968 498.403L981.585 498.412L981.595 497.639L980.968 497.629L981.105 478.912L981.585 478.922L981.595 478.148L981.115 478.139L984.376 31.1061V31.0081L981.83 26.1503C981.115 23.5646 979.861 21.1944 978.177 19.1867L976.453 15.9056L971.958 14.368C970.596 13.7118 969.167 13.2025 967.649 12.8988L963.996 11.655L869.909 11.6648V3.30061H869.136V11.6746L823.772 11.6844V3.30061H820.834V11.6746L183.609 11.7725C183.638 7.17908 183.56 4.51508 183.433 2.93823H965.71C981.32 2.93823 994.023 15.6412 994.023 31.253V604.747H994.042ZM1002.08 567.51L996.98 575.737V436.171C999.624 437.278 1002.26 438.551 1003.06 439.217C1003 446.925 1002.14 559.723 1002.08 567.51Z" fill="#E9EEF1"/>
<path d="M40.3787 39.392C46.059 39.392 50.6815 34.7691 50.6815 29.0886C50.6815 23.408 46.059 18.7852 40.3787 18.7852C34.6985 18.7852 30.0759 23.408 30.0759 29.0886C30.0759 34.7691 34.6887 39.392 40.3787 39.392ZM40.3787 19.5491C45.6378 19.5491 49.9176 23.8291 49.9176 29.0886C49.9176 34.348 45.6378 38.628 40.3787 38.628C35.1196 38.628 30.8398 34.348 30.8398 29.0886C30.8398 23.8291 35.1196 19.5491 40.3787 19.5491Z" fill="#E9EEF1"/>
<path d="M963.692 41.2234C969.372 41.2234 973.995 36.6006 973.995 30.92C973.995 25.2394 969.372 20.6166 963.692 20.6166C958.012 20.6166 953.389 25.2394 953.389 30.92C953.389 36.6006 958.012 41.2234 963.692 41.2234ZM963.692 21.3805C968.951 21.3805 973.231 25.6605 973.231 30.92C973.231 36.1794 968.951 40.4594 963.692 40.4594C958.433 40.4594 954.153 36.1794 954.153 30.92C954.153 25.6605 958.433 21.3805 963.692 21.3805Z" fill="#E9EEF1"/>
<path d="M961.988 592.661C956.308 592.661 951.685 597.284 951.685 602.964C951.685 608.645 956.308 613.268 961.988 613.268C967.668 613.268 972.291 608.645 972.291 602.964C972.291 597.284 967.668 592.661 961.988 592.661ZM961.988 612.504C956.729 612.504 952.449 608.224 952.449 602.964C952.449 597.705 956.729 593.425 961.988 593.425C967.247 593.425 971.527 597.705 971.527 602.964C971.527 608.234 967.247 612.504 961.988 612.504Z" fill="#E9EEF1"/>
<path d="M42.7095 593.65C37.0293 593.65 32.4067 598.273 32.4067 603.954C32.4067 609.634 37.0293 614.257 42.7095 614.257C48.3898 614.257 53.0123 609.634 53.0123 603.954C53.0221 598.273 48.3996 593.65 42.7095 593.65ZM42.7095 613.493C37.4504 613.493 33.1706 609.213 33.1706 603.954C33.1706 598.694 37.4504 594.414 42.7095 594.414C47.9686 594.414 52.2484 598.694 52.2484 603.954C52.2484 609.213 47.9686 613.493 42.7095 613.493Z" fill="#E9EEF1"/>
<path d="M52.131 513.525C46.8131 513.525 42.4844 517.854 42.4844 523.172C42.4844 528.49 46.8131 532.819 52.131 532.819C57.4489 532.819 61.7776 528.49 61.7776 523.172C61.7776 517.854 57.4489 513.525 52.131 513.525ZM52.131 529.891C48.429 529.891 45.4224 526.874 45.4224 523.182C45.4224 519.489 48.429 516.473 52.131 516.473C55.8329 516.473 58.8396 519.479 58.8396 523.182C58.8396 526.884 55.8329 529.891 52.131 529.891Z" fill="#E9EEF1"/>
<path d="M76.3601 570.223C76.3601 587.891 90.737 602.269 108.405 602.269C126.072 602.269 140.449 587.891 140.449 570.223C140.449 552.554 126.072 538.176 108.405 538.176C90.737 538.176 76.3601 552.554 76.3601 570.223ZM108.405 538.95C125.651 538.95 139.675 552.985 139.675 570.223C139.675 587.47 125.641 601.495 108.405 601.495C91.1581 601.495 77.1338 587.46 77.1338 570.223C77.124 552.975 91.1581 538.95 108.405 538.95Z" fill="#E9EEF1"/>
<path d="M90.5607 588.499C95.5163 593.454 102.029 595.932 108.542 595.932C115.054 595.932 121.567 593.454 126.523 588.499C136.443 578.587 136.443 562.446 126.523 552.535C116.611 542.623 100.472 542.623 90.5607 552.535C80.6497 562.446 80.6399 578.587 90.5607 588.499ZM91.0994 553.073C100.717 543.455 116.367 543.455 125.984 553.073C135.601 562.691 135.601 578.342 125.984 587.96C116.367 597.578 100.717 597.578 91.0994 587.96C81.4919 578.342 81.4919 562.691 91.0994 553.073Z" fill="#E9EEF1"/>
<path d="M104.174 581.163C105.633 581.77 107.161 582.074 108.698 582.074C110.226 582.074 111.764 581.77 113.223 581.173C116.141 579.968 118.413 577.696 119.618 574.777C120.823 571.858 120.832 568.646 119.618 565.727C118.413 562.809 116.141 560.536 113.223 559.332C110.304 558.117 107.092 558.127 104.174 559.332C101.255 560.536 98.9831 562.809 97.7785 565.727C96.5739 568.646 96.5641 571.858 97.7785 574.777C98.9929 577.676 101.265 579.948 104.174 581.163ZM98.4934 566.011C99.6197 563.289 101.745 561.163 104.477 560.037C105.839 559.469 107.268 559.195 108.698 559.195C110.128 559.195 111.568 559.479 112.929 560.047C115.652 561.173 117.777 563.298 118.903 566.031C121.234 571.662 118.551 578.136 112.919 580.467C110.197 581.604 107.19 581.594 104.467 580.467C101.745 579.341 99.6197 577.216 98.4934 574.483C97.3671 571.741 97.3671 568.744 98.4934 566.011Z" fill="#E9EEF1"/>
<path d="M894.344 605.207C912.012 605.207 926.389 590.83 926.389 573.161C926.389 555.492 912.012 541.115 894.344 541.115C876.677 541.115 862.3 555.492 862.3 573.161C862.3 590.83 876.677 605.207 894.344 605.207ZM894.344 541.888C911.591 541.888 925.615 555.923 925.615 573.161C925.615 590.408 911.581 604.434 894.344 604.434C877.098 604.434 863.074 590.399 863.074 573.161C863.074 555.914 877.098 541.888 894.344 541.888Z" fill="#E9EEF1"/>
<path d="M876.216 591.437C881.015 596.246 887.41 598.89 894.197 598.89C900.984 598.89 907.379 596.246 912.178 591.437C922.089 581.525 922.089 565.384 912.178 555.473C902.257 545.551 886.127 545.561 876.216 555.473C866.305 565.384 866.305 581.525 876.216 591.437ZM876.765 556.012C881.573 551.203 887.89 548.803 894.207 548.803C900.524 548.803 906.841 551.203 911.649 556.012C921.266 565.629 921.266 581.28 911.649 590.898C906.987 595.56 900.798 598.126 894.207 598.126C887.616 598.126 881.426 595.56 876.765 590.898C867.147 581.28 867.147 565.629 876.765 556.012Z" fill="#E9EEF1"/>
<path d="M889.526 584.101C890.985 584.708 892.513 585.002 894.05 585.002C895.588 585.002 897.116 584.698 898.575 584.091C901.493 582.887 903.765 580.614 904.97 577.696C907.458 571.672 904.588 564.748 898.575 562.25C892.552 559.763 885.628 562.632 883.14 568.646C881.936 571.565 881.936 574.777 883.14 577.696C884.335 580.624 886.607 582.896 889.526 584.101ZM883.836 568.959C885.598 564.709 889.721 562.133 894.06 562.133C895.47 562.133 896.89 562.407 898.271 562.975C903.903 565.306 906.586 571.78 904.255 577.412C903.129 580.134 901.004 582.26 898.281 583.396C895.549 584.522 892.552 584.532 889.829 583.396C887.107 582.269 884.981 580.144 883.845 577.421C882.709 574.689 882.709 571.682 883.836 568.959Z" fill="#E9EEF1"/>
<path d="M247.169 500.322C234.163 500.322 223.586 510.9 223.586 523.906C223.586 536.913 234.163 547.491 247.169 547.491C260.175 547.491 270.752 536.913 270.752 523.906C270.752 510.9 260.165 500.322 247.169 500.322ZM247.169 546.717C234.594 546.717 224.36 536.482 224.36 523.906C224.36 511.331 234.594 501.096 247.169 501.096C259.744 501.096 269.978 511.331 269.978 523.906C269.978 536.482 259.744 546.717 247.169 546.717Z" fill="#E9EEF1"/>
<path d="M601.371 501.184C592.273 501.184 584.879 508.588 584.879 517.677C584.879 526.776 592.283 534.18 601.371 534.18C610.459 534.18 617.863 526.776 617.863 517.677C617.863 508.579 610.469 501.184 601.371 501.184ZM601.371 533.407C592.694 533.407 585.643 526.345 585.643 517.677C585.643 509.01 592.694 501.948 601.371 501.948C610.048 501.948 617.099 509 617.099 517.677C617.099 526.355 610.038 533.407 601.371 533.407Z" fill="#E9EEF1"/>
<path d="M399.527 501.184C390.428 501.184 383.024 508.588 383.024 517.677C383.024 526.776 390.428 534.18 399.527 534.18C408.625 534.18 416.019 526.776 416.019 517.677C416.029 508.579 408.625 501.184 399.527 501.184ZM399.527 533.407C390.849 533.407 383.798 526.345 383.798 517.677C383.798 509.01 390.859 501.948 399.527 501.948C408.194 501.948 415.255 509 415.255 517.677C415.255 526.355 408.204 533.407 399.527 533.407Z" fill="#E9EEF1"/>
<path d="M514.983 595.501H477.238V614.032H514.983V595.501ZM514.219 613.258H478.012V596.275H514.219V613.258Z" fill="#E9EEF1"/>
<path d="M426.506 622.784L426.504 623.558L571.448 624.038L571.45 623.264L426.506 622.784Z" fill="#E9EEF1"/>
<path d="M792.384 583.602C784.853 583.602 778.732 589.723 778.732 597.255C778.732 604.786 784.853 610.908 792.384 610.908C799.915 610.908 806.036 604.786 806.036 597.255C806.046 589.723 799.915 583.602 792.384 583.602ZM792.384 610.144C785.274 610.144 779.496 604.365 779.496 597.255C779.496 590.144 785.274 584.366 792.384 584.366C799.494 584.366 805.272 590.144 805.272 597.255C805.272 604.365 799.494 610.144 792.384 610.144Z" fill="#E9EEF1"/>
<path d="M721.342 592.837C713.487 600.692 713.487 613.464 721.342 621.319C725.132 625.109 730.185 627.195 735.581 627.195C740.978 627.195 746.031 625.109 749.821 621.319C757.676 613.464 757.676 600.692 749.821 592.837C741.967 584.983 729.196 584.983 721.342 592.837ZM749.283 620.77C745.639 624.414 740.772 626.421 735.581 626.421C730.391 626.421 725.533 624.414 721.88 620.77C714.329 613.219 714.329 600.927 721.88 593.376C725.661 589.596 730.616 587.715 735.581 587.715C740.547 587.715 745.502 589.605 749.283 593.376C756.833 600.927 756.833 613.219 749.283 620.77Z" fill="#E9EEF1"/>
<path d="M246.757 590.046C242.967 593.836 240.881 598.89 240.881 604.287C240.881 609.683 242.967 614.737 246.757 618.527C250.548 622.318 255.601 624.404 260.997 624.404C266.393 624.404 271.447 622.318 275.237 618.527C283.091 610.672 283.091 597.901 275.237 590.046C267.392 582.191 254.612 582.191 246.757 590.046ZM274.698 617.989C271.055 621.632 266.188 623.64 260.997 623.64C255.807 623.64 250.939 621.632 247.296 617.989C243.653 614.345 241.645 609.478 241.645 604.287C241.645 599.096 243.653 594.238 247.296 590.585C251.076 586.804 256.032 584.924 260.997 584.924C265.953 584.924 270.918 586.814 274.698 590.585C282.249 598.146 282.249 610.428 274.698 617.989Z" fill="#E9EEF1"/>
<path d="M210.698 584.659C203.167 584.659 197.046 590.781 197.046 598.312C197.046 605.844 203.167 611.965 210.698 611.965C218.229 611.965 224.35 605.844 224.35 598.312C224.36 590.79 218.229 584.659 210.698 584.659ZM210.698 611.211C203.588 611.211 197.81 605.433 197.81 598.322C197.81 591.212 203.588 585.433 210.698 585.433C217.808 585.433 223.586 591.212 223.586 598.322C223.586 605.433 217.808 611.211 210.698 611.211Z" fill="#E9EEF1"/>
<path d="M287.616 346.075C303.139 346.075 317.349 340.365 328.279 330.943L328.435 331.1L329.189 330.159C340.315 320.199 347.846 306.33 349.609 290.719H349.668L349.638 290.454C349.883 288.221 350.01 285.959 350.01 283.667C350.01 271.13 346.279 259.456 339.894 249.662L339.943 249.632L339.727 249.407C328.563 232.473 309.377 221.269 287.616 221.269C253.211 221.269 225.221 249.26 225.221 283.667C225.221 318.083 253.211 346.075 287.616 346.075ZM240.793 319.464L251.36 311.796L257.951 318.847L248.55 327.662L240.793 319.464ZM283.444 342.265L284.903 327.358L294.706 326.222L297.576 341.178L283.444 342.265ZM328.2 326.663L318.808 317.065L325.497 309.915L336.074 316.761L328.2 326.663ZM345.74 271.189L329.258 274.127L329.376 289.132L346.671 290.484C345.662 299.279 342.734 307.496 338.307 314.704L325.037 306.115L314.754 317.114L326.222 328.837C318.994 335.027 310.268 339.513 300.661 341.668L297.076 322.99L282.21 324.704L280.447 342.676C269.145 341.315 258.813 336.77 250.371 329.964L262.094 318.965L251.723 307.878L238.658 317.359C233.898 310.464 230.569 302.521 229.06 293.96L245.807 292.158L246.581 277.154L228.835 274.705C230.03 266.801 232.792 259.407 236.788 252.845L250.185 262.57L260.478 251.572L248.843 238.643C256.424 232.101 265.669 227.429 275.844 225.372L278.322 242.757L293.326 241.915L295.098 224.677C305.92 226.038 315.841 230.318 324.058 236.714L313.295 249.779L323.519 260.709L337.465 251.297C341.343 257.291 344.193 264 345.74 271.189ZM346.377 287.526L332.294 286.429L332.216 276.595L345.016 274.313L346.377 287.526ZM229.178 291.003L229.413 277.761L243.516 279.71L243.016 289.514L229.178 291.003ZM247.022 241.023L256.492 251.542L249.813 258.682L239.138 250.925L247.022 241.023ZM292.082 225.304L290.662 239.143L280.858 239.691L278.851 225.598L292.082 225.304ZM335.418 249.152L323.95 256.9L317.202 249.681L325.889 239.143L335.418 249.152Z" fill="#E9EEF1"/>
<path d="M287.616 395.153C348.512 395.153 398.058 345.605 398.058 284.705C398.058 223.805 348.512 174.257 287.616 174.257C226.72 174.257 177.175 223.815 177.175 284.715C177.175 345.615 226.72 395.153 287.616 395.153ZM203.921 269.877C203.627 276.145 202.716 303.49 208.435 314.205L195.772 323.754L197.761 332.099L193.393 336.437C184.931 321.08 180.103 303.451 180.103 284.715C180.103 273.559 181.817 262.786 184.98 252.659L188.907 255.998L187.605 266.214L203.921 269.877ZM211.746 313.989C208.631 305.429 206.927 296.184 206.927 286.556C206.927 242.189 243.026 206.088 287.391 206.088C331.755 206.088 367.854 242.189 367.854 286.556C367.854 330.923 331.755 367.024 287.391 367.024C253.065 367.024 223.704 345.409 212.167 315.077L212.372 314.92L211.746 313.989ZM287.616 177.205C346.896 177.205 395.12 225.431 395.12 284.715C395.12 343.999 346.886 392.215 287.616 392.215C248.158 392.215 213.616 370.844 194.911 339.082L201.012 333.019L199.083 324.939L209.728 316.908C221.892 347.926 252.105 369.963 287.391 369.963C333.381 369.963 370.792 332.549 370.792 286.556C370.792 240.563 333.381 203.149 287.391 203.149C248.001 203.149 214.929 230.602 206.232 267.379L190.876 263.932L192.041 254.784L186.038 249.681L185.94 249.799C200.454 207.616 240.548 177.205 287.616 177.205Z" fill="#E9EEF1"/>
<path d="M372.027 324.616C371.38 324.312 370.665 324.283 369.911 324.469C369.147 324.645 368.334 325.047 367.531 325.635C365.964 326.829 364.28 328.68 362.85 331.06C362.096 332.226 361.508 333.411 361.068 334.537C360.588 335.634 360.265 336.702 360.108 337.691C359.814 339.669 360.059 341.256 361.205 342.147C362.302 343.009 364.045 342.941 365.866 341.893C366.777 341.374 367.747 340.639 368.707 339.718C369.627 338.768 370.518 337.613 371.351 336.31C372.947 333.656 373.829 331.021 373.868 328.896C373.975 326.771 373.329 325.223 372.027 324.616ZM372.095 329.386C372.027 330.238 371.791 331.178 371.41 332.197C371.028 333.205 370.558 334.312 369.882 335.389C369.196 336.457 368.462 337.407 367.737 338.2C367.012 338.994 366.209 339.601 365.514 340.061C364.094 340.982 362.919 341.246 362.292 340.776C361.685 340.326 361.557 339.082 361.92 337.515C362.086 336.721 362.419 335.86 362.811 334.919C363.193 333.969 363.702 332.98 364.348 331.981C364.985 330.982 365.592 330.052 366.268 329.288C366.934 328.514 367.61 327.868 368.207 327.339C369.441 326.301 370.577 325.85 371.272 326.193C371.958 326.516 372.262 327.701 372.095 329.386Z" fill="#E9EEF1"/>
<path d="M349.873 349.434C348.914 349.718 347.925 350.208 346.877 350.815C345.819 351.403 344.742 352.157 343.694 353.068C342.597 353.93 341.657 354.841 340.873 355.771C340.08 356.682 339.414 357.563 338.954 358.445C338.033 360.227 337.769 361.824 338.552 363.019C339.326 364.204 340.981 364.684 343.038 364.282C344.066 364.086 345.231 363.724 346.426 363.136C347.601 362.529 348.826 361.736 350.04 360.776C351.215 359.767 352.224 358.709 353.047 357.671C353.859 356.623 354.427 355.536 354.819 354.566C355.603 352.617 355.456 350.903 354.437 349.924C353.419 348.925 351.803 348.876 349.873 349.434ZM348.943 359.434C344.977 362.656 340.834 363.332 340.011 362.069C339.15 360.766 341.157 357.387 344.8 354.419C348.414 351.403 352.106 350.081 353.223 351.168C354.31 352.216 352.87 356.143 348.943 359.434Z" fill="#E9EEF1"/>
<path d="M325.468 366.251C324.469 366.212 323.362 366.319 322.187 366.584C321.002 366.809 319.729 367.152 318.436 367.661C315.821 368.601 313.686 369.894 312.208 371.207C310.748 372.548 310.004 374.057 310.347 375.418C310.699 376.819 312.08 377.729 314.176 378.053C316.272 378.425 319.024 378.062 321.942 377.005C323.382 376.437 324.694 375.79 325.801 375.065C326.898 374.301 327.799 373.498 328.484 372.705C329.855 371.118 330.257 369.424 329.63 368.18C328.974 366.887 327.466 366.349 325.468 366.251ZM326.761 372C326.173 372.597 325.429 373.254 324.508 373.822C323.588 374.38 322.52 374.919 321.335 375.389C320.16 375.859 318.975 376.094 317.907 376.28C316.84 376.446 315.87 376.515 315.018 376.407C313.334 376.241 312.227 375.712 312.031 374.967C311.835 374.223 312.492 373.195 313.755 372.186C314.391 371.706 315.155 371.148 316.037 370.658C316.918 370.149 317.956 369.737 319.053 369.297C320.15 368.866 321.227 368.552 322.226 368.356C323.225 368.161 324.136 367.994 324.949 367.984C326.565 367.935 327.75 368.298 328.083 368.973C328.416 369.679 327.926 370.776 326.761 372Z" fill="#E9EEF1"/>
<path d="M267.324 372.441C266.56 371.794 265.61 371.255 264.533 370.687C263.455 370.119 262.241 369.649 260.909 369.257C259.587 368.807 258.314 368.523 257.109 368.376C255.914 368.209 254.818 368.131 253.819 368.229C251.831 368.435 250.342 369.081 249.764 370.394C249.196 371.686 249.696 373.332 251.155 374.84C251.88 375.594 252.82 376.378 253.966 377.054C255.121 377.7 256.453 378.297 257.922 378.797C259.411 379.238 260.85 379.492 262.163 379.62C263.485 379.737 264.709 379.61 265.737 379.404C267.804 378.983 269.146 377.955 269.41 376.544C269.684 375.144 268.842 373.733 267.324 372.441ZM267.716 376.192C267.432 377.68 263.348 378.621 258.451 377.132C253.574 375.575 250.753 372.47 251.361 371.089C251.987 369.659 255.905 369.493 260.39 370.922C264.885 372.294 268.009 374.664 267.716 376.192Z" fill="#E9EEF1"/>
<path d="M237.845 358.611C237.003 357.74 236.034 356.858 234.888 356.065C232.665 354.39 230.422 353.303 228.512 352.784C226.583 352.314 224.928 352.49 223.968 353.528C222.989 354.586 222.979 356.261 223.851 358.18C224.693 360.129 226.485 362.245 228.963 364.106C230.226 364.997 231.48 365.751 232.694 366.28C233.928 366.78 235.093 367.103 236.141 367.24C238.227 367.514 239.863 366.936 240.558 365.722C241.283 364.468 240.921 362.901 239.902 361.187C239.403 360.325 238.707 359.454 237.845 358.611ZM239.06 364.85C238.658 365.516 237.464 365.722 235.808 365.399C234.986 365.232 234.036 364.958 233.047 364.507C232.077 364.047 231.039 363.44 230.001 362.705C228.963 361.98 228.12 361.119 227.386 360.325C226.661 359.522 226.083 358.739 225.702 357.975C224.918 356.476 224.761 355.262 225.271 354.684C225.78 354.106 227.014 354.096 228.542 354.605C229.296 354.87 230.167 355.213 231.068 355.683C231.979 356.143 232.89 356.78 233.859 357.465C234.829 358.151 235.671 358.885 236.376 359.62C237.091 360.345 237.718 361.021 238.178 361.696C239.099 363.019 239.452 364.204 239.06 364.85Z" fill="#E9EEF1"/>
<path d="M216.525 338.514C215.976 337.446 215.369 336.271 214.547 335.145C213.714 334.028 212.95 332.97 212.088 332.118C211.227 331.266 210.384 330.541 209.571 329.993C207.916 328.906 206.271 328.553 205.027 329.229C203.774 329.905 203.235 331.472 203.421 333.587C203.499 334.645 203.783 335.83 204.293 337.045C204.802 338.269 205.429 339.601 206.349 340.845C207.26 342.098 208.171 343.235 209.18 344.106C210.179 344.988 211.178 345.673 212.108 346.143C214.018 347.054 215.722 347.064 216.779 346.134C217.857 345.193 218.062 343.558 217.622 341.628C217.436 340.639 217.063 339.591 216.525 338.514ZM215.653 344.802C215.066 345.301 213.832 345.135 212.392 344.273C211.667 343.852 210.874 343.264 210.071 342.539C209.297 341.785 208.524 340.874 207.789 339.846C207.035 338.827 206.506 337.74 206.075 336.751C205.664 335.752 205.35 334.831 205.233 333.989C204.978 332.314 205.233 331.109 205.899 330.727C206.565 330.345 207.73 330.737 209.003 331.717C209.64 332.206 210.374 332.804 211.06 333.548C211.765 334.293 212.421 335.184 213.126 336.134C213.812 337.094 214.36 338.073 214.801 338.994C215.271 339.895 215.614 340.757 215.839 341.54C216.26 343.107 216.241 344.312 215.653 344.802Z" fill="#E9EEF1"/>
<path d="M197.291 259.182C198.671 259.564 200.14 258.839 201.521 257.428C202.236 256.723 202.912 255.842 203.519 254.804C204.107 253.756 204.773 252.619 205.262 251.317C205.742 250.014 206.212 248.79 206.457 247.605C206.585 247.017 206.683 246.439 206.741 245.891C206.82 245.352 206.859 244.833 206.869 244.334C206.878 242.355 206.281 240.788 205.027 240.103C203.774 239.417 202.168 239.828 200.493 241.131C200.072 241.454 199.651 241.836 199.239 242.267C198.848 242.708 198.456 243.207 198.074 243.756C197.33 244.843 196.556 246.097 196.017 247.556C195.469 249.005 194.999 250.386 194.832 251.709C194.646 253.031 194.617 254.235 194.734 255.283C195.009 257.379 195.939 258.809 197.291 259.182ZM196.615 251.591C196.82 250.533 197.163 249.387 197.624 248.202C198.064 247.007 198.681 245.979 199.288 245.078C199.905 244.187 200.513 243.423 201.139 242.855C202.413 241.728 203.558 241.288 204.234 241.64C204.91 241.993 205.223 243.178 205.096 244.784C205.047 245.587 204.93 246.518 204.685 247.507C204.44 248.496 204.068 249.544 203.647 250.651C203.216 251.758 202.697 252.747 202.168 253.618C201.678 254.5 201.139 255.264 200.601 255.871C199.514 257.086 198.485 257.722 197.761 257.507C197.016 257.281 196.487 256.165 196.419 254.48C196.39 253.648 196.439 252.668 196.615 251.591Z" fill="#E9EEF1"/>
<path d="M210.453 231.327C211.628 232.14 213.283 231.954 215.027 231.043C216.838 230.181 218.699 228.545 220.56 226.479C221.02 225.96 221.422 225.411 221.813 224.892C222.215 224.383 222.577 223.864 222.891 223.355C223.537 222.336 223.988 221.298 224.33 220.387C224.987 218.526 224.938 216.851 223.978 215.803C223.018 214.755 221.353 214.608 219.346 215.294C218.327 215.617 217.289 216.224 216.212 216.998C215.673 217.39 215.125 217.821 214.586 218.301C214.057 218.791 213.548 219.339 213.038 219.927C210.972 222.238 209.767 224.775 209.307 226.802C208.906 228.888 209.278 230.514 210.453 231.327ZM214.341 221.053C215.967 219.094 217.896 217.85 219.394 217.135C220.952 216.469 222.195 216.44 222.714 216.988C223.253 217.547 223.136 218.751 222.519 220.24C221.951 221.778 220.756 223.501 219.248 225.323C216.143 228.859 212.725 230.779 211.462 229.897C210.198 229.035 210.972 224.902 214.341 221.053Z" fill="#E9EEF1"/>
<path d="M236.367 210.456C237.326 210.289 238.433 210.044 239.559 209.614C240.127 209.398 240.695 209.143 241.273 208.85C241.861 208.575 242.468 208.272 243.075 207.919C244.28 207.224 245.347 206.45 246.297 205.715C247.237 204.961 248.011 204.148 248.618 203.365C249.852 201.827 250.342 200.241 249.774 198.928C249.206 197.626 247.678 196.94 245.543 196.93C244.485 196.94 243.31 197.165 242.027 197.537C240.744 197.89 239.412 198.497 238.071 199.281C237.405 199.673 236.758 200.064 236.18 200.485C235.603 200.926 235.074 201.377 234.594 201.837C233.634 202.758 232.841 203.649 232.322 204.589C231.264 206.43 231.088 208.095 231.94 209.232C232.792 210.368 234.418 210.75 236.367 210.456ZM234.134 204.991C235.123 203.649 236.709 202.004 238.942 200.779C243.369 198.203 247.57 198.233 248.177 199.643C248.794 201.044 246.258 204.041 242.194 206.411C240.117 207.547 238.198 208.379 236.582 208.654C234.995 208.977 233.801 208.859 233.35 208.223C232.909 207.606 233.184 206.381 234.134 204.991Z" fill="#E9EEF1"/>
<path d="M324.038 203.571C324.528 203.923 325.057 204.266 325.615 204.589C326.173 204.922 326.751 205.275 327.378 205.588C329.875 206.812 332.216 207.625 334.223 207.743C336.182 207.939 337.788 207.488 338.562 206.293C339.345 205.108 339.081 203.453 337.935 201.661C336.74 199.947 334.684 198.047 331.893 196.685C331.197 196.333 330.521 196.01 329.846 195.765C329.16 195.53 328.494 195.324 327.848 195.167C326.555 194.864 325.37 194.687 324.303 194.766C322.177 194.883 320.699 195.647 320.199 196.979C319.7 198.311 320.287 199.888 321.59 201.357C322.246 202.072 323.059 202.865 324.038 203.571ZM321.815 197.616C322.089 196.911 323.264 196.47 324.949 196.499C325.781 196.538 326.751 196.685 327.799 196.96C328.328 197.097 328.876 197.253 329.425 197.469C329.973 197.694 330.531 197.949 331.099 198.243C333.381 199.359 335.085 200.877 336.123 202.19C337.181 203.482 337.485 204.736 337.083 205.363C336.241 206.646 332.353 206.156 328.151 204.041C327.623 203.766 327.123 203.482 326.663 203.189C326.183 202.905 325.732 202.63 325.321 202.336C324.489 201.759 323.784 201.151 323.225 200.554C322.089 199.408 321.531 198.34 321.815 197.616Z" fill="#E9EEF1"/>
<path d="M347.454 218.399C347.719 218.888 348.022 219.388 348.365 219.887C349.041 220.896 349.932 221.846 350.872 222.884C352.831 224.863 354.79 226.371 356.641 227.145C358.443 227.948 360.088 228.056 361.214 227.184C362.331 226.312 362.644 224.647 362.115 222.591C361.547 220.573 360.196 218.134 358.022 215.921C356.974 214.775 355.789 213.903 354.692 213.179C354.134 212.816 353.585 212.503 353.056 212.248C352.508 212.003 351.979 211.807 351.47 211.66C349.433 211.073 347.787 211.298 346.886 212.405C345.985 213.502 346.015 215.186 346.769 217.018C346.945 217.459 347.18 217.929 347.454 218.399ZM348.189 213.531C348.688 212.943 349.913 212.934 351.519 213.502C352.312 213.786 353.164 214.266 354.065 214.863C354.966 215.47 355.916 216.195 356.778 217.135C357.649 218.056 358.404 218.986 358.991 219.897C359.549 220.828 359.971 221.719 360.255 222.512C360.823 224.089 360.744 225.333 360.147 225.823C359.549 226.303 358.364 226.087 356.905 225.372C356.18 225.01 355.397 224.51 354.604 223.874C353.791 223.257 352.939 222.542 352.116 221.68C351.313 220.808 350.569 219.985 349.971 219.153C349.374 218.33 348.914 217.507 348.561 216.783C347.856 215.333 347.689 214.119 348.189 213.531Z" fill="#E9EEF1"/>
<path d="M367.512 246.841C368.08 248.114 368.755 249.241 369.451 250.23C370.107 251.239 370.832 252.081 371.576 252.747C373.074 254.069 374.534 254.735 375.905 254.265C377.227 253.814 378.118 252.316 378.235 250.22C378.304 249.172 378.206 247.967 377.951 246.655C377.667 245.362 377.168 243.981 376.531 242.571C375.18 239.779 373.446 237.605 371.693 236.41C369.97 235.186 368.324 234.882 367.11 235.637C365.915 236.381 365.416 237.968 365.514 239.956C365.661 241.924 366.297 244.334 367.512 246.841ZM368.001 237.135C368.657 236.743 369.823 237.125 371.145 238.183C371.821 238.702 372.477 239.427 373.123 240.289C373.76 241.16 374.445 242.15 374.964 243.315C375.493 244.471 375.885 245.607 376.149 246.645C376.414 247.693 376.482 248.682 376.492 249.525C376.482 251.209 376.071 252.345 375.337 252.61C374.631 252.864 373.525 252.296 372.399 251.141C371.831 250.563 371.282 249.818 370.704 248.976C370.117 248.134 369.568 247.174 369.079 246.087C368.599 245 368.148 243.991 367.864 243.011C367.57 242.032 367.404 241.111 367.286 240.318C367.1 238.731 367.345 237.527 368.001 237.135Z" fill="#E9EEF1"/>
<path d="M711.499 342.206C727.022 342.206 741.232 336.496 752.162 327.074L752.318 327.231L753.073 326.291C764.188 316.33 771.729 302.462 773.492 286.86H773.551L773.521 286.585C773.766 284.352 773.894 282.1 773.894 279.808C773.894 267.271 770.162 255.597 763.777 245.803L763.826 245.773L763.61 245.548C752.436 228.614 733.26 217.41 711.499 217.41C677.094 217.41 649.104 245.401 649.104 279.808C649.104 314.215 677.094 342.206 711.499 342.206ZM663.805 313.862L675.126 307.809L681.834 314.988L672.482 323.764L663.805 313.862ZM707.327 338.406L708.786 323.499L718.59 322.363L721.459 337.319L707.327 338.406ZM752.093 322.804L742.701 313.206L749.39 306.056L759.967 312.902L752.093 322.804ZM769.624 267.32L753.141 270.259L753.259 285.263L770.554 286.615C769.545 295.41 766.617 303.627 762.19 310.836L748.92 302.246L738.637 313.245L750.105 324.969C742.877 331.158 734.151 335.644 724.554 337.799L720.969 319.121L706.103 320.835L704.34 338.808C693.038 337.446 682.706 332.902 674.264 326.095L685.987 315.096L675.733 304.127L661.425 311.776C657.272 305.292 654.334 297.956 652.963 290.082L669.71 288.28L670.484 273.275L652.738 270.827C653.933 262.923 656.694 255.528 660.69 248.966L674.088 258.692L684.381 247.693L672.746 234.765C680.326 228.222 689.571 223.551 699.747 221.494L702.225 238.878L717.218 238.036L718.991 220.798C729.813 222.16 739.734 226.44 747.95 232.835L737.187 245.901L747.412 256.831L761.358 247.419C765.236 253.423 768.086 260.132 769.624 267.32ZM770.27 283.657L756.187 282.56L756.108 272.727L768.909 270.445L770.27 283.657ZM653.061 287.144L653.296 273.902L667.399 275.851L666.899 285.655L653.061 287.144ZM670.905 237.164L680.375 247.683L673.696 254.823L663.021 247.076L670.905 237.164ZM715.965 221.435L714.545 235.274L704.741 235.823L702.734 221.729L715.965 221.435ZM759.301 245.284L747.833 253.021L741.085 245.803L749.772 235.264L759.301 245.284Z" fill="#E9EEF1"/>
<path d="M711.499 391.294C772.395 391.294 821.941 341.746 821.941 280.846C821.941 219.946 772.395 170.398 711.499 170.398C650.603 170.398 601.058 219.946 601.058 280.846C601.058 341.746 650.603 391.294 711.499 391.294ZM628.724 264.97C628.577 266.919 628.313 270.876 628.186 275.734C628 278.035 627.872 280.347 627.872 282.697C627.872 285.851 628.068 288.965 628.411 292.031C628.881 299.21 629.948 306.076 632.152 310.297L620.439 318.828L622.408 327.192L617.168 332.363C608.775 317.055 603.996 299.494 603.996 280.846C603.996 269.945 605.631 259.417 608.667 249.485L613.868 254.04L613.564 261.287L628.724 264.97ZM635.834 310.689C633.582 304.626 632.035 298.221 631.31 291.571C630.977 286.096 631.006 280.396 631.143 275.596C634.747 234.54 669.299 202.219 711.284 202.219C755.648 202.219 791.747 238.32 791.747 282.687C791.747 327.055 755.648 363.156 711.284 363.156C676.918 363.156 647.528 341.491 636.02 311.11L636.099 311.051L635.834 310.689ZM711.499 173.346C770.779 173.346 819.003 221.572 819.003 280.856C819.003 340.14 770.779 388.366 711.499 388.366C671.943 388.366 637.313 366.887 618.647 334.978L618.686 335.017L625.649 328.152L623.749 320.072L633.562 312.922C645.696 344.018 675.949 366.114 711.284 366.114C757.274 366.114 794.685 328.7 794.685 282.707C794.685 236.714 757.274 199.3 711.284 199.3C672.315 199.3 639.507 226.175 630.399 262.365L616.61 259.015L616.874 252.776L609.98 246.733L609.323 247.487C623.387 204.481 663.873 173.346 711.499 173.346Z" fill="#E9EEF1"/>
<path d="M795.919 320.747C795.273 320.444 794.558 320.414 793.814 320.6C793.04 320.777 792.237 321.178 791.434 321.766C789.867 322.961 788.183 324.812 786.753 327.192C785.999 328.357 785.411 329.542 784.97 330.669C784.49 331.766 784.167 332.833 784.01 333.822C783.717 335.801 783.961 337.387 785.107 338.279C786.204 339.141 787.947 339.072 789.769 338.024C790.68 337.505 791.649 336.77 792.609 335.85C793.53 334.9 794.421 333.744 795.253 332.441C796.85 329.787 797.731 327.153 797.77 325.027C797.868 322.912 797.212 321.364 795.919 320.747ZM795.978 325.517C795.91 326.369 795.675 327.309 795.293 328.328C794.911 329.337 794.441 330.443 793.765 331.521C793.079 332.588 792.345 333.538 791.62 334.332C790.885 335.125 790.092 335.732 789.397 336.193C787.977 337.113 786.802 337.378 786.175 336.907C785.568 336.457 785.44 335.213 785.803 333.646C785.969 332.853 786.302 331.991 786.694 331.051C787.076 330.101 787.585 329.111 788.231 328.112C788.868 327.113 789.475 326.183 790.151 325.419C790.817 324.645 791.493 323.999 792.09 323.47C793.324 322.432 794.46 321.981 795.155 322.324C795.851 322.667 796.145 323.832 795.978 325.517Z" fill="#E9EEF1"/>
<path d="M773.766 345.575C772.807 345.859 771.817 346.349 770.769 346.956C769.712 347.544 768.634 348.298 767.587 349.209C766.49 350.071 765.55 350.982 764.766 351.912C763.973 352.823 763.307 353.704 762.846 354.586C761.926 356.368 761.661 357.955 762.445 359.16C763.219 360.345 764.874 360.825 766.93 360.423C767.959 360.227 769.124 359.865 770.319 359.277C771.494 358.67 772.718 357.877 773.933 356.917C775.108 355.908 776.117 354.85 776.939 353.812C777.752 352.764 778.32 351.677 778.712 350.707C779.495 348.758 779.349 347.044 778.33 346.065C777.302 345.056 775.686 345.007 773.766 345.575ZM772.826 355.565C768.86 358.788 764.717 359.463 763.894 358.2C763.042 356.897 765.04 353.518 768.693 350.551C772.307 347.534 775.999 346.212 777.116 347.299C778.203 348.347 776.753 352.284 772.826 355.565Z" fill="#E9EEF1"/>
<path d="M749.351 362.392C748.352 362.353 747.245 362.46 746.07 362.725C744.885 362.95 743.612 363.293 742.319 363.802C739.704 364.742 737.569 366.035 736.091 367.348C734.631 368.689 733.887 370.198 734.23 371.559C734.582 372.96 735.963 373.871 738.059 374.194C740.155 374.566 742.907 374.204 745.825 373.146C747.265 372.578 748.577 371.931 749.684 371.207C750.781 370.443 751.682 369.639 752.367 368.846C753.738 367.26 754.14 365.565 753.513 364.321C752.857 363.028 751.349 362.48 749.351 362.392ZM750.644 368.131C750.056 368.729 749.312 369.385 748.391 369.953C747.471 370.511 746.403 371.05 745.218 371.52C744.043 371.99 742.858 372.225 741.79 372.411C740.723 372.578 739.753 372.646 738.901 372.539C737.217 372.372 736.11 371.843 735.914 371.099C735.718 370.354 736.375 369.326 737.638 368.317C738.275 367.837 739.038 367.279 739.92 366.789C740.801 366.28 741.839 365.869 742.936 365.428C744.033 364.997 745.11 364.684 746.109 364.488C747.108 364.292 748.019 364.125 748.832 364.116C750.448 364.067 751.633 364.429 751.966 365.105C752.309 365.81 751.819 366.917 750.644 368.131Z" fill="#E9EEF1"/>
<path d="M691.207 368.572C690.443 367.926 689.493 367.387 688.416 366.819C687.339 366.251 686.124 365.781 684.792 365.389C683.48 364.938 682.197 364.654 680.992 364.507C679.798 364.341 678.701 364.262 677.702 364.36C675.714 364.566 674.225 365.213 673.647 366.525C673.079 367.818 673.579 369.463 675.038 370.971C675.763 371.726 676.703 372.509 677.849 373.185C679.004 373.831 680.336 374.429 681.805 374.928C683.294 375.369 684.734 375.624 686.046 375.751C687.368 375.869 688.592 375.741 689.62 375.536C691.687 375.114 693.029 374.086 693.293 372.676C693.577 371.275 692.735 369.865 691.207 368.572ZM691.599 372.323C691.315 373.812 687.231 374.752 682.334 373.263C677.457 371.706 674.636 368.601 675.253 367.22C675.88 365.79 679.798 365.624 684.283 367.054C688.768 368.425 691.893 370.795 691.599 372.323Z" fill="#E9EEF1"/>
<path d="M661.738 354.752C660.896 353.881 659.926 352.999 658.781 352.206C656.557 350.531 654.315 349.444 652.405 348.925C650.476 348.455 648.821 348.631 647.861 349.669C646.882 350.727 646.872 352.402 647.743 354.321C648.586 356.27 650.378 358.386 652.856 360.247C654.119 361.138 655.372 361.892 656.587 362.421C657.821 362.921 658.986 363.244 660.034 363.381C662.12 363.655 663.756 363.077 664.451 361.863C665.176 360.609 664.813 359.042 663.795 357.328C663.286 356.457 662.59 355.595 661.738 354.752ZM662.943 360.991C662.541 361.657 661.347 361.863 659.691 361.54C658.869 361.373 657.919 361.099 656.93 360.648C655.96 360.188 654.922 359.581 653.884 358.846C652.846 358.112 652.004 357.26 651.269 356.466C650.544 355.663 649.966 354.88 649.585 354.116C648.801 352.617 648.644 351.403 649.154 350.825C649.663 350.247 650.897 350.237 652.425 350.747C653.179 351.011 654.05 351.354 654.951 351.824C655.862 352.284 656.773 352.921 657.743 353.606C658.712 354.292 659.554 355.027 660.259 355.761C660.974 356.486 661.601 357.162 662.061 357.838C662.992 359.15 663.335 360.345 662.943 360.991Z" fill="#E9EEF1"/>
<path d="M640.408 334.645C639.859 333.578 639.252 332.402 638.43 331.276C637.597 330.159 636.833 329.102 635.971 328.25C635.11 327.397 634.267 326.673 633.454 326.124C631.799 325.037 630.154 324.685 628.91 325.36C627.657 326.036 627.118 327.603 627.304 329.719C627.383 330.776 627.666 331.962 628.176 333.176C628.685 334.4 629.312 335.732 630.232 336.976C631.143 338.23 632.054 339.366 633.063 340.238C634.062 341.119 635.061 341.805 635.991 342.275C637.901 343.186 639.605 343.195 640.662 342.265C641.74 341.325 641.945 339.689 641.505 337.76C641.319 336.78 640.946 335.722 640.408 334.645ZM639.536 340.943C638.949 341.442 637.715 341.276 636.275 340.414C635.55 339.993 634.757 339.405 633.954 338.68C633.18 337.926 632.407 337.015 631.672 335.987C630.918 334.968 630.389 333.881 629.958 332.892C629.547 331.893 629.233 330.972 629.116 330.13C628.861 328.445 629.116 327.251 629.782 326.869C630.448 326.487 631.613 326.878 632.886 327.858C633.523 328.347 634.258 328.945 634.943 329.689C635.648 330.434 636.304 331.325 637.01 332.275C637.695 333.235 638.244 334.214 638.684 335.135C639.154 336.036 639.497 336.898 639.722 337.681C640.143 339.239 640.124 340.453 639.536 340.943Z" fill="#E9EEF1"/>
<path d="M621.183 255.323C622.564 255.705 624.033 254.98 625.414 253.569C626.129 252.864 626.805 251.983 627.412 250.945C628 249.897 628.666 248.761 629.155 247.458C629.635 246.155 630.105 244.931 630.35 243.746C630.477 243.158 630.575 242.58 630.634 242.032C630.712 241.493 630.752 240.974 630.761 240.475C630.771 238.496 630.174 236.929 628.92 236.244C627.676 235.558 626.061 235.969 624.386 237.272C623.965 237.595 623.544 237.977 623.132 238.408C622.741 238.849 622.349 239.348 621.967 239.897C621.223 240.984 620.449 242.238 619.91 243.697C619.362 245.147 618.892 246.528 618.725 247.85C618.539 249.172 618.51 250.377 618.627 251.415C618.892 253.511 619.822 254.941 621.183 255.323ZM620.498 247.732C620.704 246.674 621.046 245.529 621.507 244.343C621.947 243.149 622.564 242.12 623.171 241.219C623.788 240.328 624.396 239.564 625.022 238.996C626.296 237.87 627.441 237.429 628.117 237.781C628.803 238.134 629.106 239.319 628.979 240.925C628.93 241.728 628.813 242.669 628.568 243.648C628.323 244.637 627.951 245.685 627.53 246.792C627.099 247.899 626.58 248.888 626.051 249.76C625.561 250.641 625.022 251.405 624.484 252.012C623.397 253.227 622.368 253.863 621.644 253.648C620.899 253.423 620.371 252.306 620.302 250.621C620.273 249.789 620.331 248.8 620.498 247.732Z" fill="#E9EEF1"/>
<path d="M634.336 227.458C635.501 228.271 637.166 228.085 638.91 227.174C640.721 226.312 642.582 224.677 644.443 222.61C644.903 222.091 645.305 221.543 645.696 221.024C646.098 220.514 646.46 219.995 646.774 219.486C647.42 218.467 647.871 217.429 648.213 216.518C648.87 214.657 648.821 212.983 647.861 211.935C646.901 210.887 645.236 210.74 643.228 211.425C642.21 211.749 641.172 212.356 640.095 213.13C639.556 213.521 639.007 213.952 638.469 214.432C637.94 214.922 637.431 215.47 636.921 216.058C634.855 218.369 633.65 220.906 633.19 222.933C632.789 225.02 633.171 226.655 634.336 227.458ZM638.234 217.194C639.86 215.235 641.789 213.991 643.287 213.276C644.844 212.61 646.088 212.581 646.607 213.13C647.146 213.688 647.028 214.892 646.411 216.381C645.843 217.919 644.649 219.643 643.14 221.464C640.036 225 636.618 226.92 635.354 226.038C634.081 225.167 634.855 221.043 638.234 217.194Z" fill="#E9EEF1"/>
<path d="M660.25 206.597C661.209 206.43 662.316 206.186 663.442 205.755C664.01 205.539 664.578 205.285 665.156 204.991C665.744 204.716 666.351 204.413 666.958 204.06C668.163 203.365 669.23 202.591 670.18 201.857C671.12 201.102 671.894 200.29 672.501 199.506C673.735 197.968 674.225 196.382 673.657 195.069C673.089 193.767 671.561 193.081 669.426 193.071C668.368 193.081 667.193 193.306 665.91 193.679C664.627 194.031 663.295 194.638 661.954 195.422C661.288 195.814 660.641 196.205 660.064 196.627C659.486 197.067 658.957 197.518 658.477 197.978C657.517 198.899 656.724 199.79 656.205 200.73C655.147 202.572 654.971 204.237 655.823 205.373C656.665 206.509 658.301 206.881 660.25 206.597ZM658.017 201.132C659.006 199.79 660.592 198.145 662.825 196.92C667.252 194.345 671.453 194.374 672.061 195.784C672.678 197.185 670.141 200.182 666.077 202.552C664.001 203.688 662.081 204.521 660.465 204.795C658.879 205.118 657.684 205.001 657.233 204.364C656.802 203.737 657.067 202.523 658.017 201.132Z" fill="#E9EEF1"/>
<path d="M747.921 199.702C748.411 200.054 748.94 200.397 749.498 200.72C750.056 201.053 750.634 201.406 751.261 201.719C753.758 202.944 756.099 203.757 758.107 203.874C760.065 204.07 761.671 203.62 762.445 202.425C763.229 201.24 762.964 199.584 761.818 197.792C760.623 196.078 758.567 194.178 755.776 192.817C755.08 192.464 754.405 192.141 753.729 191.896C753.043 191.661 752.377 191.455 751.731 191.299C750.438 190.995 749.253 190.819 748.186 190.897C746.06 191.015 744.582 191.778 744.082 193.11C743.583 194.442 744.17 196.019 745.473 197.488C746.139 198.203 746.942 198.997 747.921 199.702ZM745.698 193.757C745.972 193.052 747.148 192.611 748.832 192.64C749.664 192.68 750.634 192.826 751.682 193.101C752.211 193.238 752.759 193.394 753.308 193.61C753.856 193.835 754.414 194.09 754.982 194.384C757.264 195.5 758.968 197.018 760.006 198.331C761.064 199.624 761.368 200.877 760.966 201.504C760.124 202.787 756.236 202.297 752.035 200.182C751.506 199.908 751.006 199.624 750.546 199.33C750.066 199.046 749.616 198.771 749.204 198.478C748.372 197.9 747.667 197.293 747.099 196.695C745.972 195.539 745.414 194.472 745.698 193.757Z" fill="#E9EEF1"/>
<path d="M771.347 214.54C771.612 215.03 771.915 215.529 772.258 216.029C772.934 217.037 773.825 217.988 774.765 219.026C776.724 221.004 778.683 222.512 780.534 223.286C782.336 224.089 783.981 224.197 785.107 223.325C786.224 222.454 786.537 220.789 786.008 218.732C785.44 216.714 784.089 214.276 781.915 212.062C780.867 210.916 779.682 210.044 778.585 209.32C778.027 208.957 777.488 208.644 776.949 208.389C776.401 208.144 775.872 207.949 775.363 207.802C773.326 207.214 771.68 207.439 770.779 208.546C769.878 209.643 769.908 211.328 770.662 213.159C770.828 213.6 771.063 214.07 771.347 214.54ZM772.082 209.672C772.581 209.085 773.806 209.075 775.412 209.643C776.205 209.927 777.057 210.407 777.958 211.004C778.859 211.612 779.809 212.336 780.671 213.277C781.542 214.197 782.297 215.128 782.884 216.038C783.442 216.969 783.863 217.86 784.147 218.654C784.716 220.23 784.637 221.474 784.04 221.964C783.442 222.444 782.257 222.228 780.798 221.513C780.073 221.151 779.29 220.652 778.497 220.015C777.684 219.398 776.832 218.683 776.009 217.821C775.206 216.949 774.462 216.127 773.864 215.294C773.267 214.471 772.807 213.649 772.454 212.924C771.739 211.465 771.582 210.25 772.082 209.672Z" fill="#E9EEF1"/>
<path d="M791.404 242.972C791.972 244.245 792.648 245.372 793.344 246.361C794 247.37 794.724 248.212 795.469 248.878C796.967 250.2 798.426 250.866 799.797 250.396C801.12 249.946 802.011 248.447 802.128 246.351C802.197 245.303 802.099 244.099 801.844 242.786C801.56 241.493 801.061 240.112 800.424 238.702C799.073 235.911 797.339 233.736 795.586 232.541C793.863 231.317 792.217 231.014 791.003 231.768C789.808 232.512 789.309 234.099 789.407 236.087C789.544 238.056 790.19 240.475 791.404 242.972ZM791.894 233.266C792.55 232.874 793.716 233.256 795.038 234.314C795.714 234.833 796.37 235.558 797.016 236.42C797.653 237.292 798.338 238.281 798.857 239.446C799.386 240.602 799.778 241.728 800.042 242.776C800.307 243.824 800.385 244.813 800.385 245.656C800.375 247.34 799.964 248.476 799.229 248.741C798.524 248.996 797.418 248.428 796.291 247.272C795.723 246.694 795.175 245.95 794.597 245.107C794.009 244.265 793.461 243.305 792.971 242.218C792.491 241.131 792.041 240.122 791.757 239.143C791.463 238.163 791.297 237.243 791.179 236.449C790.983 234.863 791.228 233.658 791.894 233.266Z" fill="#E9EEF1"/>
<path d="M715.162 411.509C788.182 411.509 847.59 352.95 847.59 280.964C847.59 208.987 788.182 150.418 715.162 150.418C642.141 150.418 582.734 208.977 582.734 280.964C582.734 352.95 642.141 411.509 715.162 411.509ZM715.162 151.202C787.761 151.202 846.826 209.418 846.826 280.973C846.826 352.529 787.761 410.745 715.162 410.745C642.563 410.745 583.498 352.529 583.498 280.973C583.498 209.418 642.563 151.202 715.162 151.202Z" fill="#E9EEF1"/>
<path d="M713.36 405.27C782.855 405.27 839.393 349.532 839.393 281.032C839.393 212.532 782.855 156.794 713.36 156.794C643.865 156.794 587.317 212.532 587.317 281.032C587.317 349.532 643.855 405.27 713.36 405.27ZM713.36 157.568C782.434 157.568 838.629 212.953 838.629 281.042C838.629 349.121 782.434 404.516 713.36 404.516C644.286 404.516 588.091 349.131 588.091 281.042C588.091 212.953 644.286 157.568 713.36 157.568Z" fill="#E9EEF1"/>
<path d="M288.566 416.083C361.068 416.083 420.044 357.945 420.044 286.478C420.044 215.01 361.058 156.872 288.566 156.872C216.065 156.872 157.088 215.01 157.088 286.478C157.088 357.935 216.075 416.083 288.566 416.083ZM288.566 157.636C360.637 157.636 419.28 215.431 419.28 286.478C419.28 357.524 360.646 415.319 288.566 415.319C216.486 415.319 157.862 357.514 157.862 286.478C157.862 215.441 216.496 157.636 288.566 157.636Z" fill="#E9EEF1"/>
<path d="M286.784 409.883C355.779 409.883 411.915 354.547 411.915 286.536C411.915 218.526 355.779 163.189 286.784 163.189C217.788 163.189 161.652 218.526 161.652 286.536C161.652 354.547 217.779 409.883 286.784 409.883ZM286.784 163.953C355.358 163.953 411.152 218.947 411.152 286.536C411.152 354.126 355.358 409.12 286.784 409.12C218.209 409.12 162.416 354.126 162.416 286.536C162.416 218.947 218.2 163.953 286.784 163.953Z" fill="#E9EEF1"/>
<path d="M287.979 419.119C362.282 419.119 422.728 359.532 422.728 286.292C422.728 213.051 362.282 153.464 287.979 153.464C213.675 153.464 153.229 213.051 153.229 286.292C153.229 359.532 213.675 419.119 287.979 419.119ZM287.979 154.238C361.851 154.238 421.954 213.482 421.954 286.292C421.954 359.111 361.851 418.346 287.979 418.346C214.106 418.346 154.003 359.101 154.003 286.292C154.003 213.472 214.106 154.238 287.979 154.238Z" fill="#E9EEF1"/>
<path d="M625.453 86.433C614.24 86.433 607.237 94.5817 607.237 105.737C607.237 116.893 614.24 125.1 625.453 125.1C636.608 125.1 643.669 116.902 643.669 105.737C643.669 94.5719 636.608 86.433 625.453 86.433ZM625.453 119.802C616.943 119.802 613.358 113.259 613.358 105.737C613.358 98.2643 616.943 91.7218 625.453 91.7218C633.964 91.7218 637.49 98.2643 637.49 105.737C637.49 113.259 633.964 119.802 625.453 119.802Z" fill="#E9EEF1"/>
<path d="M665.47 113.935C665.47 117.882 662.767 120.419 658.565 120.419C654.824 120.419 653.326 118.137 653.326 114.552V97.7942H647.822V116.119C647.822 122.191 651.71 125.041 656.646 125.041C661.209 125.041 663.961 122.965 665.362 120.889H665.47V124.317H670.915V97.7942H665.47V113.935Z" fill="#E9EEF1"/>
<path d="M683.793 89.4398H678.289V97.7942H674.45V102.26H678.289V117.108C678.289 122.71 680.679 124.689 685.037 124.689C686.486 124.689 687.681 124.532 688.778 124.277V119.811C685.252 120.017 683.793 119.655 683.793 116.648V102.27H688.778V97.804H683.793V89.4398Z" fill="#E9EEF1"/>
<path d="M704.144 101.536C708.816 101.536 710.53 104.807 710.735 107.5H716.18C715.505 101.477 710.99 97.0695 704.085 97.0695C696.192 97.0695 691.06 102.779 691.06 111.085C691.06 119.39 696.202 125.1 704.134 125.1C711.039 125.1 715.759 120.585 716.171 114.464H710.725C710.52 117.422 708.806 120.644 704.134 120.644C698.738 120.644 696.505 116.08 696.505 111.095C696.505 106.109 698.797 101.536 704.144 101.536Z" fill="#E9EEF1"/>
<path d="M731.703 97.0695C723.398 97.0695 718.364 102.828 718.364 111.085C718.364 119.341 723.398 125.1 731.703 125.1C740.008 125.1 745.042 119.341 745.042 111.085C745.042 102.828 740.008 97.0695 731.703 97.0695ZM731.703 120.634C726.513 120.634 723.819 116.53 723.819 111.085C723.819 105.581 726.522 101.536 731.703 101.536C736.894 101.536 739.597 105.581 739.597 111.085C739.587 116.53 736.894 120.634 731.703 120.634Z" fill="#E9EEF1"/>
<path d="M778.105 97.0695C774.001 97.0695 771.406 99.0968 769.438 101.634H769.33C768.243 98.7834 766.01 97.0695 762.269 97.0695C758.273 97.0695 755.785 99.1458 754.385 101.222H754.277V97.7942H748.832V124.317H754.277V108.176C754.277 104.229 756.608 101.692 760.242 101.692C764.032 101.692 764.756 103.974 764.756 107.559V124.326H770.26V108.186C770.26 104.239 772.542 101.702 776.225 101.702C779.966 101.702 780.69 103.984 780.69 107.569V124.336H786.194V106.011C786.194 100.292 783.442 97.0695 778.105 97.0695Z" fill="#E9EEF1"/>
<path d="M802.863 97.0695C794.871 97.0695 789.837 102.466 789.837 111.085C789.837 119.39 794.871 125.1 803.127 125.1C809.924 125.1 813.871 121.261 815.222 116.227H809.777C809.307 117.833 807.495 120.634 802.98 120.634C798.152 120.634 795.302 116.951 795.302 112.485H815.643C815.634 103.034 811.422 97.0695 802.863 97.0695ZM795.283 108.431C795.283 104.327 798.446 101.369 802.863 101.369C807.27 101.369 810.179 104.327 810.179 108.431H795.283Z" fill="#E9EEF1"/>
<path d="M220.648 86.433C209.435 86.433 202.432 94.5817 202.432 105.737C202.432 116.893 209.435 125.1 220.648 125.1C231.803 125.1 238.864 116.902 238.864 105.737C238.864 94.5719 231.803 86.433 220.648 86.433ZM220.648 119.802C212.138 119.802 208.553 113.259 208.553 105.737C208.553 98.2643 212.138 91.7218 220.648 91.7218C229.159 91.7218 232.684 98.2643 232.684 105.737C232.694 113.259 229.159 119.802 220.648 119.802Z" fill="#E9EEF1"/>
<path d="M260.664 113.935C260.664 117.882 257.961 120.419 253.76 120.419C250.019 120.419 248.52 118.137 248.52 114.552V97.7942H243.016V116.119C243.016 122.191 246.904 125.041 251.84 125.041C256.404 125.041 259.156 122.965 260.557 120.889H260.664V124.317H266.109V97.7942H260.664V113.935Z" fill="#E9EEF1"/>
<path d="M278.988 89.4398H273.484V97.7942H269.645V102.26H273.484V117.108C273.484 122.71 275.874 124.689 280.232 124.689C281.681 124.689 282.876 124.532 283.973 124.277V119.811C280.447 120.017 278.988 119.655 278.988 116.648V102.27H283.973V97.804H278.988V89.4398Z" fill="#E9EEF1"/>
<path d="M301.67 97.0695C297.517 97.0695 294.922 99.0381 293.522 100.909H293.414V97.7942H287.91V133.347H293.414V121.153H293.522C294.922 123.122 297.517 125.1 301.67 125.1C308.418 125.1 313.451 119.802 313.451 111.085C313.451 102.358 308.418 97.0695 301.67 97.0695ZM300.632 120.634C296.225 120.634 293.473 116.951 293.473 111.085C293.473 105.169 296.225 101.536 300.632 101.536C305.411 101.536 307.947 105.894 307.947 111.085C307.957 116.276 305.411 120.634 300.632 120.634Z" fill="#E9EEF1"/>
<path d="M334.84 113.935C334.84 117.882 332.137 120.419 327.936 120.419C324.195 120.419 322.696 118.137 322.696 114.552V97.7942H317.192V116.119C317.192 122.191 321.08 125.041 326.016 125.041C330.58 125.041 333.332 122.965 334.733 120.889H334.84V124.317H340.285V97.7942H334.84V113.935Z" fill="#E9EEF1"/>
<path d="M353.164 89.4398H347.66V97.7942H343.821V102.26H347.66V117.108C347.66 122.71 350.05 124.689 354.408 124.689C355.857 124.689 357.052 124.532 358.149 124.277V119.811C354.623 120.017 353.164 119.655 353.164 116.648V102.27H358.149V97.804H353.164V89.4398Z" fill="#E9EEF1"/>
<circle cx="168.5" cy="226.5" r="11.5" fill="#D9D9D9"/>
<circle cx="275.5" cy="153.5" r="11.5" fill="#D9D9D9"/>
<circle cx="409.5" cy="234.5" r="11.5" fill="#D9D9D9"/>
<circle cx="374.5" cy="385.5" r="11.5" fill="#D9D9D9"/>
<circle cx="209.5" cy="402.5" r="11.5" fill="#D9D9D9"/>
</g>
<defs>
<clipPath id="clip0_3422_18458">
<rect width="1006" height="636" fill="white"/>
</clipPath>
</defs>
</svg>
