<svg width="1358" height="340" viewBox="0 0 1358 340" fill="none" xmlns="http://www.w3.org/2000/svg">
<path d="M1279.17 335.96L1277.92 338.19L1241.6 339.15L1239.34 337.38L1279.17 336.16" stroke="#C4D9DC" stroke-width="0.7853" stroke-miterlimit="10"/>
<path d="M1279.17 4.19L1277.92 1.96L1241.6 1L1239.34 2.77L1279.17 3.99" stroke="#C4D9DC" stroke-width="0.7853" stroke-miterlimit="10"/>
<path d="M1280.68 192.17V336.04L1236.96 337.22L1199.72 190.56C1199.72 190.56 1222.62 192.56 1242.83 191.45C1258.36 190.6 1272.29 186.58 1272.99 186.5C1274.61 186.3 1280.68 186.29 1280.68 192.17Z" stroke="#C4D9DC" stroke-width="2" stroke-miterlimit="10"/>
<path d="M1222.99 229.421C1221.98 229.421 1215.3 229.421 1215.3 229.421L1239.39 317.871H1242.83L1218.74 233.271L1222.59 232.871C1222.59 232.871 1231.7 266.061 1231.5 265.251C1231.3 264.441 1222.99 229.421 1222.99 229.421Z" stroke="#C4D9DC" stroke-width="0.7853" stroke-miterlimit="10"/>
<path d="M1244.04 333.32L1244.45 334.96H1238.78L1201.94 192.58H1207.21L1207.81 194.23H1204.37L1240.2 333.32H1244.04Z" stroke="#C4D9DC" stroke-width="0.2" stroke-miterlimit="10"/>
<path d="M1285.37 232.62L1285.17 198.85L1280.71 197.22V232.62H1280.85" stroke="#C4D9DC" stroke-width="0.7853" stroke-miterlimit="10"/>
<path d="M1295.27 236.54L1285.17 232.55" stroke="#C4D9DC" stroke-width="0.7853" stroke-miterlimit="10"/>
<path d="M1280.77 235.79C1282.19 235.67 1283.71 235.61 1285.3 235.61C1290.53 235.61 1295.07 236.31 1297.37 237.35C1298.4 237.81 1298.98 238.34 1298.98 238.9C1298.98 240.72 1292.86 241.62 1285.3 241.62C1283.71 241.62 1282.19 241.41 1280.78 241.29" stroke="#C4D9DC" stroke-width="0.7853" stroke-miterlimit="10"/>
<path d="M1280.56 238.441C1281.96 238.211 1283.48 238.281 1285.35 238.281C1288.59 238.281 1291.4 238.481 1292.83 239.071C1293.47 239.331 1293.83 239.631 1293.83 239.951C1293.83 240.981 1290.03 241.821 1285.35 241.821C1283.67 241.821 1282.1 241.711 1280.78 241.521" stroke="#C4D9DC" stroke-width="0.2" stroke-miterlimit="10"/>
<path d="M1280.57 232.27C1282.12 232.18 1283.79 232.6 1285.54 232.72" stroke="#C4D9DC" stroke-width="0.7853" stroke-miterlimit="10"/>
<path d="M1280.68 147.98V4.10969L1236.96 2.92969L1199.72 149.59C1199.72 149.59 1220.07 146.64 1239.33 147.7C1256.2 148.63 1272.24 153.57 1272.99 153.65C1274.61 153.84 1280.68 153.85 1280.68 147.98Z" stroke="#C4D9DC" stroke-width="2" stroke-miterlimit="10"/>
<path d="M1222.99 110.729C1221.98 110.729 1215.3 110.729 1215.3 110.729L1239.39 22.2793H1242.83L1218.74 106.879L1222.59 107.279C1222.59 107.279 1231.7 74.0893 1231.5 74.8993C1231.29 75.7193 1222.99 110.729 1222.99 110.729Z" stroke="#C4D9DC" stroke-width="0.7853" stroke-miterlimit="10"/>
<path d="M1244.04 6.82969L1244.45 5.17969H1238.78L1202.33 147.08L1207.21 146.56L1207.7 144.41L1204.49 144.48L1240.2 6.82969H1244.04Z" stroke="#C4D9DC" stroke-width="0.2" stroke-miterlimit="10"/>
<path d="M1280.71 143.94V108.54H1280.85" stroke="#C4D9DC" stroke-width="0.7853" stroke-miterlimit="10"/>
<path d="M1285.37 108.54L1285.17 142.31L1280.71 143.94" stroke="#C4D9DC" stroke-width="0.7853" stroke-miterlimit="10"/>
<path d="M1295.27 104.01L1285.17 108.61" stroke="#C4D9DC" stroke-width="0.7853" stroke-miterlimit="10"/>
<path d="M1280.57 108.889C1282.12 108.979 1283.79 108.559 1285.54 108.439" stroke="#C4D9DC" stroke-width="0.7853" stroke-miterlimit="10"/>
<path d="M1117.44 154.16C1117.44 153.86 1120.48 169.74 1120.48 169.74L1106.82 169.64" stroke="#C4D9DC" stroke-width="0.7853" stroke-miterlimit="10"/>
<path d="M1200.64 145.95C1160.63 149.71 1117.43 154.17 1117.43 154.17" stroke="#C4D9DC" stroke-width="2" stroke-miterlimit="10"/>
<path d="M1337.71 171.14C1338.16 163.24 1338.75 153.35 1338.75 153.35C1338.75 153.35 1313.09 145.66 1285.27 142.5" stroke="#C4D9DC" stroke-width="2" stroke-miterlimit="10"/>
<path d="M1117.45 187.55C1117.45 187.85 1120.18 171.96 1120.18 171.96L1106.52 171.86" stroke="#C4D9DC" stroke-width="0.7853" stroke-miterlimit="10"/>
<path d="M1201.33 195.89C1160.96 192.11 1117.44 187.55 1117.44 187.55" stroke="#C4D9DC" stroke-width="2" stroke-miterlimit="10"/>
<path d="M1337.72 170.57C1338.17 178.47 1338.76 188.36 1338.76 188.36C1338.76 188.36 1313.04 195.86 1285.19 199.02" stroke="#C4D9DC" stroke-width="2" stroke-miterlimit="10"/>
<path d="M1331.68 151.4C1331.68 151.4 1326.42 164.89 1331.68 190.27" stroke="#C4D9DC" stroke-width="0.7853" stroke-miterlimit="10"/>
<path d="M1341.04 163.61C1340.64 160.4 1339.92 157.06 1338.76 153.7" stroke="#C4D9DC" stroke-width="0.7853" stroke-miterlimit="10"/>
<path d="M1338.76 188.26C1338.76 188.26 1340.44 183.55 1341.15 176.53" stroke="#C4D9DC" stroke-width="0.7853" stroke-miterlimit="10"/>
<path d="M1338.34 164.03C1346.5 162.86 1357.2 165.55 1357.14 169.19C1357.08 172.66 1351.78 176.4 1340.65 176.52" stroke="#C4D9DC" stroke-width="0.7853" stroke-miterlimit="10"/>
<path d="M1341.15 176.52C1340.37 176.53 1339.17 176.52 1338.35 176.5" stroke="#C4D9DC" stroke-width="0.7853" stroke-miterlimit="10"/>
<path d="M1272.88 3.79004L1270.55 153.51" stroke="#C4D9DC" stroke-width="0.2" stroke-miterlimit="10"/>
<path d="M1269.99 186.96L1271.71 335.96" stroke="#C4D9DC" stroke-width="0.2" stroke-miterlimit="10"/>
<path d="M1279.1 64.3801C1278.18 64.3801 1277.43 63.6301 1277.43 62.7101V50.0401C1277.43 49.1201 1278.18 48.3701 1279.1 48.3701C1280.02 48.3701 1280.77 49.1201 1280.77 50.0401V62.7101C1280.77 63.6301 1280.02 64.3801 1279.1 64.3801Z" stroke="#C4D9DC" stroke-width="0.7853" stroke-miterlimit="10"/>
<path d="M1279.17 296.73C1278.25 296.73 1277.5 295.98 1277.5 295.06V282.39C1277.5 281.47 1278.25 280.72 1279.17 280.72C1280.09 280.72 1280.84 281.47 1280.84 282.39V295.06C1280.84 295.98 1280.09 296.73 1279.17 296.73Z" stroke="#C4D9DC" stroke-width="0.7853" stroke-miterlimit="10"/>
<path d="M1279.52 293.84C1278.88 293.84 1278.36 293.32 1278.36 292.68V283.9C1278.36 283.26 1278.88 282.74 1279.52 282.74C1280.16 282.74 1280.68 283.26 1280.68 283.9V292.68C1280.68 293.32 1280.16 293.84 1279.52 293.84Z" stroke="#C4D9DC" stroke-width="0.2" stroke-miterlimit="10"/>
<path d="M1279.58 61.9201C1278.94 61.9201 1278.42 61.4001 1278.42 60.7601V51.9901C1278.42 51.3501 1278.94 50.8301 1279.58 50.8301C1280.22 50.8301 1280.74 51.3501 1280.74 51.9901V60.7701C1280.73 61.4001 1280.21 61.9201 1279.58 61.9201Z" stroke="#C4D9DC" stroke-width="0.2" stroke-miterlimit="10"/>
<path d="M1280.82 104.81C1282.24 104.93 1283.76 104.99 1285.35 104.99C1290.58 104.99 1295.12 104.29 1297.42 103.25C1298.45 102.79 1299.03 102.26 1299.03 101.7C1299.03 99.8805 1292.91 98.9805 1285.35 98.9805C1283.76 98.9805 1282.24 99.1905 1280.83 99.3105" stroke="#C4D9DC" stroke-width="0.7853" stroke-miterlimit="10"/>
<path d="M1280.61 102.16C1282.01 102.39 1283.53 102.32 1285.4 102.32C1288.64 102.32 1291.45 102.12 1292.88 101.53C1293.52 101.27 1293.88 100.97 1293.88 100.65C1293.88 99.6203 1290.08 98.7803 1285.4 98.7803C1283.72 98.7803 1282.15 98.8903 1280.83 99.0803" stroke="#C4D9DC" stroke-width="0.2" stroke-miterlimit="10"/>
<path d="M1344.75 163.85C1344.1 163.85 1343.58 166.67 1343.58 170.15C1343.58 173.63 1344.11 176.45 1344.75 176.45" stroke="#C4D9DC" stroke-width="0.7853" stroke-miterlimit="10"/>
<path d="M1346.25 163.88C1345.6 163.88 1345.08 166.56 1345.08 169.86C1345.08 173.16 1345.61 175.84 1346.25 175.84" stroke="#C4D9DC" stroke-width="0.7853" stroke-miterlimit="10"/>
<path d="M1286.44 142.83C1286.44 142.83 1277.47 162.31 1286.44 198.96" stroke="#C4D9DC" stroke-width="0.7853" stroke-miterlimit="10"/>
<path d="M1270.56 153.51C1269.2 160.55 1268.21 171.68 1270.36 186.66" stroke="#C4D9DC" stroke-width="0.2" stroke-miterlimit="10"/>
<path d="M1265.99 169.15C1265.99 173.75 1248.52 184.79 1226.98 184.79C1205.43 184.79 1220.35 176.01 1220.35 167.37C1220.35 158.73 1205.43 153.51 1226.98 153.51C1248.53 153.51 1265.99 163.76 1265.99 169.15Z" stroke="#C4D9DC" stroke-width="0.7853" stroke-miterlimit="10"/>
<path d="M1262.71 169.15C1262.71 173.73 1244.9 184.75 1222.92 184.75C1200.94 184.75 1216.16 175.99 1216.16 167.37C1216.16 158.75 1200.95 153.54 1222.92 153.54C1244.9 153.55 1262.71 163.77 1262.71 169.15Z" stroke="#C4D9DC" stroke-width="0.2" stroke-miterlimit="10"/>
<path d="M1120.47 169.74C1120.47 169.74 1198.8 169.68 1197.88 169.74C1196.97 169.8 1120.47 171.96 1120.47 171.96" stroke="#C4D9DC" stroke-width="0.7853" stroke-miterlimit="10"/>
<path d="M1329.71 161.31L1283.04 156.82" stroke="#C4D9DC" stroke-width="0.2" stroke-miterlimit="10"/>
<path d="M1329.71 174.26L1283.04 178.75" stroke="#C4D9DC" stroke-width="0.2" stroke-miterlimit="10"/>
<path d="M1221.87 191.98L1252.53 336.36" stroke="#C4D9DC" stroke-width="0.2" stroke-miterlimit="10"/>
<path d="M1222.2 147.55L1252.86 3.16992" stroke="#C4D9DC" stroke-width="0.2" stroke-miterlimit="10"/>
<path d="M1095.27 169.15H1057.63V171.96H1095.27V169.15Z" stroke="#C4D9DC" stroke-width="2" stroke-miterlimit="10"/>
<path d="M1106.81 169.64L1106.82 171.86" stroke="#C4D9DC" stroke-width="0.7853" stroke-miterlimit="10"/>
<path d="M1106.81 169.64L1095.28 169.15" stroke="#C4D9DC" stroke-width="0.7853" stroke-miterlimit="10"/>
<path d="M1106.91 171.81L1095.38 171.92" stroke="#C4D9DC" stroke-width="0.7853" stroke-miterlimit="10"/>
<path d="M1112.48 129.2L1120.36 169.15" stroke="#C4D9DC" stroke-width="0.7853" stroke-miterlimit="10"/>
<path d="M1112.61 129.86L1095.75 130.17" stroke="#C4D9DC" stroke-width="2" stroke-miterlimit="10"/>
<path d="M1076.45 169.15L1096.58 129.8" stroke="#C4D9DC" stroke-width="2" stroke-miterlimit="10"/>
<path d="M1112.48 211.92L1120.36 171.97" stroke="#C4D9DC" stroke-width="0.7853" stroke-miterlimit="10"/>
<path d="M1112.68 211.92L1096.37 211.31" stroke="#C4D9DC" stroke-width="2" stroke-miterlimit="10"/>
<path d="M1076.45 171.97L1096.58 211.31" stroke="#C4D9DC" stroke-width="2" stroke-miterlimit="10"/>
<path d="M1346.7 175.7C1346.49 178.19 1346.36 181.82 1346.36 185.85C1346.36 193.36 1346.82 199.44 1347.39 199.44C1347.5 199.44 1347.61 199.19 1347.72 198.73" stroke="#C4D9DC" stroke-width="0.7853" stroke-miterlimit="10"/>
<path d="M1347.34 175.69C1347.13 178.18 1347 181.81 1347 185.84C1347 193.35 1347.46 199.43 1348.03 199.43C1348.6 199.43 1349.06 193.34 1349.06 185.84C1349.06 181.69 1348.92 177.98 1348.7 175.48" stroke="#C4D9DC" stroke-width="0.7853" stroke-miterlimit="10"/>
<path d="M1344.12 163.62C1343.91 161.13 1343.78 157.5 1343.78 153.47C1343.78 145.96 1344.24 139.88 1344.81 139.88C1344.92 139.88 1345.03 140.13 1345.14 140.59" stroke="#C4D9DC" stroke-width="0.7853" stroke-miterlimit="10"/>
<path d="M1344.77 163.62C1344.56 161.13 1344.43 157.5 1344.43 153.47C1344.43 145.96 1344.89 139.88 1345.46 139.88C1346.03 139.88 1346.49 145.97 1346.49 153.47C1346.49 157.62 1346.35 161.33 1346.13 163.83" stroke="#C4D9DC" stroke-width="0.7853" stroke-miterlimit="10"/>
<path d="M1101.15 129.5L1081.31 169.15" stroke="#C4D9DC" stroke-width="0.2" stroke-miterlimit="10"/>
<path d="M1101.15 211.77L1081.31 172.12" stroke="#C4D9DC" stroke-width="0.2" stroke-miterlimit="10"/>
<path d="M1199.72 192.58L1117.95 184.8" stroke="#C4D9DC" stroke-width="0.2" stroke-miterlimit="10"/>
<path d="M1199.54 148.4L1117.77 156.19" stroke="#C4D9DC" stroke-width="0.2" stroke-miterlimit="10"/>
<path d="M939 147.198C939 147.198 748.635 109.865 679.153 113.386C604.197 117.187 492.784 137.659 428.13 143.385C335.495 151.597 85.0116 147.701 2 101.59L5.81137 212.681C5.81137 212.681 219.572 252.544 382.502 244.524C545.432 236.503 630.546 207.915 668.99 205.881C762.972 200.904 939 234.189 939 234.189V147.198Z" stroke="#C4D9DC" stroke-width="2" stroke-miterlimit="10"/>
<path d="M38.8398 116.59L39.8398 151.92" stroke="#C4D9DC" stroke-width="0.7853" stroke-miterlimit="10"/>
<path d="M16 105.59L17.5 151.92" stroke="#C4D9DC" stroke-width="0.7853" stroke-miterlimit="10"/>
<path d="M26.3008 110.71L29.1708 163.26" stroke="#C4D9DC" stroke-width="0.7853" stroke-miterlimit="10"/>
<path d="M907 209.71L908.56 228.81" stroke="#C4D9DC" stroke-width="0.7853" stroke-miterlimit="10"/>
<path d="M913.57 200.59L915.11 227.45" stroke="#C4D9DC" stroke-width="0.7853" stroke-miterlimit="10"/>
<path d="M920.27 205.21L921.87 231.08" stroke="#C4D9DC" stroke-width="0.7853" stroke-miterlimit="10"/>
<path d="M801.689 124.97L802.599 140.66" stroke="#C4D9DC" stroke-width="0.7853" stroke-miterlimit="10"/>
<path d="M909 164.42L909.27 142.59" stroke="#C4D9DC" stroke-width="0.7853" stroke-miterlimit="10"/>
<path d="M916.949 159.06L917.569 144.78" stroke="#C4D9DC" stroke-width="0.7853" stroke-miterlimit="10"/>
<path d="M924.859 155.63L925.009 146.28" stroke="#C4D9DC" stroke-width="0.7853" stroke-miterlimit="10"/>
<path d="M794 123.59L795.12 136.03" stroke="#C4D9DC" stroke-width="0.7853" stroke-miterlimit="10"/>
<path d="M562.649 223.84L562.369 213.45" stroke="#C4D9DC" stroke-width="0.7853" stroke-miterlimit="10"/>
<path d="M555.599 224.76L555.029 204.38" stroke="#C4D9DC" stroke-width="0.7853" stroke-miterlimit="10"/>
<path d="M547.77 224.23L547.48 199.59" stroke="#C4D9DC" stroke-width="0.7853" stroke-miterlimit="10"/>
<path d="M539.58 224.52L539 204.14" stroke="#C4D9DC" stroke-width="0.7853" stroke-miterlimit="10"/>
<path d="M97 195.59L97.13 225.5" stroke="#C4D9DC" stroke-width="0.7853" stroke-miterlimit="10"/>
<path d="M105.689 204.45L105.719 227.34" stroke="#C4D9DC" stroke-width="0.7853" stroke-miterlimit="10"/>
<path d="M113.42 210.43L113.16 227.53" stroke="#C4D9DC" stroke-width="0.7853" stroke-miterlimit="10"/>
<path d="M366.67 227.92C364.67 227.25 307.34 229.91 262 224.59" stroke="#C4D9DC" stroke-width="0.7853" stroke-miterlimit="10"/>
<path d="M751.67 128.285C749.67 128.585 699 119.685 617 132.685" stroke="#C4D9DC" stroke-width="0.7853" stroke-miterlimit="10"/>
<path d="M45.5405 166.466L38 166.167L38.1087 163.483L56.172 164.203L56.0633 166.887L48.5228 166.588L47.6736 187.817L44.6914 187.701L45.5405 166.466Z" fill="#C4D9DC"/>
<path d="M63.6987 188.421C62.8563 187.823 62.2449 187.028 61.8645 186.036C61.4841 185.044 61.3482 183.896 61.4637 182.592L62.4691 171.444L65.3427 171.702L64.3848 182.341C64.2557 183.74 64.4935 184.841 65.0777 185.642C65.6619 186.444 66.6198 186.906 67.9445 187.021C68.848 187.103 69.6496 186.974 70.3629 186.634C71.0694 186.294 71.64 185.771 72.0748 185.072C72.5096 184.372 72.7677 183.536 72.856 182.572L73.7663 172.463L76.6399 172.721L75.0978 189.902L72.2242 189.643L72.4416 187.198L72.3737 187.191C71.837 187.952 71.1101 188.557 70.1863 188.998C69.2624 189.44 68.1483 189.603 66.8372 189.487C65.5872 189.372 64.5411 189.019 63.6987 188.421Z" fill="#C4D9DC"/>
<path d="M83.9503 173.49L86.8171 173.803L86.5046 176.703L86.5725 176.71C86.9666 175.752 87.544 175.019 88.3116 174.509C89.0793 174 89.942 173.803 90.9134 173.905C91.1648 173.932 91.3958 173.973 91.5928 174.02C91.7898 174.068 91.946 174.108 92.0547 174.142L91.7558 176.928C91.6471 176.873 91.4569 176.812 91.1852 176.751C90.9134 176.69 90.5942 176.636 90.2409 176.602C89.5072 176.52 88.8415 176.615 88.2505 176.887C87.6595 177.159 87.1771 177.587 86.8103 178.178C86.4435 178.769 86.2125 179.495 86.1174 180.365L84.9761 190.949L82.1094 190.636L83.9503 173.49Z" fill="#C4D9DC"/>
<path d="M97.836 175.011L100.703 175.35L100.417 177.789L100.485 177.796C101.042 177.049 101.79 176.465 102.727 176.05C103.665 175.629 104.786 175.5 106.083 175.649C107.958 175.873 109.351 176.607 110.254 177.871C111.158 179.127 111.497 180.737 111.266 182.687L109.962 193.808L107.095 193.468L108.345 182.864C108.508 181.471 108.304 180.364 107.741 179.542C107.177 178.727 106.233 178.238 104.915 178.081C104.011 177.973 103.203 178.081 102.489 178.407C101.769 178.727 101.185 179.229 100.737 179.915C100.282 180.595 100.003 181.424 99.8876 182.402L98.6988 192.483L95.832 192.143L97.836 175.011Z" fill="#C4D9DC"/>
<path d="M139.79 180.086L142.656 180.439L140.55 197.558L137.684 197.205L139.79 180.086ZM140.374 176.682C140.068 176.288 139.939 175.847 140 175.351C140.061 174.848 140.292 174.44 140.686 174.141C141.08 173.836 141.522 173.72 142.018 173.781C142.52 173.843 142.928 174.067 143.227 174.461C143.533 174.848 143.648 175.296 143.587 175.799C143.526 176.295 143.302 176.696 142.914 177.001C142.527 177.307 142.079 177.436 141.576 177.368C141.087 177.3 140.679 177.076 140.374 176.682Z" fill="#C4D9DC"/>
<path d="M150.53 198.007C149.525 197.144 148.805 196.01 148.363 194.604C147.922 193.198 147.813 191.594 148.03 189.794V189.781C148.248 187.98 148.744 186.452 149.511 185.202C150.279 183.945 151.257 183.021 152.432 182.423C153.608 181.826 154.912 181.615 156.338 181.785C157.548 181.934 158.594 182.349 159.477 183.035C160.36 183.721 161.012 184.591 161.433 185.643L161.501 185.65L162.656 176.146L165.523 176.493L162.636 200.249L159.769 199.903L160.122 197.002L160.054 196.995C159.395 197.932 158.567 198.625 157.568 199.094C156.569 199.563 155.455 199.712 154.226 199.563C152.765 199.386 151.529 198.87 150.53 198.007ZM157.751 196.621C158.56 196.187 159.239 195.514 159.776 194.611C160.313 193.707 160.659 192.62 160.815 191.343V191.329C160.971 190.059 160.89 188.918 160.577 187.919C160.265 186.921 159.769 186.105 159.09 185.494C158.41 184.876 157.588 184.509 156.624 184.394C155.612 184.271 154.708 184.421 153.913 184.849C153.118 185.277 152.46 185.936 151.95 186.832C151.441 187.729 151.108 188.83 150.945 190.134V190.147C150.788 191.452 150.85 192.607 151.128 193.612C151.407 194.617 151.882 195.419 152.555 196.017C153.227 196.615 154.07 196.975 155.082 197.097C156.053 197.212 156.943 197.056 157.751 196.621Z" fill="#C4D9DC"/>
<path d="M172.758 200.683C171.664 199.82 170.876 198.692 170.394 197.293C169.918 195.894 169.782 194.304 169.986 192.511V192.497C170.19 190.731 170.693 189.209 171.481 187.939C172.276 186.668 173.288 185.724 174.531 185.106C175.774 184.488 177.174 184.27 178.729 184.447C180.292 184.63 181.589 185.147 182.635 185.996C183.675 186.845 184.429 187.952 184.877 189.318C185.332 190.683 185.461 192.225 185.257 193.937L185.135 194.99L171.331 193.387L171.589 191.145L183.98 192.585L182.289 194.494L182.418 193.394C182.574 192.062 182.499 190.941 182.201 190.031C181.902 189.121 181.426 188.407 180.767 187.905C180.115 187.402 179.334 187.096 178.417 186.988C177.506 186.879 176.664 187.008 175.883 187.368C175.108 187.728 174.456 188.319 173.94 189.148C173.424 189.97 173.091 191.023 172.941 192.293L172.812 193.394C172.67 194.603 172.758 195.656 173.07 196.559C173.383 197.463 173.892 198.19 174.599 198.733C175.305 199.277 176.175 199.61 177.207 199.725C177.934 199.807 178.593 199.773 179.191 199.623C179.789 199.467 180.298 199.222 180.726 198.883C181.154 198.543 181.48 198.135 181.705 197.66L181.773 197.517L184.592 197.843L184.537 198.006C184.313 198.692 183.967 199.317 183.491 199.888C183.016 200.459 182.445 200.941 181.766 201.335C181.086 201.729 180.332 202.008 179.497 202.171C178.668 202.334 177.785 202.368 176.847 202.259C175.217 202.069 173.852 201.546 172.758 200.683Z" fill="#C4D9DC"/>
<path d="M192.499 203.38C191.691 202.857 191.086 202.185 190.692 201.349C190.298 200.514 190.156 199.583 190.271 198.55V198.516C190.427 197.056 191.1 195.942 192.282 195.188C193.464 194.434 195.047 194.101 197.024 194.203L203.409 194.522L203.172 196.75L197.112 196.465C195.964 196.411 195.047 196.587 194.361 197.002C193.675 197.416 193.294 198.027 193.206 198.829L193.199 198.863C193.111 199.685 193.349 200.378 193.919 200.928C194.49 201.478 195.291 201.811 196.324 201.92C197.228 202.015 198.056 201.913 198.817 201.614C199.578 201.315 200.203 200.853 200.699 200.242C201.195 199.631 201.487 198.91 201.575 198.082L202.119 193.021C202.234 191.975 201.99 191.119 201.405 190.446C200.814 189.78 199.924 189.38 198.722 189.25C197.622 189.135 196.711 189.278 195.984 189.678C195.258 190.086 194.768 190.663 194.524 191.417L194.476 191.56L191.705 191.261L191.739 191.085C191.929 190.147 192.343 189.325 192.982 188.619C193.62 187.912 194.449 187.382 195.482 187.029C196.507 186.676 197.696 186.574 199.035 186.717C200.386 186.859 201.528 187.219 202.465 187.79C203.396 188.354 204.089 189.094 204.537 189.991C204.985 190.888 205.148 191.913 205.026 193.055L203.749 204.909L200.882 204.596L201.181 201.811L201.113 201.804C200.719 202.395 200.217 202.898 199.619 203.306C199.021 203.713 198.362 204.012 197.649 204.196C196.935 204.379 196.188 204.427 195.421 204.345C194.279 204.223 193.308 203.904 192.499 203.38Z" fill="#C4D9DC"/>
<path d="M213.355 205.568C212.417 205.045 211.704 204.372 211.208 203.543C210.719 202.721 210.461 201.791 210.434 200.751V200.602L213.307 200.88L213.321 201.05C213.416 201.926 213.762 202.633 214.367 203.176C214.972 203.72 215.855 204.046 217.023 204.155C217.804 204.229 218.477 204.195 219.047 204.039C219.618 203.89 220.066 203.638 220.406 203.285C220.739 202.932 220.929 202.497 220.984 201.981V201.967C221.045 201.349 220.902 200.84 220.569 200.425C220.229 200.018 219.584 199.644 218.626 199.304L215.963 198.38C214.38 197.837 213.232 197.144 212.519 196.288C211.799 195.439 211.5 194.393 211.622 193.163V193.15C211.718 192.158 212.071 191.309 212.675 190.602C213.28 189.896 214.082 189.373 215.073 189.033C216.065 188.693 217.179 188.584 218.416 188.707C219.672 188.829 220.739 189.155 221.629 189.692C222.519 190.228 223.191 190.901 223.647 191.716C224.108 192.531 224.326 193.421 224.299 194.386L224.292 194.603L221.554 194.338L221.547 194.223C221.52 193.374 221.215 192.667 220.644 192.103C220.073 191.54 219.251 191.2 218.185 191.098C217.492 191.03 216.88 191.078 216.357 191.241C215.834 191.404 215.413 191.655 215.107 192.008C214.802 192.362 214.625 192.79 214.577 193.299V193.313C214.523 193.897 214.679 194.413 215.06 194.861C215.44 195.31 216.092 195.697 217.016 196.016L219.679 196.94C221.378 197.524 222.546 198.217 223.178 199.019C223.81 199.821 224.068 200.833 223.952 202.049V202.062C223.857 203.061 223.483 203.924 222.831 204.637C222.179 205.35 221.33 205.88 220.277 206.213C219.231 206.553 218.062 206.655 216.792 206.532C215.433 206.417 214.299 206.091 213.355 205.568Z" fill="#C4D9DC"/>
<path d="M252.429 208.373C251.695 207.571 251.383 206.349 251.491 204.705L252.178 194.263L249.664 194.1L249.82 191.716L252.334 191.879L252.64 187.226L255.622 187.423L255.316 192.076L258.59 192.293L258.434 194.678L255.16 194.46L254.474 204.888C254.413 205.805 254.569 206.437 254.949 206.79C255.323 207.143 255.9 207.34 256.675 207.395C256.851 207.408 257.021 207.408 257.184 207.402C257.347 207.395 257.49 207.388 257.612 207.388L257.456 209.718C257.279 209.732 257.048 209.738 256.763 209.745C256.478 209.752 256.192 209.752 255.907 209.732C254.317 209.63 253.163 209.175 252.429 208.373Z" fill="#C4D9DC"/>
<path d="M265.024 185.996L267.904 186.125L267.483 195.554L267.551 195.561C268.06 194.61 268.78 193.883 269.725 193.38C270.669 192.878 271.776 192.66 273.06 192.715C274.283 192.769 275.349 193.115 276.246 193.747C277.143 194.379 277.829 195.228 278.298 196.301C278.766 197.375 278.977 198.604 278.916 199.997L278.44 210.554L275.56 210.425L276.008 200.371C276.076 198.815 275.757 197.579 275.044 196.675C274.33 195.772 273.305 195.282 271.953 195.228C271.07 195.187 270.282 195.364 269.595 195.751C268.909 196.145 268.366 196.695 267.958 197.422C267.557 198.149 267.333 198.998 267.286 199.983L266.837 210.037L263.957 209.908L265.024 185.996Z" fill="#C4D9DC"/>
<path d="M287.606 210.466C286.75 210.024 286.085 209.413 285.609 208.618C285.134 207.83 284.909 206.913 284.916 205.873V205.839C284.93 204.372 285.494 203.204 286.594 202.334C287.701 201.465 289.243 200.989 291.22 200.901L297.606 200.609L297.579 202.844L291.519 203.143C290.371 203.197 289.474 203.462 288.829 203.944C288.191 204.427 287.864 205.065 287.851 205.873V205.907C287.844 206.736 288.15 207.395 288.768 207.891C289.386 208.387 290.215 208.638 291.254 208.645C292.158 208.652 292.98 208.475 293.707 208.102C294.434 207.728 295.018 207.212 295.446 206.553C295.88 205.894 296.098 205.153 296.111 204.325L296.166 199.23C296.179 198.177 295.86 197.348 295.208 196.737C294.556 196.125 293.625 195.813 292.423 195.799C291.315 195.785 290.419 196.016 289.739 196.492C289.053 196.967 288.625 197.586 288.449 198.36L288.415 198.51L285.629 198.482L285.65 198.299C285.752 197.348 286.085 196.492 286.648 195.724C287.212 194.957 287.994 194.352 288.985 193.904C289.977 193.455 291.146 193.238 292.491 193.252C293.849 193.265 295.025 193.51 296.01 193.985C296.995 194.461 297.755 195.127 298.285 195.976C298.815 196.825 299.08 197.83 299.067 198.978L298.937 210.9L296.05 210.867L296.084 208.061H296.016C295.677 208.686 295.228 209.229 294.671 209.698C294.114 210.16 293.489 210.52 292.796 210.771C292.103 211.023 291.37 211.145 290.595 211.138C289.468 211.131 288.469 210.907 287.606 210.466Z" fill="#C4D9DC"/>
<path d="M308.603 209.935C307.794 209.209 307.373 208.02 307.326 206.369L307.034 195.907L304.513 195.975L304.445 193.591L306.966 193.523L306.837 188.863L309.819 188.781L309.948 193.441L313.229 193.353L313.297 195.738L310.016 195.826L310.301 206.267C310.328 207.184 310.546 207.802 310.946 208.115C311.354 208.427 311.945 208.577 312.72 208.556C312.896 208.55 313.066 208.536 313.222 208.516C313.385 208.495 313.521 208.475 313.643 208.461L313.705 210.798C313.528 210.825 313.297 210.859 313.018 210.893C312.74 210.927 312.455 210.948 312.169 210.961C310.6 211.009 309.411 210.669 308.603 209.935Z" fill="#C4D9DC"/>
<path d="M339.865 188.387C339.485 188.061 339.281 187.647 339.247 187.151C339.213 186.641 339.356 186.207 339.689 185.833C340.015 185.459 340.429 185.256 340.925 185.222C341.435 185.188 341.869 185.33 342.243 185.65C342.617 185.976 342.82 186.39 342.854 186.893C342.888 187.389 342.746 187.824 342.42 188.204C342.093 188.584 341.679 188.788 341.176 188.822C340.68 188.863 340.246 188.713 339.865 188.387ZM339.947 191.838L342.827 191.635L344.03 208.842L341.149 209.046L339.947 191.838Z" fill="#C4D9DC"/>
<path d="M349.893 191.131L352.766 190.9L352.963 193.346L353.031 193.339C353.432 192.497 354.05 191.776 354.886 191.185C355.721 190.588 356.794 190.241 358.092 190.133C359.974 189.976 361.489 190.431 362.623 191.484C363.758 192.537 364.403 194.052 364.566 196.009L365.476 207.17L362.603 207.401L361.74 196.756C361.625 195.357 361.21 194.31 360.497 193.617C359.784 192.925 358.758 192.639 357.44 192.741C356.536 192.816 355.762 193.081 355.123 193.536C354.485 193.991 354.009 194.602 353.697 195.357C353.384 196.117 353.269 196.98 353.35 197.965L354.172 208.08L351.299 208.311L349.893 191.131Z" fill="#C4D9DC"/>
<path d="M375.021 205.996C374.002 205.656 373.173 205.126 372.535 204.413C371.896 203.693 371.468 202.83 371.251 201.818L371.224 201.668L374.097 201.404L374.145 201.567C374.403 202.409 374.878 203.041 375.571 203.462C376.264 203.883 377.195 204.032 378.363 203.931C379.144 203.856 379.803 203.693 380.333 203.441C380.863 203.19 381.264 202.857 381.522 202.45C381.787 202.042 381.889 201.58 381.841 201.064V201.05C381.787 200.432 381.549 199.957 381.142 199.617C380.734 199.277 380.028 199.033 379.022 198.883L376.237 198.476C374.586 198.245 373.323 197.769 372.46 197.069C371.597 196.37 371.108 195.398 370.993 194.169V194.155C370.897 193.163 371.088 192.267 371.55 191.458C372.012 190.65 372.698 189.984 373.615 189.468C374.525 188.951 375.598 188.632 376.835 188.517C378.092 188.401 379.206 188.523 380.177 188.884C381.148 189.244 381.937 189.78 382.541 190.494C383.146 191.207 383.526 192.042 383.682 192.993L383.716 193.204L380.972 193.462L380.945 193.347C380.754 192.518 380.327 191.879 379.661 191.431C378.995 190.983 378.126 190.806 377.052 190.908C376.359 190.969 375.768 191.132 375.279 191.39C374.79 191.648 374.43 191.974 374.199 192.382C373.961 192.79 373.873 193.245 373.92 193.748V193.761C373.975 194.345 374.233 194.821 374.688 195.188C375.143 195.555 375.857 195.813 376.828 195.955L379.613 196.363C381.393 196.621 382.67 197.083 383.438 197.749C384.212 198.414 384.654 199.359 384.769 200.582V200.595C384.864 201.594 384.654 202.511 384.151 203.333C383.642 204.155 382.908 204.834 381.943 205.364C380.979 205.894 379.851 206.213 378.574 206.335C377.222 206.444 376.04 206.335 375.021 205.996Z" fill="#C4D9DC"/>
<path d="M389.742 187.599L392.616 187.307L392.915 190.208L392.983 190.201C393.275 189.495 393.669 188.87 394.151 188.34C394.633 187.803 395.211 187.375 395.877 187.035C396.542 186.703 397.283 186.492 398.098 186.41C399.558 186.261 400.876 186.499 402.045 187.117C403.213 187.735 404.171 188.686 404.912 189.957C405.652 191.234 406.114 192.769 406.297 194.576V194.59C406.481 196.397 406.338 197.993 405.863 199.386C405.387 200.778 404.647 201.899 403.634 202.735C402.622 203.577 401.399 204.073 399.959 204.216C399.158 204.297 398.39 204.243 397.656 204.059C396.923 203.869 396.264 203.57 395.673 203.142C395.082 202.721 394.565 202.198 394.137 201.573L394.069 201.58L394.953 210.228L392.079 210.52L389.742 187.599ZM401.63 200.71C402.317 200.119 402.806 199.324 403.105 198.333C403.403 197.341 403.485 196.2 403.356 194.895V194.882C403.22 193.564 402.908 192.45 402.412 191.533C401.916 190.622 401.277 189.95 400.489 189.508C399.701 189.073 398.798 188.904 397.785 189.006C396.821 189.101 395.985 189.454 395.292 190.058C394.599 190.663 394.09 191.465 393.764 192.457C393.438 193.448 393.343 194.59 393.472 195.88V195.894C393.601 197.171 393.927 198.265 394.457 199.168C394.98 200.079 395.646 200.758 396.44 201.206C397.235 201.661 398.118 201.838 399.09 201.736C400.102 201.648 400.951 201.301 401.63 200.71Z" fill="#C4D9DC"/>
<path d="M411.541 181.873C411.154 181.56 410.93 181.153 410.875 180.657C410.821 180.154 410.95 179.706 411.263 179.325C411.575 178.938 411.983 178.721 412.479 178.666C412.981 178.612 413.43 178.741 413.81 179.047C414.19 179.353 414.415 179.76 414.469 180.27C414.523 180.766 414.394 181.207 414.089 181.594C413.783 181.982 413.375 182.206 412.866 182.26C412.37 182.314 411.928 182.185 411.541 181.873ZM411.745 185.317L414.612 185.005L416.459 202.158L413.593 202.463L411.745 185.317Z" fill="#C4D9DC"/>
<path d="M421.812 184.223L424.679 183.904L425.005 186.805L425.073 186.798C425.25 185.779 425.657 184.936 426.296 184.277C426.935 183.619 427.736 183.231 428.701 183.123C428.952 183.095 429.183 183.082 429.387 183.089C429.591 183.095 429.754 183.102 429.863 183.109L430.175 185.894C430.06 185.86 429.863 185.847 429.577 185.847C429.292 185.847 428.973 185.867 428.626 185.901C427.892 185.983 427.261 186.22 426.744 186.614C426.228 187.008 425.848 187.531 425.617 188.184C425.386 188.836 425.318 189.597 425.413 190.466L426.595 201.05L423.728 201.369L421.812 184.223Z" fill="#C4D9DC"/>
<path d="M440.202 198.734C438.938 198.149 437.912 197.226 437.124 195.976C436.336 194.726 435.84 193.204 435.636 191.417V191.404C435.433 189.637 435.569 188.041 436.051 186.621C436.533 185.201 437.308 184.047 438.367 183.163C439.427 182.28 440.745 181.744 442.307 181.56C443.87 181.377 445.249 181.581 446.458 182.172C447.667 182.763 448.652 183.666 449.406 184.889C450.16 186.112 450.636 187.586 450.84 189.298L450.962 190.351L437.158 191.954L436.9 189.712L449.291 188.272L448.082 190.514L447.953 189.406C447.796 188.075 447.47 187.002 446.968 186.18C446.465 185.358 445.84 184.78 445.086 184.434C444.332 184.094 443.503 183.979 442.593 184.081C441.682 184.189 440.888 184.502 440.215 185.032C439.543 185.562 439.047 186.288 438.734 187.205C438.422 188.123 438.333 189.223 438.483 190.5L438.612 191.601C438.755 192.81 439.081 193.815 439.59 194.624C440.1 195.432 440.765 196.023 441.574 196.39C442.382 196.757 443.306 196.879 444.339 196.764C445.066 196.682 445.697 196.492 446.248 196.207C446.791 195.921 447.233 195.561 447.572 195.133C447.912 194.705 448.136 194.23 448.245 193.72L448.279 193.564L451.098 193.238L451.084 193.408C451.023 194.128 450.826 194.821 450.5 195.48C450.174 196.139 449.719 196.743 449.148 197.28C448.578 197.817 447.905 198.265 447.131 198.618C446.356 198.971 445.507 199.202 444.57 199.311C442.919 199.522 441.465 199.318 440.202 198.734Z" fill="#C4D9DC"/>
<path d="M476.449 174.305C476.055 173.999 475.824 173.599 475.763 173.103C475.702 172.6 475.824 172.152 476.13 171.764C476.436 171.377 476.837 171.153 477.333 171.085C477.835 171.024 478.284 171.139 478.671 171.445C479.058 171.751 479.282 172.152 479.35 172.654C479.411 173.15 479.289 173.592 478.99 173.986C478.691 174.38 478.284 174.611 477.781 174.672C477.285 174.74 476.843 174.618 476.449 174.305ZM476.708 177.749L479.574 177.396L481.701 194.515L478.834 194.868L476.708 177.749Z" fill="#C4D9DC"/>
<path d="M486.791 176.499L489.651 176.139L489.957 178.571L490.025 178.564C490.385 177.708 490.969 176.961 491.784 176.329C492.592 175.697 493.652 175.296 494.943 175.133C496.818 174.896 498.346 175.283 499.528 176.281C500.71 177.287 501.424 178.761 501.668 180.717L503.074 191.824L500.215 192.184L498.876 181.587C498.7 180.194 498.238 179.169 497.49 178.51C496.743 177.851 495.711 177.606 494.399 177.776C493.503 177.891 492.742 178.19 492.124 178.673C491.506 179.155 491.057 179.787 490.785 180.554C490.507 181.322 490.432 182.198 490.555 183.177L491.832 193.244L488.972 193.604L486.791 176.499Z" fill="#C4D9DC"/>
<path d="M512.007 189.875C511.13 189.229 510.587 188.088 510.376 186.458L509.038 176.078L506.538 176.397L506.232 174.026L508.732 173.707L508.135 169.087L511.096 168.707L511.694 173.326L514.948 172.905L515.254 175.276L512 175.697L513.331 186.057C513.447 186.967 513.725 187.558 514.16 187.83C514.595 188.102 515.2 188.19 515.967 188.088C516.144 188.068 516.307 188.034 516.463 188C516.619 187.966 516.755 187.932 516.877 187.905L517.176 190.221C517.007 190.269 516.782 190.316 516.504 190.384C516.225 190.445 515.947 190.5 515.661 190.534C514.099 190.738 512.883 190.52 512.007 189.875Z" fill="#C4D9DC"/>
<path d="M526.422 188.041C525.138 187.47 524.078 186.567 523.242 185.324C522.407 184.081 521.87 182.552 521.632 180.745L521.626 180.711C521.388 178.89 521.517 177.28 522.006 175.867C522.495 174.461 523.29 173.32 524.384 172.444C525.477 171.567 526.809 171.031 528.378 170.827C529.954 170.623 531.388 170.8 532.671 171.364C533.955 171.927 535.015 172.824 535.851 174.06C536.686 175.297 537.223 176.825 537.461 178.646L537.467 178.68C537.705 180.5 537.576 182.117 537.087 183.53C536.598 184.943 535.81 186.091 534.716 186.968C533.629 187.844 532.291 188.387 530.715 188.591C529.132 188.788 527.706 188.612 526.422 188.041ZM532.923 184.964C533.595 184.366 534.078 183.571 534.363 182.566C534.648 181.56 534.709 180.392 534.533 179.054L534.526 179.02C534.349 177.681 533.996 176.567 533.459 175.677C532.923 174.787 532.25 174.149 531.435 173.748C530.62 173.354 529.71 173.218 528.697 173.354C527.712 173.483 526.877 173.843 526.191 174.441C525.505 175.039 525.015 175.834 524.723 176.825C524.431 177.817 524.37 178.979 524.547 180.317L524.553 180.351C524.73 181.689 525.083 182.803 525.627 183.7C526.163 184.597 526.843 185.242 527.658 185.643C528.473 186.044 529.383 186.18 530.396 186.044C531.408 185.908 532.25 185.555 532.923 184.964Z" fill="#C4D9DC"/>
<path d="M552.828 167.954L555.688 167.573L556.069 170.467L556.136 170.46C556.408 169.747 556.782 169.115 557.251 168.565C557.719 168.022 558.283 167.566 558.935 167.213C559.594 166.86 560.321 166.629 561.136 166.52C562.597 166.33 563.915 166.527 565.104 167.111C566.292 167.696 567.271 168.613 568.052 169.869C568.833 171.119 569.336 172.648 569.574 174.448V174.462C569.811 176.262 569.716 177.858 569.281 179.271C568.847 180.677 568.14 181.819 567.155 182.688C566.17 183.558 564.961 184.088 563.528 184.278C562.726 184.387 561.958 184.353 561.225 184.19C560.491 184.027 559.818 183.741 559.214 183.334C558.609 182.926 558.079 182.423 557.631 181.812L557.563 181.819L558.698 190.433L555.838 190.806L552.828 167.954ZM565.097 180.705C565.763 180.093 566.231 179.285 566.503 178.286C566.775 177.288 566.822 176.14 566.652 174.842V174.828C566.476 173.511 566.129 172.41 565.613 171.513C565.097 170.617 564.431 169.964 563.629 169.55C562.828 169.136 561.924 169 560.912 169.129C559.947 169.258 559.125 169.632 558.453 170.257C557.774 170.882 557.291 171.697 556.992 172.702C556.693 173.708 556.632 174.849 556.802 176.133V176.146C556.972 177.417 557.332 178.497 557.882 179.394C558.433 180.29 559.119 180.949 559.927 181.377C560.735 181.805 561.625 181.955 562.59 181.832C563.595 181.69 564.431 181.316 565.097 180.705Z" fill="#C4D9DC"/>
<path d="M574.695 165.066L577.555 164.686L577.936 167.58L578.004 167.573C578.16 166.547 578.547 165.698 579.172 165.025C579.797 164.353 580.592 163.952 581.556 163.823C581.808 163.789 582.039 163.775 582.243 163.775C582.446 163.775 582.609 163.782 582.718 163.789L583.085 166.567C582.969 166.54 582.772 166.527 582.487 166.527C582.202 166.527 581.883 166.554 581.536 166.601C580.802 166.696 580.177 166.948 579.668 167.349C579.158 167.749 578.792 168.279 578.574 168.938C578.357 169.597 578.303 170.358 578.418 171.228L579.811 181.784L576.951 182.158L574.695 165.066Z" fill="#C4D9DC"/>
<path d="M593.539 179.217C592.255 178.646 591.195 177.743 590.36 176.493C589.524 175.249 588.987 173.721 588.75 171.907L588.743 171.873C588.505 170.053 588.634 168.443 589.123 167.03C589.612 165.617 590.407 164.482 591.501 163.606C592.595 162.736 593.926 162.193 595.495 161.989C597.071 161.785 598.505 161.962 599.789 162.526C601.073 163.089 602.132 163.986 602.968 165.223C603.803 166.459 604.34 167.987 604.578 169.801L604.585 169.835C604.822 171.656 604.693 173.273 604.204 174.686C603.715 176.099 602.927 177.247 601.833 178.123C600.746 178.999 599.408 179.543 597.832 179.747C596.256 179.95 594.823 179.787 593.539 179.217ZM600.04 176.139C600.713 175.542 601.195 174.747 601.487 173.741C601.772 172.743 601.833 171.567 601.657 170.229L601.65 170.195C601.473 168.857 601.12 167.743 600.59 166.853C600.054 165.963 599.381 165.324 598.566 164.924C597.751 164.53 596.84 164.394 595.828 164.53C594.843 164.659 594.008 165.019 593.321 165.617C592.635 166.214 592.146 167.009 591.854 168.001C591.562 168.993 591.501 170.154 591.671 171.493L591.677 171.527C591.854 172.865 592.207 173.979 592.751 174.876C593.294 175.773 593.967 176.418 594.789 176.819C595.604 177.219 596.514 177.355 597.526 177.219C598.525 177.097 599.367 176.73 600.04 176.139Z" fill="#C4D9DC"/>
<path d="M614.436 176.499C613.254 175.908 612.276 174.984 611.501 173.728C610.727 172.471 610.231 170.942 610 169.142V169.129C609.776 167.328 609.878 165.725 610.319 164.326C610.761 162.92 611.481 161.785 612.473 160.922C613.464 160.053 614.674 159.53 616.1 159.353C617.309 159.197 618.423 159.346 619.449 159.802C620.475 160.25 621.317 160.936 621.983 161.853L622.051 161.846L620.849 152.349L623.709 151.989L626.711 175.732L623.851 176.092L623.484 173.198L623.417 173.205C623.002 174.271 622.37 175.154 621.521 175.847C620.665 176.54 619.626 176.961 618.396 177.118C616.943 177.294 615.618 177.09 614.436 176.499ZM621.107 173.395C621.786 172.777 622.275 171.961 622.581 170.949C622.88 169.944 622.955 168.803 622.792 167.532V167.519C622.628 166.248 622.275 165.161 621.725 164.265C621.175 163.368 620.502 162.709 619.694 162.274C618.885 161.839 618.002 161.683 617.038 161.806C616.025 161.935 615.19 162.301 614.517 162.906C613.845 163.517 613.376 164.319 613.098 165.311C612.819 166.303 612.765 167.451 612.935 168.762V168.775C613.098 170.08 613.437 171.187 613.953 172.091C614.47 172.994 615.129 173.653 615.924 174.074C616.725 174.489 617.629 174.638 618.634 174.509C619.605 174.387 620.427 174.013 621.107 173.395Z" fill="#C4D9DC"/>
<path d="M636.487 174.081C635.543 173.667 634.782 173.014 634.205 172.118C633.627 171.221 633.26 170.127 633.104 168.83L631.793 157.709L634.66 157.37L635.91 167.974C636.073 169.366 636.528 170.399 637.268 171.065C638.009 171.731 639.041 171.982 640.352 171.826C641.249 171.717 642.017 171.425 642.635 170.949C643.253 170.474 643.708 169.842 643.994 169.068C644.279 168.293 644.36 167.424 644.245 166.459L643.056 156.378L645.923 156.038L647.941 173.171L645.074 173.51L644.788 171.072L644.721 171.078C644.354 171.934 643.763 172.675 642.954 173.3C642.139 173.925 641.086 174.312 639.775 174.468C638.532 174.624 637.431 174.495 636.487 174.081Z" fill="#C4D9DC"/>
<path d="M657.709 171.323C656.445 170.698 655.426 169.753 654.659 168.476C653.884 167.199 653.416 165.65 653.246 163.837V163.823C653.076 162.016 653.266 160.42 653.803 159.027C654.34 157.634 655.168 156.52 656.289 155.685C657.41 154.849 658.762 154.353 660.352 154.21C661.785 154.075 663.035 154.244 664.115 154.706C665.188 155.168 666.065 155.814 666.73 156.636C667.403 157.464 667.845 158.361 668.055 159.326L668.082 159.455L665.277 159.713L665.229 159.584C664.944 158.742 664.414 158.035 663.64 157.451C662.865 156.867 661.853 156.636 660.583 156.751C659.591 156.839 658.748 157.186 658.049 157.777C657.349 158.368 656.833 159.163 656.5 160.155C656.167 161.146 656.065 162.288 656.187 163.592V163.606C656.31 164.937 656.629 166.058 657.138 166.968C657.648 167.879 658.307 168.551 659.108 168.986C659.91 169.421 660.807 169.597 661.799 169.502C662.974 169.393 663.904 169.006 664.584 168.34C665.263 167.675 665.677 166.846 665.827 165.868L665.847 165.732L668.673 165.474L668.667 165.589C668.612 166.69 668.307 167.715 667.743 168.646C667.179 169.577 666.411 170.351 665.44 170.956C664.468 171.56 663.334 171.927 662.036 172.043C660.413 172.185 658.973 171.948 657.709 171.323Z" fill="#C4D9DC"/>
<path d="M677.084 169.652C676.249 168.952 675.78 167.784 675.671 166.14L674.972 155.699L672.458 155.869L672.295 153.484L674.808 153.314L674.496 148.668L677.471 148.471L677.784 153.117L681.058 152.9L681.221 155.284L677.947 155.502L678.647 165.929C678.708 166.846 678.946 167.451 679.367 167.75C679.788 168.049 680.379 168.171 681.153 168.124C681.33 168.11 681.5 168.09 681.656 168.062C681.812 168.035 681.955 168.015 682.077 167.995L682.233 170.325C682.057 170.359 681.833 170.399 681.554 170.447C681.276 170.494 680.99 170.528 680.705 170.542C679.129 170.644 677.92 170.352 677.084 169.652Z" fill="#C4D9DC"/>
<path d="M691.124 169.326C690.126 168.932 689.324 168.361 688.726 167.607C688.128 166.853 687.748 165.97 687.585 164.944L687.564 164.795L690.445 164.686L690.486 164.849C690.696 165.705 691.138 166.357 691.803 166.812C692.476 167.268 693.393 167.471 694.568 167.431C695.35 167.403 696.015 167.274 696.559 167.043C697.102 166.819 697.517 166.507 697.802 166.113C698.087 165.719 698.216 165.264 698.196 164.747V164.734C698.169 164.115 697.965 163.626 697.571 163.266C697.184 162.906 696.491 162.621 695.499 162.417L692.741 161.86C691.104 161.534 689.867 160.997 689.045 160.25C688.223 159.503 687.782 158.511 687.734 157.275V157.261C687.694 156.269 687.931 155.379 688.434 154.598C688.944 153.817 689.664 153.192 690.601 152.723C691.538 152.254 692.625 151.996 693.862 151.949C695.119 151.901 696.226 152.085 697.177 152.492C698.128 152.907 698.889 153.484 699.453 154.231C700.017 154.979 700.356 155.835 700.458 156.792L700.485 157.01L697.734 157.118L697.714 157.003C697.571 156.167 697.177 155.508 696.532 155.026C695.886 154.544 695.03 154.32 693.957 154.36C693.257 154.388 692.659 154.517 692.164 154.748C691.668 154.979 691.287 155.284 691.029 155.678C690.771 156.072 690.655 156.521 690.676 157.03V157.044C690.696 157.628 690.927 158.117 691.362 158.511C691.797 158.905 692.496 159.197 693.454 159.394L696.212 159.951C697.972 160.304 699.222 160.834 699.955 161.541C700.689 162.247 701.083 163.212 701.131 164.442V164.455C701.171 165.461 700.913 166.364 700.363 167.159C699.813 167.954 699.038 168.592 698.046 169.068C697.055 169.543 695.913 169.808 694.636 169.856C693.298 169.89 692.123 169.72 691.124 169.326Z" fill="#C4D9DC"/>
<path d="M730.146 168.395C729.378 167.627 729.011 166.418 729.045 164.774L729.276 154.312L726.756 154.258L726.81 151.873L729.33 151.928L729.432 147.268L732.415 147.336L732.313 151.996L735.594 152.07L735.54 154.455L732.258 154.38L732.027 164.828C732.007 165.745 732.19 166.37 732.584 166.703C732.978 167.036 733.556 167.213 734.33 167.233C734.507 167.24 734.677 167.233 734.84 167.219C735.003 167.206 735.139 167.199 735.261 167.185L735.207 169.522C735.03 169.543 734.799 169.563 734.514 169.583C734.228 169.604 733.943 169.611 733.658 169.604C732.089 169.57 730.913 169.169 730.146 168.395Z" fill="#C4D9DC"/>
<path d="M742.889 145.59L745.769 145.733L745.301 155.162H745.369C745.878 154.21 746.612 153.49 747.549 152.995C748.493 152.499 749.608 152.281 750.885 152.342C752.108 152.403 753.167 152.75 754.064 153.389C754.961 154.027 755.64 154.883 756.102 155.956C756.571 157.03 756.768 158.266 756.7 159.659L756.177 170.209L753.296 170.066L753.792 160.012C753.867 158.456 753.554 157.22 752.848 156.31C752.141 155.399 751.116 154.91 749.764 154.842C748.881 154.802 748.093 154.971 747.407 155.359C746.72 155.746 746.17 156.296 745.763 157.023C745.355 157.743 745.131 158.599 745.083 159.577L744.587 169.631L741.707 169.489L742.889 145.59Z" fill="#C4D9DC"/>
<path d="M765.097 170.521C764.275 170.019 763.65 169.36 763.235 168.538C762.821 167.716 762.651 166.785 762.74 165.752V165.718C762.855 164.251 763.5 163.123 764.662 162.335C765.824 161.547 767.393 161.18 769.377 161.228L775.769 161.384L775.586 163.612L769.519 163.483C768.364 163.456 767.454 163.66 766.781 164.095C766.109 164.53 765.735 165.148 765.674 165.949V165.983C765.606 166.812 765.864 167.491 766.449 168.028C767.033 168.565 767.841 168.87 768.881 168.959C769.784 169.033 770.613 168.904 771.367 168.585C772.121 168.266 772.732 167.79 773.215 167.165C773.69 166.54 773.969 165.813 774.03 164.985L774.444 159.91C774.526 158.864 774.268 158.015 773.663 157.356C773.058 156.704 772.148 156.33 770.953 156.228C769.852 156.14 768.942 156.303 768.222 156.731C767.502 157.152 767.033 157.75 766.802 158.504L766.754 158.647L763.976 158.422L764.01 158.246C764.173 157.308 764.567 156.473 765.185 155.746C765.803 155.019 766.625 154.469 767.644 154.088C768.663 153.708 769.845 153.579 771.19 153.687C772.542 153.796 773.697 154.122 774.648 154.666C775.599 155.209 776.306 155.922 776.781 156.812C777.25 157.702 777.44 158.715 777.345 159.863L776.38 171.751L773.507 171.52L773.731 168.728L773.663 168.721C773.283 169.319 772.794 169.835 772.209 170.256C771.618 170.677 770.973 170.99 770.26 171.194C769.546 171.398 768.806 171.465 768.038 171.404C766.897 171.316 765.919 171.024 765.097 170.521Z" fill="#C4D9DC"/>
<path d="M785.389 171.866C784.689 171.038 784.424 169.801 784.601 168.164L785.708 157.757L783.201 157.492L783.453 155.114L785.959 155.379L786.448 150.746L789.417 151.059L788.921 155.692L792.189 156.038L791.937 158.416L788.67 158.069L787.569 168.463C787.474 169.373 787.603 170.012 787.963 170.379C788.323 170.745 788.887 170.97 789.662 171.051C789.838 171.072 790.008 171.078 790.164 171.078C790.321 171.078 790.47 171.078 790.585 171.078L790.341 173.402C790.164 173.408 789.933 173.408 789.648 173.402C789.363 173.402 789.077 173.381 788.792 173.354C787.223 173.198 786.088 172.702 785.389 171.866Z" fill="#C4D9DC"/>
<path d="M820.991 153.076L823.837 153.538L822.336 162.852L822.404 162.865C823.015 161.975 823.817 161.344 824.809 160.95C825.8 160.556 826.928 160.467 828.198 160.671C829.408 160.868 830.427 161.33 831.242 162.064C832.057 162.797 832.641 163.721 832.988 164.842C833.334 165.963 833.395 167.213 833.171 168.585L831.486 179.013L828.64 178.551L830.243 168.612C830.495 167.07 830.311 165.814 829.713 164.829C829.109 163.843 828.144 163.246 826.813 163.035C825.936 162.892 825.141 162.981 824.415 163.286C823.688 163.599 823.083 164.088 822.601 164.761C822.118 165.433 821.799 166.255 821.643 167.227L820.04 177.165L817.193 176.703L820.991 153.076Z" fill="#C4D9DC"/>
<path d="M841.202 179.998C840.17 179.06 839.47 177.871 839.096 176.445C838.723 175.018 838.702 173.415 839.042 171.649V171.635C839.375 169.889 839.986 168.408 840.869 167.199C841.752 165.99 842.839 165.12 844.123 164.597C845.407 164.074 846.82 163.959 848.362 164.251C849.904 164.55 851.161 165.154 852.139 166.078C853.117 167.002 853.783 168.164 854.13 169.556C854.483 170.949 854.496 172.498 854.17 174.189L853.973 175.235L840.326 172.62L840.747 170.405L852.995 172.749L851.168 174.529L851.378 173.435C851.63 172.124 851.643 170.996 851.406 170.066C851.175 169.135 850.747 168.388 850.135 167.838C849.517 167.287 848.763 166.927 847.86 166.751C846.956 166.581 846.107 166.642 845.305 166.948C844.504 167.253 843.818 167.79 843.24 168.578C842.663 169.366 842.255 170.385 842.01 171.642L841.8 172.736C841.569 173.931 841.583 174.991 841.827 175.915C842.072 176.839 842.527 177.6 843.186 178.191C843.852 178.788 844.687 179.182 845.713 179.373C846.426 179.508 847.092 179.522 847.696 179.413C848.301 179.305 848.831 179.094 849.286 178.788C849.741 178.483 850.094 178.095 850.353 177.64L850.427 177.504L853.213 178.041L853.151 178.197C852.88 178.863 852.486 179.468 851.969 179.998C851.46 180.527 850.849 180.969 850.142 181.309C849.436 181.655 848.661 181.872 847.819 181.981C846.976 182.083 846.093 182.049 845.169 181.872C843.559 181.567 842.235 180.942 841.202 179.998Z" fill="#C4D9DC"/>
<path d="M863.701 160.854L866.52 161.459L861.52 184.862L858.701 184.257L863.701 160.854Z" fill="#C4D9DC"/>
<path d="M872.505 169.591L875.31 170.257L874.638 173.096L874.699 173.11C875.208 172.539 875.779 172.077 876.417 171.737C877.049 171.391 877.735 171.174 878.476 171.079C879.216 170.983 879.984 171.024 880.779 171.214C882.212 171.554 883.374 172.206 884.277 173.178C885.181 174.149 885.772 175.358 886.05 176.805C886.329 178.252 886.261 179.862 885.847 181.622L885.84 181.635C885.419 183.402 884.76 184.862 883.849 186.024C882.946 187.185 881.872 187.994 880.643 188.463C879.413 188.931 878.095 188.992 876.682 188.653C875.894 188.469 875.188 188.164 874.563 187.749C873.931 187.335 873.408 186.825 872.987 186.234C872.566 185.637 872.253 184.978 872.049 184.251L871.988 184.237L869.977 192.695L867.172 192.029L872.505 169.591ZM879.427 185.881C880.269 185.548 880.989 184.957 881.601 184.122C882.212 183.286 882.661 182.226 882.966 180.963L882.973 180.949C883.279 179.658 883.347 178.504 883.184 177.478C883.021 176.452 882.633 175.61 882.029 174.937C881.424 174.265 880.629 173.809 879.644 173.578C878.7 173.354 877.797 173.415 876.941 173.755C876.085 174.095 875.344 174.686 874.706 175.515C874.067 176.343 873.605 177.389 873.306 178.653L873.299 178.667C873.001 179.917 872.953 181.051 873.15 182.084C873.347 183.116 873.748 183.972 874.352 184.665C874.957 185.351 875.731 185.813 876.676 186.037C877.674 186.261 878.585 186.214 879.427 185.881Z" fill="#C4D9DC"/>
<path d="M1076.45 166.92C1076.45 166.92 967.73 183.09 938.5 146.09" stroke="#C4D9DC" stroke-width="0.2" stroke-miterlimit="10"/>
<path d="M1076.45 173.49C1076.45 173.49 948.44 219.94 939 234.09" stroke="#C4D9DC" stroke-width="0.2" stroke-miterlimit="10"/>
</svg>
