<svg width="921" height="231" viewBox="0 0 921 231" fill="none" xmlns="http://www.w3.org/2000/svg">
<path d="M867.181 227.908L866.334 229.419L841.73 230.069L840.199 228.87L867.181 228.044" stroke="#C4D9DC" stroke-width="0.7853" stroke-miterlimit="10"/>
<path d="M867.181 3.16097L866.334 1.65032L841.73 1L840.199 2.19903L867.181 3.02549" stroke="#C4D9DC" stroke-width="0.7853" stroke-miterlimit="10"/>
<path d="M868.205 130.503V227.964L838.588 228.763L813.361 129.413C813.361 129.413 828.874 130.768 842.565 130.016C853.085 129.44 862.522 126.717 862.996 126.662C864.093 126.527 868.205 126.52 868.205 130.503Z" stroke="#C4D9DC" stroke-width="2" stroke-miterlimit="10"/>
<path d="M829.125 155.737C828.441 155.737 823.916 155.737 823.916 155.737L840.235 215.655H842.565L826.246 158.345L828.854 158.074C828.854 158.074 835.026 180.558 834.89 180.009C834.755 179.461 829.125 155.737 829.125 155.737Z" stroke="#C4D9DC" stroke-width="0.7853" stroke-miterlimit="10"/>
<path d="M843.385 226.121L843.662 227.232H839.821L814.865 130.781H818.435L818.842 131.899H816.511L840.783 226.121H843.385Z" stroke="#C4D9DC" stroke-width="0.2" stroke-miterlimit="10"/>
<path d="M871.381 157.905L871.246 135.028L868.225 133.924V157.905H868.319" stroke="#C4D9DC" stroke-width="0.7853" stroke-miterlimit="10"/>
<path d="M878.088 160.56L871.246 157.857" stroke="#C4D9DC" stroke-width="0.7853" stroke-miterlimit="10"/>
<path d="M868.264 160.052C869.226 159.97 870.255 159.93 871.332 159.93C874.875 159.93 877.951 160.404 879.509 161.108C880.207 161.42 880.599 161.779 880.599 162.158C880.599 163.391 876.454 164.001 871.332 164.001C870.255 164.001 869.226 163.859 868.27 163.777" stroke="#C4D9DC" stroke-width="0.7853" stroke-miterlimit="10"/>
<path d="M868.123 161.847C869.071 161.691 870.101 161.738 871.368 161.738C873.563 161.738 875.466 161.874 876.435 162.273C876.868 162.45 877.112 162.653 877.112 162.87C877.112 163.567 874.538 164.136 871.368 164.136C870.23 164.136 869.166 164.062 868.272 163.933" stroke="#C4D9DC" stroke-width="0.2" stroke-miterlimit="10"/>
<path d="M868.129 157.668C869.179 157.607 870.31 157.891 871.496 157.973" stroke="#C4D9DC" stroke-width="0.7853" stroke-miterlimit="10"/>
<path d="M868.205 100.566V3.106L838.588 2.30664L813.361 101.657C813.361 101.657 827.147 99.6587 840.194 100.377C851.622 101.007 862.488 104.353 862.996 104.407C864.093 104.536 868.205 104.543 868.205 100.566Z" stroke="#C4D9DC" stroke-width="2" stroke-miterlimit="10"/>
<path d="M829.125 75.3319C828.441 75.3319 823.916 75.3319 823.916 75.3319L840.235 15.4141H842.565L826.246 72.7238L828.854 72.9948C828.854 72.9948 835.026 50.5112 834.89 51.0599C834.748 51.6154 829.125 75.3319 829.125 75.3319Z" stroke="#C4D9DC" stroke-width="0.7853" stroke-miterlimit="10"/>
<path d="M843.384 4.9488L843.662 3.83105H839.821L815.129 99.957L818.435 99.6047L818.767 98.1483L816.592 98.1957L840.783 4.9488H843.384Z" stroke="#C4D9DC" stroke-width="0.2" stroke-miterlimit="10"/>
<path d="M868.225 97.8303V73.8496H868.319" stroke="#C4D9DC" stroke-width="0.7853" stroke-miterlimit="10"/>
<path d="M871.381 73.8496L871.246 96.7261L868.225 97.8303" stroke="#C4D9DC" stroke-width="0.7853" stroke-miterlimit="10"/>
<path d="M878.088 70.7803L871.246 73.8964" stroke="#C4D9DC" stroke-width="0.7853" stroke-miterlimit="10"/>
<path d="M868.129 74.0861C869.179 74.1471 870.31 73.8625 871.496 73.7812" stroke="#C4D9DC" stroke-width="0.7853" stroke-miterlimit="10"/>
<path d="M757.624 104.755C757.624 104.552 759.683 115.309 759.683 115.309L750.43 115.241" stroke="#C4D9DC" stroke-width="0.7853" stroke-miterlimit="10"/>
<path d="M813.985 99.1924C786.882 101.739 757.617 104.761 757.617 104.761" stroke="#C4D9DC" stroke-width="2" stroke-miterlimit="10"/>
<path d="M906.838 116.257C907.143 110.905 907.543 104.205 907.543 104.205C907.543 104.205 890.16 98.9961 871.314 96.8555" stroke="#C4D9DC" stroke-width="2" stroke-miterlimit="10"/>
<path d="M757.631 127.374C757.631 127.577 759.48 116.813 759.48 116.813L750.227 116.745" stroke="#C4D9DC" stroke-width="0.7853" stroke-miterlimit="10"/>
<path d="M814.452 133.023C787.104 130.462 757.623 127.373 757.623 127.373" stroke="#C4D9DC" stroke-width="2" stroke-miterlimit="10"/>
<path d="M906.847 115.871C907.151 121.223 907.551 127.922 907.551 127.922C907.551 127.922 890.128 133.003 871.262 135.144" stroke="#C4D9DC" stroke-width="2" stroke-miterlimit="10"/>
<path d="M902.754 102.884C902.754 102.884 899.19 112.022 902.754 129.215" stroke="#C4D9DC" stroke-width="0.7853" stroke-miterlimit="10"/>
<path d="M909.093 111.156C908.822 108.981 908.335 106.719 907.549 104.442" stroke="#C4D9DC" stroke-width="0.7853" stroke-miterlimit="10"/>
<path d="M907.549 127.854C907.549 127.854 908.687 124.664 909.168 119.908" stroke="#C4D9DC" stroke-width="0.7853" stroke-miterlimit="10"/>
<path d="M907.264 111.44C912.791 110.647 920.04 112.469 919.999 114.935C919.959 117.286 916.368 119.819 908.829 119.901" stroke="#C4D9DC" stroke-width="0.7853" stroke-miterlimit="10"/>
<path d="M909.168 119.901C908.64 119.908 907.827 119.901 907.271 119.888" stroke="#C4D9DC" stroke-width="0.7853" stroke-miterlimit="10"/>
<path d="M862.92 2.88965L861.342 104.313" stroke="#C4D9DC" stroke-width="0.2" stroke-miterlimit="10"/>
<path d="M860.963 126.973L862.128 227.908" stroke="#C4D9DC" stroke-width="0.2" stroke-miterlimit="10"/>
<path d="M867.135 43.9353C866.512 43.9353 866.004 43.4273 866.004 42.8041V34.2211C866.004 33.5979 866.512 33.0898 867.135 33.0898C867.758 33.0898 868.266 33.5979 868.266 34.2211V42.8041C868.266 43.4273 867.758 43.9353 867.135 43.9353Z" stroke="#C4D9DC" stroke-width="0.7853" stroke-miterlimit="10"/>
<path d="M867.18 201.334C866.557 201.334 866.049 200.826 866.049 200.202V191.62C866.049 190.996 866.557 190.488 867.18 190.488C867.803 190.488 868.311 190.996 868.311 191.62V200.202C868.311 200.826 867.803 201.334 867.18 201.334Z" stroke="#C4D9DC" stroke-width="0.7853" stroke-miterlimit="10"/>
<path d="M867.419 199.376C866.985 199.376 866.633 199.024 866.633 198.59V192.642C866.633 192.209 866.985 191.856 867.419 191.856C867.852 191.856 868.204 192.209 868.204 192.642V198.59C868.204 199.024 867.852 199.376 867.419 199.376Z" stroke="#C4D9DC" stroke-width="0.2" stroke-miterlimit="10"/>
<path d="M867.46 42.2684C867.026 42.2684 866.674 41.9162 866.674 41.4826V35.5417C866.674 35.1081 867.026 34.7559 867.46 34.7559C867.893 34.7559 868.245 35.1081 868.245 35.5417V41.4894C868.239 41.9162 867.886 42.2684 867.46 42.2684Z" stroke="#C4D9DC" stroke-width="0.2" stroke-miterlimit="10"/>
<path d="M868.299 71.3234C869.261 71.4047 870.29 71.4453 871.368 71.4453C874.91 71.4453 877.986 70.9711 879.544 70.2666C880.242 69.955 880.635 69.596 880.635 69.2166C880.635 67.9837 876.489 67.374 871.368 67.374C870.29 67.374 869.261 67.5163 868.306 67.5976" stroke="#C4D9DC" stroke-width="0.7853" stroke-miterlimit="10"/>
<path d="M868.158 69.528C869.107 69.6838 870.136 69.6363 871.403 69.6363C873.598 69.6363 875.501 69.5009 876.47 69.1012C876.904 68.9251 877.148 68.7218 877.148 68.5051C877.148 67.8073 874.573 67.2383 871.403 67.2383C870.265 67.2383 869.201 67.3128 868.307 67.4415" stroke="#C4D9DC" stroke-width="0.2" stroke-miterlimit="10"/>
<path d="M911.607 111.317C911.167 111.317 910.814 113.228 910.814 115.585C910.814 117.943 911.174 119.853 911.607 119.853" stroke="#C4D9DC" stroke-width="0.7853" stroke-miterlimit="10"/>
<path d="M912.623 111.338C912.182 111.338 911.83 113.153 911.83 115.389C911.83 117.624 912.189 119.44 912.623 119.44" stroke="#C4D9DC" stroke-width="0.7853" stroke-miterlimit="10"/>
<path d="M872.105 97.0781C872.105 97.0781 866.028 110.274 872.105 135.102" stroke="#C4D9DC" stroke-width="0.7853" stroke-miterlimit="10"/>
<path d="M861.347 104.313C860.426 109.083 859.755 116.622 861.212 126.77" stroke="#C4D9DC" stroke-width="0.2" stroke-miterlimit="10"/>
<path d="M858.253 114.908C858.253 118.024 846.418 125.503 831.827 125.503C817.228 125.503 827.335 119.555 827.335 113.703C827.335 107.85 817.228 104.313 831.827 104.313C846.425 104.313 858.253 111.257 858.253 114.908Z" stroke="#C4D9DC" stroke-width="0.7853" stroke-miterlimit="10"/>
<path d="M856.032 114.909C856.032 118.011 843.967 125.476 829.078 125.476C814.188 125.476 824.498 119.542 824.498 113.703C824.498 107.863 814.195 104.334 829.078 104.334C843.967 104.341 856.032 111.264 856.032 114.909Z" stroke="#C4D9DC" stroke-width="0.2" stroke-miterlimit="10"/>
<path d="M759.674 115.307C759.674 115.307 812.736 115.266 812.113 115.307C811.496 115.348 759.674 116.811 759.674 116.811" stroke="#C4D9DC" stroke-width="0.7853" stroke-miterlimit="10"/>
<path d="M901.418 109.597L869.803 106.556" stroke="#C4D9DC" stroke-width="0.2" stroke-miterlimit="10"/>
<path d="M901.418 118.37L869.803 121.412" stroke="#C4D9DC" stroke-width="0.2" stroke-miterlimit="10"/>
<path d="M828.365 130.374L849.135 228.18" stroke="#C4D9DC" stroke-width="0.2" stroke-miterlimit="10"/>
<path d="M828.59 100.276L849.36 2.46973" stroke="#C4D9DC" stroke-width="0.2" stroke-miterlimit="10"/>
<path d="M742.604 114.908H717.105V116.812H742.604V114.908Z" stroke="#C4D9DC" stroke-width="2" stroke-miterlimit="10"/>
<path d="M750.422 115.24L750.429 116.744" stroke="#C4D9DC" stroke-width="0.7853" stroke-miterlimit="10"/>
<path d="M750.422 115.24L742.611 114.908" stroke="#C4D9DC" stroke-width="0.7853" stroke-miterlimit="10"/>
<path d="M750.488 116.71L742.678 116.784" stroke="#C4D9DC" stroke-width="0.7853" stroke-miterlimit="10"/>
<path d="M754.26 87.8447L759.598 114.908" stroke="#C4D9DC" stroke-width="0.7853" stroke-miterlimit="10"/>
<path d="M754.349 88.292L742.928 88.502" stroke="#C4D9DC" stroke-width="2" stroke-miterlimit="10"/>
<path d="M729.854 114.907L743.49 88.251" stroke="#C4D9DC" stroke-width="2" stroke-miterlimit="10"/>
<path d="M754.26 143.881L759.598 116.818" stroke="#C4D9DC" stroke-width="0.7853" stroke-miterlimit="10"/>
<path d="M754.396 143.881L743.348 143.468" stroke="#C4D9DC" stroke-width="2" stroke-miterlimit="10"/>
<path d="M729.854 116.818L743.49 143.468" stroke="#C4D9DC" stroke-width="2" stroke-miterlimit="10"/>
<path d="M912.928 119.346C912.785 121.032 912.697 123.492 912.697 126.222C912.697 131.309 913.009 135.428 913.395 135.428C913.47 135.428 913.544 135.258 913.619 134.947" stroke="#C4D9DC" stroke-width="0.7853" stroke-miterlimit="10"/>
<path d="M913.361 119.34C913.219 121.026 913.131 123.485 913.131 126.215C913.131 131.303 913.442 135.421 913.829 135.421C914.215 135.421 914.526 131.296 914.526 126.215C914.526 123.404 914.431 120.891 914.282 119.197" stroke="#C4D9DC" stroke-width="0.7853" stroke-miterlimit="10"/>
<path d="M911.181 111.162C911.039 109.475 910.951 107.016 910.951 104.286C910.951 99.1988 911.263 95.0801 911.649 95.0801C911.723 95.0801 911.798 95.2494 911.872 95.5611" stroke="#C4D9DC" stroke-width="0.7853" stroke-miterlimit="10"/>
<path d="M911.623 111.162C911.481 109.475 911.393 107.016 911.393 104.286C911.393 99.1988 911.704 95.0801 912.09 95.0801C912.476 95.0801 912.788 99.2056 912.788 104.286C912.788 107.098 912.693 109.611 912.544 111.304" stroke="#C4D9DC" stroke-width="0.7853" stroke-miterlimit="10"/>
<path d="M746.586 88.0488L733.146 114.909" stroke="#C4D9DC" stroke-width="0.2" stroke-miterlimit="10"/>
<path d="M746.586 143.78L733.146 116.92" stroke="#C4D9DC" stroke-width="0.2" stroke-miterlimit="10"/>
<path d="M813.361 130.78L757.969 125.51" stroke="#C4D9DC" stroke-width="0.2" stroke-miterlimit="10"/>
<path d="M813.238 100.852L757.846 106.129" stroke="#C4D9DC" stroke-width="0.2" stroke-miterlimit="10"/>
<path d="M636.743 100.038C636.743 100.038 507.785 74.7474 460.717 77.1326C409.94 79.7073 334.467 93.5753 290.669 97.4545C227.916 103.017 58.2338 100.378 2 69.1416L4.5819 144.397C4.5819 144.397 149.388 171.401 259.76 165.968C370.131 160.534 427.79 141.168 453.832 139.79C517.498 136.419 636.743 158.967 636.743 158.967V100.038Z" stroke="#C4D9DC" stroke-width="2" stroke-miterlimit="10"/>
<path d="M26.957 79.3027L27.6345 103.236" stroke="#C4D9DC" stroke-width="0.7853" stroke-miterlimit="10"/>
<path d="M11.4844 71.8516L12.5005 103.236" stroke="#C4D9DC" stroke-width="0.7853" stroke-miterlimit="10"/>
<path d="M18.4609 75.3193L20.4051 110.918" stroke="#C4D9DC" stroke-width="0.7853" stroke-miterlimit="10"/>
<path d="M615.066 142.384L616.123 155.323" stroke="#C4D9DC" stroke-width="0.7853" stroke-miterlimit="10"/>
<path d="M619.518 136.206L620.561 154.402" stroke="#C4D9DC" stroke-width="0.7853" stroke-miterlimit="10"/>
<path d="M624.055 139.336L625.139 156.861" stroke="#C4D9DC" stroke-width="0.7853" stroke-miterlimit="10"/>
<path d="M543.727 84.9795L544.343 95.6082" stroke="#C4D9DC" stroke-width="0.7853" stroke-miterlimit="10"/>
<path d="M616.42 111.704L616.603 96.916" stroke="#C4D9DC" stroke-width="0.7853" stroke-miterlimit="10"/>
<path d="M621.805 108.073L622.225 98.3994" stroke="#C4D9DC" stroke-width="0.7853" stroke-miterlimit="10"/>
<path d="M627.164 105.75L627.266 99.416" stroke="#C4D9DC" stroke-width="0.7853" stroke-miterlimit="10"/>
<path d="M538.518 84.0449L539.276 92.472" stroke="#C4D9DC" stroke-width="0.7853" stroke-miterlimit="10"/>
<path d="M381.793 151.957L381.604 144.919" stroke="#C4D9DC" stroke-width="0.7853" stroke-miterlimit="10"/>
<path d="M377.019 152.58L376.633 138.774" stroke="#C4D9DC" stroke-width="0.7853" stroke-miterlimit="10"/>
<path d="M371.714 152.221L371.518 135.529" stroke="#C4D9DC" stroke-width="0.7853" stroke-miterlimit="10"/>
<path d="M366.166 152.417L365.773 138.611" stroke="#C4D9DC" stroke-width="0.7853" stroke-miterlimit="10"/>
<path d="M66.3535 132.818L66.4416 153.08" stroke="#C4D9DC" stroke-width="0.7853" stroke-miterlimit="10"/>
<path d="M72.2402 138.82L72.2606 154.326" stroke="#C4D9DC" stroke-width="0.7853" stroke-miterlimit="10"/>
<path d="M77.4769 142.871L77.3008 154.455" stroke="#C4D9DC" stroke-width="0.7853" stroke-miterlimit="10"/>
<path d="M249.034 154.72C247.68 154.266 208.843 156.068 178.129 152.464" stroke="#C4D9DC" stroke-width="0.7853" stroke-miterlimit="10"/>
<path d="M509.841 87.2253C508.487 87.4285 474.162 81.3995 418.613 90.2059" stroke="#C4D9DC" stroke-width="0.7853" stroke-miterlimit="10"/>
<path d="M31.4948 113.09L26.3867 112.887L26.4604 111.069L38.6968 111.557L38.6232 113.375L33.5151 113.172L32.9398 127.553L30.9196 127.475L31.4948 113.09Z" fill="#C4D9DC"/>
<path d="M43.7949 127.963C43.2243 127.558 42.8101 127.02 42.5524 126.348C42.2947 125.676 42.2027 124.898 42.2809 124.015L42.962 116.463L44.9086 116.638L44.2597 123.844C44.1723 124.792 44.3334 125.538 44.7291 126.081C45.1249 126.624 45.7738 126.937 46.6711 127.015C47.2832 127.07 47.8262 126.983 48.3094 126.753C48.788 126.523 49.1746 126.168 49.4691 125.694C49.7636 125.22 49.9385 124.654 49.9983 124.001L50.6149 117.153L52.5616 117.328L51.5169 128.966L49.5703 128.791L49.7176 127.135L49.6716 127.13C49.308 127.645 48.8156 128.055 48.1898 128.354C47.5639 128.653 46.8092 128.764 45.921 128.686C45.0743 128.607 44.3656 128.368 43.7949 127.963Z" fill="#C4D9DC"/>
<path d="M57.5147 117.849L59.4567 118.06L59.245 120.025L59.291 120.03C59.5579 119.381 59.9491 118.884 60.4691 118.539C60.9891 118.194 61.5736 118.06 62.2316 118.129C62.4019 118.148 62.5584 118.175 62.6918 118.208C62.8253 118.24 62.9311 118.267 63.0048 118.29L62.8023 120.177C62.7286 120.14 62.5998 120.099 62.4157 120.058C62.2316 120.016 62.0153 119.979 61.776 119.956C61.279 119.901 60.8281 119.966 60.4277 120.15C60.0273 120.334 59.7006 120.624 59.4521 121.024C59.2036 121.424 59.0471 121.917 58.9827 122.506L58.2096 129.676L56.2676 129.464L57.5147 117.849Z" fill="#C4D9DC"/>
<path d="M66.9201 118.879L68.8621 119.109L68.6688 120.761L68.7148 120.766C69.0922 120.259 69.5984 119.864 70.2334 119.583C70.8685 119.298 71.6278 119.21 72.5068 119.311C73.7769 119.463 74.7203 119.96 75.3323 120.816C75.9444 121.668 76.1745 122.758 76.018 124.079L75.1344 131.612L73.1924 131.382L74.0392 124.199C74.1496 123.255 74.0116 122.505 73.6296 121.948C73.2477 121.396 72.608 121.065 71.7152 120.959C71.1032 120.885 70.5556 120.959 70.0724 121.18C69.5846 121.396 69.1888 121.737 68.8851 122.201C68.5767 122.662 68.3881 123.223 68.3098 123.886L67.5045 130.715L65.5625 130.485L66.9201 118.879Z" fill="#C4D9DC"/>
<path d="M95.3407 122.316L97.2827 122.556L95.8561 134.152L93.9141 133.913L95.3407 122.316ZM95.7364 120.011C95.5293 119.744 95.4419 119.445 95.4833 119.109C95.5247 118.768 95.6812 118.492 95.9481 118.29C96.215 118.083 96.5141 118.004 96.8501 118.046C97.1906 118.087 97.4667 118.239 97.6692 118.506C97.8763 118.768 97.9545 119.072 97.9131 119.413C97.8717 119.749 97.7198 120.02 97.4575 120.227C97.1952 120.434 96.8915 120.522 96.551 120.476C96.2196 120.43 95.9435 120.278 95.7364 120.011Z" fill="#C4D9DC"/>
<path d="M102.617 134.456C101.935 133.872 101.448 133.103 101.149 132.151C100.849 131.198 100.776 130.112 100.923 128.893V128.883C101.07 127.664 101.406 126.629 101.926 125.782C102.446 124.93 103.109 124.305 103.905 123.9C104.701 123.495 105.585 123.352 106.551 123.467C107.37 123.568 108.079 123.849 108.677 124.314C109.276 124.779 109.717 125.368 110.003 126.081L110.049 126.086L110.831 119.647L112.773 119.882L110.817 135.975L108.875 135.74L109.114 133.775L109.068 133.771C108.622 134.406 108.061 134.875 107.384 135.193C106.708 135.51 105.953 135.611 105.12 135.51C104.131 135.391 103.293 135.041 102.617 134.456ZM107.508 133.518C108.056 133.223 108.516 132.767 108.88 132.155C109.243 131.543 109.478 130.807 109.584 129.942V129.933C109.69 129.072 109.634 128.299 109.423 127.623C109.211 126.946 108.875 126.394 108.415 125.98C107.955 125.561 107.398 125.312 106.744 125.234C106.059 125.151 105.447 125.253 104.908 125.542C104.37 125.832 103.924 126.279 103.578 126.886C103.233 127.494 103.008 128.239 102.897 129.123V129.132C102.791 130.016 102.833 130.798 103.022 131.479C103.21 132.16 103.532 132.703 103.988 133.108C104.444 133.513 105.014 133.757 105.7 133.84C106.358 133.918 106.961 133.812 107.508 133.518Z" fill="#C4D9DC"/>
<path d="M117.674 136.269C116.933 135.685 116.399 134.921 116.073 133.973C115.75 133.025 115.658 131.948 115.796 130.733V130.724C115.935 129.527 116.275 128.497 116.809 127.636C117.347 126.775 118.033 126.136 118.875 125.717C119.717 125.298 120.665 125.151 121.719 125.271C122.778 125.395 123.657 125.745 124.365 126.32C125.069 126.895 125.58 127.645 125.884 128.57C126.192 129.495 126.28 130.54 126.142 131.699L126.059 132.413L116.708 131.327L116.883 129.808L125.276 130.784L124.131 132.077L124.218 131.331C124.324 130.429 124.273 129.67 124.071 129.053C123.868 128.437 123.546 127.954 123.1 127.613C122.658 127.272 122.129 127.065 121.507 126.992C120.891 126.918 120.32 127.006 119.791 127.249C119.266 127.493 118.825 127.894 118.475 128.455C118.125 129.012 117.9 129.725 117.798 130.586L117.711 131.331C117.614 132.15 117.674 132.864 117.886 133.476C118.097 134.088 118.443 134.58 118.921 134.948C119.4 135.317 119.989 135.542 120.688 135.62C121.181 135.676 121.627 135.653 122.032 135.551C122.437 135.445 122.782 135.28 123.072 135.05C123.362 134.82 123.583 134.543 123.735 134.221L123.781 134.125L125.691 134.346L125.654 134.456C125.502 134.921 125.267 135.344 124.945 135.731C124.623 136.117 124.236 136.444 123.776 136.711C123.316 136.978 122.805 137.167 122.239 137.277C121.678 137.387 121.079 137.41 120.444 137.337C119.34 137.208 118.415 136.854 117.674 136.269Z" fill="#C4D9DC"/>
<path d="M131.047 138.097C130.5 137.743 130.09 137.287 129.823 136.721C129.556 136.155 129.46 135.525 129.538 134.825V134.802C129.644 133.813 130.099 133.058 130.9 132.547C131.701 132.037 132.773 131.811 134.112 131.88L138.438 132.096L138.277 133.606L134.172 133.412C133.394 133.376 132.773 133.495 132.308 133.776C131.844 134.057 131.586 134.471 131.526 135.014L131.521 135.037C131.462 135.594 131.623 136.063 132.009 136.436C132.396 136.809 132.939 137.034 133.638 137.108C134.25 137.172 134.812 137.103 135.327 136.901C135.843 136.698 136.266 136.385 136.602 135.971C136.938 135.557 137.136 135.069 137.196 134.508L137.564 131.079C137.642 130.371 137.476 129.791 137.081 129.335C136.68 128.884 136.077 128.613 135.263 128.525C134.517 128.447 133.901 128.544 133.408 128.815C132.916 129.091 132.584 129.482 132.419 129.993L132.387 130.09L130.509 129.887L130.532 129.768C130.661 129.133 130.942 128.576 131.374 128.097C131.807 127.619 132.368 127.26 133.068 127.02C133.763 126.781 134.568 126.712 135.474 126.809C136.39 126.905 137.163 127.149 137.798 127.536C138.429 127.918 138.898 128.419 139.202 129.027C139.506 129.634 139.616 130.329 139.533 131.102L138.668 139.133L136.726 138.921L136.929 137.034L136.883 137.03C136.616 137.43 136.275 137.77 135.87 138.047C135.465 138.323 135.019 138.525 134.536 138.649C134.052 138.774 133.546 138.806 133.026 138.751C132.253 138.668 131.595 138.452 131.047 138.097Z" fill="#C4D9DC"/>
<path d="M145.176 139.579C144.541 139.224 144.058 138.769 143.722 138.207C143.391 137.651 143.216 137.02 143.197 136.316V136.215L145.144 136.404L145.153 136.519C145.217 137.112 145.452 137.591 145.862 137.959C146.271 138.327 146.87 138.548 147.661 138.622C148.19 138.672 148.646 138.649 149.032 138.543C149.419 138.442 149.723 138.272 149.953 138.033C150.178 137.793 150.307 137.499 150.344 137.149V137.14C150.385 136.721 150.289 136.376 150.063 136.095C149.833 135.819 149.396 135.566 148.747 135.336L146.943 134.71C145.871 134.342 145.093 133.872 144.61 133.293C144.122 132.717 143.92 132.009 144.003 131.176V131.167C144.067 130.495 144.306 129.919 144.716 129.441C145.125 128.962 145.668 128.608 146.34 128.378C147.012 128.148 147.767 128.074 148.604 128.157C149.456 128.24 150.178 128.461 150.781 128.824C151.384 129.188 151.84 129.643 152.148 130.196C152.461 130.748 152.608 131.351 152.59 132.004L152.585 132.151L150.731 131.972L150.726 131.894C150.708 131.318 150.5 130.84 150.114 130.458C149.727 130.076 149.171 129.846 148.448 129.777C147.979 129.731 147.564 129.763 147.21 129.873C146.856 129.984 146.57 130.154 146.363 130.393C146.156 130.633 146.037 130.923 146.004 131.268V131.277C145.968 131.673 146.073 132.023 146.331 132.326C146.589 132.63 147.031 132.892 147.657 133.109L149.46 133.734C150.611 134.13 151.402 134.6 151.83 135.143C152.258 135.686 152.433 136.371 152.355 137.195V137.204C152.291 137.881 152.038 138.465 151.596 138.948C151.154 139.432 150.579 139.791 149.865 140.016C149.157 140.246 148.365 140.315 147.505 140.232C146.584 140.154 145.816 139.933 145.176 139.579Z" fill="#C4D9DC"/>
<path d="M171.644 141.479C171.147 140.936 170.936 140.108 171.009 138.994L171.474 131.921L169.771 131.81L169.877 130.195L171.58 130.306L171.787 127.153L173.807 127.287L173.6 130.439L175.818 130.586L175.713 132.202L173.494 132.054L173.03 139.118C172.988 139.74 173.094 140.167 173.352 140.407C173.605 140.646 173.996 140.78 174.521 140.816C174.64 140.826 174.755 140.826 174.866 140.821C174.976 140.816 175.073 140.812 175.156 140.812L175.05 142.39C174.93 142.399 174.774 142.404 174.58 142.409C174.387 142.413 174.194 142.413 174.001 142.399C172.924 142.33 172.141 142.022 171.644 141.479Z" fill="#C4D9DC"/>
<path d="M180.178 126.32L182.129 126.408L181.843 132.795L181.889 132.8C182.235 132.156 182.722 131.663 183.362 131.323C184.002 130.982 184.752 130.835 185.622 130.872C186.45 130.908 187.172 131.143 187.78 131.571C188.387 131.999 188.852 132.574 189.17 133.301C189.487 134.028 189.63 134.861 189.588 135.805L189.266 142.956L187.315 142.869L187.619 136.058C187.665 135.004 187.449 134.167 186.965 133.554C186.482 132.942 185.787 132.611 184.872 132.574C184.273 132.547 183.739 132.666 183.275 132.929C182.81 133.196 182.442 133.568 182.166 134.061C181.894 134.553 181.742 135.128 181.71 135.796L181.406 142.606L179.455 142.519L180.178 126.32Z" fill="#C4D9DC"/>
<path d="M195.475 142.896C194.895 142.597 194.444 142.183 194.122 141.644C193.8 141.11 193.648 140.489 193.652 139.785V139.762C193.662 138.768 194.044 137.977 194.789 137.388C195.539 136.798 196.584 136.476 197.923 136.417L202.249 136.219L202.23 137.733L198.125 137.935C197.348 137.972 196.74 138.151 196.303 138.478C195.871 138.805 195.65 139.237 195.64 139.785V139.808C195.636 140.37 195.843 140.816 196.262 141.152C196.68 141.488 197.242 141.658 197.946 141.663C198.558 141.667 199.115 141.548 199.607 141.295C200.1 141.041 200.495 140.692 200.785 140.245C201.08 139.799 201.227 139.297 201.236 138.736L201.273 135.284C201.282 134.571 201.066 134.01 200.624 133.596C200.183 133.181 199.552 132.97 198.738 132.96C197.987 132.951 197.38 133.108 196.92 133.43C196.455 133.752 196.165 134.171 196.045 134.695L196.022 134.797L194.136 134.778L194.149 134.654C194.218 134.01 194.444 133.43 194.826 132.91C195.208 132.39 195.737 131.98 196.409 131.677C197.081 131.373 197.872 131.226 198.784 131.235C199.704 131.244 200.5 131.41 201.167 131.732C201.835 132.054 202.35 132.505 202.709 133.08C203.068 133.655 203.247 134.336 203.238 135.114L203.151 143.191L201.195 143.167L201.218 141.267H201.172C200.942 141.69 200.638 142.058 200.261 142.376C199.883 142.689 199.46 142.933 198.991 143.103C198.521 143.273 198.024 143.356 197.5 143.352C196.736 143.347 196.059 143.195 195.475 142.896Z" fill="#C4D9DC"/>
<path d="M209.699 142.537C209.152 142.045 208.866 141.24 208.834 140.121L208.636 133.034L206.929 133.08L206.883 131.465L208.59 131.419L208.503 128.262L210.523 128.207L210.61 131.364L212.833 131.304L212.879 132.919L210.656 132.979L210.85 140.052C210.868 140.674 211.015 141.092 211.287 141.304C211.563 141.516 211.963 141.617 212.488 141.603C212.608 141.599 212.723 141.589 212.828 141.576C212.939 141.562 213.031 141.548 213.114 141.539L213.155 143.122C213.036 143.14 212.879 143.163 212.69 143.186C212.502 143.209 212.308 143.223 212.115 143.232C211.052 143.264 210.247 143.034 209.699 142.537Z" fill="#C4D9DC"/>
<path d="M230.877 127.94C230.619 127.719 230.481 127.438 230.458 127.102C230.435 126.757 230.532 126.463 230.758 126.209C230.978 125.956 231.259 125.818 231.595 125.795C231.94 125.772 232.235 125.869 232.488 126.085C232.741 126.306 232.879 126.587 232.902 126.927C232.925 127.263 232.828 127.558 232.607 127.816C232.387 128.073 232.106 128.211 231.765 128.234C231.429 128.262 231.135 128.161 230.877 127.94ZM230.932 130.278L232.884 130.14L233.698 141.796L231.747 141.934L230.932 130.278Z" fill="#C4D9DC"/>
<path d="M237.67 129.798L239.617 129.642L239.75 131.299L239.796 131.294C240.068 130.723 240.486 130.236 241.052 129.835C241.618 129.43 242.345 129.195 243.224 129.122C244.499 129.016 245.525 129.324 246.294 130.038C247.062 130.751 247.5 131.777 247.61 133.103L248.227 140.663L246.28 140.82L245.696 133.609C245.617 132.661 245.337 131.952 244.853 131.483C244.37 131.013 243.675 130.82 242.783 130.889C242.171 130.94 241.646 131.119 241.213 131.427C240.781 131.736 240.459 132.15 240.247 132.661C240.035 133.176 239.957 133.761 240.012 134.428L240.569 141.28L238.622 141.437L237.67 129.798Z" fill="#C4D9DC"/>
<path d="M254.692 139.868C254.002 139.638 253.441 139.279 253.008 138.796C252.575 138.308 252.286 137.724 252.138 137.038L252.12 136.937L254.066 136.757L254.099 136.868C254.274 137.438 254.596 137.866 255.065 138.152C255.534 138.437 256.165 138.538 256.956 138.469C257.486 138.419 257.932 138.308 258.291 138.138C258.65 137.968 258.921 137.742 259.096 137.466C259.276 137.19 259.345 136.877 259.313 136.527V136.518C259.276 136.099 259.115 135.777 258.839 135.547C258.563 135.317 258.084 135.151 257.403 135.05L255.516 134.774C254.398 134.617 253.542 134.295 252.957 133.821C252.373 133.347 252.042 132.689 251.963 131.856V131.847C251.899 131.175 252.028 130.568 252.341 130.02C252.654 129.473 253.118 129.022 253.74 128.672C254.356 128.322 255.083 128.106 255.921 128.028C256.772 127.949 257.527 128.032 258.185 128.276C258.843 128.52 259.377 128.883 259.787 129.367C260.196 129.85 260.454 130.416 260.56 131.06L260.583 131.203L258.724 131.378L258.705 131.299C258.576 130.738 258.286 130.305 257.835 130.002C257.384 129.698 256.795 129.578 256.068 129.647C255.599 129.689 255.199 129.799 254.867 129.974C254.536 130.149 254.292 130.37 254.135 130.646C253.974 130.922 253.915 131.23 253.947 131.571V131.58C253.984 131.976 254.159 132.298 254.467 132.547C254.775 132.795 255.258 132.97 255.916 133.067L257.803 133.343C259.009 133.518 259.874 133.831 260.394 134.282C260.919 134.732 261.218 135.372 261.296 136.2V136.21C261.36 136.886 261.218 137.507 260.877 138.064C260.532 138.621 260.035 139.081 259.382 139.44C258.728 139.799 257.964 140.015 257.099 140.098C256.183 140.172 255.383 140.098 254.692 139.868Z" fill="#C4D9DC"/>
<path d="M264.664 127.406L266.611 127.208L266.813 129.173L266.859 129.168C267.057 128.69 267.324 128.267 267.651 127.908C267.977 127.544 268.369 127.254 268.82 127.024C269.271 126.799 269.772 126.656 270.324 126.601C271.314 126.499 272.207 126.66 272.998 127.079C273.79 127.498 274.438 128.142 274.94 129.003C275.442 129.868 275.755 130.908 275.879 132.132V132.141C276.003 133.365 275.906 134.447 275.584 135.39C275.262 136.334 274.761 137.093 274.075 137.659C273.389 138.23 272.561 138.566 271.585 138.662C271.042 138.717 270.522 138.681 270.025 138.556C269.528 138.427 269.082 138.225 268.682 137.935C268.281 137.65 267.931 137.295 267.642 136.872L267.595 136.877L268.194 142.735L266.247 142.933L264.664 127.406ZM272.717 136.288C273.182 135.887 273.513 135.349 273.716 134.677C273.918 134.005 273.974 133.232 273.886 132.348V132.339C273.794 131.446 273.583 130.692 273.247 130.07C272.911 129.454 272.478 128.998 271.944 128.699C271.41 128.405 270.798 128.29 270.113 128.359C269.459 128.423 268.893 128.662 268.424 129.072C267.954 129.481 267.609 130.024 267.388 130.696C267.167 131.368 267.103 132.141 267.19 133.016V133.025C267.278 133.89 267.499 134.631 267.858 135.243C268.212 135.86 268.663 136.32 269.202 136.624C269.74 136.932 270.338 137.052 270.996 136.983C271.682 136.923 272.257 136.688 272.717 136.288Z" fill="#C4D9DC"/>
<path d="M279.432 123.527C279.17 123.315 279.018 123.039 278.981 122.703C278.944 122.363 279.031 122.059 279.243 121.801C279.455 121.539 279.731 121.392 280.067 121.355C280.407 121.318 280.711 121.405 280.969 121.613C281.227 121.82 281.378 122.096 281.415 122.441C281.452 122.777 281.365 123.076 281.158 123.338C280.95 123.601 280.674 123.752 280.329 123.789C279.993 123.826 279.694 123.739 279.432 123.527ZM279.57 125.86L281.512 125.648L282.764 137.268L280.822 137.475L279.57 125.86Z" fill="#C4D9DC"/>
<path d="M286.389 125.119L288.331 124.903L288.552 126.868L288.598 126.863C288.717 126.173 288.993 125.602 289.426 125.156C289.858 124.71 290.402 124.447 291.055 124.374C291.225 124.355 291.382 124.346 291.52 124.351C291.658 124.355 291.768 124.36 291.842 124.365L292.054 126.251C291.975 126.228 291.842 126.219 291.649 126.219C291.455 126.219 291.239 126.233 291.004 126.256C290.507 126.311 290.079 126.472 289.73 126.739C289.38 127.006 289.122 127.36 288.966 127.802C288.809 128.244 288.763 128.759 288.828 129.348L289.628 136.518L287.686 136.734L286.389 125.119Z" fill="#C4D9DC"/>
<path d="M298.846 134.949C297.99 134.553 297.295 133.928 296.761 133.081C296.227 132.234 295.891 131.203 295.753 129.993V129.984C295.615 128.787 295.707 127.706 296.034 126.744C296.361 125.782 296.885 125 297.603 124.402C298.321 123.803 299.214 123.44 300.272 123.316C301.331 123.191 302.265 123.329 303.084 123.73C303.903 124.13 304.571 124.742 305.081 125.571C305.592 126.399 305.914 127.398 306.052 128.557L306.135 129.27L296.784 130.357L296.609 128.838L305.003 127.862L304.184 129.381L304.097 128.631C303.991 127.729 303.77 127.002 303.429 126.445C303.089 125.888 302.665 125.497 302.155 125.262C301.644 125.032 301.082 124.954 300.466 125.023C299.849 125.097 299.311 125.308 298.855 125.667C298.399 126.026 298.064 126.519 297.852 127.14C297.64 127.761 297.58 128.507 297.682 129.372L297.769 130.117C297.866 130.936 298.087 131.617 298.432 132.165C298.777 132.713 299.228 133.113 299.775 133.362C300.323 133.61 300.949 133.693 301.648 133.615C302.141 133.559 302.569 133.431 302.942 133.237C303.31 133.044 303.609 132.8 303.839 132.51C304.069 132.22 304.221 131.898 304.295 131.553L304.318 131.447L306.227 131.226L306.218 131.341C306.177 131.829 306.043 132.299 305.822 132.745C305.601 133.191 305.293 133.601 304.907 133.964C304.52 134.328 304.064 134.632 303.54 134.871C303.015 135.11 302.44 135.267 301.805 135.34C300.687 135.483 299.702 135.345 298.846 134.949Z" fill="#C4D9DC"/>
<path d="M323.401 118.401C323.134 118.194 322.978 117.922 322.936 117.586C322.895 117.246 322.978 116.942 323.185 116.68C323.392 116.418 323.663 116.266 323.999 116.22C324.34 116.178 324.643 116.257 324.906 116.464C325.168 116.671 325.32 116.942 325.366 117.283C325.407 117.619 325.325 117.918 325.122 118.185C324.92 118.452 324.643 118.608 324.303 118.649C323.967 118.696 323.668 118.613 323.401 118.401ZM323.576 120.734L325.518 120.495L326.958 132.092L325.016 132.331L323.576 120.734Z" fill="#C4D9DC"/>
<path d="M330.406 119.887L332.344 119.643L332.551 121.291L332.597 121.286C332.841 120.706 333.236 120.2 333.789 119.772C334.336 119.344 335.054 119.072 335.929 118.962C337.199 118.801 338.234 119.063 339.035 119.74C339.836 120.421 340.319 121.419 340.484 122.745L341.437 130.269L339.5 130.513L338.593 123.334C338.473 122.39 338.16 121.696 337.654 121.249C337.148 120.803 336.449 120.637 335.56 120.752C334.953 120.83 334.438 121.033 334.019 121.36C333.6 121.686 333.296 122.114 333.112 122.634C332.923 123.154 332.873 123.748 332.956 124.411L333.821 131.231L331.883 131.475L330.406 119.887Z" fill="#C4D9DC"/>
<path d="M347.488 128.948C346.894 128.511 346.526 127.738 346.383 126.633L345.477 119.601L343.783 119.818L343.576 118.212L345.27 117.995L344.865 114.866L346.871 114.608L347.276 117.738L349.48 117.452L349.688 119.058L347.483 119.344L348.385 126.362C348.463 126.978 348.652 127.379 348.947 127.563C349.241 127.747 349.651 127.807 350.171 127.738C350.29 127.724 350.401 127.701 350.507 127.678C350.612 127.655 350.705 127.632 350.787 127.613L350.99 129.183C350.875 129.215 350.723 129.247 350.534 129.293C350.346 129.334 350.157 129.371 349.964 129.394C348.905 129.532 348.081 129.385 347.488 128.948Z" fill="#C4D9DC"/>
<path d="M357.253 127.706C356.383 127.319 355.666 126.707 355.099 125.865C354.533 125.023 354.17 123.988 354.009 122.763L354.004 122.74C353.843 121.507 353.931 120.416 354.262 119.459C354.593 118.507 355.132 117.734 355.873 117.14C356.614 116.546 357.515 116.183 358.579 116.045C359.646 115.907 360.617 116.026 361.487 116.408C362.357 116.79 363.075 117.398 363.641 118.235C364.207 119.073 364.57 120.108 364.731 121.341L364.736 121.364C364.897 122.598 364.809 123.693 364.478 124.65C364.147 125.607 363.613 126.385 362.872 126.979C362.136 127.572 361.229 127.941 360.162 128.079C359.089 128.212 358.123 128.092 357.253 127.706ZM361.657 125.621C362.113 125.216 362.44 124.678 362.633 123.997C362.826 123.316 362.867 122.524 362.748 121.618L362.743 121.595C362.624 120.688 362.384 119.933 362.021 119.33C361.657 118.728 361.202 118.295 360.649 118.023C360.097 117.757 359.48 117.665 358.795 117.757C358.128 117.844 357.561 118.088 357.097 118.493C356.632 118.898 356.301 119.436 356.103 120.108C355.905 120.78 355.863 121.567 355.983 122.473L355.988 122.496C356.107 123.403 356.347 124.158 356.715 124.765C357.078 125.373 357.538 125.81 358.091 126.081C358.643 126.353 359.26 126.445 359.945 126.353C360.631 126.261 361.202 126.022 361.657 125.621Z" fill="#C4D9DC"/>
<path d="M375.143 114.098L377.08 113.84L377.338 115.8L377.384 115.796C377.568 115.312 377.821 114.884 378.138 114.512C378.456 114.144 378.838 113.835 379.28 113.596C379.726 113.357 380.218 113.2 380.771 113.127C381.76 112.998 382.653 113.131 383.458 113.527C384.264 113.923 384.926 114.544 385.455 115.395C385.985 116.242 386.325 117.277 386.486 118.497V118.506C386.647 119.726 386.583 120.807 386.288 121.764C385.994 122.717 385.515 123.49 384.848 124.079C384.181 124.668 383.362 125.027 382.391 125.156C381.848 125.23 381.328 125.207 380.831 125.096C380.334 124.986 379.878 124.792 379.468 124.516C379.059 124.24 378.7 123.9 378.396 123.485L378.35 123.49L379.119 129.325L377.181 129.578L375.143 114.098ZM383.454 122.735C383.905 122.321 384.222 121.774 384.406 121.097C384.59 120.421 384.622 119.643 384.507 118.764V118.755C384.388 117.862 384.153 117.116 383.803 116.509C383.454 115.902 383.003 115.46 382.46 115.179C381.917 114.898 381.305 114.806 380.619 114.894C379.965 114.981 379.409 115.234 378.953 115.658C378.493 116.081 378.166 116.633 377.964 117.314C377.761 117.995 377.72 118.768 377.835 119.638V119.647C377.95 120.508 378.194 121.24 378.566 121.847C378.939 122.455 379.404 122.901 379.952 123.191C380.499 123.481 381.102 123.582 381.755 123.499C382.437 123.403 383.003 123.149 383.454 122.735Z" fill="#C4D9DC"/>
<path d="M389.955 112.142L391.892 111.884L392.15 113.845L392.196 113.84C392.302 113.145 392.564 112.57 392.988 112.114C393.411 111.659 393.95 111.387 394.603 111.3C394.773 111.277 394.93 111.268 395.068 111.268C395.206 111.268 395.316 111.272 395.39 111.277L395.638 113.159C395.56 113.141 395.427 113.131 395.233 113.131C395.04 113.131 394.824 113.15 394.589 113.182C394.092 113.246 393.669 113.417 393.324 113.688C392.979 113.96 392.73 114.319 392.583 114.765C392.436 115.211 392.399 115.727 392.477 116.316L393.42 123.467L391.483 123.72L389.955 112.142Z" fill="#C4D9DC"/>
<path d="M402.72 121.728C401.85 121.341 401.132 120.729 400.566 119.882C400 119.04 399.637 118.005 399.476 116.776L399.471 116.753C399.31 115.52 399.397 114.429 399.729 113.472C400.06 112.515 400.598 111.746 401.339 111.153C402.08 110.564 402.982 110.195 404.045 110.057C405.113 109.919 406.084 110.039 406.954 110.421C407.823 110.803 408.541 111.41 409.107 112.248C409.673 113.085 410.037 114.121 410.198 115.35L410.203 115.373C410.364 116.606 410.276 117.701 409.945 118.658C409.614 119.615 409.08 120.393 408.339 120.987C407.603 121.58 406.696 121.949 405.628 122.087C404.561 122.225 403.59 122.114 402.72 121.728ZM407.124 119.643C407.58 119.238 407.906 118.7 408.104 118.019C408.297 117.342 408.339 116.546 408.219 115.639L408.215 115.616C408.095 114.71 407.856 113.955 407.497 113.352C407.133 112.749 406.678 112.317 406.125 112.045C405.573 111.778 404.956 111.686 404.271 111.778C403.604 111.866 403.037 112.11 402.573 112.515C402.108 112.92 401.777 113.458 401.579 114.13C401.381 114.802 401.339 115.589 401.454 116.495L401.459 116.518C401.579 117.425 401.818 118.18 402.186 118.787C402.554 119.395 403.01 119.832 403.567 120.103C404.119 120.375 404.736 120.467 405.421 120.375C406.098 120.292 406.668 120.043 407.124 119.643Z" fill="#C4D9DC"/>
<path d="M416.876 119.887C416.075 119.486 415.413 118.861 414.888 118.009C414.363 117.158 414.027 116.122 413.871 114.903V114.894C413.719 113.674 413.788 112.588 414.087 111.64C414.386 110.688 414.874 109.919 415.546 109.335C416.218 108.746 417.037 108.391 418.003 108.272C418.823 108.166 419.577 108.267 420.272 108.575C420.967 108.879 421.538 109.344 421.989 109.965L422.035 109.961L421.22 103.527L423.158 103.283L425.192 119.367L423.254 119.611L423.006 117.65L422.96 117.655C422.679 118.377 422.251 118.976 421.676 119.445C421.096 119.914 420.392 120.2 419.559 120.306C418.574 120.425 417.677 120.287 416.876 119.887ZM421.395 117.784C421.855 117.365 422.187 116.813 422.394 116.127C422.596 115.446 422.647 114.673 422.536 113.812V113.803C422.426 112.943 422.187 112.206 421.814 111.599C421.441 110.991 420.985 110.545 420.438 110.25C419.89 109.956 419.292 109.85 418.638 109.933C417.953 110.02 417.387 110.269 416.931 110.678C416.476 111.093 416.158 111.636 415.969 112.308C415.781 112.979 415.744 113.757 415.859 114.645V114.654C415.969 115.538 416.199 116.288 416.549 116.9C416.899 117.512 417.345 117.959 417.884 118.244C418.427 118.525 419.039 118.626 419.72 118.538C420.378 118.456 420.935 118.203 421.395 117.784Z" fill="#C4D9DC"/>
<path d="M431.815 118.249C431.175 117.968 430.66 117.527 430.268 116.919C429.877 116.312 429.629 115.571 429.523 114.692L428.635 107.158L430.577 106.928L431.424 114.112C431.534 115.055 431.842 115.755 432.344 116.206C432.846 116.657 433.545 116.827 434.433 116.721C435.041 116.648 435.561 116.45 435.979 116.128C436.398 115.805 436.706 115.377 436.9 114.853C437.093 114.328 437.148 113.739 437.07 113.086L436.265 106.256L438.207 106.026L439.573 117.632L437.631 117.862L437.438 116.21L437.392 116.215C437.144 116.795 436.743 117.296 436.196 117.72C435.643 118.143 434.93 118.405 434.042 118.511C433.2 118.617 432.454 118.53 431.815 118.249Z" fill="#C4D9DC"/>
<path d="M446.189 116.38C445.333 115.956 444.643 115.317 444.123 114.452C443.598 113.586 443.281 112.537 443.166 111.309V111.299C443.051 110.075 443.18 108.994 443.543 108.05C443.907 107.107 444.468 106.352 445.228 105.786C445.987 105.22 446.903 104.884 447.979 104.788C448.95 104.696 449.797 104.811 450.529 105.124C451.256 105.436 451.85 105.874 452.301 106.43C452.756 106.992 453.055 107.599 453.198 108.253L453.216 108.34L451.316 108.515L451.284 108.428C451.09 107.857 450.731 107.378 450.207 106.983C449.682 106.587 448.996 106.43 448.136 106.509C447.464 106.569 446.893 106.803 446.419 107.204C445.945 107.604 445.596 108.142 445.37 108.814C445.145 109.486 445.076 110.259 445.158 111.143V111.152C445.241 112.054 445.458 112.813 445.803 113.43C446.148 114.047 446.594 114.502 447.137 114.797C447.68 115.091 448.288 115.211 448.96 115.146C449.756 115.073 450.386 114.811 450.846 114.36C451.307 113.909 451.587 113.347 451.689 112.684L451.702 112.592L453.617 112.418L453.612 112.496C453.575 113.241 453.368 113.936 452.986 114.567C452.604 115.197 452.084 115.722 451.426 116.131C450.768 116.541 450 116.789 449.121 116.868C448.021 116.964 447.045 116.803 446.189 116.38Z" fill="#C4D9DC"/>
<path d="M459.315 115.248C458.749 114.774 458.431 113.983 458.357 112.869L457.883 105.796L456.181 105.911L456.07 104.296L457.773 104.181L457.561 101.033L459.577 100.899L459.789 104.047L462.007 103.9L462.117 105.515L459.899 105.662L460.373 112.726C460.414 113.348 460.576 113.757 460.861 113.96C461.146 114.162 461.547 114.245 462.071 114.213C462.191 114.203 462.306 114.19 462.412 114.171C462.518 114.153 462.614 114.139 462.697 114.125L462.803 115.704C462.683 115.727 462.531 115.754 462.343 115.787C462.154 115.819 461.961 115.842 461.767 115.851C460.7 115.92 459.881 115.722 459.315 115.248Z" fill="#C4D9DC"/>
<path d="M468.825 115.028C468.149 114.761 467.606 114.374 467.201 113.863C466.796 113.353 466.538 112.754 466.428 112.059L466.414 111.958L468.365 111.885L468.393 111.995C468.536 112.575 468.835 113.017 469.286 113.325C469.741 113.633 470.363 113.771 471.159 113.744C471.688 113.725 472.139 113.638 472.507 113.481C472.875 113.33 473.156 113.118 473.349 112.851C473.542 112.584 473.63 112.276 473.616 111.926V111.917C473.598 111.498 473.46 111.167 473.193 110.923C472.93 110.679 472.461 110.486 471.789 110.347L469.921 109.97C468.812 109.749 467.974 109.386 467.417 108.879C466.86 108.373 466.561 107.701 466.529 106.864V106.855C466.501 106.183 466.663 105.58 467.003 105.051C467.348 104.521 467.836 104.098 468.471 103.781C469.106 103.463 469.842 103.288 470.68 103.256C471.531 103.224 472.281 103.348 472.926 103.624C473.57 103.905 474.085 104.296 474.467 104.802C474.849 105.308 475.079 105.888 475.148 106.537L475.167 106.684L473.303 106.758L473.289 106.68C473.193 106.114 472.926 105.667 472.489 105.341C472.051 105.014 471.472 104.862 470.744 104.89C470.27 104.908 469.865 104.995 469.53 105.152C469.194 105.308 468.936 105.515 468.761 105.782C468.586 106.049 468.508 106.353 468.522 106.698V106.707C468.536 107.103 468.692 107.434 468.987 107.701C469.281 107.968 469.755 108.166 470.404 108.3L472.272 108.677C473.464 108.916 474.311 109.275 474.808 109.754C475.305 110.232 475.572 110.886 475.604 111.719V111.728C475.632 112.409 475.457 113.021 475.084 113.56C474.711 114.098 474.187 114.531 473.515 114.853C472.843 115.175 472.07 115.354 471.205 115.387C470.298 115.41 469.502 115.295 468.825 115.028Z" fill="#C4D9DC"/>
<path d="M495.261 114.397C494.741 113.877 494.493 113.058 494.516 111.944L494.672 104.857L492.965 104.82L493.002 103.205L494.709 103.242L494.778 100.085L496.798 100.131L496.729 103.288L498.952 103.339L498.915 104.954L496.692 104.903L496.536 111.981C496.522 112.602 496.646 113.025 496.913 113.251C497.18 113.476 497.571 113.596 498.096 113.61C498.216 113.615 498.331 113.61 498.441 113.601C498.552 113.592 498.644 113.587 498.726 113.578L498.69 115.161C498.57 115.175 498.413 115.188 498.22 115.202C498.027 115.216 497.834 115.221 497.64 115.216C496.577 115.193 495.781 114.921 495.261 114.397Z" fill="#C4D9DC"/>
<path d="M503.893 98.9482L505.844 99.0449L505.526 105.432H505.572C505.917 104.788 506.414 104.3 507.049 103.964C507.689 103.628 508.444 103.481 509.309 103.523C510.137 103.564 510.855 103.799 511.463 104.231C512.07 104.664 512.53 105.244 512.843 105.971C513.161 106.698 513.294 107.535 513.248 108.479L512.894 115.626L510.943 115.529L511.279 108.718C511.329 107.664 511.117 106.827 510.639 106.21C510.16 105.593 509.465 105.262 508.55 105.216C507.951 105.188 507.418 105.303 506.953 105.566C506.488 105.828 506.115 106.201 505.839 106.693C505.563 107.181 505.411 107.761 505.379 108.424L505.043 115.234L503.092 115.138L503.893 98.9482Z" fill="#C4D9DC"/>
<path d="M518.936 115.837C518.38 115.496 517.956 115.05 517.676 114.493C517.395 113.936 517.28 113.306 517.34 112.606V112.583C517.418 111.589 517.855 110.825 518.642 110.292C519.429 109.758 520.492 109.509 521.836 109.541L526.166 109.647L526.042 111.157L521.932 111.069C521.15 111.051 520.533 111.189 520.078 111.483C519.622 111.778 519.369 112.197 519.328 112.74V112.763C519.282 113.324 519.456 113.784 519.852 114.148C520.248 114.511 520.796 114.719 521.5 114.778C522.112 114.829 522.673 114.742 523.184 114.525C523.695 114.309 524.109 113.987 524.436 113.563C524.758 113.14 524.947 112.648 524.988 112.086L525.269 108.649C525.324 107.94 525.149 107.365 524.739 106.918C524.33 106.477 523.713 106.223 522.903 106.154C522.158 106.095 521.541 106.205 521.053 106.495C520.566 106.78 520.248 107.185 520.092 107.696L520.059 107.793L518.177 107.641L518.2 107.521C518.311 106.886 518.578 106.32 518.996 105.828C519.415 105.335 519.972 104.963 520.662 104.705C521.352 104.447 522.153 104.36 523.064 104.433C523.98 104.507 524.762 104.728 525.407 105.096C526.051 105.464 526.53 105.947 526.852 106.55C527.169 107.153 527.298 107.839 527.234 108.616L526.58 116.67L524.634 116.513L524.786 114.622L524.739 114.617C524.482 115.022 524.15 115.372 523.755 115.657C523.354 115.943 522.917 116.154 522.434 116.292C521.951 116.43 521.449 116.476 520.929 116.435C520.156 116.375 519.493 116.177 518.936 115.837Z" fill="#C4D9DC"/>
<path d="M532.683 116.749C532.209 116.187 532.03 115.35 532.149 114.241L532.899 107.191L531.201 107.011L531.371 105.4L533.07 105.58L533.401 102.441L535.412 102.653L535.076 105.792L537.289 106.026L537.119 107.637L534.906 107.402L534.16 114.443C534.096 115.06 534.183 115.492 534.427 115.741C534.671 115.989 535.053 116.141 535.578 116.196C535.697 116.21 535.812 116.215 535.918 116.215C536.024 116.215 536.125 116.215 536.203 116.215L536.038 117.789C535.918 117.793 535.762 117.793 535.568 117.789C535.375 117.789 535.182 117.775 534.989 117.757C533.925 117.651 533.157 117.315 532.683 116.749Z" fill="#C4D9DC"/>
<path d="M556.801 104.02L558.729 104.332L557.712 110.642L557.758 110.651C558.172 110.048 558.715 109.62 559.387 109.353C560.059 109.086 560.823 109.026 561.684 109.164C562.503 109.298 563.193 109.611 563.745 110.108C564.297 110.605 564.693 111.231 564.928 111.99C565.163 112.749 565.204 113.596 565.052 114.526L563.911 121.59L561.983 121.277L563.069 114.544C563.239 113.499 563.115 112.648 562.71 111.981C562.3 111.314 561.647 110.909 560.745 110.766C560.151 110.669 559.613 110.729 559.12 110.936C558.628 111.148 558.218 111.479 557.892 111.935C557.565 112.39 557.349 112.947 557.243 113.605L556.157 120.338L554.229 120.025L556.801 104.02Z" fill="#C4D9DC"/>
<path d="M570.492 122.257C569.792 121.622 569.318 120.817 569.065 119.85C568.812 118.884 568.798 117.798 569.029 116.601V116.592C569.254 115.409 569.668 114.406 570.266 113.587C570.865 112.768 571.601 112.179 572.471 111.824C573.341 111.47 574.298 111.392 575.342 111.59C576.387 111.792 577.238 112.202 577.901 112.828C578.564 113.454 579.015 114.24 579.249 115.184C579.489 116.127 579.498 117.176 579.277 118.322L579.144 119.031L569.898 117.259L570.184 115.759L578.481 117.347L577.243 118.552L577.386 117.812C577.556 116.923 577.565 116.159 577.404 115.529C577.248 114.899 576.958 114.392 576.543 114.02C576.125 113.647 575.614 113.403 575.002 113.283C574.39 113.168 573.815 113.21 573.271 113.417C572.728 113.624 572.264 113.987 571.873 114.521C571.481 115.055 571.205 115.745 571.04 116.597L570.897 117.338C570.74 118.147 570.75 118.865 570.915 119.491C571.081 120.117 571.389 120.632 571.836 121.033C572.287 121.438 572.853 121.705 573.548 121.834C574.031 121.926 574.482 121.935 574.891 121.861C575.301 121.788 575.66 121.645 575.968 121.438C576.277 121.231 576.516 120.968 576.691 120.66L576.741 120.568L578.628 120.932L578.587 121.037C578.403 121.488 578.136 121.898 577.786 122.257C577.441 122.616 577.027 122.915 576.548 123.145C576.069 123.38 575.545 123.527 574.974 123.601C574.404 123.67 573.805 123.647 573.179 123.527C572.089 123.32 571.191 122.897 570.492 122.257Z" fill="#C4D9DC"/>
<path d="M585.733 109.289L587.642 109.699L584.256 125.552L582.346 125.143L585.733 109.289Z" fill="#C4D9DC"/>
<path d="M591.696 115.207L593.597 115.658L593.141 117.582L593.183 117.591C593.528 117.204 593.915 116.891 594.347 116.661C594.775 116.427 595.24 116.279 595.742 116.215C596.243 116.15 596.763 116.178 597.302 116.307C598.273 116.537 599.06 116.979 599.672 117.637C600.284 118.295 600.684 119.114 600.873 120.094C601.061 121.074 601.015 122.165 600.735 123.357L600.73 123.366C600.445 124.563 599.998 125.552 599.382 126.339C598.77 127.126 598.042 127.674 597.21 127.991C596.377 128.309 595.484 128.35 594.527 128.12C593.993 127.996 593.514 127.789 593.091 127.508C592.663 127.227 592.309 126.882 592.023 126.482C591.738 126.077 591.526 125.63 591.388 125.138L591.347 125.129L589.985 130.858L588.084 130.407L591.696 115.207ZM596.386 126.242C596.956 126.017 597.444 125.617 597.858 125.05C598.273 124.484 598.576 123.767 598.783 122.911L598.788 122.901C598.995 122.027 599.041 121.245 598.931 120.55C598.82 119.855 598.558 119.284 598.148 118.829C597.739 118.373 597.2 118.065 596.533 117.908C595.893 117.756 595.281 117.798 594.702 118.028C594.122 118.258 593.62 118.658 593.187 119.22C592.755 119.781 592.442 120.49 592.24 121.346L592.235 121.355C592.032 122.202 592 122.97 592.134 123.67C592.267 124.369 592.539 124.949 592.948 125.419C593.358 125.883 593.882 126.196 594.522 126.348C595.199 126.5 595.815 126.468 596.386 126.242Z" fill="#C4D9DC"/>
<path d="M729.856 113.398C729.856 113.398 656.205 124.352 636.404 99.2871" stroke="#C4D9DC" stroke-width="0.2" stroke-miterlimit="10"/>
<path d="M729.855 117.849C729.855 117.849 643.137 149.315 636.742 158.9" stroke="#C4D9DC" stroke-width="0.2" stroke-miterlimit="10"/>
</svg>
