<svg width="670" height="725" viewBox="0 0 670 725" fill="none" xmlns="http://www.w3.org/2000/svg">
<g clip-path="url(#clip0_4068_29407)">
<g opacity="0.8">
<path d="M380.297 347.738L374.516 344.019L342.532 362.199L300.275 386.222L307.34 390.842L380.297 347.738ZM374.502 344.553L379.423 347.72L307.354 390.299L301.159 386.25L374.502 344.553Z" fill="#E9EEF1"/>
<path d="M331.361 406.489L337.529 410.208L355.806 399.631L356.897 399.001L357.988 398.371L361.237 396.491L361.928 396.091L362.618 395.691L411.13 367.619L408.175 365.693L405.22 363.767L368.293 385.124L331.361 406.489ZM410.246 367.596L362.153 395.425L361.463 395.825L360.772 396.225L358.365 397.617L357.274 398.247L356.183 398.877L337.533 409.67L332.268 406.494L405.206 364.31L410.246 367.596Z" fill="#E9EEF1"/>
<path d="M632.278 166.576L624.84 163.542C624.813 163.533 624.79 163.524 624.762 163.515C621.31 159.304 616.284 155.512 610.323 153.011L601.238 149.201C594.532 146.387 587.577 145.647 582.155 147.169C581.216 147.431 574.971 149.256 571.086 152.147C568.624 153.682 566.953 155.847 566.226 158.477L560.053 180.776L540.391 169.909C540.179 169.794 539.926 169.794 539.719 169.914L451.758 219.567C451.725 219.586 451.702 219.609 451.675 219.627C451.656 219.641 451.633 219.655 451.615 219.669C451.583 219.701 451.56 219.733 451.532 219.77C451.523 219.784 451.509 219.793 451.505 219.806C451.472 219.857 451.449 219.912 451.431 219.972C451.426 219.981 451.426 219.995 451.426 220.004C451.417 220.05 451.403 220.096 451.403 220.147V220.151C451.403 220.151 451.403 220.151 451.403 220.156L450.547 282.506C450.543 282.745 450.667 282.97 450.869 283.099L459.269 288.404L283.756 388.773C280.047 363.404 268.333 339.993 249.849 321.537C227.162 298.88 196.996 286.399 164.911 286.399C132.826 286.399 102.665 298.88 79.9741 321.537C57.2876 344.194 44.7914 374.321 44.7914 406.365C44.7914 408.388 44.842 410.401 44.9387 412.405C43.7098 412.442 42.642 412.681 41.7629 413.141C41.39 413.334 34.1409 417.181 33.0362 421.953C32.5714 423.534 32.6588 425.837 34.035 429.206L35.738 433.601C30.3943 432.24 24.664 433.555 20.402 437.324C15.2102 441.912 13.3507 449.092 15.675 455.619L41.8043 527.861L42.6282 548.096L98.5872 579.74L99.2684 580.126L99.968 579.713L197.526 521.867C217.115 516.383 235.07 505.944 249.853 491.184C250.125 490.913 250.383 490.642 250.649 490.37L318.212 450.31L290.149 525.457C289.454 527.324 289.523 529.346 290.352 531.157C291.18 532.968 292.667 534.347 294.531 535.046C295.369 535.359 296.248 535.52 297.136 535.52C300.234 535.52 303.046 533.571 304.132 530.67L307.916 520.543L348.189 536.034L343.678 548.119C342.242 551.971 344.208 556.274 348.065 557.708C348.902 558.021 349.781 558.182 350.674 558.182C353.772 558.182 356.584 556.233 357.67 553.332L393.916 456.272C394.05 455.913 394.192 455.559 394.34 455.215L402.845 474.057C404.534 477.803 408.962 479.476 412.718 477.789C414.923 476.796 416.405 474.856 416.911 472.664L450.98 484.758L456.374 496.709C458.063 500.456 462.491 502.129 466.247 500.442C469.998 498.755 471.673 494.333 469.984 490.582L451.076 448.696C444.665 434.488 431.11 425.892 415.59 426.067L403.016 418.859C403.25 417.852 403.379 416.79 403.379 415.687C403.379 409.859 399.835 405.064 395.338 404.595L645.681 256.162L646.017 255.96V235.619L646.008 235.537C646.012 235.504 646.026 235.477 646.026 235.44L646.072 234.888L645.626 234.741L641.787 232.388L652.221 195.219C655.158 184.72 646.588 172.41 632.278 166.576ZM582.523 148.493C587.651 147.059 594.274 147.776 600.699 150.469L609.785 154.28C614.664 156.326 618.894 159.254 622.088 162.545C622.429 162.894 622.76 163.248 623.077 163.607C623.395 163.965 623.694 164.328 623.984 164.692C627.551 169.16 629.199 174.055 628.044 178.229L627.602 179.879L627.418 180.564L627.238 181.226L617.485 217.485L617.297 218.179L617.108 218.873L609.072 248.752L609.343 228.821L612.823 216.249L613.016 215.559L613.209 214.87L622.355 181.824C622.576 181.028 622.7 180.215 622.741 179.383C622.755 179.139 622.755 178.891 622.755 178.643C622.751 178.39 622.742 178.137 622.723 177.884C622.359 172.593 618.779 166.824 613.173 162.186C612.873 161.938 612.565 161.69 612.252 161.451C611.948 161.216 611.635 160.982 611.318 160.752C608.92 159.005 606.223 157.466 603.295 156.243L594.21 152.432C588.852 150.189 583.439 149.283 578.754 149.734C580.006 149.256 581.285 148.842 582.523 148.493ZM618.71 218.234L628.499 181.828C634.851 185.097 637.631 189.914 637.313 191.036L628.067 223.976L618.71 218.234ZM627.685 225.355L621.209 248.417L608.979 255.67L608.998 254.351L618.337 219.627L627.685 225.355ZM567.224 160.035L567.556 158.84C567.813 157.911 568.209 157.052 568.729 156.266C569.47 155.14 570.474 154.17 571.716 153.374C572.117 153.117 572.54 152.878 572.991 152.657C578.284 150.092 586.017 150.478 593.68 153.692L602.766 157.502C604.998 158.44 607.097 159.562 609.021 160.817C609.343 161.028 609.661 161.239 609.969 161.456C610.277 161.672 610.581 161.892 610.88 162.113C616.776 166.489 620.689 172.125 621.301 177.291C621.333 177.549 621.351 177.806 621.365 178.064C621.379 178.316 621.384 178.565 621.379 178.813C621.37 179.714 621.255 180.592 621.02 181.442L611.98 214.107L611.787 214.796L611.594 215.486L609.412 223.364L609.536 214.226L609.546 213.422L609.555 212.617L609.61 208.6C609.615 208.223 609.426 207.883 609.108 207.685C608.924 207.575 608.717 207.529 608.505 207.538L600.041 202.858L599.42 202.514L598.798 202.169L587.375 195.857L586.753 195.513L586.132 195.168L563.791 182.821L563.16 182.472L562.53 182.122L561.282 181.433L567.224 160.035ZM499.653 251.028L498.834 311.769L468.037 292.315L468.852 231.57L499.653 251.028ZM500.108 251.317L511.518 258.525L512.177 258.943L512.835 259.361L517.493 262.303L517.203 283.618L516.839 310.307L516.83 311.116L516.821 311.925L516.669 323.035L507.671 317.349L507.017 316.936L506.363 316.522L499.298 312.058L500.108 251.317ZM514.197 258.585L513.7 258.272L513.534 258.166L513.415 258.093L500.297 249.805L587.872 197.719L598.43 203.552L599.052 203.897L599.673 204.242L607.014 208.296L604.722 209.661L604.446 209.827L603.746 210.241L596.76 214.396L584.383 221.756L578.469 225.272L552.961 240.441L518.201 261.113L514.197 258.585ZM518.206 311.093L518.215 310.284L518.225 309.475L518.869 262.317L529.183 256.18L550.632 243.425L590.592 219.655L594.44 217.366L594.656 217.237L595.425 216.782L595.627 216.662L602.053 212.842L604.966 211.109L606.038 210.471L608.225 209.17L608.188 211.79L608.179 212.594L608.169 213.399L607.962 228.628L607.926 231.349L607.889 234.07L607.613 254.163L607.59 255.781L607.58 256.498V256.525L607.571 257.307L607.562 258.116L607.401 269.948L594.26 277.758L530.219 315.819L518.04 323.054L518.206 311.093ZM560.891 182.807L582.372 194.676L586.882 197.168L587.006 197.237L587.407 197.457L499.865 249.524L490.323 243.493L469.308 230.218L557.052 180.679L559.722 182.155L560.891 182.807ZM487.193 201.144L487.654 200.886L497.444 195.361L540.059 171.302L556.578 180.431L468.866 229.947L453.442 220.202L487.193 201.144ZM451.937 282.138L452.77 221.406L468.396 231.28L467.582 292.026L461.948 288.468L461.29 288.05L460.632 287.631L451.937 282.138ZM283.954 390.249L460.59 289.24L505.024 317.312L432.615 360.246L367.805 398.67L367.124 399.075L366.443 399.479L359.668 403.497L358.301 404.31L356.805 405.198L353.588 407.105L352.483 407.758L351.378 408.411L332.834 419.406L331.366 420.279L330.013 421.079L275.462 453.422C276.894 450.066 278.173 446.651 279.287 443.171C279.315 443.176 279.342 443.185 279.37 443.19L279.467 442.739C279.453 442.734 279.439 442.73 279.425 442.73C283.107 431.119 285.027 418.887 285.027 406.361C285.031 400.927 284.663 395.549 283.954 390.249ZM282.896 419.751C279.812 418.234 269.709 412.92 268.296 407.799C268.103 407.105 268.144 406.655 268.416 406.457C269.958 405.331 277.745 410.438 281.487 412.888C282.297 413.417 282.937 413.839 283.393 414.12C283.273 416.004 283.107 417.885 282.896 419.751ZM283.65 406.361C283.65 408.783 283.568 411.196 283.425 413.596C282.983 413.315 282.399 412.934 281.74 412.502C276.033 408.765 269.801 404.876 268.144 406.085C267.702 406.406 267.606 407.022 267.854 407.919C268.581 410.548 271.458 413.481 276.406 416.643C279.057 418.335 281.616 419.64 282.845 420.238C282.546 422.821 282.164 425.382 281.699 427.924C278.132 425.809 262.741 416.542 252.734 408.107C252.546 407.946 252.362 407.79 252.178 407.634C251.993 407.473 251.805 407.317 251.625 407.156C246.986 403.106 243.759 399.318 243.911 396.712C243.976 395.6 244.666 394.768 246.019 394.179C250.728 392.134 257.995 393.306 268.048 397.765C268.305 397.88 268.563 397.994 268.825 398.114C269.083 398.229 269.336 398.348 269.599 398.468C273.81 400.422 278.491 402.922 283.65 405.974C283.646 406.099 283.65 406.232 283.65 406.361ZM242.438 316.536C241.26 316.526 240.027 316.49 238.692 316.416C225.676 315.713 215.899 312.633 208.807 306.997C205.06 304.019 201.986 300.245 199.012 296.595C197.756 295.051 196.467 293.465 195.455 291.722C212.705 296.278 228.722 304.69 242.438 316.536ZM194.833 291.562C195.892 293.492 197.291 295.216 198.653 296.889C201.645 300.557 204.733 304.35 208.521 307.361C215.688 313.056 225.551 316.173 238.664 316.876C240.206 316.959 241.624 317 242.963 317C244.984 318.765 246.954 320.599 248.868 322.511C259.804 333.433 268.337 346.12 274.22 359.92C265.668 355.102 256.371 350.772 248.864 347.274C242.19 344.167 235.29 340.954 227.931 339.432C222.297 338.264 216.558 338.113 210.869 338.977L210.339 339.06C208.738 339.308 207.081 339.57 205.544 339.147C204.471 338.853 203.583 338.186 202.644 337.478C202.257 337.189 201.861 336.89 201.452 336.619C191.644 330.17 179.704 319.395 178.503 304.694L178.489 304.511C178.36 302.961 178.227 301.357 178.452 299.804C178.802 297.381 179.64 295.745 180.445 294.159C181.196 292.688 181.973 291.171 182.342 289.043C186.567 289.659 190.732 290.504 194.833 291.562ZM181.886 288.978C181.532 291.015 180.804 292.444 180.036 293.947C179.212 295.565 178.356 297.234 177.997 299.735C177.767 301.343 177.9 302.971 178.034 304.547L178.047 304.731C179.262 319.615 191.308 330.496 201.199 337C201.594 337.262 201.986 337.557 202.368 337.842C203.297 338.545 204.264 339.271 205.419 339.588C207.053 340.034 208.761 339.768 210.409 339.51L210.938 339.427C216.571 338.572 222.26 338.724 227.839 339.878C235.148 341.39 242.02 344.59 248.67 347.688C256.325 351.25 265.838 355.686 274.519 360.614C277.888 368.667 280.36 377.098 281.874 385.781C281.446 385.372 281.045 384.99 280.673 384.632C276.783 380.904 275.329 379.511 269.658 375.815C264.536 372.473 258.916 369.835 253.476 367.284C241.209 361.529 228.525 355.576 215.241 351.811C214.201 351.517 213.152 351.232 212.107 350.951C207.242 349.637 202.207 348.276 197.866 345.651C196.228 344.658 194.667 343.477 193.158 342.333C191.335 340.949 189.448 339.515 187.395 338.407C186.364 337.851 185.273 337.359 184.215 336.885C181.923 335.86 179.552 334.798 177.79 333.015C175.824 331.025 174.779 328.317 173.771 325.697C173.385 324.695 172.984 323.656 172.538 322.668C171.797 321.036 170.886 319.45 170.002 317.919C168.584 315.455 167.116 312.909 166.375 310.142C164.041 301.426 167.134 295.616 172.262 288.022C175.502 288.206 178.71 288.528 181.886 288.978ZM149.787 288.73C149.124 294.775 150.404 300.898 153.423 306.032C153.58 306.299 153.741 306.561 153.897 306.823C154.546 307.889 155.218 308.988 155.54 310.188C155.876 311.447 155.826 313.277 154.565 314.306C153.469 315.198 151.78 315.244 149.396 314.435C143.058 312.288 137.305 308.56 132.757 303.66C131.63 302.447 130.24 300.806 129.499 298.87C128.946 297.432 128.753 295.85 128.569 294.324C128.532 294.035 128.495 293.745 128.458 293.455C135.367 291.235 142.496 289.649 149.787 288.73ZM128.012 293.593C128.044 293.855 128.081 294.113 128.113 294.375C128.302 295.928 128.495 297.537 129.071 299.031C129.839 301.04 131.266 302.727 132.421 303.968C137.024 308.923 142.842 312.693 149.249 314.867C150.431 315.267 151.458 315.469 152.342 315.469C153.368 315.469 154.201 315.203 154.859 314.665C156.291 313.497 156.36 311.461 155.987 310.068C155.646 308.804 154.956 307.678 154.293 306.584C154.132 306.322 153.975 306.064 153.819 305.798C150.832 300.718 149.575 294.651 150.257 288.666C155.085 288.077 159.977 287.778 164.916 287.778C167.203 287.778 169.477 287.852 171.742 287.976C166.633 295.565 163.586 301.435 165.942 310.247C166.697 313.074 168.184 315.648 169.615 318.135C170.494 319.657 171.401 321.229 172.128 322.842C172.57 323.817 172.966 324.851 173.353 325.849C174.379 328.515 175.438 331.268 177.472 333.328C179.295 335.171 181.706 336.251 184.035 337.295C185.085 337.763 186.171 338.251 187.184 338.802C189.204 339.896 191.077 341.317 192.886 342.691C194.405 343.845 195.975 345.035 197.632 346.038C202.032 348.694 207.095 350.064 211.992 351.388C213.037 351.673 214.081 351.954 215.122 352.248C228.368 356.003 241.035 361.947 253.282 367.693C258.704 370.239 264.31 372.869 269.405 376.192C275.034 379.865 276.484 381.249 280.35 384.953C280.852 385.436 281.4 385.956 281.998 386.526C282.164 387.518 282.316 388.511 282.458 389.509C282.495 389.752 282.523 390.001 282.56 390.244C282.592 390.488 282.629 390.736 282.661 390.98C282.928 393.044 283.144 395.117 283.301 397.204C281.621 395.963 279.927 394.735 278.224 393.517C278.017 393.37 277.81 393.223 277.603 393.076C277.395 392.929 277.188 392.782 276.981 392.635C255.054 377.139 230.881 363.772 206.57 353.742C205.626 353.351 204.554 352.91 203.417 352.882C201.875 352.845 200.481 353.595 199.459 354.987C198.11 356.84 197.696 359.492 198.428 361.593C199.753 365.385 203.514 367.9 206.257 369.738L223.627 381.373C229.652 385.409 235.663 389.9 237.173 396.459C237.472 397.76 237.426 398.712 237.035 399.447C236.004 401.373 233.159 401.143 230.95 400.615C204.977 394.395 177.813 384.429 145.461 369.246C138.57 366.015 131.593 362.305 128.541 355.723C127.565 353.618 126.401 348.579 127.75 346.851C132.951 340.149 145.566 345.615 155.701 350.009C161.312 352.441 166.136 354.546 169.1 354.422C171.912 354.307 173.725 353.493 174.499 351.999C176.188 348.736 172.478 343.036 170.264 339.63L169.924 339.101C162.467 327.572 139.044 318.935 118.383 311.314C112.763 309.241 107.438 307.273 102.647 305.333C110.623 300.424 119.129 296.485 128.012 293.593ZM80.9544 322.511C87.4442 316.03 94.5598 310.394 102.159 305.651C107.033 307.632 112.473 309.641 118.222 311.76C138.819 319.358 162.164 327.968 169.537 339.368L169.878 339.896C172.036 343.22 175.654 348.777 174.089 351.802C173.399 353.135 171.714 353.87 169.077 353.976C166.242 354.086 161.441 352.009 155.881 349.6C145.599 345.146 132.808 339.597 127.381 346.58C125.904 348.483 127.078 353.677 128.122 355.93C131.238 362.655 138.299 366.406 145.267 369.674C177.651 384.871 204.844 394.846 230.849 401.074C231.751 401.29 232.759 401.456 233.721 401.456C235.277 401.456 236.726 401.024 237.445 399.677C238.038 398.574 237.831 397.259 237.629 396.367C236.082 389.642 229.993 385.087 223.89 381L206.519 369.366C203.03 367.031 200.048 364.824 198.87 361.45C198.184 359.488 198.571 357.001 199.836 355.268C200.761 353.994 202.041 353.31 203.408 353.351C204.462 353.379 205.488 353.801 206.395 354.174C230.614 364.162 254.691 377.47 276.544 392.892C276.751 393.039 276.958 393.186 277.165 393.333C277.372 393.48 277.58 393.628 277.787 393.775C279.655 395.108 281.515 396.45 283.351 397.811C283.531 400.334 283.627 402.872 283.646 405.423C278.693 402.499 274.178 400.086 270.086 398.178C269.829 398.059 269.571 397.944 269.318 397.824C269.06 397.705 268.798 397.585 268.545 397.47C258.198 392.846 250.705 391.628 245.84 393.747C244.33 394.404 243.529 395.388 243.456 396.675C243.299 399.406 246.535 403.276 251.202 407.39C251.381 407.551 251.565 407.712 251.754 407.868C251.938 408.025 252.122 408.185 252.311 408.346C262.488 417.002 278.224 426.402 281.621 428.402C280.732 433.15 279.559 437.821 278.104 442.39C269.893 440.105 262.814 433.936 255.344 427.423C250.41 423.12 245.375 418.73 239.893 415.448C239.663 415.31 239.437 415.177 239.207 415.044C238.977 414.91 238.742 414.777 238.508 414.648C235.129 412.773 231.576 411.334 227.77 410.617C212.227 407.675 205.217 403.069 200.103 399.704C198.571 398.698 197.25 397.829 195.938 397.172C194.98 396.694 192.909 395.995 190.042 395.025C175.59 390.148 141.751 378.725 116.381 352.326C98.4491 333.668 83.2419 330.289 73.2496 330.979C75.6568 328.064 78.2296 325.233 80.9544 322.511ZM72.8261 331.489C90.284 330.036 105.928 342.139 116.036 352.657C141.484 379.139 175.396 390.584 189.881 395.471C192.73 396.432 194.787 397.126 195.717 397.59C197.001 398.233 198.313 399.093 199.832 400.095C204.977 403.483 212.029 408.121 227.664 411.077C231.323 411.771 234.752 413.136 238.02 414.924C238.255 415.053 238.489 415.182 238.724 415.315C238.954 415.448 239.184 415.582 239.41 415.715C244.947 418.992 250.033 423.428 255.017 427.772C262.524 434.318 269.64 440.514 277.943 442.831C276.65 446.839 275.149 450.774 273.433 454.617C273.423 454.64 273.41 454.668 273.396 454.691C273.152 454.861 272.839 455.04 272.443 455.201C272.033 455.366 271.546 455.518 270.952 455.619C265.732 456.525 252.256 453.872 220.258 426.664C220.074 426.508 219.885 426.347 219.701 426.191C219.517 426.035 219.328 425.874 219.144 425.713C218.702 425.336 218.261 424.954 217.81 424.568C189.936 400.481 180.956 398.289 170.559 395.751C162.707 393.834 153.805 391.66 134.957 379.235C120.39 369.633 111.682 361.496 104.686 354.96C92.7326 343.794 86.6065 338.081 66.7046 339.653C68.6285 336.858 70.6629 334.132 72.8261 331.489ZM66.3824 340.14C86.3717 338.485 92.4564 344.153 104.387 355.295C111.396 361.846 120.123 369.996 134.718 379.621C153.635 392.092 162.578 394.276 170.467 396.202C180.804 398.725 189.733 400.904 217.524 424.918C217.92 425.258 218.32 425.607 218.735 425.956C218.919 426.113 219.103 426.274 219.292 426.434C219.476 426.591 219.664 426.752 219.849 426.908C233.965 438.901 256.532 456.235 269.074 456.235C269.737 456.235 270.367 456.185 270.97 456.083C270.993 456.079 271.021 456.079 271.044 456.074C271.895 455.927 272.558 455.688 273.069 455.431C273.023 455.527 272.982 455.624 272.936 455.72C272.765 456.088 272.604 456.456 272.429 456.823C267.785 466.674 261.751 475.905 254.433 484.266C253.181 479.214 251.547 474.576 249.554 470.388C249.453 470.182 249.356 469.97 249.255 469.763C249.154 469.556 249.048 469.35 248.947 469.147C247.34 465.957 245.518 463.038 243.479 460.409C237.265 452.392 229.035 447.009 219.015 444.403C212.411 442.684 206.036 440.666 199.859 438.34C199.579 438.234 199.298 438.129 199.022 438.023C198.745 437.917 198.469 437.811 198.193 437.701C181.739 431.321 166.716 422.716 152.682 411.661C135.809 398.371 123.244 383.731 113.15 371.968C109.072 367.215 105.22 362.728 101.625 358.959C91.8811 348.74 78.9753 344.061 63.2342 345.045C64.2376 343.39 65.2916 341.753 66.3824 340.14ZM53.3017 365.744C66.9394 358.444 76.8995 357.382 82.9013 362.609C88.2128 367.233 90.4451 371.609 89.3635 375.264C88.1207 379.465 82.6758 382.457 74.032 383.689C64.1732 385.096 53.6055 392.363 46.2412 402.747C46.6187 389.946 49.0212 377.488 53.3017 365.744ZM42.4072 414.363C43.116 413.996 43.9997 413.798 45.0307 413.77C45.2563 413.766 45.4864 413.761 45.7257 413.775C45.9513 413.784 46.1814 413.803 46.4161 413.826C49.2606 414.106 52.9473 415.389 57.1357 417.613L59.1056 418.657L59.5107 418.873L66.7414 422.711C68.9875 423.902 71.0265 424.931 72.9964 425.929C73.7743 426.32 74.5199 426.701 75.2471 427.069C75.3806 427.138 75.5141 427.207 75.6476 427.271C80.1582 429.583 83.7068 431.587 86.496 434.313C86.6295 434.442 86.7584 434.571 86.8872 434.704C88.7651 436.635 90.2886 438.933 91.5221 441.944L103.811 471.602L103.986 472.029L110.536 487.833L110.803 488.477L111.07 489.12L122.733 517.271L123.078 518.103L123.455 519.008L131.436 538.264L125.31 542.171L114.259 515.193L113.854 514.2L113.486 513.299L105.003 492.591L104.741 491.947L104.479 491.304L98.983 477.89L98.716 477.238L86.4546 447.308C85.4788 444.927 84.342 442.974 83.0118 441.291C82.8829 441.126 82.7495 440.965 82.616 440.804C80.4619 438.23 77.82 436.304 74.5705 434.424C74.4371 434.345 74.299 434.267 74.1609 434.189C72.1127 433.026 69.8298 431.872 67.2753 430.581C65.31 429.588 63.2802 428.563 61.0434 427.377L56.2428 424.83L55.8378 424.614L51.4422 422.279C49.8865 421.452 48.3999 420.757 46.9869 420.188C46.7429 420.091 46.5036 419.999 46.2689 419.907C46.0249 419.815 45.781 419.723 45.537 419.636C41.9101 418.344 38.8816 417.976 36.6723 418.56C39.0427 416.142 42.352 414.391 42.4072 414.363ZM125.2 519.638C134.253 522.796 143.716 524.869 153.423 525.784L132.812 538.006L125.2 519.638ZM35.3238 428.696C34.9003 427.666 34.6011 426.715 34.4124 425.832C34.1501 424.623 34.1133 423.566 34.2928 422.688C34.4585 421.888 34.7991 421.231 35.3284 420.753C37.1234 419.13 40.8469 419.319 45.6981 421.162C45.9421 421.254 46.1906 421.355 46.4392 421.456C46.6831 421.553 46.927 421.654 47.1756 421.764C48.3308 422.261 49.5367 422.835 50.7887 423.502L55.198 425.841L55.603 426.058L60.3898 428.6C62.6359 429.79 64.6748 430.82 66.6448 431.817C69.4018 433.21 71.832 434.442 73.986 435.697C74.1241 435.78 74.2622 435.858 74.4002 435.941C77.6727 437.885 80.2732 439.926 82.3444 442.734C82.4779 442.914 82.6114 443.098 82.7402 443.286C83.6516 444.61 84.457 446.104 85.1658 447.837L98.1591 479.559L98.4905 480.363L103.259 492.002L103.521 492.646L103.784 493.289L111.613 512.398L111.985 513.308L112.4 514.319L123.4 541.174L123.612 541.693L120.928 540.268L116.188 537.754L109.781 534.352L109.169 532.775L108.713 531.608L108.257 530.44L99.0336 506.721L98.5872 505.572L98.1591 504.478L95.6231 497.96L95.3699 497.312L95.1168 496.663L87.2186 476.35C85.7182 472.489 83.8357 468.821 81.6172 465.401C81.4607 465.157 81.2996 464.918 81.1385 464.679C78.9339 461.383 76.4162 458.317 73.6132 455.523C73.4613 455.376 73.3094 455.228 73.1575 455.077C68.7298 450.756 63.6208 447.106 57.978 444.284L51.2673 440.933L50.4619 440.528L49.5874 440.091L39.6594 435.132L39.1624 434.883C39.0013 434.801 38.831 434.736 38.6653 434.658C38.3477 434.511 38.0255 434.373 37.6987 434.244C37.6067 434.208 37.5192 434.18 37.4272 434.143L36.5204 431.799L35.3238 428.696ZM123.8 543.348L115.253 548.418L110.549 536.315L123.8 543.348ZM42.8169 526.597L16.9776 455.155C14.8466 449.161 16.5542 442.569 21.3225 438.358C25.4971 434.672 31.1952 433.532 36.3686 435.214C36.6585 435.306 36.9439 435.416 37.2293 435.531C37.5284 435.646 37.823 435.78 38.1176 435.913C38.2602 435.977 38.4029 436.037 38.541 436.106L38.6193 436.147L39.6272 436.653L40.6352 437.159L50.1305 441.889L51.0188 442.335L51.8519 442.748L57.3658 445.502C63.3079 448.467 68.6331 452.374 73.1805 457.03C73.3324 457.187 73.4889 457.343 73.6408 457.499C76.5037 460.496 79.0489 463.792 81.226 467.345C81.3917 467.617 81.5574 467.888 81.7231 468.164C83.3524 470.917 84.7654 473.813 85.9391 476.838L93.9109 497.344L94.164 497.996L94.4172 498.645L96.134 503.057L96.5712 504.184L97.0315 505.365L106.214 528.988L106.669 530.155L107.125 531.323L107.917 533.359L108.299 534.343L108.681 535.327L114.047 549.135L114.301 549.788L114.554 550.441L117.062 556.894C117.674 558.476 117.638 560.2 116.952 561.749C116.266 563.298 115.019 564.493 113.44 565.104C112.699 565.389 111.926 565.536 111.143 565.536C108.501 565.536 106.177 563.946 105.22 561.487L103.475 557.005L103.222 556.352L102.969 555.699L91.5037 526.207L91.1217 525.223L90.7396 524.239L88.3048 517.969L87.8492 516.802L87.3935 515.634L83.265 505.016L83.0118 504.368L82.7587 503.719L76.4576 487.516L75.7534 485.709L75.1597 484.179L75.04 483.866L74.5567 482.62L74.0919 481.43C71.1646 473.896 66.3502 467.35 60.1735 462.34C59.7546 461.999 59.3358 461.659 58.9031 461.337C58.4751 461.016 58.0378 460.708 57.6006 460.4C55.7273 459.085 53.7528 457.895 51.677 456.86L49.6702 455.858L48.6622 455.353L47.6543 454.847L44.9295 453.486L44.0136 453.027L43.0976 452.567L32.8659 447.46C32.4287 447.244 31.9914 447.134 31.5634 447.134C30.919 447.134 30.2977 447.382 29.7407 447.869C28.8202 448.683 28.5441 449.763 28.9537 450.912L53.5226 520.41L51.2443 521.739L42.8353 526.653L42.8169 526.597ZM45.6705 455.394L48.6346 456.874L49.6426 457.38L50.6506 457.885L51.0602 458.088C53.9415 459.526 56.6248 461.264 59.0964 463.245C59.6211 463.668 60.1366 464.1 60.6429 464.541C61.1906 465.024 61.7291 465.521 62.2539 466.026C66.4561 470.099 69.839 474.981 72.1864 480.442C72.3981 480.933 72.6098 481.425 72.8031 481.931L73.0609 482.597L73.8387 484.597L81.5436 504.414L81.7967 505.062L82.0499 505.71L85.3453 514.186L85.801 515.354L86.2567 516.521L88.871 523.251L69.4248 512.931L68.7022 512.55L67.9795 512.168L67.5883 511.961L45.6705 455.394ZM66.5711 512.973L54.7469 519.734L30.2516 450.448C30.0307 449.827 30.1596 449.335 30.6521 448.894C31.1492 448.457 31.6508 448.393 32.2446 448.687L43.8341 454.475L66.4008 512.692L66.4929 512.931L66.5711 512.973ZM43.9767 547.273L43.2265 528.749L97.7725 559.593L97.975 564.553L98.5273 578.118L43.9767 547.273ZM98.4307 558.388L43.9629 527.586L51.8887 522.957L68.0072 513.74L89.635 525.218L101.763 556.412L98.4307 558.388ZM99.9035 578.15L99.3512 564.539L99.1487 559.57L102.274 557.717L103.931 561.983C105.095 564.98 107.926 566.915 111.143 566.915C112.101 566.915 113.039 566.736 113.942 566.391C115.866 565.647 117.384 564.194 118.217 562.305C119.051 560.416 119.097 558.319 118.351 556.393L115.76 549.724L155.789 525.991C158.808 526.216 161.855 526.331 164.916 526.331C174.411 526.331 183.736 525.228 192.753 523.104L99.9035 578.15ZM201.36 519.275C200.78 519.459 200.204 519.647 199.62 519.826C198.741 520.093 197.857 520.35 196.969 520.594C186.663 523.462 175.902 524.947 164.911 524.947C162.559 524.947 160.221 524.869 157.892 524.736C157.483 524.713 157.073 524.69 156.668 524.662C156.268 524.635 155.867 524.607 155.462 524.575C144.779 523.738 134.382 521.495 124.491 517.928L112.271 488.431L112.004 487.787L111.737 487.144L105.367 471.772C108.193 471.496 111.857 472.521 116.33 474.861C119.566 476.553 122.705 477.955 125.757 479.131C126.037 479.237 126.314 479.343 126.59 479.449C126.875 479.554 127.156 479.655 127.437 479.761C139.307 484.059 149.805 484.956 159.328 485.769C172.989 486.932 184.786 487.934 195.57 498.87C195.975 499.284 196.366 499.693 196.739 500.106C196.895 500.281 197.052 500.456 197.204 500.63C197.36 500.81 197.512 500.984 197.659 501.164C202.382 506.804 203.854 512.311 202.059 517.583C201.94 517.933 201.806 518.277 201.659 518.622C201.567 518.838 201.466 519.054 201.36 519.275ZM218.482 512.256C213.34 514.857 208.015 517.073 202.547 518.893C202.349 518.958 202.151 519.022 201.953 519.086C202.078 518.806 202.193 518.521 202.299 518.236C202.423 517.905 202.538 517.569 202.639 517.234C204.186 512.003 202.63 506.454 198.055 500.925C197.908 500.745 197.756 500.571 197.604 500.391C197.452 500.217 197.3 500.037 197.144 499.863C196.748 499.421 196.334 498.98 195.901 498.543C185.002 487.488 173.122 486.477 159.37 485.305C149.98 484.505 139.634 483.622 127.966 479.458C127.681 479.357 127.4 479.256 127.114 479.15C126.838 479.049 126.557 478.938 126.277 478.833C123.133 477.638 119.893 476.199 116.547 474.452C111.926 472.039 108.128 471 105.187 471.331L92.797 441.424C91.6924 438.731 90.3806 436.579 88.825 434.759C92.9029 435.398 99.1671 439.071 107.65 444.054C118.139 450.213 132.389 458.575 150.013 465.263C150.289 465.369 150.569 465.475 150.85 465.58C151.131 465.686 151.407 465.792 151.693 465.893C158.776 468.504 166.384 470.834 174.508 472.636C194.244 477.017 205.401 484.018 211.55 491.327C211.702 491.506 211.849 491.685 211.996 491.864C212.144 492.048 212.286 492.228 212.429 492.411C216.558 497.757 218.113 503.205 218.482 507.852C218.5 508.109 218.518 508.367 218.532 508.624C218.546 508.891 218.555 509.148 218.56 509.41C218.569 510.403 218.541 511.359 218.482 512.256ZM218.956 512.007C219.011 511.102 219.029 510.141 218.997 509.134C218.988 508.877 218.974 508.615 218.96 508.353C218.946 508.1 218.928 507.843 218.905 507.585C218.505 502.924 216.921 497.495 212.816 492.168C212.673 491.984 212.535 491.805 212.388 491.621C212.245 491.442 212.093 491.262 211.946 491.083C205.746 483.687 194.497 476.603 174.595 472.186C166.637 470.421 159.167 468.141 152.203 465.589C151.923 465.484 151.637 465.383 151.357 465.277C151.076 465.171 150.8 465.065 150.519 464.96C132.766 458.262 118.42 449.841 107.875 443.649C99.0244 438.45 92.5669 434.663 88.3647 434.24C85.2717 430.843 81.2352 428.577 75.9283 425.869C77.5715 418.271 80.2456 412.364 84.4248 409.909C88.314 407.625 93.3171 408.539 99.2868 412.644C101.34 414.051 103.553 416.827 106.361 420.335C115.134 431.316 129.927 449.823 164.58 456.92C164.921 456.989 165.27 457.058 165.616 457.122C165.961 457.191 166.301 457.26 166.651 457.325C175.046 458.897 184.569 459.811 195.409 459.811C206.828 459.811 215.195 463.057 220.277 469.46C223.089 473.004 224.916 477.495 225.758 482.882C225.795 483.126 225.832 483.37 225.869 483.618C225.901 483.866 225.933 484.114 225.965 484.363C226.637 489.989 226.297 496.544 224.944 503.995C224.888 504.294 224.838 504.593 224.778 504.896C224.723 505.195 224.658 505.498 224.599 505.802C224.368 506.965 224.111 508.151 223.83 509.355C222.228 510.288 220.603 511.166 218.956 512.007ZM224.378 509.052C224.654 507.847 224.902 506.661 225.132 505.498C225.192 505.195 225.252 504.892 225.307 504.593C225.363 504.289 225.418 503.995 225.468 503.696C226.785 496.273 227.093 489.736 226.394 484.119C226.361 483.871 226.334 483.622 226.297 483.374C226.26 483.126 226.223 482.882 226.182 482.639C225.312 477.247 223.466 472.751 220.636 469.18C215.462 462.661 206.975 459.356 195.409 459.356C184.827 459.356 175.511 458.483 167.273 456.971C166.923 456.906 166.573 456.842 166.228 456.773C165.883 456.709 165.533 456.64 165.192 456.571C130.322 449.574 115.497 431.031 106.72 420.045C103.889 416.505 101.657 413.706 99.5491 412.263C93.4184 408.052 88.2496 407.128 84.1901 409.514C79.9326 412.014 77.2079 417.995 75.5325 425.671C74.9111 425.354 74.2714 425.032 73.6132 424.701C71.6479 423.709 69.6181 422.684 67.3812 421.498L60.2057 417.687C66.1937 407.625 73.8755 397.958 82.8277 395.08C87.7617 393.494 92.7648 394.119 97.6989 396.946C106.959 402.246 113.155 408.668 119.709 415.467C132.32 428.54 145.336 442.036 181.688 447.147C182.061 447.198 182.429 447.253 182.806 447.304C183.179 447.354 183.561 447.4 183.939 447.451C185.366 447.635 186.825 447.805 188.32 447.961C205.889 449.8 219.075 456.663 227.517 468.361C229.74 471.446 231.622 474.834 233.155 478.516C233.242 478.732 233.334 478.943 233.422 479.159C233.509 479.375 233.592 479.596 233.675 479.812C235.636 484.854 236.97 490.421 237.665 496.475C237.693 496.723 237.721 496.976 237.748 497.229C237.776 497.482 237.808 497.73 237.831 497.983C237.891 498.603 237.937 499.233 237.983 499.863C233.647 503.246 229.1 506.312 224.378 509.052ZM249.784 489.281C249.48 489.594 249.181 489.906 248.873 490.214C248.518 490.568 248.159 490.908 247.8 491.258C247.059 491.979 246.309 492.692 245.554 493.391C243.244 495.528 240.864 497.569 238.42 499.5C238.374 498.897 238.324 498.3 238.268 497.711C238.245 497.459 238.213 497.21 238.186 496.958C238.158 496.705 238.13 496.457 238.103 496.204C237.394 490.159 236.05 484.602 234.08 479.559C233.997 479.343 233.914 479.122 233.827 478.906C233.739 478.69 233.647 478.479 233.56 478.263C232.013 474.576 230.126 471.174 227.894 468.076C219.374 456.267 206.077 449.34 188.371 447.488C187.087 447.354 185.83 447.212 184.601 447.055C184.219 447.009 183.847 446.959 183.469 446.908C183.092 446.858 182.714 446.807 182.342 446.757C145.695 441.732 132.661 428.218 120.04 415.131C113.463 408.31 107.249 401.865 97.929 396.533C92.8799 393.641 87.7479 393.002 82.685 394.63C73.5994 397.549 65.8393 407.317 59.8006 417.457L57.7801 416.386C53.3155 414.014 49.4125 412.676 46.3287 412.424C46.2274 410.406 46.1768 408.383 46.1768 406.351C46.1768 405.427 46.1906 404.503 46.209 403.579C53.518 392.989 64.1732 385.551 74.0919 384.135C82.9244 382.876 88.5028 379.768 89.8007 375.383C90.9376 371.54 88.6547 366.999 83.2005 362.25C77.1112 356.946 67.1327 357.902 53.541 365.082C56.0587 358.297 59.1931 351.747 62.935 345.518C78.6715 344.461 91.5727 349.085 101.289 359.272C104.874 363.032 108.727 367.518 112.8 372.262C122.908 384.039 135.491 398.698 152.397 412.014C166.37 423.019 181.32 431.606 197.678 437.986C197.954 438.092 198.225 438.202 198.501 438.308C198.778 438.414 199.058 438.519 199.339 438.625C205.64 441.011 212.148 443.079 218.896 444.835C232.216 448.301 242.148 456.529 248.569 469.354C248.67 469.561 248.776 469.763 248.877 469.97C248.979 470.177 249.075 470.388 249.177 470.595C251.17 474.815 252.799 479.508 254.06 484.671C252.679 486.247 251.252 487.778 249.784 489.281ZM302.834 530.187C301.951 532.55 299.659 534.141 297.136 534.141C296.409 534.141 295.696 534.012 295.01 533.754C293.486 533.189 292.276 532.063 291.604 530.587C290.932 529.112 290.872 527.462 291.438 525.94L320.099 449.188L336.774 439.301L311.013 508.275L309.37 507.645C306.76 506.638 303.759 507.498 302.084 509.737C300.892 511.327 300.519 513.331 301.072 515.239C301.624 517.146 303 518.65 304.855 519.367L306.622 520.047L302.834 530.187ZM383.928 432.162L387.026 439.03C384.034 442.472 381.613 446.513 379.92 451.055L352.58 524.267L312.307 508.776L338.671 438.184L370.093 419.553C370.277 419.613 370.461 419.677 370.645 419.746L377.678 423.778C380.15 425.86 382.322 428.609 383.928 432.162ZM381.954 426.223L393.727 432.971C391.675 434.414 389.769 436.065 388.039 437.908L385.19 431.592C384.269 429.565 383.174 427.786 381.954 426.223ZM308.394 519.247L307.75 518.999L307.106 518.751L305.352 518.075C303.902 517.519 302.83 516.347 302.397 514.853C301.969 513.363 302.259 511.8 303.189 510.559C304.132 509.304 305.61 508.601 307.124 508.601C307.713 508.601 308.307 508.707 308.873 508.927L310.53 509.566L311.174 509.815L311.819 510.063L352.092 525.554L348.663 534.738L308.394 519.247ZM412.138 476.521C409.082 477.895 405.473 476.53 404.093 473.477L395.099 453.555C397.354 449.152 400.604 446.076 404.162 444.068L410.762 458.69C408.479 458.152 406.007 458.924 404.562 460.699C403.457 462.059 403.085 463.783 403.549 465.433C404.042 467.185 405.363 468.554 407.176 469.203L415.59 472.19C415.213 474.038 413.988 475.689 412.138 476.521ZM405.381 443.419C406.675 442.785 407.991 442.289 409.307 441.907L409.45 441.99L409.519 441.852C411.457 441.314 413.381 441.029 415.194 440.969C422.83 440.721 432.675 444.224 437.453 454.815L444.605 470.66L412.538 459.278L405.381 443.419ZM417.086 471.257L416.405 471.014L415.714 470.77L407.637 467.902C406.251 467.41 405.243 466.376 404.875 465.061C404.534 463.847 404.811 462.574 405.63 461.572C406.509 460.496 407.885 459.894 409.298 459.894C409.851 459.894 410.407 459.986 410.946 460.174L411.521 460.381L412.423 460.703L413.326 461.025L445.392 472.406L450.179 483.007L417.086 471.257ZM415.217 427.441C415.484 427.437 415.751 427.427 416.018 427.427C416.032 427.427 416.041 427.427 416.055 427.427C416.299 427.427 416.543 427.437 416.787 427.441C431.257 427.708 443.786 435.927 449.806 449.257L468.714 491.143C470.09 494.195 468.728 497.799 465.667 499.178C462.611 500.552 459.002 499.187 457.621 496.135L452.77 485.388L452.379 484.514L451.988 483.641L447.201 473.041L446.81 472.167L446.419 471.294L438.723 454.24C433.665 443.029 423.24 439.324 415.157 439.581C413.616 439.632 411.991 439.834 410.352 440.211C410.058 440.28 409.763 440.353 409.469 440.432C409.174 440.51 408.875 440.592 408.58 440.684C408.286 440.776 407.991 440.868 407.692 440.969C406.73 441.3 405.768 441.691 404.82 442.151C404.613 442.252 404.41 442.358 404.203 442.463C404.001 442.569 403.798 442.679 403.596 442.794C400.042 444.775 396.77 447.754 394.39 451.96C394.248 452.208 394.109 452.461 393.976 452.719C393.838 452.981 393.709 453.247 393.58 453.518C393.235 454.236 392.913 454.985 392.618 455.771L356.372 552.831C355.489 555.194 353.197 556.784 350.674 556.784C349.947 556.784 349.234 556.655 348.548 556.398C345.404 555.226 343.802 551.723 344.976 548.584L349.482 536.513L349.721 535.864L349.961 535.216L353.39 526.032L353.629 525.384L353.868 524.736L381.213 451.51C382.769 447.345 384.959 443.612 387.657 440.399C387.822 440.206 387.983 440.009 388.154 439.82C388.319 439.632 388.49 439.448 388.66 439.259C390.579 437.159 392.724 435.297 395.062 433.716C395.274 433.573 395.49 433.431 395.707 433.288C395.923 433.146 396.144 433.008 396.365 432.87C397.078 432.429 397.815 432.015 398.56 431.624C398.763 431.518 398.97 431.413 399.177 431.312C399.384 431.21 399.591 431.109 399.798 431.008C404.337 428.852 409.395 427.602 414.752 427.423C414.904 427.441 415.061 427.441 415.217 427.441ZM412.994 426.163C408.079 426.531 403.434 427.772 399.223 429.767C399.016 429.864 398.809 429.969 398.602 430.07C398.395 430.172 398.187 430.277 397.985 430.383C396.963 430.916 395.969 431.495 395.002 432.116L378.502 422.656L371.566 418.68L371.635 418.638L375.027 416.625L389.962 425.101C390.653 425.653 391.412 426.09 392.213 426.379L392.812 426.719L392.83 426.577C393.405 426.729 394.004 426.811 394.616 426.811C395.186 426.811 395.743 426.738 396.282 426.609C396.507 426.554 396.728 426.485 396.949 426.411C397.166 426.333 397.382 426.251 397.589 426.154C399.826 425.124 401.644 422.964 402.611 420.22L412.994 426.163ZM387.468 422.1L376.394 415.816L383.832 411.403L384.476 411.022L385.134 410.631L385.507 410.41L386.188 410.006L386.87 409.601L387.468 409.247C387.371 409.422 387.275 409.601 387.187 409.78C387.086 409.987 386.989 410.194 386.897 410.41C386.805 410.622 386.722 410.842 386.644 411.058C386.575 411.251 386.51 411.445 386.451 411.638C386.377 411.881 386.308 412.125 386.244 412.373C386.184 412.621 386.133 412.874 386.082 413.132C385.931 413.95 385.848 414.8 385.848 415.673C385.852 418.068 386.451 420.284 387.468 422.1ZM401.989 415.678C401.989 416.524 401.897 417.342 401.745 418.124C401.699 418.363 401.649 418.597 401.589 418.827C401.529 419.057 401.469 419.286 401.395 419.512C400.576 422.031 398.974 423.998 397 424.895C396.788 424.991 396.572 425.074 396.356 425.143C396.13 425.216 395.905 425.271 395.674 425.317C395.329 425.382 394.979 425.428 394.62 425.428C394.063 425.428 393.52 425.34 392.996 425.184C392.77 425.115 392.545 425.037 392.328 424.945C391.762 424.697 391.224 424.361 390.727 423.948C388.637 422.224 387.242 419.167 387.242 415.678C387.242 415.177 387.279 414.69 387.334 414.212C387.367 413.936 387.403 413.665 387.454 413.393C387.505 413.127 387.555 412.865 387.62 412.612C387.693 412.322 387.776 412.037 387.868 411.757C387.942 411.532 388.02 411.316 388.108 411.1C388.195 410.884 388.292 410.672 388.393 410.465C389.106 408.976 390.119 407.763 391.316 406.967C391.514 406.834 391.721 406.714 391.928 406.604C392.531 406.292 393.166 406.076 393.833 405.979C394.063 405.947 394.298 405.933 394.533 405.928C394.561 405.928 394.588 405.924 394.616 405.924C394.823 405.924 395.025 405.942 395.228 405.965C399.002 406.379 401.989 410.571 401.989 415.678ZM644.544 236.185C644.544 236.185 644.549 236.185 644.553 236.185C644.576 236.185 644.599 236.185 644.627 236.185V255.165L393.373 404.14L392.568 404.618L391.762 405.096L391.251 405.4L390.625 405.772L385.498 408.815L384.817 409.22L384.136 409.624L383.892 409.767L383.22 410.167L382.561 410.557L376.79 413.982L375.837 414.547L374.884 415.113L370.185 417.898L369.918 418.055L369.504 418.303L369.108 418.537L368.823 418.707L368.27 419.034L339.439 436.129L338.491 436.69L337.543 437.251L320.867 447.138L319.919 447.699L318.971 448.26L254.092 486.725C262.58 477.353 269.428 466.858 274.51 455.592L328.591 423.525L329.764 422.831L331.007 422.095L352.506 409.348L353.187 408.944L353.868 408.539L360.077 404.857L361.343 404.108L362.54 403.4L367.819 400.27L368.5 399.865L369.182 399.461L506.331 318.14L516.968 324.86C516.973 324.86 516.977 324.865 516.982 324.865C516.986 324.87 516.991 324.87 516.991 324.874C517.023 324.893 517.06 324.902 517.092 324.915C517.111 324.925 517.129 324.934 517.152 324.938C517.212 324.957 517.272 324.966 517.336 324.966C517.396 324.966 517.456 324.957 517.511 324.943C517.529 324.938 517.548 324.929 517.566 324.92C517.599 324.906 517.635 324.897 517.668 324.883C517.672 324.883 517.677 324.879 517.681 324.874C517.686 324.874 517.691 324.87 517.695 324.87L608.446 270.936C608.653 270.812 608.782 270.591 608.782 270.352L608.961 257.293L620.675 250.347L620.601 250.605C620.044 252.59 620.293 254.677 621.305 256.475C622.318 258.272 623.97 259.573 625.959 260.129C626.387 260.249 626.824 260.331 627.266 260.377C627.533 260.405 627.8 260.419 628.067 260.419C631.5 260.419 634.552 258.148 635.495 254.778L639.946 238.924L644.544 236.185ZM643.624 235.127L640.485 236.989L641.391 233.758L643.624 235.127ZM650.882 194.837L640.554 231.629L640.36 232.319L640.167 233.008L638.763 238.01L638.492 238.97L638.22 239.931L634.161 254.392C633.323 257.376 630.479 259.311 627.404 258.994C627.045 258.957 626.681 258.888 626.332 258.791C624.698 258.332 623.34 257.27 622.507 255.79C621.674 254.31 621.471 252.6 621.927 250.968L622.387 249.322L622.659 248.361L622.93 247.401L628.909 226.109L629.102 225.419L629.296 224.73L638.648 191.412C639.205 189.422 635.804 183.952 628.868 180.477L629.374 178.592C630.483 174.579 629.259 169.978 626.35 165.652L631.753 167.854C645.414 173.425 653.639 185.023 650.882 194.837Z" fill="#E9EEF1"/>
<path d="M546.37 198.942C544.57 199.967 544.372 201.116 544.694 202.238L544.648 202.265C542.835 201.833 541.058 201.971 539.415 202.909C537.657 203.911 537.533 205.046 537.846 205.933L536.249 205.088L533.851 206.453L546.232 212.989L548.63 211.624L541.095 207.643C539.254 206.669 539.093 205.46 540.686 204.55C542.352 203.598 543.737 203.984 545.408 204.862L553.232 208.995L555.653 207.616L548.119 203.635C546.278 202.661 546.094 201.465 547.714 200.541C549.352 199.608 550.742 199.985 552.413 200.868L560.238 205L562.654 203.621L554.102 199.107C551.428 197.705 548.717 197.6 546.37 198.942Z" fill="#E9EEF1"/>
<path d="M543.35 213.256C542.619 213.674 542.011 213.523 541.219 213.1L535.333 209.988C532.042 208.25 529.082 208.788 526.505 210.254C522.993 212.258 523.421 214.06 525.681 215.38L528.01 214.051C526.523 213.141 526.601 212.406 528.521 211.316C530.118 210.406 531.296 210.48 532.194 210.953C533.381 211.578 532.525 212.332 531.089 213.55C528.774 215.531 527.729 217.057 530.445 218.492C532.53 219.59 535.438 219.526 537.813 218.174C539.613 217.149 540.188 215.996 539.829 215.007L539.875 214.984C541.316 215.495 542.393 215.412 543.668 214.686C544.128 214.424 544.464 214.175 544.796 213.752L543.585 213.113C543.498 213.169 543.424 213.215 543.35 213.256ZM536.322 216.823C535.02 217.563 533.754 217.595 532.617 216.998C531.356 216.331 531.618 215.518 533.142 214.143C534.016 213.38 534.665 212.691 534.762 212.318L536.626 213.302C538.633 214.359 538.306 215.692 536.322 216.823Z" fill="#E9EEF1"/>
<path d="M528.669 218.841L526.275 220.206C526.823 220.721 527.334 221.866 525.35 222.997C523.228 224.205 520.255 224.012 518.17 222.914L527.113 217.821C522.704 215.49 518.069 215.072 514.304 217.218C510.792 219.218 511.1 221.811 515.123 223.934C518.998 225.98 523.877 226.127 527.504 224.058C530.487 222.353 530.427 220.422 528.669 218.841ZM516.315 218.276C518.253 217.172 520.913 217.172 522.828 218.184L516.283 221.912C514.368 220.9 514.377 219.379 516.315 218.276Z" fill="#E9EEF1"/>
<path d="M508.016 218.427L505.568 217.136L492.437 224.619L494.885 225.911L500.105 222.937L514.98 230.793L517.691 229.248L502.82 221.392L508.016 218.427Z" fill="#E9EEF1"/>
<path d="M555.414 293.98L560.187 286.924L560.487 265.08L523.099 287.319L522.74 313.401L555.281 294.058L555.414 293.98ZM524.153 310.951L524.466 288.105L559.069 267.526L558.811 286.492L554.443 292.955L524.153 310.951Z" fill="#E9EEF1"/>
</g>
</g>
<defs>
<clipPath id="clip0_4068_29407">
<rect width="670" height="725" fill="white"/>
</clipPath>
</defs>
</svg>
