<svg width="670" height="725" viewBox="0 0 670 725" fill="none" xmlns="http://www.w3.org/2000/svg">
<g clip-path="url(#clip0_4231_30140)">
<g opacity="0.8">
<path d="M380.297 347.738L374.516 344.02L342.532 362.2L300.276 386.222L307.341 390.842L380.297 347.738ZM374.502 344.553L379.423 347.72L307.354 390.299L301.159 386.25L374.502 344.553Z" fill="#E9EEF1"/>
<path d="M331.362 406.49L337.529 410.208L355.806 399.631L356.897 399.002L357.988 398.372L361.238 396.492L361.928 396.092L362.618 395.692L411.13 367.62L408.175 365.694L405.221 363.768L368.293 385.124L331.362 406.49ZM410.247 367.597L362.154 395.425L361.463 395.825L360.773 396.225L358.366 397.618L357.275 398.248L356.184 398.877L337.534 409.671L332.269 406.494L405.207 364.31L410.247 367.597Z" fill="#E9EEF1"/>
<path d="M632.278 166.577L624.84 163.543C624.813 163.534 624.79 163.525 624.762 163.516C621.31 159.305 616.284 155.513 610.324 153.012L601.238 149.201C594.532 146.388 587.577 145.648 582.155 147.17C581.216 147.432 574.971 149.256 571.086 152.148C568.624 153.683 566.953 155.848 566.226 158.478L560.053 180.776L540.391 169.91C540.179 169.795 539.926 169.795 539.719 169.914L451.758 219.568C451.725 219.587 451.702 219.61 451.675 219.628C451.656 219.642 451.633 219.656 451.615 219.669C451.583 219.702 451.56 219.734 451.532 219.77C451.523 219.784 451.509 219.793 451.505 219.807C451.472 219.858 451.449 219.913 451.431 219.973C451.426 219.982 451.426 219.996 451.426 220.005C451.417 220.051 451.403 220.097 451.403 220.147V220.152C451.403 220.152 451.403 220.152 451.403 220.157L450.547 282.507C450.543 282.746 450.667 282.971 450.869 283.1L459.269 288.404L283.756 388.774C280.047 363.405 268.333 339.994 249.849 321.538C227.162 298.88 196.996 286.4 164.911 286.4C132.826 286.4 102.665 298.88 79.9741 321.538C57.2876 344.195 44.7914 374.322 44.7914 406.366C44.7914 408.388 44.842 410.402 44.9387 412.406C43.7098 412.443 42.642 412.682 41.7629 413.141C41.39 413.334 34.1409 417.182 33.0362 421.953C32.5714 423.535 32.6588 425.838 34.035 429.207L35.738 433.601C30.3943 432.241 24.664 433.556 20.402 437.325C15.2102 441.912 13.3507 449.093 15.675 455.62L41.8043 527.862L42.6282 548.097L98.5872 579.741L99.2684 580.127L99.968 579.713L197.526 521.868C217.115 516.384 235.07 505.945 249.853 491.185C250.125 490.914 250.383 490.642 250.649 490.371L318.212 450.311L290.149 525.458C289.454 527.324 289.523 529.347 290.352 531.158C291.18 532.969 292.667 534.348 294.531 535.047C295.369 535.359 296.248 535.52 297.136 535.52C300.234 535.52 303.046 533.571 304.132 530.671L307.916 520.544L348.189 536.035L343.678 548.12C342.242 551.972 344.208 556.275 348.065 557.709C348.902 558.021 349.781 558.182 350.674 558.182C353.772 558.182 356.584 556.233 357.67 553.333L393.916 456.273C394.05 455.914 394.192 455.56 394.34 455.215L402.845 474.057C404.534 477.804 408.962 479.477 412.718 477.79C414.923 476.797 416.405 474.857 416.911 472.665L450.98 484.759L456.374 496.71C458.063 500.456 462.491 502.13 466.247 500.443C469.998 498.756 471.673 494.334 469.984 490.583L451.076 448.697C444.665 434.489 431.11 425.893 415.59 426.067L403.016 418.86C403.25 417.853 403.379 416.791 403.379 415.688C403.379 409.859 399.835 405.065 395.338 404.596L645.681 256.163L646.017 255.961V235.62L646.008 235.537C646.012 235.505 646.026 235.478 646.026 235.441L646.072 234.889L645.626 234.742L641.787 232.388L652.221 195.219C655.158 184.72 646.588 172.41 632.278 166.577ZM582.524 148.493C587.651 147.059 594.274 147.776 600.699 150.47L609.785 154.281C614.664 156.326 618.894 159.254 622.088 162.546C622.429 162.895 622.76 163.249 623.077 163.608C623.395 163.966 623.694 164.329 623.984 164.692C627.551 169.16 629.199 174.056 628.044 178.23L627.602 179.88L627.418 180.565L627.238 181.227L617.485 217.486L617.297 218.18L617.108 218.874L609.072 248.753L609.343 228.821L612.823 216.249L613.016 215.56L613.209 214.87L622.355 181.824C622.576 181.029 622.7 180.216 622.741 179.384C622.755 179.14 622.755 178.892 622.755 178.643C622.751 178.391 622.741 178.138 622.723 177.885C622.359 172.594 618.779 166.825 613.173 162.187C612.873 161.939 612.565 161.691 612.252 161.452C611.948 161.217 611.635 160.983 611.318 160.753C608.92 159.006 606.223 157.466 603.295 156.244L594.21 152.433C588.852 150.19 583.439 149.284 578.754 149.735C580.006 149.256 581.285 148.843 582.524 148.493ZM618.71 218.235L628.499 181.829C634.851 185.097 637.631 189.915 637.313 191.036L628.067 223.976L618.71 218.235ZM627.685 225.355L621.209 248.417L608.98 255.671L608.998 254.352L618.337 219.628L627.685 225.355ZM567.224 160.036L567.556 158.841C567.813 157.912 568.209 157.053 568.729 156.267C569.47 155.14 570.474 154.17 571.716 153.375C572.117 153.118 572.54 152.879 572.991 152.658C578.284 150.093 586.017 150.479 593.68 153.692L602.766 157.503C604.998 158.441 607.097 159.562 609.021 160.817C609.343 161.029 609.661 161.24 609.969 161.456C610.277 161.672 610.581 161.893 610.88 162.114C616.776 166.49 620.689 172.125 621.301 177.292C621.333 177.549 621.351 177.807 621.365 178.064C621.379 178.317 621.384 178.565 621.379 178.814C621.37 179.714 621.255 180.592 621.02 181.443L611.98 214.107L611.787 214.797L611.594 215.486L609.412 223.365L609.536 214.227L609.546 213.422L609.555 212.618L609.61 208.6C609.615 208.223 609.426 207.883 609.108 207.686C608.924 207.575 608.717 207.529 608.505 207.539L600.041 202.859L599.42 202.514L598.798 202.17L587.375 195.858L586.753 195.513L586.132 195.169L563.791 182.822L563.16 182.473L562.53 182.123L561.282 181.434L567.224 160.036ZM499.653 251.028L498.834 311.77L468.037 292.316L468.852 231.57L499.653 251.028ZM500.108 251.318L511.518 258.526L512.177 258.944L512.835 259.362L517.493 262.304L517.203 283.619L516.839 310.308L516.83 311.117L516.821 311.926L516.669 323.036L507.671 317.35L507.017 316.936L506.363 316.523L499.298 312.059L500.108 251.318ZM514.197 258.585L513.7 258.273L513.534 258.167L513.415 258.093L500.297 249.806L587.872 197.72L598.43 203.553L599.052 203.898L599.673 204.243L607.014 208.297L604.722 209.662L604.446 209.828L603.746 210.241L596.76 214.397L584.383 221.756L578.469 225.273L552.961 240.442L518.201 261.114L514.197 258.585ZM518.206 311.094L518.215 310.285L518.225 309.476L518.869 262.318L529.183 256.181L550.632 243.425L590.592 219.656L594.44 217.366L594.656 217.238L595.425 216.783L595.627 216.663L602.053 212.843L604.966 211.11L606.038 210.471L608.225 209.17L608.188 211.791L608.179 212.595L608.17 213.399L607.962 228.628L607.926 231.35L607.889 234.071L607.613 254.163L607.59 255.781L607.58 256.498V256.526L607.571 257.307L607.562 258.116L607.401 269.948L594.26 277.758L530.219 315.819L518.04 323.055L518.206 311.094ZM560.891 182.808L582.372 194.677L586.882 197.168L587.006 197.237L587.407 197.458L499.865 249.525L490.323 243.494L469.308 230.219L557.052 180.68L559.722 182.155L560.891 182.808ZM487.193 201.144L487.654 200.887L497.444 195.362L540.059 171.302L556.578 180.432L468.866 229.948L453.442 220.203L487.193 201.144ZM451.937 282.139L452.77 221.407L468.396 231.281L467.582 292.027L461.948 288.469L461.29 288.05L460.632 287.632L451.937 282.139ZM283.954 390.25L460.59 289.241L505.024 317.313L432.615 360.247L367.805 398.671L367.124 399.075L366.443 399.48L359.668 403.497L358.301 404.311L356.805 405.198L353.588 407.106L352.483 407.759L351.378 408.411L332.834 419.407L331.366 420.28L330.013 421.08L275.462 453.423C276.894 450.067 278.173 446.652 279.287 443.172C279.315 443.177 279.342 443.186 279.37 443.19L279.467 442.74C279.453 442.735 279.439 442.731 279.425 442.731C283.107 431.119 285.027 418.887 285.027 406.361C285.031 400.928 284.663 395.55 283.954 390.25ZM282.896 419.752C279.812 418.235 269.709 412.921 268.296 407.8C268.103 407.106 268.144 406.655 268.416 406.458C269.958 405.332 277.745 410.439 281.487 412.889C282.297 413.417 282.937 413.84 283.393 414.121C283.273 416.005 283.107 417.885 282.896 419.752ZM283.65 406.361C283.65 408.784 283.568 411.197 283.425 413.596C282.983 413.316 282.399 412.935 281.74 412.502C276.033 408.765 269.801 404.876 268.144 406.085C267.702 406.407 267.606 407.023 267.854 407.92C268.581 410.549 271.458 413.482 276.406 416.644C279.057 418.336 281.616 419.641 282.845 420.239C282.546 422.822 282.164 425.383 281.699 427.925C278.132 425.81 262.741 416.543 252.735 408.108C252.546 407.947 252.362 407.791 252.178 407.635C251.993 407.474 251.805 407.317 251.625 407.156C246.986 403.107 243.759 399.319 243.911 396.713C243.976 395.6 244.666 394.768 246.019 394.18C250.728 392.134 257.995 393.306 268.048 397.765C268.305 397.88 268.563 397.995 268.825 398.115C269.083 398.23 269.336 398.349 269.599 398.469C273.81 400.422 278.491 402.923 283.65 405.975C283.646 406.099 283.65 406.233 283.65 406.361ZM242.438 316.536C241.26 316.527 240.027 316.49 238.692 316.417C225.676 315.714 215.899 312.634 208.807 306.998C205.06 304.019 201.986 300.246 199.012 296.596C197.756 295.051 196.467 293.465 195.455 291.723C212.705 296.279 228.722 304.691 242.438 316.536ZM194.833 291.562C195.892 293.493 197.291 295.217 198.653 296.89C201.645 300.558 204.733 304.35 208.521 307.361C215.688 313.057 225.551 316.173 238.664 316.877C240.206 316.959 241.624 317.001 242.963 317.001C244.984 318.766 246.954 320.6 248.868 322.512C259.804 333.434 268.337 346.121 274.22 359.92C265.668 355.103 256.371 350.773 248.864 347.275C242.19 344.167 235.29 340.954 227.931 339.433C222.297 338.265 216.558 338.113 210.869 338.978L210.339 339.06C208.738 339.309 207.081 339.571 205.544 339.148C204.471 338.854 203.583 338.187 202.644 337.479C202.257 337.19 201.861 336.891 201.452 336.62C191.644 330.17 179.704 319.396 178.503 304.695L178.489 304.511C178.36 302.962 178.227 301.358 178.452 299.804C178.802 297.382 179.64 295.745 180.445 294.159C181.196 292.689 181.973 291.172 182.342 289.043C186.567 289.659 190.732 290.505 194.833 291.562ZM181.886 288.979C181.532 291.015 180.804 292.445 180.036 293.948C179.212 295.566 178.356 297.235 177.997 299.735C177.767 301.344 177.9 302.971 178.034 304.548L178.047 304.732C179.262 319.616 191.308 330.497 201.199 337.001C201.594 337.263 201.986 337.557 202.368 337.842C203.297 338.546 204.264 339.272 205.419 339.589C207.053 340.035 208.761 339.768 210.409 339.511L210.938 339.428C216.571 338.573 222.26 338.725 227.839 339.879C235.148 341.391 242.02 344.59 248.67 347.688C256.325 351.251 265.838 355.687 274.519 360.614C277.888 368.668 280.36 377.098 281.874 385.782C281.446 385.373 281.045 384.991 280.673 384.632C276.783 380.905 275.329 379.512 269.658 375.816C264.536 372.474 258.916 369.836 253.476 367.284C241.209 361.529 228.525 355.576 215.241 351.812C214.201 351.518 213.152 351.233 212.107 350.952C207.242 349.637 202.207 348.277 197.866 345.652C196.228 344.659 194.667 343.478 193.158 342.333C191.335 340.95 189.448 339.515 187.395 338.408C186.364 337.851 185.273 337.36 184.215 336.886C181.923 335.861 179.552 334.799 177.79 333.016C175.824 331.025 174.779 328.318 173.771 325.698C173.385 324.696 172.984 323.657 172.538 322.668C171.797 321.037 170.886 319.451 170.002 317.92C168.584 315.456 167.116 312.91 166.375 310.142C164.041 301.427 167.134 295.617 172.262 288.023C175.502 288.207 178.71 288.528 181.886 288.979ZM149.787 288.731C149.124 294.775 150.404 300.898 153.423 306.033C153.58 306.299 153.741 306.561 153.897 306.823C154.546 307.89 155.218 308.989 155.54 310.188C155.876 311.448 155.826 313.277 154.565 314.307C153.469 315.199 151.78 315.245 149.396 314.436C143.058 312.289 137.305 308.561 132.757 303.661C131.63 302.447 130.24 300.806 129.499 298.871C128.946 297.432 128.753 295.851 128.569 294.325C128.532 294.035 128.495 293.746 128.458 293.456C135.367 291.236 142.496 289.65 149.787 288.731ZM128.012 293.594C128.044 293.856 128.081 294.113 128.113 294.376C128.302 295.929 128.495 297.538 129.071 299.032C129.839 301.041 131.266 302.728 132.421 303.969C137.024 308.924 142.842 312.694 149.249 314.868C150.431 315.268 151.458 315.47 152.342 315.47C153.368 315.47 154.201 315.203 154.859 314.666C156.291 313.498 156.36 311.462 155.987 310.069C155.646 308.805 154.956 307.678 154.293 306.584C154.132 306.322 153.975 306.065 153.819 305.798C150.832 300.719 149.575 294.651 150.257 288.666C155.085 288.078 159.977 287.779 164.916 287.779C167.203 287.779 169.477 287.853 171.742 287.977C166.633 295.566 163.586 301.436 165.942 310.248C166.697 313.075 168.184 315.649 169.615 318.136C170.494 319.658 171.401 321.23 172.128 322.843C172.57 323.818 172.966 324.852 173.353 325.849C174.379 328.515 175.438 331.269 177.472 333.328C179.295 335.172 181.706 336.252 184.035 337.295C185.085 337.764 186.171 338.251 187.184 338.803C189.204 339.897 191.077 341.317 192.886 342.692C194.405 343.846 195.975 345.036 197.632 346.038C202.032 348.695 207.095 350.065 211.992 351.389C213.037 351.674 214.081 351.954 215.122 352.248C228.368 356.004 241.035 361.948 253.282 367.693C258.704 370.24 264.31 372.869 269.405 376.193C275.034 379.866 276.484 381.249 280.35 384.954C280.852 385.437 281.4 385.956 281.998 386.526C282.164 387.519 282.316 388.512 282.458 389.51C282.495 389.753 282.523 390.001 282.56 390.245C282.592 390.489 282.629 390.737 282.661 390.981C282.928 393.044 283.144 395.118 283.301 397.205C281.621 395.963 279.927 394.736 278.224 393.518C278.017 393.371 277.81 393.224 277.603 393.077C277.395 392.93 277.188 392.782 276.981 392.635C255.054 377.14 230.881 363.772 206.57 353.742C205.626 353.352 204.554 352.91 203.417 352.883C201.875 352.846 200.481 353.595 199.459 354.988C198.11 356.841 197.696 359.493 198.428 361.594C199.753 365.386 203.514 367.9 206.257 369.739L223.627 381.373C229.652 385.409 235.663 389.9 237.173 396.46C237.472 397.761 237.426 398.712 237.035 399.448C236.004 401.374 233.159 401.144 230.95 400.615C204.977 394.396 177.813 384.43 145.461 369.247C138.57 366.016 131.593 362.306 128.541 355.724C127.565 353.618 126.401 348.58 127.75 346.852C132.951 340.15 145.566 345.615 155.701 350.01C161.312 352.441 166.136 354.547 169.1 354.423C171.912 354.308 173.725 353.494 174.499 352C176.188 348.737 172.478 343.037 170.264 339.63L169.924 339.102C162.467 327.573 139.044 318.936 118.383 311.314C112.763 309.241 107.438 307.274 102.647 305.334C110.623 300.425 119.129 296.485 128.012 293.594ZM80.9544 322.512C87.4442 316.031 94.5598 310.395 102.159 305.651C107.033 307.632 112.473 309.641 118.222 311.76C138.819 319.359 162.164 327.968 169.537 339.368L169.878 339.897C172.036 343.22 175.654 348.778 174.089 351.803C173.399 353.136 171.714 353.871 169.077 353.977C166.242 354.087 161.441 352.009 155.881 349.601C145.599 345.146 132.808 339.598 127.381 346.581C125.904 348.484 127.078 353.678 128.122 355.93C131.238 362.655 138.299 366.406 145.267 369.675C177.651 384.871 204.844 394.846 230.849 401.075C231.751 401.291 232.759 401.457 233.721 401.457C235.277 401.457 236.726 401.024 237.444 399.678C238.038 398.574 237.831 397.26 237.629 396.368C236.082 389.643 229.993 385.088 223.89 381.001L206.519 369.367C203.03 367.032 200.048 364.825 198.87 361.451C198.184 359.488 198.571 357.001 199.836 355.268C200.761 353.995 202.041 353.31 203.408 353.352C204.462 353.379 205.488 353.802 206.395 354.174C230.614 364.163 254.691 377.471 276.544 392.893C276.751 393.04 276.958 393.187 277.165 393.334C277.372 393.481 277.58 393.628 277.787 393.775C279.655 395.108 281.515 396.451 283.351 397.811C283.531 400.335 283.627 402.872 283.646 405.424C278.693 402.5 274.178 400.087 270.086 398.179C269.829 398.06 269.571 397.945 269.318 397.825C269.06 397.706 268.798 397.586 268.545 397.471C258.198 392.847 250.705 391.629 245.84 393.748C244.33 394.405 243.529 395.389 243.456 396.676C243.299 399.406 246.535 403.277 251.202 407.391C251.381 407.552 251.565 407.713 251.754 407.869C251.938 408.025 252.122 408.186 252.311 408.347C262.488 417.003 278.224 426.403 281.621 428.403C280.732 433.151 279.559 437.821 278.104 442.39C269.893 440.106 262.814 433.937 255.344 427.423C250.41 423.121 245.375 418.731 239.893 415.449C239.663 415.311 239.437 415.178 239.207 415.044C238.977 414.911 238.742 414.778 238.508 414.649C235.129 412.774 231.576 411.335 227.77 410.618C212.227 407.676 205.217 403.07 200.103 399.705C198.571 398.698 197.25 397.83 195.938 397.172C194.98 396.694 192.909 395.996 190.042 395.026C175.59 390.149 141.751 378.726 116.381 352.327C98.4491 333.668 83.2419 330.29 73.2496 330.979C75.6568 328.065 78.2297 325.233 80.9544 322.512ZM72.8261 331.49C90.284 330.037 105.928 342.14 116.036 352.658C141.484 379.139 175.396 390.585 189.881 395.472C192.73 396.432 194.787 397.126 195.717 397.591C197.001 398.234 198.313 399.094 199.832 400.096C204.977 403.484 212.029 408.122 227.664 411.077C231.323 411.772 234.752 413.137 238.02 414.925C238.255 415.054 238.489 415.182 238.724 415.316C238.954 415.449 239.184 415.582 239.41 415.716C244.947 418.993 250.033 423.429 255.017 427.773C262.524 434.319 269.64 440.515 277.943 442.832C276.65 446.84 275.149 450.775 273.433 454.618C273.423 454.641 273.41 454.668 273.396 454.691C273.152 454.861 272.839 455.041 272.443 455.202C272.033 455.367 271.546 455.519 270.952 455.62C265.732 456.525 252.256 453.873 220.258 426.665C220.074 426.509 219.885 426.348 219.701 426.192C219.517 426.035 219.328 425.874 219.144 425.714C218.703 425.337 218.261 424.955 217.81 424.569C189.936 400.482 180.956 398.289 170.559 395.752C162.707 393.835 153.805 391.661 134.957 379.236C120.39 369.633 111.682 361.497 104.686 354.961C92.7326 343.795 86.6065 338.081 66.7046 339.653C68.6285 336.859 70.6629 334.133 72.8261 331.49ZM66.3824 340.141C86.3717 338.486 92.4564 344.154 104.387 355.296C111.396 361.846 120.123 369.996 134.718 379.622C153.635 392.093 162.578 394.276 170.467 396.202C180.804 398.726 189.733 400.905 217.524 424.918C217.92 425.258 218.32 425.608 218.735 425.957C218.919 426.113 219.103 426.274 219.292 426.435C219.476 426.591 219.664 426.752 219.849 426.909C233.965 438.902 256.532 456.236 269.074 456.236C269.737 456.236 270.367 456.185 270.97 456.084C270.993 456.08 271.021 456.08 271.044 456.075C271.895 455.928 272.558 455.689 273.069 455.431C273.023 455.528 272.982 455.624 272.936 455.721C272.765 456.089 272.604 456.456 272.429 456.824C267.785 466.675 261.751 475.905 254.433 484.267C253.181 479.215 251.547 474.577 249.554 470.389C249.453 470.182 249.356 469.971 249.255 469.764C249.154 469.557 249.048 469.35 248.947 469.148C247.34 465.958 245.518 463.039 243.479 460.41C237.265 452.393 229.035 447.01 219.015 444.404C212.411 442.685 206.036 440.667 199.859 438.341C199.579 438.235 199.298 438.129 199.022 438.024C198.745 437.918 198.469 437.812 198.193 437.702C181.739 431.322 166.716 422.716 152.682 411.661C135.809 398.372 123.244 383.731 113.15 371.968C109.072 367.215 105.22 362.729 101.625 358.96C91.8811 348.741 78.9753 344.062 63.2342 345.045C64.2376 343.391 65.2916 341.754 66.3824 340.141ZM53.3017 365.744C66.9394 358.445 76.8995 357.383 82.9013 362.609C88.2128 367.234 90.4451 371.61 89.3635 375.264C88.1207 379.466 82.6758 382.458 74.032 383.69C64.1732 385.097 53.6055 392.364 46.2412 402.748C46.6187 389.946 49.0212 377.489 53.3017 365.744ZM42.4072 414.364C43.116 413.996 43.9997 413.799 45.0307 413.771C45.2563 413.767 45.4864 413.762 45.7257 413.776C45.9513 413.785 46.1814 413.803 46.4161 413.826C49.2606 414.107 52.9473 415.389 57.1357 417.614L59.1056 418.657L59.5107 418.874L66.7414 422.712C68.9875 423.902 71.0265 424.932 72.9964 425.93C73.7743 426.32 74.5199 426.702 75.2471 427.07C75.3806 427.138 75.5141 427.207 75.6476 427.272C80.1582 429.584 83.7068 431.588 86.496 434.314C86.6295 434.443 86.7584 434.571 86.8872 434.705C88.7651 436.635 90.2886 438.934 91.5221 441.945L103.811 471.603L103.986 472.03L110.536 487.834L110.803 488.477L111.07 489.121L122.733 517.271L123.078 518.103L123.455 519.009L131.436 538.265L125.31 542.172L114.259 515.194L113.854 514.201L113.486 513.3L105.003 492.591L104.741 491.948L104.479 491.304L98.983 477.891L98.716 477.238L86.4546 447.309C85.4788 444.928 84.342 442.974 83.0118 441.292C82.8829 441.126 82.7495 440.965 82.616 440.805C80.4619 438.23 77.82 436.304 74.5705 434.424C74.4371 434.346 74.299 434.268 74.1609 434.19C72.1127 433.027 69.8298 431.873 67.2753 430.581C65.31 429.589 63.2802 428.563 61.0434 427.378L56.2428 424.831L55.8378 424.615L51.4422 422.28C49.8865 421.452 48.3999 420.758 46.9869 420.188C46.7429 420.092 46.5036 420 46.2689 419.908C46.0249 419.816 45.781 419.724 45.537 419.637C41.9101 418.345 38.8816 417.977 36.6723 418.561C39.0427 416.143 42.352 414.392 42.4072 414.364ZM125.2 519.639C134.253 522.797 143.716 524.87 153.423 525.784L132.812 538.007L125.2 519.639ZM35.3238 428.697C34.9003 427.667 34.6011 426.716 34.4124 425.833C34.1501 424.624 34.1133 423.567 34.2928 422.689C34.4585 421.889 34.7991 421.232 35.3284 420.754C37.1234 419.131 40.8469 419.319 45.6981 421.163C45.9421 421.255 46.1906 421.356 46.4392 421.457C46.6831 421.553 46.927 421.655 47.1756 421.765C48.3308 422.261 49.5367 422.836 50.7887 423.502L55.198 425.842L55.603 426.058L60.3898 428.6C62.6359 429.791 64.6748 430.82 66.6448 431.818C69.4018 433.211 71.832 434.443 73.986 435.698C74.1241 435.78 74.2622 435.859 74.4002 435.941C77.6727 437.886 80.2732 439.927 82.3444 442.735C82.4779 442.914 82.6114 443.098 82.7402 443.287C83.6516 444.611 84.457 446.105 85.1658 447.838L98.1591 479.56L98.4905 480.364L103.259 492.003L103.521 492.647L103.784 493.29L111.613 512.399L111.985 513.309L112.4 514.32L123.4 541.174L123.612 541.694L120.928 540.269L116.188 537.754L109.781 534.353L109.169 532.776L108.713 531.609L108.257 530.441L99.0336 506.722L98.5872 505.573L98.1591 504.479L95.6231 497.96L95.3699 497.312L95.1168 496.664L87.2186 476.351C85.7182 472.49 83.8357 468.822 81.6172 465.402C81.4607 465.158 81.2996 464.919 81.1385 464.68C78.9339 461.384 76.4162 458.318 73.6132 455.523C73.4613 455.376 73.3094 455.229 73.1575 455.077C68.7298 450.757 63.6208 447.107 57.978 444.284L51.2673 440.933L50.4619 440.529L49.5874 440.092L39.6594 435.132L39.1624 434.884C39.0013 434.801 38.831 434.737 38.6653 434.659C38.3477 434.512 38.0255 434.374 37.6987 434.245C37.6067 434.208 37.5192 434.181 37.4272 434.144L36.5204 431.8L35.3238 428.697ZM123.8 543.349L115.253 548.419L110.549 536.316L123.8 543.349ZM42.8169 526.598L16.9776 455.156C14.8466 449.161 16.5542 442.57 21.3225 438.359C25.4971 434.673 31.1952 433.533 36.3686 435.215C36.6585 435.307 36.9439 435.417 37.2293 435.532C37.5284 435.647 37.823 435.78 38.1176 435.914C38.2602 435.978 38.4029 436.038 38.541 436.107L38.6193 436.148L39.6272 436.654L40.6352 437.159L50.1305 441.889L51.0188 442.335L51.8519 442.749L57.3658 445.502C63.3079 448.467 68.6331 452.375 73.1805 457.031C73.3324 457.187 73.4889 457.344 73.6408 457.5C76.5037 460.497 79.0489 463.793 81.226 467.346C81.3917 467.617 81.5574 467.889 81.7231 468.164C83.3524 470.918 84.7654 473.814 85.9391 476.838L93.9109 497.344L94.164 497.997L94.4172 498.645L96.134 503.058L96.5712 504.184L97.0315 505.366L106.214 528.988L106.669 530.156L107.125 531.324L107.917 533.36L108.299 534.344L108.681 535.327L114.047 549.136L114.301 549.789L114.554 550.441L117.062 556.895C117.674 558.476 117.638 560.2 116.952 561.749C116.266 563.298 115.019 564.494 113.44 565.105C112.699 565.39 111.926 565.537 111.143 565.537C108.501 565.537 106.177 563.947 105.22 561.487L103.475 557.006L103.222 556.353L102.969 555.7L91.5037 526.207L91.1217 525.224L90.7396 524.24L88.3049 517.97L87.8492 516.802L87.3935 515.635L83.265 505.016L83.0118 504.368L82.7587 503.72L76.4576 487.517L75.7534 485.71L75.1597 484.179L75.04 483.867L74.5567 482.621L74.0919 481.431C71.1646 473.896 66.3502 467.351 60.1735 462.34C59.7546 462 59.3358 461.66 58.9031 461.338C58.4751 461.016 58.0378 460.708 57.6006 460.4C55.7273 459.086 53.7528 457.895 51.677 456.861L49.6702 455.859L48.6622 455.353L47.6543 454.848L44.9295 453.487L44.0136 453.027L43.0976 452.568L32.8659 447.461C32.4287 447.245 31.9914 447.134 31.5634 447.134C30.919 447.134 30.2977 447.383 29.7407 447.87C28.8202 448.683 28.5441 449.764 28.9537 450.913L53.5226 520.411L51.2443 521.739L42.8353 526.653L42.8169 526.598ZM45.6705 455.395L48.6346 456.875L49.6426 457.38L50.6506 457.886L51.0602 458.088C53.9415 459.527 56.6248 461.265 59.0964 463.246C59.6211 463.669 60.1366 464.101 60.6429 464.542C61.1906 465.025 61.7292 465.521 62.2539 466.027C66.4561 470.1 69.839 474.981 72.1864 480.442C72.3981 480.934 72.6098 481.426 72.8031 481.932L73.0609 482.598L73.8387 484.598L81.5436 504.414L81.7967 505.062L82.0499 505.711L85.3453 514.187L85.801 515.354L86.2567 516.522L88.871 523.252L69.4248 512.932L68.7022 512.55L67.9795 512.169L67.5883 511.962L45.6705 455.395ZM66.5711 512.973L54.7469 519.735L30.2516 450.449C30.0307 449.828 30.1596 449.336 30.6521 448.895C31.1492 448.458 31.6508 448.394 32.2446 448.688L43.8341 454.475L66.4008 512.693L66.4929 512.932L66.5711 512.973ZM43.9767 547.274L43.2265 528.749L97.7725 559.593L97.975 564.553L98.5273 578.118L43.9767 547.274ZM98.4307 558.389L43.9629 527.586L51.8887 522.957L68.0072 513.741L89.635 525.219L101.763 556.413L98.4307 558.389ZM99.9035 578.151L99.3512 564.54L99.1487 559.57L102.274 557.718L103.931 561.984C105.095 564.981 107.926 566.916 111.143 566.916C112.101 566.916 113.039 566.737 113.942 566.392C115.866 565.647 117.384 564.195 118.217 562.306C119.051 560.416 119.097 558.32 118.351 556.394L115.76 549.724L155.789 525.991C158.808 526.217 161.855 526.331 164.916 526.331C174.411 526.331 183.736 525.228 192.753 523.105L99.9035 578.151ZM201.36 519.275C200.78 519.459 200.204 519.648 199.62 519.827C198.741 520.094 197.857 520.351 196.969 520.595C186.663 523.463 175.902 524.948 164.911 524.948C162.559 524.948 160.221 524.87 157.892 524.736C157.483 524.713 157.073 524.69 156.668 524.663C156.268 524.635 155.867 524.608 155.462 524.576C144.779 523.739 134.382 521.496 124.491 517.929L112.271 488.431L112.004 487.788L111.737 487.144L105.367 471.773C108.193 471.497 111.857 472.522 116.33 474.862C119.566 476.553 122.705 477.955 125.757 479.132C126.037 479.238 126.314 479.344 126.59 479.449C126.875 479.555 127.156 479.656 127.437 479.762C139.307 484.06 149.805 484.956 159.328 485.77C172.989 486.933 184.786 487.935 195.57 498.871C195.975 499.284 196.366 499.693 196.739 500.107C196.895 500.282 197.052 500.456 197.204 500.631C197.36 500.81 197.512 500.985 197.659 501.164C202.382 506.805 203.854 512.311 202.059 517.584C201.94 517.933 201.806 518.278 201.659 518.623C201.567 518.839 201.466 519.055 201.36 519.275ZM218.482 512.256C213.34 514.858 208.015 517.074 202.547 518.894C202.349 518.958 202.151 519.023 201.953 519.087C202.078 518.807 202.193 518.522 202.299 518.237C202.423 517.906 202.538 517.57 202.639 517.235C204.186 512.003 202.63 506.455 198.055 500.925C197.908 500.746 197.756 500.571 197.604 500.392C197.452 500.217 197.3 500.038 197.144 499.863C196.748 499.422 196.334 498.981 195.901 498.544C185.002 487.489 173.122 486.478 159.37 485.306C149.98 484.506 139.634 483.623 127.966 479.459C127.681 479.357 127.4 479.256 127.114 479.151C126.838 479.049 126.557 478.939 126.277 478.833C123.133 477.638 119.893 476.199 116.547 474.453C111.926 472.039 108.128 471.001 105.187 471.332L92.797 441.425C91.6924 438.731 90.3806 436.58 88.825 434.76C92.9029 435.399 99.1671 439.072 107.65 444.054C118.139 450.214 132.389 458.576 150.013 465.264C150.289 465.37 150.569 465.475 150.85 465.581C151.131 465.687 151.407 465.792 151.693 465.894C158.776 468.505 166.384 470.835 174.508 472.637C194.244 477.018 205.401 484.019 211.55 491.327C211.702 491.507 211.849 491.686 211.996 491.865C212.144 492.049 212.286 492.228 212.429 492.412C216.558 497.758 218.113 503.205 218.482 507.853C218.5 508.11 218.518 508.367 218.532 508.625C218.546 508.891 218.555 509.149 218.56 509.411C218.569 510.404 218.541 511.36 218.482 512.256ZM218.956 512.008C219.011 511.102 219.029 510.142 218.997 509.135C218.988 508.878 218.974 508.616 218.96 508.354C218.946 508.101 218.928 507.843 218.905 507.586C218.505 502.925 216.921 497.496 212.816 492.169C212.673 491.985 212.535 491.805 212.388 491.622C212.245 491.442 212.093 491.263 211.946 491.084C205.746 483.688 194.497 476.604 174.595 472.187C166.637 470.421 159.167 468.141 152.203 465.59C151.923 465.484 151.637 465.383 151.357 465.278C151.076 465.172 150.8 465.066 150.519 464.96C132.766 458.263 118.42 449.842 107.875 443.65C99.0244 438.451 92.5669 434.663 88.3647 434.24C85.2717 430.843 81.2352 428.577 75.9283 425.87C77.5715 418.271 80.2456 412.365 84.4248 409.91C88.3141 407.625 93.3171 408.54 99.2868 412.645C101.34 414.052 103.553 416.828 106.361 420.335C115.134 431.317 129.927 449.823 164.58 456.921C164.921 456.99 165.27 457.059 165.616 457.123C165.961 457.192 166.301 457.261 166.651 457.325C175.046 458.897 184.569 459.812 195.409 459.812C206.828 459.812 215.195 463.057 220.277 469.461C223.089 473.005 224.916 477.496 225.758 482.883C225.795 483.127 225.832 483.37 225.869 483.619C225.901 483.867 225.933 484.115 225.965 484.363C226.637 489.99 226.297 496.545 224.944 503.996C224.888 504.295 224.838 504.594 224.778 504.897C224.723 505.196 224.658 505.499 224.599 505.802C224.368 506.965 224.111 508.151 223.83 509.356C222.228 510.289 220.603 511.167 218.956 512.008ZM224.378 509.052C224.654 507.848 224.902 506.662 225.132 505.499C225.192 505.196 225.252 504.892 225.307 504.594C225.363 504.29 225.418 503.996 225.468 503.697C226.785 496.273 227.093 489.737 226.394 484.12C226.361 483.871 226.334 483.623 226.297 483.375C226.26 483.127 226.223 482.883 226.182 482.639C225.312 477.248 223.466 472.752 220.636 469.18C215.462 462.662 206.975 459.357 195.409 459.357C184.827 459.357 175.511 458.484 167.273 456.971C166.923 456.907 166.573 456.843 166.228 456.774C165.883 456.709 165.533 456.64 165.192 456.571C130.322 449.575 115.497 431.032 106.72 420.046C103.889 416.506 101.657 413.707 99.5491 412.263C93.4184 408.053 88.2496 407.129 84.1901 409.515C79.9326 412.015 77.2079 417.996 75.5325 425.672C74.9111 425.355 74.2714 425.033 73.6132 424.702C71.6479 423.709 69.6181 422.684 67.3812 421.498L60.2057 417.688C66.1937 407.625 73.8755 397.958 82.8277 395.081C87.7617 393.495 92.7648 394.12 97.6989 396.947C106.959 402.247 113.155 408.669 119.709 415.467C132.32 428.54 145.336 442.037 181.688 447.148C182.061 447.199 182.429 447.254 182.806 447.304C183.179 447.355 183.561 447.401 183.939 447.451C185.366 447.635 186.825 447.805 188.32 447.962C205.889 449.8 219.075 456.663 227.517 468.362C229.74 471.446 231.622 474.834 233.155 478.516C233.242 478.732 233.334 478.944 233.422 479.16C233.509 479.376 233.592 479.596 233.675 479.813C235.636 484.855 236.97 490.422 237.665 496.476C237.693 496.724 237.721 496.977 237.748 497.23C237.776 497.482 237.808 497.731 237.831 497.983C237.891 498.604 237.937 499.234 237.983 499.863C233.647 503.247 229.1 506.313 224.378 509.052ZM249.784 489.282C249.48 489.594 249.181 489.907 248.873 490.215C248.518 490.569 248.159 490.909 247.8 491.258C247.059 491.98 246.309 492.693 245.554 493.391C243.244 495.529 240.864 497.57 238.42 499.5C238.374 498.898 238.324 498.301 238.268 497.712C238.245 497.459 238.213 497.211 238.186 496.958C238.158 496.706 238.13 496.457 238.103 496.204C237.394 490.16 236.05 484.602 234.08 479.56C233.997 479.344 233.914 479.123 233.827 478.907C233.739 478.691 233.647 478.479 233.56 478.263C232.013 474.577 230.126 471.175 227.894 468.077C219.374 456.268 206.077 449.341 188.371 447.488C187.087 447.355 185.83 447.212 184.601 447.056C184.219 447.01 183.847 446.96 183.469 446.909C183.092 446.858 182.714 446.808 182.342 446.757C145.695 441.733 132.661 428.219 120.04 415.132C113.463 408.31 107.249 401.866 97.929 396.533C92.8799 393.642 87.7479 393.003 82.685 394.63C73.5994 397.549 65.8393 407.317 59.8006 417.458L57.7801 416.387C53.3155 414.015 49.4125 412.677 46.3287 412.424C46.2274 410.406 46.1768 408.384 46.1768 406.352C46.1768 405.428 46.1906 404.504 46.209 403.58C53.518 392.989 64.1732 385.552 74.0919 384.136C82.9244 382.877 88.5028 379.769 89.8007 375.384C90.9376 371.541 88.6547 366.999 83.2005 362.251C77.1112 356.946 67.1327 357.902 53.541 365.083C56.0587 358.298 59.1931 351.747 62.935 345.519C78.6715 344.462 91.5727 349.086 101.289 359.272C104.874 363.032 108.727 367.519 112.8 372.263C122.908 384.039 135.491 398.698 152.397 412.015C166.37 423.02 181.32 431.607 197.678 437.987C197.954 438.093 198.225 438.203 198.501 438.309C198.778 438.414 199.058 438.52 199.339 438.626C205.64 441.011 212.148 443.08 218.896 444.836C232.216 448.302 242.148 456.53 248.569 469.355C248.67 469.562 248.776 469.764 248.877 469.971C248.979 470.178 249.075 470.389 249.177 470.596C251.17 474.816 252.799 479.509 254.06 484.671C252.679 486.248 251.252 487.779 249.784 489.282ZM302.834 530.188C301.951 532.551 299.658 534.141 297.136 534.141C296.409 534.141 295.696 534.013 295.01 533.755C293.486 533.19 292.276 532.064 291.604 530.588C290.932 529.113 290.872 527.462 291.438 525.941L320.099 449.189L336.774 439.301L311.013 508.276L309.37 507.646C306.76 506.639 303.759 507.499 302.084 509.737C300.892 511.328 300.519 513.332 301.072 515.24C301.624 517.147 303 518.65 304.855 519.367L306.622 520.048L302.834 530.188ZM383.928 432.163L387.026 439.03C384.034 442.473 381.613 446.514 379.92 451.055L352.58 524.268L312.307 508.777L338.671 438.184L370.093 419.554C370.277 419.614 370.461 419.678 370.645 419.747L377.678 423.778C380.15 425.861 382.322 428.609 383.928 432.163ZM381.954 426.224L393.727 432.972C391.675 434.415 389.769 436.065 388.039 437.909L385.19 431.593C384.269 429.566 383.174 427.787 381.954 426.224ZM308.394 519.248L307.75 519L307.106 518.751L305.352 518.076C303.902 517.52 302.83 516.347 302.397 514.853C301.969 513.364 302.259 511.801 303.189 510.56C304.132 509.305 305.61 508.602 307.124 508.602C307.713 508.602 308.307 508.708 308.873 508.928L310.53 509.567L311.174 509.815L311.819 510.064L352.092 525.555L348.663 534.739L308.394 519.248ZM412.138 476.521C409.082 477.896 405.473 476.53 404.093 473.478L395.099 453.556C397.354 449.152 400.604 446.077 404.162 444.068L410.762 458.69C408.479 458.153 406.007 458.925 404.562 460.699C403.457 462.06 403.085 463.784 403.549 465.434C404.042 467.185 405.363 468.555 407.176 469.203L415.59 472.191C415.213 474.039 413.988 475.689 412.138 476.521ZM405.381 443.42C406.675 442.786 407.991 442.289 409.307 441.908L409.45 441.991L409.519 441.853C411.457 441.315 413.381 441.03 415.194 440.97C422.83 440.722 432.675 444.225 437.453 454.815L444.605 470.66L412.538 459.279L405.381 443.42ZM417.086 471.258L416.405 471.014L415.714 470.771L407.637 467.902C406.251 467.411 405.243 466.376 404.875 465.062C404.534 463.848 404.811 462.575 405.63 461.573C406.509 460.497 407.885 459.895 409.298 459.895C409.851 459.895 410.407 459.987 410.946 460.175L411.521 460.382L412.423 460.704L413.326 461.026L445.392 472.407L450.179 483.007L417.086 471.258ZM415.217 427.442C415.484 427.437 415.751 427.428 416.018 427.428C416.032 427.428 416.041 427.428 416.055 427.428C416.299 427.428 416.543 427.437 416.787 427.442C431.257 427.708 443.786 435.927 449.806 449.258L468.714 491.143C470.09 494.196 468.728 497.8 465.667 499.179C462.611 500.553 459.002 499.188 457.621 496.136L452.77 485.388L452.379 484.515L451.988 483.642L447.201 473.042L446.81 472.168L446.419 471.295L438.723 454.241C433.665 443.029 423.24 439.324 415.157 439.582C413.616 439.632 411.991 439.835 410.352 440.212C410.058 440.281 409.763 440.354 409.468 440.432C409.174 440.51 408.875 440.593 408.58 440.685C408.286 440.777 407.991 440.869 407.692 440.97C406.73 441.301 405.768 441.692 404.82 442.151C404.613 442.253 404.41 442.358 404.203 442.464C404.001 442.57 403.798 442.68 403.596 442.795C400.042 444.776 396.77 447.755 394.39 451.961C394.248 452.209 394.109 452.462 393.976 452.719C393.838 452.981 393.709 453.248 393.58 453.519C393.235 454.236 392.913 454.986 392.618 455.772L356.372 552.832C355.489 555.194 353.197 556.785 350.674 556.785C349.947 556.785 349.234 556.656 348.548 556.399C345.404 555.227 343.803 551.724 344.976 548.584L349.482 536.513L349.722 535.865L349.961 535.217L353.39 526.033L353.629 525.385L353.869 524.736L381.213 451.51C382.769 447.346 384.959 443.613 387.657 440.4C387.822 440.207 387.983 440.009 388.154 439.821C388.319 439.632 388.49 439.449 388.66 439.26C390.579 437.159 392.724 435.298 395.062 433.716C395.274 433.574 395.49 433.431 395.707 433.289C395.923 433.146 396.144 433.009 396.365 432.871C397.078 432.429 397.815 432.016 398.56 431.625C398.763 431.519 398.97 431.413 399.177 431.312C399.384 431.211 399.591 431.11 399.798 431.009C404.337 428.853 409.395 427.603 414.752 427.423C414.904 427.442 415.061 427.442 415.217 427.442ZM412.994 426.164C408.079 426.532 403.434 427.773 399.223 429.768C399.016 429.864 398.809 429.97 398.602 430.071C398.395 430.172 398.187 430.278 397.985 430.384C396.963 430.917 395.969 431.496 395.002 432.117L378.502 422.657L371.566 418.68L371.635 418.639L375.027 416.626L389.962 425.102C390.653 425.654 391.412 426.09 392.213 426.38L392.812 426.72L392.83 426.578C393.405 426.729 394.004 426.812 394.616 426.812C395.186 426.812 395.743 426.739 396.282 426.61C396.507 426.555 396.728 426.486 396.949 426.412C397.166 426.334 397.382 426.251 397.589 426.155C399.826 425.125 401.644 422.965 402.611 420.22L412.994 426.164ZM387.468 422.1L376.394 415.817L383.832 411.404L384.476 411.022L385.134 410.632L385.507 410.411L386.188 410.006L386.87 409.602L387.468 409.248C387.371 409.423 387.275 409.602 387.187 409.781C387.086 409.988 386.989 410.195 386.897 410.411C386.805 410.622 386.722 410.843 386.644 411.059C386.575 411.252 386.511 411.445 386.451 411.638C386.377 411.882 386.308 412.126 386.244 412.374C386.184 412.622 386.133 412.875 386.082 413.132C385.931 413.95 385.848 414.801 385.848 415.674C385.852 418.069 386.451 420.285 387.468 422.1ZM401.989 415.679C401.989 416.525 401.897 417.343 401.745 418.124C401.699 418.363 401.649 418.598 401.589 418.828C401.529 419.057 401.469 419.287 401.395 419.512C400.576 422.031 398.974 423.999 397 424.895C396.788 424.992 396.572 425.075 396.356 425.143C396.13 425.217 395.905 425.272 395.674 425.318C395.329 425.383 394.979 425.429 394.62 425.429C394.063 425.429 393.52 425.341 392.996 425.185C392.77 425.116 392.545 425.038 392.328 424.946C391.762 424.698 391.224 424.362 390.727 423.948C388.637 422.225 387.242 419.168 387.242 415.679C387.242 415.178 387.279 414.691 387.334 414.212C387.367 413.937 387.403 413.665 387.454 413.394C387.505 413.128 387.555 412.866 387.62 412.613C387.693 412.323 387.776 412.038 387.868 411.758C387.942 411.533 388.02 411.317 388.108 411.1C388.195 410.884 388.292 410.673 388.393 410.466C389.106 408.977 390.119 407.763 391.316 406.968C391.514 406.835 391.721 406.715 391.928 406.605C392.531 406.292 393.166 406.076 393.833 405.98C394.063 405.948 394.298 405.934 394.533 405.929C394.561 405.929 394.588 405.925 394.616 405.925C394.823 405.925 395.025 405.943 395.228 405.966C399.002 406.38 401.989 410.572 401.989 415.679ZM644.544 236.185C644.544 236.185 644.549 236.185 644.553 236.185C644.576 236.185 644.599 236.185 644.627 236.185V255.165L393.373 404.141L392.568 404.619L391.762 405.097L391.251 405.401L390.625 405.773L385.498 408.816L384.817 409.22L384.136 409.625L383.892 409.767L383.22 410.167L382.561 410.558L376.79 413.983L375.837 414.548L374.884 415.113L370.185 417.899L369.918 418.055L369.504 418.304L369.108 418.538L368.823 418.708L368.27 419.034L339.439 436.13L338.491 436.691L337.543 437.251L320.868 447.139L319.919 447.7L318.971 448.261L254.092 486.726C262.58 477.353 269.428 466.859 274.51 455.592L328.591 423.525L329.764 422.831L331.007 422.096L352.506 409.349L353.187 408.945L353.869 408.54L360.077 404.858L361.343 404.109L362.54 403.401L367.819 400.271L368.5 399.866L369.182 399.462L506.331 318.141L516.968 324.861C516.973 324.861 516.977 324.866 516.982 324.866C516.986 324.87 516.991 324.87 516.991 324.875C517.023 324.893 517.06 324.902 517.092 324.916C517.111 324.925 517.129 324.935 517.152 324.939C517.212 324.958 517.272 324.967 517.336 324.967C517.396 324.967 517.456 324.958 517.511 324.944C517.529 324.939 517.548 324.93 517.566 324.921C517.599 324.907 517.635 324.898 517.668 324.884C517.672 324.884 517.677 324.879 517.681 324.875C517.686 324.875 517.691 324.87 517.695 324.87L608.446 270.937C608.653 270.813 608.782 270.592 608.782 270.353L608.961 257.294L620.675 250.348L620.601 250.605C620.044 252.591 620.293 254.678 621.305 256.475C622.318 258.273 623.97 259.574 625.959 260.13C626.387 260.249 626.824 260.332 627.266 260.378C627.533 260.406 627.8 260.419 628.067 260.419C631.5 260.419 634.552 258.149 635.495 254.779L639.946 238.925L644.544 236.185ZM643.624 235.128L640.485 236.99L641.391 233.758L643.624 235.128ZM650.882 194.838L640.554 231.63L640.36 232.32L640.167 233.009L638.763 238.01L638.492 238.971L638.22 239.932L634.161 254.393C633.323 257.376 630.479 259.312 627.404 258.994C627.045 258.958 626.681 258.889 626.332 258.792C624.698 258.332 623.34 257.271 622.507 255.79C621.674 254.31 621.471 252.6 621.927 250.969L622.387 249.323L622.659 248.362L622.93 247.401L628.909 226.109L629.102 225.42L629.296 224.73L638.648 191.413C639.205 189.423 635.804 183.953 628.868 180.478L629.374 178.593C630.483 174.58 629.259 169.979 626.35 165.653L631.753 167.855C645.414 173.426 653.639 185.024 650.882 194.838Z" fill="#E9EEF1"/>
<path d="M546.37 198.943C544.57 199.968 544.372 201.117 544.695 202.239L544.649 202.266C542.835 201.834 541.058 201.972 539.415 202.91C537.657 203.912 537.533 205.047 537.846 205.935L536.249 205.089L533.851 206.454L546.232 212.991L548.63 211.625L541.095 207.645C539.254 206.67 539.093 205.461 540.686 204.551C542.352 203.599 543.737 203.986 545.408 204.864L553.232 208.996L555.653 207.617L548.119 203.636C546.278 202.662 546.094 201.467 547.714 200.543C549.352 199.61 550.742 199.986 552.413 200.869L560.238 205.002L562.654 203.622L554.102 199.108C551.428 197.706 548.717 197.601 546.37 198.943Z" fill="#E9EEF1"/>
<path d="M543.351 213.257C542.619 213.676 542.011 213.524 541.22 213.101L535.333 209.989C532.042 208.252 529.082 208.789 526.505 210.256C522.993 212.26 523.421 214.062 525.681 215.381L528.01 214.053C526.523 213.142 526.602 212.407 528.521 211.318C530.118 210.407 531.296 210.481 532.194 210.954C533.381 211.58 532.525 212.333 531.089 213.552C528.774 215.533 527.729 217.059 530.445 218.493C532.53 219.592 535.439 219.527 537.814 218.176C539.613 217.151 540.189 215.997 539.83 215.009L539.876 214.986C541.316 215.496 542.393 215.413 543.668 214.687C544.128 214.425 544.464 214.177 544.796 213.754L543.585 213.115C543.498 213.17 543.424 213.216 543.351 213.257ZM536.322 216.824C535.02 217.565 533.754 217.597 532.617 216.999C531.356 216.333 531.618 215.519 533.142 214.145C534.016 213.382 534.665 212.692 534.762 212.32L536.626 213.303C538.633 214.361 538.306 215.694 536.322 216.824Z" fill="#E9EEF1"/>
<path d="M528.668 218.843L526.275 220.208C526.822 220.723 527.333 221.867 525.35 222.998C523.228 224.207 520.254 224.014 518.169 222.915L527.112 217.822C522.703 215.491 518.068 215.073 514.303 217.22C510.791 219.219 511.1 221.812 515.122 223.936C518.998 225.981 523.877 226.128 527.504 224.06C530.486 222.354 530.426 220.424 528.668 218.843ZM516.315 218.277C518.252 217.174 520.913 217.174 522.827 218.185L516.282 221.913C514.368 220.902 514.377 219.38 516.315 218.277Z" fill="#E9EEF1"/>
<path d="M508.016 218.428L505.567 217.137L492.436 224.62L494.885 225.912L500.104 222.938L514.98 230.794L517.691 229.249L502.82 221.393L508.016 218.428Z" fill="#E9EEF1"/>
<path d="M555.414 293.98L560.187 286.924L560.486 265.08L523.099 287.319L522.74 313.401L555.281 294.058L555.414 293.98ZM524.153 310.951L524.466 288.105L559.069 267.526L558.811 286.492L554.443 292.955L524.153 310.951Z" fill="#E9EEF1"/>
</g>
</g>
<defs>
<clipPath id="clip0_4231_30140">
<rect width="670" height="725" fill="white"/>
</clipPath>
</defs>
</svg>
