<svg width="440" height="540" viewBox="0 0 440 540" fill="none" xmlns="http://www.w3.org/2000/svg">
<mask id="mask0_6182_102363" style="mask-type:alpha" maskUnits="userSpaceOnUse" x="0" y="0" width="440" height="540">
<path d="M401.523 540H20C8.9543 540 0 531.046 0 520V20C0 8.9543 8.95431 0 20 0H420C431.046 0 440 8.95431 440 20V500.907C440 506.098 437.982 511.085 434.372 514.815L415.895 533.908C412.127 537.802 406.941 540 401.523 540Z" fill="#0D99FF"/>
</mask>
<g mask="url(#mask0_6182_102363)">
<g filter="url(#filter0_f_6182_102363)">
<circle cx="482.5" cy="503.5" r="212.5" transform="rotate(-90 482.5 503.5)" fill="#1E1D49"/>
</g>
<g filter="url(#filter1_f_6182_102363)">
<circle cx="23.5" cy="79.5" r="255.5" transform="rotate(-90 23.5 79.5)" fill="#1E1D49"/>
</g>
</g>
<g clip-path="url(#clip0_6182_102363)">
<g opacity="0.6" clip-path="url(#clip1_6182_102363)">
<path d="M176.508 328.114L176.611 321.682C176.622 320.993 176.325 320.49 175.728 320.193C174.543 319.599 172.647 319.972 172.381 320.106L172.236 329.123L176.508 328.114ZM176.603 328.19L172.141 329.245L172.285 320.064V320.06C172.35 319.87 176.748 319.001 176.702 321.682C176.68 323.289 176.603 328.19 176.603 328.19Z" fill="#E9EEF1"/>
<path d="M172.142 329.245L176.605 328.19C176.605 328.19 176.681 323.289 176.707 321.686C176.749 319.001 172.351 319.873 172.29 320.064V320.068L172.142 329.245ZM172.191 320.064V320.06L172.252 316.328C172.252 316.275 172.294 316.233 172.344 316.233H172.347L187.975 316.481C187.651 316.008 186.638 314.561 186.109 314.249C186.014 314.196 185.96 314.108 185.934 313.99C185.789 313.255 187.209 311.367 187.373 311.153C187.388 311.13 187.419 311.115 187.446 311.115C187.461 311.115 188.325 311.119 189.608 311.123C190.888 311.123 192.586 311.134 194.277 311.146C201.188 311.207 201.211 311.294 201.237 311.405C201.26 311.427 201.47 311.565 201.675 311.694C202.574 312.265 204.436 313.457 204.337 314.79C204.333 314.843 204.291 314.889 204.234 314.881C204.185 314.877 204.143 314.832 204.147 314.778C204.234 313.556 202.437 312.41 201.573 311.854C201.256 311.656 201.127 311.568 201.074 311.504C200.518 311.37 192.712 311.313 187.491 311.306C187.046 311.896 186.01 313.415 186.117 313.952C186.132 314.013 186.158 314.055 186.197 314.078C186.867 314.478 188.169 316.435 188.226 316.522C188.245 316.553 188.249 316.591 188.234 316.621C188.215 316.652 188.184 316.671 188.15 316.671C188.15 316.671 188.15 316.671 188.146 316.671L172.435 316.42L172.378 319.9C172.763 319.755 173.627 319.664 174.149 319.675C175.874 319.702 176.814 320.414 176.795 321.678L176.692 328.182C176.692 328.224 176.662 328.262 176.62 328.274L172.157 329.328C172.149 329.328 172.142 329.332 172.134 329.332C172.111 329.332 172.092 329.325 172.073 329.309C172.05 329.294 172.039 329.264 172.039 329.237L172.184 320.06L172.191 320.064Z" fill="#E9EEF1"/>
<path d="M483.951 237.235C468.431 236.561 436.963 234.542 434.926 234.409C433.734 233.678 429.53 230.814 428.578 230.163L431.16 189.583C431.163 189.35 431.141 189.114 431.095 188.882C430.821 187.545 429.732 182.093 428.357 175.193C424.755 157.136 418.731 126.916 418.171 124.936C418.076 124.605 417.935 124.102 399.262 117.103C390.218 113.714 379.743 109.922 377.283 109.149C376.917 109.034 376.54 108.985 376.156 109.004L179.771 118.68C178.088 118.764 176.714 120.907 176.698 122.648L178.72 177.112L178.507 177.1L176.089 185.744L178.53 190.767L181.984 190.82L183.59 188.893C185.079 189.655 186.861 190.036 188.914 190.009L196.67 191.22H196.705C198.011 191.212 199.084 192.244 199.123 193.539L200.528 239.131C200.562 240.3 201.232 241.358 202.268 241.895C203.06 242.307 203.559 243.114 203.562 244.009L203.757 278.234C203.136 278.2 201.853 278.177 199.176 278.135L199.016 278.131L198.932 283.375L199.054 283.405C199.667 283.569 200.554 283.618 201.415 283.618C202.378 283.618 203.311 283.557 203.783 283.519L203.951 313.118C203.958 314.329 203.757 315.498 203.376 316.587L188.156 316.419L188.152 316.743L200.379 316.876C197.74 317.2 194.785 317.794 194.176 318.639C193.403 319.717 193.628 321.206 193.75 321.754L186.865 321.644C186.869 321.019 186.858 320.505 186.819 320.269L186.8 320.155C186.652 319.203 186.206 316.313 181.744 316.282L181.74 316.606C185.925 316.637 186.324 319.23 186.477 320.204L186.496 320.323C186.606 321.004 186.473 324.306 186.423 325.44L178.438 327.329L178.553 320.17C178.557 320.113 178.602 318.716 177.441 317.573C176.367 316.515 174.646 316.042 172.331 316.172L172.35 316.496C174.57 316.374 176.207 316.812 177.212 317.802C178.271 318.841 178.233 320.147 178.233 320.166L178.119 327.348L178.355 327.352L165.48 330.391C163.866 330.771 162.811 332.298 163.028 333.943C163.512 337.626 164.437 345.573 165.503 354.772C167.312 370.343 169.566 389.721 171.067 400.41C171.756 405.296 176.626 409.869 181.93 410.604L347.928 431.901C348.454 431.966 348.975 432 349.497 432C350.464 432 351.424 431.886 352.357 431.665L352.441 431.947C352.441 431.947 440.904 405.695 466.888 397.977C471.336 396.655 474.413 392.649 474.542 388.011L475.867 340.832L475.871 340.664L443.371 305.099L465.636 294.791L482.104 294.829C482.112 294.829 482.124 294.829 482.131 294.829C488.825 294.829 494.35 289.391 494.457 282.697L494.994 248.963C495.101 242.657 490.246 237.509 483.951 237.235ZM376.194 109.834C376.479 109.819 376.757 109.857 377.028 109.941C382.583 111.689 415.49 123.855 417.391 125.256C418.076 127.918 423.986 157.551 427.538 175.356C428.97 182.53 430.002 187.713 430.28 189.053C430.314 189.225 430.333 189.4 430.33 189.556L426.773 245.414C426.762 246.038 426.225 247.059 425.429 247.954C424.625 248.86 423.742 249.443 423.167 249.443C423.163 249.443 423.159 249.443 423.156 249.443L422.92 249.439L422.889 249.488C421.857 249.69 416.214 250.646 410.369 248.593C403.991 246.354 399.844 236.858 399.802 236.759L399.639 236.827C400.054 217.034 400.438 197.37 400.575 190.264L400.583 189.842L392.244 189.868V189.796L377.309 189.864C378.113 189.465 378.745 188.882 378.756 188.025C378.855 181.525 378.041 156.469 377.386 136.333C377.031 125.473 376.727 116.094 376.635 111.818C376.62 111.171 376.38 110.63 375.92 110.215C375.771 110.082 375.604 109.967 375.428 109.868L376.194 109.834ZM195.463 335.775L190.78 335.379L191.732 333.799L196.552 334.198L195.463 335.775ZM195.707 354.232L191.031 353.828L190.517 335.813L190.593 335.687L195.36 336.091L195.707 354.232ZM192.436 333.532L231.695 323.86L236.344 324.165C231.436 325.208 201.304 332.862 197.135 333.92L192.436 333.532ZM346.39 191.266L345.849 225.32L326.098 225.007C323.848 224.973 321.167 226.07 321.079 231.511C321.053 233.107 320.542 234.554 319.64 235.582C318.7 236.652 317.39 237.208 315.905 237.181L281.676 236.637C277.895 236.576 277.05 233.906 277.004 231.679C276.913 227.045 276.901 223.37 276.966 222.685L299.976 226.93C300.148 226.961 300.319 226.972 300.487 226.972C301.222 226.972 301.934 226.706 302.497 226.211C303.19 225.601 303.567 224.722 303.529 223.8L302.227 190.973L399.738 190.675C399.543 200.667 399.292 213.329 399.029 226.169L346.676 225.339L347.216 191.285L346.39 191.266ZM276.604 222.883C276.391 222.89 276.242 222.73 276.219 222.658L276.448 222.616H276.596L276.943 222.681C276.886 222.776 276.772 222.875 276.604 222.883ZM302.707 223.831C302.733 224.501 302.459 225.141 301.957 225.586C301.454 226.032 300.784 226.222 300.125 226.112L276.714 221.794L276.68 221.786L206.395 221.047L206.868 191.258L301.408 190.969L302.707 223.831ZM276.162 222.612C276.041 223.477 276.06 225.735 276.174 231.698C276.246 235.365 278.192 237.413 281.661 237.467L315.889 238.011C315.924 238.011 315.962 238.011 315.996 238.011C317.706 238.011 319.179 237.36 320.261 236.126C321.293 234.95 321.879 233.316 321.906 231.523C321.967 227.749 323.341 225.834 325.991 225.834C326.022 225.834 326.052 225.834 326.079 225.834L345.83 226.146L399.01 226.991C398.409 256.213 397.742 286.063 397.548 287.141L397.952 287.24L397.917 287.4L401.105 288.089L398.576 328.46C398.477 330.067 397.754 331.537 396.547 332.603C395.34 333.669 393.786 334.195 392.179 334.092L248.335 324.629C248.521 322.36 248.678 302.578 248.685 301.706V301.55L232.053 300.78L231.885 300.773L231.523 323.521L210.276 322.124C209.107 322.048 206.864 321.05 206.864 319.881L205.817 241.176L206.125 221.87L276.162 222.612ZM243.956 324.664L247.097 324.869L206.841 334.724L205.672 334.629L243.956 324.664ZM237.128 323.891L231.847 323.544L232.205 301.112L237.38 301.352C237.418 303.259 237.783 322.006 237.128 323.891ZM244.447 324.374L244.809 301.694L248.361 301.858C248.304 309.28 248.16 322.988 248.015 324.61L244.447 324.374ZM201.959 337.473C202.009 337.249 202.218 336.978 202.5 336.696L204.857 336.898L204.804 336.963L204.861 355.02L201.849 354.761C201.841 353.76 201.75 338.406 201.959 337.473ZM202.82 336.399C203.543 335.779 204.514 335.166 204.956 334.895L206.399 335.013L205.101 336.59L202.82 336.399ZM205.249 336.929L360.814 350.123C360.81 350.192 360.806 350.26 360.806 350.329L360.875 368.469L205.185 355.047L205.127 337.073L205.249 336.929ZM360.848 349.803L205.497 336.628L206.769 335.078L206.864 335.055L361.899 347.907C361.351 348.394 360.97 349.061 360.848 349.803ZM207.858 334.812L248.171 324.942L392.164 334.416C392.305 334.423 392.446 334.431 392.586 334.431C394.129 334.431 395.598 333.879 396.767 332.85C398.043 331.731 398.801 330.181 398.907 328.487L401.443 288.043C401.718 287.803 403.29 286.505 405.095 286.707C406.112 286.821 407.03 287.392 407.829 288.409C407.346 288.949 407.037 289.642 406.999 290.396L405.068 328.148C404.84 332.592 401.809 336.384 397.529 337.584L363.163 347.225C362.847 347.313 362.558 347.45 362.291 347.621L207.858 334.812ZM405.122 286.379C403.191 286.17 401.565 287.491 401.234 287.784L398.378 287.163C398.591 284.681 399.121 261.601 399.612 238.278C400.107 239.256 400.91 240.726 401.999 242.31C403.656 244.721 405.392 246.564 407.189 247.836C406.858 250.52 405.213 266.502 411.972 274.837C414.443 277.887 417.779 279.597 421.88 279.94L421.872 282.263C421.834 285.393 419.79 285.659 418.301 285.857C417.927 285.907 417.6 285.949 417.349 286.036L409.135 287.521L409.063 287.54C408.682 287.685 408.347 287.906 408.054 288.169C407.205 287.106 406.222 286.501 405.122 286.379ZM412.223 274.639C405.674 266.559 407.121 251.145 407.49 248.049C408.347 248.624 409.219 249.066 410.099 249.374C413.111 250.433 416.031 250.726 418.354 250.726C420.151 250.726 421.587 250.551 422.428 250.414C422.215 250.947 421.99 251.716 421.968 252.592L421.884 279.62C417.882 279.281 414.634 277.609 412.223 274.639ZM177.528 122.636C177.54 121.307 178.621 119.567 179.813 119.51L372.386 110.021L372.397 110.154C372.416 110.15 374.438 109.998 375.371 110.836C375.661 111.095 375.805 111.426 375.813 111.841C375.904 116.117 376.209 125.5 376.563 136.364C377.218 156.488 378.033 181.537 377.934 188.014C377.915 189.297 374.758 189.83 373.955 189.853V189.88L348.012 190.001L214.057 190.409C257.74 189.503 364.98 187.294 371.11 187.294C371.175 187.294 371.228 187.294 371.27 187.294C372.112 187.302 372.953 186.921 373.639 186.216C374.336 185.501 374.804 184.514 374.777 183.817C374.56 178.148 374.393 168.377 374.195 157.059C373.966 143.918 373.707 129.022 373.307 116.783V116.73C373.254 115.062 373.186 112.987 370.391 112.941C370.387 112.941 370.379 112.941 370.372 112.941C367.082 112.941 184.451 122.53 183.187 122.636C179.741 122.926 179.642 126.703 179.642 126.749C179.71 128.531 181.005 163.004 181.709 177.283L179.55 177.161L177.528 122.636ZM179.052 189.948L176.972 185.664L179.124 177.965L179.356 177.98C180.358 178.098 180.978 178.148 181.367 178.159C181.348 178.357 181.34 178.551 181.329 178.745L179.017 185.988L181.355 189.982L179.052 189.948ZM182.882 188.452L181.679 189.895L179.371 185.95L181.294 179.922C181.31 184.095 182.699 186.955 183.236 187.903L182.882 188.452ZM196.735 190.394L189.009 189.187L188.975 189.183H188.94C187.078 189.206 185.479 188.886 184.139 188.238L184.303 188.044L184.131 187.785C184.112 187.759 182.844 185.794 182.334 182.523C182.281 181.822 182.212 180.695 182.136 179.237C182.151 178.757 182.185 178.266 182.242 177.755L182.292 177.321L182.037 177.306C181.321 162.802 179.981 127.179 179.965 126.749C179.969 126.604 180.064 123.226 183.213 122.96C186.762 122.663 368.182 113.265 370.375 113.265C370.379 113.265 370.383 113.265 370.383 113.265C372.87 113.303 372.927 115.051 372.98 116.742V116.795C373.38 129.033 373.639 143.926 373.867 157.067C374.065 168.384 374.233 178.159 374.45 183.833C374.469 184.354 374.119 185.264 373.406 185.996C372.969 186.445 372.253 186.974 371.305 186.974C371.293 186.974 371.286 186.974 371.274 186.974C366.526 186.913 213.802 190.093 197.219 190.439C197.059 190.413 196.899 190.394 196.735 190.394ZM199.26 283.123L199.332 278.459C200.855 278.485 202.911 278.52 203.757 278.546L203.783 283.196C202.949 283.26 200.539 283.417 199.26 283.123ZM186.861 321.968L194.172 322.082L194.111 321.872C194.108 321.853 193.586 320.014 194.439 318.826C195.159 317.821 200.375 317.078 203.235 316.941C202.036 319.999 199.42 322.367 196.05 323.163L186.755 325.36C186.789 324.618 186.846 323.159 186.861 321.968ZM165.675 331.198L196.244 323.97C200.006 323.079 202.911 320.38 204.141 316.918C204.164 316.918 204.191 316.918 204.214 316.918L204.217 316.686C204.591 315.559 204.792 314.356 204.785 313.11L204.396 244.001C204.389 242.798 203.722 241.709 202.652 241.157C201.879 240.761 201.384 239.972 201.358 239.104L199.953 193.512C199.915 192.298 199.191 191.25 198.167 190.736C199.93 190.698 202.607 190.645 206.041 190.573L205.55 221.451L205.805 221.455L205.493 241.179L206.54 319.885C206.54 321.248 208.951 322.36 210.253 322.447L230.628 323.788L191.652 333.391L191.587 333.406L191.556 333.456L165.381 331.285C165.477 331.255 165.572 331.221 165.675 331.198ZM164.845 331.571L191.37 333.768L190.418 335.348L163.87 333.094C163.984 332.477 164.334 331.929 164.845 331.571ZM163.851 333.837C163.832 333.696 163.828 333.555 163.832 333.418L190.227 335.657L190.186 335.729L190.703 353.801L165.979 351.669C165.062 343.764 164.285 337.115 163.851 333.837ZM166.017 351.997L360.871 368.797L360.883 371.424C359.375 371.093 353.514 370.404 330.805 368.348C314.629 366.882 292.075 364.928 263.76 362.537C216.772 358.569 169.174 354.689 166.356 354.46L166.12 352.884C166.086 352.587 166.052 352.29 166.017 351.997ZM348.035 431.075L182.044 409.781C177.087 409.096 172.533 404.839 171.893 400.296C170.393 389.641 168.15 370.331 166.341 354.784C172.194 355.26 352.901 369.993 360.883 371.718L361.062 419.564C361.073 422.892 359.649 426.068 357.158 428.272C354.664 430.477 351.34 431.501 348.035 431.075ZM356.393 429.906C356.85 429.601 357.292 429.262 357.707 428.893C360.38 426.528 361.907 423.128 361.892 419.56L361.705 369.635C361.987 369.566 362.421 369.459 362.988 369.319C392.773 361.966 399.056 360.751 399.951 360.751C399.958 360.751 399.966 360.751 399.974 360.751C400.065 362.72 398.904 392.893 398.401 405.931C398.237 410.219 398.127 413.056 398.123 413.273C398.07 416.593 397.944 417.29 395.591 418.273C378.505 423.345 363.419 427.819 356.393 429.906ZM493.635 282.678C493.536 288.923 488.38 293.995 482.139 293.995C482.131 293.995 482.124 293.995 482.112 293.995L467.68 293.964L473.095 291.337L473.034 291.211L473.293 291.227L475.673 246.236L475.349 246.221L472.973 291.093L472.737 290.591L441.997 304.824L475.037 340.98L473.716 387.992C473.594 392.273 470.757 395.966 466.652 397.185C453.23 401.172 423.125 410.105 397.163 417.812C398.26 417.001 398.412 415.912 398.454 413.281C398.458 413.067 398.565 410.234 398.732 405.947C399.627 382.669 400.434 361.059 400.286 360.583C400.191 360.29 400.05 359.845 362.92 369.01C362.402 369.14 361.994 369.239 361.713 369.307L361.64 350.332C361.636 349.262 362.356 348.31 363.384 348.021L397.75 338.38C402.376 337.081 405.651 332.988 405.895 328.186L407.825 290.434C407.871 289.502 408.461 288.683 409.326 288.336L417.535 286.851L417.608 286.832C417.771 286.767 418.084 286.729 418.411 286.688C419.896 286.493 422.657 286.132 422.706 282.278L422.798 252.607C422.824 251.537 423.22 250.631 423.407 250.257C424.519 250.113 425.612 249.005 426.053 248.502C426.792 247.664 427.588 246.419 427.603 245.444L428.513 231.13C429.968 232.121 433.6 234.588 434.583 235.174L434.67 235.228L434.769 235.235C434.796 235.235 435.013 235.251 435.402 235.277C440.576 237.242 471.29 245.143 475.033 246.103L475.083 246.114L489.446 240.414L489.328 240.113L475.06 245.776C461.557 242.31 442.244 237.208 436.544 235.35C443.615 235.799 470.087 237.467 483.917 238.068C489.758 238.324 494.263 243.102 494.168 248.951L493.635 282.678Z" fill="#E9EEF1"/>
<path d="M213.052 298.496L318.319 303.229C318.368 303.233 318.422 303.233 318.471 303.233C320.188 303.233 321.83 301.965 322.69 299.962L322.724 299.886L323.261 249.869C323.463 247.95 322.854 245.799 321.742 244.508C321.178 243.849 320.531 243.487 319.869 243.457L212.568 241.362C211.62 241.321 210.481 241.652 209.548 242.25C208.482 242.935 207.869 243.83 207.827 244.786L207.656 292.727C207.652 292.837 207.645 292.955 207.637 293.077C207.572 294.14 207.477 295.747 208.566 296.939C209.457 297.91 210.927 298.42 213.052 298.496ZM208.471 293.123C208.478 292.997 208.486 292.875 208.49 292.742L208.661 244.801C208.692 244.146 209.179 243.472 209.998 242.943C210.782 242.44 211.749 242.147 212.545 242.185L319.846 244.279C320.375 244.302 320.828 244.706 321.118 245.041C322.077 246.157 322.618 248.114 322.439 249.793L321.902 299.703C321.144 301.401 319.758 302.464 318.361 302.395L225.389 298.218C222.244 297.712 215.995 296.733 214.023 296.607L214.251 290.96L216.821 291.295C216.635 294.688 216.753 294.825 216.806 294.882L216.859 294.932L216.92 294.939H216.924L216.913 295.191L219.216 295.297C221.425 295.651 224.723 296.181 226.824 296.52L226.874 296.2C226.147 296.082 224.125 295.754 222.091 295.431L268.806 297.605C268.836 297.605 268.87 297.605 268.901 297.605C270.234 297.605 271.692 297.159 272.819 296.405C274.144 295.518 274.887 294.311 274.906 293.005L275.249 250.558C275.271 249.195 274.83 247.79 274.038 246.701C273.158 245.49 271.955 244.812 270.652 244.793L258.395 244.378V244.363L258.071 244.359V244.371L215.237 242.916C215.214 242.916 215.192 242.916 215.169 242.916C213.874 242.916 212.538 243.491 211.494 244.5C210.432 245.528 209.815 246.872 209.792 248.194L209.468 289.639C209.43 291.954 211.357 294.334 213.764 294.947L213.684 296.916L213.844 296.923C215.146 296.98 219.186 297.578 222.48 298.088L213.082 297.666C211.212 297.601 209.899 297.167 209.179 296.379C208.33 295.442 208.41 294.155 208.471 293.123ZM211.231 246.164C211.456 245.783 211.742 245.422 212.077 245.094C212.248 244.927 212.431 244.778 212.618 244.641L212.092 277.583L210.885 277.545L211.384 246.168L211.231 246.164ZM270.843 279.441L269.472 279.399L270.009 245.608L270.633 245.631C270.889 245.635 271.136 245.673 271.38 245.738L270.843 279.441ZM271.7 245.844C272.168 246.031 272.602 246.332 272.987 246.743L272.465 279.495L271.163 279.453L271.7 245.844ZM269.148 279.388L267.804 279.346L268.341 245.551L269.685 245.597L269.148 279.388ZM267.484 279.335L266.159 279.293L266.696 245.494L268.021 245.54L267.484 279.335ZM265.836 279.281L264.491 279.239L265.028 245.437L266.373 245.483L265.836 279.281ZM264.168 279.232L262.824 279.19L263.361 245.384L264.705 245.429L264.168 279.232ZM262.504 279.179L261.16 279.137L261.697 245.326L263.041 245.372L262.504 279.179ZM260.836 279.125L259.511 279.083L260.048 245.269L261.373 245.315L260.836 279.125ZM259.187 279.072L257.843 279.03L258.38 245.212L259.724 245.258L259.187 279.072ZM257.523 279.019L256.305 278.981L256.842 245.159L258.06 245.201L257.523 279.019ZM255.981 278.973L254.637 278.931L255.174 245.106L256.518 245.151L255.981 278.973ZM254.313 278.92L252.988 278.878L253.525 245.048L254.85 245.094L254.313 278.92ZM252.668 278.866L251.324 278.824L251.861 244.991L253.205 245.037L252.668 278.866ZM251 278.813L249.793 278.775L250.33 244.938L251.537 244.98L251 278.813ZM249.473 278.767L248.129 278.725L248.666 244.885L250.01 244.93L249.473 278.767ZM247.806 278.714L246.48 278.672L247.017 244.828L248.342 244.873L247.806 278.714ZM246.157 278.661L244.813 278.619L245.35 244.77L246.694 244.816L246.157 278.661ZM244.493 278.607L243.267 278.569L243.804 244.717L245.03 244.759L244.493 278.607ZM242.943 278.558L241.599 278.516L242.136 244.66L243.48 244.706L242.943 278.558ZM241.275 278.508L239.95 278.466L240.487 244.607L241.812 244.652L241.275 278.508ZM239.626 278.455L238.282 278.413L238.819 244.55L240.163 244.595L239.626 278.455ZM237.962 278.402L236.744 278.364L237.281 244.496L238.499 244.538L237.962 278.402ZM236.957 244.485L236.42 278.352L235.076 278.31L235.613 244.439L237.029 244.489L236.957 244.485ZM234.752 278.299L233.427 278.257L233.964 244.382L235.289 244.428L234.752 278.299ZM233.107 278.249L231.763 278.208L232.3 244.329L233.644 244.374L233.107 278.249ZM231.44 278.196L230.232 278.158L230.769 244.405L230.446 244.401L229.909 278.147L228.565 278.105L229.102 244.218L231.973 244.317L231.44 278.196ZM228.245 278.093L226.92 278.051L227.457 244.161L228.782 244.207L228.245 278.093ZM227.137 244.154L226.6 278.044L225.256 278.002L225.793 244.108L227.323 244.161L227.137 244.154ZM224.932 277.99L223.919 277.96L224.456 244.062L225.469 244.096L224.932 277.99ZM223.595 277.949L222.251 277.907L222.788 244.005L224.132 244.051L223.595 277.949ZM221.928 277.895L220.603 277.853L221.143 243.948L222.468 243.994L221.928 277.895ZM220.283 277.842L218.938 277.8L219.479 243.891L220.823 243.937L220.283 277.842ZM218.615 277.789L217.396 277.751L217.933 243.918L217.61 243.914L217.073 277.743L215.729 277.701L216.269 243.784L219.152 243.883L218.615 277.789ZM215.409 277.69L214.084 277.648L214.62 243.792C214.822 243.761 215.02 243.742 215.218 243.75L215.946 243.773L215.409 277.69ZM213.76 277.636L212.416 277.594L212.941 244.42C213.371 244.154 213.832 243.956 214.293 243.849L213.76 277.636ZM210.565 277.537L210.42 277.534L210.394 278.326L223.584 278.741V278.783L223.908 278.786V278.752L228.233 278.889V278.954L228.557 278.958V278.897L233.096 279.041V279.148L233.42 279.152V279.049L242.932 279.35H242.958L252.657 279.658V279.674L252.98 279.677V279.67L269.141 280.18V280.199L269.464 280.203V280.188L274.026 280.332L274.053 279.54L272.8 279.502L273.314 247.116C273.333 247.143 273.356 247.166 273.375 247.192C274.06 248.14 274.445 249.363 274.426 250.555L274.083 293.001C274.068 294.025 273.455 294.993 272.366 295.724C271.349 296.405 270.02 296.801 268.84 296.782L217.046 294.372C217.035 293.748 217.084 292.396 217.156 291.17L217.164 291.021L213.946 290.598L213.806 294.094C211.864 293.511 210.276 291.524 210.306 289.654L210.63 248.209C210.637 247.634 210.79 247.048 211.06 246.495L210.565 277.537Z" fill="#E9EEF1"/>
<path d="M345.364 323.163L388.198 325.414C388.286 325.422 388.373 325.425 388.461 325.425C389.607 325.425 390.89 324.873 391.941 323.91C392.805 323.122 393.327 322.215 393.339 321.492L395.098 241.522C395.174 236.804 395.227 233.396 390.875 233.328L349.149 232.669C348.193 232.661 345.25 233.008 343.445 234.782C342.478 235.734 341.982 236.934 341.979 238.347L340.715 318.008V318.019C340.692 319.401 340.642 323.087 345.364 323.163ZM341.541 318.027V318.019L342.805 238.35C342.809 237.162 343.22 236.161 344.024 235.373C345.592 233.83 348.227 233.495 349.092 233.495C349.107 233.495 349.122 233.495 349.134 233.495L390.86 234.154C394.241 234.207 394.348 236.446 394.268 241.503L392.508 321.473C392.501 321.96 392.059 322.676 391.381 323.293C390.414 324.176 389.249 324.656 388.248 324.58L345.387 322.326C341.484 322.272 341.522 319.405 341.541 318.027Z" fill="#E9EEF1"/>
<path d="M313.097 308.507L281.641 306.607C279.908 306.5 278.229 307.079 276.923 308.236C275.621 309.39 274.844 310.986 274.737 312.722L274.512 316.45C274.406 318.186 274.985 319.862 276.142 321.168C277.296 322.47 278.891 323.247 280.628 323.354L312.084 325.254C312.218 325.262 312.351 325.265 312.484 325.265C314.076 325.265 315.595 324.69 316.798 323.624C318.101 322.47 318.877 320.875 318.984 319.138L319.209 315.411C319.43 311.82 316.688 308.724 313.097 308.507ZM300.767 308.865C301.403 308.876 301.997 309.135 302.443 309.592C302.888 310.049 303.128 310.655 303.117 311.29L303.01 317.969C302.976 320.189 302.032 320.346 300.585 320.319C300.535 320.319 300.486 320.307 300.436 320.304C300.558 320.216 300.676 320.125 300.786 320.018C301.354 319.47 301.674 318.735 301.685 317.95L301.792 311.271C301.803 310.487 301.51 309.744 300.958 309.177C300.847 309.063 300.729 308.964 300.607 308.872C300.661 308.869 300.714 308.865 300.767 308.865ZM300.189 308.594C300.185 308.594 300.181 308.598 300.177 308.598C300.173 308.598 300.17 308.594 300.17 308.594H300.189ZM298.879 309.07C299.45 309.078 299.987 309.314 300.39 309.729C300.794 310.144 301.007 310.689 301 311.26L300.893 317.939C300.885 318.51 300.649 319.047 300.234 319.451C299.819 319.851 299.279 320.06 298.704 320.06C297.516 320.041 296.564 319.059 296.583 317.87L296.689 311.191C296.708 310.015 297.672 309.07 298.841 309.07C298.856 309.07 298.867 309.07 298.879 309.07ZM281.77 307.483L297.847 308.454C297.458 308.594 297.104 308.811 296.796 309.109C296.423 309.47 296.156 309.916 296.015 310.403L281.812 309.497L281.789 309.836L295.939 310.738C295.916 310.883 295.897 311.028 295.897 311.18L295.791 317.859C295.783 318.263 295.859 318.655 296.011 319.02L281.606 317.916L281.77 307.483ZM276.793 320.593C275.792 319.462 275.289 318.011 275.381 316.503L275.605 312.776C275.697 311.268 276.371 309.885 277.498 308.884C278.591 307.913 279.988 307.422 281.447 307.471L281.279 317.989L277.486 321.248C277.243 321.05 277.007 320.837 276.793 320.593ZM316.227 322.977C315.096 323.978 313.642 324.473 312.138 324.39L280.681 322.489C279.611 322.425 278.606 322.059 277.749 321.454L281.492 318.236L296.175 319.359C296.297 319.573 296.446 319.774 296.621 319.957C297.169 320.525 297.904 320.844 298.688 320.856C298.704 320.856 298.719 320.856 298.734 320.856C299.172 320.856 299.598 320.757 299.983 320.574C300.173 320.62 300.371 320.646 300.573 320.65C300.642 320.65 300.71 320.65 300.775 320.65C301.723 320.65 302.546 320.521 302.984 319.683L317.724 320.829C317.411 321.64 316.905 322.379 316.227 322.977ZM318.348 315.357L318.123 319.085C318.093 319.576 317.998 320.052 317.845 320.509L303.128 319.363C303.254 319.005 303.326 318.552 303.338 317.973L303.444 311.294C303.444 311.26 303.44 311.222 303.44 311.188L314.487 311.881C316.128 311.98 317.556 312.92 318.314 314.318C318.352 314.657 318.367 315.003 318.348 315.357ZM314.502 311.546L303.406 310.849C303.254 309.836 302.538 308.998 301.582 308.678L313.044 309.371C315.485 309.52 317.468 311.207 318.12 313.427C317.255 312.338 315.957 311.633 314.502 311.546Z" fill="#E9EEF1"/>
<path d="M173.844 363.218L176.928 380.769L179.708 400.566L350.869 420.645L351.399 420.706L347.88 379.394L173.844 363.218ZM178.067 382.612L186.078 383.453L187.183 390.665L187.613 390.601L187.567 391.035L190.389 391.343L192.251 395.14L192.228 395.349L192.361 395.364L192.373 395.387L180.454 399.584L178.067 382.612ZM350.443 419.716L182.015 399.957L188.572 397.649L188.569 397.668L350.073 415.421L350.443 419.716ZM350.001 414.537L190.431 396.994L193.123 396.046L192.978 395.635L193.317 395.471L349.875 413.022L350.001 414.537ZM349.845 412.694L193.214 395.136L192.243 393.152L349.681 410.771L349.845 412.694ZM349.651 410.44L192.076 392.806L191.417 391.458L349.518 408.806L349.651 410.44ZM349.438 407.923L187.994 390.205L186.973 383.549L348.809 400.558L349.438 407.923ZM177.941 381.725L177.789 380.632L174.899 364.193L347.077 380.194L348.737 399.675L177.941 381.725Z" fill="#E9EEF1"/>
<path d="M279.897 299.292L316.597 300.876H316.601C316.612 300.876 316.624 300.876 316.635 300.876C317.507 300.876 318.372 300.346 319.072 299.383C319.701 298.522 320.097 297.414 320.112 296.489L320.207 290.442C320.249 290.412 320.291 290.385 320.333 290.354L320.211 290.187L320.683 260.402L320.759 260.28C320.736 260.265 320.71 260.249 320.687 260.238L320.793 253.559L320.816 253.525C320.809 253.521 320.801 253.513 320.793 253.509L320.854 249.717C320.87 248.803 320.523 247.931 319.883 247.268C319.244 246.606 318.383 246.233 317.473 246.217L280.766 244.968C278.854 244.957 277.289 247.162 277.259 249.02L276.516 295.796C276.501 296.71 276.847 297.582 277.487 298.241C278.131 298.907 278.987 299.28 279.897 299.292ZM307.992 291.725C302.455 291.638 297.349 289.414 293.606 285.461C289.923 281.573 287.943 276.448 288.027 271.033C288.069 268.482 288.61 266.022 289.6 263.753C290.076 263.981 290.639 264.213 291.283 264.453C290.323 266.555 289.798 268.836 289.76 271.205C289.68 276.136 291.538 280.8 294.992 284.342C298.499 287.94 303.289 289.966 308.471 290.05C308.551 290.05 308.631 290.05 308.715 290.05C312.233 290.05 315.916 288.839 319.674 286.455L319.647 288.112C317.93 289.201 312.489 291.801 307.992 291.725ZM319.643 288.496L319.624 289.696C315.965 292.335 311.67 293.694 307.184 293.622C295.529 293.435 286.199 283.516 286.39 271.509C286.439 268.493 287.079 265.584 288.248 262.915C288.48 263.136 288.842 263.368 289.31 263.608C288.298 265.923 287.745 268.429 287.703 271.029C287.616 276.528 289.626 281.733 293.37 285.686C297.17 289.7 302.364 291.961 307.984 292.053C308.045 292.053 308.11 292.053 308.171 292.053C312.569 292.049 317.751 289.639 319.643 288.496ZM308.479 289.726C303.38 289.646 298.674 287.651 295.224 284.117C291.831 280.637 290.003 276.052 290.083 271.212C290.121 268.84 290.651 266.597 291.58 264.564C292.098 264.754 292.661 264.944 293.259 265.139C292.315 267.046 291.805 269.122 291.77 271.281C291.702 275.683 293.461 279.849 296.732 283.013C300.048 286.223 304.576 288.035 309.473 288.115C309.541 288.115 309.606 288.115 309.675 288.115C313.722 288.115 316.902 286.185 319.712 284.433L319.685 286.074C315.832 288.55 312.077 289.779 308.479 289.726ZM291.313 257.888C291.763 257.336 292.242 256.803 292.749 256.293C292.292 256.792 291.804 257.333 291.313 257.888ZM309.477 287.784C304.66 287.708 300.212 285.93 296.956 282.773C293.754 279.673 292.025 275.591 292.094 271.281C292.128 269.156 292.635 267.111 293.571 265.234C294.333 265.474 295.148 265.717 296.005 265.961C295.186 267.656 294.737 269.499 294.706 271.41C294.641 275.393 296.237 279.167 299.195 282.03C302.2 284.94 306.297 286.577 310.729 286.649C310.79 286.649 310.851 286.649 310.908 286.649C314.427 286.649 317.237 285.012 319.72 283.47L319.712 284.041C316.856 285.827 313.616 287.853 309.477 287.784ZM310.737 286.326C306.385 286.257 302.367 284.65 299.424 281.798C296.53 278.996 294.969 275.31 295.03 271.414C295.06 269.529 295.506 267.717 296.321 266.049C297.014 266.243 297.729 266.437 298.468 266.631C297.813 268.109 297.455 269.704 297.429 271.353C297.307 278.992 303.502 285.077 311.529 285.206C311.582 285.206 311.636 285.206 311.689 285.206C314.811 285.206 317.473 283.755 319.742 282.312L319.731 283.085C317.199 284.666 314.332 286.379 310.737 286.326ZM311.533 284.917C303.666 284.791 297.596 278.836 297.714 271.361C297.741 269.735 298.099 268.162 298.75 266.708C299.508 266.906 300.281 267.104 301.061 267.298C300.631 268.512 300.387 269.819 300.364 271.189C300.254 278.238 305.326 283.436 312.428 283.546C312.481 283.546 312.538 283.546 312.591 283.546C314.937 283.546 317.454 282.75 319.754 281.292L319.742 281.966C317.439 283.443 314.728 284.966 311.533 284.917ZM312.599 283.283C312.546 283.283 312.492 283.283 312.439 283.283C305.49 283.173 300.524 278.089 300.635 271.193C300.658 269.845 300.898 268.558 301.324 267.362C301.846 267.492 302.371 267.621 302.9 267.747C302.577 268.71 302.394 269.735 302.379 270.805C302.333 273.653 303.521 277.792 307.024 280.088C308.285 280.915 310.09 281.638 312.55 281.638C314.518 281.638 316.917 281.166 319.781 279.921L319.765 280.972C317.469 282.461 314.948 283.283 312.599 283.283ZM301.393 262.926C301.621 262.702 301.853 262.481 302.101 262.271C304.862 259.903 308.532 258.639 312.412 258.696C313.669 258.715 314.842 258.958 315.935 259.328C315.185 259.122 314.396 258.993 313.562 258.978C313.486 258.978 313.406 258.978 313.33 258.978C308.97 258.978 305.166 260.946 302.824 264.031C302.318 263.661 301.838 263.292 301.393 262.926ZM307.15 279.894C303.727 277.651 302.565 273.596 302.607 270.809C302.623 269.758 302.805 268.749 303.125 267.8C303.75 267.949 304.374 268.097 304.999 268.242C304.831 268.851 304.74 269.468 304.728 270.089C304.683 272.994 305.615 275.58 307.363 277.366C309.046 279.091 311.35 279.974 314.206 279.997C314.255 279.997 314.305 279.997 314.354 279.997C316.593 279.997 318.417 279.578 319.803 278.759L319.788 279.666C313.372 282.484 309.378 281.356 307.15 279.894ZM314.21 279.673C311.441 279.651 309.214 278.798 307.596 277.137C305.912 275.412 305.01 272.911 305.056 270.093C305.063 269.495 305.155 268.897 305.318 268.314C306.152 268.505 306.979 268.695 307.797 268.878C307.755 269.156 307.725 269.434 307.721 269.716C307.66 273.432 308.924 276.029 311.472 277.442C312.984 278.28 314.769 278.558 316.35 278.558C317.823 278.558 319.11 278.314 319.819 278.051L319.815 278.382C318.444 279.243 316.517 279.692 314.21 279.673ZM319.815 277.743C318.627 278.219 314.655 278.885 311.601 277.191C309.153 275.835 307.938 273.318 307.999 269.716C308.003 269.457 308.03 269.194 308.068 268.935C313.482 270.138 318.295 271.083 319.918 271.395L319.815 277.743ZM319.918 271.361C315.318 270.203 311.563 268.829 308.509 267.362C308.932 266.342 309.602 265.375 310.493 264.556C312.066 263.109 314.126 262.29 316.129 262.328C317.656 262.351 318.954 262.999 320.039 263.665L319.918 271.361ZM320.043 263.338C318.954 262.683 317.66 262.07 316.133 262.047C314.061 262.016 311.929 262.854 310.303 264.35C309.389 265.192 308.696 266.19 308.258 267.241C307.554 266.898 306.883 266.548 306.251 266.193C306.758 265.379 307.409 264.621 308.193 263.958C310.132 262.321 312.66 261.399 315.131 261.441C317.069 261.472 318.699 262.347 320.047 263.216L320.043 263.338ZM320.051 262.839C318.695 261.982 317.069 261.148 315.135 261.118C312.595 261.079 309.979 262.024 307.98 263.711C307.165 264.4 306.487 265.188 305.966 266.034C305.452 265.74 304.957 265.447 304.488 265.15C306.541 262.313 310.074 260.504 314.149 260.577C316.468 260.615 318.425 261.632 320.051 262.667V262.839ZM320.059 262.401C318.429 261.373 316.472 260.386 314.156 260.348C314.084 260.348 314.012 260.348 313.939 260.348C309.876 260.348 306.354 262.184 304.298 265.032C303.86 264.75 303.441 264.468 303.041 264.187C305.334 261.167 309.058 259.244 313.33 259.244C313.406 259.244 313.482 259.244 313.559 259.244C316.11 259.286 318.269 260.436 320.07 261.62L320.059 262.401ZM320.081 261.041C317.976 259.735 315.436 258.452 312.416 258.403C308.475 258.342 304.724 259.632 301.91 262.047C301.652 262.268 301.408 262.5 301.168 262.736C300.696 262.336 300.258 261.944 299.854 261.552C299.904 261.51 299.949 261.464 299.999 261.422C303.137 258.821 307.302 257.424 311.716 257.496C314.987 257.55 317.766 258.871 320.089 260.249L320.081 261.041ZM320.1 259.884C317.774 258.517 314.998 257.23 311.727 257.176C307.222 257.1 302.992 258.524 299.797 261.175C299.74 261.224 299.683 261.274 299.626 261.323C299.085 260.786 298.609 260.257 298.19 259.751C301.587 257.173 305.962 255.798 310.562 255.874C314.316 255.935 317.484 257.508 320.108 259.092L320.1 259.884ZM320.119 258.722C317.492 257.15 314.328 255.615 310.569 255.554C305.882 255.486 301.442 256.879 297.988 259.503C297.562 258.966 297.196 258.448 296.888 257.961C300.304 255.349 304.755 253.818 309.663 253.894C313.776 253.959 317.222 255.844 320.055 257.675L320.138 257.546L320.119 258.722ZM320.138 257.348C317.286 255.509 313.818 253.635 309.667 253.57C304.873 253.494 300.33 254.96 296.732 257.709C296.34 257.062 296.039 256.468 295.814 255.95C299.599 253.094 304.309 251.579 309.29 251.663C313.562 251.731 317.168 253.658 320.161 255.619L320.138 257.348ZM320.173 255.234C317.172 253.289 313.57 251.404 309.298 251.339C304.279 251.259 299.519 252.778 295.688 255.642C295.426 254.987 295.289 254.473 295.216 254.149C298.792 251.495 303.068 250.063 307.542 250.063C307.653 250.063 307.767 250.063 307.877 250.067C311.944 250.132 316.651 251.731 320.188 254.241L320.173 255.234ZM320.207 253.102C316.59 250.695 311.94 249.184 307.896 249.119C301.994 249.031 296.408 251.301 292.166 255.531C287.928 259.758 285.544 265.424 285.445 271.494C285.247 284.026 294.992 294.376 307.173 294.57C307.291 294.57 307.409 294.574 307.523 294.574C311.853 294.574 316.007 293.298 319.605 290.869L319.544 294.768C319.525 296.062 318.452 297.14 317.781 297.14C317.778 297.14 317.774 297.14 317.77 297.14L282.628 296.58C281.683 296.565 280.895 296.306 280.351 295.83C279.856 295.396 279.589 294.794 279.597 294.132L280.297 250.01C280.32 248.7 281.394 247.645 282.7 247.645C282.711 247.645 282.727 247.645 282.738 247.645L317.88 248.205C318.52 248.216 319.118 248.475 319.564 248.936C320.013 249.397 320.253 250.006 320.241 250.642L320.207 253.102ZM277.582 249.028C277.609 247.325 279.014 245.292 280.724 245.292C280.735 245.292 280.747 245.292 280.758 245.292L317.465 246.541C318.296 246.552 319.072 246.891 319.651 247.493C320.234 248.095 320.546 248.879 320.531 249.709L320.523 250.117C320.428 249.591 320.18 249.107 319.796 248.711C319.289 248.186 318.608 247.893 317.884 247.881L282.742 247.322C281.242 247.303 279.996 248.502 279.974 250.002L279.273 294.124C279.262 294.882 279.566 295.575 280.137 296.074C280.739 296.603 281.6 296.889 282.624 296.904L317.766 297.464C317.77 297.464 317.774 297.464 317.778 297.464C318.494 297.464 319.544 296.538 319.807 295.301L319.788 296.485C319.758 298.29 318.273 300.552 316.631 300.552C316.624 300.552 316.612 300.552 316.605 300.552L279.905 298.968C279.075 298.956 278.298 298.618 277.719 298.016C277.137 297.414 276.825 296.63 276.84 295.8L277.582 249.028Z" fill="#E9EEF1"/>
<path d="M287.809 311.1L283.609 313.08L287.394 316.115L287.417 314.718C287.417 314.718 290.083 314.702 290.376 314.763L290.452 312.539L287.954 312.334L287.809 311.1Z" fill="#E9EEF1"/>
<path d="M363.432 124.262C363.432 124.217 363.424 124.175 363.42 124.129L363.496 124.061C363.47 124.03 363.436 124.003 363.409 123.973C363.352 123.257 363.123 122.69 362.716 122.301C362.152 121.764 361.44 121.734 361.162 121.742L294.503 124.061L294.362 124.064C293.612 124.087 292.359 124.125 292.336 125.668L293.414 170.463L293.429 170.528C293.848 171.423 294.567 171.971 295.306 171.971C295.325 171.971 295.344 171.971 295.363 171.971L298.505 171.926C298.535 171.926 298.562 171.93 298.596 171.93C298.661 171.93 298.729 171.922 298.798 171.922L316.272 171.667V171.712L316.588 171.705V171.663L341.788 171.294V171.301L342.104 171.294V171.29L362.331 170.993C362.925 170.981 363.409 170.78 363.774 170.391C364.517 169.603 364.547 168.259 364.528 167.718L363.432 124.262ZM295.356 171.652C294.602 171.686 294.038 171.042 293.741 170.429L292.663 125.675C292.682 124.544 293.414 124.43 294.373 124.4L361.174 122.077C361.414 122.069 362.015 122.096 362.491 122.545C362.781 122.819 362.967 123.208 363.051 123.691C362.59 123.413 362.107 123.394 361.878 123.402L358.36 123.524V123.459L358.044 123.467V123.535L297.366 125.645L297.229 125.648C296.506 125.671 295.291 125.709 295.268 127.202L296.311 170.559L296.327 170.623C296.536 171.073 296.844 171.404 297.24 171.625L295.356 171.652ZM298.383 171.606C297.545 171.549 296.951 171.191 296.624 170.517L295.58 127.198C295.599 126.102 296.307 125.991 297.233 125.965L297.61 125.953L298.813 171.602L298.383 171.606ZM302.076 171.553L300.877 125.919L300.561 125.926L301.76 171.556L299.125 171.594L297.922 125.942L303.478 125.747L304.669 171.514L302.076 171.553ZM307.811 171.469L306.611 125.839L306.295 125.847L307.495 171.473L304.982 171.511L303.79 125.736L312.171 125.447L313.351 171.389L307.811 171.469ZM318.785 171.309L317.589 125.401L317.273 125.409L318.469 171.313L316.58 171.339L315.4 125.355L315.084 125.363L316.264 171.343L313.671 171.381L312.491 125.431L320.194 125.165L321.39 171.187L321.706 171.179L320.51 125.157L326.066 124.963L327.254 171.183L318.785 171.309ZM333.304 171.096L332.112 124.841L331.796 124.849L332.984 171.103L327.562 171.183L326.374 124.955L334.755 124.662L335.943 170.886L336.259 170.879L335.071 124.651L340.562 124.46L341.777 170.974L333.304 171.096ZM342.097 170.97L340.878 124.449L343.483 124.358L344.701 170.928L342.097 170.97ZM345.021 170.924L343.802 124.346L346.434 124.255L347.652 170.886L345.021 170.924ZM347.968 170.882L346.75 124.243L349.354 124.152L350.561 170.84L347.968 170.882ZM350.877 170.84L349.67 124.144L352.164 124.057L353.387 170.802L350.877 170.84ZM353.707 170.799L352.484 124.045L355.089 123.954L356.3 170.761L353.707 170.799ZM356.616 170.757L355.405 123.943L358.047 123.851L359.258 170.715L356.616 170.757ZM359.578 170.711L358.367 123.84L360.957 123.748L362.171 170.673L359.578 170.711ZM363.542 170.174C363.272 170.46 362.914 170.616 362.487 170.658L361.273 123.741L361.89 123.718C362.118 123.706 362.651 123.737 363.093 124.11C363.097 124.163 363.104 124.213 363.104 124.266L364.205 167.733C364.224 168.236 364.197 169.477 363.542 170.174Z" fill="#E9EEF1"/>
<path d="M337.988 124.607L337.672 124.615L338.864 170.97L339.179 170.962L337.988 124.607Z" fill="#E9EEF1"/>
<path d="M329.199 125.09L328.883 125.098L330.08 171.125L330.396 171.117L329.199 125.09Z" fill="#E9EEF1"/>
<path d="M323.464 125.171L323.148 125.18L324.345 171.207L324.661 171.199L323.464 125.171Z" fill="#E9EEF1"/>
<path d="M309.535 125.594L309.219 125.602L310.421 171.291L310.737 171.282L309.535 125.594Z" fill="#E9EEF1"/>
<path d="M286.915 169.012C286.896 168.852 286.881 168.719 286.877 168.628L285.468 131.391C285.434 130.225 285.384 129.308 285.293 128.58H285.354L285.346 128.253L285.243 128.257C284.885 126.006 283.983 125.846 281.432 125.884L189.568 128.184C188.822 128.169 188.228 128.417 187.778 128.912C186.705 130.096 186.792 132.388 186.937 133.641L188.62 172.375C188.685 173.449 190.223 175.235 191.293 175.235C191.312 175.235 191.331 175.235 191.35 175.235L283.96 173.833C284.942 173.909 285.7 173.681 286.214 173.144C286.504 172.843 286.694 172.466 286.82 172.063H286.881L286.877 171.857C287.124 170.84 286.991 169.683 286.915 169.012ZM188.947 172.36L187.264 133.614C187.123 132.407 187.036 130.218 188.022 129.132C188.395 128.721 188.898 128.512 189.522 128.512C189.538 128.512 189.557 128.512 189.572 128.512L281.443 126.208C283.812 126.174 284.615 126.242 284.931 128.26L192.812 130.545C192.062 130.53 191.472 130.777 191.023 131.272C189.949 132.457 190.036 134.749 190.181 136.002L191.582 170.973L189.058 172.82C188.997 172.653 188.955 172.497 188.947 172.36ZM285.978 172.916C285.533 173.376 284.859 173.574 283.979 173.506H283.971L191.335 174.907C190.68 174.953 189.705 174.027 189.229 173.171L286.473 172.063C286.363 172.39 286.207 172.683 285.978 172.916ZM286.568 171.739L189.587 172.843L191.807 171.217L286.549 170.391L286.546 170.063L191.91 170.89L190.509 135.975C190.368 134.768 190.28 132.579 191.266 131.493C191.651 131.071 192.173 130.857 192.816 130.873L284.977 128.588C285.064 129.296 285.106 130.214 285.14 131.402L286.549 168.643C286.557 168.742 286.572 168.883 286.591 169.051C286.664 169.686 286.789 170.791 286.568 171.739Z" fill="#E9EEF1"/>
<path d="M344.847 321.278C345.448 321.446 346.202 321.549 346.865 321.56L386.261 322.653C386.432 322.657 386.596 322.657 386.756 322.657C388.679 322.657 389.775 322.459 390.187 322.04C390.407 321.815 390.4 321.572 390.396 321.389C390.396 321.358 390.396 321.328 390.396 321.305L390.415 320.92C391.04 319.904 391.062 318.613 391.074 317.722L391.809 281.303C391.828 281.292 391.847 281.277 391.862 281.265L391.809 281.189L391.813 280.922C391.915 280.827 392.018 280.736 392.102 280.648L391.824 280.374L392.654 239.15C392.681 237.406 391.283 235.963 389.539 235.932L348.799 235.285C347.055 235.262 344.946 236.637 344.915 238.392L344.367 285.511L344.291 285.515C344.287 285.793 344.283 286.162 344.356 286.543L344.081 310.182L343.758 320.559C343.762 320.837 344.123 321.08 344.847 321.278ZM390.03 321.88C389.775 322.135 389.151 322.303 388.168 322.379C389.113 322.192 389.749 321.781 390.175 321.259V321.297C390.175 321.328 390.175 321.362 390.175 321.396C390.183 321.556 390.187 321.724 390.03 321.88ZM390.754 317.718C390.743 318.396 390.723 319.253 390.465 320.037L390.876 311.702L390.754 317.718ZM391.428 284.231H391.378C391.363 285.202 391.329 286.836 387.167 286.764L378.394 286.406C379.022 286.352 379.654 286.265 380.282 286.151C382.792 285.964 385.027 285.157 387.331 284.037C387.83 283.816 388.309 283.569 388.781 283.299C389.174 283.093 389.566 282.88 389.97 282.663L389.931 282.594C390.446 282.259 390.956 281.905 391.477 281.539L391.428 284.231ZM369.263 283.238C366.803 281.939 364.594 280.191 362.755 278.04C358.993 273.638 357.222 268.097 357.767 262.435C358.327 256.647 360.893 251.423 364.998 247.725C369.225 243.917 374.715 242.124 380.473 242.684C384.395 243.061 387.814 245.262 390.975 247.699C390.236 247.249 389.505 246.872 388.762 246.568C386.443 244.938 384.109 244.134 380.998 243.834C370.218 242.794 360.531 251.35 359.412 262.911C358.589 271.479 362.694 279.323 369.263 283.238ZM380.507 242.314C374.651 241.747 369.053 243.571 364.75 247.451C360.577 251.21 357.969 256.522 357.401 262.401C356.845 268.162 358.646 273.802 362.477 278.28C365.318 281.604 369.023 283.992 373.185 285.241C363.307 283.283 355.893 274.171 356.065 263.372C356.255 251.282 365.877 241.606 377.518 241.785C382.735 241.869 386.729 243.384 390.209 246.659C387.277 244.496 384.113 242.661 380.507 242.314ZM359.758 262.945C360.855 251.571 370.374 243.152 380.968 244.176C383.466 244.416 385.45 244.991 387.338 246.069C387.011 245.974 386.676 245.894 386.333 245.821C385.21 245.482 384.003 245.262 382.651 245.128C371.871 244.085 362.226 252.219 361.16 263.258C360.642 268.604 362.191 273.828 365.519 277.964C368.848 282.103 373.558 284.662 378.782 285.164C379.388 285.222 379.966 285.252 380.53 285.26C379.982 285.37 379.429 285.458 378.881 285.519C378.272 285.519 377.644 285.488 376.985 285.423C366.384 284.407 358.658 274.32 359.758 262.945ZM373.642 286.208L356.206 285.496L354.701 285.164C352.375 285.126 351.259 284.197 351.29 282.316L351.594 242.215C351.621 240.483 352.817 239.036 354.408 238.613L356.659 238.64L357.474 238.743C355.634 239.108 354.237 240.65 354.206 242.52L353.601 280.728C353.563 283.055 354.766 284.258 357.637 284.765L373.642 286.208ZM382.4 245.448C372.035 245.49 363.528 254.161 363.353 264.956C363.193 275.153 370.523 283.691 380.065 284.921C379.658 284.905 379.243 284.879 378.813 284.837C373.68 284.342 369.049 281.829 365.778 277.758C362.508 273.687 360.984 268.551 361.491 263.292C362.534 252.508 371.886 244.553 382.4 245.448ZM391.512 280.081C390.419 281.181 387.864 282.792 384.795 283.992C383.984 284.167 383.115 284.258 382.156 284.239C372.08 284.079 364.019 275.435 364.187 264.967C364.35 254.599 372.53 246.274 382.476 246.274C382.571 246.274 382.666 246.275 382.761 246.278C386.455 246.335 388.938 247.162 391.923 249.328C391.961 249.359 391.999 249.389 392.037 249.42L392.136 249.306L391.512 280.081ZM392.136 249.069C392.129 249.066 392.125 249.062 392.117 249.054L392.136 249.028V249.069ZM392.155 248.152C392.079 248.091 391.999 248.03 391.923 247.965L392.163 247.752L392.155 248.152ZM392.167 247.482C388.203 243.068 383.679 241.05 377.529 240.951C365.424 240.761 355.433 250.81 355.231 263.357C355.063 274.007 362.009 283.078 371.509 285.698L357.668 284.452C354.96 283.976 353.871 282.899 353.906 280.732L354.511 242.524C354.542 240.555 356.236 238.975 358.319 238.975C358.338 238.975 358.361 238.975 358.384 238.975L360.908 238.689L387.982 239.001C389.025 239.066 392.418 239.542 392.209 242.874L392.258 242.878L392.167 247.482ZM345.25 238.4C345.273 236.884 347.185 235.616 348.757 235.616C348.773 235.616 348.788 235.616 348.803 235.616L389.543 236.264C391.108 236.286 392.361 237.581 392.338 239.146L392.296 241.233C391.873 240.098 390.773 238.857 388.001 238.682L356.682 238.32L355.452 238.164C355.078 238.156 354.717 238.206 354.374 238.293L348.754 238.228C347.752 238.095 346.93 238.289 346.305 238.803C345.749 239.26 345.426 239.919 345.228 240.566L345.25 238.4ZM345.201 242.619L345.235 242.623L345.239 242.539C345.281 241.838 345.395 239.972 346.507 239.055C347.059 238.598 347.798 238.43 348.727 238.552L353.532 238.609C352.215 239.279 351.293 240.639 351.271 242.219L350.966 282.32C350.951 283.409 351.293 284.228 351.987 284.757C352.402 285.073 352.931 285.282 353.578 285.393L347.771 285.157C346.397 285.134 344.938 284.681 344.95 283.881L344.717 283.877L345.201 242.619ZM344.717 284.285C345.072 285.073 346.458 285.454 347.764 285.477L356.19 285.823L356.567 285.907L356.583 285.838L387.159 287.091C387.243 287.091 387.323 287.091 387.403 287.091C389.935 287.091 390.971 286.436 391.401 285.694L391.378 286.908H391.268C391.26 287.35 391.184 287.997 390.594 288.527C389.886 289.159 388.606 289.464 386.817 289.441L347.87 288.154C346.617 288.218 345.723 288.001 345.205 287.502C344.915 287.221 344.767 286.882 344.695 286.535L344.717 284.285ZM344.679 287.362C344.759 287.491 344.854 287.617 344.973 287.735C345.559 288.298 346.534 288.553 347.866 288.477L386.801 289.764C386.878 289.764 386.958 289.764 387.03 289.764C388.797 289.764 390.065 289.429 390.8 288.767C391.036 288.553 391.215 288.31 391.344 288.032L391.1 300.145C390.868 299.684 390.491 299.295 389.973 299.006C389.029 298.477 387.898 298.385 387.312 298.374L347.585 296.744C347.569 296.744 347.55 296.744 347.535 296.744C346.119 296.744 344.896 297.719 344.546 298.34L344.679 287.362ZM344.477 304.912L344.672 298.644C344.675 298.298 345.94 296.965 347.543 296.965C347.558 296.965 347.573 296.965 347.588 296.965L387.315 298.595C387.887 298.602 388.976 298.694 389.874 299.196C390.541 299.57 390.952 300.091 391.097 300.746L391.032 304.029L390.213 320.616C389.726 321.492 388.789 322.158 386.969 322.158C386.931 322.158 386.889 322.158 386.851 322.158L365.363 320.905L365.942 297.73L365.626 297.723L365.222 313.823L345.113 318.552L345.186 318.857L365.215 314.146L365.169 315.97L347.47 319.866H347.463C346.694 319.854 345.905 319.534 345.296 318.99C344.664 318.426 344.325 317.71 344.337 316.975L344.477 304.912ZM365.158 316.302L365.044 320.894L348.628 319.938L365.158 316.302ZM344.081 317.623C344.222 318.217 344.561 318.773 345.079 319.237C345.745 319.835 346.614 320.186 347.451 320.197L385.271 322.398L346.869 321.336C346.221 321.324 345.49 321.221 344.904 321.061C344.177 320.86 343.986 320.654 343.99 320.566L344.081 317.623Z" fill="#E9EEF1"/>
<path d="M375.385 256C376.642 254.332 378.203 252.87 380.137 251.925L380.263 251.857L380.225 251.746C380.175 251.605 380.153 251.533 373.047 253.125L372.99 253.136L372.963 253.186C372.91 253.277 367.705 262.446 370.275 268.44L370.462 268.878L370.523 268.406C370.534 268.33 371.155 263.745 373.382 259.274C373.264 259.587 373.146 259.914 373.036 260.257C372.339 262.393 371.722 265.443 372.754 267.846L372.941 268.284L373.001 267.812C373.013 267.716 374.3 258.189 380.324 255.249L380.446 255.185L380.408 255.074C380.358 254.933 380.343 254.888 375.385 256ZM370.34 267.895C368.333 262.252 372.762 254.08 373.161 253.368C375.214 252.908 378.066 252.283 379.38 252.032C377.609 253.037 376.173 254.476 375.004 256.087C374.966 256.095 374.932 256.102 374.894 256.11L374.837 256.121L374.81 256.171C374.806 256.179 374.631 256.483 374.376 257.001C371.634 261.262 370.603 266.334 370.34 267.895ZM372.819 267.294C371.642 263.768 373.675 259.004 374.605 257.119C374.78 256.849 374.963 256.582 375.149 256.319C376.611 255.992 378.53 255.573 379.559 255.367C374.715 258.258 373.158 265.371 372.819 267.294Z" fill="#E9EEF1"/>
<path d="M324.847 129.03L324.523 129.041L325.713 164.738L326.036 164.727L324.847 129.03Z" fill="#E9EEF1"/>
<path d="M330.62 127.319L330.297 127.328L331.404 168.025L331.728 168.016L330.62 127.319Z" fill="#E9EEF1"/>
<path d="M336.722 128.375L336.398 128.385L337.541 167.084L337.864 167.074L336.722 128.375Z" fill="#E9EEF1"/>
<path d="M342.292 129.986L341.969 129.997L343.158 165.693L343.482 165.682L342.292 129.986Z" fill="#E9EEF1"/>
<path d="M365.798 290.796L365.742 294.276L369.222 294.332L369.278 290.852L365.798 290.796Z" fill="#E9EEF1"/>
<path d="M319.128 127.132L318.805 127.141L319.912 167.838L320.236 167.829L319.128 127.132Z" fill="#E9EEF1"/>
<path d="M314.003 130.766L313.68 130.776L314.869 166.473L315.193 166.462L314.003 130.766Z" fill="#E9EEF1"/>
</g>
</g>
<defs>
<filter id="filter0_f_6182_102363" x="-30" y="-9" width="1025" height="1025" filterUnits="userSpaceOnUse" color-interpolation-filters="sRGB">
<feFlood flood-opacity="0" result="BackgroundImageFix"/>
<feBlend mode="normal" in="SourceGraphic" in2="BackgroundImageFix" result="shape"/>
<feGaussianBlur stdDeviation="150" result="effect1_foregroundBlur_6182_102363"/>
</filter>
<filter id="filter1_f_6182_102363" x="-532" y="-476" width="1111" height="1111" filterUnits="userSpaceOnUse" color-interpolation-filters="sRGB">
<feFlood flood-opacity="0" result="BackgroundImageFix"/>
<feBlend mode="normal" in="SourceGraphic" in2="BackgroundImageFix" result="shape"/>
<feGaussianBlur stdDeviation="150" result="effect1_foregroundBlur_6182_102363"/>
</filter>
<clipPath id="clip0_6182_102363">
<rect width="440" height="440" fill="white" transform="translate(0 100)"/>
</clipPath>
<clipPath id="clip1_6182_102363">
<rect width="332" height="323" fill="white" transform="translate(163 109)"/>
</clipPath>
</defs>
</svg>
