<svg width="285" height="320" viewBox="0 0 285 320" fill="none" xmlns="http://www.w3.org/2000/svg">
<g clip-path="url(#clip0_5737_6336)">
<g opacity="0.6">
<path d="M150.896 175.074C150.395 175.074 149.938 175.252 149.582 175.598C149.228 175.943 149.03 176.407 149.022 176.903C149.014 177.4 149.199 177.869 149.541 178.228C149.884 178.584 150.344 178.784 150.836 178.793C150.847 178.793 150.855 178.793 150.866 178.793C151.347 178.793 151.801 178.606 152.147 178.269C152.878 177.556 152.895 176.377 152.187 175.639C151.847 175.285 151.388 175.082 150.896 175.074ZM151.964 178.08C151.339 178.691 150.335 178.675 149.732 178.044C149.438 177.74 149.28 177.337 149.286 176.911C149.294 176.486 149.462 176.089 149.767 175.793C150.074 175.494 150.469 175.346 150.866 175.346C151.279 175.346 151.692 175.507 152 175.831C152.293 176.138 152.451 176.539 152.443 176.964C152.438 177.386 152.269 177.784 151.964 178.08Z" fill="#E9EEF1"/>
<path d="M150.906 175.963C150.639 175.971 150.392 176.059 150.201 176.243C150.011 176.426 149.905 176.676 149.9 176.942C149.891 177.49 150.327 177.945 150.87 177.954C150.876 177.954 150.881 177.954 150.887 177.954C151.145 177.954 151.387 177.855 151.575 177.674C151.765 177.49 151.871 177.241 151.877 176.975C151.885 176.426 151.45 175.974 150.906 175.963ZM150.879 177.69C150.686 177.688 150.503 177.608 150.37 177.468C150.234 177.328 150.163 177.145 150.166 176.95C150.169 176.755 150.248 176.572 150.386 176.437C150.522 176.306 150.702 176.232 150.889 176.232C150.892 176.232 150.898 176.232 150.9 176.232C151.3 176.237 151.618 176.572 151.613 176.972C151.607 177.375 151.276 177.688 150.879 177.69Z" fill="#E9EEF1"/>
<path d="M169.572 175.779C169.205 175.475 168.756 175.343 168.305 175.406C167.853 175.472 167.459 175.724 167.192 176.122C166.646 176.931 166.812 178.093 167.56 178.716C167.864 178.971 168.229 179.105 168.601 179.105C168.675 179.105 168.751 179.1 168.824 179.089C169.276 179.023 169.67 178.771 169.937 178.373C170.486 177.564 170.32 176.399 169.572 175.779ZM169.722 178.222C169.496 178.557 169.167 178.768 168.789 178.823C168.411 178.878 168.036 178.765 167.725 178.51C167.078 177.973 166.937 176.969 167.41 176.27C167.636 175.935 167.968 175.721 168.343 175.669C168.405 175.661 168.468 175.656 168.528 175.656C168.841 175.656 169.145 175.768 169.404 175.982C170.051 176.519 170.192 177.526 169.722 178.222Z" fill="#E9EEF1"/>
<path d="M168.241 176.279C167.996 176.315 167.784 176.452 167.64 176.666C167.499 176.877 167.442 177.135 167.477 177.395C167.548 177.894 167.95 178.259 168.402 178.259C168.442 178.259 168.481 178.256 168.521 178.251C169.019 178.179 169.362 177.678 169.286 177.135C169.207 176.592 168.739 176.208 168.241 176.279ZM168.483 177.987C168.13 178.037 167.795 177.754 167.738 177.357C167.711 177.162 167.752 176.967 167.858 176.814C167.961 176.663 168.108 176.567 168.279 176.542C168.306 176.54 168.334 176.537 168.361 176.537C168.682 176.537 168.97 176.806 169.024 177.173C169.079 177.571 168.837 177.938 168.483 177.987Z" fill="#E9EEF1"/>
<path d="M214.775 65.0331C214.435 65.14 214.081 65.3704 213.774 65.6775C213.47 65.9846 213.241 66.3439 213.135 66.6866C213.004 67.1034 213.062 67.4627 213.295 67.6985C213.448 67.8521 213.649 67.9288 213.888 67.9288C214.016 67.9288 214.155 67.9069 214.299 67.8603C214.639 67.7533 214.993 67.523 215.3 67.2159C215.604 66.9088 215.833 66.5495 215.939 66.2067C216.069 65.7899 216.012 65.4307 215.778 65.1949C215.545 64.9618 215.188 64.9042 214.775 65.0331ZM215.294 66.0038C215.221 66.2397 215.05 66.5057 214.824 66.7333C214.598 66.9609 214.334 67.1336 214.1 67.2077C213.929 67.2625 213.812 67.2488 213.777 67.2131C213.741 67.1775 213.731 67.0623 213.785 66.8868C213.858 66.651 214.03 66.385 214.255 66.1574C214.481 65.9298 214.745 65.757 214.979 65.683C215.063 65.6556 215.134 65.6473 215.186 65.6473C215.243 65.6473 215.284 65.6583 215.3 65.6775C215.335 65.7132 215.349 65.8311 215.294 66.0038Z" fill="#E9EEF1"/>
<path d="M264.547 115.413L264.561 114.623C264.993 114.645 265.374 114.659 265.698 114.659C266.563 114.659 267.06 114.571 267.313 114.332C267.433 114.22 267.498 114.075 267.498 113.913H267.185L267.498 113.907L267.226 98.0162H267.183C267.215 97.827 267.234 97.6268 267.207 97.4349C267.139 96.9193 266.669 96.4833 265.921 96.1186V87.467H265.885C265.885 85.7421 260.827 84.8098 256.067 84.8098C251.308 84.8098 246.249 85.7421 246.249 87.467H246.214V96.2612C245.597 96.604 245.227 97.0071 245.227 97.4842C245.227 97.4897 245.235 97.7941 245.281 98.1259V101.107C245.034 101.011 244.778 100.964 244.514 100.964C243.435 100.964 242.51 101.792 242.124 102.963C241.408 102.722 240.541 102.59 239.643 102.59C239.393 102.59 239.148 102.587 238.915 102.582C237.065 102.557 235.471 102.53 235.431 104.567C235.42 105.108 235.561 105.522 235.863 105.831C236.562 106.55 237.993 106.55 239.646 106.55C240.688 106.55 241.67 106.374 242.439 106.059C242.91 106.852 243.666 107.37 244.517 107.37C244.778 107.37 245.037 107.315 245.284 107.219V107.644V113.907C245.284 114.047 245.333 114.173 245.425 114.28L222.55 106.871C222.316 101.332 220.217 95.8581 216.573 91.3554C213.01 86.9514 208.286 83.7952 203.205 82.3994C203.39 82.2129 203.589 82.0155 203.809 81.7961C205.139 80.4661 207.029 78.5631 209.273 76.2898C213.423 72.086 217.53 67.8959 218.27 67.1254C218.362 67.0294 218.735 66.6729 218.808 66.6181C220.682 65.395 225.485 63.4508 226.624 64.6684C228.381 68.1098 231.892 70.2926 235.776 70.2926C241.452 70.2926 246.07 65.6364 246.07 59.9161C246.07 54.1932 241.452 49.5369 235.776 49.5369C235.463 49.5369 235.148 49.5506 234.841 49.578L234.884 50.0524L234.841 49.578C234.441 49.6137 234.044 49.6795 233.652 49.7645L233.152 49.5397L229.355 47.8285L228.936 48.7746L232.281 50.2801C234.161 51.7581 235.216 53.9327 235.132 56.2005C235.025 58.9701 233.725 60.7196 232.651 61.6986C231.18 63.0422 229.181 63.7991 227.245 63.7579C227.217 63.6976 227.187 63.6428 227.163 63.5824L226.91 63.6894C224.661 62.3375 219.295 65.1674 218.3 65.8173C218.123 65.9325 217.601 66.4563 217.595 66.4618C215.7 68.4334 202.659 81.6946 200.902 83.3317C200.034 82.989 197.383 81.9552 196.026 81.4287C200.981 76.1527 212.749 63.9417 214.946 63.0971C217.068 62.2799 219.79 61.8439 220.652 61.7178L220.769 61.7699L220.802 61.6958C220.845 61.6903 220.878 61.6848 220.897 61.6821C225.46 61.6629 229.611 57.6346 229.611 53.2115C229.611 51.4208 229.118 49.7865 228.248 48.4592L228.936 48.7691L229.355 47.823L226.312 46.4519C225.697 46.0187 225.012 45.6732 224.261 45.4428L224.239 45.5196L207.864 38.1431L207.834 38.2116C206.398 36.9831 204.516 36.251 202.398 36.251C197.875 36.251 194.195 39.9612 194.195 44.5214C194.195 48.207 196.599 51.3358 199.907 52.3998L199.874 52.4765L212.463 58.0816H212.246C212.246 58.109 212.229 60.9225 211.092 62.3649C209.939 63.8265 195.161 78.862 193.271 80.7815C191.769 80.2193 190.17 79.5996 188.726 78.9854C186.322 77.968 185.963 78.1024 185.794 78.2258L151.755 66.012L151.728 66.0916C149.054 63.8265 145.823 61.9015 141.981 60.2781L141.953 60.3467C139.144 58.4271 136.098 57.3522 132.97 57.2206L113.375 51.3193L113.362 51.3495C109.497 49.3587 105.203 48.2453 100.683 48.2453C83.8316 48.2453 70.1191 63.6949 70.1191 82.6873C70.1191 101.469 83.5298 116.787 100.125 117.124L100.114 117.181L117.085 120.335C118.975 121.336 122.312 122.828 125.423 122.828C125.513 122.828 125.603 122.828 125.693 122.825C127.498 122.773 129.266 122.545 130.98 122.156L130.971 122.318C131.485 122.342 131.994 122.356 132.503 122.356C134.398 122.356 136.258 122.178 138.062 121.829L142.576 122.91C142.486 128.88 142.497 130.02 142.663 130.33C142.617 130.262 142.601 130.19 142.598 130.152C142.598 130.174 142.598 130.204 142.598 130.242C142.56 131.679 143.324 132.582 144.877 132.927C145.339 133.029 146.302 133.083 147.561 133.1C147.545 133.484 147.531 133.862 147.518 134.232H141.717L141.733 134.38C141.736 134.405 141.983 136.854 141.246 137.679C141.094 137.849 140.912 137.934 140.694 137.934V138.2H140.754C140.849 139.563 139.925 140.136 139.778 140.219C139.487 140.23 139.256 140.342 139.095 140.559C138.693 141.11 138.875 142.122 138.973 142.533C138.858 142.533 138.712 142.536 138.565 142.538C138.353 142.541 138.149 142.544 138.089 142.544C136.941 142.544 136.006 144.195 136.006 146.221C136.006 148.056 136.772 149.578 137.768 149.852V149.901H139.188C139.052 150.48 139.315 152.109 140.316 152.885C141.431 153.749 141.73 156.828 141.733 156.858L141.744 156.968L148.005 157.582L147.991 157.607L148.217 157.744L150.167 154.456L150.197 154.407L149.25 151.256C150.295 153.666 151.456 153.861 151.714 153.872C151.714 153.872 153.928 153.88 155.484 153.891L155.489 152.97C154.04 152.962 152.024 152.953 151.75 152.951C151.527 152.896 147.703 151.678 148.472 133.188H152.506C152.451 135.65 152.291 146.649 153.588 149.589C153.865 150.217 154.779 151.346 155.535 151.261L155.437 150.346C155.456 150.343 155.465 150.346 155.467 150.346C155.274 150.313 154.668 149.767 154.423 149.213C153.83 147.872 153.566 144.562 153.458 141.258L157.921 141.313L157.918 141.315L167.271 141.411C167.192 143.402 167.099 145.837 167.053 147.362L155.701 147.195L155.699 147.538C155.641 152.199 155.669 154.848 155.731 156.365C154.559 156.543 153.55 157.456 153.596 158.312C153.61 158.578 153.713 158.83 153.887 159.071L153.999 162.694C144.586 164.163 143.058 167.745 142.998 167.898L142.971 167.967L143.444 178.793L143.449 178.919L143.534 179.01C143.672 179.161 144.213 179.725 144.79 180.076C141.7 187.206 103.699 274.852 99.2113 285.251H98.0962L93.7747 294.511L95.0285 298.72L95.1563 298.786C95.3032 298.863 98.5722 300.558 101.112 300.558C101.281 300.558 101.447 300.549 101.607 300.536C101.841 300.514 102.274 300.47 105.874 292.043L105.91 291.961L105.703 290.159L105.306 290.206C121.417 252.673 151.11 183.713 153.436 179.128C154.54 178.842 155.462 178.639 155.908 178.804C158.396 179.723 162.791 179.248 164.668 179.048C165.024 179.01 165.332 178.985 165.408 178.98C165.443 178.982 165.516 179.004 165.609 179.034C166.591 182.062 187.393 246.268 189.844 254.162L189.743 254.091L188.601 255.684L190.94 262.304L199.716 263.209L201.34 258.309L199.439 252.018L197.978 251.228L197.921 251.335L191.824 232.625L222.167 298.054L220.475 298.449L225.295 308.762H225.509C225.648 308.762 228.925 308.757 230.076 308.277C230.446 308.121 236.238 304.759 236.899 304.377L237.163 304.224L232.439 293.551L231.672 293.946L179.324 178.757C180.02 178.445 180.496 178.217 180.556 178.187L180.76 178.088L180.747 177.861C180.744 177.806 180.434 172.253 180.35 169.651C180.276 167.457 177.679 165.699 174.799 164.361C174.777 163.385 174.701 161.068 174.502 160.574C174.412 160.349 174.203 160.174 173.888 160.05C173.186 159.776 171.94 159.768 171.19 159.825L171.116 158.095C171.176 157.93 171.203 157.763 171.192 157.596C171.149 156.803 170.393 156.153 169 155.687L168.72 155.52V153.4C168.927 153.477 169.158 153.521 169.422 153.521C171.388 153.521 175.079 153.584 175.117 153.584V153.521C175.457 153.669 175.797 153.749 176.131 153.749C176.186 153.749 176.237 153.746 176.292 153.743C177.358 153.666 178.141 152.849 178.636 152.238C179.147 151.61 179.814 147.148 180.328 143.07L186.24 143.175C186.784 143.808 187.434 144.154 188.166 144.154C188.968 144.154 189.433 144.033 189.594 143.786C189.618 143.748 189.632 143.709 189.64 143.671C191.554 143.457 192.536 138.595 192.92 136.034C193.98 136.193 194.911 136.292 195.585 136.327C195.979 136.347 196.374 136.358 196.765 136.358C198.759 136.358 200.725 136.103 202.634 135.612L202.632 135.623L216.524 138.88L216.676 138.217L216.597 138.198L216.866 132.938L219.6 133.615C219.983 138.617 221.539 141.732 223.799 141.867L223.826 141.4L223.818 141.869L225.961 141.902C226.023 141.911 226.086 141.921 226.149 141.924V141.905L231.139 141.982L231.142 141.858C231.335 141.924 231.531 141.968 231.729 141.979C231.773 141.982 231.816 141.982 231.86 141.982C233.23 141.982 234.555 140.682 235.599 138.299C235.692 138.088 235.782 137.869 235.869 137.644L242.88 139.379C242.358 145.654 242.515 145.835 242.632 145.966L242.736 146.079L263.658 147.123L263.998 147.225L268.412 132.008C269.679 131.863 271.395 131.589 271.395 130.168C271.395 129.439 270.93 128.797 269.984 128.227L271.526 123.214L270.879 123.011L270.696 123.606L264.447 121.317L264.46 120.488L271.545 123.173L271.643 122.811C271.651 122.778 272.557 119.403 272.78 118.692L272.88 118.377L264.547 115.413ZM245.124 59.9216C245.124 65.1208 240.93 69.3493 235.773 69.3493C232.975 69.3493 230.391 68.1016 228.645 66.0257C230.263 66.6098 232.428 66.9224 233.753 66.9224C238.24 66.9224 241.89 63.2424 241.89 58.7178C241.89 56.0195 240.631 53.5926 238.675 52.1036L238.7 52.046L238.433 51.9254C237.661 51.3852 236.791 50.9848 235.852 50.7627L235.281 50.5049C235.444 50.4967 235.61 50.4912 235.773 50.4912C240.927 50.4912 245.124 54.7224 245.124 59.9216ZM234.397 50.5981L234.367 50.664L234.397 50.5981ZM232.934 50.0168L232.757 50.4144L232.934 50.0168ZM227.386 63.9801C229.322 63.9801 231.313 63.2068 232.784 61.8631C233.889 60.8567 235.224 59.0578 235.333 56.2169C235.414 54.1109 234.536 52.0817 232.945 50.5899L234.158 51.1356L235.015 51.5223L235.009 51.5744C235.077 51.5826 235.142 51.599 235.21 51.6128L238.251 52.9784C239.896 54.3029 240.949 56.3951 240.949 58.7178C240.949 62.7187 237.721 65.9709 233.755 65.9709C232.072 65.9709 228.882 65.4005 227.71 64.5093L227.652 64.5833C227.579 64.4517 227.503 64.3228 227.435 64.1857L227.443 64.1802C227.435 64.1693 227.424 64.161 227.416 64.1501C227.389 64.0925 227.361 64.0322 227.334 63.9746C227.353 63.9773 227.37 63.9801 227.386 63.9801ZM266.873 113.915C266.873 113.913 266.873 113.913 266.873 113.915V113.915ZM256.067 85.3747C261.806 85.3747 265.328 86.595 265.328 87.4697H265.293V88.2128C263.998 87.105 259.967 86.4661 256.046 86.4661C252.165 86.4661 248.175 87.0913 246.84 88.1772V87.4697H246.804C246.807 86.595 250.329 85.3747 256.067 85.3747ZM246.84 88.5474C247.677 87.6096 251.167 86.7403 256.046 86.7403C261.006 86.7403 264.528 87.6397 265.293 88.594V95.8554C263.193 95.0793 259.685 94.7119 256.388 94.7119C253.269 94.7119 249.097 95.0683 246.84 95.9705V88.5474ZM256.388 95.4522C262.79 95.4522 266.361 96.6616 266.478 97.5363C266.508 97.7529 266.44 98.0299 266.364 98.2493C264.67 97.2594 260.435 96.6917 256.309 96.6917C252.023 96.6917 247.623 97.3032 246.07 98.3672C246.013 98.1588 245.958 97.6405 245.958 97.4897C245.961 96.6561 250.022 95.4522 256.388 95.4522ZM245.281 102.576V106.555C244.887 106.021 244.658 105.31 244.658 104.567C244.658 103.824 244.884 103.114 245.281 102.576ZM239.643 106.267C238.052 106.267 236.679 106.267 236.064 105.634C235.82 105.382 235.705 105.036 235.714 104.576C235.749 102.823 237.005 102.842 238.909 102.87C239.146 102.873 239.393 102.878 239.643 102.878C240.119 102.878 240.584 102.917 241.022 102.991C240.873 103.377 240.786 103.849 240.786 104.351C240.786 105.05 240.941 105.689 241.213 106.106L241.452 105.947C241.215 105.582 241.074 104.987 241.074 104.351C241.074 103.86 241.158 103.402 241.311 103.043C241.569 103.097 241.816 103.161 242.048 103.24C241.974 103.533 241.936 103.846 241.936 104.17C241.936 104.77 242.072 105.33 242.303 105.81C241.572 106.106 240.636 106.267 239.643 106.267ZM242.222 104.172C242.222 103.824 242.273 103.492 242.36 103.182L242.407 103.067C242.404 103.065 242.398 103.065 242.396 103.065C242.738 102.006 243.56 101.257 244.517 101.257C244.781 101.257 245.039 101.318 245.284 101.427V102.127C245.262 102.149 245.24 102.171 245.219 102.195C244.683 102.801 244.373 103.665 244.373 104.567C244.373 105.486 244.68 106.333 245.221 106.939C244.996 107.033 244.759 107.085 244.517 107.085C243.25 107.085 242.222 105.777 242.222 104.172ZM245.907 98.88C246.666 97.912 250.653 96.9824 256.309 96.9824C261.235 96.9824 264.895 97.6871 266.261 98.5071C266.255 98.5208 266.247 98.54 266.242 98.5509L266.535 98.699C266.563 98.7209 266.587 98.7456 266.612 98.7676L266.87 113.883C266.565 114.14 264.482 113.998 262.641 113.872C260.862 113.751 258.651 113.597 256.29 113.597C253.916 113.597 251.73 113.751 249.973 113.874C248.112 114.003 246.192 114.138 245.904 113.885V107.65V98.88H245.907ZM240.661 116.562C241.52 119.106 241.719 122.339 241.205 125.433C240.467 129.859 238.689 133.659 236.581 135.422C237.049 133.64 237.359 131.627 237.484 129.527C237.68 126.19 237.383 123.017 236.646 120.593C235.863 118.023 234.653 116.562 233.236 116.477C233.228 116.477 233.222 116.477 233.214 116.477V116.466L227.924 116.392C227.851 113.178 227.149 110.575 226.002 108.977L238.433 113.002C239.323 113.696 240.111 114.938 240.661 116.562ZM223.69 139.64L228.974 139.56C229.265 140.153 229.589 140.641 229.94 141.022L224.683 140.94C224.326 140.611 223.995 140.172 223.69 139.64ZM223.551 139.385C223.26 138.834 223.002 138.198 222.773 137.493L228.188 137.416C228.229 137.567 228.273 137.715 228.316 137.858C228.477 138.39 228.659 138.869 228.855 139.305L223.551 139.385ZM226.013 117.302C225.613 117.585 225.224 117.974 224.854 118.454L223.633 118.418C223.823 118.196 224.019 118.001 224.22 117.837C224.704 117.442 225.199 117.247 225.692 117.253V117.299L226.013 117.302ZM223.429 118.668L224.666 118.706C224.283 119.241 223.921 119.869 223.589 120.579L222.338 120.541C222.67 119.808 223.035 119.178 223.429 118.668ZM222.227 120.793L223.472 120.831C223.141 121.569 222.841 122.386 222.583 123.264L221.395 123.228C221.634 122.337 221.914 121.52 222.227 120.793ZM221.329 123.48L222.512 123.516C222.273 124.363 222.072 125.265 221.917 126.203L220.785 126.22C220.924 125.254 221.109 124.336 221.329 123.48ZM220.745 126.48L221.87 126.464C221.756 127.201 221.669 127.964 221.615 128.737L220.513 128.743C220.565 127.966 220.644 127.21 220.745 126.48ZM227.625 134.452L222.093 134.531C221.968 133.717 221.881 132.859 221.841 131.97L227.435 131.838C227.459 132.741 227.525 133.618 227.625 134.452ZM227.427 131.581L221.83 131.712C221.797 130.851 221.802 129.963 221.857 129.063C221.86 129.039 221.86 129.017 221.862 128.992L227.478 128.97C227.427 129.856 227.41 130.731 227.427 131.581ZM221.593 129.047C221.539 129.957 221.531 130.851 221.563 131.718L220.44 131.745C220.424 130.859 220.44 129.946 220.494 129.03C220.494 129.019 220.497 129.008 220.497 128.998L221.599 128.992C221.599 129.011 221.596 129.03 221.593 129.047ZM220.445 132.003L221.577 131.976C221.618 132.864 221.699 133.722 221.822 134.534L220.63 134.55C220.53 133.755 220.467 132.902 220.445 132.003ZM221.86 134.792C222.001 135.667 222.186 136.489 222.409 137.243L221.142 137.263C220.94 136.53 220.777 135.708 220.66 134.811L221.86 134.792ZM222.488 137.498C222.708 138.198 222.967 138.834 223.252 139.39L221.985 139.41C221.694 138.891 221.435 138.255 221.218 137.518L222.488 137.498ZM222.695 137.238C222.466 136.486 222.278 135.664 222.134 134.786L227.658 134.707C227.772 135.576 227.93 136.399 228.123 137.158L222.695 137.238ZM227.495 128.715L221.881 128.737C221.936 127.961 222.023 127.199 222.137 126.461L227.723 126.379L227.72 126.121L222.181 126.203C222.336 125.268 222.537 124.369 222.773 123.527L228.224 123.694C227.856 125.243 227.609 126.946 227.495 128.715ZM228.281 123.439L222.844 123.272C223.102 122.389 223.404 121.572 223.733 120.84L229.023 121.004C228.74 121.753 228.493 122.573 228.281 123.439ZM229.363 120.157C229.279 120.349 229.2 120.546 229.118 120.749L223.848 120.584C224.188 119.866 224.557 119.235 224.949 118.712L230.019 118.865C229.79 119.255 229.57 119.682 229.363 120.157ZM230.174 118.616L225.145 118.465C225.569 117.946 226.013 117.554 226.467 117.313L231.164 117.379C230.818 117.702 230.489 118.119 230.174 118.616ZM215.868 91.9368C219.608 96.5574 221.667 102.228 221.667 107.905C221.667 115.879 218.536 123.456 213.081 128.693C208.748 132.853 203.339 135.2 197.668 135.428C203.29 134.978 208.607 132.414 212.773 128.101C217.837 122.855 220.565 115.794 220.451 108.214C220.288 97.3553 213.508 87.467 203.747 83.521C208.348 84.9606 212.607 87.9085 215.868 91.9368ZM206.129 102.755C205.324 102.752 202.599 102.08 200.173 101.359C200.255 100.218 200.374 96.6917 199.221 92.5867C198.234 89.0766 196.124 84.6398 191.642 81.297L194.815 82.435L194.813 82.446C194.878 82.4652 194.943 82.4871 195.006 82.5036L197.462 83.3838L197.472 83.3564C197.478 83.3592 197.481 83.3592 197.486 83.3619L197.462 83.4469C197.723 83.521 197.981 83.6005 198.237 83.6827C198.568 83.8281 198.898 83.9816 199.224 84.1407C201.106 85.956 207.318 92.7978 206.129 102.755ZM197.19 92.5455C195.618 87.7906 193.08 84.9387 190.573 82.5639C188.933 81.0091 187.113 79.8903 185.86 79.2184L186.703 79.5201C192.645 82.021 196.561 86.488 198.345 92.7978C199.684 97.5363 199.248 101.592 199.243 101.633L199.199 102.012L199.561 102.121C202.691 103.07 204.826 103.572 205.941 103.629L204.916 104.419L198.06 102.626C198.209 101.853 198.873 97.6378 197.19 92.5455ZM201.06 84.7577C209.659 88.6516 215.215 97.0427 215.215 106.657C215.215 120.541 204.291 132.719 191.837 132.719C190.567 132.719 188.84 132.595 187.282 132.332L187.298 132.263C187.684 132.272 188.068 132.277 188.446 132.277C188.751 132.277 189.047 132.274 189.338 132.274C189.61 132.272 189.876 132.272 190.129 132.272C203.118 132.272 214.09 120.384 214.09 106.314C214.09 100.687 212.072 95.3316 208.253 90.8262C206.246 88.4569 203.826 86.4387 201.16 84.8756C201.128 84.8345 201.092 84.7961 201.06 84.7577ZM186.012 133.007C187.867 133.434 190.216 133.629 191.84 133.629C204.775 133.629 216.121 121.026 216.121 106.657C216.121 96.7274 210.418 88.0565 201.574 83.9899C201.759 83.8253 201.998 83.595 202.319 83.2796C212.689 86.7951 220.01 96.9796 220.179 108.214C220.29 115.72 217.592 122.712 212.577 127.906C208.087 132.557 202.251 135.157 196.143 135.228C194.815 135.244 192.92 135.11 191.293 134.838C190.896 134.764 190.491 134.682 190.086 134.597C189.923 134.559 189.765 134.518 189.615 134.474L189.61 134.493C188.351 134.21 187.089 133.87 185.979 133.484C185.99 133.327 186.001 133.168 186.012 133.007ZM228.661 53.2224C228.661 57.0533 224.938 60.673 220.97 60.7388L203.056 52.7645C207.271 52.4244 210.6 48.8596 210.6 44.5214C210.6 42.8021 210.13 41.2363 209.306 39.9392L226.124 47.5159C227.71 48.813 228.661 50.8614 228.661 53.2224ZM203.676 51.0342C200.551 51.0342 198.011 48.4702 198.011 45.3222C198.011 42.1714 200.554 39.6102 203.676 39.6102C206.801 39.6102 209.341 42.1741 209.341 45.3222C209.344 48.4729 206.801 51.0342 203.676 51.0342ZM195.136 44.5214C195.136 40.4849 198.394 37.1998 202.398 37.1998C206.605 37.1998 209.659 40.2793 209.659 44.5214C209.659 45.0534 209.602 45.569 209.496 46.068C209.526 45.824 209.548 45.5744 209.548 45.3222C209.548 42.0589 206.915 39.4045 203.679 39.4045C200.442 39.4045 197.81 42.0589 197.81 45.3222C197.81 48.5854 200.442 51.2398 203.679 51.2398C204.862 51.2398 205.963 50.8833 206.885 50.2718C205.65 51.2535 204.092 51.8431 202.4 51.8431C198.394 51.8431 195.136 48.558 195.136 44.5214ZM211.827 62.9572C212.934 61.556 213.138 59.2443 213.176 58.4024L219.067 61.024C217.813 61.2571 216.089 61.6465 214.601 62.2168C211.664 63.3466 195.536 80.5649 194.851 81.297L194.802 81.3491C194.617 81.2806 194.426 81.212 194.236 81.1435C197.092 78.245 210.676 64.4161 211.827 62.9572ZM134.752 58.7178C141.102 61.205 152.318 68.48 152.266 88.786C152.245 98.1643 148.712 107.049 142.576 113.164C137.591 118.13 131.249 120.856 124.692 120.856C124.618 120.856 124.545 120.856 124.471 120.856C123.34 120.845 122.179 120.508 121.058 120.184C120.093 119.904 119.176 119.641 118.428 119.649L117.357 119.449C117.321 119.43 117.283 119.411 117.248 119.392L117.229 119.425L103.876 116.943C105.515 116.751 107.134 116.414 108.719 115.928C115.07 113.984 120.501 109.832 124.439 104.337C128.994 98.4166 131.589 90.807 131.589 82.8409C131.589 76.4214 129.954 70.2816 126.908 65.0139C124.341 60.1958 120.759 56.1374 116.497 53.2224L134.752 58.7178ZM123.269 60.9774C123.62 61.4435 123.96 61.9179 124.287 62.406C122.6 61.9591 120.868 61.7287 119.116 61.7287C107 61.7287 97.1416 72.5906 97.1416 85.9423C97.1416 98.7895 106.269 109.328 117.754 110.107C117.188 110.556 116.612 110.987 116.016 111.393C110.169 111.14 104.846 108.475 100.946 103.821C96.954 99.0582 94.7538 92.6497 94.7538 85.7833C94.7538 79.0347 97.2178 72.6509 101.694 67.8054C106.187 62.9408 112.135 60.2616 118.439 60.2616C118.578 60.2616 118.722 60.2616 118.872 60.2589C120.185 60.2479 121.988 60.2315 123.171 61.109L123.269 60.9774ZM118.809 109.226C107.338 109.043 98.0554 98.6716 98.0554 85.9423C98.0554 73.0979 107.504 62.6501 119.116 62.6501C121.134 62.6501 123.128 62.9655 125.045 63.5879C128.382 69.012 130.343 75.596 130.343 82.6901C130.346 93.2941 125.907 103.01 118.809 109.226ZM131.249 82.6873C131.249 80.0329 130.98 77.447 130.474 74.9626C131.034 77.5101 131.325 80.1508 131.325 82.8409C131.325 87.0227 130.604 91.1031 129.258 94.8928C130.544 91.0702 131.249 86.9487 131.249 82.6873ZM123.084 60.7306C121.842 59.9682 120.139 59.9819 118.872 59.9929C118.722 59.9929 118.578 59.9957 118.442 59.9957C112.062 59.9957 106.046 62.7049 101.504 67.6244C96.9839 72.5193 94.4927 78.9689 94.4927 85.786C94.4927 92.7155 96.7147 99.1844 100.748 103.997C104.618 108.612 109.87 111.297 115.649 111.645C114.92 112.128 114.172 112.575 113.405 112.989C109.848 114.661 106.016 115.533 102.081 115.533C85.9557 115.533 72.8361 100.868 72.8361 82.8436C72.8361 64.8192 85.953 50.1512 102.078 50.1512C107.479 50.1512 112.66 51.78 117.166 54.8239C119.364 56.4911 121.355 58.4792 123.084 60.7306ZM71.0221 82.6873C71.0221 64.1967 84.3293 49.153 100.683 49.153C105.178 49.153 109.443 50.291 113.266 52.3257C109.764 50.7243 105.981 49.8824 102.081 49.8824C85.8088 49.8824 72.5723 64.6656 72.5723 82.8381C72.5723 101.011 85.8088 115.794 102.081 115.794C104.392 115.794 106.671 115.495 108.877 114.916C108.736 114.963 108.597 115.012 108.455 115.056C105.934 115.827 103.321 116.219 100.683 116.219C84.3293 116.222 71.0221 101.178 71.0221 82.6873ZM125.665 121.912C123.501 121.969 121.159 121.207 119.326 120.406L119.397 120.022C119.892 120.121 120.43 120.277 120.985 120.436C122.07 120.752 123.302 121.108 124.469 121.119C124.545 121.119 124.618 121.119 124.694 121.119C131.32 121.119 137.73 118.366 142.764 113.351C148.948 107.186 152.511 98.2328 152.533 88.786C152.555 79.5667 150.243 72.0174 145.655 66.3466C142.44 62.3731 138.701 60.0944 135.663 58.7946L135.744 58.5231C140.286 59.6063 144.543 62.8146 147.953 67.7972C151.948 73.6353 154.287 81.2888 154.366 88.7942C154.556 106.605 141.681 121.459 125.665 121.912ZM155.269 88.786C155.187 81.1023 152.791 73.2624 148.695 67.2817C147.455 65.4691 146.104 63.8841 144.665 62.5377C149.672 65.1044 153.425 68.3155 156.074 72.2971C159.231 77.0439 160.768 82.786 160.768 89.8582C160.768 99.593 157.417 108.171 151.331 114.011C146.558 118.591 140.332 121.174 133.582 121.424C146.223 117.209 155.432 104.055 155.269 88.786ZM151.954 114.67C158.22 108.656 161.671 99.8452 161.671 89.8554C161.671 82.5968 160.085 76.6874 156.824 71.7871C155.81 70.2624 154.641 68.8502 153.311 67.5394L184.249 78.6398L184.22 78.7166C184.252 78.7303 187.587 80.1014 190.39 82.7559C192.871 85.1059 195.381 87.9304 196.937 92.6278C198.77 98.167 197.788 102.648 197.777 102.692L197.747 102.818L204.973 104.71L206.382 103.621C206.537 103.605 206.657 103.575 206.733 103.523C206.874 103.429 206.964 103.289 206.986 103.125C208.057 94.9559 204.331 88.7613 201.688 85.5063C204.065 86.9926 206.23 88.8463 208.049 90.9934C211.824 95.4495 213.82 100.745 213.82 106.309C213.82 120.236 202.969 132 190.124 132C189.868 132 189.604 132.003 189.33 132.003C188.304 132.008 187.16 132.011 186.08 131.934C186.33 128.413 186.629 124.166 186.629 124.166L186.648 123.883L186.376 123.812C185.756 123.648 171.187 119.776 170.493 119.658L170.129 119.597L170.096 120.006L170.004 119.542L164.744 120.598L164.676 121.903H164.339L164.331 122.073L164.282 121.928C164.203 121.956 164.081 122.008 163.912 122.082C163.039 122.468 160.716 123.494 155.992 124.004C153.928 124.226 151.592 124.023 149.484 123.683L149.498 123.626L140.041 121.361C144.515 120.173 148.584 117.903 151.954 114.67ZM153.914 133.02C158.513 132.889 163.259 132.653 164.165 132.606V134.145L166.474 134.995C162.936 135.192 161.358 135.34 160.637 135.461L160.654 135.417L153.914 133.02ZM143.501 130.267C143.504 130.168 143.506 130.04 143.463 129.919C143.411 129.368 143.441 125.797 143.476 123.253C145.353 123.815 151.32 125.435 156.101 124.917C160.964 124.391 163.376 123.324 164.284 122.924C164.29 122.921 164.293 122.921 164.298 122.918L163.847 131.712C157.907 132.011 146.876 132.442 145.067 132.041C143.463 131.682 143.49 130.728 143.501 130.267ZM141.442 137.858C142.155 137.06 142.051 135.066 142.008 134.501H147.51C147.496 134.923 147.488 135.335 147.48 135.738C147.387 136.508 147.197 137.295 146.824 137.69C146.669 137.855 146.495 137.934 146.297 137.934H141.371C141.393 137.91 141.418 137.885 141.442 137.858ZM141.015 138.2H146.155C146.128 139.308 145.794 139.87 145.416 140.216H140.224C140.583 139.895 141.083 139.256 141.015 138.2ZM139.307 140.715C139.424 140.556 139.59 140.479 139.816 140.479H145.065C145.002 140.52 144.942 140.559 144.882 140.594C144.738 140.685 144.6 140.767 144.494 140.866C144.075 141.252 144.05 142.061 144.058 142.388L139.242 142.525C139.133 142.105 138.981 141.162 139.307 140.715ZM144.464 142.807C145.383 142.807 146.161 144.37 146.161 146.219C146.161 148.067 145.383 149.63 144.464 149.63C143.544 149.63 142.767 148.067 142.767 146.219C142.767 144.37 143.544 142.807 144.464 142.807ZM136.269 146.219C136.269 144.337 137.085 142.807 138.086 142.807C138.149 142.807 138.353 142.804 138.565 142.802C138.741 142.799 138.924 142.796 139.041 142.796L139.046 142.81L143.969 142.656C143.115 143.057 142.5 144.474 142.5 146.216C142.5 147.782 142.998 149.09 143.718 149.627H139.424H138.086C137.085 149.63 136.269 148.1 136.269 146.219ZM141.983 156.718C141.918 156.14 141.57 153.516 140.477 152.668C139.821 152.161 139.508 151.239 139.432 150.546C139.391 150.176 139.43 149.962 139.459 149.896H144.464H145.715C145.663 150.466 145.535 152.479 146.196 153.195C146.297 153.304 146.386 153.392 146.465 153.472C146.977 153.982 147.14 154.143 147.7 157.278L141.983 156.718ZM149.103 150.902C149.082 150.853 149.057 150.793 149.035 150.727C149.06 150.787 149.082 150.847 149.103 150.902ZM148.747 149.874C148.581 150.494 148.894 151.086 148.954 151.193L149.906 154.366L148.016 157.552L147.991 157.407C147.387 154.02 147.216 153.85 146.65 153.285C146.571 153.206 146.484 153.121 146.389 153.016C145.715 152.284 145.987 149.805 145.992 149.781L146.008 149.633H145.206C145.927 149.092 146.425 147.787 146.425 146.221C146.425 144.159 145.562 142.544 144.464 142.544C144.417 142.544 144.374 142.552 144.33 142.555L144.328 142.508C144.328 142.497 144.249 141.458 144.673 141.063C144.76 140.981 144.882 140.907 145.021 140.822C145.568 140.485 146.386 139.977 146.422 138.187C146.642 138.156 146.841 138.055 147.012 137.874C147.2 137.677 147.344 137.394 147.458 137.073C147.412 143.463 147.994 147.422 148.747 149.874ZM153.406 133.805L159.987 136.146C160.646 138.337 159.036 140.208 158.628 140.633L153.43 140.57C153.36 137.844 153.381 135.217 153.406 133.805ZM160.689 136.13C161.573 135.993 164.35 135.795 166.958 135.653C166.969 135.721 166.98 135.79 166.991 135.856L166.936 137.046H168.614L168.543 140.734L159.52 140.641C160.191 139.796 161.2 138.115 160.689 136.13ZM167.306 157.322C167.333 155.863 167.366 153.699 167.377 151.689C167.524 152.177 167.733 152.619 168.043 152.948V156.071L167.306 157.322ZM156.368 147.88L166.675 148.031C166.751 150.727 166.651 156.291 166.61 158.295C165.361 158.314 160.02 158.048 156.493 157.856C156.332 156.757 156.33 151.42 156.368 147.88ZM163.161 165.499C160.986 165.587 158.799 165.417 157.167 165.035C155.582 164.665 154.874 164.183 154.711 163.807L154.586 159.707C155.897 160.596 158.375 161.169 161.214 161.169C161.611 161.169 162.019 161.158 162.43 161.133C164.706 161.004 166.863 160.596 168.505 159.987C169.365 159.666 170.023 159.313 170.474 158.931L170.648 163.017C170.545 163.519 169.83 164.067 168.677 164.512C167.241 165.063 165.283 165.414 163.161 165.499ZM145.503 166.253C146.86 165.332 149.435 164.1 154.018 163.374L154.026 163.675H153.993C153.996 163.76 154.012 163.843 154.034 163.922L154.04 164.07L154.086 164.067C154.252 164.457 154.641 164.805 155.244 165.104L155.25 165.408C153.346 165.419 149.688 167.295 147.254 168.543C146.482 168.938 145.872 169.25 145.494 169.412C145.138 169.566 144.804 169.571 144.502 169.428C144.116 169.247 143.844 168.855 143.67 168.526L143.65 168.085C143.762 167.876 144.222 167.122 145.503 166.253ZM145.581 180.351C146.207 180.367 146.816 180.345 147.406 180.301C147.376 180.351 147.363 180.392 147.357 180.416L100.495 289.46C100.468 289.435 100.435 289.408 100.403 289.38C99.5377 287.31 99.3854 286.657 99.4071 286.501C99.7063 285.758 142.677 186.647 145.416 180.331C145.47 180.342 145.527 180.351 145.581 180.351ZM94.4954 294.555L97.9548 287.145L99.3554 290.702L95.4826 297.873L94.4954 294.555ZM101.447 299.853C99.3119 300.012 96.2496 298.561 95.5914 298.235V298.232L99.5485 290.905L104.993 292.369C103.525 295.767 101.885 299.326 101.447 299.853ZM105.214 291.846C105.175 291.936 105.135 292.029 105.097 292.123L99.6764 290.666L99.7579 290.516L99.5268 290.389L99.5213 290.4L98.1098 286.819L98.5259 285.928H98.9176C98.836 286.12 98.787 286.23 98.7816 286.249C98.6266 286.638 98.9067 287.565 99.8423 289.794L99.8967 289.926L100.033 289.868L99.9782 290.055L104.765 291.453L104.884 291.176C104.952 291.02 105.02 290.864 105.086 290.705L105.214 291.846ZM128.412 234.783C117.077 261.059 105.662 287.645 104.381 290.631L100.737 289.567L147.605 180.512L147.613 180.485C147.613 180.482 147.643 180.384 147.809 180.268C149.634 180.093 151.266 179.684 152.59 179.339C151.823 180.916 149.971 185.075 145.135 196.165C141.07 205.491 135.443 218.484 128.412 234.783ZM153.539 178.387C153.458 178.33 153.343 178.33 153.199 178.354C153.202 178.354 153.207 178.352 153.21 178.352C153.205 178.352 153.199 178.354 153.194 178.357C153.115 178.371 153.028 178.393 152.935 178.415C152.734 178.464 152.449 178.533 152.109 178.618C151.502 178.766 150.724 178.96 149.952 179.152L149.976 179.254C148.652 179.517 147.167 179.709 145.598 179.671C145.25 179.662 144.551 179.084 144.113 178.629L143.694 169.066C143.873 169.308 144.102 169.535 144.39 169.673C144.572 169.758 144.763 169.801 144.959 169.801C145.165 169.801 145.377 169.755 145.598 169.659C145.984 169.494 146.596 169.179 147.374 168.781C149.645 167.616 153.414 165.674 155.255 165.677L155.478 178.055C154.962 178.055 154.314 178.193 153.539 178.387ZM164.597 178.357C162.767 178.554 158.481 179.015 156.142 178.151C156.022 178.108 155.889 178.083 155.745 178.069L155.514 165.225C155.932 165.403 156.433 165.562 157.015 165.699C158.413 166.028 160.197 166.204 162.035 166.204C162.419 166.204 162.805 166.195 163.191 166.182C163.762 166.16 164.323 166.116 164.864 166.056L165.274 178.288C165.133 178.297 164.924 178.324 164.597 178.357ZM171.421 180.809L171.437 180.748C171.562 180.762 171.685 180.776 171.807 180.787L225.779 297.006L222.833 297.867L168.198 180.054L168.225 179.983C169.038 180.255 169.955 180.512 170.888 180.669L171.421 180.809ZM167.292 179.709L180.184 207.504L196.251 255.199L190.66 254.552C189.422 250.37 175.218 206.476 166.436 179.38L167.292 179.709ZM189.479 256.118L197.323 257.105L199.167 262.452L191.438 261.654L189.479 256.118ZM200.63 258.284L199.346 262.161L197.53 256.891L199.104 253.235L200.63 258.284ZM198.873 252.473L198.985 252.843L197.279 256.8L197.225 256.82L197.228 256.825L189.381 255.838L189.36 255.78L190.048 254.82C190.059 254.853 190.067 254.884 190.072 254.903L190.067 255.171L196.956 255.969L196.975 255.81L197.075 255.852L198.378 252.709L198.177 252.089L198.873 252.473ZM197.655 252.684L196.594 255.243L196.54 255.237L181.201 209.706L189.526 227.656L189.498 227.664L197.655 252.684ZM221.443 298.909L222.461 298.674L222.466 298.687L225.058 297.928L229.673 307.682C228.781 307.97 226.711 308.052 225.724 308.063L221.443 298.909ZM232.113 294.47L236.296 303.922C233.916 305.304 230.579 307.227 229.918 307.578L225.316 297.851L226.222 297.585L226.189 297.475L231.664 294.697L231.672 294.695L231.955 294.552V294.549L232.113 294.47ZM231.066 294.24L225.983 296.817L172.109 180.809C172.25 180.817 172.392 180.82 172.53 180.82C172.756 180.82 172.982 180.809 173.202 180.789C174.829 180.636 177.396 179.607 179.028 178.889L178.704 179.037L231.066 294.24ZM180.056 177.669C179.123 178.11 175.215 179.912 173.137 180.109C172.463 180.172 171.745 180.12 171.029 180.002L168.361 179.311C167.703 179.089 167.118 178.862 166.653 178.683C166.063 178.456 165.742 178.335 165.536 178.297L165.149 166.799C165.998 167.158 169.762 168.82 172.37 171.203C172.536 171.353 172.783 171.419 173.091 171.419C174.869 171.419 178.598 169.209 179.417 168.71C179.566 169.023 179.659 169.343 179.67 169.673C179.748 171.979 179.999 176.591 180.056 177.669ZM179.294 168.477C177.619 169.5 173.406 171.79 172.552 171.008C169.775 168.474 165.718 166.747 165.144 166.508L165.128 166.025C166.566 165.85 167.874 165.554 168.919 165.151C170.061 164.712 170.812 164.185 171.143 163.604C173.058 164.303 177.907 166.113 179.294 168.477ZM173.874 160.832C173.98 161.092 174.073 162.57 174.113 164.051C173.172 163.64 172.223 163.272 171.337 162.946C171.337 162.913 171.339 162.88 171.339 162.844H171.32L171.22 160.494C172.065 160.431 173.741 160.505 173.874 160.832ZM170.504 157.558L170.415 157.56L170.431 157.958C170.183 158.416 169.406 158.923 168.269 159.345C166.71 159.924 164.567 160.327 162.389 160.453C157.6 160.725 154.328 159.315 154.271 158.265C154.246 157.832 154.934 157.196 155.764 157.045C155.843 158.306 155.957 158.397 156.036 158.457L156.117 158.52L156.221 158.525C162.422 158.868 165.068 158.97 166.224 158.97C167.059 158.97 167.116 158.918 167.173 158.863L167.279 158.759V158.704L168.688 156.307C169.746 156.647 170.412 157.102 170.504 157.558ZM168.72 152.32V149.929H168.043V150.362C167.991 149.915 167.961 149.432 167.94 148.947L167.932 148.755C167.918 148.478 168.035 145.039 168.182 141.414L169.21 141.425L169.308 136.363H168.024C167.945 136.015 167.806 135.329 167.785 134.797L167.771 134.49L165.079 133.5V132.168L165.631 121.369L170.072 120.478L169.06 133.41L173.833 134.348C173.926 135.033 173.722 137.411 173.542 139.53C172.979 146.147 172.647 151.327 173.863 152.643C172.598 152.624 170.668 152.6 169.422 152.6C169.131 152.602 168.902 152.498 168.72 152.32ZM178.111 151.804C177.695 152.317 177.048 153.003 176.243 153.06C175.887 153.085 175.514 152.986 175.128 152.767L175.13 152.663C175.125 152.663 175.065 152.663 174.956 152.66C174.769 152.537 174.578 152.388 174.385 152.21C173.232 151.144 173.822 144.189 174.214 139.588C174.502 136.199 174.641 134.405 174.407 133.906L174.334 133.75L169.778 132.853L170.752 120.42C172.647 120.883 181.116 123.124 185.938 124.404C185.851 125.638 185.501 130.637 185.272 133.813C185.18 135.104 185.131 135.782 185.103 136.135C184.331 136.007 182.49 135.694 181.25 135.433C181.057 135.392 180.858 135.436 180.706 135.551C180.556 135.664 180.464 135.828 180.447 136.015C180.26 138.167 179.651 143.375 179.066 147.233C179.074 147.085 179.077 146.934 179.077 146.781C179.077 144.219 178.065 142.212 176.773 142.212C175.481 142.212 174.47 144.219 174.47 146.781C174.47 149.342 175.481 151.349 176.773 151.349C177.633 151.349 178.367 150.455 178.761 149.106C178.516 150.554 178.285 151.585 178.111 151.804ZM178.818 146.781C178.818 149.153 177.905 151.083 176.779 151.083C175.653 151.083 174.739 149.153 174.739 146.781C174.739 144.409 175.653 142.478 176.779 142.478C177.905 142.478 178.818 144.409 178.818 146.781ZM180.36 142.804C180.779 139.456 181.092 136.432 181.125 136.103C182.153 136.319 183.578 136.569 184.483 136.722C184.532 139.456 185.098 141.631 186.023 142.903L180.36 142.804ZM184.75 136.769C184.875 136.791 184.987 136.807 185.076 136.824V136.862L185.405 136.876C185.498 136.879 185.569 136.857 185.617 136.818C186.025 141.052 187.353 143.545 189.343 143.674C189.265 143.745 188.998 143.888 188.166 143.888C186.183 143.888 184.834 141.047 184.75 136.769ZM189.507 143.416C187.431 143.416 186.093 140.638 185.805 135.88L185.911 134.422C188 135.124 190.554 135.669 192.659 135.996C191.965 140.652 190.796 143.416 189.507 143.416ZM215.925 138.039L203.945 135.231C206.491 134.416 208.914 133.168 211.139 131.52L216.195 132.774L215.925 138.039ZM212.077 130.785C212.632 130.333 213.176 129.856 213.703 129.351C219.338 123.944 222.569 116.126 222.569 107.905C222.569 107.891 222.569 107.88 222.569 107.866L224.479 108.486C226.045 109.607 227.079 112.55 227.171 116.383L226.089 116.367L226.091 116.345C225.243 116.216 224.416 116.471 223.638 117.105C221.487 118.857 219.891 123.516 219.57 128.973C219.513 129.957 219.494 130.942 219.515 131.893C219.521 132.143 219.529 132.39 219.54 132.631L212.077 130.785ZM222.134 139.665L223.383 139.645C223.663 140.153 223.97 140.589 224.299 140.937L223.845 140.929C223.211 140.89 222.629 140.441 222.134 139.665ZM231.784 141.06C230.786 141 229.839 139.736 229.186 137.592C228.479 135.269 228.196 132.211 228.387 128.981C228.577 125.751 229.219 122.748 230.193 120.527C231.03 118.616 232.034 117.494 232.972 117.398L233.198 117.401V117.393C234.188 117.469 235.126 118.728 235.773 120.859C236.48 123.181 236.763 126.239 236.573 129.469C236.383 132.699 235.741 135.702 234.767 137.923C233.867 139.977 232.768 141.126 231.784 141.06ZM236.315 136.355L236.393 136.481C238.92 134.869 241.093 130.58 241.928 125.553C242.469 122.296 242.265 119.019 241.357 116.32C240.973 115.185 240.484 114.231 239.921 113.482L251.055 117.088L251.042 117.138C257.675 118.912 260.258 122.227 260.258 128.959C260.258 135.277 256.486 140.419 251.849 140.419C251.131 140.419 250.416 140.295 249.728 140.049L249.712 140.098L236.192 136.75C236.228 136.624 236.271 136.492 236.315 136.355ZM257.838 119.471C258.82 120.074 259.807 120.911 260.623 122.071C262.431 124.646 262.964 128.186 262.203 132.595C261.681 135.62 259.872 138.403 257.482 139.859C256.513 140.449 255.483 140.797 254.419 140.907C258.333 139.418 261.205 134.63 261.205 128.967C261.208 124.673 260.177 121.629 257.838 119.471ZM243.184 145.418C243.168 144.623 243.345 141.993 243.546 139.544L249.921 141.124C250.008 141.148 250.095 141.167 250.182 141.189L250.188 141.192C250.623 141.294 251.061 141.357 251.504 141.376C252.244 141.579 252.981 141.686 253.707 141.686C255.154 141.686 256.56 141.285 257.862 140.493C260.43 138.93 262.369 135.952 262.926 132.724C263.721 128.115 263.147 124.388 261.221 121.648C259.211 118.788 256.247 117.757 254.621 117.393C253.669 116.957 252.605 116.581 251.42 116.257L251.425 116.238L246.521 114.65C247.258 114.697 248.371 114.626 250.013 114.511C251.76 114.387 253.933 114.236 256.288 114.236C258.627 114.236 260.827 114.387 262.595 114.508C263.065 114.541 263.489 114.568 263.881 114.593L263.631 129.195C263.62 129.31 263.598 129.442 263.576 129.582C263.503 130.037 263.408 130.618 263.598 131.128L263.337 146.43L243.184 145.418ZM264.267 131.885C264.683 132.126 265.265 132.244 266.04 132.244C266.514 132.244 267.06 132.198 267.678 132.11L264.05 144.617L264.267 131.885ZM270.093 130.89C269.943 130.802 269.834 130.659 269.791 130.489C269.747 130.319 269.772 130.144 269.859 129.99C269.946 129.837 270.087 129.73 270.256 129.686C270.381 129.653 270.506 129.661 270.62 129.697C270.702 129.85 270.745 130.007 270.745 130.166C270.745 130.511 270.55 130.755 270.185 130.934C270.155 130.923 270.123 130.909 270.093 130.89ZM270.427 129.412C270.365 129.412 270.299 129.417 270.237 129.431L265.787 128.153L265.717 128.4L269.875 129.595C269.63 129.782 269.494 130.089 269.522 130.404L265.461 130.722L265.48 130.977L269.581 130.657C269.644 130.818 269.75 130.955 269.889 131.057C269.448 131.205 268.847 131.301 268.11 131.383L268.091 131.386C265.624 131.806 264.71 131.498 264.381 131.164C264.341 131.123 264.308 131.079 264.281 131.035L264.319 128.734C264.368 128.463 264.493 128.136 264.817 127.909C265.04 127.75 265.393 127.613 265.945 127.613C266.454 127.613 267.134 127.728 268.037 128.051C269.212 128.468 270.014 128.929 270.427 129.412ZM270.62 123.85L269.377 127.895C269.046 127.736 268.673 127.583 268.254 127.432C266.53 126.817 265.249 126.798 264.441 127.371C264.403 127.399 264.373 127.429 264.341 127.456L264.441 121.583L270.62 123.85ZM271.088 122.268L264.474 119.765L264.536 116.134L272.043 118.802C271.792 119.658 271.298 121.487 271.088 122.268Z" fill="#E9EEF1"/>
<path d="M175.878 146.781C175.878 148.64 176.425 150.096 177.121 150.096C177.817 150.096 178.364 148.64 178.364 146.781C178.364 144.922 177.817 143.466 177.121 143.466C176.425 143.466 175.878 144.922 175.878 146.781ZM178.201 146.781C178.201 148.665 177.643 149.929 177.121 149.929C176.599 149.929 176.041 148.665 176.041 146.781C176.041 144.897 176.599 143.633 177.121 143.633C177.643 143.633 178.201 144.897 178.201 146.781Z" fill="#E9EEF1"/>
</g>
</g>
<defs>
<clipPath id="clip0_5737_6336">
<rect width="285" height="320" fill="white"/>
</clipPath>
</defs>
</svg>
