<svg width="315" height="240" viewBox="0 0 315 240" fill="none" xmlns="http://www.w3.org/2000/svg">
<g clip-path="url(#clip0_5737_5523)">
<g opacity="0.6" clip-path="url(#clip1_5737_5523)">
<path d="M117.909 157.85L117.977 153.569C117.985 153.11 117.789 152.775 117.394 152.578C116.613 152.182 115.362 152.431 115.187 152.519L115.091 158.521L117.909 157.85ZM117.972 157.9L115.028 158.603L115.124 152.491V152.489C115.166 152.362 118.068 151.784 118.037 153.569C118.022 154.638 117.972 157.9 117.972 157.9Z" fill="#E9EEF1"/>
<path d="M115.029 158.603L117.973 157.901C117.973 157.901 118.023 154.638 118.04 153.571C118.068 151.784 115.167 152.365 115.127 152.492V152.494L115.029 158.603ZM115.061 152.492V152.489L115.102 150.005C115.102 149.97 115.129 149.942 115.162 149.942H115.164L125.473 150.106C125.259 149.792 124.591 148.829 124.242 148.621C124.179 148.586 124.144 148.527 124.126 148.449C124.031 147.96 124.968 146.702 125.076 146.56C125.086 146.545 125.106 146.535 125.124 146.535C125.134 146.535 125.704 146.538 126.55 146.54C127.394 146.54 128.515 146.548 129.63 146.555C134.189 146.596 134.204 146.654 134.221 146.728C134.236 146.743 134.375 146.834 134.51 146.92C135.103 147.301 136.331 148.094 136.266 148.981C136.263 149.017 136.236 149.047 136.198 149.042C136.165 149.039 136.138 149.009 136.14 148.973C136.198 148.16 135.013 147.397 134.442 147.027C134.234 146.895 134.148 146.837 134.113 146.794C133.747 146.705 128.597 146.667 125.154 146.662C124.86 147.055 124.177 148.066 124.247 148.423C124.257 148.464 124.275 148.492 124.3 148.507C124.742 148.773 125.601 150.076 125.639 150.134C125.651 150.155 125.654 150.18 125.644 150.2C125.631 150.221 125.611 150.233 125.588 150.233C125.588 150.233 125.588 150.233 125.586 150.233L115.222 150.066L115.184 152.383C115.438 152.286 116.008 152.225 116.352 152.233C117.49 152.251 118.111 152.725 118.098 153.566L118.03 157.895C118.03 157.923 118.01 157.949 117.983 157.956L115.039 158.658C115.034 158.658 115.029 158.661 115.024 158.661C115.009 158.661 114.996 158.656 114.984 158.646C114.968 158.636 114.961 158.615 114.961 158.598L115.056 152.489L115.061 152.492Z" fill="#E9EEF1"/>
<path d="M320.711 97.3573C310.473 96.9087 289.715 95.5653 288.372 95.4766C287.585 94.99 284.812 93.0839 284.184 92.6505L285.887 65.6386C285.89 65.484 285.875 65.3268 285.845 65.1722C285.664 64.2825 284.946 60.6529 284.039 56.0601C281.663 44.0408 277.689 23.9257 277.32 22.6077C277.257 22.3871 277.164 22.0526 264.846 17.3939C258.881 15.138 251.971 12.6135 250.348 12.099C250.107 12.0229 249.858 11.99 249.605 12.0026L120.062 18.4432C118.952 18.499 118.045 19.926 118.035 21.0843L119.369 57.3376L119.228 57.33L117.633 63.0836L119.243 66.4269L121.521 66.4624L122.581 65.1798C123.563 65.6867 124.739 65.9402 126.093 65.9225L131.209 66.7285H131.232C132.093 66.7234 132.802 67.4103 132.827 68.2721L133.754 98.6196C133.776 99.3977 134.218 100.102 134.902 100.46C135.424 100.733 135.753 101.271 135.756 101.866L135.884 124.648C135.474 124.625 134.628 124.61 132.862 124.582L132.757 124.58L132.701 128.07L132.782 128.09C133.186 128.199 133.771 128.232 134.339 128.232C134.974 128.232 135.59 128.191 135.901 128.166L136.012 147.868C136.017 148.674 135.884 149.452 135.633 150.177L125.593 150.066L125.59 150.281L133.656 150.37C131.915 150.585 129.966 150.981 129.564 151.543C129.054 152.261 129.202 153.252 129.283 153.617L124.741 153.543C124.744 153.127 124.736 152.785 124.711 152.628L124.699 152.552C124.601 151.918 124.307 149.995 121.363 149.974L121.361 150.19C124.121 150.21 124.385 151.936 124.485 152.585L124.498 152.664C124.571 153.117 124.483 155.315 124.45 156.07L119.183 157.327L119.258 152.562C119.261 152.524 119.291 151.594 118.525 150.834C117.816 150.129 116.681 149.815 115.154 149.901L115.167 150.116C116.631 150.035 117.711 150.327 118.374 150.986C119.072 151.678 119.047 152.547 119.047 152.56L118.972 157.34L119.128 157.343L110.635 159.365C109.57 159.619 108.874 160.635 109.018 161.73C109.337 164.181 109.947 169.471 110.65 175.595C111.843 185.959 113.33 198.858 114.32 205.973C114.775 209.225 117.987 212.269 121.486 212.758L230.985 226.934C231.332 226.977 231.676 227 232.02 227C232.658 227 233.291 226.924 233.906 226.777L233.961 226.965C233.961 226.965 292.315 209.491 309.456 204.353C312.389 203.473 314.419 200.807 314.504 197.72L315.378 166.315L315.381 166.204L293.943 142.53L308.629 135.669L319.493 135.694C319.498 135.694 319.505 135.694 319.51 135.694C323.926 135.694 327.571 132.075 327.641 127.619L327.995 105.164C328.065 100.967 324.863 97.5398 320.711 97.3573ZM249.63 12.5552C249.818 12.5451 250.002 12.5704 250.18 12.6262C253.845 13.7896 275.551 21.8878 276.805 22.8206C277.257 24.5923 281.155 44.317 283.499 56.1691C284.443 60.9444 285.124 64.3941 285.307 65.2863C285.33 65.4003 285.342 65.5169 285.34 65.6208L282.994 102.802C282.986 103.217 282.632 103.897 282.107 104.492C281.577 105.096 280.995 105.483 280.615 105.483C280.613 105.483 280.61 105.483 280.608 105.483L280.452 105.481L280.432 105.514C279.751 105.648 276.029 106.284 272.173 104.918C267.966 103.428 265.231 97.1064 265.203 97.0405L265.095 97.0861C265.369 83.911 265.622 70.822 265.713 66.0923L265.718 65.8109L260.217 65.8287V65.7805L250.366 65.8262C250.896 65.56 251.313 65.1722 251.32 64.6019C251.386 60.2752 250.848 43.5972 250.416 30.1939C250.182 22.9651 249.982 16.7222 249.921 13.8758C249.911 13.4449 249.753 13.0849 249.449 12.8087C249.351 12.72 249.241 12.6439 249.125 12.578L249.63 12.5552ZM130.413 162.949L127.324 162.686L127.951 161.634L131.131 161.9L130.413 162.949ZM130.574 175.235L127.489 174.966L127.15 162.975L127.2 162.891L130.345 163.16L130.574 175.235ZM128.416 161.456L154.313 155.018L157.38 155.221C154.142 155.916 134.266 161.01 131.516 161.715L128.416 161.456ZM229.97 66.7589L229.613 89.4264L216.585 89.2185C215.1 89.1957 213.332 89.9257 213.274 93.5477C213.257 94.6098 212.92 95.5729 212.325 96.2573C211.704 96.9695 210.84 97.3396 209.861 97.3218L187.282 96.9594C184.788 96.9188 184.231 95.142 184.2 93.6593C184.14 90.5746 184.133 88.1286 184.175 87.6724L199.354 90.4985C199.467 90.5188 199.58 90.5264 199.691 90.5264C200.175 90.5264 200.645 90.349 201.017 90.0195C201.474 89.6139 201.723 89.0284 201.697 88.4151L200.838 66.5637L265.16 66.366C265.032 73.017 264.866 81.4447 264.693 89.9916L230.159 89.439L230.515 66.7716L229.97 66.7589ZM183.937 87.8042C183.796 87.8093 183.698 87.7028 183.683 87.6547L183.834 87.6268H183.932L184.16 87.6699C184.123 87.7332 184.047 87.7991 183.937 87.8042ZM201.155 88.4353C201.173 88.8814 200.992 89.3073 200.66 89.6038C200.329 89.9004 199.886 90.0271 199.452 89.9536L184.009 87.0793L183.987 87.0742L137.624 86.5825L137.936 66.7538L200.298 66.5612L201.155 88.4353ZM183.645 87.6242C183.565 88.1996 183.577 89.7027 183.653 93.6719C183.701 96.1128 184.984 97.4765 187.272 97.5119L209.851 97.8744C209.873 97.8744 209.898 97.8744 209.921 97.8744C211.049 97.8744 212.021 97.441 212.734 96.6197C213.415 95.8365 213.802 94.7492 213.819 93.5553C213.86 91.0435 214.766 89.7686 216.515 89.7686C216.535 89.7686 216.555 89.7686 216.572 89.7686L229.601 89.9764L264.68 90.5391C264.284 109.99 263.844 129.859 263.716 130.577L263.982 130.642L263.96 130.749L266.062 131.208L264.394 158.08C264.329 159.15 263.852 160.128 263.055 160.838C262.259 161.548 261.234 161.897 260.174 161.829L165.289 155.53C165.412 154.02 165.515 140.852 165.52 140.272V140.168L154.549 139.656L154.438 139.651L154.2 154.793L140.184 153.863C139.413 153.812 137.933 153.148 137.933 152.37L137.243 99.9807L137.446 87.13L183.645 87.6242ZM162.401 155.553L164.473 155.69L137.918 162.25L137.147 162.186L162.401 155.553ZM157.897 155.039L154.413 154.808L154.649 139.876L158.063 140.036C158.088 141.306 158.329 153.784 157.897 155.039ZM162.725 155.36L162.963 140.264L165.307 140.373C165.269 145.313 165.174 154.438 165.078 155.518L162.725 155.36ZM134.698 164.08C134.731 163.93 134.869 163.75 135.055 163.563L136.61 163.697L136.574 163.74L136.612 175.759L134.625 175.587C134.62 174.92 134.56 164.701 134.698 164.08ZM135.266 163.365C135.743 162.952 136.384 162.544 136.675 162.364L137.627 162.442L136.77 163.492L135.266 163.365ZM136.868 163.717L239.485 172.5C239.482 172.545 239.48 172.591 239.48 172.637L239.525 184.712L136.826 175.777L136.788 163.814L136.868 163.717ZM239.507 172.287L137.032 163.517L137.871 162.485L137.933 162.47L240.201 171.025C239.839 171.349 239.588 171.793 239.507 172.287ZM138.589 162.308L165.181 155.738L260.164 162.044C260.257 162.049 260.35 162.055 260.443 162.055C261.46 162.055 262.43 161.687 263.201 161.003C264.042 160.257 264.542 159.226 264.613 158.098L266.286 131.177C266.466 131.018 267.504 130.153 268.694 130.288C269.365 130.364 269.97 130.744 270.498 131.421C270.179 131.781 269.975 132.242 269.95 132.744L268.677 157.872C268.526 160.83 266.527 163.355 263.703 164.153L241.035 170.571C240.826 170.629 240.635 170.721 240.459 170.835L138.589 162.308ZM268.712 130.07C267.438 129.93 266.366 130.81 266.147 131.005L264.264 130.592C264.404 128.939 264.753 113.577 265.077 98.0518C265.404 98.7032 265.934 99.6816 266.652 100.736C267.745 102.34 268.89 103.567 270.076 104.414C269.857 106.201 268.772 116.839 273.231 122.387C274.861 124.417 277.061 125.555 279.766 125.784L279.761 127.33C279.736 129.413 278.387 129.591 277.405 129.722C277.159 129.755 276.943 129.783 276.777 129.842L271.359 130.83L271.312 130.843C271.06 130.939 270.839 131.086 270.646 131.261C270.086 130.554 269.438 130.151 268.712 130.07ZM273.396 122.255C269.076 116.877 270.031 106.616 270.274 104.556C270.839 104.938 271.415 105.233 271.995 105.438C273.982 106.142 275.908 106.338 277.44 106.338C278.626 106.338 279.573 106.221 280.128 106.13C279.987 106.485 279.839 106.997 279.824 107.58L279.769 125.571C277.129 125.345 274.986 124.232 273.396 122.255ZM118.583 21.0767C118.59 20.1921 119.303 19.0338 120.09 18.9958L247.118 12.6794L247.126 12.7681C247.138 12.7656 248.472 12.6642 249.087 13.2218C249.278 13.3942 249.374 13.6147 249.379 13.891C249.439 16.7374 249.64 22.9828 249.874 30.2142C250.306 43.6099 250.843 60.2829 250.778 64.5943C250.765 65.4485 248.683 65.8033 248.153 65.8186V65.8363L231.04 65.9174L142.678 66.1886C171.493 65.5854 242.233 64.1153 246.277 64.1153C246.319 64.1153 246.355 64.1153 246.382 64.1153C246.937 64.1203 247.492 63.8669 247.944 63.3979C248.404 62.9214 248.713 62.265 248.695 61.8011C248.552 58.027 248.442 51.5231 248.311 43.9901C248.16 35.2429 247.99 25.3274 247.726 17.181V17.1455C247.691 16.0353 247.646 14.6539 245.802 14.6235C245.799 14.6235 245.794 14.6235 245.789 14.6235C243.619 14.6235 123.149 21.0058 122.315 21.0767C120.042 21.2694 119.977 23.7837 119.977 23.8142C120.022 25.0004 120.876 47.9467 121.34 57.4516L119.916 57.3705L118.583 21.0767ZM119.587 65.8819L118.216 63.0304L119.635 57.9053L119.788 57.9155C120.449 57.9941 120.858 58.027 121.114 58.0346C121.102 58.1664 121.097 58.2957 121.089 58.4249L119.565 63.2459L121.107 65.9047L119.587 65.8819ZM122.114 64.8858L121.32 65.8464L119.798 63.2205L121.067 59.2082C121.077 61.9861 121.994 63.8897 122.348 64.5208L122.114 64.8858ZM131.252 66.1785L126.156 65.375L126.133 65.3725H126.11C124.882 65.3877 123.827 65.1747 122.943 64.7439L123.051 64.6146L122.938 64.4422C122.925 64.4245 122.089 63.1166 121.752 60.9393C121.717 60.473 121.672 59.7227 121.622 58.7519C121.632 58.4325 121.654 58.1056 121.692 57.7659L121.725 57.477L121.556 57.4668C121.084 47.8123 120.2 24.1006 120.19 23.8142C120.193 23.7178 120.255 21.4696 122.333 21.2922C124.674 21.0945 244.345 14.8389 245.792 14.8389C245.794 14.8389 245.797 14.8389 245.797 14.8389C247.437 14.8643 247.475 16.0277 247.51 17.1531V17.1886C247.774 25.335 247.944 35.248 248.095 43.9951C248.226 51.5281 248.336 58.0346 248.479 61.8113C248.492 62.1585 248.261 62.7643 247.791 63.2509C247.502 63.55 247.03 63.9023 246.405 63.9023C246.397 63.9023 246.392 63.9023 246.385 63.9023C243.252 63.8618 142.51 65.9782 131.571 66.2089C131.465 66.1911 131.36 66.1785 131.252 66.1785ZM132.917 127.903L132.965 124.798C133.97 124.815 135.326 124.838 135.884 124.856L135.901 127.951C135.351 127.994 133.761 128.098 132.917 127.903ZM124.739 153.759L129.562 153.835L129.521 153.695C129.519 153.683 129.175 152.458 129.737 151.667C130.212 150.998 133.653 150.504 135.54 150.413C134.748 152.448 133.023 154.025 130.8 154.554L124.669 156.017C124.691 155.523 124.729 154.552 124.739 153.759ZM110.763 159.903L130.928 155.092C133.41 154.499 135.326 152.702 136.137 150.398C136.152 150.398 136.17 150.398 136.185 150.398L136.188 150.243C136.434 149.493 136.567 148.692 136.562 147.863L136.306 101.861C136.301 101.06 135.861 100.336 135.155 99.968C134.645 99.7044 134.319 99.1798 134.301 98.6019L133.374 68.2544C133.349 67.4458 132.872 66.7488 132.196 66.4066C133.359 66.3812 135.125 66.3458 137.391 66.2976L137.067 86.8512L137.235 86.8537L137.029 99.9832L137.72 152.372C137.72 153.28 139.31 154.02 140.169 154.078L153.609 154.97L127.899 161.363L127.856 161.373L127.836 161.406L110.57 159.961C110.633 159.941 110.696 159.918 110.763 159.903ZM110.216 160.151L127.713 161.613L127.085 162.665L109.573 161.165C109.648 160.754 109.879 160.389 110.216 160.151ZM109.56 161.659C109.548 161.565 109.545 161.472 109.548 161.38L126.959 162.871L126.932 162.919L127.273 174.948L110.964 173.529C110.359 168.267 109.847 163.841 109.56 161.659ZM110.989 173.747L239.522 184.93L239.53 186.679C238.535 186.458 234.67 185.999 219.689 184.631C209.019 183.655 194.142 182.355 175.464 180.763C144.469 178.122 113.072 175.539 111.213 175.387L111.057 174.337C111.035 174.14 111.012 173.942 110.989 173.747ZM231.055 226.384L121.562 212.21C118.291 211.754 115.287 208.92 114.865 205.897C113.875 198.805 112.396 185.951 111.203 175.602C115.064 175.919 234.265 185.726 239.53 186.874L239.648 218.722C239.656 220.937 238.716 223.051 237.073 224.519C235.428 225.986 233.235 226.668 231.055 226.384ZM236.569 225.606C236.87 225.403 237.161 225.178 237.435 224.932C239.198 223.358 240.206 221.094 240.196 218.719L240.073 185.487C240.258 185.442 240.545 185.371 240.919 185.277C260.566 180.383 264.711 179.574 265.301 179.574C265.306 179.574 265.311 179.574 265.316 179.574C265.376 180.885 264.61 200.969 264.279 209.648C264.171 212.502 264.098 214.39 264.095 214.535C264.06 216.745 263.977 217.209 262.425 217.863C251.155 221.239 241.203 224.217 236.569 225.606ZM327.098 127.606C327.033 131.763 323.632 135.139 319.515 135.139C319.51 135.139 319.505 135.139 319.498 135.139L309.978 135.119L313.55 133.37L313.51 133.286L313.68 133.296L315.25 103.349L315.037 103.339L313.469 133.208L313.314 132.873L293.036 142.348L314.831 166.414L313.959 197.707C313.879 200.556 312.008 203.015 309.3 203.826C300.446 206.48 280.588 212.426 263.462 217.556C264.186 217.016 264.286 216.291 264.314 214.54C264.316 214.398 264.387 212.512 264.497 209.658C265.087 194.164 265.62 179.779 265.522 179.463C265.459 179.267 265.366 178.971 240.874 185.072C240.532 185.158 240.263 185.224 240.078 185.269L240.03 172.639C240.027 171.927 240.502 171.293 241.18 171.101L263.849 164.683C266.901 163.819 269.061 161.094 269.222 157.898L270.495 132.769C270.525 132.148 270.915 131.603 271.485 131.372L276.9 130.384L276.948 130.371C277.056 130.328 277.262 130.303 277.478 130.275C278.458 130.146 280.279 129.905 280.311 127.34L280.372 107.59C280.389 106.878 280.65 106.274 280.773 106.026C281.507 105.93 282.228 105.192 282.519 104.857C283.006 104.3 283.531 103.471 283.541 102.822L284.142 93.2943C285.101 93.9533 287.498 95.5957 288.146 95.9861L288.203 96.0216L288.269 96.0266C288.286 96.0266 288.429 96.0368 288.686 96.0545C292.099 97.3624 312.359 102.622 314.828 103.261L314.861 103.268L324.335 99.4738L324.258 99.2735L314.846 103.043C305.939 100.736 293.199 97.3396 289.439 96.1027C294.104 96.4018 311.565 97.5119 320.688 97.9124C324.541 98.0822 327.513 101.263 327.45 105.156L327.098 127.606Z" fill="#E9EEF1"/>
<path d="M142.015 138.134L211.453 141.285C211.486 141.287 211.521 141.287 211.554 141.287C212.687 141.287 213.769 140.443 214.337 139.11L214.359 139.059L214.714 105.766C214.847 104.489 214.445 103.057 213.711 102.198C213.34 101.759 212.913 101.518 212.476 101.498L141.696 100.104C141.071 100.076 140.32 100.297 139.704 100.694C139.001 101.151 138.596 101.746 138.569 102.383L138.456 134.294C138.453 134.367 138.448 134.446 138.443 134.527C138.401 135.234 138.338 136.304 139.056 137.097C139.644 137.744 140.613 138.083 142.015 138.134ZM138.993 134.558C138.998 134.474 139.003 134.393 139.006 134.304L139.119 102.393C139.139 101.957 139.46 101.508 140.001 101.156C140.518 100.821 141.156 100.626 141.681 100.651L212.46 102.045C212.81 102.061 213.109 102.329 213.299 102.552C213.932 103.295 214.289 104.598 214.171 105.716L213.817 138.937C213.317 140.068 212.403 140.775 211.481 140.729L150.153 137.949C148.078 137.612 143.957 136.96 142.655 136.877L142.806 133.118L144.502 133.341C144.379 135.599 144.456 135.691 144.492 135.729L144.527 135.762L144.567 135.767H144.569L144.562 135.934L146.082 136.005C147.538 136.241 149.714 136.593 151.1 136.818L151.133 136.606C150.653 136.527 149.319 136.309 147.978 136.094L178.793 137.541C178.813 137.541 178.835 137.541 178.855 137.541C179.734 137.541 180.696 137.244 181.44 136.742C182.314 136.152 182.804 135.348 182.816 134.479L183.042 106.225C183.058 105.318 182.766 104.382 182.244 103.658C181.664 102.851 180.87 102.4 180.011 102.388L171.925 102.111V102.101L171.712 102.099V102.106L143.457 101.138C143.442 101.138 143.427 101.138 143.412 101.138C142.558 101.138 141.676 101.521 140.988 102.192C140.287 102.877 139.88 103.772 139.865 104.651L139.651 132.238C139.626 133.779 140.897 135.364 142.485 135.772L142.432 137.082L142.537 137.087C143.396 137.125 146.061 137.523 148.234 137.863L142.035 137.581C140.802 137.538 139.935 137.249 139.46 136.725C138.9 136.101 138.953 135.244 138.993 134.558ZM140.814 103.3C140.963 103.047 141.151 102.806 141.372 102.588C141.485 102.476 141.606 102.378 141.729 102.286L141.382 124.214L140.586 124.188L140.915 103.303L140.814 103.3ZM180.136 125.451L179.232 125.423L179.586 102.93L179.998 102.945C180.166 102.948 180.33 102.973 180.49 103.016L180.136 125.451ZM180.701 103.087C181.01 103.211 181.297 103.412 181.55 103.685L181.206 125.486L180.347 125.458L180.701 103.087ZM179.019 125.415L178.132 125.387L178.486 102.892L179.373 102.922L179.019 125.415ZM177.921 125.38L177.047 125.352L177.401 102.854L178.275 102.884L177.921 125.38ZM176.833 125.344L175.947 125.316L176.301 102.816L177.188 102.846L176.833 125.344ZM175.733 125.311L174.847 125.283L175.201 102.781L176.087 102.811L175.733 125.311ZM174.636 125.276L173.749 125.248L174.103 102.743L174.99 102.773L174.636 125.276ZM173.535 125.24L172.661 125.212L173.015 102.704L173.89 102.735L173.535 125.24ZM172.448 125.205L171.561 125.177L171.915 102.666L172.802 102.697L172.448 125.205ZM171.35 125.169L170.546 125.144L170.901 102.631L171.704 102.659L171.35 125.169ZM170.333 125.139L169.446 125.111L169.8 102.595L170.687 102.626L170.333 125.139ZM169.233 125.103L168.359 125.075L168.713 102.557L169.587 102.588L169.233 125.103ZM168.148 125.068L167.261 125.04L167.615 102.519L168.502 102.55L168.148 125.068ZM167.047 125.032L166.251 125.007L166.605 102.484L167.402 102.512L167.047 125.032ZM166.04 125.002L165.154 124.974L165.508 102.448L166.394 102.479L166.04 125.002ZM164.94 124.966L164.066 124.939L164.42 102.41L165.294 102.441L164.94 124.966ZM163.852 124.931L162.966 124.903L163.32 102.372L164.207 102.403L163.852 124.931ZM162.755 124.895L161.946 124.87L162.3 102.337L163.109 102.365L162.755 124.895ZM161.732 124.862L160.846 124.835L161.2 102.299L162.087 102.329L161.732 124.862ZM160.632 124.83L159.758 124.802L160.112 102.263L160.986 102.294L160.632 124.83ZM159.545 124.794L158.658 124.766L159.012 102.225L159.899 102.256L159.545 124.794ZM158.447 124.759L157.643 124.733L157.997 102.19L158.801 102.218L158.447 124.759ZM157.784 102.182L157.43 124.726L156.543 124.698L156.897 102.152L157.832 102.185L157.784 102.182ZM156.33 124.69L155.456 124.662L155.81 102.114L156.684 102.144L156.33 124.69ZM155.245 124.657L154.358 124.629L154.712 102.078L155.599 102.109L155.245 124.657ZM154.144 124.622L153.348 124.596L153.702 102.129L153.489 102.127L153.135 124.589L152.248 124.561L152.602 102.005L154.496 102.071L154.144 124.622ZM152.037 124.553L151.163 124.525L151.517 101.967L152.391 101.997L152.037 124.553ZM151.306 101.962L150.952 124.52L150.065 124.492L150.419 101.931L151.429 101.967L151.306 101.962ZM149.852 124.485L149.184 124.465L149.538 101.901L150.206 101.924L149.852 124.485ZM148.97 124.457L148.083 124.429L148.438 101.863L149.324 101.893L148.97 124.457ZM147.87 124.421L146.996 124.394L147.353 101.825L148.227 101.855L147.87 124.421ZM146.785 124.386L145.898 124.358L146.255 101.787L147.142 101.817L146.785 124.386ZM145.685 124.35L144.881 124.325L145.235 101.805L145.022 101.802L144.667 124.32L143.781 124.292L144.137 101.716L146.039 101.782L145.685 124.35ZM143.57 124.285L142.696 124.257L143.05 101.721C143.183 101.701 143.314 101.688 143.444 101.693L143.924 101.708L143.57 124.285ZM142.482 124.249L141.596 124.221L141.942 102.139C142.226 101.962 142.53 101.83 142.834 101.759L142.482 124.249ZM140.375 124.183L140.279 124.181L140.262 124.708L148.963 124.984V125.012L149.176 125.015V124.992L152.029 125.083V125.126L152.243 125.129V125.088L155.237 125.184V125.255L155.451 125.258V125.189L161.725 125.39H161.743L168.14 125.595V125.605L168.354 125.608V125.603L179.014 125.942V125.955L179.227 125.957V125.947L182.236 126.044L182.254 125.516L181.427 125.491L181.766 103.934C181.779 103.952 181.794 103.967 181.807 103.984C182.259 104.616 182.512 105.429 182.5 106.223L182.274 134.476C182.264 135.158 181.859 135.802 181.141 136.289C180.47 136.742 179.594 137.006 178.815 136.993L144.65 135.389C144.642 134.973 144.675 134.073 144.723 133.257L144.728 133.158L142.605 132.877L142.512 135.204C141.231 134.816 140.184 133.493 140.204 132.248L140.417 104.661C140.423 104.279 140.523 103.888 140.701 103.521L140.375 124.183Z" fill="#E9EEF1"/>
<path d="M229.292 154.555L257.547 156.053C257.605 156.058 257.663 156.06 257.72 156.06C258.476 156.06 259.323 155.693 260.016 155.051C260.586 154.527 260.93 153.924 260.938 153.442L262.098 100.212C262.149 97.0711 262.184 94.8026 259.313 94.7569L231.789 94.3184C231.158 94.3134 229.217 94.544 228.026 95.7252C227.388 96.3588 227.061 97.1573 227.059 98.0976L226.225 151.123V151.13C226.21 152.05 226.177 154.504 229.292 154.555ZM226.77 151.135V151.13L227.604 98.1002C227.606 97.3093 227.878 96.6427 228.408 96.1181C229.443 95.0915 231.181 94.8685 231.751 94.8685C231.761 94.8685 231.771 94.8685 231.779 94.8685L259.303 95.307C261.533 95.3424 261.604 96.8328 261.551 100.199L260.39 153.429C260.385 153.754 260.094 154.23 259.647 154.641C259.009 155.229 258.24 155.548 257.58 155.498L229.307 153.997C226.732 153.962 226.758 152.053 226.77 151.135Z" fill="#E9EEF1"/>
<path d="M208.008 144.798L187.258 143.534C186.115 143.463 185.008 143.848 184.146 144.619C183.287 145.387 182.775 146.449 182.704 147.604L182.556 150.086C182.486 151.242 182.868 152.357 183.631 153.226C184.392 154.093 185.445 154.61 186.59 154.681L207.34 155.946C207.428 155.951 207.516 155.954 207.604 155.954C208.654 155.954 209.656 155.571 210.449 154.861C211.308 154.093 211.821 153.031 211.891 151.875L212.039 149.394C212.185 147.004 210.377 144.943 208.008 144.798ZM199.875 145.037C200.294 145.044 200.686 145.217 200.98 145.521C201.274 145.825 201.432 146.228 201.425 146.651L201.354 151.097C201.332 152.575 200.709 152.679 199.754 152.661C199.722 152.661 199.689 152.653 199.656 152.651C199.737 152.593 199.815 152.532 199.887 152.461C200.262 152.096 200.473 151.607 200.48 151.084L200.551 146.639C200.558 146.117 200.365 145.622 200 145.245C199.928 145.169 199.85 145.103 199.769 145.042C199.805 145.039 199.84 145.037 199.875 145.037ZM199.493 144.857C199.491 144.857 199.488 144.859 199.486 144.859C199.483 144.859 199.48 144.857 199.48 144.857H199.493ZM198.629 145.174C199.006 145.179 199.36 145.336 199.626 145.612C199.892 145.888 200.033 146.251 200.028 146.631L199.958 151.077C199.953 151.457 199.797 151.814 199.523 152.083C199.249 152.349 198.893 152.489 198.513 152.489C197.73 152.476 197.102 151.822 197.114 151.031L197.185 146.585C197.197 145.802 197.833 145.174 198.604 145.174C198.614 145.174 198.621 145.174 198.629 145.174ZM187.344 144.117L197.948 144.763C197.692 144.857 197.459 145.001 197.255 145.199C197.009 145.44 196.833 145.736 196.74 146.061L187.371 145.458L187.356 145.683L196.69 146.284C196.675 146.38 196.662 146.476 196.662 146.578L196.592 151.024C196.587 151.292 196.637 151.553 196.738 151.797L187.236 151.062L187.344 144.117ZM184.061 152.844C183.4 152.091 183.068 151.125 183.129 150.121L183.277 147.64C183.337 146.636 183.782 145.716 184.525 145.049C185.246 144.403 186.168 144.076 187.13 144.109L187.02 151.11L184.518 153.279C184.357 153.148 184.201 153.006 184.061 152.844ZM210.073 154.43C209.327 155.097 208.367 155.426 207.375 155.371L186.625 154.106C185.919 154.063 185.256 153.819 184.691 153.416L187.16 151.275L196.846 152.022C196.926 152.164 197.024 152.299 197.14 152.42C197.501 152.798 197.986 153.011 198.503 153.018C198.513 153.018 198.524 153.018 198.534 153.018C198.822 153.018 199.104 152.952 199.357 152.831C199.483 152.861 199.614 152.879 199.747 152.882C199.792 152.882 199.837 152.882 199.88 152.882C200.505 152.882 201.048 152.795 201.337 152.238L211.06 153.001C210.854 153.541 210.52 154.032 210.073 154.43ZM211.472 149.358L211.324 151.84C211.303 152.167 211.241 152.484 211.14 152.788L201.432 152.025C201.515 151.787 201.563 151.485 201.57 151.1L201.641 146.654C201.641 146.631 201.638 146.606 201.638 146.583L208.925 147.044C210.007 147.11 210.949 147.736 211.449 148.666C211.474 148.892 211.484 149.123 211.472 149.358ZM208.935 146.821L201.616 146.357C201.515 145.683 201.043 145.125 200.412 144.913L207.973 145.374C209.583 145.473 210.892 146.596 211.321 148.073C210.751 147.348 209.894 146.879 208.935 146.821Z" fill="#E9EEF1"/>
<path d="M116.151 181.217L118.186 192.899L120.02 206.077L232.924 219.442L233.273 219.483L230.952 191.984L116.151 181.217ZM118.937 194.126L124.222 194.686L124.95 199.487L125.234 199.444L125.204 199.732L127.065 199.938L128.293 202.465L128.278 202.604L128.366 202.614L128.374 202.63L120.512 205.423L118.937 194.126ZM232.643 218.824L121.542 205.671L125.867 204.135L125.864 204.148L232.399 215.964L232.643 218.824ZM232.352 215.376L127.093 203.699L128.869 203.068L128.773 202.794L128.997 202.685L232.269 214.368L232.352 215.376ZM232.249 214.15L128.929 202.462L128.288 201.142L232.141 212.87L232.249 214.15ZM232.12 212.649L128.178 200.911L127.743 200.014L232.033 211.562L232.12 212.649ZM231.98 210.974L125.485 199.18L124.812 194.749L231.565 206.072L231.98 210.974ZM118.854 193.535L118.754 192.808L116.847 181.866L230.423 192.516L231.518 205.484L118.854 193.535Z" fill="#E9EEF1"/>
<path d="M186.108 138.665L210.316 139.72H210.319C210.326 139.72 210.334 139.72 210.341 139.72C210.917 139.72 211.487 139.367 211.949 138.726C212.363 138.153 212.625 137.416 212.635 136.8L212.697 132.775C212.725 132.755 212.753 132.737 212.78 132.717L212.7 132.605L213.011 112.779L213.062 112.698C213.047 112.688 213.029 112.677 213.014 112.67L213.084 108.224L213.099 108.201C213.094 108.199 213.089 108.194 213.084 108.191L213.124 105.667C213.135 105.058 212.906 104.478 212.484 104.037C212.062 103.596 211.494 103.347 210.894 103.337L186.68 102.506C185.42 102.498 184.387 103.966 184.367 105.203L183.877 136.339C183.867 136.947 184.096 137.527 184.518 137.966C184.942 138.409 185.507 138.658 186.108 138.665ZM204.64 133.629C200.988 133.571 197.619 132.09 195.15 129.459C192.721 126.872 191.415 123.46 191.47 119.856C191.498 118.157 191.855 116.52 192.508 115.009C192.822 115.161 193.193 115.316 193.618 115.476C192.985 116.875 192.638 118.393 192.613 119.97C192.561 123.252 193.786 126.357 196.064 128.714C198.378 131.11 201.538 132.458 204.956 132.514C205.009 132.514 205.062 132.514 205.117 132.514C207.438 132.514 209.867 131.708 212.346 130.121L212.328 131.224C211.195 131.948 207.606 133.68 204.64 133.629ZM212.326 131.48L212.313 132.278C209.899 134.035 207.066 134.939 204.107 134.891C196.419 134.767 190.265 128.164 190.39 120.172C190.423 118.165 190.845 116.229 191.616 114.452C191.769 114.599 192.008 114.753 192.317 114.913C191.649 116.454 191.285 118.122 191.257 119.853C191.199 123.513 192.525 126.978 194.994 129.609C197.501 132.281 200.927 133.786 204.635 133.847C204.675 133.847 204.718 133.847 204.758 133.847C207.659 133.844 211.077 132.24 212.326 131.48ZM204.961 132.298C201.598 132.245 198.493 130.917 196.218 128.565C193.98 126.248 192.774 123.196 192.827 119.975C192.852 118.396 193.201 116.903 193.814 115.549C194.155 115.676 194.527 115.803 194.922 115.932C194.299 117.202 193.962 118.583 193.939 120.02C193.894 122.95 195.055 125.723 197.212 127.83C199.4 129.966 202.387 131.173 205.617 131.226C205.662 131.226 205.705 131.226 205.75 131.226C208.42 131.226 210.517 129.941 212.371 128.775L212.353 129.868C209.811 131.515 207.335 132.334 204.961 132.298ZM193.638 111.106C193.934 110.738 194.251 110.384 194.585 110.044C194.284 110.376 193.962 110.736 193.638 111.106ZM205.619 131.006C202.442 130.955 199.508 129.771 197.361 127.67C195.248 125.607 194.108 122.89 194.153 120.02C194.176 118.606 194.51 117.245 195.128 115.995C195.63 116.155 196.167 116.317 196.733 116.479C196.193 117.607 195.896 118.834 195.876 120.107C195.833 122.758 196.886 125.27 198.837 127.176C200.819 129.112 203.522 130.202 206.446 130.25C206.486 130.25 206.526 130.25 206.564 130.25C208.885 130.25 210.738 129.16 212.376 128.134L212.371 128.514C210.487 129.703 208.35 131.051 205.619 131.006ZM206.451 130.035C203.58 129.989 200.93 128.92 198.988 127.021C197.079 125.156 196.049 122.702 196.09 120.109C196.11 118.854 196.404 117.648 196.941 116.538C197.398 116.667 197.87 116.796 198.358 116.926C197.926 117.909 197.69 118.971 197.672 120.069C197.592 125.153 201.678 129.203 206.973 129.29C207.008 129.29 207.043 129.29 207.079 129.29C209.138 129.29 210.894 128.324 212.391 127.363L212.384 127.878C210.713 128.93 208.822 130.07 206.451 130.035ZM206.976 129.097C201.786 129.013 197.783 125.049 197.86 120.074C197.878 118.991 198.114 117.945 198.544 116.976C199.043 117.108 199.553 117.24 200.068 117.369C199.784 118.178 199.624 119.047 199.609 119.96C199.536 124.651 202.881 128.111 207.566 128.185C207.601 128.185 207.639 128.185 207.674 128.185C209.221 128.185 210.881 127.655 212.399 126.684L212.391 127.133C210.871 128.116 209.083 129.13 206.976 129.097ZM207.679 128.01C207.644 128.01 207.609 128.01 207.573 128.01C202.989 127.936 199.714 124.552 199.787 119.962C199.802 119.065 199.96 118.208 200.242 117.412C200.586 117.498 200.932 117.585 201.281 117.668C201.068 118.309 200.947 118.991 200.937 119.704C200.907 121.599 201.691 124.355 204.002 125.883C204.833 126.433 206.024 126.915 207.646 126.915C208.945 126.915 210.527 126.6 212.416 125.772L212.406 126.471C210.892 127.462 209.229 128.01 207.679 128.01ZM200.287 114.459C200.437 114.31 200.591 114.163 200.754 114.023C202.575 112.447 204.996 111.605 207.556 111.643C208.385 111.656 209.158 111.818 209.879 112.064C209.384 111.927 208.865 111.841 208.314 111.831C208.264 111.831 208.211 111.831 208.161 111.831C205.285 111.831 202.776 113.141 201.231 115.194C200.897 114.949 200.581 114.703 200.287 114.459ZM204.085 125.754C201.826 124.261 201.06 121.561 201.088 119.706C201.098 119.007 201.219 118.335 201.43 117.704C201.842 117.803 202.253 117.901 202.665 117.998C202.555 118.403 202.495 118.814 202.487 119.227C202.457 121.161 203.072 122.882 204.225 124.071C205.335 125.219 206.855 125.807 208.739 125.822C208.772 125.822 208.804 125.822 208.837 125.822C210.314 125.822 211.517 125.543 212.431 124.998L212.421 125.602C208.189 127.477 205.554 126.727 204.085 125.754ZM208.741 125.607C206.915 125.592 205.446 125.024 204.378 123.919C203.268 122.77 202.673 121.105 202.703 119.23C202.708 118.832 202.768 118.434 202.876 118.046C203.426 118.173 203.972 118.299 204.512 118.421C204.484 118.606 204.464 118.791 204.461 118.979C204.421 121.452 205.255 123.181 206.935 124.121C207.933 124.679 209.111 124.864 210.153 124.864C211.125 124.864 211.974 124.702 212.441 124.527L212.439 124.748C211.535 125.32 210.264 125.619 208.741 125.607ZM212.439 124.322C211.655 124.639 209.035 125.082 207.021 123.954C205.406 123.052 204.605 121.376 204.645 118.979C204.647 118.806 204.665 118.631 204.69 118.459C208.262 119.26 211.437 119.889 212.507 120.096L212.439 124.322ZM212.507 120.074C209.472 119.303 206.996 118.388 204.981 117.412C205.26 116.733 205.702 116.089 206.29 115.544C207.327 114.581 208.686 114.036 210.007 114.061C211.015 114.077 211.871 114.508 212.587 114.951L212.507 120.074ZM212.589 114.733C211.871 114.297 211.017 113.889 210.01 113.874C208.643 113.854 207.237 114.411 206.164 115.407C205.562 115.967 205.104 116.632 204.816 117.331C204.351 117.103 203.909 116.87 203.492 116.634C203.826 116.092 204.255 115.587 204.773 115.146C206.051 114.056 207.719 113.443 209.349 113.471C210.628 113.491 211.703 114.074 212.592 114.652L212.589 114.733ZM212.594 114.401C211.7 113.831 210.628 113.276 209.352 113.255C207.676 113.23 205.951 113.859 204.632 114.981C204.095 115.44 203.648 115.965 203.303 116.528C202.964 116.332 202.638 116.137 202.329 115.94C203.683 114.051 206.014 112.847 208.701 112.895C210.231 112.921 211.522 113.598 212.594 114.287V114.401ZM212.6 114.11C211.524 113.425 210.233 112.769 208.706 112.743C208.659 112.743 208.611 112.743 208.563 112.743C205.883 112.743 203.56 113.965 202.203 115.861C201.914 115.673 201.638 115.486 201.374 115.298C202.886 113.288 205.343 112.008 208.161 112.008C208.211 112.008 208.262 112.008 208.312 112.008C209.995 112.036 211.419 112.802 212.607 113.59L212.6 114.11ZM212.615 113.205C211.226 112.335 209.55 111.481 207.558 111.448C204.959 111.408 202.485 112.267 200.628 113.874C200.458 114.021 200.297 114.175 200.139 114.333C199.827 114.066 199.538 113.805 199.272 113.544C199.305 113.516 199.335 113.486 199.367 113.458C201.437 111.727 204.185 110.797 207.096 110.845C209.254 110.88 211.087 111.76 212.62 112.677L212.615 113.205ZM212.627 112.434C211.092 111.524 209.261 110.667 207.104 110.632C204.132 110.581 201.342 111.529 199.234 113.293C199.197 113.326 199.159 113.359 199.121 113.392C198.765 113.035 198.451 112.683 198.174 112.345C200.415 110.629 203.301 109.714 206.335 109.765C208.812 109.806 210.902 110.853 212.632 111.907L212.627 112.434ZM212.64 111.661C210.907 110.614 208.819 109.593 206.34 109.552C203.248 109.507 200.319 110.434 198.041 112.181C197.76 111.823 197.519 111.479 197.315 111.154C199.568 109.415 202.505 108.396 205.742 108.447C208.455 108.49 210.728 109.745 212.597 110.964L212.652 110.878L212.64 111.661ZM212.652 110.746C210.771 109.522 208.483 108.275 205.745 108.232C202.583 108.181 199.586 109.157 197.212 110.987C196.954 110.556 196.755 110.161 196.607 109.816C199.104 107.915 202.211 106.906 205.496 106.962C208.314 107.007 210.693 108.29 212.667 109.595L212.652 110.746ZM212.675 109.339C210.696 108.044 208.319 106.789 205.501 106.746C202.191 106.693 199.051 107.704 196.524 109.611C196.351 109.175 196.26 108.832 196.213 108.617C198.571 106.85 201.392 105.897 204.343 105.897C204.416 105.897 204.491 105.897 204.564 105.9C207.247 105.943 210.351 107.007 212.685 108.678L212.675 109.339ZM212.697 107.92C210.311 106.318 207.244 105.312 204.577 105.269C200.684 105.21 196.999 106.721 194.201 109.537C191.405 112.351 189.833 116.122 189.767 120.162C189.637 128.504 196.064 135.393 204.1 135.522C204.178 135.522 204.255 135.525 204.331 135.525C207.187 135.525 209.927 134.676 212.301 133.059L212.26 135.654C212.248 136.516 211.54 137.233 211.097 137.233C211.095 137.233 211.092 137.233 211.09 137.233L187.909 136.861C187.286 136.851 186.766 136.678 186.407 136.361C186.08 136.072 185.904 135.672 185.909 135.231L186.371 105.862C186.387 104.99 187.095 104.288 187.956 104.288C187.964 104.288 187.974 104.288 187.982 104.288L211.163 104.66C211.585 104.668 211.979 104.84 212.273 105.147C212.569 105.454 212.728 105.859 212.72 106.283L212.697 107.92ZM184.581 105.208C184.598 104.075 185.525 102.721 186.653 102.721C186.66 102.721 186.668 102.721 186.675 102.721L210.889 103.553C211.437 103.56 211.949 103.786 212.331 104.186C212.715 104.587 212.921 105.109 212.911 105.662L212.906 105.933C212.843 105.583 212.68 105.261 212.426 104.997C212.092 104.648 211.643 104.453 211.165 104.445L187.984 104.072C186.994 104.06 186.173 104.858 186.158 105.857L185.696 135.226C185.688 135.73 185.889 136.192 186.266 136.524C186.663 136.876 187.231 137.066 187.906 137.076L211.087 137.449C211.09 137.449 211.092 137.449 211.095 137.449C211.567 137.449 212.26 136.833 212.434 136.009L212.421 136.797C212.401 137.999 211.422 139.504 210.339 139.504C210.334 139.504 210.326 139.504 210.321 139.504L186.113 138.45C185.565 138.442 185.053 138.217 184.671 137.816C184.287 137.416 184.081 136.894 184.091 136.341L184.581 105.208Z" fill="#E9EEF1"/>
<path d="M191.327 146.525L188.557 147.843L191.053 149.864L191.068 148.933C191.068 148.933 192.827 148.923 193.02 148.964L193.07 147.483L191.423 147.347L191.327 146.525Z" fill="#E9EEF1"/>
<path d="M241.21 22.159C241.21 22.1286 241.205 22.1007 241.202 22.0703L241.253 22.0247C241.235 22.0044 241.213 21.9866 241.195 21.9664C241.157 21.4898 241.007 21.1122 240.738 20.8536C240.366 20.4963 239.896 20.476 239.713 20.4811L195.742 22.0247L195.649 22.0272C195.154 22.0424 194.328 22.0678 194.312 23.0943L195.023 52.912L195.033 52.9551C195.31 53.5508 195.784 53.9158 196.272 53.9158C196.284 53.9158 196.297 53.9158 196.309 53.9158L198.382 53.8853C198.402 53.8853 198.419 53.8879 198.442 53.8879C198.485 53.8879 198.53 53.8828 198.575 53.8828L210.102 53.713V53.7434L210.31 53.7383V53.7104L226.933 53.4646V53.4697L227.142 53.4646V53.462L240.484 53.2643C240.876 53.2567 241.195 53.1224 241.436 52.8639C241.926 52.3392 241.946 51.4445 241.933 51.0845L241.21 22.159ZM196.304 53.7028C195.807 53.7257 195.435 53.2973 195.239 52.8892L194.529 23.0994C194.541 22.3466 195.023 22.2705 195.656 22.2502L239.721 20.7041C239.879 20.699 240.276 20.7168 240.59 21.0159C240.781 21.1984 240.904 21.4569 240.959 21.7788C240.655 21.5938 240.336 21.5811 240.185 21.5862L237.864 21.6673V21.6242L237.656 21.6293V21.6749L197.631 23.0791L197.54 23.0816C197.063 23.0968 196.262 23.1222 196.247 24.1158L196.935 52.9754L196.945 53.0185C197.083 53.3176 197.286 53.5381 197.548 53.6851L196.304 53.7028ZM198.301 53.6724C197.749 53.6344 197.357 53.3961 197.141 52.9475L196.453 24.1132C196.465 23.3832 196.932 23.3097 197.543 23.292L197.791 23.2844L198.585 53.6699L198.301 53.6724ZM200.738 53.6369L199.946 23.2616L199.738 23.2666L200.529 53.6395L198.791 53.6648L197.997 23.2768L201.662 23.1475L202.448 53.6116L200.738 53.6369ZM204.52 53.5812L203.729 23.2083L203.521 23.2134L204.312 53.5837L202.654 53.6091L201.868 23.1399L207.396 22.9473L208.175 53.528L204.52 53.5812ZM211.759 53.4747L210.971 22.9169L210.762 22.9219L211.551 53.4773L210.305 53.495L209.526 22.8864L209.318 22.8915L210.097 53.4975L208.386 53.5229L207.607 22.9371L212.689 22.7597L213.477 53.3936L213.686 53.3885L212.897 22.7546L216.562 22.6254L217.346 53.3911L211.759 53.4747ZM221.337 53.3328L220.551 22.5443L220.342 22.5493L221.126 53.3378L217.549 53.3911L216.765 22.6203L222.294 22.4251L223.077 53.1934L223.286 53.1883L222.502 22.4175L226.124 22.2908L226.926 53.2517L221.337 53.3328ZM227.136 53.2491L226.333 22.2832L228.051 22.2224L228.855 53.2213L227.136 53.2491ZM229.066 53.2187L228.262 22.2148L229.997 22.1539L230.801 53.1934L229.066 53.2187ZM231.01 53.1908L230.206 22.1463L231.924 22.0855L232.72 53.163L231.01 53.1908ZM232.929 53.163L232.132 22.0804L233.778 22.0221L234.584 53.1376L232.929 53.163ZM234.795 53.1351L233.989 22.0145L235.707 21.9537L236.505 53.1097L234.795 53.1351ZM236.714 53.1072L235.915 21.9461L237.658 21.8853L238.457 53.0793L236.714 53.1072ZM238.668 53.0768L237.869 21.8777L239.577 21.8168L240.379 53.0514L238.668 53.0768ZM241.283 52.7194C241.105 52.9095 240.868 53.0134 240.587 53.0413L239.786 21.8118L240.193 21.7965C240.343 21.7889 240.695 21.8092 240.986 22.0576C240.989 22.0931 240.994 22.126 240.994 22.1615L241.72 51.0947C241.732 51.4293 241.715 52.2555 241.283 52.7194Z" fill="#E9EEF1"/>
<path d="M224.426 22.3891L224.218 22.3945L225.004 53.2498L225.212 53.2444L224.426 22.3891Z" fill="#E9EEF1"/>
<path d="M218.632 22.7094L218.424 22.7148L219.213 53.3522L219.422 53.3468L218.632 22.7094Z" fill="#E9EEF1"/>
<path d="M214.847 22.7641L214.639 22.7695L215.428 53.4069L215.637 53.4014L214.847 22.7641Z" fill="#E9EEF1"/>
<path d="M205.661 23.0452L205.452 23.0508L206.245 53.4626L206.453 53.4571L205.661 23.0452Z" fill="#E9EEF1"/>
<path d="M190.736 51.9468C190.724 51.8404 190.714 51.7517 190.711 51.6908L189.782 26.9044C189.759 26.1288 189.726 25.5179 189.666 25.0338H189.706L189.701 24.8158L189.633 24.8184C189.397 23.3204 188.802 23.2139 187.119 23.2393L126.522 24.7702C126.03 24.7601 125.638 24.9248 125.342 25.2543C124.633 26.0426 124.691 27.5685 124.787 28.4024L125.897 54.1849C125.94 54.8997 126.954 56.0885 127.66 56.0885C127.673 56.0885 127.685 56.0885 127.698 56.0885L188.787 55.1557C189.435 55.2064 189.935 55.0543 190.274 54.6969C190.465 54.4967 190.59 54.2458 190.673 53.9771H190.714L190.711 53.8402C190.874 53.1635 190.786 52.3929 190.736 51.9468ZM126.113 54.1748L125.003 28.3846C124.91 27.5812 124.852 26.1237 125.503 25.4013C125.749 25.1276 126.08 24.9882 126.492 24.9882C126.502 24.9882 126.515 24.9882 126.525 24.9882L187.127 23.4547C188.689 23.4319 189.219 23.4775 189.427 24.8209L128.662 26.3417C128.168 26.3316 127.778 26.4963 127.482 26.8258C126.774 27.6141 126.831 29.14 126.927 29.9739L127.851 53.2522L126.186 54.4815C126.146 54.37 126.118 54.2661 126.113 54.1748ZM190.118 54.5449C189.824 54.8516 189.38 54.9834 188.8 54.9377H188.794L127.688 55.8705C127.256 55.9009 126.613 55.285 126.299 54.7147L190.445 53.9771C190.372 54.1951 190.269 54.3903 190.118 54.5449ZM190.508 53.7617L126.535 54.4967L127.999 53.4144L190.495 52.8644L190.492 52.6464L128.067 53.1964L127.143 29.9561C127.05 29.1526 126.992 27.6952 127.643 26.9728C127.896 26.6915 128.24 26.5495 128.665 26.5597L189.458 25.0389C189.515 25.5103 189.543 26.1212 189.566 26.912L190.495 51.701C190.5 51.7669 190.51 51.8607 190.523 51.9722C190.57 52.3955 190.653 53.1305 190.508 53.7617Z" fill="#E9EEF1"/>
<path d="M228.953 153.299C229.35 153.411 229.847 153.479 230.284 153.487L256.271 154.214C256.384 154.217 256.492 154.217 256.597 154.217C257.866 154.217 258.589 154.085 258.861 153.806C259.006 153.656 259.001 153.494 258.999 153.373C258.999 153.352 258.999 153.332 258.999 153.317L259.011 153.061C259.423 152.384 259.438 151.525 259.446 150.932L259.931 126.69C259.943 126.683 259.956 126.672 259.966 126.665L259.931 126.614L259.933 126.437C260.001 126.373 260.069 126.312 260.124 126.254L259.941 126.072L260.488 98.6315C260.506 97.4706 259.584 96.5099 258.434 96.4897L231.56 96.0588C230.41 96.0436 229.018 96.9586 228.998 98.1271L228.636 129.491L228.586 129.493C228.584 129.679 228.581 129.924 228.629 130.178L228.448 145.913L228.234 152.82C228.237 153.005 228.476 153.167 228.953 153.299ZM258.758 153.699C258.589 153.869 258.177 153.981 257.529 154.032C258.152 153.907 258.572 153.634 258.853 153.286V153.312C258.853 153.332 258.853 153.355 258.853 153.378C258.858 153.484 258.861 153.596 258.758 153.699ZM259.235 150.929C259.227 151.38 259.215 151.951 259.044 152.473L259.315 146.924L259.235 150.929ZM259.679 128.639H259.647C259.637 129.286 259.614 130.373 256.869 130.325L251.082 130.087C251.496 130.051 251.913 129.993 252.327 129.917C253.983 129.793 255.457 129.255 256.977 128.51C257.306 128.363 257.622 128.198 257.934 128.018C258.192 127.881 258.451 127.739 258.717 127.595L258.692 127.549C259.031 127.326 259.368 127.091 259.712 126.847L259.679 128.639ZM245.058 127.978C243.436 127.113 241.979 125.95 240.766 124.518C238.284 121.588 237.116 117.9 237.475 114.131C237.844 110.278 239.537 106.801 242.245 104.34C245.033 101.805 248.655 100.611 252.453 100.984C255.04 101.235 257.296 102.7 259.381 104.322C258.893 104.023 258.411 103.772 257.921 103.569C256.391 102.484 254.852 101.949 252.8 101.749C245.689 101.057 239.299 106.753 238.56 114.448C238.018 120.151 240.725 125.372 245.058 127.978ZM252.476 100.738C248.612 100.36 244.92 101.574 242.082 104.157C239.329 106.659 237.608 110.195 237.234 114.108C236.867 117.943 238.055 121.697 240.582 124.678C242.456 126.89 244.9 128.48 247.645 129.311C241.13 128.008 236.239 121.943 236.352 114.754C236.478 106.707 242.825 100.266 250.504 100.385C253.945 100.441 256.58 101.45 258.876 103.63C256.942 102.19 254.854 100.968 252.476 100.738ZM238.789 114.471C239.512 106.9 245.792 101.295 252.78 101.977C254.427 102.137 255.736 102.52 256.982 103.237C256.766 103.174 256.545 103.12 256.319 103.072C255.578 102.847 254.781 102.7 253.89 102.611C246.779 101.916 240.417 107.33 239.713 114.678C239.372 118.237 240.394 121.715 242.589 124.467C244.785 127.222 247.892 128.926 251.338 129.26C251.737 129.298 252.119 129.319 252.491 129.324C252.129 129.397 251.765 129.455 251.403 129.496C251.001 129.496 250.587 129.476 250.152 129.433C243.159 128.756 238.063 122.042 238.789 114.471ZM247.947 129.955L236.445 129.481L235.453 129.26C233.919 129.235 233.183 128.616 233.203 127.364L233.404 100.672C233.421 99.5186 234.21 98.5554 235.26 98.2741L236.744 98.2918L237.282 98.3602C236.069 98.6036 235.147 99.6301 235.127 100.875L234.727 126.307C234.702 127.856 235.496 128.657 237.39 128.994L247.947 129.955ZM253.724 102.824C246.887 102.852 241.276 108.623 241.16 115.809C241.055 122.597 245.89 128.279 252.184 129.098C251.915 129.088 251.642 129.07 251.358 129.042C247.972 128.713 244.918 127.04 242.76 124.33C240.602 121.621 239.598 118.202 239.932 114.701C240.62 107.523 246.789 102.228 253.724 102.824ZM259.735 125.877C259.014 126.609 257.328 127.681 255.304 128.48C254.769 128.596 254.196 128.657 253.563 128.644C246.917 128.538 241.6 122.784 241.71 115.816C241.818 108.915 247.213 103.374 253.774 103.374C253.837 103.374 253.9 103.374 253.963 103.376C256.399 103.414 258.037 103.964 260.006 105.407C260.031 105.427 260.056 105.447 260.081 105.467L260.147 105.391L259.735 125.877ZM260.147 105.234C260.142 105.232 260.139 105.229 260.134 105.224L260.147 105.206V105.234ZM260.159 104.623C260.109 104.583 260.056 104.542 260.006 104.499L260.164 104.357L260.159 104.623ZM260.167 104.177C257.552 101.24 254.568 99.8962 250.511 99.8303C242.526 99.7036 235.935 106.393 235.802 114.744C235.692 121.834 240.273 127.871 246.54 129.615L237.41 128.786C235.624 128.469 234.906 127.752 234.928 126.31L235.328 100.877C235.348 99.5667 236.465 98.5149 237.839 98.5149C237.852 98.5149 237.867 98.5149 237.882 98.5149L239.547 98.3248L257.406 98.5326C258.094 98.5757 260.332 98.8925 260.194 101.11L260.227 101.113L260.167 104.177ZM229.219 98.1321C229.234 97.1233 230.495 96.2793 231.532 96.2793C231.542 96.2793 231.552 96.2793 231.562 96.2793L258.436 96.7102C259.468 96.7254 260.295 97.5872 260.28 98.6289L260.252 100.018C259.973 99.2626 259.247 98.4363 257.419 98.3197L236.759 98.0789L235.948 97.975C235.702 97.9699 235.463 98.0029 235.237 98.0612L231.53 98.0181C230.869 97.9294 230.327 98.0586 229.915 98.4008C229.548 98.705 229.335 99.1435 229.204 99.5744L229.219 98.1321ZM229.186 100.941L229.209 100.943L229.211 100.887C229.239 100.421 229.314 99.1789 230.048 98.5681C230.412 98.2639 230.899 98.1524 231.512 98.2335L234.682 98.2715C233.813 98.7176 233.205 99.6225 233.19 100.674L232.989 127.367C232.979 128.092 233.205 128.637 233.662 128.989C233.936 129.199 234.285 129.339 234.712 129.412L230.882 129.255C229.975 129.24 229.013 128.938 229.021 128.406L228.867 128.404L229.186 100.941ZM228.867 128.675C229.101 129.199 230.015 129.453 230.877 129.468L236.435 129.699L236.684 129.755L236.694 129.709L256.864 130.543C256.919 130.543 256.972 130.543 257.024 130.543C258.695 130.543 259.378 130.107 259.662 129.613L259.647 130.421H259.574C259.569 130.715 259.519 131.146 259.129 131.498C258.662 131.919 257.818 132.122 256.638 132.107L230.947 131.25C230.121 131.293 229.53 131.149 229.189 130.817C228.998 130.629 228.9 130.403 228.852 130.173L228.867 128.675ZM228.842 130.723C228.895 130.809 228.958 130.893 229.036 130.971C229.422 131.346 230.065 131.516 230.945 131.465L256.628 132.322C256.678 132.322 256.731 132.322 256.778 132.322C257.944 132.322 258.78 132.099 259.265 131.658C259.421 131.516 259.539 131.354 259.624 131.169L259.463 139.232C259.31 138.925 259.062 138.666 258.72 138.474C258.097 138.121 257.351 138.061 256.964 138.053L230.759 136.968C230.749 136.968 230.736 136.968 230.726 136.968C229.792 136.968 228.985 137.617 228.754 138.03L228.842 130.723ZM228.709 142.405L228.837 138.233C228.84 138.002 229.674 137.115 230.731 137.115C230.741 137.115 230.751 137.115 230.761 137.115L256.967 138.2C257.343 138.205 258.062 138.266 258.655 138.601C259.094 138.849 259.365 139.196 259.461 139.632L259.418 141.817L258.878 152.858C258.557 153.441 257.939 153.885 256.738 153.885C256.713 153.885 256.685 153.885 256.66 153.885L242.486 153.051L242.868 137.625L242.66 137.62L242.393 148.336L229.129 151.484L229.176 151.687L242.388 148.552L242.358 149.766L230.683 152.359H230.678C230.171 152.351 229.651 152.138 229.249 151.776C228.832 151.401 228.609 150.924 228.616 150.435L228.709 142.405ZM242.351 149.986L242.275 153.043L231.447 152.407L242.351 149.986ZM228.448 150.866C228.541 151.261 228.764 151.631 229.106 151.94C229.546 152.338 230.118 152.572 230.671 152.579L255.618 154.044L230.286 153.337C229.859 153.329 229.377 153.261 228.99 153.155C228.511 153.02 228.385 152.883 228.388 152.825L228.448 150.866Z" fill="#E9EEF1"/>
<path d="M249.098 109.849C249.927 108.739 250.956 107.766 252.232 107.137L252.315 107.091L252.29 107.018C252.258 106.924 252.242 106.876 247.555 107.935L247.518 107.943L247.5 107.976C247.465 108.037 244.031 114.14 245.727 118.13L245.85 118.421L245.89 118.107C245.898 118.056 246.307 115.005 247.776 112.029C247.699 112.237 247.621 112.455 247.548 112.683C247.088 114.105 246.681 116.135 247.362 117.734L247.485 118.026L247.525 117.712C247.533 117.648 248.382 111.307 252.355 109.35L252.436 109.307L252.411 109.233C252.378 109.139 252.368 109.109 249.098 109.849ZM245.77 117.767C244.446 114.011 247.367 108.572 247.631 108.098C248.985 107.791 250.866 107.375 251.733 107.208C250.565 107.877 249.618 108.835 248.847 109.907C248.821 109.912 248.799 109.918 248.774 109.923L248.736 109.93L248.718 109.963C248.716 109.968 248.6 110.171 248.432 110.516C246.624 113.352 245.943 116.728 245.77 117.767ZM247.405 117.367C246.629 115.02 247.97 111.849 248.583 110.594C248.698 110.414 248.819 110.237 248.942 110.062C249.906 109.844 251.172 109.565 251.851 109.428C248.656 111.352 247.628 116.087 247.405 117.367Z" fill="#E9EEF1"/>
<path d="M215.76 25.3327L215.547 25.3398L216.331 49.1007L216.545 49.0935L215.76 25.3327Z" fill="#E9EEF1"/>
<path d="M219.566 24.1934L219.353 24.1992L220.083 51.289L220.296 51.2831L219.566 24.1934Z" fill="#E9EEF1"/>
<path d="M223.59 24.896L223.377 24.9023L224.13 50.6619L224.344 50.6556L223.59 24.896Z" fill="#E9EEF1"/>
<path d="M227.269 25.9694L227.056 25.9766L227.84 49.7374L228.054 49.7302L227.269 25.9694Z" fill="#E9EEF1"/>
<path d="M242.77 133.01L242.733 135.326L245.029 135.363L245.065 133.047L242.77 133.01Z" fill="#E9EEF1"/>
<path d="M211.986 24.0684L211.772 24.0742L212.503 51.164L212.716 51.1581L211.986 24.0684Z" fill="#E9EEF1"/>
<path d="M208.605 26.487L208.392 26.4941L209.176 50.255L209.39 50.2478L208.605 26.487Z" fill="#E9EEF1"/>
</g>
</g>
<defs>
<clipPath id="clip0_5737_5523">
<rect width="315" height="240" fill="white"/>
</clipPath>
<clipPath id="clip1_5737_5523">
<rect width="219" height="215" fill="white" transform="translate(109 12)"/>
</clipPath>
</defs>
</svg>
