<svg width="28" height="28" viewBox="0 0 28 28" fill="none" xmlns="http://www.w3.org/2000/svg">
<path d="M23.3333 7.87492C24.1842 7.87492 25.0003 7.5369 25.602 6.93522C26.2036 6.33354 26.5417 5.51749 26.5417 4.66659C26.5417 3.81568 26.2036 2.99963 25.602 2.39795C25.0003 1.79627 24.1842 1.45825 23.3333 1.45825C22.4824 1.45825 21.6664 1.79627 21.0647 2.39795C20.463 2.99963 20.125 3.81568 20.125 4.66659C20.125 5.51749 20.463 6.33354 21.0647 6.93522C21.6664 7.5369 22.4824 7.87492 23.3333 7.87492Z" fill="url(#paint0_linear_1662_9338)"/>
<path d="M25.4252 6.75844C24.8704 7.31324 24.1179 7.62492 23.3333 7.62492C22.5487 7.62492 21.7963 7.31324 21.2415 6.75844C20.6867 6.20365 20.375 5.45118 20.375 4.66659C20.375 3.88199 20.6867 3.12952 21.2415 2.57473C21.7963 2.01993 22.5487 1.70825 23.3333 1.70825C24.1179 1.70825 24.8704 2.01993 25.4252 2.57473C25.98 3.12952 26.2917 3.88199 26.2917 4.66659C26.2917 5.45118 25.98 6.20365 25.4252 6.75844Z" stroke="white" stroke-opacity="0.2" stroke-width="0.5"/>
<path d="M22.2135 9.50827C21.3049 9.30285 20.4732 8.84425 19.8145 8.18559C19.1558 7.52693 18.6973 6.69515 18.4918 5.7866C18.3402 5.07493 18.3285 4.3866 18.4568 3.73327C18.4939 3.56443 18.4926 3.3894 18.4529 3.22116C18.4132 3.05291 18.3361 2.89575 18.2274 2.76131C18.1188 2.62687 17.9813 2.51859 17.8251 2.4445C17.6689 2.3704 17.498 2.33239 17.3252 2.33327H8.16683C4.94683 2.33327 2.3335 4.9466 2.3335 8.1666V16.2749C2.3335 19.4949 4.94683 22.1083 8.16683 22.1083H9.91683C10.2435 22.1083 10.6635 22.3183 10.8502 22.5749L12.6002 24.8966C13.3702 25.9233 14.6302 25.9233 15.4002 24.8966L17.1502 22.5749C17.2588 22.43 17.3998 22.3124 17.5617 22.2314C17.7237 22.1504 17.9024 22.1083 18.0835 22.1083H19.8452C23.0652 22.1083 25.6668 19.5066 25.6668 16.2866V10.6749C25.6668 9.93993 24.9902 9.40327 24.2668 9.54327C23.6135 9.65993 22.9252 9.65993 22.2135 9.50827ZM9.3335 13.9999C8.68016 13.9999 8.16683 13.4749 8.16683 12.8333C8.16683 12.1916 8.68016 11.6666 9.3335 11.6666C9.97516 11.6666 10.5002 12.1916 10.5002 12.8333C10.5002 13.4749 9.98683 13.9999 9.3335 13.9999ZM14.0002 13.9999C13.3468 13.9999 12.8335 13.4749 12.8335 12.8333C12.8335 12.1916 13.3468 11.6666 14.0002 11.6666C14.6418 11.6666 15.1668 12.1916 15.1668 12.8333C15.1668 13.4749 14.6535 13.9999 14.0002 13.9999ZM18.6668 13.9999C18.0135 13.9999 17.5002 13.4749 17.5002 12.8333C17.5002 12.1916 18.0135 11.6666 18.6668 11.6666C19.3085 11.6666 19.8335 12.1916 19.8335 12.8333C19.8335 13.4749 19.3202 13.9999 18.6668 13.9999Z" fill="url(#paint1_linear_1662_9338)"/>
<path d="M22.1584 9.75211L22.1584 9.75213L22.1614 9.75278C22.9059 9.91145 23.6269 9.91149 24.3108 9.78937L24.3108 9.7894L24.3143 9.78871C24.8901 9.67727 25.4168 10.1038 25.4168 10.6749V16.2866C25.4168 19.3685 22.9271 21.8583 19.8452 21.8583H18.0835C17.8636 21.8583 17.6467 21.9095 17.4499 22.0078L17.5617 22.2314L17.4499 22.0078C17.2532 22.1062 17.0821 22.249 16.9502 22.4249L15.2005 24.7461L15.2002 24.7466C14.8554 25.2062 14.4181 25.4166 14.0002 25.4166C13.5822 25.4166 13.1449 25.2062 12.8002 24.7466L12.7998 24.7461L11.051 22.4261C10.9275 22.2571 10.7406 22.1181 10.5478 22.0217C10.3539 21.9248 10.1288 21.8583 9.91683 21.8583H8.16683C5.0849 21.8583 2.5835 19.3569 2.5835 16.2749V8.1666C2.5835 5.08467 5.0849 2.58327 8.16683 2.58327L17.3252 2.58327L17.3264 2.58326C17.4618 2.58258 17.5956 2.61235 17.7179 2.67037C17.8402 2.72839 17.9479 2.81319 18.033 2.91847C18.1181 3.02375 18.1785 3.14682 18.2095 3.27858L18.4529 3.22116L18.2095 3.27858C18.2406 3.41033 18.2417 3.5474 18.2127 3.67962L18.2126 3.67961L18.2115 3.68508C18.0761 4.3745 18.0893 5.09707 18.2473 5.83871L18.2473 5.83871L18.248 5.84173C18.4638 6.79636 18.9457 7.67031 19.6377 8.36237C20.3298 9.05442 21.2037 9.53627 22.1584 9.75211ZM7.91683 12.8333C7.91683 13.6114 8.54046 14.2499 9.3335 14.2499C10.1265 14.2499 10.7502 13.6114 10.7502 12.8333C10.7502 12.0535 10.1132 11.4166 9.3335 11.4166C8.54046 11.4166 7.91683 12.0552 7.91683 12.8333ZM12.5835 12.8333C12.5835 13.6114 13.2071 14.2499 14.0002 14.2499C14.7932 14.2499 15.4168 13.6114 15.4168 12.8333C15.4168 12.0535 14.7799 11.4166 14.0002 11.4166C13.2071 11.4166 12.5835 12.0552 12.5835 12.8333ZM17.2502 12.8333C17.2502 13.6114 17.8738 14.2499 18.6668 14.2499C19.4599 14.2499 20.0835 13.6114 20.0835 12.8333C20.0835 12.0535 19.4466 11.4166 18.6668 11.4166C17.8738 11.4166 17.2502 12.0552 17.2502 12.8333Z" stroke="white" stroke-opacity="0.2" stroke-width="0.5"/>
<defs>
<linearGradient id="paint0_linear_1662_9338" x1="23.3333" y1="1.45825" x2="23.3333" y2="7.87492" gradientUnits="userSpaceOnUse">
<stop stop-color="#80C9FF"/>
<stop offset="1" stop-color="#5ABAFF"/>
</linearGradient>
<linearGradient id="paint1_linear_1662_9338" x1="14.0002" y1="2.33325" x2="14.0002" y2="25.6666" gradientUnits="userSpaceOnUse">
<stop stop-color="#80C9FF"/>
<stop offset="1" stop-color="#5ABAFF"/>
</linearGradient>
</defs>
</svg>
