<svg width="786" height="536" viewBox="0 0 786 536" fill="none" xmlns="http://www.w3.org/2000/svg">
<path d="M450.385 248.813L443.268 244.231L403.89 266.63L351.863 296.226L360.562 301.918L450.385 248.813ZM443.251 244.888L449.309 248.79L360.579 301.25L352.951 296.26L443.251 244.888Z" fill="#E9EEF1"/>
<path d="M390.137 321.196L397.73 325.777L420.233 312.746L421.576 311.97L422.919 311.194L426.92 308.878L427.77 308.385L428.62 307.893L488.347 273.307L484.709 270.934L481.071 268.561L435.607 294.873L390.137 321.196ZM487.259 273.278L428.047 307.564L427.197 308.057L426.347 308.55L423.383 310.266L422.04 311.041L420.697 311.817L397.736 325.115L391.253 321.201L481.054 269.229L487.259 273.278Z" fill="#E9EEF1"/>
<path d="M760.622 25.6155L751.464 21.8777C751.43 21.8663 751.402 21.855 751.368 21.8437C747.118 16.6561 740.93 11.9838 733.591 8.90298L722.405 4.20808C714.149 0.742117 705.586 -0.169679 698.911 1.70488C697.755 2.02769 690.065 4.27604 685.282 7.83827C682.251 9.72982 680.194 12.3973 679.298 15.6367L671.699 43.1095L647.491 29.7214C647.23 29.5798 646.918 29.5798 646.663 29.727L538.366 90.9024C538.327 90.925 538.298 90.9533 538.264 90.976C538.242 90.993 538.213 91.01 538.191 91.0269C538.151 91.0666 538.123 91.1062 538.089 91.1515C538.077 91.1685 538.06 91.1799 538.055 91.1968C538.015 91.2591 537.987 91.3271 537.964 91.4007C537.958 91.412 537.958 91.429 537.958 91.4404C537.947 91.497 537.93 91.5536 537.93 91.6159V91.6216C537.93 91.6216 537.93 91.6216 537.93 91.6273L536.876 168.445C536.87 168.739 537.023 169.017 537.273 169.175L547.615 175.711L331.525 299.37C326.958 268.114 312.536 239.27 289.778 216.532C261.847 188.617 224.707 173.242 185.204 173.242C145.701 173.242 108.567 188.617 80.6302 216.532C52.6988 244.447 37.3136 281.564 37.3136 321.043C37.3136 323.535 37.376 326.016 37.495 328.485C35.9819 328.53 34.6673 328.825 33.5849 329.391C33.1259 329.629 24.2008 334.369 22.8408 340.247C22.2684 342.196 22.3761 345.033 24.0705 349.184L26.1672 354.598C19.5881 352.922 12.533 354.542 7.28559 359.186C0.893516 364.838 -1.39585 373.684 1.46586 381.726L33.6359 470.731L34.6503 495.661L103.546 534.647L104.385 535.123L105.246 534.613L225.359 463.346C249.476 456.589 271.582 443.728 289.784 425.543C290.118 425.209 290.435 424.875 290.764 424.541L373.946 375.185L339.396 467.769C338.54 470.068 338.625 472.56 339.645 474.791C340.665 477.023 342.496 478.722 344.791 479.582C345.822 479.968 346.904 480.166 347.998 480.166C351.812 480.166 355.274 477.764 356.612 474.191L361.27 461.715L410.854 480.8L405.3 495.689C403.532 500.435 405.952 505.736 410.701 507.503C411.732 507.888 412.814 508.086 413.914 508.086C417.727 508.086 421.19 505.685 422.527 502.111L467.153 382.53C467.317 382.088 467.493 381.652 467.674 381.227L478.146 404.441C480.226 409.057 485.677 411.118 490.301 409.04C493.016 407.817 494.84 405.427 495.464 402.725L537.409 417.626L544.05 432.35C546.13 436.966 551.581 439.027 556.205 436.949C560.824 434.87 562.886 429.422 560.807 424.801L537.528 373.197C529.634 355.691 512.945 345.101 493.837 345.316L478.356 336.436C478.645 335.196 478.803 333.888 478.803 332.528C478.803 325.347 474.44 319.44 468.904 318.863L777.123 135.988L777.537 135.739V110.679L777.525 110.577C777.531 110.537 777.548 110.503 777.548 110.458L777.605 109.778L777.055 109.597L772.329 106.697L785.176 60.9037C788.791 47.9686 778.239 32.8022 760.622 25.6155ZM699.364 3.33592C705.677 1.56896 713.831 2.45244 721.742 5.77115L732.928 10.4661C738.935 12.9862 744.143 16.5938 748.075 20.6487C748.495 21.0791 748.903 21.5152 749.294 21.957C749.685 22.3987 750.053 22.8461 750.41 23.2935C754.802 28.7983 756.831 34.8297 755.408 39.972L754.864 42.0051L754.637 42.849L754.416 43.6645L742.409 88.3369L742.176 89.192L741.944 90.0472L732.05 126.859L732.384 102.303L736.668 86.8134L736.906 85.9639L737.144 85.1144L748.404 44.4007C748.676 43.421 748.829 42.4186 748.88 41.3935C748.897 41.0933 748.897 40.7875 748.897 40.4817C748.891 40.1702 748.88 39.8587 748.857 39.5473C748.41 33.0288 744.001 25.9213 737.099 20.207C736.731 19.9012 736.351 19.5953 735.966 19.3009C735.592 19.012 735.206 18.7232 734.815 18.44C731.863 16.288 728.542 14.3907 724.938 12.8843L713.752 8.1894C707.156 5.42569 700.492 4.31002 694.723 4.86502C696.264 4.27604 697.84 3.76634 699.364 3.33592ZM743.916 89.26L755.969 44.4064C763.789 48.433 767.212 54.3682 766.821 55.7501L755.436 96.3335L743.916 89.26ZM754.966 98.0325L746.993 126.445L731.936 135.382L731.959 133.757L743.457 90.976L754.966 98.0325ZM680.528 17.5565L680.936 16.0841C681.253 14.9401 681.741 13.881 682.381 12.9126C683.293 11.5251 684.529 10.3301 686.059 9.35038C686.552 9.03323 687.073 8.73874 687.628 8.4669C694.145 5.30676 703.665 5.78248 713.1 9.74115L724.286 14.4361C727.035 15.5914 729.619 16.9732 731.988 18.5193C732.384 18.7798 732.775 19.0403 733.155 19.3065C733.534 19.5727 733.909 19.8445 734.277 20.1164C741.536 25.5079 746.353 32.4511 747.106 38.8167C747.146 39.1338 747.169 39.451 747.186 39.7681C747.203 40.0796 747.208 40.3854 747.203 40.6913C747.191 41.8013 747.05 42.883 746.761 43.9307L735.631 84.1743L735.393 85.0238L735.155 85.8733L732.469 95.5803L732.622 84.3216L732.634 83.3305L732.645 82.3394L732.713 77.3896C732.719 76.9252 732.486 76.5062 732.095 76.2626C731.868 76.1267 731.614 76.0701 731.353 76.0814L720.932 70.3161L720.167 69.8914L719.402 69.4666L705.337 61.6909L704.572 61.2661L703.807 60.8414L676.3 45.6297L675.524 45.1993L674.748 44.7689L673.212 43.9194L680.528 17.5565ZM597.335 129.662L596.326 204.497L558.41 180.53L559.413 105.689L597.335 129.662ZM597.896 130.019L611.943 138.899L612.754 139.414L613.564 139.93L619.299 143.554L618.942 169.815L618.494 202.697L618.483 203.693L618.471 204.69L618.284 218.378L607.206 211.373L606.401 210.863L605.597 210.353L596.898 204.854L597.896 130.019ZM615.241 138.973L614.629 138.588L614.425 138.457L614.278 138.367L598.128 128.156L705.949 63.9845L718.948 71.1713L719.713 71.5961L720.478 72.0208L729.517 77.0159L726.695 78.6979L726.355 78.9017L725.493 79.4114L716.891 84.5311L701.654 93.5981L694.372 97.9305L662.967 116.62L620.171 142.088L615.241 138.973ZM620.177 203.665L620.188 202.668L620.2 201.671L620.993 143.571L633.692 136.011L660.099 120.295L709.298 91.01L714.035 88.1896L714.302 88.031L715.248 87.4704L715.497 87.3231L723.408 82.6169L726.995 80.4818L728.315 79.6946L731.007 78.0919L730.962 81.32L730.951 82.3111L730.939 83.3022L730.684 102.065L730.639 105.417L730.593 108.77L730.253 133.525L730.225 135.518L730.214 136.402V136.436L730.203 137.398L730.191 138.395L729.993 152.972L713.814 162.594L634.967 209.487L619.973 218.401L620.177 203.665ZM672.73 45.6127L699.177 60.2354L704.731 63.3049L704.883 63.3899L705.376 63.6617L597.595 127.81L585.848 120.38L559.974 104.024L668.004 42.9906L671.291 44.8085L672.73 45.6127ZM581.995 68.2037L582.561 67.8866L594.615 61.0792L647.083 31.4374L667.421 42.6847L559.43 103.69L540.44 91.6839L581.995 68.2037ZM538.587 167.992L539.613 93.1677L558.852 105.333L557.849 180.173L550.913 175.79L550.102 175.275L549.292 174.759L538.587 167.992ZM331.769 301.188L549.241 176.741L603.948 211.327L514.799 264.223L435.005 311.563L434.167 312.061L433.328 312.559L424.986 317.509L423.303 318.512L421.462 319.605L417.501 321.955L416.141 322.759L414.781 323.563L391.949 337.11L390.142 338.186L388.476 339.171L321.313 379.019C323.076 374.884 324.651 370.677 326.023 366.389C326.057 366.395 326.091 366.406 326.125 366.412L326.244 365.857C326.227 365.851 326.21 365.846 326.193 365.846C330.726 351.54 333.089 336.47 333.089 321.037C333.095 314.343 332.641 307.717 331.769 301.188ZM330.465 337.535C326.669 335.666 314.23 329.119 312.49 322.81C312.252 321.955 312.303 321.4 312.638 321.156C314.536 319.769 324.124 326.061 328.731 329.079C329.729 329.731 330.516 330.252 331.077 330.597C330.93 332.919 330.726 335.235 330.465 337.535ZM331.395 321.037C331.395 324.022 331.293 326.995 331.117 329.952C330.573 329.606 329.853 329.136 329.043 328.604C322.016 323.999 314.343 319.208 312.303 320.698C311.759 321.094 311.64 321.853 311.946 322.957C312.842 326.197 316.383 329.81 322.475 333.706C325.739 335.79 328.89 337.399 330.403 338.135C330.035 341.318 329.564 344.472 328.992 347.604C324.6 344.999 305.651 333.582 293.331 323.19C293.099 322.991 292.872 322.799 292.645 322.606C292.419 322.408 292.186 322.215 291.965 322.017C286.253 317.028 282.281 312.361 282.468 309.15C282.547 307.78 283.397 306.755 285.063 306.03C290.86 303.509 299.808 304.954 312.184 310.447C312.502 310.589 312.819 310.73 313.142 310.877C313.459 311.019 313.771 311.166 314.094 311.314C319.279 313.72 325.042 316.801 331.395 320.562C331.389 320.715 331.395 320.879 331.395 321.037ZM280.655 210.37C279.204 210.359 277.685 210.314 276.042 210.223C260.016 209.357 247.98 205.562 239.248 198.619C234.635 194.949 230.85 190.299 227.189 185.803C225.642 183.9 224.055 181.946 222.809 179.8C244.048 185.412 263.768 195.776 280.655 210.37ZM222.044 179.601C223.347 181.98 225.07 184.104 226.747 186.165C230.43 190.685 234.233 195.357 238.896 199.066C247.72 206.083 259.863 209.923 276.008 210.789C277.906 210.891 279.652 210.942 281.301 210.942C283.788 213.117 286.214 215.377 288.571 217.733C302.035 231.189 312.541 246.82 319.783 263.821C309.255 257.886 297.808 252.551 288.565 248.241C280.349 244.413 271.854 240.454 262.793 238.579C255.857 237.141 248.791 236.954 241.786 238.019L241.135 238.121C239.163 238.426 237.123 238.749 235.23 238.228C233.91 237.866 232.816 237.045 231.66 236.172C231.184 235.816 230.697 235.448 230.192 235.113C218.117 227.168 203.417 213.893 201.938 195.782L201.921 195.555C201.762 193.647 201.598 191.67 201.876 189.756C202.306 186.771 203.338 184.755 204.329 182.801C205.253 180.989 206.211 179.12 206.664 176.498C211.866 177.257 216.995 178.299 222.044 179.601ZM206.103 176.419C205.667 178.928 204.771 180.689 203.825 182.541C202.811 184.534 201.757 186.59 201.315 189.671C201.031 191.653 201.196 193.658 201.36 195.6L201.377 195.827C202.873 214.165 217.703 227.57 229.881 235.583C230.368 235.906 230.85 236.269 231.32 236.62C232.465 237.486 233.655 238.381 235.077 238.772C237.089 239.321 239.191 238.993 241.22 238.676L241.871 238.574C248.808 237.52 255.812 237.707 262.68 239.129C271.679 240.992 280.139 244.934 288.327 248.751C297.751 253.14 309.464 258.605 320.152 264.676C324.3 274.598 327.343 284.985 329.207 295.683C328.68 295.179 328.187 294.709 327.728 294.267C322.94 289.674 321.149 287.958 314.168 283.405C307.861 279.287 300.942 276.037 294.243 272.893C279.142 265.803 263.524 258.469 247.17 253.831C245.889 253.468 244.597 253.117 243.311 252.772C237.321 251.152 231.122 249.476 225.778 246.242C223.761 245.019 221.84 243.563 219.981 242.153C217.737 240.448 215.413 238.681 212.886 237.316C211.617 236.631 210.274 236.025 208.97 235.442C206.148 234.179 203.23 232.871 201.06 230.673C198.64 228.221 197.354 224.885 196.113 221.657C195.637 220.423 195.144 219.143 194.594 217.925C193.682 215.915 192.56 213.961 191.472 212.075C189.726 209.039 187.918 205.902 187.006 202.493C184.133 191.755 187.941 184.596 194.254 175.241C198.243 175.467 202.193 175.864 206.103 176.419ZM166.583 176.113C165.767 183.56 167.343 191.104 171.06 197.43C171.253 197.758 171.451 198.081 171.644 198.404C172.443 199.718 173.27 201.071 173.667 202.549C174.08 204.101 174.018 206.355 172.465 207.624C171.117 208.722 169.037 208.779 166.102 207.782C158.298 205.137 151.215 200.544 145.616 194.507C144.228 193.012 142.517 190.99 141.604 188.606C140.924 186.834 140.686 184.885 140.46 183.005C140.414 182.648 140.369 182.292 140.324 181.935C148.829 179.199 157.607 177.245 166.583 176.113ZM139.774 182.105C139.814 182.427 139.859 182.745 139.899 183.067C140.131 184.982 140.369 186.964 141.077 188.804C142.024 191.279 143.78 193.358 145.203 194.887C150.869 200.992 158.032 205.636 165.92 208.315C167.377 208.807 168.64 209.056 169.728 209.056C170.992 209.056 172.018 208.728 172.828 208.065C174.59 206.627 174.675 204.118 174.216 202.402C173.797 200.845 172.947 199.457 172.131 198.109C171.933 197.786 171.74 197.469 171.547 197.141C167.87 190.883 166.323 183.407 167.161 176.034C173.106 175.309 179.129 174.941 185.21 174.941C188.026 174.941 190.826 175.031 193.614 175.184C187.323 184.534 183.572 191.766 186.473 202.623C187.403 206.106 189.233 209.277 190.996 212.341C192.078 214.216 193.194 216.153 194.09 218.14C194.634 219.341 195.121 220.615 195.597 221.844C196.861 225.129 198.164 228.521 200.669 231.058C202.913 233.329 205.882 234.66 208.749 235.946C210.041 236.524 211.379 237.124 212.625 237.803C215.113 239.151 217.42 240.901 219.647 242.595C221.517 244.016 223.449 245.483 225.489 246.718C230.906 249.991 237.14 251.679 243.169 253.31C244.456 253.661 245.742 254.006 247.023 254.369C263.331 258.996 278.926 266.318 294.005 273.398C300.681 276.535 307.583 279.774 313.856 283.869C320.786 288.394 322.571 290.099 327.332 294.663C327.949 295.258 328.624 295.898 329.36 296.6C329.564 297.823 329.751 299.047 329.927 300.276C329.972 300.576 330.006 300.882 330.052 301.182C330.091 301.482 330.137 301.788 330.176 302.088C330.505 304.631 330.771 307.185 330.964 309.756C328.896 308.227 326.81 306.715 324.714 305.214C324.458 305.033 324.203 304.852 323.948 304.67C323.693 304.489 323.438 304.308 323.183 304.127C296.187 285.036 266.425 268.567 236.494 256.209C235.332 255.728 234.012 255.184 232.612 255.15C230.714 255.105 228.997 256.028 227.739 257.744C226.078 260.026 225.568 263.294 226.469 265.882C228.101 270.555 232.731 273.652 236.108 275.918L257.495 290.252C264.912 295.224 272.313 300.757 274.172 308.839C274.54 310.441 274.484 311.614 274.002 312.52C272.733 314.893 269.23 314.61 266.51 313.958C234.533 306.296 201.088 294.018 161.257 275.312C152.773 271.33 144.183 266.76 140.426 258.65C139.224 256.056 137.791 249.849 139.451 247.72C145.854 239.463 161.387 246.197 173.865 251.611C180.773 254.607 186.711 257.2 190.361 257.048C193.823 256.906 196.056 255.904 197.008 254.063C199.088 250.042 194.52 243.019 191.795 238.823L191.375 238.172C182.195 223.968 153.357 213.327 127.919 203.937C121 201.383 114.444 198.959 108.545 196.569C118.365 190.52 128.837 185.667 139.774 182.105ZM81.8372 217.733C89.8273 209.747 98.588 202.804 107.944 196.96C113.945 199.4 120.643 201.875 127.721 204.486C153.079 213.848 181.821 224.455 190.899 238.5L191.319 239.151C193.976 243.246 198.43 250.093 196.504 253.819C195.654 255.462 193.58 256.368 190.333 256.498C186.842 256.634 180.931 254.074 174.086 251.107C161.426 245.619 145.679 238.783 138.998 247.386C137.179 249.73 138.624 256.13 139.91 258.905C143.746 267.191 152.439 271.812 161.018 275.838C200.89 294.561 234.369 306.851 266.386 314.525C267.496 314.791 268.737 314.995 269.922 314.995C271.837 314.995 273.622 314.462 274.506 312.803C275.237 311.444 274.982 309.824 274.733 308.725C272.829 300.44 265.332 294.828 257.818 289.793L236.431 275.459C232.136 272.582 228.464 269.864 227.013 265.707C226.169 263.288 226.645 260.225 228.203 258.09C229.342 256.521 230.918 255.677 232.601 255.728C233.898 255.762 235.162 256.283 236.278 256.742C266.097 269.048 295.739 285.443 322.645 304.444C322.9 304.625 323.155 304.806 323.41 304.988C323.665 305.169 323.92 305.35 324.175 305.531C326.476 307.174 328.765 308.827 331.026 310.504C331.247 313.613 331.366 316.739 331.389 319.882C325.292 316.28 319.732 313.307 314.695 310.957C314.377 310.81 314.06 310.668 313.748 310.521C313.431 310.373 313.108 310.226 312.796 310.085C300.058 304.387 290.832 302.887 284.842 305.497C282.984 306.307 281.998 307.519 281.907 309.105C281.714 312.469 285.698 317.237 291.444 322.306C291.665 322.504 291.892 322.703 292.124 322.895C292.351 323.088 292.577 323.286 292.81 323.484C305.339 334.148 324.714 345.73 328.896 348.193C327.802 354.043 326.357 359.797 324.566 365.427C314.457 362.612 305.741 355.012 296.544 346.987C290.469 341.686 284.27 336.277 277.521 332.234C277.238 332.064 276.96 331.9 276.677 331.736C276.393 331.571 276.104 331.407 275.815 331.248C271.656 328.938 267.281 327.165 262.595 326.282C243.458 322.657 234.828 316.983 228.532 312.837C226.645 311.597 225.019 310.526 223.404 309.716C222.225 309.128 219.675 308.267 216.145 307.072C198.351 301.063 156.689 286.99 125.454 254.465C103.376 231.478 84.6535 227.315 72.3511 228.165C75.3148 224.574 78.4825 221.085 81.8372 217.733ZM71.8297 228.793C93.3236 227.004 112.585 241.915 125.029 254.873C156.36 287.499 198.113 301.601 215.946 307.621C219.454 308.805 221.987 309.66 223.132 310.232C224.713 311.025 226.328 312.084 228.198 313.318C234.533 317.492 243.215 323.207 262.464 326.848C266.969 327.703 271.191 329.385 275.215 331.588C275.504 331.747 275.793 331.905 276.082 332.07C276.365 332.234 276.648 332.398 276.926 332.562C283.743 336.6 290.005 342.065 296.142 347.417C305.384 355.482 314.145 363.116 324.368 365.97C322.775 370.909 320.928 375.757 318.814 380.491C318.803 380.519 318.786 380.553 318.769 380.582C318.469 380.791 318.083 381.012 317.596 381.21C317.092 381.414 316.491 381.601 315.76 381.726C309.334 382.841 292.742 379.574 253.347 346.052C253.12 345.86 252.888 345.662 252.661 345.469C252.434 345.277 252.202 345.078 251.975 344.88C251.431 344.416 250.887 343.946 250.332 343.47C216.014 313.794 204.958 311.093 192.157 307.966C182.49 305.605 171.53 302.926 148.325 287.618C130.39 275.787 119.668 265.763 111.055 257.71C96.3384 243.954 88.7959 236.914 64.293 238.851C66.6617 235.408 69.1664 232.05 71.8297 228.793ZM63.8963 239.452C88.5069 237.413 95.9984 244.396 110.687 258.124C119.317 266.194 130.061 276.235 148.03 288.094C171.321 303.458 182.331 306.149 192.044 308.522C204.771 311.631 215.765 314.315 249.981 343.9C250.468 344.319 250.961 344.75 251.471 345.18C251.698 345.373 251.924 345.571 252.157 345.769C252.383 345.962 252.616 346.16 252.842 346.353C270.222 361.128 298.006 382.485 313.448 382.485C314.264 382.485 315.04 382.422 315.783 382.298C315.811 382.292 315.845 382.292 315.873 382.286C316.922 382.105 317.738 381.811 318.367 381.494C318.31 381.612 318.259 381.731 318.202 381.85C317.993 382.303 317.794 382.756 317.579 383.21C311.861 395.346 304.432 406.718 295.422 417.02C293.881 410.796 291.869 405.081 289.415 399.922C289.291 399.667 289.172 399.407 289.047 399.152C288.922 398.897 288.792 398.642 288.667 398.393C286.69 394.463 284.446 390.866 281.935 387.627C274.285 377.75 264.153 371.118 251.817 367.907C243.685 365.789 235.836 363.303 228.232 360.437C227.886 360.307 227.54 360.177 227.2 360.047C226.86 359.916 226.52 359.786 226.18 359.65C205.922 351.789 187.425 341.188 170.148 327.567C149.373 311.195 133.903 293.157 121.476 278.664C116.455 272.809 111.712 267.281 107.286 262.637C95.29 250.048 79.4005 244.282 60.0202 245.494C61.2556 243.456 62.5533 241.439 63.8963 239.452ZM47.7914 270.996C64.582 262.003 76.8448 260.695 84.2342 267.134C90.7736 272.831 93.522 278.223 92.1903 282.725C90.6603 287.901 83.9565 291.588 73.3144 293.106C61.1763 294.839 48.1654 303.793 39.0987 316.586C39.5633 300.814 42.5214 285.466 47.7914 270.996ZM34.3783 330.897C35.2509 330.444 36.339 330.201 37.6083 330.167C37.886 330.161 38.1693 330.155 38.464 330.172C38.7416 330.184 39.025 330.206 39.314 330.235C42.816 330.58 47.3551 332.16 52.5118 334.901L54.9372 336.187L55.4359 336.453L64.3383 341.182C67.1037 342.649 69.614 343.917 72.0394 345.146C72.9971 345.628 73.9151 346.098 74.8104 346.551C74.9748 346.636 75.1391 346.721 75.3034 346.8C80.8568 349.649 85.2259 352.118 88.6599 355.476C88.8243 355.635 88.9829 355.793 89.1416 355.958C91.4536 358.336 93.3293 361.168 94.848 364.877L109.978 401.417L110.194 401.944L118.257 421.414L118.586 422.207L118.915 423L133.274 457.682L133.699 458.707L134.164 459.823L143.99 483.547L136.448 488.361L122.842 455.122L122.343 453.899L121.89 452.789L111.446 427.276L111.123 426.483L110.8 425.69L104.034 409.165L103.705 408.36L88.6089 371.486C87.4076 368.553 86.0079 366.146 84.3702 364.073C84.2115 363.869 84.0472 363.671 83.8829 363.473C81.2308 360.301 77.9781 357.928 73.9774 355.612C73.8131 355.516 73.6431 355.42 73.4731 355.323C70.9514 353.89 68.1407 352.469 64.9956 350.878C62.5759 349.654 60.0769 348.391 57.3229 346.93L51.4125 343.793L50.9138 343.527L45.5021 340.65C43.5867 339.63 41.7563 338.775 40.0167 338.073C39.7163 337.954 39.4217 337.841 39.1327 337.727C38.8323 337.614 38.532 337.501 38.2316 337.393C33.7663 335.802 30.0375 335.349 27.3175 336.068C30.2359 333.089 34.3103 330.931 34.3783 330.897ZM136.312 460.599C147.458 464.49 159.109 467.044 171.06 468.171L145.684 483.23L136.312 460.599ZM25.6572 348.556C25.1358 347.287 24.7675 346.115 24.5351 345.027C24.2121 343.538 24.1668 342.235 24.3878 341.154C24.5918 340.168 25.0111 339.358 25.6628 338.769C27.8728 336.77 32.4572 337.002 38.43 339.273C38.7303 339.387 39.0363 339.511 39.3423 339.636C39.6427 339.755 39.943 339.879 40.249 340.015C41.6713 340.627 43.156 341.335 44.6974 342.156L50.1261 345.039L50.6248 345.305L56.5182 348.437C59.2836 349.903 61.7939 351.172 64.2193 352.401C67.6137 354.117 70.6057 355.635 73.2577 357.181C73.4277 357.283 73.5977 357.379 73.7677 357.481C77.7968 359.877 80.9985 362.391 83.5485 365.851C83.7129 366.072 83.8772 366.299 84.0359 366.531C85.1579 368.162 86.1496 370.003 87.0222 372.138L103.019 411.22L103.427 412.211L109.298 426.551L109.621 427.344L109.944 428.137L119.583 451.679L120.042 452.801L120.552 454.046L134.096 487.132L134.356 487.772L131.053 486.016L125.216 482.918L117.328 478.727L116.574 476.785L116.013 475.346L115.452 473.908L104.096 444.685L103.546 443.269L103.019 441.921L99.8971 433.891L99.5854 433.092L99.2737 432.294L89.5496 407.267C87.7022 402.51 85.3846 397.991 82.6532 393.777C82.4605 393.477 82.2622 393.183 82.0638 392.888C79.3495 388.828 76.2498 385.05 72.7987 381.607C72.6117 381.426 72.4247 381.244 72.2377 381.057C66.7863 375.734 60.4963 371.237 53.5488 367.76L45.2867 363.631L44.295 363.133L43.2184 362.595L30.9952 356.484L30.3832 356.178C30.1849 356.077 29.9752 355.997 29.7712 355.901C29.3802 355.72 28.9835 355.55 28.5812 355.391C28.4679 355.346 28.3602 355.312 28.2469 355.267L27.1305 352.378L25.6572 348.556ZM134.589 489.81L124.066 496.057L118.274 481.146L134.589 489.81ZM34.8826 469.173L3.06954 381.154C0.445843 373.769 2.5482 365.648 8.41894 360.46C13.5587 355.918 20.5741 354.513 26.9435 356.586C27.3005 356.699 27.6518 356.835 28.0032 356.977C28.3715 357.119 28.7342 357.283 29.0969 357.447C29.2725 357.526 29.4482 357.6 29.6182 357.685L29.7145 357.736L30.9556 358.359L32.1966 358.982L43.887 364.809L44.9807 365.359L46.0064 365.868L52.7952 369.261C60.1109 372.914 66.6673 377.727 72.2661 383.464C72.4531 383.657 72.6457 383.849 72.8327 384.042C76.3574 387.735 79.4911 391.795 82.1715 396.173C82.3755 396.507 82.5795 396.841 82.7835 397.181C84.7895 400.573 86.5292 404.141 87.9743 407.868L97.789 433.132L98.1007 433.936L98.4124 434.735L100.526 440.171L101.064 441.559L101.631 443.014L112.936 472.118L113.497 473.557L114.058 474.995L115.033 477.504L115.503 478.716L115.974 479.928L122.581 496.941L122.893 497.745L123.204 498.549L126.293 506.5C127.046 508.448 127.001 510.572 126.157 512.481C125.312 514.389 123.777 515.862 121.833 516.615C120.921 516.966 119.969 517.147 119.005 517.147C115.753 517.147 112.891 515.188 111.712 512.158L109.565 506.636L109.253 505.832L108.941 505.028L94.8253 468.692L94.355 467.48L93.8847 466.268L90.887 458.543L90.3259 457.105L89.7649 455.666L84.6819 442.584L84.3702 441.785L84.0585 440.987L76.3008 421.024L75.4338 418.798L74.7028 416.912L74.5554 416.527L73.9604 414.992L73.3881 413.525C69.784 404.243 63.8566 396.179 56.2519 390.006C55.7362 389.586 55.2205 389.167 54.6878 388.771C54.1608 388.375 53.6225 387.995 53.0842 387.616C50.7778 385.996 48.3468 384.529 45.7911 383.255L43.3204 382.02L42.0794 381.397L40.8383 380.774L37.4836 379.098L36.3559 378.532L35.2283 377.965L22.6311 371.673C22.0928 371.407 21.5544 371.271 21.0274 371.271C20.2341 371.271 19.4691 371.577 18.7834 372.177C17.6501 373.18 17.3101 374.511 17.8144 375.926L48.0634 461.55L45.2584 463.187L34.9053 469.241L34.8826 469.173ZM38.396 381.448L42.0454 383.272L43.2864 383.895L44.5274 384.518L45.0317 384.767C48.5791 386.54 51.8828 388.68 54.9258 391.121C55.5719 391.642 56.2065 392.175 56.8299 392.718C57.5042 393.313 58.1672 393.925 58.8132 394.548C63.987 399.565 68.152 405.58 71.042 412.308C71.3027 412.914 71.5634 413.52 71.8014 414.143L72.1187 414.964L73.0764 417.427L82.5625 441.842L82.8742 442.641L83.1859 443.439L87.2432 453.882L87.8043 455.321L88.3653 456.759L91.584 465.05L67.642 452.336L66.7523 451.866L65.8626 451.396L65.381 451.141L38.396 381.448ZM64.1286 452.387L49.5708 460.718L19.4124 375.354C19.1404 374.59 19.2991 373.984 19.9054 373.44C20.5174 372.902 21.1351 372.823 21.8661 373.185L36.1349 380.316L63.919 452.042L64.0323 452.336L64.1286 452.387ZM36.3106 494.647L35.3869 471.824L102.543 509.825L102.793 515.935L103.473 532.648L36.3106 494.647ZM103.354 508.341L36.2936 470.391L46.0517 464.688L65.8966 453.333L92.5246 467.474L107.456 505.906L103.354 508.341ZM105.167 532.688L104.487 515.918L104.238 509.796L108.085 507.514L110.126 512.77C111.559 516.462 115.044 518.846 119.005 518.846C120.184 518.846 121.34 518.625 122.451 518.201C124.819 517.283 126.689 515.494 127.715 513.166C128.741 510.838 128.797 508.256 127.879 505.883L124.689 497.665L173.973 468.426C177.69 468.703 181.441 468.845 185.21 468.845C196.9 468.845 208.381 467.486 219.482 464.869L105.167 532.688ZM230.079 460.152C229.365 460.378 228.657 460.61 227.937 460.831C226.855 461.16 225.767 461.477 224.673 461.777C211.985 465.311 198.736 467.14 185.204 467.14C182.308 467.14 179.43 467.044 176.562 466.88C176.058 466.851 175.554 466.823 175.055 466.789C174.562 466.755 174.069 466.721 173.57 466.681C160.418 465.651 147.617 462.887 135.439 458.492L120.394 422.151L120.065 421.358L119.736 420.565L111.894 401.627C115.373 401.287 119.884 402.55 125.392 405.432C129.375 407.517 133.24 409.244 136.997 410.694C137.343 410.824 137.683 410.954 138.023 411.084C138.374 411.215 138.72 411.339 139.066 411.47C153.68 416.765 166.606 417.869 178.33 418.872C195.149 420.304 209.673 421.539 222.95 435.012C223.449 435.522 223.931 436.026 224.39 436.535C224.582 436.751 224.775 436.966 224.962 437.181C225.155 437.402 225.342 437.617 225.523 437.838C231.337 444.787 233.15 451.572 230.94 458.067C230.793 458.498 230.629 458.923 230.447 459.347C230.334 459.614 230.209 459.88 230.079 460.152ZM251.159 451.504C244.83 454.709 238.273 457.439 231.541 459.681C231.297 459.761 231.054 459.84 230.81 459.919C230.963 459.574 231.105 459.223 231.235 458.872C231.388 458.464 231.53 458.05 231.654 457.637C233.558 451.192 231.643 444.357 226.01 437.544C225.829 437.323 225.642 437.107 225.455 436.887C225.268 436.671 225.081 436.451 224.888 436.235C224.401 435.692 223.891 435.148 223.358 434.61C209.939 420.99 195.314 419.744 178.381 418.3C166.821 417.314 154.082 416.227 139.717 411.096C139.366 410.971 139.02 410.847 138.669 410.716C138.329 410.592 137.983 410.456 137.638 410.326C133.767 408.853 129.778 407.08 125.658 404.928C119.969 401.955 115.294 400.675 111.673 401.083L96.4177 364.237C95.0577 360.919 93.4427 358.268 91.5273 356.026C96.548 356.813 104.26 361.338 114.704 367.477C127.619 375.066 145.163 385.367 166.861 393.607C167.201 393.738 167.547 393.868 167.892 393.998C168.238 394.128 168.578 394.259 168.929 394.383C177.65 397.6 187.017 400.471 197.019 402.691C221.318 408.089 235.054 416.714 242.625 425.719C242.812 425.939 242.993 426.16 243.175 426.381C243.356 426.608 243.532 426.829 243.708 427.055C248.791 433.641 250.706 440.353 251.159 446.078C251.182 446.395 251.205 446.712 251.222 447.03C251.239 447.358 251.25 447.675 251.256 447.998C251.267 449.221 251.233 450.399 251.159 451.504ZM251.743 451.198C251.811 450.082 251.834 448.898 251.794 447.658C251.783 447.341 251.766 447.018 251.749 446.695C251.732 446.384 251.709 446.067 251.681 445.75C251.188 440.007 249.238 433.319 244.184 426.755C244.008 426.528 243.838 426.307 243.657 426.081C243.481 425.86 243.294 425.639 243.113 425.418C235.479 416.306 221.63 407.579 197.127 402.136C187.329 399.962 178.132 397.153 169.558 394.01C169.213 393.879 168.861 393.755 168.516 393.624C168.17 393.494 167.83 393.364 167.484 393.234C145.628 384.982 127.964 374.607 114.982 366.978C104.085 360.573 96.1344 355.907 90.9606 355.386C87.1526 351.2 82.1828 348.408 75.6491 345.073C77.6721 335.711 80.9645 328.434 86.1099 325.41C90.8983 322.595 97.058 323.722 104.408 328.779C106.935 330.512 109.661 333.933 113.118 338.254C123.918 351.784 142.131 374.584 184.796 383.328C185.215 383.413 185.646 383.498 186.071 383.578C186.496 383.663 186.915 383.748 187.346 383.827C197.682 385.764 209.407 386.891 222.752 386.891C236.811 386.891 247.113 390.889 253.369 398.778C256.832 403.144 259.081 408.678 260.118 415.315C260.164 415.615 260.209 415.915 260.254 416.221C260.294 416.527 260.334 416.833 260.373 417.139C261.201 424.07 260.781 432.146 259.115 441.327C259.047 441.695 258.985 442.063 258.911 442.437C258.843 442.805 258.764 443.179 258.69 443.552C258.407 444.985 258.09 446.446 257.744 447.93C255.772 449.08 253.772 450.161 251.743 451.198ZM258.418 447.556C258.758 446.073 259.064 444.611 259.348 443.179C259.421 442.805 259.495 442.431 259.563 442.063C259.631 441.689 259.699 441.327 259.761 440.958C261.382 431.812 261.762 423.759 260.9 416.838C260.861 416.533 260.827 416.227 260.781 415.921C260.736 415.615 260.691 415.315 260.64 415.015C259.569 408.372 257.296 402.833 253.811 398.433C247.442 390.402 236.992 386.33 222.752 386.33C209.724 386.33 198.255 385.254 188.111 383.391C187.68 383.311 187.25 383.232 186.825 383.147C186.4 383.068 185.969 382.983 185.55 382.898C142.619 374.278 124.366 351.433 113.56 337.897C110.075 333.536 107.326 330.087 104.731 328.309C97.1827 323.122 90.819 321.983 85.8209 324.923C80.5792 328.003 77.2245 335.371 75.1618 344.829C74.3968 344.438 73.6091 344.042 72.7987 343.634C70.379 342.411 67.88 341.148 65.126 339.687L56.2915 334.992C63.664 322.595 73.1217 310.685 84.1435 307.14C90.2183 305.186 96.378 305.956 102.453 309.439C113.854 315.969 121.482 323.88 129.551 332.257C145.078 348.363 161.103 364.991 205.859 371.288C206.318 371.351 206.772 371.418 207.236 371.481C207.695 371.543 208.166 371.6 208.63 371.662C210.387 371.889 212.183 372.098 214.025 372.291C235.655 374.556 251.89 383.011 262.283 397.424C265.02 401.225 267.338 405.398 269.225 409.935C269.332 410.201 269.446 410.461 269.553 410.728C269.661 410.994 269.763 411.266 269.865 411.532C272.279 417.745 273.923 424.603 274.778 432.061C274.812 432.367 274.846 432.679 274.88 432.99C274.914 433.302 274.954 433.608 274.982 433.919C275.056 434.684 275.113 435.459 275.169 436.235C269.831 440.404 264.232 444.181 258.418 447.556ZM289.699 423.198C289.325 423.583 288.956 423.969 288.577 424.348C288.14 424.784 287.698 425.203 287.256 425.634C286.344 426.523 285.42 427.401 284.491 428.261C281.646 430.895 278.717 433.409 275.708 435.788C275.651 435.046 275.589 434.31 275.521 433.585C275.492 433.273 275.453 432.968 275.419 432.656C275.385 432.345 275.351 432.039 275.317 431.727C274.444 424.28 272.789 417.433 270.364 411.22C270.262 410.954 270.16 410.682 270.052 410.416C269.944 410.15 269.831 409.889 269.724 409.623C267.819 405.081 265.496 400.89 262.748 397.073C252.259 382.524 235.887 373.99 214.087 371.707C212.506 371.543 210.959 371.368 209.446 371.175C208.976 371.118 208.517 371.056 208.052 370.994C207.588 370.931 207.123 370.869 206.664 370.807C161.546 364.617 145.497 347.967 129.959 331.843C121.861 323.439 114.211 315.499 102.736 308.929C96.5197 305.367 90.2013 304.58 83.9679 306.585C72.7817 310.181 63.2276 322.215 55.7929 334.709L53.3052 333.389C47.8084 330.467 43.003 328.819 39.2063 328.507C39.0816 326.021 39.0193 323.529 39.0193 321.026C39.0193 319.888 39.0363 318.749 39.059 317.611C48.0578 304.563 61.1763 295.4 73.3881 293.655C84.2625 292.104 91.1306 288.275 92.7286 282.872C94.1283 278.138 91.3176 272.542 84.6025 266.692C77.1055 260.157 64.82 261.335 48.0861 270.181C51.1858 261.822 55.0448 253.751 59.6519 246.078C79.0265 244.775 94.9103 250.472 106.873 263.022C111.287 267.655 116.03 273.182 121.045 279.027C133.489 293.536 148.982 311.597 169.796 328.003C187 341.561 205.406 352.14 225.546 360.001C225.886 360.131 226.22 360.267 226.56 360.398C226.9 360.528 227.246 360.658 227.591 360.788C235.349 363.728 243.362 366.276 251.669 368.44C268.069 372.71 280.298 382.847 288.203 398.648C288.327 398.903 288.458 399.152 288.582 399.407C288.707 399.661 288.826 399.922 288.951 400.177C291.404 405.376 293.41 411.158 294.963 417.518C293.263 419.461 291.506 421.346 289.699 423.198ZM355.014 473.596C353.926 476.507 351.103 478.467 347.998 478.467C347.103 478.467 346.224 478.308 345.38 477.991C343.504 477.294 342.014 475.907 341.187 474.089C340.359 472.271 340.286 470.238 340.983 468.363L376.269 373.803L396.8 361.621L365.083 446.599L363.06 445.823C359.847 444.583 356.153 445.642 354.09 448.4C352.622 450.36 352.163 452.829 352.843 455.179C353.523 457.529 355.218 459.381 357.501 460.265L359.677 461.103L355.014 473.596ZM454.856 352.826L458.669 361.287C454.986 365.529 452.005 370.507 449.92 376.102L416.26 466.302L366.676 447.216L399.135 360.245L437.822 337.291C438.048 337.365 438.275 337.444 438.502 337.529L447.16 342.496C450.203 345.061 452.878 348.448 454.856 352.826ZM452.425 345.509L466.92 353.823C464.393 355.601 462.047 357.634 459.916 359.905L456.408 352.124C455.275 349.626 453.926 347.434 452.425 345.509ZM361.859 460.118L361.066 459.812L360.272 459.506L358.113 458.673C356.328 457.988 355.008 456.544 354.475 454.703C353.948 452.868 354.305 450.943 355.45 449.414C356.612 447.868 358.431 447.001 360.295 447.001C361.02 447.001 361.751 447.132 362.448 447.403L364.488 448.191L365.282 448.496L366.075 448.802L415.659 467.888L411.437 479.203L361.859 460.118ZM489.587 407.477C485.824 409.17 481.382 407.488 479.682 403.728L468.609 379.183C471.386 373.757 475.386 369.969 479.767 367.494L487.893 385.509C485.082 384.846 482.039 385.798 480.26 387.984C478.9 389.66 478.441 391.784 479.013 393.817C479.619 395.975 481.246 397.662 483.478 398.461L493.837 402.142C493.373 404.419 491.865 406.452 489.587 407.477ZM481.268 366.695C482.861 365.914 484.481 365.302 486.102 364.832L486.278 364.934L486.363 364.764C488.749 364.101 491.117 363.75 493.35 363.677C502.751 363.371 514.872 367.686 520.754 380.735L529.56 400.256L490.08 386.234L481.268 366.695ZM495.679 400.992L494.84 400.692L493.99 400.392L484.045 396.858C482.339 396.252 481.098 394.978 480.645 393.358C480.226 391.863 480.566 390.294 481.574 389.06C482.657 387.735 484.351 386.993 486.091 386.993C486.771 386.993 487.457 387.106 488.12 387.338L488.828 387.593L489.939 387.989L491.049 388.386L530.529 402.408L536.423 415.468L495.679 400.992ZM493.378 347.009C493.707 347.004 494.036 346.993 494.364 346.993C494.381 346.993 494.393 346.993 494.41 346.993C494.71 346.993 495.01 347.004 495.311 347.009C513.127 347.338 528.552 357.464 535.964 373.888L559.243 425.492C560.937 429.252 559.26 433.692 555.491 435.391C551.729 437.085 547.286 435.403 545.586 431.642L539.613 418.401L539.131 417.325L538.65 416.249L532.756 403.19L532.275 402.114L531.793 401.038L522.318 380.027C516.091 366.214 503.255 361.649 493.305 361.966C491.406 362.029 489.406 362.278 487.389 362.742C487.026 362.827 486.663 362.918 486.3 363.014C485.938 363.11 485.569 363.212 485.207 363.326C484.844 363.439 484.481 363.552 484.113 363.677C482.929 364.084 481.744 364.566 480.577 365.132C480.322 365.257 480.073 365.387 479.818 365.517C479.568 365.648 479.319 365.783 479.07 365.925C474.695 368.366 470.666 372.036 467.736 377.218C467.561 377.524 467.391 377.835 467.226 378.152C467.056 378.475 466.898 378.803 466.739 379.138C466.314 380.021 465.917 380.944 465.555 381.913L420.929 501.494C419.841 504.405 417.019 506.364 413.914 506.364C413.018 506.364 412.14 506.206 411.296 505.889C407.425 504.444 405.453 500.129 406.898 496.261L412.446 481.389L412.741 480.591L413.035 479.792L417.257 468.477L417.552 467.678L417.846 466.88L451.512 376.663C453.428 371.532 456.125 366.933 459.446 362.974C459.65 362.737 459.848 362.493 460.058 362.261C460.262 362.029 460.472 361.802 460.681 361.57C463.044 358.982 465.685 356.688 468.564 354.74C468.824 354.564 469.091 354.389 469.357 354.213C469.623 354.038 469.895 353.868 470.167 353.698C471.046 353.154 471.952 352.645 472.87 352.163C473.12 352.033 473.375 351.903 473.63 351.778C473.885 351.653 474.14 351.529 474.395 351.404C479.982 348.748 486.21 347.208 492.806 346.987C492.993 347.01 493.186 347.009 493.378 347.009ZM490.641 345.435C484.589 345.888 478.871 347.417 473.686 349.875C473.431 349.994 473.176 350.124 472.921 350.249C472.666 350.374 472.411 350.504 472.162 350.634C470.904 351.291 469.68 352.005 468.49 352.769L448.175 341.114L439.635 336.215L439.72 336.164L443.896 333.684L462.285 344.127C463.135 344.806 464.07 345.344 465.056 345.701L465.793 346.12L465.815 345.945C466.524 346.132 467.26 346.234 468.014 346.234C468.717 346.234 469.402 346.143 470.065 345.984C470.343 345.916 470.615 345.832 470.887 345.741C471.153 345.645 471.42 345.543 471.675 345.424C474.429 344.155 476.667 341.493 477.857 338.112L490.641 345.435ZM459.213 340.429L445.579 332.687L454.737 327.25L455.53 326.78L456.34 326.299L456.799 326.027L457.638 325.529L458.477 325.03L459.213 324.594C459.094 324.809 458.975 325.03 458.868 325.251C458.743 325.506 458.624 325.761 458.511 326.027C458.397 326.287 458.295 326.559 458.199 326.825C458.114 327.063 458.035 327.301 457.961 327.539C457.87 327.839 457.785 328.139 457.706 328.445C457.632 328.751 457.57 329.062 457.508 329.38C457.321 330.388 457.219 331.435 457.219 332.511C457.224 335.462 457.961 338.192 459.213 340.429ZM477.092 332.517C477.092 333.559 476.979 334.567 476.792 335.53C476.735 335.824 476.673 336.113 476.599 336.396C476.525 336.68 476.452 336.963 476.361 337.24C475.352 340.344 473.38 342.768 470.949 343.872C470.689 343.991 470.422 344.093 470.156 344.178C469.878 344.268 469.601 344.336 469.317 344.393C468.892 344.472 468.462 344.529 468.02 344.529C467.334 344.529 466.665 344.421 466.019 344.229C465.742 344.144 465.464 344.048 465.198 343.934C464.501 343.629 463.838 343.215 463.226 342.705C460.653 340.582 458.936 336.816 458.936 332.517C458.936 331.9 458.981 331.299 459.049 330.71C459.089 330.371 459.134 330.036 459.197 329.702C459.259 329.374 459.321 329.051 459.4 328.74C459.491 328.383 459.593 328.032 459.706 327.686C459.797 327.409 459.893 327.143 460.001 326.876C460.109 326.61 460.228 326.35 460.353 326.095C461.231 324.26 462.478 322.765 463.951 321.785C464.195 321.621 464.45 321.474 464.705 321.338C465.447 320.953 466.229 320.686 467.051 320.567C467.334 320.528 467.623 320.511 467.912 320.505C467.946 320.505 467.98 320.499 468.014 320.499C468.269 320.499 468.518 320.522 468.768 320.55C473.414 321.06 477.092 326.225 477.092 332.517ZM775.723 111.375C775.723 111.375 775.729 111.375 775.735 111.375C775.763 111.375 775.791 111.375 775.825 111.375V134.759L466.484 318.302L465.492 318.891L464.501 319.48L463.872 319.854L463.101 320.313L456.788 324.062L455.949 324.56L455.111 325.058L454.81 325.234L453.983 325.727L453.173 326.208L446.067 330.427L444.894 331.124L443.721 331.82L437.935 335.252L437.606 335.445L437.096 335.751L436.609 336.04L436.258 336.249L435.578 336.651L400.081 357.713L398.914 358.404L397.746 359.095L377.216 371.277L376.048 371.968L374.881 372.659L295.003 420.049C305.452 408.502 313.884 395.573 320.14 381.692L386.725 342.184L388.17 341.329L389.7 340.423L416.169 324.719L417.008 324.22L417.846 323.722L425.491 319.186L427.049 318.262L428.522 317.39L435.022 313.534L435.861 313.035L436.7 312.537L605.557 212.347L618.653 220.627C618.658 220.627 618.664 220.632 618.67 220.632C618.675 220.638 618.681 220.638 618.681 220.644C618.721 220.666 618.766 220.678 618.806 220.695C618.828 220.706 618.851 220.717 618.88 220.723C618.953 220.746 619.027 220.757 619.106 220.757C619.18 220.757 619.253 220.746 619.321 220.729C619.344 220.723 619.367 220.712 619.389 220.7C619.429 220.683 619.474 220.672 619.514 220.655C619.52 220.655 619.525 220.649 619.531 220.644C619.537 220.644 619.542 220.638 619.548 220.638L731.279 154.19C731.534 154.037 731.693 153.765 731.693 153.471L731.914 137.381L746.336 128.824L746.245 129.141C745.559 131.588 745.865 134.159 747.112 136.373C748.359 138.588 750.393 140.19 752.841 140.876C753.368 141.023 753.906 141.125 754.451 141.181C754.779 141.215 755.108 141.232 755.436 141.232C759.664 141.232 763.421 138.435 764.583 134.283L770.062 114.751L775.723 111.375ZM774.59 110.073L770.725 112.366L771.842 108.385L774.59 110.073ZM783.526 60.4336L770.81 105.763L770.572 106.612L770.334 107.462L768.606 113.624L768.272 114.807L767.937 115.991L762.939 133.808C761.908 137.483 758.406 139.868 754.62 139.477C754.178 139.431 753.731 139.346 753.3 139.228C751.288 138.661 749.617 137.353 748.591 135.529C747.565 133.706 747.316 131.599 747.877 129.589L748.444 127.561L748.778 126.377L749.112 125.194L756.473 98.9613L756.711 98.1118L756.949 97.2623L768.464 56.2144C769.15 53.7622 764.962 47.0229 756.422 42.7414L757.046 40.4194C758.411 35.4753 756.904 29.8063 753.323 24.4771L759.976 27.1899C776.794 34.0538 786.921 48.3424 783.526 60.4336Z" fill="#E9EEF1"/>
<path d="M665.987 182.581L671.863 173.887L672.232 146.975L626.201 174.375L625.759 206.508L665.823 182.677L665.987 182.581ZM627.499 203.49L627.884 175.343L670.486 149.988L670.169 173.355L664.791 181.318L627.499 203.49Z" fill="#E9EEF1"/>
</svg>
