<svg width="1118" height="603" viewBox="0 0 1118 603" fill="none" xmlns="http://www.w3.org/2000/svg">
<path d="M824.345 479.397L823.454 476.597C825.931 475.804 1071.62 397.247 1084.53 393.37C1096.36 389.826 1123.1 392.459 1129.48 393.164C1131.23 384.823 1141.53 338.231 1163.86 280.086C1179.75 238.722 1198.57 226.523 1211.55 223.586C1221.25 221.393 1230.9 223.743 1237.38 229.881C1246.12 238.164 1249.72 257.167 1252.11 269.738C1252.92 273.957 1253.83 278.754 1254.41 279.538C1254.41 279.538 1254.37 279.489 1254.31 279.44L1252.55 281.789C1251.29 280.85 1250.71 278.098 1249.23 270.286C1247.06 258.821 1243.42 239.642 1235.37 232.015C1230.92 227.796 1222.5 224.124 1212.22 226.445C1189.95 231.487 1175.13 258.968 1166.62 281.133C1142.16 344.82 1132.2 394.564 1132.1 395.054L1131.84 396.395L1130.49 396.229C1130.16 396.189 1098 392.391 1085.4 396.18C1072.48 400.057 826.822 478.604 824.345 479.397Z" fill="#E9EEF1"/>
<path d="M829.309 505.997L823.533 502.59L822.368 492.79L823.132 492.702L824.258 502.121L829.407 505.156L1132.11 408.398C1128.32 396.17 1137.64 357.234 1141.57 353.729C1141.99 353.347 1142.34 353.396 1142.56 353.494L1142.22 354.189C1142.23 354.189 1142.25 354.189 1142.24 354.189C1142.24 354.189 1142.02 354.228 1141.57 354.962C1137.64 361.297 1129.13 397.531 1132.96 408.515L1133.09 408.887L1132.72 409.005L829.309 505.997Z" fill="#E9EEF1"/>
<path d="M1253.3 285.549L1250.76 284.061C1250.77 284.041 1253.67 278.079 1250.57 252.673C1247.43 226.993 1235.12 212.102 1228.34 207.354C1223.54 203.995 1196.55 188.262 1178.69 177.855C1172.53 174.262 1167.46 171.315 1164.77 169.72C1154.66 163.738 1144.69 151.216 1132.09 135.355C1102.89 98.6222 1058.76 43.111 968.753 20.1234C927.45 9.57919 876.563 7.13161 831.658 4.97774C716.366 -0.544001 597.236 15.3751 577.197 19.9374C533.799 29.8256 419.241 164.462 418.096 165.823L417.939 165.999L408.678 171.658L408.384 171.697C408.228 171.717 392.241 174.145 389.852 174.624C389.422 174.713 386.397 175.163 379.612 176.162C351.223 180.371 264.829 193.167 235.225 200.07L224.457 202.576C183.604 212.063 87.9402 234.287 76.8779 239.152L75.6934 236.46C87.0004 231.487 179.385 210.026 223.791 199.717L234.55 197.221C264.271 190.299 350.753 177.483 379.172 173.273C384.811 172.441 388.883 171.834 389.275 171.756C391.575 171.296 405.389 169.191 407.65 168.848L416.01 163.738C422.579 155.993 532.595 27.0843 576.55 17.0688C596.668 12.4869 716.2 -3.50068 831.805 2.04064C876.847 4.2043 927.9 6.65189 969.487 17.2744C1060.45 40.5166 1104.96 96.4879 1134.39 133.525C1146.82 149.14 1156.63 161.486 1166.27 167.194C1168.95 168.78 1174.02 171.736 1180.17 175.32C1198.07 185.746 1225.12 201.509 1230.03 204.945C1237.2 209.968 1250.22 225.603 1253.48 252.311C1256.71 278.803 1253.65 284.932 1253.3 285.549Z" fill="#E9EEF1"/>
<path d="M824.698 490.901L821.781 490.558C821.947 489.178 837.533 352.064 798.237 323.858C785.266 314.548 769.455 311.376 752.519 314.694C725.892 319.913 698.206 340.893 680.252 369.452C652.009 414.389 642.993 447.696 642.905 448.019L642.621 449.096L594.299 449.762C591.02 450.3 517.607 462.215 483.304 464.124C450.03 465.975 299.005 462.313 206.894 445.503L201.588 444.534C114.314 428.605 66.2465 419.833 24.8756 406.087C14.1657 402.523 16.3977 375.61 17.8564 364.194C18.8745 356.196 20.3527 347.463 21.4002 341.54C21.9778 338.299 22.4967 335.538 22.8687 333.58C23.0547 332.601 23.2015 331.828 23.3092 331.299C23.4952 330.32 23.7106 329.214 25.0028 329.302L24.9049 330.77L26.344 331.074C26.3048 331.24 22.7316 349.176 20.7639 364.566C18.0032 386.164 19.9807 401.368 25.7958 403.297C66.971 416.984 114.97 425.736 202.117 441.636L207.423 442.605C297.752 459.092 450.999 462.979 483.148 461.187C517.911 459.258 593.183 446.972 593.937 446.844L594.152 446.825L640.379 446.188C642.171 440.079 652.117 408.701 677.775 367.885C696.141 338.661 724.57 317.171 751.961 311.806C769.72 308.321 786.313 311.669 799.96 321.46C817.131 333.786 826.509 366.113 827.821 417.542C828.781 455.597 824.747 490.548 824.698 490.901Z" fill="#E9EEF1"/>
<path d="M823.485 493.965L822.995 493.368C823.269 493.143 829.76 487.866 831.551 486.975C833.372 486.064 895.38 464.986 958.738 443.839C1005.42 428.262 1084.29 402.152 1088.53 402.152H1088.54C1089.77 402.171 1091.75 402.181 1094.19 402.191C1111.37 402.289 1129.86 402.494 1131.9 403.669L1131.52 404.335C1129.48 403.16 1105.64 403.023 1094.18 402.964C1091.73 402.954 1089.75 402.935 1088.52 402.925H1088.51C1080.71 402.925 833.607 486.809 831.884 487.67C830.181 488.512 823.553 493.907 823.485 493.965Z" fill="#E9EEF1"/>
<path d="M1089.25 392.89L1088.5 392.753C1088.56 392.43 1088.7 391.412 1088.94 389.767C1094.96 348.246 1111.62 247.876 1136.31 212.621C1153.37 188.253 1186.26 180.508 1186.58 180.43L1186.76 181.184C1186.43 181.262 1153.84 188.948 1136.94 213.061C1112.35 248.179 1095.71 348.413 1089.7 389.875C1089.46 391.539 1089.3 392.567 1089.25 392.89Z" fill="#E9EEF1"/>
<path d="M848.38 470.322L847.616 470.273C847.646 469.822 850.759 424.689 851.248 416.798C856.476 333.228 853.187 281.045 851.219 249.873C849.887 228.697 849.153 217.036 852.286 212.151C854.841 208.176 863.123 206.101 870.436 204.27C873.794 203.428 876.965 202.635 879.393 201.724C881.42 200.961 882.506 200.021 882.614 198.934C882.79 197.162 880.294 195.184 879.325 194.577L879.736 193.921C879.893 194.019 883.642 196.398 883.388 199.012C883.25 200.422 881.997 201.568 879.667 202.439C877.2 203.369 873.999 204.162 870.622 205.014C863.456 206.815 855.321 208.852 852.932 212.572C849.936 217.242 850.661 228.814 851.982 249.824C853.95 281.016 857.239 333.228 852.012 416.847C851.522 424.738 848.419 469.862 848.38 470.322Z" fill="#E9EEF1"/>
<path d="M1071.85 399.156L1071.08 399.068C1071.17 398.236 1080.38 315.38 1083.32 266.037L1083.35 265.567C1084.86 240.278 1087.65 193.197 1077.07 182.134C1070.49 175.251 1062.55 171.736 1054.19 171.962L1053.84 171.971V171.198L1054.17 171.188C1062.76 170.943 1070.89 174.556 1077.62 181.595C1088.44 192.903 1085.63 240.2 1084.12 265.606L1084.09 266.076C1081.16 315.449 1071.95 398.324 1071.85 399.156Z" fill="#E9EEF1"/>
<path d="M1069.8 228.579C1066.98 228.256 1065.25 226.024 1064.93 222.284L1065.69 222.215C1065.98 225.544 1067.47 227.531 1069.89 227.805L1069.8 228.579Z" fill="#E9EEF1"/>
<path d="M1070.23 228.608C1070.09 228.608 1069.95 228.598 1069.8 228.579L1069.89 227.815C1072.27 228.099 1074.73 225.407 1075.73 221.432L1076.48 221.618C1075.42 225.818 1072.9 228.608 1070.23 228.608Z" fill="#E9EEF1"/>
<path d="M1076.07 215.744C1075.6 212.395 1073.98 210.085 1071.94 209.86C1069.61 209.586 1066.8 211.7 1066.34 215.274L1065.58 215.176C1066.11 211.025 1069.34 208.783 1072.03 209.096C1074.43 209.37 1076.31 211.935 1076.83 215.646L1076.07 215.744Z" fill="#E9EEF1"/>
<path d="M1062.84 222.626C1061.54 222.607 1059.6 220.306 1059.62 218.837L1059.63 218.005C1059.64 217.281 1059.87 216.38 1060.24 215.656C1060.69 214.755 1061.28 214.265 1061.89 214.265H1061.9L1077.65 215.411C1078.87 215.43 1079.87 216.693 1079.85 218.221L1079.84 219.053C1079.83 219.777 1079.59 220.463 1079.18 220.982C1078.75 221.52 1078.18 221.814 1077.57 221.814H1077.56L1062.84 222.626ZM1061.88 215.029C1061.61 215.029 1061.24 215.401 1060.93 215.998C1060.62 216.615 1060.41 217.398 1060.4 218.005L1060.39 218.837C1060.38 219.944 1062.04 221.843 1062.83 221.853L1077.57 221.04C1077.98 221.021 1078.31 220.854 1078.59 220.492C1078.9 220.11 1079.07 219.591 1079.08 219.033L1079.09 218.201C1079.1 217.105 1078.44 216.174 1077.63 216.165L1061.88 215.029Z" fill="#E9EEF1"/>
<path d="M1059.69 235.187C1053.12 235.187 1047.78 227.708 1047.78 218.524C1047.78 209.341 1053.12 201.861 1059.69 201.861C1063.67 201.861 1067.37 204.622 1069.59 209.253L1068.89 209.586C1066.81 205.229 1063.37 202.625 1059.69 202.625C1053.55 202.625 1048.56 209.752 1048.56 218.524C1048.56 227.296 1053.55 234.424 1059.69 234.424C1063.94 234.424 1067.29 232.113 1069.14 227.923L1069.84 228.236C1067.86 232.71 1064.26 235.187 1059.69 235.187Z" fill="#E9EEF1"/>
<path d="M1060.17 224.095C1058.86 224.085 1055.93 221.129 1055.96 219.122L1055.98 217.996C1056 216.723 1057.14 215.333 1057.63 214.784C1058.36 213.982 1059.47 213.052 1060.22 213.052H1060.23L1076.5 215.303L1076.39 216.067L1060.17 213.825C1059.94 213.825 1059.12 214.295 1058.19 215.303C1057.3 216.282 1056.74 217.31 1056.73 218.005L1056.71 219.131C1056.69 220.708 1059.33 223.322 1060.11 223.331L1077.51 221.05L1077.6 221.814L1060.17 224.095Z" fill="#E9EEF1"/>
<path d="M800.381 275.171C799.558 273.428 798.912 270.648 800.479 267.339C802.544 262.972 809.123 256.726 828.702 251.782C830.875 251.234 835.339 250.255 841.967 248.865L842.124 249.618C835.506 250.999 831.061 251.978 828.888 252.526C809.593 257.392 803.171 263.442 801.174 267.662C799.735 270.697 800.332 273.242 801.076 274.838L800.381 275.171Z" fill="#E9EEF1"/>
<path d="M860.44 245.888L860.283 245.134C914.322 234.228 1016.96 214.471 1017.98 214.275L1018.13 215.029C1017.1 215.225 914.469 234.982 860.44 245.888Z" fill="#E9EEF1"/>
<path d="M850.807 234.198L850.65 233.445C901.605 222.519 972.14 211.965 973.119 212.19L973.04 212.562L973.021 212.944C971.219 212.973 902.486 223.116 850.807 234.198Z" fill="#E9EEF1"/>
<path d="M786.852 268.827C786.078 268.435 767.967 259.203 768.995 249.109C769.612 243.088 776.964 238.154 790.846 234.424C825.197 225.201 870.504 223.762 892.286 223.077C898.678 222.871 903.72 222.715 904.268 222.44L904.376 222.656L904.846 222.91C904.582 223.39 903.289 223.488 892.315 223.831C870.572 224.526 825.315 225.955 791.051 235.158C777.512 238.79 770.356 243.509 769.769 249.178C768.976 256.893 780.684 264.431 785.344 267.114C784.257 265.371 783.21 262.15 784.708 256.951C787.429 247.474 812.148 238.624 850.807 233.278L850.915 234.042C813.127 239.27 788.046 248.13 785.442 257.167C783.141 265.165 787.214 268.142 787.253 268.171L786.852 268.827Z" fill="#E9EEF1"/>
<path d="M596.502 448.391L595.758 448.205C595.993 447.236 619.772 351.124 663.659 311.64C683.091 294.154 703.189 282.514 723.385 277.051C736.905 273.389 750.64 272.557 763.102 274.633C773.459 276.356 803.2 287.331 816.25 316.956C828.252 344.203 826.705 404.58 826.509 410.933L1077.98 334.324C1082.7 332.072 1089.83 330.917 1099.11 330.917C1102.52 330.917 1137.37 329.928 1143.31 329.077L1143.42 329.84C1137.25 330.721 1102.56 331.691 1099.11 331.691C1089.95 331.691 1082.93 332.816 1078.26 335.039L825.706 411.981L825.726 411.443C825.755 410.787 828.095 345.73 815.555 317.26C802.632 287.947 773.224 277.09 762.975 275.386C720.488 268.308 682.837 295.417 664.168 312.218C620.457 351.536 596.737 447.432 596.502 448.391Z" fill="#E9EEF1"/>
<path d="M826.373 418.707L826.147 417.973L1077.85 340.296C1082.58 338.025 1089.69 336.85 1098.97 336.811C1102.39 336.801 1140.85 334.824 1141.25 334.804L1141.29 335.577C1140.89 335.597 1102.41 337.565 1098.98 337.584C1089.82 337.614 1082.81 338.769 1078.14 341.011L826.373 418.707Z" fill="#E9EEF1"/>
<path d="M826.225 448.704L825.99 447.97L1076.02 368.267C1085.6 364.86 1091.87 364.86 1094.22 364.86C1102.02 364.86 1127.93 364.801 1133.52 363.999L1133.63 364.762C1127.99 365.565 1102.04 365.634 1094.22 365.634C1091.9 365.634 1085.74 365.634 1076.26 369.001L826.225 448.704Z" fill="#E9EEF1"/>
<path d="M825.393 455.577L825.158 454.843L1076.86 374.229C1085.33 371.929 1094.96 370.764 1097.99 370.744C1101.4 370.734 1132.12 369.726 1132.43 369.716L1132.45 370.49C1132.14 370.499 1101.41 371.498 1097.99 371.517C1095.09 371.527 1085.35 372.722 1077.07 374.964L825.393 455.577Z" fill="#E9EEF1"/>
<path d="M878.492 194.714C877.543 194.714 876.77 194.685 876.231 194.626C876.133 194.616 875.986 194.567 875.869 194.411C873.353 191.141 890.123 81.2248 892.041 68.703C892.266 67.1659 892.443 65.668 892.609 64.2288C893.999 52.6175 894.998 44.2174 915.879 42.5922C943.417 40.4481 975.283 39.332 1002.82 47.3405C1061.54 64.4148 1102.5 106.112 1113.32 120.748C1125.2 136.804 1120.89 151.676 1117.17 154.877C1109.84 161.212 1059.82 170.933 1050.41 172.265C1050.34 172.275 1049.86 172.343 1049.01 172.471C1022.09 176.514 954.852 186.471 911.914 191.611L911.826 190.847C954.754 185.707 1021.99 175.75 1048.9 171.707C1049.76 171.58 1050.24 171.501 1050.31 171.492C1059.35 170.219 1109.6 160.399 1116.68 154.28C1120.25 151.206 1124.3 136.844 1112.71 121.189C1101.93 106.621 1061.13 65.0805 1002.62 48.065C975.204 40.0956 943.427 41.2117 915.948 43.346C895.693 44.9223 894.773 52.637 893.383 64.3071C893.206 65.7561 893.03 67.254 892.805 68.8009C885.384 117.234 874.968 190.074 876.446 193.853C878.541 194.048 883.965 193.813 890.044 193.285L890.113 194.048C885.414 194.479 881.204 194.714 878.492 194.714Z" fill="#E9EEF1"/>
<path d="M883.22 189.173C882.525 189.173 881.927 189.144 881.409 189.095C881.272 189.075 881.144 189.007 881.046 188.879C878.658 185.766 894.644 84.1718 896.475 72.5997C896.69 71.1801 896.857 69.7996 897.023 68.4681C898.345 57.7086 899.304 49.9449 919.236 48.4371C945.511 46.4497 975.908 45.4217 1002.17 52.8232C1058.19 68.615 1097.26 107.189 1107.59 120.719C1118.93 135.591 1114.81 149.366 1111.26 152.332C1104.52 157.971 1050.59 168.339 1040.09 170.023L1039.97 169.26C1052.63 167.223 1104.49 156.992 1110.77 151.735C1114.16 148.896 1118.01 135.64 1106.97 121.179C1096.69 107.708 1057.77 69.2905 1001.96 53.5575C975.81 46.1854 945.492 47.2134 919.285 49.191C899.98 50.6498 899.099 57.7673 897.777 68.5465C897.61 69.8877 897.444 71.278 897.229 72.7073C890.161 117.41 880.234 184.669 881.624 188.331C883.396 188.488 886.225 188.321 891.071 187.93L891.13 188.693C887.459 189.007 884.992 189.173 883.22 189.173Z" fill="#E9EEF1"/>
<path d="M1034.73 174.184C1033.54 150.638 1020.92 60.6161 1020.79 59.7154L1021.56 59.6077C1021.68 60.5182 1034.31 150.57 1035.51 174.145L1034.73 174.184Z" fill="#E9EEF1"/>
<path d="M1040.02 172.676L1039.25 172.647C1039.87 156.111 1025.91 62.7112 1025.78 61.7713L1026.54 61.6538C1026.69 62.5937 1040.66 156.072 1040.02 172.676Z" fill="#E9EEF1"/>
<path d="M916.956 49.0654L916.196 49.1387L925.996 150.752L926.755 150.679L916.956 49.0654Z" fill="#E9EEF1"/>
<path d="M912.238 49.7986L911.479 49.8716L921.069 149.741L921.829 149.668L912.238 49.7986Z" fill="#E9EEF1"/>
<path d="M1040 165.089L1039.84 164.335C1040.39 164.217 1094.42 152.89 1102.79 150.315C1111.62 147.593 1113.62 139.086 1113.62 136.325H1114.39C1114.39 139.242 1112.31 148.2 1103.03 151.049C1094.61 153.624 1040.55 164.971 1040 165.089Z" fill="#E9EEF1"/>
<path d="M1165.14 168.554C1162.42 156.659 1167.87 139.595 1171.13 129.403C1172.18 126.113 1173.01 123.519 1173.34 121.884C1174.39 116.558 1161.93 109.294 1155.36 107.972C1148.94 106.689 1108.22 105.26 1107.8 105.25L1107.83 104.477C1109.51 104.536 1149.03 105.916 1155.51 107.218C1162.41 108.599 1175.28 115.971 1174.08 122.031C1173.75 123.705 1172.92 126.319 1171.86 129.628C1168.63 139.751 1163.2 156.679 1165.89 168.378L1165.14 168.554Z" fill="#E9EEF1"/>
<path d="M904.493 202.625C897.552 202.625 890.171 194.92 889.858 194.587L889.73 194.45L890.739 187.812L891.502 187.929L890.553 194.186C891.571 195.213 898.375 201.851 904.503 201.851C906.118 201.851 909.124 201.851 910.543 197.857L911.503 189.78L912.266 189.868L911.287 198.023C909.662 202.625 906.177 202.625 904.493 202.625Z" fill="#E9EEF1"/>
<path d="M911.914 191.62L911.836 190.857C912.267 190.818 955.194 186.608 962.057 182.447C963.976 181.282 965.033 179.617 965.199 177.503C965.542 173.195 962.027 167.125 956.467 162.406C945.444 153.056 931.356 150.873 921.469 150.677L921.489 149.904C931.494 150.1 945.777 152.322 956.966 161.809C961.743 165.862 966.384 172.304 965.973 177.552C965.787 179.931 964.602 181.801 962.468 183.093C955.449 187.352 913.686 191.444 911.914 191.62Z" fill="#E9EEF1"/>
<path d="M926.462 189.809L926.393 189.555L926.325 189.75C926.09 189.701 924.386 189.711 922.409 189.721C917.984 189.75 910.593 189.799 903.182 189.388C893.901 188.869 885.208 187.43 885.12 187.42L884.895 187.381L884.817 187.166C883.133 182.251 886.314 170.982 891.777 162.543C899.511 150.589 907.617 150.286 914.763 150.021C915.233 150.002 915.703 149.982 916.173 149.963C917.955 149.884 919.736 149.855 921.489 149.894L921.469 150.667C919.736 150.638 917.964 150.658 916.202 150.736C915.742 150.756 915.262 150.775 914.793 150.795C907.832 151.049 899.942 151.343 892.423 162.964C886.706 171.795 884.22 182.427 885.482 186.696C886.921 186.931 894.831 188.155 903.231 188.624C910.622 189.036 918.004 188.987 922.409 188.957C926.785 188.928 926.785 188.928 926.834 189.349C926.844 189.427 926.853 189.711 926.462 189.809Z" fill="#E9EEF1"/>
<path d="M422.687 158.696C422.54 158.47 419.035 153.086 421.502 143.726C424.067 133.985 446.26 130.225 447.817 130.225V130.999C445.252 130.999 424.557 135.14 422.246 143.932C419.867 152.958 423.294 158.226 423.323 158.275L422.687 158.696Z" fill="#E9EEF1"/>
<path d="M844.14 194.283C841.536 194.283 838.589 194.058 835.222 193.647C819.353 191.699 650.697 174.497 566.731 169.338L566.78 168.574C650.765 173.734 819.45 190.945 835.319 192.893C850.807 194.793 857.17 192.551 862.564 183.289C866.891 175.848 882.545 61.1546 880.763 49.8958C880.322 47.1349 877.953 40.2621 865.383 36.0131L865.031 35.8956C853.783 32.0872 834.957 25.7235 790.914 22.8157C725.166 18.4786 635.807 14.9639 583.452 22.8157C563.784 25.7626 554.846 28.6508 554.758 28.6703L554.523 27.9361C554.612 27.9067 563.598 25.0088 583.344 22.0521C635.758 14.1905 725.186 17.715 790.963 22.0521C835.104 24.9598 853.988 31.3529 865.276 35.1711L865.628 35.2886C878.59 39.6747 881.057 46.8803 881.517 49.7783C883.298 61.0763 867.576 176.21 863.22 183.681C858.824 191.229 853.822 194.274 844.14 194.283Z" fill="#E9EEF1"/>
<path d="M840.586 189.192C838.031 189.192 835.133 188.987 831.834 188.595C830.934 188.487 829.338 188.341 827.272 188.145C821.898 187.636 813.773 186.862 806.372 185.815L806.479 185.051C813.861 186.089 821.976 186.862 827.341 187.371C829.407 187.567 831.012 187.724 831.913 187.831C847.116 189.623 853.362 187.508 858.658 178.785C862.907 171.775 878.267 63.6803 876.524 53.0676C876.23 51.276 874.126 42.1612 861.438 38.0395L861.096 37.9318C850.053 34.3485 831.57 28.3373 788.32 25.6058L787.928 25.5764C744.286 22.8155 642.092 16.3441 584.636 24.617C565.292 27.4072 555.532 29.1597 555.434 29.1695L555.297 28.4156C555.395 28.396 565.165 26.6436 584.529 23.8533C642.062 15.5707 744.315 22.0421 787.987 24.803L788.378 24.8323C831.717 27.5736 850.258 33.5947 861.34 37.1975L861.683 37.3052C874.791 41.564 876.984 51.0704 877.288 52.9404C879.04 63.5922 863.592 172.138 859.324 179.177C855.006 186.314 850.102 189.192 840.586 189.192Z" fill="#E9EEF1"/>
<path d="M813.43 188.85C813.332 188.82 809.172 187.577 803.298 185.844V185.883C775.809 183.191 635.083 169.543 563.423 165.529V164.766C563.619 164.756 583.511 163.698 595.631 163.61C609.091 163.512 620.8 157.227 620.917 157.168L621.005 157.119H621.103C621.534 157.129 664.178 158.128 666.106 158.128C667.643 158.128 668.593 159.586 669.513 161.006C669.905 161.603 670.306 162.22 670.737 162.7C671.402 162.886 676.15 163.493 694.467 165.275L695.025 165.333C701.515 165.97 708.574 166.44 715.397 166.9C725.608 167.585 735.26 168.241 742.524 169.347C748.222 170.219 760.194 172.392 776.377 177.111C786.323 180.009 800.028 184.072 807.743 186.363C791.413 179.255 744.374 159.293 730.708 158.872L723.297 158.637C697.345 157.805 628.397 155.582 620.134 156.454C611.323 157.384 559.928 158.735 555.004 158.862V165.04H554.622L554.583 165.421C554.348 165.402 525.703 163.307 494.406 163.131C462.873 162.954 429.55 164.247 420.073 164.648C419.828 164.658 419.701 164.658 419.691 164.658L419.711 164.276L419.701 163.894L420.044 163.884C429.52 163.483 462.883 162.191 494.406 162.367C510.52 162.455 526.026 163.072 536.208 163.581C548.729 164.198 552.85 164.501 554.23 164.677V158.118L554.602 158.108C555.16 158.098 610.863 156.659 620.046 155.69C628.357 154.819 697.345 157.031 723.317 157.873L730.728 158.108C747.419 158.627 810.983 186.941 813.685 188.145L813.43 188.85ZM570.618 165.177C641.133 169.465 766.127 181.478 799.627 184.748C792.246 182.564 783.259 179.911 776.171 177.845C760.028 173.136 748.094 170.973 742.426 170.101C735.201 168.995 725.568 168.339 715.368 167.654C708.534 167.194 701.466 166.714 694.966 166.087L694.408 166.028C670.658 163.708 670.433 163.463 670.247 163.268C669.748 162.739 669.307 162.063 668.886 161.407C668.035 160.105 667.242 158.882 666.126 158.882C664.236 158.882 623.531 157.932 621.201 157.873C620.066 158.47 608.67 164.266 595.64 164.364C588.102 164.433 577.559 164.854 570.618 165.177Z" fill="#E9EEF1"/>
<path d="M559.673 174.947C557.549 174.947 554.896 174.644 551.607 173.802L551.323 173.724V167.781C493.701 164.922 417.273 167.184 416.5 167.213L416.48 166.44C417.244 166.42 494.024 164.139 551.724 167.027L552.086 167.047V173.126C561.857 175.564 565.694 173.019 566.37 172.48V164.717H567.143V172.803L567.035 172.911C566.918 173.038 564.979 174.947 559.673 174.947Z" fill="#E9EEF1"/>
<path d="M554.769 164.44L551.444 167.132L551.931 167.733L555.256 165.041L554.769 164.44Z" fill="#E9EEF1"/>
<path d="M490.304 278.578L489.834 277.971C516.521 257.363 773.998 207.833 776.514 207.403C794.537 204.309 808.154 200.755 808.203 199.14C808.203 199.14 808.193 198.758 806.509 198.366C790.954 194.734 581.534 177.483 541.612 175.917L533.173 175.584C485.302 173.704 419.741 171.139 404.107 172.06L404.058 171.296C419.741 170.366 485.312 172.941 533.202 174.82L541.641 175.153C581.573 176.72 791.11 193.99 806.686 197.622C807.684 197.857 808.996 198.268 808.976 199.169C808.878 202.38 784.209 206.864 776.651 208.166C760.214 210.986 515.307 259.272 490.304 278.578Z" fill="#E9EEF1"/>
<path d="M636.541 198.062L636.453 198.053C636.159 198.014 606.458 194.411 570.735 192.149C517.411 188.771 452.369 186.324 451.713 186.304L451.517 186.295L444.106 175.711L444.88 175.741C445.771 175.77 534.426 179.157 559.947 180.734C640.134 185.688 658.685 189.839 658.862 189.878L660.193 190.191L636.541 198.062ZM451.928 185.541C455.883 185.688 518.87 188.096 570.774 191.376C605.567 193.579 634.652 197.054 636.453 197.269L657.266 190.348C651.676 189.339 628.132 185.707 559.898 181.497C535.669 179.999 454.454 176.876 445.624 176.534L451.928 185.541Z" fill="#E9EEF1"/>
<path d="M61.2344 413.714C59.5213 404.012 63.7406 392.204 74.5092 376.55L75.4392 375.199C84.4163 362.099 101.137 337.712 161.715 290.375C222.499 242.892 383.871 174.497 385.496 173.812L385.79 174.517C384.165 175.202 222.881 243.558 162.185 290.982C101.695 338.25 85.0233 362.569 76.0657 375.629L75.1357 376.981C64.4846 392.459 60.3044 404.08 61.9785 413.577L61.2344 413.714Z" fill="#E9EEF1"/>
<path d="M285.593 250.499L286.983 249.001C287.277 248.678 317.928 216.458 422.168 183.798L422.393 184.532C331.878 212.895 296.998 240.875 289.274 247.866C298.251 243.568 333.229 227.071 364.536 215.616C408.56 199.511 452.653 185.864 453.093 185.727L453.319 186.461C452.878 186.598 408.805 200.236 364.801 216.341C328.765 229.528 287.835 249.413 287.423 249.608L285.593 250.499Z" fill="#E9EEF1"/>
<path d="M319.631 457.173C319.621 456.977 318.662 437.886 335.431 419.059C350.791 401.819 426.612 347.58 430.136 347.081L430.244 347.845C426.749 348.344 351.32 402.387 336.009 419.578C319.465 438.151 320.395 456.948 320.404 457.134L319.631 457.173Z" fill="#E9EEF1"/>
<path d="M631.745 447.872L630.981 447.745C631.04 447.393 637.257 411.854 670.434 362.873C698.295 321.744 734.556 299.921 767.429 304.493C793.803 308.164 812.853 325.562 818.375 351.046L817.621 351.212C814.625 337.388 807.988 326.247 797.904 318.101C787.283 309.525 775.408 306.382 767.312 305.257C734.742 300.733 698.755 322.429 671.06 363.313C653.772 388.827 644.002 410.463 638.852 424.121C633.282 438.904 631.765 447.784 631.745 447.872Z" fill="#E9EEF1"/>
<path d="M571.695 451.818C571.656 451.544 567.799 424.013 561.181 420.146C559.448 419.128 552.889 419.823 543.805 420.773C536.286 421.566 526.917 422.545 516.325 423.015C493.691 424.033 463.069 423.925 434.396 422.731C406.701 421.585 374.738 419.49 355.638 418.247C346.328 417.64 339.583 417.209 339.113 417.248L339.074 416.915L338.771 416.602C338.986 416.396 338.986 416.387 355.687 417.483C374.777 418.736 406.74 420.822 434.425 421.967C463.079 423.152 493.682 423.259 516.286 422.251C526.859 421.781 536.208 420.792 543.716 420.009C553.291 419.001 559.615 418.335 561.563 419.48C568.494 423.543 572.292 450.565 572.449 451.71L571.695 451.818Z" fill="#E9EEF1"/>
<path d="M326.552 457.291C321.139 443.555 340.013 422.966 340.826 422.095L340.943 421.967H341.11C341.717 421.967 345.77 422.222 353.484 422.76C371.644 424.013 403.802 426.353 404.116 426.373L404.625 426.412L404.449 426.892C400.748 436.917 395.119 453.433 395.785 455.068C395.853 455.245 395.834 455.431 395.726 455.577C394.179 457.682 344.213 453.512 334.218 452.66L333.787 452.621L333.875 452.2C333.924 451.975 338.819 429.418 353.082 423.504C346.21 423.034 342.245 422.78 341.266 422.741C339.671 424.513 322.245 444.26 327.267 457.007L326.552 457.291ZM334.727 451.935C357.85 453.913 392.27 456.331 395.031 455.156C394.502 451.975 402.031 431.268 403.558 427.107C399.358 426.804 370.342 424.699 353.435 423.524C353.366 423.524 353.298 423.514 353.229 423.514L353.494 424.17C340.591 429.418 335.471 448.812 334.727 451.935Z" fill="#E9EEF1"/>
<path d="M402.677 460.541H401.903C401.903 456.801 409.148 431.092 412.662 427.773C412.975 427.479 413.259 427.342 413.563 427.362C435.237 428.595 481.16 429.985 515.815 427.342C520.074 427.019 524.205 426.686 528.082 426.373C548.758 424.699 555.483 424.278 555.973 425.658C562.023 442.713 562.042 446.149 561.259 447.256C561.053 447.549 560.75 447.706 560.388 447.706C559.516 447.706 557.049 448.137 554.445 448.597C551.293 449.145 548.033 449.713 546.682 449.703C544.949 449.674 543.628 444.211 541.68 435.223C540.867 431.503 540.104 427.988 539.477 426.422L540.015 426.206C536.344 426.471 532.282 426.804 528.15 427.136C524.264 427.45 520.133 427.783 515.874 428.106C481.18 430.749 435.208 429.359 413.514 428.125C413.445 428.115 413.357 428.164 413.181 428.331C410.136 431.229 402.677 456.321 402.677 460.541ZM540.211 426.187C540.857 427.841 541.621 431.346 542.424 435.057C543.55 440.236 545.439 448.91 546.692 448.93C547.994 448.949 551.342 448.362 554.318 447.833C557.079 447.353 559.458 446.932 560.397 446.932C560.505 446.932 560.574 446.893 560.642 446.805C561.543 445.532 559.732 438.503 555.258 425.903C554.631 425.296 548.415 425.59 540.211 426.187Z" fill="#E9EEF1"/>
<path d="M442.952 457.251C430.656 457.251 419.192 456.781 410.068 455.597L410.166 454.833C451.704 460.218 535.111 451.407 537.676 449.928L538.068 450.584C535.983 451.847 484.675 457.251 442.952 457.251Z" fill="#E9EEF1"/>
<path d="M220.688 361.483C219.612 361.483 219.083 360.954 218.828 360.504C216.714 356.773 224.81 342.95 225.74 341.393L225.838 341.285C229.812 338.309 239.837 338.27 240.268 338.27C240.689 338.299 249.92 338.994 251.565 342.157C251.976 342.95 251.908 343.811 251.359 344.722C248.374 349.715 223.508 361.483 220.688 361.483ZM226.366 341.853C223.88 346.053 217.898 357.322 219.504 360.132C219.729 360.533 220.111 360.719 220.698 360.719C223.361 360.719 247.913 349 250.713 344.33C251.124 343.654 251.183 343.057 250.899 342.509C249.695 340.198 242.803 339.219 240.248 339.033C240.17 339.033 230.184 339.063 226.366 341.853Z" fill="#E9EEF1"/>
<path d="M222.47 363.46V362.687C225.133 362.687 249.685 350.968 252.485 346.298L253.141 346.689C250.155 351.692 225.289 363.46 222.47 363.46Z" fill="#E9EEF1"/>
<path d="M411.42 243.45C407.386 243.45 403.656 243.127 400.543 242.481C395.541 241.453 392.672 239.691 392.486 237.527C392.105 233.151 402.922 228.765 417.098 227.541C423.784 226.964 430.147 227.198 435.003 228.197C440.005 229.225 442.874 230.987 443.06 233.151C443.246 235.315 440.73 237.537 435.972 239.417C431.351 241.238 425.125 242.559 418.439 243.137C416.05 243.353 413.681 243.45 411.42 243.45ZM424.146 228.001C421.904 228.001 419.564 228.099 417.176 228.305C403.881 229.45 392.927 233.641 393.26 237.459C393.416 239.231 396.128 240.787 400.7 241.727C405.487 242.716 411.772 242.941 418.39 242.373C425.008 241.806 431.155 240.494 435.708 238.702C440.054 236.989 442.462 234.992 442.306 233.22C442.149 231.447 439.437 229.891 434.866 228.951C431.792 228.324 428.121 228.001 424.146 228.001Z" fill="#E9EEF1"/>
<path d="M410.372 245.643C405.682 245.643 401.346 245.262 397.723 244.518C391.928 243.323 388.609 241.297 388.394 238.8C388.179 236.303 391.096 233.738 396.607 231.565C401.982 229.45 409.226 227.913 417.009 227.238C424.792 226.562 432.193 226.836 437.851 228.001C443.647 229.196 446.965 231.222 447.181 233.719C447.396 236.206 444.479 238.78 438.967 240.954C433.593 243.069 426.348 244.606 418.566 245.281C415.766 245.526 413.015 245.643 410.372 245.643ZM425.193 227.649C422.579 227.649 419.848 227.766 417.068 228.011C409.354 228.677 402.188 230.194 396.882 232.289C391.791 234.296 388.972 236.646 389.158 238.741C389.334 240.836 392.515 242.667 397.87 243.773C403.46 244.919 410.783 245.193 418.487 244.527C426.201 243.862 433.367 242.344 438.673 240.249C443.764 238.242 446.584 235.892 446.398 233.797C446.221 231.702 443.04 229.871 437.685 228.765C434.112 228.031 429.833 227.649 425.193 227.649Z" fill="#E9EEF1"/>
<path d="M48.3607 341.961C45.6196 341.961 42.9666 341.491 40.4311 340.532C32.0708 337.369 26.1774 329.361 23.8181 317.984C21.5176 306.843 22.8783 293.734 27.6654 281.065C32.4526 268.406 40.0983 257.666 49.1928 250.833C58.4832 243.852 68.2043 241.747 76.5647 244.9C84.925 248.062 90.8184 256.061 93.1777 267.447C95.4782 278.588 94.1175 291.697 89.3303 304.366C84.5432 317.025 76.8975 327.765 67.8029 334.599C61.3222 339.464 54.6457 341.961 48.3607 341.961ZM68.6448 246.407C62.9962 246.407 56.9169 248.708 50.9648 253.172C42.3107 259.673 35.0077 269.953 30.4163 282.093C25.825 294.243 24.5034 306.774 26.6963 317.377C28.8402 327.745 34.0874 334.99 41.4688 337.771C48.8502 340.561 57.5728 338.593 66.0408 332.239C74.6948 325.738 81.9979 315.468 86.5892 303.318C91.1806 291.169 92.5022 278.637 90.2995 268.034C88.1556 257.666 82.9083 250.421 75.527 247.641C73.3341 246.819 71.0237 246.407 68.6448 246.407Z" fill="#E9EEF1"/>
<path d="M49.946 353.063C46.7937 353.063 43.7002 352.525 40.7339 351.408C26.8131 346.151 20.7729 331.828 22.7699 308.85L25.697 309.104C23.7978 330.917 29.0549 343.86 41.7716 348.667C60.3523 355.687 84.6013 337.212 95.8398 307.489C101.322 292.98 102.898 278.01 100.274 265.332C97.6998 252.898 91.3953 244.204 82.5161 240.846C71.6398 236.734 56.6714 244.469 42.4667 261.523L40.2151 259.644C55.4869 241.316 71.2776 233.455 83.5636 238.095C93.4217 241.816 100.382 251.283 103.162 264.735C105.894 277.952 104.278 293.499 98.6004 308.527C88.5269 335.157 68.184 353.063 49.946 353.063Z" fill="#E9EEF1"/>
<path d="M80.4703 308.4C74.1951 308.4 69.085 298.541 69.085 286.43C69.085 274.32 74.1951 264.461 80.4703 264.461C86.7455 264.461 91.8556 274.32 91.8556 286.43C91.8556 298.541 86.7455 308.4 80.4703 308.4ZM80.4703 265.234C74.6161 265.234 69.8583 274.741 69.8583 286.43C69.8583 298.12 74.6161 307.626 80.4703 307.626C86.3245 307.626 91.0823 298.12 91.0823 286.43C91.0823 274.741 86.3245 265.234 80.4703 265.234Z" fill="#E9EEF1"/>
<path d="M45.7367 341.726C37.7386 338.701 32.0802 330.976 29.809 319.972C27.5476 309.026 28.8888 296.132 33.6074 283.659C43.3579 257.852 64.6699 241.913 81.1067 248.13L80.8326 248.845C64.7874 242.785 43.9257 258.518 34.322 283.934C29.6622 296.269 28.321 309.016 30.5628 319.815C32.7851 330.555 38.277 338.084 46.0109 341.011L45.7367 341.726Z" fill="#E9EEF1"/>
<path d="M37.2202 335.147C36.995 335.147 36.809 335.117 36.6426 335.049L36.9363 334.334C40.1766 335.656 62.1152 317.974 76.0458 305.766L76.5549 306.343C73.0894 309.378 43.5051 335.147 37.2202 335.147Z" fill="#E9EEF1"/>
<path d="M73.7347 269.033C73.0592 267.359 63.064 255.786 59.2656 251.469L59.8432 250.96C60.4012 251.596 73.5879 266.605 74.4493 268.749L73.7347 269.033Z" fill="#E9EEF1"/>
<path d="M63.5936 336.135L63.2412 335.45C66.834 333.58 75.2335 315.958 78.004 310.171C78.6403 308.85 79.0221 308.047 79.1494 307.822L79.8151 308.204C79.6976 308.399 79.2864 309.281 78.699 310.495C75.6153 316.966 67.4214 334.148 63.5936 336.135Z" fill="#E9EEF1"/>
<path d="M457.87 392.88C454.904 392.88 451.987 392.371 449.197 391.323C430.293 384.176 423.939 354.473 435.031 325.102C440.367 310.984 448.883 299.01 459.026 291.403C469.363 283.64 480.161 281.3 489.442 284.805C498.722 288.31 505.272 297.209 507.895 309.878C510.46 322.302 508.943 336.909 503.608 351.026C494.151 376.05 475.012 392.88 457.87 392.88ZM480.651 286.146C474.297 286.146 467.474 288.721 460.788 293.743C451.086 301.027 442.912 312.531 437.782 326.139C427.258 353.993 432.848 382.003 450.234 388.572C452.721 389.512 455.325 389.963 457.988 389.963C473.886 389.963 491.84 373.838 500.857 349.969C505.996 336.37 507.474 322.331 505.017 310.455C502.609 298.815 496.706 290.679 488.404 287.536C485.937 286.616 483.333 286.146 480.651 286.146Z" fill="#E9EEF1"/>
<path d="M459.779 405.314C456.274 405.314 452.838 404.717 449.539 403.473C434.072 397.628 427.356 381.69 429.588 356.098L432.515 356.352C430.381 380.809 436.294 395.328 450.587 400.732C471.439 408.613 498.634 387.926 511.214 354.62C523.794 321.313 517.078 287.81 496.226 279.929C484.018 275.318 467.209 283.963 451.282 303.083L449.03 301.204C466.044 280.781 483.627 272.028 497.264 277.178C519.623 285.627 527.112 320.833 513.965 355.648C502.736 385.342 480.073 405.314 459.779 405.314Z" fill="#E9EEF1"/>
<path d="M493.866 355.54C486.876 355.54 481.198 344.545 481.198 331.035C481.198 317.524 486.886 306.539 493.866 306.539C500.846 306.539 506.544 317.534 506.544 331.035C506.544 344.536 500.856 355.54 493.866 355.54ZM493.866 307.313C487.307 307.313 481.962 317.955 481.962 331.044C481.962 344.134 487.307 354.776 493.866 354.776C500.435 354.776 505.77 344.134 505.77 331.044C505.77 317.955 500.435 307.313 493.866 307.313Z" fill="#E9EEF1"/>
<path d="M455.079 392.782C446.161 389.414 439.847 380.789 437.311 368.512C434.786 356.294 436.293 341.892 441.55 327.96C452.436 299.148 476.215 281.359 494.561 288.29L494.287 289.005C476.333 282.22 453.004 299.813 442.265 328.235C437.057 342.029 435.559 356.274 438.055 368.355C440.542 380.368 446.68 388.788 455.344 392.067L455.079 392.782Z" fill="#E9EEF1"/>
<path d="M445.554 385.43C445.31 385.43 445.094 385.391 444.918 385.322L445.212 384.607C448.853 386.086 473.376 366.329 488.952 352.681L489.461 353.259C485.594 356.646 452.544 385.43 445.554 385.43Z" fill="#E9EEF1"/>
<path d="M486.387 311.591C485.663 309.78 475.491 297.953 470.215 291.952L470.792 291.443C471.419 292.157 486.143 308.909 487.102 311.297L486.387 311.591Z" fill="#E9EEF1"/>
<path d="M468.581 409.249C463.04 409.249 457.509 408.026 452.017 405.578L452.33 404.873C462.775 409.524 473.397 409.67 483.892 405.284C500.162 398.5 514.465 381.435 523.138 358.477C529.59 341.393 531.616 324.113 528.836 309.819C526.075 295.643 518.85 285.676 508.493 281.76C508.052 281.593 507.573 281.407 507.064 281.202C504 279.998 499.8 278.353 497.049 278.637L496.971 277.873C499.917 277.57 504.215 279.254 507.348 280.487C507.857 280.683 508.336 280.869 508.767 281.035C519.389 285.049 526.78 295.212 529.59 309.662C532.399 324.093 530.363 341.52 523.853 358.731C515.101 381.895 500.642 399.116 484.176 405.979C479.007 408.163 473.789 409.249 468.581 409.249Z" fill="#E9EEF1"/>
<path d="M4.26858 409.289L1.46875 408.388C4.55248 398.823 13.8331 394.544 17.8468 393.977L18.258 396.884C16.0553 397.198 7.18589 400.233 4.26858 409.289Z" fill="#E9EEF1"/>
<path d="M456.638 470.713C456.628 470.713 456.628 470.713 456.618 470.713C274.247 470.684 125.405 439.394 69.8786 425.952L68.371 425.59C42.8886 419.451 27.9007 414.84 21.6745 408.036C15.2133 400.977 17.602 395.514 17.7097 395.279L18.4047 395.602C18.3852 395.651 16.1433 400.859 22.2423 407.517C28.3314 414.174 43.2214 418.746 68.5472 424.846L70.0548 425.208C125.552 438.65 274.325 469.92 456.618 469.95C456.628 469.95 456.628 469.95 456.638 469.95C482.962 469.95 572.527 460.071 593.575 454.843C596.443 454.128 636.503 453.238 638.206 453.198L638.226 453.972C637.805 453.982 596.551 454.902 593.771 455.597C572.684 460.825 483.011 470.713 456.638 470.713Z" fill="#E9EEF1"/>
<path d="M402.09 523.698C376.226 523.698 333.935 520.174 285.476 513.967C245.622 508.866 182.518 499.506 108.146 483.93L108.753 481.052C202.401 500.662 337.713 521.202 404.097 520.742C464.489 520.291 583.619 503.677 590.648 502.473C597.892 501.23 602.846 500.975 607.643 500.72C611.862 500.505 615.856 500.29 620.996 499.379L636.855 453.1L639.635 454.05L623.199 501.964L622.357 502.12C616.62 503.197 612.322 503.423 607.78 503.658C603.071 503.902 598.206 504.157 591.128 505.371C584.089 506.575 464.665 523.228 404.107 523.689C403.441 523.689 402.765 523.698 402.09 523.698Z" fill="#E9EEF1"/>
<path d="M108.136 483.93C102.654 482.785 97.1523 481.61 91.6407 480.415C36.6328 468.461 24.7286 462.107 19.0016 459.063C18.4143 458.749 17.8954 458.475 17.4059 458.23C12.7461 455.93 6.63733 437.818 5.95206 435.762C4.36614 430.984 -0.626575 414.898 1.46841 408.398L4.26824 409.298C3.07391 412.999 4.83604 423.024 8.7421 434.841C12.6677 446.688 16.8969 454.706 18.7079 455.597C19.2268 455.851 19.775 456.145 20.3918 456.468C26.0012 459.454 37.6607 465.671 92.2672 477.547C97.769 478.741 103.261 479.916 108.743 481.061L108.136 483.93Z" fill="#E9EEF1"/>
<path d="M413.005 593.004C394.874 593.004 374.708 592.593 352.339 591.624C351.164 591.575 349.754 591.516 348.09 591.457C335.637 590.987 309.714 590.008 265.779 585.524C210.379 579.865 122.703 563.124 61.1166 539.715C54.4303 537.17 49.8879 532.999 47.6363 527.321C42.9079 515.396 49.9368 500.662 50.0053 500.515L50.7004 500.848C50.6319 500.995 43.7498 515.425 48.3509 527.037C50.5242 532.51 54.9099 536.533 61.3907 539.001C122.909 562.38 210.506 579.112 265.857 584.77C309.773 589.254 335.677 590.233 348.119 590.703C349.783 590.762 351.203 590.821 352.378 590.87C433.475 594.414 485.898 590.498 515.6 586.601C547.779 582.372 560.956 577.242 561.083 577.193L561.572 576.997L561.582 577.153C564.911 574.579 587.799 543.132 602.63 512.763C604.51 508.905 621.201 500.691 621.916 500.348L622.258 501.043C622.092 501.132 605.097 509.483 603.325 513.105C588.523 543.426 563.804 578.084 561.298 578.084C561.279 578.084 561.269 578.084 561.259 578.084C561.2 578.074 561.151 578.054 561.093 578.025C559.027 578.779 545.459 583.458 515.767 587.365C494.22 590.175 460.71 593.004 413.005 593.004Z" fill="#E9EEF1"/>
<path d="M29.4488 461.819L28.7725 462.194L52.9349 505.764L53.6112 505.389L29.4488 461.819Z" fill="#E9EEF1"/>
<path d="M78.444 527.36C75.8889 527.36 73.5198 526.557 71.7283 524.57L71.6696 524.491L71.0626 523.277C70.9843 522.925 63.6225 487.983 58.1501 478.35C52.7658 468.873 46.383 468.177 46.3242 468.168L46.3927 467.404C46.6669 467.433 53.2259 468.119 58.8256 477.968C64.298 487.601 71.3759 521.016 71.8066 523.062L72.3353 524.08C76.2609 528.398 83.3094 526.479 88.5958 523.228L90.5244 522.044C89.5454 518.451 80.8033 486.387 81.048 483.754C81.3026 480.964 84.7192 477.361 84.866 477.204L85.424 477.733C85.3946 477.772 82.0466 481.287 81.8116 483.813C81.6158 485.967 88.6252 512.185 91.3467 522.112L91.4251 522.386L88.9972 523.875C85.7862 525.872 81.9389 527.36 78.444 527.36Z" fill="#E9EEF1"/>
<path d="M393.2 489.932C338.936 489.932 213.061 474.933 83.0647 446.678C20.1467 433.001 9.72076 424.943 4.12109 420.616L4.591 420.009C10.1417 424.297 20.4796 432.286 83.2311 445.924C214.863 474.531 342.235 489.511 395.276 489.158C455.727 488.708 574.964 472.074 582.003 470.87C596.864 468.324 617.755 467.414 632.341 467.414V468.187C617.784 468.187 596.942 469.088 582.13 471.633C575.092 472.838 455.776 489.481 395.285 489.932C394.6 489.922 393.905 489.932 393.2 489.932Z" fill="#E9EEF1"/>
<path d="M330.967 578.103C325.808 578.103 318.309 576.047 317.937 575.949L317.644 575.871L317.654 575.568C317.673 575.156 319.122 533.939 314.805 524.345C310.576 514.946 304.545 515.21 304.477 515.21L304.428 514.447C304.712 514.427 311.046 514.124 315.51 524.041C319.748 533.459 318.574 571.201 318.437 575.294C320.16 575.744 329 577.986 333.17 577.163C334.736 576.86 336.92 576.468 339.426 576.028C349.078 574.324 367.042 571.172 368.158 568.577C369.294 565.934 368.638 540.313 368.129 527.135L368.902 527.106C368.961 528.672 370.361 565.415 368.873 568.881C367.698 571.632 354.335 574.187 339.563 576.791C337.057 577.232 334.893 577.614 333.317 577.927C332.632 578.045 331.829 578.103 330.967 578.103Z" fill="#E9EEF1"/>
<path d="M437.273 578.524C428.296 578.524 418.556 578.299 418.066 577.34C418.027 577.261 418.007 577.163 418.017 577.085C417.626 576.302 417.058 573.835 415.726 567.794C412.966 555.292 408.355 534.38 403.881 531.354C397.439 526.998 370.44 526.694 368.677 527.468L368.374 526.763C370.616 525.784 397.733 526.263 404.322 530.708C409.05 533.9 413.71 555.008 416.49 567.618C417.479 572.102 418.419 576.341 418.742 576.781L418.986 577.026C421.228 577.653 434.777 578.005 453.035 577.565C463.422 577.32 489.393 576.439 506.016 573.717C517.108 571.906 526.251 568.675 528.111 567.99C527.534 566.237 525.057 558.268 524.352 549.584C523.295 536.524 526.741 527.771 534.308 524.296C552.272 516.042 603.913 511.098 604.431 511.049L604.5 511.813C603.981 511.862 552.468 516.796 534.631 525.001C517.039 533.087 528.836 567.745 528.963 568.088L529.081 568.44L528.728 568.577C528.63 568.616 518.606 572.435 506.134 574.471C489.227 577.242 462.854 578.103 452.301 578.338C451.674 578.368 444.743 578.524 437.273 578.524Z" fill="#E9EEF1"/>
<path d="M573.056 562.253H552.938L553.193 561.704L574.662 514.662L575.357 514.975L554.133 561.489H573.056V562.253Z" fill="#E9EEF1"/>
<path d="M411.801 600.866C394.297 600.866 375.05 600.474 353.993 599.554C352.818 599.505 351.409 599.446 349.744 599.387C337.282 598.917 311.34 597.938 267.365 593.445C211.896 587.786 124.103 571.005 62.4283 547.567C36.3586 537.659 48.5662 499.614 48.6935 499.232L51.4835 500.153C51.3661 500.505 40.0199 535.907 63.4758 544.826C124.896 568.176 212.376 584.888 267.668 590.527C311.555 595.011 337.429 595.98 349.862 596.45C351.526 596.509 352.945 596.568 354.12 596.617C435.051 600.151 489.061 595.863 520.113 591.643C553.77 587.071 568.464 581.598 568.611 581.54C582.963 576.899 596.042 550.123 611.176 519.117C613.007 515.367 620.692 500.162 620.77 500.006L623.394 501.328C623.316 501.484 615.641 516.669 613.82 520.399C598.391 552.002 585.058 579.298 569.59 584.301C569.061 584.506 554.622 589.891 520.72 594.512C497.597 597.684 461.836 600.866 411.801 600.866Z" fill="#E9EEF1"/>
<path d="M58.4932 505.958H53.2852V505.185H58.4932C60.5589 505.185 63.7992 499.438 64.8761 497.216L65.5711 497.548C65.1502 498.42 61.4106 505.958 58.4932 505.958Z" fill="#E9EEF1"/>
<path d="M823.914 502.395L823.082 502.385L821.927 494.817C821.878 494.504 821.623 492.311 821.633 491.214L821.985 488.737L824.913 488.512L824.668 491.899C824.531 492.281 824.55 492.614 824.668 492.996L825.97 503.08C826.019 503.726 825.539 503.305 824.893 503.354L823.914 502.395Z" fill="#E9EEF1"/>
<path d="M317.282 536.974C304.486 536.064 289.557 534.664 271.623 532.696C225.778 527.673 168.313 515.435 121.646 500.75L121.88 500.016C168.499 514.682 225.915 526.91 271.711 531.932C289.636 533.89 304.565 535.29 317.34 536.21L317.282 536.974Z" fill="#E9EEF1"/>
<path d="M317.585 540.322C312.21 539.98 306.885 539.608 300.815 539.157C252.151 535.554 191.798 524.619 143.31 510.628L143.525 509.894C191.974 523.875 252.268 534.791 300.883 538.394C306.943 538.844 312.269 539.216 317.643 539.559L317.585 540.322Z" fill="#E9EEF1"/>
<path d="M318.251 544.454C274.354 542.016 218.485 533.401 172.454 521.975L172.64 521.231C218.622 532.647 274.433 541.252 318.29 543.69L318.251 544.454Z" fill="#E9EEF1"/>
<path d="M104.543 508.445C102.429 500.045 97.299 483.362 92.9915 480.386C87.4114 476.519 81.616 478.428 81.5572 478.448L81.3125 477.723C81.567 477.635 87.5289 475.667 93.4321 479.75C99.0415 483.636 105.033 507.251 105.287 508.249L104.543 508.445Z" fill="#E9EEF1"/>
<path d="M109.046 508.445C106.932 500.045 101.802 483.362 97.5042 480.386C91.9339 476.529 86.1287 478.428 86.0699 478.457L85.8252 477.733C86.0797 477.645 92.0416 475.677 97.9448 479.76C103.554 483.646 109.545 507.261 109.8 508.259L109.046 508.445Z" fill="#E9EEF1"/>
<path d="M113.442 506.193C111.543 498.625 107.167 485.027 102.879 482.05C97.2893 478.183 91.5037 480.092 91.4449 480.112L91.2002 479.387C91.4547 479.299 97.4166 477.331 103.32 481.414C108.841 485.242 113.667 503.883 114.196 505.998L113.442 506.193Z" fill="#E9EEF1"/>
<path d="M117.475 502.913C116.28 498.185 113.06 488.522 109.467 482.745L110.123 482.344C113.764 488.199 117.024 497.96 118.229 502.737L117.475 502.913Z" fill="#E9EEF1"/>
<path d="M829.524 508.475L822.76 504.656L823.563 495.199L824.326 495.258L823.563 504.225L829.613 507.642L1132.69 410.767L1132.92 411.492L829.524 508.475Z" fill="#E9EEF1"/>
<path d="M740.761 583.047C739.322 583.047 737.883 582.969 736.444 582.812C718.333 580.815 702.758 566.423 692.587 542.3C682.533 518.461 678.92 487.866 682.415 456.155C685.91 424.444 696.101 395.377 711.109 374.298C726.292 352.965 744.628 342.313 762.739 344.32C780.85 346.317 796.425 360.709 806.597 384.833C816.651 408.672 820.263 439.267 816.768 470.978C813.273 502.688 803.082 531.756 788.075 552.835C774.095 572.464 757.443 583.047 740.761 583.047ZM758.432 347.013C742.719 347.013 726.909 357.165 713.497 376.002C698.774 396.679 688.769 425.257 685.333 456.478C678.264 520.624 701.329 575.979 736.767 579.885C753.762 581.755 771.139 571.544 785.686 551.121C800.41 530.444 810.415 501.866 813.851 470.645C820.919 406.499 797.855 351.144 762.416 347.238C761.094 347.091 759.763 347.013 758.432 347.013Z" fill="#E9EEF1"/>
<path d="M739.195 575.264C737.893 575.264 736.601 575.196 735.309 575.049C701.348 571.309 679.194 518.627 685.92 457.633C689.973 420.871 703.874 387.721 723.091 368.962L723.63 369.511C704.53 388.151 690.717 421.125 686.684 457.722C680.007 518.304 701.857 570.594 735.387 574.295C751.579 576.087 768.094 566.365 781.868 546.941C795.681 527.448 805.079 500.525 808.32 471.144C814.996 410.562 793.146 358.271 759.616 354.571C750.952 353.611 742.22 355.922 733.674 361.434L733.253 360.788C741.956 355.178 750.855 352.838 759.695 353.807C793.655 357.547 815.809 410.229 809.083 471.222C805.833 500.73 796.386 527.781 782.495 547.381C769.66 565.493 754.418 575.264 739.195 575.264Z" fill="#E9EEF1"/>
<path d="M723.64 369.501L723.102 368.953C726.381 365.751 729.798 363 733.263 360.768L733.684 361.414C730.258 363.617 726.88 366.339 723.64 369.501Z" fill="#E9EEF1"/>
<path d="M706.175 556.418L706.097 555.654C733.713 552.785 758.168 515.563 762.974 469.078C768.417 416.455 750.914 374.396 722.259 371.234L722.347 370.47C751.432 373.681 769.23 416.103 763.748 469.156C758.892 515.993 734.144 553.51 706.175 556.418Z" fill="#E9EEF1"/>
<path d="M715.064 562.419C713.654 562.419 712.254 562.341 710.854 562.194L710.943 561.43C727.095 563.212 744.443 554.381 758.559 537.199C773.117 519.489 782.73 495.277 785.628 469.029C791.648 414.38 769.269 366.916 735.74 363.215C734.252 363.049 732.744 362.971 731.266 362.99L731.256 362.217C732.783 362.197 734.31 362.285 735.828 362.452C769.788 366.192 792.471 414.047 786.401 469.108C783.494 495.502 773.821 519.851 759.166 537.679C746.087 553.588 730.238 562.409 715.064 562.419Z" fill="#E9EEF1"/>
<path d="M728.701 572.141C727.311 572.141 725.92 572.062 724.53 571.916L724.618 571.152C759.068 574.951 792.363 530.287 798.834 471.584C805.354 412.412 783.121 361.228 749.259 357.498C746.498 357.194 743.689 357.214 740.899 357.547L740.801 356.783C743.649 356.431 746.518 356.421 749.337 356.724C783.611 360.503 806.156 412.069 799.587 471.663C793.332 528.417 762.044 572.131 728.701 572.141Z" fill="#E9EEF1"/>
<path d="M723.572 488.336C714.281 488.336 706.724 476.891 706.724 462.822C706.724 448.753 714.281 437.309 723.572 437.309C732.862 437.309 740.42 448.753 740.42 462.822C740.42 476.891 732.862 488.336 723.572 488.336ZM723.572 438.072C714.712 438.072 707.497 449.174 707.497 462.822C707.497 476.47 714.712 487.572 723.572 487.572C732.431 487.572 739.646 476.47 739.646 462.822C739.646 449.174 732.441 438.072 723.572 438.072Z" fill="#E9EEF1"/>
<path d="M728.006 488.081C720.477 488.081 714.584 477.4 714.584 463.772C714.584 450.144 720.477 439.462 728.006 439.462C735.534 439.462 741.427 450.144 741.427 463.772C741.427 477.4 735.534 488.081 728.006 488.081ZM728.006 442.409C722.318 442.409 717.521 452.2 717.521 463.782C717.521 475.364 722.328 485.154 728.006 485.154C733.684 485.154 738.49 475.364 738.49 463.782C738.49 452.2 733.693 442.409 728.006 442.409Z" fill="#E9EEF1"/>
<path d="M726.048 438.072C725.911 438.072 725.695 438.033 725.499 437.818C724.09 436.31 724.765 425.139 726.048 406.939C727.105 391.931 728.201 376.413 727.027 372.037L727.771 371.841C728.975 376.344 727.878 391.921 726.821 406.998C725.891 420.127 724.746 436.477 726.087 437.318L726.048 438.072Z" fill="#E9EEF1"/>
<path d="M705.255 450.212C705.079 450.212 704.932 450.153 704.834 450.095C704.139 449.693 702.21 448.088 699.763 446.051C696.092 442.997 691.52 439.188 689.356 438.013L689.728 437.338C691.951 438.542 696.562 442.38 700.262 445.464C702.582 447.393 704.579 449.057 705.225 449.429C705.245 449.439 705.274 449.458 705.363 449.419C706.968 448.734 710.287 439.942 710.541 438.904C710.561 437.778 704.687 416.455 700.742 402.406L701.486 402.2C703.845 410.601 711.54 438.092 711.295 439.09C711.168 439.609 707.839 449.204 705.676 450.124C705.509 450.193 705.372 450.212 705.255 450.212Z" fill="#E9EEF1"/>
<path d="M707.508 390.573L706.747 390.712L715.686 439.738L716.447 439.599L707.508 390.573Z" fill="#E9EEF1"/>
<path d="M730.433 439.952L729.777 439.551C729.836 439.453 735.632 430.132 741.711 420.929C754.114 402.142 755.583 402.142 756.131 402.142V402.915C754.105 403.062 739.293 425.707 730.433 439.952Z" fill="#E9EEF1"/>
<path d="M740.204 455.558L739.861 454.872C742.074 453.756 761.624 444.025 764.306 444.485L764.169 445.239C762.28 444.896 748.819 451.23 740.204 455.558Z" fill="#E9EEF1"/>
<path d="M735.544 443.104L734.917 442.654C744.119 429.936 757.864 410.444 758.021 408.877L758.765 408.721C759.215 410.15 742.68 433.245 735.544 443.104Z" fill="#E9EEF1"/>
<path d="M755.906 500.985C753.978 499.507 737.11 479.113 736.386 478.242L736.983 477.752C743.043 485.076 754.888 499.232 756.376 500.368L755.906 500.985Z" fill="#E9EEF1"/>
<path d="M738.158 536.994C738.07 536.994 737.992 536.935 737.884 536.651L737.796 536.671C737.277 533.831 731.58 533.959 731.521 533.959L731.198 533.968L731.139 533.645L722.221 488.023L722.975 487.876L731.824 533.185C732.794 533.195 735.652 533.342 737.336 534.624C737.052 533.44 736.651 531.668 736.053 529.034L726.665 487.68L727.419 487.513C727.527 487.974 737.571 532.275 738.491 536.23C738.52 536.328 738.54 536.436 738.56 536.534L738.628 536.906L738.256 536.984C738.217 536.984 738.188 536.994 738.158 536.994Z" fill="#E9EEF1"/>
<path d="M699.244 545.178V544.405C706.371 544.405 713.703 502.639 715.926 486.554L716.689 486.662C716.366 489.06 708.495 545.178 699.244 545.178Z" fill="#E9EEF1"/>
<path d="M707.015 462.457L685.5 465.153L685.596 465.92L707.111 463.224L707.015 462.457Z" fill="#E9EEF1"/>
<path d="M712.317 481.317L689.284 514.61L689.92 515.05L712.953 481.757L712.317 481.317Z" fill="#E9EEF1"/>
<path d="M687.291 505.812L686.694 505.332L705.657 481.532C702.847 477.576 701.8 471.565 702.622 464.134C702.642 463.948 702.661 463.831 702.661 463.782L703.033 463.792V463.782L702.671 463.625L703.131 463.39C703.464 463.478 703.435 463.723 703.376 464.213C702.563 471.497 703.65 477.567 706.44 481.306L706.616 481.541L687.291 505.812Z" fill="#E9EEF1"/>
<path d="M707.879 538.961C706.939 538.961 705.999 538.883 705.089 538.717L705.226 537.963C715.906 539.901 729.328 529.328 729.739 528.329L729.945 528.417L730.483 528.31C730.532 528.564 730.375 528.838 729.915 529.308C727.683 531.579 717.208 538.961 707.879 538.961Z" fill="#E9EEF1"/>
<path d="M733.977 479.466C729.092 479.466 726.449 471.056 726.449 463.145C726.449 455.235 729.083 446.825 733.977 446.825C738.862 446.825 741.506 455.235 741.506 463.145C741.506 471.056 738.862 479.466 733.977 479.466ZM733.977 449.772C732.108 449.772 729.386 454.98 729.386 463.155C729.386 471.33 732.108 476.538 733.977 476.538C735.847 476.538 738.569 471.33 738.569 463.155C738.569 454.98 735.847 449.772 733.977 449.772Z" fill="#E9EEF1"/>
<path d="M734.036 602.765C732.176 602.765 730.316 602.667 728.446 602.462C682.925 597.439 652.724 531.355 661.133 455.137C665.196 418.247 677.589 384.51 696.023 360.132C714.496 335.695 736.846 323.594 758.931 326.012C804.453 331.035 834.654 397.119 826.245 473.337C822.182 510.227 809.788 543.964 791.355 568.342C774.428 590.713 754.271 602.765 734.036 602.765ZM753.341 326.472C733.341 326.472 713.4 338.407 696.63 360.592C678.284 384.862 665.94 418.462 661.896 455.215C653.536 531.012 683.434 596.725 728.535 601.688C750.356 604.097 772.431 592.084 790.738 567.872C809.084 543.602 821.428 510.002 825.471 473.249C833.832 397.452 803.934 331.749 758.833 326.776C757.013 326.57 755.172 326.472 753.341 326.472Z" fill="#E9EEF1"/>
<path d="M734.438 602.755C712.882 602.148 677.355 592.838 663.091 588.873C662.563 588.726 662.24 588.638 662.132 588.608C644.824 584.261 630.6 572.836 622.083 556.437C614.065 540.998 612.087 522.71 617.041 509.835L617.756 510.11C612.88 522.788 614.848 540.832 622.768 556.085C631.177 572.278 645.225 583.566 662.318 587.864C662.426 587.894 662.759 587.982 663.287 588.129C677.531 592.094 712.979 601.375 734.458 601.982L734.438 602.755Z" fill="#E9EEF1"/>
</svg>
