<svg width="1220" height="373" viewBox="0 0 1220 373" fill="none" xmlns="http://www.w3.org/2000/svg">
<g opacity="0.8">
<path d="M1213.33 233.919C1205.42 228.479 1191.39 223.499 1186.89 225.649C1185.6 226.269 1184.19 227.199 1183.51 227.659H1176.98V198.659C1176.98 189.409 1173.9 186.799 1170.91 184.279C1170.29 183.749 1169.64 183.209 1169.04 182.599C1165.46 179.019 1135.07 159.829 1133.78 159.009L1133.73 158.979C1134.93 154.919 1139.3 142.919 1150.4 137.259C1152.62 136.129 1155.26 134.899 1158.06 133.609C1173.2 126.589 1193.94 116.969 1201.34 99.4389C1202.68 96.2689 1203.42 91.7789 1202.33 90.9689C1202.19 90.8689 1201.84 90.6889 1201.35 91.0189L1079.73 88.8289L1079.72 89.2189L1079.47 88.9189C1079.35 89.0189 1072.85 94.2989 1066.08 99.8989H1023.76C1023.47 98.9789 1023.02 98.3189 1021.87 97.4589C1019.81 95.9089 994.042 83.6889 991.112 82.2989L989.172 81.3789L988.992 83.5289C988.992 83.5689 988.782 85.6489 988.092 88.1189C956.412 70.5289 837.832 26.0889 827.112 22.0889C826.652 19.1489 826.062 17.9789 824.812 17.6989C749.062 0.888884 683.872 -1.01112 642.523 0.358882C598.603 1.80888 568.552 7.35888 566.592 8.92888L565.992 9.43888V10.1589C565.992 10.3989 566.042 10.7589 566.133 11.3189C553.383 18.5089 465.563 69.3989 433.533 101.879C431.333 100.489 430.543 100.159 429.993 100.159C427.913 100.159 409.973 105.959 404.533 107.729L403.973 107.909L399.553 115.759C397.743 115.989 394.343 116.449 389.883 117.069C364.873 120.489 306.313 128.509 289.213 127.829C271.263 127.119 150.303 138.419 113.663 141.909C108.313 142.419 103.623 145.999 101.733 151.019C94.7825 169.469 85.4725 188.979 81.1325 190.579C59.0625 198.719 31.9325 216.579 31.6625 216.759L28.8625 218.609C23.6925 218.889 14.3825 220.309 7.69251 225.599C3.14251 229.199 0.592509 233.999 0.102509 239.879C-0.177491 243.259 0.132509 246.179 0.832509 248.709V248.889H0.882509C1.84251 252.249 3.51251 254.899 5.46251 256.989V257.079H5.55251C11.0925 262.929 18.8125 264.279 18.9625 264.299L30.3425 265.269L30.1125 274.019H21.6725L21.6125 274.339C21.5825 274.509 18.4825 291.729 34.3825 296.529L34.4425 296.549L39.1325 296.479L39.9925 307.269C37.2625 308.179 34.1925 316.109 32.0725 322.699L31.4325 324.679L152.013 323.659L153.383 323.639L153.413 323.299L182.393 323.859C198.042 352.429 228.403 371.849 263.223 371.849C298.363 371.849 328.973 352.059 344.493 323.039L369.453 322.559L369.343 323.669L788.823 321.149L788.893 320.639L820.453 321.369C835.612 351.489 866.812 372.209 902.773 372.209C937.343 372.209 967.523 353.059 983.273 324.799L1011.97 324.249L1011.96 324.649L1013.5 324.659C1023.74 324.709 1043.91 324.789 1063.86 324.789C1090.66 324.789 1117.09 324.639 1118.56 324.049C1121.55 322.849 1120.93 317.029 1120.14 313.139C1123.88 309.439 1128.29 305.489 1129.79 304.729C1130.51 305.189 1131.98 306.449 1133.1 307.399C1135.95 309.819 1137.78 311.309 1139.06 311.699C1139.95 311.969 1142.98 311.889 1154.56 311.429C1164.64 311.029 1177.18 310.529 1181.63 310.949C1182.49 311.029 1183.36 310.739 1184 310.159C1184.63 309.579 1185 308.759 1185 307.899V294.649H1190.5C1191.31 294.649 1192.66 294.649 1218.1 267.169L1218.42 266.819L1218.48 266.349C1218.84 263.659 1221.85 239.779 1213.33 233.919ZM1177.07 282.089H1161.9V282.079L1161.51 282.089H1136.92V273.229L1181.02 273.169C1181.39 279.979 1177.63 281.849 1177.07 282.089ZM1174.43 301.909L1174.58 307.809C1172.68 307.829 1170.6 307.869 1168.41 307.939V293.299C1169.92 295.289 1172.61 299.199 1174.43 301.909ZM1174.84 301.109C1171.08 295.519 1169.29 293.099 1168.4 292.049V292.039C1173.11 292.119 1178.95 292.219 1181.69 292.269L1174.84 301.109ZM1161.12 291.359C1149.54 291.539 1144.77 291.659 1142.78 291.749L1154 283.119L1161.12 282.889V291.359ZM817.542 245.189L803.013 244.849L802.992 245.639L817.212 245.969C816.852 246.869 816.503 247.779 816.172 248.699L801.513 248.389C802.343 245.939 803.253 243.509 804.242 241.109L804.232 241.779L818.883 242.099C818.422 243.109 817.972 244.139 817.542 245.189ZM812.703 299.429C812.913 300.409 813.133 301.369 813.372 302.339L791.323 301.799L792.143 295.489L811.612 295.999L811.633 295.209L792.242 294.709L793.133 287.899L811.032 288.529C811.112 289.459 811.213 290.389 811.323 291.309L792.992 290.649L792.962 291.439L811.422 292.109C811.712 294.319 812.073 296.499 812.513 298.659L791.823 298.129L791.802 298.919L812.703 299.429ZM816.833 313.259L789.943 312.459L790.292 309.739L815.812 310.489C816.133 311.419 816.473 312.339 816.833 313.259ZM369.753 318.199L346.673 318.639C347.123 317.669 347.562 316.699 347.983 315.719L369.873 315.299C369.843 316.389 369.803 317.359 369.753 318.199ZM188.973 225.319L179.763 225.079L179.743 225.869L188.413 226.089C187.763 226.989 187.133 227.909 186.513 228.839L177.803 228.629C179.732 224.559 181.012 222.379 181.253 221.979L191.413 222.159C190.573 223.199 189.762 224.249 188.973 225.319ZM172.403 264.409L164.883 264.479C165.523 262.199 166.163 259.999 166.793 257.919L173.703 258.099C173.513 258.899 173.323 259.699 173.153 260.509L166.143 260.359L166.123 261.149L172.983 261.299C172.763 262.319 172.583 263.369 172.403 264.409ZM154.313 315.989L178.813 316.579C179.243 317.559 179.683 318.539 180.153 319.509L153.903 318.959C154.003 318.159 154.143 317.189 154.313 315.989ZM154.423 315.209C154.443 315.089 154.452 314.989 154.473 314.869C154.592 314.059 154.713 313.289 154.833 312.489L177.363 313.059C177.723 313.969 178.083 314.879 178.473 315.779L154.423 315.209ZM154.943 311.709C155.083 310.789 155.213 309.859 155.363 308.959L176.003 309.359C176.333 310.339 176.693 311.309 177.063 312.279L154.943 311.709ZM155.493 308.179C155.643 307.239 155.793 306.329 155.943 305.399L174.863 305.759C175.143 306.699 175.433 307.629 175.733 308.559L155.493 308.179ZM156.073 304.619C156.243 303.619 156.413 302.639 156.583 301.659L173.863 302.059C174.103 303.039 174.363 304.009 174.633 304.979L156.073 304.619ZM163.613 269.109L171.693 269.429C171.592 270.339 171.503 271.259 171.423 272.179L162.903 271.859C163.143 270.929 163.383 270.009 163.613 269.109ZM161.143 279.059C161.363 278.129 161.573 277.229 161.793 276.329L171.173 276.629C171.143 277.549 171.123 278.469 171.123 279.399L161.143 279.059ZM162.713 272.639L171.373 272.969C171.303 273.929 171.253 274.889 171.213 275.849L161.993 275.559C162.223 274.569 162.463 273.589 162.713 272.639ZM160.973 279.839L171.123 280.179C171.123 281.189 171.153 282.199 171.193 283.209L160.253 283.009C160.482 281.929 160.723 280.889 160.973 279.839ZM160.083 283.789L171.223 283.999C171.262 284.899 171.312 285.799 171.383 286.699L159.563 286.199C159.733 285.389 159.903 284.579 160.083 283.789ZM159.393 286.979L171.453 287.489C171.533 288.469 171.633 289.439 171.743 290.409L158.793 289.899C158.993 288.919 159.193 287.939 159.393 286.979ZM158.633 290.679L171.833 291.199C171.952 292.129 172.083 293.059 172.223 293.989L158.083 293.469C158.262 292.519 158.443 291.599 158.633 290.679ZM156.713 300.879C156.873 299.979 157.033 299.059 157.193 298.169L172.723 298.619L172.743 297.829L157.333 297.389C157.533 296.329 157.732 295.289 157.923 294.249L172.343 294.779C172.703 296.969 173.143 299.139 173.653 301.279L156.713 300.879ZM171.793 268.649L163.833 268.329C164.113 267.299 164.383 266.259 164.663 265.269L172.283 265.199C172.092 266.339 171.933 267.489 171.793 268.649ZM173.893 257.319L167.033 257.139C167.363 256.079 167.682 255.039 168.003 254.029L174.733 254.189C174.433 255.219 174.152 256.259 173.893 257.319ZM174.963 253.399L168.253 253.239C168.592 252.199 168.923 251.189 169.253 250.199L175.923 250.339C175.592 251.359 175.273 252.379 174.963 253.399ZM176.203 249.569L169.523 249.429C169.803 248.589 170.093 247.769 170.373 246.979L177.093 247.149C176.783 247.949 176.483 248.759 176.203 249.569ZM177.383 246.369L170.643 246.199C171.023 245.119 171.403 244.079 171.773 243.079L178.663 243.269C178.223 244.289 177.793 245.319 177.383 246.369ZM179.003 242.489L172.063 242.299C172.413 241.359 172.763 240.459 173.103 239.579L180.263 239.769C179.833 240.659 179.413 241.569 179.003 242.489ZM180.653 238.989L173.413 238.799C173.773 237.879 174.133 236.999 174.473 236.159L181.993 236.369C181.533 237.229 181.083 238.099 180.653 238.989ZM182.423 235.589L174.803 235.379C175.133 234.589 175.463 233.819 175.773 233.099L183.713 233.329C183.263 234.079 182.833 234.829 182.423 235.589ZM184.163 232.559L176.113 232.329C176.573 231.279 177.023 230.299 177.433 229.409L186.003 229.619C185.372 230.589 184.753 231.569 184.163 232.559ZM192.033 221.389L181.703 221.199C182.163 220.419 182.793 219.399 183.633 218.179L194.653 218.349C193.753 219.339 192.872 220.349 192.033 221.389ZM195.343 217.569L184.173 217.399C184.712 216.639 185.313 215.829 185.993 214.959L197.673 215.129C196.872 215.929 196.103 216.749 195.343 217.569ZM198.433 214.359L186.593 214.179C187.383 213.199 188.263 212.149 189.233 211.069L201.723 211.249C200.603 212.259 199.503 213.299 198.433 214.359ZM202.593 210.479L189.933 210.299C190.753 209.409 191.633 208.489 192.573 207.549L205.853 207.749C204.753 208.639 203.663 209.549 202.593 210.479ZM206.843 206.979L193.373 206.779C194.563 205.639 195.843 204.469 197.213 203.289L211.483 203.589C209.903 204.679 208.353 205.809 206.843 206.979ZM212.623 202.839L198.123 202.529C199.243 201.599 200.432 200.669 201.673 199.739L217.043 200.089C215.543 200.969 214.073 201.879 212.623 202.839ZM218.363 199.339L202.693 198.979C204.193 197.889 205.783 196.799 207.463 195.739L224.703 196.109C222.543 197.109 220.433 198.189 218.363 199.339ZM226.373 195.359L208.713 194.979C210.023 194.179 211.383 193.379 212.803 192.609L232.243 193.029C230.253 193.739 228.293 194.519 226.373 195.359ZM234.393 192.279L214.223 191.849C216.122 190.849 218.113 189.879 220.213 188.949L244.723 189.519C241.193 190.249 237.753 191.169 234.393 192.279ZM221.953 188.209C224.433 187.159 227.053 186.179 229.803 185.259L305.783 186.969C308.103 188.059 310.333 189.239 312.493 190.499L283.283 189.859C276.823 188.419 270.103 187.649 263.213 187.649C258.173 187.649 253.223 188.059 248.393 188.849V188.819L221.953 188.209ZM244.813 181.389L293.483 182.359C297.153 183.409 300.653 184.679 303.983 186.149L232.113 184.529C236.062 183.309 240.293 182.249 244.813 181.389ZM248.813 180.679C253.303 179.969 258.043 179.439 263.073 179.149C273.043 178.589 282.103 179.489 290.323 181.509L248.813 180.679ZM313.853 191.319C315.462 192.299 317.023 193.329 318.543 194.399L296.453 193.869C293.323 192.649 290.103 191.599 286.823 190.729L313.853 191.319ZM319.683 195.209C320.833 196.049 321.953 196.899 323.043 197.779L304.363 197.379C302.453 196.419 300.503 195.529 298.523 194.699L319.683 195.209ZM324.033 198.589C325.003 199.389 325.953 200.189 326.873 201.019L311.233 200.619L311.223 201.189C309.513 200.139 307.753 199.139 305.973 198.199L324.033 198.589ZM327.763 201.829C328.723 202.709 329.663 203.599 330.573 204.509L315.913 204.269C314.493 203.279 313.053 202.319 311.573 201.409L327.763 201.829ZM331.373 205.299C332.463 206.409 333.523 207.529 334.553 208.669L322.153 208.399L322.143 209.039C320.493 207.659 318.783 206.339 317.043 205.069L331.373 205.299ZM335.263 209.469C336.143 210.459 337.003 211.469 337.833 212.479L326.373 212.209L326.363 212.779C325.053 211.539 323.703 210.349 322.323 209.189L335.263 209.469ZM338.503 213.279C339.433 214.419 340.323 215.579 341.193 216.739L330.093 216.499C328.963 215.299 327.803 214.139 326.603 212.999L338.503 213.279ZM341.783 217.539C342.533 218.549 343.253 219.569 343.953 220.589L333.793 220.679C332.833 219.529 331.842 218.409 330.823 217.309L341.783 217.539ZM344.113 220.809C344.963 222.039 345.773 223.269 346.563 224.499L336.903 224.569C336.113 223.509 335.293 222.469 334.453 221.449L344.123 221.369L344.113 220.809ZM347.053 225.279C347.703 226.309 348.333 227.339 348.933 228.359L339.433 228.129C338.793 227.189 338.133 226.269 337.463 225.349L347.053 225.279ZM349.403 229.159C349.993 230.159 350.553 231.159 351.103 232.159L341.893 231.949C341.273 230.929 340.623 229.929 339.973 228.939L349.403 229.159ZM351.543 232.949C352.173 234.109 352.773 235.249 353.353 236.389L344.333 236.199C343.703 235.029 343.043 233.879 342.373 232.739L351.543 232.949ZM353.753 237.189C354.273 238.229 354.773 239.249 355.253 240.259L346.433 240.339C345.893 239.209 345.333 238.099 344.753 236.999L353.753 237.189ZM355.623 241.039C356.123 242.099 356.592 243.139 357.043 244.159L348.183 244.239C347.743 243.189 347.283 242.149 346.803 241.119L355.623 241.039ZM357.383 244.949C357.813 245.939 358.223 246.909 358.613 247.859L349.643 247.939C349.283 246.959 348.903 245.989 348.503 245.029L357.383 244.949ZM358.933 248.639C359.483 250.009 359.993 251.319 360.463 252.579L351.243 252.659C350.833 251.329 350.393 250.019 349.923 248.719L358.933 248.639ZM360.753 253.349C361.043 254.139 361.312 254.909 361.573 255.649C361.652 255.879 361.723 256.109 361.803 256.339L352.313 256.419C352.053 255.419 351.773 254.419 351.473 253.429L360.753 253.349ZM362.063 257.129C362.383 258.089 362.693 259.039 362.983 259.999L353.183 260.079C352.973 259.119 352.753 258.159 352.513 257.209L362.063 257.129ZM414.513 281.679C414.443 280.839 414.253 278.569 413.993 275.229C426.083 275.289 529.073 275.819 601.133 275.819C637.992 275.819 666.753 275.679 671.112 275.269L671.412 282.089L486.043 281.789C483.062 281.779 481.343 281.769 481.163 281.769L414.703 281.679H414.513ZM411.203 168.459C413.023 158.319 418.653 144.669 435.083 137.189C448.603 131.039 467.353 128.359 467.533 128.339V128.309L515.893 128.909C519.033 137.609 530.292 168.459 533.503 172.749C534.972 174.709 536.622 175.409 538.042 175.409C538.823 175.409 539.542 175.199 540.112 174.869C541.883 173.859 543.182 171.289 541.842 168.029C541.052 166.109 530.062 135.719 527.652 129.059L733.222 131.599C733.872 133.139 737.552 142.169 737.092 148.479C735.102 176.019 713.802 218.149 704.712 236.139C703.172 239.179 702.062 241.379 701.462 242.689C695.712 255.209 677.872 273.179 671.412 274.469C665.042 275.739 429.313 274.549 413.933 274.469C412.213 252.289 407.673 188.119 411.203 168.459ZM830.552 43.7689C829.833 43.2989 829.273 40.8089 828.833 37.8789L983.182 95.8389C981.802 96.5889 980.223 96.7089 978.383 96.2089C967.763 93.3089 837.522 46.3789 830.552 43.7689ZM829.953 46.7389C838.883 49.9789 966.503 96.0789 977.602 99.1089C978.682 99.4089 979.732 99.5389 980.722 99.5089L980.662 99.6389C981.492 100.019 1063.68 137.869 1066.32 139.179C1067.11 139.569 1150.69 184.229 1152.55 186.099C1152.92 186.479 1153.31 186.849 1153.7 187.229C1156.63 190.039 1160.18 193.439 1160.97 204.509L1099.16 204.099H1098.91L1086.58 229.289L992.302 228.779C986.232 218.509 978.472 208.789 968.542 200.859V200.729H968.372C965.513 198.459 962.492 196.319 959.263 194.379C927.052 174.939 890.282 172.659 852.922 187.769C806.372 206.599 795.112 249.599 790.503 284.969L790.323 286.309V285.819L783.552 285.789C783.633 282.459 784.753 257.949 799.172 230.339C805.513 218.209 818.223 205.939 823.643 200.709C826.593 197.859 826.703 197.739 826.552 197.359L826.402 197.119L826.162 197.099C826.082 197.089 825.762 196.989 825.462 196.879C815.592 193.489 804.213 195.269 791.633 202.149C771.393 213.219 759.802 227.849 752.133 237.529L750.842 239.159C749.162 241.269 747.193 243.889 745.112 246.669C734.883 260.289 720.872 278.939 709.073 281.449C707.443 281.799 693.042 281.989 672.193 282.089L671.893 275.129C679.742 273.129 697.222 253.769 702.172 242.999C702.772 241.699 703.872 239.509 705.412 236.479C714.532 218.449 735.883 176.219 737.872 148.529C738.323 142.309 735.013 133.849 734.073 131.599L812.453 132.569C813.473 132.619 914.872 137.959 952.422 142.569C989.972 147.179 1049.79 158.949 1050.39 159.069L1050.54 158.299C1049.94 158.179 990.093 146.409 952.513 141.789C914.932 137.169 813.503 131.839 812.472 131.789L527.352 128.269C527.312 128.169 527.293 128.109 527.273 128.039C601.003 128.529 748.022 129.459 791.052 129.459C797.643 129.459 801.802 129.439 802.872 129.389C832.023 128.069 887.092 123.039 894.282 120.599C900.392 118.529 904.542 113.999 905.133 108.769C905.533 105.199 904.503 98.1889 893.203 91.2789C874.793 80.0189 807.092 56.2989 780.232 48.7089C751.402 40.5789 712.052 30.9989 663.212 29.1789C617.682 27.4789 591.242 28.4889 583.532 29.1089C588.682 26.4389 599.062 23.1489 619.852 21.5589C710.862 14.5889 813.503 42.1089 829.953 46.7389ZM1173.98 229.759L1161.87 229.689C1161.85 227.909 1161.8 220.939 1161.9 210.159C1161.92 208.399 1161.88 206.789 1161.79 205.299L1173.98 205.379V229.759ZM1161.12 210.149C1161.01 220.919 1161.07 227.889 1161.09 229.679L1087.45 229.279L1099.4 204.879L1161.02 205.289C1161.1 206.779 1161.14 208.389 1161.12 210.149ZM1082.91 236.769H1012.37C1011.71 236.649 1000.49 232.459 992.802 229.559L1086.2 230.069L1082.91 236.769ZM902.753 188.019C898.403 188.019 894.133 188.329 889.943 188.919L859.992 188.299C862.693 187.339 865.393 186.469 868.083 185.699L937.253 187.189C939.653 188.049 942.023 188.999 944.383 190.029L919.333 189.519C913.953 188.539 908.412 188.019 902.753 188.019ZM881.122 182.679L925.073 183.619C928.353 184.369 931.603 185.279 934.823 186.349L870.732 184.969C874.202 184.059 877.672 183.289 881.122 182.679ZM885.583 181.989C897.603 180.339 909.432 180.589 920.922 182.749L885.583 181.989ZM789.133 295.409L789.083 295.809L372.483 295.699V296.009C372.243 292.539 371.883 288.839 371.383 284.979L790.292 286.599L789.242 294.629L788.912 294.619L788.893 295.409H789.133ZM355.043 286.669L368.513 286.219C368.633 287.199 368.753 288.159 368.853 289.119L354.773 289.589C354.883 288.619 354.973 287.649 355.043 286.669ZM354.693 290.379L368.943 289.899C369.043 290.849 369.133 291.779 369.213 292.699L354.323 293.169C354.463 292.239 354.583 291.309 354.693 290.379ZM368.423 285.439L355.103 285.889C355.163 284.999 355.203 284.099 355.243 283.199L368.083 282.959C368.193 283.789 368.313 284.619 368.423 285.439ZM355.263 282.399C355.293 281.519 355.303 280.639 355.303 279.749C355.303 279.629 355.303 279.519 355.303 279.399L367.483 279.119C367.653 280.139 367.813 281.149 367.963 282.159L355.263 282.399ZM354.213 293.959L369.283 293.479C369.373 294.559 369.453 295.619 369.523 296.659L353.673 297.019C353.873 296.009 354.053 294.989 354.213 293.959ZM372.953 311.759H372.973L372.953 310.979C372.983 306.949 372.883 302.019 372.513 296.489L788.982 296.599L786.992 311.869L372.953 311.759ZM795.943 269.889L811.172 270.329C811.073 271.299 810.982 272.279 810.902 273.259L795.383 272.819C795.573 271.839 795.753 270.869 795.943 269.889ZM810.742 284.029L793.732 283.399C793.842 282.629 793.943 281.849 794.062 281.069L810.672 281.339C810.682 282.239 810.712 283.139 810.742 284.029ZM795.263 273.599L810.862 274.039C810.802 274.959 810.753 275.879 810.722 276.809L794.792 276.339C794.943 275.429 795.103 274.519 795.263 273.599ZM794.672 277.119L810.693 277.589C810.672 278.429 810.652 279.269 810.652 280.109C810.652 280.259 810.652 280.399 810.662 280.549L794.182 280.279C794.333 279.239 794.503 278.179 794.672 277.119ZM793.472 285.349C793.522 284.959 793.583 284.569 793.633 284.179L810.773 284.819C810.823 285.799 810.892 286.769 810.972 287.739L793.242 287.119L793.472 285.349ZM811.273 269.539L796.102 269.099C796.282 268.199 796.462 267.309 796.652 266.409L811.622 266.859C811.482 267.749 811.372 268.639 811.273 269.539ZM516.453 128.109C516.432 128.049 516.413 127.989 516.393 127.939C519.562 127.959 522.922 127.979 526.453 128.009C526.473 128.059 526.492 128.129 526.532 128.239L516.453 128.109ZM526.823 129.029C529.052 135.189 540.302 166.319 541.122 168.309C542.282 171.129 541.212 173.329 539.732 174.169C538.383 174.939 536.112 174.889 534.133 172.259C531.062 168.159 519.982 137.879 516.742 128.909L526.823 129.029ZM607.912 31.2789L573.462 125.309C572.272 125.299 571.092 125.289 569.912 125.289L604.342 31.3289C605.492 31.3089 606.682 31.2989 607.912 31.2789ZM779.412 51.5989C806.142 59.1489 873.432 82.6989 891.652 93.8189C898.982 98.2889 902.712 103.479 902.162 108.409C901.712 112.469 898.333 116.039 893.333 117.729C886.983 119.879 833.643 124.959 802.742 126.359C800.003 126.479 776.473 126.429 743.333 126.279L768.883 48.6989C772.542 49.6789 776.052 50.6489 779.412 51.5989ZM742.523 126.279C741.492 126.279 740.443 126.269 739.393 126.269L765.253 47.7489C766.222 47.9989 767.182 48.2589 768.133 48.5089L742.523 126.279ZM738.562 126.269C736.003 126.259 733.392 126.249 730.732 126.229L757.253 45.7189C759.722 46.3289 762.133 46.9389 764.492 47.5489L738.562 126.269ZM729.912 126.229C728.992 126.229 728.073 126.219 727.143 126.219L753.922 44.9189C754.782 45.1289 755.643 45.3289 756.492 45.5389L729.912 126.229ZM726.312 126.209C680.532 125.979 622.182 125.629 574.302 125.319L608.763 31.2789C622.013 31.1589 640.092 31.3189 663.102 32.1789C698.162 33.4889 728.312 38.8189 753.152 44.7289L726.312 126.209ZM582.972 32.1589C585.822 31.8889 592.653 31.5189 603.503 31.3389L569.083 125.279C551.603 125.169 535.682 125.059 522.513 124.979L513.003 99.6289C544.912 67.3189 578.862 33.7689 582.972 32.1589ZM510.683 101.989L519.302 124.969C504.572 124.869 493.643 124.799 488.363 124.759C495.313 117.609 502.913 109.859 510.683 101.989ZM515.552 127.939C515.573 127.999 515.592 128.039 515.612 128.099L486.223 127.739C490.243 127.769 500.723 127.839 515.552 127.939ZM413.793 282.459L486.183 282.579C510.843 282.699 615.283 283.159 672.143 282.879H672.232C693.112 282.779 707.562 282.569 709.232 282.219C721.323 279.649 735.432 260.859 745.732 247.139C747.812 244.369 749.783 241.749 751.453 239.649L752.742 238.019C760.372 228.389 771.903 213.829 792.003 202.839C804.383 196.069 815.552 194.319 825.203 197.629C825.333 197.669 825.432 197.709 825.532 197.739C825.072 198.229 824.132 199.139 823.092 200.149C817.642 205.409 804.862 217.739 798.472 229.979C783.972 257.749 782.853 282.429 782.763 285.789L371.273 284.199C371.213 283.769 371.153 283.329 371.093 282.899L383.783 282.659V282.419L413.793 282.459ZM355.293 278.619C355.283 277.689 355.253 276.759 355.223 275.829L366.833 275.529C367.013 276.469 367.183 277.409 367.343 278.339L355.293 278.619ZM355.183 275.049C355.133 274.079 355.062 273.119 354.983 272.159L366.073 271.829C366.283 272.809 366.483 273.779 366.673 274.749L355.183 275.049ZM354.923 271.379C354.843 270.469 354.743 269.559 354.633 268.649L365.273 268.339C365.493 269.249 365.703 270.149 365.903 271.049L354.923 271.379ZM354.543 267.869C354.423 266.969 354.293 266.079 354.153 265.179L364.463 265.089C364.683 265.909 364.893 266.739 365.093 267.549L354.543 267.869ZM354.023 264.399C353.823 263.219 353.603 262.039 353.363 260.869L363.233 260.789C363.592 261.969 363.933 263.139 364.253 264.319L354.023 264.399ZM353.633 297.269L353.643 297.809L369.583 297.449C369.643 298.369 369.693 299.259 369.733 300.139L352.963 300.459C353.203 299.409 353.423 298.339 353.633 297.269ZM352.763 301.249L369.763 300.919C369.812 301.909 369.843 302.869 369.873 303.809L352.013 304.149C352.283 303.199 352.533 302.229 352.763 301.249ZM350.693 308.539L369.803 308.169L369.783 307.379L350.943 307.739C351.243 306.809 351.523 305.879 351.793 304.939L369.893 304.589C369.953 306.919 369.973 309.079 369.953 311.019L349.663 311.459C350.033 310.509 350.363 309.529 350.693 308.539ZM349.373 312.269L369.953 311.829C369.943 312.779 369.923 313.689 369.903 314.529L348.313 314.939C348.683 314.049 349.033 313.159 349.373 312.269ZM372.943 312.549L786.883 312.659L786.513 315.479L372.873 315.369C372.903 314.499 372.923 313.559 372.943 312.549ZM815.532 309.689L790.402 308.949L790.763 306.199L814.592 306.719C814.882 307.719 815.192 308.709 815.532 309.689ZM790.852 305.419L791.222 302.579L813.562 303.119C813.802 304.059 814.072 304.999 814.342 305.929L790.852 305.419ZM811.722 266.079L796.812 265.629C797.042 264.569 797.282 263.499 797.532 262.439L812.152 262.709L812.172 261.919L797.722 261.649C797.922 260.809 798.133 259.959 798.352 259.119L813.003 259.429C812.492 261.619 812.072 263.839 811.722 266.079ZM813.193 258.659L798.552 258.349C798.792 257.429 799.042 256.499 799.302 255.579L813.893 255.919C813.643 256.819 813.412 257.739 813.193 258.659ZM814.102 255.129L799.523 254.789C799.753 253.999 799.982 253.209 800.222 252.419L814.802 252.729C814.562 253.529 814.332 254.329 814.102 255.129ZM815.062 251.959L800.462 251.649C800.762 250.699 801.073 249.739 801.393 248.789L801.383 249.159L815.902 249.469C815.612 250.299 815.333 251.129 815.062 251.959ZM819.253 241.299L804.302 240.979C804.722 239.949 805.162 238.919 805.612 237.899L805.592 238.589L820.402 238.909C820.012 239.699 819.622 240.499 819.253 241.299ZM820.802 238.129L805.662 237.809C806.132 236.749 806.622 235.699 807.133 234.649L822.492 234.999C821.912 236.029 821.342 237.069 820.802 238.129ZM822.932 234.229L807.523 233.869C808.073 232.759 808.642 231.659 809.232 230.559L824.943 230.899C824.253 231.989 823.573 233.099 822.932 234.229ZM825.443 230.119L809.652 229.779C810.102 228.969 810.562 228.169 811.032 227.369L827.032 227.749C826.492 228.539 825.963 229.319 825.443 230.119ZM827.573 226.979L811.492 226.599C811.962 225.829 812.443 225.059 812.932 224.299L829.273 224.669C828.693 225.429 828.122 226.199 827.573 226.979ZM829.862 223.899L813.432 223.529C814.003 222.669 814.583 221.819 815.182 220.969L831.912 221.349C831.212 222.179 830.532 223.029 829.862 223.899ZM832.552 220.569L815.722 220.189C816.482 219.139 817.263 218.099 818.073 217.079L835.302 217.479C834.362 218.489 833.453 219.519 832.552 220.569ZM836.023 216.709L818.693 216.309C819.323 215.529 819.973 214.769 820.633 214.009L838.312 214.389C837.542 215.149 836.773 215.919 836.023 216.709ZM821.312 213.239C822.052 212.409 822.802 211.589 823.583 210.779L841.722 211.209C840.762 212.069 839.812 212.939 838.883 213.829V213.609L821.312 213.239ZM842.592 210.439L824.362 210.009C825.122 209.239 825.902 208.479 826.712 207.729L845.362 208.149C844.422 208.899 843.492 209.659 842.592 210.439ZM846.323 207.389L827.552 206.969C828.513 206.099 829.492 205.249 830.513 204.419L849.753 204.849C848.583 205.669 847.443 206.519 846.323 207.389ZM831.443 203.649C832.432 202.859 833.453 202.089 834.492 201.329L854.372 201.789C853.052 202.609 851.753 203.459 850.472 204.339L850.482 204.079L831.443 203.649ZM855.612 201.029L835.532 200.569C836.782 199.689 838.082 198.839 839.402 198.009L860.212 198.459C858.652 199.269 857.122 200.129 855.612 201.029ZM840.652 197.239C842.132 196.349 843.642 195.479 845.212 194.649V194.889L866.823 195.309C864.872 196.139 862.953 197.039 861.073 197.999L861.083 197.679L840.652 197.239ZM868.643 194.569L846.203 194.129C847.932 193.249 849.732 192.419 851.573 191.609L875.402 192.159C873.112 192.879 870.862 193.689 868.643 194.569ZM853.312 190.869C853.562 190.769 853.802 190.649 854.052 190.549C855.982 189.769 857.913 189.049 859.833 188.359L859.823 189.079L885.682 189.609C882.922 190.129 880.202 190.769 877.532 191.529V191.429L853.312 190.869ZM945.352 190.839L945.362 190.459C947.432 191.389 949.492 192.389 951.532 193.459L933.662 193.069L933.652 193.359C930.362 192.189 927.003 191.189 923.552 190.389L945.352 190.839ZM953.042 194.279C954.602 195.129 956.162 196.009 957.712 196.939C957.812 196.999 957.903 197.059 958.003 197.119L941.862 196.749C939.652 195.709 937.383 194.749 935.083 193.879L953.042 194.279ZM959.302 197.939C960.662 198.799 961.992 199.689 963.273 200.609L948.912 200.299V200.439C947.172 199.429 945.393 198.469 943.573 197.569L959.302 197.939ZM964.362 201.429C965.953 202.609 967.492 203.839 968.972 205.119L955.732 204.829C953.883 203.529 951.982 202.289 950.042 201.119L964.362 201.429ZM969.902 205.919C971.022 206.909 972.112 207.919 973.172 208.959L960.812 208.689C959.523 207.639 958.202 206.619 956.852 205.639L969.902 205.919ZM973.982 209.759C974.823 210.599 975.653 211.459 976.453 212.329L965.232 212.089L965.222 212.519C964.102 211.489 962.962 210.479 961.792 209.499L973.982 209.759ZM977.193 213.129C978.263 214.309 979.292 215.519 980.292 216.749L969.312 216.529C968.112 215.279 966.883 214.069 965.622 212.879L977.193 213.129ZM980.953 217.549C981.672 218.459 982.383 219.369 983.073 220.299L972.513 220.059C971.713 219.139 970.903 218.229 970.062 217.339L980.953 217.549ZM983.652 221.089C984.382 222.089 985.102 223.099 985.802 224.129L975.643 223.899C974.843 222.869 974.023 221.849 973.182 220.859L983.652 221.089ZM986.342 224.929C986.862 225.709 987.372 226.499 987.883 227.289L977.992 227.059C977.432 226.259 976.853 225.469 976.263 224.699L986.342 224.929ZM988.362 228.089C988.893 228.939 989.402 229.789 989.902 230.639L980.263 230.429C979.703 229.559 979.122 228.699 978.532 227.849L988.362 228.089ZM990.372 231.439C990.852 232.269 991.323 233.109 991.773 233.939L982.833 233.709L982.812 234.499L992.212 234.739C992.662 235.579 993.103 236.419 993.523 237.259L984.122 237.039C983.073 235.059 981.943 233.119 980.763 231.229L990.372 231.439ZM993.922 238.049C994.342 238.889 994.742 239.719 995.143 240.559L985.802 240.339C985.393 239.499 984.972 238.659 984.542 237.829L993.922 238.049ZM995.513 241.359C995.872 242.139 996.232 242.909 996.573 243.689L987.232 243.469C986.892 242.689 986.542 241.909 986.182 241.139L995.513 241.359ZM996.932 244.479C997.432 245.629 997.923 246.779 998.393 247.929L988.962 247.709C988.522 246.549 988.072 245.399 987.592 244.259L996.932 244.479ZM998.703 248.719C999.093 249.699 999.472 250.679 999.842 251.649L990.273 251.429C989.953 250.449 989.612 249.469 989.263 248.499L998.703 248.719ZM991.562 255.729C991.242 254.549 990.893 253.389 990.523 252.229L1000.14 252.449C1001.02 254.809 1001.82 257.149 1002.56 259.459L992.462 259.229C992.252 258.319 992.022 257.419 991.782 256.519L1001.27 256.739L1001.29 255.949L991.562 255.729ZM1002.81 260.259C1003.07 261.089 1003.32 261.909 1003.57 262.729L993.152 262.509C992.992 261.679 992.823 260.849 992.633 260.019L1002.81 260.259ZM1009.67 290.789L994.162 291.349C994.282 290.359 994.382 289.359 994.472 288.369L1009.23 287.889C1009.38 288.869 1009.53 289.829 1009.67 290.789ZM1008.49 283.529L994.763 284.069C994.802 283.099 994.832 282.119 994.842 281.139L1007.99 280.799C1008.15 281.719 1008.32 282.629 1008.49 283.529ZM994.542 287.579C994.612 286.679 994.682 285.769 994.722 284.869L1008.62 284.319C1008.79 285.259 1008.95 286.189 1009.1 287.109L994.542 287.579ZM994.842 280.359C994.842 280.279 994.842 280.199 994.842 280.109C994.842 279.259 994.833 278.409 994.802 277.569L1007.24 277.209C1007.44 278.159 1007.64 279.099 1007.82 280.029L994.842 280.359ZM994.782 276.789C994.752 275.829 994.703 274.869 994.633 273.909L1006.43 273.529C1006.66 274.499 1006.87 275.469 1007.08 276.429L994.782 276.789ZM994.583 273.119C994.513 272.199 994.432 271.289 994.333 270.389L1005.58 270.039C1005.81 270.949 1006.04 271.859 1006.25 272.749L994.583 273.119ZM994.242 269.609C994.133 268.609 994.003 267.619 993.852 266.629L1004.74 266.859C1004.96 267.669 1005.17 268.469 1005.38 269.259L994.242 269.609ZM1003.8 263.519C1004.05 264.379 1004.29 265.219 1004.53 266.069L993.742 265.839C993.612 264.989 993.462 264.139 993.302 263.299L1003.8 263.519ZM990.922 306.709L1011.4 306.319C1011.47 307.279 1011.54 308.199 1011.59 309.099L990.032 309.509C990.342 308.579 990.642 307.649 990.922 306.709ZM989.753 310.299L1011.64 309.879C1011.7 310.849 1011.75 311.779 1011.79 312.659L988.682 313.219C989.062 312.259 989.412 311.279 989.753 310.299ZM986.902 317.509L1011.95 316.949C1011.98 318.059 1011.99 319.029 1012 319.859L985.523 320.449C986.003 319.479 986.462 318.499 986.902 317.509ZM987.253 316.719C987.643 315.829 988.023 314.929 988.383 314.019L1011.83 313.449C1011.87 314.419 1011.91 315.329 1011.93 316.169L987.253 316.719ZM991.162 305.919C991.443 304.949 991.712 303.979 991.962 303.009L1011.08 302.609C1011.17 303.619 1011.26 304.589 1011.33 305.539L991.162 305.919ZM992.152 302.219C992.682 300.079 993.133 297.909 993.513 295.719L1010.26 295.149C1010.4 296.219 1010.52 297.279 1010.64 298.309L993.253 298.779L993.273 299.569L1010.72 299.099C1010.82 300.029 1010.91 300.939 1011 301.839L992.152 302.219ZM993.652 294.929C993.832 293.839 993.992 292.749 994.133 291.649L994.152 292.139L1009.79 291.569C1009.92 292.509 1010.05 293.449 1010.17 294.369L993.652 294.929ZM1009.19 272.189C1006.19 259.489 1001.3 244.619 993.362 230.619C1000.8 233.429 1011.85 237.559 1012.32 237.559H1082.76L1082.3 276.019C1075.27 275.989 1029.79 275.769 1029.19 276.059C1028.77 276.259 1019.03 279.759 1012.54 282.089H1011.27C1010.68 278.869 1009.99 275.559 1009.19 272.189ZM1029.45 276.789C1030.71 276.589 1072.87 276.749 1082.29 276.799L1082.23 282.079H1014.88C1019.4 280.459 1029.11 276.969 1029.45 276.789ZM1083.54 237.259L1087.06 230.079L1092.09 230.109V282.099H1083.01L1083.54 237.259ZM1092.88 230.099L1097.47 230.119V282.079H1092.88V230.099ZM1098.25 230.129L1103.34 230.159V282.079H1098.25V230.129ZM1104.13 230.159L1108.72 230.179V282.079H1104.13V230.159ZM1109.5 230.189L1114.21 230.219V282.089H1109.5V230.189ZM1115 230.219L1119.59 230.239V251.759H1116.75V258.229H1119.59V282.079H1115V230.219ZM1119.59 257.449H1117.53V252.549H1119.59V257.449ZM1120.38 252.549H1122.44V257.449H1120.38V252.549ZM1120.38 258.239H1123.22V251.769H1120.38V230.259L1124.97 230.279V282.089H1120.38V258.239ZM1125.75 230.279L1130.46 230.309V282.089H1125.75V230.279ZM1131.25 230.309L1136.14 230.339V243.099V261.219V282.089H1131.25V230.309ZM1181.27 272.369L1136.92 272.429V261.209H1190.82C1190.61 269.409 1184.1 271.449 1181.93 272.119C1181.64 272.219 1181.42 272.289 1181.27 272.369ZM1136.93 260.429V243.879H1199.1V260.429H1136.93ZM1136.93 243.099V236.789L1184.99 236.209H1190.76C1191.01 236.249 1196.81 237.219 1197.07 243.099H1136.93ZM1184.47 230.659L1184.59 230.569V235.439L1136.92 236.009V230.339L1173.98 230.539V230.659H1184.47ZM1077.62 132.899C1082.52 134.929 1118.06 151.779 1132.73 158.769L1128.04 160.499L1070.31 133.929C1072.19 133.689 1074.68 133.339 1077.62 132.899ZM1201.88 91.5989C1202.3 91.9789 1202.17 95.4489 1200.62 99.1189C1193.34 116.369 1172.76 125.919 1157.74 132.889C1154.94 134.189 1152.29 135.419 1150.06 136.559C1139.23 142.069 1134.66 153.439 1133.19 158.109C1111.43 147.749 1086.16 135.789 1079.03 132.689C1098.3 129.779 1134.49 123.579 1149.32 120.289C1184.88 112.399 1192.83 102.379 1198.09 95.7489C1199.36 94.1489 1200.46 92.7689 1201.74 91.7089C1201.82 91.6389 1201.88 91.6189 1201.88 91.5989ZM1079.87 89.6189L1200.49 91.7889C1199.46 92.7789 1198.52 93.9489 1197.47 95.2689C1192.28 101.809 1184.44 111.709 1149.15 119.529C1131.9 123.349 1095.8 129.389 1077.66 132.119C1077.34 131.989 1077.13 131.919 1077.07 131.919H1077.06L1077.11 132.199C1073.61 132.719 1070.82 133.119 1069.03 133.339L1055 126.879C1052.91 125.689 1051.26 124.739 1050.8 124.479C1050.44 123.459 1048.18 116.559 1052.25 112.689C1052.35 112.599 1052.46 112.489 1052.58 112.379L1056 109.369C1063.66 102.809 1078.47 90.7489 1079.87 89.6189ZM1050.01 124.579L1039.7 119.839C1039.45 119.699 1039.16 119.539 1038.85 119.359L1050.54 113.559C1047.86 117.659 1049.53 123.229 1050.01 124.579ZM1064.7 100.679L1056.01 108.339C1054.14 109.939 1052.64 111.259 1051.76 112.079L1038.04 118.879C1033.9 116.389 1026.73 111.279 1025.43 106.739C1024.7 104.199 1024.38 102.589 1024.17 101.519C1024.11 101.209 1024.05 100.929 1023.99 100.669H1064.7V100.679ZM991.682 85.8889C1002.7 91.1189 1018.78 98.8889 1020.08 99.8589C1020.88 100.459 1020.88 100.459 1021.22 102.119C1021.44 103.229 1021.78 104.919 1022.54 107.569C1024.69 115.089 1037.72 122.179 1038.36 122.519L1127.36 163.479L1127.92 163.739L1132.81 161.939C1141.97 167.729 1164.22 182.009 1166.93 184.719C1167.62 185.409 1168.32 185.999 1168.99 186.569C1171.79 188.929 1173.99 190.799 1173.99 198.659V204.589L1161.76 204.509C1160.96 193.089 1157.28 189.559 1154.24 186.659C1153.85 186.289 1153.47 185.919 1153.1 185.549C1151.15 183.559 1067.45 138.869 1066.66 138.469C1064.18 137.229 991.402 103.709 981.982 99.3789C983.222 99.1689 984.372 98.6989 985.443 97.9589C989.513 95.1289 991.102 89.0989 991.682 85.8889ZM987.862 88.8889C987.112 91.2589 985.902 93.8189 983.982 95.2989L828.703 36.9889C828.323 34.2189 828.052 31.2089 827.872 29.1889C827.643 26.5989 827.452 24.5589 827.232 22.9589C840.253 27.8289 956.832 71.5889 987.862 88.8889ZM697.453 3.82888C698.133 5.21888 698.693 7.07888 698.003 8.65888C697.162 10.5989 694.622 11.7489 690.453 12.0689C663.573 14.1789 611.103 12.5189 605.513 12.0689C601.732 11.7589 599.853 9.94888 598.953 8.48888C598.503 7.75888 598.242 7.03888 598.112 6.46888C620.812 3.95888 655.223 1.88888 697.453 3.82888ZM597.342 6.54888C597.812 8.68888 599.783 12.3889 605.453 12.8489C608.302 13.0789 630.652 13.9189 653.802 13.9189C666.912 13.9189 680.293 13.6489 690.513 12.8489C694.992 12.4989 697.753 11.1889 698.722 8.96888C699.462 7.25888 699.002 5.36888 698.342 3.87888C735.122 5.60888 777.763 10.3689 823.703 20.5289C824.193 21.8189 824.583 26.1989 824.883 29.4689C825.602 37.4689 826.222 42.9889 827.992 45.3889C806.152 39.3689 707.592 14.0589 619.792 20.7689C589.872 23.0589 581.213 28.8189 578.763 31.4889C573.742 35.4889 561.662 46.5889 530.693 77.5889C507.152 101.149 483.983 124.949 483.753 125.189L481.323 127.689L470.133 127.549C470.283 127.459 470.423 127.349 470.553 127.229C471.003 126.779 476.873 121.189 485.003 113.449C556.883 45.0089 571.273 30.9689 571.833 29.8389C572.613 28.2789 571.872 23.9189 569.902 14.7289C569.622 13.4289 569.323 12.0089 569.143 11.0889C572.223 10.1489 582.032 8.25888 597.342 6.54888ZM566.962 15.3489C567.772 19.1289 569.452 26.9389 569.162 28.4289C565.972 32.1889 507.893 87.4989 482.933 111.259C475.533 118.309 470.333 123.259 468.833 124.699C468.303 124.549 467.473 124.159 466.423 123.579C481.043 109.579 565.213 28.9089 566.182 26.6389C567.143 24.3889 564.302 15.6789 563.612 13.6489C564.693 13.0289 565.592 12.5189 566.282 12.1189C566.442 12.8989 566.662 13.9289 566.962 15.3489ZM562.922 14.0489C564.013 17.2889 566.192 24.6189 565.462 26.3189C564.242 28.5289 500.283 90.0589 465.703 123.179C460.433 120.179 450.812 113.589 444.453 109.219C442.723 108.029 441.233 107.019 439.913 106.109C443.073 105.359 449.423 104.319 452.843 105.269C457.343 106.519 467.113 113.019 468.363 113.389C469.613 113.759 469.973 112.059 469.973 112.059C469.973 112.059 463.953 107.159 456.113 103.139C453.513 101.809 449.863 100.729 445.493 100.889C442.673 100.989 437.773 101.539 434.563 101.929C464.673 71.7589 542.392 25.8789 562.922 14.0489ZM442.763 111.699C458.443 122.449 464.853 126.519 467.883 127.509L459.623 127.409L426.183 104.119C427.983 103.599 429.293 103.259 429.843 103.179C431.243 103.809 437.353 107.989 442.763 111.699ZM452.253 127.319L420.443 105.829C422.213 105.289 423.823 104.799 425.203 104.399L458.213 127.399L452.253 127.319ZM390.293 120.039C395.463 119.329 399.203 118.819 400.663 118.649L401.423 118.559L406.013 110.399C409.733 109.189 413.593 107.959 417.113 106.859C417.223 107.139 417.403 107.389 417.673 107.569L446.123 127.169C446.163 127.189 446.223 127.219 446.293 127.239L392.203 126.569L392.003 120.049L391.213 120.069L391.413 126.559L344.963 125.999C362.323 123.869 379.453 121.519 390.293 120.039ZM388.103 135.379C387.783 139.179 387.213 140.769 384.493 140.769C383.563 140.769 374.583 140.459 365.063 140.129C354.113 139.749 341.693 139.319 338.743 139.269C338.173 139.259 337.693 139.029 337.293 138.559C335.643 136.669 335.603 131.409 336.113 127.059C337.103 126.939 338.083 126.829 339.073 126.709L388.103 127.309C388.122 128.799 388.193 134.199 388.103 135.379ZM99.0325 185.639C92.8125 196.139 87.8625 204.589 87.6325 205.029C86.9425 206.389 84.9625 206.529 83.4525 205.979C82.0225 205.459 80.6525 204.199 81.1125 202.249C82.0025 198.479 110.603 153.129 115.933 144.699C118.393 144.469 121.163 144.199 124.203 143.919C122.263 146.829 117.693 154.259 106.443 173.149C103.933 177.359 101.423 181.589 99.0825 185.539C99.0525 185.559 99.0025 185.579 98.9825 185.599L99.0325 185.639ZM125.193 143.819C167.513 139.839 259.083 131.429 284.583 130.819V136.079C280.293 136.919 234.263 145.889 222.663 148.019C210.452 150.259 113.553 179.069 100.323 184.899C109.833 168.899 121.993 148.659 125.193 143.819ZM82.1725 193.389C89.6925 190.619 102.123 158.479 104.543 152.069C106.033 148.109 109.723 145.289 113.953 144.889C114.273 144.859 114.623 144.829 114.963 144.789C108.783 154.559 81.2725 198.199 80.3625 202.069C79.7825 204.519 81.5225 206.109 83.1925 206.719C83.8025 206.939 84.4725 207.059 85.1325 207.059C86.4625 207.059 87.7425 206.559 88.3425 205.389C88.9725 204.139 93.6925 196.089 99.5925 186.149C105.573 182.239 210.103 151.129 222.813 148.789C234.923 146.569 284.553 136.889 285.053 136.789L285.373 136.729V130.809C286.883 130.779 288.152 130.779 289.103 130.819C297.562 131.159 315.872 129.419 335.323 127.149C334.983 130.139 334.553 136.589 336.713 139.069C337.263 139.699 337.953 140.029 338.743 140.049C341.683 140.099 354.092 140.529 365.043 140.909C374.983 141.249 383.563 141.549 384.503 141.549C388.103 141.549 388.613 138.899 388.893 135.439C388.993 134.219 388.923 128.859 388.903 127.319L463.283 128.239C456.923 129.389 444.513 132.029 434.773 136.469C418.023 144.099 412.303 157.999 410.443 168.319C406.893 188.079 411.443 252.439 413.163 274.559V275.219C413.173 275.219 413.203 275.219 413.213 275.219C413.473 278.529 413.663 280.789 413.733 281.679L370.913 281.619C369.623 273.029 367.583 263.789 364.403 254.669C359.373 240.229 349.833 219.479 332.983 202.659C313.812 183.529 290.233 174.629 262.903 176.159C220.103 178.579 196.823 197.649 185.993 210.239H185.843V210.419C183.783 212.819 182.183 214.979 180.993 216.739V216.529L147.413 216.699L147.423 216.669L37.6225 216.519C46.1025 211.199 65.6125 199.499 82.1725 193.389ZM113.733 294.699V294.509L53.7725 295.449L37.4125 276.399L37.4025 276.409L37.3825 274.929L86.3125 275.389L86.5725 275.459L86.5925 275.389L128.183 275.779C128.143 275.919 128.092 276.059 128.053 276.189C124.233 288.309 118.823 292.509 113.733 294.699ZM52.7525 295.469L37.6225 295.709L37.4125 277.619L52.7525 295.469ZM5.75251 256.289C4.86251 255.289 4.03251 254.159 3.32251 252.889L29.0925 252.959V253.049H42.6325V252.999L92.0725 253.139L91.3725 255.619L5.75251 256.289ZM3.86251 230.929L98.4325 230.679L97.4825 234.019H42.6325V231.019H29.0925V234.019H20.6325H3.84251H2.24251C2.68251 232.929 3.23251 231.899 3.86251 230.929ZM101.573 219.599L100.673 222.759L15.8225 222.049C20.0525 220.479 24.3725 219.779 27.5725 219.499L101.573 219.599ZM100.753 274.749L115.773 219.619L137.613 219.649L121.443 274.949L100.753 274.749ZM99.9425 274.739L86.8225 274.619L94.7825 246.539H94.8025L94.8725 246.249L102.423 219.599L114.973 219.619L99.9425 274.739ZM42.6325 234.799H97.2725L96.6425 237.009H46.0925V246.529H93.9325L93.4925 248.099H42.6325V234.799ZM94.1725 245.719L94.1625 245.749H46.8825V237.799H95.9825L94.1725 245.719ZM42.6325 248.889H93.2725L92.2925 252.349L42.6325 252.209V248.889ZM100.453 223.539L99.5625 226.689L8.52251 225.949C10.1925 224.679 12.0325 223.649 13.9325 222.809L100.453 223.539ZM4.63251 234.799H19.8425V248.099H4.63251V234.799ZM20.6325 234.799H29.0925V248.099H20.6325V234.799ZM29.8825 231.799H41.8425V252.209L29.8825 252.179V231.799ZM128.433 275.009L122.263 274.949L138.433 219.649L143.563 219.659C141.553 227.519 133.623 258.299 128.433 275.009ZM7.59251 226.719L99.3425 227.479L98.6625 229.889L4.41251 230.139C5.30251 228.899 6.36251 227.769 7.59251 226.719ZM0.882509 239.939C1.03251 238.109 1.41251 236.409 1.98251 234.799H3.85251V248.099H1.45251C0.862509 245.749 0.622509 243.049 0.882509 239.939ZM3.84251 248.889H20.6325H29.0925V252.169L2.90251 252.099C2.41251 251.119 2.00251 250.039 1.66251 248.889H3.84251ZM91.1425 256.399L90.0525 260.259L10.7125 260.209V260.319C9.28251 259.469 7.83251 258.399 6.50251 257.059L91.1425 256.399ZM11.9025 260.999L89.8225 261.049L88.9925 263.999L29.0325 264.369L19.0525 263.519C18.7325 263.469 15.5325 262.909 11.9025 260.999ZM31.1225 265.139L88.7625 264.779L85.9825 274.599L30.8825 274.079L31.1225 265.139ZM22.7225 283.429C21.7725 279.469 22.1725 275.869 22.3225 274.799H23.4825L36.6025 274.919L36.8425 295.719L34.5425 295.759C28.1925 293.819 24.2225 289.679 22.7225 283.429ZM112.163 295.329C111.203 295.679 110.263 295.979 109.363 296.269C108.343 296.599 107.373 296.899 106.453 297.259C101.703 299.089 67.0825 303.619 50.4325 305.799C45.0825 306.499 42.0125 306.899 40.7525 307.089L39.9025 296.449L112.163 295.329ZM35.5725 321.639C37.4025 316.329 39.7625 310.899 40.8825 310.109C41.7325 309.969 45.7725 309.439 50.8225 308.769C68.8625 306.409 102.443 302.009 107.523 300.049C108.363 299.719 109.293 299.429 110.273 299.119C116.703 297.069 125.503 294.259 130.913 277.109C136.853 258.289 146.833 218.919 146.933 218.529L147.203 217.479L180.603 217.309C179.793 218.529 179.193 219.529 178.793 220.229L178.703 220.389C178.013 221.529 162.493 247.619 153.043 304.569H152.843L152.823 305.359H152.903C152.413 308.319 151.943 311.329 151.493 314.459C151.023 317.689 150.773 319.589 150.633 320.679L35.5725 321.639ZM153.463 322.519L153.483 322.279C153.483 322.249 153.533 321.729 153.793 319.749L180.543 320.309C181.003 321.239 181.473 322.159 181.963 323.069L153.463 322.519ZM263.213 368.849C230.013 368.849 201.003 350.599 185.683 323.599L185.693 323.129L185.423 323.119C178.232 310.279 174.123 295.479 174.123 279.739C174.123 274.779 174.543 269.909 175.323 265.159H175.363V264.949C177.523 252.049 182.463 240.079 189.553 229.689L189.913 229.699L189.923 229.159C206.012 205.909 232.863 190.649 263.223 190.649C312.353 190.649 352.313 230.619 352.313 279.739C352.313 292.249 349.713 304.169 345.043 314.979L344.713 314.989L344.723 315.709C330.863 346.979 299.543 368.849 263.213 368.849ZM346.303 319.439L369.713 318.989C369.633 320.419 369.553 321.379 369.513 321.779L344.893 322.249C345.383 321.319 345.853 320.379 346.303 319.439ZM372.853 316.159L786.422 316.269L786.172 318.169L372.623 320.649C372.693 319.599 372.773 318.069 372.853 316.159ZM788.972 319.859L789.833 313.239L817.133 314.049C817.523 315.019 817.922 315.979 818.342 316.929L789.542 316.109L789.523 316.899L818.693 317.729C819.122 318.689 819.572 319.629 820.032 320.569L788.972 319.859ZM902.753 369.209C862.763 369.209 828.842 342.719 817.612 306.369L817.622 306.009H817.503C817.222 305.079 816.953 304.149 816.703 303.209L817.003 303.219L817.023 302.429L816.492 302.419C814.652 295.289 813.662 287.819 813.662 280.119C813.662 269.379 815.573 259.089 819.062 249.549H819.122V249.379C831.672 215.359 864.422 191.029 902.742 191.029C944.652 191.029 979.892 220.119 989.342 259.169H989.333L989.312 259.959L989.532 259.969C991.042 266.449 991.833 273.199 991.833 280.139C991.833 296.119 987.602 311.119 980.212 324.099L979.932 324.109L979.943 324.579C964.542 351.219 935.703 369.209 902.753 369.209ZM983.693 324.009C984.193 323.099 984.663 322.179 985.133 321.249L1012.01 320.649C1012.01 322.199 1011.99 323.069 1011.99 323.109L1011.98 323.469L983.693 324.009ZM1117.42 311.599L1116.84 312.179L1116.86 312.259L1014.82 311.819V312.609L1117.04 313.049C1117.84 316.679 1118 320.559 1117.45 321.249C1113.2 321.899 1054.68 321.859 1015.01 321.669C1015.04 316.899 1014.81 301.579 1011.42 282.879H1153.03L1127.87 302.229L1127.97 302.359C1126.2 303.409 1123.1 305.919 1117.42 311.599ZM1154.42 308.439C1147.73 308.709 1140.81 308.979 1139.92 308.839C1139.13 308.599 1136.56 306.419 1135.02 305.119C1132.65 303.109 1131.37 302.049 1130.46 301.749C1130.32 301.699 1130.15 301.649 1129.93 301.639L1141.71 292.579C1142.91 292.449 1157.37 292.199 1167.38 292.059C1167.44 292.109 1167.52 292.189 1167.62 292.309V307.969C1163.29 308.079 1158.64 308.269 1154.42 308.439ZM1181.9 307.959C1180.42 307.819 1178.13 307.779 1175.37 307.789L1175.22 301.909L1181.99 293.179V307.899L1181.9 307.959ZM1215.56 265.489C1206.76 274.979 1192.62 289.899 1190.14 291.659H1183.24V291.519C1183.01 291.519 1174.68 291.379 1168.41 291.269V291.259L1168.01 291.269H1168C1165.17 291.219 1162.81 291.179 1161.92 291.159V282.879H1177.23L1177.3 282.859C1177.51 282.779 1182.3 280.929 1181.82 273.009C1181.91 272.979 1182.03 272.939 1182.18 272.899C1188.32 270.999 1191.49 267.069 1191.63 261.239H1199.89V243.099H1197.87C1197.6 236.539 1190.96 235.449 1190.84 235.429H1185.4V230.019C1186.05 229.579 1187.19 228.839 1188.21 228.359C1190.76 227.139 1203.31 230.659 1211.66 236.399C1217.44 240.379 1216.48 258.309 1215.56 265.489Z" fill="#E9EEF1"/>
<path d="M951.963 161.829L953.993 162.749C954.343 162.909 989.073 178.619 1001.22 189.779L1001.75 189.199C991.213 179.509 963.893 166.469 956.293 162.939C977.213 164.509 1013.6 167.279 1014.72 167.539L1014.91 166.779C1013.56 166.439 956.603 162.179 954.183 161.999L951.963 161.829Z" fill="#E9EEF1"/>
<path d="M861.832 150.949C862.482 149.749 862.192 149.059 861.832 148.699C860.362 147.219 854.902 148.699 851.632 150.409C847.362 152.649 792.882 175.339 792.332 175.569L792.632 176.289C794.882 175.349 847.702 153.359 851.992 151.099C855.542 149.229 860.312 148.279 861.262 149.239C861.512 149.489 861.462 149.939 861.132 150.559C859.532 153.539 822.922 175.559 808.942 183.799L809.342 184.479C811.412 183.279 859.802 154.729 861.832 150.949Z" fill="#E9EEF1"/>
<path d="M661.493 161.289C661.493 161.289 667.483 161.459 675.233 161.689L675.073 161.729C676.443 167.349 683.803 171.419 692.573 171.419C700.513 171.419 706.783 168.009 708.753 162.709C709.873 164.089 711.533 164.889 713.323 164.889C716.573 164.889 719.213 162.249 719.213 158.999C719.213 155.749 716.573 153.109 713.323 153.109C711.333 153.109 709.513 154.109 708.423 155.739C705.663 152.089 699.753 148.379 692.573 148.379C684.993 148.379 678.323 151.469 675.843 156.099C667.753 156.109 661.073 156.119 660.333 156.109C657.793 156.059 655.963 156.649 655.353 157.709C655.063 158.219 655.073 158.789 655.393 159.319C655.993 160.339 657.923 161.379 661.493 161.289ZM692.573 170.629C684.383 170.629 677.263 166.799 675.893 161.699C687.623 162.039 703.013 162.489 707.943 162.629C706.003 167.509 700.063 170.629 692.573 170.629ZM713.323 153.879C716.143 153.879 718.433 156.169 718.433 158.989C718.433 161.809 716.143 164.099 713.323 164.099C711.993 164.099 710.753 163.589 709.813 162.689C711.883 162.749 713.173 162.779 713.373 162.779C716.023 162.779 717.423 161.089 717.443 159.409C717.463 157.849 716.193 156.139 713.363 156.089C712.653 156.079 711.163 156.069 709.133 156.059C710.083 154.709 711.633 153.879 713.323 153.879ZM692.573 149.159C699.403 149.159 705.023 152.619 707.703 156.069C700.523 156.059 688.283 156.079 677.873 156.089C677.493 156.089 677.123 156.089 676.753 156.089C679.243 151.919 685.483 149.159 692.573 149.159ZM656.023 158.089C656.383 157.479 657.673 156.819 660.313 156.879C661.133 156.889 668.523 156.879 677.873 156.869C692.293 156.849 710.233 156.819 713.343 156.879C715.643 156.919 716.663 158.179 716.643 159.399C716.633 160.689 715.503 161.989 713.353 161.989C713.113 161.979 711.763 161.949 709.543 161.889C709.193 161.879 661.503 160.489 661.483 160.489C658.453 160.579 656.563 159.759 656.053 158.899C655.883 158.629 655.873 158.349 656.023 158.089Z" fill="#E9EEF1"/>
<path d="M915.202 171.099C865.942 165.479 834.882 189.939 834.582 190.179L835.072 190.789C835.382 190.539 866.192 166.289 915.112 171.869C964.022 177.449 987.602 210.369 987.832 210.709L988.472 210.259C988.242 209.929 964.472 176.719 915.202 171.099Z" fill="#E9EEF1"/>
<path d="M368.973 192.339L369.663 191.969C348.713 152.759 312.633 145.309 312.283 145.259L312.183 146.039C312.533 146.089 348.203 153.469 368.973 192.339Z" fill="#E9EEF1"/>
<path d="M208.512 161.209C209.422 160.859 209.792 160.719 209.962 160.589L209.512 159.949C209.402 160.019 208.832 160.239 208.232 160.479C184.212 169.709 173.702 185.849 169.122 197.769L169.852 198.049C174.382 186.279 184.762 170.339 208.512 161.209Z" fill="#E9EEF1"/>
<path d="M197.472 188.159C209.532 177.469 234.572 165.249 265.482 166.049C300.912 166.949 316.302 179.449 322.092 184.159C322.762 184.699 323.312 185.149 323.762 185.479L324.222 184.849C323.782 184.529 323.242 184.089 322.592 183.559C316.742 178.809 301.202 166.179 265.502 165.269C234.352 164.469 209.112 176.789 196.952 187.579L197.472 188.159Z" fill="#E9EEF1"/>
<path d="M902.753 203.029C860.253 203.029 825.673 237.609 825.673 280.109C825.673 322.609 860.253 357.189 902.753 357.189C945.253 357.189 979.833 322.609 979.833 280.109C979.833 237.609 945.253 203.029 902.753 203.029ZM902.753 356.409C860.683 356.409 826.453 322.179 826.453 280.109C826.453 238.039 860.683 203.809 902.753 203.809C944.823 203.809 979.053 238.039 979.053 280.109C979.053 322.179 944.823 356.409 902.753 356.409Z" fill="#E9EEF1"/>
<path d="M903.372 217.919C869.432 217.919 841.832 245.529 841.832 279.459C841.832 313.389 869.442 340.999 903.372 340.999C937.302 340.999 964.912 313.389 964.912 279.459C964.912 245.529 937.312 217.919 903.372 217.919ZM903.372 340.219C869.872 340.219 842.612 312.959 842.612 279.459C842.612 245.959 869.872 218.699 903.372 218.699C936.872 218.699 964.132 245.959 964.132 279.459C964.132 312.959 936.882 340.219 903.372 340.219Z" fill="#E9EEF1"/>
<path d="M903.863 222.859C872.653 222.859 847.263 248.249 847.263 279.459C847.263 310.669 872.653 336.059 903.863 336.059C935.073 336.059 960.463 310.669 960.463 279.459C960.463 248.249 935.073 222.859 903.863 222.859ZM903.863 335.279C873.083 335.279 848.043 310.239 848.043 279.459C848.043 248.679 873.083 223.639 903.863 223.639C934.643 223.639 959.673 248.679 959.673 279.459C959.673 310.239 934.633 335.279 903.863 335.279Z" fill="#E9EEF1"/>
<path d="M904.052 228.219C876.242 228.219 853.622 250.839 853.622 278.649C853.622 306.459 876.242 329.079 904.052 329.079C931.862 329.079 954.482 306.459 954.482 278.649C954.482 250.839 931.862 228.219 904.052 228.219ZM904.052 328.299C876.672 328.299 854.402 306.029 854.402 278.649C854.402 251.269 876.672 228.999 904.052 228.999C931.432 228.999 953.702 251.269 953.702 278.649C953.702 306.029 931.422 328.299 904.052 328.299Z" fill="#E9EEF1"/>
<path d="M904.473 232.399C879.063 232.399 858.393 253.069 858.393 278.479C858.393 287.869 861.223 296.609 866.063 303.899L866.273 304.269C866.273 304.269 866.293 304.259 866.303 304.259C874.593 316.499 888.613 324.559 904.483 324.559C929.893 324.559 950.563 303.889 950.563 278.479C950.553 253.069 929.873 232.399 904.473 232.399ZM939.013 252.759C935.923 255.069 930.233 259.129 928.643 259.599C927.623 259.909 925.593 258.889 923.703 257.139C921.543 255.139 920.343 252.939 920.643 251.549C921.253 248.749 925.143 242.879 926.203 241.319C931.203 244.239 935.563 248.139 939.013 252.759ZM906.803 286.239L906.763 286.149L906.053 286.489L906.103 286.589C905.143 287.019 904.083 287.259 902.963 287.259C898.663 287.259 895.173 283.759 895.173 279.469C895.173 275.169 898.673 271.679 902.963 271.679C907.253 271.679 910.753 275.179 910.753 279.469C910.753 282.359 909.163 284.889 906.803 286.239ZM897.023 298.199C897.093 298.249 897.143 298.299 897.223 298.359C898.543 299.469 900.913 301.449 903.923 301.449C904.183 301.449 904.453 301.439 904.723 301.399C906.963 301.129 909.123 299.709 911.133 297.199L921.103 318.209C919.413 318.919 917.663 319.519 915.863 320.009C915.313 317.959 913.823 312.789 912.223 310.499C911.313 309.189 908.923 308.549 905.823 308.779C903.153 308.979 899.933 309.889 899.173 311.439C898.423 312.959 897.233 318.139 896.643 320.839C894.873 320.509 893.133 320.089 891.453 319.549L897.023 298.199ZM904.633 300.619C901.573 300.989 899.073 298.879 897.723 297.759C897.543 297.609 897.383 297.479 897.243 297.369L899.833 287.449C900.803 287.829 901.853 288.049 902.963 288.049C904.203 288.049 905.373 287.779 906.443 287.309L910.773 296.419C908.813 298.949 906.753 300.369 904.633 300.619ZM888.383 249.179C888.163 247.189 884.933 242.129 883.943 240.599C885.783 239.599 887.703 238.729 889.693 237.999L897.053 260.539C896.973 260.529 896.883 260.519 896.803 260.509C894.943 260.279 891.483 259.839 888.843 261.999C887.073 263.459 886.023 265.869 885.703 269.139L866.783 257.649L866.613 257.929C867.593 256.139 868.693 254.419 869.903 252.789C871.713 254.399 875.263 257.419 877.613 258.389C877.923 258.519 878.243 258.569 878.583 258.569C880.133 258.569 881.923 257.419 882.963 256.639C885.753 254.559 888.593 251.059 888.383 249.179ZM889.333 262.619C891.713 260.669 894.953 261.079 896.693 261.299C896.923 261.329 897.133 261.349 897.313 261.369L900.533 271.239C898.423 271.859 896.653 273.279 895.553 275.149L886.433 269.609C886.693 266.349 887.663 263.989 889.333 262.619ZM906.693 271.749L910.563 262.039C913.933 261.719 916.463 262.249 918.093 263.619C920.183 265.389 920.343 268.219 920.423 269.729C920.443 270.129 920.463 270.459 920.503 270.669L920.733 270.619L910.793 275.949C909.963 274.119 908.503 272.629 906.693 271.749ZM921.253 270.349C921.233 270.169 921.213 269.959 921.203 269.689C921.113 268.049 920.943 265.009 918.593 263.019C916.873 261.559 914.273 260.969 910.883 261.229L920.013 238.309C921.923 239.049 923.763 239.919 925.523 240.909C924.383 242.579 920.513 248.429 919.883 251.369C919.443 253.379 921.293 255.959 923.173 257.709C924.603 259.039 926.683 260.439 928.253 260.439C928.473 260.439 928.673 260.409 928.873 260.359C930.843 259.779 937.783 254.669 939.473 253.399C940.703 255.109 941.813 256.919 942.783 258.809L921.253 270.349ZM919.283 238.019L905.973 271.439C905.033 271.089 904.023 270.889 902.963 270.889C902.393 270.889 901.843 270.949 901.303 271.049L890.433 237.759C894.833 236.239 899.553 235.399 904.463 235.399C909.673 235.399 914.663 236.319 919.283 238.019ZM883.263 240.999C884.623 243.069 887.423 247.629 887.603 249.269C887.763 250.679 885.323 253.899 882.493 256.029C880.563 257.479 878.893 258.089 877.903 257.679C875.673 256.759 872.143 253.759 870.373 252.189C873.883 247.659 878.263 243.839 883.263 240.999ZM866.393 258.349L895.193 275.839C894.713 276.859 894.433 277.989 894.393 279.189L861.403 279.329C861.393 279.049 861.383 278.759 861.383 278.479C861.393 271.209 863.203 264.359 866.393 258.349ZM862.243 287.039C865.223 286.719 870.203 286.259 871.653 286.559C872.653 286.759 873.853 288.449 874.643 290.749C875.463 293.109 875.793 296.069 874.683 297.369C873.413 298.869 870.553 300.769 868.443 302.079C865.493 297.569 863.353 292.489 862.243 287.039ZM875.293 297.869C876.683 296.219 876.223 292.859 875.393 290.479C874.683 288.419 873.363 286.099 871.813 285.779C870.233 285.459 865.113 285.929 862.103 286.259C861.733 284.249 861.503 282.199 861.423 280.109L883.273 280.019C883.233 280.099 883.203 280.169 883.163 280.249C882.373 281.949 880.893 285.109 882.153 288.279C882.993 290.409 884.973 292.149 887.993 293.459L872.283 307.069C871.063 305.699 869.923 304.249 868.883 302.719C871.043 301.399 873.943 299.459 875.293 297.869ZM872.813 307.659L897.433 286.339L896.923 285.749L888.663 292.899C885.643 291.659 883.693 290.009 882.893 287.999C881.763 285.139 883.143 282.179 883.893 280.589C883.993 280.369 884.083 280.189 884.153 280.019L894.413 279.979C894.603 283.099 896.453 285.779 899.113 287.119L890.723 319.299C883.793 316.959 877.663 312.909 872.813 307.659ZM897.433 320.969C898.013 318.289 899.183 313.199 899.883 311.779C900.403 310.729 902.993 309.769 905.893 309.559C908.673 309.359 910.853 309.889 911.593 310.949C913.103 313.119 914.583 318.219 915.123 320.219C911.713 321.089 908.153 321.549 904.473 321.549C902.073 321.559 899.723 321.349 897.433 320.969ZM921.833 317.889L907.143 286.949C907.873 286.539 908.533 286.029 909.113 285.429L935.963 307.829C932.003 312.069 927.203 315.519 921.833 317.889ZM923.563 279.609L947.523 279.509C947.473 281.509 947.293 283.479 946.983 285.409C944.333 284.859 938.683 283.829 936.063 284.279C934.063 284.619 932.303 287.479 931.323 290.039C930.443 292.339 929.793 295.499 930.843 296.819C931.913 298.169 937.313 301.069 940.173 302.549C939.053 304.199 937.823 305.769 936.493 307.249L919.273 292.889C919.363 292.839 919.453 292.799 919.563 292.739C921.053 291.989 923.833 290.599 924.803 287.549C925.503 285.339 925.073 282.669 923.563 279.609ZM946.843 286.179C945.813 291.879 943.653 297.199 940.603 301.889C937.403 300.229 932.373 297.479 931.463 296.329C930.803 295.489 931.053 292.959 932.063 290.309C933.183 287.389 934.843 285.279 936.203 285.039C938.663 284.619 944.243 285.649 946.843 286.179ZM947.543 278.729L911.693 278.879V279.669L922.683 279.619C924.243 282.639 924.713 285.229 924.053 287.319C923.183 290.059 920.603 291.349 919.213 292.049C918.973 292.169 918.783 292.269 918.633 292.359L909.633 284.849C910.823 283.379 911.543 281.509 911.543 279.469C911.543 278.499 911.373 277.569 911.073 276.709L943.133 259.519C945.953 265.249 947.543 271.689 947.543 278.489C947.553 278.559 947.543 278.639 947.543 278.729Z" fill="#E9EEF1"/>
<path d="M263.213 202.669C220.713 202.669 186.133 237.249 186.133 279.749C186.133 322.249 220.713 356.829 263.213 356.829C305.713 356.829 340.293 322.249 340.293 279.749C340.293 237.249 305.713 202.669 263.213 202.669ZM263.213 356.049C221.143 356.049 186.913 321.819 186.913 279.749C186.913 237.679 221.143 203.449 263.213 203.449C305.283 203.449 339.513 237.679 339.513 279.749C339.513 321.819 305.283 356.049 263.213 356.049Z" fill="#E9EEF1"/>
<path d="M263.833 217.549C229.893 217.549 202.293 245.159 202.293 279.089C202.293 313.019 229.903 340.629 263.833 340.629C297.763 340.629 325.373 313.019 325.373 279.089C325.373 245.159 297.773 217.549 263.833 217.549ZM263.833 339.859C230.333 339.859 203.073 312.599 203.073 279.099C203.073 245.599 230.333 218.339 263.833 218.339C297.333 218.339 324.593 245.599 324.593 279.099C324.593 312.599 297.343 339.859 263.833 339.859Z" fill="#E9EEF1"/>
<path d="M264.323 222.499C233.113 222.499 207.723 247.889 207.723 279.099C207.723 310.309 233.113 335.699 264.323 335.699C295.533 335.699 320.923 310.309 320.923 279.099C320.923 247.889 295.533 222.499 264.323 222.499ZM264.323 334.909C233.543 334.909 208.503 309.869 208.503 279.089C208.503 248.309 233.543 223.269 264.323 223.269C295.103 223.269 320.143 248.309 320.143 279.089C320.143 309.869 295.093 334.909 264.323 334.909Z" fill="#E9EEF1"/>
<path d="M264.512 227.859C236.702 227.859 214.082 250.479 214.082 278.289C214.082 306.099 236.702 328.719 264.512 328.719C292.322 328.719 314.942 306.099 314.942 278.289C314.942 250.479 292.322 227.859 264.512 227.859ZM264.512 327.939C237.132 327.939 214.862 305.669 214.862 278.289C214.862 250.909 237.132 228.639 264.512 228.639C291.892 228.639 314.162 250.909 314.162 278.289C314.162 305.669 291.892 327.939 264.512 327.939Z" fill="#E9EEF1"/>
<path d="M264.933 232.029C239.523 232.029 218.853 252.699 218.853 278.109C218.853 287.499 221.683 296.249 226.533 303.539L226.733 303.899C226.733 303.899 226.753 303.889 226.763 303.889C235.053 316.129 249.073 324.189 264.943 324.189C290.353 324.189 311.023 303.519 311.023 278.109C311.023 252.699 290.343 232.029 264.933 232.029ZM299.473 252.399C296.383 254.709 290.693 258.769 289.103 259.239C288.083 259.549 286.053 258.529 284.163 256.779C282.003 254.779 280.803 252.579 281.103 251.189C281.713 248.389 285.603 242.519 286.663 240.959C291.663 243.879 296.023 247.779 299.473 252.399ZM267.263 285.869L267.223 285.779L266.513 286.119L266.563 286.219C265.603 286.649 264.543 286.889 263.423 286.889C259.123 286.889 255.633 283.389 255.633 279.099C255.633 274.809 259.133 271.309 263.423 271.309C267.723 271.309 271.213 274.809 271.213 279.099C271.213 281.999 269.623 284.529 267.263 285.869ZM257.483 297.829C257.553 297.879 257.613 297.929 257.683 297.989C259.003 299.099 261.373 301.079 264.383 301.079C264.643 301.079 264.913 301.059 265.183 301.029C267.423 300.769 269.583 299.339 271.593 296.829L281.563 317.839C279.873 318.549 278.123 319.149 276.323 319.639C275.773 317.589 274.283 312.419 272.683 310.129C271.773 308.819 269.373 308.169 266.283 308.409C263.613 308.609 260.403 309.519 259.633 311.069C258.883 312.589 257.693 317.769 257.103 320.469C255.333 320.139 253.593 319.719 251.913 319.179L257.483 297.829ZM265.093 300.259C262.063 300.609 259.533 298.519 258.183 297.399C258.003 297.249 257.843 297.119 257.703 297.009L260.293 287.089C261.263 287.469 262.313 287.689 263.423 287.689C264.663 287.689 265.833 287.419 266.903 286.949L271.233 296.059C269.273 298.579 267.213 300.009 265.093 300.259ZM248.853 248.819C248.633 246.829 245.403 241.769 244.413 240.239C246.253 239.239 248.173 238.369 250.163 237.639L257.523 260.179C257.443 260.169 257.353 260.159 257.273 260.149C255.413 259.909 251.953 259.479 249.313 261.639C247.543 263.099 246.493 265.509 246.173 268.779L227.253 257.289L227.073 257.589C228.053 255.789 229.153 254.069 230.373 252.429C232.183 254.039 235.733 257.059 238.083 258.029C238.393 258.159 238.713 258.209 239.053 258.209C240.603 258.209 242.393 257.059 243.433 256.279C246.203 254.199 249.053 250.699 248.853 248.819ZM249.793 262.249C252.163 260.299 255.413 260.709 257.153 260.929C257.393 260.959 257.593 260.979 257.773 260.999L260.993 270.869C258.883 271.489 257.113 272.909 256.013 274.779L246.893 269.239C247.153 265.979 248.123 263.629 249.793 262.249ZM267.153 271.389L271.023 261.679C274.393 261.359 276.923 261.889 278.553 263.259C280.643 265.029 280.803 267.859 280.883 269.379C280.903 269.779 280.923 270.109 280.963 270.319L281.193 270.269L271.243 275.599C270.423 273.759 268.963 272.269 267.153 271.389ZM281.713 269.989C281.693 269.809 281.673 269.599 281.663 269.329C281.573 267.689 281.403 264.649 279.053 262.659C277.333 261.199 274.733 260.609 271.343 260.869L280.473 237.949C282.383 238.689 284.223 239.559 285.983 240.549C284.843 242.229 280.973 248.069 280.343 251.009C279.903 253.019 281.763 255.599 283.633 257.349C285.063 258.679 287.143 260.069 288.713 260.069C288.933 260.069 289.133 260.039 289.333 259.989C291.303 259.409 298.243 254.299 299.933 253.039C301.163 254.749 302.273 256.559 303.243 258.449L281.713 269.989ZM279.743 237.659L266.433 271.079C265.493 270.729 264.483 270.529 263.423 270.529C262.853 270.529 262.303 270.589 261.763 270.689L250.893 237.399C255.293 235.879 260.013 235.039 264.923 235.039C270.133 235.029 275.123 235.959 279.743 237.659ZM243.723 240.639C245.083 242.709 247.883 247.269 248.063 248.909C248.213 250.319 245.773 253.539 242.943 255.669C241.013 257.119 239.343 257.729 238.363 257.319C236.133 256.399 232.603 253.399 230.833 251.829C234.343 247.289 238.723 243.479 243.723 240.639ZM226.853 257.989L255.653 275.479C255.173 276.499 254.893 277.629 254.853 278.829L221.863 278.969C221.853 278.689 221.843 278.399 221.843 278.119C221.853 270.849 223.663 263.999 226.853 257.989ZM222.703 286.679C225.683 286.359 230.663 285.899 232.113 286.199C233.113 286.399 234.313 288.089 235.103 290.389C235.923 292.749 236.243 295.709 235.143 297.009C233.873 298.509 231.013 300.409 228.903 301.719C225.953 297.209 223.813 292.129 222.703 286.679ZM235.753 297.509C237.143 295.859 236.683 292.499 235.853 290.119C235.143 288.059 233.823 285.739 232.273 285.419C230.693 285.099 225.573 285.569 222.563 285.899C222.193 283.889 221.963 281.839 221.883 279.749L243.733 279.659C243.693 279.739 243.663 279.809 243.623 279.889C242.833 281.589 241.353 284.749 242.613 287.919C243.453 290.049 245.433 291.789 248.453 293.099L232.743 306.709C231.523 305.339 230.383 303.889 229.343 302.359C231.503 301.039 234.403 299.099 235.753 297.509ZM233.273 307.299L257.893 285.979L257.383 285.389L249.123 292.539C246.103 291.299 244.153 289.649 243.353 287.639C242.223 284.779 243.603 281.819 244.353 280.229C244.453 280.009 244.543 279.829 244.613 279.659L254.873 279.619C255.063 282.739 256.913 285.419 259.573 286.759L251.183 318.939C244.263 316.589 238.123 312.549 233.273 307.299ZM257.893 320.609C258.473 317.929 259.643 312.839 260.343 311.419C260.863 310.369 263.453 309.409 266.353 309.199C269.133 308.999 271.313 309.529 272.053 310.589C273.563 312.759 275.043 317.859 275.583 319.859C272.173 320.729 268.613 321.189 264.933 321.189C262.533 321.189 260.183 320.989 257.893 320.609ZM282.293 317.529L267.603 286.589C268.333 286.179 268.993 285.669 269.573 285.079L296.423 307.479C292.463 311.709 287.663 315.149 282.293 317.529ZM284.023 279.249L307.983 279.149C307.933 281.149 307.753 283.119 307.443 285.049C304.793 284.499 299.143 283.469 296.523 283.919C294.523 284.259 292.763 287.119 291.783 289.679C290.903 291.979 290.253 295.139 291.303 296.459C292.373 297.809 297.773 300.709 300.633 302.189C299.513 303.839 298.283 305.409 296.953 306.889L279.733 292.529C279.823 292.479 279.913 292.439 280.023 292.379C281.513 291.629 284.293 290.239 285.263 287.189C285.963 284.979 285.533 282.309 284.023 279.249ZM307.303 285.819C306.263 291.519 304.113 296.839 301.063 301.529C297.863 299.869 292.833 297.119 291.923 295.969C291.263 295.129 291.513 292.599 292.523 289.959C293.643 287.039 295.303 284.929 296.663 284.689C299.123 284.259 304.703 285.289 307.303 285.819ZM308.003 278.359L272.153 278.509V279.299L283.143 279.249C284.703 282.269 285.173 284.859 284.513 286.949C283.643 289.689 281.063 290.979 279.673 291.679C279.433 291.799 279.243 291.899 279.093 291.989L270.093 284.479C271.283 283.009 272.003 281.129 272.003 279.099C272.003 278.129 271.833 277.209 271.543 276.339L303.603 259.149C306.423 264.879 308.013 271.319 308.013 278.119C308.013 278.199 308.003 278.279 308.003 278.359Z" fill="#E9EEF1"/>
</g>
</svg>
