<svg width="335" height="322" viewBox="0 0 335 322" fill="none" xmlns="http://www.w3.org/2000/svg">
<g opacity="0.8">
<g clip-path="url(#clip0_7988_62622)">
<path d="M492.806 239.717L110.251 460.586C107.896 461.946 104.869 461.134 103.509 458.778L-15.1567 253.243C-16.5169 250.887 -15.7065 247.86 -13.3513 246.501L16.7062 229.147L17.353 230.267L-12.7046 247.621C-14.4439 248.625 -15.0415 250.857 -14.0369 252.597L104.626 458.128C105.631 459.868 107.863 460.466 109.602 459.462L492.157 238.593C493.897 237.589 494.494 235.357 493.49 233.617L374.826 28.0866C373.822 26.3466 371.59 25.7482 369.851 26.7524L338.849 44.6513L338.202 43.5311L369.204 25.6322C371.559 24.2724 374.586 25.084 375.946 27.4401L494.609 232.971C495.972 235.331 495.165 238.355 492.806 239.717Z" fill="#91999E"/>
<path d="M229.317 106.395L125.768 166.179L126.414 167.3L229.964 107.515L229.317 106.395Z" fill="#91999E"/>
<path d="M181.182 319.543C178.936 320.84 176.05 320.066 174.753 317.819C173.455 315.571 174.227 312.685 176.474 311.388C178.721 310.091 181.606 310.865 182.904 313.112C184.202 315.36 183.429 318.246 181.182 319.543ZM176.64 311.676C174.554 312.88 173.836 315.56 175.041 317.647C176.247 319.734 178.926 320.453 181.012 319.248C183.099 318.043 183.816 315.364 182.611 313.277C181.406 311.189 178.727 310.471 176.64 311.676Z" fill="#91999E"/>
<path d="M182.42 321.194C180.356 322.385 177.849 322.389 176.036 321.205L176.743 320.12C178.153 321.044 180.127 321.024 181.777 320.071C183.673 318.977 184.447 317.041 183.788 315.022L185.016 314.622C185.857 317.218 184.838 319.797 182.42 321.194Z" fill="#91999E"/>
<path d="M333.823 231.231C331.576 232.528 328.691 231.755 327.393 229.507C326.095 227.259 326.868 224.374 329.115 223.076C331.362 221.779 334.247 222.553 335.545 224.8C336.843 227.048 336.07 229.934 333.823 231.231ZM329.283 223.367C327.197 224.572 326.479 227.252 327.684 229.339C328.889 231.426 331.568 232.144 333.655 230.94C335.741 229.735 336.459 227.056 335.254 224.969C334.045 222.883 331.37 222.163 329.283 223.367Z" fill="#91999E"/>
<path d="M334.637 233.131C332.218 234.528 329.475 234.12 327.651 232.091L328.611 231.228C330.031 232.808 332.094 233.106 333.99 232.011C335.636 231.061 336.64 229.361 336.548 227.676L337.842 227.606C337.957 229.771 336.701 231.939 334.637 233.131Z" fill="#91999E"/>
<path d="M149.691 346.41C146.387 346.351 142.867 346.063 139.461 345.784C129.484 344.968 120.059 344.201 115.856 348.748C114.901 349.783 113.163 351.453 111.155 353.389C106.873 357.514 101.012 363.163 99.5073 365.814C97.2704 369.749 94.6042 371.588 91.5767 371.274C83.7572 370.462 73.6295 355.584 61.4692 327.048C52.4296 305.831 45.5834 284.578 45.5167 284.367L45.8407 284.265C46.112 285.114 73.2392 369.027 91.6142 370.934C94.494 371.233 97.0499 369.454 99.2152 365.645C100.747 362.953 106.39 357.514 110.924 353.144C112.928 351.21 114.662 349.542 115.612 348.516C119.929 343.848 129.434 344.623 139.495 345.446C142.894 345.723 146.409 346.009 149.699 346.071L149.691 346.41Z" fill="url(#paint0_linear_7988_62622)"/>
<path d="M210.906 302.375C205.508 303.982 199.266 305.401 193.762 306.652C185.073 308.627 177.575 310.327 175.46 312.18C173.304 314.067 172.312 318.917 171.402 324.142L171.07 324.084C171.988 318.795 172.996 313.887 175.238 311.925C177.417 310.02 184.957 308.305 193.69 306.32C199.19 305.072 205.423 303.653 210.813 302.05L210.906 302.375Z" fill="url(#paint1_linear_7988_62622)"/>
<path d="M279.834 262.384L279.548 262.206L280.136 261.26C281.279 259.43 282.569 257.355 283.511 255.358C284.768 252.681 286.6 249.915 288.804 247.354C293.67 241.706 325.751 222.358 330.666 222.104C333.754 221.944 338.576 222.332 343.896 223.168L343.844 223.501C338.546 222.668 333.749 222.281 330.682 222.443C325.8 222.693 293.903 241.955 289.06 247.574C286.872 250.111 285.06 252.851 283.817 255.5C282.871 257.515 281.571 259.599 280.422 261.437L279.834 262.384Z" fill="url(#paint2_linear_7988_62622)"/>
<path d="M296.138 270.452L296.112 270.467L234.735 305.823L234.708 305.829L215.032 309.357L197.014 278.15L197.024 278.089L197.889 273.02L287.614 221.217L291.556 223.079L309.785 254.652L296.138 270.452ZM234.619 305.502L295.922 270.188L309.375 254.615L291.318 223.34L287.632 221.6L198.194 273.237L197.368 278.09L215.205 308.984L234.619 305.502Z" fill="#91999E"/>
<path d="M269.073 282.409L269.039 282.429L234.925 301.532L217.252 303.71C215.389 303.939 213.579 303.038 212.642 301.413L199.522 278.689C198.386 276.721 199.06 274.201 201.027 273.065L261.844 237.953C263.401 237.054 265.397 237.589 266.296 239.146L279.75 262.449C280.746 264.174 280.638 266.333 279.474 267.946L269.073 282.409ZM234.817 301.206L268.841 282.155L279.204 267.753C280.289 266.245 280.39 264.231 279.461 262.621L266.007 239.318C265.2 237.922 263.41 237.442 262.015 238.248L201.198 273.36C199.395 274.401 198.775 276.715 199.816 278.519L212.936 301.243C213.807 302.752 215.486 303.59 217.213 303.374L234.817 301.206Z" fill="#91999E"/>
<path d="M267.763 280.143L267.73 280.162L233.616 299.265L215.943 301.444C214.079 301.673 212.27 300.771 211.332 299.147L199.521 278.689L199.816 278.519L211.627 298.977C212.498 300.485 214.176 301.324 215.903 301.108L233.509 298.934L267.533 279.882L277.896 265.481C278.981 263.973 279.082 261.958 278.153 260.349L266.007 239.312L266.302 239.142L278.448 260.179C279.444 261.904 279.336 264.062 278.172 265.675L267.763 280.143Z" fill="#91999E"/>
<path d="M264.415 274.344L264.382 274.363L230.268 293.467L212.595 295.645C210.731 295.874 208.922 294.973 207.984 293.348L199.521 278.689L199.815 278.519L208.279 293.178C209.15 294.687 210.828 295.525 212.555 295.309L230.161 293.135L264.185 274.084L274.548 259.682C275.633 258.174 275.734 256.16 274.805 254.55L266.009 239.316L266.304 239.146L275.1 254.38C276.096 256.105 275.988 258.263 274.826 259.88L264.415 274.344Z" fill="#91999E"/>
<path d="M264.147 243.468L203.121 278.701L203.768 279.822L264.794 244.588L264.147 243.468Z" fill="#91999E"/>
<path d="M269.662 245.317L202.75 283.948L202.92 284.243L269.832 245.612L269.662 245.317Z" fill="#91999E"/>
<path d="M299.423 264.885C294.884 267.506 289.055 265.942 286.433 261.402C283.812 256.862 285.373 251.032 289.912 248.411C294.45 245.791 300.28 247.354 302.901 251.894C305.522 256.435 303.965 262.263 299.423 264.885ZM290.082 248.706C285.704 251.234 284.196 256.854 286.727 261.238C289.257 265.621 294.875 267.128 299.257 264.598C303.639 262.068 305.143 256.45 302.612 252.066C300.081 247.683 294.46 246.179 290.082 248.706Z" fill="#91999E"/>
<path d="M298.182 262.725C298.055 262.798 297.922 262.87 297.791 262.935C294.18 264.741 289.772 263.269 287.969 259.655C287.093 257.905 286.952 255.92 287.572 254.064C288.193 252.207 289.494 250.704 291.246 249.832C294.856 248.026 299.265 249.499 301.071 253.111C302.806 256.59 301.507 260.805 298.182 262.725ZM291.013 250.335C289.535 251.188 288.433 252.537 287.892 254.168C287.301 255.938 287.434 257.833 288.268 259.502C289.99 262.949 294.193 264.35 297.639 262.63C301.086 260.903 302.485 256.705 300.763 253.259C299.042 249.812 294.839 248.41 291.393 250.13C291.265 250.194 291.136 250.264 291.013 250.335Z" fill="#91999E"/>
<path d="M282.388 254.981C279.488 256.655 275.771 255.655 274.098 252.758C272.423 249.857 273.421 246.139 276.318 244.466C279.218 242.792 282.936 243.792 284.608 246.689C286.281 249.587 285.285 253.309 282.388 254.981ZM276.484 244.754C273.748 246.333 272.807 249.849 274.387 252.586C275.967 255.323 279.482 256.265 282.218 254.686C284.954 253.106 285.895 249.591 284.315 246.854C282.735 244.117 279.22 243.174 276.484 244.754Z" fill="#91999E"/>
<path d="M280.901 252.404C280.214 252.801 279.376 252.936 278.548 252.717C276.899 252.275 275.914 250.569 276.356 248.92C276.801 247.269 278.503 246.286 280.152 246.728C281.8 247.17 282.785 248.877 282.344 250.526C282.123 251.35 281.587 252.008 280.901 252.404ZM278.447 248.155C278.048 248.386 277.733 248.772 277.608 249.252C277.351 250.212 277.926 251.209 278.886 251.467C279.846 251.724 280.842 251.149 281.099 250.189C281.356 249.229 280.781 248.232 279.821 247.975C279.334 247.847 278.847 247.925 278.447 248.155Z" fill="#91999E"/>
<path d="M289.893 222.631L289.6 222.803L308.757 255.553L309.051 255.381L289.893 222.631Z" fill="#91999E"/>
<path d="M168.225 319.235L142.654 333.999L142.825 334.294L168.396 319.53L168.225 319.235Z" fill="#91999E"/>
<path d="M168.459 319.295L168.164 319.465L183.925 346.763L184.22 346.593L168.459 319.295Z" fill="#91999E"/>
<path d="M214.501 239.16L210.724 241.341L206.475 233.981L210.252 231.801L214.501 239.16ZM210.848 240.876L214.039 239.033L210.129 232.26L206.938 234.102L210.848 240.876Z" fill="#91999E"/>
<path d="M210.44 240.514L209.548 241.029L205.301 233.673L209.825 231.061L213.987 238.271L213.692 238.442L209.698 231.523L205.764 233.794L209.674 240.567L210.272 240.223L210.44 240.514Z" fill="#91999E"/>
<path d="M228.108 231.145L224.331 233.326L220.082 225.966L223.859 223.786L228.108 231.145ZM224.456 232.861L227.647 231.018L223.738 224.249L220.547 226.091L224.456 232.861Z" fill="#91999E"/>
<path d="M224.051 232.496L223.155 233.014L218.908 225.658L223.432 223.046L227.595 230.256L227.304 230.424L223.309 223.505L219.371 225.779L223.282 232.552L223.883 232.205L224.051 232.496Z" fill="#91999E"/>
<path d="M241.727 223.326L237.95 225.507L233.701 218.147L237.478 215.967L241.727 223.326ZM238.077 225.045L241.268 223.203L237.358 216.43L234.166 218.272L238.077 225.045Z" fill="#91999E"/>
<path d="M237.672 224.681L236.78 225.196L232.531 217.837L237.051 215.227L241.214 222.437L240.923 222.605L236.93 215.69L232.993 217.964L236.901 224.733L237.502 224.386L237.672 224.681Z" fill="#91999E"/>
<path d="M255.339 215.309L251.561 217.489L247.314 210.134L251.092 207.953L255.339 215.309ZM251.684 217.03L254.876 215.188L250.967 208.418L247.776 210.261L251.684 217.03Z" fill="#91999E"/>
<path d="M251.278 216.662L250.385 217.177L246.139 209.822L250.662 207.21L254.825 214.42L254.53 214.59L250.536 207.671L246.598 209.945L250.508 216.718L251.109 216.371L251.278 216.662Z" fill="#91999E"/>
<path d="M219.169 220.324C218.411 220.762 217.443 220.499 217.008 219.745C216.572 218.99 216.833 218.019 217.587 217.583C218.341 217.148 219.312 217.409 219.748 218.163C220.183 218.917 219.923 219.889 219.169 220.324ZM217.755 217.875C217.161 218.217 216.956 218.983 217.299 219.577C217.642 220.17 218.407 220.375 219.001 220.033C219.594 219.69 219.799 218.925 219.456 218.331C219.114 217.737 218.348 217.532 217.755 217.875Z" fill="#91999E"/>
<path d="M208.971 226.171L200.514 231.054L200.684 231.349L209.142 226.466L208.971 226.171Z" fill="#91999E"/>
<path d="M223.937 220.189L215.83 224.87L216 225.165L224.107 220.484L223.937 220.189Z" fill="#91999E"/>
<path d="M233.667 211.564L230.256 213.533L230.426 213.828L233.838 211.859L233.667 211.564Z" fill="#91999E"/>
<path d="M234.851 213.614L231.439 215.583L231.61 215.878L235.021 213.909L234.851 213.614Z" fill="#91999E"/>
<path d="M248.025 203.898L244.613 205.868L244.784 206.163L248.195 204.193L248.025 203.898Z" fill="#91999E"/>
<path d="M249.208 205.948L245.797 207.917L245.967 208.212L249.379 206.243L249.208 205.948Z" fill="#91999E"/>
<path d="M208.842 228.805L204.613 231.247L204.784 231.542L209.012 229.1L208.842 228.805Z" fill="#91999E"/>
<path d="M214.439 198.92C210.102 201.424 204.534 199.935 202.027 195.592C199.52 191.25 201.01 185.685 205.35 183.178C209.691 180.672 215.256 182.164 217.763 186.507C220.27 190.849 218.776 196.416 214.439 198.92ZM205.521 183.473C201.344 185.885 199.909 191.244 202.322 195.422C204.734 199.6 210.092 201.037 214.269 198.625C218.445 196.214 219.88 190.855 217.468 186.677C215.056 182.499 209.697 181.062 205.521 183.473Z" fill="#91999E"/>
<path d="M200.666 191.349L195.019 191.359L195.017 191.141L200.665 191.131L200.666 191.349Z" fill="#91999E"/>
<path d="M195.936 186.161L195.863 186.364L201.181 188.264L201.254 188.061L195.936 186.161Z" fill="#91999E"/>
<path d="M198.42 181.769L198.283 181.936L202.656 185.51L202.793 185.343L198.42 181.769Z" fill="#91999E"/>
<path d="M202.276 178.488L202.092 178.599L205.014 183.433L205.198 183.321L202.276 178.488Z" fill="#91999E"/>
<path d="M206.79 176.729L207.912 182.264L208.123 182.222L207.001 176.686L206.79 176.729Z" fill="#91999E"/>
<path d="M211.841 176.552L211.039 182.142L211.252 182.173L212.054 176.583L211.841 176.552Z" fill="#91999E"/>
<path d="M216.668 178.083L214.029 183.075L214.22 183.176L216.858 178.184L216.668 178.083Z" fill="#91999E"/>
<path d="M220.671 181.134L216.518 184.958L216.664 185.116L220.817 181.292L220.671 181.134Z" fill="#91999E"/>
<path d="M223.543 185.564L218.342 187.76L218.259 187.564L223.458 185.364L223.543 185.564Z" fill="#91999E"/>
<path d="M218.972 190.601L218.984 190.817L224.621 190.49L224.609 190.274L218.972 190.601Z" fill="#91999E"/>
<path d="M218.668 193.714L218.607 193.921L224.026 195.512L224.086 195.305L218.668 193.714Z" fill="#91999E"/>
<path d="M217.312 196.551L217.186 196.725L221.754 200.045L221.881 199.87L217.312 196.551Z" fill="#91999E"/>
<path d="M212.068 205.89L211.852 205.92L211.048 200.331L211.265 200.3L212.068 205.89Z" fill="#91999E"/>
<path d="M207.916 200.212L206.797 205.748L207.008 205.791L208.127 200.255L207.916 200.212Z" fill="#91999E"/>
<path d="M202.293 203.986L202.109 203.873L205.022 199.04L205.21 199.15L202.293 203.986Z" fill="#91999E"/>
<path d="M198.446 200.716L198.309 200.547L202.674 196.971L202.809 197.137L198.446 200.716Z" fill="#91999E"/>
<path d="M195.848 196.125L195.92 196.328L201.238 194.433L201.166 194.23L195.848 196.125Z" fill="#91999E"/>
<path d="M213.602 197.692C209.933 199.81 205.228 198.549 203.109 194.878C200.99 191.208 202.25 186.503 205.919 184.384C209.588 182.266 214.293 183.528 216.412 187.198C218.531 190.868 217.267 195.576 213.602 197.692ZM206.087 184.676C202.582 186.699 201.378 191.198 203.402 194.704C205.426 198.21 209.925 199.417 213.429 197.393C216.934 195.37 218.143 190.868 216.118 187.362C214.094 183.856 209.592 182.652 206.087 184.676Z" fill="#91999E"/>
<path d="M210.824 209.804C210.82 210.478 210.555 211.045 209.902 211.043C209.25 211.042 208.988 210.476 208.989 209.798C208.993 209.124 209.261 208.561 209.91 208.565C210.562 208.566 210.826 209.126 210.824 209.804ZM209.912 208.837C209.459 208.835 209.318 209.29 209.315 209.794C209.315 210.302 209.451 210.761 209.905 210.763C210.359 210.765 210.499 210.31 210.503 209.8C210.5 209.294 210.366 208.839 209.912 208.837Z" fill="#91999E"/>
<path d="M201.903 208.463L201.782 208.692C201.382 208.5 201.25 208.572 201.086 208.805L200.873 208.695L201.968 206.584L202.245 206.727L201.409 208.34C201.544 208.297 201.712 208.364 201.903 208.463Z" fill="#91999E"/>
<path d="M194.741 201.073C194.29 200.826 194.111 200.69 193.815 200.866C193.645 200.969 193.475 201.157 193.662 201.472C193.875 201.832 194.173 201.779 194.455 201.612L194.62 201.89C194.199 202.143 193.724 202.113 193.421 201.606C193.215 201.257 193.252 200.822 193.644 200.586C194.039 200.348 194.422 200.555 194.77 200.753C195.042 200.905 195.299 201.049 195.546 200.977L195.554 200.972L194.897 199.878L195.134 199.736L195.982 201.153C195.616 201.374 195.184 201.315 194.741 201.073Z" fill="#91999E"/>
<path d="M192.41 193.452L192.397 193.126C192.741 193.111 192.969 192.955 192.95 192.508C192.933 192.099 192.76 191.971 192.486 191.979C192.126 191.993 192.058 192.256 192.069 192.489L192.08 192.742L191.802 192.752L191.792 192.51C191.781 192.267 191.659 192.099 191.385 192.107C191.191 192.115 191.009 192.24 191.023 192.565C191.043 193.032 191.297 193.109 191.533 193.097L191.547 193.422C191.11 193.441 190.773 193.168 190.747 192.58C190.73 192.171 190.952 191.805 191.373 191.785C191.626 191.774 191.789 191.894 191.896 192.131L191.902 192.132C191.989 191.808 192.195 191.665 192.472 191.654C192.929 191.634 193.205 191.958 193.226 192.468C193.251 193.081 192.946 193.431 192.41 193.452Z" fill="#91999E"/>
<path d="M194.82 183.289L194.275 184.301L194.031 184.173L193.218 182.427L193.363 182.154L194.725 182.891L194.881 182.602L195.125 182.73L194.968 183.02L195.459 183.284L195.313 183.557L194.82 183.289ZM194.577 183.161L193.593 182.629L194.183 183.892L194.577 183.161Z" fill="#91999E"/>
<path d="M200.288 177.195L200.565 177.029C200.708 177.216 200.932 177.345 201.251 177.156C201.532 176.989 201.616 176.702 201.416 176.374C201.234 176.066 200.979 176.039 200.716 176.195C200.532 176.307 200.406 176.459 200.385 176.656L200.099 176.825L199.655 175.598L200.781 174.928L200.923 175.165L200.011 175.707L200.261 176.398L200.265 176.406C200.301 176.226 200.411 176.063 200.636 175.928C201.022 175.7 201.469 175.836 201.692 176.214C201.956 176.654 201.812 177.146 201.398 177.395C200.938 177.666 200.494 177.518 200.288 177.195Z" fill="#91999E"/>
<path d="M208.378 173.838C208.348 173.079 208.647 172.588 209.234 172.562C209.677 172.546 209.965 172.837 210.011 173.184L209.686 173.198C209.647 172.967 209.507 172.828 209.245 172.84C208.76 172.861 208.668 173.332 208.685 173.775L208.687 173.804L208.693 173.806C208.809 173.575 209.038 173.447 209.31 173.435C209.766 173.415 210.096 173.718 210.114 174.19C210.135 174.631 209.836 175.018 209.322 175.041C208.671 175.068 208.409 174.597 208.378 173.838ZM209.309 174.77C209.635 174.756 209.802 174.545 209.788 174.229C209.776 173.888 209.575 173.705 209.29 173.72C208.946 173.735 208.737 173.96 208.753 174.279C208.769 174.584 208.968 174.782 209.309 174.77Z" fill="#91999E"/>
<path d="M219.297 175.336L219.298 175.33L218.147 174.715L218.275 174.472L219.73 175.25L219.615 175.466C218.923 175.611 218.106 176.213 217.741 176.891L217.452 176.735C217.836 176.03 218.747 175.469 219.297 175.336Z" fill="#91999E"/>
<path d="M224.015 181.354C224.291 181.17 224.542 181.259 224.753 181.391L224.76 181.387C224.741 181.199 224.782 180.986 225.005 180.837C225.347 180.61 225.723 180.736 225.978 181.117C226.23 181.494 226.206 181.891 225.866 182.122C225.644 182.271 225.431 182.229 225.265 182.141L225.258 182.145C225.297 182.386 225.285 182.657 225.012 182.84C224.612 183.105 224.201 182.919 223.917 182.496C223.633 182.072 223.618 181.623 224.015 181.354ZM224.147 182.343C224.343 182.638 224.594 182.728 224.839 182.566C225.08 182.407 225.091 182.141 224.894 181.842C224.698 181.547 224.444 181.46 224.206 181.617C223.959 181.784 223.948 182.05 224.147 182.343ZM225.124 181.689C225.277 181.92 225.463 182.001 225.686 181.853C225.901 181.709 225.9 181.5 225.748 181.27C225.595 181.039 225.401 180.962 225.185 181.106C224.965 181.259 224.971 181.459 225.124 181.689Z" fill="#91999E"/>
<path d="M227.33 190.174L227.344 190.499C227.114 190.542 226.974 190.678 226.988 190.943C227.009 191.429 227.484 191.518 227.925 191.498L227.954 191.496L227.955 191.49C227.721 191.377 227.593 191.147 227.58 190.875C227.557 190.421 227.858 190.088 228.33 190.069C228.771 190.049 229.159 190.342 229.184 190.86C229.212 191.511 228.743 191.777 227.986 191.811C227.229 191.844 226.735 191.548 226.709 190.96C226.693 190.511 226.985 190.223 227.33 190.174ZM227.865 190.885C227.88 191.23 228.109 191.436 228.428 191.421C228.735 191.409 228.933 191.209 228.918 190.865C228.902 190.535 228.693 190.372 228.374 190.387C228.035 190.404 227.852 190.604 227.865 190.885Z" fill="#91999E"/>
<path d="M226.556 198.875C227.164 199.171 227.555 199.657 227.271 200.244C226.988 200.831 226.36 200.82 225.751 200.524C225.142 200.229 224.756 199.74 225.041 199.157C225.324 198.57 225.947 198.579 226.556 198.875ZM225.29 199.277C225.089 199.687 225.44 200.012 225.896 200.232C226.353 200.455 226.825 200.531 227.026 200.121C227.228 199.712 226.876 199.387 226.418 199.163C225.961 198.94 225.485 198.866 225.29 199.277Z" fill="#91999E"/>
<path d="M194.848 173.261L195.116 173.106L196.212 175.003L197.331 174.357L197.469 174.596L196.081 175.397L194.848 173.261Z" fill="#91999E"/>
<path d="M196.502 172.307L196.771 172.151L198.004 174.287L197.735 174.442L196.502 172.307Z" fill="#91999E"/>
<path d="M197.213 171.895L197.541 171.705L199.616 172.842L199.624 172.838L198.613 171.087L198.881 170.932L200.114 173.068L199.786 173.257L197.711 172.12L197.704 172.124L198.715 173.876L198.446 174.031L197.213 171.895Z" fill="#91999E"/>
<path d="M199.324 170.677L200.802 169.824L200.94 170.063L199.731 170.761L200.119 171.433L201.183 170.819L201.321 171.058L200.257 171.672L200.688 172.419L201.931 171.702L202.069 171.941L200.557 172.813L199.324 170.677Z" fill="#91999E"/>
<path d="M187.455 186.444C186.656 186.905 185.632 186.63 185.17 185.831C184.709 185.032 184.983 184.007 185.782 183.546C186.581 183.085 187.605 183.36 188.067 184.159C188.528 184.958 188.25 185.985 187.455 186.444ZM185.952 183.841C185.318 184.207 185.099 185.026 185.465 185.661C185.832 186.295 186.65 186.515 187.285 186.149C187.919 185.782 188.138 184.964 187.772 184.329C187.405 183.694 186.587 183.475 185.952 183.841Z" fill="#91999E"/>
<path d="M186.894 185.467C186.633 185.618 186.301 185.526 186.152 185.268C186.004 185.011 186.094 184.675 186.351 184.526C186.609 184.378 186.944 184.468 187.093 184.725C187.242 184.983 187.156 185.316 186.894 185.467ZM186.517 184.814C186.42 184.87 186.383 184.996 186.441 185.096C186.5 185.197 186.623 185.23 186.724 185.172C186.825 185.114 186.858 184.99 186.8 184.89C186.742 184.789 186.614 184.758 186.517 184.814Z" fill="#91999E"/>
<path d="M190.498 182.561L183.988 186.319L184.159 186.614L190.668 182.856L190.498 182.561Z" fill="#91999E"/>
<path d="M191.172 182.868C190.91 183.019 190.579 182.927 190.43 182.669C190.281 182.411 190.371 182.076 190.628 181.927C190.89 181.776 191.222 181.868 191.37 182.126C191.519 182.384 191.433 182.717 191.172 182.868ZM190.797 182.218C190.7 182.274 190.663 182.4 190.721 182.501C190.779 182.602 190.903 182.635 191.004 182.577C191.104 182.518 191.137 182.395 191.079 182.294C191.021 182.193 190.894 182.162 190.797 182.218Z" fill="#91999E"/>
<path d="M358.487 204.195C316.56 228.401 262.751 213.969 238.538 172.03C214.325 130.092 228.728 76.2723 270.655 52.0659C312.582 27.8594 366.391 42.2914 390.604 84.2302C414.817 126.169 400.41 179.99 358.487 204.195ZM271.302 53.186C229.995 77.0348 215.798 130.058 239.656 171.38C263.513 212.703 316.531 226.92 357.838 203.071C399.145 179.222 413.342 126.199 389.484 84.8766C365.627 43.5539 312.609 29.3373 271.302 53.186Z" fill="#91999E"/>
<path d="M331.33 157.159C316.15 165.923 296.672 160.7 287.905 145.515C279.137 130.329 284.353 110.849 299.533 102.085C314.713 93.3206 334.191 98.5437 342.958 113.729C351.722 128.917 346.506 148.397 331.33 157.159ZM300.18 103.205C285.619 111.611 280.615 130.302 289.024 144.868C297.434 159.434 316.123 164.446 330.683 156.039C345.244 147.633 350.248 128.942 341.839 114.376C333.425 99.8121 314.74 94.7985 300.18 103.205Z" fill="#91999E"/>
<path d="M347.13 186.771C344.857 188.084 342.119 188.161 339.615 186.978C336.796 185.648 334.798 182.988 334.272 179.861C333.715 176.534 333.055 172.255 332.356 167.725C331.75 163.778 331.118 159.702 330.542 156.152L330.874 156.099C331.453 159.653 332.081 163.732 332.691 167.676C333.39 172.206 334.05 176.485 334.605 179.809C335.113 182.826 337.038 185.394 339.759 186.676C342.16 187.808 344.785 187.736 346.958 186.482C361.059 178.341 384.26 159.196 381.196 122.461C380.952 119.53 379.383 116.916 377 115.469C375.029 114.272 372.824 114.081 370.792 114.931L345.911 124.736L345.788 124.419L370.665 114.616C372.797 113.724 375.111 113.921 377.175 115.179C379.651 116.682 381.276 119.393 381.532 122.431C384.616 159.348 361.302 178.589 347.13 186.771Z" fill="#91999E"/>
<path d="M293.74 187.281C293.587 187.369 293.432 187.454 293.272 187.531C290.802 188.778 288.062 188.772 285.756 187.52C275.563 181.984 267.261 174.983 261.076 166.71C252.071 154.664 247.975 140.33 248.893 124.103C249.057 121.231 250.66 118.543 253.19 116.918C255.451 115.463 258.047 115.124 260.305 116.001L283.981 125.098L283.859 125.413L260.183 116.315C258.028 115.479 255.539 115.805 253.373 117.2C250.936 118.772 249.389 121.358 249.232 124.121C248.317 140.267 252.394 154.527 261.349 166.502C267.503 174.739 275.77 181.705 285.919 187.216C288.129 188.415 290.753 188.418 293.124 187.223C295.808 185.873 297.667 183.256 298.091 180.224C298.517 177.204 299.11 173.92 299.735 170.443C300.468 166.37 301.225 162.164 301.774 158.054L302.109 158.1C301.561 162.219 300.802 166.431 300.068 170.504C299.441 173.978 298.853 177.26 298.426 180.269C298.006 183.24 296.271 185.82 293.74 187.281Z" fill="#91999E"/>
<path d="M330.082 102.21L329.86 101.955L353.398 81.2563C355.119 79.7298 355.973 77.4498 355.733 75.0092C355.465 72.2613 353.876 69.7838 351.483 68.3722C337.546 60.1693 323.04 57.2579 308.361 59.7187C298.284 61.4094 288.344 65.5604 278.809 72.0609C276.671 73.5197 275.43 75.8538 275.408 78.4703C275.385 81.2917 276.818 83.9987 279.243 85.7155C285.273 89.9803 294.076 96.1845 301.761 101.54L301.567 101.816C293.882 96.4607 285.079 90.2565 279.049 85.9917C276.534 84.2128 275.044 81.399 275.068 78.4675C275.091 75.7408 276.384 73.307 278.615 71.7847C288.188 65.2568 298.176 61.0837 308.299 59.3863C323.058 56.9092 337.641 59.8352 351.649 68.0822C354.138 69.5479 355.789 72.1241 356.063 74.9778C356.312 77.528 355.422 79.9087 353.614 81.5099L330.082 102.21Z" fill="#91999E"/>
<path d="M348.633 186.938C347.681 187.488 346.787 187.974 345.973 188.399C343.806 189.525 341.149 189.432 338.684 188.136C335.655 186.545 333.527 183.531 333.123 180.27C332.711 176.963 332.165 173.017 331.634 169.201C331.033 164.893 330.417 160.44 329.993 156.861L330.329 156.821C330.755 160.394 331.372 164.852 331.971 169.156C332.502 172.972 333.048 176.918 333.458 180.231C333.849 183.381 335.911 186.297 338.844 187.835C341.209 189.078 343.752 189.173 345.819 188.099C357.331 182.1 383.926 163.982 382.381 125.31C382.274 122.564 380.854 120.019 378.581 118.503C376.563 117.154 374.178 116.834 372.039 117.62L346.707 127.118L346.59 126.802L371.922 117.305C374.166 116.477 376.66 116.814 378.77 118.22C381.128 119.796 382.606 122.442 382.72 125.294C384.158 161.419 361.17 179.7 348.633 186.938Z" fill="#91999E"/>
<path d="M328.698 101.845L328.473 101.592C334.188 96.5102 345.976 85.9751 350.602 81.8159C353.132 79.5437 354.474 76.29 354.1 73.3243C353.82 71.1064 352.59 69.3219 350.634 68.2956C339.01 62.2121 308.664 50.5687 278 73.7937C275.665 75.5597 274.303 78.1483 274.353 80.718C274.396 82.8343 275.399 84.6845 277.177 85.9281L300.639 102.189L300.445 102.465L276.983 86.2043C275.115 84.8985 274.061 82.9529 274.014 80.7248C273.961 78.0471 275.375 75.3589 277.794 73.524C308.606 50.1839 339.108 61.8818 350.788 67.9929C352.844 69.0711 354.14 70.9462 354.431 73.2775C354.817 76.3505 353.438 79.7204 350.826 82.0652C346.204 86.2223 334.411 96.7595 328.698 101.845Z" fill="#91999E"/>
<path d="M293.857 188.672C293.704 188.761 293.549 188.845 293.388 188.928C290.918 190.175 288.177 190.169 285.872 188.917C270.694 180.678 245.542 161.396 247.615 124.817C247.773 122.022 249.702 119.106 252.645 117.213C255.326 115.486 258.265 114.984 260.516 115.855L282.999 124.611L282.877 124.925L260.393 116.17C258.244 115.335 255.414 115.828 252.828 117.496C249.973 119.333 248.105 122.149 247.95 124.838C245.889 161.23 270.924 180.421 286.03 188.622C288.236 189.822 290.864 189.823 293.235 188.629C295.921 187.272 297.775 184.658 298.201 181.629C298.624 178.637 299.194 175.186 299.797 171.532C300.544 167.024 301.312 162.364 301.883 158.086L302.218 158.132C301.649 162.413 300.877 167.076 300.133 171.588C299.528 175.238 298.961 178.686 298.54 181.673C298.123 184.631 296.388 187.211 293.857 188.672Z" fill="#91999E"/>
<path d="M263.525 115.741L263.194 115.668C265.612 104.573 270.643 96.0983 279.503 88.1896L279.729 88.4426C270.923 96.2998 265.926 104.721 263.525 115.741Z" fill="url(#paint3_linear_7988_62622)"/>
<path d="M333.25 181.03C322.578 184.388 311.044 184.237 299.895 180.597L300 180.278C311.078 183.898 322.54 184.047 333.146 180.711L333.25 181.03Z" fill="url(#paint4_linear_7988_62622)"/>
<path d="M266.454 116.434L266.124 116.356C268.608 106.185 274.582 96.1038 281.718 90.0425L281.936 90.2999C274.852 96.3118 268.92 106.328 266.454 116.434Z" fill="url(#paint5_linear_7988_62622)"/>
<path d="M331.611 179.003C321.551 182.172 309.725 181.841 299.967 178.12L300.087 177.802C309.776 181.498 321.525 181.824 331.508 178.679L331.611 179.003Z" fill="url(#paint6_linear_7988_62622)"/>
<path d="M268.034 116.786L267.704 116.707C270.194 106.503 275.761 96.9412 282.597 91.1373L282.815 91.3946C276.032 97.1528 270.505 106.647 268.034 116.786Z" fill="url(#paint7_linear_7988_62622)"/>
<path d="M331.208 177.816C321.538 180.865 310.381 180.471 300.598 176.74L300.718 176.422C310.432 180.128 321.511 180.517 331.106 177.492L331.208 177.816Z" fill="url(#paint8_linear_7988_62622)"/>
<path d="M329.554 74.9292C320.074 72.3872 310.186 72.9135 300.967 76.4438L300.844 76.1267C310.132 72.571 320.09 72.0443 329.639 74.6016L329.554 74.9292Z" fill="#91999E"/>
<path d="M285.071 165.864C276.816 159.454 270.883 150.298 268.373 140.088L268.7 140.009C271.193 150.145 277.083 159.235 285.277 165.601L285.071 165.864Z" fill="#91999E"/>
<path d="M357.798 201.999C316.961 225.577 264.546 211.525 240.958 170.669C217.372 129.817 231.404 77.3965 272.245 53.8172C313.082 30.2399 365.497 44.2918 389.085 85.1478C412.671 126 398.635 178.422 357.798 201.999ZM272.415 54.1121C231.739 77.5967 217.76 129.807 241.253 170.499C264.746 211.19 316.951 225.189 357.628 201.704C398.304 178.22 412.283 126.01 388.79 85.318C365.297 44.6263 313.092 30.6276 272.415 54.1121Z" fill="#91999E"/>
<path d="M346.468 182.532C316.485 199.843 278.005 189.525 260.688 159.531C243.371 129.537 253.675 91.0532 283.658 73.7426C313.641 56.4319 352.12 66.7502 369.437 96.7444C386.754 126.739 376.451 165.222 346.468 182.532ZM284.305 74.8627C254.937 91.8178 244.849 129.51 261.808 158.884C278.767 188.259 316.454 198.367 345.821 181.412C375.184 164.459 385.277 126.765 368.318 97.3908C351.358 68.0165 313.668 57.9098 284.305 74.8627Z" fill="#91999E"/>
<path d="M146.034 326.431C104.107 350.638 50.2983 336.206 26.0849 294.267C1.87151 252.328 16.2753 198.509 58.2021 174.302C100.125 150.098 153.938 164.528 178.151 206.466C202.364 248.405 187.957 302.227 146.034 326.431ZM58.8488 175.422C17.5378 199.273 3.34107 252.296 27.1987 293.619C51.0564 334.941 104.074 349.158 145.381 325.309C186.688 301.461 200.885 248.438 177.027 207.115C153.17 165.792 100.156 151.574 58.8488 175.422Z" fill="#91999E"/>
<path d="M118.877 279.396C103.697 288.16 84.2188 282.937 75.4514 267.751C66.684 252.565 71.8997 233.085 87.0797 224.321C102.26 215.557 121.738 220.78 130.505 235.966C139.269 251.153 134.053 270.634 118.877 279.396ZM87.7286 225.445C73.1682 233.851 68.1637 252.542 76.5733 267.108C84.9829 281.674 103.672 286.686 118.232 278.279C132.793 269.873 137.797 251.182 129.388 236.616C120.972 222.048 102.289 217.039 87.7286 225.445Z" fill="#91999E"/>
<path d="M134.676 309.007C132.403 310.32 129.666 310.397 127.161 309.214C124.343 307.884 122.345 305.224 121.819 302.098C121.49 300.141 121.108 297.893 120.701 295.499C119.799 290.195 118.781 284.182 117.931 278.977L118.263 278.924C119.113 284.129 120.136 290.14 121.034 295.446C121.443 297.844 121.825 300.092 122.154 302.049C122.662 305.066 124.587 307.634 127.308 308.916C129.709 310.048 132.334 309.976 134.507 308.722C148.608 300.581 171.809 281.436 168.745 244.701C168.501 241.77 166.932 239.156 164.549 237.709C162.578 236.512 160.373 236.321 158.341 237.171L133.46 246.976L133.336 246.659L158.214 236.856C160.346 235.964 162.66 236.161 164.724 237.419C167.2 238.922 168.825 241.633 169.081 244.671C172.163 281.584 148.849 300.825 134.676 309.007Z" fill="#91999E"/>
<path d="M81.2867 309.517C81.1337 309.606 80.9785 309.69 80.8174 309.773C78.3473 311.02 75.6068 311.014 73.301 309.762C63.1079 304.226 54.8059 297.225 48.6211 288.952C39.6158 276.906 35.5207 262.572 36.4387 246.345C36.6018 243.473 38.2051 240.785 40.7355 239.16C42.994 237.701 45.5923 237.366 47.8504 238.243L71.5262 247.34L71.4042 247.655L47.7283 238.558C45.5731 237.721 43.0843 238.048 40.9185 239.442C38.4815 241.014 36.9339 243.6 36.7777 246.363C35.8626 262.509 39.9397 276.769 48.8944 288.744C55.0481 296.981 63.3151 303.947 73.4643 309.458C75.6704 310.659 78.2986 310.66 80.6695 309.465C83.3536 308.115 85.2122 305.498 85.636 302.466L85.9849 299.984C86.8552 293.811 87.8419 286.814 88.7301 280.138L89.065 280.184C88.1768 286.86 87.19 293.857 86.3198 300.03L85.9709 302.511C85.5526 305.476 83.8173 308.056 81.2867 309.517Z" fill="#91999E"/>
<path d="M117.631 224.447L117.409 224.191L140.946 203.493C142.668 201.966 143.521 199.686 143.282 197.246C143.014 194.498 141.424 192.02 139.032 190.608C125.096 182.409 110.585 179.496 95.9081 181.961C85.8312 183.652 75.8907 187.803 66.3562 194.303C64.2175 195.762 62.9772 198.096 62.955 200.713C62.9317 203.534 64.3652 206.241 66.7897 207.958C72.8202 212.222 81.6227 218.427 89.3081 223.782L89.1142 224.058C81.4288 218.703 72.6264 212.499 66.5958 208.234C64.0807 206.455 62.5906 203.641 62.615 200.71C62.6383 197.983 63.9305 195.549 66.1619 194.027C75.7354 187.499 85.7228 183.326 95.8457 181.629C110.604 179.151 125.188 182.077 139.196 190.324C141.685 191.79 143.336 194.366 143.61 197.22C143.858 199.77 142.969 202.151 141.161 203.752L117.631 224.447Z" fill="#91999E"/>
<path d="M136.179 309.174C135.228 309.724 134.334 310.21 133.519 310.635C131.353 311.762 128.696 311.668 126.231 310.372C123.202 308.781 121.074 305.768 120.67 302.506C120.26 299.203 119.71 295.259 119.181 291.447C118.584 287.137 117.964 282.676 117.537 279.099L117.872 279.06C118.296 282.638 118.918 287.094 119.515 291.404C120.044 295.216 120.594 299.16 121.001 302.469C121.392 305.619 123.454 308.536 126.383 310.076C128.748 311.319 131.292 311.414 133.359 310.34C144.872 304.345 171.466 286.223 169.921 247.551C169.813 244.805 168.39 242.261 166.12 240.744C164.102 239.395 161.717 239.074 159.579 239.861L134.247 249.358L134.129 249.043L159.461 239.545C161.705 238.718 164.203 239.053 166.312 240.464C168.67 242.04 170.148 244.686 170.262 247.538C171.705 283.655 148.717 301.936 136.179 309.174Z" fill="#91999E"/>
<path d="M116.249 224.079L116.023 223.826C121.725 218.757 133.512 208.218 138.153 204.05C140.683 201.778 142.024 198.524 141.65 195.559C141.37 193.341 140.141 191.556 138.185 190.53C126.561 184.446 96.2142 172.803 65.5502 196.028C63.2156 197.794 61.8535 200.383 61.9039 202.952C61.9462 205.068 62.9497 206.919 64.7278 208.162L88.1896 224.423L87.9958 224.699L64.5323 208.444C62.6636 207.139 61.61 205.193 61.5628 202.965C61.5098 200.287 62.9238 197.599 65.3431 195.764C96.1547 172.424 126.657 184.122 138.337 190.233C140.393 191.311 141.689 193.186 141.98 195.518C142.368 198.594 140.987 201.96 138.374 204.305C133.738 208.471 121.947 219.012 116.249 224.079Z" fill="#91999E"/>
<path d="M81.4039 310.909C81.2509 310.997 81.0957 311.082 80.9346 311.165C78.4645 312.412 75.724 312.406 73.4182 311.153C58.2406 302.914 33.0887 283.632 35.1611 247.053C35.3192 244.259 37.2486 241.342 40.1953 239.447C42.8632 237.732 45.8136 237.214 48.0658 238.089L72.0976 246.941L71.9814 247.257L47.9474 238.402C45.7922 237.565 42.9679 238.06 40.3784 239.73C37.5229 241.568 35.6529 244.38 35.5001 247.072C33.4397 283.464 58.4741 302.655 73.5799 310.856C75.786 312.056 78.4142 312.057 80.7852 310.863C83.4708 309.506 85.3256 306.892 85.7516 303.863C86.1741 300.871 86.7409 297.422 87.3459 293.772C88.0923 289.264 88.8641 284.602 89.4314 280.326L89.7663 280.372C89.1975 284.653 88.4277 289.319 87.6776 293.83C87.0764 297.478 86.5037 300.925 86.0828 303.911C85.6698 306.868 83.9345 309.448 81.4039 310.909Z" fill="#91999E"/>
<path d="M51.0717 237.977L50.741 237.904C53.1592 226.81 58.1895 218.335 67.0503 210.426L67.276 210.679C58.4722 218.54 53.4732 226.957 51.0717 237.977Z" fill="url(#paint9_linear_7988_62622)"/>
<path d="M120.797 303.266C110.125 306.624 98.591 306.473 87.4422 302.833L87.5466 302.514C98.6248 306.135 110.087 306.283 120.692 302.947L120.797 303.266Z" fill="url(#paint10_linear_7988_62622)"/>
<path d="M158.806 236.877L158.477 236.962C157.235 232.078 155.32 227.364 152.776 222.958C149.005 216.418 144.044 210.834 138.028 206.352L138.23 206.081C144.281 210.588 149.276 216.207 153.071 222.788C155.63 227.22 157.56 231.96 158.806 236.877Z" fill="#91999E"/>
<path d="M54.0024 238.669L53.6733 238.59C56.153 228.421 62.1312 218.338 69.2668 212.277L69.485 212.534C62.3968 218.548 56.4648 228.565 54.0024 238.669Z" fill="url(#paint11_linear_7988_62622)"/>
<path d="M119.158 301.239C109.098 304.408 97.2716 304.077 87.514 300.356L87.6339 300.038C97.3224 303.734 109.068 304.063 119.055 300.915L119.158 301.239Z" fill="url(#paint12_linear_7988_62622)"/>
<path d="M155.47 236.294L155.141 236.37C154.129 232.015 152.486 227.816 150.259 223.889C147.106 218.342 142.946 213.594 137.897 209.778L138.099 209.508C143.185 213.352 147.377 218.13 150.554 223.719C152.798 227.676 154.455 231.907 155.47 236.294Z" fill="url(#paint13_linear_7988_62622)"/>
<path d="M55.5804 239.023L55.2513 238.944C57.7405 228.739 63.3078 219.178 70.1441 213.374L70.3624 213.631C63.5815 219.393 58.0523 228.883 55.5804 239.023Z" fill="url(#paint14_linear_7988_62622)"/>
<path d="M118.755 300.052C109.085 303.102 97.9282 302.707 88.1449 298.976L88.2648 298.658C97.979 302.364 109.058 302.754 118.656 299.726L118.755 300.052Z" fill="url(#paint15_linear_7988_62622)"/>
<path d="M154.127 237.09L153.797 237.165C152.811 232.906 151.204 228.795 149.019 224.959C145.935 219.531 141.865 214.886 136.922 211.153L137.124 210.882C142.103 214.644 146.202 219.321 149.31 224.791C151.515 228.661 153.133 232.8 154.127 237.09Z" fill="url(#paint16_linear_7988_62622)"/>
<path d="M117.101 197.165C107.621 194.623 97.7328 195.15 88.5139 198.68L88.3905 198.363C97.6793 194.807 107.637 194.281 117.186 196.838L117.101 197.165Z" fill="#91999E"/>
<path d="M72.6198 288.104C64.3649 281.694 58.4321 272.538 55.9214 262.328L56.2488 262.249C58.7415 272.385 64.6318 281.475 72.826 287.841L72.6198 288.104Z" fill="#91999E"/>
<path d="M146.124 281.239L145.873 281.011C148.879 277.702 151.398 273.962 153.355 269.895C156.122 264.146 157.658 258.022 157.918 251.698L158.255 251.713C157.991 258.083 156.447 264.252 153.659 270.043C151.691 274.142 149.152 277.908 146.124 281.239Z" fill="#91999E"/>
<path d="M145.345 324.236C104.508 347.813 52.0932 333.761 28.505 292.905C4.91899 252.053 18.9512 199.633 59.7918 176.053C100.629 152.476 153.044 166.528 176.632 207.384C200.22 248.24 186.182 300.659 145.345 324.236ZM59.9622 176.348C19.2857 199.833 5.30655 252.043 28.7999 292.735C52.2933 333.427 104.498 347.425 145.175 323.941C185.851 300.456 199.83 248.246 176.337 207.554C152.844 166.863 100.639 152.864 59.9622 176.348Z" fill="#91999E"/>
<path d="M134.015 304.769C104.032 322.079 65.5522 311.761 48.235 281.767C30.9179 251.773 41.2217 213.289 71.2047 195.979C101.188 178.668 139.667 188.986 156.984 218.981C174.301 248.975 163.997 287.458 134.015 304.769ZM71.8535 197.103C42.4902 214.056 32.3976 251.75 49.3569 281.124C66.3162 310.498 104.007 320.605 133.37 303.652C162.733 286.699 172.826 249.005 155.867 219.631C138.905 190.253 101.217 180.15 71.8535 197.103Z" fill="#91999E"/>
</g>
<rect x="-30.317" y="225.986" width="450.607" height="272.953" transform="rotate(-30 -30.317 225.986)" stroke="url(#paint17_linear_7988_62622)"/>
</g>
<defs>
<linearGradient id="paint0_linear_7988_62622" x1="63.6633" y1="334.984" x2="123.389" y2="300.501" gradientUnits="userSpaceOnUse">
<stop stop-color="#00A3FF"/>
<stop offset="1" stop-color="#8DFF48"/>
</linearGradient>
<linearGradient id="paint1_linear_7988_62622" x1="169.217" y1="320.873" x2="208.564" y2="298.156" gradientUnits="userSpaceOnUse">
<stop stop-color="#00A3FF"/>
<stop offset="1" stop-color="#8DFF48"/>
</linearGradient>
<linearGradient id="paint2_linear_7988_62622" x1="276.993" y1="257.781" x2="342.158" y2="220.158" gradientUnits="userSpaceOnUse">
<stop stop-color="#00A3FF"/>
<stop offset="1" stop-color="#8DFF48"/>
</linearGradient>
<linearGradient id="paint3_linear_7988_62622" x1="259.341" y1="108.993" x2="283.531" y2="95.0273" gradientUnits="userSpaceOnUse">
<stop stop-color="#00A3FF"/>
<stop offset="1" stop-color="#8DFF48"/>
</linearGradient>
<linearGradient id="paint4_linear_7988_62622" x1="304.102" y1="187.884" x2="328.99" y2="173.514" gradientUnits="userSpaceOnUse">
<stop stop-color="#00A3FF"/>
<stop offset="1" stop-color="#8DFF48"/>
</linearGradient>
<linearGradient id="paint5_linear_7988_62622" x1="262.435" y1="109.965" x2="285.576" y2="96.6045" gradientUnits="userSpaceOnUse">
<stop stop-color="#00A3FF"/>
<stop offset="1" stop-color="#8DFF48"/>
</linearGradient>
<linearGradient id="paint6_linear_7988_62622" x1="304.06" y1="185.209" x2="327.474" y2="171.691" gradientUnits="userSpaceOnUse">
<stop stop-color="#00A3FF"/>
<stop offset="1" stop-color="#8DFF48"/>
</linearGradient>
<linearGradient id="paint7_linear_7988_62622" x1="264.088" y1="110.444" x2="286.382" y2="97.5723" gradientUnits="userSpaceOnUse">
<stop stop-color="#00A3FF"/>
<stop offset="1" stop-color="#8DFF48"/>
</linearGradient>
<linearGradient id="paint8_linear_7988_62622" x1="304.603" y1="183.678" x2="327.159" y2="170.655" gradientUnits="userSpaceOnUse">
<stop stop-color="#00A3FF"/>
<stop offset="1" stop-color="#8DFF48"/>
</linearGradient>
<linearGradient id="paint9_linear_7988_62622" x1="46.8876" y1="231.23" x2="71.0777" y2="217.264" gradientUnits="userSpaceOnUse">
<stop stop-color="#00A3FF"/>
<stop offset="1" stop-color="#8DFF48"/>
</linearGradient>
<linearGradient id="paint10_linear_7988_62622" x1="91.6491" y1="310.12" x2="116.537" y2="295.75" gradientUnits="userSpaceOnUse">
<stop stop-color="#00A3FF"/>
<stop offset="1" stop-color="#8DFF48"/>
</linearGradient>
<linearGradient id="paint11_linear_7988_62622" x1="49.9837" y1="232.199" x2="73.125" y2="218.839" gradientUnits="userSpaceOnUse">
<stop stop-color="#00A3FF"/>
<stop offset="1" stop-color="#8DFF48"/>
</linearGradient>
<linearGradient id="paint12_linear_7988_62622" x1="91.6067" y1="307.445" x2="115.02" y2="293.927" gradientUnits="userSpaceOnUse">
<stop stop-color="#00A3FF"/>
<stop offset="1" stop-color="#8DFF48"/>
</linearGradient>
<linearGradient id="paint13_linear_7988_62622" x1="145.801" y1="223.469" x2="149.258" y2="221.473" gradientUnits="userSpaceOnUse">
<stop stop-color="#00A3FF"/>
<stop offset="1" stop-color="#8DFF48"/>
</linearGradient>
<linearGradient id="paint14_linear_7988_62622" x1="51.635" y1="232.68" x2="73.929" y2="219.809" gradientUnits="userSpaceOnUse">
<stop stop-color="#00A3FF"/>
<stop offset="1" stop-color="#8DFF48"/>
</linearGradient>
<linearGradient id="paint15_linear_7988_62622" x1="92.1503" y1="305.914" x2="114.709" y2="292.889" gradientUnits="userSpaceOnUse">
<stop stop-color="#00A3FF"/>
<stop offset="1" stop-color="#8DFF48"/>
</linearGradient>
<linearGradient id="paint16_linear_7988_62622" x1="144.655" y1="224.546" x2="148.041" y2="222.591" gradientUnits="userSpaceOnUse">
<stop stop-color="#00A3FF"/>
<stop offset="1" stop-color="#8DFF48"/>
</linearGradient>
<linearGradient id="paint17_linear_7988_62622" x1="-31" y1="362.78" x2="420.607" y2="362.78" gradientUnits="userSpaceOnUse">
<stop stop-color="#00A3FF"/>
<stop offset="1" stop-color="#8DFF48"/>
</linearGradient>
<clipPath id="clip0_7988_62622">
<rect x="-31" y="225.803" width="451.607" height="273.953" transform="rotate(-30 -31 225.803)" fill="white"/>
</clipPath>
</defs>
</svg>
