<svg width="25" height="16" viewBox="0 0 25 16" fill="none" xmlns="http://www.w3.org/2000/svg">
<path d="M12.8088 10.8237C12.8088 8.90905 11.8981 7.49379 10.0166 6.96333C11.3894 6.30958 12.1053 5.31911 12.1053 3.7785C12.1053 0.740781 9.83424 0 7.21406 0H0V15.2518H7.41609C10.1969 15.2518 12.8088 13.9225 12.8088 10.8237ZM3.36304 2.60361H6.51886C7.73209 2.60361 8.82409 2.94344 8.82409 4.34626C8.82409 5.64133 7.97452 6.16246 6.7727 6.16246H3.36304V2.60361ZM3.362 12.6616V8.46147H7.02757C8.50809 8.46147 9.44469 9.07689 9.44469 10.6393C9.44469 12.1799 8.32678 12.6616 6.95815 12.6616H3.362Z" fill="#E9EEF1"/>
<path d="M19.473 15.5402C22.1191 15.5402 23.8327 14.3518 24.6574 11.8259H21.972C21.6829 12.7687 20.4915 13.2671 19.5673 13.2671C17.7842 13.2671 16.8476 12.2258 16.8476 10.4562H24.8387C25.0915 6.915 23.1189 3.89697 19.472 3.89697C16.0955 3.89697 13.8037 6.42702 13.8037 9.74136C13.8037 13.1811 15.9753 15.5402 19.473 15.5402ZM19.3777 6.18873C20.9059 6.18873 21.6746 7.08388 21.8031 8.54783H16.8518C16.9523 7.09631 17.9189 6.18873 19.3777 6.18873Z" fill="#E9EEF1"/>
<path d="M16.2314 0.799805H22.4353V2.30209H16.2314V0.799805Z" fill="#E9EEF1"/>
</svg>
