<svg width="60" height="60" viewBox="0 0 60 60" fill="none" xmlns="http://www.w3.org/2000/svg">
<rect width="60" height="60" rx="30" fill="white" fill-opacity="0.1"/>
<path fill-rule="evenodd" clip-rule="evenodd" d="M19.4225 30C17.515 26.006 17.4283 22.0891 19.7586 19.7587C22.089 17.4283 26.006 17.515 30 19.4225C33.994 17.515 37.911 17.4283 40.2414 19.7587C42.5717 22.0891 42.4851 26.006 40.5775 30C42.4851 33.994 42.5717 37.911 40.2414 40.2413C37.911 42.5717 33.994 42.485 30 40.5775C26.006 42.485 22.089 42.5717 19.7586 40.2413C17.4283 37.911 17.515 33.994 19.4225 30ZM21.2946 26.8602C22.0368 25.8273 22.8939 24.8165 23.8552 23.8552C24.8165 22.8939 25.8272 22.0368 26.8602 21.2945C24.6913 20.6372 22.8329 20.7809 21.8069 21.8069C20.7809 22.8329 20.6371 24.6913 21.2946 26.8602ZM38.7055 33.1399C37.9632 34.1728 37.1061 35.1836 36.1448 36.1448C35.1835 37.1061 34.1728 37.9633 33.1399 38.7054C35.3087 39.3629 37.1671 39.219 38.1931 38.193C39.2191 37.1671 39.3629 35.3088 38.7055 33.1399ZM21.2946 33.1399C20.6371 35.3088 20.7809 37.1671 21.8069 38.193C22.8329 39.219 24.6913 39.3629 26.8602 38.7054C25.8272 37.9633 24.8165 37.1061 23.8552 36.1448C22.8939 35.1836 22.0368 34.1728 21.2946 33.1399ZM22.7029 30C23.5118 31.3765 24.5841 32.7771 25.9035 34.0966C27.2229 35.4159 28.6235 36.4882 30 37.2972C31.3765 36.4882 32.7772 35.4159 34.0965 34.0966C35.4159 32.7771 36.4882 31.3765 37.2971 30C36.4882 28.6236 35.4159 27.2228 34.0965 25.9035C32.7772 24.5841 31.3765 23.5117 30 22.7029C28.6235 23.5117 27.2229 24.5841 25.9035 25.9035C24.5841 27.2228 23.5118 28.6236 22.7029 30ZM33.1399 21.2945C34.1728 22.0368 35.1835 22.8939 36.1448 23.8552C37.1061 24.8165 37.9632 25.8273 38.7055 26.8602C39.3629 24.6913 39.2191 22.8329 38.1931 21.8069C37.1671 20.7809 35.3087 20.6372 33.1399 21.2945Z" fill="#E9EEF1"/>
</svg>
