<svg width="60" height="60" viewBox="0 0 60 60" fill="none" xmlns="http://www.w3.org/2000/svg">
<rect width="60" height="60" rx="30" fill="white" fill-opacity="0.1"/>
<path d="M35.3918 18H31.8982L34.9998 22.8068L28.4427 18H24.9491L28.0507 24.2986L21.4936 18H18L21.0505 26.1314L18 42H21.4936L28.0507 24.9852L24.9491 42H28.4427L34.9998 23.4941L31.8982 42H35.3918L42 21.6716L35.3918 18Z" fill="#E9EEF1"/>
<path d="M35.3918 18H31.8982L34.9998 22.8068L28.4427 18H24.9491L28.0507 24.2986L21.4936 18H18L21.0505 26.1314L18 42H21.4936L28.0507 24.9852L24.9491 42H28.4427L34.9998 23.4941L31.8982 42H35.3918L42 21.6716L35.3918 18Z" stroke="black"/>
</svg>
