<svg width="60" height="60" viewBox="0 0 60 60" fill="none" xmlns="http://www.w3.org/2000/svg">
<rect width="60" height="60" rx="30" fill="white" fill-opacity="0.1"/>
<path fill-rule="evenodd" clip-rule="evenodd" d="M19.1258 34.5504C17.6247 33.0618 17.6247 30.6482 19.1258 29.1596L23.2038 25.1165C24.4728 23.8581 26.4088 23.6635 27.8843 24.5326C28.3403 24.8015 28.3363 25.4182 27.9613 25.7903C27.5858 26.1625 26.9733 26.1305 26.4638 25.9827C25.8113 25.7935 25.0773 25.954 24.5628 26.4642L20.4853 30.5073C19.7348 31.2516 19.7348 32.4584 20.4853 33.2027C21.2358 33.947 22.4528 33.947 23.2038 33.2027L31.3593 25.1165C32.8608 23.6279 35.2948 23.6279 36.7963 25.1165L40.8739 29.1596C42.3754 30.6482 42.3754 33.0618 40.8739 34.5504C39.3729 36.039 36.9384 36.039 35.4368 34.5504L34.0778 33.2027L32.3788 34.8873C31.1093 36.1457 29.1738 36.3403 27.6983 35.4712C27.2418 35.2023 27.2458 34.5856 27.6213 34.2135C27.9968 33.8413 28.6093 33.8733 29.1188 34.0211C29.7713 34.2103 30.5048 34.0498 31.0193 33.5396L32.7673 31.8069C33.4908 31.0891 34.6643 31.0891 35.3883 31.8069L36.7963 33.2027C37.5469 33.947 38.7639 33.947 39.5149 33.2027C40.2654 32.4584 40.2654 31.2516 39.5149 30.5073L35.4368 26.4642C34.6863 25.7199 33.4693 25.7199 32.7183 26.4642L24.5628 34.5504C23.0618 36.039 20.6273 36.039 19.1258 34.5504Z" fill="#E9EEF1"/>
</svg>
