<svg width="60" height="60" viewBox="0 0 60 60" fill="none" xmlns="http://www.w3.org/2000/svg">
<rect width="60" height="60" rx="30" fill="white" fill-opacity="0.1"/>
<path d="M27.2323 37.1123L36.4482 19.6296C37.2696 18.0713 39.089 17.5373 40.5118 18.437L40.5118 18.4371C41.9346 19.3368 42.4221 21.3294 41.6006 22.8877L32.3848 40.3704C31.5633 41.9287 29.744 42.4626 28.3212 41.5629L28.3211 41.5629C26.8983 40.6632 26.4108 38.6706 27.2323 37.1123Z" fill="#E9EEF1"/>
<path opacity="0.9" d="M31.1076 35.911L22.5196 30.4805C21.0968 29.5808 19.2774 30.1147 18.456 31.673L18.456 31.673C17.6345 33.2314 18.122 35.224 19.5448 36.1237L28.1328 41.5543C29.5556 42.454 31.375 41.92 32.1965 40.3617L32.1965 40.3617C33.0179 38.8034 32.5304 36.8107 31.1076 35.911Z" fill="#E9EEF1"/>
<path d="M20.9748 36.4436C22.6177 36.4436 23.9496 34.9849 23.9496 33.1855C23.9496 31.386 22.6177 29.9273 20.9748 29.9273C19.3319 29.9273 18 31.386 18 33.1855C18 34.9849 19.3319 36.4436 20.9748 36.4436Z" fill="#E9EEF1"/>
</svg>
