<svg width="28" height="28" viewBox="0 0 28 28" fill="none" xmlns="http://www.w3.org/2000/svg">
<path d="M20.5563 12.5442C20.3181 12.5442 20.0896 12.4495 19.9211 12.281C19.7527 12.1126 19.658 11.8841 19.658 11.6458C19.658 11.2142 19.2263 10.3158 18.503 9.53416C17.7913 8.77583 17.0097 8.3325 16.3563 8.3325C16.1181 8.3325 15.8896 8.23785 15.7211 8.06938C15.5527 7.90091 15.458 7.67242 15.458 7.43416C15.458 6.94416 15.8663 6.53583 16.3563 6.53583C17.523 6.53583 18.748 7.16583 19.8213 8.2975C20.8247 9.35916 21.4663 10.6775 21.4663 11.6342C21.4663 12.1358 21.058 12.5442 20.5563 12.5442ZM24.768 12.5418C24.5298 12.5418 24.3013 12.4472 24.1328 12.2787C23.9643 12.1102 23.8697 11.8817 23.8697 11.6435C23.8697 7.50183 20.498 4.14183 16.368 4.14183C16.1298 4.14183 15.9013 4.04718 15.7328 3.87871C15.5643 3.71024 15.4697 3.48175 15.4697 3.2435C15.4697 2.7535 15.8663 2.3335 16.3563 2.3335C21.4897 2.3335 25.6663 6.51016 25.6663 11.6435C25.6663 12.1335 25.258 12.5418 24.768 12.5418ZM12.8913 17.4418L10.733 19.6002C10.278 20.0552 9.55468 20.0552 9.08801 19.6118C8.95967 19.4835 8.83134 19.3668 8.70301 19.2385C7.52324 18.0508 6.43512 16.7755 5.44801 15.4235C4.49134 14.0935 3.72134 12.7635 3.16134 11.4452C2.61301 10.1152 2.33301 8.8435 2.33301 7.63016C2.33301 6.83683 2.47301 6.0785 2.75301 5.3785C3.03301 4.66683 3.47634 4.0135 4.09467 3.43016C4.84134 2.69516 5.65801 2.3335 6.52134 2.3335C6.84801 2.3335 7.17467 2.4035 7.46634 2.5435C7.76967 2.6835 8.03801 2.8935 8.24801 3.19683L10.9547 7.01183C11.1647 7.3035 11.3163 7.57183 11.4213 7.8285C11.5263 8.0735 11.5847 8.3185 11.5847 8.54016C11.5847 8.82016 11.503 9.10016 11.3397 9.3685C11.188 9.63683 10.9663 9.91683 10.6863 10.1968L9.79967 11.1185C9.67134 11.2468 9.61301 11.3985 9.61301 11.5852C9.61301 11.6785 9.62468 11.7602 9.64801 11.8535C9.68301 11.9468 9.71801 12.0168 9.74134 12.0868C9.95134 12.4718 10.313 12.9735 10.8263 13.5802C11.3513 14.1868 11.9113 14.8052 12.518 15.4235C12.6347 15.5402 12.763 15.6568 12.8797 15.7735C13.3463 16.2285 13.358 16.9752 12.8913 17.4418ZM25.6313 21.3852C25.6298 21.8255 25.5302 22.2599 25.3397 22.6568C25.1413 23.0768 24.8847 23.4735 24.5463 23.8468C23.9747 24.4768 23.3447 24.9318 22.633 25.2235C22.6213 25.2235 22.6097 25.2352 22.598 25.2352C21.9097 25.5152 21.163 25.6668 20.358 25.6668C19.168 25.6668 17.8963 25.3868 16.5547 24.8152C15.213 24.2435 13.8713 23.4735 12.5413 22.5052C12.0863 22.1668 11.6313 21.8285 11.1997 21.4668L15.0147 17.6518C15.3413 17.8968 15.633 18.0835 15.878 18.2118C15.9363 18.2352 16.0063 18.2702 16.088 18.3052C16.1813 18.3402 16.2747 18.3518 16.3797 18.3518C16.578 18.3518 16.7297 18.2818 16.858 18.1535L17.7447 17.2785C18.0363 16.9868 18.3163 16.7652 18.5847 16.6252C18.853 16.4618 19.1213 16.3802 19.413 16.3802C19.6347 16.3802 19.868 16.4268 20.1247 16.5318C20.3813 16.6368 20.6497 16.7885 20.9413 16.9868L24.803 19.7285C25.1063 19.9385 25.3163 20.1835 25.4447 20.4752C25.5613 20.7668 25.6313 21.0585 25.6313 21.3852Z" fill="url(#paint0_linear_1662_9320)"/>
<path d="M18.6853 9.36308L18.6865 9.36436C19.063 9.7712 19.3644 10.2091 19.5729 10.6047C19.7762 10.9904 19.908 11.3674 19.908 11.6458C19.908 11.8178 19.9763 11.9827 20.0979 12.1043C20.2195 12.2259 20.3844 12.2942 20.5563 12.2942C20.9199 12.2942 21.2163 11.9978 21.2163 11.6342C21.2163 10.7667 20.6203 9.50705 19.64 8.46954L18.6853 9.36308ZM18.6853 9.36308C17.9551 8.58495 17.1117 8.0825 16.3563 8.0825M18.6853 9.36308L16.3563 8.0825M16.3563 8.0825C16.1844 8.0825 16.0195 8.01419 15.8979 7.8926M16.3563 8.0825L15.8979 7.8926M15.8979 7.8926C15.7763 7.77102 15.708 7.60611 15.708 7.43416M15.8979 7.8926L15.708 7.43416M15.708 7.43416C15.708 7.08223 16.0044 6.78583 16.3563 6.78583M15.708 7.43416L16.3563 6.78583M16.3563 6.78583C17.4323 6.78583 18.596 7.36894 19.6396 8.46921L16.3563 6.78583ZM2.98513 5.47134L2.98513 5.47135L2.98565 5.47003C3.25136 4.79468 3.67298 4.17168 4.26623 3.61201L4.26627 3.61205L4.27005 3.60833C4.97899 2.91047 5.7353 2.5835 6.52134 2.5835C6.813 2.5835 7.10239 2.64611 7.35816 2.76888L7.35815 2.7689L7.36158 2.77049C7.62777 2.89334 7.85995 3.0755 8.04246 3.33913L8.04245 3.33914L8.04411 3.34149L10.7508 7.15649L10.7518 7.15791C10.9527 7.43699 11.0938 7.68818 11.19 7.92315L11.1899 7.92317L11.1916 7.92698C11.2868 8.14924 11.3347 8.36041 11.3347 8.54016C11.3347 8.76984 11.2681 9.00534 11.1261 9.23851L11.126 9.23844L11.122 9.24548C10.9843 9.48911 10.7782 9.75138 10.5096 10.0201L10.5095 10.02L10.5062 10.0235L9.62107 10.9436C9.44326 11.1223 9.36301 11.3387 9.36301 11.5852C9.36301 11.7022 9.37804 11.8044 9.40547 11.9141L9.40893 11.9279L9.41393 11.9413C9.43191 11.9892 9.44992 12.0318 9.4647 12.0666L9.46881 12.0763C9.48513 12.1149 9.49602 12.1414 9.50417 12.1659L9.51121 12.187L9.52187 12.2065C9.74368 12.6132 10.1177 13.1298 10.6355 13.7416L10.6355 13.7417L10.6373 13.7438C11.1648 14.3534 11.7284 14.9757 12.3396 15.5986L12.3395 15.5986L12.3412 15.6003C12.4017 15.6608 12.4648 15.7209 12.5253 15.7785L12.5264 15.7795C12.5881 15.8383 12.6471 15.8945 12.7029 15.9503L12.7051 15.9525C13.0732 16.3114 13.0816 16.898 12.7146 17.2651L10.5562 19.4234C10.2004 19.7792 9.63347 19.7831 9.26238 19.4326C9.19695 19.3673 9.13183 19.3051 9.06903 19.2452L9.06813 19.2443C9.00375 19.1829 8.94177 19.1237 8.88008 19.062C7.70954 17.8836 6.62991 16.6183 5.65046 15.2768C4.70312 13.9597 3.94335 12.6464 3.39196 11.3486C2.85385 10.0431 2.58301 8.80429 2.58301 7.63016C2.58301 6.86646 2.71772 6.13986 2.98513 5.47134ZM25.1143 22.5487L25.1136 22.5501C24.9252 22.949 24.682 23.3248 24.3612 23.6788C23.8167 24.2789 23.2227 24.7081 22.5571 24.9844C22.5562 24.9846 22.5553 24.9849 22.5544 24.9852H22.5491L22.5038 25.0036C21.8455 25.2714 21.1308 25.4168 20.358 25.4168C19.2075 25.4168 17.9692 25.1461 16.6527 24.5852C15.3305 24.0218 14.0055 23.2619 12.6895 22.3038C12.3086 22.0206 11.9326 21.7409 11.5713 21.4488L15.0399 17.9802C15.3054 18.1699 15.5483 18.3213 15.762 18.4333L15.7733 18.4392L15.7852 18.4439C15.8077 18.453 15.8343 18.465 15.8701 18.4814L15.879 18.4855C15.9113 18.5003 15.949 18.5176 15.9895 18.535L15.9894 18.5352L16.0002 18.5392C16.1301 18.5879 16.2553 18.6018 16.3797 18.6018C16.6476 18.6018 16.8617 18.5031 17.0342 18.3308C17.0344 18.3306 17.0346 18.3305 17.0348 18.3303L17.9203 17.4564L17.9215 17.4553C18.203 17.1737 18.4626 16.9708 18.7003 16.8468L18.7076 16.843L18.7147 16.8387C18.9487 16.6962 19.1726 16.6302 19.413 16.6302C19.598 16.6302 19.7993 16.6688 20.03 16.7632C20.2651 16.8594 20.5172 17.0009 20.7987 17.1922L24.6583 19.9323L24.6583 19.9324L24.6607 19.934C24.9305 20.1208 25.1069 20.3303 25.2142 20.5721C25.3207 20.8393 25.3813 21.098 25.3813 21.3848C25.3799 21.7878 25.2886 22.1854 25.1143 22.5487ZM24.768 12.2918C24.5961 12.2918 24.4312 12.2235 24.3096 12.1019C24.188 11.9804 24.1197 11.8154 24.1197 11.6435C24.1197 7.3635 20.6358 3.89183 16.368 3.89183C16.1961 3.89183 16.0312 3.82352 15.9096 3.70194C15.788 3.58035 15.7197 3.41544 15.7197 3.2435C15.7197 2.88308 16.0128 2.5835 16.3563 2.5835C21.3516 2.5835 25.4163 6.64823 25.4163 11.6435C25.4163 11.9954 25.1199 12.2918 24.768 12.2918Z" stroke="white" stroke-opacity="0.2" stroke-width="0.5"/>
<defs>
<linearGradient id="paint0_linear_1662_9320" x1="13.9997" y1="2.3335" x2="13.9997" y2="25.6668" gradientUnits="userSpaceOnUse">
<stop stop-color="#80C9FF"/>
<stop offset="1" stop-color="#5ABAFF"/>
</linearGradient>
</defs>
</svg>
