<svg width="28" height="28" viewBox="0 0 28 28" fill="none" xmlns="http://www.w3.org/2000/svg">
<path d="M23.917 11.8885H20.5453C17.7803 11.8885 15.5287 9.63683 15.5287 6.87183V3.50016C15.5287 2.8585 15.0037 2.3335 14.362 2.3335H9.41533C5.82199 2.3335 2.91699 4.66683 2.91699 8.83183V19.1685C2.91699 23.3335 5.82199 25.6668 9.41533 25.6668H18.5853C22.1787 25.6668 25.0837 23.3335 25.0837 19.1685V13.0552C25.0837 12.4135 24.5587 11.8885 23.917 11.8885ZM14.5603 18.3168C13.9537 20.2652 11.8187 21.3152 11.0837 21.3152C10.337 21.3152 8.24866 20.3002 7.60699 18.3168C7.18699 17.0218 7.66533 15.3302 9.14699 14.8518C9.82366 14.6302 10.547 14.7585 11.072 15.1668C11.3448 14.9606 11.6638 14.8241 12.0013 14.7692C12.3388 14.7143 12.6846 14.7427 13.0087 14.8518C14.502 15.3302 14.9687 17.0218 14.5603 18.3168Z" fill="url(#paint0_linear_1662_9325)"/>
<path d="M20.5453 12.1385H23.917C24.4206 12.1385 24.8337 12.5516 24.8337 13.0552V19.1685C24.8337 21.1897 24.1306 22.7456 23.0108 23.7973C21.8886 24.8513 20.3284 25.4168 18.5853 25.4168H9.41533C7.67221 25.4168 6.11204 24.8513 4.98981 23.7973C3.87005 22.7456 3.16699 21.1897 3.16699 19.1685V8.83183C3.16699 6.81066 3.87005 5.2547 4.98981 4.20302C6.11204 3.14901 7.67221 2.5835 9.41533 2.5835H14.362C14.8656 2.5835 15.2787 2.99657 15.2787 3.50016V6.87183C15.2787 9.7749 17.6423 12.1385 20.5453 12.1385ZM11.0837 21.5652C11.3149 21.5652 11.6213 21.4859 11.9468 21.3518C12.2783 21.2154 12.6501 21.0136 13.0164 20.7494C13.7466 20.2226 14.4746 19.4325 14.7989 18.3916C15.2327 17.0152 14.7538 15.1495 13.0867 14.6143C12.7245 14.4927 12.3382 14.4611 11.9611 14.5225C11.6447 14.574 11.3427 14.6895 11.0736 14.8614C10.499 14.488 9.76032 14.388 9.06961 14.6141C7.41456 15.1488 6.92176 17.0144 7.36919 18.394C7.71073 19.4495 8.43392 20.2391 9.15972 20.7625C9.5234 21.0248 9.89198 21.2234 10.2216 21.3572C10.5461 21.4889 10.8509 21.5652 11.0837 21.5652Z" stroke="white" stroke-opacity="0.2" stroke-width="0.5"/>
<path d="M20.3353 10.2784C21.4436 10.2901 22.9836 10.2901 24.302 10.2901C24.967 10.2901 25.317 9.50841 24.8503 9.04174C23.1703 7.35007 20.1603 4.30507 18.4336 2.57841C17.9553 2.10007 17.127 2.42674 17.127 3.09174V7.16341C17.127 8.86674 18.5736 10.2784 20.3353 10.2784Z" fill="url(#paint1_linear_1662_9325)"/>
<path d="M20.3379 10.0284V10.0284H20.3353C18.7051 10.0284 17.377 8.72213 17.377 7.16341V3.09174C17.377 2.66496 17.925 2.4233 18.2568 2.75518C19.4222 3.92056 21.1721 5.68637 22.7033 7.23156C23.4404 7.97531 24.1267 8.66795 24.6729 9.21791L24.6735 9.21852C24.968 9.51303 24.7652 10.0401 24.302 10.0401C22.9831 10.0401 21.4446 10.0401 20.3379 10.0284Z" stroke="white" stroke-opacity="0.2" stroke-width="0.5"/>
<defs>
<linearGradient id="paint0_linear_1662_9325" x1="14.0003" y1="2.3335" x2="14.0003" y2="25.6668" gradientUnits="userSpaceOnUse">
<stop stop-color="#80C9FF"/>
<stop offset="1" stop-color="#5ABAFF"/>
</linearGradient>
<linearGradient id="paint1_linear_1662_9325" x1="21.0954" y1="2.35107" x2="21.0954" y2="10.2901" gradientUnits="userSpaceOnUse">
<stop stop-color="#80C9FF"/>
<stop offset="1" stop-color="#5ABAFF"/>
</linearGradient>
</defs>
</svg>
