<svg width="21" height="23" viewBox="0 0 21 23" fill="none" xmlns="http://www.w3.org/2000/svg">
<path d="M20.4422 11.0509L11.2522 20.2409C10.1264 21.3667 8.59943 21.9992 7.00724 21.9992C5.41506 21.9992 3.88809 21.3667 2.76224 20.2409C1.6364 19.1151 1.00391 17.5881 1.00391 15.9959C1.00391 14.4037 1.6364 12.8767 2.76224 11.7509L11.9522 2.5609C12.7028 1.81033 13.7208 1.38867 14.7822 1.38867C15.8437 1.38867 16.8617 1.81033 17.6122 2.5609C18.3628 3.31146 18.7845 4.32944 18.7845 5.3909C18.7845 6.45235 18.3628 7.47033 17.6122 8.2209L8.41224 17.4109C8.03696 17.7862 7.52797 17.997 6.99724 17.997C6.46651 17.997 5.95752 17.7862 5.58224 17.4109C5.20696 17.0356 4.99613 16.5266 4.99613 15.9959C4.99613 15.4652 5.20696 14.9562 5.58224 14.5809L14.0722 6.1009" stroke="#91999E" stroke-linecap="round" stroke-linejoin="round"/>
</svg>
