<svg width="36" height="36" viewBox="0 0 36 36" fill="none" xmlns="http://www.w3.org/2000/svg">
<g clip-path="url(#clip0_3315_12631)">
<path d="M13.625 29.375H22.375" stroke="#E9EEF1" stroke-linecap="round" stroke-linejoin="round"/>
<path d="M18 25.875V19.75" stroke="#E9EEF1" stroke-linecap="round" stroke-linejoin="round"/>
<path d="M14.5 16.25L18 19.75L21.5 16.25" stroke="#E9EEF1" stroke-linecap="round" stroke-linejoin="round"/>
<path d="M12.6079 22.2655C11.5662 21.4555 10.7225 20.4191 10.1408 19.2347C9.55899 18.0504 9.25441 16.7491 9.25009 15.4296C9.22822 10.6827 13.0454 6.73427 17.7923 6.6249C19.6294 6.58134 21.4336 7.11731 22.949 8.15676C24.4645 9.19622 25.6141 10.6864 26.2351 12.416C26.856 14.1456 26.9166 16.0267 26.4083 17.7927C25.9 19.5586 24.8486 21.1197 23.4032 22.2546C23.0839 22.5014 22.8253 22.8179 22.6471 23.18C22.4689 23.5421 22.3759 23.9401 22.3751 24.3436V24.9999C22.3751 25.232 22.2829 25.4545 22.1188 25.6186C21.9547 25.7827 21.7322 25.8749 21.5001 25.8749H14.5001C14.268 25.8749 14.0455 25.7827 13.8814 25.6186C13.7173 25.4545 13.6251 25.232 13.6251 24.9999V24.3436C13.6224 23.9431 13.5295 23.5484 13.3534 23.1886C13.1773 22.8289 12.9225 22.5134 12.6079 22.2655V22.2655Z" stroke="#E9EEF1" stroke-linecap="round" stroke-linejoin="round"/>
</g>
<defs>
<clipPath id="clip0_3315_12631">
<rect width="36" height="36" fill="white"/>
</clipPath>
</defs>
</svg>
