<svg width="32" height="32" viewBox="0 0 32 32" fill="none" xmlns="http://www.w3.org/2000/svg">
<path d="M28 19V26C28 26.5304 27.7893 27.0391 27.4142 27.4142C27.0391 27.7893 26.5304 28 26 28H6C5.46957 28 4.96086 27.7893 4.58579 27.4142C4.21071 27.0391 4 26.5304 4 26V19C4 18.7348 4.10536 18.4804 4.29289 18.2929C4.48043 18.1054 4.73478 18 5 18C5.26522 18 5.51957 18.1054 5.70711 18.2929C5.89464 18.4804 6 18.7348 6 19V26H26V19C26 18.7348 26.1054 18.4804 26.2929 18.2929C26.4804 18.1054 26.7348 18 27 18C27.2652 18 27.5196 18.1054 27.7071 18.2929C27.8946 18.4804 28 18.7348 28 19Z" fill="#E9EEF1"/>
<path d="M16.3843 5.07617C16.5057 5.1265 16.616 5.20025 16.7089 5.29323L21.7089 10.2932C21.8965 10.4809 22.002 10.7354 22.002 11.0007C22.002 11.2661 21.8965 11.5206 21.7089 11.7082C21.5213 11.8959 21.2668 12.0013 21.0014 12.0013C20.736 12.0013 20.4815 11.8959 20.2939 11.7082L17.0014 8.41448L17.0014 20.0007C17.0014 20.2659 16.896 20.5203 16.7085 20.7078C16.521 20.8954 16.2666 21.0007 16.0014 21.0007C15.7362 21.0007 15.4818 20.8954 15.2943 20.7078C15.1068 20.5203 15.0014 20.2659 15.0014 20.0007L15.0014 8.41448L11.7089 11.7082C11.616 11.8011 11.5057 11.8748 11.3843 11.9251C11.2629 11.9754 11.1328 12.0013 11.0014 12.0013C10.87 12.0013 10.7399 11.9754 10.6185 11.9251C10.4971 11.8748 10.3868 11.8011 10.2939 11.7082C10.201 11.6153 10.1273 11.505 10.077 11.3836C10.0267 11.2622 10.0008 11.1321 10.0008 11.0007C10.0008 10.8693 10.0267 10.7392 10.077 10.6178C10.1273 10.4964 10.201 10.3861 10.2939 10.2932L15.2939 5.29323C15.3868 5.20025 15.4971 5.1265 15.6185 5.07617C15.7399 5.02585 15.87 4.99995 16.0014 4.99995C16.1328 4.99995 16.2629 5.02585 16.3843 5.07617Z" fill="#E9EEF1"/>
</svg>
