<svg width="36" height="36" viewBox="0 0 36 36" fill="none" xmlns="http://www.w3.org/2000/svg">
<path d="M14 24.8074C12.5901 29 7 29 7 29C7 29 7 23.4099 11.1926 22" stroke="#E9EEF1" stroke-linecap="round" stroke-linejoin="round"/>
<path d="M26.1621 15.1051L18.2672 23L13 17.7328L20.8949 9.83792C23.8831 6.84971 26.8713 6.88459 28.1503 7.07063C28.3477 7.09696 28.5309 7.1875 28.6717 7.32829C28.8125 7.46908 28.903 7.65229 28.9294 7.84965C29.1154 9.12865 29.1503 12.1169 26.1621 15.1051Z" stroke="#E9EEF1" stroke-linecap="round" stroke-linejoin="round"/>
<path d="M25 17V24.3871C24.9963 24.6284 24.8896 24.8586 24.7032 25.0275L20.7085 28.7324C20.5817 28.8495 20.423 28.9325 20.2492 28.9727C20.0755 29.0129 19.8932 29.0087 19.7218 28.9605C19.5504 28.9124 19.3963 28.8221 19.276 28.6994C19.1558 28.5767 19.0738 28.426 19.0389 28.2636L18 23.4723" stroke="#E9EEF1" stroke-linecap="round" stroke-linejoin="round"/>
<path d="M19 11H11.6129C11.3716 11.0037 11.1414 11.1104 10.9725 11.2968L7.26757 15.2915C7.15052 15.4183 7.06749 15.577 7.02732 15.7508C6.98714 15.9245 6.99135 16.1068 7.03948 16.2782C7.08761 16.4496 7.17786 16.6037 7.3006 16.724C7.42334 16.8442 7.57397 16.9262 7.73641 16.9611L12.5277 18" stroke="#E9EEF1" stroke-linecap="round" stroke-linejoin="round"/>
</svg>
