<svg width="18" height="15" viewBox="0 0 18 15" fill="none" xmlns="http://www.w3.org/2000/svg">
<path d="M4.09042 4.87324H0.223988V14.9994H4.09042V4.87324Z" fill="#E9EEF1"/>
<path d="M16.7813 5.79874C15.969 5.02554 14.8946 4.63886 13.5589 4.63886C13.0667 4.63886 12.6194 4.69165 12.217 4.7973C11.8147 4.90288 11.475 5.05102 11.1976 5.24178C10.9203 5.43254 10.6995 5.60963 10.5356 5.77305C10.3797 5.92827 10.2273 6.10908 10.0785 6.31362V4.87371H6.22314L6.23496 5.36425C6.24289 5.69134 6.24679 6.69947 6.24679 8.3888C6.24679 10.0783 6.23899 12.2819 6.22331 15H10.0785V9.34922C10.0785 9.00188 10.1212 8.72604 10.2074 8.52151C10.3715 8.17391 10.6193 7.8829 10.9515 7.64798C11.2837 7.41277 11.6956 7.29527 12.1879 7.29527C12.8596 7.29527 13.3538 7.49791 13.6703 7.90323C13.9866 8.30852 14.1448 8.86885 14.1448 9.58415V14.9997H18V9.19611C17.9997 7.7041 17.5938 6.5717 16.7813 5.79874Z" fill="#E9EEF1"/>
<path d="M2.17951 0C1.53119 0 1.00588 0.165334 0.603456 0.495681C0.20107 0.8261 0 1.24325 0 1.74752C0 2.24474 0.195283 2.66046 0.58589 2.9942C0.976374 3.32799 1.49204 3.49497 2.1326 3.49497H2.15603C2.81231 3.49497 3.34165 3.32813 3.74391 2.9942C4.14617 2.66046 4.34338 2.24488 4.33563 1.74752C4.32783 1.24328 4.12848 0.8261 3.738 0.495681C3.34756 0.165191 2.82787 0 2.17951 0Z" fill="#E9EEF1"/>
</svg>
