<svg width="21" height="15" viewBox="0 0 21 15" fill="none" xmlns="http://www.w3.org/2000/svg">
<path d="M19.3244 1.76289L21 0.316579V0H15.1952L11.0582 9.29053L6.35162 0H0.265125V0.316579L2.2225 2.44263C2.41325 2.59974 2.513 2.82947 2.48762 3.06079V11.4158C2.548 11.7166 2.4395 12.0261 2.205 12.2447L0 14.6558V14.9684H6.25187V14.6518L4.04688 12.2447C3.808 12.0253 3.69512 11.7213 3.74325 11.4158V4.18895L9.23125 14.9724H9.86913L14.588 4.18895V12.7792C14.588 13.0058 14.588 13.0524 14.4235 13.2008L12.726 14.6826V15H20.9615V14.6834L19.3253 13.2379C19.1818 13.14 19.1074 12.9758 19.138 12.8163V2.18447C19.1074 2.02421 19.1809 1.86 19.3244 1.76289Z" fill="#E9EEF1"/>
</svg>
