<svg width="28" height="28" viewBox="0 0 28 28" fill="none" xmlns="http://www.w3.org/2000/svg">
<path d="M20.5568 12.5439C20.3186 12.5439 20.0901 12.4493 19.9216 12.2808C19.7531 12.1123 19.6585 11.8838 19.6585 11.6456C19.6585 11.2139 19.2268 10.3156 18.5035 9.53392C17.7918 8.77559 17.0102 8.33225 16.3568 8.33225C16.1186 8.33225 15.8901 8.23761 15.7216 8.06914C15.5531 7.90067 15.4585 7.67217 15.4585 7.43392C15.4585 6.94392 15.8668 6.53559 16.3568 6.53559C17.5235 6.53559 18.7485 7.16559 19.8218 8.29725C20.8252 9.35892 21.4668 10.6773 21.4668 11.6339C21.4668 12.1356 21.0585 12.5439 20.5568 12.5439ZM24.7685 12.5416C24.5302 12.5416 24.3018 12.4469 24.1333 12.2785C23.9648 12.11 23.8702 11.8815 23.8702 11.6433C23.8702 7.50159 20.4985 4.14159 16.3685 4.14159C16.1302 4.14159 15.9017 4.04694 15.7333 3.87847C15.5648 3.71 15.4702 3.4815 15.4702 3.24325C15.4702 2.75325 15.8668 2.33325 16.3568 2.33325C21.4902 2.33325 25.6668 6.50992 25.6668 11.6433C25.6668 12.1333 25.2585 12.5416 24.7685 12.5416ZM12.8918 17.4416L10.7335 19.5999C10.2785 20.0549 9.55516 20.0549 9.0885 19.6116C8.96016 19.4833 8.83183 19.3666 8.7035 19.2383C7.52373 18.0506 6.43561 16.7753 5.4485 15.4233C4.49183 14.0933 3.72183 12.7633 3.16183 11.4449C2.6135 10.1149 2.3335 8.84325 2.3335 7.62992C2.3335 6.83659 2.4735 6.07825 2.7535 5.37825C3.0335 4.66659 3.47683 4.01325 4.09516 3.42992C4.84183 2.69492 5.6585 2.33325 6.52183 2.33325C6.8485 2.33325 7.17516 2.40325 7.46683 2.54325C7.77016 2.68325 8.0385 2.89325 8.2485 3.19659L10.9552 7.01159C11.1652 7.30325 11.3168 7.57159 11.4218 7.82825C11.5268 8.07325 11.5852 8.31825 11.5852 8.53992C11.5852 8.81992 11.5035 9.09992 11.3402 9.36825C11.1885 9.63659 10.9668 9.91659 10.6868 10.1966L9.80016 11.1183C9.67183 11.2466 9.6135 11.3983 9.6135 11.5849C9.6135 11.6783 9.62516 11.7599 9.6485 11.8533C9.6835 11.9466 9.7185 12.0166 9.74183 12.0866C9.95183 12.4716 10.3135 12.9733 10.8268 13.5799C11.3518 14.1866 11.9118 14.8049 12.5185 15.4233C12.6352 15.5399 12.7635 15.6566 12.8802 15.7733C13.3468 16.2283 13.3585 16.9749 12.8918 17.4416ZM25.6318 21.3849C25.6303 21.8252 25.5307 22.2596 25.3402 22.6566C25.1418 23.0766 24.8852 23.4733 24.5468 23.8466C23.9752 24.4766 23.3452 24.9316 22.6335 25.2233C22.6218 25.2233 22.6102 25.2349 22.5985 25.2349C21.9102 25.5149 21.1635 25.6666 20.3585 25.6666C19.1685 25.6666 17.8968 25.3866 16.5552 24.8149C15.2135 24.2433 13.8718 23.4733 12.5418 22.5049C12.0868 22.1666 11.6318 21.8283 11.2002 21.4666L15.0152 17.6516C15.3418 17.8966 15.6335 18.0833 15.8785 18.2116C15.9368 18.2349 16.0068 18.2699 16.0885 18.3049C16.1818 18.3399 16.2752 18.3516 16.3802 18.3516C16.5785 18.3516 16.7302 18.2816 16.8585 18.1533L17.7452 17.2783C18.0368 16.9866 18.3168 16.7649 18.5852 16.6249C18.8535 16.4616 19.1218 16.3799 19.4135 16.3799C19.6352 16.3799 19.8685 16.4266 20.1252 16.5316C20.3818 16.6366 20.6502 16.7883 20.9418 16.9866L24.8035 19.7283C25.1068 19.9383 25.3168 20.1833 25.4452 20.4749C25.5618 20.7666 25.6318 21.0583 25.6318 21.3849Z" fill="url(#paint0_linear_1662_9334)"/>
<path d="M18.6858 9.36284L18.687 9.36412C19.0635 9.77096 19.3649 10.2088 19.5734 10.6044C19.7767 10.9901 19.9085 11.3671 19.9085 11.6456C19.9085 11.8175 19.9768 11.9824 20.0984 12.104C20.22 12.2256 20.3849 12.2939 20.5568 12.2939C20.9204 12.2939 21.2168 11.9975 21.2168 11.6339C21.2168 10.7664 20.6208 9.5068 19.6404 8.46929L18.6858 9.36284ZM18.6858 9.36284C17.9555 8.58471 17.1122 8.08225 16.3568 8.08225M18.6858 9.36284L16.3568 8.08225M16.3568 8.08225C16.1849 8.08225 16.02 8.01395 15.8984 7.89236M16.3568 8.08225L15.8984 7.89236M15.8984 7.89236C15.7768 7.77077 15.7085 7.60587 15.7085 7.43392M15.8984 7.89236L15.7085 7.43392M15.7085 7.43392C15.7085 7.08199 16.0049 6.78559 16.3568 6.78559M15.7085 7.43392L16.3568 6.78559M16.3568 6.78559C17.4328 6.78559 18.5965 7.36869 19.6401 8.46897L16.3568 6.78559ZM2.98562 5.4711L2.98562 5.4711L2.98614 5.46978C3.25185 4.79443 3.67347 4.17144 4.26672 3.61177L4.26676 3.61181L4.27054 3.60808C4.97947 2.91023 5.73579 2.58325 6.52183 2.58325C6.81349 2.58325 7.10288 2.64586 7.35865 2.76863L7.35863 2.76866L7.36207 2.77024C7.62826 2.8931 7.86043 3.07526 8.04295 3.33889L8.04293 3.3389L8.0446 3.34125L10.7513 7.15625L10.7523 7.15766C10.9532 7.43675 11.0943 7.68793 11.1904 7.92291L11.1904 7.92292L11.192 7.92673C11.2873 8.14899 11.3352 8.36017 11.3352 8.53992C11.3352 8.7696 11.2685 9.00509 11.1266 9.23827L11.1265 9.2382L11.1225 9.24524C10.9848 9.48887 10.7787 9.75114 10.5101 10.0198L10.51 10.0198L10.5067 10.0233L9.62156 10.9433C9.44375 11.122 9.3635 11.3385 9.3635 11.5849C9.3635 11.7019 9.37852 11.8041 9.40596 11.9139L9.40942 11.9277L9.41441 11.941C9.4324 11.989 9.45041 12.0315 9.46519 12.0664L9.4693 12.0761C9.48562 12.1147 9.49651 12.1412 9.50466 12.1656L9.5117 12.1868L9.52236 12.2063C9.74417 12.613 10.1182 13.1295 10.636 13.7414L10.636 13.7414L10.6378 13.7435C11.1653 14.3531 11.7289 14.9754 12.34 15.5983L12.34 15.5983L12.3417 15.6C12.4022 15.6605 12.4653 15.7206 12.5258 15.7782L12.5269 15.7793C12.5886 15.838 12.6476 15.8942 12.7034 15.95L12.7056 15.9523C13.0737 16.3111 13.0821 16.8978 12.7151 17.2648L10.5567 19.4231C10.2009 19.779 9.63396 19.7828 9.26287 19.4324C9.19744 19.367 9.13232 19.3049 9.06951 19.2449L9.06861 19.2441C9.00424 19.1826 8.94225 19.1234 8.88057 19.0618C7.71002 17.8834 6.6304 16.618 5.65095 15.2766C4.70361 13.9595 3.94384 12.6462 3.39245 11.3484C2.85433 10.0428 2.5835 8.80404 2.5835 7.62992C2.5835 6.86621 2.71821 6.13961 2.98562 5.4711ZM25.1148 22.5484L25.1141 22.5498C24.9257 22.9488 24.6825 23.3246 24.3617 23.6786C23.8172 24.2787 23.2232 24.7079 22.5576 24.9841C22.5567 24.9844 22.5558 24.9847 22.5549 24.9849H22.5496L22.5043 25.0033C21.846 25.2711 21.1313 25.4166 20.3585 25.4166C19.208 25.4166 17.9697 25.1459 16.6532 24.5849C15.331 24.0216 14.006 23.2616 12.69 22.3036C12.3091 22.0203 11.9331 21.7406 11.5718 21.4485L15.0404 17.9799C15.3058 18.1696 15.5488 18.3211 15.7625 18.433L15.7738 18.439L15.7856 18.4437C15.8082 18.4527 15.8348 18.4647 15.8706 18.4811L15.8795 18.4852C15.9118 18.5 15.9495 18.5174 15.99 18.5347L15.9899 18.535L16.0007 18.539C16.1306 18.5877 16.2558 18.6016 16.3802 18.6016C16.6481 18.6016 16.8622 18.5029 17.0347 18.3306C17.0349 18.3304 17.0351 18.3302 17.0353 18.33L17.9208 17.4562L17.9219 17.455C18.2035 17.1735 18.4631 16.9706 18.7008 16.8466L18.7081 16.8428L18.7152 16.8385C18.9492 16.696 19.1731 16.6299 19.4135 16.6299C19.5985 16.6299 19.7998 16.6686 20.0305 16.763C20.2656 16.8592 20.5176 17.0006 20.7992 17.1919L24.6588 19.9321L24.6588 19.9321L24.6612 19.9338C24.931 20.1206 25.1074 20.3301 25.2147 20.5718C25.3211 20.8391 25.3818 21.0978 25.3818 21.3846C25.3803 21.7875 25.2891 22.1851 25.1148 22.5484ZM24.7685 12.2916C24.5965 12.2916 24.4316 12.2233 24.3101 12.1017C24.1885 11.9801 24.1202 11.8152 24.1202 11.6433C24.1202 7.36326 20.6363 3.89159 16.3685 3.89159C16.1965 3.89159 16.0316 3.82328 15.9101 3.70169C15.7885 3.58011 15.7202 3.4152 15.7202 3.24325C15.7202 2.88283 16.0132 2.58325 16.3568 2.58325C21.3521 2.58325 25.4168 6.64799 25.4168 11.6433C25.4168 11.9952 25.1204 12.2916 24.7685 12.2916Z" stroke="white" stroke-opacity="0.2" stroke-width="0.5"/>
<defs>
<linearGradient id="paint0_linear_1662_9334" x1="14.0002" y1="2.33325" x2="14.0002" y2="25.6666" gradientUnits="userSpaceOnUse">
<stop stop-color="#80C9FF"/>
<stop offset="1" stop-color="#5ABAFF"/>
</linearGradient>
</defs>
</svg>
