<svg width="21" height="22" viewBox="0 0 21 22" fill="none" xmlns="http://www.w3.org/2000/svg">
<path fill-rule="evenodd" clip-rule="evenodd" d="M10.5 0C4.70312 0 0 4.92708 0 11C0 17.0729 4.70312 22 10.5 22C16.2855 22 21 17.0729 21 11C21 4.92708 16.2855 0 10.5 0ZM17.4353 5.07008C18.728 6.71948 19.4434 8.78249 19.4626 10.9166C19.1669 10.857 16.2059 10.2245 13.2221 10.6187C13.153 10.4628 13.0961 10.296 13.0279 10.1292C12.8423 9.67029 12.6451 9.21668 12.4364 8.76883C15.7386 7.36083 17.2419 5.33317 17.4353 5.07008ZM10.5 1.62342C12.7776 1.62342 14.8619 2.51717 16.4447 3.98475C16.2855 4.22308 14.9301 6.12058 11.7416 7.37275C10.2716 4.54575 8.64412 2.23025 8.393 1.87275C9.08366 1.7038 9.79077 1.61981 10.5 1.6225V1.62342ZM6.685 2.50525C6.92387 2.83983 8.51812 5.16633 10.01 7.93375C5.81875 9.10342 2.1175 9.07958 1.71938 9.07958C2.30037 6.16825 4.17987 3.74642 6.685 2.50525ZM1.526 11.0119V10.7259C1.91363 10.7378 6.26325 10.7974 10.7397 9.38942C11.0014 9.91467 11.2402 10.4509 11.4677 10.9881C11.354 11.0238 11.2289 11.0596 11.1151 11.0953C6.49163 12.6583 4.03113 16.929 3.82638 17.2874C2.34536 15.5655 1.52583 13.3298 1.526 11.0119ZM10.5 20.4013C8.42712 20.4013 6.51438 19.6616 4.99975 18.4213C5.159 18.0748 6.98075 14.3999 12.0374 12.551C12.0601 12.5391 12.0724 12.5391 12.0942 12.5272C13.3586 15.9509 13.8705 18.8265 14.0079 19.6497C12.9255 20.1392 11.7416 20.4013 10.5 20.4013ZM15.4998 18.7908C15.4088 18.2178 14.9301 15.4742 13.7568 12.0972C16.5699 11.6325 19.0295 12.3961 19.3375 12.5033C18.9499 15.1158 17.5149 17.3708 15.4998 18.7908Z" fill="#E9EEF1"/>
</svg>
