<svg width="14" height="9" viewBox="0 0 14 9" fill="none" xmlns="http://www.w3.org/2000/svg">
<path d="M7.86397 4.32096C7.86397 6.37577 6.17028 8.04427 4.07212 8.04427C1.97397 8.04427 0.280273 6.37577 0.280273 4.32096C0.280273 2.26616 1.97397 0.597656 4.07212 0.597656C6.17028 0.597656 7.86397 2.26616 7.86397 4.32096ZM12.0182 4.32096C12.0182 6.25248 11.1671 7.82235 10.1222 7.82235C9.07736 7.82235 8.22631 6.25248 8.22631 4.32096C8.22631 2.38945 9.07736 0.819574 10.1222 0.819574C11.1671 0.819574 12.0182 2.38123 12.0182 4.32096ZM13.7203 4.32096C13.7203 6.05522 13.4254 7.46071 13.0546 7.46071C12.6838 7.46071 12.3889 6.05522 12.3889 4.32096C12.3889 2.58671 12.6838 1.18122 13.0546 1.18122C13.4254 1.18122 13.7203 2.58671 13.7203 4.32096Z" fill="#E9EEF1"/>
</svg>
