<svg width="80" height="80" viewBox="0 0 80 80" fill="none" xmlns="http://www.w3.org/2000/svg">
<rect width="80" height="80" rx="20" fill="url(#paint0_linear_1662_9391)" fill-opacity="0.7"/>
<path d="M49.9167 37.8883H46.545C43.78 37.8883 41.5283 35.6366 41.5283 32.8716V29.4999C41.5283 28.8583 41.0033 28.3333 40.3617 28.3333H35.415C31.8217 28.3333 28.9167 30.6666 28.9167 34.8316V45.1683C28.9167 49.3333 31.8217 51.6666 35.415 51.6666H44.585C48.1783 51.6666 51.0833 49.3333 51.0833 45.1683V39.0549C51.0833 38.4133 50.5583 37.8883 49.9167 37.8883ZM40.56 44.3166C39.9533 46.2649 37.8183 47.3149 37.0833 47.3149C36.3367 47.3149 34.2483 46.2999 33.6067 44.3166C33.1867 43.0216 33.665 41.3299 35.1467 40.8516C35.8233 40.6299 36.5467 40.7583 37.0717 41.1666C37.3444 40.9604 37.6634 40.8239 38.0009 40.769C38.3385 40.7141 38.6843 40.7424 39.0083 40.8516C40.5017 41.3299 40.9683 43.0216 40.56 44.3166Z" fill="url(#paint1_linear_1662_9391)"/>
<path d="M46.545 38.1383H49.9167C50.4203 38.1383 50.8333 38.5513 50.8333 39.0549V45.1683C50.8333 47.1894 50.1303 48.7454 49.0105 49.7971C47.8883 50.8511 46.3281 51.4166 44.585 51.4166H35.415C33.6719 51.4166 32.1117 50.8511 30.9895 49.7971C29.8697 48.7454 29.1667 47.1894 29.1667 45.1683V34.8316C29.1667 32.8104 29.8697 31.2545 30.9895 30.2028C32.1117 29.1488 33.6719 28.5833 35.415 28.5833H40.3617C40.8653 28.5833 41.2783 28.9963 41.2783 29.4999V32.8716C41.2783 35.7747 43.6419 38.1383 46.545 38.1383ZM37.0833 47.5649C37.3146 47.5649 37.621 47.4856 37.9465 47.3516C38.2779 47.2151 38.6498 47.0134 39.0161 46.7491C39.7462 46.2224 40.4743 45.4323 40.7986 44.3913C41.2324 43.0149 40.7535 41.1493 39.0863 40.6141C38.7242 40.4924 38.3379 40.4609 37.9608 40.5222C37.6443 40.5737 37.3424 40.6893 37.0733 40.8612C36.4986 40.4877 35.76 40.3877 35.0693 40.6139C33.4142 41.1486 32.9214 43.0141 33.3689 44.3937C33.7104 45.4492 34.4336 46.2389 35.1594 46.7623C35.5231 47.0245 35.8917 47.2232 36.2213 47.357C36.5457 47.4887 36.8506 47.5649 37.0833 47.5649Z" stroke="white" stroke-opacity="0.2" stroke-width="0.5"/>
<path d="M46.335 36.2784C47.4433 36.2901 48.9833 36.2901 50.3017 36.2901C50.9667 36.2901 51.3167 35.5084 50.85 35.0417C49.17 33.3501 46.16 30.3051 44.4333 28.5784C43.955 28.1001 43.1267 28.4267 43.1267 29.0917V33.1634C43.1267 34.8667 44.5733 36.2784 46.335 36.2784Z" fill="url(#paint2_linear_1662_9391)"/>
<path d="M46.3376 36.0284V36.0284H46.335C44.7048 36.0284 43.3767 34.7221 43.3767 33.1634V29.0917C43.3767 28.665 43.9247 28.4233 44.2566 28.7552C45.4219 29.9206 47.1718 31.6864 48.703 33.2316C49.4401 33.9753 50.1264 34.6679 50.6726 35.2179L50.6732 35.2185C50.9677 35.513 50.7649 36.0401 50.3017 36.0401C48.9828 36.0401 47.4444 36.0401 46.3376 36.0284Z" stroke="white" stroke-opacity="0.2" stroke-width="0.5"/>
<defs>
<linearGradient id="paint0_linear_1662_9391" x1="40" y1="0" x2="40" y2="80" gradientUnits="userSpaceOnUse">
<stop stop-color="#0D99FF"/>
<stop offset="1" stop-color="#7BE2F9"/>
</linearGradient>
<linearGradient id="paint1_linear_1662_9391" x1="40" y1="28.3333" x2="40" y2="51.6666" gradientUnits="userSpaceOnUse">
<stop stop-color="#80C9FF"/>
<stop offset="1" stop-color="#5ABAFF"/>
</linearGradient>
<linearGradient id="paint2_linear_1662_9391" x1="47.0951" y1="28.3511" x2="47.0951" y2="36.2901" gradientUnits="userSpaceOnUse">
<stop stop-color="#80C9FF"/>
<stop offset="1" stop-color="#5ABAFF"/>
</linearGradient>
</defs>
</svg>
