<svg width="32" height="32" viewBox="0 0 32 32" fill="none" xmlns="http://www.w3.org/2000/svg">
<path fill-rule="evenodd" clip-rule="evenodd" d="M24.597 0.400391H7.29583C7.16162 0.400391 7.02741 0.400391 6.9054 0.424766C5.66089 0.485703 4.44078 0.900078 3.40369 1.60695C2.391 2.28945 1.57353 3.25227 1.04888 4.34914C0.59744 5.27539 0.37782 6.29914 0.402222 7.33508V24.6657C0.402222 25.7138 0.634043 26.762 1.09768 27.7004C1.63453 28.7973 2.46421 29.7479 3.4769 30.4304C4.51399 31.1251 5.7463 31.5273 6.99081 31.5882C7.24703 31.6004 24.2553 31.6004 24.5848 31.6004C25.329 31.6004 26.0611 31.5029 26.7688 31.2835C27.9279 30.9179 29.0016 30.2354 29.819 29.3213C30.6487 28.4073 31.2222 27.2738 31.4662 26.0673C31.576 25.5432 31.6004 24.9948 31.6004 24.4585V7.6032C31.6004 7.15227 31.5882 6.70133 31.515 6.25039C31.332 5.03164 30.8073 3.86164 30.0143 2.91102C29.2334 1.96039 28.1963 1.22914 27.0494 0.814766C26.2563 0.534453 25.4388 0.400391 24.597 0.400391ZM24.9752 19.7419C24.9752 19.7419 28.3061 12.0272 18.0084 5.03159C18.0084 5.03159 22.2177 10.3332 20.0703 16.2807C20.0703 16.2807 12.5057 10.906 8.69893 7.05472C8.69893 7.05472 13.4573 13.9041 15.1533 15.3057C15.1533 15.3057 12.3104 13.831 5.73406 8.2369C5.73406 8.2369 13.2865 18.0844 16.837 20.1441C16.837 20.1441 11.4564 23.8125 3.57447 18.6328C3.57447 18.6328 7.71064 25.9332 16.4588 25.9332C18.7632 25.9332 20.1105 25.2371 21.2247 24.6616C22.01 24.2559 22.6795 23.91 23.4866 23.91C25.512 23.91 26.7199 25.9332 26.7199 25.9332C27.9034 23.0447 24.9752 19.7419 24.9752 19.7419Z" fill="#050505"/>
</svg>
