<svg width="825" height="500" viewBox="0 0 825 500" fill="none" xmlns="http://www.w3.org/2000/svg">
<g opacity="0.8" clip-path="url(#clip0_7874_93239)">
<path d="M966.459 411.296L260.616 818.814C256.27 821.323 250.686 819.826 248.176 815.479L29.23 436.253C26.7202 431.906 28.2155 426.321 32.561 423.812L88.0194 391.793L89.2127 393.86L33.7543 425.879C30.5451 427.732 29.4425 431.849 31.296 435.06L250.238 814.279C252.092 817.489 256.209 818.594 259.419 816.741L965.261 409.222C968.47 407.369 969.573 403.251 967.719 400.041L748.777 20.8219C746.924 17.6115 742.806 16.5074 739.597 18.3602L682.396 51.3851L681.203 49.3183L738.404 16.2935C742.749 13.7846 748.333 15.282 750.843 19.6291L969.785 398.848C972.299 403.202 970.811 408.783 966.459 411.296Z" fill="#91999E"/>
<path d="M480.305 165.307L289.248 275.614L290.441 277.68L481.498 167.374L480.305 165.307Z" fill="#91999E"/>
<path d="M833.908 305.764C827.827 309.275 820.027 307.183 816.514 301.1C813.002 295.017 815.091 287.216 821.172 283.705C827.253 280.194 835.053 282.286 838.566 288.369C842.078 294.452 839.989 302.254 833.908 305.764ZM821.486 284.249C815.708 287.585 813.721 295.006 817.059 300.786C820.396 306.566 827.816 308.556 833.594 305.22C839.372 301.884 841.359 294.463 838.022 288.683C834.691 282.899 827.271 280.909 821.486 284.249Z" fill="#91999E"/>
<path d="M832.458 303.249C827.761 305.961 821.742 304.347 819.029 299.649C816.317 294.95 817.928 288.931 822.625 286.219C827.322 283.508 833.341 285.121 836.053 289.82C838.766 294.518 837.154 300.538 832.458 303.249ZM822.935 286.757C818.542 289.293 817.032 294.932 819.57 299.328C822.107 303.723 827.746 305.235 832.139 302.698C836.533 300.162 838.043 294.523 835.505 290.127C832.968 285.732 827.336 284.216 822.935 286.757Z" fill="#91999E"/>
<path d="M811.457 306.242C811.127 306.433 810.765 306.569 810.373 306.639C809.041 306.875 807.553 306.366 806.669 305.36C805.648 304.195 804.831 302.701 805.891 300.307L805.88 300.304C805.919 300.227 805.954 300.161 805.992 300.083C806.09 299.871 806.212 299.653 806.341 299.432C808.573 295.424 811.808 292.234 815.758 290.137L816.052 290.693C812.416 292.618 809.401 295.507 807.245 299.121L807.271 299.134L806.491 300.503C805.524 302.613 806.207 303.891 807.133 304.954C807.864 305.791 809.148 306.234 810.255 306.036C810.861 305.925 811.639 305.586 812.192 304.652L812.177 304.642L812.508 303.991L812.519 303.994C812.594 303.868 812.657 303.74 812.732 303.614C813.607 302.108 814.679 300.754 815.91 299.593L816.336 300.045C815.15 301.171 814.113 302.477 813.271 303.928C813.187 304.068 813.106 304.215 813.026 304.363C812.688 305.192 812.146 305.845 811.457 306.242Z" fill="#91999E"/>
<path d="M799.28 362.839C784.97 371.102 766.598 366.175 758.329 351.853C750.06 337.53 754.979 319.157 769.29 310.894C783.6 302.632 801.972 307.559 810.241 321.881C818.51 336.204 813.591 354.577 799.28 362.839ZM769.604 311.439C755.59 319.53 750.779 337.519 758.873 351.538C766.968 365.558 784.952 370.386 798.966 362.295C812.98 354.204 817.791 336.215 809.697 322.195C801.603 308.176 783.618 303.348 769.604 311.439Z" fill="#91999E"/>
<path d="M793.982 351.311C785.339 356.301 774.236 353.324 769.244 344.678C764.249 336.025 767.219 324.931 775.868 319.937C784.511 314.947 795.614 317.925 800.606 326.571C805.602 335.224 802.625 346.321 793.982 351.311ZM776.179 320.475C767.832 325.294 764.964 336.007 769.788 344.363C774.613 352.72 785.325 355.593 793.672 350.774C802.018 345.955 804.887 335.242 800.062 326.885C795.237 318.528 784.525 315.656 776.179 320.475Z" fill="#91999E"/>
<path d="M792.263 348.253C785.356 352.241 776.498 349.86 772.512 342.957C768.527 336.054 770.901 327.187 777.801 323.203C784.702 319.22 793.567 321.597 797.552 328.5C801.538 335.403 799.164 344.269 792.263 348.253ZM778.107 323.734C771.503 327.547 769.231 336.033 773.046 342.64C776.86 349.246 785.338 351.526 791.949 347.709C798.554 343.896 800.826 335.41 797.011 328.803C793.197 322.196 784.712 319.921 778.107 323.734Z" fill="#91999E"/>
<path d="M673.135 395.637C668.989 398.031 663.666 396.603 661.271 392.456C658.877 388.309 660.302 382.985 664.448 380.591C668.594 378.197 673.917 379.625 676.312 383.772C678.706 387.92 677.281 393.244 673.135 395.637ZM664.758 381.128C660.909 383.351 659.585 388.295 661.808 392.146C664.032 395.997 668.975 397.322 672.825 395.1C676.674 392.877 677.998 387.934 675.775 384.082C673.544 380.235 668.608 378.906 664.758 381.128Z" fill="#91999E"/>
<path d="M674.637 399.143C670.175 401.72 665.113 400.968 661.749 397.224L663.52 395.632C666.139 398.547 669.946 399.096 673.444 397.076C676.481 395.323 678.334 392.186 678.165 389.078L680.551 388.95C680.763 392.943 678.446 396.944 674.637 399.143Z" fill="#91999E"/>
<path d="M333.387 608.151C327.291 608.042 320.796 607.512 314.512 606.997C296.104 605.491 278.713 604.076 270.959 612.466C269.197 614.375 265.99 617.457 262.286 621.029C254.385 628.64 243.572 639.063 240.795 643.954C236.667 651.215 231.748 654.606 226.162 654.028C211.734 652.529 193.048 625.078 170.611 572.428C153.933 533.281 141.301 494.067 141.178 493.679L141.776 493.49C142.276 495.057 192.328 649.882 226.231 653.401C231.545 653.952 236.26 650.669 240.256 643.641C243.081 638.675 253.494 628.64 261.859 620.577C265.557 617.009 268.757 613.931 270.51 612.037C278.475 603.424 296.012 604.855 314.574 606.373C320.847 606.885 327.331 607.413 333.402 607.527L333.387 608.151Z" fill="url(#paint0_linear_7874_93239)"/>
<path d="M573.513 453.118L572.984 452.79L574.069 451.043C576.178 447.667 578.559 443.839 580.297 440.154C582.615 435.215 585.996 430.112 590.062 425.386C599.04 414.966 658.232 379.267 667.3 378.799C672.997 378.504 681.894 379.218 691.711 380.762L691.616 381.377C681.839 379.838 672.988 379.124 667.331 379.424C658.323 379.885 599.471 415.425 590.535 425.792C586.498 430.474 583.154 435.528 580.861 440.416C579.115 444.134 576.717 447.98 574.598 451.371L573.513 453.118Z" fill="url(#paint1_linear_7874_93239)"/>
<path d="M750.904 373.216L750.378 372.877C755.768 364.528 759.98 352.865 762.566 344.557L763.404 341.859C763.912 340.225 764.401 338.638 764.88 337.13C765.128 336.335 765.86 334.819 766.449 333.597C766.658 333.164 766.842 332.783 766.964 332.501L767.535 332.759C767.402 333.038 767.222 333.426 767.013 333.859C766.469 335 765.719 336.563 765.479 337.308C764.996 338.827 764.503 340.406 764.003 342.037L763.164 344.735C760.567 353.087 756.334 364.808 750.904 373.216Z" fill="url(#paint2_linear_7874_93239)"/>
<path d="M834.919 305.925C833.631 306.668 832.139 307.281 830.433 307.761C814.176 312.334 801.635 316.203 792.091 319.583L791.881 318.996C801.428 315.606 813.987 311.736 830.261 307.162C834.964 305.844 838.027 303.468 839.379 300.116C841.577 294.667 838.682 288.348 836.76 285.066C832.884 278.449 731.678 137.937 730.655 136.516L731.161 136.151C732.183 137.572 833.405 278.111 837.293 284.75C840.708 290.586 841.654 296.12 839.952 300.345C839.03 302.66 837.343 304.525 834.919 305.925Z" fill="url(#paint3_linear_7874_93239)"/>
<path d="M734.863 346.69L687.683 373.93L687.997 374.474L735.177 347.234L734.863 346.69Z" fill="#91999E"/>
<path d="M763.855 396.906L716.675 424.146L716.989 424.69L764.17 397.45L763.855 396.906Z" fill="#91999E"/>
<path d="M688.113 374.039L687.569 374.354L716.649 424.721L717.193 424.407L688.113 374.039Z" fill="#91999E"/>
<path d="M735.649 346.697L735.104 347.011L764.347 397.661L764.891 397.346L735.649 346.697Z" fill="#91999E"/>
<path d="M696.92 393.636L696.376 393.95L713.678 423.918L714.222 423.604L696.92 393.636Z" fill="#91999E"/>
<path d="M749.016 366.462L748.472 366.776L765.774 396.744L766.318 396.43L749.016 366.462Z" fill="#91999E"/>
<path d="M603.592 468.003L603.544 468.031L490.297 533.267L490.248 533.277L453.945 539.787L420.701 482.207L420.719 482.095L422.315 472.741L587.864 377.162L595.136 380.597L628.77 438.852L603.592 468.003ZM490.084 532.674L603.192 467.518L628.014 438.783L594.699 381.079L587.896 377.869L422.878 473.142L421.353 482.097L454.263 539.098L490.084 532.674Z" fill="#91999E"/>
<path d="M553.653 490.066L553.591 490.102L490.648 525.348L458.04 529.368C454.602 529.791 451.263 528.127 449.533 525.13L425.326 483.202C423.23 479.571 424.475 474.921 428.104 472.826L540.316 408.04C543.187 406.382 546.87 407.37 548.529 410.243L573.353 453.239C575.19 456.421 574.992 460.403 572.844 463.379L553.653 490.066ZM490.448 524.747L553.225 489.596L572.345 463.024C574.348 460.242 574.534 456.525 572.819 453.556L547.996 410.56C546.508 407.983 543.205 407.098 540.63 408.585L428.418 473.37C425.092 475.29 423.949 479.56 425.87 482.888L450.077 524.816C451.684 527.599 454.781 529.146 457.967 528.748L490.448 524.747Z" fill="#91999E"/>
<path d="M551.237 485.884L551.175 485.92L488.233 521.166L455.624 525.186C452.187 525.609 448.848 523.945 447.118 520.948L425.325 483.202L425.869 482.888L447.662 520.634C449.268 523.417 452.365 524.964 455.551 524.566L488.036 520.555L550.813 485.403L569.933 458.832C571.935 456.05 572.121 452.332 570.407 449.363L547.997 410.549L548.542 410.235L570.951 449.049C572.788 452.232 572.59 456.214 570.442 459.19L551.237 485.884Z" fill="#91999E"/>
<path d="M545.06 475.185L544.998 475.221L482.056 510.468L449.447 514.487C446.009 514.91 442.671 513.246 440.94 510.249L425.325 483.202L425.869 482.888L441.484 509.935C443.091 512.719 446.188 514.265 449.374 513.868L481.859 509.856L544.636 474.705L563.755 448.133C565.758 445.351 565.944 441.633 564.23 438.664L548.001 410.556L548.545 410.242L564.774 438.35C566.611 441.533 566.413 445.515 564.269 448.498L545.06 475.185Z" fill="#91999E"/>
<path d="M544.566 418.217L431.969 483.225L433.162 485.292L545.759 420.284L544.566 418.217Z" fill="#91999E"/>
<path d="M554.743 421.628L431.285 492.906L431.599 493.45L555.057 422.172L554.743 421.628Z" fill="#91999E"/>
<path d="M609.655 457.733C601.281 462.568 590.525 459.684 585.688 451.306C580.852 442.929 583.732 432.172 592.106 427.338C600.48 422.503 611.236 425.387 616.072 433.764C620.909 442.141 618.036 452.894 609.655 457.733ZM592.42 427.882C584.342 432.546 581.56 442.915 586.23 451.003C590.899 459.091 601.264 461.87 609.349 457.202C617.434 452.535 620.209 442.169 615.539 434.081C610.87 425.993 600.498 423.218 592.42 427.882Z" fill="#91999E"/>
<path d="M607.363 453.747C607.129 453.882 606.884 454.014 606.642 454.136C599.98 457.467 591.846 454.751 588.52 448.083C586.904 444.854 586.644 441.192 587.788 437.767C588.933 434.341 591.335 431.567 594.566 429.959C601.228 426.627 609.361 429.344 612.695 436.008C615.896 442.427 613.499 450.204 607.363 453.747ZM594.137 430.886C591.41 432.461 589.375 434.949 588.377 437.959C587.288 441.225 587.534 444.72 589.073 447.8C592.249 454.16 600.004 456.746 606.362 453.571C612.723 450.386 615.303 442.641 612.127 436.281C608.951 429.921 601.195 427.335 594.838 430.509C594.602 430.627 594.364 430.755 594.137 430.886Z" fill="#91999E"/>
<path d="M578.223 439.459C572.872 442.548 566.013 440.703 562.927 435.357C559.836 430.004 561.679 423.144 567.023 420.058C572.374 416.969 579.233 418.814 582.319 424.16C585.406 429.506 583.567 436.373 578.223 439.459ZM567.329 420.589C562.281 423.503 560.544 429.99 563.46 435.04C566.375 440.09 572.861 441.829 577.909 438.914C582.957 436 584.694 429.513 581.778 424.464C578.863 419.414 572.377 417.675 567.329 420.589Z" fill="#91999E"/>
<path d="M575.48 434.705C574.213 435.436 572.667 435.686 571.139 435.282C568.097 434.466 566.279 431.318 567.094 428.275C567.915 425.229 571.056 423.416 574.098 424.232C577.14 425.047 578.957 428.196 578.143 431.238C577.736 432.759 576.747 433.973 575.48 434.705ZM570.953 426.865C570.216 427.29 569.636 428.002 569.404 428.889C568.93 430.66 569.992 432.499 571.763 432.974C573.534 433.449 575.372 432.388 575.847 430.617C576.321 428.846 575.259 427.006 573.488 426.531C572.59 426.296 571.69 426.439 570.953 426.865Z" fill="#91999E"/>
<path d="M592.07 379.771L591.527 380.088L626.874 440.515L627.416 440.197L592.07 379.771Z" fill="#91999E"/>
<path d="M452.994 410.268L446.024 414.291L438.185 400.713L445.154 396.689L452.994 410.268ZM446.254 413.433L452.142 410.034L444.927 397.536L439.039 400.936L446.254 413.433Z" fill="#91999E"/>
<path d="M445.502 412.765L443.856 413.716L436.021 400.144L444.367 395.325L452.048 408.628L451.504 408.942L444.133 396.176L436.875 400.367L444.09 412.864L445.192 412.228L445.502 412.765Z" fill="#91999E"/>
<path d="M478.099 395.479L471.13 399.503L463.29 385.924L470.259 381.901L478.099 395.479ZM471.36 398.645L477.248 395.245L470.036 382.755L464.148 386.154L471.36 398.645Z" fill="#91999E"/>
<path d="M470.614 397.973L468.962 398.927L461.126 385.355L469.473 380.537L477.153 393.84L476.616 394.15L469.246 381.384L461.98 385.579L469.195 398.076L470.304 397.436L470.614 397.973Z" fill="#91999E"/>
<path d="M503.23 381.053L496.261 385.077L488.421 371.498L495.39 367.474L503.23 381.053ZM496.494 384.225L502.383 380.826L495.167 368.328L489.279 371.728L496.494 384.225Z" fill="#91999E"/>
<path d="M495.748 383.553L494.102 384.504L486.263 370.925L494.602 366.11L502.283 379.413L501.746 379.723L494.38 366.964L487.114 371.159L494.325 383.649L495.434 383.009L495.748 383.553Z" fill="#91999E"/>
<path d="M528.341 366.26L521.372 370.284L513.536 356.712L520.505 352.688L528.341 366.26ZM521.599 369.437L527.487 366.037L520.276 353.547L514.387 356.946L521.599 369.437Z" fill="#91999E"/>
<path d="M520.85 368.758L519.204 369.708L511.368 356.136L519.715 351.318L527.395 364.621L526.851 364.935L519.481 352.169L512.216 356.364L519.431 368.861L520.54 368.221L520.85 368.758Z" fill="#91999E"/>
<path d="M461.577 375.514C460.179 376.321 458.393 375.836 457.59 374.445C456.786 373.053 457.266 371.26 458.657 370.457C460.048 369.654 461.841 370.135 462.644 371.526C463.448 372.918 462.968 374.711 461.577 375.514ZM458.968 370.995C457.873 371.627 457.494 373.039 458.127 374.135C458.759 375.23 460.172 375.609 461.267 374.977C462.362 374.344 462.74 372.932 462.107 371.837C461.475 370.741 460.063 370.362 458.968 370.995Z" fill="#91999E"/>
<path d="M442.764 386.301L427.159 395.311L427.473 395.855L443.079 386.846L442.764 386.301Z" fill="#91999E"/>
<path d="M470.377 375.265L455.419 383.901L455.733 384.445L470.691 375.809L470.377 375.265Z" fill="#91999E"/>
<path d="M488.331 359.351L482.036 362.985L482.35 363.529L488.645 359.895L488.331 359.351Z" fill="#91999E"/>
<path d="M490.514 363.133L484.22 366.767L484.534 367.311L490.828 363.677L490.514 363.133Z" fill="#91999E"/>
<path d="M514.819 345.207L508.524 348.841L508.839 349.385L515.133 345.751L514.819 345.207Z" fill="#91999E"/>
<path d="M517.002 348.989L510.708 352.623L511.022 353.167L517.317 349.533L517.002 348.989Z" fill="#91999E"/>
<path d="M442.524 391.162L434.722 395.667L435.036 396.211L442.839 391.707L442.524 391.162Z" fill="#91999E"/>
<path d="M746.365 42.0749C743.983 43.4506 740.919 42.6291 739.543 40.2454C738.167 37.8617 738.987 34.7977 741.37 33.422C743.753 32.0463 746.816 32.8678 748.192 35.2515C749.569 37.6352 748.748 40.6992 746.365 42.0749ZM742.567 35.4957C741.32 36.2153 740.893 37.8125 741.613 39.0595C742.333 40.3065 743.93 40.7347 745.176 40.015C746.423 39.2954 746.85 37.6982 746.13 36.4512C745.411 35.2043 743.813 34.776 742.567 35.4957Z" fill="#91999E"/>
<path d="M452.862 336.023C444.86 340.643 434.587 337.894 429.961 329.882C425.335 321.87 428.084 311.602 436.093 306.978C444.102 302.354 454.369 305.107 458.995 313.119C463.621 321.131 460.865 331.403 452.862 336.023ZM436.408 307.522C428.701 311.971 426.054 321.859 430.505 329.568C434.956 337.277 444.842 339.928 452.548 335.479C460.254 331.03 462.902 321.142 458.451 313.433C454 305.724 444.114 303.073 436.408 307.522Z" fill="#91999E"/>
<path d="M427.453 322.053L417.032 322.071L417.03 321.669L427.45 321.651L427.453 322.053Z" fill="#91999E"/>
<path d="M418.723 312.481L418.59 312.855L428.402 316.361L428.536 315.986L418.723 312.481Z" fill="#91999E"/>
<path d="M423.306 304.378L423.055 304.686L431.123 311.279L431.375 310.971L423.306 304.378Z" fill="#91999E"/>
<path d="M430.424 298.323L430.084 298.529L435.475 307.447L435.815 307.241L430.424 298.323Z" fill="#91999E"/>
<path d="M438.751 295.079L440.822 305.292L441.212 305.213L439.141 295L438.751 295.079Z" fill="#91999E"/>
<path d="M448.067 294.752L446.588 305.066L446.982 305.122L448.46 294.808L448.067 294.752Z" fill="#91999E"/>
<path d="M456.977 297.577L452.109 306.788L452.461 306.974L457.329 297.763L456.977 297.577Z" fill="#91999E"/>
<path d="M464.355 303.205L456.69 310.26L456.96 310.553L464.624 303.498L464.355 303.205Z" fill="#91999E"/>
<path d="M469.663 311.379L460.066 315.432L459.912 315.07L469.505 311.011L469.663 311.379Z" fill="#91999E"/>
<path d="M461.254 320.674L461.277 321.071L471.678 320.467L471.655 320.07L461.254 320.674Z" fill="#91999E"/>
<path d="M460.669 326.417L460.557 326.799L470.554 329.734L470.666 329.353L460.669 326.417Z" fill="#91999E"/>
<path d="M458.196 331.65L457.962 331.972L466.392 338.098L466.625 337.776L458.196 331.65Z" fill="#91999E"/>
<path d="M448.49 348.882L448.091 348.938L446.608 338.625L447.007 338.569L448.49 348.882Z" fill="#91999E"/>
<path d="M440.83 338.407L438.766 348.62L439.155 348.699L441.22 338.486L440.83 338.407Z" fill="#91999E"/>
<path d="M430.456 345.368L430.115 345.161L435.49 336.243L435.837 336.447L430.456 345.368Z" fill="#91999E"/>
<path d="M423.355 339.336L423.101 339.024L431.155 332.426L431.405 332.732L423.355 339.336Z" fill="#91999E"/>
<path d="M418.579 330.867L418.713 331.241L428.525 327.745L428.392 327.37L418.579 330.867Z" fill="#91999E"/>
<path d="M451.317 333.756C444.547 337.665 435.867 335.337 431.957 328.565C428.047 321.793 430.372 313.111 437.141 309.203C443.911 305.294 452.591 307.622 456.501 314.394C460.411 321.166 458.08 329.852 451.317 333.756ZM437.451 309.74C430.985 313.474 428.762 321.775 432.497 328.244C436.232 334.713 444.532 336.938 450.999 333.205C457.465 329.471 459.695 321.166 455.96 314.697C452.225 308.228 443.918 306.007 437.451 309.74Z" fill="#91999E"/>
<path d="M446.195 356.104C446.188 357.348 445.698 358.393 444.494 358.391C443.289 358.388 442.806 357.344 442.809 356.093C442.816 354.849 443.31 353.811 444.507 353.818C445.712 353.82 446.198 354.853 446.195 356.104ZM444.513 354.32C443.675 354.317 443.416 355.155 443.411 356.086C443.41 357.023 443.661 357.87 444.498 357.874C445.336 357.877 445.595 357.038 445.603 356.097C445.597 355.164 445.35 354.323 444.513 354.32Z" fill="#91999E"/>
<path d="M429.734 353.629L429.51 354.053C428.772 353.698 428.527 353.83 428.225 354.261L427.832 354.057L429.853 350.162L430.364 350.427L428.822 353.402C429.07 353.323 429.381 353.447 429.734 353.629Z" fill="#91999E"/>
<path d="M416.518 339.995C415.686 339.539 415.357 339.288 414.81 339.613C414.497 339.802 414.183 340.149 414.528 340.731C414.921 341.395 415.471 341.298 415.99 340.989L416.295 341.502C415.518 341.969 414.642 341.914 414.083 340.978C413.703 340.335 413.772 339.532 414.494 339.097C415.223 338.658 415.93 339.039 416.572 339.404C417.073 339.684 417.549 339.951 418.004 339.817L418.018 339.809L416.806 337.79L417.243 337.528L418.807 340.143C418.134 340.55 417.336 340.441 416.518 339.995Z" fill="#91999E"/>
<path d="M412.219 325.933L412.193 325.332C412.83 325.305 413.25 325.016 413.215 324.191C413.184 323.438 412.863 323.2 412.358 323.216C411.693 323.242 411.569 323.727 411.588 324.157L411.609 324.623L411.097 324.643L411.077 324.195C411.058 323.747 410.832 323.436 410.327 323.452C409.968 323.466 409.633 323.697 409.658 324.297C409.696 325.158 410.164 325.301 410.601 325.278L410.627 325.879C409.82 325.913 409.198 325.408 409.151 324.324C409.119 323.571 409.528 322.894 410.306 322.858C410.771 322.837 411.073 323.058 411.27 323.495L411.281 323.498C411.441 322.901 411.821 322.636 412.333 322.616C413.175 322.579 413.685 323.176 413.724 324.118C413.77 325.249 413.207 325.895 412.219 325.933Z" fill="#91999E"/>
<path d="M416.664 307.183L415.657 309.05L415.208 308.813L413.707 305.592L413.976 305.088L416.488 306.448L416.776 305.914L417.225 306.151L416.937 306.685L417.842 307.173L417.573 307.677L416.664 307.183ZM416.215 306.946L414.399 305.964L415.487 308.294L416.215 306.946Z" fill="#91999E"/>
<path d="M426.753 295.937L427.265 295.632C427.528 295.976 427.942 296.215 428.53 295.866C429.05 295.557 429.203 295.028 428.835 294.422C428.498 293.855 428.028 293.804 427.543 294.094C427.203 294.299 426.971 294.58 426.932 294.943L426.406 295.256L425.585 292.992L427.663 291.756L427.924 292.193L426.242 293.191L426.704 294.468L426.712 294.482C426.777 294.15 426.98 293.849 427.396 293.6C428.108 293.18 428.932 293.43 429.345 294.128C429.832 294.94 429.566 295.847 428.803 296.306C427.953 296.806 427.135 296.534 426.753 295.937Z" fill="#91999E"/>
<path d="M441.681 289.744C441.625 288.344 442.176 287.438 443.26 287.39C444.078 287.359 444.609 287.898 444.694 288.538L444.093 288.563C444.021 288.136 443.764 287.881 443.28 287.902C442.385 287.942 442.216 288.811 442.248 289.629L442.251 289.682L442.262 289.685C442.475 289.259 442.899 289.023 443.4 289C444.242 288.964 444.849 289.523 444.884 290.394C444.922 291.207 444.37 291.921 443.421 291.964C442.22 292.014 441.737 291.145 441.681 289.744ZM443.398 291.463C443.999 291.437 444.307 291.048 444.282 290.465C444.259 289.836 443.889 289.498 443.364 289.526C442.728 289.553 442.343 289.969 442.371 290.558C442.401 291.12 442.769 291.486 443.398 291.463Z" fill="#91999E"/>
<path d="M461.824 292.508L461.827 292.497L459.703 291.363L459.94 290.914L462.623 292.35L462.412 292.747C461.135 293.016 459.627 294.126 458.954 295.377L458.42 295.089C459.129 293.788 460.809 292.754 461.824 292.508Z" fill="#91999E"/>
<path d="M470.531 303.612C471.041 303.271 471.503 303.436 471.892 303.68L471.906 303.672C471.871 303.325 471.947 302.932 472.358 302.658C472.988 302.239 473.683 302.472 474.153 303.174C474.619 303.87 474.574 304.603 473.947 305.029C473.536 305.303 473.143 305.227 472.838 305.063L472.824 305.071C472.897 305.516 472.874 306.016 472.37 306.353C471.634 306.842 470.875 306.499 470.351 305.718C469.826 304.937 469.798 304.108 470.531 303.612ZM470.776 305.436C471.136 305.981 471.599 306.146 472.051 305.848C472.497 305.554 472.517 305.065 472.153 304.513C471.792 303.968 471.323 303.807 470.884 304.097C470.429 304.406 470.408 304.895 470.776 305.436ZM472.577 304.231C472.859 304.656 473.203 304.806 473.614 304.532C474.012 304.266 474.01 303.881 473.728 303.456C473.446 303.031 473.088 302.889 472.691 303.155C472.284 303.436 472.295 303.806 472.577 304.231Z" fill="#91999E"/>
<path d="M476.648 319.884L476.673 320.485C476.25 320.564 475.991 320.814 476.017 321.305C476.056 322.2 476.932 322.365 477.746 322.327L477.799 322.324L477.802 322.313C477.369 322.104 477.133 321.68 477.11 321.179C477.067 320.34 477.621 319.726 478.492 319.692C479.306 319.654 480.023 320.195 480.069 321.151C480.12 322.353 479.255 322.843 477.859 322.905C476.462 322.967 475.55 322.42 475.502 321.336C475.474 320.507 476.012 319.976 476.648 319.884ZM477.635 321.197C477.663 321.833 478.085 322.214 478.674 322.186C479.24 322.163 479.606 321.795 479.578 321.159C479.549 320.552 479.164 320.25 478.574 320.278C477.949 320.309 477.611 320.678 477.635 321.197Z" fill="#91999E"/>
<path d="M475.22 335.939C476.343 336.485 477.063 337.382 476.54 338.465C476.018 339.548 474.859 339.528 473.735 338.982C472.612 338.437 471.899 337.535 472.426 336.459C472.948 335.377 474.097 335.393 475.22 335.939ZM472.884 336.681C472.513 337.437 473.162 338.037 474.002 338.442C474.847 338.855 475.717 338.995 476.089 338.239C476.46 337.483 475.811 336.884 474.967 336.471C474.122 336.058 473.245 335.922 472.884 336.681Z" fill="#91999E"/>
<path d="M416.714 288.68L417.21 288.394L419.23 291.894L421.296 290.701L421.551 291.142L418.989 292.621L416.714 288.68Z" fill="#91999E"/>
<path d="M419.765 286.919L420.26 286.633L422.536 290.573L422.04 290.86L419.765 286.919Z" fill="#91999E"/>
<path d="M421.079 286.159L421.685 285.81L425.513 287.907L425.527 287.899L423.662 284.668L424.157 284.382L426.433 288.323L425.827 288.673L421.998 286.575L421.985 286.583L423.85 289.814L423.354 290.1L421.079 286.159Z" fill="#91999E"/>
<path d="M424.972 283.913L427.699 282.338L427.953 282.779L425.722 284.067L426.438 285.308L428.401 284.174L428.655 284.615L426.693 285.748L427.488 287.126L429.781 285.802L430.036 286.243L427.247 287.853L424.972 283.913Z" fill="#91999E"/>
<path d="M403.088 313.001C401.614 313.852 399.724 313.345 398.872 311.871C398.021 310.396 398.527 308.506 400.001 307.655C401.475 306.804 403.365 307.311 404.216 308.785C405.068 310.26 404.555 312.154 403.088 313.001ZM400.315 308.199C399.145 308.875 398.74 310.386 399.416 311.557C400.093 312.728 401.603 313.133 402.773 312.457C403.944 311.781 404.349 310.271 403.672 309.1C402.996 307.928 401.486 307.523 400.315 308.199Z" fill="#91999E"/>
<path d="M402.055 311.199C401.573 311.478 400.96 311.308 400.686 310.832C400.411 310.357 400.577 309.738 401.052 309.463C401.527 309.189 402.147 309.355 402.421 309.83C402.696 310.306 402.537 310.921 402.055 311.199ZM401.359 309.994C401.179 310.097 401.112 310.329 401.219 310.515C401.326 310.701 401.554 310.763 401.74 310.655C401.926 310.548 401.987 310.32 401.88 310.134C401.773 309.948 401.538 309.89 401.359 309.994Z" fill="#91999E"/>
<path d="M408.703 305.837L396.692 312.771L397.007 313.315L409.017 306.381L408.703 305.837Z" fill="#91999E"/>
<path d="M409.947 306.404C409.465 306.682 408.853 306.512 408.578 306.037C408.304 305.561 408.47 304.942 408.945 304.668C409.427 304.389 410.039 304.559 410.314 305.035C410.588 305.51 410.429 306.125 409.947 306.404ZM409.255 305.205C409.076 305.308 409.008 305.541 409.115 305.727C409.223 305.913 409.451 305.974 409.637 305.866C409.823 305.759 409.884 305.531 409.777 305.345C409.669 305.159 409.434 305.102 409.255 305.205Z" fill="#91999E"/>
<path d="M831.621 446.165C823.33 450.952 812.683 448.097 807.894 439.802C803.105 431.507 805.956 420.859 814.248 416.072C822.539 411.285 833.186 414.14 837.975 422.435C842.764 430.729 839.913 441.377 831.621 446.165ZM814.558 416.61C806.562 421.226 803.813 431.493 808.431 439.492C813.049 447.49 823.316 450.243 831.311 445.627C839.306 441.011 842.056 430.743 837.438 422.745C832.82 414.746 822.553 411.993 814.558 416.61Z" fill="#91999E"/>
<path d="M805.288 431.673L794.489 431.689L794.491 431.293L805.289 431.278L805.288 431.673Z" fill="#91999E"/>
<path d="M796.251 421.776L796.117 422.151L806.289 425.785L806.423 425.41L796.251 421.776Z" fill="#91999E"/>
<path d="M809.121 420.514L800.757 413.677L801.013 413.373L809.377 420.21L809.121 420.514Z" fill="#91999E"/>
<path d="M808.37 407.13L808.029 407.336L813.618 416.581L813.958 416.375L808.37 407.13Z" fill="#91999E"/>
<path d="M819.545 414.22L819.15 414.301L817.013 403.713L817.407 403.632L819.545 414.22Z" fill="#91999E"/>
<path d="M827.097 459.508L826.705 459.56L825.167 448.865L825.56 448.813L827.097 459.508Z" fill="#91999E"/>
<path d="M817.427 459.332L817.041 459.252L819.176 448.668L819.569 448.744L817.427 459.332Z" fill="#91999E"/>
<path d="M808.401 455.863L808.06 455.655L813.639 446.408L813.976 446.609L808.401 455.863Z" fill="#91999E"/>
<path d="M801.037 449.597L800.787 449.291L809.136 442.441L809.39 442.753L801.037 449.597Z" fill="#91999E"/>
<path d="M796.079 440.849L796.213 441.224L806.385 437.599L806.251 437.224L796.079 440.849Z" fill="#91999E"/>
<path d="M830.009 443.816C822.998 447.864 814.003 445.452 809.954 438.439C805.905 431.425 808.314 422.429 815.324 418.381C822.335 414.334 831.33 416.746 835.379 423.759C839.429 430.772 837.027 439.765 830.009 443.816ZM815.63 418.912C808.916 422.788 806.609 431.404 810.487 438.122C814.365 444.839 822.98 447.149 829.695 443.272C836.409 439.395 838.716 430.779 834.838 424.062C830.96 417.345 822.345 415.035 815.63 418.912Z" fill="#91999E"/>
<path d="M824.699 466.999C824.691 468.289 824.176 469.368 822.932 469.36C821.688 469.353 821.185 468.275 821.189 466.977C821.196 465.687 821.705 464.612 822.956 464.616C824.204 464.63 824.707 465.708 824.699 466.999ZM822.953 465.15C822.087 465.145 821.818 466.016 821.809 466.986C821.807 467.952 822.066 468.831 822.932 468.836C823.798 468.842 824.073 467.966 824.076 467C824.085 466.03 823.83 465.158 822.953 465.15Z" fill="url(#paint4_linear_7874_93239)"/>
<path d="M807.606 464.43L807.379 464.864C806.616 464.496 806.364 464.633 806.046 465.083L805.637 464.869L807.738 460.826L808.264 461.101L806.665 464.184C806.924 464.107 807.245 464.234 807.606 464.43Z" fill="url(#paint5_linear_7874_93239)"/>
<path d="M793.9 450.251C793.038 449.775 792.705 449.517 792.131 449.858C791.804 450.056 791.48 450.417 791.837 451.019C792.242 451.704 792.813 451.613 793.353 451.292L793.671 451.825C792.859 452.312 791.957 452.245 791.383 451.282C790.986 450.611 791.068 449.782 791.811 449.335C792.567 448.88 793.3 449.275 793.967 449.652C794.484 449.941 794.981 450.215 795.454 450.079L795.468 450.071L794.219 447.972L794.67 447.703L796.29 450.414C795.574 450.828 794.748 450.717 793.9 450.251Z" fill="url(#paint6_linear_7874_93239)"/>
<path d="M789.463 435.645L789.436 435.027C790.094 435.005 790.536 434.704 790.498 433.844C790.469 433.062 790.133 432.815 789.615 432.838C788.932 432.865 788.798 433.365 788.814 433.806L788.829 434.293L788.3 434.314L788.283 433.855C788.262 433.39 788.035 433.061 787.506 433.082C787.136 433.094 786.78 433.336 786.806 433.955C786.842 434.843 787.332 434.992 787.78 434.973L787.806 435.591C786.971 435.623 786.33 435.102 786.284 433.972C786.254 433.189 786.675 432.487 787.486 432.46C787.969 432.438 788.282 432.662 788.484 433.124L788.495 433.126C788.661 432.507 789.054 432.234 789.588 432.22C790.459 432.186 790.985 432.81 791.022 433.781C791.08 434.932 790.493 435.601 789.463 435.645Z" fill="url(#paint7_linear_7874_93239)"/>
<path d="M794.126 416.208L793.074 418.138L792.606 417.885L791.058 414.535L791.343 414.012L793.944 415.431L794.242 414.882L794.703 415.14L794.405 415.689L795.345 416.203L795.059 416.726L794.126 416.208ZM793.659 415.954L791.78 414.926L792.895 417.351L793.659 415.954Z" fill="url(#paint8_linear_7874_93239)"/>
<path d="M804.629 404.549L805.162 404.232C805.433 404.59 805.861 404.839 806.47 404.478C807.01 404.157 807.174 403.613 806.801 402.983C806.452 402.394 805.971 402.341 805.466 402.642C805.118 402.852 804.876 403.148 804.823 403.518L804.277 403.843L803.433 401.492L805.586 400.212L805.856 400.662L804.112 401.697L804.583 403.023L804.591 403.037C804.66 402.694 804.872 402.378 805.309 402.117C806.049 401.681 806.899 401.944 807.327 402.67C807.827 403.52 807.548 404.453 806.757 404.928C805.866 405.452 805.026 405.174 804.629 404.549Z" fill="url(#paint9_linear_7874_93239)"/>
<path d="M820.151 398.178C820.096 396.731 820.681 395.787 821.797 395.749C822.644 395.719 823.187 396.279 823.284 396.939L822.665 396.965C822.585 396.525 822.331 396.258 821.819 396.278C820.891 396.309 820.71 397.221 820.747 398.064L820.747 398.128L820.762 398.138C820.985 397.697 821.423 397.453 821.945 397.436C822.816 397.402 823.446 397.984 823.479 398.884C823.509 399.73 822.944 400.47 821.956 400.508C820.703 400.533 820.206 399.625 820.151 398.178ZM821.933 399.96C822.563 399.937 822.88 399.533 822.862 398.928C822.833 398.274 822.456 397.922 821.908 397.944C821.25 397.966 820.849 398.4 820.871 399.012C820.893 399.605 821.269 399.986 821.933 399.96Z" fill="url(#paint10_linear_7874_93239)"/>
<path d="M794.135 397.077L794.651 396.779L796.747 400.41L798.889 399.173L799.152 399.628L796.493 401.162L794.135 397.077Z" fill="#91999E"/>
<path d="M797.303 395.248L797.819 394.95L800.178 399.035L799.661 399.333L797.303 395.248Z" fill="#91999E"/>
<path d="M798.66 394.465L799.287 394.103L803.262 396.281L803.276 396.273L801.339 392.918L801.856 392.62L804.214 396.705L803.588 397.067L799.612 394.889L799.598 394.897L801.535 398.252L801.019 398.55L798.66 394.465Z" fill="#91999E"/>
<path d="M802.701 392.131L805.532 390.496L805.794 390.951L803.48 392.287L804.224 393.575L806.262 392.399L806.525 392.853L804.487 394.03L805.314 395.463L807.697 394.087L807.959 394.542L805.06 396.216L802.701 392.131Z" fill="#91999E"/>
<path d="M779.989 422.293C778.467 423.172 776.519 422.643 775.644 421.128C774.769 419.612 775.292 417.656 776.807 416.782C778.322 415.907 780.278 416.431 781.153 417.947C782.028 419.463 781.511 421.414 779.989 422.293ZM777.114 417.312C775.895 418.016 775.469 419.584 776.177 420.811C776.885 422.037 778.449 422.457 779.675 421.749C780.901 421.041 781.32 419.476 780.612 418.25C779.908 417.031 778.34 416.604 777.114 417.312Z" fill="#91999E"/>
<path d="M778.927 420.418C778.438 420.7 777.801 420.535 777.515 420.039C777.233 419.55 777.401 418.92 777.897 418.634C778.386 418.351 779.016 418.52 779.299 419.009C779.585 419.505 779.416 420.136 778.927 420.418ZM778.207 419.171C778.015 419.282 777.948 419.532 778.059 419.725C778.17 419.918 778.42 419.985 778.613 419.874C778.806 419.762 778.873 419.512 778.762 419.319C778.65 419.127 778.4 419.06 778.207 419.171Z" fill="#91999E"/>
<path d="M785.822 414.884L773.371 422.073L773.685 422.617L786.136 415.429L785.822 414.884Z" fill="#91999E"/>
<path d="M787.111 415.445C786.622 415.727 785.985 415.562 785.699 415.066C785.412 414.57 785.581 413.94 786.077 413.654C786.566 413.371 787.196 413.54 787.482 414.036C787.769 414.532 787.6 415.162 787.111 415.445ZM786.395 414.205C786.202 414.316 786.135 414.566 786.247 414.759C786.358 414.952 786.608 415.019 786.801 414.907C786.994 414.796 787.061 414.546 786.949 414.353C786.838 414.16 786.588 414.093 786.395 414.205Z" fill="#91999E"/>
<path d="M718.631 345.755C641.273 390.417 541.992 363.789 497.317 286.409C452.642 209.029 479.218 109.728 556.576 65.0657C633.934 20.403 733.214 47.0311 777.89 124.411C822.565 201.791 795.982 301.096 718.631 345.755ZM557.769 67.1325C481.554 111.135 455.36 208.966 499.379 285.209C543.398 361.453 641.219 387.684 717.434 343.681C793.649 299.678 819.843 201.847 775.824 125.604C731.805 49.3606 633.984 23.1298 557.769 67.1325Z" fill="#91999E"/>
<path d="M668.526 258.971C640.518 275.141 604.579 265.504 588.403 237.486C572.226 209.467 581.849 173.525 609.858 157.354C637.866 141.184 673.804 150.821 689.981 178.839C706.151 206.862 696.527 242.804 668.526 258.971ZM611.051 159.421C584.186 174.932 574.952 209.418 590.469 236.293C605.985 263.168 640.468 272.415 667.333 256.904C694.198 241.394 703.431 206.907 687.915 180.032C672.392 153.161 637.916 143.911 611.051 159.421Z" fill="#91999E"/>
<path d="M697.675 313.607C693.481 316.028 688.43 316.17 683.809 313.988C678.609 311.534 674.922 306.626 673.952 300.858C672.923 294.719 671.707 286.823 670.416 278.465C669.298 271.184 668.133 263.663 667.069 257.112L667.683 257.015C668.751 263.572 669.909 271.097 671.034 278.375C672.325 286.733 673.541 294.628 674.566 300.761C675.503 306.328 679.055 311.065 684.075 313.43C688.505 315.521 693.35 315.387 697.358 313.073C723.376 298.052 766.183 262.728 760.529 194.95C760.079 189.542 757.184 184.719 752.787 182.049C749.152 179.84 745.083 179.489 741.333 181.057L695.426 199.147L695.199 198.562L741.099 180.476C745.033 178.829 749.302 179.193 753.111 181.513C757.679 184.287 760.677 189.289 761.149 194.895C766.841 263.009 723.824 298.51 697.675 313.607Z" fill="#91999E"/>
<path d="M599.169 314.548C598.886 314.711 598.6 314.867 598.306 315.009C593.748 317.31 588.692 317.299 584.438 314.988C565.63 304.774 550.313 291.857 538.901 276.592C522.286 254.366 514.73 227.92 516.424 197.98C516.725 192.68 519.683 187.721 524.352 184.722C528.523 182.038 533.313 181.413 537.479 183.031L581.163 199.816L580.938 200.396L537.254 183.611C533.277 182.067 528.685 182.67 524.689 185.243C520.193 188.143 517.337 192.914 517.049 198.013C515.361 227.804 522.883 254.113 539.406 276.21C550.759 291.406 566.013 304.259 584.739 314.428C588.816 316.639 593.658 316.645 598.033 314.441C602.985 311.949 606.414 307.122 607.197 301.526C607.984 295.955 609.076 289.896 610.229 283.48C611.584 275.965 612.98 268.205 613.992 260.622L614.61 260.706C613.599 268.307 612.2 276.078 610.845 283.593C609.688 290.002 608.603 296.057 607.814 301.61C607.04 307.091 603.838 311.852 599.169 314.548Z" fill="#91999E"/>
<path d="M666.223 157.586L665.814 157.115L709.243 118.924C712.419 116.108 713.993 111.901 713.551 107.398C713.057 102.328 710.124 97.7564 705.71 95.152C679.994 80.0171 653.23 74.6454 626.147 79.1856C607.554 82.3051 589.213 89.964 571.621 101.958C567.675 104.65 565.387 108.956 565.346 113.784C565.303 118.989 567.948 123.984 572.421 127.152C583.548 135.021 599.789 146.468 613.969 156.349L613.611 156.859C599.431 146.977 583.19 135.53 572.063 127.661C567.423 124.379 564.673 119.187 564.719 113.779C564.761 108.748 567.146 104.257 571.263 101.448C588.927 89.4039 607.354 81.7042 626.031 78.5724C653.262 74.002 680.171 79.4007 706.016 94.6169C710.608 97.3213 713.655 102.075 714.161 107.34C714.618 112.045 712.977 116.438 709.641 119.392L666.223 157.586Z" fill="#91999E"/>
<path d="M700.45 313.915C698.694 314.928 697.045 315.825 695.542 316.61C691.545 318.689 686.642 318.515 682.095 316.125C676.506 313.189 672.58 307.629 671.833 301.612C671.074 295.51 670.066 288.229 669.086 281.189C667.977 273.24 666.841 265.023 666.059 258.42L666.678 258.347C667.463 264.939 668.603 273.164 669.708 281.105C670.688 288.146 671.696 295.426 672.452 301.539C673.172 307.351 676.977 312.733 682.389 315.57C686.753 317.864 691.445 318.039 695.259 316.057C716.498 304.989 765.569 271.56 762.718 200.207C762.52 195.141 759.9 190.444 755.706 187.648C751.983 185.159 747.582 184.567 743.636 186.018L696.897 203.542L696.681 202.96L743.42 185.436C747.561 183.909 752.162 184.532 756.056 187.124C760.407 190.032 763.134 194.915 763.344 200.177C765.997 266.83 723.582 300.559 700.45 313.915Z" fill="#91999E"/>
<path d="M663.667 156.912L663.251 156.445C673.796 147.069 695.547 127.631 704.082 119.957C708.75 115.764 711.225 109.761 710.536 104.289C710.019 100.197 707.75 96.9044 704.141 95.0108C682.694 83.7863 626.702 62.3032 570.125 105.155C565.818 108.414 563.304 113.19 563.397 117.931C563.476 121.836 565.327 125.249 568.608 127.544L611.897 157.546L611.539 158.055L568.25 128.054C564.802 125.644 562.858 122.054 562.771 117.944C562.673 113.003 565.282 108.043 569.746 104.657C626.596 61.5933 682.874 83.1768 704.425 94.4521C708.218 96.4416 710.61 99.9013 711.147 104.203C711.859 109.873 709.315 116.09 704.494 120.417C695.966 128.087 674.209 147.529 663.667 156.912Z" fill="#91999E"/>
<path d="M599.384 317.115C599.101 317.278 598.815 317.434 598.518 317.587C593.96 319.888 588.904 319.877 584.649 317.566C556.646 302.365 510.238 266.787 514.062 199.297C514.354 194.141 517.914 188.76 523.344 185.267C528.29 182.081 533.714 181.154 537.865 182.762L579.348 198.916L579.123 199.496L537.64 183.342C533.675 181.801 528.453 182.712 523.682 185.788C518.413 189.179 514.967 194.375 514.681 199.335C510.879 266.481 557.069 301.89 584.941 317.021C589.011 319.236 593.861 319.238 598.235 317.034C603.19 314.531 606.613 309.708 607.399 304.119C608.178 298.599 609.231 292.231 610.343 285.49C611.72 277.172 613.137 268.573 614.191 260.681L614.809 260.765C613.759 268.664 612.335 277.267 610.962 285.592C609.846 292.326 608.8 298.69 608.023 304.199C607.254 309.659 604.053 314.419 599.384 317.115Z" fill="#91999E"/>
<path d="M543.418 182.551L542.807 182.416C547.269 161.946 556.55 146.309 572.899 131.717L573.316 132.184C557.068 146.681 547.849 162.218 543.418 182.551Z" fill="url(#paint11_linear_7874_93239)"/>
<path d="M672.064 303.013C652.374 309.21 631.094 308.93 610.523 302.215L610.716 301.626C631.156 308.306 652.304 308.58 671.872 302.426L672.064 303.013Z" fill="url(#paint12_linear_7874_93239)"/>
<path d="M742.198 180.521L741.591 180.678C739.299 171.667 735.765 162.97 731.072 154.84C724.114 142.773 714.961 132.47 703.86 124.2L704.232 123.701C715.397 132.016 724.614 142.383 731.616 154.526C736.337 162.704 739.899 171.45 742.198 180.521Z" fill="url(#paint13_linear_7874_93239)"/>
<path d="M548.822 183.83L548.215 183.685C552.797 164.919 563.82 146.319 576.986 135.135L577.388 135.61C564.317 146.702 553.372 165.183 548.822 183.83Z" fill="url(#paint14_linear_7874_93239)"/>
<path d="M669.042 299.274C650.482 305.121 628.661 304.511 610.658 297.645L610.879 297.058C628.755 303.878 650.433 304.479 668.853 298.676L669.042 299.274Z" fill="url(#paint15_linear_7874_93239)"/>
<path d="M736.041 179.446L735.433 179.585C733.567 171.55 730.54 163.81 726.427 156.558C720.609 146.322 712.934 137.562 703.617 130.522L703.99 130.022C713.374 137.115 721.109 145.932 726.971 156.244C731.112 163.544 734.164 171.344 736.041 179.446Z" fill="url(#paint16_linear_7874_93239)"/>
<path d="M551.739 184.48L551.132 184.334C555.724 165.506 565.997 147.864 578.61 137.156L579.013 137.63C566.497 148.255 556.3 165.771 551.739 184.48Z" fill="url(#paint17_linear_7874_93239)"/>
<path d="M668.3 297.084C650.457 302.71 629.873 301.983 611.822 295.099L612.043 294.512C629.967 301.35 650.408 302.068 668.111 296.486L668.3 297.084Z" fill="url(#paint18_linear_7874_93239)"/>
<path d="M733.562 180.913L732.954 181.053C731.134 173.193 728.169 165.609 724.138 158.531C718.447 148.515 710.937 139.945 701.819 133.057L702.191 132.557C711.377 139.498 718.941 148.129 724.675 158.221C728.742 165.361 731.724 172.991 733.562 180.913Z" fill="url(#paint19_linear_7874_93239)"/>
<path d="M665.249 107.25C647.758 102.56 629.513 103.531 612.504 110.045L612.276 109.46C629.415 102.899 647.787 101.928 665.405 106.646L665.249 107.25Z" fill="#91999E"/>
<path d="M583.175 275.032C567.945 263.204 556.998 246.312 552.366 227.473L552.97 227.327C557.569 246.028 568.437 262.8 583.556 274.546L583.175 275.032Z" fill="#91999E"/>
<path d="M718.797 262.372L718.334 261.951C723.881 255.846 728.529 248.946 732.139 241.442C737.244 230.834 740.077 219.535 740.558 207.867L741.18 207.894C740.693 219.648 737.84 231.023 732.7 241.715C729.065 249.27 724.385 256.225 718.797 262.372Z" fill="#91999E"/>
<path d="M717.359 341.704C642.012 385.206 545.303 359.279 501.781 283.897C458.263 208.521 484.154 111.803 559.508 68.2969C634.855 24.7952 731.564 50.722 775.086 126.104C818.604 201.48 792.706 298.202 717.359 341.704ZM559.822 68.8412C484.771 112.172 458.978 208.503 502.325 283.583C545.672 358.662 641.994 384.49 717.045 341.16C792.096 297.829 817.889 201.497 774.542 126.418C731.195 51.3392 634.873 25.5105 559.822 68.8412Z" fill="#91999E"/>
<path d="M696.456 305.786C641.135 337.725 570.138 318.687 538.187 263.346C506.235 208.005 525.247 137 580.567 105.061C635.888 73.1213 706.885 92.1593 738.837 147.501C770.788 202.842 751.777 273.847 696.456 305.786ZM581.76 107.127C527.576 138.411 508.962 207.955 540.253 262.153C571.544 316.351 641.078 335.003 695.263 303.719C749.44 272.44 768.062 202.891 736.771 148.693C705.48 94.4957 635.938 75.8481 581.76 107.127Z" fill="#91999E"/>
<path d="M326.641 571.289C249.283 615.952 150.002 589.324 105.327 511.944C60.6513 434.564 87.2273 335.263 164.585 290.6C241.936 245.942 341.224 272.566 385.9 349.946C430.575 427.326 403.992 526.631 326.641 571.289ZM165.779 292.667C89.5569 336.674 63.3628 434.505 107.382 510.748C151.401 586.992 249.222 613.222 325.437 569.22C401.652 525.217 427.846 427.386 383.827 351.143C339.808 274.899 241.993 248.665 165.779 292.667Z" fill="#91999E"/>
<path d="M276.536 484.505C248.528 500.676 212.589 491.039 196.412 463.02C180.236 435.002 189.859 399.059 217.867 382.889C245.875 366.719 281.814 376.355 297.991 404.374C314.16 432.397 304.537 468.339 276.536 484.505ZM219.065 384.963C192.2 400.473 182.966 434.96 198.482 461.834C213.999 488.709 248.481 497.956 275.346 482.446C302.211 466.935 311.445 432.449 295.929 405.574C280.402 378.696 245.929 369.452 219.065 384.963Z" fill="#91999E"/>
<path d="M305.685 539.142C301.491 541.563 296.44 541.705 291.819 539.523C286.619 537.069 282.932 532.161 281.961 526.393C281.356 522.783 280.65 518.635 279.9 514.218C278.235 504.432 276.356 493.336 274.787 483.734L275.401 483.636C276.97 493.239 278.856 504.33 280.514 514.12C281.268 518.544 281.974 522.693 282.579 526.302C283.516 531.87 287.069 536.607 292.089 538.972C296.519 541.062 301.363 540.929 305.371 538.615C331.389 523.594 374.196 488.27 368.543 420.492C368.093 415.084 365.198 410.261 360.801 407.591C357.166 405.382 353.097 405.03 349.347 406.599L303.44 424.689L303.212 424.104L349.113 406.017C353.047 404.371 357.316 404.735 361.125 407.055C365.692 409.829 368.69 414.831 369.163 420.437C374.85 488.544 331.833 524.045 305.685 539.142Z" fill="#91999E"/>
<path d="M207.178 540.082C206.896 540.245 206.61 540.401 206.312 540.554C201.755 542.855 196.698 542.844 192.444 540.533C173.637 530.319 158.319 517.402 146.908 502.138C130.292 479.911 122.737 453.465 124.43 423.525C124.731 418.225 127.689 413.266 132.358 410.267C136.525 407.577 141.319 406.958 145.486 408.576L189.169 425.361L188.944 425.941L145.261 409.156C141.284 407.612 136.692 408.215 132.696 410.789C128.199 413.688 125.344 418.46 125.056 423.559C123.367 453.349 130.89 479.658 147.412 501.755C158.766 516.951 174.019 529.805 192.745 539.973C196.816 542.188 201.665 542.19 206.039 539.986C210.992 537.494 214.421 532.667 215.203 527.072L215.847 522.493C217.452 511.103 219.273 498.193 220.912 485.875L221.53 485.96C219.891 498.278 218.07 511.187 216.465 522.577L215.821 527.156C215.049 532.626 211.847 537.386 207.178 540.082Z" fill="#91999E"/>
<path d="M274.234 383.121L273.824 382.65L317.253 344.459C320.429 341.642 322.004 337.436 321.562 332.933C321.068 327.862 318.135 323.291 313.721 320.687C288.009 305.559 261.234 300.184 234.155 304.731C215.562 307.851 197.221 315.51 179.629 327.504C175.683 330.195 173.395 334.502 173.354 339.329C173.311 344.535 175.956 349.53 180.429 352.697C191.556 360.566 207.797 372.013 221.977 381.895L221.619 382.404C207.439 372.523 191.198 361.076 180.071 353.207C175.431 349.925 172.681 344.733 172.726 339.324C172.769 334.293 175.153 329.803 179.271 326.994C196.934 314.95 215.362 307.25 234.039 304.118C261.27 299.548 288.178 304.946 314.024 320.163C318.616 322.867 321.663 327.62 322.169 332.886C322.626 337.591 320.984 341.983 317.649 344.938L274.234 383.121Z" fill="#91999E"/>
<path d="M308.46 539.449C306.703 540.463 305.054 541.36 303.552 542.145C299.554 544.223 294.652 544.05 290.104 541.66C284.516 538.723 280.589 533.164 279.843 527.147C279.088 521.052 278.072 513.775 277.097 506.741C275.995 498.789 274.851 490.558 274.062 483.958L274.681 483.886C275.463 490.489 276.61 498.709 277.712 506.662C278.688 513.695 279.703 520.972 280.455 527.078C281.175 532.89 284.98 538.271 290.385 541.112C294.749 543.406 299.441 543.581 303.255 541.6C324.498 530.538 373.565 497.102 370.714 425.75C370.516 420.683 367.89 415.99 363.702 413.19C359.979 410.701 355.578 410.11 351.632 411.561L304.893 429.085L304.677 428.503L351.416 410.979C355.557 409.452 360.165 410.07 364.056 412.674C368.407 415.582 371.134 420.465 371.344 425.726C374.007 492.365 331.592 526.094 308.46 539.449Z" fill="#91999E"/>
<path d="M271.684 382.443L271.268 381.976C281.789 372.622 303.536 353.177 312.098 345.487C316.766 341.295 319.241 335.292 318.552 329.82C318.035 325.728 315.767 322.435 312.158 320.541C290.71 309.317 234.719 287.834 178.142 330.686C173.834 333.944 171.321 338.72 171.414 343.462C171.492 347.366 173.344 350.78 176.624 353.075L219.913 383.076L219.555 383.586L176.264 353.595C172.816 351.186 170.872 347.596 170.785 343.485C170.687 338.545 173.296 333.584 177.76 330.199C234.609 287.135 290.888 308.718 312.438 319.994C316.231 321.983 318.624 325.443 319.16 329.744C319.876 335.421 317.328 341.632 312.508 345.958C303.952 353.644 282.199 373.093 271.684 382.443Z" fill="#91999E"/>
<path d="M207.393 542.649C207.11 542.813 206.824 542.969 206.527 543.122C201.969 545.422 196.913 545.412 192.659 543.1C164.655 527.899 118.248 492.322 122.071 424.832C122.363 419.675 125.923 414.295 131.36 410.798C136.282 407.634 141.726 406.677 145.881 408.292L190.222 424.625L190.008 425.208L145.663 408.869C141.687 407.325 136.476 408.239 131.698 411.319C126.429 414.71 122.979 419.899 122.697 424.865C118.895 492.012 165.085 527.421 192.957 542.552C197.027 544.767 201.877 544.769 206.251 542.565C211.206 540.062 214.629 535.239 215.415 529.65C216.194 524.129 217.24 517.766 218.356 511.032C219.733 502.714 221.157 494.111 222.204 486.222L222.822 486.307C221.772 494.206 220.352 502.815 218.968 511.138C217.859 517.868 216.802 524.228 216.026 529.738C215.264 535.193 212.062 539.954 207.393 542.649Z" fill="#91999E"/>
<path d="M151.427 408.085L150.817 407.951C155.279 387.481 164.56 371.844 180.909 357.252L181.326 357.718C165.082 372.222 155.858 387.753 151.427 408.085Z" fill="url(#paint20_linear_7874_93239)"/>
<path d="M350.207 406.055L349.601 406.213C347.309 397.202 343.775 388.504 339.081 380.375C332.124 368.308 322.97 358.005 311.869 349.735L312.242 349.235C323.406 357.551 332.624 367.918 339.625 380.061C344.347 388.239 347.909 396.984 350.207 406.055Z" fill="#91999E"/>
<path d="M156.838 409.362L156.23 409.216C160.806 390.454 171.836 371.85 185.001 360.667L185.404 361.141C172.326 372.238 161.381 390.719 156.838 409.362Z" fill="url(#paint21_linear_7874_93239)"/>
<path d="M277.052 524.809C258.492 530.656 236.671 530.045 218.668 523.18L218.889 522.593C236.765 529.412 258.436 530.018 276.863 524.211L277.052 524.809Z" fill="url(#paint22_linear_7874_93239)"/>
<path d="M344.051 404.98L343.443 405.12C341.577 397.085 338.546 389.337 334.436 382.092C328.618 371.857 320.944 363.097 311.627 356.057L312 355.557C321.384 362.65 329.119 371.467 334.98 381.778C339.121 389.078 342.178 396.885 344.051 404.98Z" fill="url(#paint23_linear_7874_93239)"/>
<path d="M159.749 410.014L159.141 409.869C163.734 391.041 174.006 373.399 186.62 362.69L187.022 363.165C174.511 373.796 164.309 391.306 159.749 410.014Z" fill="url(#paint24_linear_7874_93239)"/>
<path d="M276.31 522.619C258.467 528.245 237.883 527.517 219.832 520.633L220.053 520.046C237.976 526.885 258.418 527.603 276.128 522.017L276.31 522.619Z" fill="url(#paint25_linear_7874_93239)"/>
<path d="M341.572 406.448L340.964 406.588C339.144 398.728 336.179 391.144 332.148 384.066C326.457 374.05 318.947 365.48 309.828 358.592L310.201 358.092C319.387 365.033 326.95 373.664 332.685 383.756C336.752 390.896 339.738 398.532 341.572 406.448Z" fill="url(#paint26_linear_7874_93239)"/>
<path d="M273.259 332.785C255.767 328.095 237.523 329.066 220.513 335.58L220.286 334.995C237.424 328.434 255.797 327.462 273.415 332.181L273.259 332.785Z" fill="#91999E"/>
<path d="M191.189 500.574C175.958 488.746 165.012 471.853 160.379 453.015L160.983 452.868C165.583 471.57 176.451 488.342 191.57 500.088L191.189 500.574Z" fill="#91999E"/>
<path d="M326.807 487.907L326.343 487.486C331.891 481.38 336.538 474.481 340.149 466.977C345.254 456.369 348.087 445.07 348.568 433.402L349.189 433.429C348.703 445.182 345.853 456.564 340.71 467.25C337.079 474.812 332.394 481.76 326.807 487.907Z" fill="#91999E"/>
<path d="M325.369 567.239C250.022 610.74 153.313 584.814 109.791 509.431C66.2731 434.056 92.1635 337.337 167.517 293.832C242.865 250.33 339.574 276.257 383.096 351.639C426.617 427.021 400.716 523.737 325.369 567.239ZM167.832 294.376C92.7807 337.707 66.9881 434.038 110.335 509.117C153.682 584.196 250.004 610.025 325.055 566.694C400.106 523.364 425.898 427.032 382.551 351.953C339.205 276.874 242.883 251.045 167.832 294.376Z" fill="#91999E"/>
<path d="M304.466 531.321C249.145 563.26 178.148 544.222 146.196 488.881C114.245 433.539 133.256 362.535 188.577 330.595C243.898 298.656 314.895 317.694 346.846 373.035C378.798 428.377 359.786 499.381 304.466 531.321ZM189.774 332.669C135.597 363.948 116.975 433.497 148.266 487.695C179.557 541.893 249.099 560.54 303.277 529.261C357.454 497.981 376.076 428.433 344.784 374.235C313.489 320.03 243.952 301.39 189.774 332.669Z" fill="#91999E"/>
<path d="M51.3831 442.431C49.0003 443.807 45.9366 442.986 44.5604 440.602C43.1842 438.218 44.0045 435.154 46.3873 433.778C48.7701 432.403 51.8338 433.224 53.21 435.608C54.5863 437.992 53.7659 441.056 51.3831 442.431ZM47.5806 435.845C46.3341 436.565 45.9064 438.162 46.6264 439.409C47.3463 440.656 48.9433 441.084 50.1898 440.365C51.4363 439.645 51.864 438.048 51.144 436.801C50.4241 435.554 48.8271 435.126 47.5806 435.845Z" fill="#91999E"/>
</g>
<defs>
<linearGradient id="paint0_linear_7874_93239" x1="174.66" y1="587.07" x2="284.859" y2="523.447" gradientUnits="userSpaceOnUse">
<stop stop-color="#00A3FF"/>
<stop offset="1" stop-color="#8DFF48"/>
</linearGradient>
<linearGradient id="paint1_linear_7874_93239" x1="568.27" y1="444.625" x2="688.504" y2="375.208" gradientUnits="userSpaceOnUse">
<stop stop-color="#00A3FF"/>
<stop offset="1" stop-color="#8DFF48"/>
</linearGradient>
<linearGradient id="paint2_linear_7874_93239" x1="743.849" y1="361.568" x2="774.088" y2="344.109" gradientUnits="userSpaceOnUse">
<stop stop-color="#00A3FF"/>
<stop offset="1" stop-color="#8DFF48"/>
</linearGradient>
<linearGradient id="paint3_linear_7874_93239" x1="747.157" y1="241.755" x2="796.142" y2="213.473" gradientUnits="userSpaceOnUse">
<stop stop-color="#00A3FF"/>
<stop offset="1" stop-color="#8DFF48"/>
</linearGradient>
<linearGradient id="paint4_linear_7874_93239" x1="821.207" y1="467.991" x2="824.681" y2="465.985" gradientUnits="userSpaceOnUse">
<stop stop-color="#00A3FF"/>
<stop offset="1" stop-color="#8DFF48"/>
</linearGradient>
<linearGradient id="paint5_linear_7874_93239" x1="805.241" y1="464.183" x2="808.843" y2="462.104" gradientUnits="userSpaceOnUse">
<stop stop-color="#00A3FF"/>
<stop offset="1" stop-color="#8DFF48"/>
</linearGradient>
<linearGradient id="paint6_linear_7874_93239" x1="791.44" y1="451.382" x2="795.496" y2="449.04" gradientUnits="userSpaceOnUse">
<stop stop-color="#00A3FF"/>
<stop offset="1" stop-color="#8DFF48"/>
</linearGradient>
<linearGradient id="paint7_linear_7874_93239" x1="786.655" y1="435.147" x2="790.744" y2="432.786" gradientUnits="userSpaceOnUse">
<stop stop-color="#00A3FF"/>
<stop offset="1" stop-color="#8DFF48"/>
</linearGradient>
<linearGradient id="paint8_linear_7874_93239" x1="791.723" y1="416.355" x2="794.505" y2="414.749" gradientUnits="userSpaceOnUse">
<stop stop-color="#00A3FF"/>
<stop offset="1" stop-color="#8DFF48"/>
</linearGradient>
<linearGradient id="paint9_linear_7874_93239" x1="804.158" y1="403.733" x2="806.995" y2="402.095" gradientUnits="userSpaceOnUse">
<stop stop-color="#00A3FF"/>
<stop offset="1" stop-color="#8DFF48"/>
</linearGradient>
<linearGradient id="paint10_linear_7874_93239" x1="820.152" y1="399.126" x2="823.536" y2="397.172" gradientUnits="userSpaceOnUse">
<stop stop-color="#00A3FF"/>
<stop offset="1" stop-color="#8DFF48"/>
</linearGradient>
<linearGradient id="paint11_linear_7874_93239" x1="535.698" y1="170.102" x2="580.33" y2="144.333" gradientUnits="userSpaceOnUse">
<stop stop-color="#00A3FF"/>
<stop offset="1" stop-color="#8DFF48"/>
</linearGradient>
<linearGradient id="paint12_linear_7874_93239" x1="618.285" y1="315.659" x2="664.206" y2="289.147" gradientUnits="userSpaceOnUse">
<stop stop-color="#00A3FF"/>
<stop offset="1" stop-color="#8DFF48"/>
</linearGradient>
<linearGradient id="paint13_linear_7874_93239" x1="720.784" y1="153.514" x2="728.47" y2="149.077" gradientUnits="userSpaceOnUse">
<stop stop-color="#00A3FF"/>
<stop offset="1" stop-color="#8DFF48"/>
</linearGradient>
<linearGradient id="paint14_linear_7874_93239" x1="541.407" y1="171.894" x2="584.104" y2="147.243" gradientUnits="userSpaceOnUse">
<stop stop-color="#00A3FF"/>
<stop offset="1" stop-color="#8DFF48"/>
</linearGradient>
<linearGradient id="paint15_linear_7874_93239" x1="618.209" y1="310.724" x2="661.409" y2="285.783" gradientUnits="userSpaceOnUse">
<stop stop-color="#00A3FF"/>
<stop offset="1" stop-color="#8DFF48"/>
</linearGradient>
<linearGradient id="paint16_linear_7874_93239" x1="718.201" y1="155.782" x2="724.58" y2="152.099" gradientUnits="userSpaceOnUse">
<stop stop-color="#00A3FF"/>
<stop offset="1" stop-color="#8DFF48"/>
</linearGradient>
<linearGradient id="paint17_linear_7874_93239" x1="544.459" y1="172.777" x2="585.593" y2="149.029" gradientUnits="userSpaceOnUse">
<stop stop-color="#00A3FF"/>
<stop offset="1" stop-color="#8DFF48"/>
</linearGradient>
<linearGradient id="paint18_linear_7874_93239" x1="619.212" y1="307.899" x2="660.828" y2="283.872" gradientUnits="userSpaceOnUse">
<stop stop-color="#00A3FF"/>
<stop offset="1" stop-color="#8DFF48"/>
</linearGradient>
<linearGradient id="paint19_linear_7874_93239" x1="716.086" y1="157.769" x2="722.334" y2="154.162" gradientUnits="userSpaceOnUse">
<stop stop-color="#00A3FF"/>
<stop offset="1" stop-color="#8DFF48"/>
</linearGradient>
<linearGradient id="paint20_linear_7874_93239" x1="143.707" y1="395.636" x2="188.34" y2="369.868" gradientUnits="userSpaceOnUse">
<stop stop-color="#00A3FF"/>
<stop offset="1" stop-color="#8DFF48"/>
</linearGradient>
<linearGradient id="paint21_linear_7874_93239" x1="149.423" y1="397.425" x2="192.12" y2="372.774" gradientUnits="userSpaceOnUse">
<stop stop-color="#00A3FF"/>
<stop offset="1" stop-color="#8DFF48"/>
</linearGradient>
<linearGradient id="paint22_linear_7874_93239" x1="226.219" y1="536.259" x2="269.419" y2="511.317" gradientUnits="userSpaceOnUse">
<stop stop-color="#00A3FF"/>
<stop offset="1" stop-color="#8DFF48"/>
</linearGradient>
<linearGradient id="paint23_linear_7874_93239" x1="326.211" y1="381.316" x2="332.59" y2="377.633" gradientUnits="userSpaceOnUse">
<stop stop-color="#00A3FF"/>
<stop offset="1" stop-color="#8DFF48"/>
</linearGradient>
<linearGradient id="paint24_linear_7874_93239" x1="152.469" y1="398.312" x2="193.603" y2="374.563" gradientUnits="userSpaceOnUse">
<stop stop-color="#00A3FF"/>
<stop offset="1" stop-color="#8DFF48"/>
</linearGradient>
<linearGradient id="paint25_linear_7874_93239" x1="227.222" y1="533.434" x2="268.845" y2="509.402" gradientUnits="userSpaceOnUse">
<stop stop-color="#00A3FF"/>
<stop offset="1" stop-color="#8DFF48"/>
</linearGradient>
<linearGradient id="paint26_linear_7874_93239" x1="324.096" y1="383.304" x2="330.344" y2="379.697" gradientUnits="userSpaceOnUse">
<stop stop-color="#00A3FF"/>
<stop offset="1" stop-color="#8DFF48"/>
</linearGradient>
<clipPath id="clip0_7874_93239">
<rect width="833.247" height="505.462" fill="white" transform="translate(0 385.624) rotate(-30)"/>
</clipPath>
</defs>
</svg>
