<svg width="112" height="116" viewBox="0 0 112 116" fill="none" xmlns="http://www.w3.org/2000/svg">
<path d="M49.5175 2.16134C53.4673 -0.374156 58.5327 -0.374156 62.4825 2.16134L69.4818 6.65446C71.2184 7.7692 73.213 8.4173 75.2731 8.53616L83.5767 9.01526C88.2625 9.28562 92.3605 12.263 94.0656 16.6359L97.0872 24.385C97.8368 26.3076 99.0696 28.0043 100.666 29.3114L107.103 34.5797C110.734 37.5526 112.3 42.3702 111.109 46.9101L108.999 54.9553C108.475 56.9514 108.475 59.0486 108.999 61.0447L111.109 69.0899C112.3 73.6298 110.734 78.4474 107.103 81.4203L100.666 86.6886C99.0696 87.9957 97.8368 89.6924 97.0872 91.615L94.0656 99.3641C92.3605 103.737 88.2625 106.714 83.5767 106.985L75.2731 107.464C73.213 107.583 71.2184 108.231 69.4818 109.346L62.4825 113.839C58.5327 116.374 53.4673 116.374 49.5175 113.839L42.5182 109.346C40.7816 108.231 38.787 107.583 36.7269 107.464L28.4233 106.985C23.7375 106.714 19.6395 103.737 17.9344 99.3641L14.9128 91.615C14.1632 89.6924 12.9304 87.9957 11.3336 86.6886L4.89748 81.4203C1.26553 78.4474 -0.299777 73.6298 0.891078 69.0899L3.00137 61.0447C3.52494 59.0486 3.52493 56.9514 3.00137 54.9553L0.891077 46.9101C-0.299778 42.3702 1.26553 37.5526 4.89748 34.5797L11.3336 29.3114C12.9304 28.0043 14.1632 26.3076 14.9128 24.385L17.9344 16.6359C19.6395 12.263 23.7375 9.28562 28.4233 9.01526L36.7269 8.53616C38.787 8.4173 40.7816 7.7692 42.5182 6.65446L49.5175 2.16134Z" fill="#FFD426"/>
</svg>
