<svg width="555" height="80" viewBox="0 0 555 80" fill="none" xmlns="http://www.w3.org/2000/svg">
<path d="M10 79.5C8.04611 79.5 6.23139 78.9107 4.722 77.9002L4.44384 78.3157C3.35333 77.5856 2.41443 76.6467 1.68435 75.5562L2.09983 75.278C1.08932 73.7686 0.5 71.9539 0.5 70V64.375H0V60.625H0.5V49.375H0V45.625H0.5V34.375H0V30.625H0.5V19.375H0V15.625H0.5V10C0.5 8.04611 1.08932 6.23139 2.09983 4.722L1.68434 4.44384C2.41442 3.35333 3.35333 2.41443 4.44384 1.68435L4.722 2.09983C6.23138 1.08932 8.04611 0.5 9.99999 0.5H16.0795V0H20.1326V0.5H32.2917V0H36.3447V0.5H48.5038V0H52.5568V0.5H64.7159V0H68.7689V0.5H80.928V0H84.9811V0.5H97.1401V0H101.193V0.5H113.352V0H117.405V0.5H129.564V0H133.617V0.5H145.777V0H149.83V0.5H161.989V0H166.042V0.5H178.201V0H182.254V0.5H194.413V0H198.466V0.5H210.625V0H214.678V0.5H226.837V0H230.89V0.5H243.049V0H247.102V0.5H259.261V0H263.314V0.5H275.473V0H279.526V0.5H291.686V0H295.739V0.5H307.898V0H311.951V0.5H324.11V0H328.163V0.5H340.322V0H344.375V0.5H356.534V0H360.587V0.5H372.746V0H376.799V0.5H388.958V0H393.011V0.5H405.17V0H409.223V0.5H421.383V0H425.436V0.5H437.595V0H441.648V0.5H453.807V0H457.86V0.5H470.019V0H474.072V0.5H486.231V0H490.284V0.5H502.443V0H506.496V0.5H518.655V0H522.708V0.5H534.867V0H538.921V0.5H545C546.954 0.5 548.769 1.08932 550.278 2.09983L550.556 1.68435C551.647 2.41443 552.586 3.35333 553.316 4.44384L552.9 4.722C553.911 6.23139 554.5 8.04611 554.5 10V16.3572H555V20.5954H554.5V33.3099H555V37.548H554.5V50.2625H555V54.5006H554.5V60.8579C554.5 63.3774 553.499 65.7938 551.717 67.5754L548.289 71.0037L548.643 71.3572L546.357 73.6428L546.004 73.2892L542.575 76.7175C540.794 78.4991 538.377 79.5 535.858 79.5H529.882V80H525.898V79.5H513.947V80H509.963V79.5H498.012V80H494.028V79.5H482.077V80H478.093V79.5H466.142V80H462.158V79.5H450.207V80H446.223V79.5H434.272V80H430.288V79.5H418.337V80H414.353V79.5H402.401V80H398.418V79.5H386.466V80H382.483V79.5H370.531V80H366.548V79.5H354.596V80H350.613V79.5H338.661V80H334.677V79.5H322.726V80H318.742V79.5H306.791V80H302.807V79.5H290.856V80H286.872V79.5H274.921V80H270.937V79.5H258.986V80H255.002V79.5H243.051V80H239.067V79.5H227.116V80H223.132V79.5H211.181V80H207.197V79.5H195.245V80H191.262V79.5H179.31V80H175.327V79.5H163.375V80H159.392V79.5H147.44V80H143.456V79.5H131.505V80H127.521V79.5H115.57V80H111.586V79.5H99.6349V80H95.6512V79.5H83.6998V80H79.7161V79.5H67.7647V80H63.781V79.5H51.8297V80H47.8459V79.5H35.8946V80H31.9108V79.5H19.9595V80H15.9757V79.5H10Z" stroke="#91999E" stroke-dasharray="12 4"/>
</svg>
