<svg width="670" height="533" viewBox="0 0 670 533" fill="none" xmlns="http://www.w3.org/2000/svg">
<g opacity="0.8" clip-path="url(#clip0_3833_30608)">
<path d="M585.379 410.083C580.284 407.184 574.844 404.087 569.146 400.844L569.165 400.816L568.845 400.628L568.826 400.661C514.78 369.875 437.34 325.601 401.377 304.554L405.757 297.249L407.418 239.519L407.126 239.298C404.096 237.02 400.934 233.899 401.052 232.882C405.075 198.134 400.751 170.14 396.417 152.773C391.872 134.554 386.348 123.875 385.938 123.093C385.496 121.912 376.88 99.33 357.236 74.7007C345.439 59.9128 332.034 47.2804 317.381 37.1614C299.063 24.5008 278.746 15.7561 256.988 11.1578C254.781 10.6919 252.457 10.3718 250.019 10.2024V10C249.737 10 249.267 10.0377 248.645 10.1177C247.257 10.0518 245.832 10.0282 244.373 10.0565V10.0094C244.274 10.0094 244.053 10.0329 243.724 10.0753C234.586 10.32 224.098 12.325 212.358 16.1091C197.352 20.9427 180.677 28.5061 162.801 38.5781C132.404 55.7145 103.979 77.454 97.4813 86.2458C89.741 96.7178 86.4849 113.327 85.1109 125.414C83.4829 139.754 83.8499 153.497 84.8804 160.195C87.1342 174.842 90.4891 184.942 93.19 193.061C94.7287 197.692 96.0509 201.678 96.7661 205.401L96.6532 205.429C96.6579 205.453 96.7802 205.975 97.0296 206.912C97.2319 208.267 97.3448 209.59 97.3448 210.908C97.3354 211.016 97.2131 211.402 97.1096 211.741C96.5543 213.482 95.4015 217.106 95.7215 223.046C96.112 230.332 98.5824 238.704 103.067 247.939C111.47 265.24 127.826 277.26 127.986 277.378L128.061 277.435L141.443 282.602L164.876 302.76L164.947 302.812C165.041 302.873 174.376 309.091 187.476 316.489C219.726 334.708 274.421 365.569 278.416 367.569C283.456 370.087 301.708 376.168 308.192 376.168C308.559 376.168 308.893 376.149 309.18 376.107C313.669 375.467 329.399 372.765 333.078 371.24L512.964 477.42C512.249 483.369 519.057 516.832 519.867 520.781L520.121 522.014L579.168 466.995L579.361 466.816L585.728 410.935L586.015 410.446L585.379 410.083ZM316.558 38.2957C331.093 48.3347 344.395 60.8635 356.106 75.5337C376.057 100.535 384.55 123.39 384.635 123.62L384.677 123.715C384.734 123.818 390.408 134.483 395.067 153.168C402.854 184.41 401.857 213.67 399.654 232.718C399.617 233.047 399.692 233.41 399.847 233.796L399.254 232.92L296.546 302.417C295.403 300.897 291.798 296.788 283.978 292.877C281.479 291.629 273.89 289.902 271.692 289.417C271.772 287.958 271.89 286.32 272.022 284.461C273.273 267.057 275.602 234.69 256.852 196.656C258.023 196.059 263.383 196.247 272.807 197.216C274.308 197.372 275.038 197.447 275.315 197.447H275.744L275.941 197.066C276.115 196.727 276.134 196.694 274.045 191.329C272.916 188.434 271.081 183.873 268.747 178.583C264.667 169.34 258.334 156.232 251.299 146.268C243.465 135.165 256.541 121.182 257.308 120.378C259.233 118.923 319.108 73.9523 344.395 72.5498C345.971 72.4604 346.526 71.7215 346.714 71.119C348.493 65.4476 321.757 44.16 316.384 39.9524C310.949 35.6977 305.35 31.7489 300.865 28.7038C306.244 31.5983 311.481 34.7893 316.558 38.2957ZM248.396 143.816C243.07 136.963 235.414 127.969 225.448 118.744C214.489 108.602 193.965 91.2959 171.153 80.4991C187.297 64.6664 205.112 52.8812 221.044 44.353C227.288 47.7134 233.974 51.7328 241.07 56.4017C265.853 72.7145 287.954 91.936 291.516 95.0658C273.127 106.672 257.68 118.326 256.423 119.281L256.348 119.347C256.207 119.493 243.893 132.21 248.396 143.816ZM221.044 43.9341C220.225 43.4964 219.411 43.0634 218.611 42.6492C219.755 42.0421 220.884 41.4537 222.004 40.8796C222.808 41.2937 223.618 41.722 224.441 42.1597C223.317 42.7339 222.187 43.3269 221.044 43.9341ZM224.836 42.3715C231.142 45.7555 237.894 49.8078 245.065 54.5285C269.029 70.3001 290.485 88.792 295.097 92.8302C294 93.508 292.913 94.1857 291.836 94.8635C288.547 91.9642 266.276 72.5545 241.272 56.0958C234.252 51.474 227.631 47.4875 221.434 44.1412C222.583 43.534 223.712 42.9457 224.836 42.3715ZM218.207 42.4468C211.68 39.0817 205.657 36.4695 200.19 34.6434C196.002 33.2456 192.134 32.309 188.591 31.8336C189.65 31.2829 190.694 30.7417 191.73 30.2193C195.466 30.657 199.578 31.6218 204.067 33.1185C209.393 34.8975 215.256 37.4297 221.594 40.6772C220.479 41.2467 219.35 41.835 218.207 42.4468ZM187.956 31.7442C186.944 31.6218 185.965 31.5418 185.01 31.4947C186.017 30.9676 187.015 30.4546 187.998 29.951C188.986 29.9698 190.007 30.031 191.057 30.1392C190.036 30.6617 189 31.1982 187.956 31.7442ZM187.368 32.0548C170.777 40.8372 151.762 53.3848 134.32 70.8366C133.284 70.8272 132.259 70.846 131.247 70.8931C148.638 53.2436 167.718 40.6254 184.347 31.843C185.33 31.8713 186.332 31.9418 187.368 32.0548ZM188.022 32.1254C191.678 32.5772 195.696 33.5327 200.072 34.9917C205.46 36.7896 211.388 39.3593 217.811 42.6539C201.823 51.2057 183.928 63.0332 167.718 78.9413C165.643 78.0282 163.554 77.1716 161.451 76.3856C151.889 72.8181 143.015 70.9778 134.837 70.8413C152.355 53.3848 171.431 40.8654 188.022 32.1254ZM218.211 42.861C219.016 43.2799 219.835 43.7082 220.653 44.1459C204.716 52.6977 186.921 64.4969 170.795 80.3344C169.897 79.9108 168.993 79.5014 168.085 79.1013C184.314 63.2026 202.222 51.3892 218.211 42.861ZM284.373 20.9474C286.646 21.8652 288.9 22.8347 291.13 23.8513L291.06 23.9643C291.187 24.0443 303.759 31.8477 315.523 41.0537C335.939 57.0371 346.145 68.248 345.378 70.686C345.298 70.9496 344.941 71.1002 344.324 71.1331C332.227 71.8062 312.892 81.8687 295.431 92.6279C291.008 88.7497 269.415 70.1071 245.276 54.2226C238.181 49.5537 231.494 45.5296 225.241 42.1644C232.181 38.6157 238.684 35.6977 244.434 33.3397C266.051 24.482 282.877 21.1074 284.378 21.1074V20.9474H284.373ZM281.225 19.7237C282.138 20.072 283.051 20.4203 283.959 20.7827C281.169 21.1545 265.735 24.209 244.288 33.0008C238.468 35.387 231.876 38.3474 224.836 41.9573C224.018 41.5196 223.208 41.0913 222.404 40.6772C229.226 37.2038 235.616 34.3375 241.282 32.0172C262.898 23.1595 279.724 19.7849 281.225 19.7849V19.7237ZM256.701 12.5274C264.884 14.2547 272.864 16.5797 280.604 19.4837C277.315 19.9684 262.103 23.0795 241.145 31.6689C235.409 34.0174 228.925 36.9308 222.004 40.4654C215.557 37.152 209.6 34.5728 204.189 32.7655C199.893 31.33 195.936 30.384 192.322 29.918C198.138 27 203.592 24.562 208.481 22.5523C223.001 16.575 235.226 13.2051 242.651 11.5861C248.693 11.3084 253.323 11.812 256.701 12.5274ZM240.392 11.7226C232.84 13.497 221.529 16.7774 208.339 22.2087C203.305 24.2796 197.677 26.807 191.664 29.838C190.647 29.7204 189.654 29.6451 188.695 29.6074C194.477 26.7035 199.898 24.2796 204.768 22.2746C217.129 17.1916 227.655 14.0853 234.755 12.3297C236.746 12.052 238.623 11.8544 240.392 11.7226ZM230.812 12.9463C224.018 14.7912 215.035 17.6481 204.632 21.9263C199.583 24.0019 193.936 26.5387 187.918 29.5792C185.82 29.5415 183.857 29.6968 182.041 30.0451C202.566 20.0532 218.588 15.1066 230.812 12.9463ZM180.597 30.7558C182.606 30.224 184.808 29.9557 187.198 29.9463C186.229 30.4405 185.255 30.9441 184.267 31.4665C182.164 31.41 180.197 31.5418 178.371 31.8665C179.119 31.49 179.863 31.1229 180.597 30.7558ZM163.502 39.8065C166.721 37.9944 169.845 36.2907 172.88 34.6905L172.983 34.8034C173.143 34.6575 173.303 34.521 173.468 34.3845C174.701 33.7397 175.92 33.1091 177.119 32.4972C179.096 32.0266 181.255 31.8007 183.594 31.8195C166.984 40.6536 147.993 53.2954 130.701 70.9213C121.789 71.4296 113.776 74.0983 106.704 78.9319C118.039 68.9399 138.898 53.6766 163.502 39.8065ZM86.2779 159.978C86.0991 158.806 85.9391 157.413 85.8073 155.841H85.9485C85.9485 154.843 85.9391 153.846 85.9344 152.848C85.9014 148.268 85.8732 143.623 86.3861 138.79L86.4849 138.794C86.499 138.324 86.5225 137.872 86.5508 137.42C87.1342 132.864 88.2447 128.134 90.3339 123.136C93.8723 116.838 98.7753 114.706 100.272 114.179C101.495 115.728 106.073 121.507 107.174 122.886C101.815 126.322 97.2743 131.188 93.8064 137.335C88.2447 147.181 88.6964 165.937 90.3198 179.016C88.8423 173.608 87.4166 167.377 86.2779 159.978ZM97.1472 200.897H97.1425C96.4273 198.327 95.5239 195.602 94.531 192.613C94.1123 191.357 93.6794 190.048 93.2371 188.688L93.3641 188.66C90.6585 176.823 88.3717 149.822 95.0298 138.027C101.928 125.809 113.188 118.824 126.73 118.363C152.59 117.488 182.276 139.576 208.227 178.988C231.127 213.765 241.54 251.727 235.414 278.056C232.53 290.453 226.234 299.574 216.701 305.17C206.448 311.19 188.361 308.709 172.72 299.132C146.172 282.875 127.177 257.502 115.922 239.081C103.325 218.466 97.2931 201.683 97.1378 200.822C97.1472 200.855 97.1472 200.878 97.1472 200.897ZM214.706 186.697C216.983 187.144 222.62 188.462 226.3 189.347L226.93 189.498C228.662 190.66 234.595 195.88 240.444 207.655C246.015 218.862 252.452 238.351 251.483 267.551C250.424 299.4 230.855 310.183 228.916 310.328C227.834 310.079 222.498 307.608 218.517 305.702C227.773 299.856 233.922 290.679 236.783 278.376C242.51 253.817 234.078 219.375 214.706 186.697ZM128.739 276.178C127.553 275.293 112.289 263.71 104.328 247.313C101.777 242.065 94.0229 226.086 98.4506 212.16C98.4694 212.103 98.4788 212.061 98.4977 212.014C100.093 217.186 102.784 224.98 106.845 233.857C112.929 247.148 123.29 265.405 139.095 280.174L128.739 276.178ZM186.577 313.872L186.431 314.263C174.696 307.561 166.372 302.054 165.761 301.65L144.93 283.732L145.081 283.548C126.603 268.327 114.797 247.821 108.148 233.297C104.003 224.241 101.293 216.33 99.7305 211.209C102.822 218.255 107.706 228.265 114.388 239.265C125.77 258.006 145.005 283.812 171.991 300.332C182.131 306.54 193.311 309.82 202.862 309.82C208.292 309.82 213.195 308.756 217.087 306.573C219.049 307.519 227.184 311.42 228.681 311.717C228.737 311.731 228.803 311.736 228.874 311.736C229.998 311.736 232.647 310.291 235.24 308.234C238.284 305.82 242.684 301.471 246.349 294.458C250.354 286.801 252.556 277.759 252.89 267.593C253.84 238.916 247.676 219.535 242.34 208.324C236.487 196.03 229.702 189.38 227.335 188.086C227.133 187.973 226.69 187.733 226.276 187.883C223.693 187.267 214.748 185.139 213.769 185.125C212.367 182.805 210.913 180.499 209.403 178.202C183.683 139.143 154.195 116.918 128.217 116.918C127.704 116.918 127.191 116.928 126.678 116.947C119.507 117.191 112.957 119.201 107.306 122.787L108.28 122.011C107.024 120.443 101.067 112.913 101.067 112.913L100.78 112.551L100.333 112.668C100.187 112.706 96.8508 113.633 93.3077 117.027C101.368 102.667 114.552 94.4352 130.447 93.8516C161.281 92.722 196.896 119.286 228.182 166.746C255.793 208.639 268.399 254.175 261.072 285.591C257.675 300.167 250.274 310.879 239.079 317.435C227.885 324.001 210.217 322.801 186.577 313.872ZM308.973 374.7C304.315 375.368 284.609 369.08 279.042 366.294C275.212 364.378 224.055 335.523 191.518 317.144C202.994 321.045 212.988 323.003 221.444 323.003C228.718 323.003 234.854 321.554 239.804 318.654C251.346 311.896 258.969 300.878 262.456 285.911C269.862 254.132 257.186 208.173 229.368 165.97C197.809 118.095 161.742 91.3006 130.4 92.4443C113.955 93.0467 100.323 101.57 92.0184 116.443C90.795 118.631 89.7739 120.764 88.9129 122.849C87.5012 125.465 86.579 128.242 85.9908 130.944C86.1367 129.174 86.3061 127.376 86.5131 125.574C87.8636 113.657 91.0632 97.3109 98.6153 87.0883C99.6693 85.6622 101.481 83.7372 103.942 81.431C111.654 75.2608 120.594 71.8815 130.696 71.2979L130.772 71.3732C130.8 71.3449 130.828 71.3167 130.856 71.2884C131.934 71.2273 133.026 71.199 134.127 71.2037L134.301 71.3732C134.357 71.3167 134.414 71.2649 134.47 71.2084C142.704 71.2932 151.663 73.124 161.324 76.7339C163.37 77.4964 165.408 78.3341 167.431 79.219C167.356 79.2943 167.281 79.3649 167.21 79.4355L167.469 79.699C167.577 79.5908 167.69 79.4872 167.798 79.379C168.706 79.779 169.61 80.1885 170.513 80.6121C170.461 80.6639 170.41 80.7109 170.358 80.7627L170.617 81.0263C170.701 80.9415 170.786 80.8615 170.871 80.7768C193.687 91.5454 214.235 108.87 225.199 119.017C235.753 128.783 243.714 138.295 249.055 145.27C249.37 145.878 249.737 146.48 250.156 147.078C262.235 164.191 272.309 190.566 274.294 195.946C273.909 195.908 273.452 195.861 272.963 195.809C261.035 194.581 256.489 194.609 255.576 195.922C255.337 196.27 255.313 196.703 255.511 197.108C274.181 234.869 271.866 267.061 270.624 284.358C270.469 286.485 270.337 288.321 270.262 289.944L270.234 290.542L270.817 290.669C270.916 290.688 280.642 292.783 283.352 294.143C292.575 298.755 295.741 303.716 295.77 303.768L296.155 304.394L399.993 234.125C401.09 236.295 404.463 239.034 405.988 240.201L404.355 296.835L400.567 303.151L397.292 301.32C397.885 298.011 396.864 284.57 394.827 282.089C394.436 281.614 394.031 281.515 393.759 281.515C391.895 281.515 355.928 303.791 351.834 306.328C340.165 313.567 313.448 330.275 310.747 333.183C310.667 333.254 310.601 333.339 310.554 333.438L311.801 334.101L311.805 334.096C311.711 334.256 311.485 334.407 311.217 334.407C310.902 334.398 310.714 334.181 310.671 334.078C310.714 334.181 310.766 334.435 310.817 334.76L310.718 334.769L313.306 359.243L313.344 359.596L331.483 370.304C326.806 371.744 313.495 374.055 308.973 374.7ZM395.984 300.577L379.276 291.225C387.148 286.513 392.592 283.384 393.735 282.951C395.024 284.17 396.525 296.176 395.984 300.577ZM468.385 395.903L468.428 395.931H477.208C486.125 401.823 529.96 430.759 530.906 430.759C531.809 430.759 563.819 432.835 565.636 432.952L568.793 436.633C561.373 448.912 554.893 459.257 553.698 460.17C551.83 460.824 533.461 468.275 522.191 472.859L522.248 472.793L518.507 469.677L508.484 452.447L508.461 452.405L450.726 420.08L445.734 412.587L445.682 412.535C444.435 411.731 323.277 333.522 317.593 329.837C322.115 326.783 329.074 322.283 337.755 316.8L337.732 316.838L468.385 395.903ZM506.579 472.007L513.223 465.936L512.973 465.663L506.245 471.814L500.843 468.623L510.404 459.582L510.15 459.314L500.514 468.43L495.804 465.649L504.523 457.464L504.268 457.196L495.469 465.456L491.112 462.881L502.292 452.433L501.328 451.402L489.847 462.133L485.405 459.511L493.239 451.576L492.976 451.317L485.075 459.318L479.758 456.179L490.651 445.227L490.388 444.968L479.429 455.986L474.535 453.096L482.412 445.698L482.158 445.429L474.206 452.899L470.837 450.908L482.299 440.196L481.335 439.165L469.571 450.16L465.958 448.027L473.947 440.285L473.688 440.022L465.623 447.834L460.019 444.526L471.355 433.931L471.1 433.663L459.685 444.333L454.476 441.259L463.351 432.755L463.097 432.486L454.147 441.062L450.58 438.958L461.591 428.669L460.626 427.639L449.315 438.214L445.649 436.049L454.646 428.293L454.406 428.011L445.315 435.847L440.506 433.009L451.362 422.636L451.107 422.367L440.177 432.811L435.744 430.194L444.769 422.17L444.525 421.892L435.41 429.997L431.787 427.86L443.009 417.369L442.045 416.338L430.517 427.112L426.705 424.862L435.354 416.988L435.105 416.715L426.371 424.664L415.958 418.517L425.477 409.693L425.228 409.42L415.629 418.32L412.401 416.414L423.718 405.833L422.753 404.803L411.131 415.665L407.893 413.754L414.655 407.575L414.406 407.302L407.559 413.557L402.158 410.37L411.832 401.221L411.578 400.953L401.828 410.178L397.118 407.396L405.955 399.103L405.701 398.835L396.789 407.203L392.432 404.629L403.725 394.072L402.76 393.041L391.161 403.88L386.724 401.259L394.667 393.215L394.403 392.956L386.395 401.066L381.078 397.926L392.079 386.861L391.815 386.603L380.748 397.733L375.85 394.844L383.84 387.341L383.586 387.073L375.516 394.651L372.001 392.575L383.487 381.839L382.522 380.809L370.731 391.827L367.263 389.779L375.365 381.924L375.107 381.661L366.929 389.586L361.325 386.278L372.773 375.575L372.519 375.307L360.99 386.08L355.786 383.007L364.774 374.394L364.52 374.125L355.457 382.809L351.622 380.545L363.428 370.309L362.506 369.24L350.342 379.787L346.95 377.787L356.064 369.927L355.824 369.645L346.658 377.547L346.766 377.674L341.811 374.747L352.78 364.265L352.526 363.997L341.482 374.549L337.045 371.932L346.187 363.799L345.943 363.522L336.711 371.735L333.582 369.89L345.317 359.714L344.395 358.646L332.302 369.127L328.015 366.595L336.781 358.617L336.532 358.344L327.681 366.402L317.268 360.255L326.9 351.322L326.651 351.049L316.991 360.006L317.155 360.185L314.685 358.726L314.483 356.815L314.535 356.871L325.813 346.277L324.849 345.246L314.309 355.149L313.749 349.877L318.44 344.964L318.172 344.71L313.697 349.397L313.137 344.103L316.092 340.723L315.814 340.478L313.085 343.599L312.667 339.631L312.77 339.594L312.652 339.514L312.558 338.615C312.699 338.709 312.789 338.836 312.812 338.921C312.756 338.728 312.638 337.753 312.544 336.972C312.347 335.325 312.229 334.374 312.078 333.809C312.761 333.188 314.549 331.898 317.264 330.058C320.807 332.364 442.859 411.147 445.456 412.823L450.477 420.358L508.193 452.673L518.206 469.885L521.895 472.972C517.9 474.596 514.841 475.843 513.811 476.262L506.579 472.007ZM578.006 466.124L520.991 519.251C517.933 504.214 513.707 481.067 514.333 477.575C518.018 476.074 552.23 462.142 554.197 461.483C554.748 461.3 555.769 460.961 570.901 435.852C576.18 427.093 581.37 418.306 583.954 413.919L578.006 466.124ZM568.991 436.299L565.815 432.59L565.735 432.585C564.351 432.496 531.875 430.392 530.929 430.392C529.743 430.086 495.375 407.495 477.363 395.592L477.316 395.559H468.531L338.061 316.602C342.442 313.835 347.256 310.827 352.413 307.627C355.194 305.9 357.923 304.215 360.581 302.582L358.219 306.088L358.525 306.295L361.339 302.111C363.517 300.774 365.639 299.47 367.691 298.223L359.137 312.051L360.336 312.795L370.349 296.604C372.307 295.413 374.184 294.279 375.968 293.206L366.679 309.397L366.999 309.58L376.622 292.815C376.951 292.618 377.28 292.42 377.605 292.227L381.068 294.063L369.088 315.134L369.408 315.317L381.435 294.166C382.278 294.736 383.694 295.625 385.623 296.802L375.638 314.009L375.958 314.193L385.938 296.995C386.978 297.626 388.15 298.336 389.453 299.117L374.65 325.262L375.878 325.959L390.667 299.842C391.844 300.544 393.109 301.297 394.46 302.092L383.746 320.928L384.066 321.111L394.784 302.276C396.031 303.014 397.353 303.791 398.737 304.605L386.061 326.811L386.381 326.994L399.052 304.789C400.412 305.589 401.838 306.422 403.32 307.293L392.733 325.493L393.053 325.676L403.64 307.476C404.854 308.187 406.115 308.921 407.404 309.674L392.267 335.292L393.481 336.012L408.618 310.385C409.677 311.001 410.754 311.632 411.86 312.272L400.92 331.508L401.24 331.691L412.18 312.461C413.474 313.214 414.796 313.981 416.147 314.767L403.23 337.4L403.55 337.584L416.467 314.955C417.864 315.769 419.295 316.598 420.748 317.44L409.903 336.087L410.223 336.271L421.073 317.624C422.042 318.184 423.021 318.753 424.014 319.327L409.004 345.251L410.227 345.957L425.237 320.033C426.136 320.551 427.04 321.078 427.957 321.605L417.177 340.224L417.497 340.408L428.277 321.789C429.698 322.608 431.138 323.441 432.597 324.283L419.831 346.324L420.151 346.508L432.917 324.467C434.385 325.314 435.871 326.171 437.372 327.037L426.842 345.213L427.162 345.397L437.692 327.22C438.723 327.813 439.763 328.416 440.807 329.018L425.209 355.295L426.423 356.015L442.031 329.724C443.052 330.312 444.082 330.905 445.113 331.498L434.46 350.452L434.78 350.63L445.433 331.682C446.962 332.562 448.505 333.452 450.058 334.346L437.415 356.74L437.735 356.923L450.373 334.529C452.02 335.48 453.686 336.436 455.356 337.396L444.727 355.817L445.047 356.001L455.676 337.579C456.98 338.328 458.283 339.081 459.596 339.834L443.353 366.411L444.558 367.146L460.819 340.535C462.057 341.246 463.294 341.956 464.541 342.672L453.441 361.272L453.757 361.46L464.861 342.855C466.4 343.74 467.943 344.625 469.491 345.51L456.236 367.63L456.552 367.819L469.811 345.693C471.472 346.644 473.133 347.599 474.799 348.555L463.567 366.896L463.882 367.089L475.119 348.738C476.394 349.468 477.669 350.197 478.944 350.932L462.88 376.752L464.08 377.495L480.168 351.633C481.542 352.419 482.92 353.21 484.294 353.996L473.312 372.619L473.632 372.808L484.614 354.179C486.327 355.163 488.044 356.142 489.753 357.121L476.625 379.279L476.945 379.467L490.072 357.304C491.922 358.363 493.771 359.422 495.611 360.477L484.44 378.889L484.755 379.081L495.931 360.665C497.055 361.31 498.175 361.95 499.295 362.59L483.301 389.172L484.511 389.902L500.509 363.31L499.798 362.882C501.544 363.879 503.285 364.877 505.017 365.866L494.124 384.588L494.444 384.772L505.337 366.049C506.918 366.953 508.494 367.852 510.056 368.751L497.069 390.975L497.389 391.163L510.376 368.934C512.084 369.908 513.778 370.878 515.463 371.843L504.485 390.222L504.8 390.41L515.783 372.022C516.926 372.676 518.065 373.325 519.194 373.97L504.024 400.303L505.247 401.009L520.422 374.671C521.852 375.486 523.269 376.3 524.676 377.1L513.769 395.488L514.089 395.677L524.996 377.284C526.859 378.347 528.703 379.402 530.524 380.437L517.429 402.416L517.745 402.605L530.844 380.621C532.863 381.774 534.849 382.903 536.797 384.019L525.617 402.308L525.932 402.501L537.117 384.202C538.481 384.983 539.832 385.751 541.158 386.508L525.405 412.695L526.614 413.425L542.387 387.21C543.516 387.854 544.631 388.49 545.727 389.116L535.117 407.627L535.437 407.81L546.047 389.299C547.831 390.316 549.572 391.309 551.27 392.279L538.589 414.3L538.909 414.484L551.59 392.462C553.524 393.568 555.402 394.637 557.213 395.667L546.476 413.863L546.795 414.051L557.538 395.851C558.978 396.674 560.38 397.47 561.74 398.246L547.506 423.779L548.739 424.467L562.963 398.943C564.751 399.96 566.454 400.934 568.073 401.852L557.284 420.151L557.604 420.339L568.398 402.035C570.233 403.08 571.95 404.059 573.545 404.967L560.606 426.815L560.926 427.003L573.87 405.151C575.95 406.337 577.804 407.391 579.413 408.304L568.421 426.42L568.737 426.613L579.733 408.488C581.483 409.486 582.928 410.305 584.029 410.935C579.521 418.696 574.044 427.931 568.991 436.299Z" fill="#E9EEF1"/>
<path d="M276.82 160.355C276.797 160.369 276.773 160.383 276.75 160.397L276.891 160.637C279.239 169.801 286.297 186.777 293.99 204.549C294.974 206.827 295.863 208.884 296.55 210.498C296.795 212.235 297.392 214.334 298.555 216.857C302.639 225.705 304.361 230.614 306.257 247.233C308.549 267.273 307.678 275.703 307.669 275.783L307.655 275.91L307.688 276.032C307.716 276.15 308.436 278.931 310.647 279.877C311.127 280.084 311.635 280.183 312.167 280.183C313.071 280.183 314.045 279.887 315.075 279.298C319.922 276.526 389.523 230.788 394.031 227.828C394.798 227.654 396.595 226.557 396.595 220.095C396.595 213.562 395.377 192.345 395.202 189.342C396.224 188.462 399.423 185.601 400.087 183.605C400.275 183.045 400.618 182.005 392.902 166.393C389.147 158.797 385.255 151.365 385.218 151.29L384.959 150.796L384.418 150.932C384.023 151.031 382.235 152.015 379.44 153.643C378.781 150.561 376.146 142.013 373.144 133.725C370.523 126.501 365.643 114.061 362.406 111.925C361.889 111.581 361.413 111.501 360.995 111.68C356.915 113.431 352.285 115.417 277.112 160.185C276.265 156.834 276.082 154.58 276.905 154.076C298.63 140.776 356.27 106.103 362.025 105.448C370.034 104.526 383.336 150.504 383.472 150.965L383.825 150.862C383.279 148.974 370.546 105.062 362.246 105.062C362.157 105.062 362.072 105.067 361.983 105.077C355.08 105.867 277.493 153.281 276.712 153.756C275.776 154.33 275.903 156.688 276.82 160.355ZM384.267 152.523C390.05 163.598 398.826 181.191 398.731 183.196C398.172 184.782 395.146 187.549 394.021 188.49L393.749 188.716L393.767 189.074C393.767 189.084 393.772 189.145 393.777 189.248C386.446 193.851 314.412 239.015 310.454 239.679L310.516 240.041C314.562 239.368 385.124 195.117 393.8 189.672C393.871 190.891 394.04 193.856 394.238 197.522C388.841 201.739 318.209 245.247 314.407 246.682L314.539 247.026C318.303 245.604 387.443 203.029 394.266 197.965C394.393 200.323 394.53 202.94 394.657 205.556C388.883 209.995 318.665 253.243 314.873 254.678L315.004 255.022C318.759 253.601 387.585 211.228 394.68 205.999C394.953 211.67 395.184 217.262 395.184 220.085C395.184 225.616 393.861 226.373 393.716 226.439H393.565L393.386 226.557C392.647 227.042 319.244 275.288 314.379 278.07C313.146 278.776 312.078 278.945 311.212 278.578C309.847 277.999 309.231 276.248 309.095 275.797C309.207 274.592 309.847 266.129 307.669 247.073C305.749 230.252 303.999 225.263 299.844 216.264C296.145 208.248 298.625 205.01 298.945 204.639C321.168 190.82 377.877 155.738 384.267 152.523ZM361.136 112.014C361.437 111.887 361.785 111.953 362.199 112.226C364.533 113.765 368.297 121.446 372.796 133.848C376.005 142.701 378.522 151.064 379.105 153.836C361.347 164.205 305.42 198.948 298.117 203.49L298.009 203.575C297.9 203.674 296.211 205.33 296.428 209.275C295.887 208.013 295.2 206.422 294.329 204.408C289.238 192.642 280.015 171.321 277.206 160.557C352.445 115.742 357.066 113.76 361.136 112.014Z" fill="#E9EEF1"/>
<path d="M395.057 215.586L394.821 215.299C390.436 218.914 318.698 263.113 314.863 264.557L314.995 264.901C318.83 263.456 390.667 219.205 395.057 215.586Z" fill="#E9EEF1"/>
<path d="M533.253 456.019C537.774 456.019 542.16 454.494 544.155 452.226C545.002 451.266 545.378 450.202 545.246 449.152C545.223 448.978 545.232 448.686 545.242 448.38C545.256 447.957 545.27 447.477 545.218 447.067L545.185 447.072C545.195 446.959 545.199 446.851 545.199 446.738C545.199 443.001 539.911 439.965 533.408 439.965C526.905 439.965 521.616 443.006 521.616 446.738C521.616 446.804 521.621 446.87 521.626 446.936H521.616C521.607 447.058 521.593 447.241 521.574 447.458C521.527 447.966 521.461 448.663 521.461 449.251C521.466 452.979 526.754 456.019 533.253 456.019ZM533.413 440.328C539.708 440.328 544.832 443.199 544.832 446.733C544.832 450.268 539.708 453.139 533.413 453.139C527.117 453.139 521.993 450.268 521.993 446.733C521.993 443.199 527.112 440.328 533.413 440.328ZM521.884 448.159C523.028 451.214 527.761 453.506 533.413 453.506C538.97 453.506 543.642 451.284 544.879 448.305C544.879 448.324 544.879 448.347 544.879 448.366C544.87 448.705 544.861 448.997 544.889 449.199C545.011 450.155 544.672 451.091 543.887 451.981C541.953 454.174 537.685 455.647 533.257 455.647C526.961 455.647 521.837 452.776 521.837 449.242C521.833 448.903 521.856 448.522 521.884 448.159Z" fill="#E9EEF1"/>
<path d="M496.551 433.898C503.247 433.898 508.489 431.037 508.489 427.38C508.489 426.015 508.498 425.13 508.517 424.74H508.494C508.494 424.697 508.498 424.655 508.498 424.612C508.498 420.876 503.209 417.84 496.707 417.84C490.51 417.84 485.419 420.598 484.953 424.09C484.84 424.424 484.76 426.523 484.76 427.121C484.764 430.858 490.053 433.898 496.551 433.898ZM496.711 418.207C503.007 418.207 508.131 421.078 508.131 424.612C508.131 428.147 503.007 431.018 496.711 431.018C490.416 431.018 485.291 428.147 485.291 424.612C485.291 421.078 490.411 418.207 496.711 418.207ZM485.164 425.987C486.275 429.065 491.027 431.385 496.711 431.385C502.193 431.385 506.809 429.225 508.127 426.312C508.127 426.627 508.122 426.98 508.122 427.375C508.122 430.825 503.04 433.527 496.551 433.527C490.256 433.527 485.131 430.656 485.131 427.121C485.131 426.82 485.146 426.406 485.164 425.987Z" fill="#E9EEF1"/>
<path d="M445.62 409.01C446.603 409.599 449.168 409.839 450.847 409.839C451.506 409.839 452.024 409.801 452.264 409.735C454.358 411.618 458.032 412.874 462.206 412.874C468.911 412.874 473.969 410.145 473.969 406.521C473.969 406.342 474.007 405.932 474.045 405.504C474.101 404.873 474.162 404.224 474.144 403.922H474.139C474.148 403.814 474.153 403.701 474.153 403.588C474.153 400.36 470.2 397.653 464.93 396.98L464.968 396.924L424.864 372.384L424.766 372.464C424.173 372.925 410.179 383.76 408.984 384.95L408.918 385.016L408.927 385.106C409.003 385.718 439.954 405.612 445.62 409.01ZM473.598 406.521C473.598 409.933 468.699 412.503 462.206 412.503C455.91 412.503 450.786 409.632 450.786 406.097C450.786 405.645 450.791 405.311 450.81 404.944C451.906 408.031 456.668 410.361 462.361 410.361C467.711 410.361 472.233 408.304 473.673 405.494C473.631 405.946 473.598 406.332 473.598 406.521ZM473.781 403.593C473.781 407.123 468.657 409.999 462.361 409.999C456.066 409.999 450.941 407.128 450.941 403.593C450.941 400.058 456.066 397.187 462.361 397.187C468.657 397.187 473.781 400.058 473.781 403.593ZM424.888 372.831L464.225 396.905C463.618 396.849 462.997 396.82 462.361 396.82C455.859 396.82 450.57 399.861 450.57 403.593C450.57 403.654 450.574 403.715 450.579 403.772L450.542 403.767C450.424 404.821 450.414 405.245 450.414 406.102C450.414 407.306 450.97 408.441 451.934 409.424C450.909 409.504 447.135 409.49 445.808 408.695C437.771 403.871 411.459 386.73 409.379 385.082C411.167 383.463 423.632 373.805 424.888 372.831Z" fill="#E9EEF1"/>
<path d="M559.01 472.633L539.29 482.498L539.182 482.555L539.191 482.677C539.233 483.336 539.492 486.649 540.273 487.172C540.358 487.228 540.447 487.256 540.537 487.256C540.584 487.256 540.636 487.247 540.683 487.233C541.619 486.922 559.09 479.392 559.833 479.072L559.89 479.048L569.959 461.738L571.07 455.878L568.712 459.022L559.01 472.633ZM570.416 457.365L569.625 461.573L559.636 478.752C558.521 479.232 541.468 486.579 540.57 486.88C540.541 486.889 540.518 486.889 540.48 486.861C540.005 486.541 539.676 484.235 539.567 482.771L559.222 472.944L559.264 472.925L569.014 459.238L570.416 457.365Z" fill="#E9EEF1"/>
<path d="M431.833 410.833L420.932 421.25L421.188 421.519L432.09 411.102L431.833 410.833Z" fill="#E9EEF1"/>
<path d="M333.249 352.474L322.348 362.891L322.604 363.16L333.506 352.742L333.249 352.474Z" fill="#E9EEF1"/>
<path d="M143.796 241.975C142.012 241.975 140.022 241.439 137.848 240.371C127.877 235.471 123.05 223.837 123.892 206.719L126.24 159.056L133.072 162.412L133.063 162.567L130.733 209.868C130.211 220.518 132.696 226.82 138.558 229.701C140.812 230.807 142.577 230.948 143.97 230.129C146.214 228.807 147.461 224.985 147.781 218.448L150.129 170.789L156.909 174.121L156.9 174.277L154.571 221.577C154.058 232.035 151.733 238.554 147.668 240.949C146.515 241.637 145.221 241.975 143.796 241.975ZM126.673 159.799L124.362 206.747C123.53 223.662 128.263 235.146 138.055 239.956C141.815 241.801 144.972 242.004 147.433 240.554C151.352 238.243 153.597 231.856 154.105 221.563L156.425 174.413L150.567 171.533L148.256 218.48C147.927 225.187 146.605 229.136 144.214 230.543C142.699 231.438 140.728 231.296 138.361 230.134C132.31 227.159 129.741 220.716 130.277 209.853L132.597 162.703L126.673 159.799Z" fill="#E9EEF1"/>
<path d="M189.861 264.379L181.857 260.449L174.211 228.496L163.854 251.61L155.978 247.741L170.809 217.318L160.438 175.863L167.901 179.529L175.138 209.745L185.043 187.949L192.378 191.554L178.596 220.744L189.861 264.379ZM182.262 260.124L189.15 263.508L178.107 220.693L191.766 191.771L185.282 188.585L175.011 211.185L167.506 179.849L161.149 176.729L171.312 217.365L156.613 247.52L163.628 250.965L174.352 227.037L182.262 260.124Z" fill="#E9EEF1"/>
</g>
<defs>
<clipPath id="clip0_3833_30608">
<rect width="502" height="512" fill="white" transform="translate(84 10)"/>
</clipPath>
</defs>
</svg>
