<svg width="151" height="40" viewBox="0 0 151 40" fill="none" xmlns="http://www.w3.org/2000/svg">
<g clip-path="url(#clip0_1377_8874)">
<path d="M18.2331 36C27.9999 36 35.9174 28.0719 35.9174 18.2922C35.9174 8.51239 27.9999 0.58432 18.2331 0.58432C8.46633 0.58432 0.54879 8.51239 0.54879 18.2922C0.54879 28.0719 8.46633 36 18.2331 36Z" fill="#C95D3C"/>
<path d="M20.591 9.43823H12.0436V27.1461H15.5804V21.8337H20.591C24.01 21.8337 26.7805 19.0595 26.7805 15.636C26.7805 12.2125 24.01 9.43823 20.591 9.43823ZM20.591 18.2922H15.5804V12.9798H20.591C22.0559 12.9798 23.2437 14.1692 23.2437 15.636C23.2437 17.1028 22.0559 18.2922 20.591 18.2922Z" fill="#E9EEF1"/>
<path d="M47.7069 24.1948V12.3895H53.1228C55.6413 12.3895 57.0118 14.0939 57.0118 16.1274C57.0118 18.1446 55.6236 19.8475 53.1228 19.8475H50.1724V24.1948H47.7069ZM54.4962 16.1274C54.4962 15.1534 53.7491 14.5617 52.7765 14.5617H50.1724V17.6738H52.7765C53.7476 17.6753 54.4962 17.0836 54.4962 16.1274Z" fill="#C95D3C"/>
<path d="M58.5121 24.1948V15.5888H60.7167V16.7191C61.3254 15.9887 62.3496 15.3807 63.3915 15.3807V17.5366C63.2353 17.5012 63.0437 17.485 62.7828 17.485C62.0534 17.485 61.0807 17.9026 60.7152 18.4412V24.1963H58.5121V24.1948Z" fill="#C95D3C"/>
<path d="M64.227 19.7781C64.227 17.3964 65.8938 15.3792 68.6555 15.3792C71.4334 15.3792 73.1001 17.3964 73.1001 19.7781C73.1001 22.1598 71.4334 24.1948 68.6555 24.1948C65.8938 24.1948 64.227 22.1598 64.227 19.7781ZM70.8086 19.7781C70.8086 18.4737 70.0437 17.3433 68.6555 17.3433C67.282 17.3433 66.5186 18.4737 66.5186 19.7781C66.5186 21.1003 67.282 22.2292 68.6555 22.2292C70.0437 22.2292 70.8086 21.1003 70.8086 19.7781Z" fill="#C95D3C"/>
<path d="M80.5187 24.1948V22.908C79.8585 23.7432 78.9566 24.1948 77.9309 24.1948C75.8294 24.1948 74.2157 22.5951 74.2157 19.7781C74.2157 17.0482 75.797 15.3792 77.9309 15.3792C78.9213 15.3792 79.8585 15.7968 80.5187 16.666V12.3895H82.7411V24.1948H80.5187ZM80.5187 21.273V18.2995C80.1533 17.7432 79.3545 17.3433 78.625 17.3433C77.3577 17.3433 76.4897 18.3349 76.4897 19.7781C76.4897 21.239 77.3577 22.2292 78.625 22.2292C79.356 22.2292 80.1547 21.8293 80.5187 21.273Z" fill="#C95D3C"/>
<path d="M90.5958 24.1948V22.9257C90.0226 23.5514 89.016 24.1948 87.6455 24.1948C85.8049 24.1948 84.9369 23.1854 84.9369 21.5519V15.5887H87.1415V20.6827C87.1415 21.8485 87.7501 22.2307 88.6874 22.2307C89.5392 22.2307 90.2156 21.7614 90.5973 21.2744V15.5887H92.8034V24.1948H90.5958Z" fill="#C95D3C"/>
<path d="M94.4569 19.7781C94.4569 17.2046 96.3315 15.3792 98.9016 15.3792C100.621 15.3792 101.663 16.1274 102.219 16.8918L100.776 18.2479C100.377 17.6561 99.7696 17.3433 99.0062 17.3433C97.6681 17.3433 96.7308 18.3172 96.7308 19.7781C96.7308 21.239 97.6681 22.2292 99.0062 22.2292C99.7696 22.2292 100.378 21.8809 100.776 21.3069L102.219 22.663C101.663 23.4289 100.621 24.1933 98.9016 24.1933C96.3315 24.1948 94.4569 22.3694 94.4569 19.7781Z" fill="#C95D3C"/>
<path d="M104.114 21.8824V17.5189H102.726V15.5888H104.114V13.2941H106.32V15.5888H108.021V17.5189H106.32V21.2922C106.32 21.8308 106.597 22.2307 107.084 22.2307C107.414 22.2307 107.728 22.1082 107.847 21.9695L108.317 23.6562C107.987 23.9528 107.396 24.1963 106.476 24.1963C104.93 24.1948 104.114 23.395 104.114 21.8824Z" fill="#C95D3C"/>
<path d="M122.145 24.1948V19.1008H116.674V24.1948H114.21V12.3895H116.674V16.9449H122.145V12.3895H124.628V24.1948H122.145Z" fill="#C95D3C"/>
<path d="M132.518 24.1948V22.9257C131.945 23.5514 130.938 24.1948 129.568 24.1948C127.727 24.1948 126.859 23.1854 126.859 21.5519V15.5887H129.064V20.6827C129.064 21.8485 129.672 22.2307 130.61 22.2307C131.461 22.2307 132.138 21.7614 132.52 21.2744V15.5887H134.726V24.1948H132.518Z" fill="#C95D3C"/>
<path d="M142.576 24.1948V18.909C142.576 17.7432 141.969 17.3433 141.03 17.3433C140.162 17.3433 139.503 17.8303 139.12 18.3173V24.1948H136.916V15.5888H139.12V16.6675C139.66 16.0418 140.701 15.3807 142.056 15.3807C143.914 15.3807 144.798 16.424 144.798 18.0575V24.1948H142.576Z" fill="#C95D3C"/>
<path d="M147.426 21.8824V17.5189H146.038V15.5888H147.426V13.2941H149.632V15.5888H151.333V17.5189H149.632V21.2922C149.632 21.8308 149.909 22.2307 150.395 22.2307C150.725 22.2307 151.039 22.1082 151.16 21.9695L151.629 23.6562C151.299 23.9528 150.708 24.1963 149.788 24.1963C148.242 24.1948 147.426 23.395 147.426 21.8824Z" fill="#C95D3C"/>
</g>
<defs>
<clipPath id="clip0_1377_8874">
<rect width="151" height="40" fill="white"/>
</clipPath>
</defs>
</svg>
