<svg width="79" height="61" viewBox="0 0 79 61" fill="none" xmlns="http://www.w3.org/2000/svg">
<path d="M44.5078 0V61L61.3093 51.636L78.0028 61V0H44.5078Z" fill="#A89160"/>
<path d="M59.5517 42.1711C57.8519 42.1711 56.5687 41.7492 55.7022 40.9054C54.8356 40.051 54.4023 38.9066 54.4023 37.4722V30.8748H56.9353V37.5038C56.9353 38.3054 57.1687 38.9172 57.6353 39.3391C58.1019 39.761 58.7407 39.9719 59.5517 39.9719C60.3516 39.9719 60.9793 39.761 61.4348 39.3391C61.9014 38.9172 62.1347 38.3054 62.1347 37.5038V30.8748H64.6677V37.4722C64.6677 38.9066 64.24 40.051 63.3845 40.9054C62.5291 41.7492 61.2515 42.1711 59.5517 42.1711Z" fill="#E9EEF1"/>
<path d="M66.3331 30.8748H68.8661V41.9337H66.3331V30.8748Z" fill="#E9EEF1"/>
<path d="M0 0V60.9999L16.7693 51.6359L33.4308 60.9999V0H0Z" fill="#400835"/>
<path d="M8.36156 30.6624C8.4694 30.8764 8.57724 31.0905 8.63116 31.1975C8.79293 31.465 8.90077 31.7326 9.06253 32.0001L11.2733 36.3878C11.3272 36.4949 11.435 36.6554 11.3811 36.8159L8.25372 42.7019C8.1998 42.8624 8.03804 43.0229 8.30764 43.0229H10.1409C10.4105 43.0229 10.4105 42.8624 10.5723 42.5413L12.6752 38.1536C12.837 38.2606 14.5624 42.0062 14.9399 42.8089C14.9938 42.9694 15.0477 42.9694 15.2634 42.9694C15.5869 42.9694 17.2045 43.0229 17.3663 42.9159C17.4202 42.7554 17.0967 42.2738 16.9889 42.1133L16.18 40.5615C15.533 39.3308 14.7781 37.8326 14.1311 36.6554C14.0232 36.4413 14.0232 36.4413 14.3467 35.8527C14.5085 35.5852 14.6163 35.3177 14.7781 35.0501C14.886 34.7826 15.0477 34.5685 15.1556 34.301L16.3957 31.9466C16.5036 31.7326 17.0428 30.7694 17.1506 30.4484C17.2045 30.3414 16.9889 30.3414 16.881 30.3414H15.2634C15.1016 30.3414 15.0477 30.3949 14.9938 30.5019L13.3762 33.8729C13.3223 34.0335 12.8909 35.0501 12.7831 35.1036C12.6213 34.6756 12.4056 34.301 12.2438 33.8729L11.0576 31.4115C10.9497 31.1975 10.8958 30.9835 10.788 30.8229C10.7341 30.7159 10.6801 30.6089 10.6262 30.5019C10.5723 30.3414 10.5723 30.2878 10.3566 30.2878H8.4694C8.25372 30.3949 8.25372 30.3949 8.36156 30.6624Z" fill="#ED6CEF"/>
<path d="M19.9576 38.4759C19.9576 37.7267 20.0115 36.9776 20.4429 36.3355C20.5507 36.175 20.6586 36.0144 20.7664 35.9074C21.3056 35.4259 22.1683 35.1048 23.085 35.3723V41.1513C21.3056 41.7399 19.9576 40.6162 19.9576 38.4759ZM23.1389 33.5531H22.384C20.9282 33.5531 19.7419 34.2487 19.0949 34.8908C18.4478 35.5864 17.8008 36.8706 17.8008 38.2083C17.8008 39.7066 18.0704 40.8302 18.9331 41.7934C19.5262 42.489 20.6586 43.0776 22.0066 43.0776C22.7076 43.0776 23.2468 43.0241 23.9477 42.8636C24.2713 42.7565 25.0801 42.5425 25.2957 42.3285C25.2957 42.2215 25.2418 41.8469 25.2418 41.6329C25.2418 40.9373 25.2418 40.0276 25.2418 39.332V30.5566C25.2418 30.396 25.2418 30.3425 25.0801 30.3425H23.3007C23.0311 30.3425 23.1389 30.5031 23.1389 30.9846V33.5531Z" fill="#ED6CEF"/>
</svg>
