<svg width="120" height="40" viewBox="0 0 120 40" fill="none" xmlns="http://www.w3.org/2000/svg">
<path d="M28.5093 3.27856H33.3885V32.8692H28.5093V3.27856Z" fill="#E9EEF1"/>
<path d="M50.3588 23.4912C50.3588 28.0757 46.5402 28.4925 45.2674 28.4925C42.2974 28.4925 41.8731 25.7835 41.8731 24.3248V12.8636H36.9938V24.1164C36.9938 26.8254 37.8424 29.326 39.5395 30.7847C41.0245 32.2434 42.9338 32.8685 45.2674 32.8685C46.9645 32.8685 49.0859 32.4518 50.3588 31.2015V32.8685H55.238V12.8636H50.3588V23.4912Z" fill="#E9EEF1"/>
<path d="M64.7844 5.57077H59.9052V12.8642H56.2988V17.4487H59.9052V32.8692H64.7844V17.4487H68.3908V12.8642H64.7844V5.57077Z" fill="#E9EEF1"/>
<path d="M83.6656 26.8261C82.6048 27.6596 81.1199 28.2848 79.6349 28.2848C76.2406 28.2848 73.907 25.7841 73.907 22.45C73.907 19.1158 76.2406 16.8236 79.6349 16.8236C81.1199 16.8236 82.6048 17.2404 83.6656 18.2823L84.302 18.9074L87.6962 15.7817L86.8477 15.1565C84.9384 13.4894 82.3927 12.4475 79.6349 12.4475C73.6949 12.4475 69.2399 16.8236 69.2399 22.6584C69.2399 28.4932 73.6949 32.8692 79.6349 32.8692C82.3927 32.8692 84.9384 31.8273 86.8477 30.1602L87.6962 29.5351L84.302 26.2009L83.6656 26.8261Z" fill="#E9EEF1"/>
<path d="M104.879 14.5314C103.394 13.0727 101.909 12.4475 99.5751 12.4475C97.8779 12.4475 96.1808 12.8643 94.9079 14.1146V3.27856H90.0287V32.8692H94.9079V21.8248C94.9079 17.2404 98.0901 16.8236 99.3629 16.8236C102.333 16.8236 102.121 19.5326 102.121 20.9913V32.6609H107V21.1997C107 18.4907 106.364 15.9901 104.879 14.5314Z" fill="#E9EEF1"/>
<path d="M79.4217 25.9925C81.2963 25.9925 82.8159 24.4997 82.8159 22.6583C82.8159 20.8169 81.2963 19.3241 79.4217 19.3241C77.5471 19.3241 76.0274 20.8169 76.0274 22.6583C76.0274 24.4997 77.5471 25.9925 79.4217 25.9925Z" fill="#EF4335"/>
<path d="M21.7202 25.5758C20.0231 27.2428 17.4774 28.2848 14.7196 28.2848C9.41602 28.2848 5.59747 24.1171 5.59747 18.4907C5.59747 12.8643 9.41602 8.69658 14.9317 8.69658C17.4774 8.69658 20.0231 9.7385 21.9324 11.614L22.5688 12.2391L25.7509 9.11335L25.1145 8.48819C22.3567 5.77919 18.7502 4.32049 14.9317 4.32049C6.87032 4.11211 0.930359 10.3637 0.930359 18.4907C0.930359 26.6177 6.87032 32.8692 14.7196 32.8692C18.5381 32.8692 22.3567 31.4105 24.9024 28.7015L25.5388 28.0764L22.3567 24.9506L21.7202 25.5758Z" fill="#E9EEF1"/>
</svg>
