<svg width="186" height="74" viewBox="0 0 186 74" fill="none" xmlns="http://www.w3.org/2000/svg">
<path d="M50.4961 11.2969H58.3697V59.9079H50.4961V11.2969Z" fill="#E9EEF1"/>
<path d="M85.7544 44.5019C85.7544 52.0331 79.5924 52.7178 77.5384 52.7178C72.7458 52.7178 72.0611 48.2675 72.0611 45.8712V27.043H64.1875V45.5289C64.1875 49.9792 65.5568 54.0871 68.2955 56.4835C70.6918 58.8798 73.7728 59.9068 77.5384 59.9068C80.2771 59.9068 83.7004 59.2221 85.7544 57.1681V59.9068H93.628V27.043H85.7544V44.5019Z" fill="#E9EEF1"/>
<path d="M109.033 15.0625H101.159V27.0441H95.3398V34.5754H101.159V59.9079H109.033V34.5754H114.853V27.0441H109.033V15.0625Z" fill="#E9EEF1"/>
<path d="M139.501 49.9804C137.79 51.3497 135.393 52.3767 132.997 52.3767C127.52 52.3767 123.754 48.2687 123.754 42.7914C123.754 37.3141 127.52 33.5484 132.997 33.5484C135.393 33.5484 137.79 34.2331 139.501 35.9448L140.528 36.9718L146.006 31.8368L144.636 30.8098C141.555 28.0711 137.447 26.3595 132.997 26.3595C123.412 26.3595 116.223 33.5485 116.223 43.1337C116.223 52.719 123.412 59.908 132.997 59.908C137.447 59.908 141.555 58.1963 144.636 55.4577L146.006 54.4307L140.528 48.9534L139.501 49.9804Z" fill="#E9EEF1"/>
<path d="M173.733 29.7828C171.336 27.3864 168.94 26.3595 165.174 26.3595C162.436 26.3595 159.697 27.0441 157.643 29.0981V11.2969H149.77V59.9079H157.643V41.7644C157.643 34.2331 162.778 33.5484 164.832 33.5484C169.625 33.5484 169.282 37.9987 169.282 40.395V59.5656H177.156V40.7374C177.156 36.2871 176.129 32.1791 173.733 29.7828Z" fill="#E9EEF1"/>
<path d="M132.653 48.6109C135.678 48.6109 138.13 46.1586 138.13 43.1336C138.13 40.1085 135.678 37.6562 132.653 37.6562C129.628 37.6562 127.176 40.1085 127.176 43.1336C127.176 46.1586 129.628 48.6109 132.653 48.6109Z" fill="#EF4335"/>
<path d="M39.5407 47.9263C36.802 50.665 32.694 52.3767 28.2437 52.3767C19.6854 52.3767 13.5235 45.53 13.5235 36.2871C13.5235 27.0441 19.6854 20.1975 28.5861 20.1975C32.694 20.1975 36.802 21.9092 39.883 24.9902L40.91 26.0171L46.0449 20.8822L45.018 19.8552C40.5676 15.4049 34.748 13.0086 28.5861 13.0086C15.5775 12.6662 5.99219 22.9362 5.99219 36.2871C5.99219 49.638 15.5775 59.9079 28.2437 59.9079C34.4057 59.9079 40.5676 57.5116 44.6756 53.0613L45.7026 52.0343L40.5676 46.8994L39.5407 47.9263Z" fill="#E9EEF1"/>
</svg>
