<svg width="106" height="16" viewBox="0 0 106 16" fill="none" xmlns="http://www.w3.org/2000/svg">
<path d="M6.50133 5.61341C6.50133 5.61341 5.618 5.52402 5.618 6.31062V9.8324H11.4127V10.8872C11.4127 10.8872 11.4303 11.4056 10.8827 11.4056H5.618V15.9821H11.9427C11.9427 15.9821 15.7763 15.3922 15.8117 11.4056V5.61341H6.50133ZM15.635 0H4.22233C0.0883337 0.98324 0 4.41564 0 4.41564V16H4.38133V5.45251C4.38133 4.55866 5.26467 4.39776 5.26467 4.39776H15.6173L15.635 0ZM30.7047 12.6749C30.4043 12.8715 30.1747 13.0324 30.0157 13.1218C29.4503 13.4793 28.9203 13.7475 28.4257 13.962C27.7013 14.2659 27.0653 14.4089 26.4823 14.4089C24.5037 14.4089 22.8607 13.8011 21.5533 12.5676C20.2283 11.3341 19.5747 9.77877 19.5747 7.91955C19.5747 6.11397 20.1577 4.55866 21.359 3.21788C22.5427 1.89497 23.9913 1.23352 25.6873 1.23352C26.394 1.23352 27.1537 1.35866 27.931 1.60894C28.9557 1.93073 29.7683 2.43128 30.4397 3.05698L29.309 4.32626C28.832 3.84358 28.196 3.50391 27.4717 3.28938C26.924 3.12849 26.3233 3.03911 25.652 3.03911C24.4683 3.03911 23.4613 3.52179 22.6487 4.48715C21.8537 5.47039 21.4473 6.61452 21.4473 7.97318C21.4473 9.31397 21.9067 10.4223 22.8253 11.2983C23.744 12.1743 24.91 12.6212 26.3233 12.6212C26.9063 12.6212 27.507 12.4246 28.1253 12.067C28.6377 11.6737 28.9027 11.4771 28.9027 11.4771V8.68827H25.069L25.6167 6.95419H30.7047V12.6749ZM42.241 9.27822C42.241 10.619 41.764 11.781 40.8277 12.7642C39.8913 13.7475 38.7253 14.248 37.3297 14.248C36.04 14.248 34.927 13.7654 33.9553 12.8C32.9837 11.8346 32.5067 10.6726 32.5067 9.29609C32.5067 7.93743 32.966 6.77542 33.8847 5.7743C34.8033 4.77319 35.934 4.2905 37.2413 4.2905C38.7077 4.2905 39.8913 4.77318 40.8277 5.72067C41.764 6.65028 42.241 7.84805 42.241 9.27822ZM40.4567 9.31397C40.4567 8.40223 40.1563 7.63352 39.5557 7.00782C38.955 6.36425 38.213 6.06034 37.312 6.06034C36.4817 6.06034 35.775 6.38213 35.1743 7.04358C34.5913 7.68715 34.291 8.43799 34.291 9.27822C34.291 10.1542 34.5913 10.905 35.1743 11.5307C35.7573 12.1564 36.4993 12.4782 37.3827 12.4782C38.213 12.4782 38.9197 12.1743 39.5203 11.5486C40.1563 10.905 40.4567 10.1542 40.4567 9.31397ZM53.636 9.27822C53.636 10.619 53.159 11.781 52.2227 12.7642C51.2863 13.7475 50.1203 14.248 48.7247 14.248C47.435 14.248 46.322 13.7654 45.3503 12.8C44.3787 11.8346 43.9017 10.6726 43.9017 9.29609C43.9017 7.93743 44.361 6.77542 45.2797 5.7743C46.1983 4.77319 47.329 4.2905 48.6363 4.2905C50.1027 4.2905 51.2863 4.77318 52.2227 5.72067C53.159 6.65028 53.636 7.84805 53.636 9.27822ZM51.834 9.31397C51.834 8.40223 51.5337 7.63352 50.933 7.00782C50.3323 6.36425 49.5903 6.06034 48.6893 6.06034C47.859 6.06034 47.1523 6.38213 46.5517 7.04358C45.9687 7.68715 45.6683 8.43799 45.6683 9.27822C45.6683 10.1542 45.9687 10.905 46.5517 11.5307C47.1347 12.1564 47.8767 12.4782 48.76 12.4782C49.5903 12.4782 50.297 12.1743 50.8977 11.5486C51.5337 10.905 51.834 10.1542 51.834 9.31397ZM64.1653 13.9799L62.5223 14.2302V12.6212L62.169 13.0324C61.851 13.3363 61.4977 13.5687 61.1267 13.7654C60.5613 14.0335 59.9607 14.1587 59.3423 14.1587C58.0527 14.1587 56.9573 13.676 56.074 12.7285C55.1907 11.781 54.7313 10.619 54.7313 9.29609C54.7313 7.91955 55.173 6.73967 56.0563 5.7743C56.9397 4.79106 57.9997 4.30838 59.2893 4.30838C60.0313 4.30838 60.6673 4.43352 61.1973 4.66592C61.586 4.84469 61.904 5.07709 62.1867 5.36313C62.275 5.48827 62.3633 5.61341 62.4693 5.73855V1.50168L64.2183 1.2514L64.1653 13.9799ZM62.6283 9.40335C62.6283 8.45587 62.3103 7.6514 61.6743 7.00782C61.0383 6.34637 60.314 6.02458 59.4837 6.02458C58.565 6.02458 57.8407 6.32849 57.2753 6.95419C56.7453 7.54414 56.4803 8.27709 56.4803 9.13519C56.4803 10.1006 56.763 10.905 57.3107 11.5307C57.8583 12.1564 58.5473 12.4603 59.413 12.4603C60.2433 12.4603 60.9853 12.1743 61.639 11.5844C62.2927 10.9944 62.6283 10.2615 62.6283 9.40335ZM73.4227 3.25363H68.5113V6.6324H72.3273V8.36648H68.5113V13.962L66.6033 14.248V1.50168H73.0517L73.4227 3.25363ZM77.3623 2.27039L76.1787 3.77207L75.048 2.27039L76.2317 0.786591L77.3623 2.27039ZM77.009 13.9799L75.26 14.2302V4.79106L77.009 4.52291V13.9799ZM84.9237 4.41564L84.0933 6.34637C83.9873 6.32849 83.8813 6.32849 83.7577 6.32849C83.581 6.32849 83.422 6.34637 83.2453 6.36424C83.0687 6.38212 82.892 6.45363 82.6977 6.56089C82.3267 6.72179 82.0087 7.07933 81.7437 7.59776C81.4433 8.20559 81.2843 8.86704 81.2843 9.54637V13.962L79.5353 14.248V4.79106L81.1607 4.48715V6.45363C81.3727 6.11397 81.5847 5.7743 81.7967 5.41676C82.097 5.05922 82.4503 4.80894 82.839 4.64804C83.051 4.55866 83.422 4.50503 84.005 4.4514C84.5703 4.41564 84.8883 4.39777 84.9237 4.41564ZM97.997 13.9799L96.248 14.2302V7.75866C96.248 7.16872 96.1243 6.72179 95.8593 6.45363C95.5943 6.18547 95.2057 6.04246 94.6933 6.04246C94.075 6.04246 93.6157 6.29274 93.2977 6.81117C93.0857 7.16871 92.962 7.54414 92.962 7.91955V13.9441L91.213 14.2659V7.77653C91.213 7.20447 91.0893 6.77542 90.8243 6.47151C90.5593 6.1676 90.2237 6.02458 89.782 6.02458H89.6053C88.987 6.02458 88.5453 6.27486 88.2627 6.81117C88.0507 7.20447 87.9447 7.70503 87.9447 8.31285V13.9263L86.125 14.248V4.75531L87.768 4.46927V5.68492C87.9447 5.39888 88.139 5.16648 88.298 5.00558C88.775 4.55866 89.3227 4.34414 89.941 4.34414C90.63 4.34414 91.1423 4.4514 91.4957 4.6838C91.796 4.88045 92.0787 5.25587 92.379 5.79218C92.9797 4.82682 93.8277 4.34414 94.9583 4.34414C96.036 4.34414 96.831 4.6838 97.361 5.381C97.785 5.95307 97.997 6.7933 97.997 7.8838V13.9799ZM106 11.1196C106 11.9955 105.7 12.7106 105.099 13.2648C104.498 13.8369 103.739 14.105 102.82 14.105C102.131 14.105 101.513 13.9441 100.947 13.6223C100.382 13.3006 99.958 12.9251 99.693 12.4961L100.93 11.3877C101.018 11.5307 101.106 11.638 101.177 11.7095C101.636 12.1922 102.184 12.4246 102.82 12.4246C103.262 12.4246 103.615 12.2994 103.862 12.067C104.127 11.8346 104.251 11.5128 104.251 11.0838C104.251 10.6011 103.951 10.2793 103.35 10.1006C102.166 9.74302 101.513 9.52849 101.424 9.49274C100.877 9.2067 100.488 8.9028 100.241 8.56313C99.958 8.16984 99.8167 7.6514 99.8167 6.98994C99.8167 6.1676 100.117 5.50615 100.7 4.95196C101.283 4.41564 101.99 4.14749 102.802 4.14749C103.421 4.14749 103.986 4.2905 104.516 4.57654C105.046 4.86257 105.417 5.16648 105.647 5.50615L104.604 6.65028C104.445 6.48939 104.269 6.34637 104.092 6.22123C103.668 5.91732 103.262 5.7743 102.891 5.7743C102.52 5.7743 102.219 5.86369 101.99 6.02458C101.707 6.22123 101.566 6.52514 101.566 6.91844C101.566 7.29386 101.689 7.57989 101.972 7.75866C102.202 7.90168 102.696 8.06257 103.491 8.24134C104.269 8.43799 104.887 8.75978 105.311 9.22458C105.806 9.72514 106 10.333 106 11.1196Z" fill="#3A7AF3"/>
</svg>
