<svg width="87" height="34" viewBox="0 0 87 34" fill="none" xmlns="http://www.w3.org/2000/svg">
<path d="M23.6191 5.19043H27.302V27.5252H23.6191V5.19043Z" fill="#E9EEF1"/>
<path d="M40.1112 20.4469C40.1112 23.9073 37.229 24.2218 36.2683 24.2218C34.0266 24.2218 33.7063 22.1771 33.7063 21.0761V12.4253H30.0235V20.9188C30.0235 22.9635 30.664 24.851 31.945 25.952C33.0658 27.053 34.5069 27.5249 36.2683 27.5249C37.5493 27.5249 39.1505 27.2103 40.1112 26.2666V27.5249H43.7941V12.4253H40.1112V20.4469Z" fill="#E9EEF1"/>
<path d="M50.9997 6.92041H47.3169V12.4255H44.5948V15.8858H47.3169V27.5251H50.9997V15.8858H53.7218V12.4255H50.9997V6.92041Z" fill="#E9EEF1"/>
<path d="M65.2506 22.9637C64.45 23.5928 63.3292 24.0647 62.2083 24.0647C59.6464 24.0647 57.885 22.1772 57.885 19.6606C57.885 17.144 59.6464 15.4139 62.2083 15.4139C63.3292 15.4139 64.45 15.7284 65.2506 16.5149L65.731 16.9867L68.293 14.6274L67.6525 14.1556C66.2114 12.8973 64.2899 12.1108 62.2083 12.1108C57.7249 12.1108 54.3623 15.4139 54.3623 19.8179C54.3623 24.222 57.7249 27.525 62.2083 27.525C64.2899 27.525 66.2114 26.7386 67.6525 25.4803L68.293 25.0084L65.731 22.4918L65.2506 22.9637Z" fill="#E9EEF1"/>
<path d="M81.2624 13.6839C80.1415 12.5829 79.0206 12.1111 77.2593 12.1111C75.9783 12.1111 74.6973 12.4256 73.7366 13.3694V5.19043H70.0538V27.5252H73.7366V19.189C73.7366 15.7287 76.1384 15.4141 77.0992 15.4141C79.3409 15.4141 79.1808 17.4588 79.1808 18.5599V27.3679H82.8636V18.7171C82.8636 16.6724 82.3832 14.785 81.2624 13.6839Z" fill="#E9EEF1"/>
<path d="M62.0474 22.3345C63.4623 22.3345 64.6094 21.2077 64.6094 19.8179C64.6094 18.428 63.4623 17.3013 62.0474 17.3013C60.6325 17.3013 59.4855 18.428 59.4855 19.8179C59.4855 21.2077 60.6325 22.3345 62.0474 22.3345Z" fill="#EF4335"/>
<path d="M18.4948 22.0203C17.2138 23.2786 15.2924 24.065 13.2108 24.065C9.20771 24.065 6.3255 20.9193 6.3255 16.6725C6.3255 12.4257 9.20771 9.28 13.3709 9.28C15.2924 9.28 17.2138 10.0664 18.6549 11.482L19.1353 11.9539L21.5372 9.59457L21.0568 9.12271C18.9752 7.07798 16.2531 5.97696 13.3709 5.97696C7.28623 5.81968 2.8028 10.5383 2.8028 16.6725C2.8028 22.8067 7.28623 27.5253 13.2108 27.5253C16.093 27.5253 18.9752 26.4243 20.8967 24.3796L21.377 23.9077L18.9752 21.5484L18.4948 22.0203Z" fill="#E9EEF1"/>
</svg>
