<svg width="670" height="420" viewBox="0 0 670 420" fill="none" xmlns="http://www.w3.org/2000/svg">
<g opacity="0.8" clip-path="url(#clip0_4119_29440)">
<path d="M575.985 248.278L578 203.747L565.286 202.36C565.885 200.388 567.626 193.873 565.504 191.021C564.952 190.279 564.191 189.826 563.25 189.677L567.339 178.248L562.176 169.198L564.306 157.723L564.242 157.556C564.118 157.236 551.785 125.047 536.042 91.2789C514.858 45.8432 497.908 19.3408 485.669 12.5018C475.274 6.69159 395.212 6.32018 336.75 6.05123L329.541 6.01708C327.214 6.00427 324.908 6 322.607 6C243.764 6 182.102 12.4591 164.716 14.4869C161.906 14.8156 159.437 16.3824 157.944 18.7816L144.05 41.1173L161.73 51.393L164.349 47.2435L169.829 46.5134L172.284 41.5827L190.474 58.6803C223.444 89.6694 284.294 146.866 287.168 149.603C287.25 150.96 284.631 159.17 281.983 166.534L282.227 166.624C247.88 168.007 216.249 171.738 191.06 177.476C158.351 184.921 140.341 194.949 140.341 205.711C140.341 206.074 140.362 206.441 140.405 206.804C138.33 207.385 128.508 210.151 118.741 213.028C96.2993 219.641 96.0683 220.329 95.8758 220.875C95.7988 221.097 95.8373 221.336 95.9528 221.485C96.71 223.027 97.5228 243.71 97.1678 245.093C96.7314 246.4 92.4877 282.516 92.0043 286.631L92 297.091L92.2567 297.283C92.3166 297.325 98.1474 301.697 100.192 305.842C102.216 309.945 100.158 322.381 100.137 322.509L100.043 323.081L100.603 323.234C113.775 326.825 423.28 411.156 430.924 412.428C433.508 412.859 435.536 413.004 437.097 413.004C440.259 413.004 441.508 412.407 441.585 412.372L441.658 412.334L572.627 297.257L572.828 297.082L573.401 287.182L573.093 287.165C574.133 285.517 575.737 281.427 576.22 274.055L577.076 252.193C577.076 250.72 576.507 249.183 575.651 248.27L575.985 248.278ZM444.092 278.452L249.518 242.703C269.291 244.474 290.548 245.405 312.434 245.405C358.276 245.405 401.385 241.337 433.812 233.951C441.735 232.145 448.789 230.19 454.941 228.111L454.859 228.529L498.73 236.974L556.358 203.705L556.704 203.504L556.674 203.103C556.674 203.094 556.666 202.949 556.653 202.706L565.478 203.671C553.569 211.048 446.239 277.513 444.284 278.008C444.143 278.008 443.899 278.008 443.878 278.2C443.874 278.264 443.869 278.332 444.092 278.452ZM362.76 223.001L350.388 225.345V219.782L362.387 217.455L362.76 223.001ZM330.731 229.003L324.673 226.356V222.429L328.9 224.619L349.1 221.101V225.831L330.731 229.003ZM362.327 216.597L362.362 217.122L343.363 220.802L329.426 223.231C330.671 220.508 332.489 216.67 332.78 216.414C333.708 215.987 373.963 208.495 395.118 204.597L395.058 204.268C384.714 206.177 333.088 215.709 332.587 216.145C332.138 216.533 329.789 221.631 329.045 223.257L325.366 221.349L329.434 213.421C330.722 213.144 335.659 212.047 337.242 211.095L337.55 210.907V208.431L342.811 211.538L342.897 211.393L342.927 211.56L394.78 201.861C395.366 202.898 395.755 204.076 395.34 205.028C395.225 205.045 395.109 205.062 394.994 205.079L394.771 205.114L392.585 207.457C391.738 207.765 387.426 209.331 385.886 209.886C384.487 210.394 384.124 211.645 384.128 212.58L362.327 216.597ZM392.885 199.841L393.283 199.781C393.642 200.191 394.16 200.823 394.605 201.549L342.931 211.214L337.999 208.298C359.081 204.328 390.378 198.906 392.731 199.781L392.885 199.841ZM393.681 199.722L467.176 188.951C467.21 188.968 467.248 188.985 467.287 189.002L467.321 188.93L488.873 185.77C489.853 185.63 490.55 185.783 490.94 186.231C491.615 187.008 491.414 188.605 491.226 189.395C487.278 190.97 432.588 199.478 395.734 204.968C396.346 203.163 394.643 200.844 393.681 199.722ZM467.372 187.627C438.856 174.291 379.593 166.017 312.438 166.017C310.667 166.017 308.9 166.026 307.133 166.039L309.687 155.46L314.025 151.221V150.952C314.025 149.257 315.296 147.823 316.977 147.609C337.152 145.061 361.476 145.09 387.328 147.695C430.685 152.062 468.403 160.596 480.797 163.401C482.777 163.849 484.424 165.065 485.438 166.824C486.448 168.583 486.666 170.615 486.054 172.549L481.947 185.497L467.372 187.627ZM491.611 190.582L491.876 221.622L492.214 221.618L491.949 190.449C492.18 190.343 492.236 190.266 492.287 190.202L492.356 190.108L492.39 189.997C492.484 189.689 493.254 186.944 491.911 185.39C491.35 184.746 490.537 184.43 489.489 184.438L489.066 183.871C488.925 183.679 488.976 183.491 489.01 183.418C489.044 183.346 489.134 183.171 489.37 183.132L502.285 181.096C502.422 181.074 502.567 181.092 502.695 181.143L507.333 183.021C507.624 183.141 507.816 183.418 507.816 183.734V195.764L502.315 195.235V191.333H494.512V221.613H494.85V209.545C504.372 211.474 509.236 207.504 511.581 205.592C512.295 205.007 512.873 204.546 513.151 204.593C513.198 204.601 513.266 204.623 513.339 204.742C514.716 206.907 516.209 210.339 517.249 212.905L492.022 226.796L469.511 222.1C479.355 217.037 484.535 211.479 484.535 205.707C484.535 201.72 481.746 197.425 476.681 193.566C487.072 191.773 490.443 190.991 491.611 190.582ZM494.678 178.778C495.538 178.564 496.561 178.317 497.682 178.048L515.619 179.708L514.781 196.439L509.099 195.892V183.743C509.099 182.902 508.595 182.159 507.816 181.843L503.179 179.964C502.832 179.824 502.456 179.781 502.084 179.841L495.17 180.929L494.678 178.778ZM555.357 201.271L527.105 198.185L527.456 192.802H535.623V178.043L530.113 172.506L529.839 172.511C529.8 172.511 528.136 172.532 526.032 172.549L531.982 151.14L555.785 196.883C555.468 198.505 555.374 200.093 555.357 201.271ZM502.413 175.606L505.052 167.255L521.587 168.937L520.513 172.558C519.418 172.549 518.481 172.536 517.899 172.511C516.329 172.442 508.714 174.129 502.413 175.606ZM505.155 166.931L510.289 150.704L526.635 151.959L521.685 168.617L505.155 166.931ZM520.864 172.562L521.929 168.976L526.545 169.445L525.681 172.549C524.124 172.562 522.37 172.566 520.864 172.562ZM531.751 150.7L526.635 169.117L522.027 168.647L527.015 151.853L527.075 151.652L510.053 150.346L504.821 166.893L501.053 166.508L506.875 147.66L531.456 150.111L531.751 150.7ZM500.946 166.837L504.715 167.221L502.041 175.67L498.007 176.357L500.946 166.837ZM517.758 173.787C517.788 173.787 517.814 173.787 517.844 173.787C520.222 173.898 527.999 173.808 529.586 173.787L534.344 178.564V191.512H526.254L525.749 199.316L542.664 201.165C543.336 201.472 543.841 201.848 544.042 202.313C544.273 202.847 544.059 203.479 543.413 204.191C542.805 204.866 542.258 205.481 541.757 206.04C539.105 209.02 537.77 210.514 535.293 212.089C532.547 213.84 520.273 215.837 518.836 216.068C518.699 215.692 518.267 214.531 517.668 213.041L517.771 212.986L517.608 212.691L517.544 212.725C516.804 210.894 515.833 208.64 514.836 206.702H515.11V196.61L515.974 179.384L498.7 177.787C505.72 176.122 515.871 173.787 517.758 173.787ZM514.772 196.772V206.599C514.387 205.856 513.998 205.161 513.617 204.563C513.506 204.392 513.369 204.29 513.198 204.264C512.761 204.196 512.231 204.623 511.362 205.336C509.052 207.222 504.257 211.141 494.845 209.208V191.675H501.977V195.547L514.772 196.772ZM492.013 227.138L492.073 227.15L517.373 213.221C518.087 215.001 518.558 216.294 518.566 216.328L518.614 216.461L518.75 216.439C519.311 216.354 532.508 214.279 535.473 212.392C537.988 210.791 539.332 209.284 542.01 206.283C542.51 205.724 543.058 205.109 543.665 204.435C544.405 203.615 544.636 202.859 544.35 202.198C544.196 201.843 543.896 201.536 543.498 201.271L555.365 202.569C555.37 202.655 555.37 202.731 555.374 202.8L498.503 235.633L456.562 227.56C461.311 225.891 465.486 224.149 469.066 222.339L469.062 222.361L492.013 227.138ZM564.473 191.781C566.116 193.988 564.755 199.794 563.985 202.215L556.64 201.412C556.67 198.987 557.025 194.569 559.13 192.302C559.998 191.367 561.055 190.91 562.36 190.902H562.398C563.335 190.876 564.015 191.162 564.473 191.781ZM565.936 178.368L561.902 189.638C560.439 189.745 559.194 190.347 558.189 191.431C557.295 192.396 556.674 193.66 556.251 195.004L476.215 41.1856L485.438 14.7772C486.632 15.9427 487.748 17.4795 488.625 19.5287C492.385 28.2803 558.484 164.353 560.863 169.249L560.833 169.42L565.936 178.368ZM499.136 88.0173L256.222 78.7108C255.041 78.6638 253.942 78.16 253.133 77.2892C252.324 76.4183 251.901 75.287 251.948 74.1044L251.957 73.8824C252.004 72.7042 252.508 71.607 253.381 70.8002C254.254 69.9933 255.379 69.5664 256.572 69.6176L494.298 78.7236L499.136 88.0173ZM475.124 41.8687L480.206 51.6406C476.664 52.0547 466.915 51.5851 465.794 51.5296L461.443 41.5528L475.124 41.8687ZM562.98 157.842L560.965 168.694C556.319 159.131 492.616 27.9772 488.933 19.3963C488.026 17.2874 486.846 15.6694 485.554 14.4357L485.703 14.0045C513.993 31.2942 560.948 152.566 562.98 157.842ZM484.51 13.5349C484.33 13.394 484.15 13.2617 483.971 13.1379C484.185 13.219 484.381 13.3001 484.565 13.3812L484.51 13.5349ZM329.537 7.2978L336.745 7.33195C381.266 7.53686 444.203 7.83143 471.967 10.9222L184.964 13.6502C214.259 10.8753 266.822 6.99469 329.537 7.2978ZM159.031 19.4561C160.319 17.3856 162.445 16.0408 164.862 15.7591C168.46 15.3407 173.961 14.7302 181.11 14.0258L474.555 11.2339C477.926 11.6693 480.647 12.156 482.598 12.6982C483.192 13.0141 483.795 13.4026 484.394 13.8679L475.064 40.5837L365.266 38.0564L372.222 22.4999L371.683 22.2225C371.594 22.1755 369.446 21.1168 364.325 20.8862C349.079 20.1989 204.014 23.0208 173.067 23.8234C169.833 23.9087 167.613 25.7231 167.519 25.7999L167.446 25.8597L158.595 39.3201L146.437 39.7L159.031 19.4561ZM161.303 49.664L158.381 47.9607L162.706 47.4398L161.303 49.664ZM163.66 46.9873L157.902 47.6832L146.411 40.9893L159.305 40.588L159.408 40.43L169.097 46.3299L163.66 46.9873ZM159.591 40.1483L166.445 29.7275L174.992 35.5718L169.533 46.2018L159.591 40.1483ZM286.082 158.512C288.982 149.603 288.55 149.172 288.169 148.792C287.592 148.215 237.891 101.495 191.351 57.7454L172.875 40.43L175.356 35.5974L175.428 35.4608L175.3 35.384L166.624 29.4543L168.413 26.7391C168.785 26.4574 170.62 25.1724 173.101 25.1083C204.039 24.31 349.049 21.4882 364.265 22.1712C367.632 22.3206 369.63 22.8457 370.528 23.1488L363.307 39.2945L461.071 41.5443L465.524 51.7559L465.567 51.8498L465.67 51.854C466.003 51.8711 471.295 52.1443 475.693 52.1443C477.567 52.1443 479.278 52.0931 480.369 51.9565L494.118 78.382L256.581 69.2804C255.31 69.2334 254.091 69.6817 253.15 70.5526C252.209 71.4235 251.666 72.5974 251.614 73.8696L251.606 74.0916C251.559 75.3595 252.008 76.5762 252.881 77.5154C253.753 78.4546 254.93 78.9968 256.205 79.048L499.307 88.3631L531.255 149.761L506.755 147.319L506.618 147.306L497.596 176.519L497.519 176.771C495.641 177.224 494.251 177.565 493.754 177.689L493.908 178.312L493.284 178.453L493.896 181.13L489.164 181.877C488.552 181.975 488.052 182.372 487.817 182.944C487.59 183.504 487.663 184.118 488.009 184.609L483.35 185.292L487.269 172.938C487.983 170.692 487.718 168.233 486.542 166.188C485.37 164.143 483.376 162.675 481.07 162.154C468.656 159.345 430.886 150.802 387.448 146.422C361.506 143.81 337.079 143.78 316.81 146.341C314.581 146.623 312.874 148.463 312.742 150.679L308.515 154.807L305.799 166.052C298.205 166.116 290.698 166.291 283.314 166.577C283.729 165.441 284.948 161.996 286.082 158.512ZM191.342 178.718C223.679 171.354 266.686 167.298 312.438 167.298C378.032 167.298 436.028 175.192 465.028 187.973L392.988 198.531C388.252 197.557 342.114 206.219 336.792 207.222L336.271 207.321V208.917C329.122 209.566 321.533 209.899 313.704 209.899C279.113 209.899 255.875 203.696 255.875 197.899C255.875 194.932 261.928 191.824 272.071 189.587C282.471 187.294 296.327 185.997 311.232 185.907C310.556 187.666 310.179 189.869 310.179 192.225C310.179 194.475 310.517 196.597 311.163 198.36L311.309 198.757L318.53 199.133L318.71 198.736C319.604 196.763 320.019 194.693 320.019 192.225C320.019 189.83 319.629 187.662 318.975 185.95C351.474 186.573 371.538 192.597 371.538 197.899C371.538 198.381 371.371 198.881 371.037 199.376L372.103 200.089C372.582 199.38 372.821 198.642 372.821 197.899C372.821 189.886 344.865 185.117 318.38 184.66C317.516 183.089 316.37 182.146 315.099 182.146C313.961 182.146 312.909 182.863 312.057 184.225C311.98 184.349 311.908 184.49 311.835 184.622C279.13 184.737 254.596 190.407 254.596 197.899C254.596 206.211 284.653 211.18 313.709 211.18C321.486 211.18 329.024 210.855 336.138 210.215C334.427 210.979 330.418 211.906 328.878 212.226L328.579 212.29L323.651 221.895L324.344 222.254V226.574L330.585 229.302C330.726 229.669 331.505 231.885 330.559 234.28C330.44 234.583 330.376 234.779 330.354 234.912C288.084 236.171 248.513 233.827 218.08 228.226C185.499 222.228 167.317 213.229 166.885 202.894L166.547 202.906C166.988 213.413 185.268 222.523 218.02 228.555C243.11 233.174 274.407 235.582 308.306 235.582C315.612 235.582 323.043 235.467 330.551 235.24L330.577 235.249C330.581 235.249 330.589 235.24 330.598 235.236C333.61 235.146 336.63 235.044 339.663 234.916L339.65 234.579C336.745 234.698 333.853 234.805 330.97 234.895C331.83 233.853 333.584 230.732 334.144 229.234L333.828 229.114C333.19 230.818 331.522 233.618 330.795 234.587C330.816 234.532 330.838 234.472 330.867 234.399C331.792 232.064 331.171 229.942 330.94 229.302L349.104 226.164V226.886L364.111 224.043L363.684 217.643L384.941 213.724L385.582 213.6L385.454 212.96C385.424 212.811 385.193 211.492 386.327 211.077C388.038 210.458 393.171 208.593 393.171 208.593L393.317 208.542L395.409 206.3C397.886 205.929 420.537 202.548 443.052 199.022C458.081 196.665 468.489 194.966 475.71 193.728L475.376 194.18C480.382 197.843 483.252 202.044 483.252 205.703C483.252 215.658 465.131 225.494 433.534 232.692C401.197 240.056 358.191 244.111 312.438 244.111C266.686 244.111 223.684 240.056 191.342 232.692C159.745 225.503 141.624 215.662 141.624 205.711C141.624 195.76 159.745 185.916 191.342 178.718ZM312.849 185.903V185.425C312.943 185.245 313.037 185.07 313.14 184.908C313.739 183.956 314.432 183.431 315.095 183.431C316.814 183.431 318.731 187.047 318.731 192.23C318.731 194.343 318.406 196.131 317.709 197.813L312.228 197.527C311.732 195.995 311.458 194.134 311.458 192.225C311.458 189.835 311.882 187.563 312.618 185.898C312.695 185.903 312.772 185.903 312.849 185.903ZM140.632 208.068C142.403 215.244 152.251 222.028 169.166 227.851L114.784 217.946L141.03 210.706L140.94 210.382L113.283 218.01L169.572 228.26L169.619 228C175.843 230.122 183.005 232.111 191.06 233.947C207.248 237.635 226.096 240.496 246.618 242.434L246.605 242.506L447.245 279.37L447.313 279.387L568.867 204.46L568.691 204.174L447.253 279.028C446.179 278.768 445.033 278.452 444.485 278.26C449.739 275.75 551.036 213.011 566.022 203.726L576.186 204.836L445.953 286.542L437.05 286.546L97.51 221.165C101.493 219.3 124.722 212.52 140.632 208.068ZM98.3827 245.499C98.5752 244.918 98.5153 239.71 98.2886 234.216L425.333 301.458C427.498 301.889 428.978 303.866 428.777 306.064L423.164 366.446L421.188 370.98L421.235 370.8L93.2834 287.127V287.041L422.338 368.098L422.42 367.774L93.2877 286.695C95.1614 270.721 98.0576 246.63 98.3827 245.499ZM201.507 325.557C201.614 326.329 202.08 328.285 202.101 328.37L202.123 328.464L211.564 331.124C211.735 332.199 211.915 333.262 211.996 333.745L199.085 329.933L197.768 324.571L201.507 325.557ZM201.858 325.651L211.496 328.182L211.183 328.161C211.162 328.447 211.32 329.574 211.504 330.761L202.401 328.195C202.315 327.811 201.977 326.372 201.858 325.651ZM197.4 324.477L198.807 330.206L212.42 334.223L212.373 333.958C212.125 332.528 211.487 328.712 211.517 328.191L314.787 355.338L306.261 365.157L175.309 330.961L166.085 316.25L197.4 324.477ZM93.8737 296.92C93.6299 296.723 93.4288 296.565 93.2834 296.45V287.472L421.124 371.116L421.034 371.321L421.017 371.355L421.436 383.023L93.8737 296.92ZM421.359 371.419L423.481 366.553L423.489 366.527L429.11 306.094C429.329 303.729 427.733 301.594 425.401 301.129L126.301 239.633L430.993 298.64C432.054 298.845 432.841 299.319 433.333 300.045C434.167 301.287 433.859 302.879 433.85 302.922L430.449 396.291L424.751 386.246L421.774 383.168L421.359 371.419ZM433.778 411.523C434.09 400.598 438.419 288.326 438.466 287.144L438.128 287.131C437.944 291.951 433.756 400.496 433.44 411.489C432.73 411.408 431.96 411.301 431.13 411.16C423.699 409.922 116.632 326.27 101.493 322.146C101.891 319.567 103.311 309.257 101.343 305.274C99.8072 302.162 96.4405 299.059 94.4898 297.428L165.611 316.122L175.095 331.252L306.278 365.507L306.381 365.532L315.15 355.432L421.526 383.394L424.473 386.434L430.745 397.491L434.184 302.965C434.197 302.892 434.526 301.223 433.615 299.861C433.076 299.054 432.216 298.534 431.061 298.312L98.2757 233.866C98.0576 228.717 97.6897 223.398 97.249 221.46L437.016 286.875H445.824L441.153 411.062L440.948 411.241C440.571 411.386 438.526 412.031 433.778 411.523ZM441.499 410.755L446.162 286.802L455.095 281.197C455.497 287.481 451.771 392.269 451.42 402.037L441.499 410.755ZM451.771 401.734C452.211 389.392 455.899 285.739 455.416 281L576.661 204.934L574.732 247.587C574.68 247.565 574.629 247.535 574.573 247.518C574.501 247.352 574.424 247.189 574.342 247.036C574.167 245.192 573.012 242.771 570.997 241.503C569.769 240.73 567.716 240.094 564.905 241.439C559.973 243.8 553.894 247.851 547.455 252.146C545.18 253.666 542.822 255.237 540.418 256.799C533.377 261.38 532.205 272.975 531.43 280.646C531.259 282.32 531.114 283.767 530.93 284.911L529.916 310.978C530.177 313.859 531.879 316.306 534.254 317.211C534.878 317.45 535.516 317.565 536.145 317.565C537.488 317.565 538.797 317.031 539.909 315.994L545.274 310.846L545.222 310.79C545.637 310.589 546.035 310.325 546.412 309.996L553.701 303.571L572.054 287.955C572.058 287.959 572.062 287.959 572.066 287.963L571.575 296.467L451.771 401.734ZM539.332 284.834L538.082 305.915C538.309 308.254 539.644 310.184 541.56 310.948C542.104 311.161 542.66 311.268 543.212 311.268C543.503 311.268 543.789 311.238 544.076 311.179C542.711 311.947 541.146 312.049 539.648 311.447C537.586 310.619 536.162 308.66 535.935 306.363L537.317 283.489C537.022 279.353 539.931 265.06 547.113 260.594C550.001 258.801 552.773 257.017 555.459 255.288C560.448 252.078 565.162 249.042 570.141 246.233C571.232 245.618 572.028 245.431 572.648 245.648C573.153 245.823 573.577 246.272 574.017 247.121C574.026 247.215 574.026 247.305 574.03 247.394C573.666 247.365 573.294 247.424 572.918 247.587C568.952 249.29 564.661 252.274 559.69 255.723C555.999 258.285 552.183 260.936 547.952 263.455C541.158 267.506 539.066 281.094 539.332 284.834ZM536.983 283.498L535.601 306.376C535.845 308.822 537.347 310.888 539.524 311.763C540.213 312.041 540.914 312.177 541.608 312.177C542.433 312.177 543.242 311.981 544.003 311.601L539.678 315.751C538.147 317.177 536.213 317.595 534.378 316.895C532.123 316.032 530.502 313.697 530.254 310.969L531.263 284.945C531.447 283.81 531.597 282.362 531.764 280.68C532.53 273.073 533.693 261.572 540.602 257.081C543.011 255.514 545.364 253.943 547.644 252.423C554.073 248.137 560.144 244.09 565.055 241.742C567.173 240.73 569.166 240.747 570.822 241.785C572.404 242.78 573.482 244.624 573.872 246.25C573.564 245.828 573.204 245.499 572.76 245.345C572.041 245.098 571.155 245.29 569.975 245.956C564.986 248.769 560.272 251.809 555.276 255.019C552.593 256.744 549.817 258.532 546.934 260.321C539.285 265.073 536.714 279.724 536.983 283.498ZM572.024 287.541L568.191 290.802L572.071 287.383C572.049 287.438 572.036 287.489 572.024 287.541ZM575.262 248.338C576.143 249.162 576.738 250.707 576.738 252.18L575.882 274.029C575.425 281.005 573.932 285.03 572.969 286.738L572.648 287.011C572.635 287.024 572.618 287.033 572.605 287.05L572.588 287.067C572.635 286.981 572.687 286.883 572.751 286.781L573.298 285.859L553.483 303.323L545.043 310.508C543.965 311.025 542.793 311.085 541.685 310.645C539.884 309.928 538.63 308.109 538.416 305.919L539.665 284.843C539.404 281.129 541.453 267.728 548.123 263.762C552.362 261.239 556.182 258.584 559.879 256.018C564.832 252.577 569.115 249.601 573.05 247.911C573.337 247.787 573.607 247.736 573.855 247.736C574.021 247.736 574.18 247.762 574.329 247.804C574.377 247.915 574.428 248.026 574.475 248.146L574.71 248.052L574.702 248.231L575.147 248.252C575.189 248.27 575.228 248.304 575.262 248.338Z" fill="#E9EEF1"/>
<path d="M486.16 192.102L485.822 192.105L486.055 221.032L486.393 221.029L486.16 192.102Z" fill="#E9EEF1"/>
<path d="M216.86 311.686L255.956 320.541C256.606 320.69 257.265 320.763 257.924 320.763C259.811 320.763 261.663 320.161 263.203 319.021C265.282 317.484 266.583 315.123 266.771 312.545L268.55 287.929C268.846 283.856 266.044 280.159 262.039 279.331L224.402 271.562C222.229 271.113 220.017 271.553 218.182 272.8C216.347 274.046 215.128 275.937 214.747 278.123L210.567 302.273C209.823 306.585 212.586 310.717 216.86 311.686ZM210.901 302.329L215.085 278.174C215.448 276.082 216.616 274.268 218.374 273.073C219.684 272.181 221.194 271.719 222.738 271.719C223.268 271.719 223.803 271.775 224.338 271.886L261.975 279.656C265.817 280.45 268.503 283.993 268.221 287.899L266.441 312.515C266.262 314.995 265.013 317.266 263.011 318.748C261.008 320.229 258.467 320.758 256.038 320.212L216.941 311.358C212.835 310.431 210.182 306.465 210.901 302.329Z" fill="#E9EEF1"/>
<path d="M527.426 270.264C526.712 269.871 525.912 269.944 525.043 270.494L469.246 311.392C465.862 313.578 465.901 315.631 465.939 317.437C465.944 317.629 465.948 317.817 465.948 318.005L465.52 374.826C465.52 376.226 465.52 378.835 466.773 379.441C466.953 379.526 467.15 379.573 467.36 379.573C467.933 379.573 468.622 379.249 469.451 378.596L524.153 329.608L524.162 329.6C527.097 326.564 527.738 321.138 527.738 319.311L529.403 274.584C529.398 273.235 528.787 271.011 527.426 270.264ZM469.233 378.331C468.232 379.121 467.454 379.39 466.919 379.134C465.854 378.617 465.854 376.056 465.854 374.822L466.281 318C466.281 317.808 466.277 317.621 466.273 317.428C466.239 315.623 466.2 313.757 469.434 311.665L525.232 270.772C525.672 270.494 526.087 270.358 526.481 270.358C526.754 270.358 527.015 270.426 527.264 270.563C528.196 271.075 528.748 272.42 528.962 273.572L528.876 273.457L473.935 313.928C470.551 316.114 470.589 318.163 470.628 319.973C470.632 320.165 470.636 320.353 470.636 320.541L470.209 377.358H470.333L469.233 378.331ZM527.396 319.294C527.396 321.091 526.772 326.398 523.918 329.352L470.542 377.161L470.97 320.532C470.97 320.34 470.966 320.152 470.962 319.96C470.927 318.154 470.889 316.289 474.123 314.197L528.996 273.781C529.039 274.068 529.06 274.336 529.06 274.571L527.396 319.294Z" fill="#E9EEF1"/>
<path d="M524.675 286.328C524.376 286.179 524.115 286.17 523.944 286.307L477.451 322.022C475.736 323.375 474.709 325.437 474.636 327.674C474.538 330.637 474.457 335.008 474.371 339.632C474.247 346.33 474.106 353.925 473.888 358.689C473.849 359.513 474.277 360.239 475.004 360.58C475.257 360.7 475.526 360.759 475.787 360.759C476.236 360.759 476.677 360.593 477.032 360.268L496.462 343.111L522.511 320.348C523.837 319.187 524.628 317.514 524.68 315.755L525.428 290.256C525.433 290.175 525.411 290.098 525.386 290.025L525.467 287.319C525.475 286.951 525.069 286.529 524.675 286.328ZM476.805 360.017C476.335 360.443 475.71 360.542 475.145 360.277C474.542 359.995 474.191 359.393 474.221 358.706C474.439 353.937 474.581 346.343 474.705 339.64C474.79 335.017 474.872 330.65 474.97 327.687C475.038 325.548 476.018 323.58 477.657 322.287L524.149 286.572C524.171 286.554 524.205 286.546 524.243 286.546C524.316 286.546 524.414 286.576 524.521 286.627C524.838 286.785 525.133 287.114 525.129 287.302L525.056 289.658C524.842 289.556 524.59 289.581 524.397 289.726L481.109 322.893C479.556 324.067 478.623 325.843 478.533 327.781L478.461 327.836L478.525 327.922C478.298 334.552 477.785 348.823 477.451 355.786C477.417 356.499 477.793 357.131 478.439 357.442C478.688 357.562 478.948 357.622 479.205 357.622C479.325 357.622 479.445 357.605 479.56 357.579L476.805 360.017ZM480.129 356.934C479.697 357.314 479.102 357.395 478.585 357.143C478.067 356.892 477.759 356.379 477.789 355.807C478.123 348.84 478.636 334.569 478.863 327.939C479.081 327.811 479.492 327.529 480.296 326.97L488.146 321.531L488.163 341.416L511.17 323.239L511.457 326.214L511.696 326.035C512.085 325.74 521.133 318.918 522.485 317.761L522.429 319.379L522.767 319.392L523.726 290.828L523.537 290.824L524.607 290.004C524.663 289.961 524.722 289.94 524.787 289.94C524.834 289.94 524.881 289.953 524.928 289.974C524.979 290 525.022 290.038 525.048 290.085L524.316 313.847C524.282 315.136 524.029 318.282 522.489 319.682L496.248 342.855L480.129 356.934ZM522.489 317.638L522.322 317.45C521.3 318.355 513.236 324.447 511.735 325.578L511.448 322.585L488.501 340.716L488.484 320.882L488.219 321.066C488.133 321.125 480.489 326.423 478.893 327.525C479.047 325.791 479.911 324.212 481.314 323.153L523.383 290.922L522.489 317.638Z" fill="#E9EEF1"/>
<path d="M556.833 239.488C557.569 239.488 557.967 238.118 557.967 236.833C557.967 235.543 557.569 234.177 556.833 234.177C556.097 234.177 555.699 235.548 555.699 236.833C555.699 238.122 556.097 239.488 556.833 239.488ZM556.833 234.51C557.209 234.51 557.633 235.505 557.633 236.833C557.633 238.16 557.214 239.155 556.833 239.155C556.456 239.155 556.037 238.165 556.037 236.833C556.037 235.501 556.456 234.51 556.833 234.51Z" fill="#E9EEF1"/>
<path d="M480.955 291.071C481.952 291.071 482.73 289.402 482.73 287.276C482.73 285.15 481.948 283.481 480.955 283.481C479.963 283.481 479.18 285.15 479.18 287.276C479.18 289.402 479.963 291.071 480.955 291.071ZM480.955 283.814C481.738 283.814 482.397 285.398 482.397 287.276C482.397 289.154 481.738 290.738 480.955 290.738C480.172 290.738 479.513 289.154 479.513 287.276C479.513 285.398 480.176 283.814 480.955 283.814Z" fill="#E9EEF1"/>
<path d="M288.841 323.132L291.262 323.572C291.497 323.614 291.737 323.636 291.968 323.636C293.829 323.636 295.485 322.308 295.831 320.417C296.019 319.392 295.793 318.351 295.194 317.484C294.595 316.617 293.701 316.041 292.67 315.853L290.248 315.413C288.114 315.025 286.069 316.442 285.679 318.568C285.29 320.699 286.71 322.743 288.841 323.132ZM286.013 318.632C286.368 316.686 288.242 315.392 290.193 315.746L292.614 316.186C294.565 316.541 295.861 318.41 295.506 320.357C295.151 322.304 293.277 323.597 291.326 323.243L288.905 322.803C286.954 322.449 285.658 320.579 286.013 318.632Z" fill="#E9EEF1"/>
<path d="M305.217 326.539L307.638 326.978C307.873 327.021 308.109 327.042 308.344 327.042C308.956 327.042 309.555 326.897 310.115 326.615L309.961 326.317C309.255 326.675 308.472 326.79 307.698 326.65L305.277 326.21C303.326 325.856 302.03 323.986 302.385 322.039C302.74 320.092 304.614 318.799 306.564 319.153L308.986 319.593L309.045 319.264L306.624 318.824C304.489 318.436 302.44 319.853 302.055 321.979C301.67 324.105 303.086 326.15 305.217 326.539Z" fill="#E9EEF1"/>
<path d="M289.089 297.402L291.502 297.885C291.759 297.936 292.02 297.961 292.276 297.961C293.042 297.961 293.795 297.735 294.449 297.3C295.326 296.719 295.921 295.835 296.126 294.811C296.332 293.786 296.122 292.745 295.54 291.87C294.958 290.994 294.073 290.401 293.046 290.196L290.633 289.714C289.611 289.509 288.563 289.718 287.686 290.299C286.809 290.879 286.214 291.763 286.009 292.787C285.804 293.812 286.013 294.854 286.595 295.729C287.181 296.604 288.067 297.197 289.089 297.402ZM286.338 292.856C286.527 291.921 287.07 291.114 287.874 290.58C288.473 290.183 289.162 289.974 289.863 289.974C290.099 289.974 290.334 289.995 290.569 290.042L292.982 290.525C293.919 290.713 294.727 291.255 295.262 292.057C295.797 292.856 295.985 293.812 295.797 294.747C295.609 295.682 295.065 296.489 294.261 297.022C293.461 297.556 292.503 297.744 291.566 297.556L289.153 297.074C288.216 296.886 287.408 296.343 286.873 295.541C286.343 294.743 286.15 293.791 286.338 292.856Z" fill="#E9EEF1"/>
<path d="M305.405 301.099L307.818 301.582C308.075 301.633 308.336 301.659 308.592 301.659C309.358 301.659 310.111 301.432 310.766 300.997C311.643 300.416 312.237 299.533 312.443 298.508C312.648 297.483 312.438 296.442 311.857 295.567C311.275 294.691 310.389 294.098 309.362 293.893L306.95 293.411C305.927 293.206 304.879 293.415 304.002 293.996C303.125 294.576 302.531 295.46 302.325 296.484C301.897 298.602 303.279 300.672 305.405 301.099ZM302.655 296.548C302.843 295.614 303.386 294.807 304.19 294.273C304.789 293.876 305.478 293.667 306.18 293.667C306.415 293.667 306.65 293.688 306.886 293.735L309.298 294.218C310.235 294.405 311.044 294.948 311.578 295.75C312.113 296.548 312.301 297.505 312.113 298.44C311.925 299.375 311.382 300.181 310.577 300.715C309.773 301.249 308.819 301.437 307.882 301.249L305.47 300.766C303.527 300.382 302.265 298.487 302.655 296.548Z" fill="#E9EEF1"/>
<path d="M185.644 275.34L188.057 275.822C188.314 275.873 188.575 275.899 188.831 275.899C189.597 275.899 190.35 275.673 191.005 275.237C191.882 274.657 192.476 273.773 192.682 272.748C192.887 271.724 192.677 270.682 192.095 269.807C191.514 268.932 190.628 268.338 189.601 268.134L187.189 267.651C185.062 267.224 182.988 268.603 182.564 270.725C182.359 271.749 182.568 272.791 183.15 273.666C183.732 274.541 184.622 275.135 185.644 275.34ZM182.894 270.789C183.283 268.851 185.182 267.591 187.124 267.98L189.537 268.462C190.474 268.65 191.283 269.192 191.817 269.995C192.352 270.793 192.54 271.749 192.352 272.684C192.164 273.619 191.621 274.426 190.816 274.96C190.016 275.493 189.058 275.681 188.121 275.493L185.708 275.011C184.772 274.823 183.963 274.281 183.428 273.478C182.898 272.68 182.705 271.728 182.894 270.789Z" fill="#E9EEF1"/>
<path d="M201.96 279.032L204.373 279.515C204.634 279.566 204.891 279.592 205.147 279.592C206.978 279.592 208.625 278.302 208.997 276.441C209.203 275.417 208.993 274.375 208.411 273.5C207.83 272.625 206.944 272.031 205.917 271.826L203.505 271.344C201.383 270.917 199.304 272.3 198.88 274.418C198.675 275.442 198.884 276.484 199.466 277.359C200.048 278.234 200.934 278.828 201.96 279.032ZM199.209 274.486C199.599 272.548 201.502 271.284 203.44 271.677L205.853 272.159C206.79 272.347 207.599 272.889 208.133 273.692C208.668 274.49 208.856 275.446 208.668 276.381C208.279 278.32 206.379 279.583 204.437 279.19L202.024 278.708C201.088 278.52 200.279 277.978 199.744 277.175C199.214 276.373 199.021 275.421 199.209 274.486Z" fill="#E9EEF1"/>
<path d="M376.128 352.951C378.498 354.339 380.958 355.043 383.328 355.043C383.691 355.043 384.051 355.026 384.406 354.992C387.216 356.106 390.121 356.665 392.987 356.665C395.742 356.665 398.455 356.149 401 355.116C413.149 350.181 418.45 334.932 412.816 321.125C407.182 307.315 392.718 300.096 380.569 305.031C372.179 308.438 366.789 316.805 366.507 326.867L366.665 326.872C366.468 327.388 366.289 327.922 366.139 328.472C364.963 332.763 365.352 337.672 367.234 342.296C369.125 346.915 372.282 350.702 376.128 352.951ZM380.701 305.338C392.679 300.476 406.946 307.61 412.508 321.249C418.069 334.885 412.854 349.937 400.876 354.804C395.952 356.806 390.382 356.832 385.125 354.902C385.989 354.766 386.836 354.535 387.657 354.202C388.059 354.04 388.448 353.852 388.825 353.643L393.997 351.594C395.28 351.419 396.542 351.081 397.744 350.595C406.938 346.859 410.848 335.068 406.459 324.31C402.069 313.552 391.02 307.836 381.826 311.571C378.237 313.027 375.358 315.729 373.489 319.384L373.677 319.478L373.518 319.542C370.55 320.745 368.244 323.145 366.871 326.389C367.303 316.681 372.569 308.643 380.701 305.338ZM397.394 350.065L397.458 350.219C404.816 347.231 407.635 337.023 403.734 327.469C399.832 317.915 390.677 312.57 383.319 315.563L373.856 319.405C375.687 315.892 378.481 313.292 381.95 311.883C390.968 308.22 401.826 313.851 406.146 324.438C410.463 335.025 406.638 346.62 397.616 350.283C396.996 350.535 396.363 350.74 395.721 350.911L397.462 350.219L397.394 350.065ZM383.448 315.87C390.63 312.95 399.597 318.21 403.426 327.593C407.254 336.976 404.521 346.987 397.334 349.907L390.258 352.712C392.504 351.005 394.16 348.447 395.032 345.267C396.209 340.977 395.819 336.067 393.937 331.444C390.493 323 382.943 317.851 376.149 318.829L383.448 315.87ZM366.468 328.562C367.623 324.357 370.173 321.266 373.647 319.853C374.99 319.307 376.398 319.046 377.822 319.046C384.008 319.046 390.51 323.947 393.625 331.576C395.481 336.131 395.866 340.964 394.707 345.182C393.685 348.904 391.567 351.752 388.684 353.336L386.6 354.164L386.618 354.211C383.366 355.21 379.743 354.676 376.299 352.661C372.517 350.45 369.412 346.723 367.551 342.168C365.694 337.617 365.309 332.784 366.468 328.562Z" fill="#E9EEF1"/>
<path d="M389.043 327.678L389.347 327.538C387.106 322.628 383.161 322.432 383.123 322.427L383.114 322.765C383.153 322.769 386.892 322.97 389.043 327.678Z" fill="#E9EEF1"/>
<path d="M368.976 314.274C368.993 314.278 369.01 314.278 369.027 314.278C369.142 314.278 369.194 314.167 369.339 313.851C369.677 313.117 370.571 311.17 372.603 309.095C375.743 305.881 380.363 303.528 380.41 303.507L380.547 303.439L378.999 299.635L378.819 299.831C378.413 300.275 368.826 310.696 368.83 314.043C368.83 314.175 368.877 314.252 368.976 314.274ZM378.888 300.25L380.12 303.277C379.546 303.58 377.275 304.813 374.977 306.572L374.199 305.731C374.327 305.569 374.456 305.411 374.584 305.253L375.397 306.133L375.645 305.906L374.798 304.993C376.633 302.751 378.344 300.852 378.888 300.25ZM373.985 306L374.708 306.781C373.895 307.418 373.091 308.118 372.359 308.86C370.832 310.423 369.934 311.913 369.433 312.886C370.122 311.106 372.043 308.438 373.985 306Z" fill="#E9EEF1"/>
<path d="M310.269 312.758C309.931 313.65 309.67 314.594 309.478 315.571L307.202 313.582L307.151 313.877C307.108 314.12 306.992 314.863 306.877 315.606L303.882 312.989L303.831 313.283C303.737 313.821 303.279 316.801 303.275 316.831L303.236 317.091L306.804 316.067C306.693 316.792 306.595 317.416 306.595 317.428L306.556 317.689L309.264 316.912C308.823 320.438 309.294 324.366 310.817 328.186C313.003 333.672 316.896 337.933 321.507 339.871C323.197 340.58 324.887 340.938 326.53 340.938C326.881 340.938 327.231 340.921 327.578 340.887C330.32 342.001 333.156 342.56 335.95 342.56C338.641 342.56 341.289 342.044 343.774 341.011C355.628 336.076 360.8 320.827 355.307 307.02C352.407 299.729 346.931 293.949 340.292 291.157C334.833 288.864 328.99 288.779 323.835 290.926C315.647 294.337 310.385 302.7 310.111 312.762L310.269 312.758ZM303.647 316.617C303.745 315.985 303.994 314.372 304.113 313.633L306.569 315.781L303.647 316.617ZM306.967 317.215C307.009 316.937 307.082 316.464 307.159 315.956L307.249 315.93L307.172 315.862C307.266 315.255 307.365 314.619 307.429 314.227L309.401 315.947C309.367 316.143 309.337 316.34 309.311 316.536L306.967 317.215ZM321.636 339.555C317.11 337.651 313.277 333.459 311.125 328.058C309.465 323.888 309.071 319.597 309.76 315.857L309.777 315.836L309.764 315.828C310.629 311.161 313.178 307.362 317.071 305.744C318.372 305.202 319.745 304.933 321.157 304.933C322.757 304.933 324.404 305.279 326.046 305.97C330.572 307.874 334.405 312.066 336.557 317.467C340.087 326.338 337.896 335.764 331.723 339.239L329.704 340.059L329.721 340.106C327.184 340.9 324.408 340.72 321.636 339.555ZM340.181 335.798L333.276 338.603C338.521 334.5 340.189 325.672 336.874 317.339C334.692 311.853 330.795 307.597 326.183 305.654C323.933 304.707 321.679 304.395 319.54 304.711L326.641 301.757C329.417 300.6 332.519 300.681 335.62 301.983C340.146 303.887 343.979 308.079 346.131 313.48C349.862 322.867 347.192 332.878 340.181 335.798ZM340.245 335.952L340.309 336.106C347.492 333.117 350.238 322.91 346.435 313.356C344.249 307.87 340.356 303.609 335.744 301.671C332.562 300.331 329.366 300.254 326.504 301.445L317.281 305.283C319.065 301.774 321.794 299.174 325.178 297.765C328.913 296.211 333.173 296.284 337.178 297.966C342.281 300.109 346.508 304.613 348.779 310.316C352.993 320.903 349.258 332.502 340.454 336.165C339.851 336.417 339.235 336.622 338.611 336.793L340.309 336.101L340.245 335.952ZM323.954 291.225C329.024 289.112 334.778 289.197 340.155 291.455C346.713 294.213 352.12 299.925 354.987 307.136C360.415 320.775 355.325 335.828 343.637 340.691C338.833 342.693 333.4 342.718 328.271 340.789C329.114 340.652 329.939 340.422 330.739 340.089C331.129 339.926 331.501 339.739 331.864 339.538L336.921 337.484C338.174 337.309 339.406 336.972 340.578 336.486C349.549 332.75 353.365 320.959 349.083 310.205C346.777 304.416 342.486 299.848 337.302 297.667C333.212 295.946 328.857 295.874 325.041 297.466C321.537 298.926 318.727 301.624 316.904 305.279L317.088 305.373L316.934 305.437C313.965 306.675 311.754 309.146 310.449 312.293C310.881 302.572 316.019 294.529 323.954 291.225Z" fill="#E9EEF1"/>
<path d="M332.091 313.565L332.399 313.428C330.213 308.519 326.358 308.318 326.32 308.318L326.307 308.656C326.341 308.656 329.99 308.856 332.091 313.565Z" fill="#E9EEF1"/>
<path d="M336.844 300.216L336.715 300.523C336.78 300.549 343.124 303.23 345.314 308.549L345.626 308.421C343.376 302.973 336.908 300.241 336.844 300.216Z" fill="#E9EEF1"/>
<path d="M337.498 288.074C340.505 288.655 342.563 289.436 344.599 290.781L344.783 290.503C342.709 289.133 340.617 288.335 337.562 287.746C336.022 287.451 334.995 287.353 333.665 287.37L333.669 287.707C334.978 287.686 335.984 287.784 337.498 288.074Z" fill="#E9EEF1"/>
<path d="M353.173 299.451L351.637 298.414L351.449 298.691L353.502 300.079L353.523 300.045L353.63 300.134L353.776 300.006C353.78 299.998 353.771 299.964 353.754 299.917H353.763C353.75 299.823 353.438 297.658 353.331 297.287L353.01 297.381C353.061 297.564 353.177 298.269 353.284 298.956C352.355 297.295 350.075 294.004 346.071 291.357L345.887 291.635C350.246 294.521 352.45 298.098 353.173 299.451Z" fill="#E9EEF1"/>
<path d="M323.052 290.905L321.824 290.785C322.971 290.025 326.816 287.788 332.391 287.703L332.386 287.366C327.06 287.447 323.274 289.47 321.867 290.358C322.124 289.983 322.436 289.547 322.598 289.385L322.363 289.15C322.034 289.479 321.2 290.76 321.165 290.811L321.016 291.041L323.026 291.238L323.052 290.905Z" fill="#E9EEF1"/>
<path d="M264.046 348.426L291.275 355.56L290.753 352.208L263.486 344.972V345.19C263.486 345.839 264.003 348.221 264.025 348.319L264.046 348.426ZM290.454 352.477L290.865 355.103L264.333 348.149C264.243 347.734 263.909 346.138 263.837 345.412L290.454 352.477Z" fill="#E9EEF1"/>
<path d="M181.674 329.074C181.914 329.074 182.153 329.032 182.376 328.938C183.009 328.673 183.449 328.071 183.621 327.243C183.787 326.436 183.672 325.51 183.304 324.626C182.936 323.742 182.354 323.012 181.661 322.56C180.951 322.099 180.211 321.988 179.578 322.252C178.945 322.517 178.504 323.119 178.333 323.947C178.166 324.754 178.282 325.681 178.65 326.564C179.291 328.084 180.54 329.074 181.674 329.074ZM178.667 324.016C178.812 323.298 179.184 322.782 179.711 322.564C179.894 322.487 180.087 322.449 180.292 322.449C180.673 322.449 181.079 322.581 181.482 322.842C182.115 323.256 182.654 323.934 182.996 324.754C183.338 325.574 183.445 326.436 183.291 327.175C183.146 327.892 182.774 328.408 182.247 328.626C181.135 329.092 179.663 328.105 178.962 326.432C178.62 325.612 178.517 324.754 178.667 324.016Z" fill="#E9EEF1"/>
<path d="M277.286 287.37C275.926 287.37 274.818 288.851 274.818 290.67C274.818 292.488 275.926 293.97 277.286 293.97C278.647 293.97 279.755 292.488 279.755 290.67C279.755 288.851 278.651 287.37 277.286 287.37ZM277.286 293.633C276.11 293.633 275.156 292.305 275.156 290.67C275.156 289.035 276.114 287.707 277.286 287.707C278.458 287.707 279.417 289.035 279.417 290.67C279.421 292.305 278.463 293.633 277.286 293.633Z" fill="#E9EEF1"/>
<path d="M293.953 287.724L296.631 288.373L296.883 284.732L294.205 284.083L294.073 285.995L290.368 283.084L290.334 283.378C290.257 284.006 289.91 287.485 289.906 287.519L289.88 287.78L294.051 286.341L293.953 287.724ZM290.261 287.293C290.334 286.576 290.535 284.569 290.629 283.716L293.679 286.115L290.261 287.293ZM296.528 284.992L296.323 287.955L294.304 287.464L294.509 284.501L296.528 284.992Z" fill="#E9EEF1"/>
<path d="M310.466 287.592L307.788 286.943L307.536 290.584L310.214 291.233L310.466 287.592ZM309.91 290.815L307.891 290.324L308.096 287.361L310.115 287.852L309.91 290.815Z" fill="#E9EEF1"/>
<path d="M291.288 310.005L287.096 311.58L290.445 314.069L290.501 313.813C290.505 313.8 290.634 313.181 290.788 312.463L293.769 314.679L293.825 314.423C293.829 314.393 294.454 311.447 294.556 310.91L294.612 310.615L290.886 312.015C291.04 311.281 291.194 310.547 291.237 310.303L291.288 310.005ZM294.159 311.136C294.009 311.87 293.675 313.467 293.543 314.094L291.104 312.284L294.159 311.136ZM290.488 312.241C290.385 312.741 290.283 313.211 290.227 313.488L287.789 311.678L290.843 310.53C290.766 310.918 290.634 311.55 290.505 312.152L290.411 312.186L290.488 312.241Z" fill="#E9EEF1"/>
<path d="M183.651 299.409L183.621 299.447C184.113 299.831 184.703 300.203 185.426 300.574L199.804 303.456C199.86 303.456 199.92 303.456 199.975 303.456C202.581 303.456 204.844 301.855 205.28 299.673L205.378 299.191C205.853 296.834 204.155 294.495 201.592 293.983L201.571 294.081C201.178 293.867 200.754 293.71 200.305 293.62L185.495 290.657C183.069 290.175 180.708 291.746 180.22 294.162C179.741 296.557 181.277 298.888 183.651 299.409ZM205.045 299.131L204.946 299.614C204.531 301.68 202.345 303.195 199.839 303.127L185.554 300.271C185.097 300.032 184.695 299.797 184.34 299.558L198.538 302.397C198.833 302.457 199.128 302.487 199.419 302.487C200.292 302.487 201.152 302.231 201.896 301.731C202.893 301.069 203.573 300.058 203.808 298.892C204.044 297.727 203.804 296.536 203.141 295.537C202.88 295.144 202.559 294.802 202.2 294.516C204.193 295.229 205.438 297.172 205.045 299.131ZM180.549 294.235C180.943 292.271 182.68 290.913 184.613 290.913C184.883 290.913 185.157 290.939 185.43 290.994L191.347 292.177L190.444 300.382L190.778 300.42L191.676 292.245L192.463 292.403L191.569 300.514L191.903 300.553L192.793 292.471L200.236 293.961C201.319 294.179 202.251 294.802 202.867 295.725C203.483 296.647 203.701 297.748 203.488 298.828C203.269 299.908 202.641 300.839 201.717 301.454C200.792 302.068 199.689 302.286 198.606 302.073L183.796 299.11C181.559 298.653 180.1 296.472 180.549 294.235Z" fill="#E9EEF1"/>
<path d="M169.029 287.639L169.007 287.737C168.618 287.524 168.195 287.366 167.741 287.276L152.931 284.313C151.763 284.078 150.569 284.318 149.568 284.979C148.567 285.641 147.891 286.653 147.656 287.818C147.421 288.984 147.66 290.175 148.323 291.174C148.974 292.147 149.953 292.813 151.087 293.061L151.057 293.099C151.549 293.483 152.139 293.855 152.862 294.226L167.241 297.108C167.296 297.108 167.356 297.108 167.412 297.108C170.017 297.108 172.28 295.507 172.716 293.325L172.815 292.843C173.29 290.491 171.591 288.151 169.029 287.639ZM148.606 290.99C147.99 290.068 147.772 288.967 147.986 287.886C148.204 286.806 148.833 285.876 149.757 285.261C150.45 284.8 151.241 284.565 152.05 284.565C152.319 284.565 152.593 284.591 152.867 284.646L158.783 285.829L157.88 294.034L158.214 294.072L159.112 285.897L159.9 286.055L159.005 294.166L159.339 294.205L160.229 286.123L167.673 287.613C169.914 288.062 171.369 290.247 170.92 292.48C170.47 294.717 168.284 296.168 166.043 295.72L151.232 292.757C150.154 292.535 149.222 291.912 148.606 290.99ZM172.485 292.783L172.387 293.266C171.972 295.332 169.769 296.852 167.279 296.779L152.995 293.923C152.537 293.684 152.135 293.449 151.78 293.21L165.979 296.049C166.274 296.109 166.569 296.139 166.86 296.139C168.952 296.139 170.825 294.666 171.249 292.544C171.591 290.845 170.911 289.18 169.64 288.168C171.634 288.877 172.879 290.819 172.485 292.783Z" fill="#E9EEF1"/>
<path d="M137.286 279.788L137.265 279.886C136.876 279.673 136.452 279.515 135.994 279.425L121.184 276.462C118.763 275.98 116.397 277.551 115.909 279.967C115.43 282.358 116.966 284.689 119.34 285.21L119.31 285.248C119.802 285.632 120.393 286.004 121.116 286.375L135.494 289.257C135.549 289.257 135.605 289.257 135.665 289.257C138.27 289.257 140.533 287.656 140.97 285.474L141.068 284.992C141.299 283.852 141.025 282.678 140.306 281.692C139.592 280.71 138.518 280.036 137.286 279.788ZM116.243 280.031C116.692 277.794 118.878 276.343 121.12 276.791L127.036 277.974L126.138 286.179L126.472 286.217L127.37 278.042L128.157 278.2L127.263 286.311L127.597 286.35L128.486 278.268L135.93 279.758C138.172 280.206 139.626 282.392 139.177 284.625C138.728 286.862 136.538 288.313 134.3 287.865L119.49 284.902C117.253 284.45 115.794 282.268 116.243 280.031ZM140.743 284.928L140.644 285.41C140.229 287.477 138.031 288.979 135.537 288.924L121.252 286.068C120.795 285.829 120.393 285.594 120.038 285.355L134.236 288.194C134.531 288.254 134.826 288.283 135.117 288.283C137.209 288.283 139.083 286.811 139.506 284.689C139.849 282.99 139.168 281.325 137.898 280.313C138.758 280.621 139.502 281.167 140.037 281.897C140.704 282.802 140.952 283.882 140.743 284.928Z" fill="#E9EEF1"/>
<path d="M106.01 281.432C107.811 281.432 109.278 279.656 109.278 277.474C109.278 275.293 107.811 273.517 106.01 273.517C104.209 273.517 102.742 275.293 102.742 277.474C102.742 279.656 104.209 281.432 106.01 281.432ZM106.01 273.854C107.627 273.854 108.945 275.481 108.945 277.474C108.945 279.468 107.627 281.094 106.01 281.094C104.393 281.094 103.075 279.468 103.075 277.474C103.075 275.481 104.393 273.854 106.01 273.854Z" fill="#E9EEF1"/>
<path d="M105.583 280.151C106.806 280.151 107.803 278.951 107.803 277.474C107.803 275.997 106.806 274.797 105.583 274.797C104.359 274.797 103.362 275.997 103.362 277.474C103.362 278.951 104.359 280.151 105.583 280.151ZM105.583 275.135C106.622 275.135 107.469 276.185 107.469 277.474C107.469 278.763 106.622 279.814 105.583 279.814C104.543 279.814 103.696 278.763 103.696 277.474C103.696 276.185 104.543 275.135 105.583 275.135Z" fill="#E9EEF1"/>
<path d="M224.586 303.298C228.248 304.096 236.975 306.282 245.411 308.395C260.974 312.293 264.11 313.036 264.73 313.036C264.799 313.036 264.837 313.027 264.859 313.01L264.927 312.954V312.873C264.927 312.54 265.672 293.394 265.95 286.61C266.01 285.188 265.034 283.942 263.64 283.652L224.744 275.523C223.855 275.34 222.952 275.566 222.259 276.147C221.566 276.727 221.189 277.581 221.219 278.482L222.002 300.762C222.054 302.081 222.922 302.935 224.586 303.298ZM222.477 276.403C222.952 276.006 223.534 275.796 224.137 275.796C224.317 275.796 224.496 275.814 224.676 275.852L263.571 283.98C264.807 284.236 265.667 285.338 265.616 286.597C265.351 293.065 264.662 310.777 264.598 312.707C263.332 312.536 254.275 310.265 245.497 308.071C237.056 305.957 228.329 303.772 224.663 302.969C223.145 302.636 222.387 301.91 222.345 300.749L221.562 278.469C221.527 277.671 221.865 276.919 222.477 276.403Z" fill="#E9EEF1"/>
<path d="M138.305 252.817L138.236 253.142L177.062 261.348L177.131 261.023L138.305 252.817Z" fill="#E9EEF1"/>
<path d="M184.326 262.551L184.257 262.877L193.698 264.873L193.768 264.547L184.326 262.551Z" fill="#E9EEF1"/>
<path d="M200.004 265.851L199.935 266.177L208.255 267.935L208.324 267.61L200.004 265.851Z" fill="#E9EEF1"/>
<path d="M104.659 268.621L104.586 268.951L109.693 270.066L109.766 269.737L104.659 268.621Z" fill="#E9EEF1"/>
<path d="M116.864 271.268L116.792 271.598L143.793 277.492L143.866 277.163L116.864 271.268Z" fill="#E9EEF1"/>
<path d="M155.711 279.771L155.639 280.101L173.25 283.947L173.322 283.618L155.711 279.771Z" fill="#E9EEF1"/>
<path d="M183.052 285.733L182.979 286.063L190.306 287.663L190.378 287.333L183.052 285.733Z" fill="#E9EEF1"/>
<path d="M197.683 288.936L197.611 289.265L206.692 291.248L206.764 290.919L197.683 288.936Z" fill="#E9EEF1"/>
<path d="M105.505 251.565L122.737 254.575C122.874 254.601 123.015 254.609 123.152 254.609C123.652 254.609 124.14 254.451 124.551 254.144C125.077 253.755 125.411 253.183 125.488 252.534L125.8 249.981C125.967 248.602 125.03 247.339 123.657 247.1L106.643 244.128C106.002 244.017 105.356 244.167 104.834 244.555C104.308 244.944 103.978 245.512 103.897 246.161L103.555 248.944C103.409 250.199 104.265 251.347 105.505 251.565ZM103.897 248.987L104.239 246.203C104.308 245.648 104.594 245.162 105.043 244.829C105.398 244.568 105.813 244.432 106.241 244.432C106.357 244.432 106.477 244.44 106.596 244.461L123.61 247.433C124.803 247.642 125.625 248.743 125.475 249.947L125.163 252.5C125.094 253.055 124.807 253.546 124.358 253.879C123.909 254.212 123.357 254.344 122.801 254.246L105.57 251.236C104.496 251.049 103.764 250.062 103.897 248.987Z" fill="#E9EEF1"/>
<path d="M273.793 281.448L273.724 281.774L282.044 283.532L282.113 283.206L273.793 281.448Z" fill="#E9EEF1"/>
</g>
<defs>
<clipPath id="clip0_4119_29440">
<rect width="486" height="407" fill="white" transform="translate(92 6)"/>
</clipPath>
</defs>
</svg>
