<svg width="345" height="353" viewBox="0 0 345 353" fill="none" xmlns="http://www.w3.org/2000/svg">
<g opacity="0.8">
<g opacity="0.8" clip-path="url(#clip0_4231_30812)">
<path d="M139.913 5L97.7334 10.0355L97.6262 10.0931L66.649 27.4087L66.5665 27.5239L48 53.6435L48.9236 67.4746C48.8535 67.5034 48.7958 67.5487 48.7587 67.6227C48.738 67.6639 48.7257 67.7091 48.7257 67.7626C48.7257 68.3139 49.8843 69.3958 50.6182 70.0253L50.6594 69.9759L140.14 178.835C140.136 178.844 140.128 178.856 140.123 178.868L140.189 178.901L140.202 178.918L140.21 178.91L140.416 179.004C140.453 178.926 140.495 178.835 140.544 178.741L140.754 178.905L227.332 68.3673L227.175 68.2439L227.431 68.2563L227.992 58.0742L209.706 30.9879L182.683 11.6235L182.538 11.5988L139.913 5ZM182.522 13.0263L206.782 30.4037L195.967 27.0632L195.959 27.0549C195.481 26.5284 185.029 15.0751 182.522 13.0263ZM67.9065 28.2151C68.3395 27.9765 78.837 26.2322 80.7584 25.9894L66.818 52.722L50.2141 66.1993C56.3411 52.9318 67.5355 28.7581 67.9065 28.2151ZM218.925 77.1013C218.653 77.381 218.434 77.6032 218.282 77.7513H218.22L207.677 52.8248C209.157 54.3717 212.468 57.8315 215.783 61.2296C221.44 67.0262 223.658 69.1408 224.578 69.8772L218.925 77.1013ZM224.772 69.6386C222.64 67.8819 213.532 58.5021 207.289 51.9485L196.037 27.4211L207.611 30.9961L208.811 31.8559L209.796 33.3123C212.74 40.6269 222.887 65.792 224.8 69.6015L224.772 69.6386ZM68.3271 50.9735L94.7977 40.1826L108.866 61.9784L73.782 80.3349L68.1416 51.7017L67.9478 51.7387L68.3271 50.9735ZM56.5473 75.1883L73.6047 81.0096L88.7779 89.8546L75.9178 90.9201L75.8065 90.7679L75.7446 90.8131L56.5968 75.2459L56.5473 75.1883ZM76.1487 91.2245L89.2686 90.1384L103.906 98.6708L139.274 175.828L131.712 166.629L76.1487 91.2245ZM197.415 93.0635C194.297 97.56 153.874 156.517 142.775 174.331L140.828 176.82L170.841 99.4648L184.014 92.3847L197.415 93.0635ZM197.732 92.7549L184.179 92.0638L201.327 82.2191L217.919 77.8994L217.923 78.0516L197.732 92.7549ZM109.513 62.8793L136.751 93.5242L120.918 95.8568L104.57 88.6286L109.513 62.8793ZM104.248 98.642L120.868 96.1942L136.837 103.254L140.338 177.124L140.082 176.811L104.248 98.642ZM140.631 176.425L137.163 103.254L153.383 96.7249L170.346 99.6828L170.375 99.5224L170.429 99.6211L140.631 176.425ZM170.346 99.3578L153.952 96.4986L169.818 90.1137L183.796 92.1296L170.346 99.3578ZM152.781 96.6179L136.998 102.97L121.466 96.1037L136.837 93.8369L152.781 96.6179ZM103.86 97.7904L103.568 97.9262L103.675 98.1607L89.8293 90.0932L104.355 88.8919L120.316 95.9515L104.108 98.3417L103.86 97.7904ZM166.19 63.5005L169.62 89.8463L153.346 96.3958L136.854 93.516L166.19 63.5005ZM166.903 62.5461L200.944 82.0668L183.952 91.8252L169.946 89.8052L166.479 63.1838L166.903 62.5461ZM201.472 81.8447L207.083 52.2776L207.24 52.6191L217.803 77.5909L201.472 81.8447ZM109.043 62.2499L109.245 62.5667L104.248 88.5751L89.3428 89.8093L73.7449 80.7216L109.043 62.2499ZM137.823 45.8722L166.623 62.3898L166.173 63.0603L136.804 93.1046L109.534 62.4268L109.319 62.0936L137.823 45.8722ZM167.081 62.2787L181.066 41.3468L206.807 51.9773L201.146 81.8159L167.081 62.2787ZM217.799 78.5412L144.733 171.825C157.935 151.132 195.963 95.6964 197.794 93.0799H197.831L197.876 93.047L217.799 78.5412ZM127.832 161.911L57.6317 76.5048L75.757 91.241L127.832 161.911ZM56.6339 74.8756L67.8612 51.928L73.514 80.6393L56.6339 74.8756ZM81.113 26.0141L94.5792 39.9234L68.2653 50.6485L81.113 26.0141ZM95.1853 40.1867L137.328 45.7817L109.146 61.8179L95.1853 40.1867ZM138.326 45.7858L180.885 40.9601L180.922 40.9231L195.716 27.4951L206.778 51.6112L180.947 40.9437L166.804 62.1182L138.326 45.7858ZM225.019 69.3218C223.102 65.393 214.105 43.1488 210.662 34.6L226.742 58.4198L226.227 67.7832L225.019 69.3218ZM52.3458 70.0746C53.9538 71.7943 55.599 73.9623 56.1432 74.6905L52.3458 70.0746ZM50.1564 67.4129L50.1069 66.7012L66.9706 52.9935L56.4277 74.5424C55.7103 73.5715 52.8035 69.725 50.7543 68.1452L50.1564 67.4129ZM67.4283 28.4455C65.5811 32.1686 53.5168 58.2799 50.0492 65.7879L49.2617 54.0014L67.4283 28.4455ZM139.893 6.24653L182.06 12.7754L181.965 13.0222C182.909 13.3884 191.852 23.0356 195.501 27.0344L195.571 27.1907L180.741 40.6557L137.86 45.5184L137.827 45.4978L137.786 45.5184L94.9544 39.8329L94.9214 39.7835L94.8966 39.7918L81.4676 25.9154L92.6784 14.6555L92.4475 14.4292L81.2573 25.6727L81.0676 25.6439C80.9852 25.6315 71.6916 27.0385 68.6281 27.7214L98.1292 11.2327L139.893 6.24653Z" fill="#E9EEF1"/>
</g>
<circle cx="47" cy="53" r="8" fill="#E9EEF1"/>
<circle cx="47" cy="291" r="8" fill="#E9EEF1"/>
<g opacity="0.8" clip-path="url(#clip1_4231_30812)">
<path d="M139.913 353L97.7334 347.965L97.6262 347.907L66.649 330.591L66.5665 330.476L48 304.357L48.9236 290.525C48.8535 290.497 48.7958 290.451 48.7587 290.377C48.738 290.336 48.7257 290.291 48.7257 290.237C48.7257 289.686 49.8843 288.604 50.6182 287.975L50.6594 288.024L140.14 179.165C140.136 179.156 140.128 179.144 140.123 179.132L140.189 179.099L140.202 179.082L140.21 179.09L140.416 178.996C140.453 179.074 140.495 179.165 140.544 179.259L140.754 179.095L227.332 289.633L227.175 289.756L227.431 289.744L227.992 299.926L209.706 327.012L182.683 346.377L182.538 346.401L139.913 353ZM182.522 344.974L206.782 327.596L195.967 330.937L195.959 330.945C195.481 331.472 185.029 342.925 182.522 344.974ZM67.9065 329.785C68.3395 330.024 78.837 331.768 80.7584 332.011L66.818 305.278L50.2141 291.801C56.3411 305.068 67.5355 329.242 67.9065 329.785ZM218.925 280.899C218.653 280.619 218.434 280.397 218.282 280.249H218.22L207.677 305.175C209.157 303.628 212.468 300.169 215.783 296.77C221.44 290.974 223.658 288.859 224.578 288.123L218.925 280.899ZM224.772 288.361C222.64 290.118 213.532 299.498 207.289 306.051L196.037 330.579L207.611 327.004L208.811 326.144L209.796 324.688C212.74 317.373 222.887 292.208 224.8 288.398L224.772 288.361ZM68.3271 307.026L94.7977 317.817L108.866 296.022L73.782 277.665L68.1416 306.298L67.9478 306.261L68.3271 307.026ZM56.5473 282.812L73.6047 276.99L88.7779 268.145L75.9178 267.08L75.8065 267.232L75.7446 267.187L56.5968 282.754L56.5473 282.812ZM76.1487 266.775L89.2686 267.862L103.906 259.329L139.274 182.172L131.712 191.371L76.1487 266.775ZM197.415 264.937C194.297 260.44 153.874 201.483 142.775 183.669L140.828 181.18L170.841 258.535L184.014 265.615L197.415 264.937ZM197.732 265.245L184.179 265.936L201.327 275.781L217.919 280.101L217.923 279.948L197.732 265.245ZM109.513 295.121L136.751 264.476L120.918 262.143L104.57 269.371L109.513 295.121ZM104.248 259.358L120.868 261.806L136.837 254.746L140.338 180.876L140.082 181.189L104.248 259.358ZM140.631 181.575L137.163 254.746L153.383 261.275L170.346 258.317L170.375 258.478L170.429 258.379L140.631 181.575ZM170.346 258.642L153.952 261.501L169.818 267.886L183.796 265.87L170.346 258.642ZM152.781 261.382L136.998 255.03L121.466 261.896L136.837 264.163L152.781 261.382ZM103.86 260.21L103.568 260.074L103.675 259.839L89.8293 267.907L104.355 269.108L120.316 262.049L104.108 259.658L103.86 260.21ZM166.19 294.499L169.62 268.154L153.346 261.604L136.854 264.484L166.19 294.499ZM166.903 295.454L200.944 275.933L183.952 266.175L169.946 268.195L166.479 294.816L166.903 295.454ZM201.472 276.155L207.083 305.722L207.24 305.381L217.803 280.409L201.472 276.155ZM109.043 295.75L109.245 295.433L104.248 269.425L89.3428 268.191L73.7449 277.278L109.043 295.75ZM137.823 312.128L166.623 295.61L166.173 294.94L136.804 264.895L109.534 295.573L109.319 295.906L137.823 312.128ZM167.081 295.721L181.066 316.653L206.807 306.023L201.146 276.184L167.081 295.721ZM217.799 279.459L144.733 186.175C157.935 206.868 195.963 262.304 197.794 264.92H197.831L197.876 264.953L217.799 279.459ZM127.832 196.089L57.6317 281.495L75.757 266.759L127.832 196.089ZM56.6339 283.124L67.8612 306.072L73.514 277.361L56.6339 283.124ZM81.113 331.986L94.5792 318.077L68.2653 307.351L81.113 331.986ZM95.1853 317.813L137.328 312.218L109.146 296.182L95.1853 317.813ZM138.326 312.214L180.885 317.04L180.922 317.077L195.716 330.505L206.778 306.389L180.947 317.056L166.804 295.882L138.326 312.214ZM225.019 288.678C223.102 292.607 214.105 314.851 210.662 323.4L226.742 299.58L226.227 290.217L225.019 288.678ZM52.3458 287.925C53.9538 286.206 55.599 284.038 56.1432 283.309L52.3458 287.925ZM50.1564 290.587L50.1069 291.299L66.9706 305.007L56.4277 283.458C55.7103 284.428 52.8035 288.275 50.7543 289.855L50.1564 290.587ZM67.4283 329.555C65.5811 325.831 53.5168 299.72 50.0492 292.212L49.2617 303.999L67.4283 329.555ZM139.893 351.753L182.06 345.225L181.965 344.978C182.909 344.612 191.852 334.964 195.501 330.966L195.571 330.809L180.741 317.344L137.86 312.482L137.827 312.502L137.786 312.482L94.9544 318.167L94.9214 318.216L94.8966 318.208L81.4676 332.085L92.6784 343.345L92.4475 343.571L81.2573 332.327L81.0676 332.356C80.9852 332.368 71.6916 330.962 68.6281 330.279L98.1292 346.767L139.893 351.753Z" fill="#E9EEF1"/>
</g>
<path d="M3.854 13H5.52V8.996H8.11C10.028 8.996 11.414 8.086 11.414 5.986C11.414 3.886 10.028 2.99 8.11 2.99H3.854V13ZM5.52 4.404H8.04C9.16 4.404 9.748 4.894 9.748 5.986C9.748 7.092 9.16 7.568 8.04 7.568H5.52V4.404ZM15.77 5.678C14.832 5.678 14.244 6.294 13.866 7.19H13.838V5.846H12.368V13H13.838V9.346C13.838 7.82 14.972 6.868 16.386 7.106H16.414V5.72C16.204 5.692 16.022 5.678 15.77 5.678ZM20.3458 13.21C18.1058 13.21 16.7478 11.656 16.7478 9.43C16.7478 7.204 18.1058 5.65 20.3458 5.65C22.5858 5.65 23.9438 7.204 23.9438 9.43C23.9438 11.656 22.5858 13.21 20.3458 13.21ZM20.3458 12.006C21.7458 12.006 22.4738 10.9 22.4738 9.43C22.4738 7.946 21.7458 6.854 20.3458 6.854C18.9458 6.854 18.2178 7.946 18.2178 9.43C18.2178 10.9 18.9458 12.006 20.3458 12.006ZM28.6418 5.65C27.5358 5.65 26.8358 6.168 26.4578 6.714H26.4298V2.99H24.9598V13H26.4298V12.174H26.4578C26.8358 12.664 27.5358 13.21 28.6418 13.21C30.4758 13.21 31.8338 11.782 31.8338 9.43C31.8338 7.078 30.4758 5.65 28.6418 5.65ZM28.3898 12.006C27.1858 12.006 26.4438 11.012 26.4438 9.43C26.4438 7.834 27.1858 6.854 28.3898 6.854C29.6778 6.854 30.3638 8.03 30.3638 9.43C30.3638 10.83 29.6778 12.006 28.3898 12.006ZM32.8901 2.99V13H34.3741V2.99H32.8901ZM38.9656 12.006C37.6636 12.006 36.8936 11.012 36.8936 9.808H42.3816C42.3816 7.26 41.2476 5.65 38.9376 5.65C36.7816 5.65 35.4236 7.106 35.4236 9.43C35.4236 11.67 36.7816 13.21 39.0076 13.21C40.8416 13.21 41.9056 12.174 42.2696 10.816H40.7996C40.6736 11.25 40.1836 12.006 38.9656 12.006ZM38.9376 6.812C40.1276 6.812 40.9116 7.61 40.9116 8.716H36.8936C36.8936 7.61 37.7476 6.812 38.9376 6.812ZM51.2855 5.65C50.1795 5.65 49.4795 6.196 48.9475 6.882H48.9195C48.6255 6.112 48.0235 5.65 47.0155 5.65C45.9375 5.65 45.2655 6.21 44.8875 6.77H44.8595V5.846H43.3895V13H44.8595V8.646C44.8595 7.582 45.4895 6.896 46.4695 6.896C47.4915 6.896 47.6875 7.512 47.6875 8.478V13H49.1715V8.646C49.1715 7.582 49.7875 6.896 50.7815 6.896C51.7895 6.896 51.9855 7.512 51.9855 8.478V13H53.4695V8.058C53.4695 6.518 52.7275 5.65 51.2855 5.65Z" fill="#E9EEF1"/>
<path opacity="0.8" d="M335 12H206" stroke="#E9EEF1"/>
<path opacity="0.8" d="M335 96H216" stroke="#E9EEF1"/>
<path opacity="0.8" d="M335 180L159 180" stroke="#E9EEF1"/>
<path opacity="0.8" d="M335 264H216" stroke="#E9EEF1"/>
<path opacity="0.8" d="M335 348H206" stroke="#E9EEF1"/>
<path d="M8.648 334.036C7.248 333.686 6.31 333.49 6.31 332.398C6.31 331.656 7.024 331.208 8.214 331.208C9.6 331.208 10.328 331.824 10.482 332.986H12.148C12.008 330.928 10.412 329.78 8.214 329.78C6.03 329.78 4.658 330.774 4.658 332.552C4.658 334.456 6.352 335.058 7.92 335.45C9.894 335.94 10.748 336.164 10.748 337.354C10.748 338.124 10.174 338.782 8.69 338.782C6.898 338.782 6.03 337.942 5.946 336.668H4.28C4.378 338.936 6.24 340.21 8.69 340.21C11.21 340.21 12.414 338.88 12.414 337.284C12.414 335.044 10.79 334.582 8.648 334.036ZM16.8067 340.21C14.5667 340.21 13.2087 338.656 13.2087 336.43C13.2087 334.204 14.5667 332.65 16.8067 332.65C19.0467 332.65 20.4047 334.204 20.4047 336.43C20.4047 338.656 19.0467 340.21 16.8067 340.21ZM16.8067 339.006C18.2067 339.006 18.9347 337.9 18.9347 336.43C18.9347 334.946 18.2067 333.854 16.8067 333.854C15.4067 333.854 14.6787 334.946 14.6787 336.43C14.6787 337.9 15.4067 339.006 16.8067 339.006ZM21.4487 329.99V340H22.9327V329.99H21.4487ZM29.0642 332.846V337.2C29.0642 338.264 28.3362 338.95 27.2022 338.95C26.1942 338.95 25.7882 338.334 25.7882 337.368V332.846H24.3042V337.788C24.3042 339.426 25.3542 340.196 26.6842 340.196C27.9162 340.196 28.6582 339.636 29.0362 339.076H29.0642V340H30.5342V332.846H29.0642ZM35.3504 334.05V332.846H34.0064V330.592H32.5224V332.846H31.4864V334.05H32.5224V338.054C32.5224 339.566 33.1664 340.098 34.3424 340.098C34.7344 340.098 35.0564 340.056 35.3504 339.986V338.782C34.3984 338.838 34.0064 338.74 34.0064 337.928V334.05H35.3504ZM37.2448 331.642C37.6788 331.642 38.0848 331.362 38.0848 330.858C38.0848 330.354 37.6788 330.088 37.2448 330.088C36.8388 330.088 36.4188 330.354 36.4188 330.858C36.4188 331.362 36.8388 331.642 37.2448 331.642ZM36.5168 332.846V340H37.9868V332.846H36.5168ZM42.7013 340.21C40.4613 340.21 39.1033 338.656 39.1033 336.43C39.1033 334.204 40.4613 332.65 42.7013 332.65C44.9413 332.65 46.2993 334.204 46.2993 336.43C46.2993 338.656 44.9413 340.21 42.7013 340.21ZM42.7013 339.006C44.1013 339.006 44.8293 337.9 44.8293 336.43C44.8293 334.946 44.1013 333.854 42.7013 333.854C41.3013 333.854 40.5733 334.946 40.5733 336.43C40.5733 337.9 41.3013 339.006 42.7013 339.006ZM51.1652 332.65C49.9332 332.65 49.1912 333.21 48.8132 333.77H48.7852V332.846H47.3152V340H48.7852V335.646C48.7852 334.582 49.5132 333.896 50.6472 333.896C51.6552 333.896 52.0612 334.512 52.0612 335.478V340H53.5452V335.058C53.5452 333.42 52.4952 332.65 51.1652 332.65Z" fill="#E9EEF1"/>
<path d="M0.854 183H2.52V178.996H5.11C7.028 178.996 8.414 178.086 8.414 175.986C8.414 173.886 7.028 172.99 5.11 172.99H0.854V183ZM2.52 174.404H5.04C6.16 174.404 6.748 174.894 6.748 175.986C6.748 177.092 6.16 177.568 5.04 177.568H2.52V174.404ZM12.77 175.678C11.832 175.678 11.244 176.294 10.866 177.19H10.838V175.846H9.36797V183H10.838V179.346C10.838 177.82 11.972 176.868 13.386 177.106H13.414V175.72C13.204 175.692 13.022 175.678 12.77 175.678ZM17.3458 183.21C15.1058 183.21 13.7478 181.656 13.7478 179.43C13.7478 177.204 15.1058 175.65 17.3458 175.65C19.5858 175.65 20.9438 177.204 20.9438 179.43C20.9438 181.656 19.5858 183.21 17.3458 183.21ZM17.3458 182.006C18.7458 182.006 19.4738 180.9 19.4738 179.43C19.4738 177.946 18.7458 176.854 17.3458 176.854C15.9458 176.854 15.2178 177.946 15.2178 179.43C15.2178 180.9 15.9458 182.006 17.3458 182.006ZM25.6418 175.65C24.5358 175.65 23.8358 176.168 23.4578 176.714H23.4298V172.99H21.9598V183H23.4298V182.174H23.4578C23.8358 182.664 24.5358 183.21 25.6418 183.21C27.4758 183.21 28.8338 181.782 28.8338 179.43C28.8338 177.078 27.4758 175.65 25.6418 175.65ZM25.3898 182.006C24.1858 182.006 23.4438 181.012 23.4438 179.43C23.4438 177.834 24.1858 176.854 25.3898 176.854C26.6778 176.854 27.3638 178.03 27.3638 179.43C27.3638 180.83 26.6778 182.006 25.3898 182.006ZM29.8901 172.99V183H31.3741V172.99H29.8901ZM35.9656 182.006C34.6636 182.006 33.8936 181.012 33.8936 179.808H39.3816C39.3816 177.26 38.2476 175.65 35.9376 175.65C33.7816 175.65 32.4236 177.106 32.4236 179.43C32.4236 181.67 33.7816 183.21 36.0076 183.21C37.8416 183.21 38.9056 182.174 39.2696 180.816H37.7996C37.6736 181.25 37.1836 182.006 35.9656 182.006ZM35.9376 176.812C37.1276 176.812 37.9116 177.61 37.9116 178.716H33.8936C33.8936 177.61 34.7476 176.812 35.9376 176.812ZM48.2855 175.65C47.1795 175.65 46.4795 176.196 45.9475 176.882H45.9195C45.6255 176.112 45.0235 175.65 44.0155 175.65C42.9375 175.65 42.2655 176.21 41.8875 176.77H41.8595V175.846H40.3895V183H41.8595V178.646C41.8595 177.582 42.4895 176.896 43.4695 176.896C44.4915 176.896 44.6875 177.512 44.6875 178.478V183H46.1715V178.646C46.1715 177.582 46.7875 176.896 47.7815 176.896C48.7895 176.896 48.9855 177.512 48.9855 178.478V183H50.4695V178.058C50.4695 176.518 49.7275 175.65 48.2855 175.65ZM59.5248 172.99V176.714H59.4968C59.1188 176.168 58.4188 175.65 57.3128 175.65C55.4788 175.65 54.1208 177.078 54.1208 179.43C54.1208 181.782 55.4788 183.21 57.3128 183.21C58.4188 183.21 59.1188 182.664 59.4968 182.174H59.5248V183H60.9948V172.99H59.5248ZM57.5648 182.006C56.2768 182.006 55.5908 180.83 55.5908 179.43C55.5908 178.03 56.2768 176.854 57.5648 176.854C58.7688 176.854 59.5108 177.834 59.5108 179.43C59.5108 181.012 58.7688 182.006 57.5648 182.006ZM65.5652 182.006C64.2632 182.006 63.4932 181.012 63.4932 179.808H68.9812C68.9812 177.26 67.8472 175.65 65.5372 175.65C63.3812 175.65 62.0232 177.106 62.0232 179.43C62.0232 181.67 63.3812 183.21 65.6072 183.21C67.4412 183.21 68.5052 182.174 68.8692 180.816H67.3992C67.2732 181.25 66.7832 182.006 65.5652 182.006ZM65.5372 176.812C66.7272 176.812 67.5112 177.61 67.5112 178.716H63.4932C63.4932 177.61 64.3472 176.812 65.5372 176.812ZM73.2263 174.194V172.99C72.9323 172.934 72.6103 172.892 72.2463 172.892C71.0703 172.892 70.4263 173.424 70.4263 174.936V175.846H69.4043V177.05H70.4263V183H71.9103V177.05H73.2263V175.846H71.9103V175.062C71.9103 174.25 72.2743 174.152 73.2263 174.194ZM75.026 174.642C75.46 174.642 75.866 174.362 75.866 173.858C75.866 173.354 75.46 173.088 75.026 173.088C74.62 173.088 74.2 173.354 74.2 173.858C74.2 174.362 74.62 174.642 75.026 174.642ZM74.298 175.846V183H75.768V175.846H74.298ZM81.1125 175.65C79.8805 175.65 79.1385 176.21 78.7605 176.77H78.7325V175.846H77.2625V183H78.7325V178.646C78.7325 177.582 79.4605 176.896 80.5945 176.896C81.6025 176.896 82.0085 177.512 82.0085 178.478V183H83.4925V178.058C83.4925 176.42 82.4425 175.65 81.1125 175.65ZM88.116 177.05V175.846H86.772V173.592H85.288V175.846H84.252V177.05H85.288V181.054C85.288 182.566 85.932 183.098 87.108 183.098C87.5 183.098 87.822 183.056 88.116 182.986V181.782C87.164 181.838 86.772 181.74 86.772 180.928V177.05H88.116ZM90.0104 174.642C90.4444 174.642 90.8504 174.362 90.8504 173.858C90.8504 173.354 90.4444 173.088 90.0104 173.088C89.6044 173.088 89.1844 173.354 89.1844 173.858C89.1844 174.362 89.6044 174.642 90.0104 174.642ZM89.2824 175.846V183H90.7524V175.846H89.2824ZM95.4669 183.21C93.2269 183.21 91.8689 181.656 91.8689 179.43C91.8689 177.204 93.2269 175.65 95.4669 175.65C97.7069 175.65 99.0649 177.204 99.0649 179.43C99.0649 181.656 97.7069 183.21 95.4669 183.21ZM95.4669 182.006C96.8669 182.006 97.5949 180.9 97.5949 179.43C97.5949 177.946 96.8669 176.854 95.4669 176.854C94.0669 176.854 93.3389 177.946 93.3389 179.43C93.3389 180.9 94.0669 182.006 95.4669 182.006ZM103.931 175.65C102.699 175.65 101.957 176.21 101.579 176.77H101.551V175.846H100.081V183H101.551V178.646C101.551 177.582 102.279 176.896 103.413 176.896C104.421 176.896 104.827 177.512 104.827 178.478V183H106.311V178.058C106.311 176.42 105.261 175.65 103.931 175.65Z" fill="#E9EEF1"/>
<path d="M237.854 45H241.788C244.56 45 246.198 43.222 246.198 40.002C246.198 36.782 244.504 34.99 241.746 34.99H237.854V45ZM239.52 36.404H241.662C243.902 36.404 244.532 38.084 244.532 40.002C244.532 41.92 243.902 43.586 241.662 43.586H239.52V36.404ZM248.206 36.642C248.64 36.642 249.046 36.362 249.046 35.858C249.046 35.354 248.64 35.088 248.206 35.088C247.8 35.088 247.38 35.354 247.38 35.858C247.38 36.362 247.8 36.642 248.206 36.642ZM247.478 37.846V45H248.948V37.846H247.478ZM253.536 40.674C252.5 40.436 251.702 40.38 251.702 39.652C251.702 39.148 252.178 38.812 253.06 38.812C254.208 38.812 254.488 39.386 254.586 39.946H256.014C255.916 38.7 254.992 37.65 253.046 37.65C251.254 37.65 250.218 38.588 250.218 39.764C250.218 41.388 251.758 41.612 252.892 41.878C253.942 42.13 254.796 42.2 254.796 43.096C254.796 43.544 254.362 44.048 253.34 44.048C251.828 44.048 251.492 43.39 251.422 42.62H249.994C250.064 44.132 251.058 45.21 253.368 45.21C255.104 45.21 256.28 44.356 256.28 42.984C256.28 41.276 254.852 40.982 253.536 40.674ZM262.302 40.464H263.772C263.59 38.84 262.372 37.65 260.51 37.65C258.382 37.65 256.996 39.19 256.996 41.43C256.996 43.67 258.382 45.21 260.524 45.21C262.386 45.21 263.66 43.992 263.772 42.34H262.302C262.246 43.138 261.784 44.006 260.524 44.006C259.068 44.006 258.466 42.774 258.466 41.43C258.466 40.086 259.082 38.854 260.524 38.854C261.784 38.854 262.246 39.736 262.302 40.464ZM267.963 45.21C265.723 45.21 264.365 43.656 264.365 41.43C264.365 39.204 265.723 37.65 267.963 37.65C270.203 37.65 271.561 39.204 271.561 41.43C271.561 43.656 270.203 45.21 267.963 45.21ZM267.963 44.006C269.363 44.006 270.091 42.9 270.091 41.43C270.091 39.946 269.363 38.854 267.963 38.854C266.563 38.854 265.835 39.946 265.835 41.43C265.835 42.9 266.563 44.006 267.963 44.006ZM271.699 37.846L274.233 45H275.899L278.433 37.846H276.879L275.073 43.446H275.059L273.253 37.846H271.699ZM282.126 44.006C280.824 44.006 280.054 43.012 280.054 41.808H285.542C285.542 39.26 284.408 37.65 282.098 37.65C279.942 37.65 278.584 39.106 278.584 41.43C278.584 43.67 279.942 45.21 282.168 45.21C284.002 45.21 285.066 44.174 285.43 42.816H283.96C283.834 43.25 283.344 44.006 282.126 44.006ZM282.098 38.812C283.288 38.812 284.072 39.61 284.072 40.716H280.054C280.054 39.61 280.908 38.812 282.098 38.812ZM289.952 37.678C289.014 37.678 288.426 38.294 288.048 39.19H288.02V37.846H286.55V45H288.02V41.346C288.02 39.82 289.154 38.868 290.568 39.106H290.596V37.72C290.386 37.692 290.204 37.678 289.952 37.678Z" fill="#E9EEF1"/>
<path d="M237.69 53.85V61H238.59V53.85H237.69ZM242.425 55.76C241.555 55.76 241.015 56.15 240.745 56.51H240.725V55.9H239.925V61H240.725V57.82C240.725 57.03 241.325 56.46 242.225 56.46C243.025 56.46 243.335 56.98 243.335 57.64V61H244.135V57.44C244.135 56.27 243.355 55.76 242.425 55.76ZM247.379 57.97C246.669 57.8 245.979 57.75 245.979 57.15C245.979 56.75 246.369 56.46 247.089 56.46C248.049 56.46 248.239 56.97 248.319 57.36H249.119C249.039 56.48 248.359 55.76 247.089 55.76C245.889 55.76 245.179 56.41 245.179 57.21C245.179 58.41 246.339 58.5 247.119 58.69C247.849 58.87 248.519 58.91 248.519 59.65C248.519 59.99 248.179 60.44 247.309 60.44C246.029 60.44 245.829 59.87 245.779 59.3H244.979C245.029 60.4 245.749 61.14 247.309 61.14C248.469 61.14 249.319 60.53 249.319 59.6C249.319 58.34 248.289 58.19 247.379 57.97ZM250.694 54.91C250.924 54.91 251.194 54.74 251.194 54.43C251.194 54.12 250.924 53.95 250.694 53.95C250.474 53.95 250.194 54.12 250.194 54.43C250.194 54.74 250.474 54.91 250.694 54.91ZM250.294 55.9V61H251.094V55.9H250.294ZM256.023 55.9V56.53H256.003C255.703 56.14 255.223 55.76 254.383 55.76C253.123 55.76 252.103 56.57 252.103 58.25C252.103 59.93 253.123 60.74 254.383 60.74C255.223 60.74 255.703 60.38 256.003 59.94H256.023V60.71C256.023 61.66 255.473 62.07 254.523 62.07C253.573 62.07 253.153 61.68 253.053 61.16H252.253C252.333 62.03 253.163 62.77 254.563 62.77C255.963 62.77 256.823 62.08 256.823 60.72V55.9H256.023ZM254.483 60.04C253.433 60.04 252.903 59.25 252.903 58.25C252.903 57.25 253.433 56.46 254.483 56.46C255.433 56.46 256.023 57.05 256.023 58.25C256.023 59.45 255.433 60.04 254.483 60.04ZM260.521 55.76C259.651 55.76 259.111 56.15 258.841 56.51H258.821V53.85H258.021V61H258.821V57.82C258.821 57.03 259.421 56.46 260.321 56.46C261.121 56.46 261.431 56.98 261.431 57.64V61H262.231V57.44C262.231 56.27 261.451 55.76 260.521 55.76ZM265.526 56.6V55.9H264.526V54.2H263.726V55.9H262.976V56.6H263.726V59.75C263.726 60.79 264.246 61.06 264.926 61.06C265.136 61.06 265.346 61.04 265.526 61V60.3C264.846 60.35 264.526 60.25 264.526 59.67V56.6H265.526ZM269.065 54.91C269.295 54.91 269.565 54.74 269.565 54.43C269.565 54.12 269.295 53.95 269.065 53.95C268.845 53.95 268.565 54.12 268.565 54.43C268.565 54.74 268.845 54.91 269.065 54.91ZM268.665 55.9V61H269.465V55.9H268.665ZM273.264 55.76C272.394 55.76 271.854 56.15 271.584 56.51H271.564V55.9H270.764V61H271.564V57.82C271.564 57.03 272.164 56.46 273.064 56.46C273.864 56.46 274.174 56.98 274.174 57.64V61H274.974V57.44C274.974 56.27 274.194 55.76 273.264 55.76ZM278.27 56.6V55.9H277.27V54.2H276.47V55.9H275.72V56.6H276.47V59.75C276.47 60.79 276.99 61.06 277.67 61.06C277.88 61.06 278.09 61.04 278.27 61V60.3C277.59 60.35 277.27 60.25 277.27 59.67V56.6H278.27ZM281.368 61.14C279.808 61.14 278.868 60.04 278.868 58.45C278.868 56.86 279.808 55.76 281.368 55.76C282.918 55.76 283.858 56.86 283.858 58.45C283.858 60.04 282.918 61.14 281.368 61.14ZM281.368 60.44C282.508 60.44 283.058 59.54 283.058 58.45C283.058 57.36 282.508 56.46 281.368 56.46C280.218 56.46 279.668 57.36 279.668 58.45C279.668 59.54 280.218 60.44 281.368 60.44ZM289.088 56.6V55.9H288.088V54.2H287.288V55.9H286.538V56.6H287.288V59.75C287.288 60.79 287.808 61.06 288.488 61.06C288.698 61.06 288.908 61.04 289.088 61V60.3C288.408 60.35 288.088 60.25 288.088 59.67V56.6H289.088ZM292.524 55.76C291.654 55.76 291.114 56.15 290.844 56.51H290.824V53.85H290.024V61H290.824V57.82C290.824 57.03 291.424 56.46 292.324 56.46C293.124 56.46 293.434 56.98 293.434 57.64V61H294.234V57.44C294.234 56.27 293.454 55.76 292.524 55.76ZM297.577 60.44C296.467 60.44 295.917 59.58 295.917 58.66H299.947C299.947 56.85 299.167 55.76 297.567 55.76C296.077 55.76 295.117 56.75 295.117 58.45C295.117 60.05 296.057 61.14 297.607 61.14C298.877 61.14 299.607 60.38 299.867 59.43H299.067C298.977 59.78 298.597 60.44 297.577 60.44ZM297.567 56.46C298.527 56.46 299.147 57.14 299.147 57.96H295.917C295.917 57.14 296.607 56.46 297.567 56.46ZM239.99 68.76C239.15 68.76 238.67 69.14 238.37 69.53H238.35V68.9H237.55V75.72H238.35V73.34H238.37C238.67 73.78 239.15 74.14 239.99 74.14C241.25 74.14 242.27 73.13 242.27 71.45C242.27 69.77 241.25 68.76 239.99 68.76ZM239.89 73.44C238.94 73.44 238.35 72.65 238.35 71.45C238.35 70.25 238.94 69.46 239.89 69.46C240.94 69.46 241.47 70.45 241.47 71.45C241.47 72.45 240.94 73.44 239.89 73.44ZM245.437 68.76C244.707 68.76 244.297 69.24 244.027 69.91H244.007V68.9H243.207V74H244.007V71.28C244.007 70.19 244.777 69.41 245.887 69.59H245.907V68.79C245.767 68.77 245.627 68.76 245.437 68.76ZM248.749 74.14C247.189 74.14 246.249 73.04 246.249 71.45C246.249 69.86 247.189 68.76 248.749 68.76C250.299 68.76 251.239 69.86 251.239 71.45C251.239 73.04 250.299 74.14 248.749 74.14ZM248.749 73.44C249.889 73.44 250.439 72.54 250.439 71.45C250.439 70.36 249.889 69.46 248.749 69.46C247.599 69.46 247.049 70.36 247.049 71.45C247.049 72.54 247.599 73.44 248.749 73.44ZM254.567 68.76C253.747 68.76 253.267 69.12 252.967 69.56H252.947V66.85H252.147V74H252.947V73.37H252.967C253.267 73.76 253.747 74.14 254.567 74.14C255.847 74.14 256.867 73.13 256.867 71.45C256.867 69.77 255.847 68.76 254.567 68.76ZM254.487 73.44C253.537 73.44 252.947 72.65 252.947 71.45C252.947 70.25 253.537 69.46 254.487 69.46C255.537 69.46 256.067 70.45 256.067 71.45C256.067 72.45 255.537 73.44 254.487 73.44ZM257.804 66.85V74H258.604V66.85H257.804ZM262.007 73.44C260.897 73.44 260.347 72.58 260.347 71.66H264.377C264.377 69.85 263.597 68.76 261.997 68.76C260.507 68.76 259.547 69.75 259.547 71.45C259.547 73.05 260.487 74.14 262.037 74.14C263.307 74.14 264.037 73.38 264.297 72.43H263.497C263.407 72.78 263.027 73.44 262.007 73.44ZM261.997 69.46C262.957 69.46 263.577 70.14 263.577 70.96H260.347C260.347 70.14 261.037 69.46 261.997 69.46ZM270.599 68.76C269.829 68.76 269.299 69.16 268.949 69.64H268.929C268.719 69.07 268.299 68.76 267.569 68.76C266.799 68.76 266.359 69.15 266.089 69.51H266.069V68.9H265.269V74H266.069V70.82C266.069 70.03 266.569 69.46 267.369 69.46C268.169 69.46 268.299 69.98 268.299 70.64V74H269.099V70.82C269.099 70.03 269.599 69.46 270.399 69.46C271.199 69.46 271.329 69.98 271.329 70.64V74H272.129V70.44C272.129 69.37 271.629 68.76 270.599 68.76Z" fill="#91999E"/>
<path d="M237.854 129H241.788C244.56 129 246.198 127.222 246.198 124.002C246.198 120.782 244.504 118.99 241.746 118.99H237.854V129ZM239.52 120.404H241.662C243.902 120.404 244.532 122.084 244.532 124.002C244.532 125.92 243.902 127.586 241.662 127.586H239.52V120.404ZM250.544 128.006C249.242 128.006 248.472 127.012 248.472 125.808H253.96C253.96 123.26 252.826 121.65 250.516 121.65C248.36 121.65 247.002 123.106 247.002 125.43C247.002 127.67 248.36 129.21 250.586 129.21C252.42 129.21 253.484 128.174 253.848 126.816H252.378C252.252 127.25 251.762 128.006 250.544 128.006ZM250.516 122.812C251.706 122.812 252.49 123.61 252.49 124.716H248.472C248.472 123.61 249.326 122.812 250.516 122.812ZM258.205 120.194V118.99C257.911 118.934 257.589 118.892 257.225 118.892C256.049 118.892 255.405 119.424 255.405 120.936V121.846H254.383V123.05H255.405V129H256.889V123.05H258.205V121.846H256.889V121.062C256.889 120.25 257.253 120.152 258.205 120.194ZM260.005 120.642C260.439 120.642 260.845 120.362 260.845 119.858C260.845 119.354 260.439 119.088 260.005 119.088C259.599 119.088 259.179 119.354 259.179 119.858C259.179 120.362 259.599 120.642 260.005 120.642ZM259.277 121.846V129H260.747V121.846H259.277ZM266.091 121.65C264.859 121.65 264.117 122.21 263.739 122.77H263.711V121.846H262.241V129H263.711V124.646C263.711 123.582 264.439 122.896 265.573 122.896C266.581 122.896 266.987 123.512 266.987 124.478V129H268.471V124.058C268.471 122.42 267.421 121.65 266.091 121.65ZM272.979 128.006C271.677 128.006 270.907 127.012 270.907 125.808H276.395C276.395 123.26 275.261 121.65 272.951 121.65C270.795 121.65 269.437 123.106 269.437 125.43C269.437 127.67 270.795 129.21 273.021 129.21C274.855 129.21 275.919 128.174 276.283 126.816H274.813C274.687 127.25 274.197 128.006 272.979 128.006ZM272.951 122.812C274.141 122.812 274.925 123.61 274.925 124.716H270.907C270.907 123.61 271.761 122.812 272.951 122.812Z" fill="#E9EEF1"/>
<path d="M240.24 140.83C239.19 140.57 238.42 140.44 238.42 139.49C238.42 138.9 238.96 138.51 239.97 138.51C241.1 138.51 241.64 139.01 241.77 139.97H242.67C242.55 138.49 241.49 137.71 239.97 137.71C238.39 137.71 237.52 138.46 237.52 139.59C237.52 140.98 238.8 141.35 239.87 141.6C241.47 141.97 242 142.15 242 143.13C242 143.77 241.56 144.34 240.32 144.34C238.82 144.34 238.22 143.58 238.12 142.6H237.22C237.32 144.24 238.63 145.14 240.32 145.14C242.13 145.14 242.9 144.17 242.9 143.13C242.9 141.5 241.85 141.23 240.24 140.83ZM247.53 141.74H248.33C248.21 140.6 247.35 139.76 246.09 139.76C244.6 139.76 243.62 140.85 243.62 142.45C243.62 144.05 244.6 145.14 246.09 145.14C247.35 145.14 248.26 144.28 248.33 143.12H247.53C247.49 143.73 247.12 144.44 246.09 144.44C244.88 144.44 244.42 143.41 244.42 142.45C244.42 141.49 244.88 140.46 246.09 140.46C247.11 140.46 247.49 141.18 247.53 141.74ZM251.405 145.14C249.845 145.14 248.905 144.04 248.905 142.45C248.905 140.86 249.845 139.76 251.405 139.76C252.955 139.76 253.895 140.86 253.895 142.45C253.895 144.04 252.955 145.14 251.405 145.14ZM251.405 144.44C252.545 144.44 253.095 143.54 253.095 142.45C253.095 141.36 252.545 140.46 251.405 140.46C250.255 140.46 249.705 141.36 249.705 142.45C249.705 143.54 250.255 144.44 251.405 144.44ZM257.243 139.76C256.403 139.76 255.923 140.14 255.623 140.53H255.603V139.9H254.803V146.72H255.603V144.34H255.623C255.923 144.78 256.403 145.14 257.243 145.14C258.503 145.14 259.523 144.13 259.523 142.45C259.523 140.77 258.503 139.76 257.243 139.76ZM257.143 144.44C256.193 144.44 255.603 143.65 255.603 142.45C255.603 141.25 256.193 140.46 257.143 140.46C258.193 140.46 258.723 141.45 258.723 142.45C258.723 143.45 258.193 144.44 257.143 144.44ZM262.63 144.44C261.52 144.44 260.97 143.58 260.97 142.66H265C265 140.85 264.22 139.76 262.62 139.76C261.13 139.76 260.17 140.75 260.17 142.45C260.17 144.05 261.11 145.14 262.66 145.14C263.93 145.14 264.66 144.38 264.92 143.43H264.12C264.03 143.78 263.65 144.44 262.63 144.44ZM262.62 140.46C263.58 140.46 264.2 141.14 264.2 141.96H260.97C260.97 141.14 261.66 140.46 262.62 140.46ZM271.624 137.85V140.56H271.604C271.304 140.12 270.824 139.76 270.004 139.76C268.724 139.76 267.704 140.77 267.704 142.45C267.704 144.13 268.724 145.14 270.004 145.14C270.824 145.14 271.304 144.76 271.604 144.37H271.624V145H272.424V137.85H271.624ZM270.084 144.44C269.034 144.44 268.504 143.45 268.504 142.45C268.504 141.45 269.034 140.46 270.084 140.46C271.034 140.46 271.624 141.25 271.624 142.45C271.624 143.65 271.034 144.44 270.084 144.44ZM275.831 145.14C274.271 145.14 273.331 144.04 273.331 142.45C273.331 140.86 274.271 139.76 275.831 139.76C277.381 139.76 278.321 140.86 278.321 142.45C278.321 144.04 277.381 145.14 275.831 145.14ZM275.831 144.44C276.971 144.44 277.521 143.54 277.521 142.45C277.521 141.36 276.971 140.46 275.831 140.46C274.681 140.46 274.131 141.36 274.131 142.45C274.131 143.54 274.681 144.44 275.831 144.44ZM278.621 139.9L280.251 145H281.101L282.231 140.79H282.251L283.401 145H284.251L285.881 139.9H285.001L283.841 144.13H283.821L282.671 139.9H281.821L280.681 144.13H280.661L279.501 139.9H278.621ZM289.075 139.76C288.205 139.76 287.665 140.15 287.395 140.51H287.375V139.9H286.575V145H287.375V141.82C287.375 141.03 287.975 140.46 288.875 140.46C289.675 140.46 289.985 140.98 289.985 141.64V145H290.785V141.44C290.785 140.27 290.005 139.76 289.075 139.76ZM296.28 140.6V139.9H295.28V138.2H294.48V139.9H293.73V140.6H294.48V143.75C294.48 144.79 295 145.06 295.68 145.06C295.89 145.06 296.1 145.04 296.28 145V144.3C295.6 144.35 295.28 144.25 295.28 143.67V140.6H296.28ZM299.717 139.76C298.847 139.76 298.307 140.15 298.037 140.51H298.017V137.85H297.217V145H298.017V141.82C298.017 141.03 298.617 140.46 299.517 140.46C300.317 140.46 300.627 140.98 300.627 141.64V145H301.427V141.44C301.427 140.27 300.647 139.76 299.717 139.76ZM304.77 144.44C303.66 144.44 303.11 143.58 303.11 142.66H307.14C307.14 140.85 306.36 139.76 304.76 139.76C303.27 139.76 302.31 140.75 302.31 142.45C302.31 144.05 303.25 145.14 304.8 145.14C306.07 145.14 306.8 144.38 307.06 143.43H306.26C306.17 143.78 305.79 144.44 304.77 144.44ZM304.76 140.46C305.72 140.46 306.34 141.14 306.34 141.96H303.11C303.11 141.14 303.8 140.46 304.76 140.46ZM239.7 151.55V150.85C239.52 150.81 239.31 150.79 239.13 150.79C238.45 150.79 237.93 151.06 237.93 152.1V152.9H237.22V153.6H237.93V158H238.73V153.6H239.7V152.9H238.73V152.18C238.73 151.6 239.02 151.5 239.7 151.55ZM242.643 158.14C241.083 158.14 240.143 157.04 240.143 155.45C240.143 153.86 241.083 152.76 242.643 152.76C244.193 152.76 245.133 153.86 245.133 155.45C245.133 157.04 244.193 158.14 242.643 158.14ZM242.643 157.44C243.783 157.44 244.333 156.54 244.333 155.45C244.333 154.36 243.783 153.46 242.643 153.46C241.493 153.46 240.943 154.36 240.943 155.45C240.943 156.54 241.493 157.44 242.643 157.44ZM249.661 154.74H250.461C250.341 153.6 249.481 152.76 248.221 152.76C246.731 152.76 245.751 153.85 245.751 155.45C245.751 157.05 246.731 158.14 248.221 158.14C249.481 158.14 250.391 157.28 250.461 156.12H249.661C249.621 156.73 249.251 157.44 248.221 157.44C247.011 157.44 246.551 156.41 246.551 155.45C246.551 154.49 247.011 153.46 248.221 153.46C249.241 153.46 249.621 154.18 249.661 154.74ZM254.707 152.9V156.08C254.707 156.87 254.107 157.44 253.207 157.44C252.407 157.44 252.097 156.92 252.097 156.26V152.9H251.297V156.46C251.297 157.63 252.077 158.14 253.007 158.14C253.877 158.14 254.417 157.75 254.687 157.39H254.707V158H255.507V152.9H254.707ZM258.78 154.97C258.07 154.8 257.38 154.75 257.38 154.15C257.38 153.75 257.77 153.46 258.49 153.46C259.45 153.46 259.64 153.97 259.72 154.36H260.52C260.44 153.48 259.76 152.76 258.49 152.76C257.29 152.76 256.58 153.41 256.58 154.21C256.58 155.41 257.74 155.5 258.52 155.69C259.25 155.87 259.92 155.91 259.92 156.65C259.92 156.99 259.58 157.44 258.71 157.44C257.43 157.44 257.23 156.87 257.18 156.3H256.38C256.43 157.4 257.15 158.14 258.71 158.14C259.87 158.14 260.72 157.53 260.72 156.6C260.72 155.34 259.69 155.19 258.78 154.97Z" fill="#91999E"/>
<path d="M237.854 213H241.788C244.56 213 246.198 211.222 246.198 208.002C246.198 204.782 244.504 202.99 241.746 202.99H237.854V213ZM239.52 204.404H241.662C243.902 204.404 244.532 206.084 244.532 208.002C244.532 209.92 243.902 211.586 241.662 211.586H239.52V204.404ZM250.544 212.006C249.242 212.006 248.472 211.012 248.472 209.808H253.96C253.96 207.26 252.826 205.65 250.516 205.65C248.36 205.65 247.002 207.106 247.002 209.43C247.002 211.67 248.36 213.21 250.586 213.21C252.42 213.21 253.484 212.174 253.848 210.816H252.378C252.252 211.25 251.762 212.006 250.544 212.006ZM250.516 206.812C251.706 206.812 252.49 207.61 252.49 208.716H248.472C248.472 207.61 249.326 206.812 250.516 206.812ZM254.104 205.846L256.638 213H258.304L260.838 205.846H259.284L257.478 211.446H257.464L255.658 205.846H254.104ZM264.53 212.006C263.228 212.006 262.458 211.012 262.458 209.808H267.946C267.946 207.26 266.812 205.65 264.502 205.65C262.346 205.65 260.988 207.106 260.988 209.43C260.988 211.67 262.346 213.21 264.572 213.21C266.406 213.21 267.47 212.174 267.834 210.816H266.364C266.238 211.25 265.748 212.006 264.53 212.006ZM264.502 206.812C265.692 206.812 266.476 207.61 266.476 208.716H262.458C262.458 207.61 263.312 206.812 264.502 206.812ZM268.982 202.99V213H270.466V202.99H268.982ZM275.113 213.21C272.873 213.21 271.515 211.656 271.515 209.43C271.515 207.204 272.873 205.65 275.113 205.65C277.353 205.65 278.711 207.204 278.711 209.43C278.711 211.656 277.353 213.21 275.113 213.21ZM275.113 212.006C276.513 212.006 277.241 210.9 277.241 209.43C277.241 207.946 276.513 206.854 275.113 206.854C273.713 206.854 272.985 207.946 272.985 209.43C272.985 210.9 273.713 212.006 275.113 212.006ZM283.437 205.65C282.317 205.65 281.617 206.182 281.239 206.686H281.211V205.846H279.727V215.436H281.211V212.146H281.239C281.617 212.678 282.317 213.21 283.437 213.21C285.257 213.21 286.615 211.782 286.615 209.43C286.615 207.078 285.257 205.65 283.437 205.65ZM283.157 212.006C281.967 212.006 281.225 211.012 281.225 209.43C281.225 207.834 281.967 206.854 283.157 206.854C284.445 206.854 285.131 208.03 285.131 209.43C285.131 210.83 284.445 212.006 283.157 212.006Z" fill="#E9EEF1"/>
<path d="M237.67 229H238.57V226.01H240.51C241.82 226.01 242.83 225.43 242.83 223.93C242.83 222.43 241.82 221.85 240.51 221.85H237.67V229ZM238.57 222.65H240.61C241.5 222.65 241.93 223.06 241.93 223.93C241.93 224.8 241.5 225.21 240.61 225.21H238.57V222.65ZM245.739 229.14C244.179 229.14 243.239 228.04 243.239 226.45C243.239 224.86 244.179 223.76 245.739 223.76C247.289 223.76 248.229 224.86 248.229 226.45C248.229 228.04 247.289 229.14 245.739 229.14ZM245.739 228.44C246.879 228.44 247.429 227.54 247.429 226.45C247.429 225.36 246.879 224.46 245.739 224.46C244.589 224.46 244.039 225.36 244.039 226.45C244.039 227.54 244.589 228.44 245.739 228.44ZM251.259 224.6V223.9H250.259V222.2H249.459V223.9H248.709V224.6H249.459V227.75C249.459 228.79 249.979 229.06 250.659 229.06C250.869 229.06 251.079 229.04 251.259 229V228.3C250.579 228.35 250.259 228.25 250.259 227.67V224.6H251.259ZM254.317 228.44C253.207 228.44 252.657 227.58 252.657 226.66H256.687C256.687 224.85 255.907 223.76 254.307 223.76C252.817 223.76 251.857 224.75 251.857 226.45C251.857 228.05 252.797 229.14 254.347 229.14C255.617 229.14 256.347 228.38 256.607 227.43H255.807C255.717 227.78 255.337 228.44 254.317 228.44ZM254.307 224.46C255.267 224.46 255.887 225.14 255.887 225.96H252.657C252.657 225.14 253.347 224.46 254.307 224.46ZM260.079 223.76C259.209 223.76 258.669 224.15 258.399 224.51H258.379V223.9H257.579V229H258.379V225.82C258.379 225.03 258.979 224.46 259.879 224.46C260.679 224.46 260.989 224.98 260.989 225.64V229H261.789V225.44C261.789 224.27 261.009 223.76 260.079 223.76ZM265.084 224.6V223.9H264.084V222.2H263.284V223.9H262.534V224.6H263.284V227.75C263.284 228.79 263.804 229.06 264.484 229.06C264.694 229.06 264.904 229.04 265.084 229V228.3C264.404 228.35 264.084 228.25 264.084 227.67V224.6H265.084ZM266.521 222.91C266.751 222.91 267.021 222.74 267.021 222.43C267.021 222.12 266.751 221.95 266.521 221.95C266.301 221.95 266.021 222.12 266.021 222.43C266.021 222.74 266.301 222.91 266.521 222.91ZM266.121 223.9V229H266.921V223.9H266.121ZM271.341 225.2C271.341 225.71 270.951 225.82 270.091 225.98C268.771 226.23 267.911 226.53 267.911 227.69C267.911 228.55 268.561 229.14 269.591 229.14C270.431 229.14 271.001 228.84 271.321 228.36H271.341C271.481 228.92 271.771 229.05 272.251 229.05C272.401 229.05 272.511 229.04 272.721 228.97V228.41C272.211 228.47 272.141 228.25 272.141 227.85V225.37C272.141 224.14 271.271 223.76 270.301 223.76C268.821 223.76 268.211 224.5 268.161 225.48H268.961C269.011 224.74 269.331 224.46 270.301 224.46C271.121 224.46 271.341 224.8 271.341 225.2ZM269.671 228.44C269.011 228.44 268.711 228.15 268.711 227.65C268.711 227.04 269.171 226.79 270.161 226.58C270.701 226.47 271.191 226.33 271.341 226.18V227.03C271.341 228.01 270.621 228.44 269.671 228.44ZM273.448 221.85V229H274.248V221.85H273.448ZM279.653 225.97C278.943 225.8 278.253 225.75 278.253 225.15C278.253 224.75 278.643 224.46 279.363 224.46C280.323 224.46 280.513 224.97 280.593 225.36H281.393C281.313 224.48 280.633 223.76 279.363 223.76C278.163 223.76 277.453 224.41 277.453 225.21C277.453 226.41 278.613 226.5 279.393 226.69C280.123 226.87 280.793 226.91 280.793 227.65C280.793 227.99 280.453 228.44 279.583 228.44C278.303 228.44 278.103 227.87 278.053 227.3H277.253C277.303 228.4 278.023 229.14 279.583 229.14C280.743 229.14 281.593 228.53 281.593 227.6C281.593 226.34 280.563 226.19 279.653 225.97ZM284.776 229.14C283.216 229.14 282.276 228.04 282.276 226.45C282.276 224.86 283.216 223.76 284.776 223.76C286.326 223.76 287.266 224.86 287.266 226.45C287.266 228.04 286.326 229.14 284.776 229.14ZM284.776 228.44C285.916 228.44 286.466 227.54 286.466 226.45C286.466 225.36 285.916 224.46 284.776 224.46C283.626 224.46 283.076 225.36 283.076 226.45C283.076 227.54 283.626 228.44 284.776 228.44ZM288.204 221.85V229H289.004V221.85H288.204ZM293.617 223.9V227.08C293.617 227.87 293.017 228.44 292.117 228.44C291.317 228.44 291.007 227.92 291.007 227.26V223.9H290.207V227.46C290.207 228.63 290.987 229.14 291.917 229.14C292.787 229.14 293.327 228.75 293.597 228.39H293.617V229H294.417V223.9H293.617ZM297.84 224.6V223.9H296.84V222.2H296.04V223.9H295.29V224.6H296.04V227.75C296.04 228.79 296.56 229.06 297.24 229.06C297.45 229.06 297.66 229.04 297.84 229V228.3C297.16 228.35 296.84 228.25 296.84 227.67V224.6H297.84ZM299.277 222.91C299.507 222.91 299.777 222.74 299.777 222.43C299.777 222.12 299.507 221.95 299.277 221.95C299.057 221.95 298.777 222.12 298.777 222.43C298.777 222.74 299.057 222.91 299.277 222.91ZM298.877 223.9V229H299.677V223.9H298.877ZM303.186 229.14C301.626 229.14 300.686 228.04 300.686 226.45C300.686 224.86 301.626 223.76 303.186 223.76C304.736 223.76 305.676 224.86 305.676 226.45C305.676 228.04 304.736 229.14 303.186 229.14ZM303.186 228.44C304.326 228.44 304.876 227.54 304.876 226.45C304.876 225.36 304.326 224.46 303.186 224.46C302.036 224.46 301.486 225.36 301.486 226.45C301.486 227.54 302.036 228.44 303.186 228.44ZM309.084 223.76C308.214 223.76 307.674 224.15 307.404 224.51H307.384V223.9H306.584V229H307.384V225.82C307.384 225.03 307.984 224.46 308.884 224.46C309.684 224.46 309.994 224.98 309.994 225.64V229H310.794V225.44C310.794 224.27 310.014 223.76 309.084 223.76ZM314.037 225.97C313.327 225.8 312.637 225.75 312.637 225.15C312.637 224.75 313.027 224.46 313.747 224.46C314.707 224.46 314.897 224.97 314.977 225.36H315.777C315.697 224.48 315.017 223.76 313.747 223.76C312.547 223.76 311.837 224.41 311.837 225.21C311.837 226.41 312.997 226.5 313.777 226.69C314.507 226.87 315.177 226.91 315.177 227.65C315.177 227.99 314.837 228.44 313.967 228.44C312.687 228.44 312.487 227.87 312.437 227.3H311.637C311.687 228.4 312.407 229.14 313.967 229.14C315.127 229.14 315.977 228.53 315.977 227.6C315.977 226.34 314.947 226.19 314.037 225.97Z" fill="#91999E"/>
<path d="M237.854 297H241.788C244.56 297 246.198 295.222 246.198 292.002C246.198 288.782 244.504 286.99 241.746 286.99H237.854V297ZM239.52 288.404H241.662C243.902 288.404 244.532 290.084 244.532 292.002C244.532 293.92 243.902 295.586 241.662 295.586H239.52V288.404ZM250.544 296.006C249.242 296.006 248.472 295.012 248.472 293.808H253.96C253.96 291.26 252.826 289.65 250.516 289.65C248.36 289.65 247.002 291.106 247.002 293.43C247.002 295.67 248.36 297.21 250.586 297.21C252.42 297.21 253.484 296.174 253.848 294.816H252.378C252.252 295.25 251.762 296.006 250.544 296.006ZM250.516 290.812C251.706 290.812 252.49 291.61 252.49 292.716H248.472C248.472 291.61 249.326 290.812 250.516 290.812ZM254.996 286.99V297H256.48V286.99H254.996ZM258.624 288.642C259.058 288.642 259.464 288.362 259.464 287.858C259.464 287.354 259.058 287.088 258.624 287.088C258.218 287.088 257.798 287.354 257.798 287.858C257.798 288.362 258.218 288.642 258.624 288.642ZM257.896 289.846V297H259.366V289.846H257.896ZM260.16 289.846L262.694 297H264.36L266.894 289.846H265.34L263.534 295.446H263.52L261.714 289.846H260.16ZM270.587 296.006C269.285 296.006 268.515 295.012 268.515 293.808H274.003C274.003 291.26 272.869 289.65 270.559 289.65C268.403 289.65 267.045 291.106 267.045 293.43C267.045 295.67 268.403 297.21 270.629 297.21C272.463 297.21 273.527 296.174 273.891 294.816H272.421C272.295 295.25 271.805 296.006 270.587 296.006ZM270.559 290.812C271.749 290.812 272.533 291.61 272.533 292.716H268.515C268.515 291.61 269.369 290.812 270.559 290.812ZM278.413 289.678C277.475 289.678 276.887 290.294 276.509 291.19H276.481V289.846H275.011V297H276.481V293.346C276.481 291.82 277.615 290.868 279.029 291.106H279.057V289.72C278.847 289.692 278.665 289.678 278.413 289.678Z" fill="#E9EEF1"/>
<path d="M240.24 308.83C239.19 308.57 238.42 308.44 238.42 307.49C238.42 306.9 238.96 306.51 239.97 306.51C241.1 306.51 241.64 307.01 241.77 307.97H242.67C242.55 306.49 241.49 305.71 239.97 305.71C238.39 305.71 237.52 306.46 237.52 307.59C237.52 308.98 238.8 309.35 239.87 309.6C241.47 309.97 242 310.15 242 311.13C242 311.77 241.56 312.34 240.32 312.34C238.82 312.34 238.22 311.58 238.12 310.6H237.22C237.32 312.24 238.63 313.14 240.32 313.14C242.13 313.14 242.9 312.17 242.9 311.13C242.9 309.5 241.85 309.23 240.24 308.83ZM246.12 313.14C244.56 313.14 243.62 312.04 243.62 310.45C243.62 308.86 244.56 307.76 246.12 307.76C247.67 307.76 248.61 308.86 248.61 310.45C248.61 312.04 247.67 313.14 246.12 313.14ZM246.12 312.44C247.26 312.44 247.81 311.54 247.81 310.45C247.81 309.36 247.26 308.46 246.12 308.46C244.97 308.46 244.42 309.36 244.42 310.45C244.42 311.54 244.97 312.44 246.12 312.44ZM249.548 305.85V313H250.348V305.85H249.548ZM254.96 307.9V311.08C254.96 311.87 254.36 312.44 253.46 312.44C252.66 312.44 252.35 311.92 252.35 311.26V307.9H251.55V311.46C251.55 312.63 252.33 313.14 253.26 313.14C254.13 313.14 254.67 312.75 254.94 312.39H254.96V313H255.76V307.9H254.96ZM259.184 308.6V307.9H258.184V306.2H257.384V307.9H256.634V308.6H257.384V311.75C257.384 312.79 257.904 313.06 258.584 313.06C258.794 313.06 259.004 313.04 259.184 313V312.3C258.504 312.35 258.184 312.25 258.184 311.67V308.6H259.184ZM260.62 306.91C260.85 306.91 261.12 306.74 261.12 306.43C261.12 306.12 260.85 305.95 260.62 305.95C260.4 305.95 260.12 306.12 260.12 306.43C260.12 306.74 260.4 306.91 260.62 306.91ZM260.22 307.9V313H261.02V307.9H260.22ZM264.53 313.14C262.97 313.14 262.03 312.04 262.03 310.45C262.03 308.86 262.97 307.76 264.53 307.76C266.08 307.76 267.02 308.86 267.02 310.45C267.02 312.04 266.08 313.14 264.53 313.14ZM264.53 312.44C265.67 312.44 266.22 311.54 266.22 310.45C266.22 309.36 265.67 308.46 264.53 308.46C263.38 308.46 262.83 309.36 262.83 310.45C262.83 311.54 263.38 312.44 264.53 312.44ZM270.428 307.76C269.558 307.76 269.018 308.15 268.748 308.51H268.728V307.9H267.928V313H268.728V309.82C268.728 309.03 269.328 308.46 270.228 308.46C271.028 308.46 271.338 308.98 271.338 309.64V313H272.138V309.44C272.138 308.27 271.358 307.76 270.428 307.76ZM275.381 309.97C274.671 309.8 273.981 309.75 273.981 309.15C273.981 308.75 274.371 308.46 275.091 308.46C276.051 308.46 276.241 308.97 276.321 309.36H277.121C277.041 308.48 276.361 307.76 275.091 307.76C273.891 307.76 273.181 308.41 273.181 309.21C273.181 310.41 274.341 310.5 275.121 310.69C275.851 310.87 276.521 310.91 276.521 311.65C276.521 311.99 276.181 312.44 275.311 312.44C274.031 312.44 273.831 311.87 273.781 311.3H272.981C273.031 312.4 273.751 313.14 275.311 313.14C276.471 313.14 277.321 312.53 277.321 311.6C277.321 310.34 276.291 310.19 275.381 309.97ZM282.518 308.6V307.9H281.518V306.2H280.718V307.9H279.968V308.6H280.718V311.75C280.718 312.79 281.238 313.06 281.918 313.06C282.128 313.06 282.338 313.04 282.518 313V312.3C281.838 312.35 281.518 312.25 281.518 311.67V308.6H282.518ZM285.955 307.76C285.085 307.76 284.545 308.15 284.275 308.51H284.255V305.85H283.455V313H284.255V309.82C284.255 309.03 284.855 308.46 285.755 308.46C286.555 308.46 286.865 308.98 286.865 309.64V313H287.665V309.44C287.665 308.27 286.885 307.76 285.955 307.76ZM291.958 309.2C291.958 309.71 291.568 309.82 290.708 309.98C289.388 310.23 288.528 310.53 288.528 311.69C288.528 312.55 289.178 313.14 290.208 313.14C291.048 313.14 291.618 312.84 291.938 312.36H291.958C292.098 312.92 292.388 313.05 292.868 313.05C293.018 313.05 293.128 313.04 293.338 312.97V312.41C292.828 312.47 292.758 312.25 292.758 311.85V309.37C292.758 308.14 291.888 307.76 290.918 307.76C289.438 307.76 288.828 308.5 288.778 309.48H289.578C289.628 308.74 289.948 308.46 290.918 308.46C291.738 308.46 291.958 308.8 291.958 309.2ZM290.288 312.44C289.628 312.44 289.328 312.15 289.328 311.65C289.328 311.04 289.788 310.79 290.778 310.58C291.318 310.47 291.808 310.33 291.958 310.18V311.03C291.958 312.01 291.238 312.44 290.288 312.44ZM296.158 308.6V307.9H295.158V306.2H294.358V307.9H293.608V308.6H294.358V311.75C294.358 312.79 294.878 313.06 295.558 313.06C295.768 313.06 295.978 313.04 296.158 313V312.3C295.478 312.35 295.158 312.25 295.158 311.67V308.6H296.158ZM298.686 307.9L300.316 313H301.166L302.296 308.79H302.316L303.466 313H304.316L305.946 307.9H305.066L303.906 312.13H303.886L302.736 307.9H301.886L300.746 312.13H300.726L299.566 307.9H298.686ZM308.753 313.14C307.193 313.14 306.253 312.04 306.253 310.45C306.253 308.86 307.193 307.76 308.753 307.76C310.303 307.76 311.243 308.86 311.243 310.45C311.243 312.04 310.303 313.14 308.753 313.14ZM308.753 312.44C309.893 312.44 310.443 311.54 310.443 310.45C310.443 309.36 309.893 308.46 308.753 308.46C307.603 308.46 307.053 309.36 307.053 310.45C307.053 311.54 307.603 312.44 308.753 312.44ZM314.38 307.76C313.65 307.76 313.24 308.24 312.97 308.91H312.95V307.9H312.15V313H312.95V310.28C312.95 309.19 313.72 308.41 314.83 308.59H314.85V307.79C314.71 307.77 314.57 307.76 314.38 307.76ZM315.678 305.85V313H316.478V310.99L317.268 310.26L319.078 313H320.028L317.828 309.79L319.818 307.9H318.818L316.478 310.09V305.85H315.678ZM242.95 326L241.89 324.69C242.27 324.05 242.48 323.3 242.57 322.62H241.77C241.7 323.12 241.56 323.61 241.36 324.04L239.9 322.24C240.83 321.68 241.37 321.17 241.37 320.36C241.37 319.55 240.77 318.7 239.69 318.71C238.54 318.72 238.01 319.55 238.01 320.36C238.01 321.01 238.35 321.52 238.84 322.13C238.11 322.59 237.39 323.2 237.39 324.24C237.39 325.33 238.16 326.14 239.53 326.14C240.34 326.14 240.96 325.81 241.43 325.3L242 326H242.95ZM239.69 319.51C240.25 319.51 240.57 319.93 240.57 320.42C240.57 321.03 240.15 321.35 239.49 321.74C239.11 321.27 238.81 320.85 238.81 320.42C238.81 319.93 239.13 319.51 239.69 319.51ZM239.53 325.34C238.65 325.34 238.19 324.81 238.19 324.24C238.19 323.56 238.6 323.06 239.24 322.63L240.93 324.69C240.58 325.09 240.12 325.34 239.53 325.34ZM247.851 320.76C247.121 320.76 246.711 321.24 246.441 321.91H246.421V320.9H245.621V326H246.421V323.28C246.421 322.19 247.191 321.41 248.301 321.59H248.321V320.79C248.181 320.77 248.041 320.76 247.851 320.76ZM251.124 325.44C250.014 325.44 249.464 324.58 249.464 323.66H253.494C253.494 321.85 252.714 320.76 251.114 320.76C249.624 320.76 248.664 321.75 248.664 323.45C248.664 325.05 249.604 326.14 251.154 326.14C252.424 326.14 253.154 325.38 253.414 324.43H252.614C252.524 324.78 252.144 325.44 251.124 325.44ZM251.114 321.46C252.074 321.46 252.694 322.14 252.694 322.96H249.464C249.464 322.14 250.154 321.46 251.114 321.46ZM258.006 322.74H258.806C258.686 321.6 257.826 320.76 256.566 320.76C255.076 320.76 254.096 321.85 254.096 323.45C254.096 325.05 255.076 326.14 256.566 326.14C257.826 326.14 258.736 325.28 258.806 324.12H258.006C257.966 324.73 257.596 325.44 256.566 325.44C255.356 325.44 254.896 324.41 254.896 323.45C254.896 322.49 255.356 321.46 256.566 321.46C257.586 321.46 257.966 322.18 258.006 322.74ZM261.841 325.44C260.731 325.44 260.181 324.58 260.181 323.66H264.211C264.211 321.85 263.431 320.76 261.831 320.76C260.341 320.76 259.381 321.75 259.381 323.45C259.381 325.05 260.321 326.14 261.871 326.14C263.141 326.14 263.871 325.38 264.131 324.43H263.331C263.241 324.78 262.861 325.44 261.841 325.44ZM261.831 321.46C262.791 321.46 263.411 322.14 263.411 322.96H260.181C260.181 322.14 260.871 321.46 261.831 321.46ZM265.603 319.91C265.833 319.91 266.103 319.74 266.103 319.43C266.103 319.12 265.833 318.95 265.603 318.95C265.383 318.95 265.103 319.12 265.103 319.43C265.103 319.74 265.383 319.91 265.603 319.91ZM265.203 320.9V326H266.003V320.9H265.203ZM266.773 320.9L268.603 326H269.513L271.343 320.9H270.473L269.063 325.2H269.053L267.643 320.9H266.773ZM274.084 325.44C272.974 325.44 272.424 324.58 272.424 323.66H276.454C276.454 321.85 275.674 320.76 274.074 320.76C272.584 320.76 271.624 321.75 271.624 323.45C271.624 325.05 272.564 326.14 274.114 326.14C275.384 326.14 276.114 325.38 276.374 324.43H275.574C275.484 324.78 275.104 325.44 274.084 325.44ZM274.074 321.46C275.034 321.46 275.654 322.14 275.654 322.96H272.424C272.424 322.14 273.114 321.46 274.074 321.46ZM281.598 319.55V318.85C281.418 318.81 281.208 318.79 281.028 318.79C280.348 318.79 279.828 319.06 279.828 320.1V320.9H279.118V321.6H279.828V326H280.628V321.6H281.598V320.9H280.628V320.18C280.628 319.6 280.918 319.5 281.598 319.55ZM284.502 325.44C283.392 325.44 282.842 324.58 282.842 323.66H286.872C286.872 321.85 286.092 320.76 284.492 320.76C283.002 320.76 282.042 321.75 282.042 323.45C282.042 325.05 282.982 326.14 284.532 326.14C285.802 326.14 286.532 325.38 286.792 324.43H285.992C285.902 324.78 285.522 325.44 284.502 325.44ZM284.492 321.46C285.452 321.46 286.072 322.14 286.072 322.96H282.842C282.842 322.14 283.532 321.46 284.492 321.46ZM289.934 325.44C288.824 325.44 288.274 324.58 288.274 323.66H292.304C292.304 321.85 291.524 320.76 289.924 320.76C288.434 320.76 287.474 321.75 287.474 323.45C287.474 325.05 288.414 326.14 289.964 326.14C291.234 326.14 291.964 325.38 292.224 324.43H291.424C291.334 324.78 290.954 325.44 289.934 325.44ZM289.924 321.46C290.884 321.46 291.504 322.14 291.504 322.96H288.274C288.274 322.14 288.964 321.46 289.924 321.46ZM296.826 318.85V321.56H296.806C296.506 321.12 296.026 320.76 295.206 320.76C293.926 320.76 292.906 321.77 292.906 323.45C292.906 325.13 293.926 326.14 295.206 326.14C296.026 326.14 296.506 325.76 296.806 325.37H296.826V326H297.626V318.85H296.826ZM295.286 325.44C294.236 325.44 293.706 324.45 293.706 323.45C293.706 322.45 294.236 321.46 295.286 321.46C296.236 321.46 296.826 322.25 296.826 323.45C296.826 324.65 296.236 325.44 295.286 325.44ZM301.145 320.76C300.325 320.76 299.845 321.12 299.545 321.56H299.525V318.85H298.725V326H299.525V325.37H299.545C299.845 325.76 300.325 326.14 301.145 326.14C302.425 326.14 303.445 325.13 303.445 323.45C303.445 321.77 302.425 320.76 301.145 320.76ZM301.065 325.44C300.115 325.44 299.525 324.65 299.525 323.45C299.525 322.25 300.115 321.46 301.065 321.46C302.115 321.46 302.645 322.45 302.645 323.45C302.645 324.45 302.115 325.44 301.065 325.44ZM307.473 322.2C307.473 322.71 307.083 322.82 306.223 322.98C304.903 323.23 304.043 323.53 304.043 324.69C304.043 325.55 304.693 326.14 305.723 326.14C306.563 326.14 307.133 325.84 307.453 325.36H307.473C307.613 325.92 307.903 326.05 308.383 326.05C308.533 326.05 308.643 326.04 308.853 325.97V325.41C308.343 325.47 308.273 325.25 308.273 324.85V322.37C308.273 321.14 307.403 320.76 306.433 320.76C304.953 320.76 304.343 321.5 304.293 322.48H305.093C305.143 321.74 305.463 321.46 306.433 321.46C307.253 321.46 307.473 321.8 307.473 322.2ZM305.803 325.44C305.143 325.44 304.843 325.15 304.843 324.65C304.843 324.04 305.303 323.79 306.293 323.58C306.833 323.47 307.323 323.33 307.473 323.18V324.03C307.473 325.01 306.753 325.44 305.803 325.44ZM313.17 322.74H313.97C313.85 321.6 312.99 320.76 311.73 320.76C310.24 320.76 309.26 321.85 309.26 323.45C309.26 325.05 310.24 326.14 311.73 326.14C312.99 326.14 313.9 325.28 313.97 324.12H313.17C313.13 324.73 312.76 325.44 311.73 325.44C310.52 325.44 310.06 324.41 310.06 323.45C310.06 322.49 310.52 321.46 311.73 321.46C312.75 321.46 313.13 322.18 313.17 322.74ZM314.836 318.85V326H315.636V323.99L316.426 323.26L318.236 326H319.186L316.986 322.79L318.976 320.9H317.976L315.636 323.09V318.85H314.836Z" fill="#91999E"/>
<circle cx="140" cy="179" r="8" fill="#E9EEF1"/>
<path opacity="0.8" d="M48 291L30 308.432V327" stroke="#E9EEF1"/>
<path opacity="0.8" d="M47 53L29 35.5684V17" stroke="#E9EEF1"/>
</g>
<defs>
<clipPath id="clip0_4231_30812">
<rect width="180" height="174" fill="white" transform="translate(48 5)"/>
</clipPath>
<clipPath id="clip1_4231_30812">
<rect width="180" height="174" fill="white" transform="matrix(1 0 0 -1 48 353)"/>
</clipPath>
</defs>
</svg>
