<svg width="1177" height="654" viewBox="0 0 1177 654" fill="none" xmlns="http://www.w3.org/2000/svg">
<path opacity="0.8" d="M1015.65 112.625L1015.34 112.29L917.94 76.0772L815.737 76L790.283 95.2329L790.759 95.8766L790.167 95.6835L654 513.04L654.798 513.297C654.631 513.593 654.476 513.864 654.335 514.095L654.94 514.469V514.494H655.004L655.197 514.61C655.21 514.585 655.236 514.546 655.249 514.507L1093.88 556.217L1093.83 556.423C1096.74 557.234 1101.56 558.341 1102.99 557.376C1103.12 557.286 1103.23 557.183 1103.3 557.054C1103.43 556.835 1103.44 556.603 1103.39 556.372L1140.92 534.603L1176.39 440.871L1176.55 440.459L1167.52 329.967L1167.5 329.581L1107.06 211.518L1015.65 112.625ZM952.123 104.836H952.084L924.57 82.6556L1011.98 115.148C1002.28 112.252 954.312 105.171 952.123 104.836ZM1104.47 550.785L1110.54 484.242L1155.67 401.427C1158.38 406.821 1172.16 437.074 1172.29 438.606C1171.51 440.537 1128.24 511.752 1104.47 550.785ZM791.03 105.493C794.532 106.587 803.892 108.647 828.818 113.166C843.419 115.817 858.173 118.366 864.778 119.486L781.682 135.707L781.579 135.54C781.695 134.883 781.888 133.93 782.146 132.746L791.03 105.493ZM791.365 104.437C804.587 102.738 887.619 85.0886 911.747 79.9264H917.244L921.57 81.5356L951.029 105.274L867.727 118.971C839.839 114.247 799.605 107.038 791.326 104.579L791.365 104.437ZM1111.12 479.595L1110.87 479.028L1026.7 514.43L1013.23 391.476L1094.34 389.854L1112.46 477.277L1111.12 479.595ZM1069.85 550.051L996.053 527.625L996.066 527.381L995.474 527.355L975.826 492.185L1025.24 516.052L1070.08 550.077L1069.85 550.051ZM701.625 515.048L664.57 511.521L926.579 468.395L974.255 491.412L994.302 527.303L701.625 515.048ZM803.3 249.881L807.87 296.38L659.292 509.229L662.356 499.844C689.265 439.983 771.923 232.296 778.168 216.359L803.3 249.881ZM781.412 137.007L781.824 136.75L799.514 187.278L803.828 248.903L778.412 214.994L781.412 137.007ZM951.505 449.162L904.241 419.424L882.701 374.329L1009.74 391.373L951.505 449.162ZM660.618 511.147L659.356 511.031L857.285 391.09L903.455 420.132L926.064 467.468L660.618 511.147ZM808.167 297.732L808.514 297.693L808.154 298.041L845.401 336.815L856.719 390.24L660.656 509.062L808.167 297.732ZM804.33 250.01L833.93 282.696L845.002 334.949L809.003 297.474L804.33 250.01ZM881.722 374.638L902.631 418.42L857.736 390.176L846.728 338.206L881.722 374.638ZM927.094 467.288L905.052 421.123L951.196 450.153L973.393 489.88L928.304 468.099L929.102 467.97L928.935 466.966L927.094 467.288ZM882.546 374.033L846.328 336.339L834.973 282.747L909.365 245.62L882.546 374.033ZM909.687 244.32L834.509 281.833L804.858 249.083L800.583 188.024L910.601 242.119L909.687 244.32ZM782.815 136.518L866.079 120.272L867.238 120.079L800.235 186.261L782.815 136.518ZM1025.76 515.19L974.976 490.653L952.2 449.883L1011.03 391.502L1012.2 391.476L1025.76 515.19ZM1012.12 390.485L1010.89 390.51L883.692 373.44L910.537 244.886L911.502 242.556L1004.58 288.321L1012.12 390.485ZM800.879 187.033L868.499 120.246L940.973 168.367L910.987 241.166L800.879 187.033ZM777.408 215.136L777.395 215.316L777.459 215.406C773.854 224.714 696.166 420.055 665.446 490.395L780.356 138.179L777.408 215.136ZM994.933 528.346L1064.78 549.574L720.642 516.85L994.933 528.346ZM1026.37 515.653L1110.78 480.161L1070.75 549.317L1026.37 515.653ZM1113.4 476.865L1095.38 389.957L1154.97 400.552L1113.4 476.865ZM1013.14 390.459L1005.67 289.441L1093.63 388.85L1013.14 390.459ZM911.888 241.617L942.222 167.993L869.504 119.705L951.415 106.253L942.325 168.032L942.299 168.199L1003.93 286.879L911.888 241.617ZM793.618 97.5501L817.025 79.862L906.906 79.9264C878.696 85.9383 805.257 101.489 791.712 103.369L793.618 97.5501ZM1072.08 550.27C1074.93 550.398 1083.42 550.875 1090.68 552.033L1072.08 550.27ZM1098.46 552.78C1090.8 550.231 1075.74 549.42 1071.96 549.253L1109.55 484.306L1103.34 551.943L1101.41 553.063L1098.46 552.78ZM1137.81 531.951L1105.83 550.501C1119.28 528.398 1166.06 451.543 1172.51 440.253L1137.81 531.951ZM1163.73 330.662L1172.31 435.876C1168.73 426.736 1156.21 400.204 1156.03 400.011L1155.61 399.573L1165.31 350.938L1164.32 350.744L1154.61 399.445L1095.17 388.876L1095.15 388.798H1094.97L1005.55 287.781L1005.54 287.639L1005.43 287.588L943.329 167.993L952.445 106.059L952.973 105.969C969.71 108.441 1010.36 114.762 1012.95 116.577L1013.42 115.895L1103.86 213.733L1163.73 330.662Z" fill="#E9EEF1"/>
<path opacity="0.8" d="M209.04 204.744L145.231 321.03L145.193 321.403L133 431.599L133.142 432.011L165.909 526.721L202.796 549.559C202.744 549.79 202.757 550.022 202.873 550.254C202.938 550.382 203.041 550.498 203.169 550.588C204.573 551.592 209.427 550.614 212.362 549.893L212.311 549.687L651.957 520.58C651.97 520.606 651.996 520.645 652.008 520.683L652.214 520.568H652.279V520.542L652.897 520.194C652.768 519.962 652.614 519.679 652.459 519.383L653.257 519.151L529.128 98.0619L528.523 98.2421L529.025 97.6242L504.125 77.6704L401.961 74.8125L303.569 108.219L303.248 108.554L209.04 204.744ZM306.853 111.141L395.163 81.1591L367.018 102.542H366.979C364.778 102.812 316.625 108.515 306.853 111.141ZM137.339 429.874C137.519 428.342 152.145 398.502 155.016 393.185L197.749 477.261L201.908 543.959C179.26 504.244 138.047 431.818 137.339 429.874ZM536.094 135.318C536.313 136.515 536.493 137.48 536.583 138.137L536.467 138.304L453.861 119.715C460.491 118.775 475.31 116.651 489.988 114.424C515.017 110.613 524.442 108.824 527.97 107.833L536.094 135.318ZM527.725 106.893C519.382 109.12 478.954 115.171 450.938 119.084L368.061 103.018L398.189 80.1292L402.566 78.6488L408.064 78.8033C432.037 84.6478 514.515 104.666 527.686 106.751L527.725 106.893ZM196.024 470.232L216.637 383.363L297.673 387.302L280.677 509.818L197.543 472.022L197.285 472.588L196.024 470.232ZM236.284 544.229L282.081 511.505L332.165 489.066L311.513 523.657L310.921 523.67V523.915L236.516 544.216L236.284 544.229ZM312.711 523.644L333.774 488.345L382.082 466.705L642.751 517.323L605.607 519.782L312.711 523.644ZM537.652 219.008C543.433 235.112 620.104 445.078 645.288 505.699L648.082 515.174L505.67 298.141L511.58 251.796L537.652 219.008ZM537.446 217.643L511.078 250.805L517.155 189.334L536.287 139.334L536.686 139.604L537.446 217.643ZM301.162 387.315L428.638 373.926L405.824 418.391L357.722 446.751L301.162 387.315ZM382.635 465.765L406.583 419.099L453.564 391.396L647.966 516.963L646.704 517.04L382.635 465.765ZM646.73 514.955L454.157 390.572L467.006 337.495L505.348 299.801L504.988 299.441L505.335 299.479L646.73 514.955ZM504.511 299.209L467.457 335.641L480.023 283.722L510.55 251.899L504.511 299.209ZM465.641 338.833L453.14 390.469L407.446 417.413L429.604 374.248L465.641 338.833ZM379.751 465.212L379.558 466.203L380.357 466.358L334.663 486.839L357.993 447.755L404.948 420.065L381.593 465.572L379.751 465.212ZM405.682 244.497L478.98 283.735L466.092 336.98L428.806 373.63L405.682 244.497ZM404.549 240.957L516.073 190.042L510.048 250.96L479.456 282.847L405.386 243.197L404.549 240.957ZM516.472 188.292L451.401 120.217L452.547 120.436L535.308 139.064L516.472 188.292ZM298.69 387.353L299.861 387.405L357.001 447.447L333.066 487.547L281.604 510.616L298.69 387.353ZM309.286 284.443L403.635 241.369L404.523 243.725L427.66 373L300.029 386.414L298.793 386.349L309.286 284.443ZM404.188 240.004L376.301 166.381L450.127 120.359L515.803 189.051L404.188 240.004ZM537.716 140.802L642.468 496.16C613.769 424.97 541.72 227.478 538.386 218.081L538.463 217.991V217.81L537.716 140.802ZM586.539 521.031L241.602 543.868L312.028 524.661L586.539 521.031ZM235.64 543.444L197.62 473.168L280.974 511.067L235.64 543.444ZM155.725 392.335L215.594 383.453L195.097 469.808L155.725 392.335ZM217.371 382.384L308.153 285.538L297.788 386.298L217.371 382.384ZM309.981 283.014L375.001 166.149L374.988 165.982L367.675 103.971L449.161 119.766L375.078 165.943L403.287 240.403L309.981 283.014ZM527.365 105.683C513.884 103.404 440.921 85.7549 412.892 78.9449L502.734 81.4552L525.639 99.8127L527.365 105.683ZM215.645 545.593C222.933 544.641 231.456 544.409 234.301 544.358L215.645 545.593ZM204.882 546.302L202.976 545.13L198.715 477.351L234.43 543.354C230.658 543.405 215.581 543.791 207.843 546.121L204.882 546.302ZM137.056 431.509C143.171 442.967 187.732 521.147 200.543 543.624L169.102 524.159L137.056 431.509ZM212.169 207.061L305.372 111.862L305.823 112.557C308.462 110.832 349.276 105.67 366.078 103.675L366.606 103.778L373.945 165.943L308.436 283.71L308.32 283.761L308.307 283.903L216.044 382.32L215.864 382.307L215.851 382.384L156.137 391.241L147.832 342.284L146.841 342.451L155.132 391.344L154.707 391.769C154.527 391.949 141.24 418.121 137.403 427.145L149.017 322.214L212.169 207.061Z" fill="#E9EEF1"/>
<path d="M166 317C166 326.941 157.941 335 148 335C138.059 335 130 326.941 130 317C130 307.059 138.059 299 148 299C157.941 299 166 307.059 166 317Z" fill="#E9EEF1"/>
<path d="M673 515C673 524.941 664.941 533 655 533C645.059 533 637 524.941 637 515C637 505.059 645.059 497 655 497C664.941 497 673 505.059 673 515Z" fill="#E9EEF1"/>
<path d="M1030 113C1030 122.941 1021.94 131 1012 131C1002.06 131 994 122.941 994 113C994 103.059 1002.06 95 1012 95C1021.94 95 1030 103.059 1030 113Z" fill="#E9EEF1"/>
<path d="M1.70801 280H5.04001V271.992H10.22C14.056 271.992 16.828 270.172 16.828 265.972C16.828 261.772 14.056 259.98 10.22 259.98H1.70801V280ZM5.04001 262.808H10.08C12.32 262.808 13.496 263.788 13.496 265.972C13.496 268.184 12.32 269.136 10.08 269.136H5.04001V262.808Z" fill="#E9EEF1"/>
<path d="M25.2599 265.356C23.3839 265.356 22.2079 266.588 21.4519 268.38H21.3959V265.692H18.4559V280H21.3959V272.692C21.3959 269.64 23.6639 267.736 26.4919 268.212H26.5479V265.44C26.1279 265.384 25.7639 265.356 25.2599 265.356Z" fill="#E9EEF1"/>
<path d="M34.1316 280.42C29.6516 280.42 26.9356 277.312 26.9356 272.86C26.9356 268.408 29.6516 265.3 34.1316 265.3C38.6116 265.3 41.3276 268.408 41.3276 272.86C41.3276 277.312 38.6116 280.42 34.1316 280.42ZM34.1316 278.012C36.9316 278.012 38.3876 275.8 38.3876 272.86C38.3876 269.892 36.9316 267.708 34.1316 267.708C31.3316 267.708 29.8756 269.892 29.8756 272.86C29.8756 275.8 31.3316 278.012 34.1316 278.012Z" fill="#E9EEF1"/>
<path d="M50.4435 265.3C48.2315 265.3 46.8315 266.336 46.0755 267.428H46.0195V259.98H43.0795V280H46.0195V278.348H46.0755C46.8315 279.328 48.2315 280.42 50.4435 280.42C54.1115 280.42 56.8275 277.564 56.8275 272.86C56.8275 268.156 54.1115 265.3 50.4435 265.3ZM49.9395 278.012C47.5315 278.012 46.0475 276.024 46.0475 272.86C46.0475 269.668 47.5315 267.708 49.9395 267.708C52.5155 267.708 53.8875 270.06 53.8875 272.86C53.8875 275.66 52.5155 278.012 49.9395 278.012Z" fill="#E9EEF1"/>
<path d="M58.6602 259.98V280H61.6282V259.98H58.6602Z" fill="#E9EEF1"/>
<path d="M70.5311 278.012C67.9271 278.012 66.3871 276.024 66.3871 273.616H77.3631C77.3631 268.52 75.0951 265.3 70.4751 265.3C66.1631 265.3 63.4471 268.212 63.4471 272.86C63.4471 277.34 66.1631 280.42 70.6151 280.42C74.2831 280.42 76.4111 278.348 77.1391 275.632H74.1991C73.9471 276.5 72.9671 278.012 70.5311 278.012ZM70.4751 267.624C72.8551 267.624 74.4231 269.22 74.4231 271.432H66.3871C66.3871 269.22 68.0951 267.624 70.4751 267.624Z" fill="#E9EEF1"/>
<path d="M94.8909 265.3C92.6789 265.3 91.2789 266.392 90.2149 267.764H90.1589C89.5709 266.224 88.3669 265.3 86.3509 265.3C84.1949 265.3 82.8509 266.42 82.0949 267.54H82.0389V265.692H79.0989V280H82.0389V271.292C82.0389 269.164 83.2989 267.792 85.2589 267.792C87.3029 267.792 87.6949 269.024 87.6949 270.956V280H90.6629V271.292C90.6629 269.164 91.8949 267.792 93.8829 267.792C95.8989 267.792 96.2909 269.024 96.2909 270.956V280H99.2589V270.116C99.2589 267.036 97.7749 265.3 94.8909 265.3Z" fill="#E9EEF1"/>
<path d="M1065.3 64.0725C1062.5 63.3725 1060.62 62.9805 1060.62 60.7965C1060.62 59.3125 1062.05 58.4165 1064.43 58.4165C1067.2 58.4165 1068.66 59.6485 1068.96 61.9725H1072.3C1072.02 57.8565 1068.82 55.5605 1064.43 55.5605C1060.06 55.5605 1057.32 57.5485 1057.32 61.1045C1057.32 64.9125 1060.7 66.1165 1063.84 66.9005C1067.79 67.8805 1069.5 68.3285 1069.5 70.7085C1069.5 72.2485 1068.35 73.5645 1065.38 73.5645C1061.8 73.5645 1060.06 71.8845 1059.89 69.3365H1056.56C1056.76 73.8725 1060.48 76.4205 1065.38 76.4205C1070.42 76.4205 1072.83 73.7605 1072.83 70.5685C1072.83 66.0885 1069.58 65.1645 1065.3 64.0725Z" fill="#E9EEF1"/>
<path d="M1081.33 76.4205C1076.85 76.4205 1074.14 73.3125 1074.14 68.8605C1074.14 64.4085 1076.85 61.3005 1081.33 61.3005C1085.81 61.3005 1088.53 64.4085 1088.53 68.8605C1088.53 73.3125 1085.81 76.4205 1081.33 76.4205ZM1081.33 74.0125C1084.13 74.0125 1085.59 71.8005 1085.59 68.8605C1085.59 65.8925 1084.13 63.7085 1081.33 63.7085C1078.53 63.7085 1077.08 65.8925 1077.08 68.8605C1077.08 71.8005 1078.53 74.0125 1081.33 74.0125Z" fill="#E9EEF1"/>
<path d="M1090.34 55.9805V76.0005H1093.31V55.9805H1090.34Z" fill="#E9EEF1"/>
<path d="M1105.29 61.6925V70.4005C1105.29 72.5285 1103.83 73.9005 1101.56 73.9005C1099.55 73.9005 1098.74 72.6685 1098.74 70.7365V61.6925H1095.77V71.5765C1095.77 74.8525 1097.87 76.3925 1100.53 76.3925C1102.99 76.3925 1104.48 75.2725 1105.23 74.1525H1105.29V76.0005H1108.23V61.6925H1105.29Z" fill="#E9EEF1"/>
<path d="M1117.58 64.1005V61.6925H1114.89V57.1845H1111.92V61.6925H1109.85V64.1005H1111.92V72.1085C1111.92 75.1325 1113.21 76.1965 1115.56 76.1965C1116.35 76.1965 1116.99 76.1125 1117.58 75.9725V73.5645C1115.68 73.6765 1114.89 73.4805 1114.89 71.8565V64.1005H1117.58Z" fill="#E9EEF1"/>
<path d="M1121.09 59.2845C1121.96 59.2845 1122.77 58.7245 1122.77 57.7165C1122.77 56.7085 1121.96 56.1765 1121.09 56.1765C1120.28 56.1765 1119.44 56.7085 1119.44 57.7165C1119.44 58.7245 1120.28 59.2845 1121.09 59.2845ZM1119.63 61.6925V76.0005H1122.57V61.6925H1119.63Z" fill="#E9EEF1"/>
<path d="M1131.72 76.4205C1127.24 76.4205 1124.53 73.3125 1124.53 68.8605C1124.53 64.4085 1127.24 61.3005 1131.72 61.3005C1136.2 61.3005 1138.92 64.4085 1138.92 68.8605C1138.92 73.3125 1136.2 76.4205 1131.72 76.4205ZM1131.72 74.0125C1134.52 74.0125 1135.98 71.8005 1135.98 68.8605C1135.98 65.8925 1134.52 63.7085 1131.72 63.7085C1128.92 63.7085 1127.47 65.8925 1127.47 68.8605C1127.47 71.8005 1128.92 74.0125 1131.72 74.0125Z" fill="#E9EEF1"/>
<path d="M1148.37 61.3005C1145.91 61.3005 1144.42 62.4205 1143.67 63.5405H1143.61V61.6925H1140.67V76.0005H1143.61V67.2925C1143.61 65.1645 1145.07 63.7925 1147.33 63.7925C1149.35 63.7925 1150.16 65.0245 1150.16 66.9565V76.0005H1153.13V66.1165C1153.13 62.8405 1151.03 61.3005 1148.37 61.3005Z" fill="#E9EEF1"/>
<path d="M535.972 21.0005H539.304V3.80847H545.688V0.980469H529.56V3.80847H535.972V21.0005Z" fill="#E9EEF1"/>
<path d="M555.018 6.30047C552.61 6.30047 551.126 7.42047 550.37 8.54047H550.314V0.980469H547.374V21.0005H550.314V12.2925C550.314 10.1645 551.854 8.79247 554.01 8.79247C556.054 8.79247 556.866 10.0245 556.866 11.9565V21.0005H559.834V11.1165C559.834 7.84047 557.734 6.30047 555.018 6.30047Z" fill="#E9EEF1"/>
<path d="M568.57 19.0125C565.966 19.0125 564.426 17.0245 564.426 14.6165H575.402C575.402 9.52047 573.134 6.30047 568.514 6.30047C564.202 6.30047 561.486 9.21247 561.486 13.8605C561.486 18.3405 564.202 21.4205 568.654 21.4205C572.322 21.4205 574.45 19.3485 575.178 16.6325H572.238C571.986 17.5005 571.006 19.0125 568.57 19.0125ZM568.514 8.62447C570.894 8.62447 572.462 10.2205 572.462 12.4325H564.426C564.426 10.2205 566.134 8.62447 568.514 8.62447Z" fill="#E9EEF1"/>
<path d="M592.242 0.980469V8.42847H592.186C591.43 7.33647 590.03 6.30047 587.818 6.30047C584.15 6.30047 581.434 9.15647 581.434 13.8605C581.434 18.5645 584.15 21.4205 587.818 21.4205C590.03 21.4205 591.43 20.3285 592.186 19.3485H592.242V21.0005H595.182V0.980469H592.242ZM588.322 19.0125C585.746 19.0125 584.374 16.6605 584.374 13.8605C584.374 11.0605 585.746 8.70847 588.322 8.70847C590.73 8.70847 592.214 10.6685 592.214 13.8605C592.214 17.0245 590.73 19.0125 588.322 19.0125Z" fill="#E9EEF1"/>
<path d="M604.155 21.4205C599.675 21.4205 596.959 18.3125 596.959 13.8605C596.959 9.40847 599.675 6.30047 604.155 6.30047C608.635 6.30047 611.351 9.40847 611.351 13.8605C611.351 18.3125 608.635 21.4205 604.155 21.4205ZM604.155 19.0125C606.955 19.0125 608.411 16.8005 608.411 13.8605C608.411 10.8925 606.955 8.70847 604.155 8.70847C601.355 8.70847 599.899 10.8925 599.899 13.8605C599.899 16.8005 601.355 19.0125 604.155 19.0125Z" fill="#E9EEF1"/>
<path d="M622.511 6.69247V15.4005C622.511 17.5285 621.055 18.9005 618.787 18.9005C616.771 18.9005 615.959 17.6685 615.959 15.7365V6.69247H612.991V16.5765C612.991 19.8525 615.091 21.3925 617.751 21.3925C620.215 21.3925 621.699 20.2725 622.455 19.1525H622.511V21.0005H625.451V6.69247H622.511Z" fill="#E9EEF1"/>
<path d="M635.335 6.30047C633.123 6.30047 631.723 7.33647 630.967 8.42847H630.911V0.980469H627.971V21.0005H630.911V19.3485H630.967C631.723 20.3285 633.123 21.4205 635.335 21.4205C639.003 21.4205 641.719 18.5645 641.719 13.8605C641.719 9.15647 639.003 6.30047 635.335 6.30047ZM634.831 19.0125C632.423 19.0125 630.939 17.0245 630.939 13.8605C630.939 10.6685 632.423 8.70847 634.831 8.70847C637.407 8.70847 638.779 11.0605 638.779 13.8605C638.779 16.6605 637.407 19.0125 634.831 19.0125Z" fill="#E9EEF1"/>
<path d="M643.552 0.980469V21.0005H646.52V0.980469H643.552Z" fill="#E9EEF1"/>
<path d="M655.423 19.0125C652.819 19.0125 651.279 17.0245 651.279 14.6165H662.255C662.255 9.52047 659.987 6.30047 655.367 6.30047C651.055 6.30047 648.339 9.21247 648.339 13.8605C648.339 18.3405 651.055 21.4205 655.507 21.4205C659.175 21.4205 661.303 19.3485 662.031 16.6325H659.091C658.839 17.5005 657.859 19.0125 655.423 19.0125ZM655.367 8.62447C657.747 8.62447 659.315 10.2205 659.315 12.4325H651.279C651.279 10.2205 652.987 8.62447 655.367 8.62447Z" fill="#E9EEF1"/>
<path d="M679.095 0.980469V8.42847H679.039C678.283 7.33647 676.883 6.30047 674.671 6.30047C671.003 6.30047 668.287 9.15647 668.287 13.8605C668.287 18.5645 671.003 21.4205 674.671 21.4205C676.883 21.4205 678.283 20.3285 679.039 19.3485H679.095V21.0005H682.035V0.980469H679.095ZM675.175 19.0125C672.599 19.0125 671.227 16.6605 671.227 13.8605C671.227 11.0605 672.599 8.70847 675.175 8.70847C677.583 8.70847 679.067 10.6685 679.067 13.8605C679.067 17.0245 677.583 19.0125 675.175 19.0125Z" fill="#E9EEF1"/>
<path d="M686.001 4.28447C686.869 4.28447 687.681 3.72447 687.681 2.71647C687.681 1.70847 686.869 1.17647 686.001 1.17647C685.189 1.17647 684.349 1.70847 684.349 2.71647C684.349 3.72447 685.189 4.28447 686.001 4.28447ZM684.545 6.69247V21.0005H687.485V6.69247H684.545Z" fill="#E9EEF1"/>
<path d="M698.846 10.4445C698.846 11.8165 697.502 12.0965 695.29 12.5165C691.706 13.2165 689.382 14.1965 689.382 17.3325C689.382 19.7405 691.174 21.4205 694.086 21.4205C696.298 21.4205 697.922 20.5525 698.818 19.2925H698.874C699.154 20.6925 699.882 21.2525 701.45 21.2525C702.01 21.2525 702.486 21.1965 703.158 20.9445V19.5445C702.01 19.6565 701.786 19.1245 701.786 18.1165V11.3125C701.786 7.50447 699.434 6.30047 696.27 6.30047C691.958 6.30047 690.194 8.45647 690.054 11.2005H692.91C693.05 9.35247 693.918 8.62447 696.27 8.62447C698.23 8.62447 698.846 9.40847 698.846 10.4445ZM694.73 19.0965C693.134 19.0965 692.35 18.3685 692.35 17.0525C692.35 15.5965 693.414 14.8965 695.85 14.3645C697.222 14.0845 698.37 13.7485 698.846 13.4125V15.5685C698.846 17.8925 697.166 19.0965 694.73 19.0965Z" fill="#E9EEF1"/>
<path d="M720.389 6.30047C718.177 6.30047 716.777 7.39247 715.713 8.76447H715.657C715.069 7.22447 713.865 6.30047 711.849 6.30047C709.693 6.30047 708.349 7.42047 707.593 8.54047H707.537V6.69247H704.597V21.0005H707.537V12.2925C707.537 10.1645 708.797 8.79247 710.757 8.79247C712.801 8.79247 713.193 10.0245 713.193 11.9565V21.0005H716.161V12.2925C716.161 10.1645 717.393 8.79247 719.381 8.79247C721.397 8.79247 721.789 10.0245 721.789 11.9565V21.0005H724.757V11.1165C724.757 8.03647 723.273 6.30047 720.389 6.30047Z" fill="#E9EEF1"/>
<path d="M733.644 21.4205C729.164 21.4205 726.448 18.3125 726.448 13.8605C726.448 9.40847 729.164 6.30047 733.644 6.30047C738.124 6.30047 740.84 9.40847 740.84 13.8605C740.84 18.3125 738.124 21.4205 733.644 21.4205ZM733.644 19.0125C736.444 19.0125 737.9 16.8005 737.9 13.8605C737.9 10.8925 736.444 8.70847 733.644 8.70847C730.844 8.70847 729.388 10.8925 729.388 13.8605C729.388 16.8005 730.844 19.0125 733.644 19.0125Z" fill="#E9EEF1"/>
<path d="M750.292 6.30047C747.828 6.30047 746.344 7.42047 745.588 8.54047H745.532V6.69247H742.592V21.0005H745.532V12.2925C745.532 10.1645 746.988 8.79247 749.256 8.79247C751.272 8.79247 752.084 10.0245 752.084 11.9565V21.0005H755.052V11.1165C755.052 7.84047 752.952 6.30047 750.292 6.30047Z" fill="#E9EEF1"/>
<path d="M767.512 0.980469V8.42847H767.456C766.7 7.33647 765.3 6.30047 763.088 6.30047C759.42 6.30047 756.704 9.15647 756.704 13.8605C756.704 18.5645 759.42 21.4205 763.088 21.4205C765.3 21.4205 766.7 20.3285 767.456 19.3485H767.512V21.0005H770.452V0.980469H767.512ZM763.592 19.0125C761.016 19.0125 759.644 16.6605 759.644 13.8605C759.644 11.0605 761.016 8.70847 763.592 8.70847C766 8.70847 767.484 10.6685 767.484 13.8605C767.484 17.0245 766 19.0125 763.592 19.0125Z" fill="#E9EEF1"/>
<path d="M546.708 572.001H550.04V563.993H555.22C559.056 563.993 561.828 562.173 561.828 557.973C561.828 553.773 559.056 551.981 555.22 551.981H546.708V572.001ZM550.04 554.809H555.08C557.32 554.809 558.496 555.789 558.496 557.973C558.496 560.185 557.32 561.137 555.08 561.137H550.04V554.809Z" fill="#E9EEF1"/>
<path d="M570.26 557.357C568.384 557.357 567.208 558.589 566.452 560.381H566.396V557.693H563.456V572.001H566.396V564.693C566.396 561.641 568.664 559.737 571.492 560.213H571.548V557.441C571.128 557.385 570.764 557.357 570.26 557.357Z" fill="#E9EEF1"/>
<path d="M579.132 572.421C574.652 572.421 571.936 569.313 571.936 564.861C571.936 560.409 574.652 557.301 579.132 557.301C583.612 557.301 586.328 560.409 586.328 564.861C586.328 569.313 583.612 572.421 579.132 572.421ZM579.132 570.013C581.932 570.013 583.388 567.801 583.388 564.861C583.388 561.893 581.932 559.709 579.132 559.709C576.332 559.709 574.876 561.893 574.876 564.861C574.876 567.801 576.332 570.013 579.132 570.013Z" fill="#E9EEF1"/>
<path d="M595.444 557.301C593.232 557.301 591.832 558.337 591.076 559.429H591.02V551.981H588.08V572.001H591.02V570.349H591.076C591.832 571.329 593.232 572.421 595.444 572.421C599.112 572.421 601.828 569.565 601.828 564.861C601.828 560.157 599.112 557.301 595.444 557.301ZM594.94 570.013C592.532 570.013 591.048 568.025 591.048 564.861C591.048 561.669 592.532 559.709 594.94 559.709C597.516 559.709 598.888 562.061 598.888 564.861C598.888 567.661 597.516 570.013 594.94 570.013Z" fill="#E9EEF1"/>
<path d="M603.66 551.981V572.001H606.628V551.981H603.66Z" fill="#E9EEF1"/>
<path d="M615.531 570.013C612.927 570.013 611.387 568.025 611.387 565.617H622.363C622.363 560.521 620.095 557.301 615.475 557.301C611.163 557.301 608.447 560.213 608.447 564.861C608.447 569.341 611.163 572.421 615.615 572.421C619.283 572.421 621.411 570.349 622.139 567.633H619.199C618.947 568.501 617.967 570.013 615.531 570.013ZM615.475 559.625C617.855 559.625 619.423 561.221 619.423 563.433H611.387C611.387 561.221 613.095 559.625 615.475 559.625Z" fill="#E9EEF1"/>
<path d="M639.891 557.301C637.679 557.301 636.279 558.393 635.215 559.765H635.159C634.571 558.225 633.367 557.301 631.351 557.301C629.195 557.301 627.851 558.421 627.095 559.541H627.039V557.693H624.099V572.001H627.039V563.293C627.039 561.165 628.299 559.793 630.259 559.793C632.303 559.793 632.695 561.025 632.695 562.957V572.001H635.663V563.293C635.663 561.165 636.895 559.793 638.883 559.793C640.899 559.793 641.291 561.025 641.291 562.957V572.001H644.259V562.117C644.259 559.037 642.775 557.301 639.891 557.301Z" fill="#E9EEF1"/>
<path d="M661.81 551.981V559.429H661.754C660.998 558.337 659.598 557.301 657.386 557.301C653.718 557.301 651.002 560.157 651.002 564.861C651.002 569.565 653.718 572.421 657.386 572.421C659.598 572.421 660.998 571.329 661.754 570.349H661.81V572.001H664.75V551.981H661.81ZM657.89 570.013C655.314 570.013 653.942 567.661 653.942 564.861C653.942 562.061 655.314 559.709 657.89 559.709C660.298 559.709 661.782 561.669 661.782 564.861C661.782 568.025 660.298 570.013 657.89 570.013Z" fill="#E9EEF1"/>
<path d="M673.61 570.013C671.006 570.013 669.466 568.025 669.466 565.617H680.442C680.442 560.521 678.174 557.301 673.554 557.301C669.242 557.301 666.526 560.213 666.526 564.861C666.526 569.341 669.242 572.421 673.694 572.421C677.362 572.421 679.49 570.349 680.218 567.633H677.278C677.026 568.501 676.046 570.013 673.61 570.013ZM673.554 559.625C675.934 559.625 677.502 561.221 677.502 563.433H669.466C669.466 561.221 671.174 559.625 673.554 559.625Z" fill="#E9EEF1"/>
<path d="M688.653 554.389V551.981C688.065 551.869 687.421 551.785 686.693 551.785C684.341 551.785 683.053 552.849 683.053 555.873V557.693H681.009V560.101H683.053V572.001H686.021V560.101H688.653V557.693H686.021V556.125C686.021 554.501 686.749 554.305 688.653 554.389Z" fill="#E9EEF1"/>
<path d="M691.972 555.285C692.84 555.285 693.652 554.725 693.652 553.717C693.652 552.709 692.84 552.177 691.972 552.177C691.16 552.177 690.32 552.709 690.32 553.717C690.32 554.725 691.16 555.285 691.972 555.285ZM690.516 557.693V572.001H693.456V557.693H690.516Z" fill="#E9EEF1"/>
<path d="M703.865 557.301C701.401 557.301 699.917 558.421 699.161 559.541H699.105V557.693H696.165V572.001H699.105V563.293C699.105 561.165 700.561 559.793 702.829 559.793C704.845 559.793 705.657 561.025 705.657 562.957V572.001H708.625V562.117C708.625 558.841 706.525 557.301 703.865 557.301Z" fill="#E9EEF1"/>
<path d="M717.592 560.101V557.693H714.904V553.185H711.936V557.693H709.864V560.101H711.936V568.109C711.936 571.133 713.224 572.197 715.576 572.197C716.36 572.197 717.004 572.113 717.592 571.973V569.565C715.688 569.677 714.904 569.481 714.904 567.857V560.101H717.592Z" fill="#E9EEF1"/>
<path d="M721.101 555.285C721.969 555.285 722.781 554.725 722.781 553.717C722.781 552.709 721.969 552.177 721.101 552.177C720.289 552.177 719.449 552.709 719.449 553.717C719.449 554.725 720.289 555.285 721.101 555.285ZM719.645 557.693V572.001H722.585V557.693H719.645Z" fill="#E9EEF1"/>
<path d="M731.734 572.421C727.254 572.421 724.538 569.313 724.538 564.861C724.538 560.409 727.254 557.301 731.734 557.301C736.214 557.301 738.93 560.409 738.93 564.861C738.93 569.313 736.214 572.421 731.734 572.421ZM731.734 570.013C734.534 570.013 735.99 567.801 735.99 564.861C735.99 561.893 734.534 559.709 731.734 559.709C728.934 559.709 727.478 561.893 727.478 564.861C727.478 567.801 728.934 570.013 731.734 570.013Z" fill="#E9EEF1"/>
<path d="M748.382 557.301C745.918 557.301 744.434 558.421 743.678 559.541H743.622V557.693H740.682V572.001H743.622V563.293C743.622 561.165 745.078 559.793 747.346 559.793C749.362 559.793 750.174 561.025 750.174 562.957V572.001H753.142V562.117C753.142 558.841 751.042 557.301 748.382 557.301Z" fill="#E9EEF1"/>
<path d="M231.098 620.001H236.156C239.72 620.001 241.826 617.715 241.826 613.575C241.826 609.435 239.648 607.131 236.102 607.131H231.098V620.001ZM233.24 608.949H235.994C238.874 608.949 239.684 611.109 239.684 613.575C239.684 616.041 238.874 618.183 235.994 618.183H233.24V608.949Z" fill="#E9EEF1"/>
<path d="M244.407 609.255C244.965 609.255 245.487 608.895 245.487 608.247C245.487 607.599 244.965 607.257 244.407 607.257C243.885 607.257 243.345 607.599 243.345 608.247C243.345 608.895 243.885 609.255 244.407 609.255ZM243.471 610.803V620.001H245.361V610.803H243.471Z" fill="#E9EEF1"/>
<path d="M251.261 614.439C249.929 614.133 248.903 614.061 248.903 613.125C248.903 612.477 249.515 612.045 250.649 612.045C252.125 612.045 252.485 612.783 252.611 613.503H254.447C254.321 611.901 253.133 610.551 250.631 610.551C248.327 610.551 246.995 611.757 246.995 613.269C246.995 615.357 248.975 615.645 250.433 615.987C251.783 616.311 252.881 616.401 252.881 617.553C252.881 618.129 252.323 618.777 251.009 618.777C249.065 618.777 248.633 617.931 248.543 616.941H246.707C246.797 618.885 248.075 620.271 251.045 620.271C253.277 620.271 254.789 619.173 254.789 617.409C254.789 615.213 252.953 614.835 251.261 614.439Z" fill="#E9EEF1"/>
<path d="M262.531 614.169H264.421C264.187 612.081 262.621 610.551 260.227 610.551C257.491 610.551 255.709 612.531 255.709 615.411C255.709 618.291 257.491 620.271 260.245 620.271C262.639 620.271 264.277 618.705 264.421 616.581H262.531C262.459 617.607 261.865 618.723 260.245 618.723C258.373 618.723 257.599 617.139 257.599 615.411C257.599 613.683 258.391 612.099 260.245 612.099C261.865 612.099 262.459 613.233 262.531 614.169Z" fill="#E9EEF1"/>
<path d="M269.81 620.271C266.93 620.271 265.184 618.273 265.184 615.411C265.184 612.549 266.93 610.551 269.81 610.551C272.69 610.551 274.436 612.549 274.436 615.411C274.436 618.273 272.69 620.271 269.81 620.271ZM269.81 618.723C271.61 618.723 272.546 617.301 272.546 615.411C272.546 613.503 271.61 612.099 269.81 612.099C268.01 612.099 267.074 613.503 267.074 615.411C267.074 617.301 268.01 618.723 269.81 618.723Z" fill="#E9EEF1"/>
<path d="M274.613 610.803L277.871 620.001H280.013L283.271 610.803H281.273L278.951 618.003H278.933L276.611 610.803H274.613Z" fill="#E9EEF1"/>
<path d="M288.019 618.723C286.345 618.723 285.355 617.445 285.355 615.897H292.411C292.411 612.621 290.953 610.551 287.983 610.551C285.211 610.551 283.465 612.423 283.465 615.411C283.465 618.291 285.211 620.271 288.073 620.271C290.431 620.271 291.799 618.939 292.267 617.193H290.377C290.215 617.751 289.585 618.723 288.019 618.723ZM287.983 612.045C289.513 612.045 290.521 613.071 290.521 614.493H285.355C285.355 613.071 286.453 612.045 287.983 612.045Z" fill="#E9EEF1"/>
<path d="M298.081 610.587C296.875 610.587 296.119 611.379 295.633 612.531H295.597V610.803H293.707V620.001H295.597V615.303C295.597 613.341 297.055 612.117 298.873 612.423H298.909V610.641C298.639 610.605 298.405 610.587 298.081 610.587Z" fill="#E9EEF1"/>
<path d="M500.098 620H505.156C508.72 620 510.826 617.714 510.826 613.574C510.826 609.434 508.648 607.13 505.102 607.13H500.098V620ZM502.24 608.948H504.994C507.874 608.948 508.684 611.108 508.684 613.574C508.684 616.04 507.874 618.182 504.994 618.182H502.24V608.948Z" fill="#E9EEF1"/>
<path d="M516.413 618.722C514.739 618.722 513.749 617.444 513.749 615.896H520.805C520.805 612.62 519.347 610.55 516.377 610.55C513.605 610.55 511.859 612.422 511.859 615.41C511.859 618.29 513.605 620.27 516.467 620.27C518.825 620.27 520.193 618.938 520.661 617.192H518.771C518.609 617.75 517.979 618.722 516.413 618.722ZM516.377 612.044C517.907 612.044 518.915 613.07 518.915 614.492H513.749C513.749 613.07 514.847 612.044 516.377 612.044Z" fill="#E9EEF1"/>
<path d="M526.263 608.678V607.13C525.885 607.058 525.471 607.004 525.003 607.004C523.491 607.004 522.663 607.688 522.663 609.632V610.802H521.349V612.35H522.663V620H524.571V612.35H526.263V610.802H524.571V609.794C524.571 608.75 525.039 608.624 526.263 608.678Z" fill="#E9EEF1"/>
<path d="M528.577 609.254C529.135 609.254 529.657 608.894 529.657 608.246C529.657 607.598 529.135 607.256 528.577 607.256C528.055 607.256 527.515 607.598 527.515 608.246C527.515 608.894 528.055 609.254 528.577 609.254ZM527.641 610.802V620H529.531V610.802H527.641Z" fill="#E9EEF1"/>
<path d="M536.403 610.55C534.819 610.55 533.865 611.27 533.379 611.99H533.343V610.802H531.453V620H533.343V614.402C533.343 613.034 534.279 612.152 535.737 612.152C537.033 612.152 537.555 612.944 537.555 614.186V620H539.463V613.646C539.463 611.54 538.113 610.55 536.403 610.55Z" fill="#E9EEF1"/>
<path d="M545.259 618.722C543.585 618.722 542.595 617.444 542.595 615.896H549.651C549.651 612.62 548.193 610.55 545.223 610.55C542.451 610.55 540.705 612.422 540.705 615.41C540.705 618.29 542.451 620.27 545.313 620.27C547.671 620.27 549.039 618.938 549.507 617.192H547.617C547.455 617.75 546.825 618.722 545.259 618.722ZM545.223 612.044C546.753 612.044 547.761 613.07 547.761 614.492H542.595C542.595 613.07 543.693 612.044 545.223 612.044Z" fill="#E9EEF1"/>
<path d="M754.098 620.001H759.156C762.72 620.001 764.826 617.715 764.826 613.575C764.826 609.435 762.648 607.131 759.102 607.131H754.098V620.001ZM756.24 608.949H758.994C761.874 608.949 762.684 611.109 762.684 613.575C762.684 616.041 761.874 618.183 758.994 618.183H756.24V608.949Z" fill="#E9EEF1"/>
<path d="M770.413 618.723C768.739 618.723 767.749 617.445 767.749 615.897H774.805C774.805 612.621 773.347 610.551 770.377 610.551C767.605 610.551 765.859 612.423 765.859 615.411C765.859 618.291 767.605 620.271 770.467 620.271C772.825 620.271 774.193 618.939 774.661 617.193H772.771C772.609 617.751 771.979 618.723 770.413 618.723ZM770.377 612.045C771.907 612.045 772.915 613.071 772.915 614.493H767.749C767.749 613.071 768.847 612.045 770.377 612.045Z" fill="#E9EEF1"/>
<path d="M774.99 610.803L778.248 620.001H780.39L783.648 610.803H781.65L779.328 618.003H779.31L776.988 610.803H774.99Z" fill="#E9EEF1"/>
<path d="M788.396 618.723C786.722 618.723 785.732 617.445 785.732 615.897H792.788C792.788 612.621 791.33 610.551 788.36 610.551C785.588 610.551 783.842 612.423 783.842 615.411C783.842 618.291 785.588 620.271 788.45 620.271C790.808 620.271 792.176 618.939 792.644 617.193H790.754C790.592 617.751 789.962 618.723 788.396 618.723ZM788.36 612.045C789.89 612.045 790.898 613.071 790.898 614.493H785.732C785.732 613.071 786.83 612.045 788.36 612.045Z" fill="#E9EEF1"/>
<path d="M794.12 607.131V620.001H796.028V607.131H794.12Z" fill="#E9EEF1"/>
<path d="M802.003 620.271C799.123 620.271 797.377 618.273 797.377 615.411C797.377 612.549 799.123 610.551 802.003 610.551C804.883 610.551 806.629 612.549 806.629 615.411C806.629 618.273 804.883 620.271 802.003 620.271ZM802.003 618.723C803.803 618.723 804.739 617.301 804.739 615.411C804.739 613.503 803.803 612.099 802.003 612.099C800.203 612.099 799.267 613.503 799.267 615.411C799.267 617.301 800.203 618.723 802.003 618.723Z" fill="#E9EEF1"/>
<path d="M812.705 610.551C811.265 610.551 810.365 611.235 809.879 611.883H809.843V610.803H807.935V623.133H809.843V618.903H809.879C810.365 619.587 811.265 620.271 812.705 620.271C815.045 620.271 816.791 618.435 816.791 615.411C816.791 612.387 815.045 610.551 812.705 610.551ZM812.345 618.723C810.815 618.723 809.861 617.445 809.861 615.411C809.861 613.359 810.815 612.099 812.345 612.099C814.001 612.099 814.883 613.611 814.883 615.411C814.883 617.211 814.001 618.723 812.345 618.723Z" fill="#E9EEF1"/>
<path d="M1019.1 620.001H1024.16C1027.72 620.001 1029.83 617.715 1029.83 613.575C1029.83 609.435 1027.65 607.131 1024.1 607.131H1019.1V620.001ZM1021.24 608.949H1023.99C1026.87 608.949 1027.68 611.109 1027.68 613.575C1027.68 616.041 1026.87 618.183 1023.99 618.183H1021.24V608.949Z" fill="#E9EEF1"/>
<path d="M1035.41 618.723C1033.74 618.723 1032.75 617.445 1032.75 615.897H1039.81C1039.81 612.621 1038.35 610.551 1035.38 610.551C1032.61 610.551 1030.86 612.423 1030.86 615.411C1030.86 618.291 1032.61 620.271 1035.47 620.271C1037.83 620.271 1039.19 618.939 1039.66 617.193H1037.77C1037.61 617.751 1036.98 618.723 1035.41 618.723ZM1035.38 612.045C1036.91 612.045 1037.92 613.071 1037.92 614.493H1032.75C1032.75 613.071 1033.85 612.045 1035.38 612.045Z" fill="#E9EEF1"/>
<path d="M1041.14 607.131V620.001H1043.05V607.131H1041.14Z" fill="#E9EEF1"/>
<path d="M1045.8 609.255C1046.36 609.255 1046.88 608.895 1046.88 608.247C1046.88 607.599 1046.36 607.257 1045.8 607.257C1045.28 607.257 1044.74 607.599 1044.74 608.247C1044.74 608.895 1045.28 609.255 1045.8 609.255ZM1044.87 610.803V620.001H1046.76V610.803H1044.87Z" fill="#E9EEF1"/>
<path d="M1047.78 610.803L1051.04 620.001H1053.18L1056.44 610.803H1054.44L1052.12 618.003H1052.1L1049.78 610.803H1047.78Z" fill="#E9EEF1"/>
<path d="M1061.18 618.723C1059.51 618.723 1058.52 617.445 1058.52 615.897H1065.57C1065.57 612.621 1064.12 610.551 1061.15 610.551C1058.37 610.551 1056.63 612.423 1056.63 615.411C1056.63 618.291 1058.37 620.271 1061.24 620.271C1063.59 620.271 1064.96 618.939 1065.43 617.193H1063.54C1063.38 617.751 1062.75 618.723 1061.18 618.723ZM1061.15 612.045C1062.68 612.045 1063.68 613.071 1063.68 614.493H1058.52C1058.52 613.071 1059.62 612.045 1061.15 612.045Z" fill="#E9EEF1"/>
<path d="M1071.24 610.587C1070.04 610.587 1069.28 611.379 1068.8 612.531H1068.76V610.803H1066.87V620.001H1068.76V615.303C1068.76 613.341 1070.22 612.117 1072.04 612.423H1072.07V610.641C1071.8 610.605 1071.57 610.587 1071.24 610.587Z" fill="#E9EEF1"/>
<path fill-rule="evenodd" clip-rule="evenodd" d="M107.852 291.5H0V290.5H108.148L148.272 316.581L147.728 317.419L107.852 291.5Z" fill="#E9EEF1"/>
<path fill-rule="evenodd" clip-rule="evenodd" d="M1052.15 87.5H1160V86.5H1051.85L1011.73 112.581L1012.27 113.419L1052.15 87.5Z" fill="#E9EEF1"/>
<path fill-rule="evenodd" clip-rule="evenodd" d="M134.5 654L134.5 474L135.5 474L135.5 654L134.5 654Z" fill="#E9EEF1"/>
<path fill-rule="evenodd" clip-rule="evenodd" d="M394.5 654L394.5 548L395.5 548L395.5 654L394.5 654Z" fill="#E9EEF1"/>
<path fill-rule="evenodd" clip-rule="evenodd" d="M654.5 654L654.5 584L655.5 584L655.5 654L654.5 654Z" fill="#E9EEF1"/>
<path fill-rule="evenodd" clip-rule="evenodd" d="M914.5 654L914.5 548L915.5 548L915.5 654L914.5 654Z" fill="#E9EEF1"/>
<path fill-rule="evenodd" clip-rule="evenodd" d="M1174.5 654L1174.5 481L1175.5 481L1175.5 654L1174.5 654Z" fill="#E9EEF1"/>
<path d="M194.966 628.99V639H196.226V628.99H194.966Z" fill="#91999E"/>
<path d="M201.596 631.664C200.378 631.664 199.622 632.21 199.244 632.714H199.216V631.86H198.096V639H199.216V634.548C199.216 633.442 200.056 632.644 201.316 632.644C202.436 632.644 202.87 633.372 202.87 634.296V639H203.99V634.016C203.99 632.378 202.898 631.664 201.596 631.664Z" fill="#91999E"/>
<path d="M208.53 634.758C207.536 634.52 206.57 634.45 206.57 633.61C206.57 633.05 207.116 632.644 208.124 632.644C209.468 632.644 209.734 633.358 209.846 633.904H210.966C210.854 632.672 209.902 631.664 208.124 631.664C206.444 631.664 205.45 632.574 205.45 633.694C205.45 635.374 207.074 635.5 208.166 635.766C209.188 636.018 210.126 636.074 210.126 637.11C210.126 637.586 209.65 638.216 208.432 638.216C206.64 638.216 206.36 637.418 206.29 636.62H205.17C205.24 638.16 206.248 639.196 208.432 639.196C210.056 639.196 211.246 638.342 211.246 637.04C211.246 635.276 209.804 635.066 208.53 634.758Z" fill="#91999E"/>
<path d="M213.171 630.474C213.493 630.474 213.871 630.236 213.871 629.802C213.871 629.368 213.493 629.13 213.171 629.13C212.863 629.13 212.471 629.368 212.471 629.802C212.471 630.236 212.863 630.474 213.171 630.474ZM212.611 631.86V639H213.731V631.86H212.611Z" fill="#91999E"/>
<path d="M220.633 631.86V632.742H220.605C220.185 632.196 219.513 631.664 218.337 631.664C216.573 631.664 215.145 632.798 215.145 635.15C215.145 637.502 216.573 638.636 218.337 638.636C219.513 638.636 220.185 638.132 220.605 637.516H220.633V638.594C220.633 639.924 219.863 640.498 218.533 640.498C217.203 640.498 216.615 639.952 216.475 639.224H215.355C215.467 640.442 216.629 641.478 218.589 641.478C220.549 641.478 221.753 640.512 221.753 638.608V631.86H220.633ZM218.477 637.656C217.007 637.656 216.265 636.55 216.265 635.15C216.265 633.75 217.007 632.644 218.477 632.644C219.807 632.644 220.633 633.47 220.633 635.15C220.633 636.83 219.807 637.656 218.477 637.656Z" fill="#91999E"/>
<path d="M226.929 631.664C225.711 631.664 224.955 632.21 224.577 632.714H224.549V628.99H223.429V639H224.549V634.548C224.549 633.442 225.389 632.644 226.649 632.644C227.769 632.644 228.203 633.372 228.203 634.296V639H229.323V634.016C229.323 632.378 228.231 631.664 226.929 631.664Z" fill="#91999E"/>
<path d="M233.937 632.84V631.86H232.537V629.48H231.417V631.86H230.367V632.84H231.417V637.25C231.417 638.706 232.145 639.084 233.097 639.084C233.391 639.084 233.685 639.056 233.937 639V638.02C232.985 638.09 232.537 637.95 232.537 637.138V632.84H233.937Z" fill="#91999E"/>
<path d="M238.891 630.474C239.213 630.474 239.591 630.236 239.591 629.802C239.591 629.368 239.213 629.13 238.891 629.13C238.583 629.13 238.191 629.368 238.191 629.802C238.191 630.236 238.583 630.474 238.891 630.474ZM238.331 631.86V639H239.451V631.86H238.331Z" fill="#91999E"/>
<path d="M244.77 631.664C243.552 631.664 242.796 632.21 242.418 632.714H242.39V631.86H241.27V639H242.39V634.548C242.39 633.442 243.23 632.644 244.49 632.644C245.61 632.644 246.044 633.372 246.044 634.296V639H247.164V634.016C247.164 632.378 246.072 631.664 244.77 631.664Z" fill="#91999E"/>
<path d="M251.778 632.84V631.86H250.378V629.48H249.258V631.86H248.208V632.84H249.258V637.25C249.258 638.706 249.986 639.084 250.938 639.084C251.232 639.084 251.526 639.056 251.778 639V638.02C250.826 638.09 250.378 637.95 250.378 637.138V632.84H251.778Z" fill="#91999E"/>
<path d="M256.115 639.196C253.931 639.196 252.615 637.656 252.615 635.43C252.615 633.204 253.931 631.664 256.115 631.664C258.285 631.664 259.601 633.204 259.601 635.43C259.601 637.656 258.285 639.196 256.115 639.196ZM256.115 638.216C257.711 638.216 258.481 636.956 258.481 635.43C258.481 633.904 257.711 632.644 256.115 632.644C254.505 632.644 253.735 633.904 253.735 635.43C253.735 636.956 254.505 638.216 256.115 638.216Z" fill="#91999E"/>
<path d="M266.923 632.84V631.86H265.523V629.48H264.403V631.86H263.353V632.84H264.403V637.25C264.403 638.706 265.131 639.084 266.083 639.084C266.377 639.084 266.671 639.056 266.923 639V638.02C265.971 638.09 265.523 637.95 265.523 637.138V632.84H266.923Z" fill="#91999E"/>
<path d="M271.734 631.664C270.516 631.664 269.76 632.21 269.382 632.714H269.354V628.99H268.234V639H269.354V634.548C269.354 633.442 270.194 632.644 271.454 632.644C272.574 632.644 273.008 633.372 273.008 634.296V639H274.128V634.016C274.128 632.378 273.036 631.664 271.734 631.664Z" fill="#91999E"/>
<path d="M278.808 638.216C277.254 638.216 276.484 637.012 276.484 635.724H282.126C282.126 633.19 281.034 631.664 278.794 631.664C276.708 631.664 275.364 633.05 275.364 635.43C275.364 637.67 276.68 639.196 278.85 639.196C280.628 639.196 281.65 638.132 282.014 636.802H280.894C280.768 637.292 280.236 638.216 278.808 638.216ZM278.794 632.644C280.138 632.644 281.006 633.596 281.006 634.744H276.484C276.484 633.596 277.45 632.644 278.794 632.644Z" fill="#91999E"/>
<path d="M289.734 631.664C288.558 631.664 287.886 632.196 287.466 632.742H287.438V631.86H286.318V641.408H287.438V638.076H287.466C287.886 638.692 288.558 639.196 289.734 639.196C291.498 639.196 292.926 637.782 292.926 635.43C292.926 633.078 291.498 631.664 289.734 631.664ZM289.594 638.216C288.264 638.216 287.438 637.11 287.438 635.43C287.438 633.75 288.264 632.644 289.594 632.644C291.064 632.644 291.806 634.03 291.806 635.43C291.806 636.83 291.064 638.216 289.594 638.216Z" fill="#91999E"/>
<path d="M297.359 631.664C296.337 631.664 295.763 632.336 295.385 633.274H295.357V631.86H294.237V639H295.357V635.192C295.357 633.666 296.435 632.574 297.989 632.826H298.017V631.706C297.821 631.678 297.625 631.664 297.359 631.664Z" fill="#91999E"/>
<path d="M301.997 639.196C299.813 639.196 298.497 637.656 298.497 635.43C298.497 633.204 299.813 631.664 301.997 631.664C304.167 631.664 305.483 633.204 305.483 635.43C305.483 637.656 304.167 639.196 301.997 639.196ZM301.997 638.216C303.593 638.216 304.363 636.956 304.363 635.43C304.363 633.904 303.593 632.644 301.997 632.644C300.387 632.644 299.617 633.904 299.617 635.43C299.617 636.956 300.387 638.216 301.997 638.216Z" fill="#91999E"/>
<path d="M310.142 631.664C308.994 631.664 308.322 632.168 307.902 632.784H307.874V628.99H306.754V639H307.874V638.118H307.902C308.322 638.664 308.994 639.196 310.142 639.196C311.934 639.196 313.362 637.782 313.362 635.43C313.362 633.078 311.934 631.664 310.142 631.664ZM310.03 638.216C308.7 638.216 307.874 637.11 307.874 635.43C307.874 633.75 308.7 632.644 310.03 632.644C311.5 632.644 312.242 634.03 312.242 635.43C312.242 636.83 311.5 638.216 310.03 638.216Z" fill="#91999E"/>
<path d="M314.674 628.99V639H315.794V628.99H314.674Z" fill="#91999E"/>
<path d="M320.558 638.216C319.004 638.216 318.234 637.012 318.234 635.724H323.876C323.876 633.19 322.784 631.664 320.544 631.664C318.458 631.664 317.114 633.05 317.114 635.43C317.114 637.67 318.43 639.196 320.6 639.196C322.378 639.196 323.4 638.132 323.764 636.802H322.644C322.518 637.292 321.986 638.216 320.558 638.216ZM320.544 632.644C321.888 632.644 322.756 633.596 322.756 634.744H318.234C318.234 633.596 319.2 632.644 320.544 632.644Z" fill="#91999E"/>
<path d="M332.587 631.664C331.509 631.664 330.767 632.224 330.277 632.896H330.249C329.955 632.098 329.367 631.664 328.345 631.664C327.267 631.664 326.651 632.21 326.273 632.714H326.245V631.86H325.125V639H326.245V634.548C326.245 633.442 326.945 632.644 328.065 632.644C329.185 632.644 329.367 633.372 329.367 634.296V639H330.487V634.548C330.487 633.442 331.187 632.644 332.307 632.644C333.427 632.644 333.609 633.372 333.609 634.296V639H334.729V634.016C334.729 632.518 334.029 631.664 332.587 631.664Z" fill="#91999E"/>
<path d="M461.536 633.163C460.066 632.799 458.988 632.617 458.988 631.287C458.988 630.461 459.744 629.915 461.158 629.915C462.74 629.915 463.496 630.615 463.678 631.959H464.938C464.77 629.887 463.286 628.795 461.158 628.795C458.946 628.795 457.728 629.845 457.728 631.427C457.728 633.373 459.52 633.891 461.018 634.241C463.258 634.759 464 635.011 464 636.383C464 637.279 463.384 638.077 461.648 638.077C459.548 638.077 458.708 637.013 458.568 635.641H457.308C457.448 637.937 459.282 639.197 461.648 639.197C464.182 639.197 465.26 637.839 465.26 636.383C465.26 634.101 463.79 633.723 461.536 633.163Z" fill="#91999E"/>
<path d="M471.742 634.437H472.862C472.694 632.841 471.49 631.665 469.726 631.665C467.64 631.665 466.268 633.191 466.268 635.431C466.268 637.671 467.64 639.197 469.726 639.197C471.49 639.197 472.764 637.993 472.862 636.369H471.742C471.686 637.223 471.168 638.217 469.726 638.217C468.032 638.217 467.388 636.775 467.388 635.431C467.388 634.087 468.032 632.645 469.726 632.645C471.154 632.645 471.686 633.653 471.742 634.437Z" fill="#91999E"/>
<path d="M477.167 639.197C474.983 639.197 473.667 637.657 473.667 635.431C473.667 633.205 474.983 631.665 477.167 631.665C479.337 631.665 480.653 633.205 480.653 635.431C480.653 637.657 479.337 639.197 477.167 639.197ZM477.167 638.217C478.763 638.217 479.533 636.957 479.533 635.431C479.533 633.905 478.763 632.645 477.167 632.645C475.557 632.645 474.787 633.905 474.787 635.431C474.787 636.957 475.557 638.217 477.167 638.217Z" fill="#91999E"/>
<path d="M485.34 631.665C484.164 631.665 483.492 632.197 483.072 632.743H483.044V631.861H481.924V641.409H483.044V638.077H483.072C483.492 638.693 484.164 639.197 485.34 639.197C487.104 639.197 488.532 637.783 488.532 635.431C488.532 633.079 487.104 631.665 485.34 631.665ZM485.2 638.217C483.87 638.217 483.044 637.111 483.044 635.431C483.044 633.751 483.87 632.645 485.2 632.645C486.67 632.645 487.412 634.031 487.412 635.431C487.412 636.831 486.67 638.217 485.2 638.217Z" fill="#91999E"/>
<path d="M492.882 638.217C491.328 638.217 490.558 637.013 490.558 635.725H496.2C496.2 633.191 495.108 631.665 492.868 631.665C490.782 631.665 489.438 633.051 489.438 635.431C489.438 637.671 490.754 639.197 492.924 639.197C494.702 639.197 495.724 638.133 496.088 636.803H494.968C494.842 637.293 494.31 638.217 492.882 638.217ZM492.868 632.645C494.212 632.645 495.08 633.597 495.08 634.745H490.558C490.558 633.597 491.524 632.645 492.868 632.645Z" fill="#91999E"/>
<path d="M505.473 628.991V632.785H505.445C505.025 632.169 504.353 631.665 503.205 631.665C501.413 631.665 499.985 633.079 499.985 635.431C499.985 637.783 501.413 639.197 503.205 639.197C504.353 639.197 505.025 638.665 505.445 638.119H505.473V639.001H506.593V628.991H505.473ZM503.317 638.217C501.847 638.217 501.105 636.831 501.105 635.431C501.105 634.031 501.847 632.645 503.317 632.645C504.647 632.645 505.473 633.751 505.473 635.431C505.473 637.111 504.647 638.217 503.317 638.217Z" fill="#91999E"/>
<path d="M511.364 639.197C509.18 639.197 507.864 637.657 507.864 635.431C507.864 633.205 509.18 631.665 511.364 631.665C513.534 631.665 514.85 633.205 514.85 635.431C514.85 637.657 513.534 639.197 511.364 639.197ZM511.364 638.217C512.96 638.217 513.73 636.957 513.73 635.431C513.73 633.905 512.96 632.645 511.364 632.645C509.754 632.645 508.984 633.905 508.984 635.431C508.984 636.957 509.754 638.217 511.364 638.217Z" fill="#91999E"/>
<path d="M515.27 631.861L517.552 639.001H518.742L520.324 633.107H520.352L521.962 639.001H523.152L525.434 631.861H524.202L522.578 637.783H522.55L520.94 631.861H519.75L518.154 637.783H518.126L516.502 631.861H515.27Z" fill="#91999E"/>
<path d="M529.905 631.665C528.687 631.665 527.931 632.211 527.553 632.715H527.525V631.861H526.405V639.001H527.525V634.549C527.525 633.443 528.365 632.645 529.625 632.645C530.745 632.645 531.179 633.373 531.179 634.297V639.001H532.299V634.017C532.299 632.379 531.207 631.665 529.905 631.665Z" fill="#91999E"/>
<path d="M539.992 632.841V631.861H538.592V629.481H537.472V631.861H536.422V632.841H537.472V637.251C537.472 638.707 538.2 639.085 539.152 639.085C539.446 639.085 539.74 639.057 539.992 639.001V638.021C539.04 638.091 538.592 637.951 538.592 637.139V632.841H539.992Z" fill="#91999E"/>
<path d="M544.803 631.665C543.585 631.665 542.829 632.211 542.451 632.715H542.424V628.991H541.303V639.001H542.424V634.549C542.424 633.443 543.263 632.645 544.523 632.645C545.643 632.645 546.077 633.373 546.077 634.297V639.001H547.198V634.017C547.198 632.379 546.105 631.665 544.803 631.665Z" fill="#91999E"/>
<path d="M551.878 638.217C550.324 638.217 549.554 637.013 549.554 635.725H555.196C555.196 633.191 554.104 631.665 551.864 631.665C549.778 631.665 548.434 633.051 548.434 635.431C548.434 637.671 549.75 639.197 551.92 639.197C553.698 639.197 554.72 638.133 555.084 636.803H553.964C553.838 637.293 553.306 638.217 551.878 638.217ZM551.864 632.645C553.208 632.645 554.076 633.597 554.076 634.745H549.554C549.554 633.597 550.52 632.645 551.864 632.645Z" fill="#91999E"/>
<path d="M562.398 629.971V628.991C562.146 628.935 561.852 628.907 561.6 628.907C560.648 628.907 559.92 629.285 559.92 630.741V631.861H558.926V632.841H559.92V639.001H561.04V632.841H562.398V631.861H561.04V630.853C561.04 630.041 561.446 629.901 562.398 629.971Z" fill="#91999E"/>
<path d="M566.518 639.197C564.334 639.197 563.018 637.657 563.018 635.431C563.018 633.205 564.334 631.665 566.518 631.665C568.688 631.665 570.004 633.205 570.004 635.431C570.004 637.657 568.688 639.197 566.518 639.197ZM566.518 638.217C568.114 638.217 568.884 636.957 568.884 635.431C568.884 633.905 568.114 632.645 566.518 632.645C564.908 632.645 564.138 633.905 564.138 635.431C564.138 636.957 564.908 638.217 566.518 638.217Z" fill="#91999E"/>
<path d="M576.343 634.437H577.463C577.295 632.841 576.091 631.665 574.327 631.665C572.241 631.665 570.869 633.191 570.869 635.431C570.869 637.671 572.241 639.197 574.327 639.197C576.091 639.197 577.365 637.993 577.463 636.369H576.343C576.287 637.223 575.769 638.217 574.327 638.217C572.633 638.217 571.989 636.775 571.989 635.431C571.989 634.087 572.633 632.645 574.327 632.645C575.755 632.645 576.287 633.653 576.343 634.437Z" fill="#91999E"/>
<path d="M583.407 631.861V636.313C583.407 637.419 582.567 638.217 581.307 638.217C580.187 638.217 579.753 637.489 579.753 636.565V631.861H578.633V636.845C578.633 638.483 579.725 639.197 581.027 639.197C582.245 639.197 583.001 638.651 583.379 638.147H583.407V639.001H584.527V631.861H583.407Z" fill="#91999E"/>
<path d="M589.109 634.759C588.115 634.521 587.149 634.451 587.149 633.611C587.149 633.051 587.695 632.645 588.703 632.645C590.047 632.645 590.313 633.359 590.425 633.905H591.545C591.433 632.673 590.481 631.665 588.703 631.665C587.023 631.665 586.029 632.575 586.029 633.695C586.029 635.375 587.653 635.501 588.745 635.767C589.767 636.019 590.705 636.075 590.705 637.111C590.705 637.587 590.229 638.217 589.011 638.217C587.219 638.217 586.939 637.419 586.869 636.621H585.749C585.819 638.161 586.827 639.197 589.011 639.197C590.635 639.197 591.825 638.343 591.825 637.041C591.825 635.277 590.383 635.067 589.109 634.759Z" fill="#91999E"/>
<path d="M734.938 639H736.198V634.814H738.914C740.748 634.814 742.162 634.002 742.162 631.902C742.162 629.802 740.748 628.99 738.914 628.99H734.938V639ZM736.198 630.11H739.054C740.3 630.11 740.902 630.684 740.902 631.902C740.902 633.12 740.3 633.694 739.054 633.694H736.198V630.11Z" fill="#91999E"/>
<path d="M746.234 639.196C744.05 639.196 742.734 637.656 742.734 635.43C742.734 633.204 744.05 631.664 746.234 631.664C748.404 631.664 749.72 633.204 749.72 635.43C749.72 637.656 748.404 639.196 746.234 639.196ZM746.234 638.216C747.83 638.216 748.6 636.956 748.6 635.43C748.6 633.904 747.83 632.644 746.234 632.644C744.624 632.644 743.854 633.904 743.854 635.43C743.854 636.956 744.624 638.216 746.234 638.216Z" fill="#91999E"/>
<path d="M753.963 632.84V631.86H752.563V629.48H751.443V631.86H750.393V632.84H751.443V637.25C751.443 638.706 752.171 639.084 753.123 639.084C753.417 639.084 753.711 639.056 753.963 639V638.02C753.011 638.09 752.563 637.95 752.563 637.138V632.84H753.963Z" fill="#91999E"/>
<path d="M758.244 638.216C756.69 638.216 755.92 637.012 755.92 635.724H761.562C761.562 633.19 760.47 631.664 758.23 631.664C756.144 631.664 754.8 633.05 754.8 635.43C754.8 637.67 756.116 639.196 758.286 639.196C760.064 639.196 761.086 638.132 761.45 636.802H760.33C760.204 637.292 759.672 638.216 758.244 638.216ZM758.23 632.644C759.574 632.644 760.442 633.596 760.442 634.744H755.92C755.92 633.596 756.886 632.644 758.23 632.644Z" fill="#91999E"/>
<path d="M766.31 631.664C765.092 631.664 764.336 632.21 763.958 632.714H763.93V631.86H762.81V639H763.93V634.548C763.93 633.442 764.77 632.644 766.03 632.644C767.15 632.644 767.584 633.372 767.584 634.296V639H768.704V634.016C768.704 632.378 767.612 631.664 766.31 631.664Z" fill="#91999E"/>
<path d="M773.318 632.84V631.86H771.918V629.48H770.798V631.86H769.748V632.84H770.798V637.25C770.798 638.706 771.526 639.084 772.478 639.084C772.772 639.084 773.066 639.056 773.318 639V638.02C772.366 638.09 771.918 637.95 771.918 637.138V632.84H773.318Z" fill="#91999E"/>
<path d="M775.33 630.474C775.652 630.474 776.03 630.236 776.03 629.802C776.03 629.368 775.652 629.13 775.33 629.13C775.022 629.13 774.63 629.368 774.63 629.802C774.63 630.236 775.022 630.474 775.33 630.474ZM774.77 631.86V639H775.89V631.86H774.77Z" fill="#91999E"/>
<path d="M782.077 633.68C782.077 634.394 781.531 634.548 780.327 634.772C778.479 635.122 777.275 635.542 777.275 637.166C777.275 638.37 778.185 639.196 779.627 639.196C780.803 639.196 781.601 638.776 782.049 638.104H782.077C782.273 638.888 782.679 639.07 783.351 639.07C783.561 639.07 783.715 639.056 784.009 638.958V638.174C783.295 638.258 783.197 637.95 783.197 637.39V633.918C783.197 632.196 781.979 631.664 780.621 631.664C778.549 631.664 777.695 632.7 777.625 634.072H778.745C778.815 633.036 779.263 632.644 780.621 632.644C781.769 632.644 782.077 633.12 782.077 633.68ZM779.739 638.216C778.815 638.216 778.395 637.81 778.395 637.11C778.395 636.256 779.039 635.906 780.425 635.612C781.181 635.458 781.867 635.262 782.077 635.052V636.242C782.077 637.614 781.069 638.216 779.739 638.216Z" fill="#91999E"/>
<path d="M785.028 628.99V639H786.148V628.99H785.028Z" fill="#91999E"/>
<path d="M793.714 634.758C792.72 634.52 791.754 634.45 791.754 633.61C791.754 633.05 792.3 632.644 793.308 632.644C794.652 632.644 794.918 633.358 795.03 633.904H796.15C796.038 632.672 795.086 631.664 793.308 631.664C791.628 631.664 790.634 632.574 790.634 633.694C790.634 635.374 792.258 635.5 793.35 635.766C794.372 636.018 795.31 636.074 795.31 637.11C795.31 637.586 794.834 638.216 793.616 638.216C791.824 638.216 791.544 637.418 791.474 636.62H790.354C790.424 638.16 791.432 639.196 793.616 639.196C795.24 639.196 796.43 638.342 796.43 637.04C796.43 635.276 794.988 635.066 793.714 634.758Z" fill="#91999E"/>
<path d="M800.886 639.196C798.702 639.196 797.386 637.656 797.386 635.43C797.386 633.204 798.702 631.664 800.886 631.664C803.056 631.664 804.372 633.204 804.372 635.43C804.372 637.656 803.056 639.196 800.886 639.196ZM800.886 638.216C802.482 638.216 803.252 636.956 803.252 635.43C803.252 633.904 802.482 632.644 800.886 632.644C799.276 632.644 798.506 633.904 798.506 635.43C798.506 636.956 799.276 638.216 800.886 638.216Z" fill="#91999E"/>
<path d="M805.685 628.99V639H806.805V628.99H805.685Z" fill="#91999E"/>
<path d="M813.263 631.86V636.312C813.263 637.418 812.423 638.216 811.163 638.216C810.043 638.216 809.609 637.488 809.609 636.564V631.86H808.489V636.844C808.489 638.482 809.581 639.196 810.883 639.196C812.101 639.196 812.857 638.65 813.235 638.146H813.263V639H814.383V631.86H813.263Z" fill="#91999E"/>
<path d="M819.176 632.84V631.86H817.776V629.48H816.656V631.86H815.606V632.84H816.656V637.25C816.656 638.706 817.384 639.084 818.336 639.084C818.63 639.084 818.924 639.056 819.176 639V638.02C818.224 638.09 817.776 637.95 817.776 637.138V632.84H819.176Z" fill="#91999E"/>
<path d="M821.187 630.474C821.509 630.474 821.887 630.236 821.887 629.802C821.887 629.368 821.509 629.13 821.187 629.13C820.879 629.13 820.487 629.368 820.487 629.802C820.487 630.236 820.879 630.474 821.187 630.474ZM820.627 631.86V639H821.747V631.86H820.627Z" fill="#91999E"/>
<path d="M826.661 639.196C824.477 639.196 823.161 637.656 823.161 635.43C823.161 633.204 824.477 631.664 826.661 631.664C828.831 631.664 830.147 633.204 830.147 635.43C830.147 637.656 828.831 639.196 826.661 639.196ZM826.661 638.216C828.257 638.216 829.027 636.956 829.027 635.43C829.027 633.904 828.257 632.644 826.661 632.644C825.051 632.644 824.281 633.904 824.281 635.43C824.281 636.956 825.051 638.216 826.661 638.216Z" fill="#91999E"/>
<path d="M834.918 631.664C833.7 631.664 832.944 632.21 832.566 632.714H832.538V631.86H831.418V639H832.538V634.548C832.538 633.442 833.378 632.644 834.638 632.644C835.758 632.644 836.192 633.372 836.192 634.296V639H837.312V634.016C837.312 632.378 836.22 631.664 834.918 631.664Z" fill="#91999E"/>
<path d="M841.852 634.758C840.858 634.52 839.892 634.45 839.892 633.61C839.892 633.05 840.438 632.644 841.446 632.644C842.79 632.644 843.056 633.358 843.168 633.904H844.288C844.176 632.672 843.224 631.664 841.446 631.664C839.766 631.664 838.772 632.574 838.772 633.694C838.772 635.374 840.396 635.5 841.488 635.766C842.51 636.018 843.448 636.074 843.448 637.11C843.448 637.586 842.972 638.216 841.754 638.216C839.962 638.216 839.682 637.418 839.612 636.62H838.492C838.562 638.16 839.57 639.196 841.754 639.196C843.378 639.196 844.568 638.342 844.568 637.04C844.568 635.276 843.126 635.066 841.852 634.758Z" fill="#91999E"/>
<path d="M932.536 633.163C931.066 632.799 929.988 632.617 929.988 631.287C929.988 630.461 930.744 629.915 932.158 629.915C933.74 629.915 934.496 630.615 934.678 631.959H935.938C935.77 629.887 934.286 628.795 932.158 628.795C929.946 628.795 928.728 629.845 928.728 631.427C928.728 633.373 930.52 633.891 932.018 634.241C934.258 634.759 935 635.011 935 636.383C935 637.279 934.384 638.077 932.648 638.077C930.548 638.077 929.708 637.013 929.568 635.641H928.308C928.448 637.937 930.282 639.197 932.648 639.197C935.182 639.197 936.26 637.839 936.26 636.383C936.26 634.101 934.79 633.723 932.536 633.163Z" fill="#91999E"/>
<path d="M940.768 639.197C938.584 639.197 937.268 637.657 937.268 635.431C937.268 633.205 938.584 631.665 940.768 631.665C942.938 631.665 944.254 633.205 944.254 635.431C944.254 637.657 942.938 639.197 940.768 639.197ZM940.768 638.217C942.364 638.217 943.134 636.957 943.134 635.431C943.134 633.905 942.364 632.645 940.768 632.645C939.158 632.645 938.388 633.905 938.388 635.431C938.388 636.957 939.158 638.217 940.768 638.217Z" fill="#91999E"/>
<path d="M945.567 628.991V639.001H946.687V628.991H945.567Z" fill="#91999E"/>
<path d="M953.145 631.861V636.313C953.145 637.419 952.305 638.217 951.045 638.217C949.925 638.217 949.491 637.489 949.491 636.565V631.861H948.371V636.845C948.371 638.483 949.463 639.197 950.765 639.197C951.983 639.197 952.739 638.651 953.117 638.147H953.145V639.001H954.265V631.861H953.145Z" fill="#91999E"/>
<path d="M959.057 632.841V631.861H957.657V629.481H956.537V631.861H955.487V632.841H956.537V637.251C956.537 638.707 957.265 639.085 958.217 639.085C958.511 639.085 958.805 639.057 959.057 639.001V638.021C958.105 638.091 957.657 637.951 957.657 637.139V632.841H959.057Z" fill="#91999E"/>
<path d="M961.068 630.475C961.39 630.475 961.768 630.237 961.768 629.803C961.768 629.369 961.39 629.131 961.068 629.131C960.76 629.131 960.368 629.369 960.368 629.803C960.368 630.237 960.76 630.475 961.068 630.475ZM960.508 631.861V639.001H961.628V631.861H960.508Z" fill="#91999E"/>
<path d="M966.542 639.197C964.358 639.197 963.042 637.657 963.042 635.431C963.042 633.205 964.358 631.665 966.542 631.665C968.712 631.665 970.028 633.205 970.028 635.431C970.028 637.657 968.712 639.197 966.542 639.197ZM966.542 638.217C968.138 638.217 968.908 636.957 968.908 635.431C968.908 633.905 968.138 632.645 966.542 632.645C964.932 632.645 964.162 633.905 964.162 635.431C964.162 636.957 964.932 638.217 966.542 638.217Z" fill="#91999E"/>
<path d="M974.799 631.665C973.581 631.665 972.825 632.211 972.447 632.715H972.419V631.861H971.299V639.001H972.419V634.549C972.419 633.443 973.259 632.645 974.519 632.645C975.639 632.645 976.073 633.373 976.073 634.297V639.001H977.193V634.017C977.193 632.379 976.101 631.665 974.799 631.665Z" fill="#91999E"/>
<path d="M981.733 634.759C980.739 634.521 979.773 634.451 979.773 633.611C979.773 633.051 980.319 632.645 981.327 632.645C982.671 632.645 982.937 633.359 983.049 633.905H984.169C984.057 632.673 983.105 631.665 981.327 631.665C979.647 631.665 978.653 632.575 978.653 633.695C978.653 635.375 980.277 635.501 981.369 635.767C982.391 636.019 983.329 636.075 983.329 637.111C983.329 637.587 982.853 638.217 981.635 638.217C979.843 638.217 979.563 637.419 979.493 636.621H978.373C978.443 638.161 979.451 639.197 981.635 639.197C983.259 639.197 984.449 638.343 984.449 637.041C984.449 635.277 983.007 635.067 981.733 634.759Z" fill="#91999E"/>
<path d="M991.725 632.841V631.861H990.325V629.481H989.205V631.861H988.155V632.841H989.205V637.251C989.205 638.707 989.933 639.085 990.885 639.085C991.179 639.085 991.473 639.057 991.725 639.001V638.021C990.773 638.091 990.325 637.951 990.325 637.139V632.841H991.725Z" fill="#91999E"/>
<path d="M996.537 631.665C995.319 631.665 994.563 632.211 994.185 632.715H994.157V628.991H993.037V639.001H994.157V634.549C994.157 633.443 994.997 632.645 996.257 632.645C997.377 632.645 997.811 633.373 997.811 634.297V639.001H998.931V634.017C998.931 632.379 997.839 631.665 996.537 631.665Z" fill="#91999E"/>
<path d="M1004.94 633.681C1004.94 634.395 1004.4 634.549 1003.19 634.773C1001.34 635.123 1000.14 635.543 1000.14 637.167C1000.14 638.371 1001.05 639.197 1002.49 639.197C1003.67 639.197 1004.47 638.777 1004.91 638.105H1004.94C1005.14 638.889 1005.54 639.071 1006.22 639.071C1006.43 639.071 1006.58 639.057 1006.87 638.959V638.175C1006.16 638.259 1006.06 637.951 1006.06 637.391V633.919C1006.06 632.197 1004.84 631.665 1003.49 631.665C1001.41 631.665 1000.56 632.701 1000.49 634.073H1001.61C1001.68 633.037 1002.13 632.645 1003.49 632.645C1004.63 632.645 1004.94 633.121 1004.94 633.681ZM1002.6 638.217C1001.68 638.217 1001.26 637.811 1001.26 637.111C1001.26 636.257 1001.9 635.907 1003.29 635.613C1004.05 635.459 1004.73 635.263 1004.94 635.053V636.243C1004.94 637.615 1003.93 638.217 1002.6 638.217Z" fill="#91999E"/>
<path d="M1010.82 632.841V631.861H1009.42V629.481H1008.3V631.861H1007.25V632.841H1008.3V637.251C1008.3 638.707 1009.03 639.085 1009.98 639.085C1010.28 639.085 1010.57 639.057 1010.82 639.001V638.021C1009.87 638.091 1009.42 637.951 1009.42 637.139V632.841H1010.82Z" fill="#91999E"/>
<path d="M1014.36 631.861L1016.64 639.001H1017.83L1019.42 633.107H1019.44L1021.05 639.001H1022.24L1024.53 631.861H1023.29L1021.67 637.783H1021.64L1020.03 631.861H1018.84L1017.25 637.783H1017.22L1015.59 631.861H1014.36Z" fill="#91999E"/>
<path d="M1028.45 639.197C1026.27 639.197 1024.95 637.657 1024.95 635.431C1024.95 633.205 1026.27 631.665 1028.45 631.665C1030.62 631.665 1031.94 633.205 1031.94 635.431C1031.94 637.657 1030.62 639.197 1028.45 639.197ZM1028.45 638.217C1030.05 638.217 1030.82 636.957 1030.82 635.431C1030.82 633.905 1030.05 632.645 1028.45 632.645C1026.84 632.645 1026.07 633.905 1026.07 635.431C1026.07 636.957 1026.84 638.217 1028.45 638.217Z" fill="#91999E"/>
<path d="M1036.33 631.665C1035.31 631.665 1034.74 632.337 1034.36 633.275H1034.33V631.861H1033.21V639.001H1034.33V635.193C1034.33 633.667 1035.41 632.575 1036.96 632.827H1036.99V631.707C1036.79 631.679 1036.6 631.665 1036.33 631.665Z" fill="#91999E"/>
<path d="M1038.15 628.991V639.001H1039.27V636.187L1040.38 635.165L1042.91 639.001H1044.24L1041.16 634.507L1043.95 631.861H1042.55L1039.27 634.927V628.991H1038.15Z" fill="#91999E"/>
<path d="M1055.64 639.001L1054.16 637.167C1054.69 636.271 1054.98 635.221 1055.11 634.269H1053.99C1053.89 634.969 1053.7 635.655 1053.42 636.257L1051.37 633.737C1052.67 632.953 1053.43 632.239 1053.43 631.105C1053.43 629.971 1052.59 628.781 1051.08 628.795C1049.47 628.809 1048.73 629.971 1048.73 631.105C1048.73 632.015 1049.2 632.729 1049.89 633.583C1048.87 634.227 1047.86 635.081 1047.86 636.537C1047.86 638.063 1048.94 639.197 1050.85 639.197C1051.99 639.197 1052.86 638.735 1053.51 638.021L1054.31 639.001H1055.64ZM1051.08 629.915C1051.86 629.915 1052.31 630.503 1052.31 631.189C1052.31 632.043 1051.72 632.491 1050.8 633.037C1050.27 632.379 1049.85 631.791 1049.85 631.189C1049.85 630.503 1050.29 629.915 1051.08 629.915ZM1050.85 638.077C1049.62 638.077 1048.98 637.335 1048.98 636.537C1048.98 635.585 1049.55 634.885 1050.45 634.283L1052.81 637.167C1052.32 637.727 1051.68 638.077 1050.85 638.077Z" fill="#91999E"/>
<path d="M1062.5 631.665C1061.48 631.665 1060.91 632.337 1060.53 633.275H1060.5V631.861H1059.38V639.001H1060.5V635.193C1060.5 633.667 1061.58 632.575 1063.13 632.827H1063.16V631.707C1062.97 631.679 1062.77 631.665 1062.5 631.665Z" fill="#91999E"/>
<path d="M1067.08 638.217C1065.53 638.217 1064.76 637.013 1064.76 635.725H1070.4C1070.4 633.191 1069.31 631.665 1067.07 631.665C1064.98 631.665 1063.64 633.051 1063.64 635.431C1063.64 637.671 1064.96 639.197 1067.13 639.197C1068.9 639.197 1069.93 638.133 1070.29 636.803H1069.17C1069.04 637.293 1068.51 638.217 1067.08 638.217ZM1067.07 632.645C1068.41 632.645 1069.28 633.597 1069.28 634.745H1064.76C1064.76 633.597 1065.73 632.645 1067.07 632.645Z" fill="#91999E"/>
<path d="M1076.72 634.437H1077.84C1077.67 632.841 1076.47 631.665 1074.7 631.665C1072.62 631.665 1071.25 633.191 1071.25 635.431C1071.25 637.671 1072.62 639.197 1074.7 639.197C1076.47 639.197 1077.74 637.993 1077.84 636.369H1076.72C1076.66 637.223 1076.15 638.217 1074.7 638.217C1073.01 638.217 1072.37 636.775 1072.37 635.431C1072.37 634.087 1073.01 632.645 1074.7 632.645C1076.13 632.645 1076.66 633.653 1076.72 634.437Z" fill="#91999E"/>
<path d="M1082.09 638.217C1080.54 638.217 1079.77 637.013 1079.77 635.725H1085.41C1085.41 633.191 1084.32 631.665 1082.08 631.665C1079.99 631.665 1078.65 633.051 1078.65 635.431C1078.65 637.671 1079.96 639.197 1082.13 639.197C1083.91 639.197 1084.93 638.133 1085.3 636.803H1084.18C1084.05 637.293 1083.52 638.217 1082.09 638.217ZM1082.08 632.645C1083.42 632.645 1084.29 633.597 1084.29 634.745H1079.77C1079.77 633.597 1080.73 632.645 1082.08 632.645Z" fill="#91999E"/>
<path d="M1087.36 630.475C1087.68 630.475 1088.06 630.237 1088.06 629.803C1088.06 629.369 1087.68 629.131 1087.36 629.131C1087.05 629.131 1086.66 629.369 1086.66 629.803C1086.66 630.237 1087.05 630.475 1087.36 630.475ZM1086.8 631.861V639.001H1087.92V631.861H1086.8Z" fill="#91999E"/>
<path d="M1088.99 631.861L1091.56 639.001H1092.83L1095.39 631.861H1094.17L1092.2 637.881H1092.19L1090.21 631.861H1088.99Z" fill="#91999E"/>
<path d="M1099.23 638.217C1097.68 638.217 1096.91 637.013 1096.91 635.725H1102.55C1102.55 633.191 1101.46 631.665 1099.22 631.665C1097.13 631.665 1095.79 633.051 1095.79 635.431C1095.79 637.671 1097.1 639.197 1099.27 639.197C1101.05 639.197 1102.07 638.133 1102.44 636.803H1101.32C1101.19 637.293 1100.66 638.217 1099.23 638.217ZM1099.22 632.645C1100.56 632.645 1101.43 633.597 1101.43 634.745H1096.91C1096.91 633.597 1097.87 632.645 1099.22 632.645Z" fill="#91999E"/>
<path d="M1109.75 629.971V628.991C1109.5 628.935 1109.2 628.907 1108.95 628.907C1108 628.907 1107.27 629.285 1107.27 630.741V631.861H1106.28V632.841H1107.27V639.001H1108.39V632.841H1109.75V631.861H1108.39V630.853C1108.39 630.041 1108.8 629.901 1109.75 629.971Z" fill="#91999E"/>
<path d="M1113.81 638.217C1112.26 638.217 1111.49 637.013 1111.49 635.725H1117.13C1117.13 633.191 1116.04 631.665 1113.8 631.665C1111.71 631.665 1110.37 633.051 1110.37 635.431C1110.37 637.671 1111.69 639.197 1113.86 639.197C1115.63 639.197 1116.66 638.133 1117.02 636.803H1115.9C1115.77 637.293 1115.24 638.217 1113.81 638.217ZM1113.8 632.645C1115.14 632.645 1116.01 633.597 1116.01 634.745H1111.49C1111.49 633.597 1112.46 632.645 1113.8 632.645Z" fill="#91999E"/>
<path d="M1121.42 638.217C1119.86 638.217 1119.09 637.013 1119.09 635.725H1124.74C1124.74 633.191 1123.64 631.665 1121.4 631.665C1119.32 631.665 1117.97 633.051 1117.97 635.431C1117.97 637.671 1119.29 639.197 1121.46 639.197C1123.24 639.197 1124.26 638.133 1124.62 636.803H1123.5C1123.38 637.293 1122.85 638.217 1121.42 638.217ZM1121.4 632.645C1122.75 632.645 1123.62 633.597 1123.62 634.745H1119.09C1119.09 633.597 1120.06 632.645 1121.4 632.645Z" fill="#91999E"/>
<path d="M1131.07 628.991V632.785H1131.04C1130.62 632.169 1129.95 631.665 1128.8 631.665C1127.01 631.665 1125.58 633.079 1125.58 635.431C1125.58 637.783 1127.01 639.197 1128.8 639.197C1129.95 639.197 1130.62 638.665 1131.04 638.119H1131.07V639.001H1132.19V628.991H1131.07ZM1128.91 638.217C1127.44 638.217 1126.7 636.831 1126.7 635.431C1126.7 634.031 1127.44 632.645 1128.91 632.645C1130.24 632.645 1131.07 633.751 1131.07 635.431C1131.07 637.111 1130.24 638.217 1128.91 638.217Z" fill="#91999E"/>
<path d="M1137.12 631.665C1135.97 631.665 1135.3 632.169 1134.88 632.785H1134.85V628.991H1133.73V639.001H1134.85V638.119H1134.88C1135.3 638.665 1135.97 639.197 1137.12 639.197C1138.91 639.197 1140.34 637.783 1140.34 635.431C1140.34 633.079 1138.91 631.665 1137.12 631.665ZM1137 638.217C1135.67 638.217 1134.85 637.111 1134.85 635.431C1134.85 633.751 1135.67 632.645 1137 632.645C1138.47 632.645 1139.22 634.031 1139.22 635.431C1139.22 636.831 1138.47 638.217 1137 638.217Z" fill="#91999E"/>
<path d="M1145.97 633.681C1145.97 634.395 1145.43 634.549 1144.22 634.773C1142.38 635.123 1141.17 635.543 1141.17 637.167C1141.17 638.371 1142.08 639.197 1143.52 639.197C1144.7 639.197 1145.5 638.777 1145.95 638.105H1145.97C1146.17 638.889 1146.58 639.071 1147.25 639.071C1147.46 639.071 1147.61 639.057 1147.91 638.959V638.175C1147.19 638.259 1147.09 637.951 1147.09 637.391V633.919C1147.09 632.197 1145.88 631.665 1144.52 631.665C1142.45 631.665 1141.59 632.701 1141.52 634.073H1142.64C1142.71 633.037 1143.16 632.645 1144.52 632.645C1145.67 632.645 1145.97 633.121 1145.97 633.681ZM1143.64 638.217C1142.71 638.217 1142.29 637.811 1142.29 637.111C1142.29 636.257 1142.94 635.907 1144.32 635.613C1145.08 635.459 1145.76 635.263 1145.97 635.053V636.243C1145.97 637.615 1144.97 638.217 1143.64 638.217Z" fill="#91999E"/>
<path d="M1153.95 634.437H1155.07C1154.9 632.841 1153.7 631.665 1151.93 631.665C1149.85 631.665 1148.48 633.191 1148.48 635.431C1148.48 637.671 1149.85 639.197 1151.93 639.197C1153.7 639.197 1154.97 637.993 1155.07 636.369H1153.95C1153.89 637.223 1153.38 638.217 1151.93 638.217C1150.24 638.217 1149.6 636.775 1149.6 635.431C1149.6 634.087 1150.24 632.645 1151.93 632.645C1153.36 632.645 1153.89 633.653 1153.95 634.437Z" fill="#91999E"/>
<path d="M1156.28 628.991V639.001H1157.4V636.187L1158.51 635.165L1161.04 639.001H1162.37L1159.29 634.507L1162.08 631.861H1160.68L1157.4 634.927V628.991H1156.28Z" fill="#91999E"/>
</svg>
