<svg width="601" height="517" viewBox="0 0 601 517" fill="none" xmlns="http://www.w3.org/2000/svg">
<g opacity="0.8" clip-path="url(#clip0_6993_103954)">
<path d="M559.266 294.376L527.881 304.262L528.114 305.004L559.499 295.117L559.266 294.376Z" fill="white"/>
<path d="M531.872 292.147L434.92 322.692L435.153 323.422L532.105 292.894L531.872 292.147Z" fill="white"/>
<path d="M471.937 299.068L501.392 289.783L501.159 289.037L471.704 298.321L471.937 299.068Z" fill="white"/>
<path d="M457.91 302.652L381.408 326.75L381.641 327.492L458.142 303.394L457.91 302.652Z" fill="white"/>
<path d="M480.781 282.57L325.349 331.531L325.582 332.273L481.013 283.312L480.781 282.57Z" fill="white"/>
<path d="M555.578 247.633L508.507 262.51L508.74 263.251L555.811 248.375L555.578 247.633Z" fill="white"/>
<path d="M390.998 299.464L340.921 315.29L341.155 316.032L391.231 300.205L390.998 299.464Z" fill="white"/>
<path d="M601 224.2V219.939L558.269 194.231L592.972 171.369C593.718 170.872 594.246 170.094 594.432 169.208C605.068 117.263 591.404 102.535 589.541 100.794L589.494 100.56L218.236 0.233423C216.73 -0.186485 215.146 -0.0309632 213.764 0.668883L2.17382 107.73L3.26073 114.184L7.45311 115.226C8.91267 118.01 21.055 142.815 9.45613 170.607L0 176.564L0.543456 183.376L38.3059 194.044L38.2282 194.153L78.0713 221.929L41.9548 244.278C41.7995 244.355 26.5672 252.816 21.7693 270.53C18.1048 284.06 21.319 299.286 31.2875 315.802C32.0328 317.031 33.1819 318.01 34.5327 318.555L64.1278 330.545L28.2597 351.448C26.0704 352.816 24.1915 354.698 22.8407 356.906C17.2198 366.098 0.481346 398.71 20.6203 432.288C21.4587 433.687 22.8873 434.683 24.5331 435.009C27.5765 435.647 329.334 499.333 430.293 516.145C432.87 516.658 434.609 516.985 435.96 516.985C438.677 516.985 439.811 515.647 442.901 511.743C443.755 510.67 444.764 509.38 446.037 507.855L577.476 348.881L597.491 337.077L597.957 336.797L597.041 331.681L588.64 326.704C586.466 316.611 587.243 307.699 588.19 300.856L599.447 297.295V291.929L585.1 282.971L585.022 283.111C581.172 254.651 590.705 229.441 591.575 227.201L601 224.2ZM599.649 223.811L431.613 277.684L441.783 270.981L599.649 220.358V223.811ZM597.273 219.519L446.612 267.808L556.825 195.195L597.273 219.519ZM214.448 2.05302C215.488 1.52425 216.684 1.41539 217.817 1.72643L587.088 101.525L405.993 220.234L6.44383 107.31L214.448 2.05302ZM10.7138 171.649C21.8159 145.615 12.4218 122.038 9.48719 115.801L401.039 226.455C399.657 231.276 392.624 258.695 401.272 289.97L7.26678 178.617C8.5866 176.284 9.73562 173.966 10.7138 171.649ZM401.769 226.673L405.899 227.839L406.241 227.932L587.305 109.207C590.767 116.61 595.472 133.593 589.774 166.284L402.049 289.954C393.369 258.757 400.418 231.385 401.769 226.673ZM8.35369 173.142C7.57733 174.822 6.7078 176.501 5.72958 178.181L2.00302 177.124L8.35369 173.142ZM1.61484 182.022L1.39746 178.539L401.723 291.727L402.064 291.821L590.736 167.528C591.031 167.326 591.249 167.015 591.311 166.657C597.211 132.878 592.103 115.49 588.532 108.134C588.392 107.839 588.112 107.605 587.802 107.528C587.476 107.434 587.119 107.497 586.839 107.683L406.008 226.268L4.48739 112.986L3.72655 108.165L405.899 221.836L406.241 221.929L588.796 102.256C591.218 104.93 602.801 120.654 592.926 168.896C592.833 169.379 592.538 169.798 592.134 170.078L402.111 295.258L1.61484 182.022ZM221.745 245.895L308.9 303.345L309.335 302.692L224.23 246.579L376.227 289.534L316.012 308.306C315.593 308.43 315.251 308.741 315.049 309.13C298.901 342.07 310.996 376.611 314.04 384.231C313.139 383.843 312.192 383.189 310.872 382.287C310.437 381.992 309.972 381.665 309.459 381.323L42.5138 195.242L221.745 245.895ZM35.1383 317.124C34.098 316.704 33.1974 315.942 32.6384 315.009C22.8873 298.881 19.7507 284.06 23.2754 270.965C27.887 253.889 42.5604 245.724 42.7467 245.615L79.5619 222.956L195.178 303.562L55.9449 246.439L55.6499 247.155L198.097 305.6L308.574 382.614C309.087 382.956 309.552 383.283 309.987 383.578C312.627 385.382 314.009 386.269 316.089 386.269C317.844 386.269 320.111 385.631 324.07 384.387L359.162 373.283L381.475 384.869C367.05 422.116 381.087 451.852 384.906 458.82C384.192 458.586 383.276 458.213 381.987 457.684L35.1383 317.124ZM361.274 372.63L451.193 344.2L382.453 383.625L361.274 372.63ZM430.464 514.605C329.645 497.824 27.9181 434.138 24.8592 433.501C23.6326 433.252 22.5922 432.521 21.9711 431.494C2.28251 398.664 18.6949 366.735 24.1915 357.731C25.4182 355.724 27.1107 354.014 29.0826 352.785L65.9755 331.292L229.121 397.404L38.6164 356.315L38.4456 357.077L233.313 399.115L381.133 459.022L381.428 459.146C384.068 460.219 385.357 460.748 386.475 460.748C387.422 460.748 388.229 460.375 389.611 459.628C389.937 459.457 390.294 459.255 390.745 459.022L444.003 427.622L433.678 440.266L433.553 440.468C418.554 478.4 433.165 508.649 436.83 515.274C435.479 515.585 433.709 515.243 430.464 514.605ZM444.857 506.876C443.584 508.415 442.559 509.706 441.69 510.795C440.168 512.723 439.205 513.936 438.227 514.636C434.811 508.524 420.138 478.711 434.935 441.168L447.854 425.351L455.711 420.717L439.873 440.53L439.811 440.624C428.336 469.644 434.392 494.278 439.019 506.378C439.143 506.689 439.407 506.907 439.733 506.969C439.78 506.985 439.842 506.985 439.889 506.985C440.168 506.985 440.432 506.86 440.618 506.642L565.008 356.269L573.532 351.245L444.857 506.876ZM457.621 419.597L563.082 357.404L440.059 506.129C439.997 506.191 439.935 506.191 439.889 506.191C439.842 506.191 439.795 506.16 439.764 506.083C435.168 494.092 429.175 469.706 440.525 440.95L457.621 419.597ZM596.264 336.035L389.999 457.669C389.58 457.886 389.207 458.089 388.881 458.26C387.996 458.726 387.453 459.022 386.863 459.115C384.518 455.149 367.687 424.34 383.09 385.04L458.133 341.992L476.129 336.3L386.444 387.871C386.071 388.088 385.791 388.431 385.652 388.85C375.481 421.852 385.434 447.591 387.546 452.412C387.732 452.863 388.121 453.205 388.571 453.345C388.742 453.407 388.912 453.423 389.083 453.423C389.378 453.423 389.673 453.345 389.937 453.19L595.721 332.987L596.264 336.035ZM595.224 332.412L591 334.884C590.24 332.816 589.634 330.779 589.137 328.757L595.224 332.412ZM588.174 328.104L588.19 328.182C588.733 330.514 589.432 332.878 590.317 335.273L389.565 452.536C389.332 452.676 389.068 452.708 388.819 452.614C388.571 452.536 388.369 452.35 388.26 452.101C386.18 447.327 376.304 421.821 386.397 389.084C386.459 388.866 386.63 388.664 386.832 388.539L479.592 335.196L587.398 301.105C586.451 308.181 585.783 317.762 588.174 328.104ZM597.91 296.175L457.667 340.514L457.652 340.483L457.497 340.577L323.589 382.91C319.568 384.185 317.502 384.791 315.888 384.714C314.009 380.312 299.584 344.154 316.447 309.814L378.928 290.328L384.379 291.867L319.272 311.79C318.698 311.961 318.248 312.381 318.015 312.925C306.835 340.11 313.621 368.555 317.052 379.519C317.301 380.312 318.046 380.826 318.838 380.826C319.024 380.826 319.21 380.794 319.397 380.732L597.879 293.018V296.175H597.91ZM597.289 292.427L587.584 295.475C586.591 291.945 585.861 288.43 585.317 284.947L597.289 292.427ZM584.401 284.138L584.293 284.309L584.448 284.402C585.007 288.135 585.783 291.914 586.839 295.709L319.195 380.001C318.62 380.188 317.999 379.861 317.813 379.286C314.397 368.399 307.674 340.188 318.745 313.22C318.884 312.894 319.164 312.629 319.505 312.536L385.776 292.256L402.018 296.844L402.359 296.937L429.175 279.27L590.628 227.528C588.935 232.069 580.426 256.688 584.401 284.138Z" fill="white"/>
<path d="M497.298 361.177L431.753 399.498L432.144 400.17L497.689 361.849L497.298 361.177Z" fill="white"/>
<path d="M571.961 317.57L510.438 353.539L510.83 354.21L572.352 318.241L571.961 317.57Z" fill="white"/>
<path d="M579.61 321.763L548.439 339.972L548.831 340.644L580.001 322.435L579.61 321.763Z" fill="white"/>
<path d="M497.151 333.604L447.163 362.806L447.554 363.477L497.543 334.276L497.151 333.604Z" fill="white"/>
<path d="M423.229 385.263L411.026 392.397L411.418 393.069L423.62 385.935L423.229 385.263Z" fill="white"/>
<path d="M447.802 380.485L397.156 410.07L397.547 410.742L448.193 381.156L447.802 380.485Z" fill="white"/>
<path d="M517.531 369.28L460.635 402.545L461.026 403.216L517.922 369.952L517.531 369.28Z" fill="white"/>
<path d="M549.373 321.147L529.179 332.954L529.57 333.626L549.765 321.819L549.373 321.147Z" fill="white"/>
<path d="M580.308 122.026L556.244 137.795L556.669 138.446L580.733 122.676L580.308 122.026Z" fill="white"/>
<path d="M539.986 148.461L447.461 209.095L447.886 209.745L540.411 149.112L539.986 148.461Z" fill="white"/>
<path d="M570.482 137.828L528.22 165.532L528.645 166.182L570.907 138.479L570.482 137.828Z" fill="white"/>
<path d="M517.658 172.451L493.714 188.146L494.139 188.797L518.083 173.101L517.658 172.451Z" fill="white"/>
<path d="M568.259 160.836L538.586 180.287L539.011 180.938L568.684 161.486L568.259 160.836Z" fill="white"/>
<path d="M500.802 205.056L431.873 250.227L432.298 250.878L501.227 205.707L500.802 205.056Z" fill="white"/>
<path d="M580.308 163.216L558.024 177.819L558.449 178.47L580.733 163.867L580.308 163.216Z" fill="white"/>
<path d="M460.922 241.497L414.64 271.827L415.065 272.478L461.347 242.148L460.922 241.497Z" fill="white"/>
<path d="M88.6145 157.015L25.1544 139.083L24.937 139.829L88.3971 157.761L88.6145 157.015Z" fill="white"/>
<path d="M337.471 219.052L188.098 176.844L187.881 177.59L337.269 219.799L337.471 219.052Z" fill="white"/>
<path d="M165.49 170.452L54.4699 139.083L54.2681 139.829L165.288 171.198L165.49 170.452Z" fill="white"/>
<path d="M391.257 234.464L344.737 221.307L344.52 222.054L391.039 235.211L391.257 234.464Z" fill="white"/>
<path d="M272.287 219.798L272.505 219.052L193.362 196.688L193.16 197.434L272.287 219.798Z" fill="white"/>
<path d="M296.898 238.585L180.474 205.677L180.257 206.424L296.681 239.332L296.898 238.585Z" fill="white"/>
<path d="M53.8955 180.731L187.881 218.601L188.098 217.854L54.1129 179.985L53.8955 180.731Z" fill="white"/>
<path d="M537.404 378.432L513.728 407.056L514.325 407.552L538.002 378.928L537.404 378.432Z" fill="white"/>
<path d="M517.274 392.471L479.985 437.611L480.584 438.106L517.872 392.967L517.274 392.471Z" fill="white"/>
<path d="M473.038 446.002L459.793 462.015L460.391 462.511L473.636 446.498L473.038 446.002Z" fill="white"/>
<path d="M466.6 419.218L449.673 439.709L450.271 440.204L467.198 419.714L466.6 419.218Z" fill="white"/>
<path d="M263.39 303.609L253.561 317.575L256.092 298.648L254.4 297.497L251.807 319.348L253.577 320.545L265.082 304.76L263.39 303.609Z" fill="white"/>
<path d="M271.619 331.245C271.277 332.147 271.51 332.987 272.054 333.36C272.597 333.734 273.234 333.485 273.576 332.583C273.902 331.712 273.684 330.841 273.141 330.468C272.582 330.094 271.945 330.374 271.619 331.245Z" fill="white"/>
<path d="M274.942 311.478L267.893 330.297L269.321 331.276L276.37 312.458L274.942 311.478Z" fill="white"/>
<path d="M267.132 312.474C264.352 310.576 261.588 312.334 260.02 316.517C258.452 320.701 259.042 324.729 261.821 326.626C264.585 328.508 267.349 326.751 268.917 322.567C270.486 318.384 269.896 314.356 267.132 312.474ZM267.489 321.603C266.417 324.464 264.554 326.175 262.52 324.791C260.47 323.391 260.377 320.359 261.449 317.497C262.52 314.62 264.383 312.925 266.448 314.324C268.467 315.709 268.56 318.726 267.489 321.603Z" fill="white"/>
<path d="M286.184 319.472C283.14 317.404 280.625 319.426 279.228 323.189L280.827 324.278C281.759 321.774 283.203 320.079 285.361 321.556C287.24 322.831 287.022 324.993 286.448 326.517C285.454 329.177 284.072 329.021 281.029 329.441C278.032 329.846 275.656 331.478 274.43 334.76L282.97 340.577L283.762 338.477L277.162 333.982L277.178 333.92C279.569 330.11 285.718 333.827 288.047 327.59C289.367 324.107 288.28 320.903 286.184 319.472Z" fill="white"/>
<path d="M61.9073 289.192C58.3205 287.948 55.743 290.234 55.1529 294.62C54.5629 299.006 56.3175 302.785 59.9043 304.029C63.4756 305.257 66.0531 302.971 66.6431 298.586C67.2176 294.2 65.4631 290.421 61.9073 289.192ZM64.7799 297.948C64.3762 300.965 62.7768 303.002 60.1527 302.1C57.5131 301.183 56.5814 298.275 57.0007 295.257C57.4044 292.256 59.0037 290.203 61.6433 291.121C64.2675 292.023 65.1836 294.946 64.7799 297.948Z" fill="white"/>
<path d="M55.3548 281.416L48.2898 297.015L45.9297 278.166L43.7559 277.404L46.8303 299.114L49.0973 299.892L57.5441 282.163L55.3548 281.416Z" fill="white"/>
<path d="M73.4443 305.32C72.7301 305.071 72.0935 305.491 71.9693 306.408C71.845 307.342 72.3109 308.119 73.0251 308.352C73.7394 308.601 74.376 308.197 74.5002 307.279C74.6244 306.362 74.1431 305.553 73.4443 305.32Z" fill="white"/>
<path d="M70.2762 286.564L67.6055 306.284L69.4377 306.922L72.1239 287.201L70.2762 286.564Z" fill="white"/>
<path d="M84.6395 291.805C80.6956 290.452 78.4441 292.38 77.9628 295.88L80.0279 296.595C80.2763 294.713 81.2235 292.94 84.329 294.013C86.4872 294.76 87.1549 296.579 86.9531 298.119C86.658 300.327 85.2916 300.81 83.6613 300.25L82.0464 299.69L81.7514 301.898L83.4439 302.489C84.9811 303.018 86.7357 304.169 86.332 307.155C86.0214 309.441 84.8724 310.343 82.1241 309.394C79.1118 308.352 78.3044 306.113 78.677 303.36L76.6119 302.645C76.0218 306.937 77.9317 310.25 81.9843 311.649C85.3848 312.816 87.8847 311.603 88.3971 307.855C88.7077 305.615 88.1797 303.625 86.0214 302.1L86.037 302.038C87.7605 301.836 88.7542 300.841 89.0337 298.819C89.484 295.475 87.3568 292.738 84.6395 291.805Z" fill="white"/>
<path d="M363.122 465.149C358.93 464.418 356.104 467.078 355.684 471.572C355.265 476.067 357.517 479.597 361.709 480.344C365.886 481.075 368.696 478.415 369.116 473.921C369.535 469.41 367.299 465.88 363.122 465.149ZM366.973 473.532C366.693 476.611 364.97 478.897 361.895 478.353C358.79 477.809 357.548 475.009 357.843 471.945C358.122 468.866 359.846 466.58 362.951 467.124C366.01 467.653 367.252 470.452 366.973 473.532Z" fill="white"/>
<path d="M355.125 458.275L347.952 474.947L344.101 456.347L341.539 455.911L346.399 477.264L349.07 477.731L357.672 458.711L355.125 458.275Z" fill="white"/>
<path d="M370.715 481.51L372.873 481.883L374.752 461.697L372.594 461.323L370.715 481.51Z" fill="white"/>
<path d="M377.36 479.706C376.521 479.566 375.823 480.064 375.729 480.997C375.636 481.961 376.226 482.661 377.065 482.801C377.903 482.941 378.602 482.474 378.695 481.51C378.788 480.592 378.198 479.862 377.36 479.706Z" fill="white"/>
<path d="M392.856 465.538L390.434 465.118L380.279 476.222L380.062 478.477L389.036 480.048L388.617 484.62L391.039 485.04L391.459 480.468L394.021 480.919L394.238 478.664L391.676 478.213L392.856 465.538ZM389.254 477.793L382.763 476.658L390.108 468.633L389.254 477.793Z" fill="white"/>
<path d="M186.762 92.4731C186.995 92.3331 187.274 92.1931 187.585 92.0687L187.632 92.0376L184.868 91.1045C184.479 91.2756 184.107 91.4622 183.657 91.7266C181.933 92.7375 182.632 93.8572 184.309 95.0236L184.262 95.0547L180.768 93.8728L178.89 94.977L196.513 100.918L198.392 99.8137L188.982 96.6411C185.582 95.4902 184.542 93.7795 186.762 92.4731Z" fill="white"/>
<path d="M192.725 101.276C191.84 101.789 190.97 101.618 189.743 101.198L181.172 98.3051C176.918 96.8743 173.548 97.6363 171.266 98.9738C167.772 101.011 168.89 102.722 172.167 103.935L174.045 102.831C171.623 101.898 171.39 101.136 173.688 99.7981C175.629 98.6628 177.322 98.7561 178.704 99.2227C180.474 99.8136 179.93 100.482 178.44 101.867C176.204 103.982 175.194 105.521 179.216 106.874C182.182 107.87 185.768 107.667 188.191 106.237C190.178 105.07 190.473 103.935 189.573 102.94L189.619 102.909C191.871 103.36 193.02 103.111 194.138 102.457C194.495 102.255 194.712 102.084 194.976 101.711L193.035 101.058C192.942 101.136 192.833 101.213 192.725 101.276ZM185.955 105.304C184.402 106.221 182.694 106.299 180.955 105.708C178.843 104.993 179.076 104.075 180.675 102.457C181.561 101.571 182.244 100.747 182.073 100.358L185.008 101.353C188.408 102.489 188.191 103.997 185.955 105.304Z" fill="white"/>
<path d="M153.969 103.017L169.17 113.049L143.348 109.238L140.444 110.933L165.164 119.254L167.291 118.01L147.012 111.136L172.431 115.008L174.325 113.904L159.139 104.044L179.464 110.887L181.592 109.643L156.872 101.322L153.969 103.017Z" fill="white"/>
<path d="M196.746 84.5104L194.386 85.8945L196.42 91.6799L181.763 86.7499L179.884 87.8541L204.603 96.1745L206.482 95.0703L199.541 92.7375L198.874 90.7934L212.631 91.4777L214.867 90.1558L198.579 89.4715L196.746 84.5104Z" fill="white"/>
<path d="M230.006 79.1138C228.842 79.7981 227.786 79.9536 226.062 79.3782L215.457 75.8012L217.817 74.417L215.395 73.6083L213.035 74.9925L207.15 73.0173L205.256 74.1215L211.141 76.0967L209.371 77.1386L211.793 77.9474L213.563 76.9054L224.448 80.5757C228.034 81.7887 230.208 81.3844 231.808 80.4357C232.304 80.1402 232.724 79.8292 233.019 79.5337L230.596 78.725C230.395 78.8649 230.193 78.9894 230.006 79.1138Z" fill="white"/>
<path d="M241.233 75.1635C244.214 73.4217 243.127 70.84 237.32 68.8805C231.513 66.9209 225.612 67.1542 222.631 68.896C220.643 70.0624 220.83 71.1666 221.466 72.0376L221.42 72.0687L219.246 71.3377L217.367 72.4419L240.938 80.3891L242.816 79.2849L234.587 76.5166L234.634 76.4855C236.869 76.5788 239.261 76.33 241.233 75.1635ZM228.066 74.3082C223.92 72.9085 222.584 71.1666 224.82 69.8603C227.305 68.4139 231.978 68.8338 235.425 70.0002C238.888 71.1666 241.062 73.0485 238.577 74.4948C236.342 75.8012 232.211 75.7079 228.066 74.3082Z" fill="white"/>
<path d="M220.534 81.8353L218.656 82.9395C219.649 83.4683 221.031 84.7591 218.624 86.1744C216 87.714 211.73 87.4652 208.547 86.3921L218.05 80.8245C211.792 78.7094 206.187 78.5227 202.398 80.7311C198.874 82.784 200.038 85.2724 205.923 87.2475C211.451 89.1137 217.444 89.0826 221.109 86.9364C224.106 85.1946 223.205 83.3128 220.534 81.8353ZM204.836 81.5554C207.103 80.2335 210.923 80.1713 213.749 81.1199L206.125 85.5834C203.299 84.6347 202.569 82.8929 204.836 81.5554Z" fill="white"/>
<path d="M282.131 45.7855L280.252 46.8897C281.246 47.4185 282.628 48.7093 280.221 50.1246C277.597 51.6642 273.327 51.4154 270.144 50.3423L279.647 44.7746C273.389 42.6596 267.784 42.4729 263.995 44.6813C260.47 46.7342 261.635 49.2226 267.52 51.1977C273.048 53.0639 279.041 53.0328 282.706 50.8866C285.702 49.1448 284.802 47.2474 282.131 45.7855ZM266.433 45.49C268.7 44.1681 272.52 44.1059 275.346 45.0546L267.722 49.518C264.88 48.5694 264.166 46.8275 266.433 45.49Z" fill="white"/>
<path d="M268.716 52.644L266.822 53.7482C268.84 54.5102 270.424 55.8477 267.986 57.2785C265.129 58.9426 260.486 58.3827 257.164 57.263C253.841 56.1432 251.372 54.3081 254.213 52.644C256.62 51.2287 260.021 51.5553 262.055 52.1463L263.949 51.0421C259.726 49.8757 254.772 50.0934 251.807 51.8353C248.298 53.8882 249.757 56.5165 255.285 58.3827C260.813 60.249 266.899 60.1557 270.408 58.1028C273.374 56.3454 272.551 54.0903 268.716 52.644Z" fill="white"/>
<path d="M260.998 61.3065C260.113 61.8198 259.244 61.6487 258.017 61.2288L249.446 58.3361C245.192 56.9053 241.822 57.6673 239.54 59.0048C236.046 61.0422 237.164 62.7529 240.425 63.966L242.319 62.8618C239.881 61.9286 239.664 61.1666 241.962 59.8291C243.903 58.6938 245.595 58.7871 246.977 59.2537C248.747 59.8446 248.204 60.5134 246.729 61.882C244.477 63.9971 243.484 65.5367 247.505 66.8898C250.471 67.8851 254.058 67.6829 256.48 66.2521C258.467 65.0857 258.778 63.9504 257.877 62.9551L257.924 62.924C260.191 63.375 261.324 63.1261 262.458 62.473C262.815 62.2708 263.032 62.0997 263.296 61.7264L261.355 61.0733C261.216 61.1666 261.107 61.2443 260.998 61.3065ZM254.228 65.3345C252.66 66.2521 250.968 66.3299 249.229 65.7389C247.117 65.0235 247.35 64.1059 248.949 62.4885C249.834 61.6176 250.517 60.7778 250.347 60.389L253.281 61.3843C256.682 62.5196 256.464 64.0126 254.228 65.3345Z" fill="white"/>
<path d="M223.469 62.333L248.188 70.6534L250.083 69.5492L225.363 61.2288L223.469 62.333Z" fill="white"/>
</g>
<defs>
<clipPath id="clip0_6993_103954">
<rect width="601" height="517" fill="white"/>
</clipPath>
</defs>
</svg>
