<svg width="1369" height="735" viewBox="0 0 1369 735" fill="none" xmlns="http://www.w3.org/2000/svg">
<path d="M121.5 208C121.5 211.038 119.038 213.5 116 213.5C112.962 213.5 110.5 211.038 110.5 208C110.5 204.962 112.962 202.5 116 202.5C119.038 202.5 121.5 204.962 121.5 208Z" fill="#E9EEF1" stroke="#E9EEF1"/>
<path d="M416.5 616C416.5 619.038 414.038 621.5 411 621.5C407.962 621.5 405.5 619.038 405.5 616C405.5 612.962 407.962 610.5 411 610.5C414.038 610.5 416.5 612.962 416.5 616Z" fill="#E9EEF1" stroke="#E9EEF1"/>
<path d="M1206.5 5.99996C1206.5 9.03753 1204.04 11.5 1201 11.5C1197.96 11.5 1195.5 9.03753 1195.5 5.99996C1195.5 2.9624 1197.96 0.5 1201 0.5C1204.04 0.5 1206.5 2.9624 1206.5 5.99996Z" fill="#E9EEF1" stroke="#E9EEF1"/>
<path d="M17.5 80C17.5 81.3807 16.3807 82.5 15 82.5C13.6193 82.5 12.5 81.3807 12.5 80C12.5 78.6193 13.6193 77.5 15 77.5C16.3807 77.5 17.5 78.6193 17.5 80Z" fill="#E9EEF1" stroke="#E9EEF1"/>
<path d="M1333.5 316C1333.5 317.381 1332.38 318.5 1331 318.5C1329.62 318.5 1328.5 317.381 1328.5 316C1328.5 314.619 1329.62 313.5 1331 313.5C1332.38 313.5 1333.5 314.619 1333.5 316Z" fill="#E9EEF1" stroke="#E9EEF1"/>
<path d="M413.5 272C413.5 273.381 412.381 274.5 411 274.5C409.619 274.5 408.5 273.381 408.5 272C408.5 270.619 409.619 269.5 411 269.5C412.381 269.5 413.5 270.619 413.5 272Z" fill="#E9EEF1" stroke="#E9EEF1"/>
<path d="M352.5 668C352.5 669.381 351.381 670.5 350 670.5C348.619 670.5 347.5 669.381 347.5 668C347.5 666.619 348.619 665.5 350 665.5C351.381 665.5 352.5 666.619 352.5 668Z" fill="#E9EEF1" stroke="#E9EEF1"/>
<path d="M217.5 104C217.5 105.381 216.381 106.5 215 106.5C213.619 106.5 212.5 105.381 212.5 104C212.5 102.619 213.619 101.5 215 101.5C216.381 101.5 217.5 102.619 217.5 104Z" fill="#E9EEF1" stroke="#E9EEF1"/>
<path d="M867.5 692C867.5 693.381 866.381 694.5 865 694.5C863.619 694.5 862.5 693.381 862.5 692C862.5 690.619 863.619 689.5 865 689.5C866.381 689.5 867.5 690.619 867.5 692Z" fill="#E9EEF1" stroke="#E9EEF1"/>
<path d="M1316.5 24C1316.5 25.3807 1315.38 26.5 1314 26.5C1312.62 26.5 1311.5 25.3807 1311.5 24C1311.5 22.6193 1312.62 21.5 1314 21.5C1315.38 21.5 1316.5 22.6193 1316.5 24Z" fill="#E9EEF1" stroke="#E9EEF1"/>
<path d="M556.5 248C556.5 249.381 555.381 250.5 554 250.5C552.619 250.5 551.5 249.381 551.5 248C551.5 246.619 552.619 245.5 554 245.5C555.381 245.5 556.5 246.619 556.5 248Z" fill="#E9EEF1" stroke="#E9EEF1"/>
<path d="M574.5 624C574.5 625.381 573.381 626.5 572 626.5C570.619 626.5 569.5 625.381 569.5 624C569.5 622.619 570.619 621.5 572 621.5C573.381 621.5 574.5 622.619 574.5 624Z" fill="#E9EEF1" stroke="#E9EEF1"/>
<path d="M608.5 108.5C608.5 111.221 606.079 113.5 603 113.5C599.921 113.5 597.5 111.221 597.5 108.5C597.5 105.779 599.921 103.5 603 103.5C606.079 103.5 608.5 105.779 608.5 108.5Z" fill="#E9EEF1" stroke="#E9EEF1"/>
<path d="M1203.06 644.923C1188.88 644.923 1177.41 656.423 1177.41 670.576C1177.41 656.398 1165.91 644.923 1151.75 644.923C1165.93 644.923 1177.41 633.422 1177.41 619.269C1177.41 633.422 1188.88 644.923 1203.06 644.923Z" stroke="#E9EEF1" stroke-miterlimit="10"/>
<path d="M1153.27 644.923H1132" stroke="#E9EEF1" stroke-miterlimit="10"/>
<path d="M1221.92 644.923H1200.66" stroke="#E9EEF1" stroke-miterlimit="10"/>
<path d="M1177.41 555V620.806" stroke="#E9EEF1" stroke-miterlimit="10"/>
<path d="M1177.41 669.039V734.845" stroke="#E9EEF1" stroke-miterlimit="10"/>
<path d="M514.429 81.9642C508.753 81.9642 504.168 86.5496 504.168 92.2255C504.168 86.5496 499.583 81.9642 493.907 81.9642C499.583 81.9642 504.168 77.3788 504.168 71.7029C504.168 77.3788 508.753 81.9642 514.429 81.9642Z" fill="url(#paint0_linear_1662_10470)" stroke="url(#paint1_linear_1662_10470)" stroke-miterlimit="10"/>
<path d="M494.526 81.9642H486" stroke="url(#paint2_linear_1662_10470)" stroke-miterlimit="10"/>
<path d="M521.964 81.9642H513.463" stroke="url(#paint3_linear_1662_10470)" stroke-miterlimit="10"/>
<path d="M504.168 46V72.3224" stroke="url(#paint4_linear_1662_10470)" stroke-miterlimit="10"/>
<path d="M504.168 91.6306V117.953" stroke="url(#paint5_linear_1662_10470)" stroke-miterlimit="10"/>
<path d="M1306.4 478.964C1300.73 478.964 1296.14 483.549 1296.14 489.225C1296.14 483.549 1291.56 478.964 1285.88 478.964C1291.56 478.964 1296.14 474.379 1296.14 468.703C1296.14 474.379 1300.75 478.964 1306.4 478.964Z" fill="url(#paint6_linear_1662_10470)" stroke="url(#paint7_linear_1662_10470)" stroke-miterlimit="10"/>
<path d="M1286.5 478.964H1278" stroke="url(#paint8_linear_1662_10470)" stroke-miterlimit="10"/>
<path d="M1313.96 478.964H1305.46" stroke="url(#paint9_linear_1662_10470)" stroke-miterlimit="10"/>
<path d="M1296.14 443V469.322" stroke="url(#paint10_linear_1662_10470)" stroke-miterlimit="10"/>
<path d="M1296.14 488.606V514.928" stroke="url(#paint11_linear_1662_10470)" stroke-miterlimit="10"/>
<path d="M694.429 644.964C688.753 644.964 684.168 649.549 684.168 655.225C684.168 649.549 679.583 644.964 673.907 644.964C679.583 644.964 684.168 640.379 684.168 634.703C684.168 640.354 688.753 644.964 694.429 644.964Z" fill="#E9EEF1" stroke="#E9EEF1" stroke-miterlimit="10"/>
<path d="M674.501 644.964H666" stroke="#E9EEF1" stroke-miterlimit="10"/>
<path d="M701.964 644.964H693.463" stroke="#E9EEF1" stroke-miterlimit="10"/>
<path d="M684.168 609V635.322" stroke="#E9EEF1" stroke-miterlimit="10"/>
<path d="M684.168 654.606V680.928" stroke="#E9EEF1" stroke-miterlimit="10"/>
<path d="M370.061 160.898C355.883 160.898 344.407 172.398 344.407 186.551C344.407 172.374 332.907 160.898 318.754 160.898C332.932 160.898 344.407 149.397 344.407 135.245C344.383 149.422 355.883 160.898 370.061 160.898Z" stroke="#E9EEF1" stroke-miterlimit="10"/>
<path d="M320.266 160.923H299" stroke="#E9EEF1" stroke-miterlimit="10"/>
<path d="M388.923 160.923H367.632" stroke="#E9EEF1" stroke-miterlimit="10"/>
<path d="M344.383 71V136.781" stroke="#E9EEF1" stroke-miterlimit="10"/>
<path d="M344.383 185.039V250.82" stroke="#E9EEF1" stroke-miterlimit="10"/>
<path d="M54.2507 597.145C54.2507 600.272 51.7161 602.806 48.5896 602.806C45.4631 602.806 42.9286 600.272 42.9286 597.145C42.9286 594.019 45.4631 591.484 48.5896 591.484C51.7161 591.484 54.2507 594.019 54.2507 597.145Z" fill="#E9EEF1" stroke="#E9EEF1"/>
<path d="M207.131 656.414C207.131 659.54 204.596 662.075 201.47 662.075C198.343 662.075 195.809 659.54 195.809 656.414C195.809 653.287 198.343 650.753 201.47 650.753C204.596 650.753 207.131 653.287 207.131 656.414Z" fill="#E9EEF1" stroke="#E9EEF1"/>
<path d="M202.234 656.541C231.842 656.541 260.127 650.889 286.07 640.578" stroke="#E9EEF1" stroke-width="3" stroke-miterlimit="10"/>
<path d="M2 536.859C14.0166 559.161 29.6228 579.223 48.0805 596.28" stroke="#E9EEF1" stroke-width="3" stroke-miterlimit="10"/>
<path d="M202.234 605.038C299.279 605.038 377.95 526.366 377.95 429.321C377.95 332.275 299.279 253.604 202.234 253.604C105.188 253.604 26.5168 332.275 26.5168 429.321C26.5168 526.366 105.188 605.038 202.234 605.038Z" stroke="#E9EEF1" stroke-width="3" stroke-miterlimit="10"/>
<path d="M26.9752 447.804C28.3245 446.455 32.1433 362.262 100.857 349.584C147.268 341.03 172.498 377.971 224.307 352.741C276.115 327.511 259.007 262.642 259.007 262.642" stroke="#E9EEF1" stroke-miterlimit="10"/>
<path d="M69.7714 545.566C69.7714 545.566 59.2823 506.028 92.0733 469.189C146.963 407.528 217.662 434.158 262.902 360.073C286.935 320.713 270.107 266.97 270.107 266.97" stroke="#E9EEF1" stroke-miterlimit="10"/>
<path d="M152.385 597.833C152.385 597.833 143.857 554.782 170.563 514.71C215.294 447.6 288.335 478.074 323.901 396.886C347.782 342.379 315.627 294.618 315.627 294.618" stroke="#E9EEF1" stroke-miterlimit="10"/>
<path d="M365.781 365.343C365.781 365.343 386.454 429.117 340.551 477.54C307.659 512.24 271.609 529.349 274.766 589.737" stroke="#E9EEF1" stroke-miterlimit="10"/>
<path d="M1157.52 455.93C1170.01 431.01 1179.15 404.047 1184.31 375.579" stroke="#E9EEF1" stroke-width="3" stroke-miterlimit="10"/>
<path d="M846.52 589.055C862.575 592.425 879.116 594.519 896.02 595.231C913.533 595.969 930.753 595.195 947.575 593.032C969.707 590.178 991.103 584.904 1011.5 577.478" stroke="#E9EEF1" stroke-width="3" stroke-miterlimit="10"/>
<path d="M875.911 551.824C1016.18 562.634 1138.66 457.686 1149.47 317.416C1160.28 177.145 1055.33 54.6703 915.06 43.8598C774.789 33.0494 652.314 137.997 641.504 278.268C630.693 418.538 735.641 541.013 875.911 551.824Z" stroke="#E9EEF1" stroke-width="3" stroke-miterlimit="10"/>
<path d="M763.476 125.926C821.457 115.105 909.635 90.9906 939.481 47.8022" stroke="#E9EEF1" stroke-miterlimit="10"/>
<path d="M732.2 130.727C736.457 130.244 748.235 128.855 752.998 128.209L732.2 130.727Z" fill="#050505"/>
<path d="M732.2 130.727C736.457 130.244 748.235 128.855 752.998 128.209" stroke="#E9EEF1" stroke-miterlimit="10"/>
<path d="M699.979 134.425C699.979 134.425 707.824 133.748 720.777 131.907L699.979 134.425Z" fill="#050505"/>
<path d="M699.979 134.425C699.979 134.425 707.824 133.748 720.777 131.907" stroke="#E9EEF1" stroke-miterlimit="10"/>
<path d="M953.177 124.063C916.477 151.77 870.327 174.237 818.107 187.698C762.866 201.92 708.709 204.068 661.233 196.05" stroke="#E9EEF1" stroke-miterlimit="10"/>
<path d="M985.166 96.6521C980.914 101.21 976.449 105.674 971.771 110.043" stroke="#E9EEF1" stroke-miterlimit="10"/>
<path d="M890.834 50.8514C887.814 54.9452 884.596 58.9788 881.18 62.952" stroke="#E9EEF1" stroke-miterlimit="10"/>
<path d="M645.634 251.404C699.015 257.896 761.559 254.509 824.319 237.718C1005.16 189.379 1054.1 97.8438 1054.1 97.8438" stroke="#E9EEF1" stroke-miterlimit="10"/>
<path d="M786.775 264.739C792.442 264.029 798.145 263.194 803.877 262.31C810.049 261.333 816.255 260.257 822.469 259.079C1025.77 220.385 1081.98 123.687 1081.98 123.687" stroke="#E9EEF1" stroke-miterlimit="10"/>
<path d="M749.433 268.042C754.9 267.841 760.423 267.58 765.977 267.257" stroke="#E9EEF1" stroke-miterlimit="10"/>
<path d="M643.725 262.812C671.703 268.196 702.05 270.278 733.913 268.906" stroke="#E9EEF1" stroke-miterlimit="10"/>
<path d="M936.004 119.649C901.849 139.994 860.743 157.222 815.264 169.001C762.604 182.629 711.572 187.054 667.357 183.416" stroke="#E9EEF1" stroke-miterlimit="10"/>
<path d="M885.665 48.6274C877.001 58.1227 866.731 67.4041 855.031 76.2372" stroke="#E9EEF1" stroke-miterlimit="10"/>
<path d="M680.067 375.71C617.929 388.795 576.303 389.52 570.624 374.757C565.328 360.969 592.311 336.212 640.599 307.02" stroke="url(#paint12_linear_1662_10470)" stroke-width="3" stroke-miterlimit="10"/>
<path d="M1090.73 135.522C1141.69 126.401 1175.07 127.288 1180.11 140.393C1191.09 168.943 1063.54 244.526 895.234 309.255C879.419 315.339 831.333 331.043 816 336.5" stroke="url(#paint13_linear_1662_10470)" stroke-width="3" stroke-miterlimit="10"/>
<path d="M844.827 375.207C674.71 432.622 535.249 448.43 520.042 408.854C509.787 382.223 558.15 336.49 641.092 287.703" stroke="url(#paint14_linear_1662_10470)" stroke-width="3" stroke-miterlimit="10"/>
<path d="M1078.77 121.143C1168.1 103.795 1230.63 106.087 1240.52 131.847C1255.92 171.897 1138.87 255.081 970.928 327.014" stroke="url(#paint15_linear_1662_10470)" stroke-width="3" stroke-miterlimit="10"/>
<path d="M999 364.5C986.21 369.77 940.693 388.009 927.482 393.093C697.892 481.366 492.817 503.684 469.461 442.951C453.698 401.979 524.689 333.656 643.063 266.432" stroke="url(#paint16_linear_1662_10470)" stroke-width="3" stroke-miterlimit="10"/>
<path d="M1063.46 106.43C1191.46 79.3207 1285.55 83.304 1300.93 123.301C1314.57 158.747 1256 235 1138.5 299.5" stroke="url(#paint17_linear_1662_10470)" stroke-width="3" stroke-miterlimit="10"/>
<path d="M1224.5 295.5C1141.5 349 1033.6 400.403 943.607 435.012C683.361 535.068 448.425 553.885 418.905 477.05C397.253 420.712 491.958 328.631 646.575 244.053" stroke="url(#paint18_linear_1662_10470)" stroke-width="3" stroke-miterlimit="10"/>
<path d="M1045.39 92.1165C1212.36 53.6607 1340.07 59.3925 1361.34 114.73C1365.38 125.255 1366.5 151.5 1352 183" stroke="url(#paint19_linear_1662_10470)" stroke-width="3" stroke-miterlimit="10"/>
<path d="M678.83 382.104C682.224 382.366 685.187 379.827 685.448 376.433C685.71 373.039 683.171 370.076 679.777 369.815C676.384 369.553 673.42 372.092 673.159 375.486C672.897 378.88 675.436 381.843 678.83 382.104Z" fill="#8DF2F5"/>
<path d="M1164.26 455.42C1164.02 458.538 1161.3 460.871 1158.18 460.631C1155.06 460.39 1152.73 457.668 1152.97 454.549C1153.21 451.431 1155.94 449.098 1159.05 449.338C1162.17 449.579 1164.5 452.301 1164.26 455.42Z" fill="#E9EEF1" stroke="#E9EEF1"/>
<path d="M1017.16 577.717C1017.02 580.842 1014.38 583.268 1011.26 583.136C1008.14 583.005 1005.71 580.365 1005.84 577.24C1005.97 574.115 1008.61 571.689 1011.74 571.821C1014.86 571.952 1017.29 574.592 1017.16 577.717Z" fill="#E9EEF1" stroke="#E9EEF1"/>
<path d="M815.145 342.763C818.538 343.025 821.501 340.485 821.763 337.092C822.025 333.698 819.485 330.735 816.092 330.474C812.698 330.212 809.735 332.751 809.474 336.145C809.212 339.538 811.751 342.501 815.145 342.763Z" fill="#119CFF"/>
<path d="M845.843 380.553C849.236 380.814 852.199 378.275 852.461 374.882C852.722 371.488 850.183 368.525 846.79 368.263C843.396 368.002 840.433 370.541 840.171 373.934C839.91 377.328 842.449 380.291 845.843 380.553Z" fill="#97F8F4"/>
<path d="M968.981 333.382C972.375 333.643 975.338 331.104 975.6 327.711C975.861 324.317 973.322 321.354 969.929 321.092C966.535 320.831 963.572 323.37 963.31 326.763C963.049 330.157 965.588 333.12 968.981 333.382Z" fill="#119CFF"/>
<path d="M999.145 370.763C1002.54 371.025 1005.5 368.485 1005.76 365.092C1006.02 361.698 1003.49 358.735 1000.09 358.474C996.698 358.212 993.735 360.751 993.474 364.145C993.212 367.538 995.751 370.501 999.145 370.763Z" fill="#97F9F4"/>
<path d="M1137.14 305.763C1140.54 306.025 1143.5 303.485 1143.76 300.092C1144.02 296.698 1141.49 293.735 1138.09 293.474C1134.7 293.212 1131.74 295.751 1131.47 299.145C1131.21 302.538 1133.75 305.501 1137.14 305.763Z" fill="#47C1FB"/>
<path d="M1224.14 301.763C1227.54 302.025 1230.5 299.485 1230.76 296.092C1231.02 292.698 1228.49 289.735 1225.09 289.474C1221.7 289.212 1218.74 291.751 1218.47 295.145C1218.21 298.538 1220.75 301.501 1224.14 301.763Z" fill="#98FAF4"/>
<path d="M1351.14 188.763C1354.54 189.025 1357.5 186.485 1357.76 183.092C1358.02 179.698 1355.49 176.735 1352.09 176.474C1348.7 176.212 1345.74 178.751 1345.47 182.145C1345.21 185.538 1347.75 188.501 1351.14 188.763Z" fill="#97F9F4"/>
<path d="M783.034 527.152C783.034 527.152 964.625 539.631 1104.7 443.771" stroke="#E9EEF1" stroke-miterlimit="10"/>
<path d="M1066.97 425.41C1091.64 410.363 1115.94 392.772 1139.06 372.245" stroke="#E9EEF1" stroke-miterlimit="10"/>
<path d="M1031.44 445.336C1037.54 442.164 1043.62 438.864 1049.72 435.413" stroke="#E9EEF1" stroke-miterlimit="10"/>
<path d="M763.341 515.332C763.341 515.332 876.373 514.483 999.372 460.379" stroke="#E9EEF1" stroke-miterlimit="10"/>
<path d="M82.701 630.37C87.9012 633.403 93.4194 631.499 96.4523 626.299C99.4852 621.099 98.4105 615.383 93.2103 612.35C87.9859 609.303 82.5059 611.196 79.4731 616.397C76.4402 621.597 77.4766 627.323 82.701 630.37ZM84.1398 627.903C80.1732 625.589 80.2817 621.568 82.3271 618.061C84.3584 614.578 87.8048 612.504 91.7714 614.817C95.7381 617.131 95.6054 621.138 93.574 624.621C91.5286 628.128 88.1065 630.216 84.1398 627.903Z" fill="#E9EEF1"/>
<path d="M109.347 628.02L105.411 635.788C104.449 637.686 102.53 638.251 100.507 637.226C98.7083 636.315 98.5409 634.849 99.4143 633.125L103.503 625.058L100.855 623.717L96.3872 632.533C94.9062 635.455 96.0832 637.778 98.4559 638.981C100.654 640.094 102.484 639.766 103.664 639.109L103.714 639.134L102.879 640.783L105.501 642.112L111.97 629.349L109.347 628.02Z" fill="#E9EEF1"/>
<path d="M119.61 635.499L120.613 633.31L118.17 632.19L120.049 628.092L117.351 626.855L115.472 630.953L113.589 630.089L112.585 632.278L114.468 633.142L111.131 640.421C109.871 643.17 110.598 644.674 112.736 645.654C113.449 645.981 114.069 646.173 114.662 646.291L115.665 644.102C113.888 643.41 113.257 642.905 113.934 641.429L117.166 634.379L119.61 635.499Z" fill="#E9EEF1"/>
<path d="M129.102 636.465C127.028 635.619 125.33 636.075 124.249 636.723L124.198 636.702L124.832 635.146L122.084 634.025L114.84 651.785L117.588 652.906L120.073 646.813L120.125 646.834C120.423 648.105 121.318 649.619 123.392 650.465C126.762 651.84 130.356 650.221 132.132 645.865C133.909 641.51 132.473 637.839 129.102 636.465ZM123.783 648.024C121.579 647.125 120.956 644.724 122.151 641.794C123.356 638.838 125.471 637.584 127.674 638.483C130.06 639.456 130.442 642.152 129.384 644.744C128.327 647.337 126.168 648.997 123.783 648.024Z" fill="#E9EEF1"/>
<path d="M145.812 643.009L143.016 651.256C142.332 653.271 140.513 654.103 138.365 653.375C136.456 652.727 136.082 651.3 136.703 649.47L139.607 640.905L136.797 639.952L133.622 649.312C132.57 652.415 134.064 654.548 136.584 655.402C138.917 656.193 140.682 655.609 141.758 654.791L141.811 654.809L141.217 656.559L144.002 657.504L148.597 643.954L145.812 643.009Z" fill="#E9EEF1"/>
<path d="M156.648 648.714L157.3 646.396L154.713 645.668L155.934 641.328L153.077 640.524L151.856 644.863L149.861 644.302L149.209 646.62L151.203 647.181L149.034 654.89C148.214 657.801 149.166 659.174 151.43 659.811C152.184 660.023 152.827 660.117 153.431 660.142L154.083 657.824C152.22 657.416 151.519 657.015 151.959 655.451L154.06 647.985L156.648 648.714Z" fill="#E9EEF1"/>
<path d="M1062.38 558.936C1067.52 555.809 1068.48 550.051 1065.35 544.907C1062.23 539.763 1056.69 537.984 1051.54 541.112C1046.38 544.253 1045.43 549.973 1048.56 555.117C1051.68 560.261 1057.21 562.078 1062.38 558.936ZM1060.9 556.496C1056.97 558.881 1053.49 556.87 1051.38 553.401C1049.29 549.956 1049.1 545.938 1053.03 543.552C1056.95 541.167 1060.41 543.192 1062.51 546.637C1064.61 550.107 1064.82 554.11 1060.9 556.496Z" fill="#E9EEF1"/>
<path d="M1072.63 534.71L1077.55 541.895C1078.75 543.651 1078.33 545.606 1076.45 546.887C1074.79 548.026 1073.42 547.468 1072.33 545.874L1067.22 538.412L1064.77 540.089L1070.36 548.244C1072.21 550.947 1074.81 551.031 1077.01 549.529C1079.04 548.137 1079.63 546.374 1079.62 545.023L1079.67 544.991L1080.71 546.516L1083.14 544.855L1075.06 533.049L1072.63 534.71Z" fill="#E9EEF1"/>
<path d="M1084.07 529.357L1082.63 527.423L1080.47 529.025L1077.79 525.405L1075.4 527.174L1078.09 530.794L1076.43 532.029L1077.86 533.962L1079.53 532.727L1084.3 539.158C1086.1 541.586 1087.77 541.673 1089.66 540.271C1090.29 539.804 1090.76 539.353 1091.14 538.89L1089.71 536.956C1088.25 538.181 1087.5 538.491 1086.53 537.187L1081.91 530.959L1084.07 529.357Z" fill="#E9EEF1"/>
<path d="M1095.02 524.295L1097.31 522.452C1094.99 520.149 1091.6 519.822 1088.7 522.156C1085.38 524.824 1085.15 528.961 1087.96 532.452C1090.77 535.943 1094.86 536.605 1098.2 533.92C1101.1 531.585 1101.56 528.09 1099.66 525.376L1097.37 527.218C1098.28 528.532 1098.65 530.464 1096.69 532.043C1094.42 533.869 1091.94 532.704 1090.25 530.609C1088.57 528.515 1087.98 525.823 1090.23 524.015C1092.19 522.435 1094.02 523.231 1095.02 524.295Z" fill="#E9EEF1"/>
<path d="M1110.06 523.874C1106.72 526.861 1102.63 526.356 1099.66 523.038C1096.69 519.72 1096.64 515.593 1099.98 512.605C1103.32 509.618 1107.41 510.124 1110.38 513.442C1113.35 516.76 1113.4 520.887 1110.06 523.874ZM1108.45 522.079C1110.54 520.212 1110.15 517.593 1108.19 515.402C1106.21 513.19 1103.67 512.533 1101.58 514.4C1099.5 516.267 1099.87 518.866 1101.85 521.077C1103.81 523.269 1106.37 523.946 1108.45 522.079Z" fill="#E9EEF1"/>
<path d="M1118.24 494.849C1116.7 496.435 1116.51 498.2 1116.75 499.919L1116.71 499.959C1115.2 499.306 1113.69 499.525 1112.29 500.97C1110.78 502.515 1110.65 504.259 1110.93 505.582L1110.89 505.622L1109.56 504.333L1107.51 506.44L1117.77 516.419L1119.82 514.312L1113.58 508.239C1112.05 506.755 1111.95 504.895 1113.31 503.49C1114.74 502.025 1115.89 502.604 1117.28 503.951L1123.76 510.259L1125.83 508.132L1119.59 502.059C1118.06 500.574 1117.94 498.735 1119.33 497.31C1120.73 495.865 1121.89 496.443 1123.27 497.791L1129.76 504.099L1131.83 501.971L1124.74 495.078C1122.54 492.93 1120.26 492.783 1118.24 494.849Z" fill="#E9EEF1"/>
<path d="M1136.66 493.203C1134.97 495.187 1132.46 495.073 1130.63 493.513L1137.74 485.15C1133.85 481.85 1129.93 481.492 1126.94 485.012C1124.15 488.298 1124.61 492.253 1128.15 495.264C1131.56 498.165 1135.67 498.091 1138.55 494.699C1140.92 491.904 1140.72 488.94 1139.13 486.627L1137.22 488.867C1137.72 489.621 1138.24 491.347 1136.66 493.203ZM1128.71 486.518C1130.25 484.704 1132.48 484.543 1134.17 485.976L1128.96 492.099C1127.28 490.666 1127.17 488.331 1128.71 486.518Z" fill="#E9EEF1"/>
<path d="M79.0726 330.247L87.036 342.765L89.1194 341.44L81.1559 328.922L79.0726 330.247Z" fill="#E9EEF1"/>
<path d="M90.2702 328.615C88.6058 329.366 87.9446 330.575 87.7753 331.562L87.7375 331.579L87.1743 330.331L85.1883 331.227L89.5489 340.892L91.5348 339.996L88.8809 334.114C88.2324 332.676 88.7978 331.306 90.3298 330.614C91.6916 330 92.6156 330.585 93.2044 331.89L95.9607 337.999L97.9656 337.094L94.9533 330.418C93.9549 328.205 92.067 327.805 90.2702 328.615Z" fill="#E9EEF1"/>
<path d="M101.366 327.073L100.893 325.352L98.9725 325.88L98.0867 322.659L95.9659 323.242L96.8517 326.463L95.3712 326.87L95.8443 328.591L97.3248 328.184L98.8983 333.906C99.4925 336.067 100.622 336.574 102.302 336.112C102.863 335.958 103.306 335.771 103.699 335.556L103.226 333.835C101.887 334.289 101.289 334.303 100.97 333.143L99.4456 327.601L101.366 327.073Z" fill="#E9EEF1"/>
<path d="M108.408 333.322C106.492 333.55 105.185 332.222 104.974 330.45L113.051 329.489C112.605 325.739 110.654 323.568 107.255 323.972C104.081 324.35 102.338 326.73 102.744 330.151C103.137 333.447 105.405 335.476 108.681 335.087C111.38 334.766 112.765 333.055 113.063 330.992L110.899 331.249C110.79 331.91 110.201 333.109 108.408 333.322ZM107.458 325.683C109.209 325.474 110.503 326.511 110.696 328.139L104.783 328.843C104.589 327.215 105.707 325.891 107.458 325.683Z" fill="#E9EEF1"/>
<path d="M120.149 323.635C118.76 323.578 117.851 324.454 117.236 325.757L117.195 325.755L117.277 323.765L115.101 323.675L114.66 334.269L116.837 334.359L117.062 328.948C117.156 326.688 118.894 325.348 120.973 325.788L121.014 325.79L121.1 323.737C120.791 323.683 120.522 323.651 120.149 323.635Z" fill="#E9EEF1"/>
<path d="M128.654 322.614L128.944 320.853C128.528 320.701 128.067 320.561 127.535 320.474C125.815 320.19 124.745 320.813 124.38 323.024L124.161 324.354L122.666 324.108L122.376 325.868L123.87 326.115L122.435 334.816L124.605 335.174L126.04 326.473L127.965 326.791L128.255 325.03L126.331 324.712L126.52 323.566C126.716 322.378 127.272 322.323 128.654 322.614Z" fill="#E9EEF1"/>
<path d="M135.416 329.855C135.126 330.83 134.112 330.744 132.452 330.575C129.759 330.314 127.901 330.519 127.238 332.746C126.729 334.456 127.646 336.029 129.714 336.644C131.286 337.112 132.623 336.839 133.525 336.134L133.565 336.145C133.468 337.199 133.867 337.751 134.98 338.082C135.378 338.201 135.728 338.262 136.259 338.225L136.555 337.23C135.716 337.067 135.669 336.642 135.882 335.926L137.321 331.093C138.126 328.389 136.71 327.036 134.463 326.367C131.4 325.455 129.691 326.614 129.012 328.533L131.04 329.137C131.53 327.854 132.301 327.52 133.971 328.018C135.363 328.432 135.635 329.119 135.416 329.855ZM130.663 335.13C129.53 334.792 129.127 334.11 129.405 333.175C129.713 332.141 130.617 331.869 132.459 332.006C133.493 332.097 134.379 332.101 134.789 331.963L134.333 333.494C133.841 335.145 132.393 335.645 130.663 335.13Z" fill="#E9EEF1"/>
<path d="M146.364 335.142L148.387 335.95C149.03 333.615 148.009 331.307 145.446 330.283C142.517 329.112 139.763 330.469 138.53 333.552C137.298 336.635 138.358 339.517 141.306 340.695C143.869 341.719 146.292 340.744 147.355 338.532L145.332 337.723C144.816 338.791 143.703 339.731 141.968 339.038C139.965 338.237 139.814 336.21 140.553 334.361C141.293 332.511 142.818 331.154 144.803 331.948C146.537 332.641 146.688 334.109 146.364 335.142Z" fill="#E9EEF1"/>
<path d="M151.652 342.972C149.855 342.267 149.331 340.479 149.982 338.818L157.555 341.787C158.933 338.271 158.24 335.436 155.052 334.186C152.077 333.02 149.416 334.294 148.158 337.501C146.946 340.592 147.987 343.452 151.058 344.656C153.589 345.648 155.618 344.794 156.855 343.118L154.826 342.322C154.418 342.853 153.333 343.631 151.652 342.972ZM154.423 335.79C156.065 336.434 156.716 337.959 156.117 339.485L150.573 337.311C151.171 335.785 152.781 335.146 154.423 335.79Z" fill="#E9EEF1"/>
<path d="M164.706 342.218C163.321 341.467 162.204 341.07 162.493 340.031C162.693 339.311 163.507 339.02 164.766 339.371C166.405 339.827 166.577 340.758 166.494 341.596L168.533 342.163C168.889 340.345 167.986 338.479 165.208 337.706C162.649 336.994 160.797 337.922 160.33 339.601C159.685 341.92 161.794 342.852 163.308 343.682C164.707 344.459 165.899 344.898 165.543 346.177C165.365 346.817 164.545 347.364 163.086 346.958C160.927 346.358 160.708 345.285 160.914 344.157L158.875 343.59C158.375 345.777 159.366 347.711 162.664 348.629C165.143 349.318 167.161 348.566 167.706 346.607C168.385 344.168 166.463 343.181 164.706 342.218Z" fill="#E9EEF1"/>
<path d="M81.3473 455.67L77.6775 453.398L81.8386 446.676L80.0566 445.573L74.5959 454.395L87.2108 462.203L88.5104 460.104L83.1469 456.784L86.5216 451.332L84.722 450.218L81.3473 455.67Z" fill="#E9EEF1"/>
<path d="M89.1316 441.071L94.0968 445.193C95.3101 446.2 95.4032 447.68 94.3296 448.973C93.3754 450.123 92.2885 450.002 91.1869 449.088L86.0302 444.807L84.6252 446.499L90.261 451.178C92.1289 452.729 94.001 452.26 95.2602 450.743C96.4265 449.338 96.4903 447.962 96.2096 447.001L96.2361 446.969L97.2898 447.844L98.6815 446.167L90.5232 439.395L89.1316 441.071Z" fill="#E9EEF1"/>
<path d="M96.2874 433.366C94.9395 434.598 94.6876 435.952 94.8339 436.943L94.8033 436.971L93.8794 435.96L92.2711 437.43L99.4239 445.257L101.032 443.787L96.6789 439.023C95.6151 437.859 95.7257 436.381 96.9665 435.247C98.0693 434.239 99.1294 434.507 100.095 435.564L104.616 440.512L106.24 439.028L101.299 433.621C99.6612 431.829 97.7426 432.036 96.2874 433.366Z" fill="#E9EEF1"/>
<path d="M109.539 428.471L111.338 427.241C109.756 425.407 107.27 424.97 104.993 426.528C102.389 428.309 101.982 431.352 103.856 434.093C105.731 436.833 108.715 437.557 111.335 435.765C113.613 434.207 114.153 431.651 112.907 429.536L111.109 430.766C111.708 431.789 111.869 433.238 110.328 434.292C108.547 435.51 106.779 434.507 105.655 432.863C104.53 431.219 104.253 429.196 106.017 427.989C107.559 426.935 108.862 427.628 109.539 428.471Z" fill="#E9EEF1"/>
<path d="M116.097 422.342L115.246 420.773L113.495 421.723L111.902 418.787L109.969 419.835L111.562 422.772L110.212 423.504L111.063 425.073L112.412 424.34L115.242 429.557C116.31 431.527 117.525 431.765 119.057 430.934C119.568 430.657 119.958 430.375 120.291 430.076L119.441 428.507C118.24 429.253 117.66 429.402 117.086 428.344L114.346 423.292L116.097 422.342Z" fill="#E9EEF1"/>
<path d="M117.671 417.64C118.252 417.366 118.62 416.734 118.301 416.058C117.983 415.383 117.27 415.283 116.688 415.557C116.144 415.813 115.749 416.436 116.068 417.111C116.386 417.787 117.126 417.897 117.671 417.64ZM117.455 419.714L121.976 429.305L123.947 428.376L119.426 418.786L117.455 419.714Z" fill="#E9EEF1"/>
<path d="M129.898 426.205C126.809 427.423 124.092 426.019 122.881 422.95C121.67 419.881 122.697 417 125.785 415.782C128.874 414.563 131.591 415.967 132.802 419.036C134.013 422.105 132.986 424.986 129.898 426.205ZM129.243 424.545C131.173 423.783 131.575 421.862 130.775 419.835C129.968 417.789 128.37 416.68 126.44 417.441C124.51 418.203 124.1 420.105 124.908 422.151C125.707 424.177 127.313 425.306 129.243 424.545Z" fill="#E9EEF1"/>
<path d="M137.239 411.655C135.509 412.239 134.732 413.377 134.467 414.342L134.428 414.355L133.99 413.058L131.925 413.755L135.316 423.801L137.38 423.104L135.317 416.99C134.813 415.496 135.51 414.187 137.102 413.65C138.518 413.172 139.38 413.845 139.838 415.202L141.981 421.552L144.065 420.849L141.723 413.908C140.946 411.608 139.107 411.024 137.239 411.655Z" fill="#E9EEF1"/>
<path d="M150.235 410.568C150.559 411.532 149.681 412.046 148.227 412.863C145.875 414.202 144.474 415.439 145.215 417.642C145.784 419.333 147.439 420.09 149.485 419.402C151.038 418.88 151.974 417.886 152.306 416.79L152.345 416.776C152.872 417.694 153.516 417.915 154.617 417.545C155.011 417.412 155.332 417.26 155.744 416.925L155.414 415.941C154.634 416.291 154.351 415.97 154.113 415.262L152.505 410.483C151.606 407.808 149.669 407.518 147.447 408.266C144.418 409.284 143.688 411.216 144.238 413.176L146.244 412.501C145.906 411.17 146.344 410.454 147.996 409.898C149.373 409.435 149.99 409.84 150.235 410.568ZM149.388 417.618C148.267 417.995 147.544 417.668 147.233 416.744C146.889 415.721 147.471 414.978 149.057 414.029C149.954 413.508 150.681 413.001 150.936 412.653L151.446 414.167C151.995 415.8 151.099 417.042 149.388 417.618Z" fill="#E9EEF1"/>
<path d="M152.057 402.497L157.182 416.419L159.246 415.659L154.121 401.737L152.057 402.497Z" fill="#E9EEF1"/>
<path d="M158.368 402.713C158.966 402.475 159.37 401.866 159.093 401.172C158.816 400.479 158.111 400.336 157.514 400.574C156.955 400.798 156.523 401.395 156.8 402.089C157.078 402.782 157.81 402.937 158.368 402.713ZM158.029 404.771L161.963 414.617L163.986 413.808L160.052 403.962L158.029 404.771Z" fill="#E9EEF1"/>
<path d="M166.773 402.953L166.039 401.326L164.223 402.146L162.849 399.101L160.844 400.006L162.218 403.051L160.819 403.683L161.553 405.309L162.953 404.677L165.395 410.086C166.317 412.129 167.511 412.455 169.1 411.737C169.629 411.498 170.038 411.245 170.393 410.971L169.659 409.345C168.407 410.001 167.818 410.108 167.322 409.011L164.957 403.772L166.773 402.953Z" fill="#E9EEF1"/>
<path d="M167.738 398.441C168.309 398.144 168.651 397.499 168.307 396.836C167.963 396.173 167.247 396.1 166.676 396.397C166.142 396.674 165.772 397.311 166.116 397.974C166.46 398.637 167.204 398.718 167.738 398.441ZM167.603 400.522L172.491 409.931L174.424 408.927L169.536 399.517L167.603 400.522Z" fill="#E9EEF1"/>
<path d="M179.57 404.202C177.949 405.25 176.191 404.632 175.222 403.133L182.054 398.718C180.004 395.546 177.297 394.454 174.422 396.313C171.738 398.047 171.219 400.952 173.088 403.845C174.89 406.633 177.819 407.458 180.59 405.667C182.873 404.192 183.364 402.046 182.725 400.063L180.895 401.245C181.088 401.887 181.086 403.222 179.57 404.202ZM175.356 397.759C176.838 396.802 178.456 397.164 179.345 398.541L174.344 401.773C173.454 400.397 173.875 398.716 175.356 397.759Z" fill="#E9EEF1"/>
<path d="M186.403 392.85C185.019 393.601 184.077 394.322 183.363 393.513C182.869 392.953 183.068 392.112 184.049 391.247C185.324 390.122 186.198 390.485 186.856 391.011L188.443 389.611C187.113 388.322 185.056 388.061 182.893 389.97C180.902 391.727 180.67 393.785 181.824 395.092C183.416 396.897 185.347 395.636 186.869 394.819C188.283 394.07 189.3 393.31 190.179 394.306C190.618 394.804 190.63 395.789 189.494 396.792C187.814 398.274 186.795 397.873 185.963 397.086L184.376 398.486C185.936 400.098 188.098 400.321 190.665 398.056C192.594 396.353 193.064 394.251 191.718 392.726C190.043 390.828 188.168 391.902 186.403 392.85Z" fill="#E9EEF1"/>
<path d="M152.077 505.336L153.486 503.308L148.781 500.041L150.853 497.059C152.888 494.127 156.288 498.181 157.19 497.973L158.669 495.843L158.55 495.76C157.896 496.266 153.833 491.929 151.352 494.374L151.318 494.351C151.948 492.716 151.563 491.161 149.859 489.977C147.643 488.439 145.24 489.17 143.501 491.676L139.891 496.874L152.077 505.336ZM143.021 496.041L144.926 493.297C145.79 492.053 146.945 490.935 148.701 492.154C150.473 493.385 149.812 494.846 148.948 496.09L147.043 498.834L143.021 496.041Z" fill="#E9EEF1"/>
<path d="M160.915 491.344C159.618 492.772 157.76 492.627 156.439 491.427L161.908 485.406C159.113 482.867 156.216 482.506 153.914 485.041C151.766 487.406 152.01 490.347 154.559 492.663C157.017 494.895 160.06 494.94 162.278 492.498C164.106 490.486 164.029 488.286 162.902 486.533L161.437 488.146C161.788 488.717 162.129 490.008 160.915 491.344ZM155.189 486.199C156.375 484.893 158.032 484.828 159.245 485.93L155.241 490.339C154.028 489.236 154.003 487.504 155.189 486.199Z" fill="#E9EEF1"/>
<path d="M164.712 475.027L165.531 475.965L165.499 475.993C164.586 475.798 163.286 475.886 162.035 476.977C160.002 478.75 159.876 481.668 162.168 484.295C164.459 486.922 167.367 487.194 169.4 485.421C170.651 484.33 170.915 483.054 170.819 482.091L170.85 482.064L174.055 485.739L175.713 484.293L166.37 473.581L164.712 475.027ZM168.54 483.804C167.101 485.058 165.189 484.413 163.825 482.849C162.461 481.286 162.082 479.304 163.521 478.049C164.85 476.89 166.633 477.261 168.188 479.044C169.729 480.811 169.869 482.644 168.54 483.804Z" fill="#E9EEF1"/>
<path d="M173.77 468.304L177.44 473.612C178.337 474.909 178.027 476.359 176.645 477.315C175.416 478.164 174.402 477.755 173.588 476.578L169.776 471.065L167.967 472.315L172.132 478.341C173.513 480.337 175.442 480.391 177.064 479.27C178.566 478.232 178.998 476.924 178.987 475.922L179.021 475.899L179.8 477.025L181.592 475.786L175.562 467.065L173.77 468.304Z" fill="#E9EEF1"/>
<path d="M178.397 463.306C178.949 462.977 179.254 462.312 178.872 461.67C178.489 461.029 177.77 460.998 177.218 461.327C176.701 461.635 176.368 462.292 176.75 462.934C177.133 463.576 177.88 463.614 178.397 463.306ZM178.383 465.391L183.81 474.5L185.682 473.385L180.255 464.276L178.383 465.391Z" fill="#E9EEF1"/>
<path d="M186.348 460.635C185.124 461.294 184.789 462.511 184.925 463.946L184.889 463.966L183.944 462.212L182.026 463.244L187.052 472.581L188.97 471.548L186.403 466.779C185.331 464.788 186.142 462.749 188.155 462.066L188.191 462.046L187.218 460.238C186.924 460.349 186.677 460.458 186.348 460.635Z" fill="#E9EEF1"/>
<path d="M196.035 466.307C194.292 467.136 192.629 466.296 191.862 464.684L199.208 461.191C197.587 457.781 195.044 456.347 191.952 457.817C189.066 459.189 188.175 462.003 189.654 465.113C191.08 468.112 193.877 469.309 196.857 467.892C199.312 466.725 200.077 464.661 199.7 462.612L197.732 463.547C197.84 464.209 197.665 465.532 196.035 466.307ZM192.692 459.373C194.285 458.616 195.842 459.185 196.546 460.665L191.167 463.222C190.464 461.742 191.099 460.13 192.692 459.373Z" fill="#E9EEF1"/>
<path d="M208.961 450.225C207.457 450.877 206.827 452.032 206.508 453.279L206.47 453.295C205.617 452.422 204.526 452.148 203.155 452.743C201.689 453.378 201.105 454.536 200.921 455.52L200.883 455.537L200.339 454.28L198.34 455.147L202.557 464.875L204.556 464.008L201.989 458.088C201.362 456.641 201.814 455.337 203.147 454.759C204.537 454.156 205.166 454.878 205.736 456.192L208.402 462.341L210.42 461.466L207.853 455.546C207.226 454.099 207.659 452.803 209.011 452.217C210.381 451.623 211.011 452.345 211.58 453.658L214.246 459.807L216.264 458.933L213.351 452.212C212.443 450.118 210.922 449.375 208.961 450.225Z" fill="#E9EEF1"/>
<path d="M221.764 454.851C220.012 455.659 218.359 454.8 217.611 453.18L224.996 449.771C223.413 446.342 220.887 444.88 217.779 446.315C214.877 447.654 213.954 450.457 215.398 453.584C216.789 456.599 219.573 457.828 222.569 456.445C225.037 455.306 225.825 453.251 225.471 451.197L223.493 452.11C223.593 452.773 223.403 454.094 221.764 454.851ZM218.501 447.879C220.102 447.139 221.653 447.726 222.34 449.215L216.932 451.71C216.246 450.222 216.899 448.618 218.501 447.879Z" fill="#E9EEF1"/>
<path d="M228.503 441.002C226.895 441.866 226.319 443.118 226.219 444.114L226.182 444.134L225.534 442.927L223.615 443.959L228.634 453.299L230.553 452.267L227.498 446.583C226.752 445.194 227.221 443.787 228.701 442.992C230.017 442.284 230.98 442.804 231.657 444.065L234.83 449.969L236.768 448.927L233.3 442.475C232.151 440.337 230.24 440.068 228.503 441.002Z" fill="#E9EEF1"/>
<path d="M238.628 437.366L237.671 435.86L235.99 436.929L234.198 434.109L232.341 435.289L234.133 438.108L232.837 438.932L233.794 440.438L235.09 439.614L238.273 444.623C239.475 446.514 240.704 446.668 242.175 445.733C242.665 445.422 243.034 445.113 243.347 444.792L242.39 443.286C241.243 444.113 240.675 444.302 240.029 443.286L236.947 438.435L238.628 437.366Z" fill="#E9EEF1"/>
<path d="M245.232 435.54C243.799 436.195 242.811 436.849 242.154 435.993C241.699 435.4 241.955 434.576 242.992 433.78C244.342 432.744 245.189 433.166 245.81 433.736L247.489 432.448C246.249 431.071 244.216 430.67 241.927 432.426C239.82 434.043 239.449 436.081 240.51 437.464C241.975 439.373 243.988 438.247 245.561 437.536C247.023 436.885 248.091 436.197 248.899 437.251C249.303 437.777 249.248 438.762 248.046 439.684C246.268 441.048 245.28 440.577 244.502 439.735L242.823 441.024C244.27 442.738 246.412 443.109 249.128 441.025C251.169 439.458 251.781 437.393 250.543 435.78C249.002 433.772 247.058 434.714 245.232 435.54Z" fill="#E9EEF1"/>
<path d="M252.362 564.279C251.783 566.338 251.452 567.72 249.834 567.672C248.735 567.64 248.102 566.563 248.153 564.8C248.213 562.747 249.157 561.695 250.886 561.517L250.958 559.049C247.903 559.167 246.133 561.482 246.038 564.738C245.943 567.974 247.356 570.049 249.99 570.126C252.811 570.209 253.776 567.725 254.425 565.419C255.236 562.516 255.605 561.261 257.368 561.312C258.509 561.345 259.459 562.224 259.395 564.423C259.317 567.078 258.035 568.327 256.144 568.396L256.072 570.865C259.436 570.818 261.404 568.114 261.51 564.485C261.619 560.751 259.701 558.91 257.337 558.841C254.018 558.744 253.263 561.13 252.362 564.279Z" fill="#E9EEF1"/>
<path d="M253.572 551.713L251.803 551.477L251.539 553.451L248.228 553.01L247.937 555.19L251.249 555.631L251.046 557.154L252.815 557.389L253.018 555.867L258.9 556.652C261.121 556.948 262.029 556.106 262.259 554.378C262.336 553.803 262.338 553.321 262.292 552.876L260.524 552.64C260.419 554.049 260.199 554.606 259.006 554.447L253.308 553.687L253.572 551.713Z" fill="#E9EEF1"/>
<path d="M263.77 547.279C263.029 550.515 260.334 551.962 257.118 551.225C253.902 550.489 252.107 548.012 252.848 544.776C253.59 541.54 256.284 540.093 259.5 540.829C262.716 541.566 264.512 544.042 263.77 547.279ZM262.031 546.88C262.494 544.857 261.137 543.44 259.014 542.953C256.87 542.462 255.051 543.152 254.588 545.175C254.124 547.197 255.461 548.61 257.605 549.102C259.729 549.588 261.567 548.903 262.031 546.88Z" fill="#E9EEF1"/>
<path d="M256.333 533.02C255.889 534.337 256.475 535.455 257.554 536.411L257.541 536.45L255.653 535.813L254.957 537.877L265.003 541.269L265.7 539.204L260.568 537.472C258.425 536.749 257.626 534.705 258.631 532.832L258.644 532.793L256.698 532.136C256.559 532.417 256.453 532.666 256.333 533.02Z" fill="#E9EEF1"/>
<path d="M261.443 521.786L260.486 523.904L266.76 529.723L266.742 529.76L258.127 529.123L257.162 531.259L267.421 531.684C268.491 531.735 269.128 532.342 269.401 532.897C269.733 533.572 269.508 534.221 269.019 535.002L268.942 535.172L270.454 535.856C270.72 535.52 271.028 535.09 271.284 534.523C272.122 532.67 271.213 531.508 269.967 530.284L261.443 521.786Z" fill="#E9EEF1"/>
<path d="M267.763 511.48C266.794 512.828 266.829 514.131 267.108 515.021L267.084 515.055L266.073 514.328L264.789 516.114L276.329 524.412L277.613 522.626L273.654 519.779L273.679 519.746C274.646 519.751 275.892 519.369 276.861 518.021C278.436 515.831 277.892 512.962 275.062 510.926C272.232 508.891 269.338 509.29 267.763 511.48ZM275.17 517.317C274.14 518.749 272.302 518.781 270.398 517.413C268.478 516.032 267.94 514.291 268.97 512.859C270.084 511.309 272.093 511.501 273.778 512.712C275.463 513.924 276.284 515.767 275.17 517.317Z" fill="#E9EEF1"/>
<path d="M283.408 510.339C281.082 512.709 278.029 512.532 275.674 510.222C273.319 507.911 273.085 504.861 275.41 502.491C277.736 500.122 280.789 500.298 283.144 502.609C285.499 504.92 285.733 507.97 283.408 510.339ZM282.134 509.09C283.587 507.609 283.173 505.69 281.618 504.164C280.048 502.624 278.137 502.26 276.684 503.741C275.231 505.222 275.63 507.126 277.2 508.667C278.755 510.193 280.681 510.571 282.134 509.09Z" fill="#E9EEF1"/>
<path d="M281.007 495.365C281.503 494.955 281.701 494.251 281.225 493.676C280.748 493.101 280.033 493.181 279.538 493.591C279.075 493.975 278.847 494.676 279.323 495.251C279.8 495.826 280.544 495.749 281.007 495.365ZM281.314 497.427L288.078 505.593L289.756 504.204L282.992 496.038L281.314 497.427Z" fill="#E9EEF1"/>
<path d="M288.845 491.437C287.333 492.461 286.888 493.765 286.889 494.766L286.855 494.789L286.087 493.656L284.283 494.877L290.228 503.657L292.032 502.435L288.414 497.092C287.53 495.786 287.853 494.339 289.245 493.397C290.482 492.559 291.492 492.978 292.295 494.163L296.053 499.713L297.874 498.48L293.767 492.415C292.406 490.404 290.477 490.332 288.845 491.437Z" fill="#E9EEF1"/>
<path d="M299.592 487.147L298.665 485.623L296.963 486.658L295.226 483.805L293.347 484.948L295.084 487.802L293.773 488.6L294.7 490.124L296.012 489.326L299.097 494.396C300.262 496.31 301.487 496.487 302.976 495.581C303.473 495.279 303.848 494.978 304.166 494.663L303.239 493.138C302.076 493.943 301.505 494.121 300.879 493.093L297.891 488.183L299.592 487.147Z" fill="#E9EEF1"/>
<path d="M714.916 353.295L726.559 370.957L730.055 370.049L731.638 348.955L728.223 349.841L727.406 366.976L727.379 366.983L718.331 352.409L714.916 353.295ZM741.914 356.065C742.259 357.393 741.028 358.002 738.993 358.964C735.699 360.542 733.696 362.075 734.484 365.11C735.089 367.441 737.246 368.617 740.064 367.885C742.205 367.329 743.559 366.081 744.11 364.637L744.164 364.622C744.787 365.907 745.632 366.266 747.15 365.872C747.692 365.732 748.138 365.558 748.726 365.145L748.374 363.79C747.291 364.187 746.94 363.728 746.687 362.753L744.978 356.167C744.021 352.481 741.442 351.906 738.38 352.701C734.206 353.785 733.04 356.315 733.594 359.006L736.358 358.288C736.03 356.464 736.687 355.542 738.963 354.951C740.861 354.458 741.654 355.063 741.914 356.065ZM740.104 365.474C738.559 365.875 737.617 365.367 737.286 364.093C736.921 362.684 737.775 361.739 739.999 360.612C741.257 359.997 742.283 359.383 742.66 358.938L743.201 361.025C743.785 363.274 742.462 364.862 740.104 365.474ZM745.158 345.446L750.187 364.824L753.06 364.078L748.031 344.7L745.158 345.446ZM761.064 347.219L763.252 355.647C763.786 357.707 762.722 359.401 760.527 359.971C758.575 360.477 757.48 359.489 756.994 357.619L754.722 348.865L751.849 349.61L754.333 359.177C755.156 362.348 757.575 363.311 760.15 362.643C762.535 362.024 763.69 360.567 764.14 359.293L764.194 359.279L764.659 361.068L767.504 360.329L763.91 346.48L761.064 347.219ZM775.57 356.182C773.049 356.836 771.059 355.299 770.454 352.968L781.078 350.21C779.798 345.278 776.794 342.731 772.322 343.892C768.148 344.975 766.251 348.476 767.419 352.975C768.544 357.311 771.947 359.61 776.256 358.492C779.806 357.57 781.345 355.03 781.368 352.218L778.522 352.957C778.496 353.86 777.928 355.57 775.57 356.182ZM772.906 346.141C775.209 345.543 777.128 346.694 777.684 348.835L769.905 350.854C769.35 348.713 770.602 346.739 772.906 346.141Z" fill="#E9EEF1"/>
<path d="M1019.27 340.781L1027.76 358.911L1030.77 357.497L1022.28 339.367L1019.27 340.781ZM1041.43 336.274C1039.43 337.212 1038.62 338.795 1038.24 340.488L1038.19 340.512C1037 339.367 1035.52 339.041 1033.7 339.896C1031.74 340.811 1031 342.395 1030.79 343.73L1030.74 343.754L1029.96 342.08L1027.3 343.327L1033.36 356.284L1036.03 355.037L1032.33 347.151C1031.43 345.224 1031.99 343.447 1033.76 342.616C1035.62 341.749 1036.49 342.698 1037.31 344.448L1041.15 352.638L1043.84 351.379L1040.14 343.493C1039.24 341.566 1039.77 339.801 1041.57 338.958C1043.4 338.103 1044.28 339.052 1045.1 340.802L1048.93 348.992L1051.62 347.733L1047.43 338.782C1046.12 335.993 1044.04 335.05 1041.43 336.274ZM1054.32 330.236C1052.29 331.186 1051.48 332.743 1051.22 333.977L1051.17 334.001L1050.46 332.479L1047.77 333.738L1055.9 351.107L1058.59 349.848L1055.8 343.89L1055.85 343.866C1056.99 344.509 1058.71 344.878 1060.73 343.928C1064.03 342.384 1065.28 338.646 1063.28 334.386C1061.29 330.126 1057.62 328.692 1054.32 330.236ZM1059.21 341.985C1057.05 342.995 1054.86 341.824 1053.52 338.958C1052.17 336.068 1052.68 333.663 1054.84 332.654C1057.17 331.561 1059.41 333.109 1060.6 335.645C1061.78 338.181 1061.54 340.892 1059.21 341.985ZM1071.35 326.835C1071.93 328.077 1070.84 328.901 1069.01 330.219C1066.06 332.373 1064.37 334.247 1065.7 337.086C1066.73 339.267 1069.06 340.028 1071.7 338.793C1073.7 337.855 1074.8 336.38 1075.08 334.859L1075.13 334.835C1075.98 335.984 1076.88 336.183 1078.3 335.518C1078.8 335.28 1079.21 335.027 1079.71 334.514L1079.12 333.246C1078.13 333.835 1077.7 333.448 1077.27 332.535L1074.38 326.374C1072.77 322.925 1070.13 322.832 1067.26 324.174C1063.36 326.003 1062.67 328.704 1063.71 331.248L1066.3 330.037C1065.64 328.304 1066.12 327.277 1068.25 326.279C1070.02 325.448 1070.91 325.896 1071.35 326.835ZM1071.3 336.415C1069.85 337.092 1068.83 336.766 1068.27 335.574C1067.66 334.255 1068.32 333.17 1070.3 331.655C1071.43 330.82 1072.32 330.028 1072.61 329.522L1073.53 331.475C1074.51 333.579 1073.5 335.382 1071.3 336.415ZM1086.12 321.558L1088.78 320.311C1087.07 317.524 1083.86 316.402 1080.48 317.982C1076.63 319.787 1075.43 323.752 1077.33 327.809C1079.23 331.866 1083.04 333.479 1086.92 331.662C1090.29 330.083 1091.57 326.796 1090.37 323.709L1087.71 324.956C1088.28 326.449 1088.18 328.413 1085.9 329.482C1083.26 330.717 1081.13 328.996 1079.99 326.562C1078.85 324.128 1078.92 321.374 1081.53 320.151C1083.81 319.082 1085.4 320.287 1086.12 321.558ZM1095.27 314.147L1094.25 311.967L1091.82 313.107L1089.9 309.024L1087.22 310.283L1089.13 314.366L1087.25 315.244L1088.27 317.425L1090.15 316.546L1093.55 323.798C1094.83 326.537 1096.45 326.954 1098.58 325.956C1099.29 325.624 1099.83 325.274 1100.31 324.898L1099.29 322.718C1097.61 323.627 1096.82 323.782 1096.13 322.311L1092.84 315.287L1095.27 314.147Z" fill="#E9EEF1"/>
<path d="M897.339 367.168L900.446 365.965L897.657 358.758L902.226 356.989C906.718 355.251 907.454 362.352 908.619 362.801L911.883 361.538L911.813 361.355C910.699 361.426 909.436 353.508 904.814 354.366L904.794 354.314C906.733 352.963 907.478 350.933 906.468 348.322C905.154 344.927 901.915 343.929 898.077 345.415L890.112 348.497L897.339 367.168ZM894.241 349.932L898.445 348.305C900.351 347.567 902.487 347.19 903.528 349.88C904.579 352.596 902.736 353.729 900.83 354.467L896.626 356.094L894.241 349.932ZM922.52 357.871C928.134 355.698 930.088 350.198 927.915 344.584C925.742 338.97 920.604 336.245 914.99 338.418C909.35 340.601 907.412 346.065 909.585 351.679C911.758 357.293 916.88 360.054 922.52 357.871ZM921.489 355.208C917.207 356.865 914.131 354.273 912.666 350.486C911.21 346.726 911.739 342.739 916.021 341.081C920.303 339.424 923.353 342.027 924.808 345.787C926.274 349.573 925.771 353.55 921.489 355.208ZM926.567 334.387L933.793 353.058L936.901 351.855L929.674 333.185L926.567 334.387Z" fill="#E9EEF1"/>
<path d="M1260.65 264.755C1258.73 262.173 1255.73 262.134 1252.43 264.593L1245.54 269.727L1257.5 285.784L1264.77 280.366C1268.1 277.891 1269.04 274.708 1266.73 271.608C1264.94 269.205 1262.59 269.041 1260.69 270.003L1260.65 269.958C1261.64 268.522 1262.13 266.732 1260.65 264.755ZM1253.16 274.384L1249.9 270.005L1254.19 266.811C1255.78 265.623 1257.25 265.757 1258.3 267.172C1259.35 268.587 1259.2 269.886 1257.29 271.307L1253.16 274.384ZM1254.65 276.383L1259.34 272.888C1261.03 271.634 1262.72 271.802 1263.94 273.441C1265.06 274.946 1265.17 276.542 1262.88 278.248L1258.48 281.526L1254.65 276.383Z" fill="#E9EEF1"/>
<path d="M1276.33 268.888C1274.3 270.516 1271.86 269.928 1270.35 268.049L1278.92 261.185C1275.73 257.209 1271.95 256.114 1268.34 259.003C1264.98 261.7 1264.68 265.67 1267.58 269.298C1270.39 272.793 1274.43 273.499 1277.9 270.715C1280.77 268.421 1281.13 265.473 1280 262.899L1277.71 264.737C1278.05 265.572 1278.23 267.365 1276.33 268.888ZM1269.79 260.817C1271.65 259.328 1273.87 259.593 1275.26 261.319L1268.98 266.345C1267.6 264.619 1267.94 262.305 1269.79 260.817Z" fill="#E9EEF1"/>
<path d="M1280.59 248.836C1278.76 250.401 1278.36 252.216 1278.51 253.559L1278.47 253.595L1273.56 247.848L1271.32 249.758L1284.33 264.978L1286.56 263.068L1280.91 256.448C1279.52 254.83 1279.8 252.786 1281.44 251.386C1283 250.058 1284.41 250.467 1285.67 251.936L1291.55 258.811L1293.8 256.883L1287.38 249.369C1285.25 246.878 1282.66 247.072 1280.59 248.836Z" fill="#E9EEF1"/>
<path d="M1295.27 241.305C1296.2 242.318 1295.39 243.431 1294.05 245.234C1291.87 248.17 1290.82 250.462 1292.94 252.776C1294.56 254.552 1297.02 254.582 1299.17 252.617C1300.8 251.124 1301.41 249.387 1301.22 247.853L1301.26 247.815C1302.42 248.659 1303.33 248.581 1304.49 247.522C1304.9 247.144 1305.21 246.782 1305.54 246.142L1304.59 245.109C1303.82 245.967 1303.3 245.725 1302.62 244.982L1298.03 239.961C1295.46 237.152 1292.91 237.851 1290.57 239.987C1287.39 242.897 1287.55 245.678 1289.29 247.798L1291.4 245.87C1290.26 244.412 1290.41 243.289 1292.14 241.701C1293.59 240.378 1294.57 240.541 1295.27 241.305ZM1298.07 250.467C1296.9 251.545 1295.83 251.537 1294.94 250.566C1293.96 249.491 1294.27 248.257 1295.71 246.22C1296.53 245.087 1297.15 244.064 1297.27 243.495L1298.73 245.086C1300.3 246.801 1299.87 248.823 1298.07 250.467Z" fill="#E9EEF1"/>
<path d="M1296.37 235.213L1310.01 241.869L1312.39 239.534L1305.98 225.775L1303.76 227.953L1309.03 238.474L1309.01 238.494L1298.59 233.035L1296.37 235.213Z" fill="#E9EEF1"/>
<path d="M1306.46 221.756C1307.07 221.132 1307.23 220.159 1306.5 219.458C1305.78 218.758 1304.83 218.972 1304.23 219.596C1303.66 220.18 1303.46 221.154 1304.19 221.854C1304.91 222.555 1305.9 222.34 1306.46 221.756ZM1307.18 224.476L1317.47 234.418L1319.51 232.304L1309.23 222.362L1307.18 224.476Z" fill="#E9EEF1"/>
<path d="M1326.7 225.21C1323.7 228.531 1319.57 228.458 1316.27 225.469C1312.97 222.481 1312.49 218.382 1315.5 215.061C1318.5 211.74 1322.63 211.813 1325.93 214.801C1329.23 217.789 1329.71 221.889 1326.7 225.21ZM1324.92 223.593C1326.8 221.518 1326.14 218.954 1323.96 216.98C1321.76 214.988 1319.16 214.602 1317.28 216.677C1315.4 218.753 1316.04 221.298 1318.24 223.29C1320.42 225.263 1323.04 225.669 1324.92 223.593Z" fill="#E9EEF1"/>
<path d="M1325.73 203.296C1324.53 204.736 1324.72 206.429 1325.61 208.157L1325.58 208.2L1323.51 206.478L1321.63 208.735L1332.61 217.903L1334.5 215.646L1328.89 210.963C1326.54 209.008 1326.53 206.046 1328.71 204.18L1328.75 204.137L1326.62 202.361C1326.31 202.648 1326.05 202.909 1325.73 203.296Z" fill="#E9EEF1"/>
<defs>
<linearGradient id="paint0_linear_1662_10470" x1="493.907" y1="77.1819" x2="514.429" y2="77.1819" gradientUnits="userSpaceOnUse">
<stop stop-color="#0D99FF"/>
<stop offset="1" stop-color="#99FAF4"/>
</linearGradient>
<linearGradient id="paint1_linear_1662_10470" x1="493.907" y1="77.1819" x2="514.429" y2="77.1819" gradientUnits="userSpaceOnUse">
<stop stop-color="#0D99FF"/>
<stop offset="1" stop-color="#99FAF4"/>
</linearGradient>
<linearGradient id="paint2_linear_1662_10470" x1="486" y1="82.2312" x2="494.526" y2="82.2312" gradientUnits="userSpaceOnUse">
<stop stop-color="#0D99FF"/>
<stop offset="1" stop-color="#99FAF4"/>
</linearGradient>
<linearGradient id="paint3_linear_1662_10470" x1="513.463" y1="82.2312" x2="521.964" y2="82.2312" gradientUnits="userSpaceOnUse">
<stop stop-color="#0D99FF"/>
<stop offset="1" stop-color="#99FAF4"/>
</linearGradient>
<linearGradient id="paint4_linear_1662_10470" x1="504.168" y1="53.0274" x2="505.168" y2="53.0274" gradientUnits="userSpaceOnUse">
<stop stop-color="#0D99FF"/>
<stop offset="1" stop-color="#99FAF4"/>
</linearGradient>
<linearGradient id="paint5_linear_1662_10470" x1="504.168" y1="98.658" x2="505.168" y2="98.658" gradientUnits="userSpaceOnUse">
<stop stop-color="#0D99FF"/>
<stop offset="1" stop-color="#99FAF4"/>
</linearGradient>
<linearGradient id="paint6_linear_1662_10470" x1="1285.88" y1="474.182" x2="1306.4" y2="474.182" gradientUnits="userSpaceOnUse">
<stop stop-color="#0D99FF"/>
<stop offset="1" stop-color="#99FAF4"/>
</linearGradient>
<linearGradient id="paint7_linear_1662_10470" x1="1285.88" y1="474.182" x2="1306.4" y2="474.182" gradientUnits="userSpaceOnUse">
<stop stop-color="#0D99FF"/>
<stop offset="1" stop-color="#99FAF4"/>
</linearGradient>
<linearGradient id="paint8_linear_1662_10470" x1="1278" y1="479.231" x2="1286.5" y2="479.231" gradientUnits="userSpaceOnUse">
<stop stop-color="#0D99FF"/>
<stop offset="1" stop-color="#99FAF4"/>
</linearGradient>
<linearGradient id="paint9_linear_1662_10470" x1="1305.46" y1="479.231" x2="1313.96" y2="479.231" gradientUnits="userSpaceOnUse">
<stop stop-color="#0D99FF"/>
<stop offset="1" stop-color="#99FAF4"/>
</linearGradient>
<linearGradient id="paint10_linear_1662_10470" x1="1296.14" y1="450.027" x2="1297.14" y2="450.027" gradientUnits="userSpaceOnUse">
<stop stop-color="#0D99FF"/>
<stop offset="1" stop-color="#99FAF4"/>
</linearGradient>
<linearGradient id="paint11_linear_1662_10470" x1="1296.14" y1="495.633" x2="1297.14" y2="495.633" gradientUnits="userSpaceOnUse">
<stop stop-color="#0D99FF"/>
<stop offset="1" stop-color="#99FAF4"/>
</linearGradient>
<linearGradient id="paint12_linear_1662_10470" x1="573.582" y1="323.704" x2="683.422" y2="332.169" gradientUnits="userSpaceOnUse">
<stop stop-color="#0D99FF"/>
<stop offset="1" stop-color="#99FAF4"/>
</linearGradient>
<linearGradient id="paint13_linear_1662_10470" x1="829.078" y1="166.807" x2="1176.99" y2="193.62" gradientUnits="userSpaceOnUse">
<stop stop-color="#0D99FF"/>
<stop offset="1" stop-color="#99FAF4"/>
</linearGradient>
<linearGradient id="paint14_linear_1662_10470" x1="525.004" y1="318.293" x2="847.299" y2="343.132" gradientUnits="userSpaceOnUse">
<stop stop-color="#0D99FF"/>
<stop offset="1" stop-color="#99FAF4"/>
</linearGradient>
<linearGradient id="paint15_linear_1662_10470" x1="984.044" y1="156.82" x2="1239.1" y2="176.476" gradientUnits="userSpaceOnUse">
<stop stop-color="#0D99FF"/>
<stop offset="1" stop-color="#99FAF4"/>
</linearGradient>
<linearGradient id="paint16_linear_1662_10470" x1="476.352" y1="311.682" x2="999.961" y2="352.035" gradientUnits="userSpaceOnUse">
<stop stop-color="#0D99FF"/>
<stop offset="1" stop-color="#99FAF4"/>
</linearGradient>
<linearGradient id="paint17_linear_1662_10470" x1="1061.27" y1="134.885" x2="1301.53" y2="153.402" gradientUnits="userSpaceOnUse">
<stop stop-color="#0D99FF"/>
<stop offset="1" stop-color="#99FAF4"/>
</linearGradient>
<linearGradient id="paint18_linear_1662_10470" x1="427.67" y1="304.358" x2="1219.12" y2="365.354" gradientUnits="userSpaceOnUse">
<stop stop-color="#0D99FF"/>
<stop offset="1" stop-color="#99FAF4"/>
</linearGradient>
<linearGradient id="paint19_linear_1662_10470" x1="1046.27" y1="80.6119" x2="1366.38" y2="105.282" gradientUnits="userSpaceOnUse">
<stop stop-color="#0D99FF"/>
<stop offset="1" stop-color="#99FAF4"/>
</linearGradient>
</defs>
</svg>
