<svg width="272" height="162" viewBox="0 0 272 162" fill="none" xmlns="http://www.w3.org/2000/svg">
<g opacity="0.8">
<path d="M251.934 67.4117L150.83 8.84662C140.736 2.99904 124.423 2.99904 114.393 8.84662L13.949 67.4117C3.91905 73.2592 3.97123 82.7404 14.0687 88.588L115.17 147.153C125.264 153.001 141.577 153.001 151.607 147.153L252.051 88.588C262.081 82.7404 262.029 73.2592 251.934 67.4117Z" stroke="#E9EEF1" stroke-width="2" stroke-miterlimit="10"/>
<path d="M182.497 57.8227C185.238 59.4116 185.253 61.9859 182.531 63.5717L145.839 84.9636L112.174 65.4624L148.866 44.0706C151.588 42.4817 156.02 42.4817 158.764 44.0706L182.497 57.8227Z" stroke="#E9EEF1" stroke-width="2" stroke-miterlimit="10"/>
<path d="M172.13 58.7402C173.121 59.316 173.127 60.246 172.142 60.8187L171.829 61.0004C170.844 61.5762 169.242 61.5762 168.25 61.0004L153.337 52.363C152.346 51.7871 152.34 50.8572 153.325 50.2844L153.638 50.1028C154.623 49.5269 156.225 49.5269 157.217 50.1028L172.13 58.7402Z" fill="#30DB74"/>
<path d="M145.831 84.967L109.149 98.833C106.427 100.422 101.995 100.422 99.2539 98.833L75.5171 85.084C72.7733 83.4951 72.7579 80.9208 75.4833 79.3319L112.166 65.4658L145.831 84.967Z" stroke="#E9EEF1" stroke-width="2" stroke-miterlimit="10"/>
<path d="M109.127 106.365L145.819 84.9731L137.124 88.2618L109.149 98.8361C108.998 98.9254 108.839 99.0055 108.676 99.0855C108.633 99.1071 108.59 99.1256 108.547 99.1471C108.4 99.2149 108.253 99.2795 108.099 99.338C108.078 99.3473 108.059 99.3534 108.038 99.3627C107.875 99.4243 107.706 99.4828 107.534 99.5351C107.415 99.5721 107.295 99.6059 107.175 99.6367C107.083 99.6614 106.994 99.6891 106.899 99.7106C106.773 99.7414 106.641 99.7661 106.512 99.7938C106.423 99.8122 106.337 99.8307 106.248 99.8461C105.988 99.8923 105.721 99.9293 105.454 99.957C105.371 99.9662 105.288 99.9724 105.205 99.9785C105.048 99.9908 104.892 100.003 104.732 100.009C104.631 100.012 104.53 100.015 104.428 100.019C104.3 100.022 104.174 100.022 104.045 100.022C103.937 100.022 103.83 100.015 103.726 100.012C103.606 100.009 103.489 100 103.37 99.9939C103.262 99.9878 103.155 99.9785 103.047 99.9662C102.931 99.9539 102.814 99.9416 102.697 99.9262C102.593 99.9139 102.489 99.8985 102.384 99.8831C102.259 99.8646 102.136 99.843 102.013 99.8184C101.915 99.7999 101.82 99.7815 101.721 99.7599C101.574 99.7291 101.43 99.6922 101.286 99.6521C101.194 99.6275 101.098 99.6059 101.009 99.5782C100.96 99.5628 100.911 99.5474 100.862 99.532C100.718 99.4858 100.577 99.4396 100.439 99.3873C100.399 99.3719 100.356 99.3596 100.316 99.3411C100.19 99.2918 100.067 99.2364 99.9444 99.1841C99.883 99.1563 99.8216 99.1317 99.7633 99.104C99.5853 99.0209 99.4165 98.9316 99.2508 98.8361L75.5139 85.0871C74.1328 84.2864 73.4423 83.2364 73.4453 82.1895L73.4238 89.7214C73.4208 90.7684 74.1113 91.8184 75.4924 92.619L99.2293 106.368C99.395 106.464 99.5669 106.553 99.7418 106.636C99.8001 106.664 99.8615 106.688 99.9198 106.713C100.024 106.759 100.129 106.808 100.236 106.852C100.254 106.858 100.273 106.864 100.291 106.873C100.331 106.888 100.371 106.904 100.414 106.916C100.552 106.969 100.696 107.018 100.841 107.061C100.89 107.076 100.939 107.092 100.988 107.107C101.022 107.116 101.052 107.129 101.086 107.138C101.144 107.153 101.206 107.166 101.264 107.181C101.408 107.218 101.553 107.255 101.7 107.289C101.74 107.298 101.777 107.31 101.817 107.316C101.875 107.329 101.933 107.335 101.992 107.347C102.114 107.372 102.237 107.393 102.363 107.412C102.412 107.421 102.461 107.43 102.51 107.437C102.565 107.446 102.621 107.449 102.676 107.455C102.793 107.47 102.909 107.483 103.026 107.495C103.081 107.501 103.136 107.51 103.192 107.514C103.244 107.517 103.296 107.52 103.348 107.523C103.465 107.532 103.584 107.538 103.704 107.541C103.762 107.544 103.824 107.551 103.882 107.551C103.931 107.551 103.977 107.551 104.023 107.551C104.152 107.551 104.278 107.55 104.407 107.547C104.471 107.547 104.533 107.547 104.597 107.547C104.634 107.547 104.671 107.541 104.711 107.541C104.87 107.535 105.027 107.523 105.183 107.51C105.248 107.504 105.309 107.504 105.374 107.498C105.392 107.495 105.414 107.492 105.432 107.489C105.699 107.461 105.966 107.424 106.227 107.378C106.239 107.375 106.251 107.375 106.267 107.372C106.344 107.36 106.417 107.338 106.491 107.323C106.62 107.295 106.752 107.27 106.878 107.239C106.97 107.218 107.062 107.19 107.151 107.166C107.274 107.132 107.393 107.101 107.513 107.064C107.537 107.055 107.565 107.049 107.59 107.042C107.734 106.996 107.875 106.944 108.016 106.892C108.038 106.882 108.056 106.876 108.075 106.867C108.228 106.808 108.375 106.744 108.523 106.676C108.566 106.658 108.609 106.636 108.652 106.614C108.817 106.534 108.977 106.451 109.127 106.365Z" stroke="#E9EEF1" stroke-width="2" stroke-miterlimit="10"/>
</g>
</svg>
