<svg width="265" height="156" viewBox="0 0 265 156" fill="none" xmlns="http://www.w3.org/2000/svg">
<path d="M251.934 67.4117L150.83 8.84662C140.736 2.99904 124.423 2.99904 114.393 8.84662L13.949 67.4117C3.91905 73.2592 3.97123 82.7404 14.0687 88.588L115.17 147.153C125.264 153.001 141.577 153.001 151.607 147.153L252.051 88.588C262.081 82.7404 262.029 73.2592 251.934 67.4117Z" stroke="#E9EEF1" stroke-width="3" stroke-miterlimit="10"/>
<path d="M182.498 57.8227C185.238 59.4116 185.254 61.9859 182.531 63.5717L145.84 84.9636L112.174 65.4624L148.866 44.0706C151.588 42.4817 156.02 42.4817 158.764 44.0706L182.498 57.8227Z" stroke="#E9EEF1" stroke-width="3" stroke-miterlimit="10"/>
<path d="M172.13 58.7402C173.121 59.316 173.128 60.246 172.142 60.8187L171.829 61.0004C170.844 61.5762 169.242 61.5762 168.251 61.0004L153.338 52.363C152.346 51.7871 152.34 50.8572 153.325 50.2844L153.638 50.1028C154.624 49.5269 156.226 49.5269 157.217 50.1028L172.13 58.7402Z" fill="#30DB74"/>
<path d="M145.831 84.9665L109.148 98.8325C106.426 100.421 101.994 100.421 99.2531 98.8325L75.5162 85.0835C72.7724 83.4946 72.7571 80.9203 75.4825 79.3314L112.165 65.4653L145.831 84.9665Z" stroke="#E9EEF1" stroke-width="3" stroke-miterlimit="10"/>
<path d="M109.127 106.364L145.818 84.9726L137.123 88.2613L109.148 98.8356C108.998 98.9249 108.838 99.005 108.675 99.085C108.632 99.1066 108.589 99.1251 108.546 99.1466C108.399 99.2144 108.252 99.279 108.098 99.3375C108.077 99.3468 108.058 99.3529 108.037 99.3622C107.874 99.4238 107.706 99.4823 107.534 99.5346C107.414 99.5716 107.294 99.6054 107.175 99.6362C107.082 99.6609 106.993 99.6886 106.898 99.7101C106.772 99.7409 106.641 99.7656 106.512 99.7933C106.423 99.8118 106.337 99.8302 106.248 99.8456C105.987 99.8918 105.72 99.9288 105.453 99.9565C105.37 99.9657 105.287 99.9719 105.204 99.978C105.048 99.9904 104.891 100.003 104.732 100.009C104.63 100.012 104.529 100.015 104.428 100.018C104.299 100.021 104.173 100.021 104.044 100.021C103.937 100.021 103.829 100.015 103.725 100.012C103.605 100.009 103.488 99.9996 103.369 99.9934C103.261 99.9873 103.154 99.978 103.047 99.9657C102.93 99.9534 102.813 99.9411 102.697 99.9257C102.592 99.9134 102.488 99.898 102.384 99.8826C102.258 99.8641 102.135 99.8425 102.012 99.8179C101.914 99.7994 101.819 99.781 101.721 99.7594C101.573 99.7286 101.429 99.6917 101.285 99.6516C101.193 99.627 101.098 99.6054 101.009 99.5777C100.96 99.5623 100.91 99.5469 100.861 99.5315C100.717 99.4853 100.576 99.4392 100.438 99.3868C100.398 99.3714 100.355 99.3591 100.315 99.3406C100.189 99.2914 100.066 99.2359 99.9436 99.1836C99.8822 99.1559 99.8209 99.1312 99.7625 99.1035C99.5845 99.0204 99.4157 98.9311 99.25 98.8356L75.5132 85.0866C74.1321 84.286 73.4415 83.2359 73.4446 82.189L73.4231 89.7209C73.42 90.7679 74.1106 91.8179 75.4917 92.6185L99.2285 106.368C99.3942 106.463 99.5661 106.552 99.7411 106.635C99.7994 106.663 99.8608 106.688 99.9191 106.712C100.023 106.759 100.128 106.808 100.235 106.851C100.254 106.857 100.272 106.863 100.29 106.873C100.33 106.888 100.37 106.903 100.413 106.916C100.551 106.968 100.696 107.017 100.84 107.06C100.889 107.076 100.938 107.091 100.987 107.107C101.021 107.116 101.052 107.128 101.085 107.137C101.144 107.153 101.205 107.165 101.263 107.18C101.408 107.217 101.552 107.254 101.699 107.288C101.739 107.298 101.776 107.31 101.816 107.316C101.874 107.328 101.932 107.334 101.991 107.347C102.114 107.371 102.236 107.393 102.362 107.411C102.411 107.421 102.46 107.43 102.509 107.436C102.565 107.445 102.62 107.448 102.675 107.455C102.792 107.47 102.908 107.482 103.025 107.495C103.08 107.501 103.136 107.51 103.191 107.513C103.243 107.516 103.295 107.519 103.347 107.522C103.464 107.532 103.584 107.538 103.703 107.541C103.762 107.544 103.823 107.55 103.881 107.55C103.93 107.55 103.976 107.55 104.023 107.55C104.151 107.55 104.277 107.55 104.406 107.547C104.471 107.547 104.532 107.547 104.596 107.547C104.633 107.547 104.67 107.541 104.71 107.541C104.87 107.535 105.026 107.522 105.183 107.51C105.247 107.504 105.309 107.504 105.373 107.498C105.391 107.495 105.413 107.492 105.431 107.488C105.698 107.461 105.965 107.424 106.226 107.378C106.238 107.374 106.251 107.374 106.266 107.371C106.343 107.359 106.416 107.338 106.49 107.322C106.619 107.294 106.751 107.27 106.877 107.239C106.969 107.217 107.061 107.19 107.15 107.165C107.273 107.131 107.392 107.1 107.512 107.063C107.537 107.054 107.564 107.048 107.589 107.042C107.733 106.996 107.874 106.943 108.015 106.891C108.037 106.882 108.055 106.876 108.074 106.866C108.227 106.808 108.375 106.743 108.522 106.675C108.565 106.657 108.608 106.635 108.651 106.614C108.817 106.534 108.976 106.451 109.127 106.364Z" stroke="#E9EEF1" stroke-width="3" stroke-miterlimit="10"/>
</svg>
