<svg width="308" height="449" viewBox="0 0 308 449" fill="none" xmlns="http://www.w3.org/2000/svg">
<g clip-path="url(#clip0_6799_111588)">
<path d="M572.462 294.831L99.8054 447.25C96.8955 448.189 93.7605 446.582 92.8218 443.671L10.9319 189.728C9.99317 186.817 11.5989 183.681 14.5087 182.743L51.6456 170.767L52.0919 172.151L14.955 184.127C12.8061 184.82 11.6221 187.132 12.3154 189.282L94.2038 443.22C94.897 445.37 97.2087 446.555 99.3576 445.862L572.014 293.442C574.163 292.749 575.347 290.437 574.654 288.287L492.766 34.3493C492.072 32.1995 489.761 31.0146 487.612 31.7076L449.308 44.0595L448.862 42.6755L487.165 30.3237C490.075 29.3853 493.21 30.9921 494.149 33.9031L576.037 287.841C576.978 290.757 575.377 293.891 572.462 294.831Z" fill="#E9EEF1"/>
<path d="M314.335 86.0572L186.396 127.314L186.843 128.698L314.781 87.4412L314.335 86.0572Z" fill="#E9EEF1"/>
<path d="M104.75 344.892C100.678 346.205 96.2989 343.96 94.9853 339.887C93.6717 335.813 95.9146 331.433 99.9866 330.12C104.059 328.807 108.439 331.056 109.751 335.125C111.064 339.194 108.822 343.579 104.75 344.892ZM100.104 330.485C96.235 331.732 94.1014 335.899 95.3496 339.769C96.5977 343.64 100.763 345.775 104.633 344.527C108.502 343.28 110.635 339.113 109.387 335.243C108.139 331.372 103.978 329.235 100.104 330.485Z" fill="#E9EEF1"/>
<path d="M104.209 343.208C101.064 344.222 97.6854 342.49 96.6708 339.344C95.6562 336.197 97.3868 332.818 100.532 331.804C103.677 330.789 107.056 332.521 108.071 335.668C109.085 338.814 107.354 342.193 104.209 343.208ZM100.649 332.168C97.7073 333.117 96.086 336.283 97.0351 339.226C97.9842 342.169 101.15 343.792 104.092 342.843C107.034 341.894 108.655 338.728 107.706 335.785C106.757 332.842 103.592 331.219 100.649 332.168Z" fill="#E9EEF1"/>
<path d="M102.807 366.889C96.586 362.248 93.1473 353.558 94.2575 345.255C94.4674 343.68 94.8316 342.157 95.3466 340.723L95.7039 340.852C95.2014 342.262 94.839 343.759 94.6355 345.306C93.5435 353.476 96.9176 362.029 103.035 366.586L102.807 366.889Z" fill="#E9EEF1"/>
<path d="M114.147 334.939C113.686 335.088 113.172 335.071 112.646 334.879C112.547 334.855 112.449 334.835 112.351 334.816C111.346 334.605 110.333 334.54 109.344 334.614L109.313 334.237C110.342 334.16 111.393 334.229 112.43 334.444C112.517 334.462 112.6 334.481 112.688 334.503L112.691 334.497L113.121 334.614L113.119 334.624C113.769 334.761 114.239 334.543 114.537 334.315C115.079 333.896 115.403 333.134 115.324 332.462C115.222 331.609 114.923 330.778 113.574 330.352L112.637 330.145L112.642 330.128C110.127 329.625 107.59 329.807 105.234 330.663L105.102 330.303C107.664 329.375 110.429 329.217 113.152 329.847C113.309 329.877 113.453 329.913 113.589 329.955C113.639 329.97 113.684 329.981 113.734 329.995L113.731 330.001C115.249 330.494 115.588 331.48 115.697 332.418C115.79 333.228 115.418 334.112 114.761 334.614C114.578 334.76 114.369 334.868 114.147 334.939Z" fill="#E9EEF1"/>
<path d="M104.354 367.184C103.695 367.397 102.819 367.175 101.528 365.839L101.803 365.572C103.692 367.53 104.472 366.79 104.894 366.394C105.276 366.031 105.493 365.315 105.437 364.604C105.406 364.176 105.243 363.419 104.564 362.798C99.8911 359.217 97.318 352.595 98.1543 346.316C98.2535 345.566 98.4017 344.825 98.5909 344.117L98.9592 344.218C98.7716 344.915 98.6282 345.638 98.5323 346.367C97.731 352.36 100.1 358.665 104.45 362.223C105.255 362.778 105.737 363.611 105.814 364.574C105.878 365.404 105.619 366.226 105.15 366.668C104.927 366.892 104.663 367.085 104.354 367.184Z" fill="#E9EEF1"/>
<path d="M144.698 352.57C135.115 355.661 124.801 350.374 121.708 340.783C118.615 331.192 123.898 320.876 133.481 317.786C143.063 314.696 153.377 319.982 156.47 329.573C159.563 339.164 154.285 349.479 144.698 352.57ZM133.6 318.155C124.215 321.182 119.047 331.282 122.074 340.67C125.101 350.058 135.197 355.237 144.582 352.211C153.966 349.184 159.135 339.084 156.107 329.695C153.08 320.307 142.984 315.129 133.6 318.155Z" fill="#E9EEF1"/>
<path d="M141.66 345.467C135.873 347.334 129.639 344.139 127.772 338.349C125.904 332.555 129.093 326.326 134.885 324.459C140.673 322.592 146.906 325.787 148.773 331.577C150.64 337.367 147.448 343.601 141.66 345.467ZM135 324.814C129.411 326.616 126.33 332.631 128.135 338.227C129.94 343.823 135.953 346.905 141.543 345.103C147.132 343.301 150.212 337.286 148.407 331.69C146.603 326.094 140.589 323.011 135 324.814Z" fill="#E9EEF1"/>
<path d="M140.979 343.436C136.358 344.926 131.381 342.375 129.89 337.753C128.399 333.13 130.949 328.152 135.569 326.662C140.195 325.171 145.167 327.723 146.658 332.346C148.148 336.968 145.599 341.946 140.979 343.436ZM135.685 327.022C131.263 328.448 128.823 333.213 130.25 337.637C131.676 342.061 136.435 344.504 140.862 343.076C145.285 341.65 147.725 336.886 146.298 332.462C144.871 328.037 140.108 325.596 135.685 327.022Z" fill="#E9EEF1"/>
<path d="M211.084 308.972C208.308 309.867 205.319 308.335 204.423 305.558C203.528 302.781 205.058 299.792 207.835 298.896C210.611 298.001 213.599 299.533 214.495 302.31C215.391 305.087 213.86 308.077 211.084 308.972ZM207.949 299.252C205.371 300.083 203.95 302.859 204.782 305.437C205.613 308.016 208.388 309.439 210.966 308.607C213.544 307.776 214.965 305 214.134 302.422C213.302 299.843 210.527 298.42 207.949 299.252Z" fill="#E9EEF1"/>
<path d="M212.053 311.078C209.503 311.901 206.747 311.313 205.034 309.583L206.067 308.557C207.398 309.906 209.573 310.35 211.611 309.693C213.954 308.938 215.261 306.993 215.015 304.618L216.458 304.468C216.77 307.52 215.041 310.115 212.053 311.078Z" fill="#E9EEF1"/>
<path d="M170.126 331.067C166.508 330.222 162.707 329.074 159.029 327.963C148.256 324.71 138.077 321.641 132.383 325.647C131.089 326.558 128.784 327.984 126.12 329.637C120.439 333.16 112.663 337.985 110.383 340.544C106.995 344.341 103.63 345.731 100.376 344.672C91.9731 341.932 84.355 323.187 77.7283 288.949C72.8032 263.494 70.2978 238.516 70.2741 238.269L70.6545 238.233C70.7521 239.23 80.751 337.871 100.498 344.307C103.592 345.316 106.822 343.963 110.102 340.288C112.421 337.691 119.909 333.046 125.924 329.313C128.584 327.661 130.884 326.237 132.17 325.333C138.018 321.222 148.283 324.319 159.146 327.6C162.818 328.708 166.613 329.852 170.215 330.697L170.126 331.067Z" fill="url(#paint0_linear_6799_111588)"/>
<path d="M247.812 297.123C241.5 297.615 234.303 297.7 227.958 297.775C217.941 297.893 209.297 297.992 206.535 299.529C203.72 301.094 201.484 306.19 199.25 311.718L198.899 311.577C201.157 305.98 203.424 300.823 206.351 299.196C209.197 297.617 217.89 297.513 227.957 297.393C234.297 297.32 241.483 297.233 247.786 296.744L247.812 297.123Z" fill="url(#paint1_linear_6799_111588)"/>
<path d="M349.035 282.164L349.002 282.174L273.188 306.541L273.157 306.54L250.697 305.772L238.263 267.214L238.288 267.15L240.436 261.782L351.293 226.033L355.186 229.01L367.766 268.02L349.035 282.164ZM273.136 306.16L348.859 281.823L367.324 267.883L354.864 229.242L351.222 226.459L240.72 262.093L238.666 267.232L250.975 305.402L273.136 306.16Z" fill="#E9EEF1"/>
<path d="M316.459 288.915L316.418 288.928L274.409 301.869L254.469 300.089C252.367 299.901 250.591 298.482 249.943 296.476L240.889 268.399C240.105 265.968 241.442 263.357 243.873 262.573L319.013 238.342C320.936 237.722 323.004 238.782 323.624 240.706L332.909 269.497C333.596 271.629 332.968 273.975 331.308 275.473L316.459 288.915ZM274.367 301.485L316.265 288.58L331.056 275.198C332.605 273.797 333.192 271.606 332.551 269.618L323.266 240.826C322.71 239.101 320.856 238.151 319.131 238.707L243.99 262.938C241.763 263.656 240.535 266.053 241.254 268.282L250.308 296.358C250.909 298.222 252.556 299.54 254.505 299.711L274.367 301.485Z" fill="#E9EEF1"/>
<path d="M315.556 286.114L315.515 286.128L273.506 299.068L253.566 297.289C251.464 297.101 249.688 295.682 249.041 293.675L240.89 268.399L241.254 268.282L249.405 293.558C250.006 295.421 251.653 296.739 253.602 296.91L273.467 298.678L315.365 285.774L330.157 272.391C331.706 270.99 332.292 268.8 331.651 266.811L323.27 240.82L323.634 240.703L332.015 266.694C332.703 268.825 332.075 271.172 330.414 272.67L315.556 286.114Z" fill="#E9EEF1"/>
<path d="M313.247 278.95L313.205 278.963L271.197 291.904L251.256 290.124C249.154 289.936 247.378 288.518 246.731 286.511L240.89 268.399L241.255 268.282L247.095 286.393C247.696 288.257 249.343 289.575 251.292 289.746L271.158 291.514L313.055 278.609L327.847 265.227C329.396 263.826 329.983 261.635 329.341 259.647L323.272 240.825L323.636 240.707L329.706 259.529C330.393 261.661 329.765 264.008 328.106 265.51L313.247 278.95Z" fill="#E9EEF1"/>
<path d="M320.243 244.95L244.844 269.264L245.29 270.648L320.689 246.334L320.243 244.95Z" fill="url(#paint2_linear_6799_111588)"/>
<path d="M325.869 248.284L243.197 274.943L243.315 275.308L325.986 248.648L325.869 248.284Z" fill="#E9EEF1"/>
<path d="M196.914 305.575L165.32 315.763L165.438 316.128L197.032 305.94L196.914 305.575Z" fill="#E9EEF1"/>
<path d="M207.758 339.201L176.164 349.39L176.282 349.754L207.875 339.566L207.758 339.201Z" fill="#E9EEF1"/>
<path d="M197.159 305.696L196.795 305.813L207.671 339.541L208.036 339.423L197.159 305.696Z" fill="#E9EEF1"/>
<path d="M165.376 316.006L165.012 316.123L175.949 350.04L176.313 349.923L165.376 316.006Z" fill="#E9EEF1"/>
<path d="M202.415 317.685L202.051 317.803L208.522 337.871L208.886 337.753L202.415 317.685Z" fill="#E9EEF1"/>
<path d="M168.841 330.121L168.477 330.239L174.948 350.306L175.312 350.189L168.841 330.121Z" fill="#E9EEF1"/>
<path d="M266.706 228.493L262.04 229.998L259.107 220.905L263.774 219.4L266.706 228.493ZM262.286 229.516L266.229 228.244L263.531 219.876L259.588 221.147L262.286 229.516Z" fill="#E9EEF1"/>
<path d="M261.923 229.021L260.821 229.376L257.891 220.288L263.48 218.486L266.353 227.394L265.988 227.511L263.232 218.963L258.371 220.53L261.07 228.899L261.807 228.661L261.923 229.021Z" fill="#E9EEF1"/>
<path d="M283.554 222.897L278.887 224.402L275.955 215.309L280.622 213.804L283.554 222.897ZM279.134 223.92L283.077 222.648L280.38 214.285L276.437 215.556L279.134 223.92Z" fill="#E9EEF1"/>
<path d="M278.776 223.424L277.669 223.781L274.738 214.692L280.327 212.89L283.2 221.798L282.84 221.914L280.084 213.366L275.219 214.935L277.917 223.303L278.66 223.064L278.776 223.424Z" fill="#E9EEF1"/>
<path d="M300.373 217.519L295.706 219.024L292.773 209.931L297.44 208.426L300.373 217.519ZM295.954 218.547L299.897 217.275L297.198 208.907L293.255 210.178L295.954 218.547Z" fill="#E9EEF1"/>
<path d="M295.595 218.051L294.493 218.406L291.561 209.313L297.145 207.513L300.018 216.421L299.658 216.537L296.903 207.993L292.038 209.562L294.735 217.926L295.477 217.686L295.595 218.051Z" fill="#E9EEF1"/>
<path d="M276.267 208.887C275.331 209.189 274.329 208.672 274.028 207.74C273.728 206.808 274.243 205.802 275.175 205.501C276.106 205.201 277.113 205.717 277.413 206.648C277.714 207.58 277.198 208.587 276.267 208.887ZM275.291 205.861C274.558 206.097 274.152 206.89 274.388 207.624C274.625 208.357 275.418 208.764 276.151 208.527C276.884 208.291 277.29 207.498 277.054 206.764C276.817 206.031 276.024 205.624 275.291 205.861Z" fill="#E9EEF1"/>
<path d="M263.68 212.906L253.23 216.275L253.348 216.64L263.798 213.27L263.68 212.906Z" fill="#E9EEF1"/>
<path d="M281.542 209.865L271.525 213.095L271.643 213.46L281.659 210.23L281.542 209.865Z" fill="#E9EEF1"/>
<path d="M294.274 202.683L290.059 204.042L290.176 204.406L294.391 203.047L294.274 202.683Z" fill="#E9EEF1"/>
<path d="M295.09 205.215L290.875 206.575L290.993 206.939L295.207 205.58L295.09 205.215Z" fill="#E9EEF1"/>
<path d="M311.863 197.648L307.648 199.007L307.766 199.372L311.981 198.013L311.863 197.648Z" fill="#E9EEF1"/>
<path d="M262.914 215.771L257.689 217.456L257.807 217.82L263.032 216.135L262.914 215.771Z" fill="#E9EEF1"/>
<path d="M276.136 184.245C270.777 185.973 265.009 183.02 263.279 177.655C261.548 172.29 264.501 166.525 269.864 164.795C275.227 163.066 280.991 166.02 282.721 171.385C284.451 176.751 281.494 182.517 276.136 184.245ZM269.981 165.16C264.821 166.824 261.978 172.375 263.643 177.537C265.308 182.7 270.858 185.545 276.018 183.881C281.179 182.216 284.021 176.665 282.357 171.503C280.692 166.341 275.142 163.496 269.981 165.16Z" fill="#E9EEF1"/>
<path d="M262.783 172.669L256.573 171.346L256.623 171.105L262.833 172.429L262.783 172.669Z" fill="#E9EEF1"/>
<path d="M258.811 165.849L258.684 166.055L264.08 169.399L264.208 169.193L258.811 165.849Z" fill="#E9EEF1"/>
<path d="M262.576 161.609L262.387 161.76L266.349 166.721L266.539 166.569L262.576 161.609Z" fill="#E9EEF1"/>
<path d="M267.592 158.912L267.363 158.991L269.433 164.994L269.662 164.915L267.592 158.912Z" fill="#E9EEF1"/>
<path d="M272.968 158.046L272.895 164.396L273.137 164.398L273.21 158.049L272.968 158.046Z" fill="#E9EEF1"/>
<path d="M278.561 159.044L276.359 164.999L276.587 165.083L278.788 159.128L278.561 159.044Z" fill="#E9EEF1"/>
<path d="M283.507 161.867L279.428 166.731L279.613 166.887L283.692 162.023L283.507 161.867Z" fill="#E9EEF1"/>
<path d="M287.186 166.166L281.717 169.388L281.84 169.597L287.309 166.374L287.186 166.166Z" fill="#E9EEF1"/>
<path d="M289.297 171.714L283.061 172.899L283.016 172.664L289.25 171.474L289.297 171.714Z" fill="#E9EEF1"/>
<path d="M283.096 176.175L283.059 176.414L289.332 177.386L289.369 177.147L283.096 176.175Z" fill="#E9EEF1"/>
<path d="M282.014 179.52L281.898 179.733L287.478 182.762L287.594 182.549L282.014 179.52Z" fill="#E9EEF1"/>
<path d="M279.868 182.322L279.688 182.484L283.925 187.212L284.106 187.05L279.868 182.322Z" fill="#E9EEF1"/>
<path d="M271.882 191.346L271.637 191.328L272.074 184.994L272.319 185.012L271.882 191.346Z" fill="#E9EEF1"/>
<path d="M268.662 184.124L266.125 189.944L266.347 190.041L268.884 184.221L268.662 184.124Z" fill="#E9EEF1"/>
<path d="M261.59 186.943L261.414 186.776L265.758 182.152L265.938 182.318L261.59 186.943Z" fill="#E9EEF1"/>
<path d="M258.132 182.441L258.02 182.222L263.663 179.323L263.773 179.537L258.132 182.441Z" fill="#E9EEF1"/>
<path d="M256.375 176.785L256.406 177.025L262.699 176.198L262.668 175.958L256.375 176.785Z" fill="#E9EEF1"/>
<path d="M275.502 182.697C270.969 184.158 266.096 181.661 264.633 177.126C263.171 172.591 265.667 167.717 270.2 166.255C274.733 164.793 279.607 167.291 281.069 171.826C282.531 176.36 280.031 181.236 275.502 182.697ZM270.316 166.615C265.986 168.011 263.599 172.672 264.996 177.004C266.393 181.335 271.053 183.724 275.383 182.327C279.713 180.931 282.105 176.269 280.708 171.937C279.311 167.605 274.647 165.218 270.316 166.615Z" fill="url(#paint3_linear_6799_111588)"/>
<path d="M269.59 195.354C269.426 196.095 269.001 196.654 268.284 196.499C267.567 196.343 267.413 195.659 267.575 194.914C267.738 194.174 268.165 193.619 268.877 193.776C269.595 193.932 269.752 194.609 269.59 195.354ZM268.816 194.076C268.318 193.967 268.056 194.433 267.934 194.987C267.814 195.545 267.854 196.082 268.353 196.191C268.851 196.3 269.113 195.834 269.238 195.274C269.354 194.717 269.315 194.185 268.816 194.076Z" fill="#E9EEF1"/>
<path d="M260.102 191.773L259.915 191.997C259.521 191.691 259.358 191.739 259.123 191.957L258.914 191.785L260.617 189.723L260.888 189.946L259.588 191.522C259.746 191.506 259.915 191.62 260.102 191.773Z" fill="#E9EEF1"/>
<path d="M253.974 181.959C253.536 181.581 253.372 181.389 253.005 181.513C252.794 181.586 252.563 181.752 252.694 182.143C252.843 182.589 253.183 182.601 253.532 182.484L253.648 182.828C253.125 183.007 252.61 182.862 252.397 182.233C252.253 181.801 252.397 181.332 252.883 181.165C253.373 180.997 253.745 181.315 254.081 181.614C254.344 181.845 254.593 182.065 254.882 182.043L254.891 182.04L254.427 180.682L254.721 180.582L255.318 182.34C254.865 182.497 254.404 182.33 253.974 181.959Z" fill="#E9EEF1"/>
<path d="M253.212 173.032L253.274 172.67C253.656 172.736 253.944 172.617 254.029 172.121C254.107 171.669 253.946 171.486 253.643 171.431C253.244 171.361 253.108 171.634 253.064 171.893L253.017 172.173L252.709 172.119L252.755 171.85C252.8 171.58 252.706 171.366 252.403 171.311C252.187 171.274 251.958 171.368 251.896 171.729C251.809 172.247 252.069 172.392 252.332 172.434L252.271 172.795C251.786 172.712 251.48 172.332 251.59 171.68C251.668 171.227 251.998 170.877 252.466 170.955C252.746 171.002 252.898 171.172 252.959 171.458L252.965 171.461C253.137 171.125 253.397 171.016 253.705 171.07C254.211 171.156 254.438 171.577 254.341 172.143C254.224 172.822 253.806 173.136 253.212 173.032Z" fill="#E9EEF1"/>
<path d="M258.261 162.431L257.422 163.414L257.185 163.216L256.703 161.105L256.928 160.839L258.25 161.971L258.49 161.689L258.728 161.888L258.487 162.169L258.965 162.576L258.74 162.842L258.261 162.431ZM258.024 162.232L257.068 161.415L257.418 162.942L258.024 162.232Z" fill="#E9EEF1"/>
<path d="M265.713 157.022L266.058 156.906C266.17 157.145 266.386 157.34 266.781 157.207C267.13 157.09 267.289 156.794 267.148 156.386C267.019 156.005 266.746 155.915 266.42 156.025C266.191 156.104 266.016 156.242 265.947 156.453L265.593 156.572L265.394 155.118L266.79 154.648L266.89 154.941L265.76 155.321L265.872 156.141L265.875 156.15C265.956 155.961 266.116 155.808 266.396 155.712C266.874 155.553 267.332 155.807 267.489 156.276C267.675 156.822 267.4 157.329 266.887 157.504C266.317 157.693 265.864 157.427 265.713 157.022Z" fill="#E9EEF1"/>
<path d="M275.397 155.244C275.543 154.402 275.988 153.933 276.64 154.044C277.131 154.13 277.378 154.519 277.347 154.911L276.986 154.849C276.997 154.585 276.877 154.4 276.586 154.351C276.047 154.26 275.836 154.756 275.75 155.247L275.745 155.28L275.751 155.283C275.932 155.056 276.215 154.97 276.517 155.02C277.023 155.107 277.313 155.517 277.222 156.041C277.141 156.53 276.721 156.885 276.15 156.789C275.428 156.665 275.251 156.086 275.397 155.244ZM276.201 156.487C276.562 156.549 276.795 156.357 276.855 156.006C276.921 155.628 276.745 155.38 276.428 155.329C276.045 155.264 275.763 155.462 275.704 155.817C275.651 156.155 275.823 156.421 276.201 156.487Z" fill="#E9EEF1"/>
<path d="M287.043 159.469L287.046 159.463L285.926 158.515L286.124 158.278L287.539 159.477L287.362 159.687C286.567 159.683 285.527 160.151 284.966 160.811L284.684 160.571C285.273 159.887 286.407 159.486 287.043 159.469Z" fill="#E9EEF1"/>
<path d="M290.807 167.198C291.155 167.061 291.409 167.218 291.609 167.413L291.619 167.41C291.642 167.199 291.738 166.974 292.018 166.864C292.447 166.695 292.831 166.922 293.021 167.401C293.209 167.875 293.089 168.306 292.661 168.48C292.381 168.59 292.157 168.495 291.996 168.358L291.986 168.361C291.973 168.635 291.895 168.93 291.552 169.066C291.051 169.264 290.643 168.962 290.43 168.43C290.218 167.897 290.307 167.4 290.807 167.198ZM290.719 168.316C290.865 168.687 291.119 168.845 291.427 168.725C291.73 168.607 291.804 168.318 291.658 167.942C291.513 167.572 291.254 167.416 290.955 167.532C290.645 167.658 290.57 167.947 290.719 168.316ZM291.947 167.829C292.061 168.118 292.246 168.252 292.526 168.141C292.797 168.033 292.845 167.804 292.732 167.515C292.618 167.225 292.423 167.095 292.152 167.202C291.874 167.318 291.833 167.539 291.947 167.829Z" fill="#E9EEF1"/>
<path d="M292.37 177.675L292.309 178.036C292.047 178.029 291.86 178.145 291.813 178.441C291.722 178.979 292.222 179.19 292.712 179.271L292.744 179.276L292.747 179.27C292.516 179.09 292.43 178.807 292.48 178.506C292.562 178.001 292.971 177.706 293.494 177.797C293.983 177.878 294.341 178.293 294.247 178.868C294.123 179.59 293.545 179.772 292.705 179.63C291.865 179.488 291.392 179.045 291.502 178.393C291.591 177.896 291.98 177.648 292.37 177.675ZM292.791 178.584C292.726 178.966 292.928 179.247 293.283 179.306C293.623 179.365 293.888 179.193 293.953 178.81C294.013 178.444 293.822 178.215 293.467 178.157C293.091 178.095 292.843 178.272 292.791 178.584Z" fill="#E9EEF1"/>
<path d="M289.464 187.057C290.063 187.525 290.377 188.152 289.927 188.73C289.477 189.308 288.789 189.148 288.19 188.679C287.591 188.211 287.281 187.582 287.733 187.009C288.183 186.431 288.865 186.588 289.464 187.057ZM287.978 187.2C287.66 187.603 287.97 188.043 288.418 188.392C288.868 188.746 289.369 188.941 289.687 188.538C290.005 188.135 289.695 187.695 289.245 187.341C288.795 186.987 288.29 186.794 287.978 187.2Z" fill="#E9EEF1"/>
<path d="M260.66 151.414L260.992 151.307L261.748 153.651L263.131 153.204L263.227 153.5L261.511 154.053L260.66 151.414Z" fill="#E9EEF1"/>
<path d="M262.703 150.756L263.035 150.649L263.886 153.288L263.554 153.395L262.703 150.756Z" fill="#E9EEF1"/>
<path d="M263.584 150.471L263.99 150.34L266.002 152.08L266.011 152.077L265.313 149.913L265.645 149.806L266.496 152.445L266.09 152.576L264.078 150.836L264.069 150.839L264.767 153.002L264.435 153.11L263.584 150.471Z" fill="#E9EEF1"/>
<path d="M266.191 149.631L268.018 149.042L268.113 149.337L266.619 149.819L266.886 150.649L268.201 150.226L268.296 150.521L266.982 150.945L267.279 151.867L268.815 151.372L268.91 151.667L267.042 152.27L266.191 149.631Z" fill="#E9EEF1"/>
<path d="M249.424 164.159C248.437 164.477 247.376 163.933 247.058 162.946C246.739 161.959 247.283 160.897 248.27 160.579C249.257 160.261 250.318 160.805 250.636 161.792C250.955 162.779 250.406 163.842 249.424 164.159ZM248.387 160.944C247.603 161.197 247.169 162.044 247.422 162.829C247.675 163.613 248.523 164.048 249.307 163.795C250.091 163.542 250.525 162.694 250.272 161.91C250.019 161.125 249.171 160.691 248.387 160.944Z" fill="#E9EEF1"/>
<path d="M249.042 162.953C248.719 163.057 248.376 162.878 248.273 162.559C248.171 162.241 248.349 161.893 248.667 161.791C248.985 161.688 249.333 161.866 249.435 162.185C249.538 162.503 249.365 162.849 249.042 162.953ZM248.782 162.146C248.662 162.185 248.591 162.314 248.632 162.439C248.672 162.563 248.8 162.629 248.924 162.589C249.049 162.549 249.114 162.42 249.074 162.296C249.034 162.171 248.901 162.107 248.782 162.146Z" fill="#E9EEF1"/>
<path d="M253.687 160.61L245.645 163.203L245.762 163.568L253.805 160.974L253.687 160.61Z" fill="#E9EEF1"/>
<path d="M254.354 161.107C254.032 161.211 253.689 161.031 253.586 160.713C253.483 160.395 253.661 160.047 253.979 159.944C254.302 159.84 254.645 160.02 254.748 160.338C254.851 160.657 254.677 161.003 254.354 161.107ZM254.096 160.304C253.976 160.343 253.905 160.473 253.946 160.597C253.986 160.722 254.114 160.787 254.238 160.747C254.363 160.707 254.428 160.579 254.388 160.454C254.348 160.33 254.215 160.266 254.096 160.304Z" fill="#E9EEF1"/>
<path d="M433.216 224.062C381.414 240.767 325.678 212.195 308.969 160.379C292.259 108.562 320.803 52.8078 372.604 36.1031C424.406 19.3985 480.142 47.9701 496.851 99.7865C513.561 151.603 485.013 207.359 433.216 224.062ZM373.05 37.4871C322.014 53.9449 293.887 108.873 310.351 159.928C326.815 210.983 381.732 239.131 432.768 222.674C483.804 206.216 511.932 151.288 495.468 100.233C479.004 49.1774 424.086 21.0293 373.05 37.4871Z" fill="#E9EEF1"/>
<path d="M365.842 191.736C365.653 191.797 365.462 191.853 365.265 191.907C362.256 192.694 359.245 192.04 357.006 190.119C342.269 177.478 319.177 150.343 330.094 110.627C330.928 107.592 333.738 104.843 337.42 103.457C340.774 102.192 344.124 102.334 346.391 103.823L369.036 118.757L368.828 119.074L346.183 104.14C344.018 102.714 340.79 102.589 337.554 103.811C333.981 105.156 331.263 107.81 330.458 110.728C319.598 150.243 342.583 177.25 357.25 189.831C359.391 191.672 362.28 192.294 365.168 191.541C368.44 190.684 371.096 188.249 372.28 185.02C373.451 181.831 374.893 178.173 376.419 174.299C378.304 169.52 380.249 164.579 381.887 160.012L382.244 160.141C380.608 164.713 378.658 169.655 376.774 174.439C375.247 178.308 373.81 181.965 372.642 185.148C371.485 188.302 368.968 190.728 365.842 191.736Z" fill="#E9EEF1"/>
<path d="M432.976 221.486C382.521 237.757 328.227 209.932 311.949 159.454C295.673 108.98 323.477 54.6754 373.937 38.4035C424.392 22.1331 478.686 49.9577 494.964 100.436C511.24 150.91 483.431 205.216 432.976 221.486ZM374.054 38.7679C323.798 54.9744 296.101 109.06 312.314 159.336C328.526 209.612 382.602 237.328 432.859 221.122C483.115 204.915 510.812 150.829 494.599 100.554C478.387 50.2781 424.311 22.5614 374.054 38.7679Z" fill="#E9EEF1"/>
<path d="M170.825 308.243C119.024 324.948 63.2876 296.376 46.5782 244.56C29.8687 192.744 58.4119 136.989 110.213 120.284C162.01 103.581 217.751 132.151 234.461 183.968C251.17 235.784 222.622 291.54 170.825 308.243ZM110.66 121.668C59.6191 138.128 31.4916 193.055 47.9555 244.111C64.4195 295.166 119.337 323.314 170.373 306.856C221.409 290.398 249.537 235.471 233.073 184.415C216.609 133.36 161.696 105.21 110.66 121.668Z" fill="#E9EEF1"/>
<path d="M152.086 250.13C133.331 256.178 113.155 245.836 107.104 227.074C101.054 208.312 111.388 188.132 130.143 182.084C148.898 176.036 169.074 186.377 175.125 205.139C181.17 223.903 170.837 244.083 152.086 250.13ZM130.591 183.472C112.601 189.274 102.686 208.636 108.489 226.633C114.293 244.629 133.652 254.552 151.641 248.75C169.631 242.949 179.546 223.587 173.743 205.59C167.933 187.591 148.58 177.671 130.591 183.472Z" fill="#E9EEF1"/>
<path d="M162.457 286.409C159.648 287.314 156.621 286.753 154.148 284.861C151.364 282.733 149.796 279.338 149.956 275.777C150.057 273.549 150.168 270.988 150.286 268.26C150.547 262.217 150.848 255.367 151.143 249.445L151.521 249.466C151.226 255.388 150.93 262.236 150.664 268.281C150.548 271.013 150.437 273.575 150.336 275.802C150.181 279.239 151.691 282.516 154.379 284.567C156.75 286.38 159.654 286.921 162.337 286.055C179.76 280.437 209.783 264.873 215.091 223.772C215.515 220.492 214.408 217.249 212.13 215.095C210.247 213.314 207.869 212.584 205.434 213.038L175.77 217.938L175.709 217.561L205.369 212.662C207.923 212.184 210.42 212.948 212.392 214.817C214.758 217.054 215.904 220.418 215.468 223.818C210.138 265.12 179.967 280.762 162.457 286.409Z" fill="#E9EEF1"/>
<path d="M103.651 274.36C103.462 274.421 103.272 274.477 103.075 274.531C100.065 275.318 97.0546 274.664 94.816 272.743C84.9194 264.251 77.4477 254.595 72.6035 244.041C65.5502 228.673 64.4343 211.951 69.2758 194.331C70.1335 191.213 72.5306 188.637 75.6958 187.448C78.5226 186.379 81.4578 186.624 83.7327 188.121L107.608 203.712L107.399 204.029L83.5243 188.438C81.353 187.009 78.5402 186.78 75.8302 187.802C72.7804 188.954 70.4685 191.431 69.6441 194.431C64.825 211.962 65.9386 228.599 72.9529 243.877C77.7715 254.383 85.2131 263.993 95.0671 272.448C97.2084 274.289 100.097 274.91 102.985 274.157C106.254 273.307 108.915 270.87 110.097 267.637L111.067 264.991C113.481 258.412 116.218 250.954 118.772 243.826L119.129 243.955C116.576 251.083 113.839 258.541 111.424 265.121L110.455 267.766C109.295 270.926 106.778 273.352 103.651 274.36Z" fill="#E9EEF1"/>
<path d="M163.692 189.437L163.508 189.104L194.269 171.912C196.521 170.64 197.998 168.336 198.311 165.597C198.666 162.513 197.504 159.414 195.207 157.298C181.826 144.994 166.563 138.365 149.85 137.608C138.374 137.086 126.467 139.301 114.452 144.194C111.757 145.293 109.842 147.565 109.2 150.436C108.508 153.532 109.444 156.846 111.704 159.305C117.325 165.417 125.535 174.316 132.718 182.017L132.439 182.275C125.257 174.573 117.047 165.675 111.425 159.563C109.081 157.014 108.108 153.569 108.827 150.353C109.496 147.361 111.491 144.991 114.304 143.845C126.368 138.931 138.332 136.702 149.859 137.228C166.667 137.991 182.006 144.651 195.455 157.024C197.844 159.223 199.051 162.445 198.678 165.646C198.349 168.508 196.808 170.915 194.443 172.248L163.692 189.437Z" fill="#E9EEF1"/>
<path d="M164.07 286.948C162.894 287.327 161.797 287.65 160.801 287.926C158.154 288.652 155.256 287.921 152.852 285.915C149.899 283.45 148.272 279.636 148.597 275.956C148.927 272.228 149.254 267.763 149.573 263.448C149.935 258.57 150.307 253.52 150.682 249.487L151.06 249.523C150.68 253.557 150.311 258.601 149.95 263.48C149.631 267.794 149.304 272.259 148.97 275.993C148.656 279.548 150.233 283.241 153.09 285.625C155.396 287.55 158.168 288.255 160.694 287.563C174.765 283.693 208.276 270.055 215.711 227.183C216.242 224.139 215.278 221.007 213.142 218.803C211.242 216.844 208.696 215.928 206.16 216.287L176.073 220.744L176.018 220.369L206.105 215.913C208.768 215.533 211.434 216.492 213.418 218.541C215.638 220.83 216.638 224.088 216.089 227.249C209.146 267.289 179.56 281.953 164.07 286.948Z" fill="#E9EEF1"/>
<path d="M162.258 188.707L162.07 188.375C169.535 184.15 184.98 175.35 191.065 171.864C194.382 169.964 196.625 166.705 196.915 163.357C197.131 160.853 196.201 158.601 194.293 157.011C182.953 147.579 152.347 127.614 113.157 145.9C110.174 147.289 108.066 149.813 107.514 152.649C107.061 154.986 107.727 157.256 109.387 159.043L131.336 182.457L131.057 182.715L109.106 159.307C107.36 157.43 106.662 155.043 107.136 152.583C107.71 149.627 109.899 147.006 112.992 145.561C152.372 127.183 183.136 147.245 194.531 156.721C196.536 158.391 197.518 160.759 197.287 163.39C196.987 166.863 194.674 170.237 191.248 172.197C185.168 175.681 169.719 184.483 162.258 188.707Z" fill="#E9EEF1"/>
<path d="M103.453 275.917C103.264 275.978 103.073 276.035 102.876 276.088C99.8668 276.875 96.8559 276.221 94.6173 274.3C79.8804 261.66 56.7884 234.525 67.7054 194.808C68.5393 191.774 71.3488 189.024 75.0353 187.637C78.3728 186.382 81.7382 186.509 84.0069 188.003L108.331 203.409L108.129 203.729L83.8031 188.318C81.6318 186.89 78.4104 186.767 75.1698 187.991C71.5971 189.336 68.8775 191.986 68.0737 194.908C57.2138 234.423 80.1983 261.43 94.8653 274.011C97.0066 275.852 99.8952 276.474 102.783 275.721C106.056 274.864 108.712 272.429 109.896 269.2C111.067 266.011 112.504 262.354 114.031 258.485C115.916 253.706 117.866 248.764 119.499 244.198L119.857 244.327C118.22 248.899 116.272 253.846 114.382 258.627C112.86 262.494 111.416 266.148 110.248 269.331C109.096 272.483 106.579 274.909 103.453 275.917Z" fill="#E9EEF1"/>
<path d="M87.3373 188.59L86.991 188.431C92.2693 176.808 99.8001 168.68 111.407 162.08L111.596 162.412C100.062 168.973 92.5796 177.044 87.3373 188.59Z" fill="url(#paint4_linear_6799_111588)"/>
<path d="M148.553 276.82C136.03 277.991 123.388 275.101 111.993 268.467L112.183 268.141C123.505 274.737 136.069 277.607 148.514 276.446L148.553 276.82Z" fill="url(#paint5_linear_6799_111588)"/>
<path d="M206.016 212.825L205.634 212.841C205.422 207.18 204.43 201.546 202.675 196.102C200.075 188.023 195.941 180.713 190.386 174.366L190.672 174.116C196.258 180.499 200.423 187.855 203.039 195.985C204.805 201.461 205.807 207.127 206.016 212.825Z" fill="#E9EEF1"/>
<path d="M90.3967 190.041L90.0535 189.877C95.1808 179.285 104.133 169.614 113.408 164.637L113.587 164.972C104.376 169.908 95.4896 179.517 90.3967 190.041Z" fill="url(#paint6_linear_6799_111588)"/>
<path d="M147.231 274.206C135.426 275.314 122.505 272.157 112.658 265.762L112.865 265.441C122.642 271.792 135.474 274.926 147.195 273.826L147.231 274.206Z" fill="url(#paint7_linear_6799_111588)"/>
<path d="M202.486 211.397L202.106 211.402C202.023 206.377 201.209 201.373 199.688 196.531C197.533 189.688 194.082 183.488 189.433 178.101L189.719 177.851C194.401 183.278 197.88 189.52 200.052 196.413C201.585 201.292 202.407 206.334 202.486 211.397Z" fill="url(#paint8_linear_6799_111588)"/>
<path d="M92.0474 190.804L91.7043 190.64C96.8503 180.011 105.228 170.816 114.113 166.051L114.292 166.386C105.478 171.118 97.1592 180.243 92.0474 190.804Z" fill="url(#paint9_linear_6799_111588)"/>
<path d="M147.074 272.806C135.724 273.874 123.554 270.805 113.682 264.394L113.889 264.072C123.691 270.44 135.776 273.485 147.042 272.424L147.074 272.806Z" fill="url(#paint10_linear_6799_111588)"/>
<path d="M200.821 211.954L200.441 211.959C200.363 207.044 199.568 202.146 198.072 197.414C195.964 190.719 192.587 184.652 188.036 179.381L188.322 179.131C192.906 184.442 196.307 190.552 198.432 197.298C199.941 202.072 200.742 207.003 200.821 211.954Z" fill="url(#paint11_linear_6799_111588)"/>
<path d="M169.552 159.326C159.732 154.293 148.739 152.536 137.772 154.239L137.712 153.862C148.761 152.147 159.831 153.92 169.722 158.986L169.552 159.326Z" fill="#E9EEF1"/>
<path d="M99.1811 248.778C91.6218 239.782 87.2629 228.317 86.9147 216.502L87.2933 216.492C87.6393 228.221 91.9667 239.604 99.47 248.537L99.1811 248.778Z" fill="#E9EEF1"/>
<path d="M181.595 258.592L181.373 258.281C185.459 255.354 189.111 251.839 192.222 247.831C196.621 242.164 199.755 235.796 201.535 228.907L201.902 229.002C200.108 235.942 196.953 242.358 192.522 248.065C189.39 252.105 185.71 255.645 181.595 258.592Z" fill="#E9EEF1"/>
<path d="M170.586 305.667C120.131 321.938 65.8368 294.113 49.5588 243.635C33.2822 193.161 61.0865 138.857 111.546 122.585C162.001 106.314 216.295 134.139 232.573 184.617C248.851 235.096 221.041 289.397 170.586 305.667ZM111.664 122.949C61.4069 139.156 33.7105 193.242 49.9231 243.517C66.1356 293.793 120.211 321.509 170.468 305.303C220.725 289.097 248.421 235.01 232.209 184.735C215.996 134.459 161.92 106.743 111.664 122.949Z" fill="#E9EEF1"/>
<path d="M162.729 281.594C125.684 293.54 85.8258 273.111 73.8754 236.052C61.925 198.994 82.3396 159.127 119.384 147.182C156.429 135.236 196.287 155.665 208.238 192.724C220.188 229.782 199.773 269.648 162.729 281.594ZM119.832 148.57C83.5529 160.269 63.5569 199.318 75.2604 235.61C86.9638 271.903 126.005 291.914 162.284 280.215C198.563 268.516 218.559 229.467 206.856 193.174C195.151 156.877 156.111 136.871 119.832 148.57Z" fill="#E9EEF1"/>
<path d="M113.177 400.344L112.209 401.429L133.265 420.238L134.234 419.153L113.177 400.344Z" fill="url(#paint12_linear_6799_111588)"/>
<path d="M113.369 404.445L113.21 404.268C117.832 400.083 123.737 396.717 130.298 394.535C130.446 394.487 130.598 394.438 130.746 394.391C137.165 392.321 143.743 391.534 149.809 392.109L149.785 392.351C143.614 391.764 136.9 392.605 130.374 394.77C123.844 396.937 117.964 400.285 113.369 404.445Z" fill="#E9EEF1"/>
<path d="M108.991 399.551L108.82 399.724L113.284 404.144L113.454 403.971L108.991 399.551Z" fill="#E9EEF1"/>
<path d="M116.927 400.944L113.139 395.937L113.335 395.787L117.12 400.8L116.927 400.944Z" fill="#E9EEF1"/>
<path d="M118.091 392.649L117.881 392.77L121.023 398.209L121.233 398.088L118.091 392.649Z" fill="#E9EEF1"/>
<path d="M123.154 390.121L122.932 390.218L125.453 395.971L125.675 395.874L123.154 390.121Z" fill="#E9EEF1"/>
<path d="M130.334 394.125L130.104 394.2L128.19 388.216L128.42 388.142L130.334 394.125Z" fill="#E9EEF1"/>
<path d="M133.6 386.759L134.912 392.903L135.149 392.852L133.837 386.709L133.6 386.759Z" fill="#E9EEF1"/>
<path d="M139.182 385.866L139.857 392.112L140.098 392.086L139.423 385.84L139.182 385.866Z" fill="#E9EEF1"/>
<path d="M144.829 385.551L144.814 391.832L145.057 391.833L145.071 385.551L144.829 385.551Z" fill="#E9EEF1"/>
<path d="M149.963 392.15L149.725 392.12L150.504 385.885L150.749 385.918L149.963 392.15Z" fill="#E9EEF1"/>
<path d="M150.188 392.811C146.86 392.469 143.355 392.54 139.777 393.031L139.582 391.592C143.274 391.089 146.894 391.011 150.339 391.367L150.188 392.811Z" fill="#E9EEF1"/>
<path d="M110.724 396.043L110.598 395.875L110.657 395.504C110.808 394.631 110.846 394.196 110.625 393.89C110.472 393.685 110.231 393.569 109.932 393.793C109.746 393.929 109.665 394.133 109.631 394.282L109.401 394.152C109.452 393.932 109.589 393.694 109.819 393.523C110.255 393.2 110.658 393.36 110.874 393.652C111.152 394.026 111.105 394.525 110.983 395.252L110.932 395.523L110.935 395.532L111.843 394.857L112.012 395.083L110.724 396.043Z" fill="#E9EEF1"/>
<path d="M112.95 392.871C113.434 393.581 113.439 394.15 112.981 394.465C112.577 394.743 112.036 394.551 111.562 393.869C111.083 393.173 111.121 392.58 111.542 392.291C111.98 391.992 112.493 392.209 112.95 392.871ZM111.841 393.677C112.214 394.219 112.586 394.409 112.845 394.234C113.132 394.035 113.04 393.606 112.676 393.077C112.322 392.564 111.963 392.318 111.671 392.519C111.426 392.69 111.456 393.114 111.841 393.677Z" fill="#E9EEF1"/>
<path d="M115.535 390.204L115.525 390.207L115.264 390.627L115.079 390.432L115.412 389.902L115.666 389.759L116.921 391.947L116.633 392.111L115.535 390.204Z" fill="#E9EEF1"/>
<path d="M118.569 389.597C118.966 390.355 118.908 390.919 118.412 391.181C117.978 391.412 117.469 391.159 117.074 390.425C116.68 389.676 116.784 389.098 117.237 388.86C117.711 388.611 118.197 388.887 118.569 389.597ZM117.381 390.27C117.685 390.85 118.039 391.082 118.314 390.937C118.623 390.776 118.578 390.338 118.277 389.767C117.989 389.219 117.657 388.934 117.345 389.101C117.08 389.242 117.059 389.666 117.381 390.27Z" fill="#E9EEF1"/>
<path d="M122.918 386.275L123.005 386.481L122.878 389.023L122.55 389.159L122.703 386.68L122.7 386.671L121.56 387.146L121.45 386.886L122.918 386.275Z" fill="#E9EEF1"/>
<path d="M128.017 384.778L127.102 385.067L127.203 385.712C127.256 385.685 127.305 385.664 127.392 385.636C127.577 385.576 127.775 385.558 127.952 385.603C128.175 385.648 128.394 385.807 128.488 386.113C128.635 386.585 128.373 387.051 127.851 387.215C127.588 387.299 127.341 387.292 127.207 387.254L127.209 386.978C127.325 387.007 127.548 387.017 127.766 386.952C128.07 386.854 128.271 386.575 128.171 386.251C128.071 385.942 127.792 385.787 127.311 385.937C127.173 385.982 127.071 386.03 126.987 386.067L126.778 384.866L127.929 384.505L128.017 384.778Z" fill="#E9EEF1"/>
<path d="M132.265 385.557C132.375 385.598 132.615 385.648 132.844 385.6C133.273 385.508 133.349 385.208 133.299 385.005C133.224 384.663 132.882 384.579 132.558 384.648L132.372 384.688L132.317 384.44L132.503 384.401C132.746 384.348 133.027 384.161 132.968 383.869C132.926 383.674 132.765 383.522 132.454 383.587C132.259 383.629 132.087 383.756 131.995 383.852L131.856 383.627C131.965 383.505 132.198 383.359 132.459 383.3C132.946 383.199 133.227 383.439 133.288 383.74C133.339 383.994 133.236 384.241 132.957 384.418L132.96 384.427C133.274 384.422 133.571 384.602 133.641 384.946C133.723 385.342 133.488 385.749 132.897 385.873C132.62 385.932 132.359 385.894 132.22 385.842L132.265 385.557Z" fill="#E9EEF1"/>
<path d="M137.882 382.779L137.872 382.782L137.465 383.066L137.369 382.817L137.882 382.463L138.172 382.431L138.46 384.935L138.132 384.975L137.882 382.779Z" fill="#E9EEF1"/>
<path d="M145.047 383.269C145.059 384.126 144.749 384.603 144.191 384.609C143.699 384.615 143.359 384.16 143.339 383.326C143.326 382.479 143.683 382.008 144.195 382C144.728 381.997 145.038 382.467 145.047 383.269ZM143.681 383.327C143.693 383.981 143.9 384.352 144.208 384.344C144.557 384.339 144.716 383.931 144.707 383.287C144.7 382.668 144.534 382.263 144.179 382.266C143.881 382.275 143.669 382.644 143.681 383.327Z" fill="#E9EEF1"/>
<path d="M149.513 382.522L149.502 382.52L149.048 382.723L149.003 382.457L149.573 382.202L149.865 382.225L149.679 384.74L149.349 384.714L149.513 382.522Z" fill="#E9EEF1"/>
<path d="M152.081 410.852L123.24 420.152L123.358 420.517L152.198 411.216L152.081 410.852Z" fill="#E9EEF1"/>
<path d="M106.446 395.03L104.141 395.773L104.258 396.138L106.564 395.394L106.446 395.03Z" fill="#E9EEF1"/>
<path d="M152.433 380.199L150.15 380.935L150.268 381.3L152.551 380.564L152.433 380.199Z" fill="#E9EEF1"/>
<path d="M168.402 409.271L107.082 429.045L94.0469 388.623L155.362 368.85L168.397 409.272L168.402 409.271ZM108.019 427.215L166.567 408.334L154.425 370.681L95.8766 389.561L108.019 427.215Z" fill="#E9EEF1"/>
<path d="M130.598 403.906L130.962 403.789L132.47 405.859L132.474 405.858L132.479 403.3L132.825 403.188L132.754 406.124L132.394 406.24L130.598 403.906Z" fill="#E9EEF1"/>
<path d="M133.694 404.853L133.127 403.096L133.459 402.989L134.026 404.746C134.164 405.175 134.452 405.312 134.909 405.164C135.366 405.017 135.52 404.738 135.382 404.309L134.815 402.551L135.147 402.444L135.714 404.202C135.888 404.742 135.71 405.232 135.004 405.46C134.299 405.687 133.866 405.389 133.694 404.853Z" fill="#E9EEF1"/>
<path d="M23.3388 196.245C21.7432 196.759 20.0232 195.878 19.5085 194.281C18.9937 192.685 19.8747 190.965 21.4703 190.45C23.0659 189.936 24.7859 190.817 25.3006 192.414C25.8153 194.01 24.9344 195.73 23.3388 196.245ZM21.9166 191.834C21.0819 192.104 20.6227 193 20.8919 193.835C21.1612 194.67 22.0578 195.13 22.8925 194.861C23.7272 194.592 24.1864 193.695 23.9171 192.86C23.6479 192.025 22.7513 191.565 21.9166 191.834Z" fill="#E9EEF1"/>
<path d="M102.407 441.441C100.812 441.955 99.0916 441.074 98.5768 439.478C98.0621 437.881 98.943 436.161 100.539 435.647C102.134 435.132 103.854 436.014 104.369 437.61C104.884 439.206 104.003 440.926 102.407 441.441ZM100.985 437.031C100.15 437.3 99.691 438.197 99.9603 439.032C100.23 439.867 101.126 440.326 101.961 440.057C102.796 439.788 103.255 438.891 102.985 438.056C102.716 437.221 101.82 436.761 100.985 437.031Z" fill="#E9EEF1"/>
</g>
<defs>
<linearGradient id="paint0_linear_6799_111588" x1="78.2656" y1="298.191" x2="152.059" y2="274.394" gradientUnits="userSpaceOnUse">
<stop stop-color="#EB00FF"/>
<stop offset="1" stop-color="#FF8A00"/>
</linearGradient>
<linearGradient id="paint1_linear_6799_111588" x1="197.62" y1="307.61" x2="246.235" y2="291.933" gradientUnits="userSpaceOnUse">
<stop stop-color="#EB00FF"/>
<stop offset="1" stop-color="#FF8A00"/>
</linearGradient>
<linearGradient id="paint2_linear_6799_111588" x1="245.067" y1="269.956" x2="320.466" y2="245.642" gradientUnits="userSpaceOnUse">
<stop stop-color="#EB00FF"/>
<stop offset="1" stop-color="#FF8A00"/>
</linearGradient>
<linearGradient id="paint3_linear_6799_111588" x1="264.633" y1="177.126" x2="281.069" y2="171.826" gradientUnits="userSpaceOnUse">
<stop stop-color="#EB00FF"/>
<stop offset="1" stop-color="#FF8A00"/>
</linearGradient>
<linearGradient id="paint4_linear_6799_111588" x1="84.3318" y1="180.185" x2="114.219" y2="170.547" gradientUnits="userSpaceOnUse">
<stop stop-color="#EB00FF"/>
<stop offset="1" stop-color="#FF8A00"/>
</linearGradient>
<linearGradient id="paint5_linear_6799_111588" x1="114.897" y1="277.47" x2="145.646" y2="267.554" gradientUnits="userSpaceOnUse">
<stop stop-color="#EB00FF"/>
<stop offset="1" stop-color="#FF8A00"/>
</linearGradient>
<linearGradient id="paint6_linear_6799_111588" x1="87.5073" y1="181.981" x2="116.099" y2="172.761" gradientUnits="userSpaceOnUse">
<stop stop-color="#EB00FF"/>
<stop offset="1" stop-color="#FF8A00"/>
</linearGradient>
<linearGradient id="paint7_linear_6799_111588" x1="115.483" y1="274.52" x2="144.411" y2="265.192" gradientUnits="userSpaceOnUse">
<stop stop-color="#EB00FF"/>
<stop offset="1" stop-color="#FF8A00"/>
</linearGradient>
<linearGradient id="paint8_linear_6799_111588" x1="194.887" y1="195.016" x2="199.159" y2="193.638" gradientUnits="userSpaceOnUse">
<stop stop-color="#EB00FF"/>
<stop offset="1" stop-color="#FF8A00"/>
</linearGradient>
<linearGradient id="paint9_linear_6799_111588" x1="89.2087" y1="182.901" x2="116.754" y2="174.019" gradientUnits="userSpaceOnUse">
<stop stop-color="#EB00FF"/>
<stop offset="1" stop-color="#FF8A00"/>
</linearGradient>
<linearGradient id="paint10_linear_6799_111588" x1="116.446" y1="272.965" x2="144.318" y2="263.977" gradientUnits="userSpaceOnUse">
<stop stop-color="#EB00FF"/>
<stop offset="1" stop-color="#FF8A00"/>
</linearGradient>
<linearGradient id="paint11_linear_6799_111588" x1="193.373" y1="195.929" x2="197.556" y2="194.58" gradientUnits="userSpaceOnUse">
<stop stop-color="#EB00FF"/>
<stop offset="1" stop-color="#FF8A00"/>
</linearGradient>
<linearGradient id="paint12_linear_6799_111588" x1="112.766" y1="400.904" x2="134.763" y2="420.489" gradientUnits="userSpaceOnUse">
<stop offset="0.245912" stop-color="#99FAF4"/>
<stop offset="0.506944" stop-color="#EB00FF"/>
<stop offset="1" stop-color="#FF8A00"/>
</linearGradient>
<clipPath id="clip0_6799_111588">
<rect width="507.721" height="307.992" fill="white" transform="translate(0 155.825) rotate(-17.8732)"/>
</clipPath>
</defs>
</svg>
