<svg width="36" height="36" viewBox="0 0 36 36" fill="none" xmlns="http://www.w3.org/2000/svg">
<path d="M29.1178 11.3443C27.6595 9.8827 25.9263 8.72425 24.0182 7.93574C22.11 7.14723 20.0646 6.74426 18 6.75006H17.9437C9.29109 6.77959 2.25 13.9219 2.25 22.659V25.8751C2.25 26.4718 2.48705 27.0441 2.90901 27.4661C3.33097 27.888 3.90326 28.1251 4.5 28.1251H31.5C32.0967 28.1251 32.669 27.888 33.091 27.4661C33.5129 27.0441 33.75 26.4718 33.75 25.8751V22.5001C33.7558 20.4264 33.3492 18.3722 32.554 16.4571C31.7588 14.5419 30.5907 12.804 29.1178 11.3443ZM31.5 25.8751H16.8342L24.5348 15.286C24.7105 15.0447 24.7831 14.7435 24.7367 14.4486C24.6903 14.1538 24.5287 13.8895 24.2873 13.7138C24.046 13.5381 23.7448 13.4655 23.45 13.512C23.1551 13.5584 22.8908 13.72 22.7152 13.9613L14.0512 25.8751H4.5V22.659C4.5 22.2258 4.52109 21.7983 4.56047 21.3751H7.875C8.17337 21.3751 8.45952 21.2565 8.6705 21.0456C8.88147 20.8346 9 20.5484 9 20.2501C9 19.9517 8.88147 19.6655 8.6705 19.4546C8.45952 19.2436 8.17337 19.1251 7.875 19.1251H4.95984C6.41109 13.6604 11.1473 9.52881 16.875 9.04787V12.3751C16.875 12.6734 16.9935 12.9596 17.2045 13.1706C17.4155 13.3815 17.7016 13.5001 18 13.5001C18.2984 13.5001 18.5845 13.3815 18.7955 13.1706C19.0065 12.9596 19.125 12.6734 19.125 12.3751V9.04647C21.9159 9.28134 24.565 10.3772 26.7062 12.1826C28.8475 13.9881 30.3751 16.4139 31.0781 19.1251H28.125C27.8266 19.1251 27.5405 19.2436 27.3295 19.4546C27.1185 19.6655 27 19.9517 27 20.2501C27 20.5484 27.1185 20.8346 27.3295 21.0456C27.5405 21.2565 27.8266 21.3751 28.125 21.3751H31.4536C31.4831 21.7477 31.5 22.1218 31.5 22.5001V25.8751Z" fill="#FF8A00"/>
</svg>
