<svg width="658" height="481" viewBox="0 0 658 481" fill="none" xmlns="http://www.w3.org/2000/svg">
<path d="M657.998 20.8672L-9.53674e-06 20.8672" stroke="#EB00FF" stroke-opacity="0.1"/>
<path d="M657.998 52.6006L-9.53674e-06 52.6006" stroke="#EB00FF" stroke-opacity="0.1"/>
<path d="M657.998 84.3339L-9.53674e-06 84.3339" stroke="#EB00FF" stroke-opacity="0.1"/>
<path d="M657.998 116.067L-9.53674e-06 116.067" stroke="#EB00FF" stroke-opacity="0.1"/>
<path d="M658 147.8L0.00194359 147.8" stroke="#EB00FF" stroke-opacity="0.1"/>
<path d="M657.998 179.534L-9.53674e-06 179.534" stroke="#EB00FF" stroke-opacity="0.1"/>
<path d="M657.998 211.267L-9.53674e-06 211.267" stroke="#EB00FF" stroke-opacity="0.1"/>
<path d="M657.998 243L-9.53674e-06 243" stroke="#EB00FF" stroke-opacity="0.1"/>
<path d="M657.998 274.733L-9.53674e-06 274.733" stroke="#EB00FF" stroke-opacity="0.1"/>
<path d="M657.998 306.466L-9.53674e-06 306.466" stroke="#EB00FF" stroke-opacity="0.1"/>
<path d="M657.998 338.2L-9.53674e-06 338.2" stroke="#EB00FF" stroke-opacity="0.1"/>
<path d="M657.998 369.933L-9.53674e-06 369.933" stroke="#EB00FF" stroke-opacity="0.1"/>
<path d="M657.998 401.666L-9.53674e-06 401.666" stroke="#EB00FF" stroke-opacity="0.1"/>
<path d="M657.998 433.399L-9.53674e-06 433.399" stroke="#EB00FF" stroke-opacity="0.1"/>
<path d="M657.998 465.133L-9.53674e-06 465.133" stroke="#EB00FF" stroke-opacity="0.1"/>
<path d="M636.062 480.998L636.063 4.99995" stroke="#EB00FF" stroke-opacity="0.1"/>
<path d="M592.199 480.998L592.199 4.99995" stroke="#EB00FF" stroke-opacity="0.1"/>
<path d="M548.332 480.998L548.332 4.99995" stroke="#EB00FF" stroke-opacity="0.1"/>
<path d="M504.465 480.998L504.465 4.99995" stroke="#EB00FF" stroke-opacity="0.1"/>
<path d="M460.598 481L460.598 5.00154" stroke="#EB00FF" stroke-opacity="0.1"/>
<path d="M416.732 480.998L416.732 4.99995" stroke="#EB00FF" stroke-opacity="0.1"/>
<path d="M372.865 480.998L372.865 4.99995" stroke="#EB00FF" stroke-opacity="0.1"/>
<path d="M328.998 480.998L328.998 4.99995" stroke="#EB00FF" stroke-opacity="0.1"/>
<path d="M285.131 480.998L285.131 4.99995" stroke="#EB00FF" stroke-opacity="0.1"/>
<path d="M241.266 480.998L241.266 4.99995" stroke="#EB00FF" stroke-opacity="0.1"/>
<path d="M197.4 480.998L197.4 4.99995" stroke="#EB00FF" stroke-opacity="0.1"/>
<path d="M153.531 480.998L153.531 4.99995" stroke="#EB00FF" stroke-opacity="0.1"/>
<path d="M109.666 480.998L109.666 4.99995" stroke="#EB00FF" stroke-opacity="0.1"/>
<path d="M65.7988 480.998L65.7989 4.99995" stroke="#EB00FF" stroke-opacity="0.1"/>
<path d="M21.9355 480.998L21.9356 4.99995" stroke="#EB00FF" stroke-opacity="0.1"/>
<path d="M452.063 9.144H454.205C453.809 6.678 452.009 4.86 448.661 4.86C444.953 4.86 442.613 7.686 442.613 11.556C442.613 15.444 444.701 18.27 448.427 18.27C450.371 18.27 451.577 17.532 452.441 16.236H452.477L452.945 18H454.421V11.25H448.607V12.978H452.243C452.225 15.03 450.605 16.434 448.571 16.434C445.637 16.434 444.755 13.986 444.755 11.556C444.755 9.144 445.889 6.696 448.643 6.696C450.551 6.696 451.739 7.614 452.063 9.144ZM460.365 18.27C457.485 18.27 455.739 16.272 455.739 13.41C455.739 10.548 457.485 8.55 460.365 8.55C463.245 8.55 464.991 10.548 464.991 13.41C464.991 16.272 463.245 18.27 460.365 18.27ZM460.365 16.722C462.165 16.722 463.101 15.3 463.101 13.41C463.101 11.502 462.165 10.098 460.365 10.098C458.565 10.098 457.629 11.502 457.629 13.41C457.629 15.3 458.565 16.722 460.365 16.722ZM470.437 18.27C467.557 18.27 465.811 16.272 465.811 13.41C465.811 10.548 467.557 8.55 470.437 8.55C473.317 8.55 475.063 10.548 475.063 13.41C475.063 16.272 473.317 18.27 470.437 18.27ZM470.437 16.722C472.237 16.722 473.173 15.3 473.173 13.41C473.173 11.502 472.237 10.098 470.437 10.098C468.637 10.098 467.701 11.502 467.701 13.41C467.701 15.3 468.637 16.722 470.437 16.722ZM482.742 8.802V9.882H482.706C482.22 9.234 481.374 8.55 479.916 8.55C477.612 8.55 475.884 10.134 475.884 13.05C475.884 15.948 477.612 17.55 479.916 17.55C481.374 17.55 482.22 16.866 482.706 16.182H482.742V17.298C482.742 18.954 481.932 19.674 480.348 19.674C478.854 19.674 478.206 19.062 478.026 18.252H476.118C476.316 19.8 477.774 21.186 480.42 21.186C483.03 21.186 484.632 20.016 484.632 17.37V8.802H482.742ZM480.276 16.002C478.62 16.002 477.774 14.742 477.774 13.05C477.774 11.34 478.62 10.098 480.276 10.098C481.806 10.098 482.724 11.106 482.724 13.05C482.724 14.994 481.806 16.002 480.276 16.002ZM486.46 5.13V18H488.368V5.13H486.46ZM494.272 16.722C492.598 16.722 491.608 15.444 491.608 13.896H498.664C498.664 10.62 497.206 8.55 494.236 8.55C491.464 8.55 489.718 10.422 489.718 13.41C489.718 16.29 491.464 18.27 494.326 18.27C496.684 18.27 498.052 16.938 498.52 15.192H496.63C496.468 15.75 495.838 16.722 494.272 16.722ZM494.236 10.044C495.766 10.044 496.774 11.07 496.774 12.492H491.608C491.608 11.07 492.706 10.044 494.236 10.044ZM508.301 8.55C506.753 8.55 505.799 9.27 505.313 9.99H505.277V5.13H503.387V18H505.277V12.402C505.277 11.034 506.267 10.152 507.653 10.152C508.967 10.152 509.489 10.944 509.489 12.186V18H511.397V11.646C511.397 9.54 510.047 8.55 508.301 8.55ZM518.688 11.214C518.688 12.096 517.824 12.276 516.402 12.546C514.098 12.996 512.604 13.626 512.604 15.642C512.604 17.19 513.756 18.27 515.628 18.27C517.05 18.27 518.094 17.712 518.67 16.902H518.706C518.886 17.802 519.354 18.162 520.362 18.162C520.722 18.162 521.028 18.126 521.46 17.964V17.064C520.722 17.136 520.578 16.794 520.578 16.146V11.772C520.578 9.324 519.066 8.55 517.032 8.55C514.26 8.55 513.126 9.936 513.036 11.7H514.872C514.962 10.512 515.52 10.044 517.032 10.044C518.292 10.044 518.688 10.548 518.688 11.214ZM516.042 16.776C515.016 16.776 514.512 16.308 514.512 15.462C514.512 14.526 515.196 14.076 516.762 13.734C517.644 13.554 518.382 13.338 518.688 13.122V14.508C518.688 16.002 517.608 16.776 516.042 16.776ZM526.781 10.35V8.802H525.053V5.904H523.145V8.802H521.813V10.35H523.145V15.498C523.145 17.442 523.973 18.126 525.485 18.126C525.989 18.126 526.403 18.072 526.781 17.982V16.434C525.557 16.506 525.053 16.38 525.053 15.336V10.35H526.781ZM532.135 16.722C530.461 16.722 529.471 15.444 529.471 13.896H536.527C536.527 10.62 535.069 8.55 532.099 8.55C529.327 8.55 527.581 10.422 527.581 13.41C527.581 16.29 529.327 18.27 532.189 18.27C534.547 18.27 535.915 16.938 536.383 15.192H534.493C534.331 15.75 533.701 16.722 532.135 16.722ZM532.099 10.044C533.629 10.044 534.637 11.07 534.637 12.492H529.471C529.471 11.07 530.569 10.044 532.099 10.044ZM541.801 12.438C540.469 12.132 539.443 12.06 539.443 11.124C539.443 10.476 540.055 10.044 541.189 10.044C542.665 10.044 543.025 10.782 543.151 11.502H544.987C544.861 9.9 543.673 8.55 541.171 8.55C538.867 8.55 537.535 9.756 537.535 11.268C537.535 13.356 539.515 13.644 540.973 13.986C542.323 14.31 543.421 14.4 543.421 15.552C543.421 16.128 542.863 16.776 541.549 16.776C539.605 16.776 539.173 15.93 539.083 14.94H537.247C537.337 16.884 538.615 18.27 541.585 18.27C543.817 18.27 545.329 17.172 545.329 15.408C545.329 13.212 543.493 12.834 541.801 12.438ZM558.14 8.802H556.124L553.766 15.84H553.73L551.156 8.802H549.122L552.452 17.064C552.794 17.928 552.542 18.648 552.2 19.062C551.786 19.566 551.192 19.62 550.4 19.512H550.238V20.952C550.598 21.042 551.048 21.132 551.588 21.132C553.352 21.132 553.946 19.998 554.468 18.576L558.14 8.802ZM562.969 18.27C560.089 18.27 558.343 16.272 558.343 13.41C558.343 10.548 560.089 8.55 562.969 8.55C565.849 8.55 567.595 10.548 567.595 13.41C567.595 16.272 565.849 18.27 562.969 18.27ZM562.969 16.722C564.769 16.722 565.705 15.3 565.705 13.41C565.705 11.502 564.769 10.098 562.969 10.098C561.169 10.098 560.233 11.502 560.233 13.41C560.233 15.3 561.169 16.722 562.969 16.722ZM574.949 8.802V14.4C574.949 15.768 574.013 16.65 572.555 16.65C571.259 16.65 570.737 15.858 570.737 14.616V8.802H568.829V15.156C568.829 17.262 570.179 18.252 571.889 18.252C573.473 18.252 574.427 17.532 574.913 16.812H574.949V18H576.839V8.802H574.949Z" fill="#E9EEF1"/>
<g clip-path="url(#clip0_6878_109128)">
<path d="M499.913 310.555C481.13 321.48 459.956 330.216 437.367 336.786L437.284 336.822L437.2 336.833C346.593 363.112 233.038 354.364 157.205 310.555C110.17 283.383 86.3671 247.762 85.808 212.081L85.7842 211.974V283.836C85.7842 283.848 85.7842 283.848 85.7842 283.86V284.562L85.808 284.681C86.3671 320.362 110.17 355.983 157.205 383.154C233.038 426.964 346.593 435.712 437.2 409.433L437.284 409.421L437.367 409.385C459.956 402.816 481.118 394.08 499.913 383.154C545.806 356.471 569.204 321.647 570.18 286.597L570.227 286.406V213.807L570.18 213.997C569.193 249.036 545.794 283.871 499.913 310.555Z" stroke="#EB00FF" stroke-width="3" stroke-miterlimit="10"/>
<path d="M85.7842 278.159C85.7842 278.17 85.7842 278.17 85.7842 278.182V278.885L85.808 279.004C86.3671 314.685 110.17 350.306 157.205 377.477C233.038 421.287 346.593 430.035 437.2 403.756L437.284 403.744L437.367 403.708C459.956 397.139 481.118 388.403 499.913 377.477C545.806 350.794 569.204 315.97 570.18 280.92L570.227 280.729" stroke="#EB00FF" stroke-miterlimit="10"/>
<path d="M85.7842 266.257C85.7842 266.269 85.7842 266.269 85.7842 266.281V266.983L85.808 267.102C86.3671 302.783 110.17 338.405 157.205 365.576C233.038 409.386 346.593 418.133 437.2 391.855L437.284 391.843L437.367 391.807C459.956 385.237 481.118 376.502 499.913 365.576C545.806 338.893 569.204 304.069 570.18 269.018L570.227 268.828" stroke="#EB00FF" stroke-miterlimit="10"/>
<path d="M85.7842 254.356C85.7842 254.368 85.7842 254.368 85.7842 254.38V255.082L85.808 255.201C86.3671 290.882 110.17 326.503 157.205 353.674C233.038 397.484 346.593 406.232 437.2 379.953L437.284 379.941L437.367 379.905C459.956 373.336 481.118 364.6 499.913 353.674C545.806 326.991 569.204 292.167 570.18 257.117L570.227 256.926" stroke="#EB00FF" stroke-miterlimit="10"/>
<path d="M85.7842 242.454C85.7842 242.466 85.7842 242.466 85.7842 242.478V243.18L85.808 243.299C86.3671 278.98 110.17 314.601 157.205 341.773C233.038 385.583 346.593 394.33 437.2 368.051L437.284 368.04L437.367 368.004C459.956 361.434 481.118 352.698 499.913 341.773C545.806 315.089 569.204 280.265 570.18 245.215L570.227 245.025" stroke="#EB00FF" stroke-miterlimit="10"/>
<path d="M85.7842 230.552C85.7842 230.564 85.7842 230.564 85.7842 230.576V231.278L85.808 231.398C86.3671 267.078 110.17 302.7 157.205 329.871C233.038 373.681 346.593 382.429 437.2 356.15L437.284 356.138L437.367 356.102C459.956 349.533 481.118 340.797 499.913 329.871C545.806 303.188 569.204 268.364 570.18 233.314L570.227 233.123" stroke="#EB00FF" stroke-miterlimit="10"/>
<path d="M85.7842 218.651C85.7842 218.663 85.7842 218.663 85.7842 218.675V219.377L85.808 219.496C86.3671 255.177 110.17 290.798 157.205 317.969C233.038 361.779 346.593 370.527 437.2 344.248L437.284 344.236L437.367 344.201C459.956 337.631 481.118 328.895 499.913 317.969C545.806 291.286 569.204 256.462 570.18 221.412L570.227 221.221" stroke="#EB00FF" stroke-miterlimit="10"/>
<path d="M85.7842 224.602C85.7842 224.614 85.7842 224.614 85.7842 224.626V225.328L85.808 225.447C86.3671 261.128 110.17 296.749 157.205 323.92C233.038 367.73 346.593 376.478 437.2 350.199L437.284 350.187L437.367 350.152C459.956 343.582 481.118 334.846 499.913 323.92C545.806 297.237 569.204 262.413 570.18 227.363L570.227 227.173" stroke="#EB00FF" stroke-miterlimit="10"/>
<path d="M85.7842 236.503C85.7842 236.515 85.7842 236.515 85.7842 236.527V237.229L85.808 237.348C86.3671 273.029 110.17 308.651 157.205 335.822C233.038 379.632 346.593 388.379 437.2 362.101L437.284 362.089L437.367 362.053C459.956 355.483 481.118 346.748 499.913 335.822C545.806 309.139 569.204 274.315 570.18 239.264L570.227 239.074" stroke="#EB00FF" stroke-miterlimit="10"/>
<path d="M85.7842 248.405C85.7842 248.417 85.7842 248.417 85.7842 248.428V249.131L85.808 249.25C86.3671 284.931 110.17 320.552 157.205 347.723C233.038 391.533 346.593 400.281 437.2 374.002L437.284 373.99L437.367 373.954C459.956 367.385 481.118 358.649 499.913 347.723C545.806 321.04 569.204 286.216 570.18 251.166L570.227 250.975" stroke="#EB00FF" stroke-miterlimit="10"/>
<path d="M85.7842 260.307C85.7842 260.318 85.7842 260.318 85.7842 260.33V261.033L85.808 261.152C86.3671 296.832 110.17 332.454 157.205 359.625C233.038 403.435 346.593 412.183 437.2 385.904L437.284 385.892L437.367 385.856C459.956 379.287 481.118 370.551 499.913 359.625C545.806 332.942 569.204 298.118 570.18 263.068L570.227 262.877" stroke="#EB00FF" stroke-miterlimit="10"/>
<path d="M85.7842 272.208C85.7842 272.22 85.7842 272.22 85.7842 272.232V272.934L85.808 273.053C86.3671 308.734 110.17 344.355 157.205 371.527C233.038 415.336 346.593 424.084 437.2 397.805L437.284 397.793L437.367 397.758C459.956 391.188 481.118 382.452 499.913 371.527C545.806 344.843 569.204 310.019 570.18 274.969L570.227 274.779" stroke="#EB00FF" stroke-miterlimit="10"/>
<path d="M456.567 168.843L455.817 169.164C471.888 181.947 480.429 197.002 480.524 212.7H481.452C481.357 196.883 472.757 181.721 456.567 168.843Z" fill="#EB00FF"/>
<path d="M204.846 258.914L205.631 258.628C190.036 244.501 182.399 226.22 185.23 209.725L184.302 209.665C181.471 226.28 189.144 244.692 204.846 258.914Z" fill="#EB00FF"/>
<path d="M430.253 273.886C442.565 266.829 452.069 258.557 458.469 249.31L457.601 249.107C451.237 258.283 441.815 266.483 429.587 273.505C420.939 278.468 411.161 282.646 400.538 285.931L400.978 286.407C411.696 283.098 421.545 278.885 430.253 273.886Z" fill="#EB00FF"/>
<path d="M365.03 298.844L364.828 298.308C347.793 300.522 330.378 300.676 313.07 298.784C300.818 297.439 289.042 295.095 278.062 291.822L277.634 292.298C288.697 295.606 300.568 297.963 312.904 299.308C330.331 301.224 347.877 301.069 365.03 298.844Z" fill="#EB00FF"/>
<path d="M324.515 134.424L324.55 134.971C353.337 134.602 382.612 139.208 402.87 147.313L403.394 146.861C382.981 138.696 353.504 134.055 324.515 134.424Z" fill="#EB00FF"/>
<path d="M495.274 115.429C402.942 62.0977 253.201 62.0977 161.463 115.429C69.7374 168.76 70.2251 255.546 162.558 308.877C254.89 362.208 404.631 362.22 496.369 308.877C588.095 255.546 587.607 168.76 495.274 115.429ZM495.703 308.508C404.333 361.637 255.176 361.625 163.212 308.508C71.2481 255.379 70.7604 168.95 162.13 115.821C253.499 62.6928 402.656 62.6928 494.62 115.81C586.584 168.938 587.072 255.379 495.703 308.508Z" fill="#EB00FF"/>
<path d="M498.795 112.251C404 57.4917 250.275 57.4917 156.099 112.251C61.922 167.01 62.4217 256.105 157.217 310.864C252.012 365.624 405.749 365.624 499.913 310.864C594.09 256.093 593.59 166.998 498.795 112.251ZM497.38 309.389C404.595 363.339 253.118 363.339 159.715 309.389C66.3234 255.439 65.8238 167.653 158.608 113.703C251.393 59.753 402.87 59.753 496.262 113.703C589.665 167.665 590.164 255.439 497.38 309.389Z" fill="#EB00FF"/>
<path d="M408.484 141.315L408.984 140.863C381.517 130.449 355.3 126.176 324.015 127.033L324.062 127.568C355.157 126.723 381.184 130.96 408.484 141.315Z" fill="#EB00FF"/>
<path d="M324.325 131.841L324.361 132.388C353.041 132.019 384.005 137.042 405.143 145.492L405.666 145.04C384.374 136.53 353.196 131.472 324.325 131.841Z" fill="#EB00FF"/>
<path d="M263.194 145.611L262.742 145.147C237.369 153.24 217.277 166.189 206.179 181.601L207.047 181.816C218.062 166.51 237.999 153.656 263.194 145.611Z" fill="#EB00FF"/>
<path d="M465.453 139.898C461.206 137.446 456.734 135.054 452.047 132.721C448.169 130.793 443.458 129.722 438.557 129.579C434.132 128.722 429.517 128.58 425.282 129.246C425.627 129.377 425.972 129.52 426.317 129.651C429.207 129.27 432.253 129.27 435.286 129.627C434.097 129.698 432.895 129.817 431.706 129.996C430.659 130.151 429.624 130.353 428.637 130.591C428.946 130.722 429.231 130.841 429.541 130.972C430.326 130.793 431.123 130.65 431.943 130.531C434.108 130.21 436.285 130.067 438.427 130.127C441.162 130.674 443.827 131.495 446.277 132.602C453.415 135.816 459.874 139.113 465.727 142.493C528.761 178.911 520.589 223.792 513.463 242.537C512.143 245.977 508.277 248.619 502.579 249.964C498.368 250.964 493.538 251.19 488.732 250.69C488.614 250.856 488.495 251.023 488.376 251.202C493.419 251.749 498.499 251.523 502.936 250.476C508.943 249.059 512.999 246.286 514.379 242.656C521.54 223.828 529.76 178.721 466.393 142.124C460.516 138.732 454.01 135.399 446.837 132.174C445.266 131.472 443.601 130.865 441.888 130.377C445.362 130.805 448.633 131.734 451.452 133.138C456.127 135.459 460.588 137.851 464.823 140.291C482.475 150.49 496.191 161.69 505.707 173.687C522.873 195.347 525.62 218.96 513.856 243.882C511.833 248.167 506.373 251.642 499.26 253.201C495.013 254.129 490.612 254.26 486.568 253.641C487.186 252.832 487.793 252.035 488.732 250.714C514.379 214.33 501.591 170.854 450.5 141.338C443.887 137.518 436.88 134.066 429.541 130.996C429.231 130.865 428.946 130.746 428.637 130.615C427.875 130.293 427.102 129.984 426.329 129.675C425.984 129.532 425.639 129.401 425.294 129.27C391.963 116.166 352.494 110.501 313.905 112.286C313.5 112.31 313.096 112.322 312.513 112.358C273.377 114.345 235.228 124.009 205.43 141.338C175.715 158.619 159.18 180.685 155.802 203.31C155.576 203.179 155.35 203.036 155.136 202.893C150.247 199.727 148.343 195.669 149.937 191.765C157.265 173.806 169.839 158.155 187.325 145.242C212.746 126.461 247.778 114.262 291.422 108.99C298.762 108.097 306.613 109.359 312.703 112.346C313.108 112.322 313.512 112.31 313.56 112.084C313.167 111.858 312.751 111.632 312.334 111.406C305.15 107.645 296.002 105.871 288.436 106.776C189.502 118.677 156.337 165.51 145.381 192.36C143.716 196.442 145.691 200.679 150.794 203.976C151.127 204.19 151.46 204.393 151.805 204.595C152.923 205.238 154.125 205.821 155.409 206.333C153.244 228.719 163.926 251.463 187.42 270.506C186.671 271.506 186.076 272.541 185.671 273.624C183.994 277.968 185.671 282.11 190.251 284.99C191.976 286.073 193.903 287.251 196.068 288.501C224.415 304.878 289.721 332.823 384.873 315.649C389.239 314.863 393.093 313.387 396.043 311.459C396.673 311.043 397.256 310.614 397.803 310.15C399.088 309.067 400.135 307.889 400.861 306.627C401.479 305.544 401.86 304.461 401.991 303.378C403.763 302.902 405.524 302.402 407.272 301.89C407.165 302.176 407.034 302.474 406.892 302.771C405.417 305.735 402.181 308.329 397.792 310.162C397.244 310.614 396.661 311.055 396.031 311.471C401.753 309.555 406.011 306.496 407.796 302.926C408.022 302.474 408.2 302.033 408.331 301.581C423.819 296.951 438.331 290.87 451.286 283.348C466.262 274.648 477.884 264.722 486.556 253.629C486.425 253.796 486.306 253.963 486.175 254.117C490.445 254.796 495.097 254.665 499.581 253.689C506.98 252.082 512.654 248.464 514.748 244.013C526.572 218.972 523.812 195.228 506.54 173.449C496.976 161.38 483.189 150.133 465.453 139.898ZM155.671 203.988C155.588 204.559 155.528 205.131 155.457 205.702C154.398 205.261 153.387 204.762 152.447 204.214C152.114 204.024 151.793 203.821 151.472 203.619C146.583 200.453 144.68 196.395 146.274 192.491C157.182 165.76 190.18 119.142 288.579 107.276C293.885 106.645 300.023 107.383 305.649 109.251C301.046 108.157 296.002 107.847 291.184 108.43C247.302 113.726 212.103 125.985 186.54 144.873C168.97 157.846 156.349 173.579 148.986 191.61C147.32 195.693 149.295 199.93 154.398 203.226C154.731 203.441 155.076 203.643 155.671 203.988ZM425.032 131.65C420.298 133.364 416.563 136.018 414.517 139.243C407.689 150.074 397.887 165.677 389.441 179.34C388.858 178.971 388.263 178.602 387.657 178.245L413.339 136.328C414.969 133.685 418.038 131.662 422.118 130.496C422.939 130.817 423.747 131.138 425.032 131.65ZM408.248 224.792L409.949 225.447L471.068 249C463.49 260.08 452.249 269.994 437.641 278.48C427.875 284.157 416.872 289.013 404.941 292.917C404.81 292.821 404.691 292.714 404.548 292.619L362.117 259.545C371.086 257.117 379.484 253.749 386.872 249.452C398.66 242.597 406.356 234.254 409.949 225.458L408.248 224.792ZM384.35 247.988C351.649 267.007 298.25 267.007 265.335 247.988C232.409 228.969 232.242 198.025 264.943 179.007C297.655 159.988 351.042 159.988 383.957 179.007C416.884 198.037 417.062 228.969 384.35 247.988ZM261.541 248.702C253.357 250.821 244.292 253.142 235.49 255.391C223.903 258.343 212.96 261.151 204.49 263.389C198.887 264.876 194.438 267.4 191.762 270.47C191.227 270.054 190.691 269.625 189.847 268.935C192.892 265.948 197.496 263.555 202.92 262.282C211.437 260.282 221.56 257.807 231.326 255.403C241.509 252.903 252.024 250.333 260.815 248.274C261.279 248.167 261.719 248.06 262.171 247.952C261.719 248.06 261.279 248.155 260.815 248.274C261.065 248.405 261.303 248.559 261.541 248.702ZM204.883 263.877C213.34 261.639 224.284 258.842 235.858 255.879C244.78 253.606 253.963 251.261 262.231 249.107C262.421 249.226 262.623 249.333 262.814 249.452C287.663 263.805 323.695 267.769 354.635 261.33L397.566 295.975C399.528 297.57 400.682 299.415 401.003 301.343C401.051 301.331 401.098 301.319 401.158 301.307C401.11 301.319 401.063 301.331 401.003 301.343C338.195 318.422 260.768 311.935 208.713 281.86C202.967 278.539 197.71 275.029 192.392 270.934C194.95 267.876 199.327 265.353 204.883 263.877ZM159.121 204.952C161.904 182.268 178.165 160.071 207.928 142.766C237.833 125.378 276.327 115.869 315.641 114.25C316.248 114.702 316.807 115.167 317.307 115.643C319.543 117.809 320.53 120.237 320.078 122.653L312.977 162.987L313.905 163.047L314.214 161.309L314.547 161.333L321.601 122.986C322.041 120.546 320.792 117.892 318.128 115.405C317.699 115 317.235 114.607 316.736 114.214C316.748 114.214 316.748 114.214 316.76 114.214C352.934 112.858 389.762 118.178 421.214 130.163C417.146 131.412 414.1 133.483 412.435 136.161L386.907 177.816L386.11 179.126L386.99 179.304L386.098 179.126L386.895 177.816C386.753 177.733 386.598 177.638 386.443 177.555C352.125 157.738 296.478 157.738 262.373 177.555C249.407 185.1 241.402 194.443 238.345 204.202C227.199 205.035 215.684 205.595 204.526 206.13C194.819 206.594 185.636 207.047 177.285 207.63C170.79 208.106 164.295 207.118 159.121 204.952C159.097 205.154 159.073 205.357 159.049 205.559C159.073 205.369 159.097 205.166 159.121 204.952ZM239.177 204.869L239.142 204.702L239.058 204.345L239.165 204.69L239.106 204.488L239.177 204.869ZM159.049 205.583C163.819 207.487 169.613 208.439 175.536 208.273C174.918 208.32 174.299 208.356 173.705 208.403C168.542 208.772 163.403 208.225 158.918 206.916C158.954 206.475 159.002 206.023 159.049 205.583ZM158.883 207.511C163.439 208.784 168.625 209.308 173.835 208.939C182.091 208.356 191.691 207.808 201.837 207.237C214.018 206.535 226.616 205.833 238.154 204.964C238.499 204.94 238.844 204.916 239.189 204.893C238.844 204.916 238.499 204.94 238.154 204.976C233.86 219.984 241.2 235.92 260.149 247.857C251.406 249.904 241.045 252.451 230.981 254.915C221.203 257.319 211.104 259.794 202.587 261.794C201.933 261.949 201.29 262.115 200.66 262.306C195.997 263.663 192.047 265.84 189.276 268.471C167.543 250.44 157.396 229.136 158.883 207.511ZM384.564 315.137C289.9 332.216 224.926 304.425 196.71 288.12C194.569 286.883 192.63 285.704 190.905 284.621C186.54 281.872 184.958 277.909 186.564 273.731C186.92 272.803 187.42 271.887 188.039 271.018C188.74 271.577 189.466 272.148 190.192 272.696C189.859 273.303 189.597 273.934 189.395 274.576C188.062 278.932 190.239 283.134 195.39 286.097C227.436 304.604 295.526 332.656 391.606 312.626C392.201 312.495 392.795 312.364 393.366 312.221C390.868 313.542 387.871 314.542 384.564 315.137ZM400.991 303.64C400.837 304.58 400.48 305.52 399.945 306.449C398.957 308.151 397.399 309.71 395.412 311.031C394.116 311.459 392.736 311.828 391.297 312.126C295.693 332.061 227.936 304.128 196.044 285.716C191.131 282.884 189.038 278.849 190.311 274.671C190.465 274.184 190.656 273.696 190.894 273.231C195.545 276.742 200.648 280.122 206.203 283.324C258.924 313.78 337.137 320.54 401.967 303.366C401.646 303.461 401.313 303.545 400.991 303.64ZM407.712 299.415C405.999 299.939 404.275 300.438 401.907 301.093C401.527 299.141 400.325 297.284 398.339 295.654L355.563 261.127C357.49 260.711 359.393 260.259 361.284 259.759L403.846 292.928C406.368 294.845 407.689 297.07 407.712 299.415ZM482.797 253.38C474.684 263.71 463.336 273.374 448.728 281.872C436.844 288.775 423.605 294.44 408.628 299.129C408.521 297.07 407.463 295.118 405.476 293.381C417.443 289.453 428.494 284.574 438.296 278.873C452.951 270.363 464.24 260.425 471.853 249.321L480.394 252.606C481.179 252.892 481.976 253.153 482.797 253.38ZM484.831 250.678C484.379 251.309 483.891 251.951 483.177 252.892C482.404 252.677 481.643 252.427 480.917 252.154L410.187 224.899C410.377 224.423 410.543 223.935 410.71 223.459C409.854 223.138 409.021 222.816 408.224 222.519C409.009 222.816 409.842 223.138 410.698 223.459C429.279 230.529 463.276 243.394 476.896 248.524C479.406 249.464 482.095 250.178 484.831 250.678ZM485.176 250.178C482.487 249.702 479.87 248.988 477.408 248.071C463.716 242.906 429.386 229.922 410.888 222.876C415.611 207.892 408.688 191.884 390.143 179.804C389.941 180.125 389.738 180.459 389.536 180.78C389.738 180.459 389.941 180.137 390.143 179.804C398.624 166.081 408.509 150.336 415.385 139.446C417.395 136.256 421.13 133.638 425.853 131.995C433.609 135.173 440.996 138.755 447.943 142.766C497.916 171.616 510.454 214.081 485.176 250.178Z" fill="#EB00FF"/>
<path d="M178.604 210.606L177.665 210.582C176.035 229.315 183.981 247.179 200.647 262.282L201.432 261.997C184.861 246.989 176.975 229.22 178.604 210.606Z" fill="#EB00FF"/>
<path d="M207.725 257.807L208.51 257.522C193.509 243.942 186.539 226.673 189.382 210.13L188.442 210.082C185.587 226.732 192.605 244.132 207.725 257.807Z" fill="#EB00FF"/>
<path d="M433.335 274.969C424.497 280.039 414.504 284.312 403.632 287.668L404.072 288.156C415.028 284.764 425.079 280.468 433.989 275.362C446.574 268.138 456.281 259.688 462.836 250.25L461.967 250.047C455.46 259.414 445.825 267.805 433.335 274.969Z" fill="#EB00FF"/>
<path d="M498.796 112.846C404 58.0987 250.263 58.0987 156.087 112.858C61.9103 167.617 62.4099 256.712 157.205 311.471C252 366.231 405.737 366.231 499.902 311.471C594.09 256.7 593.579 167.605 498.796 112.846Z" stroke="#EB00FF" stroke-width="3" stroke-miterlimit="10"/>
</g>
<path d="M73.001 84.0003L179.826 84.0002L261.001 165" stroke="#EB00FF"/>
<circle cx="261.001" cy="165" r="4" fill="#EB00FF"/>
<path d="M548.001 32.0003L441.176 32.0002L360.001 113" stroke="#EB00FF"/>
<circle cx="4" cy="4" r="4" transform="matrix(-1 -8.74228e-08 -8.74228e-08 1 364.001 109)" fill="#EB00FF"/>
<path d="M548.001 468L402.176 468L321.001 387" stroke="#EB00FF"/>
<circle cx="321.001" cy="387" r="4" transform="rotate(-180 321.001 387)" fill="#EB00FF"/>
<path d="M83.063 61.1442H85.205C84.809 58.6782 83.009 56.8602 79.661 56.8602C75.953 56.8602 73.613 59.6862 73.613 63.5562C73.613 67.4442 75.701 70.2702 79.427 70.2702C81.371 70.2702 82.577 69.5322 83.441 68.2362H83.477L83.945 70.0002H85.421V63.2502H79.607V64.9782H83.243C83.225 67.0302 81.605 68.4342 79.571 68.4342C76.637 68.4342 75.755 65.9862 75.755 63.5562C75.755 61.1442 76.889 58.6962 79.643 58.6962C81.551 58.6962 82.739 59.6142 83.063 61.1442ZM91.3652 70.2702C88.4852 70.2702 86.7392 68.2722 86.7392 65.4102C86.7392 62.5482 88.4852 60.5502 91.3652 60.5502C94.2452 60.5502 95.9912 62.5482 95.9912 65.4102C95.9912 68.2722 94.2452 70.2702 91.3652 70.2702ZM91.3652 68.7222C93.1652 68.7222 94.1012 67.3002 94.1012 65.4102C94.1012 63.5022 93.1652 62.0982 91.3652 62.0982C89.5652 62.0982 88.6292 63.5022 88.6292 65.4102C88.6292 67.3002 89.5652 68.7222 91.3652 68.7222ZM101.437 70.2702C98.5575 70.2702 96.8115 68.2722 96.8115 65.4102C96.8115 62.5482 98.5575 60.5502 101.437 60.5502C104.317 60.5502 106.063 62.5482 106.063 65.4102C106.063 68.2722 104.317 70.2702 101.437 70.2702ZM101.437 68.7222C103.237 68.7222 104.173 67.3002 104.173 65.4102C104.173 63.5022 103.237 62.0982 101.437 62.0982C99.6375 62.0982 98.7015 63.5022 98.7015 65.4102C98.7015 67.3002 99.6375 68.7222 101.437 68.7222ZM113.742 60.8022V61.8822H113.706C113.22 61.2342 112.374 60.5502 110.916 60.5502C108.612 60.5502 106.884 62.1342 106.884 65.0502C106.884 67.9482 108.612 69.5502 110.916 69.5502C112.374 69.5502 113.22 68.8662 113.706 68.1822H113.742V69.2982C113.742 70.9542 112.932 71.6742 111.348 71.6742C109.854 71.6742 109.206 71.0622 109.026 70.2522H107.118C107.316 71.8002 108.774 73.1862 111.42 73.1862C114.03 73.1862 115.632 72.0162 115.632 69.3702V60.8022H113.742ZM111.276 68.0022C109.62 68.0022 108.774 66.7422 108.774 65.0502C108.774 63.3402 109.62 62.0982 111.276 62.0982C112.806 62.0982 113.724 63.1062 113.724 65.0502C113.724 66.9942 112.806 68.0022 111.276 68.0022ZM117.46 57.1302V70.0002H119.368V57.1302H117.46ZM125.272 68.7222C123.598 68.7222 122.608 67.4442 122.608 65.8962H129.664C129.664 62.6202 128.206 60.5502 125.236 60.5502C122.464 60.5502 120.718 62.4222 120.718 65.4102C120.718 68.2902 122.464 70.2702 125.326 70.2702C127.684 70.2702 129.052 68.9382 129.52 67.1922H127.63C127.468 67.7502 126.838 68.7222 125.272 68.7222ZM125.236 62.0442C126.766 62.0442 127.774 63.0702 127.774 64.4922H122.608C122.608 63.0702 123.706 62.0442 125.236 62.0442ZM134.423 57.1302V70.0002H136.331V57.1302H134.423ZM139.088 59.2542C139.646 59.2542 140.168 58.8942 140.168 58.2462C140.168 57.5982 139.646 57.2562 139.088 57.2562C138.566 57.2562 138.026 57.5982 138.026 58.2462C138.026 58.8942 138.566 59.2542 139.088 59.2542ZM138.152 60.8022V70.0002H140.042V60.8022H138.152ZM141.823 57.1302V70.0002H143.713V66.6702L144.991 65.4642L147.889 70.0002H150.157L146.287 64.2222L149.779 60.8022H147.457L143.713 64.4922V57.1302H141.823ZM154.504 68.7222C152.83 68.7222 151.84 67.4442 151.84 65.8962H158.896C158.896 62.6202 157.438 60.5502 154.468 60.5502C151.696 60.5502 149.95 62.4222 149.95 65.4102C149.95 68.2902 151.696 70.2702 154.558 70.2702C156.916 70.2702 158.284 68.9382 158.752 67.1922H156.862C156.7 67.7502 156.07 68.7222 154.504 68.7222ZM154.468 62.0442C155.998 62.0442 157.006 63.0702 157.006 64.4922H151.84C151.84 63.0702 152.938 62.0442 154.468 62.0442ZM164.17 64.4382C162.838 64.1322 161.812 64.0602 161.812 63.1242C161.812 62.4762 162.424 62.0442 163.558 62.0442C165.034 62.0442 165.394 62.7822 165.52 63.5022H167.356C167.23 61.9002 166.042 60.5502 163.54 60.5502C161.236 60.5502 159.904 61.7562 159.904 63.2682C159.904 65.3562 161.884 65.6442 163.342 65.9862C164.692 66.3102 165.79 66.4002 165.79 67.5522C165.79 68.1282 165.232 68.7762 163.918 68.7762C161.974 68.7762 161.542 67.9302 161.452 66.9402H159.616C159.706 68.8842 160.984 70.2702 163.954 70.2702C166.186 70.2702 167.698 69.1722 167.698 67.4082C167.698 65.2122 165.862 64.8342 164.17 64.4382ZM180.509 60.8022H178.493L176.135 67.8402H176.099L173.525 60.8022H171.491L174.821 69.0642C175.163 69.9282 174.911 70.6482 174.569 71.0622C174.155 71.5662 173.561 71.6202 172.769 71.5122H172.607V72.9522C172.967 73.0422 173.417 73.1322 173.957 73.1322C175.721 73.1322 176.315 71.9982 176.837 70.5762L180.509 60.8022ZM185.338 70.2702C182.458 70.2702 180.712 68.2722 180.712 65.4102C180.712 62.5482 182.458 60.5502 185.338 60.5502C188.218 60.5502 189.964 62.5482 189.964 65.4102C189.964 68.2722 188.218 70.2702 185.338 70.2702ZM185.338 68.7222C187.138 68.7222 188.074 67.3002 188.074 65.4102C188.074 63.5022 187.138 62.0982 185.338 62.0982C183.538 62.0982 182.602 63.5022 182.602 65.4102C182.602 67.3002 183.538 68.7222 185.338 68.7222ZM197.318 60.8022V66.4002C197.318 67.7682 196.382 68.6502 194.924 68.6502C193.628 68.6502 193.106 67.8582 193.106 66.6162V60.8022H191.198V67.1562C191.198 69.2622 192.548 70.2522 194.258 70.2522C195.842 70.2522 196.796 69.5322 197.282 68.8122H197.318V70.0002H199.208V60.8022H197.318Z" fill="#E9EEF1"/>
<path d="M423.063 449.144H425.205C424.809 446.678 423.009 444.86 419.661 444.86C415.953 444.86 413.613 447.686 413.613 451.556C413.613 455.444 415.701 458.27 419.427 458.27C421.371 458.27 422.577 457.532 423.441 456.236H423.477L423.945 458H425.421V451.25H419.607V452.978H423.243C423.225 455.03 421.605 456.434 419.571 456.434C416.637 456.434 415.755 453.986 415.755 451.556C415.755 449.144 416.889 446.696 419.643 446.696C421.551 446.696 422.739 447.614 423.063 449.144ZM431.365 458.27C428.485 458.27 426.739 456.272 426.739 453.41C426.739 450.548 428.485 448.55 431.365 448.55C434.245 448.55 435.991 450.548 435.991 453.41C435.991 456.272 434.245 458.27 431.365 458.27ZM431.365 456.722C433.165 456.722 434.101 455.3 434.101 453.41C434.101 451.502 433.165 450.098 431.365 450.098C429.565 450.098 428.629 451.502 428.629 453.41C428.629 455.3 429.565 456.722 431.365 456.722ZM441.437 458.27C438.557 458.27 436.811 456.272 436.811 453.41C436.811 450.548 438.557 448.55 441.437 448.55C444.317 448.55 446.063 450.548 446.063 453.41C446.063 456.272 444.317 458.27 441.437 458.27ZM441.437 456.722C443.237 456.722 444.173 455.3 444.173 453.41C444.173 451.502 443.237 450.098 441.437 450.098C439.637 450.098 438.701 451.502 438.701 453.41C438.701 455.3 439.637 456.722 441.437 456.722ZM453.742 448.802V449.882H453.706C453.22 449.234 452.374 448.55 450.916 448.55C448.612 448.55 446.884 450.134 446.884 453.05C446.884 455.948 448.612 457.55 450.916 457.55C452.374 457.55 453.22 456.866 453.706 456.182H453.742V457.298C453.742 458.954 452.932 459.674 451.348 459.674C449.854 459.674 449.206 459.062 449.026 458.252H447.118C447.316 459.8 448.774 461.186 451.42 461.186C454.03 461.186 455.632 460.016 455.632 457.37V448.802H453.742ZM451.276 456.002C449.62 456.002 448.774 454.742 448.774 453.05C448.774 451.34 449.62 450.098 451.276 450.098C452.806 450.098 453.724 451.106 453.724 453.05C453.724 454.994 452.806 456.002 451.276 456.002ZM457.46 445.13V458H459.368V445.13H457.46ZM465.272 456.722C463.598 456.722 462.608 455.444 462.608 453.896H469.664C469.664 450.62 468.206 448.55 465.236 448.55C462.464 448.55 460.718 450.422 460.718 453.41C460.718 456.29 462.464 458.27 465.326 458.27C467.684 458.27 469.052 456.938 469.52 455.192H467.63C467.468 455.75 466.838 456.722 465.272 456.722ZM465.236 450.044C466.766 450.044 467.774 451.07 467.774 452.492H462.608C462.608 451.07 463.706 450.044 465.236 450.044ZM474.423 445.13V458H476.331V445.13H474.423ZM482.307 458.27C479.427 458.27 477.681 456.272 477.681 453.41C477.681 450.548 479.427 448.55 482.307 448.55C485.187 448.55 486.933 450.548 486.933 453.41C486.933 456.272 485.187 458.27 482.307 458.27ZM482.307 456.722C484.107 456.722 485.043 455.3 485.043 453.41C485.043 451.502 484.107 450.098 482.307 450.098C480.507 450.098 479.571 451.502 479.571 453.41C479.571 455.3 480.507 456.722 482.307 456.722ZM487.11 448.802L490.368 458H492.51L495.768 448.802H493.77L491.448 456.002H491.43L489.108 448.802H487.11ZM500.516 456.722C498.842 456.722 497.852 455.444 497.852 453.896H504.908C504.908 450.62 503.45 448.55 500.48 448.55C497.708 448.55 495.962 450.422 495.962 453.41C495.962 456.29 497.708 458.27 500.57 458.27C502.928 458.27 504.296 456.938 504.764 455.192H502.874C502.712 455.75 502.082 456.722 500.516 456.722ZM500.48 450.044C502.01 450.044 503.018 451.07 503.018 452.492H497.852C497.852 451.07 498.95 450.044 500.48 450.044ZM510.182 452.438C508.85 452.132 507.824 452.06 507.824 451.124C507.824 450.476 508.436 450.044 509.57 450.044C511.046 450.044 511.406 450.782 511.532 451.502H513.368C513.242 449.9 512.054 448.55 509.552 448.55C507.248 448.55 505.916 449.756 505.916 451.268C505.916 453.356 507.896 453.644 509.354 453.986C510.704 454.31 511.802 454.4 511.802 455.552C511.802 456.128 511.244 456.776 509.93 456.776C507.986 456.776 507.554 455.93 507.464 454.94H505.628C505.718 456.884 506.996 458.27 509.966 458.27C512.198 458.27 513.71 457.172 513.71 455.408C513.71 453.212 511.874 452.834 510.182 452.438ZM526.521 448.802H524.505L522.147 455.84H522.111L519.537 448.802H517.503L520.833 457.064C521.175 457.928 520.923 458.648 520.581 459.062C520.167 459.566 519.573 459.62 518.781 459.512H518.619V460.952C518.979 461.042 519.429 461.132 519.969 461.132C521.733 461.132 522.327 459.998 522.849 458.576L526.521 448.802ZM531.35 458.27C528.47 458.27 526.724 456.272 526.724 453.41C526.724 450.548 528.47 448.55 531.35 448.55C534.23 448.55 535.976 450.548 535.976 453.41C535.976 456.272 534.23 458.27 531.35 458.27ZM531.35 456.722C533.15 456.722 534.086 455.3 534.086 453.41C534.086 451.502 533.15 450.098 531.35 450.098C529.55 450.098 528.614 451.502 528.614 453.41C528.614 455.3 529.55 456.722 531.35 456.722ZM543.33 448.802V454.4C543.33 455.768 542.394 456.65 540.936 456.65C539.64 456.65 539.118 455.858 539.118 454.616V448.802H537.21V455.156C537.21 457.262 538.56 458.252 540.27 458.252C541.854 458.252 542.808 457.532 543.294 456.812H543.33V458H545.22V448.802H543.33Z" fill="#E9EEF1"/>
<path d="M537.578 281.643C516.422 303.139 485.985 320.987 449.331 333.388C412.678 345.79 371.102 352.308 328.789 352.286C286.476 352.264 244.92 345.703 208.304 333.264C171.687 320.825 141.304 302.947 120.212 281.429L329 211L537.578 281.643Z" fill="url(#paint0_linear_6878_109128)" fill-opacity="0.5"/>
<path d="M120.423 281.643C99.2832 260.164 88.1546 235.799 88.1555 210.997C88.1563 186.195 99.2865 161.831 120.427 140.352C141.568 118.874 171.975 101.038 208.59 88.6387C245.206 76.2391 286.741 69.7122 329.019 69.7142L329.001 211L120.423 281.643Z" fill="url(#paint1_linear_6878_109128)" fill-opacity="0.1"/>
<path d="M329.001 69.0002C371.276 69.0002 412.807 75.5524 449.426 87.999C486.044 100.446 516.462 118.349 537.626 139.911C558.79 161.474 569.955 185.938 570.001 210.846C570.047 235.755 558.971 260.233 537.887 281.823L329.001 211L329.001 69.0002Z" fill="url(#paint2_linear_6878_109128)" fill-opacity="0.3"/>
<defs>
<linearGradient id="paint0_linear_6878_109128" x1="457.999" y1="222" x2="309.357" y2="434.462" gradientUnits="userSpaceOnUse">
<stop stop-color="#EB00FF"/>
<stop offset="1" stop-color="#EB00FF" stop-opacity="0"/>
</linearGradient>
<linearGradient id="paint1_linear_6878_109128" x1="268.499" y1="250.5" x2="241.238" y2="70.302" gradientUnits="userSpaceOnUse">
<stop stop-color="#EB00FF"/>
<stop offset="1" stop-color="#EB00FF" stop-opacity="0"/>
</linearGradient>
<linearGradient id="paint2_linear_6878_109128" x1="304.999" y1="152.5" x2="612.499" y2="218" gradientUnits="userSpaceOnUse">
<stop stop-color="#EB00FF"/>
<stop offset="1" stop-color="#EB00FF" stop-opacity="0"/>
</linearGradient>
<clipPath id="clip0_6878_109128">
<rect width="488" height="356" fill="white" transform="translate(84.001 70.0002)"/>
</clipPath>
</defs>
</svg>
