<svg width="1360" height="745" viewBox="0 0 1360 745" fill="none" xmlns="http://www.w3.org/2000/svg">
<path d="M1345.14 744.448H14.861C6.67125 744.448 0 737.774 0 729.581V14.8666C0 6.67375 6.67125 0 14.861 0H121.382V3.89518H14.861C8.8128 3.89518 3.89372 8.8161 3.89372 14.8666V729.568C3.89372 735.619 8.8128 740.539 14.861 740.539H1345.14C1351.19 740.539 1356.11 735.619 1356.11 729.568V14.8666C1356.11 8.8161 1351.19 3.89518 1345.14 3.89518H1237.33V0H1345.14C1353.33 0 1360 6.67375 1360 14.8666V729.568C1360 737.774 1353.34 744.448 1345.14 744.448Z" fill="#E9EEF1"/>
<path d="M860.71 0H498.631V3.89518H860.71V0Z" fill="#E9EEF1"/>
<path d="M111.608 487.56C100.147 487.56 90.8281 478.238 90.8281 466.773C90.8281 455.308 100.147 445.986 111.608 445.986C123.068 445.986 132.387 455.321 132.387 466.773C132.387 478.225 123.068 487.56 111.608 487.56ZM111.608 447.011C100.718 447.011 91.8535 455.879 91.8535 466.773C91.8535 477.666 100.718 486.534 111.608 486.534C122.497 486.534 131.362 477.666 131.362 466.773C131.362 455.879 122.51 447.011 111.608 447.011Z" fill="#E9EEF1"/>
<path d="M111.609 482.821C102.757 482.821 95.5664 475.628 95.5664 466.773C95.5664 457.918 102.757 450.725 111.609 450.725C120.46 450.725 127.651 457.918 127.651 466.773C127.651 475.628 120.46 482.821 111.609 482.821ZM111.609 451.75C103.328 451.75 96.5918 458.489 96.5918 466.773C96.5918 475.057 103.328 481.795 111.609 481.795C119.889 481.795 126.625 475.057 126.625 466.773C126.625 458.489 119.889 451.75 111.609 451.75Z" fill="#E9EEF1"/>
<path d="M88.5691 542.041C76.5245 525.097 74.9021 500.116 84.5585 479.861C86.3886 476.017 88.5691 472.434 91.061 469.201L91.8657 469.824C89.4257 473.005 87.2711 476.524 85.48 480.302C75.9793 500.233 77.5498 524.811 89.3997 541.457L88.5691 542.041Z" fill="#E9EEF1"/>
<path d="M143.744 469.915C142.446 469.915 141.148 469.448 139.967 468.526C139.734 468.383 139.5 468.253 139.266 468.123C136.878 466.76 134.347 465.76 131.764 465.137L131.998 464.15C134.685 464.799 137.306 465.838 139.772 467.24C139.98 467.357 140.175 467.474 140.382 467.604L140.395 467.591L141.395 468.24L141.382 468.266C142.926 469.149 144.302 468.98 145.25 468.643C146.976 468.019 148.43 466.344 148.78 464.566C149.221 462.306 149.143 459.943 146.054 457.749L143.835 456.451L143.861 456.412C137.865 453.062 131.245 451.439 124.535 451.686L124.496 450.66C131.79 450.4 138.968 452.27 145.392 456.113C145.769 456.321 146.106 456.529 146.418 456.749C146.535 456.827 146.638 456.892 146.755 456.97L146.742 456.983C150.208 459.489 150.26 462.28 149.766 464.76C149.338 466.903 147.664 468.85 145.574 469.59C144.99 469.811 144.367 469.915 143.744 469.915Z" fill="#E9EEF1"/>
<path d="M92.2681 544.066C90.4121 544.066 88.3614 542.781 86.168 538.315L87.0895 537.86C90.2953 544.404 92.8911 543.157 94.2929 542.495C95.5648 541.885 96.707 540.236 97.1483 538.379C97.4208 537.263 97.6285 535.198 96.4085 533.056C87.4399 520.085 86.3237 501.09 93.618 485.768C94.4876 483.938 95.474 482.172 96.5383 480.523L97.3949 481.081C96.3436 482.704 95.3831 484.431 94.5395 486.21C87.5697 500.83 88.4263 518.852 96.5902 531.498C98.1866 533.575 98.7317 536.094 98.1347 538.613C97.6155 540.781 96.2787 542.664 94.7212 543.404C93.9684 543.794 93.1377 544.066 92.2681 544.066Z" fill="#E9EEF1"/>
<path d="M207.133 539.976C180.162 539.976 158.215 518.021 158.215 491.027C158.215 464.033 180.162 442.077 207.133 442.077C234.104 442.077 256.051 464.033 256.051 491.027C256.051 518.021 234.117 539.976 207.133 539.976ZM207.133 443.116C180.721 443.116 159.24 464.618 159.24 491.04C159.24 517.462 180.721 538.964 207.133 538.964C233.545 538.964 255.026 517.462 255.026 491.04C255.026 464.618 233.545 443.116 207.133 443.116Z" fill="#E9EEF1"/>
<path d="M205.225 519.371C188.936 519.371 175.672 506.101 175.672 489.806C175.672 473.499 188.924 460.242 205.225 460.242C221.514 460.242 234.779 473.512 234.779 489.806C234.779 506.101 221.514 519.371 205.225 519.371ZM205.225 461.242C189.495 461.242 176.697 474.044 176.697 489.793C176.697 505.543 189.495 518.345 205.225 518.345C220.956 518.345 233.753 505.543 233.753 489.793C233.753 474.044 220.956 461.242 205.225 461.242Z" fill="#E9EEF1"/>
<path d="M205.16 513.632C192.155 513.632 181.564 503.037 181.564 490.027C181.564 477.017 192.155 466.422 205.16 466.422C218.178 466.422 228.756 477.017 228.756 490.027C228.756 503.037 218.165 513.632 205.16 513.632ZM205.16 467.435C192.713 467.435 182.577 477.576 182.577 490.027C182.577 502.479 192.701 512.619 205.16 512.619C217.607 512.619 227.744 502.479 227.744 490.027C227.744 477.576 217.607 467.435 205.16 467.435Z" fill="#E9EEF1"/>
<path d="M412.216 483.405C404.403 483.405 398.043 477.043 398.043 469.227C398.043 461.41 404.403 455.048 412.216 455.048C420.03 455.048 426.389 461.41 426.389 469.227C426.389 477.043 420.03 483.405 412.216 483.405ZM412.216 456.048C404.961 456.048 399.055 461.956 399.055 469.214C399.055 476.472 404.961 482.38 412.216 482.38C419.471 482.38 425.377 476.472 425.377 469.214C425.377 461.956 419.471 456.048 412.216 456.048Z" fill="#E9EEF1"/>
<path d="M412.956 489.573C405.779 489.573 399.237 485.807 396.291 479.991L399.769 478.225C402.054 482.756 407.232 485.678 412.969 485.678C419.563 485.678 424.495 481.795 425.818 475.537L429.621 476.342C427.908 484.379 421.367 489.573 412.956 489.573Z" fill="#E9EEF1"/>
<path d="M1243.9 487.106C1232.44 487.106 1223.12 477.783 1223.12 466.318C1223.12 454.853 1232.44 445.531 1243.9 445.531C1255.36 445.531 1264.68 454.853 1264.68 466.318C1264.68 477.783 1255.36 487.106 1243.9 487.106ZM1243.9 446.557C1233.01 446.557 1224.15 455.425 1224.15 466.318C1224.15 477.212 1233.01 486.08 1243.9 486.08C1254.79 486.08 1263.65 477.212 1263.65 466.318C1263.67 455.425 1254.8 446.557 1243.9 446.557Z" fill="#E9EEF1"/>
<path d="M1243.9 482.366C1235.05 482.366 1227.86 475.173 1227.86 466.318C1227.86 457.463 1235.05 450.27 1243.9 450.27C1252.75 450.27 1259.94 457.463 1259.94 466.318C1259.94 475.173 1252.75 482.366 1243.9 482.366ZM1243.9 451.283C1235.62 451.283 1228.88 458.021 1228.88 466.305C1228.88 474.589 1235.62 481.328 1243.9 481.328C1252.18 481.328 1258.92 474.589 1258.92 466.305C1258.92 458.021 1252.2 451.283 1243.9 451.283Z" fill="#E9EEF1"/>
<path d="M1266.94 541.573L1266.11 540.976C1277.95 524.33 1279.53 499.752 1270.03 479.821C1268.24 476.043 1266.08 472.524 1263.64 469.343L1264.45 468.72C1266.94 471.953 1269.12 475.537 1270.95 479.38C1280.61 499.648 1279 524.629 1266.94 541.573Z" fill="#E9EEF1"/>
<path d="M1211.78 469.46C1211.15 469.46 1210.53 469.356 1209.92 469.136C1207.85 468.383 1206.16 466.448 1205.73 464.306C1205.24 461.826 1205.3 459.047 1208.75 456.528L1208.74 456.515C1208.86 456.437 1208.96 456.373 1209.08 456.295C1209.39 456.074 1209.74 455.866 1210.1 455.658C1216.53 451.815 1223.71 449.946 1231 450.205L1230.96 451.231C1224.25 450.984 1217.63 452.607 1211.64 455.957L1211.66 455.996L1209.44 457.294C1206.35 459.489 1206.27 461.852 1206.72 464.111C1207.07 465.89 1208.52 467.565 1210.25 468.188C1211.19 468.526 1212.57 468.681 1214.11 467.811L1214.1 467.785L1215.1 467.136L1215.11 467.149C1215.32 467.032 1215.52 466.903 1215.72 466.786C1218.19 465.37 1220.81 464.332 1223.5 463.696L1223.73 464.682C1221.14 465.306 1218.6 466.305 1216.23 467.669C1216 467.798 1215.76 467.941 1215.53 468.084C1214.37 468.98 1213.08 469.46 1211.78 469.46Z" fill="#E9EEF1"/>
<path d="M1263.24 543.612C1262.37 543.612 1261.55 543.326 1260.77 542.963C1259.22 542.222 1257.88 540.34 1257.36 538.171C1256.76 535.653 1257.31 533.121 1258.91 531.056C1267.07 518.41 1267.93 500.388 1260.96 485.768C1260.1 483.976 1259.14 482.25 1258.1 480.64L1258.96 480.081C1260.02 481.73 1261.01 483.496 1261.88 485.327C1269.17 500.648 1268.06 519.643 1259.09 532.614C1257.88 534.757 1258.09 536.821 1258.35 537.938C1258.79 539.794 1259.94 541.443 1261.2 542.054C1262.6 542.716 1265.2 543.962 1268.41 537.418L1269.33 537.873C1267.15 542.326 1265.1 543.612 1263.24 543.612Z" fill="#E9EEF1"/>
<path d="M1148.38 539.522C1121.4 539.522 1099.46 517.566 1099.46 490.572C1099.46 463.579 1121.4 441.623 1148.38 441.623C1175.35 441.623 1197.29 463.579 1197.29 490.572C1197.29 517.566 1175.35 539.522 1148.38 539.522ZM1148.38 442.649C1121.96 442.649 1100.48 464.15 1100.48 490.572C1100.48 516.995 1121.96 538.496 1148.38 538.496C1174.79 538.496 1196.27 516.995 1196.27 490.572C1196.27 464.15 1174.79 442.649 1148.38 442.649Z" fill="#E9EEF1"/>
<path d="M1150.3 518.903C1134.01 518.903 1120.74 505.634 1120.74 489.339C1120.74 473.031 1133.99 459.774 1150.3 459.774C1166.58 459.774 1179.85 473.044 1179.85 489.339C1179.85 505.647 1166.58 518.903 1150.3 518.903ZM1150.3 460.787C1134.56 460.787 1121.77 473.589 1121.77 489.339C1121.77 505.088 1134.56 517.891 1150.3 517.891C1166.03 517.891 1178.82 505.088 1178.82 489.339C1178.82 473.589 1166.03 460.787 1150.3 460.787Z" fill="#E9EEF1"/>
<path d="M1150.36 513.177C1137.34 513.177 1126.77 502.582 1126.77 489.573C1126.77 476.563 1137.36 465.968 1150.36 465.968C1163.37 465.968 1173.96 476.563 1173.96 489.573C1173.96 502.582 1163.37 513.177 1150.36 513.177ZM1150.36 466.968C1137.91 466.968 1127.78 477.108 1127.78 489.56C1127.78 502.011 1137.9 512.152 1150.36 512.152C1162.81 512.152 1172.95 502.011 1172.95 489.56C1172.95 477.108 1162.81 466.968 1150.36 466.968Z" fill="#E9EEF1"/>
<path d="M943.306 482.938C935.493 482.938 929.133 476.576 929.133 468.759C929.133 460.943 935.493 454.581 943.306 454.581C951.119 454.581 957.479 460.943 957.479 468.759C957.479 476.576 951.119 482.938 943.306 482.938ZM943.306 455.594C936.051 455.594 930.145 461.501 930.145 468.759C930.145 476.017 936.051 481.925 943.306 481.925C950.561 481.925 956.467 476.017 956.467 468.759C956.454 461.501 950.561 455.594 943.306 455.594Z" fill="#E9EEF1"/>
<path d="M942.566 489.118C934.156 489.118 927.614 483.925 925.914 475.888L929.717 475.083C931.041 481.341 935.973 485.223 942.566 485.223C948.29 485.223 953.469 482.302 955.766 477.77L959.244 479.536C956.285 485.353 949.744 489.118 942.566 489.118Z" fill="#E9EEF1"/>
<path d="M289.642 506.062C281.114 500.934 272.367 494.883 263.904 489.027C239.114 471.875 215.687 455.685 197.88 461.216C193.83 462.475 186.782 464.215 178.632 466.24C161.253 470.551 137.462 476.459 129.545 481.107C117.786 488.001 108.064 488.781 100.64 483.405C81.4702 469.512 79.5004 417.448 94.501 322.448C108.501 253.448 114.001 226.948 124.374 187.397L125.373 187.618C124.802 190.241 56.1999 449.933 101.25 482.574C108.311 487.69 117.656 486.898 129.039 480.224C137.086 475.511 159.994 469.824 178.398 465.254C186.536 463.228 193.571 461.488 197.594 460.242C215.882 454.568 239.503 470.902 264.501 488.196C272.951 494.039 281.686 500.077 290.174 505.192L289.642 506.062Z" fill="url(#paint0_linear_7409_93787)"/>
<path d="M515.594 483.392C499.098 479.458 480.681 473.758 464.444 468.733C438.81 460.8 416.694 453.945 408.387 455.594C399.925 457.269 390.035 468.422 379.794 480.679L379.016 480.029C389.373 467.617 399.393 456.334 408.193 454.594C416.746 452.906 438.992 459.787 464.755 467.76C480.979 472.784 499.371 478.471 515.841 482.406L515.594 483.392Z" fill="url(#paint1_linear_7409_93787)"/>
<path d="M755.578 482.886L755.098 481.99L758.057 480.406C763.794 477.355 770.283 473.888 775.747 470.097C783.055 465.007 791.997 460.554 801.602 457.191C822.796 449.79 935.598 447.635 948.797 454.373C957.091 458.606 969.084 466.877 981.699 477.069L981.063 477.861C968.5 467.708 956.572 459.476 948.33 455.282C935.221 448.582 823.03 450.79 801.939 458.152C792.412 461.475 783.561 465.89 776.331 470.928C770.828 474.758 764.3 478.238 758.537 481.302L755.578 482.886Z" fill="url(#paint2_linear_7409_93787)"/>
<path d="M1071.53 514.709L1071.06 513.801C1085.49 506.4 1100.96 493.351 1111.4 483.717L1114.79 480.588C1116.84 478.692 1118.82 476.848 1120.73 475.108C1121.73 474.187 1124 472.641 1125.83 471.395C1126.48 470.954 1127.05 470.564 1127.45 470.265L1128.05 471.096C1127.64 471.382 1127.07 471.784 1126.42 472.226C1124.72 473.394 1122.38 474.992 1121.43 475.848C1119.51 477.601 1117.53 479.432 1115.49 481.328L1112.1 484.457C1101.61 494.143 1086.06 507.257 1071.53 514.709Z" fill="url(#paint3_linear_7409_93787)"/>
<path d="M1245.2 488.157C1242.77 488.157 1240.16 487.807 1237.36 487.093C1210.65 480.289 1189.77 475.524 1173.52 472.512L1173.7 471.512C1189.96 474.511 1210.87 479.289 1237.61 486.106C1245.33 488.08 1251.6 487.223 1256.24 483.587C1263.8 477.679 1264.86 466.383 1264.82 460.177C1264.75 447.66 1236.36 166.454 1236.07 163.611L1237.09 163.507C1237.37 166.35 1265.76 447.609 1265.84 460.164C1265.9 471.2 1262.72 479.796 1256.87 484.379C1253.67 486.898 1249.77 488.157 1245.2 488.157Z" fill="url(#paint4_linear_7409_93787)"/>
<path d="M1070.5 464.124H981.58V465.15H1070.5V464.124Z" fill="#E9EEF1"/>
<path d="M1070.5 558.764H981.58V559.79H1070.5V558.764Z" fill="#E9EEF1"/>
<path d="M982.1 464.63H981.074V559.556H982.1V464.63Z" fill="#E9EEF1"/>
<path d="M1071.6 464.773H1070.58V560.231H1071.6V464.773Z" fill="#E9EEF1"/>
<path d="M978.557 499.518H977.531V555.998H978.557V499.518Z" fill="#E9EEF1"/>
<path d="M1074.37 503.621H1073.34V560.101H1074.37V503.621Z" fill="#E9EEF1"/>
<path d="M785.948 528.473H785.857L572.545 528.265L572.468 528.239L515.84 507.815V399.295L515.957 399.152L525.847 387.233H837.851L845.327 398.023V507.815L785.948 528.473ZM572.727 527.252L785.779 527.46L844.314 507.101V398.347L837.319 388.259H526.314L516.852 399.672V507.101L572.727 527.252Z" fill="#E9EEF1"/>
<path d="M697.353 518.903H697.236L579.503 517.358L530.131 496.428C524.926 494.221 521.564 489.144 521.564 483.496V435.476C521.564 428.633 527.119 423.076 533.959 423.076H745.441C750.853 423.076 755.253 427.478 755.253 432.892V482.925C755.253 488.923 751.722 494.39 746.258 496.844L697.353 518.903ZM579.711 516.346L697.132 517.891L745.843 495.935C750.944 493.637 754.24 488.534 754.24 482.938V432.905C754.24 428.049 750.295 424.102 745.441 424.102H533.959C527.691 424.102 522.59 429.205 522.59 435.476V483.496C522.59 488.742 525.705 493.455 530.533 495.493L579.711 516.346Z" fill="#E9EEF1"/>
<path d="M697.353 511.022H697.236L579.503 509.477L530.131 488.547C524.926 486.34 521.564 481.263 521.564 475.615V434.476H522.59V475.615C522.59 480.86 525.705 485.574 530.533 487.612L579.724 508.451L697.145 509.996L745.856 488.041C750.957 485.742 754.253 480.64 754.253 475.044V431.892H755.279V475.044C755.279 481.042 751.748 486.508 746.284 488.962L697.353 511.022Z" fill="#E9EEF1"/>
<path d="M697.353 490.858H697.236L579.503 489.313L530.131 468.383C524.926 466.176 521.564 461.099 521.564 455.451V434.476H522.59V455.451C522.59 460.696 525.705 465.41 530.533 467.448L579.724 488.287L697.145 489.832L745.856 467.877C750.957 465.578 754.253 460.476 754.253 454.88V431.905H755.279V454.88C755.279 460.878 751.748 466.344 746.284 468.811L697.353 490.858Z" fill="#E9EEF1"/>
<path d="M743.144 409.929H530.936V413.824H743.144V409.929Z" fill="url(#paint5_linear_7409_93787)"/>
<path d="M802.899 518.903C787.117 518.903 774.268 506.049 774.268 490.261C774.268 474.472 787.117 461.618 802.899 461.618C818.682 461.618 831.531 474.472 831.531 490.261C831.531 506.049 818.695 518.903 802.899 518.903ZM802.899 462.644C787.675 462.644 775.28 475.031 775.28 490.274C775.28 505.517 787.662 517.904 802.899 517.904C818.137 517.904 830.519 505.517 830.519 490.274C830.519 475.031 818.124 462.644 802.899 462.644Z" fill="#E9EEF1"/>
<path d="M802.913 511.399C802.472 511.399 802.018 511.386 801.576 511.36C789.441 510.633 780.161 500.155 780.901 488.015C781.251 482.133 783.873 476.745 788.286 472.836C792.699 468.928 798.358 466.968 804.237 467.331C816.373 468.058 825.653 478.536 824.926 490.676C824.212 502.362 814.478 511.399 802.913 511.399ZM802.874 468.292C797.735 468.292 792.829 470.149 788.961 473.589C784.756 477.316 782.251 482.457 781.913 488.067C781.212 499.648 790.064 509.633 801.641 510.334C813.232 511.022 823.2 502.18 823.9 490.598C824.601 479.017 815.75 469.032 804.172 468.331C803.744 468.305 803.303 468.292 802.874 468.292Z" fill="#E9EEF1"/>
<path d="M773.384 467.422C763.299 467.422 755.109 459.216 755.109 449.141C755.109 439.052 763.312 430.859 773.384 430.859C783.469 430.859 791.659 439.065 791.659 449.141C791.659 459.216 783.456 467.422 773.384 467.422ZM773.384 431.859C763.87 431.859 756.122 439.61 756.122 449.128C756.122 458.645 763.87 466.396 773.384 466.396C782.898 466.396 790.646 458.645 790.646 449.128C790.646 439.61 782.898 431.859 773.384 431.859Z" fill="#E9EEF1"/>
<path d="M773.385 458.463C770.996 458.463 768.608 457.554 766.778 455.736C763.144 452.101 763.144 446.167 766.778 442.532C770.425 438.896 776.344 438.896 779.978 442.532C783.612 446.167 783.612 452.101 779.978 455.736C778.161 457.554 775.773 458.463 773.385 458.463ZM773.385 443.687C771.996 443.687 770.594 444.22 769.543 445.284C767.427 447.401 767.427 450.868 769.543 452.984C771.658 455.1 775.124 455.1 777.239 452.984C779.355 450.868 779.355 447.401 777.239 445.284C776.162 444.22 774.773 443.687 773.385 443.687Z" fill="#E9EEF1"/>
<path d="M841.668 394.354L840.643 394.36L841.292 508.619L842.317 508.613L841.668 394.354Z" fill="#E9EEF1"/>
<path d="M378.898 463.098H289.979V464.124H378.898V463.098Z" fill="#E9EEF1"/>
<path d="M378.898 557.738H289.979V558.764H378.898V557.738Z" fill="#E9EEF1"/>
<path d="M379.416 463.605H378.391V558.53H379.416V463.605Z" fill="#E9EEF1"/>
<path d="M289.912 463.76H288.887V559.218H289.912V463.76Z" fill="#E9EEF1"/>
<path d="M382.961 498.493H381.936V554.973H382.961V498.493Z" fill="#E9EEF1"/>
<path d="M287.148 502.595H286.123V559.076H287.148V502.595Z" fill="#E9EEF1"/>
<path d="M620.193 323.962H607.059V298.371H620.193V323.962ZM608.084 322.937H619.181V299.384H608.084V322.937Z" fill="#E9EEF1"/>
<path d="M607.565 321.379H604.463V295.8H620.194V320.872H619.168V296.813H605.488V320.366H607.565V321.379Z" fill="#E9EEF1"/>
<path d="M667.748 323.547H654.613V297.956H667.748V323.547ZM655.639 322.521H666.736V298.981H655.639V322.521Z" fill="#E9EEF1"/>
<path d="M655.133 320.963H652.018V295.385H667.748V320.457H666.736V296.398H653.043V319.95H655.133V320.963Z" fill="#E9EEF1"/>
<path d="M715.043 323.664H701.908V298.073H715.043V323.664ZM702.934 322.651H714.031V299.098H702.934V322.651Z" fill="#E9EEF1"/>
<path d="M702.428 321.093H699.326V295.502H715.044V320.574H714.031V296.527H700.339V320.067H702.428V321.093Z" fill="#E9EEF1"/>
<path d="M762.611 323.248H749.477V297.67H762.611V323.248ZM750.489 322.236H761.586V298.696H750.489V322.236Z" fill="#E9EEF1"/>
<path d="M749.983 320.665H746.881V295.086H762.611V320.158H761.586V296.099H747.893V319.652H749.983V320.665Z" fill="#E9EEF1"/>
<path d="M660.687 281.842C658.052 281.842 655.924 279.7 655.924 277.077C655.924 274.455 658.065 272.312 660.687 272.312C663.309 272.312 665.451 274.455 665.451 277.077C665.451 279.7 663.309 281.842 660.687 281.842ZM660.687 273.325C658.623 273.325 656.936 275.013 656.936 277.077C656.936 279.142 658.623 280.83 660.687 280.83C662.751 280.83 664.438 279.142 664.438 277.077C664.438 275.013 662.751 273.325 660.687 273.325Z" fill="#E9EEF1"/>
<path d="M625.293 281.739H595.883V282.764H625.293V281.739Z" fill="#E9EEF1"/>
<path d="M673.329 288.672H645.139V289.698H673.329V288.672Z" fill="#E9EEF1"/>
<path d="M711.695 280.83H699.832V281.855H711.695V280.83Z" fill="#E9EEF1"/>
<path d="M711.695 287.958H699.832V288.983H711.695V287.958Z" fill="#E9EEF1"/>
<path d="M760.677 282.453H748.814V283.478H760.677V282.453Z" fill="#E9EEF1"/>
<path d="M760.677 289.581H748.814V290.607H760.677V289.581Z" fill="#E9EEF1"/>
<path d="M620.985 288.412H606.279V289.438H620.985V288.412Z" fill="#E9EEF1"/>
<path d="M1335.35 42.9377C1330.86 42.9377 1327.2 39.2762 1327.2 34.7838C1327.2 30.2914 1330.86 26.6299 1335.35 26.6299C1339.84 26.6299 1343.5 30.2914 1343.5 34.7838C1343.5 39.2762 1339.84 42.9377 1335.35 42.9377ZM1335.35 30.538C1333 30.538 1331.09 32.4467 1331.09 34.7968C1331.09 37.1469 1333 39.0555 1335.35 39.0555C1337.7 39.0555 1339.61 37.1469 1339.61 34.7968C1339.61 32.4467 1337.7 30.538 1335.35 30.538Z" fill="#E9EEF1"/>
<path d="M1335.35 725.569C1330.86 725.569 1327.2 721.907 1327.2 717.415C1327.2 712.922 1330.86 709.261 1335.35 709.261C1339.84 709.261 1343.5 712.922 1343.5 717.415C1343.5 721.907 1339.84 725.569 1335.35 725.569ZM1335.35 713.156C1333 713.156 1331.09 715.065 1331.09 717.415C1331.09 719.765 1333 721.673 1335.35 721.673C1337.7 721.673 1339.61 719.765 1339.61 717.415C1339.61 715.065 1337.7 713.156 1335.35 713.156Z" fill="#E9EEF1"/>
<path d="M680.596 218.909C665.515 218.909 653.236 206.639 653.236 191.539C653.236 176.439 665.502 164.169 680.596 164.169C695.691 164.169 707.956 176.439 707.956 191.539C707.956 206.639 695.678 218.909 680.596 218.909ZM680.596 165.195C666.073 165.195 654.262 177.01 654.262 191.539C654.262 206.068 666.073 217.884 680.596 217.884C695.12 217.884 706.931 206.068 706.931 191.539C706.931 177.01 695.12 165.195 680.596 165.195Z" fill="#E9EEF1"/>
<path d="M656.078 178.425L641.334 169.947L641.658 169.375L656.403 177.854L656.078 178.425Z" fill="#E9EEF1"/>
<path d="M651.549 157.77L651.055 158.19L662.064 171.153L662.558 170.733L651.549 157.77Z" fill="#E9EEF1"/>
<path d="M664.642 150.057L664.035 150.287L670.059 166.192L670.666 165.962L664.642 150.057Z" fill="#E9EEF1"/>
<path d="M679.645 147.308L678.996 147.321L679.338 164.327L679.987 164.314L679.645 147.308Z" fill="#E9EEF1"/>
<path d="M694.063 149.518L688.656 165.644L689.272 165.85L694.678 149.724L694.063 149.518Z" fill="#E9EEF1"/>
<path d="M707.498 156.658L696.99 170.031L697.5 170.432L708.008 157.059L707.498 156.658Z" fill="#E9EEF1"/>
<path d="M717.786 167.923L703.389 176.97L703.734 177.519L718.132 168.472L717.786 167.923Z" fill="#E9EEF1"/>
<path d="M723.634 181.907L707.043 185.625L707.185 186.258L723.776 182.54L723.634 181.907Z" fill="#E9EEF1"/>
<path d="M724.453 197.784L707.58 195.681L707.658 195.045L724.531 197.135L724.453 197.784Z" fill="#E9EEF1"/>
<path d="M704.983 204.06L704.691 204.64L719.885 212.276L720.176 211.696L704.983 204.06Z" fill="#E9EEF1"/>
<path d="M699.47 211.7L699 212.148L710.735 224.455L711.205 224.007L699.47 211.7Z" fill="#E9EEF1"/>
<path d="M691.702 217.08L691.109 217.344L698.026 232.882L698.619 232.618L691.702 217.08Z" fill="#E9EEF1"/>
<path d="M663.919 233.516L663.309 233.269L669.629 217.481L670.239 217.728L663.919 233.516Z" fill="#E9EEF1"/>
<path d="M661.641 212.458L650.389 225.21L650.875 225.639L662.128 212.888L661.641 212.458Z" fill="#E9EEF1"/>
<path d="M641.296 213.832L640.984 213.261L655.858 205.042L656.183 205.614L641.296 213.832Z" fill="#E9EEF1"/>
<path d="M636.182 199.511L636.078 198.862L652.847 196.109L652.951 196.746L636.182 199.511Z" fill="#E9EEF1"/>
<path d="M636.353 183.648L636.236 184.287L652.96 187.352L653.077 186.713L636.353 183.648Z" fill="#E9EEF1"/>
<path d="M680.26 214.443C667.501 214.443 657.131 204.069 657.131 191.305C657.131 178.542 667.501 168.168 680.26 168.168C693.018 168.168 703.388 178.542 703.388 191.305C703.388 204.069 693.005 214.443 680.26 214.443ZM680.26 169.181C668.072 169.181 658.156 179.1 658.156 191.292C658.156 203.484 668.072 213.404 680.26 213.404C692.447 213.404 702.376 203.484 702.376 191.292C702.376 179.1 692.447 169.181 680.26 169.181Z" fill="url(#paint6_linear_7409_93787)"/>
<path d="M654.782 241.852C653.756 243.605 652.212 244.682 650.512 243.695C648.811 242.709 648.98 240.839 650.005 239.073C651.031 237.32 652.575 236.256 654.263 237.242C655.963 238.229 655.807 240.086 654.782 241.852ZM653.86 237.957C652.679 237.268 651.628 238.242 650.862 239.554C650.096 240.878 649.759 242.28 650.94 242.968C652.121 243.656 653.172 242.683 653.951 241.358C654.704 240.034 655.041 238.645 653.86 237.957Z" fill="#E9EEF1"/>
<path d="M633.535 224.921L632.873 225.336C632.12 224.233 631.666 224.22 630.887 224.583L630.498 223.973L636.533 220.117L637.04 220.909L632.432 223.856C632.847 223.947 633.185 224.375 633.535 224.921Z" fill="#E9EEF1"/>
<path d="M625.981 194.863C625.176 193.539 624.916 192.915 623.878 192.928C623.281 192.941 622.554 193.175 622.567 194.279C622.58 195.538 623.437 195.85 624.423 195.837L624.436 196.811C622.957 196.837 621.762 196.045 621.736 194.266C621.724 193.045 622.476 191.968 623.852 191.942C625.241 191.916 625.929 193.032 626.539 194.071C627.019 194.876 627.473 195.642 628.226 195.824H628.252L628.187 191.981L629.018 191.968L629.096 196.94C627.811 196.966 626.772 196.161 625.981 194.863Z" fill="#E9EEF1"/>
<path d="M631.381 171.479L631.835 170.609C632.757 171.089 633.587 171.024 634.21 169.83C634.781 168.739 634.522 168.142 633.795 167.752C632.835 167.246 632.263 167.83 631.939 168.453L631.589 169.129L630.849 168.739L631.186 168.09C631.524 167.441 631.459 166.818 630.732 166.428C630.213 166.155 629.551 166.207 629.097 167.077C628.448 168.324 628.993 168.908 629.629 169.233L629.174 170.102C628.006 169.492 627.539 168.272 628.357 166.701C628.928 165.61 630.057 164.987 631.186 165.571C631.861 165.922 632.108 166.48 632.03 167.259L632.043 167.272C632.757 166.558 633.509 166.493 634.249 166.882C635.469 167.519 635.703 168.778 634.989 170.141C634.132 171.777 632.809 172.232 631.381 171.479Z" fill="#E9EEF1"/>
<path d="M652.964 148.601L650.017 150.419L649.576 149.718L650.082 143.94L650.874 143.447L653.314 147.42L654.158 146.9L654.599 147.601L653.755 148.121L654.638 149.549L653.846 150.042L652.964 148.601ZM652.522 147.9L650.757 145.031L650.394 149.211L652.522 147.9Z" fill="#E9EEF1"/>
<path d="M676.404 140.941L677.378 140.928C677.469 141.629 677.858 142.304 678.974 142.291C679.961 142.278 680.609 141.655 680.584 140.499C680.571 139.421 679.948 138.967 679.026 138.98C678.377 138.993 677.819 139.201 677.469 139.681L676.469 139.694L677.157 135.825L681.103 135.773L681.116 136.604L677.923 136.643L677.533 138.824V138.85C677.897 138.435 678.429 138.175 679.221 138.162C680.571 138.149 681.531 139.175 681.544 140.499C681.57 142.044 680.454 143.109 679 143.135C677.391 143.148 676.456 142.096 676.404 140.941Z" fill="#E9EEF1"/>
<path d="M702.556 144.368C703.621 142.343 705.139 141.512 706.71 142.33C707.891 142.953 708.202 144.148 707.8 145.121L706.93 144.667C707.177 144.005 707.021 143.434 706.32 143.07C705.022 142.395 704.075 143.486 703.452 144.667L703.413 144.745L703.426 144.758C704.075 144.329 704.867 144.342 705.593 144.719C706.814 145.355 707.216 146.641 706.554 147.9C705.944 149.082 704.581 149.64 703.205 148.926C701.466 148.017 701.492 146.394 702.556 144.368ZM703.582 148.199C704.451 148.653 705.204 148.354 705.645 147.511C706.126 146.602 705.879 145.823 705.113 145.433C704.192 144.953 703.309 145.225 702.868 146.082C702.452 146.9 702.673 147.718 703.582 148.199Z" fill="#E9EEF1"/>
<path d="M728.775 164.714L728.788 164.701L726.712 161.364L727.413 160.923L730.034 165.143L729.411 165.532C727.387 164.87 724.349 165.208 722.377 166.428L721.857 165.584C723.921 164.325 727.14 164.234 728.775 164.714Z" fill="#E9EEF1"/>
<path d="M732.019 187.514C733.018 187.449 733.537 188.059 733.888 188.722H733.914C734.148 188.202 734.576 187.709 735.381 187.657C736.614 187.579 737.405 188.475 737.496 189.851C737.587 191.214 736.925 192.214 735.692 192.305C734.887 192.357 734.394 191.929 734.096 191.448H734.07C733.81 192.136 733.369 192.824 732.382 192.889C730.942 192.98 730.15 191.877 730.046 190.345C729.942 188.812 730.578 187.618 732.019 187.514ZM730.877 190.293C730.942 191.357 731.461 191.968 732.343 191.916C733.213 191.864 733.641 191.188 733.576 190.111C733.512 189.046 732.979 188.436 732.123 188.488C731.227 188.553 730.799 189.228 730.877 190.293ZM734.407 190.059C734.459 190.89 734.822 191.383 735.627 191.331C736.406 191.279 736.717 190.734 736.665 189.903C736.614 189.072 736.224 188.579 735.445 188.631C734.641 188.696 734.355 189.228 734.407 190.059Z" fill="#E9EEF1"/>
<path d="M727.386 215.507L726.932 216.377C726.27 216.144 725.699 216.287 725.336 217.001C724.661 218.299 725.764 219.247 726.945 219.857L727.023 219.896L727.036 219.883C726.595 219.234 726.608 218.442 726.984 217.715C727.607 216.494 728.892 216.079 730.151 216.741C731.332 217.351 731.903 218.702 731.189 220.091C730.281 221.831 728.658 221.818 726.633 220.766C724.609 219.714 723.765 218.195 724.583 216.624C725.219 215.43 726.413 215.118 727.386 215.507ZM727.711 218.169C727.231 219.091 727.516 219.974 728.373 220.415C729.19 220.844 730.008 220.623 730.488 219.701C730.943 218.818 730.644 218.078 729.787 217.637C728.879 217.169 728.1 217.416 727.711 218.169Z" fill="#E9EEF1"/>
<path d="M712.265 237.035C713.407 238.723 713.692 240.579 712.07 241.683C710.448 242.787 708.825 241.813 707.683 240.125C706.541 238.437 706.268 236.58 707.891 235.49C709.513 234.386 711.123 235.347 712.265 237.035ZM708.358 236.178C707.216 236.944 707.644 238.32 708.501 239.58C709.357 240.852 710.474 241.761 711.616 240.995C712.758 240.229 712.33 238.852 711.473 237.58C710.616 236.308 709.487 235.399 708.358 236.178Z" fill="#E9EEF1"/>
<path d="M668.137 122.49H669.071V129.086H672.965V129.917H668.137V122.49Z" fill="#E9EEF1"/>
<path d="M673.887 122.49H674.821V129.917H673.887V122.49Z" fill="#E9EEF1"/>
<path d="M676.365 122.49H677.507L681.206 128.58H681.232V122.49H682.167V129.917H681.025L677.326 123.828H677.3V129.917H676.365V122.49Z" fill="#E9EEF1"/>
<path d="M683.699 122.49H688.839V123.321H684.634V125.659H688.333V126.49H684.634V129.086H688.956V129.917H683.699V122.49Z" fill="#E9EEF1"/>
<path d="M629.018 145.745C626.241 145.745 623.982 143.486 623.982 140.707C623.982 137.928 626.241 135.669 629.018 135.669C631.796 135.669 634.054 137.928 634.054 140.707C634.054 143.486 631.783 145.745 629.018 145.745ZM629.018 136.695C626.812 136.695 625.008 138.5 625.008 140.707C625.008 142.914 626.812 144.719 629.018 144.719C631.225 144.719 633.029 142.914 633.029 140.707C633.029 138.5 631.225 136.695 629.018 136.695Z" fill="#E9EEF1"/>
<path d="M629.03 142.356C628.121 142.356 627.395 141.616 627.395 140.72C627.395 139.824 628.134 139.084 629.03 139.084C629.925 139.084 630.665 139.824 630.665 140.72C630.665 141.616 629.938 142.356 629.03 142.356ZM629.03 140.084C628.692 140.084 628.407 140.356 628.407 140.707C628.407 141.058 628.679 141.33 629.03 141.33C629.38 141.33 629.653 141.058 629.653 140.707C629.653 140.356 629.367 140.084 629.03 140.084Z" fill="#E9EEF1"/>
<path d="M642.802 140.201H620.166V141.226H642.802V140.201Z" fill="#E9EEF1"/>
<path d="M644.1 142.018C643.192 142.018 642.465 141.278 642.465 140.382C642.465 139.486 643.205 138.746 644.1 138.746C645.009 138.746 645.736 139.486 645.736 140.382C645.736 141.278 645.009 142.018 644.1 142.018ZM644.1 139.759C643.763 139.759 643.477 140.032 643.477 140.382C643.477 140.733 643.75 141.006 644.1 141.006C644.451 141.006 644.723 140.733 644.723 140.382C644.723 140.032 644.438 139.759 644.1 139.759Z" fill="#E9EEF1"/>
<path d="M1126.09 683.696C1110.46 683.696 1097.74 670.971 1097.74 655.339C1097.74 639.706 1110.46 626.982 1126.09 626.982C1141.72 626.982 1154.44 639.706 1154.44 655.339C1154.44 670.971 1141.72 683.696 1126.09 683.696ZM1126.09 627.994C1111.02 627.994 1098.76 640.264 1098.76 655.339C1098.76 670.413 1111.02 682.683 1126.09 682.683C1141.16 682.683 1153.42 670.413 1153.42 655.339C1153.42 640.264 1141.16 627.994 1126.09 627.994Z" fill="#E9EEF1"/>
<path d="M1100.67 641.706L1085.39 632.915L1085.71 632.357L1100.99 641.147L1100.67 641.706Z" fill="#E9EEF1"/>
<path d="M1095.97 620.341L1095.47 620.761L1106.89 634.198L1107.38 633.778L1095.97 620.341Z" fill="#E9EEF1"/>
<path d="M1115.19 629.059L1108.95 612.57L1109.56 612.349L1115.8 628.839L1115.19 629.059Z" fill="#E9EEF1"/>
<path d="M1125.05 609.528L1124.4 609.541L1124.75 627.169L1125.4 627.156L1125.05 609.528Z" fill="#E9EEF1"/>
<path d="M1135.06 628.67L1134.44 628.462L1140.06 611.752L1140.68 611.959L1135.06 628.67Z" fill="#E9EEF1"/>
<path d="M1154 619.158L1143.1 633.02L1143.61 633.421L1154.51 619.559L1154 619.158Z" fill="#E9EEF1"/>
<path d="M1150.07 640.758L1149.72 640.199L1164.65 630.825L1164.99 631.37L1150.07 640.758Z" fill="#E9EEF1"/>
<path d="M1170.72 645.336L1153.52 649.191L1153.66 649.824L1170.86 645.97L1170.72 645.336Z" fill="#E9EEF1"/>
<path d="M1171.56 661.792L1154.07 659.61L1154.15 658.974L1171.65 661.142L1171.56 661.792Z" fill="#E9EEF1"/>
<path d="M1151.37 668.313L1151.08 668.893L1166.83 676.808L1167.12 676.228L1151.37 668.313Z" fill="#E9EEF1"/>
<path d="M1157.37 689.486L1145.21 676.723L1145.68 676.282L1157.84 689.045L1157.37 689.486Z" fill="#E9EEF1"/>
<path d="M1137.59 681.758L1137 682.022L1144.17 698.129L1144.76 697.865L1137.59 681.758Z" fill="#E9EEF1"/>
<path d="M1108.78 698.848L1108.18 698.601L1114.73 682.229L1115.33 682.475L1108.78 698.848Z" fill="#E9EEF1"/>
<path d="M1095.25 690.707L1094.77 690.278L1106.43 677.061L1106.92 677.489L1095.25 690.707Z" fill="#E9EEF1"/>
<path d="M1085.32 678.437L1085.01 677.866L1100.44 669.348L1100.76 669.907L1085.32 678.437Z" fill="#E9EEF1"/>
<path d="M1080.03 663.57L1079.92 662.934L1097.32 660.065L1097.42 660.714L1080.03 663.57Z" fill="#E9EEF1"/>
<path d="M1080.19 647.177L1080.07 647.815L1097.41 650.993L1097.53 650.354L1080.19 647.177Z" fill="#E9EEF1"/>
<path d="M1125.73 679.06C1112.51 679.06 1101.77 668.31 1101.77 655.092C1101.77 641.874 1112.51 631.124 1125.73 631.124C1138.94 631.124 1149.69 641.874 1149.69 655.092C1149.69 668.31 1138.95 679.06 1125.73 679.06ZM1125.73 632.123C1113.07 632.123 1102.78 642.42 1102.78 655.079C1102.78 667.738 1113.07 678.035 1125.73 678.035C1138.38 678.035 1148.67 667.738 1148.67 655.079C1148.67 642.42 1138.38 632.123 1125.73 632.123Z" fill="url(#paint7_linear_7409_93787)"/>
<path d="M1099.3 707.495C1098.24 709.313 1096.63 710.416 1094.88 709.391C1093.12 708.365 1093.29 706.43 1094.36 704.6C1095.42 702.782 1097.02 701.678 1098.78 702.704C1100.54 703.743 1100.37 705.677 1099.3 707.495ZM1098.34 703.457C1097.12 702.743 1096.03 703.756 1095.23 705.119C1094.44 706.482 1094.08 707.937 1095.3 708.651C1096.52 709.365 1097.63 708.352 1098.42 706.989C1099.22 705.625 1099.57 704.184 1098.34 703.457Z" fill="#E9EEF1"/>
<path d="M1077.24 689.915L1076.56 690.343C1075.78 689.201 1075.32 689.188 1074.5 689.564L1074.1 688.928L1080.36 684.929L1080.88 685.747L1076.11 688.798C1076.54 688.902 1076.89 689.344 1077.24 689.915Z" fill="#E9EEF1"/>
<path d="M1069.44 658.688C1068.61 657.312 1068.35 656.676 1067.26 656.689C1066.63 656.702 1065.88 656.949 1065.89 658.091C1065.91 659.39 1066.79 659.727 1067.81 659.714L1067.83 660.727C1066.28 660.753 1065.06 659.922 1065.04 658.091C1065.02 656.819 1065.82 655.715 1067.23 655.689C1068.67 655.663 1069.39 656.819 1070.02 657.896C1070.51 658.727 1070.99 659.519 1071.77 659.714H1071.8L1071.75 655.728L1072.6 655.715L1072.68 660.87C1071.33 660.87 1070.25 660.039 1069.44 658.688Z" fill="#E9EEF1"/>
<path d="M1075.08 634.422L1075.55 633.526C1076.5 634.032 1077.37 633.967 1078.02 632.721C1078.61 631.591 1078.34 630.968 1077.59 630.578C1076.6 630.059 1076.01 630.656 1075.67 631.292L1075.29 631.994L1074.53 631.591L1074.88 630.929C1075.23 630.254 1075.17 629.605 1074.41 629.202C1073.88 628.916 1073.18 628.968 1072.71 629.864C1072.03 631.15 1072.6 631.76 1073.25 632.097L1072.79 632.993C1071.58 632.357 1071.1 631.098 1071.96 629.462C1072.55 628.332 1073.72 627.683 1074.89 628.306C1075.59 628.67 1075.85 629.241 1075.76 630.059L1075.77 630.072C1076.51 629.332 1077.29 629.267 1078.06 629.682C1079.31 630.345 1079.55 631.656 1078.81 633.058C1077.95 634.733 1076.58 635.201 1075.08 634.422Z" fill="#E9EEF1"/>
<path d="M1097.54 610.752L1094.47 612.622L1094.02 611.881L1094.56 605.883L1095.4 605.376L1097.91 609.505L1098.78 608.973L1099.22 609.713L1098.35 610.245L1099.26 611.739L1098.43 612.245L1097.54 610.752ZM1097.08 610.012L1095.27 607.025L1094.86 611.362L1097.08 610.012Z" fill="#E9EEF1"/>
<path d="M1121.9 602.845L1122.91 602.832C1123 603.559 1123.4 604.26 1124.56 604.247C1125.58 604.234 1126.26 603.598 1126.25 602.403C1126.23 601.286 1125.6 600.819 1124.64 600.832C1123.98 600.845 1123.39 601.066 1123.01 601.546L1121.98 601.559L1122.7 597.547L1126.79 597.495L1126.8 598.352L1123.49 598.391L1123.08 600.65V600.676C1123.46 600.248 1124.01 599.975 1124.84 599.962C1126.25 599.949 1127.23 601.014 1127.25 602.39C1127.26 604 1126.1 605.091 1124.6 605.117C1122.91 605.13 1121.95 604.052 1121.9 602.845Z" fill="#E9EEF1"/>
<path d="M1149.04 606.506C1150.14 604.416 1151.74 603.559 1153.35 604.416C1154.57 605.065 1154.88 606.298 1154.48 607.311L1153.58 606.844C1153.83 606.156 1153.69 605.571 1152.95 605.182C1151.61 604.468 1150.61 605.61 1149.97 606.831L1149.92 606.922L1149.93 606.948C1150.61 606.506 1151.43 606.519 1152.18 606.922C1153.44 607.584 1153.85 608.921 1153.17 610.22C1152.52 611.44 1151.12 612.024 1149.69 611.271C1147.9 610.284 1147.94 608.597 1149.04 606.506ZM1150.1 610.479C1151.01 610.96 1151.79 610.648 1152.26 609.778C1152.75 608.83 1152.5 608.025 1151.71 607.61C1150.76 607.103 1149.84 607.389 1149.38 608.272C1148.92 609.129 1149.14 609.973 1150.1 610.479Z" fill="#E9EEF1"/>
<path d="M1176.18 627.748L1176.19 627.735L1174.05 624.255L1174.79 623.801L1177.49 628.202L1176.84 628.592C1174.74 627.89 1171.58 628.228 1169.54 629.488L1169.01 628.618C1171.14 627.319 1174.48 627.241 1176.18 627.748Z" fill="#E9EEF1"/>
<path d="M1179.43 651.417C1180.46 651.352 1181.01 651.989 1181.37 652.677H1181.39C1181.64 652.131 1182.08 651.638 1182.93 651.586C1184.2 651.508 1185.02 652.456 1185.11 653.871C1185.2 655.287 1184.5 656.325 1183.22 656.403C1182.38 656.455 1181.89 656.001 1181.58 655.507H1181.55C1181.28 656.222 1180.82 656.936 1179.79 656.988C1178.29 657.078 1177.47 655.936 1177.38 654.339C1177.27 652.755 1177.94 651.508 1179.43 651.417ZM1178.23 654.287C1178.29 655.391 1178.82 656.027 1179.75 655.975C1180.65 655.923 1181.1 655.222 1181.03 654.118C1180.97 653.014 1180.43 652.378 1179.53 652.43C1178.6 652.482 1178.16 653.183 1178.23 654.287ZM1181.89 654.066C1181.94 654.923 1182.32 655.442 1183.15 655.391C1183.95 655.339 1184.29 654.78 1184.24 653.923C1184.19 653.066 1183.78 652.547 1182.98 652.599C1182.15 652.651 1181.84 653.209 1181.89 654.066Z" fill="#E9EEF1"/>
<path d="M1174.46 680.475L1174 681.371C1173.31 681.125 1172.73 681.28 1172.34 682.008C1171.63 683.358 1172.76 684.332 1173.98 684.981L1174.07 685.02L1174.09 685.007C1173.63 684.332 1173.66 683.514 1174.05 682.761C1174.71 681.501 1176.03 681.073 1177.35 681.761C1178.57 682.397 1179.15 683.799 1178.41 685.228C1177.46 687.032 1175.79 686.993 1173.69 685.903C1171.58 684.812 1170.73 683.228 1171.58 681.605C1172.22 680.398 1173.45 680.073 1174.46 680.475ZM1174.78 683.241C1174.28 684.202 1174.57 685.111 1175.45 685.578C1176.29 686.02 1177.15 685.799 1177.64 684.851C1178.12 683.942 1177.81 683.163 1176.93 682.696C1176 682.202 1175.19 682.462 1174.78 683.241Z" fill="#E9EEF1"/>
<path d="M1158.64 702.704C1159.81 704.457 1160.11 706.392 1158.41 707.521C1156.72 708.651 1155.05 707.638 1153.88 705.885C1152.71 704.132 1152.43 702.211 1154.11 701.081C1155.81 699.952 1157.48 700.951 1158.64 702.704ZM1154.61 701.795C1153.43 702.587 1153.85 704.003 1154.74 705.327C1155.62 706.638 1156.76 707.599 1157.94 706.807C1159.12 706.015 1158.68 704.587 1157.81 703.275C1156.93 701.951 1155.79 701.003 1154.61 701.795Z" fill="#E9EEF1"/>
<path d="M1113.16 583.719H1114.14V590.562H1118.17V591.419H1113.16V583.719Z" fill="#E9EEF1"/>
<path d="M1119.13 583.719H1120.11V591.419H1119.13V583.719Z" fill="#E9EEF1"/>
<path d="M1121.69 583.719H1122.87L1126.71 590.042H1126.74V583.719H1127.71V591.419H1126.53L1122.69 585.096H1122.66V591.419H1121.69V583.719Z" fill="#E9EEF1"/>
<path d="M1129.31 583.719H1134.65V584.576H1130.28V587.004H1134.13V587.861H1130.28V590.562H1134.77V591.419H1129.31V583.719Z" fill="#E9EEF1"/>
<path d="M1072.59 607.817C1069.72 607.817 1067.4 605.48 1067.4 602.624C1067.4 599.767 1069.73 597.43 1072.59 597.43C1075.45 597.43 1077.78 599.767 1077.78 602.624C1077.78 605.48 1075.46 607.817 1072.59 607.817ZM1072.59 598.43C1070.29 598.43 1068.41 600.3 1068.41 602.611C1068.41 604.922 1070.28 606.792 1072.59 606.792C1074.9 606.792 1076.77 604.922 1076.77 602.611C1076.77 600.313 1074.9 598.43 1072.59 598.43Z" fill="#E9EEF1"/>
<path d="M1072.62 604.299C1071.7 604.299 1070.93 603.546 1070.93 602.611C1070.93 601.689 1071.68 600.936 1072.62 600.936C1073.54 600.936 1074.29 601.689 1074.29 602.611C1074.29 603.546 1073.54 604.299 1072.62 604.299ZM1072.62 601.949C1072.25 601.949 1071.96 602.247 1071.96 602.611C1071.96 602.974 1072.25 603.273 1072.62 603.273C1072.98 603.273 1073.28 602.974 1073.28 602.611C1073.28 602.247 1072.98 601.949 1072.62 601.949Z" fill="#E9EEF1"/>
<path d="M1086.88 602.104H1063.41V603.13H1086.88V602.104Z" fill="#E9EEF1"/>
<path d="M1088.24 603.948C1087.32 603.948 1086.56 603.195 1086.56 602.26C1086.56 601.325 1087.31 600.572 1088.24 600.572C1089.17 600.572 1089.92 601.325 1089.92 602.26C1089.92 603.195 1089.17 603.948 1088.24 603.948ZM1088.24 601.611C1087.88 601.611 1087.58 601.91 1087.58 602.273C1087.58 602.637 1087.88 602.935 1088.24 602.935C1088.61 602.935 1088.91 602.637 1088.91 602.273C1088.91 601.91 1088.61 601.611 1088.24 601.611Z" fill="#E9EEF1"/>
<path d="M1261.3 684.462C1245.67 684.462 1232.95 671.738 1232.95 656.105C1232.95 640.472 1245.67 627.748 1261.3 627.748C1276.92 627.748 1289.64 640.472 1289.64 656.105C1289.64 671.738 1276.94 684.462 1261.3 684.462ZM1261.3 628.761C1246.23 628.761 1233.96 641.031 1233.96 656.105C1233.96 671.179 1246.23 683.449 1261.3 683.449C1276.36 683.449 1288.63 671.179 1288.63 656.105C1288.63 641.031 1276.36 628.761 1261.3 628.761Z" fill="#E9EEF1"/>
<path d="M1235.87 642.485L1220.59 633.695L1220.92 633.123L1236.19 641.926L1235.87 642.485Z" fill="#E9EEF1"/>
<path d="M1231.18 621.123L1230.69 621.543L1242.1 634.981L1242.6 634.56L1231.18 621.123Z" fill="#E9EEF1"/>
<path d="M1250.41 629.838L1244.15 613.349L1244.76 613.115L1251 629.605L1250.41 629.838Z" fill="#E9EEF1"/>
<path d="M1260.3 610.218L1259.65 610.231L1260.01 627.86L1260.66 627.847L1260.3 610.218Z" fill="#E9EEF1"/>
<path d="M1270.26 629.449L1269.65 629.241L1275.27 612.531L1275.88 612.739L1270.26 629.449Z" fill="#E9EEF1"/>
<path d="M1289.21 619.936L1278.32 633.799L1278.83 634.2L1289.72 620.337L1289.21 619.936Z" fill="#E9EEF1"/>
<path d="M1285.28 641.524L1284.93 640.979L1299.86 631.591L1300.21 632.137L1285.28 641.524Z" fill="#E9EEF1"/>
<path d="M1305.92 646.114L1288.72 649.969L1288.86 650.602L1306.06 646.748L1305.92 646.114Z" fill="#E9EEF1"/>
<path d="M1306.78 662.558L1289.28 660.39L1289.36 659.74L1306.85 661.922L1306.78 662.558Z" fill="#E9EEF1"/>
<path d="M1286.57 669.083L1286.28 669.664L1302.03 677.579L1302.32 676.999L1286.57 669.083Z" fill="#E9EEF1"/>
<path d="M1292.58 690.266L1280.41 677.503L1280.88 677.048L1293.04 689.811L1292.58 690.266Z" fill="#E9EEF1"/>
<path d="M1272.79 682.579L1272.2 682.843L1279.37 698.95L1279.96 698.686L1272.79 682.579Z" fill="#E9EEF1"/>
<path d="M1243.99 699.614L1243.38 699.38L1249.94 683.008L1250.54 683.254L1243.99 699.614Z" fill="#E9EEF1"/>
<path d="M1241.58 677.861L1229.94 691.095L1230.42 691.524L1242.07 678.29L1241.58 677.861Z" fill="#E9EEF1"/>
<path d="M1220.53 679.204L1220.22 678.632L1235.65 670.115L1235.97 670.686L1220.53 679.204Z" fill="#E9EEF1"/>
<path d="M1215.23 664.35L1215.13 663.713L1232.52 660.844L1232.62 661.48L1215.23 664.35Z" fill="#E9EEF1"/>
<path d="M1215.39 647.948L1215.28 648.587L1232.61 651.764L1232.73 651.125L1215.39 647.948Z" fill="#E9EEF1"/>
<path d="M1260.94 679.827C1247.73 679.827 1236.98 669.076 1236.98 655.858C1236.98 642.641 1247.73 631.89 1260.94 631.89C1274.16 631.89 1284.9 642.641 1284.9 655.858C1284.9 669.076 1274.16 679.827 1260.94 679.827ZM1260.94 632.903C1248.29 632.903 1238 643.199 1238 655.858C1238 668.518 1248.29 678.814 1260.94 678.814C1273.6 678.814 1283.89 668.518 1283.89 655.858C1283.89 643.199 1273.6 632.903 1260.94 632.903Z" fill="url(#paint8_linear_7409_93787)"/>
<path d="M1234.52 708.274C1233.45 710.092 1231.85 711.196 1230.09 710.17C1228.34 709.144 1228.51 707.21 1229.57 705.379C1230.64 703.561 1232.23 702.458 1234 703.483C1235.75 704.522 1235.58 706.457 1234.52 708.274ZM1233.56 704.236C1232.34 703.522 1231.25 704.535 1230.44 705.898C1229.65 707.262 1229.3 708.716 1230.52 709.43C1231.74 710.144 1232.84 709.131 1233.64 707.768C1234.44 706.392 1234.78 704.95 1233.56 704.236Z" fill="#E9EEF1"/>
<path d="M1212.45 690.681L1211.78 691.11C1211 689.967 1210.53 689.954 1209.71 690.331L1209.31 689.694L1215.58 685.695L1216.1 686.513L1211.32 689.565C1211.74 689.681 1212.09 690.123 1212.45 690.681Z" fill="#E9EEF1"/>
<path d="M1204.65 659.455C1203.82 658.078 1203.56 657.442 1202.47 657.455C1201.85 657.468 1201.1 657.715 1201.11 658.858C1201.12 660.156 1202.01 660.493 1203.03 660.48L1203.04 661.493C1201.5 661.519 1200.28 660.688 1200.25 658.858C1200.24 657.585 1201.03 656.481 1202.45 656.456C1203.89 656.43 1204.6 657.585 1205.24 658.663C1205.73 659.494 1206.21 660.286 1206.99 660.48H1207.02L1206.96 656.494L1207.82 656.482L1207.9 661.636C1206.54 661.649 1205.47 660.818 1204.65 659.455Z" fill="#E9EEF1"/>
<path d="M1210.3 635.188L1210.77 634.292C1211.72 634.798 1212.58 634.733 1213.23 633.487C1213.83 632.357 1213.56 631.734 1212.81 631.344C1211.82 630.825 1211.22 631.422 1210.88 632.059L1210.51 632.76L1209.74 632.357L1210.09 631.695C1210.44 631.02 1210.39 630.371 1209.63 629.968C1209.09 629.682 1208.39 629.734 1207.93 630.63C1207.25 631.916 1207.82 632.526 1208.47 632.864L1208 633.759C1206.8 633.123 1206.32 631.864 1207.17 630.228C1207.77 629.098 1208.94 628.449 1210.11 629.072C1210.81 629.436 1211.07 630.007 1210.98 630.825L1210.99 630.838C1211.73 630.098 1212.51 630.033 1213.27 630.449C1214.53 631.111 1214.77 632.422 1214.03 633.824C1213.16 635.499 1211.78 635.967 1210.3 635.188Z" fill="#E9EEF1"/>
<path d="M1232.74 611.518L1229.68 613.388L1229.22 612.648L1229.77 606.649L1230.6 606.143L1233.12 610.271L1233.99 609.739L1234.43 610.479L1233.56 611.012L1234.47 612.505L1233.64 613.011L1232.74 611.518ZM1232.3 610.778L1230.48 607.792L1230.08 612.128L1232.3 610.778Z" fill="#E9EEF1"/>
<path d="M1257.12 603.624L1258.13 603.611C1258.22 604.338 1258.62 605.039 1259.78 605.026C1260.8 605.013 1261.48 604.377 1261.46 603.182C1261.45 602.066 1260.81 601.598 1259.85 601.611C1259.19 601.624 1258.61 601.845 1258.23 602.325L1257.19 602.338L1257.92 598.326L1262.01 598.274L1262.02 599.131L1258.71 599.17L1258.3 601.43V601.455C1258.67 601.027 1259.23 600.754 1260.06 600.741C1261.46 600.728 1262.45 601.793 1262.46 603.169C1262.48 604.779 1261.32 605.87 1259.81 605.896C1258.13 605.909 1257.17 604.818 1257.12 603.624Z" fill="#E9EEF1"/>
<path d="M1284.26 607.285C1285.36 605.195 1286.96 604.338 1288.56 605.195C1289.78 605.844 1290.1 607.078 1289.69 608.09L1288.8 607.623C1289.04 606.935 1288.9 606.351 1288.16 605.961C1286.83 605.247 1285.83 606.39 1285.19 607.61L1285.14 607.701L1285.15 607.727C1285.83 607.285 1286.64 607.298 1287.4 607.701C1288.66 608.363 1289.07 609.7 1288.38 610.999C1287.73 612.219 1286.33 612.804 1284.9 612.05C1283.1 611.064 1283.14 609.376 1284.26 607.285ZM1285.31 611.245C1286.22 611.726 1286.99 611.414 1287.46 610.544C1287.95 609.597 1287.71 608.791 1286.92 608.376C1285.97 607.87 1285.05 608.155 1284.58 609.038C1284.14 609.895 1284.36 610.752 1285.31 611.245Z" fill="#E9EEF1"/>
<path d="M1311.39 628.527L1311.41 628.514L1309.26 625.034L1310 624.58L1312.7 628.981L1312.05 629.371C1309.95 628.67 1306.8 629.007 1304.76 630.267L1304.23 629.397C1306.34 628.098 1309.69 628.021 1311.39 628.527Z" fill="#E9EEF1"/>
<path d="M1314.64 652.197C1315.66 652.132 1316.21 652.768 1316.57 653.456H1316.6C1316.85 652.911 1317.29 652.417 1318.13 652.366C1319.4 652.288 1320.22 653.235 1320.31 654.651C1320.4 656.066 1319.7 657.105 1318.43 657.183C1317.59 657.235 1317.09 656.78 1316.78 656.287H1316.75C1316.48 657.001 1316.03 657.715 1314.99 657.767C1313.5 657.858 1312.68 656.715 1312.59 655.118C1312.48 653.521 1313.15 652.288 1314.64 652.197ZM1313.43 655.053C1313.5 656.157 1314.03 656.793 1314.95 656.741C1315.86 656.689 1316.3 655.988 1316.24 654.884C1316.17 653.781 1315.64 653.145 1314.73 653.197C1313.81 653.261 1313.37 653.95 1313.43 655.053ZM1317.11 654.832C1317.16 655.689 1317.53 656.209 1318.36 656.157C1319.17 656.105 1319.51 655.547 1319.45 654.69C1319.4 653.833 1319 653.313 1318.2 653.365C1317.36 653.417 1317.05 653.976 1317.11 654.832Z" fill="#E9EEF1"/>
<path d="M1309.68 681.255L1309.21 682.151C1308.53 681.904 1307.94 682.06 1307.55 682.787C1306.85 684.137 1307.98 685.111 1309.2 685.76L1309.29 685.799L1309.3 685.786C1308.85 685.111 1308.88 684.293 1309.27 683.54C1309.93 682.281 1311.25 681.852 1312.56 682.54C1313.78 683.177 1314.37 684.579 1313.63 686.007C1312.68 687.812 1311 687.773 1308.9 686.682C1306.8 685.592 1305.94 684.007 1306.8 682.384C1307.42 681.164 1308.67 680.839 1309.68 681.255ZM1309.99 684.02C1309.5 684.981 1309.78 685.89 1310.67 686.358C1311.51 686.799 1312.37 686.578 1312.86 685.63C1313.34 684.722 1313.03 683.943 1312.15 683.475C1311.2 682.982 1310.39 683.228 1309.99 684.02Z" fill="#E9EEF1"/>
<path d="M1293.86 703.47C1295.03 705.223 1295.33 707.158 1293.63 708.287C1291.94 709.417 1290.26 708.404 1289.1 706.651C1287.93 704.898 1287.64 702.977 1289.33 701.847C1291.03 700.718 1292.69 701.717 1293.86 703.47ZM1289.81 702.561C1288.63 703.353 1289.06 704.769 1289.94 706.093C1290.82 707.404 1291.97 708.365 1293.15 707.573C1294.33 706.781 1293.89 705.353 1293.02 704.042C1292.13 702.717 1290.99 701.782 1289.81 702.561Z" fill="#E9EEF1"/>
<path d="M1248.38 584.485H1249.35V591.328H1253.39V592.185H1248.38V584.485Z" fill="#E9EEF1"/>
<path d="M1254.34 584.485H1255.31V592.185H1254.34V584.485Z" fill="#E9EEF1"/>
<path d="M1256.91 584.485H1258.09L1261.93 590.809H1261.96V584.485H1262.93V592.185H1261.75L1257.91 585.862H1257.88V592.185H1256.91V584.485Z" fill="#E9EEF1"/>
<path d="M1264.51 584.485H1269.85V585.342H1265.49V587.77H1269.33V588.627H1265.49V591.328H1269.98V592.185H1264.51V584.485Z" fill="#E9EEF1"/>
<path d="M1207.81 608.583C1204.94 608.583 1202.62 606.246 1202.62 603.39C1202.62 600.533 1204.95 598.196 1207.81 598.196C1210.66 598.196 1213 600.533 1213 603.39C1213 606.246 1210.66 608.583 1207.81 608.583ZM1207.81 599.209C1205.51 599.209 1203.63 601.079 1203.63 603.39C1203.63 605.701 1205.5 607.571 1207.81 607.571C1210.12 607.571 1211.99 605.701 1211.99 603.39C1211.99 601.079 1210.1 599.209 1207.81 599.209Z" fill="#E9EEF1"/>
<path d="M1207.82 605.065C1206.9 605.065 1206.13 604.312 1206.13 603.377C1206.13 602.455 1206.89 601.702 1207.82 601.702C1208.75 601.702 1209.51 602.455 1209.51 603.377C1209.51 604.312 1208.74 605.065 1207.82 605.065ZM1207.82 602.728C1207.46 602.728 1207.16 603.026 1207.16 603.39C1207.16 603.753 1207.46 604.052 1207.82 604.052C1208.18 604.052 1208.48 603.753 1208.48 603.39C1208.48 603.026 1208.18 602.728 1207.82 602.728Z" fill="#E9EEF1"/>
<path d="M1222.1 602.884H1198.63V603.909H1222.1V602.884Z" fill="#E9EEF1"/>
<path d="M1223.45 604.727C1222.53 604.727 1221.76 603.974 1221.76 603.052C1221.76 602.13 1222.51 601.364 1223.45 601.364C1224.38 601.364 1225.13 602.117 1225.13 603.052C1225.12 603.961 1224.37 604.727 1223.45 604.727ZM1223.45 602.377C1223.08 602.377 1222.79 602.676 1222.79 603.039C1222.79 603.403 1223.08 603.701 1223.45 603.701C1223.81 603.701 1224.11 603.403 1224.11 603.039C1224.11 602.676 1223.81 602.377 1223.45 602.377Z" fill="#E9EEF1"/>
<path d="M87.5083 635.859L84.1484 637.828L122.366 703.091L125.726 701.122L87.5083 635.859Z" fill="url(#paint9_linear_7409_93787)"/>
<path d="M84.6229 646.471L84.3633 645.886C99.5877 639.018 117.408 635.292 135.929 635.123C136.345 635.123 136.773 635.123 137.188 635.123C155.255 635.123 172.673 638.525 187.664 644.978L187.404 645.575C172.154 639.005 154.346 635.629 135.929 635.785C117.499 635.941 99.7565 639.641 84.6229 646.471Z" fill="#E9EEF1"/>
<path d="M77.4862 630.396L76.9102 630.695L84.6562 645.632L85.2323 645.333L77.4862 630.396Z" fill="#E9EEF1"/>
<path d="M96.5772 640.472L91.0352 624.593L91.6582 624.372L97.1872 640.264L96.5772 640.472Z" fill="#E9EEF1"/>
<path d="M106.363 620.283L105.729 620.419L109.268 636.869L109.902 636.733L106.363 620.283Z" fill="#E9EEF1"/>
<path d="M121.347 617.998L120.701 618.063L122.4 634.805L123.046 634.739L121.347 617.998Z" fill="#E9EEF1"/>
<path d="M136.358 634.11H135.709L135.748 617.283H136.397L136.358 634.11Z" fill="#E9EEF1"/>
<path d="M150.751 618.019L149.045 634.758L149.691 634.824L151.396 618.084L150.751 618.019Z" fill="#E9EEF1"/>
<path d="M165.702 620.327L162.289 636.804L162.925 636.936L166.337 620.458L165.702 620.327Z" fill="#E9EEF1"/>
<path d="M180.357 624.166L175.156 640.168L175.773 640.369L180.974 624.366L180.357 624.166Z" fill="#E9EEF1"/>
<path d="M188.027 645.211L187.443 644.939L194.556 629.682L195.153 629.968L188.027 645.211Z" fill="#E9EEF1"/>
<path d="M188.054 647.081C179.851 643.471 170.857 640.771 161.33 639.083L162.018 635.252C171.843 637.005 181.136 639.784 189.624 643.523L188.054 647.081Z" fill="#E9EEF1"/>
<path d="M84.7917 622.879L84.61 622.346L85.0642 621.451C86.1675 619.347 86.6217 618.269 86.3102 617.309C86.0896 616.659 85.5704 616.166 84.6229 616.491C84.0389 616.685 83.6625 617.14 83.4548 617.49L82.9746 616.971C83.2861 616.452 83.8312 615.958 84.5581 615.712C85.9338 615.244 86.8294 615.984 87.1409 616.906C87.5432 618.088 87.0111 619.321 86.1026 621.074L85.7521 621.723V621.749L88.6205 620.775L88.8671 621.49L84.7917 622.879Z" fill="#E9EEF1"/>
<path d="M93.0725 616.62C93.7215 618.828 93.2672 620.282 91.8395 620.71C90.5805 621.087 89.3605 620.152 88.7115 618.023C88.0626 615.854 88.6466 614.374 89.9575 613.985C91.3203 613.582 92.4495 614.556 93.0725 616.62ZM89.5811 617.763C90.0873 619.451 90.8791 620.243 91.6838 620.009C92.5793 619.737 92.6961 618.568 92.2029 616.919C91.7227 615.322 91.0088 614.4 90.1003 614.673C89.3345 614.907 89.062 616.01 89.5811 617.763Z" fill="#E9EEF1"/>
<path d="M101.86 611.946H101.834L100.821 612.803L100.51 612.154L101.795 611.076L102.56 610.921L103.962 617.53L103.093 617.711L101.86 611.946Z" fill="#E9EEF1"/>
<path d="M110.088 612.894C110.478 615.153 109.868 616.543 108.388 616.802C107.09 617.036 106 615.971 105.598 613.777C105.208 611.544 105.948 610.154 107.298 609.921C108.713 609.674 109.725 610.778 110.088 612.894ZM106.506 613.634C106.805 615.361 107.519 616.244 108.336 616.101C109.258 615.945 109.504 614.79 109.206 613.089C108.92 611.453 108.31 610.453 107.376 610.622C106.584 610.765 106.182 611.829 106.506 613.634Z" fill="#E9EEF1"/>
<path d="M123.91 607.999L123.962 608.597L121.548 614.972L120.601 615.05L123.028 608.856V608.83L119.731 609.103L119.666 608.35L123.91 607.999Z" fill="#E9EEF1"/>
<path d="M138.137 608.376L135.567 608.363L135.294 610.09C135.45 610.064 135.593 610.051 135.839 610.051C136.358 610.051 136.878 610.168 137.293 610.427C137.825 610.726 138.253 611.31 138.24 612.167C138.227 613.491 137.176 614.465 135.709 614.452C134.97 614.452 134.347 614.232 134.035 614.024L134.269 613.323C134.541 613.491 135.099 613.699 135.709 613.712C136.566 613.712 137.306 613.167 137.319 612.258C137.319 611.388 136.735 610.765 135.385 610.752C134.996 610.752 134.697 610.791 134.45 610.817L134.905 607.584L138.137 607.61V608.376Z" fill="#E9EEF1"/>
<path d="M148.325 613.855C148.572 614.05 149.143 614.374 149.766 614.439C150.934 614.556 151.375 613.855 151.414 613.297C151.505 612.362 150.7 611.868 149.818 611.778L149.311 611.726L149.376 611.05L149.883 611.102C150.544 611.167 151.414 610.921 151.505 610.129C151.557 609.596 151.271 609.077 150.428 608.986C149.896 608.934 149.35 609.116 149.039 609.285L148.87 608.597C149.247 608.376 149.96 608.194 150.674 608.259C151.998 608.402 152.517 609.246 152.426 610.064C152.349 610.752 151.881 611.297 151.025 611.518V611.544C151.829 611.791 152.439 612.492 152.336 613.427C152.219 614.504 151.284 615.348 149.675 615.179C148.922 615.101 148.286 614.79 147.975 614.543L148.325 613.855Z" fill="#E9EEF1"/>
<path d="M164.925 611.388H164.899L163.627 611.778L163.588 611.063L165.184 610.583L165.95 610.739L164.626 617.361L163.757 617.192L164.925 611.388Z" fill="#E9EEF1"/>
<path d="M182.796 618.529C182.122 620.723 180.94 621.684 179.513 621.243C178.254 620.853 177.761 619.412 178.397 617.27C179.058 615.101 180.356 614.193 181.667 614.595C183.03 615.024 183.432 616.478 182.796 618.529ZM179.266 617.555C178.76 619.23 178.981 620.347 179.772 620.581C180.668 620.853 181.408 619.944 181.914 618.295C182.407 616.711 182.316 615.543 181.408 615.257C180.642 615.037 179.798 615.803 179.266 617.555Z" fill="#E9EEF1"/>
<path d="M194.79 620.295L194.764 620.282L193.44 620.425L193.544 619.711L195.205 619.529L195.932 619.828L193.388 626.086L192.57 625.748L194.79 620.295Z" fill="#E9EEF1"/>
<path d="M178.046 694.628H96.875V695.654H178.046V694.628Z" fill="#E9EEF1"/>
<path d="M74.72 616.776H68.2305V617.802H74.72V616.776Z" fill="#E9EEF1"/>
<path d="M204.147 616.776H197.723V617.802H204.147V616.776Z" fill="#E9EEF1"/>
<path d="M220.956 704.016H48.373V590.25H220.943V704.016H220.956ZM52.2668 700.12H217.049V594.145H52.2668V700.12Z" fill="#E9EEF1"/>
<path d="M128.986 659.26H130.012L132.153 665.778H132.166L134.282 659.26H135.255L132.659 666.687H131.647L128.986 659.26Z" fill="#E9EEF1"/>
<path d="M136.1 664.22V659.273H137.034V664.22C137.034 665.427 137.657 666.012 138.942 666.012C140.227 666.012 140.85 665.427 140.85 664.22V659.273H141.784V664.22C141.784 665.739 140.928 666.843 138.942 666.843C136.956 666.843 136.1 665.726 136.1 664.22Z" fill="#E9EEF1"/>
<path d="M26.27 41.6784C21.7792 41.6784 18.1191 38.017 18.1191 33.5245C18.1191 29.0321 21.7792 25.3706 26.27 25.3706C30.7608 25.3706 34.4209 29.0321 34.4209 33.5245C34.4209 38.017 30.7608 41.6784 26.27 41.6784ZM26.27 29.2658C23.9208 29.2658 22.0129 31.1744 22.0129 33.5245C22.0129 35.8746 23.9208 37.7833 26.27 37.7833C28.6192 37.7833 30.5271 35.8746 30.5271 33.5245C30.5271 31.1744 28.6192 29.2658 26.27 29.2658Z" fill="#E9EEF1"/>
<path d="M26.27 731.775C21.7792 731.775 18.1191 728.114 18.1191 723.621C18.1191 719.129 21.7792 715.467 26.27 715.467C30.7608 715.467 34.4209 719.129 34.4209 723.621C34.4209 728.114 30.7608 731.775 26.27 731.775ZM26.27 719.362C23.9208 719.362 22.0129 721.271 22.0129 723.621C22.0129 725.971 23.9208 727.88 26.27 727.88C28.6192 727.88 30.5271 725.971 30.5271 723.621C30.5271 721.271 28.6192 719.362 26.27 719.362Z" fill="#E9EEF1"/>
<path fill-rule="evenodd" clip-rule="evenodd" d="M723.793 94.8636C728.752 95.4531 733.763 95.4531 738.721 94.8636C741.616 94.5195 743.898 92.2371 744.243 89.3408C744.833 84.3819 744.833 79.371 744.243 74.4132C743.898 71.5179 741.616 69.2345 738.721 68.8903C733.762 68.3009 728.751 68.3009 723.793 68.8903C720.898 69.2355 718.614 71.5179 718.27 74.4132C717.681 79.372 717.681 84.383 718.27 89.3408C718.615 92.236 720.898 94.5195 723.793 94.8636ZM731.256 94.7111C738.345 94.7111 744.091 88.9649 744.091 81.8766C744.091 74.7882 738.345 69.042 731.256 69.042C724.168 69.042 718.422 74.7882 718.422 81.8766C718.422 88.9649 724.168 94.7111 731.256 94.7111Z" fill="#E9EEF1"/>
<path d="M745.566 69.5579V69.1157H745.851C745.886 69.1157 745.922 69.1189 745.958 69.1252C745.996 69.1295 746.029 69.139 746.056 69.1539C746.086 69.1687 746.109 69.1899 746.126 69.2175C746.145 69.2451 746.154 69.2822 746.154 69.3289C746.154 69.384 746.143 69.4275 746.122 69.4593C746.103 69.489 746.077 69.5113 746.043 69.5261C746.01 69.541 745.971 69.5505 745.926 69.5548C745.884 69.5569 745.839 69.5579 745.791 69.5579H745.566ZM745.351 68.9407V70.3311H745.566V69.7329H745.794L746.17 70.3311H746.401L746.005 69.717C746.109 69.7064 746.195 69.6725 746.265 69.6152C746.334 69.5558 746.369 69.4635 746.369 69.3384C746.369 69.2048 746.329 69.1051 746.249 69.0393C746.171 68.9736 746.05 68.9407 745.885 68.9407H745.351ZM744.836 69.6311C744.836 69.489 744.86 69.3564 744.909 69.2334C744.959 69.1104 745.028 69.0043 745.114 68.9152C745.203 68.824 745.306 68.753 745.424 68.702C745.544 68.649 745.674 68.6225 745.813 68.6225C745.95 68.6225 746.077 68.649 746.195 68.702C746.313 68.753 746.415 68.824 746.502 68.9152C746.59 69.0043 746.659 69.1104 746.707 69.2334C746.758 69.3564 746.783 69.489 746.783 69.6311C746.783 69.7775 746.758 69.9132 746.707 70.0384C746.659 70.1614 746.59 70.2685 746.502 70.3597C746.415 70.451 746.313 70.5231 746.195 70.5761C746.077 70.627 745.95 70.6525 745.813 70.6525C745.674 70.6525 745.544 70.627 745.424 70.5761C745.306 70.5231 745.203 70.451 745.114 70.3597C745.028 70.2685 744.959 70.1614 744.909 70.0384C744.86 69.9132 744.836 69.7775 744.836 69.6311ZM744.621 69.6311C744.621 69.8029 744.653 69.962 744.716 70.1084C744.779 70.2526 744.864 70.3788 744.972 70.487C745.081 70.5931 745.208 70.6758 745.351 70.7352C745.497 70.7946 745.65 70.8243 745.813 70.8243C745.975 70.8243 746.128 70.7946 746.271 70.7352C746.414 70.6758 746.54 70.5931 746.647 70.487C746.754 70.3788 746.84 70.2526 746.903 70.1084C746.966 69.962 746.998 69.8029 746.998 69.6311C746.998 69.4635 746.966 69.3076 746.903 69.1634C746.84 69.0192 746.754 68.894 746.647 68.788C746.54 68.6819 746.414 68.5992 746.271 68.5398C746.128 68.4783 745.975 68.4475 745.813 68.4475C745.65 68.4475 745.497 68.4783 745.351 68.5398C745.208 68.5992 745.081 68.6819 744.972 68.788C744.864 68.894 744.779 69.0192 744.716 69.1634C744.653 69.3076 744.621 69.4635 744.621 69.6311Z" fill="#E9EEF1"/>
<path d="M630 72.978V90.5345H633.766V83.4116H640.192V80.3266H633.766V76.2134H641.598V72.978H630Z" fill="#E9EEF1"/>
<path d="M654.212 77.643H650.672V83.9884C650.672 85.1923 650.421 86.1203 649.944 86.7724C649.442 87.4245 648.765 87.7505 647.886 87.7505C647.032 87.7505 646.38 87.4746 645.978 86.8727C645.576 86.2708 645.376 85.3929 645.376 84.2141V77.643H641.836V84.6405C641.836 86.8225 642.313 88.3775 643.267 89.3055C644.221 90.2335 645.451 90.6849 646.957 90.6849C647.811 90.6849 648.564 90.5345 649.166 90.2335C649.769 89.9325 650.296 89.5312 650.748 88.9795L651.074 90.5345H654.212V77.643Z" fill="#E9EEF1"/>
<path d="M656.02 72.978V90.5345H658.731V72.978H656.02Z" fill="#E9EEF1"/>
<path d="M670.552 89.4309C671.581 88.5782 672.234 87.4245 672.485 85.9196H669.723C669.548 86.672 669.196 87.274 668.644 87.7254C668.092 88.1769 667.389 88.3775 666.56 88.3775C665.456 88.3775 664.577 88.0013 663.925 87.1987C663.272 86.3962 662.946 85.3679 662.946 84.0887C662.946 82.8347 663.272 81.8315 663.925 81.0289C664.577 80.2514 665.456 79.8501 666.56 79.8501C667.364 79.8501 668.042 80.0758 668.594 80.5022C669.146 80.9537 669.498 81.5305 669.698 82.2579H672.485C672.234 80.8032 671.581 79.6746 670.577 78.8218C669.548 77.9691 668.242 77.5427 666.636 77.5427C665.33 77.5427 664.201 77.8186 663.222 78.3704C662.243 78.9221 661.49 79.6746 660.962 80.6527C660.41 81.6559 660.159 82.7845 660.159 84.0887C660.159 85.3929 660.41 86.5466 660.937 87.5499C661.464 88.5531 662.218 89.3306 663.197 89.8824C664.15 90.4341 665.28 90.6849 666.56 90.6849C668.167 90.6849 669.498 90.2836 670.552 89.4309Z" fill="#E9EEF1"/>
<path d="M680.483 77.7433H679.905C678.851 77.7433 678.048 77.9189 677.47 78.27C676.868 78.6212 676.391 79.0977 676.039 79.6746L675.763 77.7433H673.981V90.5345H676.039V84.0135C676.039 82.8096 676.29 81.8064 676.818 80.9787C677.345 80.1762 678.223 79.7498 679.453 79.7498H680.483V77.7433Z" fill="#E9EEF1"/>
<path d="M692.884 77.7433H690.825V84.1389C690.825 85.5936 690.474 86.7222 689.821 87.5499C689.168 88.4026 688.239 88.8039 687.085 88.8039C686.005 88.8039 685.177 88.4778 684.599 87.7756C684.022 87.0733 683.746 86.0701 683.746 84.7408V77.7433H681.687V84.8662C681.687 86.8727 682.139 88.3524 683.068 89.2804C683.972 90.2335 685.202 90.6849 686.733 90.6849C688.49 90.6849 689.846 90.083 690.825 88.829L691.101 90.5345H692.884V77.7433Z" fill="#E9EEF1"/>
<path d="M711.881 79.0726C711.028 78.1446 709.898 77.6681 708.492 77.6681C707.363 77.6681 706.409 77.9691 705.656 78.5208C704.878 79.0977 704.3 79.8752 703.924 80.8533C703.622 79.825 703.095 79.0475 702.367 78.4958C701.614 77.944 700.735 77.6681 699.731 77.6681C698.702 77.6681 697.849 77.944 697.146 78.4707C696.443 78.9974 695.916 79.6996 695.589 80.5524L695.388 77.8186H694.284V90.5345H695.539V84.0637C695.539 82.5087 695.89 81.2295 696.618 80.2765C697.321 79.3234 698.3 78.8469 699.505 78.8469C700.635 78.8469 701.514 79.2482 702.141 80.0006C702.769 80.7781 703.095 81.8816 703.095 83.3363V90.5345H704.375V83.6122C704.401 82.1575 704.777 81.0038 705.48 80.1511C706.183 79.2983 707.137 78.8469 708.342 78.8469C709.446 78.8469 710.325 79.2482 710.953 80.0006C711.555 80.7781 711.881 81.8816 711.881 83.3363V90.5345H713.187V83.2611C713.187 81.4051 712.735 80.0257 711.881 79.0726Z" fill="#E9EEF1"/>
<defs>
<linearGradient id="paint0_linear_7409_93787" x1="84.5762" y1="346.73" x2="290.174" y2="346.73" gradientUnits="userSpaceOnUse">
<stop stop-color="#EB00FF"/>
<stop offset="1" stop-color="#FF8A00"/>
</linearGradient>
<linearGradient id="paint1_linear_7409_93787" x1="379.016" y1="468.865" x2="515.841" y2="468.865" gradientUnits="userSpaceOnUse">
<stop stop-color="#EB00FF"/>
<stop offset="1" stop-color="#FF8A00"/>
</linearGradient>
<linearGradient id="paint2_linear_7409_93787" x1="755.098" y1="466.602" x2="981.699" y2="466.602" gradientUnits="userSpaceOnUse">
<stop stop-color="#EB00FF"/>
<stop offset="1" stop-color="#FF8A00"/>
</linearGradient>
<linearGradient id="paint3_linear_7409_93787" x1="1071.06" y1="492.487" x2="1128.05" y2="492.487" gradientUnits="userSpaceOnUse">
<stop stop-color="#EB00FF"/>
<stop offset="1" stop-color="#FF8A00"/>
</linearGradient>
<linearGradient id="paint4_linear_7409_93787" x1="1173.52" y1="325.832" x2="1265.84" y2="325.832" gradientUnits="userSpaceOnUse">
<stop stop-color="#EB00FF"/>
<stop offset="1" stop-color="#FF8A00"/>
</linearGradient>
<linearGradient id="paint5_linear_7409_93787" x1="530.936" y1="411.877" x2="743.144" y2="411.877" gradientUnits="userSpaceOnUse">
<stop stop-color="#EB00FF"/>
<stop offset="1" stop-color="#FF8A00"/>
</linearGradient>
<linearGradient id="paint6_linear_7409_93787" x1="657.131" y1="191.305" x2="703.388" y2="191.305" gradientUnits="userSpaceOnUse">
<stop stop-color="#EB00FF"/>
<stop offset="1" stop-color="#FF8A00"/>
</linearGradient>
<linearGradient id="paint7_linear_7409_93787" x1="1101.77" y1="655.092" x2="1149.69" y2="655.092" gradientUnits="userSpaceOnUse">
<stop stop-color="#EB00FF"/>
<stop offset="1" stop-color="#FF8A00"/>
</linearGradient>
<linearGradient id="paint8_linear_7409_93787" x1="1236.98" y1="655.858" x2="1284.9" y2="655.858" gradientUnits="userSpaceOnUse">
<stop stop-color="#EB00FF"/>
<stop offset="1" stop-color="#FF8A00"/>
</linearGradient>
<linearGradient id="paint9_linear_7409_93787" x1="124" y1="700.948" x2="84.0214" y2="635.434" gradientUnits="userSpaceOnUse">
<stop stop-color="#EB00FF"/>
<stop offset="1" stop-color="#FF8A00"/>
</linearGradient>
</defs>
</svg>
