<svg width="462" height="462" viewBox="0 0 462 462" fill="none" xmlns="http://www.w3.org/2000/svg">
<path d="M231 462C103.622 462 0 358.369 0 231.006C0 103.642 103.622 0 231 0C358.367 0 462 103.631 462 230.994C462 358.358 358.367 462 231 462ZM231 3.40181C105.493 3.40181 3.39056 105.502 3.39056 230.994C3.39056 356.487 105.493 458.587 230.989 458.587C356.485 458.587 458.587 356.487 458.587 230.994C458.587 105.502 356.496 3.40181 231 3.40181Z" fill="#E9EEF1"/>
<path d="M231.282 314.85C185.164 314.85 147.652 277.339 147.652 231.222C147.652 185.105 185.164 147.594 231.282 147.594C277.401 147.594 314.912 185.105 314.912 231.222C314.901 277.339 277.389 314.85 231.282 314.85ZM231.282 151.007C187.046 151.007 151.054 186.999 151.054 231.233C151.054 275.468 187.046 311.459 231.282 311.459C275.518 311.459 311.51 275.468 311.51 231.233C311.499 186.987 275.518 151.007 231.282 151.007Z" fill="#E9EEF1"/>
<path d="M228.041 407.378C221.135 407.378 214.796 403.954 210.646 397.967C205.974 391.231 204.919 382.545 207.834 374.732C209.659 369.845 211.746 364.221 213.968 358.234C218.89 344.966 227.537 326.62 232.447 313.648L233.275 313.965C228.365 326.937 219.729 345.284 214.796 358.551C212.574 364.55 210.487 370.174 208.662 375.061C205.849 382.602 206.858 390.982 211.372 397.479C215.352 403.217 221.43 406.505 228.03 406.505C270.871 406.505 348.922 393.408 390.266 305.71C393.566 298.713 393.43 290.696 389.903 284.267C386.989 278.949 382.215 275.615 376.466 274.878L306.874 264.491L307.01 263.606L376.59 273.993C382.623 274.764 387.635 278.257 390.686 283.836C394.348 290.515 394.484 298.827 391.071 306.084C349.534 394.213 271.098 407.378 228.041 407.378Z" fill="#E9EEF1"/>
<path d="M105.721 338.333C105.256 338.333 104.791 338.321 104.315 338.299C97.046 337.89 90.8092 334.273 87.2032 328.388C71.2596 302.376 61.5529 275.513 58.3438 248.536C53.6718 209.257 63.1971 171.224 86.6362 135.471C90.7865 129.144 97.9758 125.13 105.88 124.756C112.944 124.404 119.306 127.057 123.297 132.024L165.277 183.879L164.585 184.435L122.606 132.58C118.795 127.84 112.695 125.311 105.925 125.64C98.3047 126.014 91.3762 129.87 87.3846 135.959C64.059 171.531 54.5903 209.37 59.2396 248.423C62.426 275.274 72.0988 302.013 87.9743 327.912C91.4215 333.547 97.4089 337.006 104.383 337.403C112.275 337.856 119.952 334.341 124.907 327.991L128.967 322.798C139.071 309.882 152.573 293.069 163.38 279.031L164.083 279.575C153.276 293.614 139.774 310.426 129.67 323.342L125.611 328.535C120.757 334.738 113.409 338.333 105.721 338.333Z" fill="#E9EEF1"/>
<path d="M303.17 192.571L303 191.698L381.137 175.296C387.067 174.082 392.012 170.011 394.676 164.138C397.681 157.527 397.318 149.793 393.724 143.432C372.757 106.432 343.523 80.7139 306.839 67.0272C281.654 57.6269 253.543 54.0096 223.266 56.2775C216.474 56.7878 210.577 60.4731 207.085 66.4036C203.32 72.799 203.025 80.8499 206.291 87.9484C214.421 105.592 224.487 127.099 234.954 149.403L234.148 149.777C223.682 127.473 213.616 105.967 205.486 88.3226C202.095 80.9633 202.401 72.5949 206.313 65.95C209.953 59.77 216.1 55.926 223.187 55.393C253.588 53.1138 281.836 56.7424 307.134 66.1881C344.022 79.9541 373.403 105.797 394.472 143.001C398.214 149.612 398.589 157.652 395.459 164.512C392.669 170.646 387.51 174.899 381.284 176.169L303.17 192.571Z" fill="#E9EEF1"/>
<path d="M231.25 409.737C228.359 409.737 225.683 409.669 223.267 409.567C216.849 409.283 210.918 405.575 207.006 399.384C202.198 391.775 201.314 382.114 204.682 374.154C208.095 366.092 212.03 356.385 215.84 347.007C220.149 336.405 226.05 322.237 229.78 313.528L230.597 313.88C226.855 322.588 220.965 336.745 216.656 347.348C212.846 356.725 208.911 366.432 205.487 374.505C202.232 382.193 203.094 391.549 207.743 398.908C211.497 404.85 217.167 408.41 223.29 408.682C257.411 410.168 341.846 403.863 389.2 313.749C392.568 307.354 392.67 299.688 389.495 293.247C386.672 287.521 381.66 283.654 375.752 282.634L304.48 268.551L304.628 267.678L375.899 281.761C382.102 282.827 387.352 286.875 390.3 292.862C393.6 299.552 393.487 307.524 389.994 314.169C345.77 398.329 269.34 409.737 231.25 409.737Z" fill="#E9EEF1"/>
<path d="M300.548 189.077L300.367 188.204C320.03 184.156 357.981 176.281 374.038 172.891C382.792 171.043 390.129 165.396 393.179 158.15C395.459 152.73 395.005 147.049 391.898 142.139C373.414 112.996 319.585 46.5704 219.161 59.1458C211.518 60.0983 205.009 64.2031 201.744 70.1223C199.056 74.9982 198.909 80.5318 201.324 85.7026L231.895 149.403L231.09 149.777L200.507 86.0881C197.967 80.6566 198.126 74.8395 200.95 69.7027C204.352 63.5341 211.11 59.2705 219.036 58.2726C319.948 45.6292 374.061 112.384 392.635 141.662C395.901 146.822 396.389 152.798 393.985 158.49C390.821 166.008 383.246 171.859 374.208 173.764C358.163 177.155 320.2 185.029 300.548 189.077Z" fill="#E9EEF1"/>
<path d="M104.154 341.655C103.689 341.655 103.224 341.644 102.748 341.621C95.4791 341.213 89.2423 337.596 85.6363 331.711C61.891 292.987 29.9472 215.992 82.79 135.403C86.8269 129.246 95.0595 125.141 104.267 124.699C112.602 124.302 120.007 127.001 123.987 131.956L166.436 182.964L165.756 183.531L123.307 132.512C119.496 127.772 112.409 125.187 104.313 125.583C95.3883 126.014 87.4279 129.96 83.5384 135.891C30.9678 216.072 62.7642 292.703 86.396 331.246C89.8433 336.881 95.8306 340.34 102.804 340.737C110.708 341.179 118.374 337.664 123.329 331.325C128.228 325.066 134.057 317.956 140.237 310.438C147.868 301.151 157.942 289.663 164.86 280.67L165.563 281.215C158.634 290.218 148.56 301.718 140.917 311.005C134.748 318.523 128.908 325.621 124.021 331.869C119.19 338.061 111.842 341.655 104.154 341.655Z" fill="#E9EEF1"/>
<path d="M130.984 135.653L130.326 135.052C150.431 112.963 173.043 100.274 203.637 93.9126L203.818 94.7857C173.417 101.113 150.953 113.711 130.984 135.653Z" fill="url(#paint0_linear_7536_97612)"/>
<path d="M203.966 376.048C175.232 369.664 149.151 354.151 128.535 331.2L129.193 330.611C149.672 353.426 175.595 368.836 204.148 375.186L203.966 376.048Z" fill="url(#paint1_linear_7536_97612)"/>
<path d="M377.916 274.821L377.054 274.583C380.649 261.826 382.486 248.57 382.486 235.19C382.497 215.334 378.54 196.091 370.727 177.971L371.543 177.62C379.401 195.842 383.393 215.21 383.382 235.19C383.382 248.649 381.545 261.985 377.916 274.821Z" fill="#E9EEF1"/>
<path d="M136.756 141.084L136.109 140.472C155.137 120.571 182.024 105.467 206.256 101.045L206.415 101.918C182.352 106.295 155.659 121.308 136.756 141.084Z" fill="url(#paint2_linear_7536_97612)"/>
<path d="M202.9 369.278C175.809 363.268 149.297 346.962 131.959 325.655L132.651 325.088C149.864 346.248 176.195 362.44 203.093 368.405L202.9 369.278Z" fill="url(#paint3_linear_7536_97612)"/>
<path d="M371.079 269.106L370.229 268.845C373.654 257.597 375.434 245.872 375.525 233.999C375.638 217.217 372.406 200.934 365.92 185.603L366.736 185.251C373.268 200.696 376.534 217.092 376.42 233.999C376.33 245.962 374.538 257.778 371.079 269.106Z" fill="url(#paint4_linear_7536_97612)"/>
<path d="M139.885 143.965L139.238 143.352C158.334 123.384 183.599 108.926 206.811 104.696L206.97 105.569C183.939 109.776 158.856 124.121 139.885 143.965Z" fill="url(#paint5_linear_7536_97612)"/>
<path d="M203.546 366.046C177.498 360.274 152.597 344.705 135.213 323.342L135.905 322.775C153.164 343.991 177.895 359.446 203.75 365.173L203.546 366.046Z" fill="url(#paint6_linear_7536_97612)"/>
<path d="M366.973 269.151L366.122 268.891C369.479 257.891 371.225 246.416 371.293 234.804C371.407 218.385 368.243 202.453 361.893 187.451L362.709 187.1C369.105 202.215 372.291 218.26 372.178 234.804C372.11 246.518 370.352 258.073 366.973 269.151Z" fill="url(#paint7_linear_7536_97612)"/>
<path d="M335.131 129.53C316.874 111.273 293.65 99.4691 268 95.3869L268.136 94.5024C293.979 98.6186 317.361 110.514 335.754 128.895L335.131 129.53Z" fill="#E9EEF1"/>
<path d="M114.144 278.166C103.768 252.709 102.294 224.055 110.005 197.498L110.856 197.748C103.201 224.112 104.664 252.562 114.961 277.837L114.144 278.166Z" fill="#E9EEF1"/>
<path d="M290.657 359.186L290.385 358.336C301.588 354.753 312.248 349.548 322.056 342.857C335.925 333.4 347.48 321.471 356.393 307.411L357.141 307.887C348.16 322.05 336.526 334.07 322.555 343.595C312.679 350.342 301.94 355.58 290.657 359.186Z" fill="#E9EEF1"/>
<path d="M231.128 456.128C107.061 456.128 6.11523 355.196 6.11523 231.12C6.11523 107.056 107.049 6.11328 231.128 6.11328C355.195 6.11328 456.14 107.045 456.14 231.12C456.14 355.196 355.195 456.128 231.128 456.128ZM231.128 7.00909C107.548 7.00909 7.01106 107.544 7.01106 231.12C7.01106 354.697 107.548 455.232 231.128 455.232C354.707 455.232 455.245 354.697 455.245 231.12C455.245 107.544 354.707 7.00909 231.128 7.00909Z" fill="#E9EEF1"/>
<path d="M230.723 395.884C139.632 395.884 65.5273 321.782 65.5273 230.692C65.5273 139.603 139.632 65.5005 230.723 65.5005C321.815 65.5005 395.919 139.603 395.919 230.692C395.919 321.782 321.815 395.884 230.723 395.884ZM230.723 68.9136C141.514 68.9136 68.9292 141.497 68.9292 230.704C68.9292 319.911 141.514 392.494 230.723 392.494C319.932 392.494 392.517 319.911 392.517 230.704C392.517 141.486 319.932 68.9136 230.723 68.9136Z" fill="#E9EEF1"/>
<defs>
<linearGradient id="paint0_linear_7536_97612" x1="130.326" y1="114.783" x2="203.818" y2="114.783" gradientUnits="userSpaceOnUse">
<stop stop-color="#EB00FF"/>
<stop offset="1" stop-color="#FF8A00"/>
</linearGradient>
<linearGradient id="paint1_linear_7536_97612" x1="128.535" y1="353.329" x2="204.148" y2="353.329" gradientUnits="userSpaceOnUse">
<stop stop-color="#EB00FF"/>
<stop offset="1" stop-color="#FF8A00"/>
</linearGradient>
<linearGradient id="paint2_linear_7536_97612" x1="136.109" y1="121.065" x2="206.415" y2="121.065" gradientUnits="userSpaceOnUse">
<stop stop-color="#EB00FF"/>
<stop offset="1" stop-color="#FF8A00"/>
</linearGradient>
<linearGradient id="paint3_linear_7536_97612" x1="131.959" y1="347.183" x2="203.093" y2="347.183" gradientUnits="userSpaceOnUse">
<stop stop-color="#EB00FF"/>
<stop offset="1" stop-color="#FF8A00"/>
</linearGradient>
<linearGradient id="paint4_linear_7536_97612" x1="365.92" y1="227.179" x2="376.423" y2="227.179" gradientUnits="userSpaceOnUse">
<stop stop-color="#EB00FF"/>
<stop offset="1" stop-color="#FF8A00"/>
</linearGradient>
<linearGradient id="paint5_linear_7536_97612" x1="139.238" y1="124.33" x2="206.97" y2="124.33" gradientUnits="userSpaceOnUse">
<stop stop-color="#EB00FF"/>
<stop offset="1" stop-color="#FF8A00"/>
</linearGradient>
<linearGradient id="paint6_linear_7536_97612" x1="135.213" y1="344.41" x2="203.75" y2="344.41" gradientUnits="userSpaceOnUse">
<stop stop-color="#EB00FF"/>
<stop offset="1" stop-color="#FF8A00"/>
</linearGradient>
<linearGradient id="paint7_linear_7536_97612" x1="361.893" y1="228.125" x2="372.181" y2="228.125" gradientUnits="userSpaceOnUse">
<stop stop-color="#EB00FF"/>
<stop offset="1" stop-color="#FF8A00"/>
</linearGradient>
</defs>
</svg>
