<svg width="335" height="245" viewBox="0 0 335 245" fill="none" xmlns="http://www.w3.org/2000/svg">
<path fill-rule="evenodd" clip-rule="evenodd" d="M0 7.90991L335 7.90991L335 8.4254L3.6581e-09 8.4254L0 7.90991Z" fill="#FF8A00" fill-opacity="0.1"/>
<path fill-rule="evenodd" clip-rule="evenodd" d="M0 24.243L335 24.243L335 24.7585L3.6581e-09 24.7585L0 24.243Z" fill="#FF8A00" fill-opacity="0.1"/>
<path fill-rule="evenodd" clip-rule="evenodd" d="M0 40.5762L335 40.5762L335 41.0917L3.6581e-09 41.0917L0 40.5762Z" fill="#FF8A00" fill-opacity="0.1"/>
<path fill-rule="evenodd" clip-rule="evenodd" d="M0 56.9095L335 56.9095L335 57.425L3.6581e-09 57.425L0 56.9095Z" fill="#FF8A00" fill-opacity="0.1"/>
<path fill-rule="evenodd" clip-rule="evenodd" d="M0 73.2428L335 73.2428L335 73.7583L3.6581e-09 73.7583L0 73.2428Z" fill="#FF8A00" fill-opacity="0.1"/>
<path fill-rule="evenodd" clip-rule="evenodd" d="M0 89.5762L335 89.5762L335 90.0917L3.6581e-09 90.0917L0 89.5762Z" fill="#FF8A00" fill-opacity="0.1"/>
<path fill-rule="evenodd" clip-rule="evenodd" d="M0 105.91L335 105.91L335 106.425L3.6581e-09 106.425L0 105.91Z" fill="#FF8A00" fill-opacity="0.1"/>
<path fill-rule="evenodd" clip-rule="evenodd" d="M0 122.243L335 122.243L335 122.758L3.6581e-09 122.758L0 122.243Z" fill="#FF8A00" fill-opacity="0.1"/>
<path fill-rule="evenodd" clip-rule="evenodd" d="M0 138.576L335 138.576L335 139.092L3.6581e-09 139.092L0 138.576Z" fill="#FF8A00" fill-opacity="0.1"/>
<path fill-rule="evenodd" clip-rule="evenodd" d="M0 154.909L335 154.909L335 155.425L3.6581e-09 155.425L0 154.909Z" fill="#FF8A00" fill-opacity="0.1"/>
<path fill-rule="evenodd" clip-rule="evenodd" d="M0 171.243L335 171.243L335 171.758L3.6581e-09 171.758L0 171.243Z" fill="#FF8A00" fill-opacity="0.1"/>
<path fill-rule="evenodd" clip-rule="evenodd" d="M0 187.576L335 187.576L335 188.091L3.6581e-09 188.091L0 187.576Z" fill="#FF8A00" fill-opacity="0.1"/>
<path fill-rule="evenodd" clip-rule="evenodd" d="M0 203.909L335 203.909L335 204.425L3.6581e-09 204.425L0 203.909Z" fill="#FF8A00" fill-opacity="0.1"/>
<path fill-rule="evenodd" clip-rule="evenodd" d="M0 220.242L335 220.242L335 220.758L3.6581e-09 220.758L0 220.242Z" fill="#FF8A00" fill-opacity="0.1"/>
<path fill-rule="evenodd" clip-rule="evenodd" d="M0 236.576L335 236.576L335 237.091L3.6581e-09 237.091L0 236.576Z" fill="#FF8A00" fill-opacity="0.1"/>
<path fill-rule="evenodd" clip-rule="evenodd" d="M324.084 -1.52588e-05L324.084 244.999L323.575 244.999L323.575 -1.52731e-05L324.084 -1.52588e-05Z" fill="#FF8A00" fill-opacity="0.1"/>
<path fill-rule="evenodd" clip-rule="evenodd" d="M301.754 -1.52588e-05L301.754 244.999L301.245 244.999L301.245 -1.52731e-05L301.754 -1.52588e-05Z" fill="#FF8A00" fill-opacity="0.1"/>
<path fill-rule="evenodd" clip-rule="evenodd" d="M279.418 -1.52588e-05L279.418 244.999L278.909 244.999L278.909 -1.52731e-05L279.418 -1.52588e-05Z" fill="#FF8A00" fill-opacity="0.1"/>
<path fill-rule="evenodd" clip-rule="evenodd" d="M257.084 -1.52588e-05L257.084 244.999L256.575 244.999L256.575 -1.52731e-05L257.084 -1.52588e-05Z" fill="#FF8A00" fill-opacity="0.1"/>
<path fill-rule="evenodd" clip-rule="evenodd" d="M234.752 0.000839233L234.752 245L234.243 245L234.243 0.000839219L234.752 0.000839233Z" fill="#FF8A00" fill-opacity="0.1"/>
<path fill-rule="evenodd" clip-rule="evenodd" d="M212.418 -1.52588e-05L212.418 244.999L211.909 244.999L211.909 -1.52731e-05L212.418 -1.52588e-05Z" fill="#FF8A00" fill-opacity="0.1"/>
<path fill-rule="evenodd" clip-rule="evenodd" d="M190.086 -1.52588e-05L190.086 244.999L189.577 244.999L189.577 -1.52731e-05L190.086 -1.52588e-05Z" fill="#FF8A00" fill-opacity="0.1"/>
<path fill-rule="evenodd" clip-rule="evenodd" d="M167.752 -1.52588e-05L167.752 244.999L167.243 244.999L167.243 -1.52731e-05L167.752 -1.52588e-05Z" fill="#FF8A00" fill-opacity="0.1"/>
<path fill-rule="evenodd" clip-rule="evenodd" d="M145.42 -1.52588e-05L145.42 244.999L144.911 244.999L144.911 -1.52731e-05L145.42 -1.52588e-05Z" fill="#FF8A00" fill-opacity="0.1"/>
<path fill-rule="evenodd" clip-rule="evenodd" d="M123.088 -1.52588e-05L123.088 244.999L122.579 244.999L122.579 -1.52731e-05L123.088 -1.52588e-05Z" fill="#FF8A00" fill-opacity="0.1"/>
<path fill-rule="evenodd" clip-rule="evenodd" d="M100.756 -1.52588e-05L100.756 244.999L100.247 244.999L100.247 -1.52731e-05L100.756 -1.52588e-05Z" fill="#FF8A00" fill-opacity="0.1"/>
<path fill-rule="evenodd" clip-rule="evenodd" d="M78.4219 -1.52588e-05L78.4219 244.999L77.9125 244.999L77.9125 -1.52731e-05L78.4219 -1.52588e-05Z" fill="#FF8A00" fill-opacity="0.1"/>
<path fill-rule="evenodd" clip-rule="evenodd" d="M56.086 -1.52588e-05L56.0859 244.999L55.5766 244.999L55.5766 -1.52731e-05L56.086 -1.52588e-05Z" fill="#FF8A00" fill-opacity="0.1"/>
<path fill-rule="evenodd" clip-rule="evenodd" d="M33.7559 -1.52588e-05L33.7559 244.999L33.2465 244.999L33.2465 -1.52731e-05L33.7559 -1.52588e-05Z" fill="#FF8A00" fill-opacity="0.1"/>
<path fill-rule="evenodd" clip-rule="evenodd" d="M11.4219 -1.52588e-05L11.4219 244.999L10.9125 244.999L10.9125 -1.52731e-05L11.4219 -1.52588e-05Z" fill="#FF8A00" fill-opacity="0.1"/>
<g clip-path="url(#clip0_6836_102407)">
<path fill-rule="evenodd" clip-rule="evenodd" d="M43.9141 103.132L45.4524 110.058L45.4536 110.135C45.7326 127.942 57.6154 145.872 81.4257 159.627C119.829 181.812 177.428 186.268 223.399 172.935L223.45 172.92L223.453 172.92L223.483 172.911C234.935 169.58 245.657 165.155 255.16 159.628C278.383 146.122 290.066 128.588 290.558 111.101L290.561 111.018L292.11 104.82V148.086L292.083 148.194C291.542 166.366 279.398 184.268 255.928 197.914C246.309 203.506 235.49 207.972 223.954 211.331L223.862 211.37L223.773 211.383C177.481 224.793 119.47 220.335 80.6616 197.915C56.604 184.018 44.2477 165.701 43.9274 147.195L43.9141 147.128V103.132ZM45.4416 120.841C49.4258 135.608 61.2246 149.721 80.6616 160.949C119.47 183.369 177.481 187.827 223.773 174.417L223.862 174.404L223.954 174.365C235.49 171.006 246.315 166.54 255.928 160.948C275.038 149.834 286.639 135.892 290.582 121.287V147.898L290.561 147.985L290.558 148.068C290.072 165.561 278.389 183.088 255.16 196.594C245.651 202.121 234.935 206.547 223.483 209.877L223.453 209.886L223.45 209.886L223.399 209.901C177.428 223.234 119.829 218.779 81.4257 196.593C57.6154 182.838 45.7326 164.908 45.4536 147.101L45.4525 147.032L45.4416 146.977V120.841Z" fill="#FF8A00"/>
<path fill-rule="evenodd" clip-rule="evenodd" d="M44.4238 143.793H44.933V144.137L44.9447 144.196L44.9451 144.219C45.2279 162.266 57.2687 180.335 81.1715 194.143C119.715 216.41 177.46 220.864 223.541 207.5L223.558 207.495L223.585 207.491L223.611 207.48L223.626 207.475C235.111 204.135 245.867 199.695 255.416 194.143C278.738 180.584 290.575 162.92 291.068 145.191L291.069 145.164L291.1 145.04L291.594 145.163L291.576 145.233C291.065 163.189 279.074 180.977 255.672 194.584C246.086 200.156 235.296 204.61 223.783 207.96L223.724 207.985L223.666 207.994C177.478 221.384 119.595 216.929 80.9168 194.584C56.9317 180.728 44.7329 162.531 44.4363 144.25L44.4238 144.187V143.793Z" fill="#FF8A00"/>
<path fill-rule="evenodd" clip-rule="evenodd" d="M44.4238 137.733H44.933V138.077L44.9447 138.136L44.9451 138.159C45.2279 156.206 57.2687 174.275 81.1715 188.083C119.715 210.35 177.46 214.804 223.541 201.44L223.558 201.435L223.585 201.431L223.611 201.42L223.626 201.415C235.111 198.075 245.867 193.635 255.416 188.083C278.738 174.524 290.575 156.86 291.068 139.131L291.069 139.104L291.1 138.98L291.594 139.103L291.576 139.173C291.065 157.129 279.074 174.917 255.672 188.524C246.086 194.096 235.296 198.55 223.783 201.9L223.724 201.925L223.666 201.934C177.478 215.324 119.595 210.869 80.9168 188.524C56.9317 174.668 44.7329 156.471 44.4363 138.19L44.4238 138.127V137.733Z" fill="#FF8A00"/>
<path fill-rule="evenodd" clip-rule="evenodd" d="M44.4238 131.672H44.933V132.017L44.9447 132.076L44.9451 132.099C45.2279 150.146 57.2687 168.215 81.1715 182.023C119.715 204.29 177.46 208.744 223.541 195.379L223.558 195.374L223.585 195.371L223.611 195.36L223.626 195.355C235.111 192.015 245.867 187.575 255.416 182.023C278.738 168.464 290.575 150.8 291.068 133.071L291.069 133.044L291.1 132.92L291.594 133.043L291.576 133.113C291.065 151.069 279.074 168.857 255.672 182.464C246.086 188.036 235.296 192.49 223.783 195.84L223.724 195.865L223.666 195.874C177.478 209.264 119.595 204.808 80.9168 182.464C56.9317 168.608 44.7329 150.411 44.4363 132.13L44.4238 132.067V131.672Z" fill="#FF8A00"/>
<path fill-rule="evenodd" clip-rule="evenodd" d="M44.4238 125.612H44.933V125.957L44.9447 126.016L44.9451 126.039C45.2279 144.086 57.2687 162.155 81.1715 175.963C119.715 198.23 177.46 202.684 223.541 189.319L223.558 189.314L223.585 189.311L223.611 189.3L223.626 189.295C235.111 185.955 245.867 181.514 255.416 175.963C278.738 162.404 290.575 144.74 291.068 127.011L291.069 126.984L291.1 126.86L291.594 126.983L291.576 127.053C291.065 145.009 279.074 162.797 255.672 176.403C246.086 181.976 235.296 186.43 223.783 189.78L223.724 189.805L223.666 189.813C177.478 203.204 119.595 198.748 80.9168 176.404C56.9317 162.548 44.7329 144.351 44.4363 126.07L44.4238 126.007V125.612Z" fill="#FF8A00"/>
<path fill-rule="evenodd" clip-rule="evenodd" d="M44.4238 119.552H44.933V119.897L44.9447 119.955L44.9451 119.979C45.2279 138.026 57.2687 156.095 81.1715 169.903C119.715 192.169 177.46 196.624 223.541 183.259L223.558 183.254L223.585 183.251L223.611 183.24L223.626 183.235C235.111 179.895 245.867 175.454 255.416 169.903C278.738 156.343 290.575 138.68 291.068 120.951L291.069 120.923L291.1 120.8L291.594 120.923L291.576 120.993C291.065 138.949 279.074 156.737 255.672 170.343C246.086 175.916 235.296 180.37 223.783 183.72L223.724 183.745L223.666 183.753C177.478 197.144 119.595 192.688 80.9168 170.344C56.9317 156.488 44.7329 138.29 44.4363 120.01L44.4238 119.947V119.552Z" fill="#FF8A00"/>
<path fill-rule="evenodd" clip-rule="evenodd" d="M44.4238 113.492H44.933V113.837L44.9447 113.896L44.9451 113.919C45.2279 131.966 57.2687 150.035 81.1715 163.843C119.715 186.11 177.46 190.564 223.541 177.199L223.558 177.194L223.585 177.191L223.611 177.18L223.626 177.175C235.111 173.835 245.867 169.395 255.416 163.843C278.738 150.284 290.575 132.62 291.068 114.891L291.069 114.864L291.1 114.74L291.594 114.863L291.576 114.933C291.065 132.889 279.074 150.677 255.672 164.283C246.086 169.856 235.296 174.31 223.783 177.66L223.724 177.685L223.666 177.693C177.478 191.084 119.595 186.628 80.9168 164.284C56.9317 150.428 44.7329 132.231 44.4363 113.95L44.4238 113.887V113.492Z" fill="#FF8A00"/>
<path fill-rule="evenodd" clip-rule="evenodd" d="M44.4238 116.522H44.933V116.867L44.9447 116.925L44.9451 116.949C45.2279 134.996 57.2687 153.065 81.1715 166.873C119.715 189.139 177.46 193.594 223.541 180.229L223.558 180.224L223.585 180.221L223.611 180.21L223.626 180.205C235.111 176.865 245.867 172.424 255.416 166.873C278.738 153.313 290.575 135.65 291.068 117.921L291.069 117.893L291.1 117.77L291.594 117.893L291.576 117.963C291.065 135.919 279.074 153.707 255.672 167.313C246.086 172.886 235.296 177.34 223.783 180.69L223.724 180.715L223.666 180.723C177.478 194.114 119.595 189.658 80.9168 167.314C56.9317 153.458 44.7329 135.26 44.4363 116.98L44.4238 116.917V116.522Z" fill="#FF8A00"/>
<path fill-rule="evenodd" clip-rule="evenodd" d="M44.4238 122.582H44.933V122.927L44.9447 122.985L44.9451 123.009C45.2279 141.056 57.2687 159.125 81.1715 172.933C119.715 195.2 177.46 199.654 223.541 186.289L223.558 186.284L223.585 186.281L223.611 186.27L223.626 186.265C235.111 182.925 245.867 178.484 255.416 172.933C278.738 159.374 290.575 141.71 291.068 123.981L291.069 123.954L291.1 123.83L291.594 123.953L291.576 124.023C291.065 141.979 279.074 159.767 255.672 173.373C246.086 178.946 235.296 183.4 223.783 186.75L223.724 186.775L223.666 186.783C177.478 200.174 119.595 195.718 80.9168 173.374C56.9317 159.518 44.7329 141.321 44.4363 123.04L44.4238 122.977V122.582Z" fill="#FF8A00"/>
<path fill-rule="evenodd" clip-rule="evenodd" d="M44.4238 128.642H44.933V128.987L44.9447 129.046L44.9451 129.069C45.2279 147.116 57.2687 165.185 81.1715 178.993C119.715 201.26 177.46 205.714 223.541 192.349L223.558 192.344L223.585 192.341L223.611 192.33L223.626 192.325C235.111 188.985 245.867 184.545 255.416 178.993C278.738 165.434 290.575 147.77 291.068 130.041L291.069 130.014L291.1 129.89L291.594 130.013L291.576 130.083C291.065 148.039 279.074 165.827 255.672 179.434C246.086 185.006 235.296 189.46 223.783 192.81L223.724 192.835L223.666 192.843C177.478 206.234 119.595 201.778 80.9168 179.434C56.9317 165.578 44.7329 147.381 44.4363 129.1L44.4238 129.037V128.642Z" fill="#FF8A00"/>
<path fill-rule="evenodd" clip-rule="evenodd" d="M44.4238 134.703H44.933V135.047L44.9447 135.106L44.9451 135.129C45.2279 153.176 57.2687 171.245 81.1715 185.053C119.715 207.32 177.46 211.774 223.541 198.41L223.558 198.405L223.585 198.401L223.611 198.39L223.626 198.385C235.111 195.045 245.867 190.605 255.416 185.053C278.738 171.494 290.575 153.83 291.068 136.101L291.069 136.074L291.1 135.95L291.594 136.073L291.576 136.143C291.065 154.099 279.074 171.887 255.672 185.494C246.086 191.066 235.296 195.52 223.783 198.87L223.724 198.895L223.666 198.904C177.478 212.294 119.595 207.839 80.9168 185.494C56.9317 171.638 44.7329 153.441 44.4363 135.16L44.4238 135.097V134.703Z" fill="#FF8A00"/>
<path fill-rule="evenodd" clip-rule="evenodd" d="M44.4238 140.763H44.933V141.107L44.9447 141.166L44.9451 141.189C45.2279 159.236 57.2687 177.305 81.1715 191.113C119.715 213.38 177.46 217.834 223.541 204.47L223.558 204.465L223.585 204.461L223.611 204.45L223.626 204.445C235.111 201.105 245.867 196.665 255.416 191.113C278.738 177.554 290.575 159.89 291.068 142.161L291.069 142.134L291.1 142.01L291.594 142.133L291.576 142.203C291.065 160.159 279.074 177.947 255.672 191.554C246.086 197.126 235.296 201.58 223.783 204.93L223.724 204.955L223.666 204.964C177.478 218.354 119.595 213.899 80.9168 191.554C56.9317 177.698 44.7329 159.501 44.4363 141.22L44.4238 141.157V140.763Z" fill="#FF8A00"/>
<path d="M233.471 88.1311L233.09 88.2947C241.273 94.8032 245.622 102.469 245.67 110.462H246.143C246.094 102.409 241.715 94.6881 233.471 88.1311Z" fill="#FF8A00"/>
<path d="M105.302 133.994L105.702 133.848C97.7609 126.655 93.8723 117.347 95.3139 108.947L94.8414 108.917C93.3999 117.377 97.3066 126.752 105.302 133.994Z" fill="#FF8A00"/>
<path d="M220.074 141.617C226.342 138.023 231.182 133.812 234.441 129.103L233.998 129C230.758 133.672 225.961 137.848 219.734 141.423C215.331 143.95 210.352 146.077 204.943 147.75L205.167 147.992C210.625 146.307 215.64 144.162 220.074 141.617Z" fill="#FF8A00"/>
<path d="M186.864 154.325L186.761 154.052C178.087 155.179 169.22 155.258 160.407 154.295C154.168 153.61 148.172 152.416 142.581 150.75L142.363 150.992C147.996 152.677 154.041 153.876 160.322 154.561C169.195 155.537 178.129 155.458 186.864 154.325Z" fill="#FF8A00"/>
<path d="M166.234 70.6055L166.253 70.8843C180.91 70.6964 195.816 73.0416 206.131 77.1685L206.398 76.9382C196.004 72.7811 180.995 70.4176 166.234 70.6055Z" fill="#FF8A00"/>
<path d="M253.182 60.9338C206.168 33.7788 129.923 33.7788 83.2123 60.9338C36.5073 88.0887 36.7557 132.278 83.7695 159.433C130.783 186.588 207.028 186.595 253.739 159.433C300.444 132.278 300.196 88.0887 253.182 60.9338ZM253.4 159.246C206.877 186.298 130.929 186.292 84.1027 159.246C37.2766 132.194 37.0282 88.1857 83.5515 61.1337C130.075 34.0818 206.022 34.0818 252.849 61.1277C299.675 88.1796 299.923 132.194 253.4 159.246Z" fill="#FF8A00"/>
<path d="M254.974 59.3157C206.707 31.4335 128.433 31.4335 80.4802 59.3157C32.5276 87.1979 32.782 132.563 81.0496 160.446C129.317 188.328 207.597 188.328 255.544 160.446C303.496 132.557 303.242 87.1918 254.974 59.3157ZM254.253 159.694C207.009 187.164 129.881 187.164 82.3215 159.694C34.7686 132.224 34.5142 87.5252 81.7582 60.055C129.002 32.5849 206.131 32.5849 253.684 60.055C301.243 87.5312 301.497 132.224 254.253 159.694Z" fill="#FF8A00"/>
<path d="M208.991 74.1142L209.245 73.884C195.26 68.5814 181.91 66.4059 165.98 66.8422L166.005 67.1149C181.837 66.6847 195.09 68.842 208.991 74.1142Z" fill="#FF8A00"/>
<path d="M166.137 69.2905L166.155 69.5693C180.758 69.3814 196.524 71.9387 207.287 76.2414L207.554 76.0111C196.712 71.6782 180.837 69.1026 166.137 69.2905Z" fill="#FF8A00"/>
<path d="M135.011 76.302L134.781 76.0657C121.862 80.1865 111.632 86.7798 105.98 94.6275L106.423 94.7366C112.031 86.9434 122.183 80.3986 135.011 76.302Z" fill="#FF8A00"/>
<path d="M237.996 73.3932C235.834 72.1448 233.557 70.9267 231.17 69.739C229.196 68.7572 226.797 68.2118 224.302 68.1391C222.048 67.7028 219.698 67.6301 217.542 67.9694C217.718 68.0361 217.893 68.1088 218.069 68.1755C219.541 67.9816 221.091 67.9816 222.636 68.1634C222.03 68.1997 221.419 68.2603 220.813 68.3512C220.28 68.43 219.753 68.533 219.25 68.6542C219.408 68.7209 219.553 68.7815 219.71 68.8481C220.11 68.7572 220.516 68.6845 220.934 68.6239C222.036 68.4603 223.145 68.3876 224.235 68.4179C225.628 68.6966 226.985 69.1148 228.233 69.6784C231.867 71.3146 235.156 72.9932 238.136 74.7142C270.231 93.2579 266.07 116.11 262.442 125.655C261.77 127.406 259.801 128.752 256.9 129.436C254.756 129.945 252.297 130.061 249.85 129.806C249.789 129.891 249.729 129.976 249.668 130.067C252.236 130.345 254.822 130.23 257.082 129.697C260.14 128.976 262.206 127.564 262.908 125.715C266.555 116.129 270.74 93.161 238.475 74.5264C235.483 72.7993 232.17 71.1025 228.517 69.4602C227.718 69.1027 226.87 68.7936 225.998 68.5451C227.766 68.7633 229.432 69.236 230.867 69.9511C233.248 71.1328 235.519 72.3508 237.675 73.5931C246.664 78.7866 253.647 84.4891 258.493 90.5976C267.233 101.627 268.632 113.65 262.642 126.34C261.612 128.521 258.832 130.291 255.21 131.085C253.048 131.557 250.807 131.624 248.747 131.309C249.062 130.897 249.371 130.491 249.85 129.818C262.908 111.293 256.397 89.1553 230.383 74.1264C227.015 72.1812 223.448 70.4237 219.71 68.8603C219.553 68.7936 219.408 68.733 219.25 68.6663C218.863 68.5027 218.469 68.3452 218.075 68.1876C217.899 68.1149 217.724 68.0482 217.548 67.9816C200.577 61.3095 180.48 58.4249 160.831 59.3339C160.625 59.346 160.419 59.3521 160.122 59.3702C140.195 60.3823 120.771 65.303 105.598 74.1264C90.4678 82.9256 82.0487 94.1609 80.3285 105.681C80.2135 105.614 80.0984 105.542 79.9894 105.469C77.5 103.857 76.5309 101.79 77.3425 99.8028C81.0735 90.6582 87.4757 82.6892 96.3794 76.1141C109.323 66.5514 127.161 60.3399 149.384 57.6553C153.121 57.2008 157.118 57.8431 160.219 59.3642C160.425 59.3521 160.631 59.346 160.655 59.2309C160.456 59.1157 160.244 59.0006 160.032 58.8854C156.373 56.9705 151.715 56.0675 147.863 56.5281C97.4878 62.5881 80.6011 86.4343 75.0227 100.106C74.1747 102.184 75.1802 104.342 77.7786 106.02C77.9482 106.129 78.1178 106.232 78.2934 106.335C78.8628 106.663 79.4745 106.96 80.1287 107.22C79.0263 118.619 84.4654 130.2 96.4279 139.896C96.0463 140.405 95.7434 140.932 95.5375 141.484C94.6835 143.696 95.5375 145.804 97.8694 147.271C98.7477 147.822 99.7289 148.422 100.831 149.059C115.265 157.397 148.517 171.626 196.967 162.882C199.19 162.482 201.152 161.73 202.654 160.749C202.975 160.536 203.272 160.318 203.551 160.082C204.205 159.53 204.738 158.93 205.107 158.288C205.422 157.737 205.616 157.185 205.683 156.634C206.585 156.391 207.482 156.137 208.372 155.876C208.317 156.022 208.251 156.173 208.178 156.325C207.427 157.834 205.78 159.155 203.545 160.088C203.266 160.318 202.969 160.542 202.648 160.755C205.562 159.779 207.73 158.221 208.638 156.403C208.754 156.173 208.844 155.949 208.911 155.719C216.797 153.361 224.187 150.265 230.783 146.435C238.408 142.005 244.326 136.951 248.741 131.303C248.675 131.388 248.614 131.472 248.548 131.551C250.722 131.897 253.09 131.83 255.374 131.333C259.141 130.515 262.03 128.673 263.096 126.406C269.117 113.656 267.712 101.566 258.917 90.4764C254.047 84.3315 247.027 78.6048 237.996 73.3932ZM80.2619 106.026C80.2195 106.317 80.1892 106.608 80.1529 106.899C79.6138 106.675 79.099 106.42 78.6205 106.142C78.4509 106.045 78.2874 105.942 78.1238 105.839C75.6344 104.227 74.6653 102.16 75.4769 100.172C81.0311 86.5616 97.8331 62.8245 147.936 56.7826C150.637 56.4614 153.763 56.8372 156.628 57.7886C154.284 57.2311 151.715 57.0735 149.262 57.3704C126.918 60.0672 108.996 66.309 95.9796 75.9263C87.0336 82.5317 80.6072 90.543 76.8579 99.724C76.01 101.803 77.0154 103.96 79.6138 105.639C79.7834 105.748 79.9591 105.851 80.2619 106.026ZM217.415 69.1936C215.004 70.0662 213.102 71.4176 212.061 73.0599C208.584 78.5745 203.593 86.5192 199.293 93.4761C198.996 93.2882 198.693 93.1004 198.384 92.9186L211.461 71.5752C212.291 70.2298 213.853 69.1996 215.931 68.6057C216.349 68.7694 216.761 68.933 217.415 69.1936ZM208.869 116.619L209.735 116.953L240.855 128.945C236.997 134.587 231.273 139.635 223.835 143.956C218.863 146.847 213.26 149.319 207.185 151.307C207.118 151.258 207.058 151.204 206.985 151.155L185.38 134.315C189.947 133.078 194.223 131.363 197.984 129.176C203.987 125.685 207.906 121.437 209.735 116.959L208.869 116.619ZM196.7 128.43C180.05 138.114 152.86 138.114 136.101 128.43C119.335 118.746 119.25 102.99 135.901 93.3064C152.557 83.6225 179.741 83.6225 196.5 93.3064C213.266 102.996 213.357 118.746 196.7 128.43ZM134.169 128.794C130.001 129.873 125.386 131.054 120.904 132.2C115.004 133.703 109.432 135.133 105.12 136.272C102.267 137.03 100.001 138.314 98.6386 139.878C98.3661 139.666 98.0935 139.447 97.6635 139.096C99.214 137.575 101.558 136.357 104.32 135.708C108.657 134.69 113.811 133.43 118.784 132.206C123.969 130.933 129.323 129.624 133.799 128.576C134.035 128.521 134.259 128.467 134.49 128.412C134.259 128.467 134.035 128.515 133.799 128.576C133.926 128.642 134.047 128.721 134.169 128.794ZM105.319 136.52C109.626 135.381 115.198 133.957 121.092 132.448C125.634 131.291 130.31 130.097 134.52 129C134.617 129.061 134.72 129.115 134.817 129.176C147.47 136.484 165.816 138.502 181.57 135.224L203.429 152.864C204.429 153.676 205.016 154.616 205.18 155.597C205.204 155.591 205.228 155.585 205.259 155.579C205.234 155.585 205.21 155.591 205.18 155.597C173.199 164.294 133.775 160.991 107.27 145.677C104.344 143.986 101.667 142.199 98.9596 140.114C100.262 138.557 102.491 137.272 105.319 136.52ZM82.0184 106.517C83.4358 94.9669 91.7156 83.6649 106.87 74.8536C122.097 65.9999 141.697 61.158 161.715 60.3338C162.024 60.5641 162.309 60.8004 162.563 61.0428C163.702 62.1457 164.205 63.382 163.975 64.6122L160.359 85.1496L160.831 85.1799L160.989 84.2952L161.158 84.3073L164.75 64.7819C164.974 63.5396 164.338 62.1882 162.981 60.9216C162.763 60.7156 162.527 60.5156 162.273 60.3156C162.279 60.3156 162.279 60.3156 162.285 60.3156C180.704 59.6248 199.456 62.3336 215.471 68.4361C213.399 69.0724 211.849 70.1268 211.001 71.4903L198.002 92.7004L197.597 93.367L198.045 93.4579L197.591 93.367L197.996 92.7004C197.924 92.658 197.845 92.6095 197.766 92.5671C180.292 82.4771 151.958 82.4771 134.593 92.5671C127.99 96.4092 123.914 101.166 122.358 106.136C116.682 106.56 110.819 106.845 105.138 107.117C100.195 107.354 95.5193 107.584 91.2674 107.881C87.9603 108.123 84.6532 107.62 82.0184 106.517C82.0063 106.62 81.9942 106.723 81.9821 106.826C81.9942 106.729 82.0063 106.626 82.0184 106.517ZM122.782 106.475L122.763 106.39L122.721 106.208L122.775 106.384L122.745 106.281L122.782 106.475ZM81.9821 106.838C84.4109 107.808 87.3606 108.293 90.377 108.208C90.062 108.232 89.7471 108.25 89.4442 108.275C86.8155 108.463 84.1989 108.184 81.9155 107.517C81.9336 107.293 81.9579 107.063 81.9821 106.838ZM81.8973 107.82C84.2171 108.469 86.8579 108.735 89.5108 108.547C93.7143 108.25 98.6023 107.972 103.769 107.681C109.971 107.323 116.385 106.966 122.261 106.523C122.436 106.511 122.612 106.499 122.788 106.487C122.612 106.499 122.436 106.511 122.261 106.529C120.074 114.171 123.811 122.285 133.46 128.364C129.008 129.406 123.732 130.703 118.608 131.957C113.63 133.181 108.487 134.442 104.15 135.46C103.817 135.539 103.49 135.624 103.169 135.721C100.795 136.411 98.784 137.52 97.3727 138.86C86.3067 129.679 81.1402 118.831 81.8973 107.82ZM196.809 162.621C148.608 171.317 115.525 157.167 101.158 148.865C100.068 148.235 99.0808 147.635 98.2025 147.083C95.9796 145.683 95.1741 143.665 95.9918 141.538C96.1735 141.066 96.4279 140.599 96.7428 140.157C97.1002 140.441 97.4696 140.732 97.8391 141.011C97.6695 141.32 97.5363 141.641 97.4333 141.968C96.7549 144.186 97.8633 146.326 100.486 147.835C116.803 157.258 151.473 171.541 200.395 161.342C200.698 161.276 201.001 161.209 201.291 161.136C200.019 161.809 198.493 162.318 196.809 162.621ZM205.174 156.767C205.095 157.246 204.913 157.725 204.641 158.197C204.138 159.064 203.345 159.858 202.333 160.53C201.673 160.749 200.97 160.936 200.237 161.088C151.558 171.238 117.058 157.016 100.819 147.641C98.3176 146.198 97.2516 144.144 97.8997 142.017C97.9784 141.768 98.0753 141.52 98.1965 141.284C100.565 143.071 103.163 144.792 105.992 146.423C132.836 161.93 172.66 165.372 205.671 156.628C205.507 156.676 205.337 156.719 205.174 156.767ZM208.596 154.616C207.724 154.882 206.846 155.137 205.64 155.47C205.446 154.476 204.835 153.531 203.823 152.701L182.042 135.121C183.024 134.909 183.993 134.678 184.956 134.424L206.628 151.313C207.912 152.289 208.584 153.422 208.596 154.616ZM246.827 131.176C242.697 136.436 236.918 141.356 229.48 145.683C223.429 149.198 216.688 152.083 209.062 154.47C209.008 153.422 208.469 152.428 207.457 151.543C213.551 149.544 219.177 147.059 224.168 144.156C231.631 139.823 237.379 134.763 241.255 129.109L245.604 130.782C246.004 130.927 246.409 131.06 246.827 131.176ZM247.863 129.8C247.633 130.121 247.385 130.448 247.021 130.927C246.627 130.818 246.24 130.691 245.87 130.551L209.856 116.674C209.953 116.431 210.038 116.183 210.122 115.941C209.686 115.777 209.262 115.613 208.856 115.462C209.256 115.613 209.68 115.777 210.116 115.941C219.577 119.54 236.888 126.091 243.823 128.703C245.101 129.182 246.47 129.545 247.863 129.8ZM248.039 129.545C246.67 129.303 245.337 128.939 244.084 128.473C237.112 125.843 219.632 119.231 210.213 115.644C212.618 108.014 209.093 99.8634 199.65 93.7124C199.547 93.8761 199.444 94.0457 199.341 94.2094C199.444 94.0457 199.547 93.8821 199.65 93.7124C203.969 86.7252 209.002 78.7078 212.503 73.1629C213.526 71.5388 215.428 70.2056 217.833 69.3693C221.782 70.9873 225.543 72.8114 229.081 74.8536C254.526 89.5431 260.91 111.165 248.039 129.545Z" fill="#FF8A00"/>
<path d="M91.9402 109.396L91.4617 109.384C90.6319 118.922 94.6779 128.018 103.164 135.708L103.563 135.563C95.1261 127.921 91.1104 118.874 91.9402 109.396Z" fill="#FF8A00"/>
<path d="M106.767 133.43L107.167 133.284C99.5291 126.37 95.9798 117.577 97.4274 109.153L96.9489 109.129C95.4952 117.607 99.0688 126.467 106.767 133.43Z" fill="#FF8A00"/>
<path d="M221.644 142.168C217.143 144.75 212.056 146.926 206.52 148.635L206.744 148.883C212.322 147.156 217.44 144.968 221.977 142.368C228.385 138.69 233.327 134.387 236.665 129.582L236.223 129.479C232.91 134.248 228.003 138.52 221.644 142.168Z" fill="#FF8A00"/>
<path fill-rule="evenodd" clip-rule="evenodd" d="M167.606 37.9486C199.302 37.9478 231.079 44.9364 255.356 58.9573L255.357 58.9574C279.627 72.9792 291.997 91.5017 292.102 110.18C292.208 128.861 280.043 147.388 255.922 161.415C231.804 175.44 200.106 182.43 168.411 182.43C136.716 182.43 104.939 175.44 80.6618 161.416C56.3883 147.394 44.0178 128.872 43.9128 110.194C43.8077 91.5143 55.9724 72.9881 80.0906 58.9645C104.211 44.9394 135.91 37.9494 167.606 37.9486ZM167.606 39.4761C136.107 39.4769 104.69 46.428 80.8584 60.2851C57.0239 74.1437 45.3394 92.2413 45.4403 110.185C45.5412 128.132 57.4317 146.233 81.4259 160.093C105.416 173.951 136.913 180.902 168.411 180.902C199.909 180.902 231.325 173.951 255.154 160.094C278.991 146.233 290.676 128.134 290.575 110.189C290.474 92.2417 278.584 74.1405 254.592 60.2801C230.602 46.4249 199.105 39.4754 167.606 39.4761Z" fill="#FF8A00"/>
</g>
<path fill-rule="evenodd" clip-rule="evenodd" d="M92.4158 45.4895L38.1523 45.4895L38.1523 44.9811L92.6263 44.9811L134.015 86.236L133.655 86.5959L92.4158 45.4895Z" fill="#FF8A00"/>
<path d="M135.87 86.4158C135.87 87.5389 134.959 88.4494 133.835 88.4494C132.71 88.4494 131.799 87.5389 131.799 86.4158C131.799 85.2927 132.71 84.3822 133.835 84.3822C134.959 84.3822 135.87 85.2927 135.87 86.4158Z" fill="#FF8A00"/>
<path fill-rule="evenodd" clip-rule="evenodd" d="M225.641 19.0523L279.904 19.0524L279.904 18.544L225.43 18.5439L184.042 59.7989L184.401 60.1588L225.641 19.0523Z" fill="#FF8A00"/>
<path d="M182.188 59.9789C182.188 61.1021 183.1 62.0125 184.224 62.0125C185.348 62.0125 186.26 61.1021 186.26 59.9789C186.26 58.8558 185.348 57.9453 184.224 57.9453C183.1 57.9453 182.188 58.8558 182.188 59.9789Z" fill="#FF8A00"/>
<path fill-rule="evenodd" clip-rule="evenodd" d="M205.792 240.208L279.904 240.208V240.716L205.581 240.716L164.193 199.461L164.552 199.101L205.792 240.208Z" fill="#FF8A00"/>
<path d="M162.337 199.281C162.337 198.158 163.248 197.248 164.372 197.248C165.497 197.248 166.408 198.158 166.408 199.281C166.408 200.404 165.497 201.315 164.372 201.315C163.248 201.315 162.337 200.404 162.337 199.281Z" fill="#FF8A00"/>
<path d="M274.602 146.734C263.834 157.663 248.343 166.737 229.689 173.042C211.034 179.347 189.874 182.661 168.339 182.65C146.803 182.638 125.653 179.303 107.017 172.979C88.3815 166.655 72.9177 157.565 62.1828 146.625L168.446 110.819L274.602 146.734Z" fill="url(#paint0_linear_6836_102407)" fill-opacity="0.5"/>
<path d="M62.29 146.734C51.5311 135.814 45.8672 123.427 45.8676 110.818C45.868 98.2086 51.5327 85.8216 62.2924 74.9018C73.052 63.9821 88.5274 54.9145 107.163 48.6105C125.799 42.3065 146.938 38.9882 168.456 38.9892L168.446 110.819L62.29 146.734Z" fill="url(#paint1_linear_6836_102407)" fill-opacity="0.1"/>
<path d="M168.447 38.626C189.963 38.626 211.1 41.9571 229.738 48.285C248.375 54.6129 263.856 63.715 274.627 74.6775C285.399 85.64 291.081 98.0774 291.104 110.741C291.128 123.405 285.491 135.849 274.76 146.826L168.447 110.819L168.447 38.626Z" fill="url(#paint2_linear_6836_102407)" fill-opacity="0.3"/>
<defs>
<linearGradient id="paint0_linear_6836_102407" x1="225.449" y1="118.445" x2="154.139" y2="232.111" gradientUnits="userSpaceOnUse">
<stop stop-color="#FF8A00"/>
<stop offset="0.0001" stop-color="#FF8A00"/>
<stop offset="1" stop-color="#FF8A00" stop-opacity="0"/>
</linearGradient>
<linearGradient id="paint1_linear_6836_102407" x1="119.586" y1="142.849" x2="194.553" y2="45.1102" gradientUnits="userSpaceOnUse">
<stop stop-color="#FF8A00"/>
<stop offset="1" stop-color="#FF8A00" stop-opacity="0"/>
</linearGradient>
<linearGradient id="paint2_linear_6836_102407" x1="151.142" y1="78.0273" x2="327.226" y2="110.888" gradientUnits="userSpaceOnUse">
<stop stop-color="#FF8A00"/>
<stop offset="1" stop-color="#FF8A00" stop-opacity="0"/>
</linearGradient>
<clipPath id="clip0_6836_102407">
<rect width="248.368" height="180.992" fill="white" transform="translate(43.75 38.1174)"/>
</clipPath>
</defs>
</svg>
