<svg width="36" height="36" viewBox="0 0 36 36" fill="none" xmlns="http://www.w3.org/2000/svg">
<path d="M29.25 11.25H24.75V7.875C24.75 6.08479 24.0388 4.3679 22.773 3.10203C21.5071 1.83616 19.7902 1.125 18 1.125C16.2098 1.125 14.4929 1.83616 13.227 3.10203C11.9612 4.3679 11.25 6.08479 11.25 7.875V11.25H6.75C6.15326 11.25 5.58097 11.4871 5.15901 11.909C4.73705 12.331 4.5 12.9033 4.5 13.5V29.25C4.5 29.8467 4.73705 30.419 5.15901 30.841C5.58097 31.2629 6.15326 31.5 6.75 31.5H29.25C29.8467 31.5 30.419 31.2629 30.841 30.841C31.2629 30.419 31.5 29.8467 31.5 29.25V13.5C31.5 12.9033 31.2629 12.331 30.841 11.909C30.419 11.4871 29.8467 11.25 29.25 11.25ZM6.75 18H29.25V20.25H6.75V18ZM6.75 22.5H29.25V24.75H6.75V22.5ZM13.5 7.875C13.5 6.68153 13.9741 5.53693 14.818 4.69302C15.6619 3.84911 16.8065 3.375 18 3.375C19.1935 3.375 20.3381 3.84911 21.182 4.69302C22.0259 5.53693 22.5 6.68153 22.5 7.875V11.25H13.5V7.875ZM29.25 13.5V15.75H6.75V13.5H29.25ZM29.25 29.25H6.75V27H29.25V29.25Z" fill="#EB00FF"/>
</svg>
