<svg width="118" height="27" viewBox="0 0 118 27" fill="none" xmlns="http://www.w3.org/2000/svg">
<path fill-rule="evenodd" clip-rule="evenodd" d="M94.2915 26.5554C99.2766 27.148 104.314 27.148 109.298 26.5554C112.209 26.2095 114.503 23.915 114.85 21.0033C115.443 16.0181 115.443 10.9807 114.85 5.99656C114.503 3.08597 112.209 0.790376 109.298 0.444437C104.313 -0.148146 99.2756 -0.148146 94.2915 0.444437C91.3809 0.791444 89.0853 3.08597 88.7394 5.99656C88.1468 10.9817 88.1468 16.0192 88.7394 21.0033C89.0864 23.9139 91.3809 26.2095 94.2915 26.5554ZM101.795 26.4023C108.921 26.4023 114.698 20.6257 114.698 13.4998C114.698 6.37385 108.921 0.597168 101.795 0.597168C94.6693 0.597168 88.8926 6.37385 88.8926 13.4998C88.8926 20.6257 94.6693 26.4023 101.795 26.4023Z" fill="#E9EEF1"/>
<path d="M116.181 1.11632V0.67171H116.467C116.503 0.67171 116.539 0.674908 116.575 0.681306C116.613 0.68557 116.646 0.695166 116.674 0.710093C116.703 0.72502 116.727 0.746344 116.744 0.774066C116.763 0.801787 116.772 0.839104 116.772 0.886017C116.772 0.94146 116.762 0.985174 116.741 1.01716C116.722 1.04701 116.695 1.0694 116.661 1.08433C116.627 1.09926 116.588 1.10885 116.544 1.11312C116.501 1.11525 116.456 1.11632 116.407 1.11632H116.181ZM115.965 0.495786V1.89358H116.181V1.29224H116.41L116.788 1.89358H117.02L116.623 1.27625C116.727 1.26559 116.814 1.23147 116.884 1.17389C116.953 1.11419 116.988 1.02143 116.988 0.895613C116.988 0.761271 116.948 0.661048 116.868 0.594943C116.789 0.528838 116.667 0.495786 116.502 0.495786H115.965ZM115.447 1.18989C115.447 1.04701 115.472 0.913738 115.52 0.790058C115.571 0.666379 115.64 0.559758 115.727 0.470197C115.816 0.378503 115.92 0.307067 116.038 0.255889C116.159 0.202579 116.289 0.175924 116.429 0.175924C116.567 0.175924 116.695 0.202579 116.814 0.255889C116.932 0.307067 117.035 0.378503 117.122 0.470197C117.211 0.559758 117.28 0.666379 117.328 0.790058C117.379 0.913738 117.405 1.04701 117.405 1.18989C117.405 1.33702 117.379 1.4735 117.328 1.59931C117.28 1.72299 117.211 1.83068 117.122 1.92237C117.035 2.01406 116.932 2.08657 116.814 2.13988C116.695 2.19105 116.567 2.21664 116.429 2.21664C116.289 2.21664 116.159 2.19105 116.038 2.13988C115.92 2.08657 115.816 2.01406 115.727 1.92237C115.64 1.83068 115.571 1.72299 115.52 1.59931C115.472 1.4735 115.447 1.33702 115.447 1.18989ZM115.231 1.18989C115.231 1.36261 115.263 1.52254 115.327 1.66968C115.39 1.81468 115.476 1.94156 115.584 2.05031C115.694 2.15693 115.821 2.2401 115.965 2.29981C116.111 2.35951 116.266 2.38937 116.429 2.38937C116.592 2.38937 116.746 2.35951 116.89 2.29981C117.034 2.2401 117.16 2.15693 117.268 2.05031C117.376 1.94156 117.462 1.81468 117.525 1.66968C117.589 1.52254 117.621 1.36261 117.621 1.18989C117.621 1.02143 117.589 0.864693 117.525 0.719689C117.462 0.574685 117.376 0.448873 117.268 0.342252C117.16 0.235631 117.034 0.152467 116.89 0.0927599C116.746 0.03092 116.592 0 116.429 0C116.266 0 116.111 0.03092 115.965 0.0927599C115.821 0.152467 115.694 0.235631 115.584 0.342252C115.476 0.448873 115.39 0.574685 115.327 0.719689C115.263 0.864693 115.231 1.02143 115.231 1.18989Z" fill="#E9EEF1"/>
<path d="M0 4.55469V22.2042H3.7855V15.0435H10.2461V11.9423H3.7855V7.80724H11.6594V4.55469H0Z" fill="#E9EEF1"/>
<path d="M24.3404 9.24441H20.782V15.6234C20.782 16.8337 20.5297 17.7666 20.0502 18.4222C19.5454 19.0777 18.864 19.4055 17.9807 19.4055C17.1227 19.4055 16.4665 19.1281 16.0628 18.523C15.659 17.9179 15.4571 17.0354 15.4571 15.8504V9.24441H11.8987V16.279C11.8987 18.4726 12.3782 20.0358 13.3372 20.9687C14.2962 21.9016 15.5328 22.3555 17.047 22.3555C17.905 22.3555 18.6621 22.2042 19.2678 21.9016C19.8735 21.5991 20.4035 21.1957 20.8577 20.641L21.1858 22.2042H24.3404V9.24441Z" fill="#E9EEF1"/>
<path d="M26.1582 4.55469V22.2042H28.8838V4.55469H26.1582Z" fill="#E9EEF1"/>
<path d="M40.7669 21.0948C41.8016 20.2375 42.4578 19.0777 42.7101 17.5649H39.9341C39.7575 18.3213 39.4041 18.9264 38.8489 19.3803C38.2937 19.8341 37.5871 20.0358 36.7543 20.0358C35.6439 20.0358 34.7606 19.6576 34.1044 18.8508C33.4483 18.044 33.1202 17.0102 33.1202 15.7243C33.1202 14.4636 33.4483 13.4551 34.1044 12.6482C34.7606 11.8666 35.6439 11.4632 36.7543 11.4632C37.5619 11.4632 38.2432 11.6901 38.7985 12.1188C39.3537 12.5726 39.707 13.1525 39.9089 13.8837H42.7101C42.4578 12.4213 41.8016 11.2867 40.7922 10.4295C39.7575 9.57219 38.4451 9.14356 36.83 9.14356C35.5177 9.14356 34.382 9.42091 33.3978 9.97561C32.4136 10.5303 31.6565 11.2867 31.1265 12.27C30.5713 13.2786 30.3189 14.4132 30.3189 15.7243C30.3189 17.0354 30.5713 18.1952 31.1013 19.2038C31.6312 20.2123 32.3883 20.9939 33.3726 21.5486C34.3316 22.1033 35.4672 22.3555 36.7543 22.3555C38.3694 22.3555 39.707 21.9521 40.7669 21.0948Z" fill="#E9EEF1"/>
<path d="M50.7504 9.34527H50.1699C49.11 9.34527 48.3024 9.52176 47.722 9.87475C47.1163 10.2277 46.6368 10.7068 46.2835 11.2867L46.0059 9.34527H44.2141V22.2042H46.2835V15.6487C46.2835 14.4384 46.5359 13.4299 47.0658 12.5978C47.5958 11.791 48.4791 11.3624 49.7157 11.3624H50.7504V9.34527Z" fill="#E9EEF1"/>
<path d="M63.2169 9.34527H61.1475V15.7747C61.1475 17.2371 60.7942 18.3717 60.138 19.2038C59.4819 20.061 58.5481 20.4645 57.3872 20.4645C56.3021 20.4645 55.4693 20.1367 54.8888 19.4307C54.3084 18.7247 54.0308 17.7162 54.0308 16.3799V9.34527H51.9614V16.5059C51.9614 18.523 52.4156 20.0106 53.3494 20.9435C54.2579 21.9016 55.4945 22.3555 57.0339 22.3555C58.8005 22.3555 60.1633 21.7503 61.1475 20.4897L61.4251 22.2042H63.2169V9.34527Z" fill="#E9EEF1"/>
<path d="M82.3156 10.6816C81.4575 9.74869 80.3219 9.26963 78.9086 9.26963C77.773 9.26963 76.814 9.57219 76.0569 10.1269C75.2745 10.7068 74.6941 11.4884 74.3155 12.4718C74.0127 11.438 73.4827 10.6564 72.7509 10.1017C71.9938 9.54698 71.1105 9.26963 70.101 9.26963C69.0663 9.26963 68.2083 9.54698 67.5016 10.0765C66.795 10.6059 66.265 11.3119 65.937 12.1692L65.7351 9.42091H64.6247V22.2042H65.8865V15.6991C65.8865 14.1358 66.2398 12.85 66.9717 11.8918C67.6783 10.9337 68.6625 10.4547 69.8739 10.4547C71.0095 10.4547 71.8928 10.8581 72.5237 11.6145C73.1547 12.3961 73.4827 13.5055 73.4827 14.9679V22.2042H74.7698V15.2452C74.7951 13.7829 75.1736 12.623 75.8802 11.7658C76.5869 10.9085 77.5458 10.4547 78.7572 10.4547C79.8676 10.4547 80.7509 10.8581 81.3818 11.6145C81.9875 12.3961 82.3156 13.5055 82.3156 14.9679V22.2042H83.6279V14.8923C83.6279 13.0265 83.1736 11.6397 82.3156 10.6816Z" fill="#E9EEF1"/>
</svg>
