<svg width="75" height="17" viewBox="0 0 75 17" fill="none" xmlns="http://www.w3.org/2000/svg">
<path fill-rule="evenodd" clip-rule="evenodd" d="M59.3685 16.7206C62.5073 17.0937 65.679 17.0937 68.8172 16.7206C70.6498 16.5028 72.0945 15.0581 72.3129 13.2248C72.6861 10.086 72.6861 6.91423 72.3129 3.7761C72.0945 1.9435 70.6498 0.498133 68.8172 0.280319C65.6784 -0.0927885 62.5066 -0.0927885 59.3685 0.280319C57.5359 0.498805 56.0905 1.9435 55.8727 3.7761C55.4996 6.91491 55.4996 10.0867 55.8727 13.2248C56.0912 15.0574 57.5359 16.5028 59.3685 16.7206ZM64.0928 16.624C68.5795 16.624 72.2167 12.9868 72.2167 8.50015C72.2167 4.01347 68.5795 0.376302 64.0928 0.376302C59.6061 0.376302 55.969 4.01347 55.969 8.50015C55.969 12.9868 59.6061 16.624 64.0928 16.624Z" fill="#E9EEF1"/>
<path d="M73.151 0.702867V0.422928H73.331C73.3537 0.422928 73.3764 0.424942 73.3991 0.42897C73.4231 0.431655 73.4437 0.437697 73.4611 0.447096C73.4797 0.456494 73.4944 0.46992 73.5051 0.487375C73.5171 0.504829 73.5231 0.528325 73.5231 0.557863C73.5231 0.592771 73.5164 0.620295 73.5031 0.640434C73.4911 0.659231 73.4744 0.673329 73.4531 0.682727C73.4317 0.692126 73.4071 0.698167 73.3791 0.700853C73.3524 0.702195 73.3237 0.702867 73.293 0.702867H73.151ZM73.015 0.312161V1.19226H73.151V0.813634H73.295L73.5331 1.19226H73.6791L73.4291 0.803564C73.4944 0.796851 73.5491 0.775369 73.5931 0.739118C73.6371 0.701524 73.6591 0.64312 73.6591 0.563904C73.6591 0.479319 73.6338 0.416215 73.5831 0.374594C73.5338 0.332972 73.4571 0.312161 73.353 0.312161H73.015ZM72.6889 0.749187C72.6889 0.659231 72.7042 0.575317 72.7349 0.497444C72.7669 0.419572 72.8102 0.35244 72.8649 0.29605C72.9209 0.238317 72.9863 0.193339 73.061 0.161116C73.137 0.12755 73.219 0.110767 73.307 0.110767C73.3937 0.110767 73.4744 0.12755 73.5491 0.161116C73.6238 0.193339 73.6885 0.238317 73.7432 0.29605C73.7992 0.35244 73.8425 0.419572 73.8732 0.497444C73.9052 0.575317 73.9212 0.659231 73.9212 0.749187C73.9212 0.841829 73.9052 0.927757 73.8732 1.00697C73.8425 1.08484 73.7992 1.15265 73.7432 1.21038C73.6885 1.26811 73.6238 1.31376 73.5491 1.34733C73.4744 1.37955 73.3937 1.39566 73.307 1.39566C73.219 1.39566 73.137 1.37955 73.061 1.34733C72.9863 1.31376 72.9209 1.26811 72.8649 1.21038C72.8102 1.15265 72.7669 1.08484 72.7349 1.00697C72.7042 0.927757 72.6889 0.841829 72.6889 0.749187ZM72.5528 0.749187C72.5528 0.85794 72.5728 0.958638 72.6128 1.05128C72.6529 1.14258 72.7069 1.22246 72.7749 1.29094C72.8442 1.35807 72.9243 1.41043 73.015 1.44803C73.107 1.48562 73.2043 1.50442 73.307 1.50442C73.4097 1.50442 73.5064 1.48562 73.5971 1.44803C73.6878 1.41043 73.7672 1.35807 73.8352 1.29094C73.9032 1.22246 73.9572 1.14258 73.9972 1.05128C74.0372 0.958638 74.0572 0.85794 74.0572 0.749187C74.0572 0.64312 74.0372 0.544436 73.9972 0.453137C73.9572 0.361839 73.9032 0.282624 73.8352 0.215492C73.7672 0.148361 73.6878 0.095998 73.5971 0.0584044C73.5064 0.0194681 73.4097 0 73.307 0C73.2043 0 73.107 0.0194681 73.015 0.0584044C72.9243 0.095998 72.8442 0.148361 72.7749 0.215492C72.7069 0.282624 72.6529 0.361839 72.6128 0.453137C72.5728 0.544436 72.5528 0.64312 72.5528 0.749187Z" fill="#E9EEF1"/>
<path d="M0 2.86768V13.9803H2.38347V9.47177H6.45125V7.51912H2.38347V4.91558H7.34107V2.86768H0Z" fill="#E9EEF1"/>
<path d="M15.3254 5.82047H13.085V9.8369C13.085 10.5989 12.9261 11.1863 12.6242 11.599C12.3064 12.0118 11.8774 12.2182 11.3212 12.2182C10.781 12.2182 10.3678 12.0436 10.1136 11.6625C9.85935 11.2815 9.73223 10.7259 9.73223 9.97977V5.82047H7.49178V10.2497C7.49178 11.6308 7.79368 12.6151 8.39749 13.2024C9.0013 13.7898 9.7799 14.0756 10.7333 14.0756C11.2735 14.0756 11.7502 13.9803 12.1316 13.7898C12.5129 13.5993 12.8466 13.3453 13.1326 12.9961L13.3392 13.9803H15.3254V5.82047Z" fill="#E9EEF1"/>
<path d="M16.47 2.86768V13.9803H18.1861V2.86768H16.47Z" fill="#E9EEF1"/>
<path d="M25.6681 13.2818C26.3195 12.7421 26.7327 12.0118 26.8916 11.0593H25.1437C25.0325 11.5355 24.81 11.9166 24.4604 12.2023C24.1109 12.4881 23.6659 12.6151 23.1416 12.6151C22.4424 12.6151 21.8863 12.3769 21.4732 11.8689C21.06 11.3609 20.8535 10.71 20.8535 9.9004C20.8535 9.10664 21.06 8.47163 21.4732 7.96362C21.8863 7.47149 22.4424 7.21749 23.1416 7.21749C23.6501 7.21749 24.0791 7.36036 24.4287 7.63024C24.7782 7.916 25.0007 8.28113 25.1278 8.74151H26.8916C26.7327 7.82074 26.3195 7.10636 25.6839 6.5666C25.0325 6.02684 24.2062 5.75697 23.1893 5.75697C22.363 5.75697 21.6479 5.93159 21.0282 6.28085C20.4085 6.6301 19.9318 7.10636 19.5982 7.72549C19.2486 8.3605 19.0897 9.07489 19.0897 9.9004C19.0897 10.7259 19.2486 11.4562 19.5823 12.0912C19.916 12.7262 20.3927 13.2183 21.0124 13.5676C21.6162 13.9168 22.3312 14.0756 23.1416 14.0756C24.1585 14.0756 25.0007 13.8216 25.6681 13.2818Z" fill="#E9EEF1"/>
<path d="M31.9539 5.88397H31.5885C30.9211 5.88397 30.4126 5.99509 30.0472 6.21735C29.6658 6.4396 29.3639 6.74123 29.1415 7.10636L28.9667 5.88397H27.8385V13.9803H29.1415V9.85277C29.1415 9.09076 29.3004 8.45575 29.634 7.93187C29.9677 7.42386 30.5239 7.15399 31.3025 7.15399H31.9539V5.88397Z" fill="#E9EEF1"/>
<path d="M39.8032 5.88397H38.5003V9.93215C38.5003 10.8529 38.2778 11.5673 37.8647 12.0912C37.4516 12.6309 36.8636 12.8849 36.1327 12.8849C35.4494 12.8849 34.9251 12.6786 34.5596 12.2341C34.1942 11.7895 34.0194 11.1545 34.0194 10.3132V5.88397H32.7164V10.3925C32.7164 11.6625 33.0024 12.5992 33.5903 13.1866C34.1624 13.7898 34.941 14.0756 35.9103 14.0756C37.0225 14.0756 37.8806 13.6946 38.5003 12.9008L38.6751 13.9803H39.8032V5.88397Z" fill="#E9EEF1"/>
<path d="M51.8283 6.72535C51.2881 6.13797 50.573 5.83634 49.6832 5.83634C48.9682 5.83634 48.3644 6.02684 47.8877 6.3761C47.3951 6.74123 47.0296 7.23336 46.7913 7.85249C46.6006 7.20161 46.2669 6.70948 45.8061 6.36022C45.3294 6.01097 44.7733 5.83634 44.1377 5.83634C43.4862 5.83634 42.9459 6.01097 42.501 6.34435C42.0561 6.67773 41.7224 7.12224 41.5159 7.66199L41.3887 5.93159H40.6896V13.9803H41.4841V9.88452C41.4841 8.90026 41.7065 8.09062 42.1673 7.48736C42.6123 6.88411 43.232 6.58248 43.9947 6.58248C44.7097 6.58248 45.2658 6.83648 45.6631 7.31274C46.0603 7.80487 46.2669 8.50338 46.2669 9.42414V13.9803H47.0773V9.59877C47.0932 8.67801 47.3315 7.94775 47.7764 7.40799C48.2213 6.86823 48.8252 6.58248 49.5879 6.58248C50.287 6.58248 50.8432 6.83648 51.2404 7.31274C51.6218 7.80487 51.8283 8.50338 51.8283 9.42414V13.9803H52.6546V9.37652C52.6546 8.20175 52.3686 7.32861 51.8283 6.72535Z" fill="#E9EEF1"/>
</svg>
