<svg width="36" height="36" viewBox="0 0 36 36" fill="none" xmlns="http://www.w3.org/2000/svg">
<path d="M27.5363 9.17428C27.5113 10.2427 27.3612 11.4106 27.086 12.5536C27.036 12.8021 27.086 12.8766 27.3112 12.9263C28.7871 13.3736 30.2131 13.9451 31.4889 14.8396C31.9893 15.1875 32.4396 15.585 32.8398 16.0571C33.8905 17.3492 33.8405 18.7655 32.7648 20.0079C31.7641 21.1261 30.5133 21.8715 29.1374 22.443C28.537 22.6915 27.9366 22.9151 27.3112 23.0891C27.136 23.1388 27.111 23.1884 27.136 23.3624C27.4112 24.4557 27.5863 25.549 27.5863 26.6671C27.5863 28.0089 27.4863 29.3507 26.7108 30.5186C26.0353 31.5373 25.0346 31.8852 23.8589 31.7361C22.2078 31.5125 20.8569 30.6676 19.581 29.6986C19.1307 29.3507 18.6804 29.0028 18.3052 28.6053C18.1301 28.4313 18.005 28.4313 17.8299 28.6053C16.9543 29.4501 15.9786 30.1955 14.9029 30.7919C14.0523 31.264 13.1768 31.6119 12.2261 31.7361C10.475 31.9846 9.27417 31.0901 8.79885 29.5246C8.39859 28.3071 8.39859 27.0647 8.49865 25.8223C8.5737 25.052 8.69879 24.2818 8.89892 23.5363C8.97397 23.263 8.8739 23.1884 8.62374 23.1139C7.09772 22.6666 5.67178 22.0455 4.39593 21.1012C3.87058 20.7285 3.42028 20.2813 3.04503 19.7595C2.11942 18.4674 2.19447 17.1007 3.24517 15.908C3.94563 15.1129 4.82121 14.5166 5.74683 14.0445C6.69746 13.5475 7.69812 13.1748 8.7238 12.8766C8.92394 12.8269 8.94895 12.7524 8.89892 12.5536C8.62374 11.3857 8.42361 10.2179 8.42361 9.00034C8.42361 7.95673 8.52367 6.91312 8.94895 5.94406C9.57437 4.57743 10.8252 3.98108 12.3512 4.27926C13.8022 4.55258 15.053 5.27317 16.2038 6.11799C16.7541 6.51556 17.3045 6.96282 17.7798 7.43493C17.9549 7.60886 18.03 7.58402 18.2051 7.43493C19.3308 6.36647 20.5567 5.42225 22.0076 4.77621C22.6831 4.47804 23.4086 4.22956 24.1591 4.20471C25.635 4.13017 26.5607 4.95015 27.036 6.11799C27.3612 6.93797 27.5113 7.98158 27.5363 9.17428ZM17.9299 23.0145C18.8055 23.0642 19.6811 22.9648 20.5567 22.9648C20.7318 22.9648 20.8569 22.9151 20.9569 22.766C21.9076 21.3 22.8082 19.7843 23.6087 18.194C23.6837 18.0698 23.6837 17.9456 23.6087 17.8213C22.8082 16.2559 21.9326 14.7402 20.9569 13.2742C20.8819 13.1499 20.7818 13.1002 20.6317 13.1002C18.8806 13.0008 17.1294 13.0008 15.3782 13.1002C15.2031 13.1002 15.103 13.1748 15.003 13.299C14.0273 14.765 13.1517 16.2808 12.3762 17.8462C12.3012 17.9953 12.3262 18.1195 12.3762 18.2437C13.1517 19.8091 14.0523 21.3249 15.028 22.766C15.103 22.8903 15.2031 22.9648 15.3782 22.9648C16.2038 22.9648 17.0794 23.0642 17.9299 23.0145ZM9.12407 14.119C9.12407 14.119 9.09905 14.119 9.07404 14.1438C7.89826 14.4917 6.74749 14.9141 5.69679 15.5602C5.02135 15.9577 4.39593 16.4298 3.94563 17.1007C3.54536 17.6971 3.54536 18.2934 3.92061 18.9146C4.17078 19.3122 4.496 19.6352 4.84623 19.9334C6.07204 20.9273 7.47297 21.5236 8.94895 21.9709C9.1741 22.0455 9.24915 21.9958 9.3242 21.7721C9.69945 20.5794 10.1748 19.4116 10.6751 18.2686C10.7251 18.1443 10.7501 18.0449 10.7001 17.9207C10.1498 16.7529 9.67444 15.5353 9.29919 14.2929C9.29919 14.1935 9.27417 14.0941 9.12407 14.119ZM9.67444 27.015C9.67444 27.5865 9.69945 28.1332 9.82454 28.6798C9.84955 28.8289 9.89958 29.0028 9.94962 29.1519C10.3249 30.2949 11.0503 30.7173 12.2261 30.444C14.1024 29.9968 15.6034 28.8786 16.9793 27.5865C17.0794 27.512 17.0543 27.4374 16.9793 27.3629C16.1037 26.3938 15.2782 25.3999 14.5277 24.3314C14.4526 24.2321 14.3776 24.1824 14.2525 24.1824C12.9516 24.083 11.6758 23.909 10.4249 23.6357C10.2248 23.586 10.1498 23.6357 10.0997 23.8345C9.87457 24.903 9.67444 25.9466 9.67444 27.015ZM26.2605 26.8659C26.2605 25.7975 26.1104 24.7787 25.8852 23.8096C25.8352 23.6109 25.7851 23.5363 25.585 23.586C24.3342 23.8593 23.0583 24.0581 21.7825 24.1575C21.6324 24.1575 21.5573 24.2072 21.4573 24.3563C20.7318 25.3999 19.9563 26.4187 19.0807 27.338C18.9556 27.4623 18.9806 27.5368 19.1057 27.6611C19.531 28.0338 19.9563 28.4313 20.4316 28.7792C21.4072 29.5246 22.4579 30.1707 23.6587 30.444C24.8095 30.7173 25.56 30.3446 25.9603 29.2265C26.2104 28.4313 26.2605 27.6114 26.2605 26.8659ZM9.69945 8.9258C9.67444 10.044 9.87457 11.1124 10.0997 12.1312C10.1748 12.5287 10.1998 12.5039 10.575 12.4293C11.7008 12.1809 12.8265 12.0069 13.9523 11.9075C14.2275 11.8827 14.4276 11.8081 14.5777 11.5597C15.2782 10.5658 16.0287 9.62154 16.8792 8.75186C17.0293 8.60278 17.0043 8.50339 16.8542 8.37915C16.529 8.10582 16.2288 7.80765 15.9036 7.55917C14.8529 6.73919 13.7521 6.0186 12.4513 5.64589C11.0253 5.24832 10.2498 5.72043 9.89958 7.13675C9.74949 7.75795 9.67444 8.37915 9.69945 8.9258ZM24.3342 5.52165C23.9589 5.52165 23.6337 5.59619 23.3335 5.69558C21.6324 6.21739 20.3065 7.31069 19.0307 8.47854C18.8806 8.60278 18.9806 8.67732 19.0807 8.77671C19.9312 9.69608 20.7068 10.6651 21.4072 11.6591C21.5073 11.8081 21.6324 11.8827 21.8075 11.9075C23.0583 12.0069 24.3092 12.2057 25.56 12.479C25.7351 12.5287 25.7851 12.479 25.8352 12.3051C26.1104 11.0876 26.2855 9.84517 26.2354 8.60278C26.1854 7.88219 26.1104 7.1616 25.8102 6.49071C25.4599 5.86952 25.0096 5.4968 24.3342 5.52165ZM32.2895 17.9704C32.2895 17.9704 32.2644 17.9207 32.2644 17.871C32.1894 17.2001 31.7391 16.7529 31.2638 16.3305C29.9879 15.2371 28.4369 14.6408 26.8609 14.1438C26.7108 14.0941 26.6607 14.1438 26.6107 14.2681C26.2354 15.4856 25.7601 16.6535 25.2348 17.7965C25.1847 17.9456 25.1847 18.0449 25.2348 18.1692C25.7851 19.3122 26.2605 20.5049 26.6607 21.7224C26.7108 21.8715 26.7608 21.8964 26.9359 21.8467C27.6364 21.6479 28.2868 21.3994 28.9622 21.1012C29.9879 20.6291 30.9636 20.0576 31.7391 19.188C32.0393 18.8649 32.2394 18.4674 32.2895 17.9704ZM22.4829 22.7909C23.4586 22.6915 24.3342 22.5176 25.2348 22.3436C25.4099 22.3188 25.4349 22.2194 25.3849 22.0703C25.2348 21.6727 25.1097 21.2752 24.9596 20.8776C24.7845 20.4303 24.6094 20.0079 24.4092 19.511C23.7838 20.6291 23.1584 21.6976 22.4829 22.7909ZM13.4519 22.7909C13.3018 22.5424 13.1768 22.3436 13.0517 22.1697C12.5764 21.3994 12.101 20.6043 11.6758 19.8091C11.6507 19.7595 11.6257 19.6601 11.5507 19.6601C11.4506 19.6601 11.4506 19.7595 11.4256 19.8091C11.1254 20.5794 10.8252 21.3497 10.575 22.1448C10.55 22.2442 10.5 22.3436 10.6751 22.3685C11.5757 22.5673 12.4763 22.7163 13.4519 22.7909ZM16.1287 24.3066C16.7041 25.1017 17.3045 25.7726 17.9049 26.4684C18.005 26.5926 18.08 26.5181 18.1551 26.4435C18.7054 25.8223 19.2308 25.1763 19.7311 24.5054C19.7561 24.4557 19.8312 24.406 19.7811 24.3563C19.7311 24.3066 19.6811 24.3314 19.606 24.3314C18.4553 24.3066 17.3295 24.3066 16.1287 24.3066ZM22.533 13.2742C22.533 13.3239 22.533 13.3487 22.558 13.3736C23.1584 14.3178 23.7088 15.2868 24.2591 16.2808C24.2841 16.3305 24.3092 16.405 24.3842 16.3801C24.4342 16.3553 24.4593 16.3056 24.4843 16.2311C24.7845 15.4856 25.0847 14.7402 25.3348 13.9699C25.3849 13.796 25.3599 13.7463 25.1847 13.6966C24.3092 13.5226 23.4336 13.3736 22.533 13.2742ZM16.1037 11.7088C17.3545 11.7088 18.5804 11.7088 19.8062 11.7088C19.2308 10.9385 18.6554 10.2676 18.055 9.59669C17.98 9.52215 17.9299 9.52215 17.8549 9.59669C17.2545 10.2676 16.6791 10.9633 16.1037 11.7088ZM11.5507 16.5044C12.1261 15.3862 12.7265 14.3675 13.4019 13.299C12.4513 13.3984 11.5507 13.5475 10.7001 13.7463C10.575 13.7711 10.55 13.8457 10.6 13.9451C10.8502 14.7899 11.1504 15.6347 11.5507 16.5044Z" fill="#E9EEF1"/>
<path d="M20.7788 17.9885C20.7788 19.5287 19.5024 20.7709 17.9507 20.746C16.474 20.746 15.2227 19.4791 15.2227 17.9885C15.2227 16.4979 16.474 15.231 17.9507 15.231C19.5274 15.231 20.7788 16.4482 20.7788 17.9885Z" fill="#E9EEF1"/>
</svg>
