<svg width="36" height="36" viewBox="0 0 36 36" fill="none" xmlns="http://www.w3.org/2000/svg">
<path fill-rule="evenodd" clip-rule="evenodd" d="M0.869772 19.4808L8.06891 31.9505C8.34572 32.43 8.74389 32.8279 9.22338 33.1047C9.70288 33.3816 10.2468 33.5273 10.8005 33.5272H25.1987C25.7523 33.5272 26.2962 33.3815 26.7756 33.1048C27.255 32.828 27.6532 32.4299 27.93 31.9505L35.1292 19.4811C35.406 19.0016 35.5517 18.4578 35.5517 17.9041C35.5517 17.3505 35.406 16.8066 35.1292 16.3272L27.93 3.85772C27.6532 3.37827 27.2551 2.98014 26.7756 2.70333C26.2962 2.42651 25.7523 2.28078 25.1987 2.28076H10.8005C10.2468 2.28073 9.70289 2.42644 9.2234 2.70326C8.74391 2.98007 8.34574 3.37823 8.06891 3.85772L0.869772 16.3272C0.592983 16.8066 0.447266 17.3504 0.447266 17.904C0.447266 18.4576 0.592983 19.0014 0.869772 19.4808ZM18 11.5425C14.4868 11.5425 11.6387 14.3906 11.6387 17.904C11.6387 21.4172 14.4868 24.2653 18 24.2653C19.4812 24.2653 20.8441 23.7591 21.9252 22.9101L24.4183 25.4024C24.4743 25.4583 24.5501 25.4896 24.6291 25.4896C24.7081 25.4896 24.7839 25.4583 24.8399 25.4024L25.4989 24.7437C25.5544 24.6876 25.5855 24.6119 25.5855 24.5331C25.5855 24.4542 25.5544 24.3785 25.4989 24.3224L23.0059 21.8294C23.8548 20.7483 24.361 19.3853 24.361 17.904C24.361 14.3906 21.5129 11.5425 18 11.5425ZM18 22.7306C15.3342 22.7306 13.1731 20.5695 13.1731 17.9038C13.1731 15.238 15.3342 13.0772 18 13.0772C20.6657 13.0772 22.8268 15.2383 22.8268 17.904C22.8268 20.5698 20.6657 22.7306 18 22.7306ZM14.9805 17.6584V19.6357C15.273 20.138 15.6858 20.5597 16.1817 20.863V17.6584H14.9805ZM17.3624 15.9915V21.315C17.5667 21.3525 17.7757 21.3753 17.9904 21.3753C18.1862 21.3753 18.3771 21.3547 18.5644 21.3235V15.9915H17.3624ZM19.8556 18.48V20.8282C20.3594 20.5078 20.773 20.0641 21.0574 19.5392V18.4803L19.8556 18.48Z" fill="#E9EEF1"/>
</svg>
