<svg width="36" height="36" viewBox="0 0 36 36" fill="none" xmlns="http://www.w3.org/2000/svg">
<path d="M16.7292 29.6115C21.0975 28.8497 24.7053 28.2192 24.7468 28.2106L24.8221 28.1948L20.6981 23.3518C18.4299 20.6881 16.5741 18.4985 16.5741 18.4858C16.5741 18.4619 20.8325 6.88437 20.8564 6.84318C20.8644 6.82941 23.7624 11.769 27.8813 18.8172C31.7375 25.4158 34.9167 30.8563 34.9463 30.9073L35 31L21.8935 30.9983L8.78704 30.9967L16.7292 29.6115ZM1 28.1346C1 28.1278 2.94322 24.7974 5.31827 20.7338L9.63653 13.3454L14.669 9.17584C17.4368 6.88261 19.7089 5.00352 19.718 5.00009C19.7271 4.99667 19.6907 5.08714 19.6371 5.20115C19.5834 5.31516 17.1244 10.5224 14.1725 16.7729L8.80549 28.1373L4.90275 28.1422C2.75624 28.1448 1 28.1414 1 28.1346Z" fill="#E9EEF1"/>
</svg>
