<svg width="36" height="36" viewBox="0 0 36 36" fill="none" xmlns="http://www.w3.org/2000/svg">
<path d="M7.94355 25.3381C6.98753 25.3381 6.11841 24.5612 6.11841 23.6115C6.11841 22.6619 6.90062 21.8849 7.94355 21.8849C8.98649 21.8849 9.7687 22.6619 9.7687 23.6115C9.7687 24.5612 8.89958 25.3381 7.94355 25.3381ZM30.3667 15.9281C30.1929 14.5468 29.3238 13.4245 28.1939 12.5612L27.7594 12.2158L27.4117 12.6475C26.7164 13.4245 26.4557 14.8058 26.5426 15.8417C26.6295 16.6187 26.8903 17.3957 27.3248 18C26.9772 18.1727 26.5426 18.3453 26.195 18.518C25.4128 18.777 24.6306 18.8633 23.8484 18.8633H1.33828L1.25137 19.3813C1.07754 21.0216 1.33828 22.7482 2.03357 24.3022L2.38122 24.9065V24.9928C4.46709 28.446 8.20429 30 12.2891 30C20.1112 30 26.5426 26.6331 29.5845 19.3813C31.5835 19.4676 33.5825 18.9496 34.5385 17.0504L34.7992 16.6187L34.3647 16.3597C33.2348 15.6691 31.6704 15.5827 30.3667 15.9281ZM19.1551 14.5468H15.7656V17.9137H19.1551V14.5468ZM19.1551 10.3165H15.7656V13.6835H19.1551V10.3165ZM19.1551 6H15.7656V9.36691H19.1551V6ZM23.3269 14.5468H19.9373V17.9137H23.3269V14.5468ZM10.7247 14.5468H7.33517V17.9137H10.7247V14.5468ZM14.9834 14.5468H11.5938V17.9137H14.9834V14.5468ZM6.55297 14.5468H3.16342V17.9137H6.55297V14.5468ZM14.9834 10.3165H11.5938V13.6835H14.9834V10.3165ZM10.7247 10.3165H7.33517V13.6835H10.7247V10.3165Z" fill="#E9EEF1"/>
</svg>
