<svg width="36" height="36" viewBox="0 0 36 36" fill="none" xmlns="http://www.w3.org/2000/svg">
<g clip-path="url(#clip0_6598_125426)">
<path fill-rule="evenodd" clip-rule="evenodd" d="M7.72588 14.8871C7.72588 14.7385 7.64694 14.602 7.51771 14.5282L4.07078 12.5605C4.0126 12.5266 3.94741 12.5088 3.88133 12.5064H3.84569C3.77961 12.5088 3.71442 12.5266 3.65526 12.5605L0.208495 14.5282C0.0800778 14.6024 0 14.7389 0 14.8875L0.00756833 20.1873C0.00756833 20.2608 0.0458169 20.3295 0.110921 20.3658C0.174397 20.4045 0.254149 20.4045 0.317626 20.3658L2.36677 19.2015C2.49616 19.1251 2.5751 18.9901 2.5751 18.843V16.3671C2.5751 16.2193 2.65404 16.0828 2.78303 16.0094L3.65542 15.5109C3.7202 15.4737 3.79132 15.4553 3.86375 15.4553C3.93504 15.4553 4.00779 15.4736 4.07078 15.5108L4.94277 16.0091C5.07184 16.0826 5.1511 16.2191 5.1511 16.3668V18.8426C5.1511 18.9895 5.2311 19.1252 5.35984 19.2011L7.40768 20.3646C7.47197 20.4025 7.55197 20.4025 7.61601 20.3646C7.67916 20.3282 7.7192 20.2596 7.7192 20.1861L7.72588 14.8871ZM23.9911 17.6465C23.9911 17.6834 23.9713 17.7175 23.939 17.7358L22.7551 18.4129C22.723 18.4312 22.6832 18.4312 22.6512 18.4129L21.4671 17.7358C21.4346 17.7175 21.415 17.6833 21.415 17.6465V16.2904C21.415 16.2534 21.4346 16.2193 21.4663 16.2007L22.6496 15.5225C22.6821 15.5039 22.722 15.5039 22.7545 15.5225L23.9386 16.2007C23.9712 16.2193 23.9907 16.2534 23.9907 16.2904L23.9911 17.6465ZM24.3109 7.60207C24.2463 7.56638 24.1677 7.56735 24.1039 7.60425C24.0404 7.64139 24.0012 7.70921 24.0012 7.78269V13.0309C24.0012 13.0826 23.9735 13.1302 23.9284 13.156C23.8837 13.1819 23.8279 13.1819 23.7828 13.156L22.9193 12.6626C22.7908 12.5888 22.6324 12.5888 22.5033 12.6626L19.0553 14.637C18.9264 14.7105 18.8469 14.8469 18.8469 14.9939V18.9438C18.8469 19.0915 18.9264 19.2272 19.0553 19.3014L22.5033 21.2772C22.6321 21.3507 22.7906 21.3507 22.9197 21.2772L26.3678 19.3006C26.4964 19.2264 26.5761 19.0907 26.5761 18.943V9.09894C26.5761 8.94908 26.4939 8.81126 26.3621 8.73802L24.3109 7.60207ZM35.7931 16.2547C35.9211 16.1809 36 16.0446 36 15.8976V14.9404C36 14.7931 35.9211 14.6572 35.7927 14.5831L32.3666 12.6097C32.2372 12.5355 32.0786 12.5355 31.9492 12.6097L28.5019 14.5839C28.3725 14.6582 28.2936 14.7938 28.2936 14.9416V18.8898C28.2936 19.0384 28.3741 19.1757 28.5035 19.2491L31.9288 21.1861C32.0549 21.258 32.2096 21.2588 32.3373 21.1885L34.4093 20.046C34.4744 20.0097 34.5159 19.9411 34.5159 19.8668C34.5159 19.7925 34.476 19.7231 34.4109 19.6867L30.9425 17.7118C30.8774 17.6755 30.8375 17.6068 30.8375 17.5334V16.2948C30.8375 16.2208 30.8766 16.1527 30.9417 16.1159L32.0208 15.4982C32.0851 15.4611 32.164 15.4611 32.2283 15.4982L33.3082 16.1159C33.3725 16.1522 33.4124 16.2208 33.4124 16.2943V17.2681C33.4124 17.3415 33.4522 17.4102 33.5165 17.4473C33.5808 17.4836 33.6606 17.4836 33.7249 17.4465L35.7931 16.2547Z" fill="#E9EEF1"/>
<path fill-rule="evenodd" clip-rule="evenodd" d="M32.112 16.086C32.1368 16.0718 32.1678 16.0718 32.1929 16.086L32.8636 16.4625C32.8887 16.4767 32.9041 16.5027 32.9041 16.5308V17.2847C32.9041 17.3128 32.8887 17.3388 32.8636 17.3529L32.1929 17.7294C32.1678 17.7437 32.1368 17.7437 32.112 17.7294L31.4416 17.3529C31.4161 17.3388 31.4004 17.3128 31.4004 17.2847V16.5308C31.4004 16.5027 31.4152 16.4767 31.4408 16.4625L32.112 16.086Z" fill="#E9EEF1"/>
<mask id="mask0_6598_125426" style="mask-type:alpha" maskUnits="userSpaceOnUse" x="9" y="13" width="8" height="9">
<path d="M13.0391 13.1456C13.1529 13.0807 13.293 13.0807 13.4068 13.1456L16.6214 14.9792C16.7352 15.0441 16.8052 15.164 16.8052 15.2938V18.9611C16.8052 19.0909 16.7352 19.2108 16.6214 19.2757L13.4068 21.1093C13.293 21.1742 13.1529 21.1742 13.0391 21.1093L9.82447 19.2757C9.71071 19.2108 9.64062 19.0909 9.64062 18.9611V15.2938C9.64062 15.164 9.71071 15.0441 9.82447 14.9792L13.0391 13.1456Z" fill="white"/>
</mask>
<g mask="url(#mask0_6598_125426)">
<path d="M8.64258 12.8966L12.5008 15.1032L9.59259 20.0929L5.7344 17.8863L8.64258 12.8966Z" fill="#E9EEF1"/>
<path d="M17.2539 14.3481L21.1121 16.5547L17.1005 23.4377L13.2423 21.2311L17.2539 14.3481Z" fill="#E9EEF1"/>
<path d="M12.7988 14.2277L16.657 16.4342L12.6454 23.3172L8.78723 21.1106L12.7988 14.2277Z" fill="#E9EEF1"/>
<path d="M14.1406 11.6289L17.9988 13.8354L15.0906 18.8251L11.2324 16.6186L14.1406 11.6289Z" fill="#E9EEF1"/>
<path d="M9.1582 14.7792L13.0164 12.5726L17.028 19.4555L13.1698 21.6621L9.1582 14.7792Z" fill="#E9EEF1"/>
</g>
<path d="M17.8244 29.3939C17.7055 29.3939 17.5875 29.3631 17.4833 29.3038L16.3977 28.6693C16.2355 28.5797 16.3147 28.5481 16.3681 28.5298C16.5843 28.4551 16.6282 28.4382 16.859 28.3088C16.8832 28.2951 16.915 28.3 16.9398 28.3144L17.7738 28.8031C17.804 28.8191 17.8467 28.8191 17.8746 28.8031L21.1266 26.9498C21.1567 26.9329 21.1762 26.8983 21.1762 26.863V23.158C21.1762 23.121 21.1567 23.0881 21.1259 23.0696L17.8753 21.2179C17.8451 21.2002 17.8053 21.2002 17.7751 21.2179L14.5251 23.0696C14.4936 23.0873 14.4736 23.1218 14.4736 23.1572V26.8622C14.4736 26.8975 14.4932 26.9313 14.5241 26.9482L15.4146 27.4561C15.8981 27.6948 16.1936 27.4135 16.1936 27.1306V23.4739C16.1936 23.4216 16.2351 23.3814 16.288 23.3814H16.6999C16.7512 23.3814 16.7935 23.4216 16.7935 23.4739V27.1322C16.7935 27.7687 16.4419 28.1344 15.8306 28.1344C15.6425 28.1344 15.4944 28.1344 15.0809 27.9335L14.2278 27.4481C14.017 27.3275 13.8867 27.1025 13.8867 26.8622V23.1572C13.8867 22.9161 14.017 22.6911 14.2278 22.5721L17.483 20.718C17.6889 20.6031 17.9624 20.6031 18.1668 20.718L21.4179 22.5729C21.6279 22.6927 21.759 22.9169 21.759 23.158V26.863C21.759 27.1033 21.6279 27.3275 21.4179 27.4481L18.1668 29.3022C18.0626 29.3616 17.9445 29.3922 17.8241 29.3922" fill="#E9EEF1"/>
<path d="M18.7815 26.8483C17.3669 26.8483 17.0703 26.1961 17.0703 25.649C17.0703 25.597 17.1121 25.5555 17.1639 25.5555H17.5815C17.6276 25.5555 17.6665 25.5892 17.6738 25.635C17.7369 26.0624 17.9246 26.278 18.78 26.278C19.4614 26.278 19.7511 26.1234 19.7511 25.7604C19.7511 25.5515 19.6686 25.3963 18.6101 25.2922C17.7248 25.2044 17.1777 25.0085 17.1777 24.2972C17.1777 23.642 17.728 23.2519 18.6497 23.2519C19.6848 23.2519 20.1978 23.6128 20.2626 24.3883C20.265 24.4151 20.2553 24.4411 20.2375 24.4606C20.2197 24.4793 20.1946 24.4907 20.1687 24.4907H19.7487C19.705 24.4907 19.667 24.4598 19.658 24.4175C19.5569 23.968 19.3125 23.8241 18.6481 23.8241C17.9044 23.8241 17.8178 24.0843 17.8178 24.2794C17.8178 24.5159 17.9198 24.585 18.9233 24.7183C19.917 24.8508 20.3888 25.0378 20.3888 25.7393C20.3888 26.4465 19.8013 26.8521 18.7768 26.8521L18.7815 26.8483ZM22.7146 22.8779H22.823C22.912 22.8779 22.929 22.8153 22.929 22.7788C22.929 22.6828 22.8635 22.6828 22.8271 22.6828H22.7154L22.7146 22.8779ZM22.5827 22.5707H22.823C22.9056 22.5707 23.0674 22.5707 23.0674 22.756C23.0674 22.8852 22.9849 22.9121 22.9355 22.9283C23.0318 22.9348 23.0383 22.9982 23.0512 23.0877C23.0577 23.1437 23.0682 23.2405 23.0876 23.273H22.9396C22.9355 23.2405 22.9128 23.0616 22.9128 23.0519C22.9031 23.0121 22.8894 22.9925 22.84 22.9925H22.7178V23.2738H22.5827V22.5707ZM22.2938 22.9202C22.2938 23.2112 22.5276 23.447 22.8149 23.447C23.1046 23.447 23.3385 23.2063 23.3385 22.9202C23.3385 22.6284 23.1014 22.3967 22.8141 22.3967C22.5309 22.3967 22.293 22.6251 22.293 22.9194L22.2938 22.9202ZM23.4389 22.9218C23.4389 23.2665 23.1581 23.5478 22.8157 23.5478C22.4759 23.5478 22.1926 23.2697 22.1926 22.9218C22.1926 22.5674 22.4823 22.2959 22.8157 22.2959C23.1516 22.2959 23.4381 22.5682 23.4381 22.9218" fill="#E9EEF1"/>
</g>
<defs>
<clipPath id="clip0_6598_125426">
<rect width="36" height="36" fill="white"/>
</clipPath>
</defs>
</svg>
