<svg width="36" height="36" viewBox="0 0 36 36" fill="none" xmlns="http://www.w3.org/2000/svg">
<path fill-rule="evenodd" clip-rule="evenodd" d="M7.96925 5.10049V4.05025V3L7.80747 3.00704C5.23039 3.11882 3.83006 3.94862 3.29353 5.68187C3.03876 6.50483 3.029 6.66665 2.99141 10.6847C2.95806 14.2476 2.95054 14.4761 2.85407 14.8719C2.57435 16.0193 2.12016 16.6138 1.34518 16.8467L1 16.9505V17.9747V18.9989L1.16871 19.0302C1.45947 19.0842 1.92706 19.3482 2.14351 19.5805C2.41466 19.8716 2.71483 20.4986 2.84904 21.0542C2.95199 21.4804 2.95746 21.6433 2.99067 25.266C3.02024 28.4898 3.03736 29.0986 3.10905 29.4778C3.23066 30.1207 3.32156 30.411 3.54871 30.8818C3.83778 31.4808 4.37396 32.0018 5.03221 32.3233C5.76264 32.68 6.75859 32.9015 7.63194 32.9015H7.96925V31.8493V30.7971L7.55857 30.7707C6.60701 30.7095 6.01293 30.2359 5.74646 29.3264C5.67064 29.0675 5.65715 28.6274 5.62748 25.4384C5.60011 22.4944 5.57965 21.7575 5.51478 21.3744C5.25085 19.8154 4.66662 18.7833 3.63726 18.0575L3.51391 17.9705L3.66325 17.8669C3.74539 17.81 4.00763 17.5686 4.24598 17.3305C4.6258 16.9511 4.71322 16.8288 4.95356 16.3404C5.25259 15.7328 5.38515 15.3081 5.51199 14.5517C5.58119 14.139 5.59971 13.4763 5.62619 10.4631L5.65775 6.86699L5.78823 6.48365C6.06515 5.66995 6.57301 5.27906 7.50878 5.15936L7.96925 5.10049ZM27.981 33H28.3604C28.8705 33 29.698 32.8738 30.1911 32.7209C31.6462 32.2696 32.4669 31.3625 32.8141 29.8218C32.9215 29.3457 32.9261 29.2101 32.9602 25.5616C32.9987 21.4519 33.0018 21.407 33.2999 20.5988C33.6004 19.784 34.0841 19.2955 34.7326 19.1519L35 19.0927V18.0713C35 18.0573 35 18.0435 35 18.0299C35 17.2704 34.9989 17.0657 34.9065 17.0105C34.8719 16.9898 34.8245 16.9901 34.7595 16.9901C34.6048 16.99 34.0801 16.7089 33.8901 16.5242C33.63 16.2715 33.467 16.0022 33.2999 15.549C33.0023 14.7422 32.9993 14.6974 32.9604 10.5616C32.927 6.99566 32.9188 6.74192 32.8235 6.32512C32.52 4.99882 31.933 4.19783 30.8931 3.69108C30.417 3.45906 29.778 3.27034 29.2429 3.20365C29.0279 3.17685 28.6561 3.14108 28.4165 3.12419L27.981 3.0934V4.14512V5.19685L28.4165 5.25167C29.2441 5.35581 29.7099 5.63 30.0119 6.19074C30.0655 6.29033 30.1102 6.372 30.1476 6.45682C30.3378 6.8879 30.3397 7.40026 30.3701 10.7586C30.3988 13.9187 30.4146 14.4621 30.4891 14.8411C30.7672 16.2553 31.3158 17.2185 32.2255 17.8894L32.4628 18.0643L32.2249 18.2371C31.4284 18.8158 30.8875 19.682 30.6003 20.8392C30.3929 21.6748 30.3705 22.1218 30.3694 25.4488C30.3689 27.2686 30.3476 28.7363 30.3188 28.936C30.1367 30.2011 29.5447 30.795 28.3917 30.8692L27.981 30.8957V31.9478V33ZM20.1654 12.0148C20.1654 7.30212 20.1641 7.23512 20.0659 7.13793C19.9679 7.04099 19.9 7.03941 15.8346 7.03941C11.7691 7.03941 11.7012 7.04099 11.6032 7.13793C11.505 7.23512 11.5037 7.30212 11.5037 12.0148C11.5037 16.7274 11.505 16.7944 11.6032 16.8916C11.7012 16.9886 11.7691 16.9901 15.8346 16.9901C19.9 16.9901 19.9679 16.9886 20.0659 16.8916C20.1641 16.7944 20.1654 16.7274 20.1654 12.0148ZM11.9019 16.5961V12.0148V7.4335H15.8346H19.7672V12.0148V16.5961H15.8346H11.9019ZM18.9707 9.25616V9.05911V8.86207H15.8843H12.7979V9.05911V9.25616H15.8843H18.9707ZM13.3953 11.2266V11.0296V10.8325H13.0966H12.7979V11.0296V11.2266H13.0966H13.3953ZM18.9707 11.2266V11.0296V10.8325H16.2826H13.5944V11.0296V11.2266H16.2826H18.9707ZM24.2474 24.133V18.0739V12.0148H22.8038H21.3602V12.2118V12.4089H22.6047H23.8492V18.0739V23.7389H22.6047H21.3602V23.936V24.133H22.8038H24.2474ZM13.3953 13.3941V13.197V13H13.0966H12.7979V13.197V13.3941H13.0966H13.3953ZM18.9707 13.3941V13.197V13H16.2826H13.5944V13.197V13.3941H16.2826H18.9707ZM13.3953 15.5616V15.3645V15.1675H13.0966H12.7979V15.3645V15.5616H13.0966H13.3953ZM18.9707 15.5616V15.3645V15.1675H16.2826H13.5944V15.3645V15.5616H16.2826H18.9707ZM20.1654 23.7389C20.1654 19.0263 20.1641 18.9593 20.0659 18.8621C19.9679 18.7651 19.9 18.7635 15.8346 18.7635C11.7691 18.7635 11.7012 18.7651 11.6032 18.8621C11.505 18.9593 11.5037 19.0263 11.5037 23.7389C11.5037 28.4516 11.505 28.5186 11.6032 28.6158C11.7012 28.7127 11.7691 28.7143 15.8346 28.7143C19.9 28.7143 19.9679 28.7127 20.0659 28.6158C20.1641 28.5186 20.1654 28.4516 20.1654 23.7389ZM11.9019 28.3202V23.7389V19.1576H15.8346H19.7672V23.7389V28.3202H15.8346H11.9019ZM18.9707 20.9803V20.7833V20.5862H15.8843H12.7979V20.7833V20.9803H15.8843H18.9707ZM13.3953 22.9507V22.7537V22.5567H13.0966H12.7979V22.7537V22.9507H13.0966H13.3953ZM18.9707 22.9507V22.7537V22.5567H16.2826H13.5944V22.7537V22.9507H16.2826H18.9707ZM13.3953 25.1182V24.9212V24.7241H13.0966H12.7979V24.9212V25.1182H13.0966H13.3953ZM18.9707 25.1182V24.9212V24.7241H16.2826H13.5944V24.9212V25.1182H16.2826H18.9707ZM13.3953 27.2857V27.0887V26.8916H13.0966H12.7979V27.0887V27.2857H13.0966H13.3953ZM18.9707 27.2857V27.0887V26.8916H16.2826H13.5944V27.0887V27.2857H16.2826H18.9707Z" fill="#E9EEF1"/>
</svg>
