<svg width="36" height="36" viewBox="0 0 36 36" fill="none" xmlns="http://www.w3.org/2000/svg">
<path fill-rule="evenodd" clip-rule="evenodd" d="M17.2883 9.43548C17.034 9.67506 15.8624 10.9161 14.685 12.1935C12.8295 14.2066 12.4927 14.5209 12.1565 14.5517C11.9433 14.5713 9.43736 14.4247 6.58786 14.2259C3.73825 14.0272 1.18518 13.8806 0.91423 13.9001C0.322103 13.9427 -0.102047 14.3822 0.021473 14.8254C0.115555 15.1631 8.02901 25.7992 8.45304 26.1581L8.76196 26.4194H17.9415C24.1522 26.4194 27.2103 26.3795 27.397 26.2963C27.6849 26.1679 35.7572 15.393 35.9571 14.8704C36.1398 14.3922 35.7208 13.9445 35.0505 13.9017C34.7598 13.8831 32.2521 14.0269 29.4778 14.221C26.7035 14.4153 24.2153 14.5742 23.9485 14.5742C23.4667 14.5742 23.4462 14.5555 21.1898 12.0693C18.7494 9.38044 18.3524 9 17.9867 9C17.8569 9 17.5427 9.19603 17.2883 9.43548ZM17.363 20.571C17.2897 20.6419 11.4519 18.3357 11.4656 18.2413C11.473 18.1899 12.7978 16.6162 14.4094 14.7444L17.3396 11.3412L17.3711 15.937C17.3883 18.4646 17.3847 20.55 17.363 20.571ZM21.9445 15.1545C23.4038 16.8468 24.5598 18.2667 24.5133 18.3098C24.4482 18.3702 21.8521 19.3932 18.7515 20.5803C18.6328 20.6257 18.6013 19.6541 18.6013 15.9537V11.2696L18.9461 11.6735C19.1359 11.8957 20.4851 13.4621 21.9445 15.1545ZM7.96749 15.6918C9.48746 15.8009 10.7505 15.9047 10.7743 15.9225C10.8199 15.9562 9.3649 17.7097 9.29137 17.7097C9.19573 17.7097 3.76697 15.4881 3.70689 15.4244C3.6712 15.3864 3.99334 15.3864 4.4229 15.4244C4.85246 15.4623 6.44752 15.5827 7.96749 15.6918ZM32.284 15.4403C32.2279 15.4946 26.7868 17.7097 26.7096 17.7097C26.6353 17.7097 25.1815 15.9561 25.2267 15.9208C25.2748 15.8832 31.1274 15.4262 31.8685 15.4023C32.1273 15.3939 32.3143 15.411 32.284 15.4403ZM10.2505 18.9308C13.753 20.1955 16.6575 21.2622 16.705 21.3011C16.7524 21.34 15.0843 21.9902 12.9982 22.746C10.9119 23.5016 9.1628 24.0755 9.11114 24.0213C9.03003 23.9361 4.63425 18.0192 3.82392 16.9046C3.64056 16.6522 3.59803 16.5289 3.70809 16.5686C3.80386 16.6031 6.74791 17.6661 10.2505 18.9308ZM32.1613 16.9258C31.3832 17.997 26.9706 23.9364 26.8899 24.0213C26.8382 24.0755 25.0903 23.5022 23.0057 22.747C20.9211 21.9918 19.2416 21.3489 19.2733 21.3183C19.3407 21.2531 32.1916 16.5693 32.3372 16.5569C32.3913 16.5522 32.3121 16.7183 32.1613 16.9258ZM17.3997 23.2258V24.6774L13.8251 24.6695C10.9836 24.6634 10.311 24.6335 10.5458 24.5244C11.0303 24.2992 17.2119 21.7946 17.3096 21.7839C17.3591 21.7786 17.3997 22.4274 17.3997 23.2258ZM22.1502 23.1734C24.0598 23.9431 25.6466 24.5964 25.6764 24.625C25.7062 24.6538 24.1264 24.6774 22.1659 24.6774H18.6013V23.2258C18.6013 22.4274 18.6186 21.7742 18.6397 21.7742C18.6608 21.7742 20.2406 22.4038 22.1502 23.1734Z" fill="#E9EEF1"/>
</svg>
