<svg width="36" height="36" viewBox="0 0 36 36" fill="none" xmlns="http://www.w3.org/2000/svg">
<path d="M30.6819 8.11816C30.1554 8.11816 29.6531 8.17924 29.1731 8.32324C28.6946 8.46724 28.2865 8.67127 27.928 8.94727C27.5695 9.21127 27.2826 9.54471 27.0667 9.92871C26.8507 10.3112 26.7415 10.7563 26.7415 11.2588C26.7415 11.8813 26.9446 12.4667 27.3391 12.9932C27.7336 13.5317 28.3806 13.9403 29.2551 14.2148L30.9895 14.7539C31.576 14.9459 31.9835 15.147 32.1995 15.375C32.4155 15.603 32.5217 15.8769 32.5217 16.2129C32.5217 16.7034 32.3071 17.0871 31.9006 17.3496C31.4941 17.6136 30.9046 17.7451 30.1516 17.7451C29.6731 17.7451 29.2063 17.6976 28.7278 17.6016C28.2613 17.5056 27.8159 17.3611 27.4094 17.1826C27.2894 17.1346 27.1826 17.0865 27.1106 17.0625C27.0386 17.0385 26.9658 17.0273 26.8938 17.0273C26.7138 17.0273 26.6184 17.146 26.6184 17.3965V18.0088C26.6184 18.1168 26.6437 18.2363 26.6917 18.3428C26.7411 18.4553 26.8732 18.5717 27.0637 18.6797C27.3757 18.8597 27.8422 19.0162 28.4407 19.1602C29.0392 19.3042 29.6609 19.377 30.2834 19.377C30.8939 19.377 31.4559 19.2901 31.9944 19.1221C32.5089 18.9661 32.954 18.7541 33.3245 18.4541C33.695 18.1661 33.9815 17.8059 34.1975 17.3994C34.4015 16.9929 34.511 16.5252 34.511 16.0107C34.511 15.3882 34.3307 14.8255 33.9602 14.335C33.5897 13.8445 32.9653 13.461 32.1028 13.1865L30.4036 12.6475C29.7691 12.4435 29.3281 12.2163 29.0881 11.9883C28.8481 11.7603 28.7278 11.4747 28.7278 11.1387C28.7278 10.6482 28.9198 10.3017 29.2903 10.0752C29.6608 9.8472 30.2015 9.73828 30.884 9.73828C31.7345 9.73828 32.5013 9.89653 33.1838 10.207C33.3878 10.303 33.5419 10.3506 33.6379 10.3506C33.8179 10.3506 33.9133 10.2173 33.9133 9.9668V9.40137C33.9133 9.23337 33.8769 9.10329 33.8049 9.00879C33.7329 8.90079 33.614 8.80303 33.4475 8.70703C33.3275 8.63503 33.161 8.56223 32.9465 8.49023C32.7305 8.41823 32.5039 8.3598 32.2639 8.2998C32.0119 8.2518 31.7606 8.20397 31.4846 8.16797C31.2206 8.13197 30.9459 8.11816 30.6819 8.11816ZM5.99048 8.14453C5.33198 8.14453 4.70784 8.21705 4.12134 8.37305C3.53334 8.51555 3.03105 8.69611 2.61255 8.91211C2.44455 8.99611 2.33856 9.07863 2.27856 9.16113C2.21856 9.24513 2.1936 9.39101 2.1936 9.58301V10.1689C2.1936 10.4209 2.27756 10.5381 2.44556 10.5381C2.49356 10.5381 2.55491 10.5269 2.63892 10.5029C2.72142 10.4789 2.86293 10.4317 3.05493 10.3477C3.47343 10.1797 3.90735 10.0499 4.34985 9.94336C4.79235 9.83536 5.22334 9.78516 5.64184 9.78516C6.56434 9.78516 7.21052 9.96544 7.59302 10.3359C7.96352 10.7064 8.15552 11.3415 8.15552 12.252V13.1279C7.67702 13.0199 7.22256 12.9213 6.77856 12.8613C6.33606 12.8013 5.91651 12.7676 5.51001 12.7676C4.27701 12.7676 3.30789 13.0796 2.57739 13.7021C1.84839 14.3246 1.48755 15.149 1.48755 16.166C1.48755 17.1245 1.78581 17.8898 2.37231 18.4658C2.95881 19.0403 3.7638 19.3301 4.7688 19.3301C6.1818 19.3301 7.35285 18.7773 8.28735 17.6748C8.41935 17.9508 8.54092 18.1798 8.65942 18.3838C8.77942 18.5758 8.92359 18.7663 9.09009 18.9463C9.21009 19.0543 9.32901 19.1133 9.44751 19.1133C9.54351 19.1133 9.65298 19.0769 9.76098 19.0049L10.5139 18.5039C10.6699 18.3839 10.7424 18.2621 10.7424 18.1436C10.7424 18.0596 10.7175 17.9642 10.6575 17.8682C10.4895 17.5562 10.3711 17.2708 10.2766 17.0068C10.1926 16.7428 10.1448 16.3829 10.1448 15.9404H10.1184V12.0586C10.1184 10.7416 9.78524 9.76076 9.12524 9.11426C8.45624 8.46926 7.41548 8.14453 5.99048 8.14453ZM11.5569 8.43164C11.3649 8.43164 11.2698 8.5414 11.2698 8.7334C11.2698 8.8174 11.3062 8.97244 11.3782 9.21094L14.1907 18.4658C14.2627 18.6938 14.3466 18.8596 14.4426 18.9316C14.5386 19.0156 14.6822 19.0518 14.8967 19.0518H15.925C16.141 19.0518 16.3095 19.0156 16.4055 18.9316C16.5015 18.8476 16.574 18.6926 16.634 18.4541L18.4768 10.7432L20.3313 18.4658C20.3793 18.7058 20.4638 18.8623 20.5598 18.9463C20.6558 19.0303 20.8109 19.0664 21.0374 19.0664H22.0686C22.2726 19.0664 22.4267 19.0183 22.5227 18.9463C22.6187 18.8743 22.7027 18.716 22.7747 18.4775L25.6604 9.22266C25.7084 9.09066 25.7304 8.99583 25.7424 8.92383C25.7544 8.85183 25.7688 8.79047 25.7688 8.73047C25.7688 8.52647 25.659 8.43164 25.467 8.43164H24.3538C24.1378 8.43164 23.9839 8.47976 23.8879 8.55176C23.8039 8.62376 23.7197 8.77908 23.6477 9.01758L21.5764 17.0391L19.6838 9.01758C19.6358 8.78958 19.5543 8.62376 19.4583 8.55176C19.3623 8.46776 19.2043 8.43164 18.9778 8.43164H18.0198C17.8038 8.43164 17.6382 8.47976 17.5422 8.55176C17.4462 8.62376 17.3737 8.77908 17.3137 9.01758L15.4504 16.9453L13.4377 9.02051C13.3657 8.79251 13.2935 8.62376 13.1975 8.55176C13.1135 8.46776 12.9582 8.43164 12.7317 8.43164H11.5569ZM5.95532 14.1914C6.32582 14.1914 6.69782 14.2166 7.08032 14.2646C7.46282 14.3126 7.83245 14.3828 8.17895 14.4668V14.9707C8.17895 15.3772 8.13084 15.7242 8.05884 16.0107C7.98684 16.2987 7.84504 16.5503 7.65454 16.7783C7.33054 17.1368 6.94832 17.399 6.51782 17.543C6.08732 17.687 5.67892 17.7598 5.28442 17.7598C4.73392 17.7598 4.31409 17.6159 4.02759 17.3174C3.72759 17.0294 3.5852 16.6113 3.5852 16.0488C3.5852 15.4503 3.77664 14.9959 4.17114 14.6719C4.56564 14.3479 5.15282 14.1914 5.95532 14.1914ZM33.3538 21.542C32.0936 21.5598 30.6057 21.8413 29.4807 22.6318C29.1342 22.8838 29.1934 23.2189 29.5774 23.1709C30.8584 23.0149 33.6862 22.6797 34.1887 23.3262C34.6912 23.9607 33.6243 26.6324 33.1458 27.8174C33.0018 28.1759 33.3154 28.3175 33.6379 28.043C35.7439 26.2715 36.2921 22.5727 35.8616 22.0342C35.6463 21.7709 34.6139 21.5242 33.3538 21.542ZM0.262938 22.2568C-0.000803836 22.2894 -0.118601 22.6095 0.160399 22.8604C4.8539 27.0994 11.0686 29.6484 17.9641 29.6484C22.8856 29.6484 28.6062 28.1038 32.5452 25.1953C33.1917 24.7153 32.6294 23.9842 31.9709 24.2842C27.5534 26.1517 22.7541 27.0645 18.3831 27.0645C11.9061 27.0645 5.64363 25.279 0.567626 22.333C0.457001 22.267 0.350852 22.246 0.262938 22.2568Z" fill="#E9EEF1"/>
</svg>
