<svg width="197" height="287" viewBox="0 0 197 287" fill="none" xmlns="http://www.w3.org/2000/svg">
<g opacity="0.8" clip-path="url(#clip0_6620_111423)">
<path d="M7.68152 259.42C7.47434 259.457 7.29676 259.572 7.17837 259.742C7.06491 259.909 7.02298 260.108 7.05998 260.305C7.13151 260.666 7.45708 260.919 7.81964 260.919C7.86651 260.919 7.91337 260.914 7.95776 260.906C8.16495 260.87 8.34253 260.754 8.46092 260.585C8.57438 260.418 8.61631 260.219 8.57931 260.022C8.50038 259.617 8.09835 259.346 7.68152 259.42ZM7.85171 260.169C7.84924 260.172 7.84184 260.179 7.82951 260.182C7.80485 260.184 7.78758 260.172 7.78758 260.16C7.79005 260.155 7.79745 260.15 7.80978 260.147C7.81224 260.147 7.81471 260.147 7.81964 260.147C7.83938 260.147 7.85171 260.157 7.85417 260.165L7.85171 260.169Z" fill="#E9EEF1"/>
<path d="M195.622 275.019C194.65 272.865 193.553 270.426 193.479 267.136C193.979 267.104 194.391 266.94 194.566 266.642C194.919 266.05 194.12 263.108 193.974 262.589L196.253 262.665C196.261 262.665 196.268 262.665 196.275 262.665C196.581 262.665 196.774 262.457 196.83 262.248C196.9 261.992 196.786 261.747 196.547 261.621L193.432 259.99C193.355 259.951 193.271 259.929 193.188 259.924C193.057 259.673 192.911 259.428 192.746 259.194C192.689 259.116 192.63 259.037 192.571 258.961C193.259 258.433 194.791 257.106 194.85 255.711C194.877 255.052 194.588 254.475 193.989 253.994C193.264 253.409 192.342 253.547 191.604 253.657C190.921 253.758 190.588 253.782 190.477 253.569C190.097 252.842 189.229 252.065 188.301 251.989C187.816 251.947 187.103 252.08 186.461 252.932C185.803 253.805 184.945 253.635 184.113 253.47C183.571 253.362 183.055 253.262 182.671 253.524C181.797 254.119 181.97 255.161 182.096 255.922C182.153 256.264 182.212 256.617 182.158 256.774C182.081 256.897 181.588 257.118 181.265 257.266C180.483 257.62 179.6 258.02 179.518 258.725C179.472 259.14 179.708 259.538 180.241 259.943C181.627 260.997 182.656 261.412 183.198 261.575C183.008 262.203 182.86 262.882 182.762 263.604C182.323 266.758 181.082 269.421 179.987 271.772C179.617 272.565 179.257 273.342 178.939 274.11L119.026 251.79V248.299C119.026 246.454 116.39 244.833 111.595 243.72L111.681 215.254C114.964 214.097 118.04 212.419 120.792 210.269C120.753 210.35 120.733 210.424 120.728 210.495C120.721 210.633 120.773 210.758 120.871 210.849C122.215 212.085 123.621 212.679 125.047 212.606C126.598 212.529 127.817 211.687 128.539 211.031C128.623 211.394 128.766 211.9 128.993 212.61C129.287 213.524 129.916 215.322 130.833 217.111C132.53 220.41 134.363 222.105 136.279 222.147L136.449 222.152C137.276 225.168 140.201 227.775 144.507 229.195C146.579 229.878 148.811 230.231 151.147 230.249C151.204 230.249 151.258 230.249 151.315 230.249C158.859 230.249 165.109 226.586 166.096 221.82C166.136 221.837 166.177 221.852 166.222 221.857C167.337 222.007 168.824 221.007 170.405 219.042C173.971 214.613 177.871 205.346 175.377 198.606C175.353 198.537 175.355 198.505 175.353 198.505C175.461 198.365 176.196 198.343 176.512 198.33C177.17 198.308 177.691 198.294 177.873 197.913C177.942 197.77 177.974 197.539 177.75 197.242C177.575 197.011 177.158 196.525 176.578 195.854C175.259 194.324 171.246 189.664 171.34 188.848L171.12 188.811C171.835 188.733 172.837 188.421 173.335 187.838C173.589 187.541 173.688 187.207 173.633 186.844C173.439 185.571 172.568 184.709 171.123 183.279L170.97 183.127C170.005 182.171 169.396 180.262 169.389 180.243L169.204 180.302C169.228 180.383 169.835 182.274 170.832 183.264L170.985 183.417C172.45 184.866 173.256 185.664 173.439 186.873C173.486 187.18 173.399 187.463 173.185 187.716C172.652 188.34 171.475 188.632 170.812 188.639C170.797 188.639 170.785 188.639 170.772 188.639C169.601 188.639 169.016 188.079 168.341 187.431C168.003 187.106 167.655 186.77 167.199 186.468C165.484 185.323 164.769 183.579 165.536 182.414C166.086 181.577 167.386 180.594 167.993 180.189C168.138 180.135 168.244 180.081 168.296 180.036C168.341 180 168.382 179.96 168.378 179.906L168.518 179.923C168.538 179.926 170.639 180.191 174.428 181.159L174.706 181.23L171.387 177.064L171.478 177.042C171.448 176.924 171.372 176.673 171.263 176.334C171.209 176.165 171.16 176.01 171.14 175.934C170.8 174.747 170.304 173.738 169.66 172.91C170.661 172.438 172.864 171.254 172.615 170.065C172.287 168.488 169.576 168.157 168.752 168.093C168.691 168.088 168.656 168.08 168.636 168.073C168.686 168.004 168.861 167.867 169.006 167.754C169.532 167.346 170.41 166.66 169.944 165.896C169.621 165.368 168.876 165.179 168.306 165.115C166.989 164.965 165.391 165.331 164.821 165.916C164.461 166.285 164.337 166.179 164.069 165.953C163.753 165.685 163.321 165.319 162.325 165.567C160.995 165.899 159.984 167.071 159.402 168.95C159.106 169.906 158.99 170.824 158.946 171.321C158.906 171.343 158.864 171.362 158.83 171.384C154.802 173.745 152.765 179.774 152.836 184.507C152.896 188.394 145.918 194.181 143.225 196.083C141.449 197.338 139.066 198.048 136.647 198.564L136.75 198.357C136.713 198.34 133.068 196.52 131.657 194.766C131.598 194.692 131.529 194.616 131.457 194.54C132.187 191.946 132.562 189.261 132.562 186.546C132.562 178.086 129.045 170.227 122.657 164.398L126.958 159.622C128.083 160.359 129.4 160.988 130.88 161.477C132.949 162.16 135.184 162.514 137.52 162.531C137.577 162.531 137.631 162.531 137.688 162.531C145.888 162.531 152.565 158.205 152.607 152.837L152.61 152.614C152.706 152.506 152.797 152.398 152.888 152.285C154.454 150.322 155.332 147.357 155.027 145.075C154.861 143.837 154.348 142.874 153.544 142.284C151.07 140.471 146.532 142.512 144.196 144.935C143.974 144.09 143.528 143.021 142.874 142.004C141.728 140.223 140.317 139.213 138.899 139.164C135.732 139.051 133.218 143.375 132.829 146.676C132.21 145.546 131.366 144.47 130.416 143.63C128.798 142.196 127.116 141.648 125.681 142.08C124.699 142.377 123.866 143.136 123.271 144.279C122.206 146.32 121.994 149.371 122.758 151.695C122.82 151.887 122.894 152.073 122.97 152.258L122.585 152.255L122.583 152.624C122.576 153.614 122.79 154.577 123.205 155.49L123.022 155.323L117.951 160.843C114.939 159.021 109.999 157.222 104.945 156.515C104.963 156.34 104.97 156.164 104.97 155.989V139.614C104.97 138.044 104.314 136.538 103.157 135.428C103.337 135.185 103.495 134.924 103.628 134.651L103.655 134.929C107.094 134.585 108.1 133.622 109.074 132.694C109.158 132.615 109.24 132.534 109.326 132.455C110.833 131.05 111.6 128.719 112.278 126.66C112.619 125.624 112.942 124.646 113.317 123.929C114.296 122.052 115.761 119.897 117.366 119.779C117.199 120.352 117.041 121.315 117.519 122.084C117.941 122.764 118.745 123.133 119.907 123.172C121.16 123.219 122.294 122.41 122.716 121.165C123.074 120.104 122.933 118.615 121.599 117.399C123.575 117.379 125.649 116.402 127.074 114.613C128.641 112.651 129.521 109.685 129.213 107.403C129.048 106.165 128.535 105.202 127.73 104.613C127.183 104.212 126.532 104.001 125.826 103.94C126.334 100.758 126.596 97.4763 126.596 94.1673C126.596 83.7614 125.286 75.2764 122.704 68.9483C119.717 61.6302 114.93 56.9234 108.477 54.9508V49.8854C108.477 49.4064 108.413 48.9347 108.287 48.4778C108.593 48.4876 108.936 48.5515 109.294 48.7062C109.933 48.9838 110.396 49.4825 110.887 50.0107C111.597 50.7771 112.404 51.6443 113.881 51.9464C114.333 52.0373 114.91 52.0963 115.563 52.0963C117.408 52.0963 119.838 51.6394 121.587 50.2195C123.108 48.9838 123.88 47.2348 123.88 45.0238C123.88 41.6682 123.249 38.9193 122.647 36.8975C123.138 37.185 123.705 37.293 124.329 37.212C126.115 36.9762 127.854 35.2074 128.209 33.2692C128.384 32.3136 128.337 30.5547 126.196 29.2994C128.145 28.4126 129.366 26.8404 129.366 25.1429V24.7744H127.139C127.915 23.6419 128.342 22.2638 128.342 20.812C128.342 17.4612 125.908 12.4916 122.546 12.4916C119.184 12.4916 116.75 17.4612 116.75 20.812C116.75 22.2638 117.177 23.6419 117.953 24.7744H115.85V25.1429C115.85 26.7814 116.95 28.2775 118.77 29.1839C116.333 30.5424 115.43 32.9081 116.22 35.9935C116.651 37.6763 117.27 39.0618 117.769 40.1771C118.74 42.3511 119.275 43.5475 117.939 44.8715C116.19 46.6034 114.461 45.3309 112.545 43.6236C112.411 43.5057 112.283 43.3902 112.157 43.2821C110.626 41.9458 108.828 40.6536 106.884 42.2479C106.746 42.3634 106.64 42.3462 106.082 41.7271C105.708 41.312 105.254 40.8084 104.649 40.6856V32.7656C105.816 32.348 107.039 31.7044 107.955 31.0116C109.205 30.0683 109.866 29.0783 109.866 28.1448V27.7763H107.641C108.418 26.6439 108.845 25.2657 108.845 23.8139C108.845 20.4632 106.411 15.4935 103.049 15.4935C99.687 15.4935 97.2526 20.4632 97.2526 23.8139C97.2526 25.2657 97.6793 26.6439 98.4562 27.7763H96.3523V28.1448C96.3523 29.6114 97.8593 31.6528 100.735 32.7337V40.8354C99.4255 41.2751 98.4809 42.4739 98.4809 43.884V44.9256C95.2079 43.0414 93.6738 43.943 91.9152 44.9772C91.0322 45.498 90.1172 46.0335 88.8445 46.3307C85.9341 47.0088 83.697 46.6329 82.1974 45.2105C78.9417 42.1276 79.8247 35.0256 80.3525 32.1146C80.8927 29.152 81.5586 26.7077 82.0963 24.7425C82.8806 21.8658 83.3122 20.2814 82.6389 19.6107C82.1752 19.1514 81.4057 19.3602 81.1541 19.4289C80.7323 19.5444 80.2908 19.7139 80.2267 20.1094C80.1577 20.5442 80.5819 20.8218 81.0752 21.1461C81.64 21.517 82.0963 21.8462 81.9582 22.1336C81.3736 23.357 80.4684 24.0153 79.4029 24.0178C78.3645 24.0104 77.3533 23.3177 76.8871 22.2957C76.2607 20.9299 76.6602 19.2644 77.9872 17.7143C77.9995 17.6971 79.3709 16.0364 83.0039 16.2526C83.9116 16.3067 84.7132 16.7169 85.2607 17.4023C86.1339 18.4954 86.3904 20.2789 86.0056 22.5561C85.7861 23.8532 85.569 25.0839 85.3619 26.2484C84.2421 32.5593 83.4331 37.1186 84.6959 40.2753C84.9968 41.0246 85.5049 41.5478 86.2054 41.8279C88.1835 42.6164 91.1802 41.2481 92.7883 40.5111L92.813 40.4989C95.8788 39.0986 98.2318 40.209 99.6648 41.3881L100.136 40.8207C98.5401 39.5089 95.9182 38.2708 92.5047 39.8307L92.48 39.843C91.0791 40.4841 88.1637 41.8156 86.4792 41.1449C85.9661 40.941 85.606 40.5676 85.3816 40.0051C84.1952 37.0425 84.9894 32.5691 86.0895 26.3785C86.2966 25.2117 86.5162 23.9809 86.7357 22.6814C87.2635 19.5518 86.5482 17.8445 85.8502 16.9626C87.9985 16.1101 89.3674 14.4544 89.3674 12.6562V12.2828H87.1402C87.9171 11.1503 88.3438 9.7722 88.3438 8.32037C88.3438 4.96962 85.9094 0 82.5476 0C79.1859 0 76.7515 4.96962 76.7515 8.32037C76.7515 9.7722 77.1782 11.1503 77.9551 12.2828H75.8512V12.6513C75.8512 14.2751 76.7466 15.5648 78.4484 16.4197C77.7529 16.8225 77.4347 17.2131 77.41 17.2426C75.8956 19.0089 75.4566 20.9618 76.2064 22.5979C76.8008 23.895 78.0513 24.74 79.3906 24.7523C79.398 24.7523 79.4079 24.7523 79.4153 24.7523C80.207 24.7523 80.937 24.46 81.5487 23.9146C81.492 24.121 81.4353 24.3322 81.3761 24.546C80.8359 26.5235 80.1651 28.9874 79.62 31.9795C79.0675 35.0084 78.1648 42.4125 81.6819 45.7412C82.8436 46.8417 84.3654 47.392 86.2325 47.392C87.0859 47.392 88.0133 47.2765 89.0097 47.0431C90.3934 46.7213 91.3997 46.1293 92.2876 45.6061C94.024 44.5866 95.2942 43.8398 98.3946 45.7289C97.403 46.6452 96.9196 48.011 96.9196 49.878V53.9682C90.3811 54.5455 85.1596 57.8545 81.3958 63.8116C78.0686 69.076 75.9598 76.259 75.1162 85.164C74.5268 84.5941 73.4785 83.6066 72.2996 82.6166C69.838 80.5555 68.003 79.4869 66.8487 79.4427C66.2222 79.4182 65.9879 79.6835 65.8967 79.9095C65.5144 80.8528 67.6528 83.1177 69.2708 84.6482C67.0855 84.179 64.3971 83.7343 63.8174 84.2379C63.5239 84.4934 63.3809 84.8422 63.408 85.2427C63.5067 86.7952 66.3283 89.2395 68.521 90.9149C67.8723 90.7331 67.2384 90.6299 66.7698 90.7134C66.3825 90.7822 66.1186 90.9615 65.983 91.2416C65.6796 91.8778 66.1754 92.7769 66.8018 93.9168C66.9794 94.2386 67.1644 94.5727 67.3321 94.9092C67.4727 95.1917 67.6182 95.4595 67.7638 95.7273C68.5111 97.1103 69.219 98.4147 69.4237 101.665C69.6827 105.75 71.6237 108.423 73.7646 111.022C73.8041 111.071 76.7342 114.567 79.3758 116.104C78.7715 116.195 78.2018 116.338 77.6887 116.544C75.829 117.293 75.4467 118.861 75.7057 120.077C76.0461 121.669 77.3558 122.833 78.7789 122.781C79.9406 122.74 80.7422 122.374 81.1664 121.693C81.6449 120.922 81.4871 119.961 81.3194 119.389C82.9275 119.509 84.3901 121.661 85.3693 123.538C85.7417 124.253 86.0648 125.233 86.4076 126.27C87.0859 128.328 87.8554 130.662 89.36 132.065C89.4438 132.143 89.5277 132.222 89.6115 132.303C90.5833 133.232 91.5896 134.192 95.0155 134.538C95.0525 134.644 95.092 134.747 95.1364 134.85C93.5628 135.971 92.628 137.73 92.628 139.609V156.463H93.1534C85.8403 157.674 79.1513 161.281 74.2308 166.771L63.2773 159.6C66.9202 157.8 69.1154 155.011 69.1844 151.943C69.2461 151.943 69.3078 151.943 69.3694 151.946C69.954 152.098 72.0677 152.621 73.3429 152.621C73.6512 152.621 73.9101 152.592 74.0877 152.516C75.0718 152.103 76.3174 151.472 77.2275 150.233C77.6739 149.627 78.8628 147.374 79.9381 145.104C80.9075 143.055 81.3785 141.876 81.5931 141.181C82.2245 141.911 83.2777 142.832 84.7329 143.104C86.1462 143.37 87.6285 142.967 89.1404 141.913C89.2514 141.837 89.318 141.719 89.3304 141.581C89.3698 141.156 88.8469 140.559 87.0316 138.727C86.6469 138.339 86.1807 137.867 85.8354 137.494C85.9686 137.538 86.1018 137.582 86.2226 137.624C87.6014 138.093 88.3956 138.336 88.7138 137.877C88.9629 137.516 88.6669 137.076 88.3463 136.69C87.4657 135.639 85.2805 134.58 83.5268 133.728C82.9669 133.458 82.3183 133.141 81.8965 132.902C82.0716 132.88 82.2418 132.861 82.4095 132.841C83.4528 132.718 84.0818 132.644 84.2988 132.217C84.3679 132.082 84.4147 131.863 84.2569 131.583C82.8633 129.114 72.6276 127.731 71.2932 127.562L66.5577 126.061C67.1644 125.722 67.2113 125.489 67.231 125.395C67.2655 125.233 67.2137 125.071 67.0929 124.951C66.9449 124.806 66.4023 124.496 65.0063 123.717C63.6621 122.966 61.9898 122.03 61.5089 121.637C60.8552 121.099 59.881 119.517 59.5209 118.821C60.0117 118.799 60.9465 118.836 61.7456 118.898L62.6508 118.966L58.961 114.775C58.8204 114.417 57.967 112.007 58.633 107.791C59.3335 103.365 58.7785 99.4121 57.2863 98.007C58.078 97.469 59.9155 96.0638 59.7231 94.7201C59.479 93.0275 57.1753 93.2338 56.4156 93.3002L56.3786 93.3026C56.3466 93.3051 56.3219 93.2977 56.2997 93.2805C56.1665 93.17 56.1295 92.7327 56.0925 92.3102C56.0358 91.642 55.9717 90.8829 55.5327 90.6029C55.323 90.4702 55.0517 90.4629 54.7261 90.5808C53.9911 90.8461 53.4855 91.2539 53.1155 91.5536C52.7949 91.814 52.5606 92.0007 52.3559 91.9736C52.2301 91.9564 52.0994 91.8557 51.9563 91.6617C51.3964 90.9075 50.5184 90.0944 49.7291 90.0747C49.3567 90.0649 49.0533 90.2197 48.7968 90.5341C48.3652 91.0623 48.3109 91.7525 48.2665 92.3077C48.2147 92.9784 48.1703 93.3272 47.7486 93.3051C47.4624 93.2904 47.0801 93.1626 46.6756 93.025C45.7187 92.7057 44.5298 92.3053 44.1475 93.369C43.7159 94.5653 45.6496 97.0759 46.3476 97.9283C45.4918 98.6457 44.7987 99.5914 44.2758 100.761C44.2437 100.832 44.1747 100.977 44.0982 101.134C43.9428 101.461 43.8269 101.699 43.7825 101.815L43.8688 101.849L40.0384 105.497L40.258 105.512C40.6797 105.539 41.1089 105.551 41.5356 105.551C42.9365 105.551 44.3202 105.423 45.3906 105.286C45.2895 105.492 44.4534 107.143 43.4273 107.917L43.2522 108.049C41.6194 109.278 40.6329 110.02 40.2629 111.253C39.8658 112.569 40.7858 113.471 41.6959 113.844C41.8784 113.921 42.0486 114.056 42.2163 114.215C41.0645 115.011 35.0094 120.718 34.706 121.02C34.4766 121.251 34.3878 121.484 34.447 121.71C34.5432 122.084 34.9576 122.204 35.3547 122.32C35.4804 122.356 35.6704 122.41 35.7764 122.462C35.7592 122.484 35.7345 122.514 35.7024 122.548C35.5273 122.73 35.2634 122.993 34.9526 123.305C31.7536 126.503 30.8633 127.581 30.9742 128.117C31.0754 128.603 31.6279 128.741 32.1137 128.864C32.2815 128.906 32.5478 128.972 32.6588 129.036C32.6564 129.041 32.6514 129.048 32.649 129.055C32.5996 129.139 32.5256 129.259 32.4319 129.407C30.1455 133.101 29.4944 134.924 30.1825 135.7C30.4316 135.98 30.6881 136.197 30.9151 136.386C31.5144 136.887 31.877 137.192 31.7216 138.317C31.692 138.535 31.6501 138.801 31.6032 139.098C31.1 142.323 30.7301 145.519 32.2075 146.072C32.8512 146.313 33.4925 146.377 34.0104 146.426C34.8268 146.507 35.071 146.566 35.1031 146.816C35.2239 147.747 36.6421 151.209 37.3796 151.715C37.5449 151.828 37.6904 151.833 37.7915 151.813C37.9074 151.801 38.3909 151.793 39.1579 151.788C39.1579 157.193 45.8913 161.588 54.1687 161.588C54.5658 161.588 54.9604 161.575 55.3526 161.553L70.6298 171.664C67.9019 176.28 66.459 181.525 66.459 186.863C66.459 194.729 69.5396 202.204 75.136 207.941L71.8013 211.603C69.8504 212.104 67.8378 213.347 66.5207 214.713C66.2987 213.868 65.8523 212.8 65.1987 211.783C64.0518 210.002 62.641 208.992 61.2227 208.94C58.0583 208.837 55.5425 213.153 55.1528 216.452C54.5337 215.32 53.6902 214.246 52.7406 213.406C51.1227 211.974 49.4405 211.421 48.0051 211.856C47.0234 212.154 46.1898 212.913 45.5953 214.055C44.5298 216.096 44.3177 219.147 45.0823 221.471C45.144 221.66 45.2155 221.85 45.2944 222.034L44.9121 222.031L44.9097 222.4C44.8801 226.163 48.0593 229.556 53.2043 231.253C55.2737 231.936 57.5083 232.29 59.844 232.307C59.9007 232.307 59.955 232.307 60.0117 232.307C68.2127 232.307 74.8893 227.981 74.9313 222.614L74.9337 222.39C75.0299 222.284 75.1212 222.174 75.21 222.061C76.7762 220.098 77.6567 217.133 77.3484 214.851C77.3237 214.667 77.2892 214.49 77.2497 214.318L79.6027 211.738C81.5487 213.112 83.623 214.256 85.7935 215.165L85.7072 243.563C80.6435 244.644 77.8639 246.314 77.8639 248.29V251.859L18.0525 274.142C17.7344 273.373 17.3743 272.597 17.0043 271.804C15.9092 269.453 14.6661 266.79 14.2295 263.636C14.1284 262.913 13.9804 262.235 13.793 261.607C14.3356 261.444 15.3641 261.029 16.7503 259.975C17.283 259.57 17.5198 259.172 17.4729 258.757C17.394 258.052 16.5085 257.651 15.7267 257.298C15.4011 257.15 14.9103 256.929 14.8388 256.819C14.7796 256.649 14.8388 256.295 14.8955 255.952C15.0213 255.19 15.1939 254.148 14.3208 253.554C13.936 253.291 13.4205 253.392 12.8779 253.5C12.0467 253.664 11.1859 253.834 10.5299 252.962C9.8886 252.109 9.17333 251.979 8.6899 252.019C7.76252 252.095 6.89433 252.871 6.5145 253.598C6.40351 253.812 6.07054 253.787 5.38733 253.687C4.6474 253.576 3.72741 253.441 3.00228 254.023C2.40293 254.505 2.11436 255.082 2.14149 255.74C2.20068 257.133 3.73235 258.462 4.41802 258.99C4.35882 259.066 4.29963 259.145 4.2429 259.224C4.07765 259.457 3.93213 259.703 3.80141 259.953C3.71755 259.958 3.63369 259.978 3.55723 260.02L0.442107 261.651C0.202862 261.776 0.091872 262.022 0.158466 262.277C0.215194 262.488 0.407577 262.695 0.713417 262.695C0.720816 262.695 0.728215 262.695 0.735615 262.695L3.01461 262.619C2.86909 263.137 2.07243 266.08 2.42266 266.672C2.59778 266.967 3.00968 267.131 3.51037 267.166C3.43637 270.455 2.3388 272.894 1.36702 275.049C0.627091 276.687 -0.0117188 278.105 -0.0117188 279.535C-0.0117188 284.408 3.25386 286.985 9.42984 286.985C11.3191 286.985 13.2134 286.585 14.819 285.752L14.8289 285.794C25.881 283.192 44.8332 278.81 60.6111 275.172C64.3403 281.905 80.5918 286.764 99.5316 286.764C118.013 286.764 134.101 282.077 138.223 275.56C153.606 279.107 171.525 283.254 182.148 285.752L182.158 285.71C183.766 286.543 185.66 286.946 187.547 286.946C193.723 286.946 196.988 284.369 196.988 279.495C197.001 278.075 196.362 276.66 195.622 275.019ZM81.4797 20.527C81.3489 20.441 81.1714 20.3256 81.0554 20.2322C81.1196 20.2052 81.2133 20.1733 81.3465 20.1364C81.7386 20.0308 82.0124 20.0259 82.1135 20.1291C82.2467 20.2617 82.2665 20.5933 82.2073 21.0626C81.9779 20.8537 81.7066 20.6769 81.4797 20.527ZM77.4964 8.32037C77.4964 4.97699 79.8765 0.736968 82.5526 0.736968C85.2287 0.736968 87.6088 4.97699 87.6088 8.32037C87.6088 9.80905 87.113 11.2068 86.2202 12.2828H78.8874C77.9896 11.2068 77.4964 9.80905 77.4964 8.32037ZM76.6134 13.0198H88.6052C88.4178 14.4421 87.1574 15.7318 85.2879 16.3803C84.6663 15.8669 83.8943 15.5648 83.0483 15.5156C81.4303 15.4174 80.2094 15.6679 79.3265 16.007C77.6665 15.3363 76.754 14.334 76.6134 13.0198ZM194.401 266.547C194.103 267.05 192.704 267.124 191.629 266.512C190.862 266.075 190.817 265.598 190.785 265.25C190.775 265.132 190.765 265.031 190.731 264.945C190.667 264.793 190.521 264.721 190.317 264.621C190.026 264.478 189.586 264.262 189.041 263.658C188.874 263.471 188.832 263.294 188.913 263.11C189.177 262.523 190.556 262.088 190.913 262.027C190.985 262.272 191.197 262.501 191.557 262.513L193.816 262.589L193.775 262.601C194.162 263.96 194.645 266.136 194.401 266.547ZM196.46 261.796C196.65 261.896 196.682 262.071 196.645 262.201C196.611 262.331 196.48 262.481 196.261 262.476L191.567 262.319C191.259 262.309 191.101 262.09 191.084 261.877C191.066 261.685 191.158 261.442 191.471 261.376C191.552 261.358 191.639 261.341 191.725 261.324C192.287 261.218 192.625 260.727 192.81 260.334C192.832 260.287 192.864 260.246 192.904 260.211L193.067 260.133C193.099 260.125 193.128 260.118 193.16 260.118C193.225 260.118 193.286 260.133 193.345 260.165L196.46 261.796ZM180.69 259.364C180.404 259.145 180.239 258.939 180.253 258.813C180.286 258.524 181.09 258.16 181.571 257.941C182.209 257.651 182.715 257.423 182.851 257.032C182.971 256.686 182.9 256.259 182.826 255.804C182.693 254.993 182.639 254.441 183.087 254.134C183.216 254.045 183.615 254.124 183.968 254.195C184.824 254.365 186.116 254.62 187.053 253.377C187.406 252.91 187.803 252.692 188.242 252.726C188.893 252.78 189.542 253.377 189.821 253.91C190.188 254.615 190.997 254.495 191.713 254.387C192.371 254.288 193.052 254.188 193.525 254.568C193.937 254.9 194.13 255.264 194.112 255.681C194.07 256.698 192.81 257.86 192.087 258.406C191.027 257.33 189.628 256.689 188.262 256.689C186.161 256.689 184.407 258.268 183.433 260.879C182.986 260.749 182.027 260.378 180.69 259.364ZM177.893 277.972L110.335 255.062L118.6 252.421L178.668 274.801C178.263 275.869 177.972 276.921 177.893 277.972ZM80.9962 211.8L85.3421 206.435C89.2662 208.913 93.8119 210.218 98.5499 210.218C105.148 210.218 111.765 207.398 116.392 202.647C117.204 204.307 120.459 206.206 121.91 206.987C121.929 207.014 121.954 207.041 121.979 207.064C116.015 213.397 107.617 216.995 98.6486 216.995C92.2827 216.998 86.2103 215.202 80.9962 211.8ZM98.7448 182.549C98.8607 182.549 98.9766 182.557 99.0926 182.567L99.1246 182.596L99.1493 182.569C101.515 182.766 103.379 184.667 103.379 186.979C103.379 189.421 101.3 191.408 98.7448 191.408C96.1896 191.408 94.1103 189.421 94.1103 186.979C94.1103 184.537 96.1896 182.549 98.7448 182.549ZM92.1175 166.764V178.481L91.4022 178.012V166.867H91.306C94.1547 165.747 97.2452 165.15 100.415 165.15C101.89 165.15 103.362 165.28 104.797 165.533C105.227 165.641 105.651 165.764 106.07 165.894H106.021V173.897L98.8385 181.81C98.8089 181.81 98.7769 181.808 98.7473 181.808C98.2959 181.808 97.8593 181.862 97.44 181.962L92.3098 178.604V166.759H92.1175V166.764ZM90.6598 166.867V166.921C87.6778 168.181 84.982 170.021 82.7598 172.355L81.7164 171.672C86.1585 167.235 92.1323 164.791 98.5524 164.791C99.7536 164.791 100.92 164.867 102.055 165.017C101.507 164.983 100.96 164.958 100.412 164.958C97.0553 164.958 93.7848 165.624 90.793 166.867H90.6598ZM90.6598 167.13V177.528L82.9225 172.463C85.1053 170.181 87.7444 168.375 90.6598 167.13ZM111.153 168.242L107.723 172.023V166.488C108.919 166.972 110.063 167.557 111.153 168.242ZM106.983 166.388V172.839L106.213 173.689V165.943C106.637 166.078 107.057 166.228 107.469 166.388H106.983ZM121.261 165.946C121.495 166.179 121.727 166.412 121.954 166.651L116.698 171.976C116.553 171.817 116.402 171.662 116.252 171.505L121.261 165.946ZM129.622 192.061C129.573 191.983 129.526 191.907 129.477 191.828C128.345 190.013 127.277 188.298 126.293 188.111C126.009 188.057 125.752 188.116 125.543 188.278C124.993 188.713 124.948 189.782 124.906 190.816C124.889 191.219 124.867 191.803 124.793 192.024C124.605 192.01 124.354 191.965 124.112 191.924C123.404 191.798 122.738 191.681 122.368 191.995C122.262 192.086 122.134 192.25 122.139 192.523C122.144 192.808 122.351 193.336 122.748 194.324C123.061 195.1 123.612 196.468 123.663 197.019C121.976 196.11 121.019 196.277 120.489 196.63C121.897 193.646 122.615 190.457 122.615 187.136C122.615 181.589 120.568 176.302 116.826 172.121L122.085 166.793C127.259 172.323 130.091 179.39 130.091 186.873C130.091 188.617 129.933 190.356 129.622 192.061ZM119.929 200.369C119.046 200.301 117.448 200.283 116.671 200.939C116.634 200.969 116.602 201.001 116.57 201.035L101.5 191.41C102.565 190.796 103.392 189.836 103.811 188.693L119.678 198.2C119.586 199.004 119.769 199.834 119.929 200.369ZM106.983 195.785V207.776C106.726 207.845 106.47 207.916 106.213 207.977V195.294L106.983 195.785ZM106.376 208.132C106.322 208.152 106.265 208.169 106.211 208.189V208.174C106.267 208.162 106.322 208.147 106.376 208.132ZM108.253 207.393C108.078 207.452 107.9 207.506 107.723 207.56V196.257L116.229 201.691C116.224 201.713 116.22 201.735 116.217 201.76C113.99 204.152 111.25 206.069 108.253 207.393ZM104.082 187.583L119.85 197.488C119.789 197.652 119.742 197.822 119.71 197.994L103.877 188.509C103.976 188.209 104.043 187.9 104.082 187.583ZM115.756 172.058C119.702 176.187 121.878 181.523 121.878 187.136C121.878 190.425 121.152 193.584 119.719 196.532L107.723 188.998V180.977L115.756 172.058ZM106.983 188.534L106.213 188.05V182.655L106.983 181.8V188.534ZM106.018 187.927L104.114 186.731C104.09 186.232 103.991 185.753 103.828 185.301L106.018 182.869V187.927ZM98.7448 192.142C99.4403 192.142 100.104 192.015 100.713 191.781L106.016 195.169V208.019C104.193 208.437 102.319 208.65 100.41 208.65C97.5979 208.65 94.8725 208.194 92.3098 207.312V197.832L97.5486 192.086L97.4376 191.985C97.8569 192.088 98.2934 192.142 98.7448 192.142ZM92.1175 207.248C91.8437 207.152 91.5748 207.049 91.306 206.943H91.4022V198.829L92.1175 198.043V207.248ZM90.6598 206.678C89.1676 206.039 87.742 205.248 86.4002 204.312L90.6598 199.642V206.678ZM86.2695 204.455C87.6507 205.42 89.1207 206.233 90.6598 206.887V206.943H90.788C93.7848 208.194 97.038 208.845 100.41 208.845C102.319 208.845 104.193 208.631 106.016 208.218V208.257C103.604 209.056 101.076 209.483 98.5475 209.483C93.77 209.483 89.1996 208.112 85.2953 205.523L86.2695 204.455ZM122.393 208.675C119.456 211.326 116.069 213.384 112.406 214.784C116.335 213.003 119.882 210.451 122.827 207.235C123.224 207.208 123.737 207.113 124.369 206.987C124.492 206.963 124.628 206.936 124.761 206.911C124.366 207.235 123.841 207.641 123.404 207.972C123.034 208.255 122.714 208.503 122.435 208.724L122.393 208.675ZM151.315 229.514C151.26 229.514 151.206 229.514 151.152 229.514C148.895 229.497 146.739 229.155 144.742 228.497C140.159 226.986 137.241 224.1 136.975 220.877L137.012 220.761C139.15 220.783 151.951 220.911 159.96 220.882L165.479 220.921C165.137 225.714 158.916 229.516 151.315 229.514ZM174.196 180.899C171.13 180.127 169.219 179.825 168.691 179.751C168.984 179.297 170.025 177.737 170.871 177.187L171.179 177.113L174.196 180.899ZM162.369 165.754C163.267 165.53 163.642 165.845 163.94 166.098C164.212 166.329 164.471 166.547 164.957 166.049C165.492 165.501 167.016 165.16 168.281 165.304C169.026 165.388 169.556 165.634 169.776 165.995C170.124 166.565 169.552 167.078 168.886 167.599C168.567 167.847 168.392 167.982 168.437 168.132C168.471 168.245 168.614 168.272 168.735 168.279C169.298 168.324 172.112 168.616 172.422 170.1C172.644 171.161 170.474 172.306 169.532 172.75C168.794 171.856 167.877 171.185 166.777 170.746C163.967 169.628 160.813 170.36 159.148 171.205C159.284 169.893 159.878 166.378 162.369 165.754ZM143.649 196.685C143.745 196.616 152.888 190.103 153.537 185.099C154.188 185.93 154.785 186.335 155.35 186.335C155.355 186.335 155.36 186.335 155.365 186.335C156.164 186.325 156.689 185.483 157.037 184.925C157.177 184.699 157.308 184.488 157.397 184.436L157.298 184.269C157.17 184.345 157.047 184.544 156.874 184.822C156.529 185.375 156.058 186.131 155.365 186.141C154.822 186.151 154.225 185.701 153.566 184.814C153.574 184.706 153.579 184.598 153.576 184.493C153.507 179.97 155.419 174.232 159.205 172.016C160.576 171.212 163.773 170.343 166.508 171.431C168.434 172.198 169.754 173.78 170.43 176.133C170.452 176.214 170.504 176.376 170.56 176.553C170.615 176.72 170.674 176.917 170.718 177.057C169.697 177.764 168.508 179.68 168.451 179.774L168.382 179.887C168.382 179.884 168.382 179.882 168.382 179.879L168.363 179.818L168.301 179.808C168.252 179.803 168.114 179.879 167.904 180.014C167.199 180.265 165.346 180.624 163.681 180.27C162.3 179.977 161.341 179.277 160.828 178.192L160.653 178.273C161.193 179.415 162.199 180.152 163.642 180.457C164.979 180.741 166.478 180.577 167.416 180.353C166.72 180.867 165.807 181.65 165.378 182.304C164.552 183.562 165.29 185.419 167.092 186.625C167.532 186.92 167.874 187.249 168.207 187.566C168.854 188.185 169.465 188.772 170.607 188.824C170.59 189.826 172.588 192.351 176.016 196.333C176.477 196.869 176.857 197.311 177.062 197.562C176.892 197.581 176.662 197.589 176.49 197.593C175.779 197.616 175.047 197.64 174.741 198.092C174.64 198.24 174.551 198.493 174.687 198.859C176.021 202.47 175.308 206.594 174.472 209.422C173.481 212.78 171.747 216.202 169.83 218.58C168.649 220.046 167.514 220.955 166.695 221.11C166.829 220.806 166.962 220.469 166.762 220.204C166.693 220.113 166.533 219.97 166.214 220.012C165.635 220.091 163.228 220.128 160.024 220.137L136.22 219.965L136.218 220.334C136.218 220.481 136.222 220.631 136.23 220.778L136.03 221.385C132.121 220.882 129.247 211.434 129.163 210.345C129.23 210.154 129.122 209.999 129.043 209.938C129.015 209.916 128.761 209.731 128.507 210.016C128.039 210.544 126.759 211.78 125.015 211.866C123.853 211.925 122.687 211.451 121.55 210.458C121.895 210.058 123.061 209.164 123.863 208.547C125.831 207.036 126.095 206.779 126.041 206.425C126.019 206.275 125.918 206.152 125.77 206.098C125.53 206.01 125.156 206.071 124.228 206.258C124.048 206.295 123.816 206.339 123.582 206.383C123.653 206.3 123.727 206.216 123.796 206.132L123.505 205.892C124.613 205.236 126.428 204.634 127.822 204.172C129.933 203.472 130.485 203.271 130.476 202.787C130.473 202.622 130.387 202.401 129.99 202.288C129.644 202.187 129.307 202.101 129.008 202.028C128.576 201.919 128.009 201.775 127.792 201.654C128.53 200.782 130.989 200.347 133.593 199.885C137.041 199.281 140.953 198.591 143.649 196.685ZM135.855 198.726C135.048 198.886 134.242 199.028 133.462 199.166C130.429 199.701 128.031 200.126 127.166 201.256C126.968 201.514 126.986 201.738 127.037 201.88C127.195 202.332 127.809 202.487 128.823 202.745C128.986 202.787 129.151 202.828 129.319 202.873C128.868 203.054 128.177 203.283 127.585 203.477C125.728 204.091 123.414 204.858 122.393 205.784C122.248 205.914 122.107 206.054 122.001 206.199C118.314 204.189 116.935 202.531 116.947 201.924C116.95 201.75 117.016 201.615 117.152 201.499C117.823 200.932 119.737 201.062 120.42 201.16L121.066 201.254L120.812 200.654C120.805 200.635 119.998 198.692 120.639 197.53C121.125 196.653 122.534 197.245 123.33 197.675C123.779 197.918 124.048 197.815 124.194 197.684C124.665 197.269 124.324 196.257 123.436 194.051C123.207 193.481 122.926 192.779 122.886 192.545C123.089 192.494 123.666 192.594 123.986 192.651C124.324 192.71 124.645 192.766 124.904 192.766C125.572 192.766 125.607 191.919 125.651 190.845C125.681 190.143 125.723 189.081 126.009 188.858C126.026 188.843 126.061 188.819 126.159 188.836C126.825 188.964 127.95 190.769 128.853 192.219C129.178 192.742 129.514 193.275 129.834 193.754L129.775 193.796C130.012 194.135 130.33 194.452 130.609 194.732C130.791 194.913 130.962 195.085 131.08 195.23C132.254 196.689 134.738 198.124 135.855 198.726ZM132.365 186.546C132.365 189.204 132.002 191.835 131.297 194.378C131.243 194.321 131.186 194.265 131.129 194.208C130.944 194.022 130.754 193.832 130.589 193.638L130.629 193.611C130.488 193.41 130.345 193.194 130.199 192.97C130.616 190.976 130.828 188.927 130.828 186.875C130.828 178.793 127.607 171.185 121.752 165.398L122.521 164.543C128.872 170.335 132.365 178.142 132.365 186.546ZM137.685 161.794C137.631 161.794 137.577 161.794 137.522 161.794C135.265 161.777 133.107 161.435 131.112 160.777C129.612 160.283 128.29 159.64 127.183 158.888L126.875 158.613L126.843 158.65C124.714 157.097 123.449 155.117 123.333 153L151.487 153.201L151.712 153.476C151.754 153.442 151.793 153.405 151.835 153.37C151.359 158.08 145.198 161.794 137.685 161.794ZM134.254 152.339L133.687 152.334C133.744 152.12 133.795 151.906 133.83 151.685C133.963 151.919 134.104 152.137 134.254 152.339ZM142.31 152.395C142.403 152.299 142.495 152.199 142.581 152.091C142.628 152.194 142.677 152.297 142.731 152.398L142.31 152.395ZM153.1 142.881C153.739 143.348 154.149 144.144 154.289 145.175C154.565 147.241 153.732 150.039 152.304 151.828C152.126 152.051 151.931 152.263 151.729 152.462L143.595 152.403C143.38 152.076 143.212 151.722 143.092 151.349C143.101 151.334 143.109 151.322 143.119 151.304L143.067 151.275C142.606 149.764 142.899 147.959 143.93 146.426C144.029 146.278 144.137 146.131 144.248 145.991H144.362C144.362 145.949 144.359 145.903 144.357 145.858C146.512 143.257 151.001 141.343 153.1 142.881ZM133.517 147.298C133.647 143.957 136.185 139.803 138.869 139.904C141.451 139.997 143.336 143.937 143.59 145.645C143.496 145.767 143.4 145.893 143.313 146.02C142.216 147.654 141.871 149.575 142.287 151.238C141.954 151.744 141.671 152.032 141.185 152.376L141.195 152.388L135.236 152.346C134.664 151.779 134.195 150.911 133.889 149.941C133.84 149.403 133.729 148.865 133.556 148.339C133.556 148.337 133.554 148.335 133.554 148.332C133.517 147.983 133.502 147.637 133.517 147.298ZM123.459 151.467C122.761 149.349 122.958 146.47 123.925 144.62C124.428 143.66 125.109 143.026 125.893 142.788C127.484 142.306 129.099 143.456 129.921 144.183C131.193 145.31 132.298 146.951 132.824 148.487C132.885 149.037 133.001 149.585 133.162 150.106C133.221 150.87 133.139 151.624 132.92 152.329L123.787 152.263C123.661 152.005 123.547 151.739 123.459 151.467ZM123.434 155.962C124.075 157.156 125.062 158.252 126.342 159.197L103.495 184.564C102.743 183.2 101.376 182.198 99.7511 181.901L112.182 168.203L123.434 155.962ZM117.199 161.659C114.121 159.573 110.737 158.043 107.165 157.107C111.368 157.969 115.322 159.492 117.815 160.988L117.199 161.659ZM102.518 135.047C101.996 135.732 101.041 136.553 99.4527 136.568C97.7459 136.582 96.5497 135.993 95.9355 134.809C95.4102 133.799 95.2992 132.332 95.6198 130.682C96.1649 127.884 97.5609 125.059 99.4576 125.059C100.925 125.059 102.023 125.982 103.3 130.706C103.705 132.217 103.406 133.88 102.518 135.047ZM128.478 107.499C128.754 109.565 127.92 112.363 126.492 114.151C124.85 116.213 122.262 117.087 120.161 116.473C119.996 116.402 119.826 116.34 119.65 116.289C119.352 116.161 119.066 116.001 118.799 115.805C117.855 115.112 117.243 114.056 117.08 112.832C116.876 111.299 117.374 109.646 118.452 108.295C120.057 106.283 123.071 104.654 125.365 104.654C126.105 104.654 126.771 104.824 127.289 105.205C127.928 105.671 128.337 106.465 128.478 107.499ZM122.016 69.2234C124.564 75.4631 125.854 83.8547 125.854 94.1649C125.854 97.4714 125.59 100.751 125.077 103.925C123.629 104.001 122.031 104.613 120.635 105.47C121.291 101.923 121.626 98.2207 121.626 94.4572C121.626 80.4696 119.256 63.1484 108.093 59.267C108.339 58.6504 108.475 57.9847 108.475 57.287V55.7173C114.594 57.6629 119.15 62.2026 122.016 69.2234ZM117.487 20.812C117.487 17.4686 119.867 13.2286 122.544 13.2286C125.22 13.2286 127.6 17.4686 127.6 20.812C127.6 22.3007 127.104 23.6984 126.211 24.7744H118.878C117.983 23.6984 117.487 22.3007 117.487 20.812ZM116.612 25.5114H128.599C128.414 26.9116 127.193 28.1792 125.373 28.8376C124.445 28.3978 122.603 27.7984 120.361 28.5059C120.112 28.5845 119.875 28.6705 119.645 28.7639C117.912 28.0809 116.784 26.8674 116.612 25.5114ZM106.859 43.0463L106.857 43.0439C107.015 43.0242 107.18 42.953 107.353 42.8129C108.714 41.6952 109.918 42.3093 111.667 43.8324C111.79 43.9405 111.916 44.0535 112.046 44.169C113.65 45.5962 116.072 47.7555 118.457 45.3899C120.156 43.7071 119.436 42.0981 118.439 39.8724C117.926 38.7277 117.347 37.4282 116.932 35.8068C116.077 32.4635 117.305 30.2427 120.583 29.2061C123.397 28.3168 125.567 29.7833 125.59 29.7981L125.627 29.8202C127.476 30.8077 127.654 32.1687 127.476 33.1341C127.18 34.753 125.693 36.2859 124.228 36.4775C123.345 36.5954 122.622 36.1827 122.134 35.286C122.114 35.2222 122.092 35.1608 122.072 35.1018C122.05 35.0379 122.028 34.9716 122.008 34.9053C122.038 34.694 122.267 34.468 122.684 34.1265C123.066 33.8121 123.427 33.5173 123.338 33.0997C123.251 32.6993 122.788 32.5224 122.346 32.402C121.902 32.2817 121.352 32.1883 121.024 32.5298C120.625 32.9499 120.829 33.6942 121.261 35.0011C121.268 35.1337 121.303 35.2738 121.374 35.4212C121.399 35.4752 121.426 35.5268 121.453 35.5759C122.154 37.6935 123.14 40.8158 123.14 45.0189C123.14 46.9965 122.46 48.5539 121.118 49.6422C118.869 51.4699 115.371 51.4944 114.029 51.2193C112.784 50.9638 112.125 50.2563 111.427 49.5046C110.907 48.9445 110.369 48.3648 109.59 48.0258C109.111 47.817 108.633 47.7334 108.189 47.7334C108.135 47.7334 108.08 47.7383 108.028 47.7408C108.026 47.7334 108.024 47.7261 108.019 47.7187L107.964 47.7433C107.318 47.785 106.753 47.9963 106.366 48.2469C106.221 48.3427 106.1 48.4434 106.004 48.5466C105.609 48.043 104.931 46.881 105.108 45.6601C105.286 44.4294 106.845 43.0611 106.859 43.0463ZM121.717 34.0013C121.577 33.5321 121.493 33.1513 121.552 33.0457C121.554 33.0457 121.582 33.0309 121.663 33.0309C121.749 33.0309 121.9 33.0481 122.149 33.1144C122.363 33.1734 122.487 33.2225 122.556 33.2594C122.472 33.3478 122.322 33.4706 122.213 33.5615C122.058 33.6844 121.88 33.8318 121.717 34.0013ZM97.9925 23.8114C97.9925 20.4681 100.373 16.228 103.049 16.228C105.725 16.228 108.105 20.4681 108.105 23.8114C108.105 25.3001 107.609 26.6979 106.716 27.7739H99.3836C98.4883 26.6979 97.9925 25.3001 97.9925 23.8114ZM97.1293 28.5133H109.074C108.702 29.8718 106.388 31.4022 104.23 32.1318L104.233 32.1392H103.907V40.4817H101.475V32.1392H101.004L101.034 32.0606C99.2504 31.3973 97.4104 29.9356 97.1293 28.5133ZM99.1148 46.09H99.2208V46.0114C99.2652 45.9795 99.3071 45.9475 99.354 45.9156L99.2208 45.7141V43.8815C99.2208 42.5059 100.395 41.3881 101.838 41.3881H104.366C104.785 41.3881 105.162 41.8082 105.53 42.216C105.693 42.3978 105.878 42.6041 106.082 42.7638C105.567 43.2723 104.541 44.4122 104.373 45.5569C104.114 47.3281 105.308 49.0452 105.806 49.399C106.018 49.5488 106.191 49.4997 106.272 49.4579C106.396 49.3941 106.475 49.2688 106.485 49.1288C106.517 49.0624 106.704 48.8635 107.101 48.694C107.2 48.6522 107.348 48.5981 107.533 48.5539C107.663 48.9838 107.733 49.4309 107.733 49.8854V57.2895C107.733 58.0436 107.545 58.7536 107.222 59.3898C105.934 59.999 104.358 60.3331 102.694 60.3331C101.036 60.3331 99.4625 60.0015 98.175 59.3947C98.0567 59.1663 97.958 58.928 97.8791 58.6799C97.736 58.2303 97.6645 57.7636 97.6645 57.2895V54.6585C97.6719 54.6585 97.6768 54.6585 97.6842 54.656L97.6645 54.3219V49.8854C97.6645 48.0774 98.1282 46.8638 99.1148 46.09ZM107.069 59.6674C106.201 61.1192 104.568 62.0994 102.699 62.0994C100.886 62.0994 99.2233 61.1389 98.3354 59.6723C99.6007 60.2201 101.11 60.5223 102.694 60.5223C104.287 60.5247 105.801 60.2201 107.069 59.6674ZM82.0247 64.2096C85.6455 58.4809 90.6573 55.2898 96.9246 54.715V57.2895C96.9246 57.6137 96.9566 57.9355 97.0158 58.2549C89.027 59.1098 79.8271 66.2264 79.8271 94.4597C79.8271 97.8964 80.0935 100.898 80.7175 104.431C78.8899 104.502 77.2818 105.052 76.5172 106.29C76.4802 106.349 76.4506 106.413 76.4185 106.477C75.575 102.345 75.4541 97.9627 75.4541 94.1673C75.4541 91.4872 75.5553 88.8759 75.7551 86.4046C76.5049 77.0697 78.6161 69.6017 82.0247 64.2096ZM95.2745 121.045L95.4644 121.089C96.192 117.974 95.3436 116.429 95.129 116.104L95.161 116.031C95.1758 115.996 95.5434 115.164 96.4165 115.232C97.2797 115.299 98.3354 116.574 98.3329 117.979C98.3329 118.726 98.3304 120.998 96.7075 121.479C96.007 121.688 95.3164 121.143 95.309 121.138L95.2252 121.072L95.166 121.162C95.1536 121.182 93.95 123.015 93.0276 122.686C92.1693 122.376 92.3 121.403 92.3246 121.253C93.8193 119.175 92.5269 116.954 92.152 116.392C92.1693 116.37 92.1865 116.353 92.2038 116.326C92.2728 116.217 92.3148 116.082 92.3567 115.94C92.4603 115.596 92.5787 115.208 93.1213 115.024C94.3447 114.608 94.9539 115.977 94.981 116.036L95.0081 116.097L94.9267 116.158C94.9391 116.168 96.0588 117.682 95.2745 121.045ZM91.9991 116.507C92.3666 117.055 93.585 119.165 92.1668 121.135C91.9596 121.236 90.2578 122.054 89.2934 121.845C89.6017 121.605 89.9889 121.025 90.2257 120.566C90.4748 120.082 91.0939 118.686 90.5463 117.701L90.5439 117.49C90.5143 117.49 90.46 117.48 90.386 117.468C90.2528 117.306 90.0777 117.158 89.8532 117.038C88.6768 116.404 88.4646 116.441 87.6754 116.583C87.5841 116.601 87.4879 116.618 87.3819 116.635L87.7124 116.412C88.1391 116.279 88.5411 116.104 88.9135 115.886C90.1936 115.603 90.9064 116.033 91.3603 116.308C91.597 116.456 91.8116 116.583 91.9991 116.507ZM86.7529 116.633C86.8861 116.613 87.0193 116.588 87.15 116.561L86.9749 116.679C86.9034 116.665 86.8294 116.65 86.7529 116.633ZM90.0358 117.392C89.8286 117.343 89.5844 117.284 89.3427 117.225C88.8371 117.102 88.2279 116.954 87.5496 116.802C87.6063 116.792 87.6606 116.782 87.7124 116.773C88.4671 116.635 88.6472 116.603 89.7645 117.207C89.8656 117.264 89.9544 117.325 90.0358 117.392ZM81.8225 114.935C79.5805 113.663 77.4791 111.115 76.9389 109.012C76.6972 108.074 76.7663 107.288 77.1461 106.676C77.7479 105.701 79.2081 105.148 81.164 105.148C81.2281 105.148 81.2922 105.148 81.3563 105.151C83.2851 105.185 85.4432 105.752 86.9872 106.629C88.7088 107.607 89.9371 109.103 90.3564 110.732C90.6524 111.889 90.5093 112.987 89.9371 113.911C88.514 116.208 84.8735 116.669 81.8225 114.935ZM74.3393 110.558C72.2774 108.054 70.4078 105.485 70.1636 101.621C69.949 98.2109 69.1696 96.7713 68.4174 95.3809C68.2768 95.1205 68.1362 94.8601 67.9956 94.5825C67.8205 94.2361 67.633 93.8947 67.453 93.5655C67.0337 92.804 66.5133 91.8582 66.6539 91.5609C66.6859 91.4922 66.8068 91.4578 66.903 91.4406C67.8895 91.2637 70.2277 92.3077 71.0466 92.7253L71.4215 92.0916C69.436 90.7626 64.2589 86.9303 64.1479 85.196C64.1381 85.0216 64.1849 84.8988 64.2959 84.8005C64.7448 84.5401 67.8427 85.051 70.4571 85.6726L71.8803 86.0116L70.7901 85.0388C68.4568 82.9605 66.5133 80.7251 66.5823 80.2018C66.6095 80.192 66.6785 80.1748 66.8216 80.1797C68.7947 80.2558 73.3577 84.432 75.0299 86.1123C75.0225 86.1884 75.0151 86.2621 75.0102 86.3383C74.8079 88.8292 74.7068 91.4627 74.7068 94.16C74.7068 98.3116 74.8499 103.158 75.9129 107.654L76.0757 107.615C76.0288 108.101 76.0732 108.632 76.2187 109.189C76.8131 111.503 79.0132 114.186 81.4525 115.571C81.7411 115.736 82.0346 115.876 82.3331 116.006C81.8274 115.977 81.3267 115.967 80.8359 115.979C78.8332 115.377 75.6885 112.196 74.3393 110.558ZM90.1246 131.775C90.0382 131.694 89.9544 131.613 89.868 131.532C88.5016 130.257 87.7642 128.019 87.113 126.044C86.7628 124.978 86.4298 123.97 86.0303 123.201C84.3333 119.946 82.5082 118.387 80.7471 118.686L80.2736 118.767L80.4734 119.202C80.4783 119.214 81.0431 120.499 80.5424 121.307C80.2588 121.767 79.657 122.015 78.7592 122.047C77.5876 122.084 76.6676 121 76.4358 119.924C76.1793 118.726 76.754 117.718 77.9724 117.227C78.7838 116.9 79.7655 116.753 80.8187 116.723C81.048 116.782 81.27 116.817 81.4821 116.817C81.6498 116.817 81.8126 116.797 81.9656 116.755L81.9606 116.733C84.6762 116.846 87.6039 117.559 89.1701 117.939C89.9914 118.138 90.3391 118.22 90.5389 118.227C90.6203 118.61 90.571 119.02 90.4847 119.372C90.1739 120.627 89.2539 121.762 89.0714 121.767L88.9875 121.941C89.8631 122.364 91.5872 121.624 92.1224 121.371C92.1002 121.74 92.1446 122.563 92.9659 122.86C93.0621 122.894 93.1608 122.912 93.2594 122.912C94.1276 122.912 95.0377 121.688 95.2745 121.347C95.494 121.499 96.1106 121.855 96.7642 121.661C97.7533 121.366 98.1874 120.487 98.3798 119.632C99.0728 119.627 99.9484 119.654 100.876 119.679C101.843 119.706 102.824 119.735 103.695 119.735C104.548 119.735 105.296 119.708 105.816 119.627L105.703 118.9C104.721 119.052 102.691 118.996 100.898 118.944C100.015 118.92 99.1789 118.895 98.4932 118.895C98.5277 118.514 98.5302 118.183 98.5302 117.967C98.5302 116.569 97.4943 115.117 96.4337 115.036C95.6839 114.982 95.2523 115.505 95.0772 115.783C94.8503 115.387 94.1819 114.454 93.0646 114.832C92.4282 115.048 92.2827 115.527 92.1767 115.876C92.1372 116.006 92.1002 116.129 92.0459 116.213C91.9275 116.397 91.8363 116.367 91.4663 116.141C91.0421 115.883 90.4033 115.495 89.323 115.618C89.8212 115.259 90.2454 114.817 90.571 114.289C91.2394 113.208 91.4194 111.877 91.0766 110.543C90.608 108.722 89.2539 107.059 87.3572 105.983C85.791 105.094 83.549 104.482 81.4747 104.423C80.8458 100.881 80.5745 97.8866 80.5745 94.4548C80.5745 66.644 89.503 59.7436 97.2082 58.9697C97.9703 61.247 100.217 62.8339 102.706 62.8339C104.894 62.8339 106.8 61.6597 107.779 59.9327C118.602 63.62 120.893 80.6759 120.893 94.4548C120.893 98.12 120.57 101.721 119.944 105.178C119.988 103.861 119.914 102.073 119.31 101.087C117.916 98.8127 115.988 96.1522 115.379 95.3195C115.832 94.8896 116.306 94.4597 116.409 94.3958L116.58 94.2853L116.602 94.1035C116.678 93.4697 113.294 89.3967 111.514 87.6894C110.749 86.9573 110.093 85.2181 109.619 82.6584L109.501 82.6805C109.967 82.4446 110.135 82.1695 110.49 81.5185C110.867 80.8233 109.97 79.6589 109.338 78.9662L112.934 77.6887C113.065 77.701 113.191 77.7133 113.314 77.728L113.568 77.7551L113.395 77.5659C113.27 77.4283 110.665 74.6082 108.847 74.6107C108.833 74.3257 108.791 73.9277 108.677 73.4831C108.958 73.2473 109.183 72.9795 109.37 72.751C109.639 72.4243 109.851 72.1664 110.083 72.1664L110.135 72.159L110.164 72.1271C110.298 71.9846 111.484 69.4765 111.326 67.4203C111.297 67.0346 111.166 66.762 110.936 66.6121C110.453 66.2928 109.634 66.5654 108.842 66.8283C108.194 67.0445 107.52 67.268 107.173 67.101C106.756 66.902 106.645 66.4303 106.526 65.9292C106.381 65.3126 106.213 64.6125 105.426 64.3349C104.642 64.0573 103.796 64.8286 102.98 65.5779C102.333 66.1699 101.66 66.7816 101.13 66.7325C100.632 66.6858 100.252 66.3468 99.8498 65.9906C99.2997 65.5017 98.6782 64.9466 97.6571 65.1529C96.7618 65.3322 96.7494 66.2485 96.7396 67.0567C96.7297 67.9362 96.7198 68.6977 95.827 68.7395C94.8971 68.7812 94.2139 69.1325 93.9056 69.7295C93.6491 70.2233 93.691 70.8177 94.0191 71.3213C94.2707 71.7119 94.6949 72.0534 95.0698 72.358C95.4077 72.6331 95.7579 72.9156 95.7357 73.0679C95.7259 73.1343 95.6247 73.1883 95.5433 73.2203C94.759 73.5322 94.8404 74.5321 94.9884 74.9988C95.0279 75.5196 95.6001 75.7554 96.2191 75.8586C94.2238 79.3666 89.7003 85.3704 87.8727 86.6011C86.0253 87.8442 80.8705 87.9473 80.8187 87.9498L80.831 88.6868C80.9395 88.6843 82.2837 88.6573 83.8524 88.4632C83.7981 90.1435 84.0892 91.1777 84.7378 91.6199C85.5172 92.1505 86.6321 91.6617 87.3695 91.3399C87.6655 91.2096 87.9442 91.0893 88.0749 91.0917C88.0897 91.0917 88.1045 91.0942 88.1144 91.0942C88.0749 91.1384 88.0034 91.2047 87.9442 91.2612C87.5792 91.5978 86.9009 92.2242 87.3893 93.0496C87.5718 93.3567 87.9368 93.5114 88.477 93.5114C88.5954 93.5114 88.7236 93.5041 88.8593 93.4893C90.0826 93.3542 91.7697 92.6123 92.3567 92.0891C92.3271 92.4379 92.3296 92.9243 92.5565 93.2142C92.6675 93.3567 92.8204 93.4402 93.0103 93.4574C95.2498 93.6834 96.6557 91.5708 96.8826 91.0352C96.9122 90.9664 96.9344 90.9321 96.9468 90.9149C96.9813 90.9566 97.0331 91.0647 97.0701 91.1458C97.1934 91.4037 97.3611 91.7599 97.6744 91.7771C98.2934 91.814 98.9076 91.5511 99.5045 90.991C100.555 90.0059 101.221 88.3797 101.221 87.9572H101.026C101.026 88.3428 100.365 89.915 99.3688 90.8485C98.8139 91.3693 98.2515 91.6174 97.6842 91.5806C97.4844 91.5683 97.3513 91.2858 97.2427 91.0573C97.1465 90.8535 97.075 90.7036 96.9418 90.7036H96.9394C96.821 90.7061 96.7519 90.8313 96.7001 90.9542C96.4091 91.6395 95.0057 93.4574 93.0276 93.2609C92.8919 93.2461 92.7883 93.1921 92.7094 93.0914C92.5318 92.8629 92.4923 92.4207 92.591 91.7771C92.6033 91.6936 92.6157 91.615 92.5269 91.5929C92.4381 91.5732 92.4159 91.6371 92.374 91.7673C92.263 92.1087 90.3095 93.1331 88.8395 93.2928C88.3783 93.3444 87.779 93.3247 87.557 92.9464C87.1476 92.2561 87.7075 91.7403 88.0774 91.3988C88.2624 91.2293 88.3734 91.1261 88.3315 91.0107C88.292 90.905 88.1489 90.8977 88.0873 90.8952C87.9171 90.8854 87.6556 91.0008 87.2955 91.1581C86.5556 91.4823 85.5419 91.927 84.8513 91.4553C84.2643 91.0573 83.9954 90.0379 84.0497 88.4337C85.5912 88.2323 87.3103 87.8663 88.2895 87.2079C90.3071 85.8494 95.1956 79.3273 97.1169 75.7628C97.3365 75.3575 97.5362 74.9718 97.7237 74.6058C99.174 71.8028 99.904 70.3977 103.626 70.5549C107.587 70.7219 108.09 73.5494 108.122 74.7581L108.218 74.7556C108.199 74.7654 108.176 74.7728 108.157 74.7851L108.253 74.9521C109.656 74.1439 112.362 76.7675 113.082 77.507C113.058 77.5045 113.028 77.502 113.001 77.4996L112.989 77.4652L112.917 77.4898C111.696 77.3743 108.86 77.1802 108.65 77.841C108.485 78.3569 108.532 78.4847 108.606 78.5436C108.633 78.5657 108.665 78.5756 108.694 78.5756C109.314 79.1578 110.719 80.7079 110.327 81.4276C109.824 82.3537 109.77 82.452 108.443 82.8745C107.316 83.2356 106.6 82.8647 105.969 82.5404C105.873 82.4913 105.782 82.4446 105.69 82.4004C105.204 82.167 104.884 81.8059 104.733 81.3269C104.314 79.9782 105.37 78.1137 105.38 78.0941L105.619 77.6765L105.236 77.9712C105.214 77.9884 103.086 79.6196 101.379 79.4796C99.7042 79.3445 99.0284 78.0818 99.0235 78.0695L98.8509 78.1579C98.8804 78.2144 99.576 79.5287 101.364 79.6712C102.743 79.7817 104.351 78.8163 105.029 78.3569C104.733 78.9833 104.215 80.3099 104.551 81.3859C104.716 81.9189 105.071 82.3169 105.606 82.5748C105.695 82.6191 105.786 82.6657 105.88 82.7124C106.329 82.9433 106.854 83.216 107.555 83.216C107.839 83.216 108.154 83.1718 108.502 83.0588C108.66 83.0096 108.798 82.963 108.924 82.9188C109.432 85.5964 110.135 87.3823 111.01 88.22C112.939 90.0673 115.307 93.1061 115.798 93.9487C115.452 94.2386 114.907 94.7569 114.641 95.0124L114.407 95.2359L114.602 95.4963C114.626 95.5283 117.038 98.7759 118.691 101.471C119.391 102.613 119.246 105.431 119.115 106.583C118.647 106.983 118.23 107.406 117.889 107.833C116.688 109.339 116.133 111.194 116.365 112.926C116.528 114.147 117.08 115.223 117.929 116.018C116.479 115.984 114.794 116.33 112.828 116.881C112.619 116.077 112.155 115.173 111.528 115.119C110.85 115.06 110.364 115.601 110.164 115.874L110.16 115.878C109.967 115.525 109.41 114.716 108.406 114.92C107.424 115.119 107.259 115.677 107.153 116.048C107.141 116.092 107.128 116.131 107.116 116.168C106.916 115.955 106.452 115.547 105.856 115.591C105.256 115.635 104.704 116.117 104.208 117.026L104.085 117.234L104.312 117.166C104.319 117.166 104.637 117.141 105.483 118.227C105.962 118.843 105.895 120.155 105.69 121.089C105.542 121.769 105.375 122.059 105.323 122.086C105.328 122.084 105.345 122.081 105.36 122.089L105.266 122.258C106.041 122.688 107.552 121.772 108.026 121.462C108.065 121.823 108.231 122.639 108.956 122.939C109.042 122.975 109.131 122.99 109.22 122.99C109.864 122.99 110.529 122.125 110.848 121.646C110.858 121.669 110.872 121.691 110.892 121.71C110.991 121.816 111.161 121.823 111.41 121.74C112.821 121.258 112.907 119.008 112.942 118.048C112.944 117.957 112.949 117.876 112.952 117.812C112.954 117.75 112.954 117.682 112.949 117.61C115.993 116.755 117.934 116.539 119.382 116.962C119.557 117.035 119.737 117.104 119.919 117.158C120.178 117.274 120.425 117.409 120.659 117.571C122.151 118.615 122.344 119.988 122.028 120.924C121.707 121.872 120.893 122.467 119.949 122.43C119.051 122.398 118.452 122.15 118.166 121.691C117.658 120.875 118.227 119.595 118.232 119.583L118.432 119.148L117.958 119.067C116.2 118.767 114.372 120.327 112.675 123.582C112.273 124.351 111.943 125.358 111.593 126.422C110.941 128.397 110.204 130.635 108.837 131.91C108.751 131.991 108.665 132.072 108.581 132.153C107.683 133.01 106.827 133.821 103.855 134.158C104.284 133.023 104.361 131.721 104.033 130.51C103.15 127.245 102.139 124.317 99.4749 124.317C97.8519 124.317 95.8023 125.95 94.9119 130.537C94.7368 131.443 94.6184 132.63 94.8355 133.77C91.8733 133.435 91.0199 132.63 90.1246 131.775ZM108.771 78.4036L108.719 78.3545L108.714 78.3569C108.714 78.2955 108.734 78.1653 108.818 77.9025C108.939 77.5241 110.808 77.5217 112.461 77.6494L109.185 78.8138C108.961 78.5805 108.796 78.4257 108.771 78.4036ZM96.4485 75.4189C96.4017 75.5049 96.3548 75.5933 96.3055 75.6817C95.7777 75.6007 95.198 75.414 95.1635 74.9644C95.1586 74.9521 94.7886 73.7238 95.6025 73.402C95.7925 73.3259 95.896 73.2276 95.9158 73.0999C95.9552 72.837 95.6149 72.5594 95.1808 72.2106C94.8182 71.9183 94.4063 71.5842 94.172 71.2206C93.8834 70.776 93.8464 70.2527 94.0684 69.8204C94.3447 69.2898 94.9687 68.9753 95.827 68.936C96.8999 68.8869 96.9122 67.919 96.9221 67.0641C96.932 66.2584 96.9418 65.4944 97.6842 65.3445C98.6091 65.1578 99.169 65.654 99.7092 66.1355C100.116 66.4966 100.538 66.8725 101.098 66.9265C101.719 66.988 102.388 66.3714 103.098 65.7228C103.873 65.0153 104.672 64.2808 105.35 64.5216C106.038 64.7648 106.184 65.3814 106.327 65.9783C106.45 66.4991 106.578 67.0395 107.079 67.2778C107.501 67.4793 108.176 67.2533 108.894 67.015C109.644 66.7669 110.416 66.5089 110.821 66.7767C110.998 66.8946 111.097 67.1108 111.124 67.44C111.269 69.3143 110.216 71.6898 110.029 71.9797C109.728 72.0043 109.499 72.2843 109.212 72.6331C109.037 72.8444 108.845 73.0729 108.611 73.2792C108.179 71.8176 106.975 69.9653 103.641 69.8253C99.4453 69.6484 98.4908 71.4884 97.0503 74.2741C96.8604 74.6352 96.6631 75.0185 96.4485 75.4189ZM112.742 117.804C112.737 117.871 112.734 117.949 112.732 118.043C112.697 118.964 112.616 121.123 111.331 121.56C111.097 121.639 111.03 121.597 111.018 121.583C110.983 121.548 110.993 121.46 111.013 121.386L111.144 121.413C111.736 118.5 110.643 116.588 110.27 116.041C110.421 115.824 110.875 115.262 111.496 115.313C112.024 115.36 112.434 116.198 112.626 116.935C112.623 116.935 112.619 116.937 112.616 116.937L112.675 117.146C112.727 117.406 112.752 117.64 112.742 117.804ZM108.016 121.229C107.824 121.361 106.317 122.369 105.505 122.157C105.885 121.622 106.406 119.124 105.619 118.111C105.002 117.318 104.627 117.07 104.425 117.001C104.867 116.232 105.345 115.822 105.848 115.785C106.531 115.736 107.042 116.402 107.047 116.409L107.136 116.527L107.207 116.397C107.254 116.313 107.284 116.21 107.316 116.1C107.422 115.736 107.555 115.284 108.423 115.107C109.531 114.884 110.014 116.058 110.036 116.107L110.11 116.291L110.152 116.22C110.542 116.822 111.479 118.615 110.959 121.295L110.85 121.244C110.559 121.757 109.659 123.032 109.01 122.762C108.265 122.455 108.194 121.46 108.189 121.31C109.526 118.578 107.34 116.35 107.318 116.328L107.18 116.463C107.207 116.485 109.291 118.622 108.016 121.229ZM93.3704 139.614C93.3704 138.005 94.1572 136.494 95.4891 135.509C96.0786 136.401 97.2131 137.307 99.3811 137.307C99.4058 137.307 99.4329 137.307 99.4576 137.307C100.703 137.295 101.823 136.83 102.669 135.99C103.66 136.958 104.225 138.263 104.225 139.616V155.992C104.225 156.137 104.218 156.279 104.206 156.424C103.959 156.395 103.712 156.37 103.468 156.345V139.508H103.273V156.323C103.182 156.316 103.088 156.306 102.997 156.299C101.564 156.114 100.114 156.014 98.6461 156.014C97.0972 156.014 95.5606 156.122 94.0487 156.331V139.336H93.8538V156.358C93.691 156.382 93.5283 156.402 93.3655 156.429V139.614H93.3704ZM98.6486 156.751C105.16 156.751 111.388 158.64 116.691 162.207L111.654 167.687C107.878 165.277 103.475 164.052 98.5499 164.052C91.8905 164.052 85.6973 166.602 81.1072 171.23L81.2355 171.355L74.8573 167.181C80.8458 160.551 89.4907 156.751 98.6486 156.751ZM96.5472 182.265C96.1254 182.446 95.7308 182.68 95.3756 182.957L61.2203 160.46C61.6593 160.308 62.0811 160.143 62.488 159.969L96.5472 182.265ZM44.3399 93.4476C44.6581 92.5632 45.6595 92.8973 46.6263 93.2216C47.0431 93.3616 47.4378 93.4943 47.751 93.5114C48.3775 93.5434 48.4219 92.9587 48.4712 92.3372C48.5156 91.782 48.5649 91.1507 48.9571 90.6692C49.1742 90.4039 49.4257 90.2737 49.734 90.2811C50.4518 90.2983 51.278 91.0721 51.8083 91.7894C51.9884 92.0301 52.1561 92.1554 52.3411 92.1775C52.6321 92.2144 52.8886 92.0056 53.2463 91.7157C53.6261 91.4086 54.0972 91.0303 54.8001 90.7748C55.0714 90.6766 55.2786 90.6766 55.4365 90.7773C55.7941 91.0058 55.8533 91.7132 55.9076 92.3372C55.952 92.8629 55.9889 93.2756 56.1838 93.4402C56.2455 93.4918 56.3195 93.5164 56.4033 93.509L56.4403 93.5065C57.2296 93.4353 59.3211 93.251 59.5382 94.7594C59.7182 96.0049 57.8758 97.3879 57.1408 97.8866C57.1334 97.8817 57.1284 97.8768 57.121 97.8718C56.1961 97.157 52.4718 95.7052 49.1544 96.533C48.1506 96.7836 47.2651 97.2135 46.5055 97.8178C45.8297 96.985 43.9453 94.5383 44.3399 93.4476ZM40.5046 105.345L44.0785 101.94L44.4558 102.09C45.3758 102.768 46.794 104.369 47.1961 104.831C46.4586 104.966 43.3533 105.492 40.5046 105.345ZM37.7027 151.096C37.7052 151.096 37.7076 151.096 37.7101 151.096H37.7126C37.7101 151.096 37.7076 151.096 37.7027 151.096ZM37.7767 151.093C37.3155 150.688 35.9688 147.666 35.8479 146.733C35.7345 145.863 34.9008 145.782 34.0943 145.704C33.5961 145.654 33.0337 145.6 32.4812 145.394C31.4429 145.006 32.0989 140.805 32.3481 139.223C32.3949 138.919 32.4369 138.651 32.4689 138.43C32.681 136.902 32.062 136.383 31.4059 135.833C31.1888 135.651 30.9644 135.465 30.7523 135.224C30.5698 135.018 30.4316 134.079 33.0757 129.805C33.1694 129.652 33.2458 129.53 33.2976 129.444C33.4752 129.146 33.4407 128.913 33.3815 128.77C33.2212 128.39 32.7575 128.274 32.3086 128.161C32.1433 128.119 31.8548 128.048 31.7388 127.979C32.02 127.314 34.5284 124.806 35.4928 123.84C35.8085 123.526 36.0724 123.26 36.2524 123.076C36.3511 122.973 36.652 122.663 36.5509 122.285C36.4424 121.88 35.9836 121.747 35.5791 121.629C35.4903 121.605 35.367 121.568 35.2708 121.531C36.2993 120.507 42.1325 115.119 42.6529 114.825C42.6504 114.825 42.6381 114.834 42.6134 114.842L42.5 114.49C42.8749 114.866 43.2892 115.262 43.8861 115.262C44.1179 115.262 44.3769 115.203 44.6729 115.058C45.9258 114.444 47.1245 113.373 48.0889 112.513C48.6118 112.046 49.0607 111.643 49.4455 111.373C50.4937 110.636 49.9141 109.479 49.3542 108.361C49.2679 108.192 49.184 108.02 49.1002 107.845C48.5921 106.772 48.6883 105.585 48.8831 105.458C48.8979 105.448 48.9275 105.48 48.9398 105.492C49.2506 105.841 51.2238 105.554 51.4482 105.519C51.8848 105.453 54.0725 105.092 54.3611 104.453L54.1835 104.374C54.0281 104.718 52.9158 105.102 51.4186 105.33C50.1311 105.524 49.2062 105.499 49.0854 105.364C48.9448 105.205 48.8141 105.271 48.7771 105.296C48.4614 105.504 48.3997 106.819 48.925 107.927C49.0064 108.101 49.0952 108.273 49.1791 108.445C49.7488 109.585 50.2421 110.57 49.332 111.213C48.9374 111.491 48.4836 111.896 47.9582 112.366C47.0037 113.218 45.8173 114.277 44.5866 114.881C43.6345 115.348 43.1314 114.847 42.5986 114.314C42.3347 114.051 42.0881 113.803 41.7847 113.677C40.951 113.333 40.1026 112.51 40.4627 111.319C40.8154 110.145 41.728 109.459 43.3829 108.214L43.5581 108.081C44.6877 107.231 45.5534 105.436 45.5904 105.359L45.4498 105.293C46.6041 105.146 47.3835 104.991 47.4008 104.989L47.5611 104.957L47.455 104.831C47.3736 104.735 45.6545 102.724 44.5619 101.923C44.626 101.788 44.7099 101.608 44.7789 101.463C44.8579 101.299 44.9294 101.149 44.9639 101.073C45.8765 99.0313 47.349 97.7441 49.3394 97.2479C52.3657 96.4937 55.8558 97.8227 56.6722 98.454C58.2359 99.6651 58.4801 104.116 57.9128 107.688C57.1531 112.486 58.2679 115.028 58.3148 115.137L58.337 115.188L60.9144 118.119C59.0745 118.023 58.887 118.195 58.7908 118.283C58.7045 118.362 58.6576 118.47 58.6576 118.583C58.6576 119.07 60.2263 121.543 61.0476 122.216C61.5779 122.651 63.2107 123.565 64.6536 124.371C65.2899 124.727 65.9929 125.12 66.353 125.339C66.1359 125.474 65.7684 125.651 65.4083 125.791L64.4267 126.169L71.1083 128.287L71.1749 128.301C71.2045 128.304 74.0384 128.667 76.9981 129.316C81.936 130.399 83.253 131.387 83.5885 131.908C83.3591 131.998 82.7721 132.067 82.3281 132.121C82.0223 132.158 81.6745 132.197 81.3194 132.251C80.9124 132.313 80.7965 132.522 80.7718 132.684C80.6978 133.163 81.2158 133.435 83.2086 134.401C84.8094 135.177 87.0045 136.243 87.7839 137.174C87.8505 137.255 87.9023 137.322 87.9418 137.378C87.5471 137.307 86.8713 137.076 86.4668 136.939C85.574 136.634 85.2114 136.523 84.9623 136.58C84.8094 136.614 84.6935 136.722 84.6491 136.867C84.5479 137.211 84.7724 137.501 86.5088 139.255C87.2166 139.967 88.2427 141.004 88.5288 141.446C87.2536 142.289 86.0229 142.606 84.871 142.39C83.1692 142.07 82.0839 140.687 81.6943 140.107C81.4821 139.791 81.2059 139.938 81.1763 139.958C81.0776 140.014 80.9272 140.181 81.0234 140.422C81.0406 141.294 77.5975 148.489 76.6331 149.806C75.8315 150.899 74.6994 151.469 73.8041 151.845C73.2911 152.059 70.9874 151.614 69.5174 151.228L69.4261 151.216C62.3425 151.16 39.7326 150.993 37.7767 151.093ZM39.9201 152.167H68.4396C68.2324 155.454 65.2677 158.389 60.5987 159.89C58.596 160.534 56.4354 160.861 54.1786 160.861C46.5055 160.863 40.2259 156.994 39.9201 152.167ZM60.8256 160.593C60.8799 160.576 60.9342 160.556 60.9884 160.539L95.2178 183.085C94.3521 183.81 93.7305 184.795 93.4863 185.913L91.3997 184.532V184.502H91.3553L56.5636 161.477C58.041 161.322 59.4691 161.03 60.8256 160.593ZM82.0519 200.362C78.811 196.542 77.0277 191.781 77.0277 186.9C77.0277 183.579 77.8121 180.4 79.3511 177.44L90.6598 184.925V190.899L82.0519 200.362ZM80.8507 201.681C77.2226 197.633 75.2248 192.484 75.2248 187.136C75.2248 183.436 76.1867 179.786 78.0069 176.551L79.1883 177.334C77.6271 180.326 76.8329 183.542 76.8329 186.9C76.8329 191.835 78.6383 196.648 81.9187 200.507L80.8507 201.681ZM91.3997 185.416L92.115 185.89V189.3L91.3997 190.086V185.416ZM92.3098 186.018L93.3778 186.726C93.3729 186.809 93.3704 186.893 93.3704 186.979C93.3704 187.286 93.4 187.585 93.4543 187.878L93.4321 187.856L92.3098 189.089V186.018ZM77.3878 176.143C77.2818 176.332 77.1782 176.521 77.0771 176.713L70.7309 173.02C70.9011 172.706 71.0762 172.394 71.2587 172.087L77.3878 176.143ZM67.2088 186.875C67.2088 182.102 68.3927 177.408 70.6396 173.19L76.9883 176.885C75.3481 180.054 74.4848 183.574 74.4848 187.138C74.4848 192.693 76.569 198.041 80.35 202.234L75.6441 207.405C70.2031 201.811 67.2088 194.533 67.2088 186.875ZM55.8582 217.084C55.9889 213.743 58.5442 209.589 61.208 209.69C63.7903 209.783 65.6747 213.723 65.9287 215.431C65.835 215.553 65.7388 215.679 65.6525 215.806C64.5549 217.44 64.2096 219.361 64.6264 221.024C64.2935 221.533 64.0098 221.818 63.5239 222.162L63.5338 222.174L57.5749 222.132C57.0027 221.565 56.534 220.697 56.2282 219.727C56.1789 219.189 56.0703 218.651 55.8952 218.125C55.8952 218.123 55.8928 218.12 55.8928 218.118C55.8582 217.769 55.8434 217.423 55.8582 217.084ZM64.9224 221.879C64.9693 221.982 65.0186 222.085 65.0729 222.186L64.6511 222.184C64.7498 222.085 64.8386 221.982 64.9224 221.879ZM56.5982 222.125L56.0309 222.12C56.0876 221.906 56.1394 221.692 56.1739 221.471C56.3071 221.705 56.4477 221.923 56.5982 222.125ZM45.8001 221.253C45.1021 219.135 45.2994 216.256 46.2662 214.406C46.7694 213.446 47.4476 212.812 48.2344 212.574C49.8253 212.092 51.4408 213.242 52.2621 213.969C53.5348 215.096 54.6398 216.737 55.1652 218.273C55.2268 218.823 55.3427 219.371 55.5031 219.892C55.5623 220.656 55.4809 221.412 55.2613 222.117L46.1281 222.051C46.0023 221.791 45.8889 221.525 45.8001 221.253ZM60.0265 231.582C59.9723 231.582 59.918 231.582 59.8637 231.582C57.6069 231.565 55.4488 231.224 53.4534 230.565C48.7968 229.03 45.8543 226.072 45.6743 222.786L73.8288 222.987L74.0532 223.262C74.0951 223.228 74.1346 223.191 74.1765 223.156C73.7005 227.866 67.5393 231.582 60.0265 231.582ZM74.6451 221.616C74.4676 221.84 74.2727 222.051 74.0705 222.25L65.9337 222.191C65.7191 221.864 65.5514 221.511 65.4305 221.137C65.4404 221.122 65.4478 221.108 65.4576 221.093L65.4058 221.063C64.9446 219.553 65.2381 217.747 66.2691 216.214C66.3678 216.067 66.4763 215.919 66.5873 215.779H66.7007C66.7007 215.738 66.6983 215.693 66.6958 215.647C68.8564 213.04 73.3429 211.127 75.4418 212.664C76.0806 213.134 76.4901 213.927 76.6306 214.959C76.9069 217.027 76.0708 219.825 74.6451 221.616ZM75.8808 212.072C75.4418 211.751 74.9387 211.554 74.396 211.456L93.1756 190.89L93.0325 190.759L74.2086 211.375L74.2801 211.439C73.8731 211.375 73.4415 211.367 73 211.409L91.2912 191.307H91.3997V191.187L93.6738 188.686C94.1942 190.113 95.351 191.253 96.8136 191.798L77.0006 213.527C76.7416 212.92 76.3643 212.429 75.8808 212.072ZM84.7946 206.074C84.9228 206.16 85.0511 206.245 85.1793 206.329L80.831 211.697C80.5893 211.537 80.3525 211.37 80.1157 211.203L84.7946 206.074ZM90.2553 216.674V247.737H90.4501V216.723C92.3567 217.202 94.3151 217.514 96.3104 217.649V248.216H96.5053V217.661C97.2181 217.705 97.9333 217.735 98.6535 217.735C100.244 217.735 101.82 217.622 103.367 217.406V248.363H103.562V217.376C104.768 217.199 105.957 216.959 107.126 216.654V247.496H107.321V216.602C108.046 216.408 108.761 216.192 109.466 215.951C109.962 215.816 110.455 215.669 110.944 215.509L110.85 246.948C110.332 248.262 105.481 249.633 98.6782 249.633C91.4762 249.633 86.457 248.098 86.457 246.717L86.5532 215.475C87.7543 215.949 88.9925 216.347 90.2553 216.674ZM85.717 244.332L85.7096 246.717C85.7096 249.09 92.3863 250.37 98.6708 250.37C104.955 250.37 111.632 249.09 111.632 246.717H111.585L111.593 244.482C117.793 245.948 118.286 247.771 118.286 248.304C118.286 250.798 110.317 253.465 98.4513 253.465C86.5852 253.465 78.6161 250.795 78.6161 248.304C78.6161 247.725 79.1415 245.762 85.717 244.332ZM98.4513 254.205C106.968 254.205 115.731 252.64 118.286 249.94V251.751L109.222 254.647V268.893L109.508 268.959C109.57 268.974 110.369 269.158 111.763 269.477C108.327 271.234 103.485 272.231 98.2934 272.231C93.215 272.231 88.4375 271.268 85.0116 269.573C86.5482 269.219 87.4312 269.018 87.4978 269.003L87.7839 268.937V254.691L78.6186 251.763V249.945C81.1689 252.64 89.9322 254.205 98.4513 254.205ZM83.9042 269.824C87.4707 271.821 92.7119 272.966 98.291 272.966C103.984 272.966 109.279 271.784 112.848 269.725C115.83 270.411 120.612 271.511 126.381 272.84C119.083 275.439 109.136 276.921 98.8311 276.921C88.4252 276.921 78.4114 275.415 71.0935 272.772C76.495 271.529 80.9938 270.494 83.9042 269.824ZM78.404 252.466L86.6691 255.106L19.1106 278.016C19.0292 276.965 18.7382 275.914 18.3362 274.845L78.404 252.466ZM2.88882 255.723C2.87156 255.305 3.06394 254.942 3.47584 254.61C3.94939 254.229 4.63013 254.33 5.28867 254.428C6.00394 254.534 6.8154 254.654 7.18044 253.952C7.45915 253.416 8.10782 252.819 8.75896 252.768C9.19059 252.731 9.59509 252.952 9.94532 253.419C10.8826 254.664 12.175 254.409 13.0309 254.237C13.3836 254.168 13.7831 254.087 13.9114 254.175C14.3603 254.483 14.306 255.035 14.1728 255.846C14.0988 256.298 14.0273 256.725 14.1482 257.074C14.2838 257.462 14.7894 257.693 15.4282 257.983C15.9092 258.199 16.7133 258.565 16.7453 258.855C16.7601 258.98 16.5973 259.187 16.3088 259.405C14.9719 260.422 14.01 260.793 13.5661 260.924C12.5918 258.312 10.8382 256.733 8.73677 256.733C7.37035 256.733 5.97188 257.374 4.91131 258.45C4.19111 257.902 2.93075 256.74 2.88882 255.723ZM0.740547 262.518C0.516101 262.53 0.390312 262.375 0.355782 262.243C0.321252 262.113 0.350849 261.936 0.540765 261.837L3.65589 260.206C3.73975 260.162 3.83594 260.152 3.9272 260.172L4.09491 260.253C4.13438 260.287 4.16644 260.327 4.19111 260.376C4.37609 260.769 4.71399 261.26 5.27634 261.366C5.36513 261.383 5.44899 261.4 5.53039 261.417C5.84363 261.484 5.93488 261.729 5.91762 261.919C5.89789 262.13 5.7425 262.348 5.4342 262.361L0.740547 262.518ZM2.60025 266.588C2.35607 266.178 2.83949 264.002 3.22426 262.641L3.18233 262.628L5.43913 262.552C5.79923 262.54 6.01134 262.312 6.08287 262.066C6.44051 262.127 7.81925 262.562 8.08316 263.149C8.16455 263.331 8.12262 263.51 7.9549 263.697C7.40982 264.301 6.97079 264.518 6.67975 264.66C6.47504 264.761 6.32951 264.832 6.26539 264.984C6.23086 265.07 6.22099 265.171 6.21113 265.289C6.17906 265.638 6.13713 266.114 5.3676 266.552C4.29716 267.166 2.89869 267.092 2.60025 266.588ZM0.740547 279.547C0.740547 278.274 1.34976 276.926 2.0527 275.363C3.00968 273.243 4.19604 270.607 4.26263 267.139C4.67206 267.072 5.09136 266.935 5.46626 266.721C6.32212 266.235 6.37144 265.677 6.40597 265.309C6.41584 265.205 6.42324 265.119 6.4479 265.06C6.48243 264.977 6.59589 264.92 6.76854 264.834C7.07192 264.685 7.53067 264.459 8.10042 263.827C8.37667 263.523 8.33967 263.248 8.26074 263.073C7.95984 262.405 6.5293 261.953 6.11 261.879C6.11 261.604 5.95215 261.309 5.56985 261.231C5.48599 261.214 5.39966 261.196 5.31087 261.179C4.87431 261.096 4.59067 260.73 4.41802 260.4C4.54381 260.145 4.69179 259.897 4.85705 259.663C5.81403 258.31 7.30129 257.47 8.73923 257.47C11.6151 257.47 13.1048 260.855 13.5069 263.754C13.9607 267.018 15.226 269.735 16.3433 272.133C17.4433 274.494 18.3929 276.533 18.3929 278.589C18.3929 279.321 18.2918 280.077 18.0747 280.817C17.9711 280.606 17.8651 280.382 17.7837 280.188C17.4162 279.304 16.3581 279.367 15.0139 279.544C14.893 279.562 14.7327 279.564 14.6587 279.493C14.4663 279.304 14.5477 278.594 14.6069 278.075C14.6439 277.763 14.6784 277.439 14.6784 277.149C14.6784 276.734 14.5625 276.412 14.3356 276.196C13.9484 275.825 13.3712 275.847 12.8138 275.872C12.6954 275.877 12.5746 275.882 12.4562 275.882C12.3772 275.778 12.0837 275.125 12.7941 271.58L12.0689 271.435C11.3339 275.095 11.588 275.99 11.8938 276.358C12.0319 276.525 12.2219 276.616 12.4315 276.616C12.5672 276.616 12.7053 276.611 12.8434 276.606C13.2454 276.589 13.6647 276.574 13.8226 276.727C13.899 276.8 13.9385 276.943 13.9385 277.149C13.9385 277.397 13.9064 277.687 13.8694 277.992C13.7806 278.771 13.6894 279.576 14.1383 280.018C14.3677 280.244 14.6957 280.33 15.1076 280.276C16.4592 280.1 16.9624 280.149 17.098 280.473C17.283 280.913 17.5716 281.47 17.7245 281.763C16.6294 284.214 14.0939 286.266 9.43724 286.266C3.66822 286.263 0.740547 284.003 0.740547 279.547ZM19.1353 278.586C19.1353 278.461 19.1304 278.338 19.1254 278.213L86.9798 255.202L87.0415 255.222V268.345C82.999 269.273 37.8458 279.648 16.4789 284.661C18.0846 283.288 19.1353 281.284 19.1353 278.586ZM99.5439 286.039C90.3046 286.039 81.3342 284.86 74.29 282.716C67.6972 280.711 63.1441 277.987 61.3781 275.01C64.3255 274.329 67.157 273.678 69.7936 273.071C77.2694 275.987 87.8431 277.658 98.8336 277.658C109.725 277.658 120.235 276.012 127.693 273.14C130.742 273.843 134.04 274.602 137.47 275.393C133.28 281.598 117.591 286.039 99.5439 286.039ZM109.96 268.306V255.183L110.021 255.163L177.876 278.174C177.868 278.299 177.866 278.422 177.866 278.547C177.866 281.244 178.917 283.249 180.522 284.625C159.155 279.608 114.002 269.234 109.96 268.306ZM187.559 286.221C182.905 286.221 180.367 284.17 179.272 281.718C179.427 281.426 179.716 280.868 179.898 280.429C180.034 280.104 180.535 280.055 181.889 280.232C182.301 280.286 182.629 280.2 182.858 279.974C183.307 279.535 183.216 278.729 183.127 277.95C183.092 277.645 183.058 277.356 183.058 277.107C183.058 276.901 183.097 276.759 183.174 276.685C183.334 276.533 183.751 276.547 184.153 276.565C184.291 276.569 184.429 276.574 184.565 276.574C184.774 276.574 184.964 276.483 185.102 276.316C185.406 275.948 185.662 275.054 184.927 271.393L184.202 271.538C184.913 275.083 184.619 275.734 184.54 275.84C184.422 275.84 184.301 275.835 184.182 275.83C183.625 275.808 183.048 275.783 182.661 276.154C182.434 276.373 182.318 276.695 182.318 277.107C182.318 277.397 182.355 277.722 182.389 278.034C182.449 278.552 182.53 279.262 182.338 279.449C182.264 279.52 182.103 279.517 181.982 279.5C180.638 279.326 179.583 279.259 179.213 280.144C179.131 280.338 179.025 280.561 178.922 280.773C178.705 280.033 178.603 279.277 178.603 278.545C178.603 276.488 179.553 274.449 180.653 272.089C181.77 269.691 183.036 266.974 183.489 263.709C183.891 260.811 185.381 257.425 188.257 257.425C189.695 257.425 191.182 258.266 192.139 259.619C192.305 259.855 192.452 260.101 192.578 260.356C192.406 260.685 192.12 261.051 191.685 261.135C191.597 261.152 191.51 261.169 191.426 261.186C191.044 261.268 190.886 261.56 190.886 261.835C190.467 261.909 189.036 262.361 188.736 263.029C188.657 263.206 188.62 263.478 188.896 263.783C189.466 264.417 189.924 264.643 190.228 264.79C190.4 264.874 190.514 264.93 190.548 265.016C190.573 265.075 190.58 265.161 190.59 265.264C190.625 265.633 190.674 266.19 191.53 266.677C191.905 266.891 192.324 267.028 192.734 267.095C192.8 270.563 193.989 273.199 194.944 275.319C195.649 276.881 196.258 278.23 196.258 279.503C196.261 283.961 193.333 286.221 187.559 286.221Z" fill="#E9EEF1"/>
<path d="M189.181 260.877C189.547 260.877 189.872 260.624 189.941 260.263C189.981 260.066 189.939 259.867 189.823 259.7C189.704 259.531 189.527 259.415 189.32 259.378C188.9 259.305 188.498 259.572 188.419 259.98C188.382 260.177 188.424 260.376 188.538 260.543C188.656 260.712 188.834 260.828 189.041 260.865C189.088 260.874 189.135 260.877 189.181 260.877ZM189.189 260.106C189.204 260.108 189.209 260.115 189.214 260.123C189.211 260.13 189.196 260.145 189.172 260.14C189.157 260.137 189.152 260.13 189.149 260.128C189.147 260.125 189.147 260.123 189.147 260.123C189.149 260.115 189.167 260.101 189.189 260.106Z" fill="#E9EEF1"/>
<path d="M127.676 274.712C127.592 274.761 127.518 274.823 127.454 274.897C127.324 275.039 127.24 275.236 127.176 275.452C127.057 275.891 127.092 276.486 127.326 277.142C127.546 277.749 127.856 278.287 128.207 278.645C128.554 279.001 128.947 279.173 129.299 279.08C130.002 278.879 130.592 277.714 130.298 276.422C130.155 275.754 129.778 275.235 129.344 274.911C129.127 274.749 128.892 274.634 128.658 274.58C128.54 274.553 128.426 274.54 128.305 274.54C128.182 274.54 128.061 274.557 127.94 274.592C127.844 274.619 127.758 274.661 127.676 274.712Z" fill="#E9EEF1"/>
<path d="M123.269 276.849C122.376 276.904 121.824 277.859 122.038 279.242C122.241 280.522 122.887 281.566 123.58 281.527C124.268 281.492 125.003 280.52 125.082 279.225C125.163 277.867 124.364 276.776 123.269 276.849Z" fill="#E9EEF1"/>
<path d="M117.995 278.368C117.08 278.323 116.404 279.215 116.478 280.613C116.547 281.908 117.08 283.011 117.758 283.05C118.096 283.072 118.469 282.863 118.789 282.492C119.11 282.124 119.374 281.588 119.497 280.949C119.756 279.613 119.127 278.427 117.995 278.368Z" fill="#E9EEF1"/>
<path d="M112.506 279.377C111.586 279.252 110.839 280.104 110.804 281.495C110.775 282.787 111.223 283.937 111.892 284.025C112.225 284.069 112.61 283.895 112.955 283.556C113.3 283.21 113.606 282.701 113.786 282.079C114.163 280.775 113.643 279.522 112.506 279.377Z" fill="#E9EEF1"/>
<path d="M106.919 279.989C106.004 279.802 105.202 280.608 105.081 281.994C104.973 283.283 105.347 284.455 106.006 284.588C106.662 284.72 107.58 283.988 108.019 282.767C108.48 281.487 108.048 280.208 106.919 279.989Z" fill="#E9EEF1"/>
<path d="M101.286 280.259C100.381 280.021 99.5322 280.782 99.3349 282.158C99.1524 283.438 99.4631 284.632 100.112 284.799C100.435 284.882 100.834 284.757 101.219 284.462C101.602 284.163 101.969 283.693 102.223 283.099C102.758 281.846 102.406 280.542 101.286 280.259Z" fill="#E9EEF1"/>
<path d="M95.6378 280.215C94.7474 279.937 93.8595 280.635 93.5858 282.011C93.3342 283.283 93.5784 284.482 94.2172 284.688C94.8535 284.9 95.845 284.261 96.4172 283.106C97.024 281.88 96.7403 280.566 95.6378 280.215Z" fill="#E9EEF1"/>
<path d="M90.0083 279.864C89.1376 279.537 88.2127 280.183 87.8576 281.537C87.5295 282.792 87.7046 284.003 88.3311 284.246C88.9551 284.492 89.9836 283.914 90.6224 282.789C91.2958 281.6 91.0861 280.279 90.0083 279.864Z" fill="#E9EEF1"/>
<path d="M84.4262 279.178C83.5802 278.798 82.6232 279.377 82.1743 280.709C81.7624 281.937 81.8512 283.16 82.4654 283.443C83.0746 283.733 84.1425 283.222 84.8529 282.139C85.5977 280.991 85.4695 279.662 84.4262 279.178Z" fill="#E9EEF1"/>
<path d="M78.9412 278.11C78.5391 277.881 78.0927 277.896 77.671 278.129C77.2541 278.355 76.8595 278.802 76.5808 279.441C76.0604 280.628 76.0406 281.853 76.6326 282.195C76.9286 282.359 77.3552 282.34 77.8066 282.153C78.258 281.962 78.734 281.598 79.1311 281.087C79.9623 280.011 79.9376 278.657 78.9412 278.11Z" fill="#E9EEF1"/>
<path d="M73.6637 276.547C72.9435 276.014 71.9199 276.397 71.18 277.586C70.4968 278.689 70.3093 279.9 70.8741 280.323C71.1529 280.537 71.5919 280.564 72.0679 280.436C72.5464 280.303 73.0643 279.991 73.5132 279.53C74.4579 278.544 74.564 277.196 73.6637 276.547Z" fill="#E9EEF1"/>
<path d="M68.4492 273.966C68.2741 273.904 68.0693 273.897 67.8424 273.936C67.4059 274.01 66.8805 274.26 66.3428 274.715C65.8471 275.137 65.45 275.611 65.2502 276.068C65.0479 276.52 65.0405 276.97 65.2823 277.267C65.524 277.557 65.9729 277.739 66.4908 277.724C67.0063 277.727 67.5958 277.525 68.131 277.164C68.6934 276.781 69.0584 276.24 69.194 275.724C69.3322 275.199 69.2508 274.688 68.9227 274.292C68.7945 274.128 68.6268 274.024 68.4492 273.966Z" fill="#E9EEF1"/>
<path d="M112.426 250.422L112.352 250.245C109.025 251.628 104.033 252.421 98.656 252.421C93.4198 252.421 88.5115 251.662 85.1868 250.338L85.1152 250.518C88.4622 251.851 93.3976 252.615 98.656 252.615C104.058 252.613 109.077 251.815 112.426 250.422Z" fill="#E9EEF1"/>
<path d="M122.574 157.961L102.285 180.57L102.43 180.7L122.72 158.09L122.574 157.961Z" fill="#E9EEF1"/>
<path d="M98.6633 189.332C99.307 189.332 99.9508 189.096 100.442 188.627C100.918 188.17 101.182 187.563 101.182 186.917C101.182 186.271 100.92 185.664 100.442 185.207C99.46 184.267 97.8642 184.267 96.8825 185.207C96.4065 185.664 96.1426 186.271 96.1426 186.917C96.1426 187.563 96.404 188.17 96.8825 188.627C97.3758 189.099 98.0195 189.332 98.6633 189.332ZM97.0182 185.345C97.472 184.91 98.0664 184.694 98.6633 184.694C99.2602 184.694 99.8546 184.91 100.308 185.345C100.747 185.765 100.987 186.323 100.987 186.917C100.987 187.512 100.745 188.069 100.308 188.489C99.4008 189.359 97.9258 189.359 97.0182 188.489C96.5791 188.069 96.3399 187.512 96.3399 186.917C96.3399 186.323 96.5816 185.765 97.0182 185.345Z" fill="#E9EEF1"/>
<path d="M98.7275 189.983C99.5266 189.983 100.326 189.691 100.935 189.108C101.524 188.541 101.85 187.789 101.85 186.988C101.85 186.188 101.524 185.433 100.935 184.868C99.719 183.702 97.7384 183.702 96.5225 184.868C95.933 185.433 95.6074 186.188 95.6074 186.988C95.6074 187.789 95.933 188.543 96.5225 189.108C97.1292 189.691 97.9283 189.983 98.7275 189.983ZM96.6532 185.006C97.2254 184.458 97.9752 184.186 98.725 184.186C99.4748 184.186 100.225 184.458 100.797 185.006C101.349 185.534 101.653 186.239 101.653 186.986C101.653 187.733 101.349 188.438 100.797 188.968C99.6549 190.064 97.7952 190.064 96.6532 188.968C96.1007 188.438 95.7973 187.735 95.7973 186.986C95.7973 186.239 96.1007 185.534 96.6532 185.006Z" fill="#E9EEF1"/>
<path d="M110.709 44.9502C111.964 46.262 113.526 47.8957 115.859 47.9693C115.943 47.9718 116.027 47.9743 116.111 47.9743C117.751 47.9743 119.046 47.451 119.862 46.4561C120.711 45.4244 120.96 43.9357 120.565 42.2701C120.452 41.7936 120.156 41.0934 119.781 40.2066C118.977 38.3077 117.874 35.7087 117.822 33.4167C117.78 31.6553 119.453 30.5032 121.029 30.0119C122.745 29.4788 124.386 29.6876 124.928 30.5106L125.091 30.4049C124.492 29.496 122.797 29.2602 120.972 29.8276C119.327 30.3386 117.586 31.5522 117.63 33.4216C117.684 35.748 118.794 38.3691 119.603 40.2803C119.961 41.1229 120.269 41.8525 120.378 42.3119C120.757 43.9185 120.521 45.3457 119.712 46.3333C118.893 47.3306 117.566 47.8318 115.864 47.7777C113.61 47.7065 112.078 46.1048 110.85 44.8176C110.435 44.3852 110.043 43.975 109.668 43.6679L109.545 43.8178C109.91 44.115 110.3 44.5203 110.709 44.9502Z" fill="#E9EEF1"/>
<path d="M82.6813 27.2556C81.8723 30.9871 81.1743 34.2101 80.9646 35.7258C80.7871 36.9909 80.4023 41.3046 82.8367 43.7194C83.9293 44.8028 85.4314 45.3481 87.3157 45.3481C87.8312 45.3481 88.3738 45.3064 88.9461 45.2253L88.9189 45.0337C86.3193 45.4046 84.319 44.9158 82.9748 43.5819C80.6045 41.2309 80.9844 36.9934 81.157 35.7504C81.3667 34.242 82.0647 31.0215 82.8712 27.2949C83.1696 25.9143 83.4829 24.4698 83.7887 23.0327C84.3042 20.6008 83.9244 18.8271 82.7429 18.1688C81.786 17.6357 80.4368 17.9477 79.3812 18.9401C78.9767 19.3209 78.804 19.7336 78.8657 20.1659C79.0186 21.2321 80.5527 22.0231 80.6169 22.0575L80.7057 21.8855C80.6909 21.8782 79.1962 21.1068 79.0581 20.1389C79.0063 19.7729 79.1592 19.4167 79.5144 19.0801C80.5083 18.1442 81.7687 17.8445 82.6492 18.3358C83.7517 18.9499 84.0995 20.6474 83.6013 22.991C83.293 24.433 82.9797 25.875 82.6813 27.2556Z" fill="#E9EEF1"/>
<path d="M106.534 108.568C106.717 108.875 107.008 109.278 107.37 109.393C107.543 109.447 107.716 109.433 107.881 109.347C109.864 108.312 109.768 105.807 109.639 105.242C109.625 105.173 109.62 105.134 109.62 105.111C109.674 105.129 109.78 105.188 109.859 105.234C110.113 105.379 110.458 105.581 110.727 105.426C111.248 105.126 111.595 104.591 111.761 103.829C112.064 102.436 111.647 100.704 111.391 100.348L111.233 100.461C111.467 100.788 111.857 102.471 111.571 103.79C111.418 104.492 111.102 104.989 110.628 105.259C110.456 105.357 110.177 105.197 109.953 105.067C109.75 104.949 109.602 104.866 109.494 104.944C109.4 105.013 109.417 105.153 109.447 105.283C109.612 106.003 109.528 108.266 107.787 109.175C107.669 109.236 107.55 109.248 107.425 109.209C107.141 109.121 106.845 108.777 106.542 108.187C106.502 108.111 106.468 108.04 106.381 108.074C106.295 108.108 106.317 108.175 106.359 108.305C106.465 108.632 105.52 110.454 104.428 111.415C104.055 111.742 103.52 112.091 103.091 111.892C102.344 111.543 102.499 110.816 102.603 110.334C102.654 110.093 102.684 109.948 102.585 109.877C102.494 109.811 102.371 109.885 102.319 109.914C102.171 110 102.025 110.236 101.821 110.563C101.409 111.223 100.847 112.125 100.015 112.135C99.263 112.137 98.4121 111.417 97.4675 109.98L97.3047 110.086C98.2962 111.594 99.1767 112.329 100.001 112.329C100.005 112.329 100.01 112.329 100.018 112.329C100.955 112.319 101.574 111.324 101.986 110.666C102.154 110.398 102.312 110.142 102.418 110.081C102.432 110.071 102.447 110.064 102.457 110.059C102.452 110.118 102.432 110.211 102.415 110.292C102.314 110.766 102.124 111.653 103.012 112.066C103.426 112.26 103.964 112.086 104.561 111.56C105.471 110.759 106.364 109.292 106.534 108.568Z" fill="#E9EEF1"/>
<path d="M102.109 76.8928C102.59 76.8928 102.983 76.512 102.983 76.0428C102.983 75.5736 102.59 75.1929 102.109 75.1929C101.628 75.1929 101.236 75.5736 101.236 76.0428C101.236 76.512 101.628 76.8928 102.109 76.8928ZM102.109 75.9298C102.183 75.9298 102.243 75.9814 102.243 76.0428C102.243 76.1043 102.183 76.1558 102.109 76.1558C102.035 76.1558 101.976 76.1043 101.976 76.0428C101.976 75.9814 102.035 75.9298 102.109 75.9298Z" fill="#E9EEF1"/>
<path d="M58.6436 144.954C59.0136 144.984 59.3318 144.878 59.5883 144.642C60.0618 144.205 60.2147 143.424 60.2641 142.957C61.2433 144.873 63.5296 147.278 65.0366 147.278C65.1575 147.278 65.271 147.263 65.3795 147.231C66.1194 147.015 66.6028 146.666 66.815 146.192C67.1603 145.426 66.7237 144.515 66.4376 143.913C66.3365 143.701 66.2107 143.439 66.2205 143.387C66.2205 143.387 66.2378 143.382 66.2896 143.392C66.445 143.421 66.8741 143.647 67.4143 143.932C69.1877 144.863 72.4853 146.6 74.3351 145.824C75.1121 145.497 75.5634 145.03 75.672 144.433C75.963 142.849 73.8172 140.82 72.7862 139.845L72.7838 139.842C73.8468 140.523 75.926 141.825 77.1296 141.397C77.4971 141.267 77.7536 140.987 77.8918 140.564C78.4146 138.968 76.4094 137.965 75.0825 137.305C74.5497 137.039 73.9972 136.764 73.98 136.609C73.98 136.604 73.9775 136.585 74.0145 136.553C74.2636 136.339 75.1811 136.619 76.0691 136.887C77.2579 137.246 78.6021 137.653 79.2902 137.26C79.5073 137.137 79.6479 136.941 79.7095 136.678C80.1338 134.875 77.3245 133.494 75.7805 133.018C75.3711 132.893 74.0268 132.512 73.8591 132.939L74.0392 133.01C74.0762 132.912 74.6262 132.866 75.7213 133.205C77.2061 133.664 79.9118 134.973 79.5196 136.636C79.4703 136.848 79.3618 136.997 79.1916 137.096C78.5774 137.447 77.2727 137.054 76.1233 136.705C75.0578 136.383 74.2168 136.128 73.8863 136.408C73.7901 136.489 73.7777 136.577 73.7851 136.634C73.8147 136.88 74.2192 137.093 74.9937 137.479C76.3379 138.15 78.1779 139.068 77.7068 140.508C77.5859 140.876 77.3763 141.107 77.0655 141.218C75.9211 141.623 73.7407 140.228 72.8109 139.631C72.3077 139.307 72.2535 139.275 72.1795 139.358C72.1129 139.432 72.1844 139.515 72.2313 139.569C72.3028 139.653 72.4508 139.793 72.6555 139.987C73.5829 140.864 75.7558 142.92 75.4845 144.402C75.3883 144.932 74.9764 145.35 74.2636 145.649C72.5001 146.389 69.2543 144.682 67.5105 143.765C66.9111 143.451 66.514 143.242 66.3315 143.205C66.2871 143.198 66.1539 143.171 66.08 143.264C65.9788 143.394 66.0874 143.62 66.2674 143.999C66.5387 144.569 66.9506 145.433 66.6423 146.116C66.4549 146.534 66.0134 146.848 65.3302 147.047C63.8799 147.47 61.1619 144.537 60.2838 142.539L60.0988 142.117V142.576C60.0988 142.589 60.0914 143.918 59.46 144.5C59.2454 144.699 58.9766 144.787 58.6609 144.763C58.6313 144.76 55.6025 144.453 53.7379 138.11C52.2407 133.02 53.7255 126.223 53.7403 126.154L53.5504 126.112C53.5356 126.181 52.0409 133.028 53.5529 138.164C55.452 144.632 58.6116 144.952 58.6436 144.954Z" fill="#E9EEF1"/>
<path d="M51.4685 100.518C50.874 100.518 50.3906 100.987 50.3906 101.567C50.3906 102.144 50.874 102.615 51.4685 102.615C52.0629 102.615 52.5463 102.146 52.5463 101.567C52.5488 100.987 52.0629 100.518 51.4685 100.518ZM51.4685 101.876C51.281 101.876 51.1306 101.736 51.1306 101.564C51.1306 101.392 51.2835 101.252 51.4685 101.252C51.6559 101.252 51.8064 101.392 51.8064 101.564C51.8064 101.736 51.6559 101.876 51.4685 101.876Z" fill="#E9EEF1"/>
<path d="M54.1841 152.938C52.6327 153 50.847 153.756 49.9344 154.739C49.4978 155.21 49.2882 155.694 49.3079 156.186C49.3794 157.9 52.2356 159.048 54.2457 159.048C54.3123 159.048 54.3765 159.048 54.4406 159.045C55.6393 158.999 56.7319 158.532 57.4423 157.765C57.9651 157.203 58.2241 156.537 58.1945 155.844C58.1255 154.157 56.3299 152.857 54.1841 152.938ZM57.3017 157.63C56.6259 158.36 55.5801 158.804 54.4332 158.849C52.317 158.935 49.5669 157.689 49.5028 156.176C49.4855 155.741 49.6779 155.301 50.0774 154.869C50.9432 153.936 52.7116 153.189 54.1915 153.13C56.2214 153.051 57.938 154.27 58.0046 155.847C58.0317 156.488 57.7876 157.104 57.3017 157.63Z" fill="#E9EEF1"/>
<path d="M155.468 221.589C154.104 221.528 152.812 222.034 152.067 222.916C151.097 222.179 149.667 221.648 148.392 221.589C146.241 221.493 144.44 222.778 144.357 224.461C144.322 225.154 144.576 225.822 145.094 226.389C145.799 227.163 146.89 227.637 148.086 227.691C148.162 227.694 148.239 227.696 148.318 227.696C149.6 227.696 151.218 227.237 152.242 226.46C152.947 227.188 154.003 227.637 155.162 227.691C155.239 227.694 155.315 227.696 155.394 227.696C157.402 227.696 160.228 226.573 160.315 224.871C160.339 224.382 160.132 223.893 159.7 223.422C158.8 222.432 157.019 221.66 155.468 221.589ZM148.098 227.497C146.951 227.446 145.91 226.994 145.24 226.259C144.756 225.731 144.519 225.112 144.551 224.471C144.628 222.953 146.226 221.776 148.162 221.776C148.236 221.776 148.31 221.778 148.384 221.781C149.864 221.85 151.628 222.609 152.484 223.549C152.881 223.984 153.071 224.424 153.048 224.859C152.972 226.375 150.212 227.598 148.098 227.497ZM155.172 227.497C154.069 227.446 153.068 227.023 152.395 226.338C152.888 225.922 153.211 225.426 153.241 224.869C153.265 224.38 153.058 223.891 152.627 223.419C152.506 223.287 152.37 223.159 152.22 223.036C152.928 222.203 154.156 221.722 155.458 221.781C156.938 221.85 158.701 222.609 159.557 223.549C159.954 223.984 160.144 224.424 160.122 224.859C160.046 226.375 157.286 227.6 155.172 227.497Z" fill="#E9EEF1"/>
<path d="M130.96 206.892C130.985 207.159 131.096 207.371 131.29 207.523C131.917 208.004 133.308 207.776 134.539 207.575C135.456 207.425 136.406 207.267 136.623 207.511C136.655 207.547 136.65 207.565 136.65 207.57C136.611 207.722 136.024 207.921 135.459 208.117C134.05 208.601 131.922 209.331 132.213 210.982C132.289 211.417 132.502 211.726 132.844 211.903C133.974 212.488 136.216 211.468 137.37 210.933C136.206 211.768 133.787 213.502 133.861 215.111C133.888 215.713 134.267 216.231 134.988 216.654C136.709 217.661 140.224 216.371 142.111 215.681C142.688 215.47 143.144 215.303 143.302 215.293C143.314 215.293 143.322 215.293 143.332 215.293C143.346 215.293 143.356 215.293 143.361 215.293C143.359 215.369 143.206 215.603 143.08 215.789C142.708 216.352 142.148 217.199 142.385 218.005C142.53 218.499 142.959 218.904 143.66 219.216C143.82 219.287 144 219.319 144.197 219.319C145.714 219.319 148.149 217.339 149.335 215.647C149.318 216.116 149.36 216.909 149.767 217.403C149.989 217.671 150.287 217.816 150.659 217.836C150.689 217.836 153.866 217.931 156.668 211.77C158.892 206.877 158.382 199.9 158.377 199.829L158.185 199.844C158.19 199.913 158.698 206.842 156.493 211.689C153.745 217.73 150.706 217.646 150.669 217.642C150.356 217.624 150.102 217.504 149.917 217.278C149.374 216.622 149.555 215.303 149.557 215.291L149.621 214.834L149.377 215.227C148.223 217.091 145.11 219.644 143.736 219.037C143.09 218.749 142.698 218.383 142.57 217.949C142.357 217.229 142.89 216.426 143.24 215.892C143.48 215.531 143.613 215.33 143.529 215.19C143.47 215.087 143.334 215.094 143.287 215.099C143.1 215.111 142.678 215.266 142.042 215.499C140.184 216.18 136.727 217.45 135.084 216.487C134.423 216.101 134.078 215.634 134.053 215.101C133.984 213.596 136.435 211.837 137.481 211.087C137.713 210.923 137.878 210.802 137.96 210.729C138.014 210.68 138.095 210.608 138.041 210.525C137.979 210.431 137.933 210.454 137.378 210.714C136.369 211.186 134.006 212.286 132.933 211.731C132.642 211.581 132.469 211.323 132.403 210.947C132.139 209.459 134.095 208.788 135.52 208.299C136.342 208.017 136.773 207.859 136.838 207.619C136.852 207.562 136.852 207.476 136.768 207.383C136.482 207.061 135.612 207.204 134.509 207.385C133.318 207.582 131.971 207.803 131.411 207.373C131.258 207.255 131.175 207.093 131.155 206.877C131.009 205.268 133.668 204.248 135.488 203.956C136.579 203.779 137.074 203.895 137.099 203.995L137.286 203.951C137.185 203.521 135.858 203.701 135.456 203.764C133.826 204.025 130.79 205.015 130.96 206.892Z" fill="#E9EEF1"/>
<path d="M163.765 176.816C163.812 176.821 163.861 176.826 163.911 176.826C164.431 176.826 165.144 176.506 165.228 175.922C165.245 175.804 165.238 175.506 164.796 175.315C164.589 175.226 164.335 175.177 164.16 175.153C163.861 175.111 163.551 175.101 163.306 175.131C162.766 175.192 162.618 175.438 162.591 175.634C162.562 175.848 162.623 176.062 162.771 176.256C162.988 176.541 163.388 176.767 163.765 176.816ZM164.377 175.944C164.246 176.03 164.034 176.106 163.864 176.084C163.708 176.064 163.516 175.966 163.405 175.855C163.667 175.831 164.111 175.87 164.377 175.944Z" fill="#E9EEF1"/>
<path d="M171.614 203.133C171.619 203.133 171.624 203.133 171.631 203.133C172.568 203.123 173.187 202.128 173.599 201.47C173.767 201.202 173.925 200.949 174.031 200.885L173.932 200.718C173.784 200.804 173.639 201.04 173.434 201.367C173.022 202.025 172.46 202.929 171.629 202.939C171.624 202.939 171.619 202.939 171.616 202.939C170.874 202.939 170.02 202.214 169.081 200.785L168.918 200.89C169.909 202.399 170.792 203.133 171.614 203.133Z" fill="#E9EEF1"/>
<path d="M163.327 211.81C163.332 211.81 163.337 211.81 163.344 211.81C164.281 211.8 164.9 210.805 165.312 210.146C165.48 209.879 165.638 209.626 165.744 209.562L165.645 209.395C165.497 209.481 165.352 209.717 165.147 210.043C164.735 210.704 164.173 211.606 163.341 211.615C162.597 211.628 161.738 210.898 160.794 209.461L160.631 209.567C161.62 211.075 162.503 211.81 163.327 211.81Z" fill="#E9EEF1"/>
<path d="M168.389 207.098C168.394 207.098 168.399 207.098 168.406 207.098C169.344 207.088 169.963 206.093 170.375 205.435C170.542 205.167 170.7 204.914 170.806 204.85L170.708 204.683C170.56 204.769 170.414 205.005 170.209 205.332C169.798 205.992 169.235 206.894 168.404 206.904C168.399 206.904 168.394 206.904 168.392 206.904C167.649 206.904 166.796 206.179 165.856 204.749L165.693 204.855C166.685 206.366 167.565 207.098 168.389 207.098Z" fill="#E9EEF1"/>
<path d="M170.942 214.008C170.53 214.667 169.968 215.571 169.136 215.58C169.131 215.58 169.127 215.58 169.124 215.58C168.382 215.58 167.528 214.856 166.589 213.426L166.426 213.532C167.417 215.04 168.298 215.774 169.122 215.774C169.127 215.774 169.131 215.774 169.139 215.774C170.076 215.765 170.695 214.77 171.107 214.111C171.275 213.844 171.433 213.591 171.539 213.527L171.44 213.36C171.292 213.446 171.147 213.681 170.942 214.008Z" fill="#E9EEF1"/>
<path d="M157.946 183.132C158.597 183.124 159.022 182.444 159.3 181.994C159.406 181.825 159.517 181.648 159.581 181.611L159.483 181.444C159.377 181.505 159.276 181.668 159.135 181.894C158.861 182.333 158.486 182.935 157.941 182.94C157.939 182.94 157.936 182.94 157.931 182.94C157.441 182.94 156.873 182.456 156.247 181.498L156.084 181.604C156.76 182.633 157.364 183.132 157.931 183.132C157.936 183.132 157.941 183.132 157.946 183.132Z" fill="#E9EEF1"/>
<path d="M60.6989 223.616C58.7849 223.382 55.7808 224.301 55.549 226.048C55.4824 226.542 55.6575 227.072 56.0546 227.583C56.8463 228.6 58.4618 229.467 59.8998 229.644C60.0848 229.666 60.2697 229.679 60.4523 229.679C62.2552 229.679 63.7894 228.593 63.9891 227.082C64.0829 226.387 63.8757 225.669 63.4071 225.068C62.7954 224.281 61.8063 223.751 60.6989 223.616ZM63.7968 227.055C63.5896 228.612 61.8532 229.688 59.922 229.45C58.5309 229.281 56.9696 228.445 56.2075 227.463C55.8375 226.989 55.6822 226.519 55.7414 226.072C55.9189 224.729 58.1437 223.771 60.0527 223.771C60.2648 223.771 60.4745 223.783 60.6767 223.807C61.7348 223.938 62.6745 224.439 63.2541 225.185C63.6882 225.746 63.8806 226.411 63.7968 227.055Z" fill="#E9EEF1"/>
<path d="M138.355 153.83C136.441 153.596 133.437 154.515 133.205 156.262C133.139 156.756 133.314 157.286 133.711 157.797C134.503 158.814 136.118 159.681 137.556 159.856C137.741 159.878 137.926 159.89 138.109 159.89C139.911 159.89 141.446 158.804 141.645 157.294C141.739 156.598 141.532 155.881 141.063 155.279C140.452 154.493 139.465 153.965 138.355 153.83ZM141.453 157.269C141.246 158.827 139.509 159.902 137.578 159.664C136.187 159.495 134.626 158.659 133.864 157.677C133.494 157.203 133.338 156.734 133.398 156.286C133.575 154.943 135.8 153.985 137.709 153.985C137.921 153.985 138.131 153.997 138.33 154.021C139.389 154.152 140.328 154.653 140.908 155.4C141.347 155.96 141.539 156.625 141.453 157.269Z" fill="#E9EEF1"/>
</g>
<defs>
<clipPath id="clip0_6620_111423">
<rect width="197" height="287" fill="white"/>
</clipPath>
</defs>
</svg>
