<svg width="28" height="28" viewBox="0 0 28 28" fill="none" xmlns="http://www.w3.org/2000/svg">
<path fill-rule="evenodd" clip-rule="evenodd" d="M11.4813 0.265969C6.8797 1.09663 2.88152 4.31999 1.07413 8.65639C-2.36053 16.8976 2.78416 26.1905 11.635 27.7321C13.6848 28.0893 14.2693 28.0893 16.3191 27.7321C22.1947 26.7087 26.7072 22.2013 27.7318 16.3325C28.0894 14.285 28.0894 13.7011 27.7318 11.6537C26.7072 5.78478 22.1947 1.27746 16.3191 0.254001C14.3573 -0.0878397 13.4289 -0.0854086 11.4813 0.265969ZM15.392 7.47117C17.0654 9.27424 17.9943 11.8493 17.8745 14.3519C17.7785 16.3594 17.071 18.0039 15.6648 19.4891C14.8474 20.3524 14.6977 20.6287 14.6001 21.4511C14.4301 22.8843 13.8005 22.6038 13.7925 21.0913C13.7908 20.776 13.503 20.3352 12.9378 19.7823C9.29834 16.2206 9.3371 10.9247 13.0327 6.80525L14.0707 5.64827L14.3301 6.12737C14.473 6.39085 14.9508 6.99562 15.392 7.47117ZM14.0652 13.3322C13.9922 14.1109 13.8295 17.5551 13.9334 18.054C14.0986 18.846 14.3097 18.8729 14.3294 16.8448C14.3416 12.967 14.3165 11.936 14.2738 11.936C14.2311 11.936 14.1373 12.5644 14.0652 13.3322Z" fill="#E9EEF1"/>
</svg>
