<svg width="899" height="568" viewBox="0 0 899 568" fill="none" xmlns="http://www.w3.org/2000/svg">
<g opacity="0.8" clip-path="url(#clip0_3969_30045)">
<path d="M797.558 18.2715C792.316 18.2715 788.045 22.54 788.045 27.7794C788.045 33.0188 792.316 37.2873 797.558 37.2873C802.801 37.2873 807.071 33.0188 807.071 27.7794C807.071 22.54 802.801 18.2715 797.558 18.2715ZM797.558 36.5963C792.692 36.5963 788.728 32.6427 788.728 27.7707C788.728 22.8986 792.683 18.945 797.558 18.945C802.433 18.945 806.389 22.8986 806.389 27.7707C806.389 32.6427 802.424 36.5963 797.558 36.5963Z" fill="#E9EEF1"/>
<path d="M98.8785 36.9729C104.121 36.9729 108.392 32.7044 108.392 27.465C108.392 22.2255 104.121 17.957 98.8785 17.957C93.6361 17.957 89.3652 22.2255 89.3652 27.465C89.3652 32.7131 93.6274 36.9729 98.8785 36.9729ZM98.8785 18.648C103.745 18.648 107.709 22.6017 107.709 27.4737C107.709 32.337 103.753 36.2994 98.8785 36.2994C94.0037 36.2994 90.0479 32.3457 90.0479 27.4737C90.0479 22.6017 94.0125 18.648 98.8785 18.648Z" fill="#E9EEF1"/>
<path d="M890.94 386.693V27.9115C890.94 12.5169 878.416 0 863.012 0H35.6288C20.2343 0 7.70164 12.5169 7.70164 27.9115V377.273C0 380.343 0 381.576 0 382.32V498.059L7.70164 509.063V540.097C7.70164 555.483 20.2256 568.009 35.6288 568.009H863.012C878.407 568.009 890.94 555.492 890.94 540.097V518.816L891.097 518.912L898.125 507.594V507.226C898.16 502.564 899 393.052 899 391.889C899 391.128 898.991 389.869 890.94 386.693ZM859.442 552.632C851.74 552.632 845.474 546.369 845.474 538.672C845.474 530.974 851.74 524.711 859.442 524.711C867.143 524.711 873.41 530.974 873.41 538.672C873.41 546.369 867.143 552.632 859.442 552.632ZM859.442 522.079C850.287 522.079 842.848 529.522 842.848 538.663C842.848 547.191 849.324 554.232 857.612 555.142L855.407 555.352L851.504 555.282C847.898 554.486 844.45 552.693 841.632 549.876C833.886 542.135 833.755 529.662 841.352 522.07C844.984 518.44 849.823 516.454 854.996 516.454C855.066 516.454 855.136 516.454 855.197 516.454C860.448 516.507 865.41 518.606 869.165 522.358C871.799 524.991 873.532 528.175 874.398 531.516C871.72 525.945 866.032 522.079 859.442 522.079ZM864.588 554.433C864.754 554.381 864.911 554.311 865.069 554.258L864.719 554.486L864.395 554.512C864.465 554.486 864.526 554.46 864.588 554.433ZM872.596 548.748L872.447 549.317L871.703 549.815C872.009 549.474 872.307 549.115 872.596 548.748ZM869.646 521.877C861.63 513.865 848.712 513.734 840.853 521.597C832.993 529.452 833.125 542.363 841.133 550.375C843.399 552.64 846.06 554.25 848.887 555.256L755.916 553.62L749.763 522.105C758.541 531.105 768.615 540.954 774.82 545.45C780.964 549.911 788.622 551.713 796.279 551.713C807.998 551.713 819.726 547.497 826.08 542.118C832.223 536.922 834.079 531.184 836.223 524.536C837.037 522 837.886 519.384 839.032 516.559C839.96 514.268 841.273 496.905 842.699 472.588C843.907 475.895 847.075 478.274 850.795 478.274C855.547 478.274 859.415 474.408 859.415 469.658C859.415 464.909 855.547 461.042 850.795 461.042C847.425 461.042 844.502 462.993 843.084 465.818C843.461 459.136 843.846 452.024 844.24 444.633L875.939 445.132L875.3 532.391C874.521 528.525 872.631 524.86 869.646 521.877ZM620.813 557.591H584.624V565.376H552.181L552.925 564.921L548.164 557.04H514.609V526.784H511.984V557.04V565.367H380.706V557.311V529.4L508.921 529.828V529.137L380.706 528.726V524.694H378.08V557.32H344.517L339.756 565.201L340.054 565.376H308.066V557.862H271.877L267.343 565.376H150.016C151.854 558.387 157.717 530.721 163.686 502.092L206.15 503.124L206.596 504.663C207.559 507.996 210.045 517.119 210.045 519.358V520.67L259.93 520.749V504.436L271.457 504.716L271.351 504.742L282.729 548.109L285.267 547.445L273.995 504.462L298.859 499.092V525.735C298.859 537.806 310.271 548.398 323.285 548.398C336.754 548.398 347.711 537.447 347.711 523.985V497.228C347.711 493.948 347.046 491.657 345.909 488.928L425.524 471.722C425.822 483.609 435.589 493.187 447.553 493.187C459.21 493.187 468.776 484.091 469.537 472.632C485.343 476.385 507.354 481.589 529.619 486.837H528.612V492.339H520.036V507.41L370.02 508.171V491.106H361.452V486.627H358.826V546.229H361.452V521.44H370.029V510.795L520.044 510.034V522.673H528.621V550.454H531.247V487.204C539.867 489.234 548.497 491.263 556.793 493.205C549.88 503.736 549.888 520.819 556.828 531.324C560.215 536.45 564.749 539.275 569.597 539.275C574.446 539.275 578.979 536.45 582.366 531.324C587.644 523.329 589.07 511.057 585.902 500.78L585.246 500.981C588.353 511.075 586.97 523.111 581.798 530.948C578.542 535.872 574.21 538.593 569.597 538.593C564.985 538.593 560.653 535.881 557.406 530.948C550.588 520.635 550.588 503.85 557.406 493.529L556.977 493.249C570.481 496.406 583.093 499.345 593.341 501.698V524.79C593.341 537.875 582.69 548.512 569.606 548.512C556.513 548.512 545.871 537.867 545.871 524.79V500.01C545.871 497.019 546.431 494.088 547.534 491.316L546.895 491.062C545.766 493.913 545.188 496.922 545.188 500.01V524.79C545.188 538.252 556.146 549.203 569.615 549.203C583.084 549.203 594.041 538.252 594.041 524.79V501.856C605.436 504.471 613.786 506.343 616.98 506.955C616.157 510.979 609.13 545.31 608.307 549.159L610.88 549.701C611.729 545.687 619.291 508.783 619.623 507.147C621.995 507.095 627.369 506.946 634.536 506.745V522.07L684.422 521.991V520.679C684.422 518.685 686.479 511.337 687.861 506.885L688.386 505.188H688.141C708.507 504.593 726.615 504.051 731.454 503.911L745.606 565.376H625.531L620.813 557.591ZM622.441 565.376H587.25V560.215H619.326L622.441 565.376ZM550.133 565.376H514.609V559.673H546.685L550.133 565.376ZM378.08 565.376H342.723L346.005 559.944H378.08V565.376ZM305.44 565.376H270.415L273.364 560.486H305.44V565.376ZM24.4264 539.546C24.4264 531.849 30.6928 525.586 38.3944 525.586C46.0961 525.586 52.3624 531.849 52.3624 539.546C52.3624 547.243 46.0961 553.506 38.3944 553.506C30.6928 553.506 24.4264 547.252 24.4264 539.546ZM37.5455 556.095L37.5892 556.122C37.5542 556.113 37.5192 556.104 37.4842 556.095C37.5017 556.095 37.528 556.095 37.5455 556.095ZM39.2083 556.227L38.9895 556.104C47.8639 555.789 54.9967 548.494 54.9967 539.546C54.9967 530.397 47.5489 522.962 38.4032 522.962C31.7955 522.962 26.0893 526.854 23.42 532.452C24.3039 529.006 26.0805 525.831 28.6799 523.242C32.4344 519.489 37.3967 517.399 42.6478 517.338C42.7178 517.338 42.7791 517.338 42.8491 517.338C48.0302 517.338 52.8612 519.332 56.4933 522.953C64.0811 530.537 63.9586 543.01 56.2132 550.76C53.4651 553.506 50.0607 555.361 46.3761 556.174C42.5253 556.2 39.9523 556.227 39.2083 556.227ZM56.7033 551.241C64.72 543.229 64.8425 530.318 56.9834 522.463C53.2288 518.702 48.214 516.647 42.8579 516.647C42.7879 516.647 42.7178 516.647 42.6478 516.647C37.2129 516.699 32.0756 518.868 28.1985 522.752C24.4615 526.487 22.466 531.28 22.1685 536.135C22.0985 536.467 22.0547 536.808 22.0022 537.149L20.917 532.172V444.213L61.4556 443.583C59.5214 451.106 57.9636 457.963 56.8696 463.973C50.8571 496.914 58.9613 519.979 59.0401 520.172C59.0838 520.382 64.0811 541.121 85.2431 547.27C111.297 554.836 130.989 542.074 142.918 530.03C143.294 529.653 143.662 529.269 144.029 528.884C141.054 543.159 138.831 553.839 138.446 555.728C133.177 555.544 73.008 555.973 48.8967 556.157C51.7935 555.133 54.4541 553.489 56.7033 551.241ZM118.947 11.2048L124.994 19.1033H161.323C161.271 21.57 161.209 24.1066 161.131 26.5907L89.7941 54.9045L56.8608 37.0783C58.5237 31.2965 57.0884 24.7976 52.5374 20.2492C51.9423 19.6544 51.2947 19.1208 50.6208 18.6222C48.9667 15.3946 46.2974 12.7793 43.0242 11.2048H118.947ZM840.809 33.8157C840.809 29.4334 842.516 25.3224 845.614 22.226C845.701 22.1385 845.797 22.0598 845.894 21.9723C845.211 23.7829 844.826 25.7335 844.826 27.7803C844.826 30.5006 845.5 33.0634 846.664 35.3289L841.413 38.1716C841.028 36.7634 840.809 35.3026 840.809 33.8157ZM850.996 18.5085C853.56 15.6308 857.271 13.8114 861.42 13.8114C869.121 13.8114 875.387 20.0742 875.387 27.7715C875.387 35.4688 869.121 41.7316 861.42 41.7316C853.718 41.7316 847.452 35.4688 847.452 27.7715C847.452 24.3252 848.712 21.1676 850.795 18.7272C850.882 18.6922 850.961 18.6485 851.04 18.6135L850.996 18.5085ZM848.047 37.5681C851.066 41.6879 855.932 44.3732 861.42 44.3732C865.568 44.3732 869.349 42.8338 872.263 40.3146C871.449 42.1952 870.294 43.9184 868.806 45.4054C863.678 50.5311 855.967 51.537 849.815 48.4318L843.566 42.9125C843.084 42.1952 842.682 41.4342 842.323 40.6645L848.047 37.5681ZM845.132 45.8864C846.428 47.181 847.889 48.2219 849.438 49.0091L851.985 51.2571L851.145 227.63C849.491 213.906 846.506 200.454 842.227 187.403L842.568 42.9475L843.067 43.3936C843.671 44.2683 844.353 45.108 845.132 45.8864ZM850.917 274.383C849.43 289.165 846.401 303.606 841.912 317.549L841.929 311.601C847.425 292.812 850.278 273.149 850.278 253.049C850.278 233.386 847.539 214.073 842.2 195.529L842.218 189.607C846.76 203.935 849.745 218.752 851.11 233.858L850.917 274.383ZM851.749 243.331C851.897 246.567 851.976 249.813 851.976 253.066C851.976 257.011 851.854 260.93 851.644 264.84L851.749 243.331ZM850.874 283.654C850.821 284.905 848.012 354.312 844.949 417.028L775.126 416.652C777.227 414.911 779.301 413.153 781.34 411.325L841.343 411.631H841.684L841.903 319.814C846.13 307.123 849.141 293.993 850.882 280.576L850.874 283.654ZM850.777 302.548L850.235 417.045L845.649 417.019C847.749 373.967 849.727 327.774 850.777 302.548ZM634.51 505.092V506.054C625.338 506.317 619.098 506.483 618.319 506.483C617.523 506.483 608.088 504.383 594.024 501.147V500.876H593.333V500.981C560.058 493.327 501.744 479.533 469.572 471.906C469.581 471.652 469.59 471.39 469.59 471.136C469.59 458.987 459.7 449.112 447.553 449.112C435.449 449.112 425.586 458.917 425.516 471.005L272.629 504.042L163.826 501.392C170.145 471.04 176.534 439.814 178.293 431.189L523.423 435.318C557.021 455.558 595.713 466.387 636.103 466.387C640.715 466.387 645.31 466.229 649.878 465.949C649.791 466.745 649.738 467.55 649.738 468.372C649.738 479.988 659.19 489.435 670.813 489.435C682.435 489.435 691.887 479.988 691.887 468.372C691.887 465.302 691.222 462.381 690.032 459.748C699.956 457.255 709.662 454.08 719.088 450.231L731.288 503.211C724.418 503.413 693.716 504.322 666.034 505.127L634.51 505.092ZM446.581 467.165C447.772 467.445 452.436 468.556 459.499 470.235C459.508 470.445 459.534 470.655 459.534 470.865C459.534 477.513 454.117 482.927 447.465 482.927C440.814 482.927 435.396 477.513 435.396 470.865C435.396 470.428 435.423 469.991 435.466 469.571L446.581 467.165ZM435.571 468.845C436.543 463.159 441.496 458.812 447.456 458.812C453.653 458.812 458.773 463.509 459.446 469.527C451.692 467.69 446.94 466.553 446.66 466.492L446.581 466.474L435.571 468.845ZM447.456 483.618C454.493 483.618 460.208 477.898 460.208 470.874C460.208 470.717 460.19 470.568 460.182 470.41C462.247 470.9 464.505 471.434 466.938 472.011C466.492 482.315 457.967 490.563 447.544 490.563C436.84 490.563 428.132 481.86 428.132 471.163L434.758 469.728C434.723 470.104 434.696 470.489 434.696 470.874C434.705 477.898 440.42 483.618 447.456 483.618ZM460.155 469.684C459.56 463.212 454.09 458.121 447.456 458.121C441.059 458.121 435.764 462.853 434.854 469.002L428.159 470.454C428.535 460.08 437.086 451.753 447.553 451.753C458.256 451.753 466.964 460.456 466.964 471.154C466.964 471.206 466.964 471.259 466.964 471.303C464.505 470.717 462.23 470.183 460.155 469.684ZM299.384 498.969L335.555 491.158L335.476 491.211C342.294 501.812 342.294 519.061 335.476 529.662C332.221 534.727 327.889 537.508 323.285 537.508C318.673 537.508 314.349 534.718 311.094 529.662C306.254 522.131 304.609 508.704 307.278 498.427L306.613 498.252C303.9 508.687 305.58 522.35 310.516 530.03C313.903 535.295 318.437 538.19 323.285 538.19C328.134 538.19 332.667 535.286 336.054 530.03C342.968 519.288 342.994 501.847 336.159 491.027L345.217 489.068C346.355 491.77 347.02 494.01 347.02 497.22V523.977C347.02 537.062 336.369 547.698 323.285 547.698C310.639 547.698 299.55 537.429 299.55 525.726V498.969H299.384ZM68.3695 436.472C67.7744 438.641 67.2318 440.741 66.7154 442.805L62.3395 442.875C63.6961 437.644 65.2276 432.09 66.9167 426.282L71.5202 426.23C70.1287 430.507 69.0522 433.979 68.3695 436.472ZM72.2466 426.221L97.627 425.932C101.898 425.932 105.057 427.55 106.51 430.498C107.832 433.166 107.517 436.656 105.731 438.983C102.808 442.814 97.2244 442.341 97.1369 442.333L67.4331 442.796C67.932 440.793 68.4571 438.755 69.0347 436.656C69.7261 434.128 70.8201 430.586 72.2466 426.221ZM20.9082 426.807L66.1991 426.291C64.5187 432.099 62.9784 437.653 61.6306 442.884L20.9082 443.522V426.807ZM67.118 425.591C68.2558 421.69 69.4548 417.675 70.715 413.564L75.7561 413.59C74.242 418.016 72.8855 422.031 71.739 425.539L67.118 425.591ZM70.9251 412.882C71.459 411.159 71.9928 409.418 72.5442 407.669L77.7953 407.695C77.1739 409.488 76.57 411.229 75.9924 412.908L70.9251 412.882ZM22.0897 23.8004L25.5029 16.7941C28.0585 13.9689 31.743 12.1845 35.8476 12.1845C43.5493 12.1845 49.8156 18.4473 49.8156 26.1446C49.8156 33.8419 43.5493 40.1047 35.8476 40.1047C28.146 40.1047 21.8797 33.8419 21.8797 26.1446C21.8797 25.3399 21.9584 24.5614 22.0897 23.8004ZM56.2395 36.7459L50.612 33.702C51.776 31.4365 52.4499 28.8736 52.4499 26.1533C52.4499 23.9929 52.0211 21.9286 51.2684 20.0305C51.5397 20.2667 51.811 20.4941 52.0648 20.7477C56.3882 25.0687 57.771 31.2266 56.2395 36.7459ZM35.8476 42.7375C41.335 42.7375 46.2011 40.0522 49.2205 35.9324L55.3118 39.23C54.5241 40.9269 53.4476 42.5276 52.0473 43.9271C45.6497 50.3211 35.2525 50.3211 28.8549 43.9271C27.4458 42.5101 26.3344 40.8919 25.5292 39.1163C28.3735 41.373 31.953 42.7375 35.8476 42.7375ZM55.9244 39.5537L56.4845 39.8598L54.1565 42.5101C54.8567 41.5742 55.443 40.5858 55.9244 39.5537ZM53.2463 44.5744L56.8608 40.4721L55.9857 407.59L71.8353 407.669C71.2839 409.418 70.7501 411.159 70.2162 412.882L43.5493 412.742L45.4134 50.12L53.2463 44.5744ZM835.794 170.355C830.333 157.585 823.585 145.295 815.595 133.653L835.216 133.662V133.181L835.917 133.959L835.794 170.355ZM650.57 465.923C663.759 465.075 676.729 463.072 689.34 459.94C690.522 462.512 691.178 465.372 691.178 468.39C691.178 479.621 682.033 488.761 670.795 488.761C659.558 488.761 650.412 479.621 650.412 468.39C650.421 467.55 650.473 466.728 650.57 465.923ZM650.666 465.232C650.78 464.48 650.946 463.736 651.147 463.01C663.662 462.188 675.968 460.316 687.958 457.412C688.351 458.025 688.71 458.654 689.043 459.31C676.554 462.398 663.724 464.375 650.666 465.232ZM651.349 462.311C651.812 460.832 652.443 459.424 653.213 458.112C663.872 457.342 674.366 455.768 684.632 453.45C685.726 454.456 686.697 455.584 687.546 456.809C675.758 459.634 663.654 461.488 651.349 462.311ZM460.847 133.496C436.114 168.72 423.039 210.058 423.039 253.058C423.039 309.266 445.26 362.115 485.606 401.861C488.091 404.31 490.638 406.698 493.22 409.007L489.325 408.989C487.339 407.17 485.37 405.324 483.444 403.435C442.669 363.269 420.212 309.869 420.212 253.066C420.212 210.154 433.121 168.816 457.547 133.496H460.847ZM546.212 173.312C527.553 194.882 517.279 222.391 517.279 250.766C517.279 316.648 571.689 370.249 638.562 370.249C705.435 370.249 759.845 316.648 759.845 250.766C759.845 222.391 749.571 194.882 730.912 173.312C713.189 152.827 688.938 138.805 662.341 133.592H667.505C722.274 146.415 760.519 194.593 760.519 250.775C760.519 317.181 705.671 371.211 638.256 371.211C570.84 371.211 515.984 317.181 515.984 250.775C515.984 223.099 525.252 197.069 542.782 175.516C559.795 154.602 583.662 139.706 609.987 133.566H614.897C588.256 138.761 563.961 152.792 546.212 173.312ZM618.161 133.566L658.963 133.583L658.945 133.662C686.671 138.315 712.043 152.555 730.387 173.758C748.941 195.205 759.154 222.548 759.154 250.766C759.154 316.272 705.059 369.558 638.562 369.558C572.065 369.558 517.97 316.272 517.97 250.766C517.97 222.548 528.184 195.205 546.738 173.758C565.081 152.555 590.453 138.315 618.179 133.662L618.161 133.566ZM542.248 175.079C524.613 196.754 515.292 222.933 515.292 250.766C515.292 317.558 570.446 371.894 638.247 371.894C706.048 371.894 761.202 317.558 761.202 250.766C761.202 195.205 723.998 147.421 670.375 133.592L755.461 133.636C789.628 165.991 808.445 209.515 808.445 256.189C808.445 324.205 767.678 383.011 708.953 410.161L561.064 409.374C503.258 381.874 463.289 323.541 463.289 256.189C463.289 209.48 482.123 165.938 516.325 133.575L516.272 133.522L607.117 133.566C581.728 140.1 558.78 154.768 542.248 175.079ZM778.933 133.644C808.978 167.469 825.528 210.854 825.528 255.848C825.528 305.434 805.924 352.064 770.33 387.131C761.465 395.86 751.872 403.619 741.694 410.336L731.262 410.284C784.604 378.97 820.417 321.581 820.417 256.102C820.417 210.425 803.001 166.97 771.363 133.644H778.933ZM811.744 133.662C821.651 147.736 829.694 162.798 835.768 178.551L835.733 189.371C829.169 169.621 819.524 150.876 806.965 133.671L811.744 133.662ZM806.117 133.653C819.192 151.488 829.125 170.994 835.724 191.558L835.313 316.447C825.336 346.886 808.121 374.771 784.499 398.047C780.053 402.42 775.441 406.566 770.68 410.494L752.984 410.398C760.712 404.721 768.081 398.458 775.021 391.627C812.488 354.715 833.125 305.644 833.125 253.451C833.125 209.594 818.719 168.186 791.483 133.653H806.117ZM841.281 293.915C839.881 300.816 838.113 307.612 836.013 314.295L836.415 193.71C838.446 200.287 840.135 206.979 841.474 213.749L841.281 293.915ZM842.148 217.318C844.266 229.109 845.342 241.144 845.342 253.346C845.342 265.863 844.196 278.205 841.982 290.267L842.148 217.318ZM670.804 447.327C663.19 447.327 656.512 451.386 652.81 457.447C647.769 457.806 642.702 457.99 637.599 457.99C604.097 457.99 571.812 450.222 542.843 435.563L563.191 435.807C585.71 444.379 609.882 448.858 634.746 448.858C657.956 448.858 680.562 444.957 701.786 437.469L716.165 437.644L717.276 442.464C706.792 446.75 695.948 450.17 684.833 452.707C681.105 449.365 676.186 447.327 670.804 447.327ZM684.002 452.89C674.077 455.112 663.943 456.616 653.659 457.386C657.291 451.753 663.61 448.018 670.795 448.018C675.836 448.018 680.448 449.855 684.002 452.89ZM620.131 433.866C598.829 431.766 578.594 426.011 560.102 417.264C566.464 417.299 572.704 417.325 578.813 417.351C596.684 423.509 615.886 426.868 635.867 426.868C655.663 426.868 674.699 423.57 692.439 417.518C699.379 417.465 704.009 417.378 705.864 417.264C709.443 417.037 712.542 417.299 715.22 417.902C695.817 426.877 674.559 432.58 652.171 434.251L620.131 433.866ZM578.927 416.66C578.559 416.529 578.183 416.407 577.815 416.276L687.59 416.862C665.553 416.984 626.248 416.888 578.927 416.66ZM690.224 417.535C673.123 423.142 654.849 426.186 635.867 426.186C616.682 426.186 598.216 423.081 580.966 417.36C629.311 417.588 669.062 417.675 690.224 417.535ZM576.809 416.652C570.875 416.625 564.828 416.59 558.666 416.564C558.395 416.433 558.133 416.302 557.861 416.171L575.75 416.267C576.1 416.398 576.45 416.529 576.809 416.652ZM714.161 417.01L717.101 417.028C716.786 417.176 716.471 417.316 716.165 417.465C715.517 417.29 714.852 417.133 714.161 417.01ZM696.106 416.223C700.455 414.631 704.709 412.864 708.883 410.949L728.566 411.054C725.276 412.925 721.906 414.684 718.484 416.346L696.106 416.223ZM694.101 416.214L575.872 415.585C571.444 413.966 567.103 412.164 562.859 410.196L707.273 410.94C702.967 412.873 698.582 414.631 694.101 416.214ZM573.886 415.567L556.443 415.48C553.074 413.791 549.766 411.998 546.519 410.118L561.196 410.196C565.335 412.147 569.571 413.94 573.886 415.567ZM554.903 415.471L540.515 415.392C537.627 413.686 534.774 411.902 531.973 410.039L545.145 410.109C548.339 411.99 551.595 413.783 554.903 415.471ZM556.286 416.162C556.548 416.293 556.82 416.424 557.091 416.555C552.26 416.529 547.359 416.503 542.414 416.477C542.187 416.346 541.959 416.214 541.732 416.083L556.286 416.162ZM558.5 417.255C575.549 425.486 594.094 431.163 613.611 433.787L581.675 433.402C568.416 429.405 555.664 423.973 543.613 417.168C548.637 417.203 553.599 417.229 558.5 417.255ZM677.797 437.181C664.564 440.041 650.92 441.51 637.048 441.51C621.601 441.51 606.443 439.682 591.81 436.149L677.797 437.181ZM658.674 434.329C679.074 432.09 698.469 426.509 716.279 418.165C718.922 418.873 721.145 419.923 723 421.174C711.833 426.824 700.123 431.347 688.01 434.679L658.674 434.329ZM717.18 417.745C717.67 417.509 718.152 417.264 718.642 417.028L730.614 417.089C728.312 418.392 725.976 419.643 723.621 420.841C721.801 419.582 719.666 418.515 717.18 417.745ZM720.033 416.354C723.394 414.684 726.685 412.926 729.923 411.062L740.486 411.115C737.642 412.96 734.745 414.727 731.804 416.416L720.033 416.354ZM530.739 410.03C533.505 411.893 536.314 413.678 539.176 415.383L524.77 415.305C522.171 413.581 519.616 411.806 517.095 409.96L530.739 410.03ZM540.331 416.083C540.559 416.214 540.786 416.346 541.014 416.477C536.2 416.451 531.334 416.424 526.433 416.398C526.232 416.267 526.031 416.144 525.829 416.004L540.331 416.083ZM542.222 417.168C553.958 423.885 566.368 429.317 579.277 433.376L558.308 433.122C547.604 428.705 537.312 423.343 527.51 417.08C532.463 417.115 537.373 417.142 542.222 417.168ZM588.852 436.114C604.395 440.12 620.56 442.193 637.048 442.193C651.952 442.193 666.594 440.496 680.755 437.207L699.729 437.434C679.109 444.484 657.221 448.158 634.755 448.158C610.635 448.158 587.18 443.916 565.257 435.825L588.852 436.114ZM690.408 434.705C701.899 431.399 713.014 427.017 723.648 421.611C725.249 422.775 726.545 424.095 727.621 425.442C720.847 429.002 713.881 432.151 706.739 434.898L690.408 434.705ZM724.252 421.305C726.86 419.967 729.441 418.567 731.988 417.107L741.878 417.159C737.423 420.002 732.863 422.661 728.216 425.127C727.113 423.763 725.801 422.46 724.252 421.305ZM733.17 416.424C736.067 414.736 738.928 412.969 741.747 411.124L750.735 411.167C748.179 413.004 745.58 414.771 742.946 416.477L733.17 416.424ZM515.931 409.952C518.425 411.797 520.955 413.582 523.528 415.296L510.461 415.226C508.203 413.494 505.98 411.71 503.783 409.882L515.931 409.952ZM524.552 415.996C524.753 416.127 524.945 416.258 525.147 416.381C520.762 416.354 516.342 416.328 511.896 416.302C511.73 416.171 511.555 416.048 511.389 415.917L524.552 415.996ZM526.232 417.08C535.859 423.308 545.985 428.661 556.496 433.105L537.723 432.877C529.085 428.198 520.771 422.906 512.824 417.002C517.323 417.028 521.795 417.054 526.232 417.08ZM718.265 435.038L708.56 434.924C715.211 432.3 721.722 429.326 728.05 425.993C730.929 429.877 731.927 433.936 732.233 435.624C728.129 437.697 723.963 439.63 719.736 441.423L718.265 435.038ZM728.645 425.67C733.59 423.046 738.421 420.203 743.138 417.159L762.016 417.264C752.774 424.095 743.033 430.113 732.881 435.291C732.391 432.449 731.087 428.915 728.645 425.67ZM744.197 416.485C746.805 414.78 749.369 413.004 751.907 411.176L769.744 411.264C767.503 413.092 765.228 414.859 762.926 416.582L744.197 416.485ZM782.18 410.555C784.569 408.395 786.924 406.19 789.234 403.916C809.04 384.402 824.522 361.773 835.243 337.159L835.041 397.452L821.222 410.756L782.18 410.555ZM788.753 403.426C786.276 405.867 783.747 408.237 781.174 410.546L778.347 410.529C781.541 407.739 784.666 404.852 787.711 401.852C808.637 381.244 824.67 357.103 835.269 330.8L835.251 335.41C824.548 360.531 808.891 383.597 788.753 403.426ZM787.221 401.371C784.001 404.546 780.692 407.59 777.305 410.529L771.748 410.503C776.299 406.715 780.719 402.735 784.981 398.546C808.164 375.707 825.204 348.434 835.313 318.668L835.278 328.981C824.714 355.799 808.497 380.413 787.221 401.371ZM790.591 133.644C817.958 168.134 832.416 209.559 832.416 253.443C832.416 305.452 811.858 354.356 774.522 391.128C767.381 398.161 759.784 404.59 751.811 410.389L742.893 410.345C752.8 403.724 762.147 396.14 770.794 387.621C806.519 352.423 826.202 305.627 826.202 255.857C826.202 210.889 809.74 167.53 779.835 133.653L790.591 133.644ZM770.418 133.636C802.213 166.9 819.726 210.381 819.726 256.093C819.726 321.739 783.598 379.215 729.905 410.266L710.581 410.161C768.825 382.626 809.136 323.952 809.136 256.18C809.136 209.55 790.433 166.061 756.458 133.627L770.418 133.636ZM462.606 256.189C462.606 323.313 502.147 381.507 559.489 409.365L545.101 409.287C492.345 378.008 456.97 321.048 456.97 256.102C456.97 210.32 474.526 166.795 506.4 133.522H515.397C481.352 165.964 462.606 209.507 462.606 256.189ZM456.287 256.102C456.287 320.89 491.338 377.754 543.744 409.278L530.748 409.208C521.182 402.744 512.15 395.379 503.775 387.131C468.181 352.064 448.577 305.443 448.577 255.848C448.577 210.81 465.153 167.381 495.25 133.548L495.207 133.513L505.473 133.522C473.747 166.857 456.287 210.355 456.287 256.102ZM447.885 255.848C447.885 305.627 467.559 352.423 503.293 387.612C511.45 395.65 520.228 402.849 529.514 409.199L515.984 409.129C508.632 403.662 501.604 397.662 494.97 391.128C457.635 354.347 437.077 305.452 437.077 253.443C437.077 209.489 451.579 168.02 479.024 133.496L494.375 133.505C464.391 167.408 447.885 210.827 447.885 255.848ZM436.385 253.443C436.385 305.636 457.022 354.715 494.489 391.618C500.922 397.951 507.722 403.785 514.828 409.121L502.786 409.059C498.637 405.561 494.594 401.896 490.691 398.047C451.456 359.394 429.848 308.006 429.848 253.346C429.848 209.979 443.439 168.545 469.161 133.531L469.117 133.505H478.149C450.826 168.064 436.385 209.515 436.385 253.443ZM429.156 253.346C429.156 308.19 450.835 359.753 490.209 398.537C493.929 402.202 497.762 405.709 501.701 409.051L494.27 409.007C491.487 406.54 488.756 403.995 486.087 401.362C445.872 361.747 423.721 309.073 423.721 253.049C423.721 210.04 436.84 168.702 461.661 133.513L461.617 133.487H468.33C442.704 168.554 429.156 209.988 429.156 253.346ZM494.174 409.847C496.239 411.666 498.331 413.45 500.449 415.182L496.362 415.165C494.296 413.424 492.249 411.648 490.236 409.829L494.174 409.847ZM495.224 409.847L502.698 409.882C504.877 411.71 507.074 413.494 509.315 415.217L501.525 415.173C499.399 413.45 497.298 411.666 495.224 409.847ZM510.234 415.917C510.4 416.048 510.575 416.171 510.741 416.302C508.124 416.284 505.508 416.267 502.873 416.258C502.716 416.136 502.558 416.004 502.401 415.882L510.234 415.917ZM511.66 416.993C519.502 422.88 527.72 428.171 536.235 432.86L526.661 432.746C518.714 428.005 511.065 422.731 503.74 416.949C506.4 416.958 509.035 416.975 511.66 416.993ZM541.294 435.545C570.674 450.66 603.502 458.672 637.591 458.672C642.553 458.672 647.489 458.497 652.39 458.156C651.655 459.477 651.06 460.876 650.613 462.346C645.984 462.643 641.328 462.801 636.654 462.801C599.1 462.801 563.042 453.284 531.291 435.423L541.294 435.545ZM685.437 453.258C696.394 450.738 707.089 447.353 717.434 443.137L718.3 446.899C708.568 450.878 698.539 454.124 688.273 456.634C687.45 455.409 686.496 454.281 685.437 453.258ZM719.893 442.097C724.103 440.312 728.26 438.397 732.347 436.332C732.347 436.35 732.356 436.385 732.356 436.394L733.091 440.163C729.039 442.193 724.925 444.082 720.76 445.849L719.893 442.097ZM733.03 436.297C733.021 436.201 733.003 436.105 732.995 436.009C743.523 430.656 753.605 424.401 763.154 417.273L769.114 417.308C758.025 426.02 746.175 433.56 733.73 439.857L733.03 436.297ZM764.064 416.59C766.348 414.867 768.597 413.092 770.82 411.272L776.43 411.299C774.312 413.118 772.159 414.894 769.98 416.617L764.064 416.59ZM835.628 397.855L835.733 397.75L835.943 335.568C837.868 331.054 839.619 326.471 841.22 321.826L841.01 410.94L822.132 410.844L835.628 397.855ZM835.943 333.783L835.96 329.104C837.912 324.127 839.671 319.08 841.238 313.963L841.22 319.709C839.627 324.468 837.868 329.156 835.943 333.783ZM835.96 327.153L835.995 316.56C838.07 310.219 839.829 303.772 841.264 297.23L841.229 311.505C839.689 316.797 837.93 322.019 835.96 327.153ZM841.964 293.985C844.651 280.742 846.025 267.149 846.025 253.346C846.025 239.894 844.721 226.633 842.157 213.679L842.192 198.022C847.084 215.796 849.587 234.269 849.587 253.049C849.587 272.266 846.979 291.089 841.929 309.134L841.964 293.985ZM841.474 210.416C840.091 204.014 838.402 197.69 836.407 191.462L836.442 180.353C838.332 185.383 840.012 190.482 841.5 195.643L841.474 210.416ZM836.459 178.42L836.477 173.767C838.323 178.289 840.012 182.872 841.535 187.508L841.518 193.211C840.021 188.217 838.332 183.283 836.459 178.42ZM835.777 176.679C829.817 161.608 822.054 147.185 812.575 133.653H814.763C823.156 145.811 830.184 158.687 835.794 172.087L835.777 176.679ZM815.131 132.971C815.122 132.962 815.122 132.953 815.113 132.945L815.078 132.971L779.248 132.953C779.231 132.936 779.222 132.918 779.205 132.91L779.152 132.953L63.1097 132.612L125.327 59.1993L770.776 61.0624L835.041 132.98L815.131 132.971ZM456.725 133.487C432.394 168.833 419.538 210.163 419.538 253.058C419.538 310.044 442.065 363.619 482.971 403.916C484.722 405.639 486.507 407.319 488.31 408.981L78.8455 406.794C96.3317 356.543 129.711 267.201 135.006 253.066C134.989 253.941 134.971 254.807 134.971 255.691C134.971 322.001 189.732 375.952 257.042 375.952C324.353 375.952 379.113 322.001 379.113 255.691C379.113 189.38 324.353 135.429 257.042 135.429C210.526 135.429 170.005 161.197 149.403 199.01L148.904 198.809C148.825 198.993 148.02 200.987 146.611 204.477C144.362 209.174 142.41 214.029 140.774 219.032C125.782 256.67 93.4699 339.442 73.0693 403.75L63.6698 395.878L62.7071 133.321L456.725 133.487ZM147.233 204.748C166.688 164.224 208.592 136.12 257.033 136.12C323.968 136.12 378.422 189.756 378.422 255.691C378.422 321.625 323.968 375.261 257.033 375.261C190.099 375.261 135.654 321.616 135.654 255.682C135.654 242.981 137.684 230.744 141.421 219.251C143.863 213.128 145.841 208.203 147.233 204.748ZM138.717 226.056C136.652 234.059 135.409 242.378 135.067 250.923C134.595 252.183 97.0056 352.475 78.1191 406.794L76.7101 406.785L73.6469 404.214C92.8748 343.527 122.797 266.231 138.717 226.056ZM75.8961 407.004L72.763 406.986C72.9818 406.304 73.1918 405.613 73.4106 404.922L75.8961 407.004ZM78.5217 407.704L489.212 409.82C491.207 411.64 493.22 413.424 495.277 415.156L76.7188 412.917C77.2964 411.229 77.9003 409.497 78.5217 407.704ZM496.108 415.847C496.257 415.969 496.406 416.092 496.554 416.223C421.656 415.768 340.841 415.173 279.815 414.692L496.108 415.847ZM497.193 415.847L501.28 415.864C501.438 415.996 501.595 416.118 501.753 416.241C500.388 416.232 499.014 416.223 497.64 416.214C497.491 416.101 497.342 415.969 497.193 415.847ZM502.628 416.94C509.875 422.713 517.454 427.988 525.313 432.729L520.386 432.667C512.798 427.9 505.481 422.643 498.471 416.905C499.863 416.923 501.254 416.932 502.628 416.94ZM529.881 435.405C561.992 453.721 598.557 463.492 636.654 463.492C641.266 463.492 645.852 463.334 650.421 463.045C650.228 463.771 650.08 464.515 649.966 465.267C645.371 465.556 640.75 465.713 636.103 465.713C596.247 465.713 558.036 455.138 524.77 435.344L529.881 435.405ZM689.726 459.136C689.41 458.488 689.052 457.859 688.675 457.246C698.854 454.745 708.813 451.517 718.467 447.581L718.922 449.575C709.452 453.441 699.694 456.634 689.726 459.136ZM720.908 446.54C725.074 444.782 729.179 442.892 733.222 440.872L733.616 442.892C729.59 444.904 725.503 446.776 721.372 448.526L720.908 446.54ZM733.861 440.548C746.665 434.084 758.839 426.317 770.216 417.308L773.236 417.325C761.106 427.183 748.039 435.624 734.255 442.578L733.861 440.548ZM771.074 416.625C773.236 414.894 775.362 413.118 777.463 411.299L780.307 411.316C778.259 413.135 776.168 414.911 774.058 416.643L771.074 416.625ZM841.955 41.4955L841.877 41.4255L841.535 185.356C840.004 180.843 838.315 176.373 836.477 171.965L836.599 133.837V133.706L771.179 60.4938L771.074 60.3801L125.16 58.517H125.003L62.1032 132.735L62.0244 132.831L62.9872 396.018V396.175L72.8418 404.441C72.5704 405.289 72.3079 406.138 72.0453 406.978L56.6771 406.899L57.5522 40.4284L89.6278 57.791L110.466 49.5164C112.251 49.5602 115.21 49.5864 120.128 49.5864C124.119 49.5864 129.405 49.5689 136.389 49.5427C153.455 49.4727 178.538 49.3065 210.946 49.0441C265.523 48.598 341.594 47.8807 437.059 46.9098C599.599 45.2567 764.221 43.4111 765.867 43.3936L767.223 43.3761L767.188 43.3586L807.666 59.4267L841.737 40.9794C841.798 41.1543 841.877 41.3293 841.955 41.4955ZM761.219 40.9969L764.493 42.7288C732.531 43.0874 165.209 49.4027 112.103 48.8779L130.061 41.7491L750.735 36.8421L761.219 40.9969ZM131.829 41.0406L163.704 28.3838L163.73 27.5266C163.826 24.3515 163.905 21.5612 163.957 19.0946H733.546V30.0107L749.046 36.1598L131.829 41.0406ZM24.3827 38.1104C25.2229 40.4633 26.5619 42.5976 28.3735 44.4082C31.708 47.7408 36.0839 49.4027 40.4599 49.4027C42.7704 49.4027 45.0721 48.9304 47.225 48.0032L44.7308 49.7613L42.8579 413.074V413.415L70.0061 413.564C68.7459 417.675 67.5381 421.699 66.4091 425.6L20.917 426.116V33.3171C21.7834 35.119 22.9561 36.7371 24.3827 38.1104ZM142.41 529.557C130.613 541.453 111.149 554.075 85.4269 546.605C64.6588 540.578 59.749 520.215 59.6877 519.971C59.6089 519.743 51.5572 496.835 57.5435 464.086C58.6462 458.042 60.2128 451.141 62.1645 443.566L66.5404 443.496C58.1211 477.609 59.9152 497.893 60.3003 501.182C59.714 503.815 59.3901 506.544 59.3901 509.352C59.3901 529.96 76.1675 546.719 96.7781 546.719C97.6533 546.719 98.5197 546.675 99.3774 546.622L99.3424 547.156C100.104 547.2 100.856 547.226 101.609 547.226C110.781 547.226 119.533 543.911 126.447 537.771C133.93 531.123 138.376 521.965 138.971 511.976C139.566 501.987 136.223 492.365 129.571 484.887C122.465 476.892 112.251 472.308 101.548 472.308C99.9813 472.107 98.3884 471.994 96.7693 471.994C79.6682 471.994 65.2276 483.531 60.7904 499.214C60.5804 496.564 60.3703 491.709 60.7204 484.834C61.1755 475.895 62.7158 461.795 67.2406 443.496L97.0932 443.032C97.3382 443.059 103.106 443.548 106.265 439.411C108.191 436.883 108.541 433.105 107.105 430.209C106.195 428.364 103.745 425.267 97.6008 425.267L72.4567 425.556C73.6032 422.049 74.9597 418.034 76.4738 413.625L180.857 414.185C178.284 415.278 168.447 420.404 163.826 436.271C162.382 441.231 151.346 493.791 144.283 527.624C143.679 528.245 143.058 528.901 142.41 529.557ZM131.549 509.352C131.549 528.508 115.953 544.095 96.7868 544.095C77.6203 544.095 62.0244 528.508 62.0244 509.352C62.0244 490.196 77.6203 474.609 96.7868 474.609C115.953 474.609 131.549 490.187 131.549 509.352ZM106.904 473.384C115.411 474.635 123.287 478.834 129.072 485.333C135.601 492.68 138.875 502.118 138.297 511.923C137.719 521.729 133.352 530.721 126.001 537.246C118.99 543.474 110.055 546.727 100.725 546.509C119.498 544.532 134.175 528.621 134.175 509.343C134.175 492.251 122.622 477.802 106.904 473.384ZM164.5 436.429C169.541 419.145 180.822 414.876 181.662 414.579C186.231 414.614 353.015 416.022 497.403 416.905C504.344 422.626 511.59 427.883 519.108 432.659L177.251 428.574L176.166 428.565L175.947 429.623C172.429 446.881 166.189 477.25 160.413 504.952C157.945 509.562 152.816 518.23 145.22 526.609C152.265 492.759 163.073 441.318 164.5 436.429ZM257.305 506.369V518.107L212.556 518.037C212.11 514.827 210.456 508.687 209.598 505.626L257.305 506.369ZM520.727 510.008L528.612 509.964V521.956H520.727V510.008ZM528.612 507.349L520.727 507.392V493.012H528.612V507.349ZM361.452 510.821L369.337 510.777V520.732H361.452V510.821ZM361.452 508.197V491.77H369.337V508.153L361.452 508.197ZM684.816 507.804C683.958 510.681 682.339 516.297 681.893 519.367L637.136 519.437V507.716L684.816 507.804ZM721.53 449.217C725.661 447.467 729.739 445.604 733.756 443.601L748.661 519.962C742.289 513.384 736.802 507.48 734.334 504.812L721.53 449.217ZM734.395 443.269C748.529 436.166 761.902 427.48 774.303 417.325L844.914 417.701C844.765 420.702 844.616 423.693 844.467 426.649L800.13 426.142C793.995 426.142 791.545 429.239 790.626 431.084C789.19 433.979 789.541 437.767 791.466 440.286C794.625 444.423 800.393 443.933 800.594 443.907L843.539 444.581C843.093 453.056 842.656 461.156 842.227 468.67C842.192 468.985 842.174 469.299 842.174 469.632C842.174 469.641 842.174 469.641 842.174 469.649C840.686 495.392 839.33 513.979 838.393 516.288C837.238 519.14 836.389 521.772 835.567 524.318C833.457 530.86 831.628 536.511 825.633 541.584C815.534 550.13 790.267 555.807 775.222 544.891C774.058 544.042 772.746 543.001 771.337 541.812C777.962 547.042 786.031 549.85 794.468 549.85C795.22 549.85 795.973 549.824 796.734 549.78L796.7 549.247C797.557 549.308 798.424 549.343 799.299 549.343C819.918 549.343 836.687 532.575 836.687 511.976C836.687 491.377 819.909 474.609 799.299 474.609C797.68 474.609 796.087 474.723 794.52 474.924C783.817 474.924 773.603 479.516 766.497 487.502C759.845 494.981 756.511 504.602 757.097 514.591C757.666 524.143 761.762 532.925 768.659 539.485C762.83 534.307 755.802 527.327 749.527 520.863L734.395 443.269ZM844.432 427.34C844.152 432.973 843.872 438.51 843.583 443.907L800.577 443.234C800.515 443.242 794.94 443.706 792.017 439.884C790.241 437.557 789.926 434.067 791.238 431.399C792.691 428.46 795.851 426.833 800.121 426.833L844.432 427.34ZM761.92 511.976C761.92 531.254 776.596 547.165 795.369 549.142C786.048 549.36 777.113 546.106 770.094 539.879C762.742 533.353 758.384 524.362 757.797 514.556C757.211 504.751 760.493 495.304 767.022 487.965C772.798 481.466 780.675 477.268 789.19 476.017C773.472 480.426 761.92 494.876 761.92 511.976ZM799.308 477.224C818.474 477.224 834.07 492.811 834.07 511.967C834.07 531.123 818.474 546.71 799.308 546.71C780.141 546.71 764.545 531.123 764.545 511.967C764.545 492.811 780.141 477.224 799.308 477.224ZM844.808 469.641C844.808 466.334 847.504 463.649 850.804 463.649C854.103 463.649 856.799 466.343 856.799 469.641C856.799 472.938 854.112 475.632 850.804 475.632C847.495 475.632 844.808 472.938 844.808 469.641ZM844.283 443.916C844.563 438.519 844.852 432.982 845.132 427.349L876.07 427.699L875.948 444.406L844.283 443.916ZM845.167 426.667C845.316 423.702 845.465 420.719 845.614 417.71L850.576 417.736H850.917L851.6 274.426C852.309 267.376 852.668 260.248 852.668 253.066C852.668 246.62 852.37 240.208 851.792 233.841L852.668 51.1084V50.9509L851.434 49.8663C853.298 50.5311 855.25 50.8809 857.21 50.8809C861.586 50.8809 865.962 49.219 869.296 45.8864C871.204 43.9796 872.596 41.7054 873.418 39.2038C876.263 36.2211 878.022 32.2062 878.022 27.7715C878.022 27.0893 877.969 26.4158 877.882 25.751L878.985 27.859L876.079 427.008L845.167 426.667ZM871.335 14.5024L872.123 14.7736L872.473 15.4296C872.106 15.106 871.72 14.7998 871.335 14.5024ZM861.42 11.1873C854.891 11.1873 849.246 14.9835 846.533 20.4766C846.043 20.8702 845.57 21.2813 845.124 21.7274C841.894 24.955 840.117 29.241 840.117 33.8069C840.117 35.4164 840.354 36.9908 840.783 38.504L807.473 56.5402L736.163 28.2264V19.0946H771.065L777.393 12.6393V11.1086L861.358 11.0999L861.673 11.2048C861.595 11.2048 861.507 11.1873 861.42 11.1873ZM776.71 12.3594L770.785 18.4036H736.172V11.1086L776.71 11.0999V12.3594ZM733.546 18.4123H163.975C164.036 15.5783 164.08 13.1904 164.097 11.1961L733.546 11.1174V18.4123ZM161.341 18.4123H125.335L119.813 11.2048L161.446 11.1961C161.428 13.4003 161.393 15.8582 161.341 18.4123ZM119.384 10.5226V2.62408H161.358C161.463 4.01484 161.489 6.88384 161.454 10.5138L119.384 10.5226ZM2.62556 497.237V382.687C3.29945 382.128 5.46116 381.069 7.70164 380.116V504.488L2.62556 497.237ZM10.3272 540.089V27.9115C10.3272 13.9689 21.6784 2.62408 35.6288 2.62408H118.693V10.5226L41.4051 10.5313C39.6634 9.91028 37.808 9.5604 35.8564 9.5604C26.7019 9.5604 19.2541 16.9953 19.2541 26.1446C19.2541 28.0864 19.6042 29.9408 20.2256 31.6727L20.2343 532.242L21.8096 539.476C21.8096 539.502 21.8096 539.52 21.8096 539.546C21.8096 542.004 22.361 544.339 23.3325 546.439L23.7701 548.459L24.8203 549.037C26.8507 551.923 29.7651 554.136 33.1783 555.264C35.8914 556.603 38.902 557.329 42.0439 557.329C42.114 557.329 42.184 557.329 42.254 557.329C43.6893 557.311 45.0983 557.145 46.4636 556.848C69.1047 556.673 136.529 556.183 138.682 556.41L138.988 556.445L139.05 556.139C139.128 555.78 141.57 543.972 144.922 527.904C152.002 520.285 157.043 512.317 159.914 507.226C153.919 535.934 148.519 561.256 147.311 565.358H35.6288C21.6784 565.376 10.3272 554.031 10.3272 540.089ZM888.314 540.089C888.314 554.031 876.963 565.376 863.012 565.376H747.715L748.249 565.253L734.64 506.15C737.493 509.238 742.832 514.95 748.897 521.186L755.303 554.005L755.356 554.276L851.425 555.964C852.869 556.279 854.331 556.454 855.801 556.454C857.963 556.454 860.107 556.095 862.163 555.413L864.876 555.159L873.042 549.736L873.751 547.025C875.195 544.567 876.035 541.715 876.035 538.672C876.035 538.12 876.009 537.587 875.956 537.053L876.63 445.114L877.182 445.123L877.19 444.432L876.63 444.423L876.753 427.708L877.182 427.717L877.19 427.026L876.762 427.017L879.676 27.7803V27.6928L877.4 23.3543C876.762 21.0451 875.641 18.9284 874.136 17.1353L872.596 14.205L868.579 12.8318C867.362 12.2457 866.084 11.7909 864.728 11.5197L861.463 10.4089L777.384 10.4176V2.94772H776.693V10.4264L736.154 10.4351V2.94772H733.529V10.4264L164.08 10.5138C164.106 6.41151 164.036 4.03234 163.922 2.62408H862.995C876.945 2.62408 888.296 13.9689 888.296 27.9115V540.089H888.314ZM895.499 506.833L890.94 514.18V389.536C893.303 390.525 895.657 391.662 896.374 392.256C896.322 399.14 895.552 499.879 895.499 506.833Z" fill="#E9EEF1"/>
<path d="M36.0839 35.1809C41.16 35.1809 45.2909 31.0523 45.2909 25.9791C45.2909 20.9059 41.16 16.7773 36.0839 16.7773C31.0078 16.7773 26.877 20.9059 26.877 25.9791C26.877 31.0523 30.9991 35.1809 36.0839 35.1809ZM36.0839 17.4596C40.7837 17.4596 44.6082 21.282 44.6082 25.9791C44.6082 30.6762 40.7837 34.4986 36.0839 34.4986C31.3842 34.4986 27.5596 30.6762 27.5596 25.9791C27.5596 21.282 31.3842 17.4596 36.0839 17.4596Z" fill="#E9EEF1"/>
<path d="M861.192 36.8157C866.268 36.8157 870.399 32.6871 870.399 27.6139C870.399 22.5407 866.268 18.4121 861.192 18.4121C856.116 18.4121 851.985 22.5407 851.985 27.6139C851.985 32.6871 856.116 36.8157 861.192 36.8157ZM861.192 19.0944C865.892 19.0944 869.717 22.9168 869.717 27.6139C869.717 32.311 865.892 36.1334 861.192 36.1334C856.493 36.1334 852.668 32.311 852.668 27.6139C852.668 22.9168 856.493 19.0944 861.192 19.0944Z" fill="#E9EEF1"/>
<path d="M859.67 529.295C854.594 529.295 850.463 533.423 850.463 538.497C850.463 543.57 854.594 547.698 859.67 547.698C864.746 547.698 868.877 543.57 868.877 538.497C868.877 533.423 864.746 529.295 859.67 529.295ZM859.67 547.016C854.97 547.016 851.146 543.194 851.146 538.497C851.146 533.8 854.97 529.977 859.67 529.977C864.37 529.977 868.194 533.8 868.194 538.497C868.194 543.203 864.37 547.016 859.67 547.016Z" fill="#E9EEF1"/>
<path d="M38.1659 530.178C33.0899 530.178 28.959 534.306 28.959 539.38C28.959 544.453 33.0899 548.581 38.1659 548.581C43.242 548.581 47.3729 544.453 47.3729 539.38C47.3817 534.306 43.2508 530.178 38.1659 530.178ZM38.1659 547.899C33.4662 547.899 29.6416 544.077 29.6416 539.38C29.6416 534.682 33.4662 530.86 38.1659 530.86C42.8657 530.86 46.6903 534.682 46.6903 539.38C46.6903 544.077 42.8657 547.899 38.1659 547.899Z" fill="#E9EEF1"/>
<path d="M46.5874 458.619C41.8351 458.619 37.9668 462.485 37.9668 467.235C37.9668 471.984 41.8351 475.851 46.5874 475.851C51.3396 475.851 55.208 471.984 55.208 467.235C55.208 462.485 51.3396 458.619 46.5874 458.619ZM46.5874 473.235C43.2792 473.235 40.5924 470.541 40.5924 467.244C40.5924 463.946 43.2792 461.252 46.5874 461.252C49.8956 461.252 52.5824 463.937 52.5824 467.244C52.5824 470.55 49.8956 473.235 46.5874 473.235Z" fill="#E9EEF1"/>
<path d="M68.2363 509.255C68.2363 525.034 81.0841 537.875 96.8724 537.875C112.661 537.875 125.509 525.034 125.509 509.255C125.509 493.475 112.661 480.635 96.8724 480.635C81.0841 480.635 68.2363 493.475 68.2363 509.255ZM96.8724 481.326C112.284 481.326 124.817 493.86 124.817 509.255C124.817 524.658 112.276 537.184 96.8724 537.184C81.4604 537.184 68.9277 524.649 68.9277 509.255C68.919 493.851 81.4604 481.326 96.8724 481.326Z" fill="#E9EEF1"/>
<path d="M80.9272 525.578C85.3556 530.004 91.1756 532.217 96.9956 532.217C102.816 532.217 108.636 530.004 113.064 525.578C121.93 516.726 121.93 502.311 113.064 493.459C104.207 484.607 89.7841 484.607 80.9272 493.459C72.0703 502.311 72.0616 516.726 80.9272 525.578ZM81.4085 493.94C90.0029 485.351 103.988 485.351 112.583 493.94C121.177 502.53 121.177 516.507 112.583 525.097C103.988 533.686 90.0029 533.686 81.4085 525.097C72.823 516.507 72.823 502.53 81.4085 493.94Z" fill="#E9EEF1"/>
<path d="M93.092 519.026C94.3961 519.568 95.7613 519.839 97.1354 519.839C98.5007 519.839 99.8747 519.568 101.179 519.035C103.787 517.959 105.817 515.929 106.894 513.323C107.97 510.716 107.979 507.847 106.894 505.241C105.817 502.634 103.787 500.605 101.179 499.529C98.5707 498.444 95.7001 498.453 93.092 499.529C90.484 500.605 88.4535 502.634 87.3771 505.241C86.3006 507.847 86.2918 510.716 87.3771 513.323C88.4623 515.912 90.4927 517.941 93.092 519.026ZM88.0159 505.494C89.0224 503.063 90.9216 501.165 93.3633 500.159C94.5798 499.651 95.8576 499.406 97.1354 499.406C98.4132 499.406 99.6997 499.66 100.916 500.167C103.349 501.173 105.248 503.071 106.255 505.512C108.338 510.541 105.94 516.323 100.907 518.405C98.4744 519.419 95.7876 519.411 93.3546 518.405C90.9216 517.399 89.0224 515.501 88.0159 513.06C87.0095 510.611 87.0095 507.935 88.0159 505.494Z" fill="#E9EEF1"/>
<path d="M799.22 540.5C815.008 540.5 827.856 527.659 827.856 511.88C827.856 496.1 815.008 483.26 799.22 483.26C783.432 483.26 770.584 496.1 770.584 511.88C770.584 527.659 783.432 540.5 799.22 540.5ZM799.22 483.951C814.632 483.951 827.165 496.485 827.165 511.88C827.165 527.283 814.623 539.809 799.22 539.809C783.808 539.809 771.275 527.274 771.275 511.88C771.275 496.476 783.808 483.951 799.22 483.951Z" fill="#E9EEF1"/>
<path d="M783.021 528.2C787.309 532.495 793.024 534.857 799.089 534.857C805.154 534.857 810.869 532.495 815.157 528.2C824.014 519.348 824.014 504.934 815.157 496.082C806.292 487.221 791.877 487.23 783.021 496.082C774.164 504.934 774.164 519.348 783.021 528.2ZM783.511 496.563C787.808 492.268 793.453 490.125 799.098 490.125C804.743 490.125 810.388 492.268 814.685 496.563C823.279 505.152 823.279 519.13 814.685 527.719C810.519 531.883 804.988 534.175 799.098 534.175C793.208 534.175 787.677 531.883 783.511 527.719C774.916 519.13 774.916 505.152 783.511 496.563Z" fill="#E9EEF1"/>
<path d="M794.914 521.651C796.218 522.193 797.583 522.456 798.957 522.456C800.331 522.456 801.697 522.184 803.001 521.642C805.609 520.566 807.639 518.537 808.716 515.93C810.939 510.551 808.374 504.367 803.001 502.136C797.618 499.915 791.431 502.478 789.208 507.848C788.131 510.455 788.131 513.324 789.208 515.93C790.275 518.546 792.306 520.575 794.914 521.651ZM789.829 508.128C791.404 504.332 795.089 502.031 798.966 502.031C800.226 502.031 801.495 502.276 802.729 502.784C807.762 504.865 810.16 510.647 808.077 515.677C807.07 518.108 805.171 520.006 802.738 521.021C800.296 522.027 797.618 522.036 795.185 521.021C792.752 520.015 790.853 518.117 789.838 515.685C788.823 513.245 788.823 510.56 789.829 508.128Z" fill="#E9EEF1"/>
<path d="M220.879 446.828C209.257 446.828 199.805 456.275 199.805 467.891C199.805 479.507 209.257 488.953 220.879 488.953C232.502 488.953 241.954 479.507 241.954 467.891C241.954 456.275 232.493 446.828 220.879 446.828ZM220.879 488.262C209.642 488.262 200.496 479.122 200.496 467.891C200.496 456.66 209.642 447.519 220.879 447.519C232.117 447.519 241.262 456.66 241.262 467.891C241.262 479.122 232.117 488.262 220.879 488.262Z" fill="#E9EEF1"/>
<path d="M537.407 447.598C529.277 447.598 522.669 454.21 522.669 462.327C522.669 470.453 529.285 477.066 537.407 477.066C545.529 477.066 552.145 470.453 552.145 462.327C552.145 454.202 545.538 447.598 537.407 447.598ZM537.407 476.375C529.653 476.375 523.352 470.069 523.352 462.327C523.352 454.586 529.653 448.28 537.407 448.28C545.161 448.28 551.463 454.578 551.463 462.327C551.463 470.077 545.152 476.375 537.407 476.375Z" fill="#E9EEF1"/>
<path d="M357.032 447.598C348.902 447.598 342.285 454.21 342.285 462.327C342.285 470.453 348.902 477.066 357.032 477.066C365.163 477.066 371.77 470.453 371.77 462.327C371.779 454.202 365.163 447.598 357.032 447.598ZM357.032 476.375C349.278 476.375 342.977 470.069 342.977 462.327C342.977 454.586 349.287 448.28 357.032 448.28C364.777 448.28 371.088 454.578 371.088 462.327C371.088 470.077 364.786 476.375 357.032 476.375Z" fill="#E9EEF1"/>
<path d="M460.206 531.832H426.477V548.381H460.206V531.832ZM459.524 547.69H427.168V532.523H459.524V547.69Z" fill="#E9EEF1"/>
<path d="M381.143 556.198L381.141 556.889L510.668 557.317L510.67 556.626L381.143 556.198Z" fill="#E9EEF1"/>
<path d="M708.105 521.203C701.375 521.203 695.905 526.67 695.905 533.396C695.905 540.123 701.375 545.59 708.105 545.59C714.836 545.59 720.305 540.123 720.305 533.396C720.314 526.67 714.836 521.203 708.105 521.203ZM708.105 544.907C701.752 544.907 696.588 539.747 696.588 533.396C696.588 527.046 701.752 521.885 708.105 521.885C714.459 521.885 719.623 527.046 719.623 533.396C719.623 539.747 714.459 544.907 708.105 544.907Z" fill="#E9EEF1"/>
<path d="M644.619 529.453C637.6 536.468 637.6 547.874 644.619 554.889C648.006 558.274 652.522 560.137 657.344 560.137C662.166 560.137 666.682 558.274 670.069 554.889C677.088 547.874 677.088 536.468 670.069 529.453C663.05 522.438 651.638 522.438 644.619 529.453ZM669.588 554.399C666.332 557.653 661.982 559.446 657.344 559.446C652.705 559.446 648.365 557.653 645.1 554.399C638.352 547.655 638.352 536.678 645.1 529.934C648.478 526.557 652.907 524.878 657.344 524.878C661.781 524.878 666.21 526.566 669.588 529.934C676.335 536.678 676.335 547.655 669.588 554.399Z" fill="#E9EEF1"/>
<path d="M220.513 526.959C217.126 530.344 215.262 534.857 215.262 539.677C215.262 544.496 217.126 549.01 220.513 552.395C223.9 555.78 228.416 557.643 233.238 557.643C238.06 557.643 242.576 555.78 245.963 552.395C252.982 545.38 252.982 533.974 245.963 526.959C238.953 519.944 227.532 519.944 220.513 526.959ZM245.482 551.914C242.226 555.167 237.877 556.961 233.238 556.961C228.6 556.961 224.25 555.167 220.994 551.914C217.738 548.66 215.944 544.312 215.944 539.677C215.944 535.041 217.738 530.702 220.994 527.44C224.372 524.063 228.801 522.384 233.238 522.384C237.666 522.384 242.104 524.072 245.482 527.44C252.23 534.192 252.23 545.161 245.482 551.914Z" fill="#E9EEF1"/>
<path d="M188.288 522.148C181.558 522.148 176.088 527.615 176.088 534.342C176.088 541.068 181.558 546.535 188.288 546.535C195.018 546.535 200.488 541.068 200.488 534.342C200.497 527.624 195.018 522.148 188.288 522.148ZM188.288 545.861C181.934 545.861 176.771 540.701 176.771 534.35C176.771 528 181.934 522.839 188.288 522.839C194.642 522.839 199.805 528 199.805 534.35C199.805 540.701 194.642 545.861 188.288 545.861Z" fill="#E9EEF1"/>
<path d="M257.024 309.074C270.895 309.074 283.594 303.974 293.361 295.56L293.501 295.7L294.175 294.86C304.118 285.964 310.848 273.578 312.423 259.636H312.476L312.449 259.4C312.668 257.405 312.782 255.385 312.782 253.338C312.782 242.142 309.447 231.716 303.741 222.969L303.785 222.942L303.592 222.741C293.615 207.618 276.47 197.611 257.024 197.611C226.278 197.611 201.266 222.61 201.266 253.338C201.266 284.075 226.278 309.074 257.024 309.074ZM215.181 285.308L224.624 278.459L230.514 284.757L222.113 292.629L215.181 285.308ZM253.295 305.671L254.599 292.358L263.36 291.344L265.924 304.7L253.295 305.671ZM293.291 291.737L284.898 283.165L290.876 276.78L300.328 282.894L293.291 291.737ZM308.966 242.194L294.237 244.819L294.342 258.219L309.797 259.426C308.896 267.281 306.279 274.619 302.323 281.057L290.465 273.386L281.275 283.209L291.524 293.679C285.065 299.207 277.267 303.213 268.681 305.137L265.478 288.457L252.193 289.988L250.617 306.038C240.518 304.823 231.285 300.764 223.74 294.685L234.216 284.862L224.948 274.961L213.273 283.428C209.02 277.27 206.044 270.176 204.696 262.531L219.662 260.922L220.353 247.521L204.495 245.335C205.563 238.276 208.031 231.672 211.602 225.811L223.574 234.497L232.772 224.674L222.375 213.128C229.149 207.285 237.411 203.113 246.504 201.276L248.718 216.802L262.126 216.05L263.71 200.655C273.381 201.871 282.247 205.694 289.589 211.405L279.971 223.074L289.108 232.835L301.571 224.429C305.036 229.783 307.583 235.774 308.966 242.194ZM309.535 256.784L296.95 255.805L296.88 247.023L308.318 244.985L309.535 256.784ZM204.801 259.89L205.011 248.064L217.614 249.804L217.168 258.56L204.801 259.89ZM220.747 215.254L229.21 224.648L223.242 231.025L213.702 224.097L220.747 215.254ZM261.015 201.215L259.746 213.574L250.985 214.064L249.191 201.477L261.015 201.215ZM299.742 222.514L289.493 229.433L283.463 222.986L291.226 213.574L299.742 222.514Z" fill="#E9EEF1"/>
<path d="M257.025 352.903C311.444 352.903 355.72 308.653 355.72 254.264C355.72 199.876 311.444 155.625 257.025 155.625C202.606 155.625 158.33 199.885 158.33 254.273C158.33 308.661 202.606 352.903 257.025 352.903ZM182.231 241.021C181.969 246.619 181.155 271.041 186.266 280.61L174.95 289.138L176.726 296.591L172.823 300.466C165.262 286.75 160.947 271.006 160.947 254.273C160.947 244.31 162.478 234.689 165.305 225.644L168.815 228.627L167.651 237.75L182.231 241.021ZM189.224 280.418C186.441 272.773 184.918 264.516 184.918 255.917C184.918 216.294 217.178 184.053 256.824 184.053C296.469 184.053 328.729 216.294 328.729 255.917C328.729 295.541 296.469 327.782 256.824 327.782C226.148 327.782 199.91 308.478 189.6 281.389L189.784 281.249L189.224 280.418ZM257.025 158.258C310 158.258 353.094 201.328 353.094 254.273C353.094 307.218 309.991 350.279 257.025 350.279C221.764 350.279 190.896 331.194 174.18 302.827L179.632 297.413L177.908 290.197L187.421 283.024C198.291 310.726 225.291 330.406 256.824 330.406C297.922 330.406 331.354 296.993 331.354 255.917C331.354 214.842 297.922 181.428 256.824 181.428C221.624 181.428 192.069 205.946 184.297 238.791L170.574 235.712L171.615 227.542L166.251 222.985L166.163 223.09C179.133 185.417 214.963 158.258 257.025 158.258Z" fill="#E9EEF1"/>
<path d="M332.458 289.909C331.88 289.638 331.241 289.611 330.567 289.778C329.885 289.935 329.158 290.294 328.441 290.818C327.04 291.886 325.535 293.539 324.257 295.664C323.583 296.705 323.058 297.764 322.664 298.769C322.236 299.749 321.947 300.703 321.807 301.586C321.544 303.353 321.763 304.77 322.787 305.566C323.767 306.336 325.325 306.274 326.953 305.338C327.767 304.875 328.633 304.219 329.491 303.397C330.314 302.548 331.11 301.516 331.854 300.353C333.28 297.982 334.068 295.629 334.103 293.731C334.199 291.833 333.622 290.451 332.458 289.909ZM332.519 294.169C332.458 294.93 332.248 295.769 331.906 296.679C331.565 297.58 331.145 298.568 330.541 299.53C329.928 300.484 329.272 301.332 328.624 302.041C327.977 302.749 327.259 303.292 326.638 303.703C325.369 304.525 324.318 304.761 323.758 304.341C323.216 303.939 323.102 302.828 323.426 301.428C323.575 300.72 323.872 299.95 324.222 299.111C324.564 298.262 325.019 297.379 325.596 296.486C326.165 295.594 326.708 294.763 327.312 294.081C327.907 293.39 328.511 292.813 329.044 292.34C330.147 291.413 331.162 291.011 331.784 291.317C332.396 291.606 332.668 292.664 332.519 294.169Z" fill="#E9EEF1"/>
<path d="M312.661 312.073C311.803 312.326 310.92 312.764 309.983 313.306C309.038 313.831 308.075 314.504 307.139 315.318C306.159 316.087 305.318 316.901 304.618 317.732C303.909 318.545 303.314 319.333 302.903 320.12C302.08 321.712 301.844 323.137 302.544 324.205C303.235 325.263 304.714 325.692 306.552 325.333C307.471 325.158 308.513 324.834 309.58 324.31C310.631 323.767 311.725 323.059 312.81 322.201C313.86 321.301 314.762 320.356 315.497 319.429C316.223 318.493 316.731 317.522 317.081 316.656C317.781 314.915 317.65 313.385 316.739 312.51C315.829 311.618 314.385 311.574 312.661 312.073ZM311.83 321.003C308.285 323.881 304.583 324.484 303.848 323.356C303.078 322.193 304.872 319.175 308.128 316.525C311.357 313.831 314.657 312.65 315.654 313.621C316.626 314.557 315.339 318.064 311.83 321.003Z" fill="#E9EEF1"/>
<path d="M290.852 327.093C289.96 327.058 288.971 327.154 287.92 327.39C286.861 327.591 285.724 327.898 284.568 328.352C282.232 329.192 280.324 330.347 279.002 331.519C277.698 332.717 277.033 334.064 277.339 335.28C277.654 336.531 278.888 337.344 280.761 337.633C282.634 337.965 285.094 337.642 287.702 336.697C288.988 336.19 290.161 335.612 291.15 334.965C292.13 334.283 292.935 333.566 293.548 332.857C294.773 331.44 295.132 329.927 294.572 328.816C293.985 327.661 292.638 327.18 290.852 327.093ZM292.008 332.227C291.482 332.761 290.817 333.347 289.995 333.854C289.172 334.353 288.218 334.834 287.159 335.254C286.109 335.674 285.05 335.884 284.096 336.05C283.142 336.198 282.275 336.26 281.514 336.163C280.009 336.015 279.02 335.542 278.845 334.878C278.67 334.213 279.256 333.294 280.385 332.394C280.954 331.965 281.637 331.466 282.424 331.029C283.212 330.574 284.14 330.207 285.12 329.813C286.1 329.428 287.063 329.148 287.955 328.974C288.848 328.799 289.662 328.65 290.388 328.641C291.832 328.597 292.891 328.921 293.189 329.525C293.487 330.154 293.049 331.134 292.008 332.227Z" fill="#E9EEF1"/>
<path d="M238.891 332.62C238.208 332.043 237.359 331.561 236.396 331.054C235.434 330.547 234.348 330.127 233.158 329.777C231.977 329.375 230.839 329.121 229.762 328.99C228.695 328.841 227.715 328.771 226.822 328.859C225.045 329.042 223.715 329.62 223.199 330.792C222.691 331.946 223.137 333.416 224.441 334.763C225.089 335.436 225.929 336.136 226.953 336.74C227.986 337.317 229.176 337.85 230.489 338.297C231.819 338.69 233.106 338.918 234.278 339.031C235.46 339.136 236.554 339.023 237.473 338.839C239.319 338.463 240.519 337.544 240.755 336.285C241 335.034 240.247 333.774 238.891 332.62ZM239.241 335.97C238.987 337.299 235.337 338.139 230.961 336.81C226.603 335.419 224.083 332.646 224.625 331.413C225.185 330.136 228.686 329.987 232.694 331.264C236.711 332.489 239.503 334.605 239.241 335.97Z" fill="#E9EEF1"/>
<path d="M212.548 320.269C211.795 319.49 210.928 318.703 209.905 317.994C207.918 316.499 205.914 315.528 204.207 315.064C202.483 314.644 201.004 314.802 200.146 315.729C199.271 316.674 199.262 318.169 200.041 319.884C200.794 321.624 202.395 323.514 204.61 325.176C205.739 325.972 206.859 326.645 207.944 327.118C209.047 327.564 210.088 327.852 211.025 327.975C212.889 328.22 214.35 327.704 214.972 326.619C215.619 325.499 215.296 324.1 214.385 322.569C213.939 321.799 213.318 321.021 212.548 320.269ZM213.633 325.84C213.274 326.435 212.206 326.619 210.727 326.33C209.992 326.182 209.143 325.937 208.259 325.534C207.393 325.123 206.465 324.581 205.537 323.925C204.61 323.278 203.857 322.508 203.201 321.799C202.553 321.082 202.037 320.382 201.695 319.7C200.995 318.362 200.855 317.277 201.31 316.761C201.765 316.245 202.868 316.236 204.233 316.691C204.907 316.927 205.686 317.233 206.491 317.653C207.305 318.064 208.119 318.633 208.986 319.245C209.852 319.858 210.605 320.514 211.235 321.17C211.874 321.817 212.434 322.42 212.845 323.024C213.668 324.205 213.983 325.263 213.633 325.84Z" fill="#E9EEF1"/>
<path d="M193.494 302.32C193.004 301.367 192.461 300.317 191.726 299.311C190.982 298.314 190.3 297.37 189.529 296.609C188.759 295.848 188.007 295.2 187.28 294.71C185.801 293.74 184.331 293.425 183.219 294.028C182.099 294.632 181.618 296.031 181.784 297.921C181.854 298.865 182.108 299.924 182.563 301.008C183.018 302.102 183.578 303.291 184.401 304.402C185.215 305.522 186.029 306.536 186.93 307.315C187.823 308.102 188.715 308.714 189.547 309.134C191.254 309.948 192.776 309.956 193.722 309.125C194.684 308.286 194.868 306.825 194.474 305.102C194.308 304.218 193.975 303.282 193.494 302.32ZM192.715 307.936C192.19 308.382 191.087 308.233 189.801 307.464C189.153 307.087 188.444 306.563 187.727 305.915C187.035 305.242 186.344 304.428 185.687 303.51C185.013 302.6 184.541 301.629 184.156 300.746C183.788 299.854 183.508 299.031 183.403 298.279C183.176 296.783 183.403 295.708 183.998 295.366C184.593 295.025 185.635 295.375 186.773 296.25C187.341 296.687 187.998 297.221 188.61 297.886C189.241 298.55 189.827 299.346 190.457 300.195C191.07 301.052 191.56 301.927 191.954 302.749C192.374 303.554 192.68 304.323 192.881 305.023C193.258 306.423 193.24 307.498 192.715 307.936Z" fill="#E9EEF1"/>
<path d="M176.308 231.471C177.542 231.812 178.854 231.164 180.088 229.905C180.727 229.275 181.331 228.488 181.874 227.561C182.399 226.625 182.994 225.61 183.432 224.447C183.86 223.283 184.281 222.19 184.499 221.132C184.613 220.607 184.701 220.091 184.753 219.601C184.823 219.12 184.858 218.656 184.867 218.21C184.876 216.443 184.342 215.044 183.222 214.432C182.101 213.819 180.666 214.187 179.17 215.35C178.793 215.639 178.417 215.98 178.049 216.365C177.699 216.758 177.349 217.204 177.008 217.694C176.343 218.665 175.651 219.785 175.17 221.088C174.68 222.383 174.26 223.616 174.111 224.797C173.945 225.978 173.918 227.053 174.023 227.989C174.268 229.861 175.1 231.138 176.308 231.471ZM175.704 224.692C175.888 223.747 176.194 222.724 176.605 221.665C176.999 220.598 177.55 219.68 178.093 218.875C178.644 218.079 179.187 217.397 179.747 216.889C180.885 215.884 181.909 215.49 182.513 215.805C183.117 216.12 183.397 217.178 183.283 218.613C183.239 219.33 183.134 220.161 182.915 221.044C182.697 221.928 182.364 222.864 181.988 223.852C181.603 224.84 181.139 225.724 180.666 226.502C180.228 227.29 179.747 227.972 179.266 228.514C178.294 229.599 177.375 230.167 176.728 229.975C176.063 229.774 175.59 228.777 175.529 227.272C175.502 226.529 175.546 225.654 175.704 224.692Z" fill="#E9EEF1"/>
<path d="M188.069 206.593C189.12 207.319 190.599 207.153 192.157 206.339C193.776 205.57 195.439 204.109 197.101 202.263C197.513 201.8 197.872 201.31 198.222 200.846C198.58 200.392 198.904 199.928 199.184 199.473C199.762 198.563 200.164 197.636 200.471 196.823C201.057 195.161 201.013 193.665 200.156 192.729C199.298 191.793 197.81 191.662 196.016 192.274C195.106 192.563 194.178 193.105 193.216 193.796C192.734 194.146 192.244 194.531 191.763 194.96C191.29 195.397 190.835 195.887 190.38 196.412C188.533 198.476 187.457 200.741 187.045 202.552C186.687 204.415 187.019 205.867 188.069 206.593ZM191.544 197.418C192.997 195.668 194.721 194.557 196.06 193.919C197.451 193.324 198.563 193.298 199.027 193.788C199.508 194.286 199.403 195.362 198.852 196.692C198.344 198.065 197.276 199.604 195.929 201.231C193.154 204.389 190.1 206.103 188.971 205.316C187.842 204.546 188.533 200.855 191.544 197.418Z" fill="#E9EEF1"/>
<path d="M211.226 187.955C212.084 187.806 213.073 187.587 214.079 187.202C214.587 187.01 215.094 186.782 215.611 186.52C216.136 186.275 216.678 186.004 217.221 185.689C218.297 185.068 219.251 184.377 220.1 183.721C220.94 183.047 221.632 182.321 222.174 181.622C223.277 180.248 223.715 178.831 223.207 177.659C222.7 176.496 221.334 175.884 219.426 175.875C218.481 175.884 217.431 176.085 216.284 176.417C215.138 176.732 213.948 177.275 212.749 177.974C212.154 178.324 211.576 178.674 211.06 179.05C210.543 179.444 210.071 179.846 209.642 180.257C208.784 181.079 208.075 181.875 207.611 182.715C206.666 184.36 206.509 185.847 207.27 186.861C208.031 187.876 209.484 188.217 211.226 187.955ZM209.23 183.074C210.114 181.875 211.532 180.406 213.528 179.313C217.483 177.012 221.238 177.038 221.781 178.298C222.332 179.549 220.065 182.225 216.433 184.342C214.578 185.357 212.862 186.1 211.418 186.345C210.001 186.634 208.933 186.529 208.53 185.96C208.136 185.409 208.382 184.316 209.23 183.074Z" fill="#E9EEF1"/>
<path d="M289.571 181.806C290.009 182.121 290.481 182.427 290.98 182.716C291.479 183.013 291.996 183.328 292.556 183.608C294.787 184.701 296.879 185.427 298.673 185.532C300.424 185.707 301.859 185.305 302.55 184.238C303.25 183.179 303.014 181.701 301.99 180.1C300.922 178.569 299.085 176.873 296.59 175.657C295.969 175.342 295.365 175.053 294.761 174.835C294.148 174.625 293.553 174.441 292.976 174.301C291.82 174.03 290.762 173.872 289.808 173.942C287.908 174.047 286.587 174.73 286.141 175.919C285.694 177.109 286.219 178.517 287.383 179.829C287.97 180.468 288.696 181.176 289.571 181.806ZM287.585 176.488C287.83 175.858 288.88 175.464 290.385 175.491C291.129 175.526 291.996 175.657 292.932 175.902C293.405 176.024 293.895 176.164 294.385 176.357C294.875 176.558 295.374 176.785 295.881 177.048C297.921 178.045 299.443 179.4 300.371 180.573C301.316 181.727 301.588 182.847 301.229 183.407C300.476 184.552 297.002 184.115 293.247 182.226C292.774 181.981 292.328 181.727 291.917 181.465C291.488 181.211 291.085 180.966 290.718 180.704C289.974 180.188 289.344 179.645 288.845 179.112C287.83 178.088 287.331 177.135 287.585 176.488Z" fill="#E9EEF1"/>
<path d="M310.498 195.048C310.734 195.485 311.006 195.931 311.312 196.377C311.916 197.278 312.712 198.127 313.552 199.054C315.303 200.821 317.053 202.168 318.707 202.859C320.318 203.576 321.788 203.672 322.794 202.894C323.792 202.115 324.072 200.628 323.6 198.791C323.092 196.989 321.884 194.811 319.941 192.835C319.005 191.811 317.946 191.033 316.966 190.386C316.467 190.062 315.977 189.782 315.504 189.555C315.014 189.336 314.541 189.161 314.086 189.03C312.266 188.505 310.796 188.706 309.99 189.695C309.185 190.674 309.211 192.179 309.885 193.814C310.043 194.208 310.253 194.628 310.498 195.048ZM311.154 190.7C311.601 190.176 312.695 190.167 314.13 190.674C314.839 190.928 315.6 191.356 316.405 191.89C317.211 192.432 318.06 193.08 318.83 193.919C319.609 194.742 320.283 195.572 320.808 196.386C321.307 197.217 321.683 198.013 321.937 198.721C322.444 200.13 322.374 201.24 321.84 201.678C321.307 202.106 320.248 201.914 318.944 201.275C318.296 200.952 317.596 200.506 316.887 199.937C316.16 199.386 315.399 198.748 314.664 197.978C313.946 197.199 313.281 196.465 312.747 195.721C312.213 194.986 311.802 194.252 311.487 193.604C310.857 192.31 310.708 191.225 311.154 190.7Z" fill="#E9EEF1"/>
<path d="M328.421 220.449C328.929 221.586 329.533 222.592 330.154 223.475C330.74 224.376 331.388 225.128 332.053 225.723C333.392 226.904 334.696 227.499 335.921 227.079C337.103 226.676 337.899 225.338 338.004 223.466C338.066 222.53 337.978 221.454 337.751 220.282C337.497 219.128 337.05 217.894 336.482 216.635C335.274 214.142 333.725 212.2 332.158 211.133C330.618 210.04 329.147 209.769 328.062 210.442C326.995 211.107 326.548 212.524 326.636 214.299C326.767 216.058 327.336 218.209 328.421 220.449ZM328.859 211.78C329.445 211.43 330.487 211.772 331.668 212.716C332.272 213.18 332.858 213.827 333.436 214.597C334.005 215.375 334.617 216.259 335.081 217.3C335.554 218.332 335.904 219.346 336.14 220.274C336.377 221.21 336.438 222.093 336.447 222.845C336.438 224.35 336.07 225.364 335.414 225.601C334.784 225.828 333.795 225.321 332.788 224.288C332.281 223.772 331.791 223.108 331.274 222.355C330.749 221.603 330.259 220.746 329.821 219.775C329.393 218.804 328.99 217.903 328.736 217.029C328.474 216.154 328.325 215.332 328.22 214.623C328.054 213.206 328.272 212.13 328.859 211.78Z" fill="#E9EEF1"/>
<path d="M635.822 305.618C649.693 305.618 662.392 300.518 672.159 292.104L672.299 292.243L672.973 291.404C682.907 282.508 689.646 270.122 691.221 256.189H691.273L691.247 255.944C691.466 253.949 691.58 251.938 691.58 249.891C691.58 238.695 688.245 228.268 682.539 219.521L682.583 219.495L682.39 219.294C672.404 204.171 655.268 194.164 635.822 194.164C605.076 194.164 580.063 219.163 580.063 249.891C580.063 280.619 605.076 305.618 635.822 305.618ZM593.2 280.304L603.317 274.898L609.312 281.31L600.954 289.147L593.2 280.304ZM632.093 302.224L633.397 288.911L642.158 287.896L644.722 301.253L632.093 302.224ZM672.098 288.29L663.705 279.718L669.683 273.333L679.135 279.447L672.098 288.29ZM687.764 238.738L673.035 241.363L673.14 254.763L688.595 255.97C687.694 263.825 685.077 271.163 681.121 277.601L669.263 269.93L660.073 279.753L670.321 290.223C663.863 295.751 656.065 299.757 647.488 301.681L644.285 285.001L630.999 286.532L629.424 302.582C619.324 301.367 610.091 297.308 602.547 291.229L613.023 281.406L603.86 271.609L591.073 278.441C587.363 272.65 584.737 266.099 583.512 259.066L598.477 257.457L599.169 244.057L583.31 241.87C584.378 234.811 586.846 228.207 590.417 222.347L602.389 231.032L611.588 221.21L601.19 209.664C607.964 203.821 616.226 199.648 625.319 197.812L627.534 213.337L640.933 212.585L642.517 197.191C652.188 198.406 661.053 202.229 668.396 207.94L658.778 219.609L667.915 229.371L680.377 220.965C683.843 226.327 686.39 232.318 687.764 238.738ZM688.342 253.328L675.756 252.349L675.686 243.567L687.125 241.529L688.342 253.328ZM583.599 256.442L583.809 244.616L596.412 246.357L595.966 255.113L583.599 256.442ZM599.545 211.807L608.008 221.201L602.039 227.577L592.5 220.659L599.545 211.807ZM639.812 197.759L638.543 210.118L629.783 210.608L627.989 198.021L639.812 197.759ZM678.539 219.058L668.291 225.968L662.261 219.521L670.024 210.11L678.539 219.058Z" fill="#E9EEF1"/>
<path d="M635.824 349.458C690.243 349.458 734.518 305.207 734.518 250.819C734.518 196.43 690.243 152.18 635.824 152.18C581.405 152.18 537.129 196.43 537.129 250.819C537.129 305.207 581.405 349.458 635.824 349.458ZM561.853 236.64C561.722 238.381 561.485 241.915 561.372 246.253C561.205 248.309 561.092 250.373 561.092 252.472C561.092 255.289 561.267 258.07 561.573 260.808C561.993 267.219 562.947 273.351 564.916 277.121L554.449 284.74L556.208 292.209L551.526 296.828C544.025 283.156 539.754 267.473 539.754 250.819C539.754 241.084 541.216 231.681 543.929 222.811L548.576 226.879L548.305 233.351L561.853 236.64ZM568.207 277.471C566.194 272.056 564.811 266.336 564.163 260.397C563.866 255.507 563.892 250.417 564.015 246.131C567.235 209.463 598.112 180.598 635.631 180.598C675.277 180.598 707.536 212.84 707.536 252.463C707.536 292.087 675.277 324.328 635.631 324.328C604.921 324.328 578.657 304.98 568.373 277.847L568.443 277.794L568.207 277.471ZM635.824 154.813C688.799 154.813 731.893 197.882 731.893 250.828C731.893 303.773 688.799 346.843 635.824 346.843C600.475 346.843 569.528 327.661 552.847 299.163L552.882 299.198L559.105 293.067L557.407 285.85L566.176 279.465C577.02 307.237 604.054 326.97 635.631 326.97C676.73 326.97 710.162 293.556 710.162 252.481C710.162 211.405 676.73 177.992 635.631 177.992C600.807 177.992 571.489 201.994 563.35 234.313L551.027 231.322L551.263 225.75L545.102 220.353L544.515 221.027C557.083 182.619 593.263 154.813 635.824 154.813Z" fill="#E9EEF1"/>
<path d="M711.265 286.454C710.688 286.183 710.049 286.156 709.384 286.323C708.692 286.48 707.975 286.839 707.257 287.363C705.857 288.431 704.351 290.084 703.074 292.209C702.4 293.25 701.875 294.308 701.481 295.314C701.052 296.294 700.763 297.247 700.623 298.131C700.361 299.898 700.579 301.315 701.603 302.111C702.584 302.88 704.141 302.819 705.769 301.883C706.583 301.42 707.45 300.764 708.307 299.941C709.13 299.093 709.926 298.061 710.67 296.898C712.097 294.527 712.885 292.174 712.92 290.276C713.007 288.387 712.421 287.005 711.265 286.454ZM711.318 290.713C711.257 291.474 711.047 292.314 710.705 293.224C710.364 294.125 709.944 295.113 709.34 296.075C708.727 297.029 708.071 297.877 707.423 298.586C706.767 299.294 706.058 299.837 705.437 300.248C704.168 301.07 703.117 301.306 702.557 300.886C702.015 300.484 701.901 299.373 702.225 297.973C702.373 297.265 702.671 296.495 703.021 295.656C703.362 294.807 703.818 293.924 704.395 293.031C704.964 292.139 705.507 291.308 706.111 290.626C706.706 289.935 707.31 289.358 707.843 288.885C708.946 287.958 709.961 287.556 710.583 287.862C711.204 288.168 711.467 289.209 711.318 290.713Z" fill="#E9EEF1"/>
<path d="M691.468 308.628C690.61 308.881 689.726 309.319 688.79 309.861C687.845 310.386 686.882 311.059 685.945 311.873C684.965 312.643 684.125 313.456 683.425 314.287C682.716 315.1 682.121 315.888 681.709 316.675C680.887 318.267 680.65 319.684 681.351 320.76C682.042 321.818 683.521 322.247 685.359 321.888C686.278 321.713 687.319 321.39 688.387 320.865C689.437 320.322 690.531 319.614 691.617 318.757C692.667 317.856 693.568 316.911 694.303 315.984C695.03 315.048 695.537 314.077 695.887 313.211C696.588 311.471 696.456 309.94 695.546 309.065C694.627 308.164 693.183 308.12 691.468 308.628ZM690.628 317.55C687.083 320.427 683.381 321.031 682.646 319.903C681.884 318.739 683.67 315.722 686.934 313.071C690.164 310.377 693.463 309.196 694.461 310.167C695.432 311.103 694.137 314.619 690.628 317.55Z" fill="#E9EEF1"/>
<path d="M669.649 323.646C668.756 323.611 667.768 323.707 666.717 323.943C665.658 324.144 664.521 324.45 663.365 324.905C661.029 325.745 659.121 326.9 657.799 328.072C656.495 329.27 655.83 330.617 656.136 331.833C656.451 333.084 657.685 333.897 659.558 334.186C661.431 334.518 663.89 334.194 666.498 333.25C667.785 332.742 668.958 332.165 669.947 331.518C670.927 330.836 671.732 330.118 672.345 329.41C673.57 327.993 673.929 326.48 673.369 325.369C672.782 324.214 671.435 323.724 669.649 323.646ZM670.804 328.771C670.279 329.305 669.614 329.891 668.791 330.398C667.969 330.897 667.015 331.378 665.956 331.798C664.906 332.218 663.847 332.428 662.893 332.594C661.939 332.742 661.072 332.804 660.311 332.707C658.806 332.559 657.817 332.086 657.642 331.422C657.467 330.757 658.053 329.838 659.182 328.938C659.751 328.509 660.433 328.01 661.221 327.573C662.009 327.118 662.936 326.751 663.917 326.357C664.897 325.972 665.86 325.692 666.752 325.517C667.645 325.343 668.459 325.194 669.185 325.185C670.629 325.141 671.688 325.465 671.986 326.069C672.292 326.698 671.855 327.687 670.804 328.771Z" fill="#E9EEF1"/>
<path d="M617.688 329.165C617.005 328.587 616.156 328.106 615.193 327.599C614.231 327.092 613.145 326.672 611.955 326.322C610.782 325.92 609.636 325.666 608.559 325.535C607.492 325.386 606.511 325.316 605.619 325.404C603.842 325.587 602.512 326.165 601.995 327.337C601.488 328.491 601.934 329.961 603.238 331.308C603.886 331.981 604.726 332.681 605.75 333.285C606.783 333.862 607.973 334.395 609.286 334.842C610.616 335.235 611.903 335.463 613.075 335.576C614.257 335.681 615.351 335.568 616.27 335.384C618.116 335.008 619.315 334.089 619.552 332.83C619.806 331.579 619.053 330.319 617.688 329.165ZM618.038 332.515C617.784 333.844 614.134 334.684 609.758 333.355C605.4 331.964 602.879 329.191 603.431 327.958C603.991 326.681 607.492 326.532 611.5 327.809C615.508 329.034 618.3 331.15 618.038 332.515Z" fill="#E9EEF1"/>
<path d="M591.354 316.823C590.602 316.045 589.735 315.258 588.711 314.549C586.724 313.053 584.72 312.083 583.014 311.619C581.29 311.199 579.811 311.357 578.953 312.284C578.078 313.228 578.069 314.724 578.848 316.438C579.6 318.179 581.202 320.068 583.416 321.73C584.545 322.526 585.665 323.2 586.751 323.672C587.853 324.118 588.895 324.407 589.831 324.529C591.696 324.774 593.157 324.258 593.778 323.174C594.426 322.054 594.102 320.655 593.192 319.124C592.737 318.345 592.116 317.576 591.354 316.823ZM592.431 322.395C592.072 322.99 591.004 323.174 589.525 322.885C588.79 322.736 587.941 322.491 587.057 322.089C586.191 321.678 585.263 321.136 584.335 320.48C583.407 319.824 582.655 319.063 581.998 318.354C581.351 317.637 580.834 316.937 580.493 316.255C579.793 314.917 579.653 313.832 580.108 313.316C580.563 312.8 581.666 312.791 583.031 313.246C583.705 313.482 584.484 313.788 585.289 314.208C586.103 314.619 586.917 315.188 587.783 315.8C588.65 316.412 589.403 317.068 590.033 317.724C590.672 318.372 591.232 318.975 591.643 319.579C592.474 320.751 592.781 321.818 592.431 322.395Z" fill="#E9EEF1"/>
<path d="M572.294 298.865C571.804 297.912 571.261 296.862 570.526 295.856C569.782 294.859 569.099 293.914 568.329 293.153C567.559 292.392 566.806 291.745 566.08 291.255C564.601 290.284 563.131 289.97 562.019 290.573C560.899 291.177 560.418 292.576 560.584 294.465C560.654 295.41 560.908 296.469 561.363 297.553C561.818 298.647 562.378 299.836 563.201 300.947C564.015 302.067 564.828 303.081 565.73 303.86C566.623 304.647 567.515 305.259 568.347 305.679C570.053 306.493 571.576 306.501 572.521 305.67C573.484 304.831 573.668 303.37 573.274 301.647C573.108 300.772 572.775 299.827 572.294 298.865ZM571.515 304.489C570.99 304.936 569.887 304.787 568.6 304.017C567.953 303.641 567.244 303.116 566.526 302.469C565.835 301.795 565.143 300.982 564.487 300.064C563.813 299.154 563.341 298.183 562.956 297.3C562.588 296.407 562.308 295.585 562.203 294.833C561.975 293.328 562.203 292.261 562.798 291.92C563.393 291.579 564.435 291.929 565.572 292.804C566.141 293.241 566.798 293.774 567.41 294.439C568.04 295.104 568.627 295.9 569.257 296.748C569.869 297.606 570.36 298.48 570.753 299.303C571.174 300.107 571.48 300.877 571.681 301.577C572.057 302.968 572.04 304.052 571.515 304.489Z" fill="#E9EEF1"/>
<path d="M555.112 228.023C556.346 228.364 557.659 227.717 558.893 226.458C559.532 225.828 560.136 225.041 560.679 224.113C561.204 223.178 561.799 222.163 562.236 221C562.665 219.836 563.085 218.743 563.304 217.684C563.418 217.16 563.505 216.644 563.558 216.154C563.628 215.673 563.663 215.209 563.672 214.763C563.68 212.996 563.147 211.597 562.026 210.984C560.915 210.372 559.471 210.739 557.974 211.903C557.598 212.191 557.222 212.532 556.854 212.917C556.504 213.311 556.154 213.757 555.812 214.247C555.147 215.218 554.456 216.337 553.975 217.641C553.484 218.935 553.064 220.169 552.916 221.349C552.749 222.53 552.723 223.606 552.828 224.533C553.064 226.405 553.896 227.682 555.112 228.023ZM554.5 221.244C554.684 220.3 554.99 219.276 555.401 218.218C555.795 217.151 556.346 216.232 556.889 215.428C557.44 214.632 557.983 213.949 558.543 213.442C559.681 212.436 560.705 212.043 561.309 212.358C561.921 212.672 562.193 213.731 562.079 215.165C562.035 215.883 561.93 216.722 561.711 217.597C561.492 218.48 561.16 219.416 560.784 220.405C560.398 221.393 559.935 222.277 559.462 223.055C559.024 223.842 558.543 224.525 558.062 225.067C557.09 226.151 556.171 226.72 555.524 226.528C554.859 226.326 554.386 225.329 554.325 223.825C554.298 223.081 554.351 222.198 554.5 221.244Z" fill="#E9EEF1"/>
<path d="M566.868 203.138C567.909 203.864 569.397 203.698 570.955 202.884C572.574 202.115 574.237 200.654 575.9 198.808C576.311 198.345 576.67 197.855 577.02 197.391C577.379 196.936 577.703 196.473 577.983 196.018C578.56 195.108 578.963 194.181 579.269 193.368C579.856 191.706 579.812 190.21 578.954 189.274C578.097 188.338 576.609 188.207 574.815 188.819C573.904 189.108 572.977 189.65 572.014 190.341C571.533 190.691 571.043 191.076 570.561 191.505C570.089 191.942 569.634 192.432 569.178 192.957C567.332 195.021 566.255 197.286 565.844 199.097C565.485 200.96 565.827 202.421 566.868 203.138ZM570.351 193.971C571.804 192.222 573.528 191.111 574.867 190.472C576.259 189.878 577.37 189.851 577.834 190.341C578.315 190.84 578.21 191.916 577.659 193.245C577.151 194.619 576.084 196.158 574.736 197.785C571.962 200.943 568.907 202.657 567.778 201.87C566.64 201.091 567.332 197.409 570.351 193.971Z" fill="#E9EEF1"/>
<path d="M590.025 184.507C590.882 184.359 591.871 184.14 592.878 183.755C593.385 183.563 593.893 183.335 594.409 183.073C594.934 182.828 595.477 182.557 596.02 182.242C597.096 181.621 598.05 180.93 598.899 180.274C599.739 179.6 600.431 178.874 600.973 178.174C602.076 176.801 602.514 175.384 602.006 174.212C601.498 173.049 600.133 172.436 598.225 172.428C597.28 172.436 596.23 172.638 595.083 172.97C593.937 173.285 592.747 173.827 591.547 174.527C590.952 174.877 590.375 175.227 589.858 175.603C589.342 175.996 588.869 176.399 588.441 176.81C587.583 177.632 586.874 178.428 586.41 179.268C585.465 180.912 585.307 182.399 586.069 183.414C586.822 184.429 588.283 184.761 590.025 184.507ZM588.029 179.626C588.913 178.428 590.331 176.959 592.326 175.865C596.282 173.565 600.037 173.591 600.579 174.851C601.131 176.101 598.864 178.778 595.232 180.895C593.377 181.909 591.661 182.653 590.217 182.898C588.799 183.186 587.732 183.082 587.329 182.513C586.944 181.953 587.18 180.869 588.029 179.626Z" fill="#E9EEF1"/>
<path d="M668.372 178.351C668.81 178.666 669.282 178.972 669.781 179.26C670.28 179.558 670.796 179.873 671.356 180.153C673.588 181.246 675.68 181.972 677.474 182.077C679.224 182.252 680.66 181.85 681.351 180.782C682.051 179.724 681.815 178.246 680.791 176.645C679.723 175.114 677.885 173.418 675.391 172.202C674.77 171.887 674.166 171.598 673.562 171.379C672.949 171.17 672.354 170.986 671.776 170.846C670.621 170.575 669.562 170.417 668.608 170.487C666.709 170.592 665.388 171.275 664.941 172.464C664.495 173.654 665.02 175.062 666.184 176.374C666.779 177.013 667.497 177.721 668.372 178.351ZM666.385 173.041C666.63 172.412 667.681 172.018 669.186 172.044C669.93 172.079 670.796 172.21 671.733 172.455C672.205 172.578 672.695 172.718 673.186 172.91C673.676 173.111 674.175 173.339 674.682 173.601C676.721 174.598 678.244 175.954 679.172 177.126C680.117 178.281 680.388 179.4 680.029 179.96C679.277 181.106 675.802 180.669 672.048 178.779C671.575 178.534 671.129 178.281 670.718 178.018C670.289 177.765 669.886 177.52 669.519 177.257C668.775 176.741 668.144 176.199 667.637 175.665C666.63 174.633 666.132 173.68 666.385 173.041Z" fill="#E9EEF1"/>
<path d="M689.307 191.602C689.543 192.04 689.814 192.486 690.12 192.932C690.724 193.833 691.521 194.681 692.361 195.608C694.111 197.375 695.862 198.722 697.516 199.413C699.126 200.131 700.596 200.227 701.603 199.448C702.601 198.67 702.881 197.183 702.408 195.346C701.901 193.544 700.693 191.366 698.75 189.389C697.813 188.366 696.754 187.587 695.774 186.94C695.275 186.617 694.794 186.337 694.313 186.109C693.823 185.891 693.35 185.716 692.895 185.584C691.074 185.06 689.604 185.261 688.799 186.249C687.994 187.229 688.02 188.733 688.694 190.369C688.843 190.763 689.053 191.182 689.307 191.602ZM689.963 187.255C690.409 186.73 691.503 186.722 692.939 187.229C693.648 187.483 694.409 187.911 695.214 188.445C696.019 188.987 696.868 189.634 697.638 190.474C698.417 191.296 699.091 192.127 699.616 192.941C700.115 193.772 700.491 194.568 700.745 195.276C701.253 196.684 701.183 197.795 700.649 198.233C700.115 198.661 699.056 198.469 697.752 197.83C697.104 197.507 696.404 197.06 695.695 196.492C694.969 195.941 694.208 195.302 693.472 194.533C692.755 193.754 692.09 193.019 691.556 192.276C691.022 191.541 690.611 190.806 690.296 190.159C689.657 188.856 689.517 187.771 689.963 187.255Z" fill="#E9EEF1"/>
<path d="M707.23 216.993C707.737 218.131 708.341 219.136 708.963 220.02C709.549 220.921 710.197 221.673 710.862 222.268C712.201 223.449 713.505 224.044 714.73 223.624C715.912 223.221 716.708 221.883 716.813 220.011C716.874 219.075 716.787 217.999 716.559 216.827C716.305 215.673 715.859 214.439 715.29 213.18C714.082 210.687 712.533 208.745 710.967 207.678C709.426 206.585 707.956 206.313 706.871 206.987C705.803 207.652 705.357 209.069 705.444 210.844C705.567 212.603 706.144 214.763 707.23 216.993ZM707.667 208.325C708.254 207.975 709.295 208.317 710.477 209.261C711.081 209.725 711.667 210.372 712.245 211.142C712.813 211.92 713.426 212.804 713.89 213.845C714.362 214.877 714.713 215.883 714.949 216.819C715.185 217.754 715.255 218.638 715.255 219.39C715.246 220.895 714.879 221.909 714.222 222.145C713.592 222.373 712.603 221.866 711.597 220.833C711.089 220.317 710.599 219.653 710.083 218.9C709.558 218.148 709.068 217.291 708.63 216.32C708.201 215.349 707.799 214.448 707.545 213.573C707.282 212.699 707.133 211.877 707.028 211.168C706.853 209.751 707.072 208.675 707.667 208.325Z" fill="#E9EEF1"/>
<path d="M639.095 367.512C704.348 367.512 757.437 315.214 757.437 250.924C757.437 186.643 704.348 134.336 639.095 134.336C573.841 134.336 520.752 186.634 520.752 250.924C520.752 315.214 573.841 367.512 639.095 367.512ZM639.095 135.036C703.972 135.036 756.755 187.028 756.755 250.933C756.755 314.838 703.972 366.83 639.095 366.83C574.217 366.83 521.435 314.838 521.435 250.933C521.435 187.028 574.217 135.036 639.095 135.036Z" fill="#E9EEF1"/>
<path d="M637.486 361.939C699.589 361.939 750.114 312.16 750.114 250.984C750.114 189.808 699.589 140.029 637.486 140.029C575.383 140.029 524.85 189.808 524.85 250.984C524.85 312.16 575.374 361.939 637.486 361.939ZM637.486 140.72C699.213 140.72 749.431 190.184 749.431 250.993C749.431 311.793 699.213 361.266 637.486 361.266C575.759 361.266 525.541 311.802 525.541 250.993C525.541 190.184 575.759 140.72 637.486 140.72Z" fill="#E9EEF1"/>
<path d="M257.873 371.596C322.663 371.596 375.366 319.674 375.366 255.848C375.366 192.021 322.654 140.1 257.873 140.1C193.083 140.1 140.379 192.021 140.379 255.848C140.379 319.666 193.091 371.596 257.873 371.596ZM257.873 140.782C322.278 140.782 374.684 192.398 374.684 255.848C374.684 319.298 322.286 370.914 257.873 370.914C193.459 370.914 141.07 319.289 141.07 255.848C141.07 192.406 193.468 140.782 257.873 140.782Z" fill="#E9EEF1"/>
<path d="M256.28 366.06C317.936 366.06 368.102 316.64 368.102 255.901C368.102 195.162 317.936 145.742 256.28 145.742C194.623 145.742 144.457 195.162 144.457 255.901C144.457 316.64 194.614 366.06 256.28 366.06ZM256.28 146.424C317.56 146.424 367.419 195.539 367.419 255.901C367.419 316.264 317.56 365.378 256.28 365.378C194.999 365.378 145.14 316.264 145.14 255.901C145.14 195.539 194.99 146.424 256.28 146.424Z" fill="#E9EEF1"/>
<path d="M257.348 374.307C323.749 374.307 377.765 321.09 377.765 255.681C377.765 190.271 323.749 137.055 257.348 137.055C190.948 137.055 136.932 190.271 136.932 255.681C136.932 321.09 190.948 374.307 257.348 374.307ZM257.348 137.746C323.364 137.746 377.074 190.656 377.074 255.681C377.074 320.714 323.364 373.616 257.348 373.616C191.333 373.616 137.623 320.705 137.623 255.681C137.623 190.647 191.333 137.746 257.348 137.746Z" fill="#E9EEF1"/>
<path d="M558.928 77.1914C548.907 77.1914 542.649 84.4689 542.649 94.4316C542.649 104.394 548.907 111.724 558.928 111.724C568.896 111.724 575.206 104.403 575.206 94.4316C575.206 84.4601 568.896 77.1914 558.928 77.1914ZM558.928 106.992C551.323 106.992 548.119 101.149 548.119 94.4316C548.119 87.7577 551.323 81.9148 558.928 81.9148C566.533 81.9148 569.684 87.7577 569.684 94.4316C569.684 101.149 566.533 106.992 558.928 106.992Z" fill="#E9EEF1"/>
<path d="M594.689 101.753C594.689 105.278 592.273 107.543 588.519 107.543C585.176 107.543 583.837 105.505 583.837 102.304V87.3379H578.918V103.703C578.918 109.127 582.392 111.672 586.803 111.672C590.882 111.672 593.341 109.818 594.593 107.963H594.689V111.025H599.555V87.3379H594.689V101.753Z" fill="#E9EEF1"/>
<path d="M611.064 79.877H606.146V87.3381H602.715V91.3267H606.146V104.587C606.146 109.59 608.281 111.357 612.176 111.357C613.471 111.357 614.539 111.217 615.519 110.99V107.001C612.368 107.185 611.064 106.861 611.064 104.176V91.3354H615.519V87.3468H611.064V79.877Z" fill="#E9EEF1"/>
<path d="M629.25 90.68C633.425 90.68 634.956 93.6015 635.14 96.0069H640.006C639.402 90.6275 635.368 86.6914 629.198 86.6914C622.144 86.6914 617.558 91.7909 617.558 99.2083C617.558 106.626 622.152 111.725 629.241 111.725C635.411 111.725 639.63 107.693 639.997 102.226H635.131C634.948 104.868 633.416 107.745 629.241 107.745C624.419 107.745 622.424 103.669 622.424 99.217C622.424 94.7648 624.472 90.68 629.25 90.68Z" fill="#E9EEF1"/>
<path d="M653.877 86.6914C646.455 86.6914 641.957 91.8346 641.957 99.2083C641.957 106.582 646.455 111.725 653.877 111.725C661.299 111.725 665.797 106.582 665.797 99.2083C665.797 91.8346 661.299 86.6914 653.877 86.6914ZM653.877 107.737C649.239 107.737 646.832 104.072 646.832 99.2083C646.832 94.2925 649.247 90.68 653.877 90.68C658.516 90.68 660.931 94.2925 660.931 99.2083C660.922 104.072 658.516 107.737 653.877 107.737Z" fill="#E9EEF1"/>
<path d="M695.344 86.6914C691.677 86.6914 689.358 88.502 687.598 90.7675H687.502C686.531 88.2221 684.535 86.6914 681.192 86.6914C677.621 86.6914 675.398 88.5458 674.147 90.4001H674.051V87.3387H669.185V111.025H674.051V96.6104C674.051 93.0854 676.134 90.82 679.381 90.82C682.767 90.82 683.415 92.858 683.415 96.0594V111.034H688.334V96.6192C688.334 93.0942 690.373 90.8287 693.664 90.8287C697.007 90.8287 697.654 92.8667 697.654 96.0681V111.043H702.573V94.6774C702.573 89.5691 700.114 86.6914 695.344 86.6914Z" fill="#E9EEF1"/>
<path d="M717.468 86.6914C710.327 86.6914 705.828 91.511 705.828 99.2083C705.828 106.626 710.327 111.725 717.704 111.725C723.778 111.725 727.305 108.296 728.513 103.8H723.647C723.227 105.235 721.608 107.737 717.573 107.737C713.258 107.737 710.712 104.448 710.712 100.459H728.889C728.881 92.0183 725.117 86.6914 717.468 86.6914ZM710.694 96.8379C710.694 93.1729 713.521 90.5313 717.468 90.5313C721.406 90.5313 724.006 93.1729 724.006 96.8379H710.694Z" fill="#E9EEF1"/>
<path d="M197.179 77.1914C187.158 77.1914 180.9 84.4689 180.9 94.4316C180.9 104.394 187.158 111.724 197.179 111.724C207.147 111.724 213.457 104.403 213.457 94.4316C213.457 84.4601 207.147 77.1914 197.179 77.1914ZM197.179 106.992C189.573 106.992 186.37 101.149 186.37 94.4316C186.37 87.7577 189.573 81.9148 197.179 81.9148C204.784 81.9148 207.935 87.7577 207.935 94.4316C207.944 101.149 204.784 106.992 197.179 106.992Z" fill="#E9EEF1"/>
<path d="M232.939 101.753C232.939 105.278 230.523 107.543 226.769 107.543C223.426 107.543 222.087 105.505 222.087 102.304V87.3379H217.168V103.703C217.168 109.127 220.642 111.672 225.053 111.672C229.132 111.672 231.591 109.818 232.843 107.963H232.939V111.025H237.805V87.3379H232.939V101.753Z" fill="#E9EEF1"/>
<path d="M249.316 79.877H244.398V87.3381H240.967V91.3267H244.398V104.587C244.398 109.59 246.533 111.357 250.428 111.357C251.723 111.357 252.791 111.217 253.771 110.99V107.001C250.62 107.185 249.316 106.861 249.316 104.176V91.3354H253.771V87.3468H249.316V79.877Z" fill="#E9EEF1"/>
<path d="M269.583 86.6914C265.873 86.6914 263.553 88.4495 262.302 90.1202H262.206V87.3387H257.287V119.09H262.206V108.2H262.302C263.553 109.958 265.873 111.725 269.583 111.725C275.613 111.725 280.112 106.993 280.112 99.2083C280.112 91.4148 275.613 86.6914 269.583 86.6914ZM268.656 107.737C264.717 107.737 262.258 104.448 262.258 99.2083C262.258 93.9251 264.717 90.68 268.656 90.68C272.927 90.68 275.193 94.5724 275.193 99.2083C275.202 103.844 272.927 107.737 268.656 107.737Z" fill="#E9EEF1"/>
<path d="M299.228 101.753C299.228 105.278 296.812 107.543 293.058 107.543C289.715 107.543 288.376 105.505 288.376 102.304V87.3379H283.457V103.703C283.457 109.127 286.932 111.672 291.342 111.672C295.421 111.672 297.88 109.818 299.132 107.963H299.228V111.025H304.094V87.3379H299.228V101.753Z" fill="#E9EEF1"/>
<path d="M315.599 79.877H310.681V87.3381H307.25V91.3267H310.681V104.587C310.681 109.59 312.816 111.357 316.711 111.357C318.006 111.357 319.074 111.217 320.054 110.99V107.001C316.903 107.185 315.599 106.861 315.599 104.176V91.3354H320.054V87.3468H315.599V79.877Z" fill="#E9EEF1"/>
<ellipse cx="150.58" cy="202.284" rx="10.2768" ry="10.2704" fill="#D9D9D9"/>
<ellipse cx="246.197" cy="137.089" rx="10.2768" ry="10.2704" fill="#D9D9D9"/>
<ellipse cx="365.945" cy="209.427" rx="10.2768" ry="10.2704" fill="#D9D9D9"/>
<ellipse cx="334.667" cy="344.282" rx="10.2768" ry="10.2704" fill="#D9D9D9"/>
<ellipse cx="187.216" cy="359.466" rx="10.2768" ry="10.2704" fill="#D9D9D9"/>
</g>
<defs>
<clipPath id="clip0_3969_30045">
<rect width="899" height="568" fill="white"/>
</clipPath>
</defs>
</svg>
