<svg width="335" height="224" viewBox="0 0 335 224" fill="none" xmlns="http://www.w3.org/2000/svg">
<g opacity="0.8">
<path d="M188.488 105.21L185.838 103.5L171.181 111.862L151.816 122.911L155.053 125.036L188.488 105.21ZM185.832 103.745L188.087 105.202L155.06 124.787L152.221 122.924L185.832 103.745Z" fill="#E9EEF1"/>
<path d="M166.062 132.232L168.888 133.943L177.264 129.078L177.764 128.788L178.264 128.499L179.753 127.634L180.07 127.45L180.386 127.266L202.618 114.354L201.264 113.468L199.909 112.582L182.987 122.405L166.062 132.232ZM202.213 114.343L180.173 127.143L179.856 127.327L179.54 127.511L178.437 128.152L177.937 128.441L177.437 128.731L168.89 133.696L166.477 132.235L199.903 112.832L202.213 114.343Z" fill="#E9EEF1"/>
<path d="M303.965 21.8827L300.556 20.4873C300.543 20.483 300.533 20.4788 300.52 20.4746C298.938 18.5379 296.635 16.7936 293.903 15.6434L289.74 13.8906C286.666 12.5967 283.479 12.2563 280.995 12.9561C280.564 13.0766 277.702 13.916 275.922 15.2459C274.793 15.9521 274.028 16.9479 273.694 18.1573L270.866 28.4138L261.855 23.4156C261.758 23.3627 261.642 23.3627 261.547 23.4177L221.236 46.2565C221.222 46.2649 221.211 46.2755 221.198 46.284C221.19 46.2903 221.179 46.2967 221.171 46.303C221.156 46.3178 221.146 46.3326 221.133 46.3495C221.129 46.3559 221.122 46.3601 221.12 46.3664C221.106 46.3897 221.095 46.4151 221.087 46.4425C221.085 46.4468 221.085 46.4531 221.085 46.4573C221.08 46.4785 221.074 46.4996 221.074 46.5229V46.525C221.074 46.525 221.074 46.525 221.074 46.5271L220.682 75.2056C220.68 75.3156 220.736 75.4192 220.829 75.4784L224.679 77.9183L144.245 124.084C142.545 112.415 137.177 101.647 128.706 93.1582C118.31 82.7368 104.485 76.9964 89.7815 76.9964C75.0777 76.9964 61.2556 82.7368 50.8568 93.1582C40.4601 103.58 34.7334 117.437 34.7334 132.176C34.7334 133.106 34.7566 134.032 34.8009 134.954C34.2377 134.971 33.7484 135.081 33.3455 135.292C33.1746 135.381 29.8525 137.151 29.3463 139.345C29.1333 140.073 29.1733 141.132 29.804 142.682L30.5844 144.703C28.1356 144.077 25.5095 144.682 23.5563 146.416C21.177 148.526 20.3249 151.828 21.3901 154.831L33.3645 188.059L33.742 197.366L59.3867 211.921L59.6989 212.099L60.0195 211.908L104.728 185.302C113.705 182.78 121.933 177.978 128.708 171.189C128.833 171.064 128.951 170.939 129.073 170.815L160.035 152.389L147.175 186.953C146.857 187.812 146.888 188.742 147.268 189.575C147.648 190.408 148.329 191.042 149.183 191.364C149.567 191.508 149.97 191.582 150.377 191.582C151.797 191.582 153.085 190.685 153.583 189.351L155.317 184.693L173.773 191.818L171.706 197.377C171.048 199.149 171.949 201.128 173.716 201.787C174.1 201.931 174.503 202.005 174.912 202.005C176.332 202.005 177.621 201.109 178.118 199.774L194.729 155.131C194.79 154.966 194.856 154.803 194.923 154.645L198.821 163.311C199.595 165.034 201.624 165.804 203.345 165.028C204.356 164.571 205.035 163.679 205.267 162.67L220.88 168.233L223.352 173.73C224.126 175.454 226.155 176.223 227.876 175.447C229.596 174.671 230.363 172.637 229.589 170.912L220.924 151.646C217.986 145.111 211.774 141.157 204.662 141.238L198.899 137.922C199.007 137.459 199.066 136.971 199.066 136.464C199.066 133.783 197.442 131.577 195.381 131.362L310.107 63.0885L310.261 62.9955V53.6397L310.257 53.6016C310.259 53.5868 310.265 53.5741 310.265 53.5572L310.286 53.3035L310.082 53.2358L308.322 52.1533L313.104 35.057C314.45 30.2279 310.522 24.5658 303.965 21.8827ZM281.163 13.565C283.513 12.9054 286.548 13.2352 289.493 14.4742L293.657 16.2269C295.892 17.1678 297.831 18.5146 299.295 20.0285C299.451 20.1892 299.603 20.352 299.748 20.5169C299.894 20.6818 300.031 20.8488 300.164 21.0159C301.798 23.071 302.554 25.3227 302.024 27.2425L301.822 28.0015L301.737 28.3166L301.655 28.621L297.185 45.2987L297.099 45.618L297.012 45.9372L293.33 59.6802L293.454 50.5126L295.049 44.73L295.137 44.4128L295.226 44.0957L299.417 28.8959C299.518 28.5301 299.575 28.1559 299.594 27.7732C299.601 27.6611 299.601 27.547 299.601 27.4328C299.598 27.3165 299.594 27.2002 299.586 27.0839C299.419 24.6503 297.778 21.9969 295.209 19.8636C295.072 19.7494 294.931 19.6352 294.787 19.5253C294.648 19.4174 294.505 19.3096 294.359 19.2039C293.26 18.4004 292.024 17.6922 290.682 17.1297L286.519 15.377C284.064 14.3452 281.583 13.9287 279.436 14.1359C280.01 13.916 280.596 13.7257 281.163 13.565ZM297.746 45.6433L302.233 28.898C305.144 30.4013 306.418 32.6171 306.272 33.133L302.035 48.2841L297.746 45.6433ZM301.86 48.9184L298.892 59.5259L293.287 62.8623L293.296 62.2555L297.576 46.284L301.86 48.9184ZM274.152 18.8741L274.304 18.3243C274.422 17.8972 274.603 17.5019 274.842 17.1403C275.181 16.6223 275.641 16.1762 276.211 15.8104C276.394 15.692 276.588 15.5821 276.795 15.4806C279.221 14.3008 282.764 14.4784 286.276 15.9563L290.44 17.7091C291.463 18.1404 292.425 18.6563 293.306 19.2335C293.454 19.3307 293.6 19.428 293.741 19.5274C293.882 19.6267 294.021 19.7282 294.159 19.8297C296.861 21.8425 298.653 24.4347 298.934 26.8112C298.949 26.9296 298.957 27.048 298.964 27.1664C298.97 27.2827 298.972 27.3968 298.97 27.511C298.966 27.9254 298.913 28.3292 298.805 28.7204L294.663 43.7447L294.574 44.0618L294.486 44.379L293.486 48.0029L293.543 43.7997L293.547 43.4297L293.551 43.0597L293.576 41.2117C293.579 41.0384 293.492 40.8819 293.347 40.791C293.262 40.7403 293.167 40.7191 293.07 40.7233L289.191 38.571L288.906 38.4124L288.622 38.2538L283.386 35.3509L283.102 35.1923L282.817 35.0337L272.579 29.3547L272.29 29.194L272.001 29.0333L271.429 28.7162L274.152 18.8741ZM243.186 60.7268L242.81 88.6653L228.697 79.7176L229.07 51.777L243.186 60.7268ZM243.394 60.86L248.623 64.1753L248.925 64.3677L249.227 64.5601L251.361 65.9132L251.228 75.7173L251.062 87.993L251.057 88.3651L251.053 88.7372L250.984 93.8475L246.86 91.2321L246.56 91.0418L246.261 90.8515L243.023 88.7985L243.394 60.86ZM249.851 64.2028L249.623 64.059L249.547 64.0104L249.492 63.9765L243.481 60.1644L283.614 36.2072L288.453 38.8902L288.738 39.0488L289.022 39.2074L292.387 41.0722L291.336 41.7001L291.21 41.7763L290.889 41.9666L287.687 43.8779L282.015 47.2629L279.305 48.8803L267.615 55.8576L251.686 65.3656L249.851 64.2028ZM251.688 88.3545L251.692 87.9824L251.697 87.6103L251.992 65.9196L256.719 63.097L266.548 57.2298L284.861 46.2967L286.624 45.2437L286.723 45.1845L287.076 44.9752L287.168 44.9202L290.113 43.1633L291.448 42.3662L291.94 42.0723L292.942 41.4739L292.925 42.6791L292.92 43.0491L292.916 43.4191L292.821 50.4238L292.804 51.6755L292.788 52.9271L292.661 62.1688L292.65 62.913L292.646 63.2429V63.2555L292.642 63.615L292.638 63.9871L292.564 69.4293L286.542 73.0215L257.193 90.528L251.612 93.856L251.688 88.3545ZM271.25 29.3483L281.094 34.8075L283.161 35.9535L283.218 35.9852L283.401 36.0867L243.283 60.0354L238.91 57.2615L229.279 51.1553L269.491 28.3694L270.714 29.0481L271.25 29.3483ZM237.476 37.7823L237.687 37.6639L242.173 35.1225L261.703 24.0562L269.273 28.2552L229.077 51.0306L222.008 46.5483L237.476 37.7823ZM221.319 75.0365L221.7 47.1022L228.861 51.6437L228.488 79.5844L225.906 77.9479L225.605 77.7555L225.303 77.5631L221.319 75.0365ZM144.336 124.763L225.284 78.3031L245.647 91.2152L212.464 110.963L182.763 128.636L182.451 128.822L182.139 129.008L179.034 130.856L178.407 131.231L177.722 131.639L176.247 132.516L175.741 132.816L175.235 133.117L166.737 138.174L166.064 138.576L165.444 138.944L140.444 153.82C141.1 152.276 141.687 150.706 142.197 149.105C142.21 149.107 142.223 149.111 142.235 149.113L142.28 148.906C142.273 148.904 142.267 148.902 142.261 148.902C143.948 143.561 144.828 137.935 144.828 132.174C144.83 129.674 144.661 127.201 144.336 124.763ZM143.851 138.333C142.438 137.635 137.808 135.191 137.16 132.835C137.072 132.516 137.091 132.309 137.215 132.218C137.922 131.7 141.491 134.049 143.205 135.176C143.577 135.419 143.87 135.614 144.079 135.743C144.024 136.609 143.948 137.474 143.851 138.333ZM144.197 132.174C144.197 133.288 144.159 134.398 144.094 135.502C143.891 135.373 143.623 135.197 143.322 134.998C140.706 133.279 137.85 131.491 137.091 132.047C136.888 132.195 136.844 132.478 136.958 132.89C137.291 134.1 138.609 135.449 140.877 136.903C142.092 137.681 143.265 138.282 143.828 138.557C143.691 139.745 143.516 140.923 143.303 142.092C141.668 141.119 134.614 136.857 130.029 132.977C129.942 132.903 129.858 132.831 129.774 132.759C129.689 132.685 129.603 132.613 129.52 132.539C127.394 130.677 125.916 128.934 125.985 127.736C126.015 127.224 126.331 126.841 126.951 126.571C129.109 125.63 132.44 126.169 137.046 128.22C137.165 128.273 137.283 128.326 137.403 128.381C137.521 128.433 137.637 128.488 137.757 128.543C139.687 129.442 141.832 130.592 144.197 131.996C144.195 132.053 144.197 132.114 144.197 132.174ZM125.31 90.8579C124.77 90.8536 124.205 90.8367 123.593 90.8029C117.628 90.4794 113.148 89.0628 109.898 86.4707C108.181 85.1006 106.772 83.3648 105.409 81.686C104.833 80.9756 104.243 80.2461 103.779 79.4448C111.684 81.5401 119.025 85.4093 125.31 90.8579ZM103.494 79.3708C103.979 80.2588 104.62 81.0517 105.245 81.8213C106.616 83.5085 108.031 85.2528 109.767 86.6377C113.051 89.2573 117.571 90.6908 123.581 91.0143C124.287 91.0524 124.937 91.0714 125.551 91.0714C126.477 91.8833 127.38 92.7269 128.257 93.6065C133.269 98.6301 137.179 104.466 139.875 110.813C135.956 108.597 131.695 106.605 128.255 104.996C125.196 103.567 122.035 102.089 118.662 101.389C116.08 100.852 113.45 100.782 110.843 101.18L110.6 101.218C109.866 101.332 109.107 101.453 108.402 101.258C107.911 101.123 107.504 100.816 107.073 100.491C106.896 100.357 106.715 100.22 106.527 100.095C102.032 97.1289 96.5608 92.173 96.0103 85.4114L96.0039 85.3268C95.9449 84.6143 95.8837 83.8764 95.987 83.1618C96.1474 82.0475 96.5312 81.2948 96.9004 80.5654C97.2442 79.8888 97.6007 79.1911 97.7694 78.2122C99.7057 78.4955 101.615 78.8845 103.494 79.3708ZM97.5606 78.1826C97.3982 79.1192 97.0649 79.7768 96.7126 80.4681C96.3351 81.2124 95.9428 81.9799 95.7782 83.1301C95.6728 83.8701 95.7339 84.6185 95.7951 85.3438L95.8014 85.4283C96.3583 92.2745 101.878 97.279 106.411 100.271C106.593 100.391 106.772 100.527 106.947 100.658C107.373 100.981 107.816 101.315 108.345 101.461C109.094 101.666 109.877 101.544 110.632 101.425L110.874 101.387C113.456 100.994 116.063 101.064 118.62 101.594C121.969 102.29 125.118 103.762 128.166 105.187C131.674 106.825 136.034 108.865 140.012 111.132C141.556 114.836 142.689 118.714 143.383 122.708C143.187 122.52 143.003 122.344 142.832 122.179C141.05 120.465 140.383 119.824 137.785 118.124C135.437 116.587 132.862 115.373 130.368 114.2C124.747 111.553 118.934 108.815 112.847 107.083C112.37 106.948 111.889 106.817 111.41 106.688C109.181 106.083 106.873 105.457 104.884 104.25C104.133 103.793 103.418 103.25 102.726 102.723C101.891 102.087 101.026 101.427 100.085 100.918C99.6129 100.662 99.113 100.436 98.6279 100.218C97.5775 99.7464 96.4912 99.258 95.6833 98.4377C94.7826 97.5222 94.3038 96.2768 93.8419 95.0717C93.6647 94.6108 93.4812 94.1329 93.2766 93.6784C92.937 92.9278 92.5194 92.1983 92.1144 91.4943C91.4647 90.361 90.7919 89.1897 90.4523 87.9169C89.3829 83.9081 90.8003 81.2356 93.1501 77.7428C94.635 77.8274 96.1052 77.9754 97.5606 78.1826ZM82.8504 78.0684C82.5467 80.8487 83.1331 83.665 84.5168 86.0267C84.5885 86.1493 84.6623 86.2698 84.734 86.3903C85.0314 86.8809 85.3394 87.3862 85.487 87.938C85.641 88.5173 85.6178 89.3588 85.0399 89.8324C84.5378 90.2426 83.7637 90.2637 82.6711 89.8916C79.7667 88.9043 77.13 87.1895 75.0461 84.9357C74.5293 84.3775 73.8923 83.6227 73.5527 82.7326C73.2996 82.0708 73.211 81.3435 73.1266 80.6415C73.1097 80.5083 73.0929 80.3751 73.076 80.2419C76.242 79.2207 79.5093 78.4913 82.8504 78.0684ZM72.8714 80.3054C72.8862 80.4259 72.903 80.5443 72.9178 80.6648C73.0043 81.3794 73.0929 82.1194 73.3565 82.8066C73.7088 83.7305 74.3627 84.5065 74.8921 85.0773C77.0014 87.3566 79.6675 89.0903 82.6036 90.0904C83.1457 90.2743 83.6161 90.3673 84.0211 90.3673C84.4914 90.3673 84.8732 90.2447 85.1749 89.9973C85.8308 89.4603 85.8625 88.5237 85.6916 87.883C85.5355 87.3016 85.2191 86.7836 84.9154 86.2804C84.8416 86.1599 84.7699 86.0415 84.6982 85.9188C83.3292 83.5825 82.7534 80.7916 83.0656 78.0388C85.2782 77.7682 87.5204 77.6307 89.7836 77.6307C90.832 77.6307 91.8739 77.6646 92.9117 77.7217C90.5704 81.2124 89.1741 83.9124 90.254 87.9655C90.5999 89.2658 91.2812 90.4498 91.9372 91.5937C92.3401 92.2935 92.7556 93.0166 93.0889 93.7587C93.2914 94.2069 93.4728 94.6827 93.65 95.1415C94.1203 96.3678 94.6055 97.6342 95.5378 98.5815C96.3731 99.4293 97.4783 99.9261 98.5456 100.406C99.0265 100.622 99.5243 100.846 99.9884 101.1C100.914 101.603 101.773 102.256 102.602 102.888C103.298 103.419 104.017 103.967 104.776 104.428C106.793 105.65 109.113 106.28 111.357 106.889C111.836 107.02 112.315 107.149 112.792 107.284C118.862 109.011 124.667 111.745 130.28 114.388C132.765 115.559 135.334 116.769 137.669 118.297C140.248 119.987 140.913 120.623 142.685 122.327C142.914 122.549 143.165 122.788 143.44 123.05C143.516 123.507 143.585 123.964 143.651 124.423C143.667 124.535 143.68 124.649 143.697 124.761C143.712 124.873 143.729 124.987 143.743 125.099C143.866 126.048 143.965 127.002 144.037 127.962C143.267 127.391 142.49 126.827 141.71 126.266C141.615 126.199 141.52 126.131 141.425 126.063C141.33 125.996 141.235 125.928 141.141 125.86C131.092 118.733 120.014 112.585 108.873 107.971C108.44 107.791 107.949 107.588 107.428 107.576C106.721 107.559 106.082 107.903 105.614 108.544C104.996 109.396 104.806 110.616 105.141 111.582C105.749 113.327 107.472 114.483 108.729 115.329L116.69 120.68C119.451 122.537 122.205 124.602 122.897 127.619C123.034 128.218 123.013 128.655 122.834 128.994C122.362 129.88 121.058 129.774 120.046 129.531C108.143 126.67 95.6939 122.086 80.8677 115.103C77.7101 113.616 74.5124 111.91 73.114 108.882C72.6668 107.914 72.1331 105.597 72.7512 104.802C75.1347 101.719 80.9162 104.233 85.5609 106.254C88.1321 107.373 90.3426 108.341 91.701 108.284C92.9898 108.231 93.8208 107.857 94.1752 107.17C94.9493 105.669 93.2492 103.047 92.2346 101.48L92.0785 101.237C88.6615 95.9343 77.9273 91.9615 68.4588 88.456C65.8833 87.5025 63.4429 86.5975 61.2471 85.7053C64.9025 83.4472 68.8005 81.6352 72.8714 80.3054ZM51.3061 93.6065C54.2802 90.6253 57.5411 88.0331 61.0235 85.8512C63.2573 86.7625 65.7504 87.6864 68.3849 88.6611C77.824 92.1561 88.5223 96.1162 91.9014 101.36L92.0575 101.603C93.0467 103.131 94.7046 105.688 93.9874 107.079C93.6711 107.692 92.8991 108.03 91.6904 108.079C90.3911 108.13 88.1911 107.174 85.6431 106.066C80.931 104.017 75.0693 101.465 72.5824 104.677C71.9053 105.552 72.4432 107.941 72.922 108.978C74.35 112.071 77.5856 113.796 80.7791 115.299C95.62 122.289 108.082 126.877 119.999 129.742C120.413 129.842 120.875 129.918 121.315 129.918C122.028 129.918 122.693 129.719 123.022 129.099C123.294 128.592 123.199 127.987 123.106 127.577C122.397 124.484 119.607 122.389 116.81 120.509L108.849 115.158C107.251 114.084 105.884 113.069 105.344 111.517C105.03 110.614 105.207 109.47 105.787 108.673C106.211 108.087 106.797 107.772 107.424 107.791C107.907 107.804 108.377 107.999 108.793 108.17C119.892 112.764 130.925 118.885 140.94 125.979C141.035 126.046 141.13 126.114 141.225 126.182C141.32 126.249 141.415 126.317 141.51 126.385C142.366 126.998 143.218 127.615 144.06 128.241C144.142 129.402 144.186 130.569 144.195 131.742C141.925 130.398 139.856 129.288 137.981 128.41C137.863 128.355 137.745 128.302 137.629 128.247C137.51 128.192 137.39 128.137 137.274 128.085C132.533 125.958 129.099 125.397 126.869 126.372C126.177 126.674 125.81 127.127 125.776 127.719C125.705 128.975 127.188 130.755 129.326 132.647C129.409 132.721 129.493 132.795 129.58 132.867C129.664 132.939 129.748 133.013 129.835 133.087C134.498 137.068 141.71 141.392 143.267 142.312C142.86 144.496 142.322 146.644 141.655 148.746C137.892 147.695 134.648 144.857 131.225 141.861C128.964 139.882 126.656 137.863 124.144 136.354C124.038 136.29 123.935 136.229 123.83 136.168C123.724 136.106 123.617 136.045 123.509 135.986C121.961 135.123 120.332 134.461 118.588 134.131C111.465 132.778 108.253 130.66 105.909 129.112C105.207 128.649 104.601 128.249 104 127.947C103.561 127.727 102.612 127.406 101.298 126.96C94.6751 124.716 79.1676 119.462 67.5412 107.32C59.3235 98.7379 52.3544 97.1839 47.7751 97.501C48.8783 96.1606 50.0574 94.8581 51.3061 93.6065ZM47.5811 97.7357C55.5816 97.0676 62.751 102.635 67.383 107.472C79.0453 119.653 94.5865 124.917 101.224 127.165C102.53 127.607 103.473 127.926 103.899 128.139C104.487 128.436 105.089 128.831 105.785 129.292C108.143 130.85 111.374 132.983 118.54 134.343C120.216 134.662 121.788 135.29 123.285 136.113C123.393 136.172 123.501 136.231 123.608 136.292C123.714 136.354 123.819 136.415 123.922 136.476C126.46 137.984 128.791 140.024 131.075 142.022C134.515 145.033 137.776 147.883 141.581 148.949C140.989 150.792 140.301 152.602 139.514 154.37C139.51 154.38 139.504 154.393 139.497 154.403C139.386 154.482 139.242 154.564 139.061 154.638C138.873 154.714 138.649 154.784 138.377 154.831C135.985 155.247 129.809 154.027 115.146 141.513C115.061 141.441 114.975 141.367 114.89 141.295C114.806 141.223 114.72 141.149 114.635 141.075C114.433 140.901 114.23 140.726 114.024 140.548C101.25 129.469 97.1345 128.461 92.3696 127.294C88.7712 126.412 84.6918 125.412 76.0543 119.697C69.3784 115.28 65.3876 111.538 62.1815 108.531C56.7037 103.396 53.8963 100.768 44.7757 101.491C45.6574 100.205 46.5897 98.9515 47.5811 97.7357ZM44.6281 101.715C53.7887 100.954 56.5772 103.561 62.0444 108.686C65.2569 111.699 69.2561 115.447 75.9446 119.875C84.6138 125.611 88.7121 126.615 92.3274 127.501C97.0649 128.662 101.157 129.664 113.893 140.709C114.074 140.866 114.258 141.026 114.448 141.187C114.532 141.259 114.616 141.333 114.703 141.407C114.787 141.479 114.874 141.553 114.958 141.625C121.427 147.141 131.769 155.114 137.517 155.114C137.821 155.114 138.109 155.091 138.386 155.044C138.396 155.042 138.409 155.042 138.42 155.04C138.81 154.972 139.113 154.862 139.348 154.744C139.327 154.788 139.308 154.833 139.286 154.877C139.208 155.046 139.135 155.215 139.054 155.385C136.926 159.915 134.161 164.161 130.807 168.007C130.233 165.683 129.485 163.55 128.571 161.624C128.525 161.529 128.481 161.431 128.434 161.336C128.388 161.241 128.339 161.146 128.293 161.053C127.557 159.586 126.721 158.243 125.787 157.034C122.939 153.346 119.168 150.87 114.576 149.672C111.549 148.881 108.628 147.953 105.797 146.883C105.669 146.834 105.54 146.786 105.413 146.737C105.287 146.688 105.16 146.64 105.034 146.589C97.4931 143.654 90.6084 139.696 84.1772 134.611C76.4445 128.499 70.6862 121.765 66.0605 116.354C64.1917 114.168 62.4262 112.105 60.7789 110.371C56.3135 105.671 50.3991 103.518 43.1853 103.971C43.6451 103.21 44.1282 102.457 44.6281 101.715ZM38.6335 113.492C44.8833 110.134 49.4478 109.646 52.1983 112.05C54.6324 114.177 55.6554 116.189 55.1597 117.87C54.5902 119.803 52.0949 121.179 48.1337 121.746C43.6156 122.393 38.7727 125.736 35.3978 130.512C35.5708 124.623 36.6718 118.894 38.6335 113.492ZM33.6408 135.855C33.9656 135.685 34.3706 135.595 34.8431 135.582C34.9464 135.58 35.0519 135.578 35.1616 135.584C35.2649 135.588 35.3704 135.597 35.478 135.607C36.7815 135.736 38.4711 136.326 40.3905 137.349L41.2933 137.829L41.4789 137.929L44.7926 139.694C45.8219 140.242 46.7563 140.715 47.6591 141.174C48.0156 141.354 48.3573 141.529 48.6905 141.699C48.7517 141.73 48.8129 141.762 48.8741 141.792C50.9412 142.855 52.5674 143.777 53.8456 145.031C53.9068 145.09 53.9659 145.149 54.0249 145.21C54.8855 146.098 55.5837 147.156 56.149 148.54L61.7808 162.182L61.8609 162.379L64.8624 169.648L64.9848 169.944L65.1071 170.24L70.452 183.188L70.6102 183.57L70.7832 183.987L74.4407 192.844L71.6332 194.641L66.5688 182.232L66.3832 181.775L66.2145 181.361L62.3271 171.836L62.2068 171.54L62.0866 171.244L59.5681 165.074L59.4458 164.774L53.8267 151.008C53.3795 149.913 52.8585 149.014 52.2489 148.24C52.1898 148.164 52.1287 148.09 52.0675 148.016C51.0804 146.832 49.8696 145.946 48.3805 145.081C48.3193 145.046 48.256 145.01 48.1928 144.974C47.2541 144.439 46.2079 143.908 45.0373 143.314C44.1366 142.857 43.2064 142.386 42.1813 141.84L39.9813 140.669L39.7957 140.57L37.7813 139.495C37.0684 139.115 36.3871 138.796 35.7395 138.533C35.6277 138.489 35.5181 138.447 35.4105 138.404C35.2987 138.362 35.1869 138.32 35.0751 138.28C33.413 137.686 32.0251 137.516 31.0126 137.785C32.0989 136.673 33.6155 135.867 33.6408 135.855ZM71.5826 184.277C75.7316 185.729 80.0683 186.683 84.5168 187.103L75.0714 192.725L71.5826 184.277ZM30.3946 142.447C30.2006 141.973 30.0634 141.536 29.977 141.13C29.8567 140.574 29.8399 140.087 29.9221 139.684C29.9981 139.316 30.1541 139.013 30.3967 138.794C31.2193 138.047 32.9257 138.134 35.1489 138.982C35.2607 139.024 35.3746 139.07 35.4885 139.117C35.6003 139.161 35.7121 139.208 35.826 139.259C36.3554 139.487 36.9081 139.751 37.4818 140.058L39.5025 141.134L39.6881 141.233L41.8818 142.403C42.9111 142.95 43.8455 143.424 44.7483 143.883C46.0118 144.523 47.1255 145.09 48.1126 145.667C48.1759 145.705 48.2392 145.741 48.3024 145.779C49.8021 146.674 50.9939 147.612 51.9431 148.904C52.0042 148.987 52.0654 149.071 52.1245 149.158C52.5421 149.767 52.9112 150.454 53.2361 151.251L59.1906 165.842L59.3424 166.212L61.5277 171.565L61.6479 171.861L61.7681 172.157L65.356 180.947L65.5269 181.365L65.7167 181.83L70.7579 194.182L70.8549 194.421L69.6252 193.766L67.4526 192.609L64.5165 191.044L64.236 190.319L64.0272 189.782L63.8183 189.245L59.5913 178.335L59.3867 177.807L59.1906 177.304L58.0284 174.305L57.9123 174.007L57.7963 173.709L54.1768 164.366C53.4892 162.59 52.6265 160.903 51.6098 159.33C51.5381 159.218 51.4643 159.108 51.3904 158.998C50.3801 157.482 49.2263 156.072 47.9418 154.786C47.8721 154.719 47.8025 154.651 47.7329 154.581C45.7038 152.594 43.3625 150.915 40.7765 149.617L37.7012 148.075L37.332 147.889L36.9313 147.688L32.3816 145.407L32.1537 145.293C32.0799 145.255 32.0019 145.225 31.9259 145.189C31.7804 145.122 31.6328 145.058 31.483 144.999C31.4408 144.982 31.4007 144.969 31.3586 144.952L30.943 143.874L30.3946 142.447ZM70.9414 195.182L67.0245 197.514L64.8688 191.947L70.9414 195.182ZM33.8285 187.478L21.987 154.617C21.0104 151.86 21.7929 148.828 23.9782 146.891C25.8913 145.196 28.5026 144.671 30.8734 145.445C31.0063 145.487 31.1371 145.538 31.2679 145.591C31.405 145.644 31.5399 145.705 31.6749 145.767C31.7403 145.796 31.8057 145.824 31.869 145.855L31.9049 145.874L32.3668 146.107L32.8287 146.339L37.1802 148.515L37.5873 148.72L37.969 148.91L40.496 150.177C43.2191 151.541 45.6595 153.338 47.7435 155.48C47.8131 155.552 47.8848 155.623 47.9544 155.695C49.2664 157.074 50.4328 158.59 51.4305 160.224C51.5064 160.349 51.5824 160.474 51.6583 160.601C52.405 161.867 53.0525 163.199 53.5904 164.59L57.2437 174.022L57.3597 174.322L57.4757 174.62L58.2625 176.65L58.4629 177.168L58.6738 177.712L62.8818 188.577L63.0906 189.114L63.2995 189.651L63.6623 190.588L63.8373 191.04L64.0124 191.493L66.4718 197.844L66.5878 198.144L66.7038 198.445L67.8534 201.413C68.1339 202.14 68.1171 202.933 67.8028 203.646C67.4885 204.358 66.9169 204.908 66.1934 205.189C65.8538 205.32 65.4994 205.388 65.1409 205.388C63.9301 205.388 62.8649 204.656 62.4262 203.525L61.6268 201.464L61.5108 201.164L61.3948 200.863L56.1405 187.298L55.9655 186.845L55.7904 186.393L54.6746 183.509L54.4658 182.972L54.257 182.435L52.3649 177.551L52.2489 177.253L52.1329 176.955L49.2453 169.502L48.9226 168.671L48.6505 167.967L48.5956 167.823L48.3742 167.25L48.1611 166.702C46.8196 163.237 44.6133 160.226 41.7826 157.922C41.5907 157.765 41.3987 157.609 41.2005 157.461C41.0043 157.313 40.8039 157.171 40.6035 157.029C39.7451 156.425 38.8402 155.877 37.8889 155.401L36.9692 154.941L36.5073 154.708L36.0454 154.475L34.7967 153.85L34.3769 153.638L33.9572 153.427L29.2682 151.078C29.0679 150.978 28.8675 150.928 28.6713 150.928C28.376 150.928 28.0913 151.042 27.836 151.266C27.4142 151.64 27.2876 152.137 27.4754 152.665L38.7347 184.632L37.6906 185.243L33.837 187.503L33.8285 187.478ZM35.1363 154.727L36.4947 155.408L36.9566 155.64L37.4185 155.873L37.6063 155.966C38.9267 156.628 40.1564 157.427 41.2891 158.338C41.5295 158.533 41.7658 158.731 41.9978 158.934C42.2488 159.156 42.4956 159.385 42.736 159.617C44.6618 161.491 46.2121 163.736 47.2879 166.248C47.3849 166.474 47.4819 166.7 47.5705 166.933L47.6886 167.239L48.0451 168.159L51.576 177.274L51.6921 177.572L51.8081 177.87L53.3183 181.769L53.5271 182.306L53.736 182.843L54.934 185.938L46.0223 181.192L45.6911 181.016L45.36 180.841L45.1807 180.746L35.1363 154.727ZM44.7145 181.211L39.2958 184.321L28.0702 152.452C27.9689 152.167 28.028 151.94 28.2537 151.737C28.4815 151.536 28.7114 151.507 28.9835 151.642L34.2947 154.304L44.6365 181.082L44.6787 181.192L44.7145 181.211ZM34.3601 196.988L34.0162 188.467L59.0134 202.654L59.1062 204.935L59.3593 211.175L34.3601 196.988ZM59.315 202.1L34.3537 187.932L37.9859 185.803L45.3726 181.564L55.2842 186.843L60.8421 201.191L59.315 202.1ZM59.99 211.19L59.7369 204.929L59.6441 202.644L61.0763 201.792L61.8356 203.754C62.3693 205.132 63.6665 206.022 65.1409 206.022C65.5796 206.022 66.0099 205.94 66.4233 205.781C67.305 205.439 68.001 204.771 68.3828 203.902C68.7646 203.033 68.7857 202.068 68.444 201.183L67.2565 198.115L85.6009 187.199C86.9846 187.302 88.381 187.355 89.7836 187.355C94.1351 187.355 98.4085 186.848 102.541 185.871L59.99 211.19ZM106.485 184.11C106.219 184.194 105.956 184.281 105.688 184.363C105.285 184.486 104.88 184.604 104.473 184.716C99.75 186.036 94.8185 186.719 89.7815 186.719C88.7037 186.719 87.6322 186.683 86.5649 186.621C86.3772 186.611 86.1894 186.6 86.0038 186.587C85.8203 186.575 85.6368 186.562 85.4512 186.547C80.5555 186.163 75.7906 185.131 71.2578 183.49L65.6576 169.923L65.5353 169.627L65.413 169.33L62.4937 162.26C63.7888 162.133 65.4678 162.605 67.518 163.681C69.0009 164.459 70.4394 165.104 71.8378 165.645C71.9665 165.694 72.0931 165.743 72.2196 165.791C72.3504 165.84 72.4791 165.886 72.6077 165.935C78.0476 167.912 82.8589 168.324 87.223 168.698C93.4833 169.233 98.8894 169.694 103.831 174.724C104.017 174.914 104.196 175.103 104.367 175.293C104.439 175.373 104.511 175.454 104.58 175.534C104.652 175.616 104.722 175.697 104.789 175.779C106.953 178.373 107.628 180.906 106.806 183.331C106.751 183.492 106.69 183.651 106.622 183.809C106.58 183.909 106.533 184.008 106.485 184.11ZM114.331 180.881C111.975 182.078 109.535 183.097 107.029 183.934C106.938 183.964 106.848 183.993 106.757 184.023C106.814 183.894 106.867 183.763 106.915 183.632C106.972 183.479 107.025 183.325 107.071 183.171C107.78 180.765 107.067 178.213 104.97 175.669C104.903 175.587 104.833 175.506 104.764 175.424C104.694 175.344 104.625 175.261 104.553 175.181C104.371 174.978 104.182 174.775 103.983 174.574C98.9886 169.489 93.5445 169.024 87.242 168.485C82.939 168.117 78.1973 167.711 72.8503 165.795C72.7195 165.749 72.5909 165.702 72.4601 165.654C72.3335 165.607 72.2049 165.556 72.0762 165.508C70.6355 164.958 69.1506 164.296 67.6172 163.493C65.4994 162.383 63.7593 161.905 62.4114 162.057L56.7332 148.302C56.227 147.063 55.6259 146.073 54.9129 145.236C56.7818 145.53 59.6525 147.219 63.5399 149.511C68.347 152.344 74.8773 156.19 82.9538 159.266C83.0803 159.315 83.209 159.364 83.3377 159.412C83.4663 159.461 83.5929 159.51 83.7237 159.556C86.9699 160.757 90.4565 161.829 94.1794 162.658C103.224 164.673 108.337 167.893 111.155 171.255C111.225 171.337 111.292 171.419 111.36 171.502C111.427 171.586 111.492 171.669 111.558 171.753C113.45 174.212 114.163 176.718 114.331 178.855C114.34 178.974 114.348 179.092 114.355 179.211C114.361 179.333 114.365 179.452 114.367 179.572C114.372 180.029 114.359 180.469 114.331 180.881ZM114.549 180.767C114.574 180.35 114.583 179.908 114.568 179.445C114.564 179.327 114.557 179.206 114.551 179.086C114.545 178.97 114.536 178.851 114.526 178.733C114.342 176.589 113.616 174.092 111.735 171.641C111.67 171.557 111.606 171.474 111.539 171.39C111.473 171.307 111.404 171.225 111.336 171.142C108.495 167.741 103.34 164.482 94.2195 162.451C90.5725 161.639 87.1491 160.59 83.9578 159.417C83.8291 159.368 83.6984 159.321 83.5697 159.273C83.441 159.224 83.3145 159.175 83.1858 159.127C75.0503 156.046 68.4756 152.173 63.6433 149.325C59.5871 146.934 56.6278 145.191 54.702 144.997C53.2846 143.434 51.4347 142.392 49.0027 141.147C49.7557 137.652 50.9812 134.935 52.8965 133.806C54.6788 132.755 56.9716 133.176 59.7073 135.064C60.6481 135.711 61.6626 136.988 62.9493 138.601C66.9696 143.652 73.7489 152.164 89.6297 155.429C89.7858 155.461 89.9461 155.492 90.1043 155.522C90.2625 155.554 90.4185 155.585 90.5788 155.615C94.4262 156.338 98.7903 156.759 103.758 156.759C108.991 156.759 112.825 158.252 115.154 161.197C116.443 162.827 117.28 164.893 117.666 167.371C117.683 167.483 117.7 167.595 117.717 167.709C117.732 167.823 117.746 167.937 117.761 168.051C118.069 170.639 117.913 173.654 117.293 177.082C117.268 177.219 117.244 177.356 117.217 177.496C117.192 177.633 117.162 177.773 117.135 177.912C117.029 178.447 116.911 178.993 116.782 179.547C116.048 179.976 115.304 180.38 114.549 180.767ZM117.033 179.407C117.16 178.853 117.274 178.308 117.379 177.773C117.407 177.633 117.434 177.494 117.46 177.356C117.485 177.217 117.51 177.082 117.533 176.944C118.137 173.53 118.278 170.523 117.957 167.939C117.943 167.825 117.93 167.711 117.913 167.597C117.896 167.483 117.879 167.371 117.86 167.258C117.462 164.778 116.616 162.711 115.319 161.068C112.948 158.07 109.058 156.549 103.758 156.549C98.9084 156.549 94.6392 156.148 90.8636 155.452C90.7033 155.423 90.543 155.393 90.3848 155.361C90.2266 155.332 90.0663 155.3 89.9102 155.268C73.9303 152.05 67.1362 143.521 63.1138 138.468C61.8166 136.84 60.7936 135.552 59.8276 134.888C57.018 132.952 54.6493 132.527 52.7889 133.624C50.8378 134.774 49.5891 137.525 48.8213 141.056C48.5366 140.91 48.2434 140.762 47.9418 140.61C47.0411 140.153 46.1109 139.682 45.0858 139.136L41.7974 137.383C44.5416 132.755 48.062 128.309 52.1645 126.985C54.4257 126.256 56.7185 126.543 58.9796 127.844C63.2235 130.281 66.0626 133.235 69.0662 136.362C74.8457 142.375 80.8107 148.583 97.4699 150.934C97.6407 150.957 97.8095 150.983 97.9824 151.006C98.1533 151.029 98.3284 151.05 98.5013 151.073C99.1552 151.158 99.8238 151.236 100.509 151.308C108.56 152.154 114.604 155.311 118.472 160.691C119.491 162.11 120.354 163.668 121.056 165.362C121.096 165.461 121.138 165.559 121.178 165.658C121.218 165.757 121.256 165.859 121.294 165.958C122.193 168.278 122.805 170.838 123.123 173.623C123.136 173.737 123.148 173.853 123.161 173.969C123.174 174.086 123.188 174.2 123.199 174.316C123.226 174.601 123.247 174.891 123.269 175.181C121.282 176.737 119.198 178.147 117.033 179.407ZM128.677 170.314C128.538 170.457 128.4 170.601 128.259 170.743C128.097 170.906 127.932 171.062 127.768 171.223C127.428 171.555 127.084 171.882 126.738 172.204C125.679 173.187 124.589 174.126 123.469 175.014C123.448 174.737 123.425 174.462 123.399 174.191C123.389 174.075 123.374 173.961 123.361 173.845C123.349 173.728 123.336 173.614 123.323 173.498C122.999 170.717 122.383 168.161 121.48 165.842C121.442 165.743 121.404 165.641 121.364 165.542C121.324 165.442 121.282 165.345 121.242 165.246C120.533 163.55 119.668 161.985 118.645 160.56C114.741 155.129 108.647 151.942 100.533 151.09C99.9441 151.029 99.3682 150.963 98.8051 150.892C98.63 150.87 98.4591 150.847 98.2862 150.824C98.1132 150.801 97.9402 150.777 97.7694 150.754C80.9753 148.443 75.0018 142.227 69.2181 136.208C66.2039 133.07 63.3564 130.106 59.0851 127.653C56.7712 126.323 54.4194 126.029 52.0991 126.778C47.9354 128.12 44.3792 132.613 41.6118 137.278L40.6858 136.785C38.6398 135.694 36.8511 135.079 35.4379 134.962C35.3915 134.034 35.3683 133.104 35.3683 132.169C35.3683 131.744 35.3746 131.319 35.3831 130.894C38.7326 126.023 43.6156 122.602 48.1611 121.951C52.2088 121.372 54.7653 119.942 55.3601 117.925C55.8811 116.158 54.8349 114.069 52.3354 111.885C49.5448 109.445 44.9719 109.885 38.7432 113.187C39.8969 110.066 41.3334 107.053 43.0482 104.189C50.2599 103.702 56.1722 105.829 60.6249 110.515C62.268 112.244 64.0335 114.308 65.9002 116.49C70.5322 121.907 76.299 128.649 84.0464 134.774C90.4502 139.836 97.3011 143.785 104.798 146.72C104.924 146.769 105.049 146.819 105.175 146.868C105.302 146.917 105.43 146.965 105.559 147.014C108.447 148.111 111.429 149.063 114.521 149.87C120.626 151.465 125.177 155.249 128.12 161.148C128.166 161.243 128.215 161.336 128.261 161.431C128.308 161.527 128.352 161.624 128.398 161.719C129.312 163.66 130.058 165.819 130.636 168.193C130.003 168.918 129.35 169.622 128.677 170.314ZM152.988 189.129C152.583 190.216 151.533 190.947 150.377 190.947C150.044 190.947 149.717 190.888 149.403 190.77C148.704 190.51 148.15 189.992 147.842 189.313C147.534 188.634 147.506 187.875 147.766 187.175L160.9 151.873L168.542 147.325L156.737 179.05L155.984 178.76C154.788 178.297 153.412 178.693 152.645 179.722C152.098 180.454 151.927 181.376 152.181 182.253C152.434 183.131 153.064 183.822 153.914 184.152L154.724 184.465L152.988 189.129ZM190.152 144.041L191.571 147.2C190.2 148.784 189.091 150.642 188.315 152.731L175.786 186.406L157.329 179.28L169.411 146.811L183.811 138.242C183.896 138.269 183.98 138.299 184.064 138.33L187.287 140.185C188.42 141.143 189.416 142.407 190.152 144.041ZM189.247 141.31L194.643 144.413C193.702 145.077 192.829 145.836 192.035 146.684L190.73 143.779C190.308 142.847 189.806 142.028 189.247 141.31ZM155.536 184.097L155.241 183.983L154.946 183.868L154.142 183.558C153.478 183.302 152.986 182.763 152.788 182.076C152.592 181.391 152.725 180.672 153.151 180.101C153.583 179.524 154.26 179.2 154.954 179.2C155.224 179.2 155.496 179.249 155.756 179.35L156.515 179.644L156.81 179.758L157.106 179.872L175.562 186.998L173.991 191.222L155.536 184.097ZM203.08 164.444C201.679 165.077 200.025 164.449 199.393 163.045L195.271 153.881C196.305 151.856 197.794 150.441 199.424 149.517L202.449 156.243C201.403 155.996 200.27 156.351 199.608 157.167C199.102 157.793 198.931 158.586 199.144 159.345C199.369 160.15 199.975 160.78 200.806 161.078L204.662 162.453C204.489 163.303 203.928 164.062 203.08 164.444ZM199.983 149.219C200.576 148.927 201.179 148.699 201.782 148.524L201.848 148.562L201.88 148.498C202.768 148.251 203.649 148.12 204.48 148.092C207.98 147.978 212.491 149.589 214.681 154.461L217.959 161.749L203.263 156.514L199.983 149.219ZM205.347 162.023L205.035 161.911L204.719 161.799L201.017 160.48C200.382 160.254 199.92 159.778 199.751 159.173C199.595 158.615 199.722 158.03 200.097 157.569C200.5 157.074 201.131 156.797 201.778 156.797C202.031 156.797 202.287 156.839 202.533 156.926L202.797 157.021L203.21 157.169L203.624 157.317L218.319 162.552L220.513 167.428L205.347 162.023ZM204.491 141.87C204.613 141.868 204.735 141.863 204.858 141.863C204.864 141.863 204.868 141.863 204.875 141.863C204.986 141.863 205.098 141.868 205.21 141.87C211.842 141.992 217.583 145.773 220.342 151.904L229.007 171.17C229.638 172.574 229.013 174.231 227.611 174.866C226.21 175.498 224.556 174.87 223.924 173.466L221.7 168.523L221.521 168.121L221.342 167.719L219.148 162.844L218.969 162.442L218.79 162.04L215.263 154.196C212.945 149.039 208.167 147.335 204.463 147.454C203.757 147.477 203.012 147.57 202.261 147.743C202.126 147.775 201.991 147.809 201.856 147.845C201.721 147.881 201.584 147.919 201.449 147.961C201.314 148.003 201.179 148.046 201.042 148.092C200.601 148.244 200.16 148.424 199.726 148.636C199.631 148.682 199.538 148.731 199.443 148.779C199.35 148.828 199.258 148.879 199.165 148.932C197.536 149.843 196.037 151.213 194.946 153.148C194.881 153.262 194.818 153.378 194.756 153.496C194.693 153.617 194.634 153.74 194.575 153.864C194.417 154.194 194.269 154.539 194.134 154.9L177.524 199.544C177.119 200.631 176.068 201.362 174.912 201.362C174.579 201.362 174.252 201.303 173.938 201.185C172.497 200.646 171.763 199.034 172.301 197.59L174.366 192.038L174.476 191.74L174.585 191.442L176.157 187.218L176.266 186.919L176.376 186.621L188.907 152.94C189.62 151.025 190.624 149.308 191.86 147.83C191.936 147.741 192.01 147.65 192.088 147.564C192.164 147.477 192.242 147.392 192.32 147.306C193.2 146.339 194.183 145.483 195.254 144.756C195.351 144.69 195.45 144.625 195.55 144.559C195.649 144.494 195.75 144.43 195.851 144.367C196.178 144.164 196.516 143.974 196.857 143.794C196.95 143.745 197.045 143.697 197.14 143.65C197.235 143.604 197.33 143.557 197.425 143.511C199.504 142.519 201.823 141.944 204.278 141.861C204.347 141.87 204.419 141.87 204.491 141.87ZM203.472 141.282C201.219 141.451 199.091 142.022 197.161 142.94C197.066 142.984 196.971 143.033 196.876 143.079C196.781 143.126 196.686 143.174 196.594 143.223C196.125 143.468 195.67 143.735 195.227 144.02L187.665 139.669L184.486 137.84L184.518 137.821L186.073 136.895L192.917 140.794C193.234 141.047 193.582 141.248 193.949 141.381L194.223 141.538L194.231 141.472C194.495 141.542 194.769 141.58 195.05 141.58C195.311 141.58 195.566 141.546 195.813 141.487C195.917 141.462 196.018 141.43 196.119 141.396C196.218 141.36 196.317 141.322 196.412 141.278C197.437 140.804 198.271 139.811 198.713 138.548L203.472 141.282ZM191.774 139.413L186.699 136.523L190.108 134.493L190.403 134.318L190.704 134.138L190.875 134.036L191.188 133.85L191.5 133.664L191.774 133.501C191.73 133.582 191.685 133.664 191.645 133.747C191.599 133.842 191.555 133.937 191.512 134.036C191.47 134.134 191.432 134.235 191.396 134.334C191.365 134.423 191.335 134.512 191.308 134.601C191.274 134.713 191.242 134.825 191.213 134.939C191.185 135.053 191.162 135.17 191.139 135.288C191.069 135.664 191.031 136.055 191.031 136.457C191.034 137.559 191.308 138.578 191.774 139.413ZM198.429 136.459C198.429 136.848 198.387 137.225 198.317 137.584C198.296 137.694 198.273 137.802 198.245 137.908C198.218 138.013 198.19 138.119 198.157 138.223C197.781 139.381 197.047 140.286 196.142 140.699C196.045 140.743 195.946 140.781 195.847 140.813C195.744 140.847 195.64 140.872 195.535 140.893C195.377 140.923 195.216 140.944 195.052 140.944C194.797 140.944 194.548 140.904 194.307 140.832C194.204 140.8 194.1 140.764 194.001 140.722C193.742 140.608 193.495 140.453 193.267 140.263C192.31 139.47 191.671 138.064 191.671 136.459C191.671 136.229 191.687 136.005 191.713 135.785C191.728 135.658 191.744 135.533 191.768 135.409C191.791 135.286 191.814 135.165 191.844 135.049C191.877 134.916 191.915 134.785 191.957 134.656C191.991 134.552 192.027 134.453 192.067 134.353C192.107 134.254 192.151 134.157 192.198 134.062C192.525 133.377 192.989 132.818 193.537 132.453C193.628 132.391 193.723 132.336 193.818 132.286C194.094 132.142 194.385 132.043 194.691 131.998C194.797 131.983 194.904 131.977 195.012 131.975C195.024 131.975 195.037 131.973 195.05 131.973C195.145 131.973 195.237 131.981 195.33 131.992C197.06 132.182 198.429 134.11 198.429 136.459ZM309.586 53.8997C309.586 53.8997 309.588 53.8997 309.59 53.8997C309.601 53.8997 309.611 53.8997 309.624 53.8997V62.6297L194.48 131.152L194.111 131.372L193.742 131.592L193.508 131.732L193.221 131.903L190.871 133.303L190.559 133.489L190.247 133.675L190.135 133.74L189.827 133.924L189.525 134.104L186.88 135.679L186.444 135.939L186.007 136.199L183.854 137.481L183.731 137.552L183.541 137.667L183.36 137.774L183.229 137.853L182.976 138.003L169.764 145.866L169.329 146.124L168.895 146.382L161.253 150.93L160.818 151.188L160.384 151.446L130.651 169.138C134.541 164.827 137.679 160 140.008 154.818L164.792 140.068L165.33 139.749L165.899 139.411L175.752 133.548L176.064 133.362L176.376 133.176L179.222 131.482L179.802 131.138L180.35 130.812L182.769 129.372L183.082 129.186L183.394 129L246.246 91.5958L251.121 94.6869C251.123 94.6869 251.125 94.689 251.127 94.689C251.129 94.6911 251.131 94.6911 251.131 94.6932C251.146 94.7017 251.163 94.7059 251.178 94.7123C251.186 94.7165 251.195 94.7207 251.205 94.7228C251.233 94.7313 251.26 94.7355 251.289 94.7355C251.317 94.7355 251.344 94.7313 251.37 94.7249C251.378 94.7228 251.387 94.7186 251.395 94.7144C251.41 94.708 251.427 94.7038 251.441 94.6975C251.443 94.6975 251.446 94.6953 251.448 94.6932C251.45 94.6932 251.452 94.6911 251.454 94.6911L293.043 69.8839C293.138 69.8268 293.197 69.7253 293.197 69.6154L293.279 63.6086L298.647 60.4139L298.613 60.5323C298.358 61.4457 298.472 62.4056 298.936 63.2323C299.4 64.059 300.157 64.6573 301.069 64.9132C301.265 64.9681 301.465 65.0062 301.668 65.0273C301.79 65.04 301.912 65.0464 302.035 65.0464C303.608 65.0464 305.007 64.0019 305.439 62.4521L307.479 55.1599L309.586 53.8997ZM309.164 53.4134L307.726 54.2697L308.141 52.7834L309.164 53.4134ZM312.49 34.8815L307.757 51.8044L307.669 52.1216L307.58 52.4387L306.937 54.7391L306.812 55.181L306.688 55.6229L304.827 62.2745C304.443 63.6467 303.14 64.5368 301.731 64.3909C301.566 64.374 301.4 64.3423 301.239 64.2979C300.491 64.0865 299.868 63.5981 299.487 62.9173C299.105 62.2364 299.012 61.4499 299.221 60.6993L299.432 59.9424L299.556 59.5005L299.681 59.0586L302.421 49.2652L302.509 48.948L302.598 48.6309L306.884 33.3063C307.139 32.3908 305.58 29.8748 302.402 28.2764L302.634 27.4095C303.142 25.5637 302.581 23.4473 301.248 21.4577L303.724 22.4705C309.985 25.033 313.754 30.3674 312.49 34.8815Z" fill="#E9EEF1"/>
<path d="M264.595 36.7704C263.77 37.2419 263.68 37.7705 263.827 38.2864L263.806 38.2991C262.975 38.1003 262.161 38.1638 261.408 38.5951C260.602 39.056 260.545 39.5782 260.689 39.9863L259.957 39.5973L258.858 40.2252L264.532 43.2318L265.631 42.6038L262.178 40.7728C261.334 40.3246 261.26 39.7685 261.99 39.3499C262.754 38.9122 263.388 39.0898 264.154 39.4937L267.74 41.3944L268.849 40.7601L265.396 38.9291C264.553 38.4809 264.468 37.9312 265.211 37.5062C265.962 37.077 266.599 37.2504 267.364 37.6563L270.95 39.5571L272.058 38.9228L268.139 36.8465C266.913 36.2017 265.671 36.153 264.595 36.7704Z" fill="#E9EEF1"/>
<path d="M263.211 43.3528C262.876 43.5452 262.598 43.4754 262.235 43.2809L259.537 41.8495C258.029 41.0503 256.673 41.2976 255.491 41.9721C253.882 42.894 254.078 43.7228 255.114 44.3296L256.181 43.7185C255.5 43.2999 255.536 42.9616 256.415 42.4605C257.147 42.0419 257.687 42.0757 258.098 42.2935C258.643 42.581 258.25 42.9278 257.592 43.4881C256.531 44.3993 256.053 45.1013 257.297 45.761C258.252 46.2663 259.586 46.2367 260.674 45.6151C261.499 45.1436 261.762 44.6129 261.598 44.1583L261.619 44.1477C262.279 44.3824 262.773 44.3444 263.357 44.0103C263.568 43.8898 263.722 43.7756 263.874 43.5811L263.319 43.2872C263.279 43.3126 263.245 43.3337 263.211 43.3528ZM259.991 44.9935C259.394 45.3339 258.814 45.3487 258.293 45.0738C257.715 44.7672 257.835 44.393 258.533 43.7608C258.934 43.4098 259.231 43.0927 259.275 42.9214L260.13 43.3739C261.049 43.8602 260.9 44.4733 259.991 44.9935Z" fill="#E9EEF1"/>
<path d="M256.483 45.9233L255.386 46.5512C255.637 46.788 255.871 47.3145 254.962 47.8346C253.989 48.3907 252.627 48.3019 251.671 47.7966L255.77 45.4539C253.749 44.382 251.625 44.1896 249.9 45.1769C248.29 46.0967 248.431 47.2891 250.275 48.2659C252.051 49.2068 254.287 49.2745 255.949 48.323C257.316 47.5386 257.288 46.6506 256.483 45.9233ZM250.821 45.6632C251.709 45.1558 252.928 45.1558 253.806 45.6209L250.807 47.3357C249.929 46.8705 249.933 46.1707 250.821 45.6632Z" fill="#E9EEF1"/>
<path d="M247.018 45.7328L245.896 45.1387L239.878 48.5808L241.001 49.1749L243.392 47.8069L250.21 51.4203L251.452 50.7099L244.637 47.0965L247.018 45.7328Z" fill="#E9EEF1"/>
<path d="M268.74 80.4821L270.927 77.2367L271.064 67.1895L253.93 77.4185L253.766 89.4151L268.679 80.5181L268.74 80.4821ZM254.413 88.2882L254.557 77.78L270.414 68.3143L270.296 77.0379L268.295 80.0106L254.413 88.2882Z" fill="#E9EEF1"/>
</g>
</svg>
