<svg width="285" height="324" viewBox="0 0 285 324" fill="none" xmlns="http://www.w3.org/2000/svg">
<g clip-path="url(#clip0_5737_13060)">
<g opacity="0.6" clip-path="url(#clip1_5737_13060)">
<path d="M94.9093 187.85L94.9772 183.569C94.9847 183.11 94.7888 182.775 94.3944 182.578C93.6133 182.182 92.3624 182.431 92.1866 182.519L92.0911 188.521L94.9093 187.85ZM94.9721 187.9L92.0283 188.603L92.1238 182.491V182.489C92.1665 182.362 95.0676 181.784 95.0374 183.569C95.0224 184.638 94.9721 187.9 94.9721 187.9Z" fill="#E9EEF1"/>
<path d="M92.0288 188.603L94.9726 187.901C94.9726 187.901 95.0228 184.638 95.0404 183.571C95.068 181.784 92.1669 182.365 92.1267 182.492V182.494L92.0288 188.603ZM92.0614 182.492V182.489L92.1016 180.005C92.1016 179.97 92.1292 179.942 92.1619 179.942H92.1644L102.473 180.106C102.259 179.792 101.591 178.829 101.242 178.621C101.179 178.586 101.144 178.527 101.126 178.449C101.031 177.96 101.968 176.702 102.076 176.56C102.086 176.545 102.106 176.535 102.124 176.535C102.134 176.535 102.704 176.538 103.55 176.54C104.394 176.54 105.515 176.548 106.63 176.555C111.189 176.596 111.204 176.654 111.221 176.728C111.236 176.743 111.375 176.834 111.51 176.92C112.103 177.301 113.331 178.094 113.266 178.981C113.263 179.017 113.236 179.047 113.198 179.042C113.165 179.039 113.138 179.009 113.14 178.973C113.198 178.16 112.013 177.397 111.442 177.027C111.234 176.895 111.148 176.837 111.113 176.794C110.747 176.705 105.597 176.667 102.154 176.662C101.86 177.055 101.177 178.066 101.247 178.423C101.257 178.464 101.275 178.492 101.3 178.507C101.742 178.773 102.601 180.076 102.639 180.134C102.651 180.155 102.654 180.18 102.644 180.2C102.631 180.221 102.611 180.233 102.588 180.233C102.588 180.233 102.588 180.233 102.586 180.233L92.2222 180.066L92.1845 182.383C92.4382 182.286 93.0084 182.225 93.3525 182.233C94.4903 182.251 95.1107 182.725 95.0982 183.566L95.0303 187.895C95.0303 187.923 95.0102 187.949 94.9826 187.956L92.0388 188.658C92.0338 188.658 92.0288 188.661 92.0237 188.661C92.0087 188.661 91.9961 188.656 91.9835 188.646C91.9685 188.636 91.9609 188.615 91.9609 188.598L92.0564 182.489L92.0614 182.492Z" fill="#E9EEF1"/>
<path d="M297.711 127.357C287.473 126.909 266.715 125.565 265.372 125.477C264.585 124.99 261.812 123.084 261.184 122.65L262.887 95.6386C262.89 95.484 262.875 95.3268 262.845 95.1722C262.664 94.2825 261.946 90.6529 261.039 86.0601C258.663 74.0408 254.689 53.9257 254.32 52.6077C254.257 52.3871 254.164 52.0526 241.846 47.3939C235.881 45.138 228.971 42.6135 227.348 42.099C227.107 42.0229 226.858 41.99 226.605 42.0026L97.062 48.4432C95.9518 48.499 95.045 49.926 95.035 51.0843L96.3687 87.3376L96.2281 87.33L94.6331 93.0836L96.2431 96.4269L98.5213 96.4624L99.5813 95.1798C100.563 95.6867 101.739 95.9402 103.093 95.9225L108.209 96.7285H108.232C109.093 96.7234 109.802 97.4103 109.827 98.2721L110.754 128.62C110.776 129.398 111.218 130.102 111.902 130.46C112.424 130.733 112.753 131.271 112.756 131.866L112.884 154.648C112.474 154.625 111.628 154.61 109.862 154.582L109.757 154.58L109.701 158.07L109.782 158.09C110.186 158.199 110.771 158.232 111.339 158.232C111.974 158.232 112.59 158.191 112.901 158.166L113.012 177.868C113.017 178.674 112.884 179.452 112.633 180.177L102.593 180.066L102.59 180.281L110.656 180.37C108.915 180.585 106.966 180.981 106.564 181.543C106.054 182.261 106.202 183.252 106.283 183.617L101.741 183.543C101.744 183.127 101.736 182.785 101.711 182.628L101.699 182.552C101.601 181.918 101.307 179.995 98.3631 179.974L98.3606 180.19C101.121 180.21 101.385 181.936 101.485 182.585L101.498 182.664C101.571 183.117 101.483 185.315 101.45 186.07L96.1828 187.327L96.2582 182.562C96.2607 182.524 96.2909 181.594 95.5248 180.834C94.8164 180.129 93.6811 179.815 92.1539 179.901L92.1665 180.116C93.6309 180.035 94.7109 180.327 95.374 180.986C96.0723 181.678 96.0472 182.547 96.0472 182.56L95.9719 187.34L96.1276 187.343L87.6352 189.365C86.5702 189.619 85.8745 190.635 86.0177 191.73C86.3366 194.181 86.947 199.471 87.6503 205.595C88.8434 215.959 90.3304 228.858 91.32 235.973C91.7747 239.225 94.9872 242.269 98.4862 242.758L207.985 256.934C208.332 256.977 208.676 257 209.02 257C209.658 257 210.291 256.924 210.906 256.777L210.961 256.965C210.961 256.965 269.315 239.491 286.456 234.353C289.389 233.473 291.419 230.807 291.504 227.72L292.378 196.315L292.381 196.204L270.943 172.53L285.629 165.669L296.493 165.694C296.498 165.694 296.505 165.694 296.51 165.694C300.926 165.694 304.571 162.075 304.641 157.619L304.995 135.164C305.065 130.967 301.863 127.54 297.711 127.357ZM226.63 42.5552C226.818 42.5451 227.002 42.5704 227.18 42.6262C230.845 43.7896 252.551 51.8878 253.805 52.8206C254.257 54.5923 258.155 74.317 260.499 86.1691C261.443 90.9444 262.124 94.3941 262.307 95.2863C262.33 95.4003 262.342 95.5169 262.34 95.6208L259.994 132.802C259.986 133.217 259.632 133.897 259.107 134.492C258.577 135.096 257.995 135.483 257.615 135.483C257.613 135.483 257.61 135.483 257.608 135.483L257.452 135.481L257.432 135.514C256.751 135.648 253.029 136.284 249.173 134.918C244.966 133.428 242.231 127.106 242.203 127.04L242.095 127.086C242.369 113.911 242.622 100.822 242.713 96.0923L242.718 95.8109L237.217 95.8287V95.7805L227.366 95.8262C227.896 95.56 228.313 95.1722 228.32 94.6019C228.386 90.2752 227.848 73.5972 227.416 60.1939C227.182 52.9651 226.982 46.7222 226.921 43.8758C226.911 43.4449 226.753 43.0849 226.449 42.8087C226.351 42.72 226.241 42.6439 226.125 42.578L226.63 42.5552ZM107.413 192.949L104.324 192.686L104.951 191.634L108.131 191.9L107.413 192.949ZM107.574 205.235L104.489 204.966L104.15 192.975L104.2 192.891L107.345 193.16L107.574 205.235ZM105.416 191.456L131.313 185.018L134.38 185.221C131.142 185.916 111.266 191.01 108.516 191.715L105.416 191.456ZM206.97 96.7589L206.613 119.426L193.585 119.219C192.1 119.196 190.332 119.926 190.274 123.548C190.257 124.61 189.92 125.573 189.325 126.257C188.704 126.97 187.84 127.34 186.861 127.322L164.282 126.959C161.788 126.919 161.231 125.142 161.2 123.659C161.14 120.575 161.133 118.129 161.175 117.672L176.354 120.499C176.467 120.519 176.58 120.526 176.691 120.526C177.175 120.526 177.645 120.349 178.017 120.019C178.474 119.614 178.723 119.028 178.697 118.415L177.838 96.5637L242.16 96.366C242.032 103.017 241.866 111.445 241.693 119.992L207.159 119.439L207.515 96.7716L206.97 96.7589ZM160.937 117.804C160.796 117.809 160.698 117.703 160.683 117.655L160.834 117.627H160.932L161.16 117.67C161.123 117.733 161.047 117.799 160.937 117.804ZM178.155 118.435C178.173 118.881 177.992 119.307 177.66 119.604C177.329 119.9 176.886 120.027 176.452 119.954L161.009 117.079L160.987 117.074L114.624 116.582L114.936 96.7538L177.298 96.5612L178.155 118.435ZM160.645 117.624C160.565 118.2 160.577 119.703 160.653 123.672C160.701 126.113 161.984 127.476 164.272 127.512L186.851 127.874C186.873 127.874 186.898 127.874 186.921 127.874C188.049 127.874 189.021 127.441 189.734 126.62C190.415 125.837 190.802 124.749 190.819 123.555C190.86 121.043 191.766 119.769 193.515 119.769C193.535 119.769 193.555 119.769 193.572 119.769L206.601 119.976L241.68 120.539C241.284 139.99 240.844 159.859 240.716 160.577L240.982 160.642L240.96 160.749L243.062 161.208L241.394 188.08C241.329 189.15 240.852 190.128 240.055 190.838C239.259 191.548 238.234 191.897 237.174 191.829L142.289 185.53C142.412 184.02 142.515 170.852 142.52 170.272V170.168L131.549 169.656L131.438 169.651L131.2 184.793L117.184 183.863C116.413 183.812 114.933 183.148 114.933 182.37L114.243 129.981L114.446 117.13L160.645 117.624ZM139.401 185.553L141.473 185.69L114.918 192.25L114.147 192.186L139.401 185.553ZM134.897 185.039L131.413 184.808L131.649 169.876L135.063 170.036C135.088 171.306 135.329 183.784 134.897 185.039ZM139.725 185.36L139.963 170.264L142.307 170.373C142.269 175.313 142.174 184.438 142.078 185.518L139.725 185.36ZM111.698 194.08C111.731 193.93 111.869 193.75 112.055 193.563L113.61 193.697L113.574 193.74L113.612 205.759L111.625 205.587C111.62 204.92 111.56 194.701 111.698 194.08ZM112.266 193.365C112.743 192.952 113.384 192.544 113.675 192.364L114.627 192.442L113.77 193.492L112.266 193.365ZM113.868 193.717L216.485 202.5C216.482 202.545 216.48 202.591 216.48 202.637L216.525 214.712L113.826 205.777L113.788 193.814L113.868 193.717ZM216.507 202.287L114.032 193.517L114.871 192.485L114.933 192.47L217.201 201.025C216.839 201.349 216.588 201.793 216.507 202.287ZM115.589 192.308L142.181 185.738L237.164 192.044C237.257 192.049 237.35 192.055 237.443 192.055C238.46 192.055 239.43 191.687 240.201 191.003C241.042 190.257 241.542 189.226 241.613 188.098L243.286 161.177C243.466 161.018 244.504 160.153 245.694 160.288C246.365 160.364 246.97 160.744 247.498 161.421C247.179 161.781 246.975 162.242 246.95 162.744L245.677 187.872C245.526 190.83 243.527 193.355 240.703 194.153L218.035 200.571C217.826 200.629 217.635 200.721 217.459 200.835L115.589 192.308ZM245.712 160.07C244.438 159.93 243.366 160.81 243.147 161.005L241.264 160.592C241.404 158.939 241.753 143.577 242.077 128.052C242.404 128.703 242.934 129.682 243.652 130.736C244.745 132.34 245.89 133.567 247.076 134.414C246.857 136.201 245.772 146.839 250.231 152.387C251.861 154.417 254.061 155.555 256.766 155.784L256.761 157.33C256.736 159.413 255.387 159.591 254.405 159.722C254.159 159.755 253.943 159.783 253.777 159.842L248.359 160.83L248.312 160.843C248.06 160.939 247.839 161.086 247.646 161.261C247.086 160.554 246.438 160.151 245.712 160.07ZM250.396 152.255C246.076 146.877 247.031 136.616 247.274 134.556C247.839 134.938 248.415 135.233 248.995 135.438C250.982 136.142 252.908 136.338 254.44 136.338C255.626 136.338 256.573 136.221 257.128 136.13C256.987 136.485 256.839 136.997 256.824 137.58L256.769 155.571C254.129 155.345 251.986 154.232 250.396 152.255ZM95.5825 51.0767C95.5901 50.1921 96.3034 49.0338 97.0896 48.9958L224.118 42.6794L224.126 42.7681C224.138 42.7656 225.472 42.6642 226.087 43.2218C226.278 43.3942 226.374 43.6147 226.379 43.891C226.439 46.7374 226.64 52.9828 226.874 60.2142C227.306 73.6099 227.843 90.2829 227.778 94.5943C227.765 95.4485 225.683 95.8033 225.153 95.8186V95.8363L208.04 95.9174L119.678 96.1886C148.493 95.5854 219.233 94.1153 223.277 94.1153C223.319 94.1153 223.355 94.1153 223.382 94.1153C223.937 94.1203 224.492 93.8669 224.944 93.3979C225.404 92.9214 225.713 92.265 225.695 91.8011C225.552 88.027 225.442 81.5231 225.311 73.9901C225.16 65.2429 224.99 55.3274 224.726 47.181V47.1455C224.691 46.0353 224.646 44.6539 222.802 44.6235C222.799 44.6235 222.794 44.6235 222.789 44.6235C220.619 44.6235 100.149 51.0058 99.315 51.0767C97.0419 51.2694 96.9766 53.7837 96.9766 53.8142C97.0218 55.0004 97.8758 77.9467 98.3405 87.4516L96.9163 87.3705L95.5825 51.0767ZM96.5872 95.8819L95.2158 93.0304L96.635 87.9053L96.7882 87.9155C97.4488 87.9941 97.8582 88.027 98.1144 88.0346C98.1018 88.1664 98.0968 88.2957 98.0893 88.4249L96.5646 93.2459L98.1069 95.9047L96.5872 95.8819ZM99.1141 94.8858L98.3204 95.8464L96.7982 93.2205L98.0667 89.2082C98.0767 91.9861 98.9935 93.8897 99.3477 94.5208L99.1141 94.8858ZM108.252 96.1785L103.156 95.375L103.133 95.3725H103.11C101.882 95.3877 100.827 95.1747 99.943 94.7439L100.051 94.6146L99.938 94.4422C99.9254 94.4245 99.089 93.1166 98.7524 90.9393C98.7172 90.473 98.672 89.7227 98.6218 88.7519C98.6318 88.4325 98.6544 88.1056 98.6921 87.7659L98.7248 87.477L98.5565 87.4668C98.0843 77.8123 97.2001 54.1006 97.1901 53.8142C97.1926 53.7178 97.2554 51.4696 99.3326 51.2922C101.674 51.0945 221.345 44.8389 222.792 44.8389C222.794 44.8389 222.797 44.8389 222.797 44.8389C224.437 44.8643 224.475 46.0277 224.51 47.1531V47.1886C224.774 55.335 224.944 65.248 225.095 73.9951C225.226 81.5281 225.336 88.0346 225.479 91.8113C225.492 92.1585 225.261 92.7643 224.791 93.2509C224.502 93.55 224.03 93.9023 223.405 93.9023C223.397 93.9023 223.392 93.9023 223.385 93.9023C220.252 93.8618 119.51 95.9782 108.571 96.2089C108.465 96.1911 108.36 96.1785 108.252 96.1785ZM109.917 157.903L109.965 154.798C110.97 154.815 112.326 154.838 112.884 154.856L112.901 157.951C112.351 157.994 110.761 158.098 109.917 157.903ZM101.739 183.759L106.562 183.835L106.521 183.695C106.519 183.683 106.175 182.458 106.737 181.667C107.212 180.998 110.653 180.504 112.54 180.413C111.748 182.448 110.023 184.025 107.8 184.554L101.669 186.017C101.691 185.523 101.729 184.552 101.739 183.759ZM87.7633 189.903L107.928 185.092C110.41 184.499 112.326 182.702 113.137 180.398C113.152 180.398 113.17 180.398 113.185 180.398L113.188 180.243C113.434 179.493 113.567 178.692 113.562 177.863L113.306 131.861C113.301 131.06 112.861 130.336 112.155 129.968C111.645 129.704 111.319 129.18 111.301 128.602L110.374 98.2544C110.349 97.4458 109.872 96.7488 109.196 96.4066C110.359 96.3812 112.125 96.3458 114.391 96.2976L114.067 116.851L114.235 116.854L114.029 129.983L114.72 182.372C114.72 183.28 116.31 184.02 117.169 184.078L130.609 184.97L104.899 191.363L104.856 191.373L104.836 191.406L87.5699 189.961C87.6327 189.941 87.6955 189.918 87.7633 189.903ZM87.2158 190.151L104.713 191.613L104.085 192.665L86.5728 191.165C86.6481 190.754 86.8792 190.389 87.2158 190.151ZM86.5602 191.659C86.5476 191.565 86.5451 191.472 86.5476 191.38L103.959 192.871L103.932 192.919L104.273 204.948L87.9643 203.529C87.3589 198.267 86.8465 193.841 86.5602 191.659ZM87.9894 203.747L216.522 214.93L216.53 216.679C215.535 216.458 211.67 215.999 196.689 214.631C186.019 213.655 171.142 212.355 152.464 210.763C121.469 208.122 90.0717 205.539 88.213 205.387L88.0572 204.337C88.0346 204.14 88.012 203.942 87.9894 203.747ZM208.055 256.384L98.5615 242.21C95.2912 241.754 92.2871 238.92 91.8651 235.897C90.8754 228.805 89.396 215.951 88.2029 205.602C92.0635 205.919 211.265 215.726 216.53 216.874L216.648 248.722C216.656 250.937 215.716 253.051 214.073 254.519C212.428 255.986 210.235 256.668 208.055 256.384ZM213.569 255.606C213.87 255.403 214.161 255.178 214.435 254.932C216.198 253.358 217.206 251.094 217.196 248.719L217.073 215.487C217.258 215.442 217.545 215.371 217.919 215.277C237.566 210.383 241.711 209.574 242.301 209.574C242.306 209.574 242.311 209.574 242.316 209.574C242.376 210.885 241.61 230.969 241.279 239.648C241.171 242.502 241.098 244.39 241.095 244.535C241.06 246.745 240.977 247.209 239.425 247.863C228.155 251.239 218.203 254.217 213.569 255.606ZM304.098 157.606C304.033 161.763 300.632 165.139 296.515 165.139C296.51 165.139 296.505 165.139 296.498 165.139L286.978 165.119L290.55 163.37L290.51 163.286L290.68 163.296L292.25 133.349L292.037 133.339L290.469 163.208L290.314 162.873L270.036 172.348L291.831 196.414L290.959 227.707C290.879 230.556 289.008 233.015 286.3 233.826C277.446 236.48 257.588 242.426 240.462 247.556C241.186 247.016 241.286 246.291 241.314 244.54C241.316 244.398 241.387 242.512 241.497 239.658C242.087 224.164 242.62 209.779 242.522 209.463C242.459 209.267 242.366 208.971 217.874 215.072C217.532 215.158 217.263 215.224 217.078 215.269L217.03 202.639C217.027 201.927 217.502 201.293 218.18 201.101L240.849 194.683C243.901 193.819 246.061 191.094 246.222 187.898L247.495 162.769C247.525 162.148 247.915 161.603 248.485 161.372L253.9 160.384L253.948 160.371C254.056 160.328 254.262 160.303 254.478 160.275C255.458 160.146 257.279 159.905 257.311 157.34L257.372 137.59C257.389 136.878 257.65 136.274 257.773 136.026C258.507 135.93 259.228 135.192 259.519 134.857C260.006 134.3 260.531 133.471 260.541 132.822L261.142 123.294C262.101 123.953 264.498 125.596 265.146 125.986L265.203 126.022L265.269 126.027C265.286 126.027 265.429 126.037 265.686 126.055C269.099 127.362 289.359 132.622 291.828 133.261L291.861 133.268L301.335 129.474L301.258 129.274L291.846 133.043C282.939 130.736 270.199 127.34 266.439 126.103C271.104 126.402 288.565 127.512 297.688 127.912C301.541 128.082 304.513 131.263 304.45 135.156L304.098 157.606Z" fill="#E9EEF1"/>
<path d="M119.015 168.135L188.453 171.286C188.486 171.288 188.521 171.288 188.554 171.288C189.687 171.288 190.769 170.444 191.337 169.111L191.359 169.06L191.714 135.767C191.847 134.49 191.445 133.058 190.711 132.199C190.34 131.76 189.913 131.519 189.476 131.499L118.696 130.105C118.071 130.077 117.32 130.298 116.704 130.695C116.001 131.152 115.596 131.747 115.569 132.384L115.456 164.295C115.453 164.368 115.448 164.447 115.443 164.528C115.401 165.235 115.338 166.305 116.056 167.098C116.644 167.745 117.613 168.084 119.015 168.135ZM115.993 164.559C115.998 164.475 116.003 164.394 116.006 164.305L116.119 132.394C116.139 131.958 116.46 131.509 117.001 131.157C117.518 130.822 118.156 130.627 118.681 130.652L189.46 132.046C189.81 132.062 190.109 132.33 190.299 132.553C190.932 133.296 191.289 134.599 191.171 135.717L190.817 168.938C190.317 170.069 189.403 170.776 188.481 170.73L127.153 167.95C125.078 167.613 120.957 166.961 119.655 166.878L119.806 163.119L121.502 163.342C121.379 165.6 121.456 165.692 121.492 165.73L121.527 165.762L121.567 165.768H121.569L121.562 165.935L123.082 166.006C124.538 166.242 126.714 166.594 128.1 166.819L128.133 166.607C127.653 166.528 126.319 166.31 124.978 166.095L155.793 167.542C155.813 167.542 155.835 167.542 155.855 167.542C156.734 167.542 157.696 167.245 158.44 166.743C159.314 166.153 159.804 165.349 159.816 164.48L160.042 136.226C160.058 135.319 159.766 134.383 159.244 133.658C158.664 132.852 157.87 132.401 157.011 132.389L148.925 132.112V132.102L148.712 132.1V132.107L120.457 131.139C120.442 131.139 120.427 131.139 120.412 131.139C119.558 131.139 118.676 131.522 117.988 132.193C117.287 132.878 116.88 133.773 116.865 134.652L116.651 162.239C116.626 163.78 117.897 165.365 119.485 165.773L119.432 167.083L119.537 167.088C120.396 167.126 123.061 167.524 125.234 167.864L119.035 167.582C117.802 167.539 116.935 167.25 116.46 166.726C115.9 166.102 115.953 165.245 115.993 164.559ZM117.814 133.301C117.963 133.048 118.151 132.807 118.372 132.589C118.485 132.477 118.606 132.378 118.729 132.287L118.382 154.215L117.586 154.189L117.915 133.304L117.814 133.301ZM157.136 155.451L156.232 155.424L156.586 132.931L156.998 132.946C157.166 132.949 157.33 132.974 157.49 133.017L157.136 155.451ZM157.701 133.088C158.01 133.212 158.297 133.413 158.55 133.686L158.206 155.487L157.347 155.459L157.701 133.088ZM156.019 155.416L155.132 155.388L155.486 132.893L156.373 132.923L156.019 155.416ZM154.921 155.381L154.047 155.353L154.401 132.855L155.275 132.885L154.921 155.381ZM153.833 155.345L152.947 155.317L153.301 132.817L154.188 132.847L153.833 155.345ZM152.733 155.312L151.847 155.284L152.201 132.781L153.087 132.812L152.733 155.312ZM151.636 155.277L150.749 155.249L151.103 132.743L151.99 132.774L151.636 155.277ZM150.535 155.241L149.661 155.213L150.015 132.705L150.89 132.736L150.535 155.241ZM149.448 155.206L148.561 155.178L148.915 132.667L149.802 132.698L149.448 155.206ZM148.35 155.17L147.546 155.145L147.901 132.632L148.704 132.66L148.35 155.17ZM147.333 155.14L146.446 155.112L146.8 132.596L147.687 132.627L147.333 155.14ZM146.233 155.104L145.359 155.076L145.713 132.558L146.587 132.589L146.233 155.104ZM145.148 155.069L144.261 155.041L144.615 132.52L145.502 132.551L145.148 155.069ZM144.047 155.033L143.251 155.008L143.605 132.485L144.402 132.513L144.047 155.033ZM143.04 155.003L142.154 154.975L142.508 132.449L143.394 132.48L143.04 155.003ZM141.94 154.967L141.066 154.939L141.42 132.411L142.294 132.442L141.94 154.967ZM140.852 154.932L139.966 154.904L140.32 132.373L141.207 132.404L140.852 154.932ZM139.755 154.896L138.946 154.871L139.3 132.338L140.109 132.366L139.755 154.896ZM138.732 154.863L137.846 154.836L138.2 132.3L139.087 132.33L138.732 154.863ZM137.632 154.83L136.758 154.803L137.112 132.264L137.986 132.295L137.632 154.83ZM136.545 154.795L135.658 154.767L136.012 132.226L136.899 132.257L136.545 154.795ZM135.447 154.76L134.643 154.734L134.997 132.191L135.801 132.219L135.447 154.76ZM134.784 132.183L134.43 154.727L133.543 154.699L133.897 132.153L134.832 132.186L134.784 132.183ZM133.33 154.691L132.456 154.663L132.81 132.115L133.684 132.145L133.33 154.691ZM132.245 154.658L131.358 154.63L131.712 132.079L132.599 132.11L132.245 154.658ZM131.144 154.623L130.348 154.597L130.702 132.13L130.489 132.128L130.135 154.59L129.248 154.562L129.602 132.006L131.496 132.072L131.144 154.623ZM129.037 154.554L128.163 154.526L128.517 131.968L129.391 131.998L129.037 154.554ZM128.306 131.963L127.952 154.521L127.065 154.493L127.419 131.932L128.429 131.968L128.306 131.963ZM126.852 154.486L126.184 154.466L126.538 131.902L127.206 131.925L126.852 154.486ZM125.97 154.458L125.083 154.43L125.438 131.864L126.324 131.894L125.97 154.458ZM124.87 154.422L123.996 154.395L124.353 131.826L125.227 131.856L124.87 154.422ZM123.785 154.387L122.898 154.359L123.255 131.788L124.142 131.818L123.785 154.387ZM122.685 154.351L121.881 154.326L122.235 131.806L122.022 131.803L121.667 154.321L120.781 154.293L121.137 131.717L123.039 131.783L122.685 154.351ZM120.57 154.286L119.696 154.258L120.05 131.722C120.183 131.702 120.314 131.689 120.444 131.694L120.924 131.709L120.57 154.286ZM119.482 154.25L118.596 154.222L118.942 132.14C119.226 131.963 119.53 131.831 119.834 131.76L119.482 154.25ZM117.375 154.184L117.279 154.182L117.262 154.709L125.963 154.985V155.013L126.176 155.016V154.993L129.029 155.084V155.127L129.243 155.13V155.089L132.237 155.185V155.256L132.451 155.259V155.19L138.725 155.391H138.743L145.14 155.596V155.606L145.354 155.609V155.604L156.014 155.943V155.956L156.227 155.958V155.948L159.236 156.045L159.254 155.517L158.427 155.492L158.766 133.935C158.779 133.953 158.794 133.968 158.807 133.985C159.259 134.617 159.512 135.43 159.5 136.224L159.274 164.477C159.264 165.159 158.859 165.803 158.141 166.29C157.47 166.743 156.594 167.007 155.815 166.994L121.65 165.39C121.642 164.974 121.675 164.074 121.723 163.258L121.728 163.159L119.605 162.878L119.512 165.205C118.231 164.817 117.184 163.494 117.204 162.249L117.417 134.662C117.423 134.279 117.523 133.889 117.701 133.522L117.375 154.184Z" fill="#E9EEF1"/>
<path d="M206.292 184.555L234.547 186.053C234.605 186.058 234.663 186.06 234.72 186.06C235.476 186.06 236.323 185.693 237.016 185.051C237.586 184.527 237.93 183.924 237.938 183.442L239.098 130.212C239.149 127.071 239.184 124.803 236.313 124.757L208.789 124.318C208.158 124.313 206.217 124.544 205.026 125.725C204.388 126.359 204.061 127.157 204.059 128.098L203.225 181.123V181.13C203.21 182.05 203.177 184.504 206.292 184.555ZM203.77 181.135V181.13L204.604 128.1C204.606 127.309 204.878 126.643 205.408 126.118C206.443 125.092 208.181 124.868 208.751 124.868C208.761 124.868 208.771 124.868 208.779 124.868L236.303 125.307C238.533 125.342 238.604 126.833 238.551 130.199L237.39 183.429C237.385 183.754 237.094 184.23 236.647 184.641C236.009 185.229 235.24 185.548 234.58 185.498L206.307 183.997C203.732 183.962 203.758 182.053 203.77 181.135Z" fill="#E9EEF1"/>
<path d="M185.008 174.798L164.258 173.534C163.115 173.463 162.008 173.848 161.146 174.619C160.287 175.387 159.775 176.449 159.704 177.604L159.556 180.086C159.486 181.242 159.868 182.357 160.631 183.226C161.392 184.093 162.445 184.61 163.59 184.681L184.34 185.946C184.428 185.951 184.516 185.954 184.604 185.954C185.654 185.954 186.656 185.571 187.449 184.861C188.308 184.093 188.821 183.031 188.891 181.875L189.039 179.394C189.185 177.004 187.377 174.943 185.008 174.798ZM176.875 175.037C177.294 175.044 177.686 175.217 177.98 175.521C178.274 175.825 178.432 176.228 178.425 176.651L178.354 181.097C178.332 182.575 177.709 182.679 176.754 182.661C176.722 182.661 176.689 182.653 176.656 182.651C176.737 182.593 176.815 182.532 176.887 182.461C177.262 182.096 177.473 181.607 177.48 181.084L177.551 176.639C177.558 176.117 177.365 175.622 177 175.245C176.928 175.169 176.85 175.103 176.769 175.042C176.805 175.039 176.84 175.037 176.875 175.037ZM176.493 174.857C176.491 174.857 176.488 174.859 176.486 174.859C176.483 174.859 176.48 174.857 176.48 174.857H176.493ZM175.629 175.174C176.006 175.179 176.36 175.336 176.626 175.612C176.892 175.888 177.033 176.251 177.028 176.631L176.958 181.077C176.953 181.457 176.797 181.814 176.523 182.083C176.249 182.349 175.893 182.489 175.513 182.489C174.73 182.476 174.102 181.822 174.114 181.031L174.185 176.585C174.197 175.802 174.833 175.174 175.604 175.174C175.614 175.174 175.621 175.174 175.629 175.174ZM164.344 174.117L174.948 174.763C174.692 174.857 174.459 175.001 174.255 175.199C174.009 175.44 173.833 175.736 173.74 176.061L164.371 175.458L164.356 175.683L173.69 176.284C173.675 176.38 173.662 176.476 173.662 176.578L173.592 181.024C173.587 181.292 173.637 181.553 173.738 181.797L164.236 181.062L164.344 174.117ZM161.061 182.844C160.4 182.091 160.068 181.125 160.129 180.121L160.277 177.64C160.337 176.636 160.782 175.716 161.525 175.049C162.246 174.403 163.168 174.076 164.13 174.109L164.02 181.11L161.518 183.279C161.357 183.148 161.201 183.006 161.061 182.844ZM187.073 184.43C186.327 185.097 185.367 185.426 184.375 185.371L163.625 184.106C162.919 184.063 162.256 183.819 161.691 183.416L164.16 181.275L173.846 182.022C173.926 182.164 174.024 182.299 174.14 182.42C174.501 182.798 174.986 183.011 175.503 183.018C175.513 183.018 175.524 183.018 175.534 183.018C175.822 183.018 176.104 182.952 176.357 182.831C176.483 182.861 176.614 182.879 176.747 182.882C176.792 182.882 176.837 182.882 176.88 182.882C177.505 182.882 178.048 182.795 178.337 182.238L188.06 183.001C187.854 183.541 187.52 184.032 187.073 184.43ZM188.472 179.358L188.324 181.84C188.303 182.167 188.241 182.484 188.14 182.788L178.432 182.025C178.515 181.787 178.563 181.485 178.57 181.1L178.641 176.654C178.641 176.631 178.638 176.606 178.638 176.583L185.925 177.044C187.007 177.11 187.949 177.736 188.449 178.666C188.474 178.892 188.484 179.123 188.472 179.358ZM185.935 176.821L178.616 176.357C178.515 175.683 178.043 175.125 177.412 174.913L184.973 175.374C186.583 175.473 187.892 176.596 188.321 178.073C187.751 177.348 186.894 176.879 185.935 176.821Z" fill="#E9EEF1"/>
<path d="M93.1514 211.217L95.1859 222.899L97.0195 236.077L209.924 249.442L210.273 249.483L207.952 221.984L93.1514 211.217ZM95.9369 224.126L101.222 224.686L101.95 229.487L102.234 229.444L102.204 229.732L104.065 229.938L105.293 232.465L105.278 232.604L105.366 232.614L105.374 232.63L97.5118 235.423L95.9369 224.126ZM209.643 248.824L98.5417 235.671L102.867 234.135L102.864 234.148L209.399 245.964L209.643 248.824ZM209.352 245.376L104.093 233.699L105.869 233.068L105.773 232.794L105.997 232.685L209.269 244.368L209.352 245.376ZM209.249 244.15L105.929 232.462L105.288 231.142L209.141 242.87L209.249 244.15ZM209.12 242.649L105.178 230.911L104.743 230.014L209.033 241.562L209.12 242.649ZM208.98 240.974L102.485 229.18L101.812 224.749L208.565 236.072L208.98 240.974ZM95.854 223.535L95.7536 222.808L93.8471 211.866L207.423 222.516L208.518 235.484L95.854 223.535Z" fill="#E9EEF1"/>
<path d="M163.108 168.664L187.316 169.719H187.319C187.326 169.719 187.334 169.719 187.341 169.719C187.917 169.719 188.487 169.366 188.949 168.725C189.363 168.152 189.625 167.415 189.635 166.799L189.697 162.774C189.725 162.754 189.753 162.736 189.78 162.716L189.7 162.604L190.011 142.778L190.062 142.697C190.047 142.687 190.029 142.677 190.014 142.669L190.084 138.223L190.099 138.2C190.094 138.198 190.089 138.193 190.084 138.19L190.124 135.666C190.135 135.057 189.906 134.477 189.484 134.036C189.062 133.595 188.494 133.346 187.894 133.336L163.68 132.505C162.42 132.497 161.387 133.965 161.367 135.202L160.877 166.338C160.867 166.946 161.096 167.526 161.518 167.965C161.942 168.408 162.507 168.657 163.108 168.664ZM181.64 163.628C177.988 163.57 174.619 162.089 172.15 159.458C169.721 156.871 168.415 153.459 168.47 149.855C168.498 148.156 168.855 146.519 169.508 145.008C169.822 145.16 170.193 145.315 170.618 145.475C169.985 146.874 169.638 148.392 169.613 149.969C169.561 153.251 170.786 156.356 173.064 158.713C175.378 161.109 178.538 162.457 181.956 162.513C182.009 162.513 182.062 162.513 182.117 162.513C184.438 162.513 186.867 161.707 189.346 160.12L189.328 161.223C188.195 161.948 184.606 163.679 181.64 163.628ZM189.326 161.479L189.313 162.277C186.899 164.034 184.066 164.938 181.107 164.89C173.419 164.766 167.265 158.163 167.39 150.171C167.423 148.164 167.845 146.228 168.616 144.451C168.769 144.598 169.008 144.752 169.317 144.912C168.649 146.453 168.285 148.121 168.257 149.852C168.199 153.512 169.525 156.977 171.994 159.608C174.501 162.28 177.927 163.785 181.635 163.846C181.675 163.846 181.718 163.846 181.758 163.846C184.659 163.843 188.077 162.239 189.326 161.479ZM181.961 162.297C178.598 162.244 175.493 160.916 173.218 158.564C170.98 156.247 169.774 153.195 169.827 149.974C169.852 148.395 170.201 146.902 170.814 145.548C171.155 145.675 171.527 145.802 171.922 145.931C171.299 147.201 170.962 148.582 170.939 150.019C170.894 152.949 172.055 155.722 174.212 157.829C176.4 159.965 179.387 161.172 182.617 161.225C182.662 161.225 182.705 161.225 182.75 161.225C185.42 161.225 187.517 159.94 189.371 158.774L189.353 159.867C186.811 161.514 184.335 162.333 181.961 162.297ZM170.638 141.105C170.934 140.737 171.251 140.383 171.585 140.043C171.284 140.375 170.962 140.735 170.638 141.105ZM182.619 161.005C179.442 160.954 176.508 159.77 174.361 157.669C172.248 155.606 171.108 152.889 171.153 150.019C171.176 148.605 171.51 147.244 172.128 145.994C172.63 146.154 173.167 146.316 173.733 146.478C173.193 147.606 172.896 148.833 172.876 150.106C172.833 152.757 173.886 155.269 175.837 157.175C177.819 159.111 180.522 160.201 183.446 160.249C183.486 160.249 183.526 160.249 183.564 160.249C185.885 160.249 187.738 159.159 189.376 158.133L189.371 158.513C187.487 159.702 185.35 161.05 182.619 161.005ZM183.451 160.034C180.58 159.988 177.93 158.919 175.988 157.02C174.079 155.155 173.049 152.701 173.09 150.108C173.11 148.853 173.404 147.647 173.941 146.537C174.398 146.666 174.87 146.795 175.358 146.925C174.926 147.908 174.69 148.97 174.672 150.068C174.592 155.152 178.678 159.202 183.973 159.289C184.008 159.289 184.043 159.289 184.079 159.289C186.138 159.289 187.894 158.323 189.391 157.362L189.384 157.877C187.713 158.929 185.822 160.069 183.451 160.034ZM183.976 159.096C178.786 159.012 174.783 155.048 174.86 150.073C174.878 148.99 175.114 147.944 175.544 146.975C176.043 147.107 176.553 147.239 177.068 147.368C176.784 148.177 176.624 149.046 176.609 149.959C176.536 154.65 179.881 158.11 184.566 158.184C184.601 158.184 184.639 158.184 184.674 158.184C186.221 158.184 187.881 157.654 189.399 156.683L189.391 157.132C187.871 158.115 186.083 159.129 183.976 159.096ZM184.679 158.009C184.644 158.009 184.609 158.009 184.573 158.009C179.989 157.935 176.714 154.551 176.787 149.961C176.802 149.064 176.96 148.207 177.242 147.411C177.586 147.497 177.932 147.584 178.281 147.667C178.068 148.309 177.947 148.99 177.937 149.703C177.907 151.599 178.691 154.354 181.002 155.882C181.833 156.432 183.024 156.914 184.646 156.914C185.945 156.914 187.527 156.599 189.416 155.771L189.406 156.47C187.892 157.461 186.229 158.009 184.679 158.009ZM177.287 144.458C177.437 144.309 177.591 144.162 177.754 144.022C179.575 142.446 181.996 141.604 184.556 141.642C185.385 141.655 186.158 141.817 186.879 142.063C186.384 141.926 185.865 141.84 185.314 141.83C185.264 141.83 185.211 141.83 185.161 141.83C182.285 141.83 179.776 143.14 178.231 145.193C177.897 144.948 177.581 144.702 177.287 144.458ZM181.085 155.753C178.826 154.26 178.06 151.56 178.088 149.705C178.098 149.006 178.219 148.334 178.43 147.703C178.842 147.802 179.253 147.9 179.665 147.997C179.555 148.402 179.495 148.813 179.487 149.226C179.457 151.16 180.072 152.881 181.225 154.07C182.335 155.218 183.855 155.806 185.739 155.821C185.772 155.821 185.804 155.821 185.837 155.821C187.314 155.821 188.517 155.542 189.431 154.997L189.421 155.601C185.189 157.476 182.554 156.726 181.085 155.753ZM185.741 155.606C183.915 155.591 182.446 155.023 181.378 153.918C180.268 152.77 179.673 151.104 179.703 149.229C179.708 148.831 179.768 148.433 179.876 148.045C180.426 148.172 180.972 148.298 181.512 148.42C181.484 148.605 181.464 148.79 181.461 148.978C181.421 151.451 182.255 153.18 183.935 154.12C184.933 154.678 186.111 154.863 187.153 154.863C188.125 154.863 188.974 154.701 189.441 154.526L189.439 154.747C188.535 155.319 187.264 155.618 185.741 155.606ZM189.439 154.321C188.655 154.638 186.035 155.081 184.021 153.953C182.406 153.051 181.605 151.375 181.645 148.978C181.647 148.805 181.665 148.63 181.69 148.458C185.262 149.259 188.437 149.888 189.507 150.095L189.439 154.321ZM189.507 150.073C186.472 149.302 183.996 148.387 181.981 147.411C182.26 146.732 182.702 146.088 183.29 145.543C184.327 144.58 185.686 144.035 187.007 144.06C188.015 144.076 188.871 144.507 189.587 144.95L189.507 150.073ZM189.589 144.732C188.871 144.296 188.017 143.888 187.01 143.873C185.643 143.853 184.237 144.41 183.164 145.406C182.562 145.966 182.104 146.631 181.816 147.33C181.351 147.102 180.909 146.869 180.492 146.633C180.826 146.091 181.255 145.586 181.773 145.145C183.051 144.055 184.719 143.442 186.349 143.47C187.628 143.49 188.703 144.073 189.592 144.651L189.589 144.732ZM189.594 144.4C188.7 143.83 187.628 143.275 186.352 143.254C184.676 143.229 182.951 143.858 181.632 144.981C181.095 145.439 180.648 145.964 180.303 146.527C179.964 146.331 179.638 146.136 179.329 145.939C180.683 144.05 183.014 142.846 185.701 142.894C187.231 142.92 188.522 143.597 189.594 144.286V144.4ZM189.6 144.109C188.524 143.424 187.233 142.768 185.706 142.742C185.659 142.742 185.611 142.742 185.563 142.742C182.883 142.742 180.56 143.964 179.203 145.86C178.914 145.672 178.638 145.485 178.374 145.297C179.886 143.287 182.343 142.007 185.161 142.007C185.211 142.007 185.262 142.007 185.312 142.007C186.995 142.035 188.419 142.801 189.607 143.589L189.6 144.109ZM189.615 143.204C188.226 142.334 186.55 141.48 184.558 141.447C181.959 141.407 179.485 142.266 177.628 143.873C177.458 144.02 177.297 144.174 177.139 144.332C176.827 144.065 176.538 143.804 176.272 143.543C176.305 143.515 176.335 143.485 176.367 143.457C178.437 141.726 181.185 140.796 184.096 140.844C186.254 140.879 188.087 141.759 189.62 142.677L189.615 143.204ZM189.627 142.433C188.092 141.523 186.261 140.667 184.104 140.631C181.132 140.58 178.342 141.528 176.234 143.292C176.197 143.325 176.159 143.358 176.121 143.391C175.765 143.034 175.451 142.682 175.174 142.344C177.415 140.628 180.301 139.713 183.335 139.764C185.812 139.805 187.902 140.852 189.632 141.906L189.627 142.433ZM189.64 141.66C187.907 140.613 185.819 139.592 183.34 139.551C180.248 139.506 177.319 140.433 175.041 142.18C174.76 141.822 174.519 141.478 174.315 141.153C176.568 139.414 179.505 138.395 182.742 138.446C185.455 138.489 187.728 139.744 189.597 140.963L189.652 140.877L189.64 141.66ZM189.652 140.745C187.771 139.521 185.483 138.274 182.745 138.231C179.583 138.18 176.586 139.156 174.212 140.986C173.954 140.555 173.755 140.16 173.607 139.815C176.104 137.914 179.211 136.905 182.496 136.961C185.314 137.006 187.693 138.289 189.667 139.594L189.652 140.745ZM189.675 139.338C187.696 138.043 185.319 136.788 182.501 136.745C179.191 136.692 176.051 137.703 173.524 139.61C173.351 139.174 173.26 138.831 173.213 138.616C175.571 136.849 178.392 135.896 181.343 135.896C181.416 135.896 181.491 135.896 181.564 135.899C184.247 135.942 187.351 137.006 189.685 138.677L189.675 139.338ZM189.697 137.919C187.311 136.317 184.244 135.311 181.577 135.268C177.684 135.209 173.999 136.72 171.201 139.536C168.405 142.35 166.833 146.121 166.767 150.161C166.637 158.503 173.064 165.392 181.1 165.521C181.178 165.521 181.255 165.524 181.331 165.524C184.187 165.524 186.927 164.675 189.301 163.058L189.26 165.653C189.248 166.515 188.54 167.232 188.097 167.232C188.095 167.232 188.092 167.232 188.09 167.232L164.909 166.86C164.286 166.85 163.766 166.677 163.407 166.36C163.08 166.071 162.904 165.671 162.909 165.23L163.371 135.861C163.387 134.989 164.095 134.287 164.956 134.287C164.964 134.287 164.974 134.287 164.982 134.287L188.163 134.659C188.585 134.667 188.979 134.839 189.273 135.146C189.569 135.453 189.728 135.858 189.72 136.282L189.697 137.919ZM161.581 135.207C161.598 134.074 162.525 132.72 163.653 132.72C163.66 132.72 163.668 132.72 163.675 132.72L187.889 133.552C188.437 133.559 188.949 133.785 189.331 134.185C189.715 134.586 189.921 135.108 189.911 135.661L189.906 135.932C189.843 135.582 189.68 135.26 189.426 134.996C189.092 134.647 188.643 134.452 188.165 134.444L164.984 134.071C163.994 134.059 163.173 134.857 163.158 135.856L162.696 165.225C162.688 165.729 162.889 166.191 163.266 166.523C163.663 166.875 164.231 167.065 164.906 167.075L188.087 167.448C188.09 167.448 188.092 167.448 188.095 167.448C188.567 167.448 189.26 166.832 189.434 166.008L189.421 166.796C189.401 167.998 188.422 169.503 187.339 169.503C187.334 169.503 187.326 169.503 187.321 169.503L163.113 168.449C162.565 168.441 162.053 168.216 161.671 167.815C161.287 167.415 161.081 166.893 161.091 166.34L161.581 135.207Z" fill="#E9EEF1"/>
<path d="M168.327 176.524L165.557 177.842L168.053 179.863L168.068 178.932C168.068 178.932 169.827 178.922 170.02 178.963L170.07 177.483L168.423 177.346L168.327 176.524Z" fill="#E9EEF1"/>
<path d="M218.21 52.159C218.21 52.1286 218.205 52.1007 218.202 52.0703L218.253 52.0247C218.235 52.0044 218.213 51.9866 218.195 51.9664C218.157 51.4898 218.007 51.1122 217.738 50.8536C217.366 50.4963 216.896 50.476 216.713 50.4811L172.742 52.0247L172.649 52.0272C172.154 52.0424 171.328 52.0678 171.312 53.0943L172.023 82.912L172.033 82.9551C172.31 83.5508 172.784 83.9158 173.272 83.9158C173.284 83.9158 173.297 83.9158 173.309 83.9158L175.382 83.8853C175.402 83.8853 175.419 83.8879 175.442 83.8879C175.485 83.8879 175.53 83.8828 175.575 83.8828L187.102 83.713V83.7434L187.31 83.7383V83.7104L203.933 83.4646V83.4697L204.142 83.4646V83.462L217.484 83.2643C217.876 83.2567 218.195 83.1224 218.436 82.8639C218.926 82.3392 218.946 81.4445 218.933 81.0845L218.21 52.159ZM173.304 83.7028C172.807 83.7257 172.435 83.2973 172.239 82.8892L171.529 53.0994C171.541 52.3466 172.023 52.2705 172.656 52.2502L216.721 50.7041C216.879 50.699 217.276 50.7168 217.59 51.0159C217.781 51.1984 217.904 51.4569 217.959 51.7788C217.655 51.5938 217.336 51.5811 217.185 51.5862L214.864 51.6673V51.6242L214.656 51.6293V51.6749L174.631 53.0791L174.54 53.0816C174.063 53.0968 173.262 53.1222 173.247 54.1158L173.935 82.9754L173.945 83.0185C174.083 83.3176 174.286 83.5381 174.548 83.6851L173.304 83.7028ZM175.301 83.6724C174.749 83.6344 174.357 83.3961 174.141 82.9475L173.453 54.1132C173.465 53.3832 173.932 53.3097 174.543 53.292L174.791 53.2844L175.585 83.6699L175.301 83.6724ZM177.738 83.6369L176.946 53.2616L176.738 53.2666L177.529 83.6395L175.791 83.6648L174.997 53.2768L178.662 53.1475L179.448 83.6116L177.738 83.6369ZM181.52 83.5812L180.729 53.2083L180.521 53.2134L181.312 83.5837L179.654 83.6091L178.868 53.1399L184.396 52.9473L185.175 83.528L181.52 83.5812ZM188.759 83.4747L187.971 52.9169L187.762 52.9219L188.551 83.4773L187.305 83.495L186.526 52.8864L186.318 52.8915L187.097 83.4975L185.386 83.5229L184.607 52.9371L189.689 52.7597L190.477 83.3936L190.686 83.3885L189.897 52.7546L193.562 52.6254L194.346 83.3911L188.759 83.4747ZM198.337 83.3328L197.551 52.5443L197.342 52.5493L198.126 83.3378L194.549 83.3911L193.765 52.6203L199.294 52.4251L200.077 83.1934L200.286 83.1883L199.502 52.4175L203.124 52.2908L203.926 83.2517L198.337 83.3328ZM204.136 83.2491L203.333 52.2832L205.051 52.2224L205.855 83.2213L204.136 83.2491ZM206.066 83.2187L205.262 52.2148L206.997 52.1539L207.801 83.1934L206.066 83.2187ZM208.01 83.1908L207.206 52.1463L208.924 52.0855L209.72 83.163L208.01 83.1908ZM209.929 83.163L209.132 52.0804L210.778 52.0221L211.584 83.1376L209.929 83.163ZM211.795 83.1351L210.989 52.0145L212.707 51.9537L213.505 83.1097L211.795 83.1351ZM213.714 83.1072L212.915 51.9461L214.658 51.8853L215.457 83.0793L213.714 83.1072ZM215.668 83.0768L214.869 51.8777L216.577 51.8168L217.379 83.0514L215.668 83.0768ZM218.283 82.7194C218.105 82.9095 217.868 83.0134 217.587 83.0413L216.786 51.8118L217.193 51.7965C217.343 51.7889 217.695 51.8092 217.986 52.0576C217.989 52.0931 217.994 52.126 217.994 52.1615L218.72 81.0947C218.732 81.4293 218.715 82.2555 218.283 82.7194Z" fill="#E9EEF1"/>
<path d="M201.426 52.3891L201.218 52.3945L202.004 83.2498L202.212 83.2444L201.426 52.3891Z" fill="#E9EEF1"/>
<path d="M195.632 52.7104L195.424 52.7158L196.213 83.3532L196.422 83.3477L195.632 52.7104Z" fill="#E9EEF1"/>
<path d="M191.847 52.7641L191.639 52.7695L192.428 83.4069L192.637 83.4014L191.847 52.7641Z" fill="#E9EEF1"/>
<path d="M182.661 53.0452L182.452 53.0508L183.245 83.4626L183.453 83.4571L182.661 53.0452Z" fill="#E9EEF1"/>
<path d="M167.736 81.9459C167.724 81.8394 167.714 81.7507 167.711 81.6899L166.782 56.9034C166.759 56.1278 166.726 55.517 166.666 55.0328H166.706L166.701 54.8149L166.633 54.8174C166.397 53.3194 165.802 53.213 164.119 53.2383L103.522 54.7692C103.03 54.7591 102.638 54.9239 102.342 55.2534C101.633 56.0416 101.691 57.5675 101.787 58.4014L102.897 84.184C102.94 84.8987 103.954 86.0875 104.66 86.0875C104.673 86.0875 104.685 86.0875 104.698 86.0875L165.787 85.1547C166.435 85.2054 166.935 85.0534 167.274 84.696C167.465 84.4957 167.59 84.2448 167.673 83.9761H167.714L167.711 83.8393C167.874 83.1625 167.786 82.392 167.736 81.9459ZM103.113 84.1738L102.003 58.3837C101.91 57.5802 101.852 56.1227 102.503 55.4004C102.749 55.1266 103.08 54.9872 103.492 54.9872C103.502 54.9872 103.515 54.9872 103.525 54.9872L164.127 53.4538C165.689 53.4309 166.219 53.4766 166.427 54.8199L105.662 56.3407C105.168 56.3306 104.778 56.4953 104.482 56.8249C103.774 57.6131 103.831 59.139 103.927 59.9729L104.851 83.2512L103.186 84.4805C103.146 84.369 103.118 84.2651 103.113 84.1738ZM167.118 84.5439C166.824 84.8506 166.38 84.9824 165.8 84.9368H165.794L104.688 85.8695C104.256 85.8999 103.613 85.284 103.299 84.7137L167.445 83.9761C167.372 84.1941 167.269 84.3893 167.118 84.5439ZM167.508 83.7607L103.535 84.4957L104.999 83.4134L167.495 82.8634L167.492 82.6454L105.067 83.1955L104.143 59.9552C104.05 59.1517 103.992 57.6942 104.643 56.9719C104.896 56.6905 105.24 56.5486 105.665 56.5587L166.458 55.0379C166.515 55.5094 166.543 56.1202 166.566 56.911L167.495 81.7C167.5 81.7659 167.51 81.8597 167.523 81.9712C167.57 82.3945 167.653 83.1296 167.508 83.7607Z" fill="#E9EEF1"/>
<path d="M205.953 183.3C206.35 183.411 206.847 183.48 207.284 183.488L233.271 184.215C233.384 184.218 233.492 184.218 233.597 184.218C234.866 184.218 235.589 184.086 235.861 183.807C236.006 183.657 236.001 183.495 235.999 183.373C235.999 183.353 235.999 183.333 235.999 183.318L236.011 183.062C236.423 182.385 236.438 181.526 236.446 180.933L236.931 156.691C236.943 156.684 236.956 156.673 236.966 156.666L236.931 156.615L236.933 156.438C237.001 156.374 237.069 156.313 237.124 156.255L236.941 156.073L237.488 128.632C237.506 127.472 236.584 126.511 235.434 126.491L208.56 126.06C207.41 126.045 206.018 126.96 205.998 128.128L205.636 159.492L205.586 159.494C205.584 159.679 205.581 159.925 205.629 160.179L205.448 175.914L205.234 182.821C205.237 183.006 205.476 183.168 205.953 183.3ZM235.758 183.7C235.589 183.87 235.177 183.982 234.529 184.032C235.152 183.908 235.572 183.635 235.853 183.287V183.313C235.853 183.333 235.853 183.356 235.853 183.379C235.858 183.485 235.861 183.597 235.758 183.7ZM236.235 180.93C236.227 181.381 236.215 181.952 236.044 182.474L236.315 176.925L236.235 180.93ZM236.679 158.64H236.647C236.637 159.287 236.614 160.374 233.869 160.326L228.082 160.088C228.496 160.052 228.913 159.994 229.327 159.918C230.983 159.794 232.457 159.256 233.977 158.511C234.306 158.364 234.622 158.199 234.934 158.019C235.192 157.882 235.451 157.74 235.717 157.596L235.692 157.55C236.031 157.327 236.368 157.092 236.712 156.848L236.679 158.64ZM222.058 157.979C220.436 157.114 218.979 155.951 217.766 154.519C215.284 151.589 214.116 147.901 214.475 144.132C214.844 140.279 216.537 136.802 219.245 134.34C222.033 131.806 225.655 130.612 229.453 130.985C232.04 131.236 234.296 132.701 236.381 134.323C235.893 134.024 235.411 133.773 234.921 133.57C233.391 132.485 231.852 131.95 229.8 131.75C222.689 131.058 216.299 136.753 215.56 144.449C215.018 150.152 217.725 155.373 222.058 157.979ZM229.476 130.739C225.612 130.361 221.92 131.575 219.082 134.158C216.329 136.66 214.608 140.196 214.234 144.109C213.867 147.944 215.055 151.698 217.582 154.679C219.456 156.891 221.9 158.481 224.645 159.312C218.13 158.009 213.239 151.944 213.352 144.755C213.478 136.708 219.825 130.267 227.504 130.386C230.945 130.442 233.58 131.451 235.876 133.631C233.942 132.191 231.854 130.969 229.476 130.739ZM215.789 144.472C216.512 136.9 222.792 131.296 229.78 131.978C231.427 132.138 232.736 132.521 233.982 133.238C233.766 133.175 233.545 133.121 233.319 133.073C232.578 132.848 231.781 132.701 230.89 132.612C223.779 131.917 217.417 137.331 216.713 144.679C216.372 148.238 217.394 151.716 219.589 154.468C221.785 157.223 224.892 158.927 228.338 159.261C228.737 159.299 229.119 159.32 229.491 159.325C229.129 159.398 228.765 159.456 228.403 159.497C228.001 159.497 227.587 159.477 227.152 159.434C220.159 158.757 215.063 152.043 215.789 144.472ZM224.947 159.956L213.445 159.482L212.453 159.261C210.919 159.236 210.183 158.617 210.203 157.365L210.404 130.673C210.421 129.52 211.21 128.556 212.26 128.275L213.744 128.293L214.282 128.361C213.069 128.605 212.147 129.631 212.127 130.876L211.727 156.308C211.702 157.857 212.496 158.658 214.39 158.995L224.947 159.956ZM230.724 132.825C223.887 132.853 218.276 138.624 218.16 145.81C218.055 152.598 222.89 158.28 229.184 159.099C228.915 159.089 228.642 159.071 228.358 159.043C224.972 158.714 221.918 157.041 219.76 154.331C217.602 151.622 216.598 148.203 216.932 144.702C217.62 137.524 223.789 132.229 230.724 132.825ZM236.735 155.877C236.014 156.61 234.328 157.682 232.304 158.481C231.769 158.597 231.196 158.658 230.563 158.645C223.917 158.539 218.6 152.785 218.71 145.817C218.818 138.916 224.213 133.375 230.774 133.375C230.837 133.375 230.9 133.375 230.963 133.377C233.399 133.415 235.037 133.965 237.006 135.408C237.031 135.428 237.056 135.448 237.081 135.468L237.147 135.392L236.735 155.877ZM237.147 135.235C237.142 135.233 237.139 135.23 237.134 135.225L237.147 135.207V135.235ZM237.159 134.624C237.109 134.584 237.056 134.543 237.006 134.5L237.164 134.358L237.159 134.624ZM237.167 134.178C234.552 131.241 231.568 129.897 227.511 129.831C219.526 129.705 212.935 136.394 212.802 144.745C212.692 151.835 217.273 157.872 223.54 159.616L214.41 158.787C212.624 158.47 211.906 157.753 211.928 156.311L212.328 130.878C212.348 129.568 213.465 128.516 214.839 128.516C214.852 128.516 214.867 128.516 214.882 128.516L216.547 128.326L234.406 128.534C235.094 128.577 237.332 128.894 237.194 131.111L237.227 131.114L237.167 134.178ZM206.219 128.133C206.234 127.124 207.495 126.28 208.532 126.28C208.542 126.28 208.552 126.28 208.562 126.28L235.436 126.711C236.468 126.726 237.295 127.588 237.28 128.63L237.252 130.019C236.973 129.264 236.247 128.437 234.419 128.321L213.759 128.08L212.948 127.976C212.702 127.971 212.463 128.004 212.237 128.062L208.53 128.019C207.869 127.93 207.327 128.06 206.915 128.402C206.548 128.706 206.335 129.144 206.204 129.575L206.219 128.133ZM206.186 130.942L206.209 130.944L206.211 130.888C206.239 130.422 206.314 129.18 207.048 128.569C207.412 128.265 207.899 128.153 208.512 128.234L211.682 128.273C210.813 128.719 210.205 129.623 210.19 130.675L209.989 157.368C209.979 158.093 210.205 158.638 210.662 158.99C210.936 159.2 211.285 159.34 211.712 159.413L207.882 159.256C206.975 159.241 206.013 158.939 206.021 158.407L205.867 158.405L206.186 130.942ZM205.867 158.676C206.101 159.2 207.015 159.454 207.877 159.469L213.435 159.7L213.684 159.756L213.694 159.71L233.864 160.544C233.919 160.544 233.972 160.544 234.024 160.544C235.695 160.544 236.378 160.108 236.662 159.614L236.647 160.422H236.574C236.569 160.716 236.519 161.147 236.129 161.499C235.662 161.92 234.818 162.123 233.638 162.108L207.947 161.251C207.121 161.294 206.53 161.15 206.189 160.818C205.998 160.63 205.9 160.404 205.852 160.174L205.867 158.676ZM205.842 160.724C205.895 160.81 205.958 160.894 206.036 160.972C206.422 161.347 207.065 161.517 207.945 161.466L233.628 162.323C233.678 162.323 233.731 162.323 233.778 162.323C234.944 162.323 235.78 162.1 236.265 161.659C236.421 161.517 236.539 161.355 236.624 161.17L236.463 169.233C236.31 168.926 236.062 168.667 235.72 168.475C235.097 168.122 234.351 168.062 233.964 168.054L207.759 166.969C207.749 166.969 207.736 166.969 207.726 166.969C206.792 166.969 205.985 167.618 205.754 168.031L205.842 160.724ZM205.709 172.406L205.837 168.234C205.84 168.003 206.674 167.116 207.731 167.116C207.741 167.116 207.751 167.116 207.761 167.116L233.967 168.201C234.343 168.206 235.062 168.267 235.655 168.601C236.094 168.85 236.365 169.197 236.461 169.633L236.418 171.818L235.878 182.859C235.557 183.442 234.939 183.885 233.738 183.885C233.713 183.885 233.685 183.885 233.66 183.885L219.486 183.052L219.868 167.626L219.66 167.621L219.393 178.337L206.129 181.485L206.176 181.688L219.388 178.553L219.358 179.767L207.683 182.36H207.678C207.171 182.352 206.651 182.139 206.249 181.777C205.832 181.402 205.609 180.925 205.616 180.436L205.709 172.406ZM219.351 179.987L219.275 183.044L208.447 182.408L219.351 179.987ZM205.448 180.867C205.541 181.262 205.764 181.632 206.106 181.941C206.546 182.339 207.118 182.573 207.671 182.58L232.618 184.045L207.286 183.338C206.859 183.33 206.377 183.262 205.99 183.156C205.511 183.021 205.385 182.884 205.388 182.826L205.448 180.867Z" fill="#E9EEF1"/>
<path d="M226.098 139.848C226.927 138.738 227.956 137.765 229.232 137.136L229.315 137.09L229.29 137.017C229.258 136.923 229.242 136.875 224.555 137.934L224.518 137.942L224.5 137.975C224.465 138.036 221.031 144.139 222.727 148.129L222.85 148.42L222.89 148.106C222.898 148.055 223.307 145.004 224.776 142.028C224.699 142.236 224.621 142.454 224.548 142.682C224.088 144.104 223.681 146.134 224.362 147.733L224.485 148.025L224.525 147.711C224.533 147.647 225.382 141.306 229.355 139.349L229.436 139.306L229.411 139.232C229.378 139.138 229.368 139.108 226.098 139.848ZM222.77 147.766C221.446 144.01 224.367 138.571 224.631 138.097C225.985 137.79 227.866 137.374 228.733 137.207C227.565 137.876 226.618 138.834 225.847 139.906C225.821 139.911 225.799 139.917 225.774 139.922L225.736 139.929L225.718 139.962C225.716 139.967 225.6 140.17 225.432 140.515C223.624 143.351 222.943 146.727 222.77 147.766ZM224.405 147.366C223.629 145.019 224.97 141.848 225.583 140.593C225.698 140.413 225.819 140.236 225.942 140.061C226.906 139.843 228.172 139.564 228.851 139.427C225.656 141.351 224.628 146.086 224.405 147.366Z" fill="#E9EEF1"/>
<path d="M192.76 55.3327L192.547 55.3398L193.331 79.1007L193.545 79.0935L192.76 55.3327Z" fill="#E9EEF1"/>
<path d="M196.566 54.1934L196.353 54.1992L197.083 81.289L197.296 81.2831L196.566 54.1934Z" fill="#E9EEF1"/>
<path d="M200.59 54.897L200.377 54.9033L201.13 80.6629L201.344 80.6565L200.59 54.897Z" fill="#E9EEF1"/>
<path d="M204.269 55.9694L204.056 55.9766L204.84 79.7374L205.054 79.7302L204.269 55.9694Z" fill="#E9EEF1"/>
<path d="M219.77 163.01L219.733 165.326L222.029 165.363L222.065 163.047L219.77 163.01Z" fill="#E9EEF1"/>
<path d="M188.986 54.0693L188.772 54.0752L189.503 81.1649L189.716 81.1591L188.986 54.0693Z" fill="#E9EEF1"/>
<path d="M185.605 56.4879L185.392 56.4951L186.176 80.256L186.39 80.2488L185.605 56.4879Z" fill="#E9EEF1"/>
</g>
</g>
<defs>
<clipPath id="clip0_5737_13060">
<rect width="285" height="324" fill="white"/>
</clipPath>
<clipPath id="clip1_5737_13060">
<rect width="219" height="215" fill="white" transform="translate(86 42)"/>
</clipPath>
</defs>
</svg>
