<svg width="440" height="440" viewBox="0 0 440 440" fill="none" xmlns="http://www.w3.org/2000/svg">
<g clip-path="url(#clip0_5737_13895)">
<g opacity="0.8" clip-path="url(#clip1_5737_13895)">
<path d="M176.506 228.114L176.609 221.682C176.62 220.993 176.323 220.49 175.726 220.193C174.541 219.599 172.645 219.972 172.379 220.106L172.234 229.123L176.506 228.114ZM176.601 228.19L172.139 229.245L172.283 220.064V220.06C172.348 219.87 176.746 219.001 176.7 221.682C176.678 223.289 176.601 228.19 176.601 228.19Z" fill="#E9EEF1"/>
<path d="M172.139 229.245L176.602 228.19C176.602 228.19 176.678 223.289 176.705 221.686C176.746 219.001 172.348 219.873 172.287 220.064V220.068L172.139 229.245ZM172.188 220.064V220.06L172.249 216.328C172.249 216.275 172.291 216.233 172.341 216.233H172.345L187.972 216.481C187.648 216.008 186.635 214.561 186.106 214.249C186.011 214.196 185.958 214.108 185.931 213.99C185.786 213.255 187.206 211.367 187.37 211.153C187.385 211.13 187.416 211.115 187.443 211.115C187.458 211.115 188.322 211.119 189.605 211.123C190.885 211.123 192.583 211.134 194.274 211.146C201.185 211.207 201.208 211.294 201.234 211.405C201.257 211.427 201.467 211.565 201.672 211.694C202.571 212.265 204.433 213.457 204.334 214.79C204.33 214.843 204.288 214.889 204.231 214.881C204.182 214.877 204.14 214.832 204.144 214.778C204.231 213.556 202.434 212.41 201.57 211.854C201.254 211.656 201.124 211.568 201.071 211.504C200.515 211.37 192.709 211.313 187.488 211.306C187.043 211.896 186.007 213.415 186.114 213.952C186.129 214.013 186.156 214.055 186.194 214.078C186.864 214.478 188.166 216.435 188.223 216.522C188.242 216.553 188.246 216.591 188.231 216.621C188.212 216.652 188.181 216.671 188.147 216.671C188.147 216.671 188.147 216.671 188.143 216.671L172.432 216.42L172.375 219.9C172.76 219.755 173.624 219.664 174.146 219.675C175.871 219.702 176.811 220.414 176.792 221.678L176.689 228.182C176.689 228.224 176.659 228.262 176.617 228.274L172.154 229.328C172.147 229.328 172.139 229.332 172.131 229.332C172.108 229.332 172.089 229.325 172.07 229.309C172.048 229.294 172.036 229.264 172.036 229.237L172.181 220.06L172.188 220.064Z" fill="#E9EEF1"/>
<path d="M483.949 137.235C468.429 136.561 436.961 134.542 434.924 134.409C433.732 133.678 429.528 130.814 428.576 130.163L431.158 89.5826C431.161 89.3503 431.139 89.1143 431.093 88.882C430.819 87.5454 429.73 82.0925 428.355 75.1926C424.753 57.1356 418.729 26.9163 418.169 24.9362C418.074 24.6049 417.933 24.1022 399.26 17.1033C390.216 13.7143 379.741 9.92168 377.281 9.14868C376.915 9.03444 376.538 8.98494 376.154 9.00398L179.769 18.6798C178.086 18.7636 176.712 20.9074 176.696 22.6476L178.718 77.1118L178.505 77.1004L176.087 85.7443L178.528 90.7669L181.982 90.8202L183.589 88.8934C185.077 89.655 186.859 90.0358 188.912 90.0091L196.668 91.22H196.703C198.009 91.2124 199.083 92.2443 199.121 93.539L200.526 139.131C200.56 140.3 201.23 141.358 202.266 141.895C203.058 142.307 203.557 143.114 203.561 144.009L203.755 178.234C203.134 178.2 201.851 178.177 199.174 178.135L199.014 178.131L198.93 183.375L199.052 183.405C199.665 183.569 200.552 183.618 201.413 183.618C202.376 183.618 203.309 183.557 203.781 183.519L203.949 213.118C203.957 214.329 203.755 215.498 203.374 216.587L188.154 216.419L188.15 216.743L200.377 216.876C197.738 217.2 194.784 217.794 194.174 218.639C193.401 219.717 193.626 221.206 193.748 221.754L186.863 221.644C186.867 221.019 186.856 220.505 186.818 220.269L186.799 220.155C186.65 219.203 186.204 216.313 181.742 216.282L181.738 216.606C185.923 216.637 186.323 219.23 186.475 220.204L186.494 220.323C186.604 221.004 186.471 224.306 186.422 225.44L178.437 227.329L178.551 220.17C178.555 220.113 178.6 218.716 177.439 217.573C176.365 216.515 174.644 216.042 172.329 216.172L172.348 216.496C174.568 216.374 176.205 216.812 177.21 217.802C178.269 218.841 178.231 220.147 178.231 220.166L178.117 227.348L178.353 227.352L165.479 230.391C163.864 230.771 162.809 232.298 163.026 233.943C163.51 237.626 164.435 245.573 165.501 254.772C167.31 270.343 169.564 289.721 171.065 300.41C171.754 305.296 176.624 309.869 181.928 310.604L347.926 331.901C348.452 331.966 348.974 332 349.495 332C350.462 332 351.422 331.886 352.355 331.665L352.439 331.947C352.439 331.947 440.902 305.695 466.886 297.977C471.334 296.655 474.411 292.649 474.54 288.011L475.865 240.832L475.869 240.664L443.369 205.099L465.634 194.791L482.103 194.829C482.11 194.829 482.122 194.829 482.129 194.829C488.823 194.829 494.348 189.391 494.455 182.697L494.992 148.963C495.099 142.657 490.244 137.509 483.949 137.235ZM376.192 9.8341C376.477 9.81886 376.755 9.85694 377.026 9.94072C382.581 11.6885 415.489 23.8547 417.389 25.256C418.074 27.9177 423.984 57.5507 427.536 75.3564C428.968 82.5304 430 87.713 430.278 89.0533C430.312 89.2247 430.331 89.3998 430.328 89.556L426.771 145.414C426.76 146.038 426.223 147.059 425.427 147.954C424.623 148.86 423.74 149.443 423.165 149.443C423.161 149.443 423.157 149.443 423.154 149.443L422.918 149.439L422.887 149.488C421.855 149.69 416.212 150.646 410.367 148.593C403.989 146.354 399.842 136.858 399.8 136.759L399.637 136.827C400.052 117.034 400.436 97.3698 400.573 90.2642L400.581 89.8416L392.242 89.8682V89.7959L377.308 89.8644C378.111 89.4646 378.743 88.882 378.754 88.0252C378.853 81.5251 378.039 56.4693 377.384 36.3332C377.03 25.4731 376.725 16.0943 376.634 11.818C376.618 11.1707 376.378 10.6299 375.918 10.2149C375.769 10.0816 375.602 9.96737 375.426 9.86837L376.192 9.8341ZM195.461 235.775L190.778 235.379L191.73 233.799L196.55 234.198L195.461 235.775ZM195.705 254.232L191.029 253.828L190.515 235.813L190.591 235.687L195.358 236.091L195.705 254.232ZM192.434 233.532L231.693 223.86L236.342 224.165C231.434 225.208 201.302 232.862 197.133 233.92L192.434 233.532ZM346.388 91.2657L345.847 125.32L326.096 125.007C323.846 124.973 321.165 126.07 321.077 131.511C321.051 133.107 320.541 134.554 319.638 135.582C318.698 136.652 317.388 137.208 315.903 137.181L281.674 136.637C277.893 136.576 277.048 133.906 277.002 131.679C276.911 127.045 276.899 123.37 276.964 122.685L299.975 126.93C300.146 126.961 300.317 126.972 300.485 126.972C301.22 126.972 301.932 126.706 302.495 126.211C303.188 125.601 303.565 124.722 303.527 123.8L302.225 90.9725L399.736 90.6755C399.541 100.667 399.29 113.329 399.027 126.169L346.674 125.339L347.214 91.2848L346.388 91.2657ZM276.602 122.883C276.389 122.89 276.24 122.73 276.218 122.658L276.446 122.616H276.594L276.941 122.681C276.884 122.776 276.77 122.875 276.602 122.883ZM302.705 123.831C302.731 124.501 302.457 125.141 301.955 125.586C301.452 126.032 300.782 126.222 300.123 126.112L276.713 121.794L276.678 121.786L206.394 121.047L206.866 91.2581L301.406 90.9687L302.705 123.831ZM276.16 122.612C276.039 123.477 276.058 125.735 276.172 131.698C276.244 135.365 278.19 137.413 281.659 137.467L315.887 138.011C315.922 138.011 315.96 138.011 315.994 138.011C317.704 138.011 319.177 137.36 320.259 136.126C321.291 134.95 321.877 133.316 321.904 131.523C321.965 127.749 323.339 125.834 325.99 125.834C326.02 125.834 326.05 125.834 326.077 125.834L345.828 126.146L399.008 126.991C398.407 156.213 397.74 186.063 397.546 187.141L397.95 187.24L397.915 187.4L401.103 188.089L398.574 228.46C398.475 230.067 397.752 231.537 396.545 232.603C395.338 233.669 393.784 234.195 392.177 234.092L248.333 224.629C248.519 222.36 248.676 202.578 248.683 201.706V201.55L232.051 200.78L231.883 200.773L231.521 223.521L210.274 222.124C209.105 222.048 206.862 221.05 206.862 219.881L205.815 141.176L206.123 121.87L276.16 122.612ZM243.954 224.664L247.095 224.869L206.839 234.724L205.67 234.629L243.954 224.664ZM237.126 223.891L231.845 223.544L232.203 201.112L237.378 201.352C237.416 203.259 237.781 222.006 237.126 223.891ZM244.445 224.374L244.807 201.694L248.36 201.858C248.302 209.28 248.158 222.988 248.013 224.61L244.445 224.374ZM201.957 237.473C202.007 237.249 202.216 236.978 202.498 236.696L204.855 236.898L204.802 236.963L204.859 255.02L201.847 254.761C201.839 253.76 201.748 238.406 201.957 237.473ZM202.818 236.399C203.541 235.779 204.512 235.166 204.954 234.895L206.397 235.013L205.099 236.59L202.818 236.399ZM205.247 236.929L360.812 250.123C360.808 250.192 360.804 250.26 360.804 250.329L360.873 268.469L205.183 255.047L205.126 237.073L205.247 236.929ZM360.846 249.803L205.495 236.628L206.767 235.078L206.862 235.055L361.897 247.907C361.349 248.394 360.968 249.061 360.846 249.803ZM207.856 234.812L248.169 224.942L392.162 234.416C392.303 234.423 392.444 234.431 392.584 234.431C394.127 234.431 395.596 233.879 396.765 232.85C398.041 231.731 398.799 230.181 398.905 228.487L401.441 188.043C401.716 187.803 403.288 186.505 405.093 186.707C406.11 186.821 407.028 187.392 407.827 188.409C407.344 188.949 407.035 189.642 406.997 190.396L405.067 228.148C404.838 232.592 401.807 236.384 397.527 237.584L363.161 247.225C362.845 247.313 362.556 247.45 362.289 247.621L207.856 234.812ZM405.12 186.379C403.189 186.17 401.563 187.491 401.232 187.784L398.376 187.163C398.589 184.681 399.119 161.601 399.61 138.278C400.105 139.256 400.908 140.726 401.997 142.31C403.654 144.721 405.39 146.564 407.187 147.836C406.856 150.52 405.211 166.502 411.97 174.837C414.441 177.887 417.777 179.597 421.878 179.94L421.87 182.263C421.832 185.393 419.788 185.659 418.299 185.857C417.926 185.907 417.598 185.949 417.347 186.036L409.133 187.521L409.061 187.54C408.68 187.685 408.345 187.906 408.052 188.169C407.203 187.106 406.22 186.501 405.12 186.379ZM412.221 174.639C405.672 166.559 407.119 151.145 407.488 148.049C408.345 148.624 409.217 149.066 410.097 149.374C413.109 150.433 416.029 150.726 418.352 150.726C420.149 150.726 421.585 150.551 422.426 150.414C422.213 150.947 421.988 151.716 421.966 152.592L421.882 179.62C417.88 179.281 414.632 177.609 412.221 174.639ZM177.526 22.6362C177.538 21.3073 178.619 19.567 179.811 19.5099L372.384 10.0207L372.395 10.154C372.414 10.1502 374.436 9.99783 375.369 10.8356C375.659 11.0945 375.803 11.4258 375.811 11.8409C375.902 16.1171 376.207 25.4997 376.561 36.3636C377.216 56.4883 378.031 81.5366 377.932 88.0138C377.913 89.297 374.756 89.8301 373.953 89.853V89.8796L348.01 90.0015L214.055 90.4089C257.738 89.5027 364.978 87.2941 371.108 87.2941C371.173 87.2941 371.226 87.2941 371.268 87.2941C372.11 87.3017 372.951 86.9209 373.637 86.2165C374.334 85.5006 374.802 84.5143 374.775 83.8175C374.558 78.1475 374.391 68.3765 374.193 57.0595C373.964 43.9185 373.705 29.022 373.305 16.7835V16.7302C373.252 15.0623 373.184 12.987 370.389 12.9413C370.385 12.9413 370.377 12.9413 370.37 12.9413C367.08 12.9413 184.449 22.5296 183.185 22.6362C179.739 22.9256 179.64 26.703 179.64 26.7487C179.708 28.5308 181.003 63.0036 181.707 77.2832L179.548 77.1613L177.526 22.6362ZM179.05 89.9482L176.971 85.6643L179.122 77.9648L179.354 77.98C180.356 78.098 180.976 78.1475 181.365 78.159C181.346 78.357 181.338 78.5512 181.327 78.7454L179.015 85.988L181.353 89.9825L179.05 89.9482ZM182.88 88.4517L181.677 89.8949L179.369 85.9499L181.292 79.922C181.308 84.0955 182.697 86.9552 183.234 87.9034L182.88 88.4517ZM196.733 90.3937L189.007 89.1866L188.973 89.1828H188.939C187.076 89.2057 185.477 88.8858 184.137 88.2384L184.301 88.0442L184.129 87.7853C184.11 87.7586 182.842 85.7938 182.332 82.5228C182.279 81.8222 182.21 80.695 182.134 79.2366C182.149 78.7568 182.183 78.2656 182.241 77.7553L182.29 77.3212L182.035 77.306C181.319 62.8018 179.979 27.179 179.963 26.7487C179.967 26.604 180.062 23.2264 183.212 22.9599C186.76 22.6629 368.18 13.265 370.373 13.265C370.377 13.265 370.381 13.265 370.381 13.265C372.868 13.3031 372.925 15.0509 372.978 16.7416V16.7949C373.378 29.0335 373.637 43.9261 373.865 57.0671C374.063 68.3841 374.231 78.159 374.448 83.8327C374.467 84.3544 374.117 85.2645 373.404 85.9956C372.967 86.4449 372.251 86.9742 371.303 86.9742C371.291 86.9742 371.284 86.9742 371.272 86.9742C366.524 86.9133 213.8 90.0929 197.217 90.4394C197.057 90.4127 196.897 90.3937 196.733 90.3937ZM199.258 183.123L199.33 178.459C200.853 178.485 202.909 178.52 203.755 178.546L203.781 183.196C202.947 183.26 200.537 183.417 199.258 183.123ZM186.859 221.968L194.17 222.082L194.11 221.872C194.106 221.853 193.584 220.014 194.437 218.826C195.157 217.821 200.373 217.078 203.233 216.941C202.034 219.999 199.418 222.367 196.048 223.163L186.753 225.36C186.787 224.618 186.844 223.159 186.859 221.968ZM165.673 231.198L196.242 223.97C200.004 223.079 202.909 220.38 204.139 216.918C204.162 216.918 204.189 216.918 204.212 216.918L204.215 216.686C204.589 215.559 204.79 214.356 204.783 213.11L204.394 144.001C204.387 142.798 203.72 141.709 202.65 141.157C201.877 140.761 201.382 139.972 201.356 139.104L199.951 93.5124C199.913 92.2976 199.189 91.2505 198.165 90.7364C199.928 90.6983 202.605 90.645 206.039 90.5727L205.548 121.451L205.803 121.455L205.491 141.179L206.538 219.885C206.538 221.248 208.949 222.36 210.251 222.447L230.627 223.788L191.65 233.391L191.585 233.406L191.554 233.456L165.38 231.285C165.475 231.255 165.57 231.221 165.673 231.198ZM164.843 231.571L191.368 233.768L190.416 235.348L163.868 233.094C163.982 232.477 164.332 231.929 164.843 231.571ZM163.849 233.837C163.83 233.696 163.826 233.555 163.83 233.418L190.226 235.657L190.184 235.729L190.702 253.801L165.977 251.669C165.06 243.764 164.283 237.115 163.849 233.837ZM166.015 251.997L360.869 268.797L360.881 271.424C359.373 271.093 353.512 270.404 330.803 268.348C314.627 266.882 292.073 264.928 263.758 262.537C216.77 258.569 169.172 254.689 166.354 254.46L166.118 252.884C166.084 252.587 166.05 252.29 166.015 251.997ZM348.033 331.075L182.043 309.781C177.085 309.096 172.531 304.839 171.891 300.296C170.391 289.641 168.148 270.331 166.339 254.784C172.192 255.26 352.899 269.993 360.881 271.718L361.06 319.564C361.071 322.892 359.647 326.068 357.157 328.272C354.662 330.477 351.338 331.501 348.033 331.075ZM356.391 329.906C356.848 329.601 357.29 329.262 357.705 328.893C360.378 326.528 361.905 323.128 361.89 319.56L361.703 269.635C361.985 269.566 362.419 269.459 362.986 269.319C392.771 261.966 399.054 260.751 399.949 260.751C399.956 260.751 399.964 260.751 399.972 260.751C400.063 262.72 398.902 292.893 398.399 305.931C398.235 310.219 398.125 313.056 398.121 313.273C398.068 316.593 397.942 317.29 395.589 318.273C378.503 323.345 363.417 327.819 356.391 329.906ZM493.633 182.678C493.534 188.923 488.378 193.995 482.137 193.995C482.129 193.995 482.122 193.995 482.11 193.995L467.678 193.964L473.093 191.337L473.032 191.211L473.291 191.227L475.671 146.236L475.347 146.221L472.971 191.093L472.735 190.591L441.995 204.824L475.035 240.98L473.714 287.992C473.592 292.273 470.755 295.966 466.65 297.185C453.228 301.172 423.123 310.105 397.161 317.812C398.258 317.001 398.41 315.912 398.452 313.281C398.456 313.067 398.563 310.234 398.73 305.947C399.625 282.669 400.432 261.059 400.284 260.583C400.189 260.29 400.048 259.845 362.918 269.01C362.4 269.14 361.992 269.239 361.711 269.307L361.638 250.332C361.635 249.262 362.354 248.31 363.382 248.021L397.748 238.38C402.374 237.081 405.649 232.988 405.893 228.186L407.823 190.434C407.869 189.502 408.459 188.683 409.324 188.336L417.533 186.851L417.606 186.832C417.769 186.767 418.082 186.729 418.409 186.688C419.894 186.493 422.655 186.132 422.704 182.278L422.796 152.607C422.822 151.537 423.218 150.631 423.405 150.257C424.517 150.113 425.61 149.005 426.051 148.502C426.79 147.664 427.586 146.419 427.601 145.444L428.511 131.13C429.966 132.121 433.599 134.588 434.581 135.174L434.669 135.228L434.768 135.235C434.794 135.235 435.011 135.251 435.4 135.277C440.574 137.242 471.288 145.143 475.031 146.103L475.081 146.114L489.444 140.414L489.326 140.113L475.058 145.776C461.556 142.31 442.242 137.208 436.542 135.35C443.613 135.799 470.085 137.467 483.915 138.068C489.756 138.324 494.261 143.102 494.166 148.951L493.633 182.678Z" fill="#E9EEF1"/>
<path d="M213.05 198.496L318.317 203.229C318.366 203.233 318.42 203.233 318.469 203.233C320.186 203.233 321.828 201.965 322.688 199.962L322.722 199.886L323.259 149.869C323.461 147.95 322.852 145.799 321.74 144.508C321.176 143.849 320.529 143.487 319.867 143.457L212.566 141.362C211.618 141.321 210.479 141.652 209.546 142.25C208.48 142.935 207.867 143.83 207.825 144.786L207.654 192.727C207.65 192.837 207.643 192.955 207.635 193.077C207.57 194.14 207.475 195.747 208.564 196.939C209.455 197.91 210.925 198.42 213.05 198.496ZM208.469 193.123C208.476 192.997 208.484 192.875 208.488 192.742L208.659 144.801C208.69 144.146 209.177 143.472 209.996 142.943C210.78 142.44 211.747 142.147 212.543 142.185L319.844 144.279C320.373 144.302 320.826 144.706 321.116 145.041C322.075 146.157 322.616 148.114 322.437 149.793L321.9 199.703C321.142 201.401 319.756 202.464 318.359 202.395L225.387 198.218C222.242 197.712 215.993 196.733 214.021 196.607L214.249 190.96L216.819 191.295C216.633 194.688 216.751 194.825 216.804 194.882L216.857 194.932L216.918 194.939H216.922L216.911 195.191L219.215 195.297C221.423 195.651 224.721 196.181 226.823 196.52L226.872 196.2C226.145 196.082 224.123 195.754 222.089 195.431L268.804 197.605C268.834 197.605 268.868 197.605 268.899 197.605C270.232 197.605 271.69 197.159 272.817 196.405C274.142 195.518 274.885 194.311 274.904 193.005L275.247 150.558C275.269 149.195 274.828 147.79 274.036 146.701C273.156 145.49 271.953 144.812 270.651 144.793L258.393 144.378V144.363L258.07 144.359V144.371L215.235 142.916C215.212 142.916 215.19 142.916 215.167 142.916C213.872 142.916 212.536 143.491 211.492 144.5C210.43 145.528 209.813 146.872 209.79 148.194L209.466 189.639C209.428 191.954 211.355 194.334 213.762 194.947L213.682 196.916L213.842 196.923C215.144 196.98 219.184 197.578 222.478 198.088L213.08 197.666C211.21 197.601 209.897 197.167 209.177 196.379C208.328 195.442 208.408 194.155 208.469 193.123ZM211.23 146.164C211.454 145.783 211.74 145.422 212.075 145.094C212.246 144.927 212.429 144.778 212.616 144.641L212.09 177.583L210.883 177.545L211.382 146.168L211.23 146.164ZM270.841 179.441L269.47 179.399L270.007 145.608L270.632 145.631C270.887 145.635 271.134 145.673 271.378 145.738L270.841 179.441ZM271.698 145.844C272.166 146.031 272.6 146.332 272.985 146.743L272.463 179.495L271.161 179.453L271.698 145.844ZM269.146 179.388L267.802 179.346L268.339 145.551L269.683 145.597L269.146 179.388ZM267.482 179.335L266.157 179.293L266.694 145.494L268.019 145.54L267.482 179.335ZM265.834 179.281L264.489 179.239L265.026 145.437L266.371 145.483L265.834 179.281ZM264.166 179.232L262.822 179.19L263.359 145.384L264.703 145.429L264.166 179.232ZM262.502 179.179L261.158 179.137L261.695 145.326L263.039 145.372L262.502 179.179ZM260.834 179.125L259.509 179.083L260.046 145.269L261.371 145.315L260.834 179.125ZM259.185 179.072L257.841 179.03L258.378 145.212L259.722 145.258L259.185 179.072ZM257.521 179.019L256.303 178.981L256.84 145.159L258.058 145.201L257.521 179.019ZM255.979 178.973L254.635 178.931L255.172 145.106L256.516 145.151L255.979 178.973ZM254.311 178.92L252.986 178.878L253.523 145.048L254.848 145.094L254.311 178.92ZM252.666 178.866L251.322 178.824L251.859 144.991L253.203 145.037L252.666 178.866ZM250.998 178.813L249.791 178.775L250.328 144.938L251.535 144.98L250.998 178.813ZM249.471 178.767L248.127 178.725L248.664 144.885L250.008 144.93L249.471 178.767ZM247.804 178.714L246.479 178.672L247.015 144.828L248.341 144.873L247.804 178.714ZM246.155 178.661L244.811 178.619L245.348 144.77L246.692 144.816L246.155 178.661ZM244.491 178.607L243.265 178.569L243.802 144.717L245.028 144.759L244.491 178.607ZM242.941 178.558L241.597 178.516L242.134 144.66L243.478 144.706L242.941 178.558ZM241.273 178.508L239.948 178.466L240.485 144.607L241.81 144.652L241.273 178.508ZM239.624 178.455L238.28 178.413L238.817 144.55L240.161 144.595L239.624 178.455ZM237.96 178.402L236.742 178.364L237.279 144.496L238.497 144.538L237.96 178.402ZM236.955 144.485L236.418 178.352L235.074 178.31L235.611 144.439L237.027 144.489L236.955 144.485ZM234.75 178.299L233.425 178.257L233.962 144.382L235.287 144.428L234.75 178.299ZM233.105 178.249L231.761 178.208L232.298 144.329L233.642 144.374L233.105 178.249ZM231.438 178.196L230.231 178.158L230.767 144.405L230.444 144.401L229.907 178.147L228.563 178.105L229.1 144.218L231.971 144.317L231.438 178.196ZM228.243 178.093L226.918 178.051L227.455 144.161L228.78 144.207L228.243 178.093ZM227.135 144.154L226.598 178.044L225.254 178.002L225.791 144.108L227.321 144.161L227.135 144.154ZM224.93 177.99L223.917 177.96L224.454 144.062L225.467 144.096L224.93 177.99ZM223.594 177.949L222.249 177.907L222.786 144.005L224.13 144.051L223.594 177.949ZM221.926 177.895L220.601 177.853L221.141 143.948L222.466 143.994L221.926 177.895ZM220.281 177.842L218.937 177.8L219.477 143.891L220.821 143.937L220.281 177.842ZM218.613 177.789L217.394 177.751L217.931 143.918L217.608 143.914L217.071 177.743L215.727 177.701L216.267 143.784L219.15 143.883L218.613 177.789ZM215.407 177.69L214.082 177.648L214.618 143.792C214.82 143.761 215.018 143.742 215.216 143.75L215.944 143.773L215.407 177.69ZM213.758 177.636L212.414 177.594L212.939 144.42C213.37 144.154 213.83 143.956 214.291 143.849L213.758 177.636ZM210.563 177.537L210.418 177.534L210.392 178.326L223.582 178.741V178.783L223.906 178.786V178.752L228.231 178.889V178.954L228.555 178.958V178.897L233.094 179.041V179.148L233.418 179.152V179.049L242.93 179.35H242.956L252.655 179.658V179.674L252.978 179.677V179.67L269.139 180.18V180.199L269.462 180.203V180.188L274.024 180.332L274.051 179.54L272.798 179.502L273.312 147.116C273.331 147.143 273.354 147.166 273.373 147.192C274.059 148.14 274.443 149.363 274.424 150.555L274.081 193.001C274.066 194.025 273.453 194.993 272.364 195.724C271.347 196.405 270.018 196.801 268.838 196.782L217.044 194.372C217.033 193.748 217.082 192.396 217.154 191.17L217.162 191.021L213.944 190.598L213.804 194.094C211.862 193.511 210.274 191.524 210.304 189.654L210.628 148.209C210.635 147.634 210.788 147.048 211.058 146.495L210.563 177.537Z" fill="#E9EEF1"/>
<path d="M345.36 223.163L388.194 225.414C388.282 225.422 388.369 225.425 388.457 225.425C389.603 225.425 390.886 224.873 391.937 223.91C392.802 223.122 393.323 222.215 393.335 221.492L395.094 141.522C395.17 136.804 395.223 133.396 390.871 133.328L349.145 132.669C348.189 132.661 345.246 133.008 343.441 134.782C342.474 135.734 341.979 136.934 341.975 138.347L340.711 218.008V218.019C340.688 219.401 340.638 223.087 345.36 223.163ZM341.537 218.027V218.019L342.801 138.35C342.805 137.162 343.216 136.161 344.02 135.373C345.588 133.83 348.223 133.495 349.088 133.495C349.103 133.495 349.118 133.495 349.13 133.495L390.856 134.154C394.237 134.207 394.344 136.446 394.264 141.503L392.505 221.473C392.497 221.96 392.055 222.676 391.377 223.293C390.41 224.176 389.245 224.656 388.244 224.58L345.383 222.326C341.48 222.272 341.518 219.405 341.537 218.027Z" fill="#E9EEF1"/>
<path d="M313.093 208.507L281.637 206.607C279.904 206.5 278.225 207.079 276.919 208.236C275.617 209.39 274.84 210.986 274.733 212.722L274.509 216.45C274.402 218.186 274.981 219.862 276.138 221.168C277.292 222.47 278.888 223.247 280.624 223.354L312.08 225.254C312.214 225.262 312.347 225.265 312.48 225.265C314.072 225.265 315.591 224.69 316.794 223.624C318.097 222.47 318.873 220.875 318.98 219.138L319.205 215.411C319.426 211.82 316.684 208.724 313.093 208.507ZM300.764 208.865C301.399 208.876 301.993 209.135 302.439 209.592C302.884 210.049 303.124 210.655 303.113 211.29L303.006 217.969C302.972 220.189 302.028 220.346 300.581 220.319C300.531 220.319 300.482 220.307 300.432 220.304C300.554 220.216 300.672 220.125 300.783 220.018C301.35 219.47 301.67 218.735 301.681 217.95L301.788 211.271C301.799 210.487 301.506 209.744 300.954 209.177C300.843 209.063 300.725 208.964 300.604 208.872C300.657 208.869 300.71 208.865 300.764 208.865ZM300.185 208.594C300.181 208.594 300.177 208.598 300.173 208.598C300.169 208.598 300.166 208.594 300.166 208.594H300.185ZM298.875 209.07C299.446 209.078 299.983 209.314 300.387 209.729C300.79 210.144 301.003 210.689 300.996 211.26L300.889 217.939C300.882 218.51 300.645 219.047 300.23 219.451C299.815 219.851 299.275 220.06 298.7 220.06C297.512 220.041 296.56 219.059 296.579 217.87L296.685 211.191C296.704 210.015 297.668 209.07 298.837 209.07C298.852 209.07 298.863 209.07 298.875 209.07ZM281.766 207.483L297.843 208.454C297.455 208.594 297.1 208.811 296.792 209.109C296.419 209.47 296.152 209.916 296.011 210.403L281.808 209.497L281.785 209.836L295.935 210.738C295.912 210.883 295.893 211.028 295.893 211.18L295.787 217.859C295.779 218.263 295.855 218.655 296.008 219.02L281.603 217.916L281.766 207.483ZM276.789 220.593C275.788 219.462 275.285 218.011 275.377 216.503L275.601 212.776C275.693 211.268 276.367 209.885 277.494 208.884C278.587 207.913 279.984 207.422 281.443 207.471L281.275 217.989L277.482 221.248C277.239 221.05 277.003 220.837 276.789 220.593ZM316.223 222.977C315.092 223.978 313.638 224.473 312.134 224.39L280.677 222.489C279.607 222.425 278.602 222.059 277.745 221.454L281.488 218.236L296.171 219.359C296.293 219.573 296.442 219.774 296.617 219.957C297.165 220.525 297.9 220.844 298.684 220.856C298.7 220.856 298.715 220.856 298.73 220.856C299.168 220.856 299.595 220.757 299.979 220.574C300.169 220.62 300.367 220.646 300.569 220.65C300.638 220.65 300.706 220.65 300.771 220.65C301.719 220.65 302.542 220.521 302.98 219.683L317.72 220.829C317.407 221.64 316.901 222.379 316.223 222.977ZM318.344 215.357L318.12 219.085C318.089 219.576 317.994 220.052 317.842 220.509L303.124 219.363C303.25 219.005 303.322 218.552 303.334 217.973L303.44 211.294C303.44 211.26 303.437 211.222 303.437 211.188L314.483 211.881C316.124 211.98 317.552 212.92 318.31 214.318C318.348 214.657 318.363 215.003 318.344 215.357ZM314.498 211.546L303.402 210.849C303.25 209.836 302.534 208.998 301.578 208.678L313.04 209.371C315.481 209.52 317.465 211.207 318.116 213.427C317.251 212.338 315.953 211.633 314.498 211.546Z" fill="#E9EEF1"/>
<path d="M173.84 263.218L176.924 280.769L179.704 300.566L350.865 320.645L351.395 320.706L347.876 279.394L173.84 263.218ZM178.063 282.612L186.074 283.453L187.179 290.665L187.609 290.601L187.563 291.035L190.385 291.343L192.247 295.14L192.224 295.349L192.357 295.364L192.369 295.387L180.45 299.584L178.063 282.612ZM350.439 319.716L182.011 299.957L188.568 297.649L188.565 297.668L350.07 315.421L350.439 319.716ZM349.997 314.537L190.427 296.994L193.119 296.046L192.974 295.635L193.313 295.471L349.872 313.022L349.997 314.537ZM349.841 312.694L193.21 295.136L192.239 293.152L349.677 310.771L349.841 312.694ZM349.647 310.44L192.072 292.806L191.413 291.458L349.514 308.806L349.647 310.44ZM349.434 307.923L187.99 290.205L186.969 283.549L348.805 300.558L349.434 307.923ZM177.937 281.725L177.785 280.632L174.895 264.193L347.073 280.194L348.733 299.675L177.937 281.725Z" fill="#E9EEF1"/>
<path d="M279.894 199.292L316.593 200.876H316.597C316.609 200.876 316.62 200.876 316.631 200.876C317.503 200.876 318.368 200.346 319.068 199.383C319.697 198.522 320.093 197.414 320.108 196.489L320.203 190.442C320.245 190.412 320.287 190.385 320.329 190.354L320.207 190.187L320.679 160.402L320.755 160.28C320.732 160.265 320.706 160.249 320.683 160.238L320.79 153.559L320.812 153.525C320.805 153.521 320.797 153.513 320.79 153.509L320.85 149.717C320.866 148.803 320.519 147.931 319.879 147.268C319.24 146.606 318.379 146.233 317.469 146.217L280.762 144.968C278.85 144.957 277.285 147.162 277.255 149.02L276.512 195.796C276.497 196.71 276.843 197.582 277.483 198.241C278.127 198.907 278.983 199.28 279.894 199.292ZM307.988 191.725C302.451 191.638 297.345 189.414 293.602 185.461C289.92 181.573 287.939 176.448 288.023 171.033C288.065 168.482 288.606 166.022 289.596 163.753C290.072 163.981 290.635 164.213 291.279 164.453C290.319 166.555 289.794 168.836 289.756 171.205C289.676 176.136 291.534 180.8 294.988 184.342C298.495 187.94 303.285 189.966 308.467 190.05C308.547 190.05 308.627 190.05 308.711 190.05C312.23 190.05 315.912 188.839 319.67 186.455L319.643 188.112C317.926 189.201 312.485 191.801 307.988 191.725ZM319.64 188.496L319.621 189.696C315.961 192.335 311.666 193.694 307.18 193.622C295.525 193.435 286.195 183.516 286.386 171.509C286.435 168.493 287.075 165.584 288.244 162.915C288.476 163.136 288.838 163.368 289.306 163.608C288.294 165.923 287.741 168.429 287.7 171.029C287.612 176.528 289.623 181.733 293.366 185.686C297.166 189.7 302.36 191.961 307.98 192.053C308.041 192.053 308.106 192.053 308.167 192.053C312.565 192.049 317.747 189.639 319.64 188.496ZM308.475 189.726C303.376 189.646 298.67 187.651 295.22 184.117C291.827 180.637 290 176.052 290.079 171.212C290.118 168.84 290.647 166.597 291.576 164.564C292.094 164.754 292.657 164.944 293.255 165.139C292.311 167.046 291.801 169.122 291.766 171.281C291.698 175.683 293.457 179.849 296.728 183.013C300.045 186.223 304.572 188.035 309.469 188.115C309.537 188.115 309.602 188.115 309.671 188.115C313.718 188.115 316.898 186.185 319.708 184.433L319.681 186.074C315.828 188.55 312.073 189.779 308.475 189.726ZM291.309 157.888C291.759 157.336 292.238 156.803 292.745 156.293C292.288 156.792 291.801 157.333 291.309 157.888ZM309.473 187.784C304.656 187.708 300.208 185.93 296.953 182.773C293.75 179.673 292.021 175.591 292.09 171.281C292.124 169.156 292.631 167.111 293.567 165.234C294.329 165.474 295.144 165.717 296.001 165.961C295.182 167.656 294.733 169.499 294.702 171.41C294.637 175.393 296.233 179.167 299.192 182.03C302.196 184.94 306.293 186.577 310.725 186.649C310.786 186.649 310.847 186.649 310.904 186.649C314.423 186.649 317.233 185.012 319.716 183.47L319.708 184.041C316.852 185.827 313.612 187.853 309.473 187.784ZM310.733 186.326C306.381 186.257 302.363 184.65 299.42 181.798C296.526 178.996 294.965 175.31 295.026 171.414C295.056 169.529 295.502 167.717 296.317 166.049C297.01 166.243 297.726 166.437 298.464 166.631C297.809 168.109 297.451 169.704 297.425 171.353C297.303 178.992 303.498 185.077 311.525 185.206C311.578 185.206 311.632 185.206 311.685 185.206C314.807 185.206 317.469 183.755 319.739 182.312L319.727 183.085C317.195 184.666 314.328 186.379 310.733 186.326ZM311.529 184.917C303.662 184.791 297.592 178.836 297.71 171.361C297.737 169.735 298.095 168.162 298.746 166.708C299.504 166.906 300.277 167.104 301.057 167.298C300.627 168.512 300.383 169.819 300.361 171.189C300.25 178.238 305.322 183.436 312.424 183.546C312.477 183.546 312.534 183.546 312.587 183.546C314.933 183.546 317.45 182.75 319.75 181.292L319.739 181.966C317.435 183.443 314.724 184.966 311.529 184.917ZM312.595 183.283C312.542 183.283 312.488 183.283 312.435 183.283C305.486 183.173 300.521 178.089 300.631 171.193C300.654 169.845 300.894 168.558 301.32 167.362C301.842 167.492 302.367 167.621 302.897 167.747C302.573 168.71 302.39 169.735 302.375 170.805C302.329 173.653 303.517 177.792 307.02 180.088C308.281 180.915 310.086 181.638 312.546 181.638C314.514 181.638 316.913 181.166 319.777 179.921L319.761 180.972C317.465 182.461 314.945 183.283 312.595 183.283ZM301.389 162.926C301.617 162.702 301.849 162.481 302.097 162.271C304.858 159.903 308.528 158.639 312.409 158.696C313.665 158.715 314.838 158.958 315.931 159.328C315.181 159.122 314.392 158.993 313.558 158.978C313.482 158.978 313.402 158.978 313.326 158.978C308.966 158.978 305.162 160.946 302.82 164.031C302.314 163.661 301.834 163.292 301.389 162.926ZM307.146 179.894C303.723 177.651 302.561 173.596 302.603 170.809C302.619 169.758 302.801 168.749 303.121 167.8C303.746 167.949 304.37 168.097 304.995 168.242C304.827 168.851 304.736 169.468 304.724 170.089C304.679 172.994 305.612 175.58 307.359 177.366C309.042 179.091 311.346 179.974 314.202 179.997C314.251 179.997 314.301 179.997 314.351 179.997C316.59 179.997 318.413 179.578 319.799 178.759L319.784 179.666C313.368 182.484 309.374 181.356 307.146 179.894ZM314.206 179.673C311.438 179.651 309.21 178.798 307.592 177.137C305.909 175.412 305.006 172.911 305.052 170.093C305.059 169.495 305.151 168.897 305.315 168.314C306.148 168.505 306.975 168.695 307.793 168.878C307.752 169.156 307.721 169.434 307.717 169.716C307.656 173.432 308.921 176.029 311.468 177.442C312.98 178.28 314.766 178.558 316.346 178.558C317.819 178.558 319.106 178.314 319.815 178.051L319.811 178.382C318.44 179.243 316.513 179.692 314.206 179.673ZM319.811 177.743C318.623 178.219 314.651 178.885 311.597 177.191C309.149 175.835 307.934 173.318 307.995 169.716C307.999 169.457 308.026 169.194 308.064 168.935C313.479 170.138 318.292 171.083 319.914 171.395L319.811 177.743ZM319.914 171.361C315.314 170.203 311.559 168.829 308.505 167.362C308.928 166.342 309.598 165.375 310.489 164.556C312.062 163.109 314.122 162.29 316.125 162.328C317.652 162.351 318.95 162.999 320.036 163.665L319.914 171.361ZM320.039 163.338C318.95 162.683 317.656 162.07 316.129 162.047C314.057 162.016 311.925 162.854 310.299 164.35C309.385 165.192 308.692 166.19 308.254 167.241C307.55 166.898 306.88 166.548 306.247 166.193C306.754 165.379 307.405 164.621 308.189 163.958C310.128 162.321 312.656 161.399 315.127 161.441C317.065 161.472 318.695 162.347 320.043 163.216L320.039 163.338ZM320.047 162.839C318.691 161.982 317.065 161.148 315.131 161.118C312.591 161.079 309.975 162.024 307.976 163.711C307.161 164.4 306.484 165.188 305.962 166.034C305.448 165.74 304.953 165.447 304.484 165.15C306.537 162.313 310.071 160.504 314.145 160.577C316.464 160.615 318.421 161.632 320.047 162.667V162.839ZM320.055 162.401C318.425 161.373 316.468 160.386 314.153 160.348C314.08 160.348 314.008 160.348 313.935 160.348C309.873 160.348 306.35 162.184 304.294 165.032C303.856 164.75 303.437 164.468 303.037 164.187C305.33 161.167 309.054 159.244 313.326 159.244C313.402 159.244 313.479 159.244 313.555 159.244C316.106 159.286 318.265 160.436 320.066 161.62L320.055 162.401ZM320.077 161.041C317.972 159.735 315.432 158.452 312.412 158.403C308.471 158.342 304.721 159.632 301.907 162.047C301.648 162.268 301.404 162.5 301.164 162.736C300.692 162.336 300.254 161.944 299.85 161.552C299.9 161.51 299.946 161.464 299.995 161.422C303.133 158.821 307.298 157.424 311.712 157.496C314.983 157.55 317.762 158.871 320.085 160.249L320.077 161.041ZM320.097 159.884C317.77 158.517 314.994 157.23 311.723 157.176C307.218 157.1 302.988 158.524 299.793 161.175C299.736 161.224 299.679 161.274 299.622 161.323C299.081 160.786 298.605 160.257 298.186 159.751C301.583 157.173 305.958 155.798 310.558 155.874C314.312 155.935 317.481 157.508 320.104 159.092L320.097 159.884ZM320.116 158.722C317.488 157.15 314.324 155.615 310.566 155.554C305.878 155.486 301.438 156.879 297.984 159.503C297.558 158.966 297.192 158.448 296.884 157.961C300.3 155.349 304.751 153.818 309.659 153.894C313.772 153.959 317.218 155.844 320.051 157.675L320.135 157.546L320.116 158.722ZM320.135 157.348C317.283 155.509 313.814 153.635 309.663 153.57C304.869 153.494 300.326 154.96 296.728 157.709C296.336 157.062 296.035 156.468 295.81 155.95C299.595 153.094 304.305 151.579 309.286 151.663C313.558 151.731 317.164 153.658 320.157 155.619L320.135 157.348ZM320.169 155.234C317.168 153.289 313.566 151.404 309.294 151.339C304.275 151.259 299.515 152.778 295.685 155.642C295.422 154.987 295.285 154.473 295.212 154.149C298.788 151.495 303.064 150.063 307.538 150.063C307.649 150.063 307.763 150.063 307.873 150.067C311.94 150.132 316.647 151.731 320.184 154.241L320.169 155.234ZM320.203 153.102C316.586 150.695 311.936 149.184 307.892 149.119C301.99 149.031 296.404 151.301 292.162 155.531C287.924 159.758 285.541 165.424 285.442 171.494C285.244 184.026 294.988 194.376 307.169 194.57C307.287 194.57 307.405 194.574 307.519 194.574C311.849 194.574 316.003 193.298 319.601 190.869L319.541 194.768C319.522 196.062 318.448 197.14 317.778 197.14C317.774 197.14 317.77 197.14 317.766 197.14L282.624 196.58C281.679 196.565 280.891 196.306 280.347 195.83C279.852 195.396 279.585 194.794 279.593 194.132L280.293 150.01C280.316 148.7 281.39 147.645 282.696 147.645C282.708 147.645 282.723 147.645 282.734 147.645L317.877 148.205C318.516 148.216 319.114 148.475 319.56 148.936C320.009 149.397 320.249 150.006 320.237 150.642L320.203 153.102ZM277.578 149.028C277.605 147.325 279.01 145.292 280.72 145.292C280.731 145.292 280.743 145.292 280.754 145.292L317.461 146.541C318.292 146.552 319.068 146.891 319.647 147.493C320.23 148.095 320.542 148.879 320.527 149.709L320.519 150.117C320.424 149.591 320.176 149.107 319.792 148.711C319.285 148.186 318.604 147.893 317.88 147.881L282.738 147.322C281.238 147.303 279.993 148.502 279.97 150.002L279.269 194.124C279.258 194.882 279.562 195.575 280.133 196.074C280.735 196.603 281.596 196.889 282.62 196.904L317.762 197.464C317.766 197.464 317.77 197.464 317.774 197.464C318.49 197.464 319.541 196.538 319.803 195.301L319.784 196.485C319.754 198.29 318.269 200.552 316.628 200.552C316.62 200.552 316.609 200.552 316.601 200.552L279.901 198.968C279.071 198.956 278.294 198.618 277.715 198.016C277.133 197.414 276.821 196.63 276.836 195.8L277.578 149.028Z" fill="#E9EEF1"/>
<path d="M287.805 211.1L283.605 213.08L287.39 216.115L287.413 214.718C287.413 214.718 290.079 214.702 290.372 214.763L290.448 212.539L287.95 212.334L287.805 211.1Z" fill="#E9EEF1"/>
<path d="M363.428 24.2624C363.428 24.2167 363.42 24.1748 363.416 24.1291L363.493 24.0606C363.466 24.0301 363.432 24.0035 363.405 23.973C363.348 23.2571 363.119 22.6898 362.712 22.3014C362.148 21.7644 361.436 21.734 361.158 21.7416L294.499 24.0606L294.358 24.0644C293.608 24.0873 292.355 24.1253 292.332 25.6675L293.41 70.4635L293.425 70.5282C293.844 71.4231 294.563 71.9714 295.302 71.9714C295.321 71.9714 295.34 71.9714 295.359 71.9714L298.501 71.9257C298.531 71.9257 298.558 71.9295 298.592 71.9295C298.657 71.9295 298.725 71.9219 298.794 71.9219L316.268 71.6668V71.7125L316.584 71.7049V71.663L341.784 71.2936V71.3012L342.1 71.2936V71.2898L362.327 70.9928C362.921 70.9814 363.405 70.7795 363.771 70.3911C364.513 69.6029 364.544 68.2587 364.524 67.718L363.428 24.2624ZM295.352 71.6515C294.598 71.6858 294.034 71.0423 293.737 70.4292L292.66 25.6751C292.679 24.5442 293.41 24.43 294.369 24.3995L361.17 22.0767C361.41 22.0691 362.011 22.0957 362.487 22.5451C362.777 22.8192 362.963 23.2076 363.047 23.6912C362.586 23.4133 362.103 23.3942 361.874 23.4018L358.356 23.5237V23.459L358.04 23.4666V23.5351L297.362 25.6447L297.225 25.6485C296.502 25.6713 295.287 25.7094 295.264 27.2021L296.307 70.5587L296.323 70.6234C296.532 71.0727 296.84 71.404 297.237 71.6249L295.352 71.6515ZM298.379 71.6059C297.541 71.5487 296.947 71.1908 296.62 70.5168L295.576 27.1983C295.595 26.1016 296.304 25.9912 297.229 25.9645L297.606 25.9531L298.809 71.602L298.379 71.6059ZM302.072 71.5525L300.873 25.9189L300.557 25.9265L301.756 71.5563L299.121 71.5944L297.918 25.9417L303.474 25.7475L304.666 71.5145L302.072 71.5525ZM307.807 71.4688L306.608 25.8389L306.291 25.8465L307.491 71.4726L304.978 71.5107L303.786 25.7361L312.167 25.4467L313.347 71.3888L307.807 71.4688ZM318.781 71.3088L317.585 25.401L317.269 25.4086L318.465 71.3126L316.576 71.3393L315.396 25.3553L315.08 25.3629L316.26 71.3431L313.667 71.3812L312.487 25.4314L320.19 25.1649L321.386 71.187L321.702 71.1794L320.506 25.1573L326.062 24.9631L327.25 71.1832L318.781 71.3088ZM333.3 71.0956L332.109 24.8412L331.792 24.8488L332.98 71.1032L327.558 71.1832L326.37 24.9555L334.751 24.6622L335.939 70.8862L336.255 70.8785L335.067 24.6508L340.558 24.4604L341.773 70.9737L333.3 71.0956ZM342.093 70.9699L340.874 24.449L343.479 24.3576L344.697 70.928L342.093 70.9699ZM345.017 70.9242L343.799 24.3462L346.43 24.2548L347.648 70.8862L345.017 70.9242ZM347.964 70.8824L346.746 24.2434L349.35 24.152L350.557 70.8405L347.964 70.8824ZM350.873 70.8405L349.666 24.1444L352.16 24.0568L353.383 70.8024L350.873 70.8405ZM353.703 70.7986L352.48 24.0454L355.085 23.954L356.296 70.7605L353.703 70.7986ZM356.612 70.7567L355.401 23.9426L358.044 23.8512L359.254 70.7148L356.612 70.7567ZM359.574 70.711L358.363 23.8397L360.953 23.7484L362.167 70.6729L359.574 70.711ZM363.538 70.1741C363.268 70.4597 362.91 70.6158 362.483 70.6577L361.269 23.7407L361.886 23.7179C362.114 23.7065 362.647 23.7369 363.089 24.1101C363.093 24.1634 363.1 24.2129 363.1 24.2662L364.201 67.7332C364.22 68.2359 364.193 69.4772 363.538 70.1741Z" fill="#E9EEF1"/>
<path d="M337.984 24.6071L337.668 24.6152L338.86 70.9699L339.176 70.9618L337.984 24.6071Z" fill="#E9EEF1"/>
<path d="M329.201 25.0899L328.885 25.0981L330.082 71.1255L330.398 71.1172L329.201 25.0899Z" fill="#E9EEF1"/>
<path d="M323.461 25.1715L323.146 25.1797L324.343 71.207L324.659 71.1988L323.461 25.1715Z" fill="#E9EEF1"/>
<path d="M309.535 25.5937L309.219 25.6021L310.421 71.2906L310.737 71.2823L309.535 25.5937Z" fill="#E9EEF1"/>
<path d="M286.911 69.0124C286.892 68.8525 286.877 68.7192 286.873 68.6278L285.464 31.3905C285.43 30.2253 285.38 29.3076 285.289 28.5803H285.35L285.342 28.2528L285.239 28.2566C284.881 26.0062 283.979 25.8462 281.428 25.8843L189.564 28.1843C188.818 28.1691 188.224 28.4166 187.774 28.9116C186.701 30.0958 186.788 32.3882 186.933 33.641L188.616 72.3748C188.681 73.4486 190.219 75.2345 191.289 75.2345C191.308 75.2345 191.327 75.2345 191.346 75.2345L283.956 73.8332C284.939 73.9094 285.696 73.6809 286.21 73.144C286.5 72.8432 286.69 72.4662 286.816 72.0625H286.877L286.873 71.8569C287.12 70.8402 286.987 69.6826 286.911 69.0124ZM188.943 72.3596L187.26 33.6143C187.119 32.4072 187.032 30.2177 188.018 29.1324C188.391 28.7212 188.894 28.5118 189.518 28.5118C189.534 28.5118 189.553 28.5118 189.568 28.5118L281.439 26.208C283.808 26.1737 284.611 26.2423 284.927 28.2604L192.808 30.5452C192.058 30.5299 191.468 30.7775 191.019 31.2725C189.945 32.4567 190.032 34.7491 190.177 36.0019L191.578 70.9735L189.054 72.8203C188.993 72.6528 188.951 72.4966 188.943 72.3596ZM285.974 72.9155C285.529 73.3763 284.855 73.5743 283.975 73.5057H283.968L191.331 74.907C190.676 74.9527 189.701 74.0274 189.225 73.1706L286.469 72.0625C286.359 72.39 286.203 72.6832 285.974 72.9155ZM286.564 71.7389L189.583 72.8432L191.803 71.2172L286.545 70.3909L286.542 70.0634L191.906 70.8897L190.505 35.9752C190.364 34.7681 190.276 32.5786 191.262 31.4933C191.647 31.0707 192.169 30.8574 192.812 30.8727L284.973 28.5879C285.06 29.2962 285.102 30.2139 285.137 31.4019L286.545 68.6431C286.553 68.7421 286.568 68.883 286.587 69.0505C286.66 69.6864 286.785 70.7907 286.564 71.7389Z" fill="#E9EEF1"/>
<path d="M344.846 221.278C345.448 221.446 346.201 221.549 346.864 221.56L386.26 222.653C386.431 222.657 386.595 222.657 386.755 222.657C388.678 222.657 389.774 222.459 390.186 222.04C390.406 221.815 390.399 221.572 390.395 221.389C390.395 221.358 390.395 221.328 390.395 221.305L390.414 220.92C391.039 219.904 391.061 218.613 391.073 217.722L391.808 181.303C391.827 181.292 391.846 181.277 391.861 181.265L391.808 181.189L391.812 180.922C391.914 180.827 392.017 180.736 392.101 180.648L391.823 180.374L392.653 139.15C392.68 137.406 391.282 135.963 389.538 135.932L348.798 135.285C347.054 135.262 344.945 136.637 344.914 138.392L344.366 185.511L344.29 185.515C344.286 185.793 344.282 186.162 344.355 186.543L344.08 210.182L343.757 220.559C343.761 220.837 344.122 221.08 344.846 221.278ZM390.029 221.88C389.774 222.135 389.15 222.303 388.167 222.379C389.112 222.192 389.748 221.781 390.174 221.259V221.297C390.174 221.328 390.174 221.362 390.174 221.396C390.182 221.556 390.186 221.724 390.029 221.88ZM390.753 217.718C390.742 218.396 390.722 219.253 390.464 220.037L390.875 211.702L390.753 217.718ZM391.427 184.231H391.377C391.362 185.202 391.328 186.836 387.166 186.764L378.393 186.406C379.021 186.352 379.653 186.265 380.281 186.151C382.791 185.964 385.026 185.157 387.33 184.037C387.829 183.816 388.308 183.569 388.781 183.299C389.173 183.093 389.565 182.88 389.969 182.663L389.93 182.594C390.445 182.259 390.955 181.905 391.476 181.539L391.427 184.231ZM369.262 183.238C366.802 181.939 364.593 180.191 362.754 178.04C358.992 173.638 357.221 168.097 357.766 162.435C358.326 156.647 360.892 151.423 364.997 147.725C369.224 143.917 374.714 142.124 380.472 142.684C384.394 143.061 387.813 145.262 390.974 147.699C390.235 147.249 389.504 146.872 388.761 146.568C386.443 144.938 384.108 144.134 380.997 143.834C370.217 142.794 360.53 151.35 359.411 162.911C358.588 171.479 362.693 179.323 369.262 183.238ZM380.506 142.314C374.65 141.747 369.052 143.571 364.749 147.451C360.576 151.21 357.968 156.522 357.4 162.401C356.844 168.162 358.645 173.802 362.476 178.28C365.317 181.604 369.022 183.992 373.184 185.241C363.306 183.283 355.892 174.171 356.064 163.372C356.254 151.282 365.876 141.606 377.517 141.785C382.734 141.869 386.728 143.384 390.208 146.659C387.276 144.496 384.112 142.661 380.506 142.314ZM359.757 162.945C360.854 151.571 370.373 143.152 380.967 144.176C383.465 144.416 385.449 144.991 387.337 146.069C387.01 145.974 386.675 145.894 386.332 145.821C385.209 145.482 384.002 145.262 382.65 145.128C371.87 144.085 362.225 152.219 361.159 163.258C360.641 168.604 362.19 173.828 365.519 177.964C368.847 182.103 373.557 184.662 378.781 185.164C379.387 185.222 379.965 185.252 380.529 185.26C379.981 185.37 379.428 185.458 378.88 185.519C378.271 185.519 377.643 185.488 376.984 185.423C366.383 184.407 358.657 174.32 359.757 162.945ZM373.641 186.208L356.205 185.496L354.701 185.164C352.374 185.126 351.258 184.197 351.289 182.316L351.593 142.215C351.62 140.483 352.816 139.036 354.407 138.613L356.658 138.64L357.473 138.743C355.633 139.108 354.236 140.65 354.205 142.52L353.6 180.728C353.562 183.055 354.765 184.258 357.636 184.765L373.641 186.208ZM382.399 145.448C372.034 145.49 363.527 154.161 363.352 164.956C363.192 175.153 370.522 183.691 380.064 184.921C379.657 184.905 379.242 184.879 378.812 184.837C373.679 184.342 369.048 181.829 365.777 177.758C362.507 173.687 360.983 168.551 361.49 163.292C362.533 152.508 371.885 144.553 382.399 145.448ZM391.511 180.081C390.418 181.181 387.863 182.792 384.794 183.992C383.983 184.167 383.114 184.258 382.155 184.239C372.079 184.079 364.018 175.435 364.186 164.967C364.35 154.599 372.529 146.274 382.475 146.274C382.57 146.274 382.665 146.275 382.76 146.278C386.454 146.335 388.937 147.162 391.922 149.328C391.96 149.359 391.998 149.389 392.036 149.42L392.135 149.306L391.511 180.081ZM392.135 149.069C392.128 149.066 392.124 149.062 392.116 149.054L392.135 149.028V149.069ZM392.154 148.152C392.078 148.091 391.998 148.03 391.922 147.965L392.162 147.752L392.154 148.152ZM392.166 147.482C388.202 143.068 383.678 141.05 377.528 140.951C365.423 140.761 355.432 150.81 355.23 163.357C355.062 174.007 362.008 183.078 371.508 185.698L357.667 184.452C354.959 183.976 353.87 182.899 353.905 180.732L354.51 142.524C354.541 140.555 356.235 138.975 358.318 138.975C358.337 138.975 358.36 138.975 358.383 138.975L360.907 138.689L387.981 139.001C389.024 139.066 392.417 139.542 392.208 142.874L392.257 142.878L392.166 147.482ZM345.249 138.4C345.272 136.884 347.184 135.616 348.756 135.616C348.772 135.616 348.787 135.616 348.802 135.616L389.542 136.264C391.107 136.286 392.36 137.581 392.337 139.146L392.295 141.233C391.872 140.098 390.772 138.857 388 138.682L356.681 138.32L355.451 138.164C355.077 138.156 354.716 138.206 354.373 138.293L348.753 138.228C347.751 138.095 346.929 138.289 346.304 138.803C345.748 139.26 345.425 139.919 345.227 140.566L345.249 138.4ZM345.2 142.619L345.234 142.623L345.238 142.539C345.28 141.838 345.394 139.972 346.506 139.055C347.058 138.598 347.797 138.43 348.726 138.552L353.532 138.609C352.214 139.279 351.293 140.639 351.27 142.219L350.965 182.32C350.95 183.409 351.293 184.228 351.986 184.757C352.401 185.073 352.93 185.282 353.577 185.393L347.77 185.157C346.396 185.134 344.937 184.681 344.949 183.881L344.716 183.877L345.2 142.619ZM344.716 184.285C345.071 185.073 346.457 185.454 347.763 185.477L356.189 185.823L356.566 185.907L356.582 185.838L387.158 187.091C387.242 187.091 387.322 187.091 387.402 187.091C389.934 187.091 390.97 186.436 391.4 185.694L391.377 186.908H391.267C391.259 187.35 391.183 187.997 390.593 188.527C389.885 189.159 388.605 189.464 386.816 189.441L347.869 188.154C346.617 188.218 345.722 188.001 345.204 187.502C344.914 187.221 344.766 186.882 344.694 186.535L344.716 184.285ZM344.678 187.362C344.758 187.491 344.853 187.617 344.972 187.735C345.558 188.298 346.533 188.553 347.865 188.477L386.8 189.764C386.877 189.764 386.957 189.764 387.029 189.764C388.796 189.764 390.064 189.429 390.799 188.767C391.035 188.553 391.214 188.31 391.343 188.032L391.099 200.145C390.867 199.684 390.49 199.295 389.972 199.006C389.028 198.477 387.897 198.385 387.311 198.374L347.584 196.744C347.568 196.744 347.549 196.744 347.534 196.744C346.118 196.744 344.895 197.719 344.545 198.34L344.678 187.362ZM344.477 204.912L344.671 198.644C344.675 198.298 345.939 196.965 347.542 196.965C347.557 196.965 347.572 196.965 347.588 196.965L387.315 198.595C387.886 198.602 388.975 198.694 389.873 199.196C390.54 199.57 390.951 200.091 391.096 200.746L391.031 204.029L390.212 220.616C389.725 221.492 388.788 222.158 386.968 222.158C386.93 222.158 386.888 222.158 386.85 222.158L365.362 220.905L365.941 197.73L365.625 197.723L365.222 213.823L345.112 218.552L345.185 218.857L365.214 214.146L365.168 215.97L347.469 219.866H347.462C346.693 219.854 345.904 219.534 345.295 218.99C344.663 218.426 344.324 217.71 344.336 216.975L344.477 204.912ZM365.157 216.302L365.043 220.894L348.627 219.938L365.157 216.302ZM344.08 217.623C344.221 218.217 344.56 218.773 345.078 219.237C345.745 219.835 346.613 220.186 347.45 220.197L385.27 222.398L346.868 221.336C346.22 221.324 345.489 221.221 344.903 221.061C344.176 220.86 343.985 220.654 343.989 220.566L344.08 217.623Z" fill="#E9EEF1"/>
<path d="M375.385 156C376.642 154.332 378.203 152.87 380.137 151.925L380.263 151.857L380.225 151.746C380.175 151.605 380.153 151.533 373.047 153.125L372.99 153.136L372.963 153.186C372.91 153.277 367.705 162.446 370.275 168.44L370.462 168.878L370.523 168.406C370.534 168.33 371.155 163.745 373.382 159.274C373.264 159.587 373.146 159.914 373.036 160.257C372.339 162.393 371.722 165.443 372.754 167.846L372.941 168.284L373.001 167.812C373.013 167.716 374.3 158.189 380.324 155.249L380.446 155.185L380.408 155.074C380.358 154.933 380.343 154.888 375.385 156ZM370.34 167.895C368.333 162.252 372.762 154.08 373.161 153.368C375.214 152.908 378.066 152.283 379.38 152.032C377.609 153.037 376.173 154.476 375.004 156.087C374.966 156.095 374.932 156.102 374.894 156.11L374.837 156.121L374.81 156.171C374.806 156.179 374.631 156.483 374.376 157.001C371.634 161.262 370.603 166.334 370.34 167.895ZM372.819 167.294C371.642 163.768 373.675 159.004 374.605 157.119C374.78 156.849 374.963 156.582 375.149 156.319C376.611 155.992 378.53 155.573 379.559 155.367C374.715 158.258 373.158 165.371 372.819 167.294Z" fill="#E9EEF1"/>
<path d="M324.847 29.0302L324.523 29.041L325.713 64.7375L326.036 64.7268L324.847 29.0302Z" fill="#E9EEF1"/>
<path d="M330.615 27.3188L330.291 27.3276L331.398 68.0253L331.722 68.0164L330.615 27.3188Z" fill="#E9EEF1"/>
<path d="M336.716 28.3752L336.393 28.3848L337.535 67.084L337.858 67.0745L336.716 28.3752Z" fill="#E9EEF1"/>
<path d="M342.294 29.9858L341.971 29.9966L343.16 65.6931L343.484 65.6823L342.294 29.9858Z" fill="#E9EEF1"/>
<path d="M365.793 190.796L365.737 194.276L369.217 194.332L369.273 190.852L365.793 190.796Z" fill="#E9EEF1"/>
<path d="M319.124 27.1318L318.801 27.1406L319.908 67.8382L320.232 67.8294L319.124 27.1318Z" fill="#E9EEF1"/>
<path d="M313.999 30.7656L313.676 30.7764L314.865 66.4729L315.189 66.4621L313.999 30.7656Z" fill="#E9EEF1"/>
</g>
</g>
<defs>
<clipPath id="clip0_5737_13895">
<rect width="440" height="440" fill="white"/>
</clipPath>
<clipPath id="clip1_5737_13895">
<rect width="332" height="323" fill="white" transform="translate(163 9)"/>
</clipPath>
</defs>
</svg>
