<svg width="335" height="300" viewBox="0 0 335 300" fill="none" xmlns="http://www.w3.org/2000/svg">
<mask id="mask0_6182_102982" style="mask-type:alpha" maskUnits="userSpaceOnUse" x="0" y="0" width="335" height="300">
<path d="M310.507 299.5H10C4.75329 299.5 0.5 295.247 0.5 290V10C0.5 4.75329 4.75329 0.5 9.99999 0.5H325C330.247 0.5 334.5 4.75329 334.5 9.99999V275.398C334.5 277.906 333.509 280.311 331.742 282.091L317.249 296.692C315.465 298.489 313.038 299.5 310.507 299.5Z" fill="#050505" stroke="url(#paint0_linear_6182_102982)"/>
</mask>
<g mask="url(#mask0_6182_102982)">
<g filter="url(#filter0_f_6182_102982)">
<circle cx="31.5" cy="35.5" r="156.5" transform="rotate(-90 31.5 35.5)" fill="#1E1D49"/>
</g>
<g filter="url(#filter1_f_6182_102982)">
<circle cx="344.5" cy="284.5" r="156.5" transform="rotate(-90 344.5 284.5)" fill="#1E1D49"/>
</g>
</g>
<g clip-path="url(#clip0_6182_102982)">
<g opacity="0.6" clip-path="url(#clip1_6182_102982)">
<path d="M134.388 196.677L134.466 191.781C134.475 191.256 134.249 190.873 133.793 190.647C132.892 190.195 131.448 190.479 131.245 190.58L131.135 197.446L134.388 196.677ZM134.46 196.735L131.062 197.538L131.173 190.548V190.546C131.222 190.401 134.57 189.74 134.536 191.781C134.518 193.004 134.46 196.735 134.46 196.735Z" fill="#E9EEF1"/>
<path d="M131.063 197.538L134.46 196.735C134.46 196.735 134.518 193.004 134.539 191.783C134.571 189.74 131.222 190.403 131.176 190.548V190.551L131.063 197.538ZM131.1 190.548V190.546L131.147 187.704C131.147 187.664 131.179 187.632 131.216 187.632H131.219L143.117 187.82C142.871 187.461 142.1 186.359 141.697 186.121C141.624 186.081 141.584 186.014 141.563 185.924C141.453 185.365 142.535 183.927 142.659 183.764C142.671 183.747 142.694 183.735 142.714 183.735C142.726 183.735 143.384 183.738 144.361 183.741C145.335 183.741 146.628 183.75 147.915 183.759C153.177 183.805 153.195 183.872 153.215 183.956C153.232 183.973 153.392 184.077 153.548 184.176C154.233 184.611 155.65 185.518 155.575 186.533C155.572 186.574 155.54 186.608 155.497 186.603C155.459 186.6 155.427 186.565 155.43 186.524C155.497 185.594 154.128 184.721 153.47 184.298C153.229 184.147 153.131 184.08 153.09 184.031C152.667 183.93 146.724 183.886 142.749 183.88C142.41 184.33 141.621 185.486 141.702 185.895C141.714 185.942 141.734 185.974 141.763 185.991C142.274 186.295 143.265 187.785 143.309 187.852C143.323 187.875 143.326 187.904 143.314 187.928C143.3 187.951 143.277 187.965 143.251 187.965C143.251 187.965 143.251 187.965 143.248 187.965L131.286 187.774L131.242 190.424C131.535 190.314 132.193 190.244 132.59 190.253C133.904 190.273 134.62 190.815 134.605 191.778L134.527 196.729C134.527 196.761 134.504 196.79 134.472 196.799L131.074 197.602C131.068 197.602 131.063 197.605 131.057 197.605C131.039 197.605 131.025 197.599 131.01 197.588C130.993 197.576 130.984 197.553 130.984 197.533L131.095 190.546L131.1 190.548Z" fill="#E9EEF1"/>
<path d="M368.462 127.485C356.645 126.972 332.687 125.435 331.136 125.334C330.228 124.777 327.028 122.597 326.303 122.101L328.269 91.2047C328.271 91.0279 328.254 90.8481 328.219 90.6713C328.011 89.6537 327.181 85.502 326.135 80.2487C323.392 66.5008 318.806 43.4928 318.38 41.9853C318.307 41.733 318.2 41.3503 303.983 36.0216C297.097 33.4414 289.122 30.5538 287.249 29.9652C286.97 29.8783 286.683 29.8406 286.391 29.8551L136.871 37.2219C135.589 37.2857 134.543 38.9179 134.531 40.2429L136.07 81.7099L135.908 81.7012L134.067 88.2823L135.925 92.1064L138.555 92.147L139.778 90.68C140.912 91.2598 142.269 91.5497 143.831 91.5294L149.737 92.4514H149.763C150.757 92.4456 151.575 93.2313 151.604 94.217L152.674 128.929C152.7 129.819 153.21 130.625 153.999 131.034C154.602 131.347 154.981 131.961 154.984 132.643L155.132 158.701C154.66 158.675 153.683 158.657 151.645 158.625L151.523 158.622L151.459 162.615L151.552 162.638C152.019 162.762 152.694 162.8 153.349 162.8C154.083 162.8 154.793 162.754 155.153 162.725L155.28 185.26C155.286 186.182 155.132 187.072 154.842 187.901L143.254 187.774L143.252 188.02L152.561 188.122C150.552 188.368 148.302 188.82 147.838 189.464C147.249 190.284 147.421 191.418 147.513 191.835L142.272 191.751C142.275 191.276 142.266 190.884 142.237 190.705L142.222 190.618C142.109 189.893 141.77 187.692 138.372 187.669L138.369 187.916C141.556 187.939 141.86 189.913 141.976 190.655L141.99 190.745C142.075 191.264 141.973 193.778 141.935 194.642L135.856 196.08L135.943 190.629C135.946 190.586 135.981 189.522 135.096 188.652C134.279 187.846 132.968 187.487 131.206 187.585L131.22 187.832C132.91 187.739 134.157 188.072 134.922 188.826C135.728 189.618 135.699 190.612 135.699 190.626L135.612 196.094L135.792 196.097L125.99 198.411C124.761 198.701 123.958 199.863 124.123 201.116C124.491 203.919 125.196 209.97 126.008 216.974C127.385 228.829 129.101 243.583 130.243 251.721C130.768 255.441 134.476 258.923 138.514 259.482L264.899 275.697C265.299 275.747 265.697 275.773 266.094 275.773C266.83 275.773 267.561 275.686 268.271 275.518L268.335 275.732C268.335 275.732 335.687 255.745 355.471 249.868C358.857 248.862 361.2 245.812 361.298 242.281L362.307 206.36L362.31 206.233L337.566 179.154L354.517 171.306L367.056 171.335C367.062 171.335 367.071 171.335 367.076 171.335C372.173 171.335 376.38 167.195 376.461 162.098L376.87 136.415C376.951 131.614 373.254 127.694 368.462 127.485ZM286.42 30.4871C286.637 30.4755 286.849 30.5045 287.054 30.5683C291.284 31.899 316.339 41.1619 317.785 42.2288C318.307 44.2553 322.807 66.8168 325.511 80.3734C326.602 85.8354 327.387 89.7812 327.599 90.8017C327.625 90.9322 327.639 91.0656 327.637 91.1844L324.929 133.713C324.92 134.188 324.511 134.965 323.905 135.646C323.294 136.336 322.621 136.78 322.183 136.78C322.18 136.78 322.177 136.78 322.175 136.78L321.995 136.777L321.972 136.815C321.186 136.968 316.889 137.696 312.439 136.133C307.583 134.429 304.426 127.198 304.394 127.123L304.27 127.175C304.586 112.105 304.878 97.1336 304.983 91.7237L304.989 91.4019L298.639 91.4222V91.3671L287.269 91.4193C287.881 91.1149 288.362 90.6713 288.371 90.019C288.446 85.0701 287.826 65.9934 287.327 50.6625C287.057 42.3941 286.825 35.2534 286.756 31.9976C286.744 31.5047 286.562 31.093 286.211 30.777C286.098 30.6755 285.97 30.5886 285.837 30.5132L286.42 30.4871ZM148.818 202.51L145.252 202.209L145.977 201.006L149.647 201.31L148.818 202.51ZM149.003 216.563L145.443 216.255L145.052 202.539L145.11 202.444L148.74 202.751L149.003 216.563ZM146.513 200.803L176.403 193.439L179.943 193.671C176.206 194.465 153.265 200.292 150.091 201.098L146.513 200.803ZM263.728 92.4862L263.316 118.414L248.279 118.176C246.565 118.15 244.524 118.985 244.457 123.128C244.437 124.342 244.049 125.444 243.362 126.227C242.646 127.042 241.648 127.465 240.518 127.445L214.457 127.03C211.578 126.984 210.935 124.951 210.9 123.255C210.83 119.727 210.822 116.929 210.871 116.407L228.39 119.64C228.521 119.663 228.651 119.672 228.779 119.672C229.338 119.672 229.881 119.469 230.31 119.092C230.837 118.628 231.124 117.958 231.095 117.257L230.104 92.2629L304.345 92.0368C304.197 99.6443 304.006 109.284 303.806 119.06L263.945 118.428L264.357 92.5007L263.728 92.4862ZM210.596 116.558C210.433 116.564 210.32 116.442 210.303 116.387L210.477 116.355H210.59L210.854 116.404C210.81 116.477 210.723 116.552 210.596 116.558ZM230.469 117.28C230.489 117.79 230.281 118.277 229.898 118.617C229.515 118.956 229.005 119.101 228.504 119.017L210.68 115.729L210.654 115.723L157.141 115.161L157.501 92.4804L229.481 92.26L230.469 117.28ZM210.259 116.352C210.166 117.01 210.181 118.73 210.268 123.27C210.323 126.062 211.805 127.621 214.446 127.662L240.506 128.077C240.532 128.077 240.561 128.077 240.587 128.077C241.889 128.077 243.011 127.581 243.834 126.641C244.62 125.746 245.066 124.502 245.087 123.136C245.133 120.263 246.18 118.805 248.197 118.805C248.221 118.805 248.244 118.805 248.264 118.805L263.302 119.043L303.791 119.686C303.333 141.935 302.826 164.661 302.678 165.482L302.985 165.557L302.959 165.679L305.386 166.204L303.461 196.941C303.385 198.164 302.834 199.283 301.915 200.095C300.996 200.907 299.814 201.307 298.59 201.229L189.072 194.024C189.214 192.296 189.333 177.235 189.339 176.571V176.452L176.676 175.867L176.548 175.861L176.273 193.181L160.096 192.117C159.206 192.059 157.498 191.299 157.498 190.409L156.701 130.486L156.935 115.787L210.259 116.352ZM185.738 194.05L188.13 194.207L157.481 201.71L156.59 201.638L185.738 194.05ZM180.54 193.462L176.519 193.198L176.792 176.119L180.732 176.302C180.761 177.754 181.039 192.027 180.54 193.462ZM186.112 193.83L186.388 176.563L189.093 176.687C189.049 182.338 188.939 192.775 188.829 194.01L186.112 193.83ZM153.764 203.803C153.802 203.632 153.961 203.426 154.176 203.212L155.97 203.365L155.929 203.415L155.973 217.163L153.68 216.966C153.674 216.203 153.604 204.514 153.764 203.803ZM154.419 202.986C154.97 202.513 155.709 202.046 156.045 201.841L157.144 201.93L156.156 203.131L154.419 202.986ZM156.269 203.389L274.71 213.434C274.707 213.487 274.704 213.539 274.704 213.591L274.756 227.403L156.219 217.183L156.176 203.499L156.269 203.389ZM274.736 213.191L156.457 203.16L157.425 201.98L157.498 201.962L275.536 211.747C275.119 212.118 274.829 212.625 274.736 213.191ZM158.255 201.777L188.948 194.262L298.579 201.475C298.686 201.481 298.793 201.487 298.9 201.487C300.074 201.487 301.194 201.066 302.084 200.284C303.055 199.431 303.632 198.251 303.713 196.961L305.644 166.169C305.852 165.986 307.05 164.998 308.424 165.151C309.198 165.238 309.897 165.673 310.506 166.447C310.137 166.859 309.903 167.387 309.874 167.961L308.404 196.703C308.23 200.087 305.922 202.974 302.663 203.887L276.499 211.228C276.258 211.295 276.038 211.399 275.835 211.53L158.255 201.777ZM308.444 164.902C306.974 164.743 305.736 165.749 305.484 165.972L303.31 165.499C303.472 163.609 303.875 146.037 304.249 128.28C304.626 129.025 305.238 130.144 306.067 131.35C307.328 133.185 308.65 134.588 310.019 135.556C309.766 137.6 308.514 149.768 313.66 156.115C315.541 158.437 318.081 159.739 321.203 159.999L321.198 161.768C321.169 164.151 319.612 164.354 318.478 164.505C318.194 164.543 317.945 164.574 317.753 164.641L311.5 165.772L311.445 165.786C311.155 165.896 310.9 166.065 310.677 166.265C310.03 165.456 309.282 164.995 308.444 164.902ZM313.851 155.964C308.865 149.812 309.966 138.076 310.248 135.719C310.9 136.157 311.564 136.493 312.233 136.728C314.527 137.534 316.75 137.757 318.519 137.757C319.887 137.757 320.98 137.624 321.621 137.519C321.458 137.925 321.287 138.511 321.27 139.178L321.206 159.756C318.159 159.498 315.686 158.225 313.851 155.964ZM135.163 40.2342C135.172 39.2223 135.995 37.8974 136.902 37.8539L283.52 30.6292L283.529 30.7306C283.544 30.7277 285.083 30.6118 285.793 31.2496C286.014 31.4467 286.124 31.699 286.13 32.015C286.199 35.2708 286.431 42.4143 286.701 50.6857C287.199 66.0079 287.82 85.0788 287.744 90.0103C287.73 90.9873 285.327 91.3932 284.715 91.4106V91.4309L264.963 91.5236L162.974 91.8339C196.233 91.1438 277.882 89.4623 282.549 89.4623C282.599 89.4623 282.639 89.4623 282.671 89.4623C283.312 89.4681 283.952 89.1782 284.474 88.6418C285.005 88.0968 285.361 87.3459 285.341 86.8154C285.176 82.4985 285.048 75.0592 284.898 66.4428C284.724 56.4377 284.526 45.0961 284.222 35.7781V35.7375C284.181 34.4677 284.129 32.8876 282.001 32.8528C281.998 32.8528 281.993 32.8528 281.987 32.8528C279.482 32.8528 140.434 40.153 139.471 40.2342C136.847 40.4545 136.772 43.3305 136.772 43.3653C136.824 44.7221 137.81 70.9684 138.346 81.8404L136.702 81.7476L135.163 40.2342ZM136.323 91.4831L134.74 88.2215L136.378 82.3593L136.555 82.3709C137.317 82.4608 137.79 82.4985 138.085 82.5072C138.071 82.6579 138.065 82.8058 138.056 82.9536L136.297 88.4679L138.077 91.5091L136.323 91.4831ZM139.239 90.3437L138.323 91.4425L136.566 88.4389L138.03 83.8495C138.042 87.027 139.1 89.2043 139.509 89.9262L139.239 90.3437ZM149.786 91.8223L143.904 90.9032L143.878 90.9003H143.852C142.434 90.9177 141.216 90.6742 140.196 90.1813L140.321 90.0335L140.19 89.8363C140.176 89.816 139.21 88.32 138.822 85.8296C138.781 85.2962 138.729 84.438 138.671 83.3276C138.683 82.9623 138.709 82.5884 138.752 82.1999L138.79 81.8694L138.596 81.8578C138.051 70.8148 137.03 43.6929 137.018 43.3653C137.021 43.2551 137.094 40.6835 139.491 40.4806C142.193 40.2545 280.32 33.0993 281.99 33.0993C281.993 33.0993 281.995 33.0993 281.995 33.0993C283.889 33.1283 283.932 34.459 283.973 35.7462V35.7868C284.277 45.1048 284.474 56.4435 284.648 66.4486C284.799 75.065 284.926 82.5072 285.092 86.827C285.106 87.2241 284.84 87.9171 284.297 88.4737C283.964 88.8158 283.419 89.2188 282.697 89.2188C282.688 89.2188 282.683 89.2188 282.674 89.2188C279.059 89.1724 162.78 91.5932 150.154 91.857C150.033 91.8368 149.911 91.8223 149.786 91.8223ZM151.708 162.423L151.763 158.872C152.923 158.892 154.489 158.918 155.132 158.938L155.153 162.478C154.518 162.528 152.682 162.646 151.708 162.423ZM142.269 191.998L147.835 192.085L147.789 191.925C147.786 191.911 147.389 190.511 148.038 189.606C148.586 188.841 152.558 188.275 154.735 188.171C153.822 190.499 151.83 192.302 149.264 192.908L142.188 194.581C142.214 194.016 142.257 192.905 142.269 191.998ZM126.138 199.025L149.412 193.523C152.277 192.844 154.489 190.789 155.425 188.153C155.442 188.153 155.463 188.153 155.48 188.153L155.483 187.977C155.767 187.118 155.921 186.202 155.915 185.254L155.619 132.637C155.613 131.721 155.106 130.892 154.291 130.471C153.703 130.17 153.326 129.57 153.306 128.909L152.236 94.1967C152.207 93.2718 151.656 92.4746 150.876 92.0832C152.219 92.0542 154.257 92.0136 156.872 91.9585L156.498 115.468L156.692 115.471L156.454 130.489L157.251 190.412C157.251 191.45 159.087 192.296 160.078 192.363L175.591 193.384L145.916 200.695L145.867 200.707L145.843 200.745L125.915 199.092C125.987 199.069 126.06 199.043 126.138 199.025ZM125.506 199.31L145.701 200.982L144.977 202.186L124.764 200.469C124.851 200 125.117 199.582 125.506 199.31ZM124.749 201.035C124.735 200.927 124.732 200.82 124.735 200.716L144.832 202.42L144.8 202.475L145.194 216.235L126.37 214.611C125.671 208.593 125.08 203.531 124.749 201.035ZM126.399 214.861L274.753 227.652L274.762 229.652C273.614 229.4 269.152 228.875 251.862 227.31C239.546 226.194 222.375 224.706 200.817 222.886C165.041 219.865 128.802 216.91 126.657 216.737L126.477 215.536C126.451 215.31 126.425 215.084 126.399 214.861ZM264.98 275.068L138.601 258.856C134.827 258.334 131.359 255.093 130.872 251.634C129.73 243.522 128.022 228.82 126.645 216.983C131.101 217.345 268.686 228.562 274.762 229.876L274.898 266.304C274.907 268.838 273.823 271.256 271.927 272.934C270.028 274.613 267.497 275.393 264.98 275.068ZM271.344 274.178C271.692 273.946 272.028 273.688 272.344 273.407C274.379 271.607 275.542 269.018 275.53 266.301L275.388 228.29C275.603 228.238 275.933 228.156 276.365 228.049C299.042 222.451 303.826 221.526 304.507 221.526C304.513 221.526 304.519 221.526 304.525 221.526C304.594 223.025 303.71 245.998 303.327 255.925C303.203 259.189 303.119 261.349 303.116 261.514C303.075 264.043 302.979 264.573 301.188 265.321C288.179 269.183 276.693 272.589 271.344 274.178ZM375.835 162.084C375.759 166.839 371.834 170.7 367.082 170.7C367.076 170.7 367.071 170.7 367.062 170.7L356.074 170.677L360.197 168.677L360.15 168.581L360.348 168.593L362.159 134.339L361.913 134.327L360.104 168.491L359.924 168.109L336.52 178.946L361.675 206.473L360.669 242.267C360.577 245.525 358.417 248.338 355.291 249.265C345.072 252.301 322.151 259.102 302.385 264.97C303.22 264.353 303.336 263.524 303.368 261.52C303.371 261.358 303.452 259.201 303.58 255.936C304.261 238.214 304.875 221.761 304.762 221.398C304.69 221.175 304.583 220.836 276.313 227.814C275.919 227.913 275.609 227.988 275.394 228.04L275.339 213.594C275.336 212.779 275.884 212.054 276.667 211.834L302.832 204.493C306.354 203.505 308.847 200.388 309.033 196.732L310.503 167.99C310.537 167.279 310.987 166.656 311.645 166.392L317.895 165.262L317.951 165.247C318.075 165.198 318.313 165.169 318.562 165.137C319.693 164.989 321.795 164.714 321.833 161.78L321.902 139.189C321.922 138.374 322.224 137.684 322.366 137.4C323.212 137.29 324.045 136.447 324.381 136.064C324.943 135.426 325.549 134.478 325.561 133.736L326.254 122.838C327.361 123.592 330.127 125.47 330.875 125.917L330.942 125.957L331.017 125.963C331.037 125.963 331.202 125.975 331.498 125.995C335.438 127.491 358.823 133.507 361.672 134.237L361.71 134.246L372.646 129.906L372.556 129.677L361.693 133.988C351.412 131.35 336.708 127.465 332.368 126.05C337.752 126.392 357.906 127.662 368.436 128.12C372.883 128.314 376.313 131.953 376.241 136.406L375.835 162.084Z" fill="#E9EEF1"/>
<path d="M162.212 174.127L242.359 177.731C242.396 177.734 242.437 177.734 242.475 177.734C243.782 177.734 245.032 176.768 245.687 175.243L245.713 175.185L246.122 137.104C246.275 135.643 245.811 134.005 244.965 133.022C244.536 132.521 244.043 132.245 243.539 132.222L161.844 130.628C161.122 130.596 160.255 130.848 159.545 131.303C158.733 131.825 158.266 132.506 158.234 133.234L158.104 169.735C158.101 169.819 158.095 169.909 158.089 170.002C158.04 170.81 157.968 172.034 158.797 172.941C159.475 173.681 160.594 174.069 162.212 174.127ZM158.724 170.036C158.73 169.941 158.736 169.848 158.739 169.746L158.869 133.246C158.892 132.747 159.264 132.234 159.887 131.831C160.484 131.448 161.22 131.225 161.826 131.254L243.521 132.848C243.924 132.866 244.269 133.173 244.489 133.428C245.22 134.278 245.632 135.768 245.495 137.046L245.087 175.046C244.51 176.339 243.454 177.148 242.39 177.096L171.605 173.915C169.21 173.53 164.453 172.785 162.951 172.689L163.125 168.39L165.082 168.645C164.94 171.228 165.03 171.332 165.071 171.376L165.111 171.413L165.157 171.419H165.16L165.152 171.611L166.906 171.692C168.587 171.961 171.098 172.364 172.698 172.622L172.736 172.379C172.182 172.289 170.643 172.04 169.095 171.793L204.661 173.449C204.684 173.449 204.71 173.449 204.734 173.449C205.748 173.449 206.859 173.109 207.717 172.535C208.726 171.86 209.291 170.941 209.306 169.946L209.566 137.629C209.584 136.591 209.248 135.522 208.645 134.692C207.975 133.77 207.059 133.254 206.067 133.24L196.735 132.924V132.912L196.488 132.909V132.918L163.876 131.811C163.859 131.811 163.841 131.811 163.824 131.811C162.838 131.811 161.821 132.248 161.026 133.017C160.217 133.799 159.748 134.823 159.73 135.829L159.484 167.384C159.455 169.146 160.922 170.958 162.754 171.425L162.693 172.924L162.815 172.93C163.806 172.973 166.882 173.428 169.39 173.817L162.235 173.495C160.812 173.446 159.811 173.115 159.264 172.515C158.617 171.802 158.678 170.822 158.724 170.036ZM160.826 134.284C160.997 133.994 161.215 133.718 161.47 133.469C161.6 133.341 161.739 133.228 161.881 133.124L161.481 158.205L160.562 158.176L160.942 134.286L160.826 134.284ZM206.212 159.62L205.168 159.588L205.577 133.86L206.053 133.878C206.247 133.881 206.435 133.91 206.621 133.959L206.212 159.62ZM206.864 134.04C207.221 134.182 207.552 134.411 207.844 134.724L207.447 159.66L206.456 159.628L206.864 134.04ZM204.922 159.579L203.899 159.547L204.307 133.817L205.331 133.852L204.922 159.579ZM203.655 159.538L202.646 159.506L203.055 133.773L204.064 133.808L203.655 159.538ZM202.4 159.498L201.376 159.466L201.785 133.73L202.809 133.765L202.4 159.498ZM201.13 159.46L200.107 159.428L200.515 133.689L201.539 133.724L201.13 159.46ZM199.863 159.42L198.84 159.388L199.248 133.646L200.272 133.681L199.863 159.42ZM198.593 159.379L197.584 159.347L197.993 133.602L199.002 133.637L198.593 159.379ZM197.338 159.338L196.314 159.306L196.723 133.559L197.747 133.594L197.338 159.338ZM196.071 159.298L195.143 159.269L195.552 133.518L196.48 133.55L196.071 159.298ZM194.897 159.263L193.873 159.231L194.282 133.478L195.306 133.512L194.897 159.263ZM193.627 159.222L192.618 159.19L193.027 133.434L194.036 133.469L193.627 159.222ZM192.375 159.182L191.351 159.15L191.76 133.391L192.783 133.425L192.375 159.182ZM191.105 159.141L190.186 159.112L190.595 133.35L191.514 133.382L191.105 159.141ZM189.942 159.106L188.919 159.074L189.328 133.309L190.351 133.344L189.942 159.106ZM188.672 159.066L187.663 159.034L188.072 133.266L189.081 133.301L188.672 159.066ZM187.417 159.025L186.394 158.993L186.802 133.222L187.826 133.257L187.417 159.025ZM186.15 158.985L185.217 158.956L185.625 133.182L186.559 133.214L186.15 158.985ZM184.97 158.947L183.947 158.915L184.356 133.138L185.379 133.173L184.97 158.947ZM183.7 158.909L182.691 158.877L183.1 133.098L184.109 133.133L183.7 158.909ZM182.445 158.869L181.422 158.837L181.83 133.054L182.854 133.089L182.445 158.869ZM181.178 158.828L180.25 158.799L180.659 133.014L181.587 133.046L181.178 158.828ZM180.413 133.005L180.004 158.79L178.981 158.758L179.389 132.97L180.468 133.008L180.413 133.005ZM178.734 158.75L177.725 158.718L178.134 132.927L179.143 132.962L178.734 158.75ZM177.482 158.712L176.458 158.68L176.867 132.886L177.89 132.921L177.482 158.712ZM176.212 158.672L175.293 158.643L175.702 132.944L175.455 132.941L175.046 158.634L174.023 158.602L174.432 132.802L176.618 132.877L176.212 158.672ZM173.78 158.593L172.771 158.561L173.179 132.759L174.188 132.793L173.78 158.593ZM172.936 132.753L172.527 158.556L171.504 158.524L171.912 132.718L173.078 132.759L172.936 132.753ZM171.257 158.515L170.486 158.492L170.895 132.683L171.666 132.709L171.257 158.515ZM170.24 158.483L169.216 158.451L169.625 132.64L170.648 132.675L170.24 158.483ZM168.97 158.442L167.961 158.411L168.373 132.596L169.382 132.631L168.97 158.442ZM167.717 158.402L166.694 158.37L167.106 132.553L168.129 132.588L167.717 158.402ZM166.448 158.361L165.52 158.332L165.929 132.573L165.682 132.57L165.273 158.327L164.25 158.295L164.662 132.472L166.856 132.547L166.448 158.361ZM164.007 158.286L162.998 158.254L163.406 132.477C163.56 132.454 163.711 132.44 163.862 132.445L164.415 132.463L164.007 158.286ZM162.751 158.245L161.728 158.213L162.128 132.956C162.455 132.753 162.806 132.602 163.157 132.521L162.751 158.245ZM160.319 158.17L160.209 158.167L160.188 158.77L170.231 159.086V159.118L170.477 159.121V159.095L173.771 159.199V159.248L174.017 159.251V159.205L177.473 159.315V159.396L177.719 159.399V159.321L184.961 159.55H184.982L192.366 159.785V159.796L192.612 159.799V159.793L204.916 160.182V160.196L205.163 160.199V160.188L208.636 160.298L208.656 159.695L207.702 159.666L208.094 135.008C208.108 135.029 208.126 135.046 208.14 135.066C208.662 135.788 208.955 136.719 208.94 137.626L208.679 169.944C208.668 170.723 208.201 171.46 207.372 172.016C206.598 172.535 205.586 172.837 204.687 172.822L165.253 170.987C165.244 170.512 165.282 169.483 165.337 168.549L165.343 168.436L162.893 168.114L162.786 170.776C161.307 170.332 160.098 168.819 160.122 167.395L160.368 135.84C160.374 135.403 160.49 134.956 160.696 134.536L160.319 158.17Z" fill="#E9EEF1"/>
<path d="M262.949 192.908L295.561 194.621C295.628 194.627 295.695 194.63 295.761 194.63C296.634 194.63 297.611 194.21 298.411 193.476C299.069 192.876 299.466 192.186 299.475 191.635L300.814 130.749C300.872 127.157 300.913 124.563 297.599 124.51L265.831 124.009C265.103 124.003 262.862 124.267 261.488 125.618C260.751 126.343 260.374 127.256 260.371 128.332L259.409 188.983V188.991C259.392 190.044 259.354 192.85 262.949 192.908ZM260.038 188.997V188.991L261.001 128.334C261.003 127.43 261.317 126.667 261.928 126.067C263.123 124.893 265.129 124.638 265.787 124.638C265.799 124.638 265.81 124.638 265.819 124.638L297.588 125.14C300.162 125.18 300.243 126.885 300.182 130.735L298.843 191.621C298.837 191.992 298.501 192.537 297.985 193.007C297.248 193.679 296.361 194.044 295.599 193.987L262.966 192.27C259.995 192.23 260.024 190.047 260.038 188.997Z" fill="#E9EEF1"/>
<path d="M238.379 181.749L214.429 180.302C213.11 180.221 211.831 180.662 210.837 181.543C209.845 182.422 209.254 183.637 209.173 184.959L209.002 187.797C208.921 189.119 209.361 190.395 210.243 191.389C211.121 192.38 212.336 192.972 213.658 193.053L237.607 194.5C237.709 194.506 237.81 194.508 237.912 194.508C239.124 194.508 240.28 194.071 241.197 193.259C242.188 192.38 242.78 191.166 242.861 189.844L243.032 187.005C243.2 184.271 241.113 181.914 238.379 181.749ZM228.991 182.022C229.475 182.03 229.928 182.228 230.267 182.575C230.606 182.923 230.789 183.384 230.78 183.868L230.699 188.954C230.673 190.644 229.954 190.763 228.852 190.742C228.814 190.742 228.777 190.734 228.739 190.731C228.832 190.664 228.922 190.595 229.006 190.513C229.438 190.096 229.681 189.536 229.69 188.939L229.771 183.854C229.78 183.257 229.557 182.691 229.136 182.259C229.052 182.172 228.962 182.097 228.869 182.027C228.91 182.025 228.951 182.022 228.991 182.022ZM228.551 181.816C228.548 181.816 228.545 181.819 228.542 181.819C228.539 181.819 228.536 181.816 228.536 181.816H228.551ZM227.553 182.178C227.988 182.184 228.397 182.364 228.704 182.68C229.012 182.996 229.174 183.41 229.168 183.845L229.087 188.93C229.081 189.365 228.901 189.774 228.585 190.081C228.269 190.386 227.858 190.545 227.42 190.545C226.515 190.531 225.791 189.783 225.805 188.878L225.886 183.793C225.901 182.897 226.634 182.178 227.524 182.178C227.536 182.178 227.545 182.178 227.553 182.178ZM214.527 180.969L226.768 181.709C226.472 181.816 226.202 181.981 225.967 182.207C225.683 182.483 225.48 182.822 225.373 183.193L214.559 182.503L214.542 182.761L225.315 183.448C225.298 183.558 225.283 183.668 225.283 183.784L225.202 188.87C225.196 189.177 225.254 189.475 225.37 189.754L214.403 188.913L214.527 180.969ZM210.738 190.951C209.976 190.09 209.593 188.986 209.663 187.837L209.834 184.999C209.903 183.851 210.416 182.799 211.275 182.036C212.107 181.297 213.171 180.923 214.281 180.961L214.153 188.968L211.266 191.45C211.08 191.299 210.901 191.137 210.738 190.951ZM240.762 192.766C239.901 193.529 238.793 193.905 237.648 193.842L213.698 192.395C212.884 192.346 212.118 192.067 211.466 191.606L214.316 189.157L225.495 190.012C225.588 190.174 225.701 190.328 225.834 190.467C226.252 190.899 226.811 191.143 227.408 191.151C227.42 191.151 227.432 191.151 227.443 191.151C227.777 191.151 228.101 191.076 228.394 190.937C228.539 190.971 228.69 190.992 228.843 190.995C228.896 190.995 228.948 190.995 228.997 190.995C229.719 190.995 230.345 190.896 230.679 190.258L241.901 191.131C241.663 191.748 241.278 192.311 240.762 192.766ZM242.377 186.965L242.205 189.803C242.182 190.177 242.11 190.54 241.994 190.887L230.789 190.015C230.884 189.742 230.939 189.397 230.948 188.957L231.029 183.871C231.029 183.845 231.026 183.816 231.026 183.79L239.437 184.318C240.686 184.393 241.774 185.109 242.35 186.173C242.379 186.431 242.391 186.695 242.377 186.965ZM239.448 184.063L231 183.532C230.884 182.761 230.339 182.123 229.612 181.88L238.338 182.407C240.196 182.52 241.707 183.805 242.203 185.495C241.544 184.666 240.556 184.129 239.448 184.063Z" fill="#E9EEF1"/>
<path d="M132.359 223.405L134.708 236.767L136.824 251.84L267.14 267.127L267.543 267.174L264.864 235.721L132.359 223.405ZM135.575 238.17L141.674 238.811L142.515 244.302L142.843 244.253L142.808 244.583L144.956 244.818L146.374 247.709L146.356 247.868L146.458 247.88L146.467 247.897L137.392 251.092L135.575 238.17ZM266.815 266.42L138.581 251.376L143.573 249.619L143.57 249.634L266.534 263.15L266.815 266.42ZM266.479 262.477L144.988 249.121L147.038 248.399L146.928 248.086L147.186 247.961L266.383 261.323L266.479 262.477ZM266.36 261.074L147.107 247.706L146.368 246.195L266.236 259.61L266.36 261.074ZM266.212 259.358L146.24 245.931L145.739 244.905L266.111 258.114L266.212 259.358ZM266.05 257.441L143.133 243.951L142.356 238.884L265.572 251.834L266.05 257.441ZM135.479 237.495L135.363 236.663L133.162 224.147L264.253 236.329L265.517 251.162L135.479 237.495Z" fill="#E9EEF1"/>
<path d="M213.098 174.733L241.04 175.939H241.043C241.052 175.939 241.06 175.939 241.069 175.939C241.733 175.939 242.391 175.536 242.925 174.803C243.403 174.148 243.704 173.304 243.716 172.6L243.788 167.996C243.82 167.972 243.852 167.952 243.884 167.929L243.791 167.801L244.151 145.124L244.209 145.031C244.191 145.02 244.171 145.008 244.154 144.999L244.235 139.914L244.252 139.888C244.247 139.885 244.241 139.879 244.235 139.876L244.281 136.989C244.293 136.293 244.029 135.629 243.542 135.125C243.055 134.62 242.4 134.336 241.707 134.325L213.759 133.374C212.304 133.365 211.112 135.043 211.089 136.458L210.524 172.072C210.512 172.768 210.776 173.432 211.263 173.933C211.753 174.441 212.405 174.725 213.098 174.733ZM234.488 168.973C230.273 168.906 226.385 167.213 223.535 164.203C220.732 161.243 219.224 157.341 219.288 153.218C219.32 151.276 219.731 149.403 220.485 147.675C220.848 147.849 221.277 148.026 221.767 148.209C221.036 149.809 220.636 151.546 220.607 153.349C220.546 157.103 221.961 160.655 224.59 163.351C227.261 166.091 230.908 167.633 234.853 167.697C234.914 167.697 234.975 167.697 235.039 167.697C237.718 167.697 240.521 166.775 243.383 164.96L243.362 166.221C242.055 167.05 237.912 169.031 234.488 168.973ZM243.359 166.514L243.345 167.427C240.559 169.437 237.289 170.472 233.873 170.416C224.999 170.274 217.896 162.722 218.041 153.581C218.079 151.285 218.566 149.07 219.456 147.037C219.633 147.206 219.908 147.382 220.265 147.565C219.494 149.328 219.073 151.235 219.041 153.216C218.975 157.402 220.506 161.365 223.355 164.375C226.249 167.43 230.203 169.152 234.482 169.222C234.529 169.222 234.578 169.222 234.624 169.222C237.973 169.219 241.919 167.384 243.359 166.514ZM234.859 167.451C230.977 167.39 227.394 165.871 224.767 163.18C222.184 160.53 220.793 157.04 220.853 153.355C220.882 151.549 221.285 149.841 221.993 148.293C222.387 148.438 222.816 148.583 223.271 148.731C222.552 150.183 222.164 151.763 222.138 153.407C222.086 156.758 223.425 159.93 225.915 162.339C228.44 164.783 231.888 166.163 235.616 166.224C235.668 166.224 235.717 166.224 235.769 166.224C238.851 166.224 241.272 164.754 243.412 163.421L243.391 164.67C240.457 166.555 237.599 167.491 234.859 167.451ZM221.79 143.21C222.132 142.79 222.497 142.384 222.883 141.996C222.535 142.376 222.164 142.787 221.79 143.21ZM235.619 165.972C231.951 165.914 228.565 164.56 226.086 162.157C223.648 159.797 222.332 156.689 222.384 153.407C222.41 151.789 222.796 150.232 223.509 148.803C224.089 148.986 224.709 149.171 225.362 149.357C224.738 150.647 224.396 152.05 224.373 153.506C224.324 156.538 225.538 159.411 227.791 161.591C230.078 163.806 233.198 165.053 236.573 165.108C236.619 165.108 236.665 165.108 236.709 165.108C239.388 165.108 241.527 163.861 243.417 162.687L243.412 163.122C241.237 164.482 238.77 166.024 235.619 165.972ZM236.578 164.862C233.265 164.809 230.206 163.586 227.965 161.414C225.762 159.281 224.573 156.474 224.619 153.508C224.643 152.073 224.982 150.693 225.602 149.423C226.13 149.571 226.675 149.719 227.237 149.867C226.739 150.992 226.466 152.207 226.446 153.462C226.353 159.278 231.07 163.911 237.181 164.009C237.222 164.009 237.263 164.009 237.303 164.009C239.68 164.009 241.707 162.905 243.435 161.806L243.426 162.394C241.498 163.598 239.315 164.902 236.578 164.862ZM237.184 163.789C231.195 163.693 226.573 159.159 226.663 153.468C226.684 152.23 226.956 151.032 227.452 149.925C228.029 150.076 228.617 150.227 229.212 150.374C228.884 151.299 228.698 152.294 228.681 153.337C228.597 158.704 232.459 162.661 237.866 162.745C237.906 162.745 237.95 162.745 237.99 162.745C239.776 162.745 241.692 162.139 243.443 161.029L243.435 161.542C241.681 162.667 239.617 163.827 237.184 163.789ZM237.996 162.545C237.955 162.545 237.915 162.545 237.874 162.545C232.583 162.461 228.803 158.591 228.887 153.34C228.904 152.314 229.087 151.334 229.412 150.424C229.809 150.522 230.209 150.621 230.612 150.716C230.365 151.45 230.226 152.23 230.215 153.045C230.18 155.213 231.084 158.365 233.752 160.113C234.711 160.742 236.085 161.293 237.958 161.293C239.457 161.293 241.284 160.933 243.464 159.985L243.452 160.785C241.704 161.919 239.785 162.545 237.996 162.545ZM229.464 147.046C229.638 146.875 229.815 146.707 230.003 146.547C232.105 144.744 234.9 143.782 237.854 143.825C238.811 143.84 239.704 144.025 240.536 144.306C239.965 144.15 239.364 144.051 238.729 144.04C238.672 144.04 238.611 144.04 238.553 144.04C235.233 144.04 232.337 145.539 230.554 147.887C230.168 147.606 229.803 147.324 229.464 147.046ZM233.847 159.965C231.241 158.257 230.357 155.17 230.389 153.047C230.4 152.247 230.539 151.479 230.783 150.757C231.258 150.87 231.734 150.983 232.209 151.093C232.082 151.557 232.012 152.027 232.003 152.499C231.969 154.712 232.679 156.68 234.01 158.04C235.291 159.353 237.045 160.026 239.219 160.043C239.257 160.043 239.295 160.043 239.333 160.043C241.037 160.043 242.426 159.724 243.481 159.101L243.47 159.791C238.585 161.936 235.543 161.078 233.847 159.965ZM239.222 159.797C237.115 159.779 235.419 159.13 234.187 157.866C232.905 156.553 232.218 154.648 232.253 152.502C232.259 152.047 232.328 151.592 232.453 151.148C233.088 151.293 233.717 151.438 234.34 151.578C234.308 151.789 234.285 152.001 234.282 152.215C234.236 155.045 235.198 157.022 237.138 158.098C238.289 158.736 239.649 158.947 240.852 158.947C241.974 158.947 242.954 158.762 243.493 158.562L243.49 158.814C242.446 159.469 240.979 159.811 239.222 159.797ZM243.49 158.327C242.585 158.689 239.562 159.197 237.236 157.906C235.372 156.874 234.447 154.958 234.494 152.215C234.497 152.018 234.517 151.818 234.546 151.621C238.669 152.537 242.333 153.256 243.568 153.494L243.49 158.327ZM243.568 153.468C240.066 152.586 237.207 151.54 234.882 150.424C235.204 149.647 235.714 148.91 236.393 148.287C237.59 147.185 239.159 146.562 240.684 146.591C241.846 146.608 242.835 147.101 243.661 147.609L243.568 153.468ZM243.664 147.359C242.835 146.861 241.849 146.394 240.686 146.376C239.109 146.353 237.486 146.991 236.248 148.13C235.552 148.771 235.024 149.531 234.691 150.331C234.155 150.07 233.644 149.803 233.163 149.534C233.549 148.913 234.044 148.336 234.642 147.832C236.117 146.585 238.042 145.884 239.924 145.915C241.4 145.939 242.64 146.605 243.667 147.266L243.664 147.359ZM243.67 146.979C242.638 146.327 241.4 145.692 239.927 145.669C237.993 145.64 236.001 146.359 234.479 147.643C233.859 148.168 233.343 148.768 232.946 149.412C232.554 149.189 232.177 148.965 231.821 148.739C233.383 146.579 236.074 145.202 239.176 145.257C240.942 145.286 242.432 146.06 243.67 146.849V146.979ZM243.675 146.646C242.435 145.863 240.944 145.112 239.182 145.083C239.127 145.083 239.072 145.083 239.017 145.083C235.923 145.083 233.241 146.481 231.676 148.649C231.342 148.435 231.024 148.22 230.719 148.006C232.464 145.707 235.3 144.243 238.553 144.243C238.611 144.243 238.669 144.243 238.727 144.243C240.669 144.274 242.313 145.15 243.684 146.052L243.675 146.646ZM243.693 145.611C242.09 144.617 240.156 143.64 237.857 143.602C234.856 143.556 232.001 144.538 229.858 146.376C229.661 146.545 229.475 146.721 229.293 146.901C228.933 146.597 228.6 146.298 228.293 146C228.33 145.968 228.365 145.933 228.403 145.901C230.792 143.921 233.963 142.857 237.323 142.912C239.814 142.952 241.93 143.958 243.699 145.008L243.693 145.611ZM243.707 144.73C241.936 143.689 239.822 142.709 237.332 142.668C233.902 142.61 230.681 143.695 228.249 145.712C228.206 145.75 228.162 145.788 228.119 145.826C227.707 145.417 227.345 145.014 227.026 144.628C229.612 142.665 232.943 141.619 236.445 141.677C239.304 141.723 241.716 142.921 243.713 144.127L243.707 144.73ZM243.722 143.845C241.721 142.648 239.312 141.48 236.451 141.433C232.882 141.381 229.502 142.442 226.872 144.44C226.547 144.031 226.269 143.637 226.034 143.266C228.635 141.277 232.024 140.111 235.761 140.169C238.892 140.219 241.516 141.654 243.673 143.048L243.736 142.95L243.722 143.845ZM243.736 142.799C241.565 141.399 238.924 139.972 235.764 139.923C232.114 139.865 228.655 140.981 225.915 143.074C225.617 142.581 225.388 142.129 225.217 141.735C228.098 139.56 231.685 138.407 235.477 138.47C238.729 138.523 241.475 139.99 243.754 141.483L243.736 142.799ZM243.762 141.19C241.478 139.708 238.735 138.273 235.482 138.224C231.661 138.163 228.037 139.32 225.121 141.5C224.921 141.001 224.817 140.61 224.761 140.363C227.484 138.343 230.739 137.253 234.146 137.253C234.23 137.253 234.317 137.253 234.401 137.256C237.497 137.305 241.081 138.523 243.774 140.433L243.762 141.19ZM243.788 139.566C241.034 137.734 237.494 136.583 234.416 136.534C229.922 136.467 225.669 138.195 222.439 141.416C219.213 144.634 217.398 148.948 217.322 153.569C217.172 163.111 224.59 170.99 233.865 171.138C233.955 171.138 234.044 171.141 234.131 171.141C237.428 171.141 240.591 170.17 243.33 168.32L243.284 171.289C243.27 172.275 242.452 173.095 241.942 173.095C241.939 173.095 241.936 173.095 241.933 173.095L215.177 172.669C214.458 172.658 213.858 172.46 213.443 172.098C213.066 171.767 212.863 171.309 212.869 170.805L213.403 137.212C213.42 136.215 214.238 135.412 215.232 135.412C215.241 135.412 215.252 135.412 215.261 135.412L242.017 135.838C242.504 135.847 242.959 136.044 243.299 136.395C243.641 136.745 243.823 137.209 243.815 137.693L243.788 139.566ZM211.336 136.464C211.356 135.168 212.426 133.62 213.727 133.62C213.736 133.62 213.745 133.62 213.753 133.62L241.701 134.571C242.333 134.58 242.925 134.838 243.365 135.296C243.809 135.754 244.047 136.351 244.035 136.983L244.029 137.293C243.957 136.893 243.768 136.525 243.475 136.223C243.09 135.823 242.571 135.6 242.02 135.591L215.264 135.165C214.122 135.151 213.174 136.064 213.156 137.206L212.623 170.799C212.614 171.376 212.846 171.904 213.281 172.284C213.739 172.687 214.394 172.904 215.174 172.916L241.93 173.342C241.933 173.342 241.936 173.342 241.939 173.342C242.484 173.342 243.284 172.637 243.484 171.695L243.47 172.597C243.446 173.971 242.316 175.693 241.066 175.693C241.06 175.693 241.052 175.693 241.046 175.693L213.104 174.487C212.472 174.478 211.881 174.22 211.44 173.762C210.996 173.304 210.759 172.707 210.77 172.075L211.336 136.464Z" fill="#E9EEF1"/>
<path d="M219.127 183.724L215.93 185.231L218.811 187.542L218.829 186.478C218.829 186.478 220.858 186.466 221.081 186.513L221.139 184.82L219.238 184.663L219.127 183.724Z" fill="#E9EEF1"/>
<path d="M276.7 41.4722C276.7 41.4374 276.694 41.4055 276.691 41.3707L276.749 41.3185C276.729 41.2953 276.703 41.275 276.683 41.2518C276.639 40.7068 276.465 40.2748 276.155 39.9791C275.726 39.5703 275.184 39.5471 274.972 39.5529L224.22 41.3185L224.113 41.3214C223.542 41.3388 222.588 41.3678 222.57 42.542L223.391 76.648L223.402 76.6973C223.721 77.3786 224.269 77.7961 224.832 77.7961C224.846 77.7961 224.861 77.7961 224.875 77.7961L227.267 77.7613C227.29 77.7613 227.31 77.7642 227.336 77.7642C227.386 77.7642 227.438 77.7584 227.49 77.7584L240.794 77.5641V77.5989L241.035 77.5931V77.5612L260.221 77.28V77.2858L260.462 77.28V77.2771L275.862 77.051C276.314 77.0423 276.683 76.8886 276.961 76.5929C277.526 75.9928 277.55 74.9694 277.535 74.5577L276.7 41.4722ZM224.869 77.5525C224.295 77.5786 223.866 77.0887 223.64 76.6219L222.82 42.5478C222.834 41.6867 223.391 41.5997 224.121 41.5765L274.981 39.808C275.164 39.8022 275.622 39.8225 275.984 40.1646C276.204 40.3734 276.346 40.6691 276.41 41.0373C276.059 40.8257 275.691 40.8112 275.517 40.817L272.838 40.9097V40.8604L272.598 40.8662V40.9184L226.4 42.5246L226.296 42.5275C225.745 42.5449 224.82 42.5739 224.803 43.7103L225.597 76.7205L225.609 76.7698C225.768 77.1119 226.003 77.3641 226.304 77.5322L224.869 77.5525ZM227.174 77.5177C226.536 77.4743 226.084 77.2017 225.835 76.6886L225.04 43.7074C225.055 42.8725 225.594 42.7884 226.299 42.7681L226.586 42.7594L227.502 77.5148L227.174 77.5177ZM229.986 77.4772L229.073 42.7333L228.832 42.7391L229.746 77.4801L227.739 77.509L226.823 42.7507L231.053 42.6029L231.961 77.4482L229.986 77.4772ZM234.352 77.4134L233.439 42.6724L233.199 42.6782L234.112 77.4163L232.198 77.4453L231.291 42.5942L237.672 42.3738L238.571 77.3525L234.352 77.4134ZM242.708 77.2916L241.797 42.339L241.557 42.3448L242.467 77.2945L241.029 77.3148L240.13 42.3042L239.89 42.31L240.788 77.3177L238.814 77.3467L237.915 42.3622L243.78 42.1593L244.691 77.1988L244.931 77.193L244.021 42.1535L248.251 42.0056L249.155 77.1959L242.708 77.2916ZM253.762 77.1293L252.855 41.9129L252.614 41.9186L253.519 77.135L249.39 77.1959L248.486 41.9998L254.867 41.7766L255.771 76.9698L256.012 76.964L255.107 41.7679L259.288 41.6229L260.213 77.0365L253.762 77.1293ZM260.456 77.0336L259.528 41.6142L261.511 41.5447L262.439 77.0017L260.456 77.0336ZM262.683 76.9988L261.755 41.536L263.758 41.4664L264.686 76.9698L262.683 76.9988ZM264.927 76.9669L263.999 41.4577L265.982 41.3881L266.901 76.935L264.927 76.9669ZM267.142 76.935L266.223 41.3823L268.122 41.3156L269.052 76.906L267.142 76.935ZM269.296 76.9031L268.365 41.3069L270.348 41.2373L271.27 76.8741L269.296 76.9031ZM271.511 76.8712L270.589 41.2286L272.601 41.1591L273.523 76.8393L271.511 76.8712ZM273.766 76.8364L272.844 41.1504L274.816 41.0808L275.74 76.8074L273.766 76.8364ZM276.784 76.4276C276.578 76.6451 276.306 76.764 275.981 76.7958L275.056 41.075L275.526 41.0576C275.7 41.0489 276.106 41.0721 276.442 41.3562C276.445 41.3968 276.451 41.4345 276.451 41.4751L277.289 74.5693C277.303 74.952 277.283 75.8971 276.784 76.4276Z" fill="#E9EEF1"/>
<path d="M257.326 41.735L257.086 41.7412L257.993 77.034L258.234 77.0278L257.326 41.735Z" fill="#E9EEF1"/>
<path d="M250.639 42.1026L250.398 42.1089L251.31 77.1524L251.55 77.1462L250.639 42.1026Z" fill="#E9EEF1"/>
<path d="M246.272 42.1642L246.031 42.1704L246.943 77.2139L247.183 77.2077L246.272 42.1642Z" fill="#E9EEF1"/>
<path d="M235.67 42.4859L235.43 42.4922L236.345 77.2778L236.585 77.2714L235.67 42.4859Z" fill="#E9EEF1"/>
<path d="M218.442 75.5432C218.428 75.4214 218.416 75.3199 218.413 75.2503L217.341 46.8992C217.315 46.0121 217.277 45.3134 217.207 44.7596H217.254L217.248 44.5103L217.17 44.5132C216.897 42.7998 216.21 42.678 214.268 42.707L144.326 44.4581C143.758 44.4465 143.306 44.635 142.963 45.0118C142.146 45.9135 142.213 47.6588 142.323 48.6126L143.604 78.1031C143.653 78.9207 144.825 80.2804 145.639 80.2804C145.654 80.2804 145.668 80.2804 145.683 80.2804L216.193 79.2135C216.941 79.2715 217.518 79.0976 217.909 78.6888C218.129 78.4597 218.274 78.1727 218.37 77.8654H218.416L218.413 77.7089C218.602 76.9348 218.5 76.0534 218.442 75.5432ZM143.853 78.0915L142.572 48.5923C142.465 47.6733 142.398 46.0063 143.149 45.18C143.433 44.8669 143.816 44.7074 144.291 44.7074C144.303 44.7074 144.317 44.7074 144.329 44.7074L214.276 42.9534C216.08 42.9273 216.691 42.9795 216.932 44.5161L146.796 46.2556C146.225 46.244 145.776 46.4324 145.433 46.8093C144.616 47.711 144.683 49.4563 144.793 50.4101L145.86 77.0362L143.938 78.4424C143.891 78.3148 143.859 78.1959 143.853 78.0915ZM217.729 78.5148C217.39 78.8656 216.877 79.0164 216.207 78.9642H216.201L145.671 80.0311C145.173 80.0659 144.43 79.3614 144.068 78.7091L218.106 77.8654C218.022 78.1147 217.903 78.338 217.729 78.5148ZM218.179 77.619L144.34 78.4597L146.031 77.2218L218.164 76.5927L218.161 76.3433L146.109 76.9725L145.042 50.3898C144.935 49.4708 144.868 47.8038 145.619 46.9775C145.912 46.6557 146.309 46.4933 146.799 46.5049L216.967 44.7654C217.033 45.3047 217.065 46.0034 217.091 46.9079L218.164 75.2619C218.17 75.3373 218.181 75.4446 218.196 75.5722C218.251 76.0563 218.347 76.8971 218.179 77.619Z" fill="#E9EEF1"/>
<path d="M262.556 191.473C263.014 191.601 263.588 191.679 264.092 191.688L294.087 192.52C294.217 192.523 294.342 192.523 294.464 192.523C295.928 192.523 296.763 192.372 297.076 192.053C297.244 191.882 297.238 191.696 297.235 191.557C297.235 191.534 297.235 191.511 297.235 191.493L297.25 191.2C297.725 190.426 297.743 189.444 297.751 188.765L298.311 161.037C298.325 161.029 298.34 161.017 298.351 161.008L298.311 160.95L298.314 160.747C298.392 160.675 298.47 160.605 298.534 160.539L298.322 160.33L298.954 128.943C298.975 127.616 297.911 126.517 296.583 126.494L265.565 126.001C264.237 125.983 262.631 127.03 262.608 128.366L262.19 164.241L262.132 164.244C262.13 164.455 262.127 164.737 262.182 165.027L261.973 183.025L261.727 190.925C261.729 191.137 262.005 191.322 262.556 191.473ZM296.957 191.931C296.763 192.125 296.287 192.253 295.539 192.311C296.258 192.169 296.742 191.856 297.067 191.458V191.487C297.067 191.511 297.067 191.537 297.067 191.563C297.073 191.685 297.076 191.812 296.957 191.931ZM297.508 188.762C297.499 189.278 297.484 189.931 297.287 190.528L297.6 184.182L297.508 188.762ZM298.021 163.267H297.983C297.972 164.006 297.945 165.25 294.777 165.195L288.097 164.922C288.575 164.882 289.057 164.815 289.535 164.728C291.446 164.586 293.147 163.971 294.901 163.119C295.281 162.951 295.646 162.762 296.006 162.557C296.305 162.4 296.603 162.238 296.91 162.072L296.881 162.02C297.273 161.765 297.661 161.495 298.059 161.217L298.021 163.267ZM281.145 162.51C279.272 161.522 277.591 160.191 276.19 158.553C273.326 155.201 271.978 150.983 272.392 146.672C272.819 142.265 274.773 138.287 277.898 135.472C281.116 132.573 285.297 131.208 289.68 131.634C292.666 131.921 295.27 133.597 297.676 135.452C297.113 135.11 296.557 134.823 295.991 134.591C294.226 133.35 292.449 132.738 290.08 132.509C281.873 131.718 274.497 138.232 273.645 147.034C273.019 153.557 276.144 159.53 281.145 162.51ZM289.706 131.353C285.247 130.921 280.986 132.309 277.709 135.264C274.532 138.125 272.546 142.169 272.114 146.646C271.691 151.032 273.062 155.326 275.979 158.735C278.141 161.266 280.962 163.084 284.131 164.035C276.611 162.545 270.966 155.607 271.097 147.385C271.242 138.18 278.568 130.813 287.43 130.95C291.402 131.013 294.443 132.167 297.093 134.661C294.861 133.014 292.452 131.616 289.706 131.353ZM273.909 147.06C274.744 138.401 281.992 131.99 290.057 132.77C291.959 132.953 293.469 133.391 294.907 134.211C294.658 134.139 294.403 134.078 294.142 134.023C293.287 133.765 292.368 133.597 291.338 133.495C283.131 132.701 275.787 138.893 274.976 147.298C274.581 151.369 275.761 155.346 278.295 158.495C280.829 161.646 284.415 163.594 288.393 163.977C288.854 164.021 289.294 164.044 289.724 164.05C289.306 164.134 288.886 164.2 288.468 164.247C288.004 164.247 287.526 164.224 287.024 164.174C278.953 163.4 273.071 155.72 273.909 147.06ZM284.479 164.771L271.204 164.229L270.059 163.977C268.287 163.948 267.438 163.241 267.461 161.809L267.693 131.277C267.713 129.958 268.624 128.856 269.835 128.535L271.549 128.555L272.169 128.633C270.769 128.911 269.705 130.086 269.682 131.509L269.221 160.6C269.192 162.371 270.108 163.287 272.294 163.673L284.479 164.771ZM291.147 133.739C283.256 133.771 276.779 140.372 276.646 148.591C276.524 156.355 282.105 162.855 289.37 163.792C289.06 163.78 288.744 163.76 288.416 163.728C284.508 163.351 280.983 161.437 278.492 158.338C276.002 155.239 274.842 151.328 275.228 147.324C276.022 139.114 283.142 133.057 291.147 133.739ZM298.085 160.107C297.253 160.945 295.307 162.171 292.971 163.084C292.353 163.218 291.692 163.287 290.961 163.273C283.29 163.151 277.153 156.57 277.28 148.6C277.405 140.705 283.632 134.368 291.205 134.368C291.277 134.368 291.35 134.368 291.422 134.371C294.235 134.414 296.125 135.043 298.398 136.693C298.427 136.716 298.456 136.739 298.485 136.762L298.56 136.675L298.085 160.107ZM298.56 136.496C298.554 136.493 298.551 136.49 298.546 136.484L298.56 136.464V136.496ZM298.575 135.797C298.517 135.751 298.456 135.704 298.398 135.655L298.58 135.493L298.575 135.797ZM298.583 135.287C295.565 131.927 292.121 130.39 287.439 130.315C278.223 130.17 270.615 137.821 270.462 147.373C270.334 155.483 275.622 162.388 282.855 164.383L272.317 163.435C270.256 163.073 269.427 162.252 269.453 160.602L269.914 131.512C269.937 130.013 271.227 128.81 272.813 128.81C272.827 128.81 272.845 128.81 272.862 128.81L274.784 128.593L295.397 128.83C296.191 128.88 298.775 129.242 298.615 131.779L298.653 131.782L298.583 135.287ZM262.863 128.372C262.88 127.218 264.336 126.253 265.533 126.253C265.545 126.253 265.556 126.253 265.568 126.253L296.586 126.746C297.777 126.763 298.731 127.749 298.714 128.94L298.682 130.529C298.36 129.665 297.522 128.72 295.412 128.587L271.566 128.311L270.63 128.192C270.346 128.187 270.07 128.224 269.809 128.291L265.53 128.242C264.768 128.14 264.142 128.288 263.666 128.68C263.243 129.027 262.996 129.529 262.846 130.022L262.863 128.372ZM262.825 131.585L262.851 131.587L262.854 131.524C262.886 130.99 262.973 129.57 263.82 128.871C264.24 128.523 264.803 128.395 265.51 128.488L269.169 128.532C268.166 129.042 267.464 130.077 267.447 131.28L267.215 161.811C267.203 162.641 267.464 163.264 267.992 163.667C268.308 163.908 268.711 164.067 269.203 164.151L264.782 163.971C263.736 163.954 262.625 163.609 262.634 163L262.457 162.997L262.825 131.585ZM262.457 163.307C262.727 163.908 263.782 164.197 264.776 164.215L271.192 164.479L271.479 164.542L271.491 164.49L294.771 165.444C294.835 165.444 294.896 165.444 294.956 165.444C296.884 165.444 297.673 164.945 298.001 164.38L297.983 165.305H297.899C297.893 165.641 297.835 166.134 297.386 166.537C296.847 167.018 295.873 167.25 294.51 167.233L264.858 166.253C263.904 166.302 263.223 166.137 262.828 165.757C262.608 165.543 262.495 165.285 262.44 165.021L262.457 163.307ZM262.428 165.65C262.489 165.749 262.562 165.844 262.651 165.934C263.098 166.363 263.84 166.557 264.855 166.499L294.498 167.479C294.556 167.479 294.617 167.479 294.672 167.479C296.018 167.479 296.983 167.224 297.542 166.72C297.722 166.557 297.858 166.372 297.957 166.16L297.772 175.383C297.595 175.032 297.308 174.736 296.913 174.516C296.194 174.113 295.333 174.043 294.887 174.034L264.64 172.794C264.629 172.794 264.614 172.794 264.602 172.794C263.524 172.794 262.593 173.536 262.327 174.008L262.428 165.65ZM262.274 179.012L262.422 174.24C262.425 173.976 263.388 172.962 264.608 172.962C264.62 172.962 264.631 172.962 264.643 172.962L294.89 174.203C295.325 174.208 296.154 174.278 296.838 174.661C297.345 174.945 297.658 175.342 297.769 175.841L297.719 178.34L297.096 190.969C296.725 191.635 296.012 192.143 294.626 192.143C294.597 192.143 294.565 192.143 294.536 192.143L278.176 191.189L278.617 173.544L278.376 173.539L278.069 185.796L262.759 189.397L262.814 189.629L278.063 186.043L278.028 187.432L264.553 190.397H264.547C263.962 190.389 263.362 190.145 262.898 189.731C262.417 189.302 262.159 188.756 262.167 188.197L262.274 179.012ZM278.02 187.684L277.933 191.18L265.435 190.452L278.02 187.684ZM261.973 188.69C262.08 189.142 262.338 189.565 262.733 189.919C263.24 190.374 263.901 190.641 264.539 190.65L293.333 192.325L264.095 191.516C263.602 191.508 263.046 191.43 262.599 191.308C262.045 191.154 261.901 190.998 261.903 190.931L261.973 188.69Z" fill="#E9EEF1"/>
<path d="M285.808 141.773C286.765 140.503 287.954 139.389 289.426 138.67L289.522 138.618L289.493 138.534C289.455 138.427 289.438 138.372 284.028 139.584L283.985 139.592L283.964 139.63C283.924 139.7 279.961 146.681 281.918 151.244L282.06 151.578L282.106 151.218C282.115 151.16 282.587 147.67 284.283 144.266C284.193 144.504 284.103 144.753 284.019 145.014C283.489 146.64 283.019 148.963 283.805 150.792L283.947 151.125L283.993 150.766C284.002 150.693 284.982 143.44 289.568 141.201L289.661 141.152L289.632 141.068C289.594 140.961 289.583 140.926 285.808 141.773ZM281.967 150.83C280.439 146.533 283.811 140.311 284.115 139.769C285.678 139.418 287.849 138.943 288.849 138.752C287.501 139.517 286.408 140.613 285.518 141.839C285.489 141.845 285.463 141.851 285.434 141.857L285.391 141.865L285.37 141.903C285.368 141.909 285.234 142.141 285.04 142.535C282.953 145.779 282.167 149.641 281.967 150.83ZM283.854 150.372C282.958 147.687 284.506 144.06 285.214 142.625C285.347 142.419 285.486 142.216 285.628 142.016C286.742 141.767 288.203 141.448 288.986 141.291C285.298 143.492 284.112 148.907 283.854 150.372Z" fill="#E9EEF1"/>
<path d="M247.324 45.1026L247.078 45.1108L247.984 72.2889L248.23 72.2807L247.324 45.1026Z" fill="#E9EEF1"/>
<path d="M251.715 43.7994L251.469 43.8062L252.312 74.7918L252.558 74.7851L251.715 43.7994Z" fill="#E9EEF1"/>
<path d="M256.364 44.6036L256.117 44.6108L256.987 74.0751L257.233 74.0678L256.364 44.6036Z" fill="#E9EEF1"/>
<path d="M260.613 45.8302L260.367 45.8384L261.273 73.0164L261.519 73.0082L260.613 45.8302Z" fill="#E9EEF1"/>
<path d="M278.503 168.265L278.461 170.915L281.11 170.957L281.153 168.308L278.503 168.265Z" fill="#E9EEF1"/>
<path d="M242.973 43.6569L242.727 43.6636L243.57 74.6493L243.816 74.6426L242.973 43.6569Z" fill="#E9EEF1"/>
<path d="M239.067 46.4234L238.82 46.4316L239.726 73.6097L239.972 73.6015L239.067 46.4234Z" fill="#E9EEF1"/>
</g>
</g>
<defs>
<filter id="filter0_f_6182_102982" x="-425" y="-421" width="913" height="913" filterUnits="userSpaceOnUse" color-interpolation-filters="sRGB">
<feFlood flood-opacity="0" result="BackgroundImageFix"/>
<feBlend mode="normal" in="SourceGraphic" in2="BackgroundImageFix" result="shape"/>
<feGaussianBlur stdDeviation="150" result="effect1_foregroundBlur_6182_102982"/>
</filter>
<filter id="filter1_f_6182_102982" x="-112" y="-172" width="913" height="913" filterUnits="userSpaceOnUse" color-interpolation-filters="sRGB">
<feFlood flood-opacity="0" result="BackgroundImageFix"/>
<feBlend mode="normal" in="SourceGraphic" in2="BackgroundImageFix" result="shape"/>
<feGaussianBlur stdDeviation="150" result="effect1_foregroundBlur_6182_102982"/>
</filter>
<linearGradient id="paint0_linear_6182_102982" x1="167.5" y1="-40" x2="167.5" y2="372" gradientUnits="userSpaceOnUse">
<stop stop-color="#DADADA" stop-opacity="0.8"/>
<stop offset="1" stop-color="#5A5A5A" stop-opacity="0.8"/>
</linearGradient>
<clipPath id="clip0_6182_102982">
<rect width="335" height="300" fill="white"/>
</clipPath>
<clipPath id="clip1_6182_102982">
<rect width="252.773" height="245.92" fill="white" transform="translate(124.102 29.8521)"/>
</clipPath>
</defs>
</svg>
