<svg width="315" height="240" viewBox="0 0 315 240" fill="none" xmlns="http://www.w3.org/2000/svg">
<g clip-path="url(#clip0_5737_5363)">
<g opacity="0.6">
<path d="M191.983 123.746C191.545 123.746 191.145 123.902 190.834 124.203C190.525 124.504 190.351 124.908 190.344 125.341C190.337 125.774 190.499 126.183 190.798 126.496C191.098 126.807 191.5 126.982 191.93 126.989C191.94 126.989 191.947 126.989 191.956 126.989C192.377 126.989 192.775 126.826 193.077 126.532C193.716 125.91 193.731 124.882 193.112 124.239C192.815 123.93 192.413 123.753 191.983 123.746ZM192.917 126.367C192.37 126.9 191.493 126.886 190.965 126.336C190.708 126.07 190.57 125.719 190.575 125.348C190.582 124.978 190.729 124.631 190.996 124.373C191.264 124.112 191.609 123.983 191.956 123.983C192.318 123.983 192.679 124.124 192.948 124.406C193.205 124.674 193.343 125.023 193.336 125.394C193.331 125.762 193.184 126.109 192.917 126.367Z" fill="#E9EEF1"/>
<path d="M191.991 124.52C191.758 124.527 191.542 124.603 191.375 124.763C191.209 124.924 191.116 125.141 191.111 125.373C191.104 125.852 191.485 126.248 191.96 126.256C191.965 126.256 191.97 126.256 191.975 126.256C192.201 126.256 192.412 126.17 192.576 126.012C192.743 125.852 192.836 125.634 192.84 125.402C192.848 124.924 192.467 124.529 191.991 124.52ZM191.968 126.026C191.799 126.024 191.639 125.954 191.523 125.832C191.404 125.71 191.342 125.55 191.344 125.38C191.347 125.211 191.416 125.05 191.537 124.933C191.656 124.818 191.813 124.754 191.977 124.754C191.98 124.754 191.984 124.754 191.987 124.754C192.336 124.759 192.615 125.05 192.61 125.4C192.605 125.751 192.315 126.024 191.968 126.026Z" fill="#E9EEF1"/>
<path d="M208.315 124.36C207.994 124.095 207.602 123.98 207.207 124.035C206.812 124.092 206.467 124.312 206.234 124.659C205.756 125.365 205.901 126.378 206.555 126.921C206.821 127.144 207.14 127.261 207.466 127.261C207.53 127.261 207.597 127.256 207.661 127.247C208.056 127.189 208.401 126.969 208.634 126.622C209.114 125.917 208.969 124.901 208.315 124.36ZM208.446 126.491C208.248 126.783 207.961 126.967 207.63 127.015C207.3 127.062 206.971 126.964 206.7 126.742C206.134 126.273 206.01 125.398 206.424 124.788C206.622 124.496 206.912 124.31 207.24 124.265C207.295 124.257 207.349 124.253 207.402 124.253C207.675 124.253 207.942 124.351 208.168 124.537C208.734 125.006 208.857 125.883 208.446 126.491Z" fill="#E9EEF1"/>
<path d="M207.151 124.795C206.937 124.826 206.751 124.945 206.625 125.132C206.502 125.316 206.452 125.541 206.483 125.768C206.544 126.203 206.896 126.521 207.291 126.521C207.327 126.521 207.36 126.519 207.396 126.514C207.831 126.452 208.131 126.014 208.064 125.541C207.995 125.067 207.586 124.732 207.151 124.795ZM207.363 126.284C207.053 126.327 206.761 126.081 206.711 125.734C206.687 125.565 206.723 125.395 206.816 125.261C206.906 125.129 207.034 125.046 207.184 125.024C207.208 125.022 207.232 125.019 207.256 125.019C207.536 125.019 207.788 125.254 207.836 125.574C207.883 125.921 207.672 126.241 207.363 126.284Z" fill="#E9EEF1"/>
<path d="M247.845 27.7833C247.547 27.8765 247.238 28.0774 246.969 28.3452C246.703 28.6131 246.503 28.9263 246.411 29.2253C246.296 29.5887 246.346 29.902 246.551 30.1077C246.684 30.2416 246.86 30.3085 247.069 30.3085C247.181 30.3085 247.302 30.2894 247.428 30.2487C247.726 30.1555 248.035 29.9546 248.304 29.6868C248.57 29.419 248.77 29.1057 248.863 28.8068C248.977 28.4433 248.927 28.13 248.722 27.9244C248.518 27.7211 248.206 27.6709 247.845 27.7833ZM248.299 28.6298C248.235 28.8355 248.085 29.0674 247.887 29.2659C247.69 29.4644 247.459 29.615 247.255 29.6796C247.105 29.7274 247.003 29.7155 246.972 29.6844C246.941 29.6533 246.931 29.5529 246.979 29.3998C247.043 29.1942 247.193 28.9622 247.39 28.7637C247.588 28.5652 247.819 28.4146 248.023 28.35C248.097 28.3261 248.159 28.3189 248.204 28.3189C248.254 28.3189 248.289 28.3285 248.304 28.3452C248.335 28.3763 248.347 28.4792 248.299 28.6298Z" fill="#E9EEF1"/>
<path d="M291.37 71.7169L291.382 71.0282C291.76 71.0473 292.093 71.0593 292.376 71.0593C293.132 71.0593 293.568 70.9827 293.789 70.7747C293.893 70.6766 293.95 70.5499 293.95 70.4088H293.677L293.95 70.404L293.713 56.5462H293.675C293.703 56.3812 293.72 56.2066 293.696 56.0392C293.637 55.5897 293.225 55.2094 292.571 54.8914V47.3467H292.54C292.54 45.8425 288.116 45.0295 283.954 45.0295C279.792 45.0295 275.369 45.8425 275.369 47.3467H275.338V55.0157C274.798 55.3147 274.474 55.6662 274.474 56.0823C274.474 56.0871 274.482 56.3525 274.522 56.6419V59.2412C274.306 59.1575 274.082 59.1169 273.851 59.1169C272.907 59.1169 272.098 59.8391 271.761 60.8602C271.135 60.6497 270.377 60.535 269.592 60.535C269.373 60.535 269.159 60.5326 268.954 60.5278C267.337 60.5063 265.943 60.4823 265.908 62.2591C265.898 62.7302 266.022 63.0913 266.286 63.3615C266.897 63.9881 268.148 63.9881 269.594 63.9881C270.505 63.9881 271.364 63.835 272.037 63.56C272.448 64.2511 273.109 64.7031 273.854 64.7031C274.082 64.7031 274.308 64.6552 274.524 64.5715V64.9422V70.404C274.524 70.526 274.567 70.636 274.648 70.7292L254.644 64.2678C254.439 59.4373 252.603 54.6642 249.416 50.7376C246.301 46.8971 242.17 44.1447 237.727 42.9275C237.889 42.7649 238.062 42.5927 238.255 42.4014C239.418 41.2416 241.071 39.582 243.033 37.5996C246.662 33.9337 250.254 30.2797 250.9 29.6077C250.981 29.524 251.307 29.2132 251.371 29.1653C253.01 28.0988 257.21 26.4033 258.207 27.4651C259.743 30.4662 262.813 32.3697 266.21 32.3697C271.173 32.3697 275.212 28.3092 275.212 23.3209C275.212 18.3302 271.173 14.2696 266.21 14.2696C265.936 14.2696 265.66 14.2816 265.392 14.3055L265.43 14.7192L265.392 14.3055C265.042 14.3366 264.695 14.394 264.352 14.4681L263.915 14.272L260.595 12.7798L260.228 13.6049L263.154 14.9177C264.797 16.2066 265.72 18.103 265.646 20.0806C265.553 22.4959 264.416 24.0215 263.477 24.8753C262.19 26.047 260.442 26.707 258.749 26.6712C258.725 26.6185 258.699 26.5707 258.678 26.5181L258.456 26.6114C256.49 25.4324 251.797 27.9003 250.927 28.4671C250.772 28.5675 250.315 29.0242 250.311 29.029C248.653 30.7484 237.249 42.3129 235.713 43.7406C234.954 43.4416 232.635 42.5401 231.448 42.081C235.781 37.48 246.072 26.8314 247.994 26.0948C249.849 25.3822 252.23 25.002 252.984 24.892L253.086 24.9374L253.115 24.8729C253.153 24.8681 253.181 24.8633 253.198 24.8609C257.189 24.8442 260.818 21.3313 260.818 17.474C260.818 15.9125 260.388 14.4873 259.627 13.3299L260.228 13.6001L260.595 12.7751L257.933 11.5794C257.396 11.2016 256.796 10.9002 256.14 10.6994L256.121 10.7663L241.801 4.33362L241.775 4.3934C240.519 3.32208 238.873 2.68359 237.021 2.68359C233.065 2.68359 229.848 5.91908 229.848 9.89588C229.848 13.1098 231.95 15.8384 234.842 16.7662L234.813 16.8332L245.823 21.7211H245.632C245.632 21.745 245.618 24.1985 244.624 25.4564C243.616 26.7309 230.692 39.8427 229.039 41.5166C227.726 41.0264 226.328 40.4859 225.065 39.9503C222.962 39.0631 222.648 39.1803 222.501 39.2879L192.734 28.6368L192.71 28.7062C190.372 26.7309 187.547 25.0522 184.186 23.6365L184.162 23.6963C181.706 22.0224 179.042 21.085 176.307 20.9702L159.171 15.824L159.159 15.8503C155.779 14.1142 152.024 13.1433 148.071 13.1433C133.335 13.1433 121.344 26.6162 121.344 43.1786C121.344 59.5569 133.071 72.9149 147.584 73.2091L147.574 73.2593L162.415 76.0093C164.068 76.8822 166.986 78.1831 169.707 78.1831C169.785 78.1831 169.864 78.1831 169.942 78.1807C171.522 78.1352 173.068 77.9368 174.566 77.5972L174.559 77.7383C175.008 77.7598 175.453 77.7718 175.898 77.7718C177.555 77.7718 179.182 77.6163 180.759 77.3126L184.707 78.2548C184.629 83.4608 184.638 84.4556 184.783 84.7258C184.743 84.666 184.728 84.6038 184.726 84.5703C184.726 84.5895 184.726 84.6158 184.726 84.6493C184.693 85.9023 185.361 86.6891 186.719 86.9904C187.123 87.0789 187.965 87.1267 189.066 87.141C189.052 87.4758 189.04 87.8058 189.028 88.1287H183.955L183.97 88.2578C183.972 88.2793 184.189 90.4148 183.544 91.1346C183.411 91.2828 183.251 91.357 183.061 91.357V91.5889H183.114C183.197 92.7774 182.388 93.2772 182.26 93.349C182.005 93.3585 181.803 93.4566 181.663 93.6455C181.311 94.1262 181.47 95.0086 181.556 95.3673C181.456 95.3673 181.327 95.3697 181.199 95.372C181.013 95.3744 180.835 95.3768 180.783 95.3768C179.779 95.3768 178.961 96.8164 178.961 98.5836C178.961 100.183 179.632 101.511 180.502 101.75V101.793H181.744C181.625 102.297 181.855 103.718 182.731 104.395C183.706 105.148 183.967 107.833 183.97 107.86L183.979 107.955L189.454 108.491L189.442 108.512L189.64 108.632L191.345 105.765L191.371 105.722L190.543 102.974C191.457 105.076 192.472 105.246 192.698 105.255C192.698 105.255 194.634 105.263 195.995 105.272L195.999 104.469C194.732 104.462 192.969 104.454 192.729 104.452C192.534 104.404 189.19 103.342 189.863 87.2176H193.39C193.343 89.365 193.202 98.9567 194.337 101.52C194.579 102.068 195.379 103.053 196.04 102.979L195.954 102.18C195.971 102.178 195.978 102.18 195.98 102.18C195.811 102.151 195.281 101.676 195.067 101.193C194.549 100.023 194.318 97.1368 194.223 94.2553L198.126 94.3031L198.123 94.3055L206.302 94.3892C206.233 96.1253 206.152 98.2488 206.112 99.5784L196.185 99.4325L196.182 99.7315C196.132 103.797 196.156 106.107 196.211 107.429C195.186 107.585 194.304 108.381 194.344 109.127C194.356 109.359 194.446 109.579 194.598 109.789L194.696 112.948C186.465 114.23 185.128 117.353 185.076 117.487L185.052 117.547L185.466 126.988L185.47 127.098L185.544 127.177C185.665 127.308 186.139 127.801 186.643 128.107C183.941 134.325 150.709 210.757 146.785 219.825H145.81L142.03 227.9L143.127 231.571L143.239 231.628C143.367 231.695 146.226 233.173 148.447 233.173C148.595 233.173 148.74 233.166 148.88 233.154C149.084 233.135 149.463 233.097 152.612 225.748L152.642 225.676L152.462 224.105L152.114 224.146C166.204 191.416 192.17 131.278 194.204 127.28C195.169 127.031 195.976 126.854 196.366 126.998C198.542 127.799 202.385 127.385 204.026 127.21C204.338 127.177 204.606 127.155 204.673 127.151C204.704 127.153 204.768 127.172 204.849 127.198C205.708 129.838 223.899 185.829 226.042 192.714L225.954 192.652L224.955 194.041L227.001 199.814L234.676 200.603L236.095 196.33L234.433 190.844L233.156 190.155L233.106 190.249L227.774 173.932L254.309 230.99L252.829 231.334L257.044 240.328H257.232C257.353 240.328 260.219 240.323 261.225 239.905C261.548 239.768 266.614 236.837 267.192 236.504L267.423 236.37L263.292 227.063L262.621 227.408L216.843 126.957C217.452 126.684 217.868 126.486 217.92 126.459L218.099 126.373L218.087 126.175C218.084 126.127 217.813 121.285 217.74 119.015C217.675 117.102 215.404 115.569 212.885 114.402C212.866 113.551 212.8 111.53 212.626 111.1C212.548 110.904 212.365 110.751 212.089 110.643C211.475 110.404 210.386 110.397 209.729 110.447L209.665 108.938C209.717 108.795 209.741 108.649 209.732 108.503C209.694 107.812 209.032 107.245 207.815 106.839L207.57 106.693V104.844C207.751 104.911 207.953 104.949 208.183 104.949C209.903 104.949 213.13 105.004 213.164 105.004V104.949C213.461 105.078 213.758 105.148 214.051 105.148C214.098 105.148 214.144 105.145 214.191 105.143C215.123 105.076 215.808 104.363 216.241 103.83C216.688 103.283 217.271 99.3919 217.721 95.836L222.891 95.9268C223.367 96.4792 223.935 96.7805 224.575 96.7805C225.276 96.7805 225.683 96.6753 225.823 96.4601C225.845 96.4266 225.857 96.3932 225.864 96.3597C227.538 96.1731 228.397 91.9333 228.732 89.6998C229.66 89.8385 230.473 89.9246 231.063 89.9557C231.408 89.9724 231.753 89.982 232.095 89.982C233.838 89.982 235.558 89.7596 237.228 89.3315L237.225 89.3411L249.374 92.182L249.507 91.6033L249.438 91.5865L249.673 86.9999L252.063 87.5906C252.399 91.9524 253.759 94.669 255.736 94.7862L255.759 94.3796L255.752 94.7886L257.626 94.8173C257.681 94.8244 257.736 94.834 257.79 94.8364V94.8196L262.155 94.8866L262.157 94.779C262.326 94.8364 262.497 94.8746 262.671 94.8842C262.709 94.8866 262.747 94.8866 262.785 94.8866C263.984 94.8866 265.142 93.7531 266.055 91.675C266.136 91.4909 266.214 91.2996 266.291 91.1035L272.422 92.6172C271.965 98.0886 272.103 98.2464 272.205 98.3612L272.296 98.4593L290.592 99.3704L290.89 99.4588L294.75 86.1893C295.858 86.0625 297.359 85.8234 297.359 84.5847C297.359 83.9486 296.952 83.389 296.124 82.8916L297.473 78.5202L296.907 78.3433L296.747 78.8622L291.282 76.8654L291.294 76.1433L297.489 78.4844L297.575 78.1687C297.582 78.14 298.374 75.1963 298.569 74.5769L298.657 74.3019L291.37 71.7169ZM274.384 23.3257C274.384 27.8597 270.717 31.5471 266.207 31.5471C263.76 31.5471 261.501 30.459 259.974 28.6488C261.389 29.1581 263.282 29.4308 264.44 29.4308C268.364 29.4308 271.556 26.2216 271.556 22.2759C271.556 19.9228 270.455 17.8064 268.745 16.5079L268.766 16.4577L268.533 16.3525C267.858 15.8814 267.097 15.5323 266.276 15.3386L265.777 15.1138C265.92 15.1066 266.065 15.1018 266.207 15.1018C270.714 15.1018 274.384 18.7917 274.384 23.3257ZM265.004 15.1951L264.978 15.2525L265.004 15.1951ZM263.724 14.6881L263.57 15.0349L263.724 14.6881ZM258.873 26.8649C260.566 26.8649 262.307 26.1905 263.594 25.0187C264.559 24.1411 265.727 22.5724 265.822 20.095C265.893 18.2584 265.125 16.4888 263.734 15.1879L264.795 15.6638L265.544 16.001L265.539 16.0464C265.598 16.0536 265.656 16.0679 265.715 16.0799L268.374 17.2708C269.813 18.4258 270.733 20.2504 270.733 22.2759C270.733 25.7648 267.91 28.601 264.443 28.601C262.97 28.601 260.181 28.1036 259.156 27.3264L259.106 27.3909C259.041 27.2762 258.975 27.1638 258.915 27.0442L258.923 27.0394C258.915 27.0299 258.906 27.0227 258.899 27.0131C258.875 26.9629 258.851 26.9103 258.827 26.8601C258.844 26.8625 258.858 26.8649 258.873 26.8649ZM293.403 70.4112C293.403 70.4088 293.403 70.4088 293.403 70.4112V70.4112ZM283.954 45.5221C288.973 45.5221 292.053 46.5863 292.053 47.3491H292.022V47.9972C290.89 47.031 287.365 46.4739 283.935 46.4739C280.542 46.4739 277.053 47.0191 275.885 47.9661V47.3491H275.854C275.856 46.5863 278.936 45.5221 283.954 45.5221ZM275.885 48.2889C276.617 47.4711 279.669 46.713 283.935 46.713C288.273 46.713 291.353 47.4974 292.022 48.3295V54.6618C290.186 53.9851 287.118 53.6646 284.235 53.6646C281.507 53.6646 277.859 53.9755 275.885 54.7623V48.2889ZM284.235 54.3103C289.834 54.3103 292.956 55.3649 293.059 56.1277C293.085 56.3166 293.025 56.5582 292.959 56.7495C291.477 55.8862 287.774 55.3912 284.166 55.3912C280.418 55.3912 276.57 55.9244 275.212 56.8523C275.162 56.6706 275.114 56.2186 275.114 56.0871C275.117 55.3601 278.667 54.3103 284.235 54.3103ZM274.522 60.523V63.9928C274.177 63.5265 273.977 62.9072 273.977 62.2591C273.977 61.6111 274.175 60.9917 274.522 60.523ZM269.592 63.7417C268.2 63.7417 266.999 63.7418 266.462 63.1894C266.248 62.9693 266.148 62.668 266.155 62.2663C266.186 60.7382 267.285 60.755 268.95 60.7789C269.156 60.7813 269.373 60.786 269.592 60.786C270.008 60.786 270.415 60.8195 270.798 60.8841C270.667 61.2213 270.591 61.6326 270.591 62.0702C270.591 62.68 270.726 63.2372 270.964 63.6007L271.173 63.462C270.966 63.1439 270.843 62.625 270.843 62.0702C270.843 61.6422 270.916 61.2428 271.05 60.9295C271.276 60.9774 271.492 61.0324 271.694 61.1017C271.63 61.3576 271.597 61.6302 271.597 61.9124C271.597 62.4361 271.716 62.9239 271.918 63.3424C271.278 63.6007 270.46 63.7417 269.592 63.7417ZM271.846 61.9148C271.846 61.6111 271.892 61.3217 271.968 61.0515L272.008 60.9511C272.006 60.9487 272.001 60.9487 271.999 60.9487C272.298 60.0256 273.016 59.3728 273.854 59.3728C274.084 59.3728 274.31 59.4254 274.524 59.521V60.1308C274.505 60.15 274.486 60.1691 274.467 60.1906C273.999 60.7191 273.728 61.4724 273.728 62.2591C273.728 63.0602 273.996 63.7991 274.47 64.3276C274.272 64.4089 274.065 64.4544 273.854 64.4544C272.745 64.4544 271.846 63.3137 271.846 61.9148ZM275.069 57.2995C275.733 56.4553 279.219 55.6447 284.166 55.6447C288.473 55.6447 291.674 56.2592 292.868 56.9743C292.864 56.9862 292.856 57.0029 292.852 57.0125L293.109 57.1416C293.132 57.1608 293.154 57.1823 293.175 57.2014L293.401 70.3825C293.135 70.6073 291.313 70.4829 289.703 70.3729C288.147 70.2677 286.214 70.1338 284.149 70.1338C282.073 70.1338 280.161 70.2677 278.625 70.3753C276.998 70.4877 275.319 70.6049 275.067 70.3849V64.947V57.2995H275.069ZM270.481 72.7188C271.233 74.938 271.406 77.7574 270.957 80.4548C270.312 84.3145 268.757 87.6289 266.914 89.1665C267.323 87.6121 267.594 85.8569 267.703 84.0251C267.875 81.1149 267.615 78.3481 266.971 76.2341C266.286 73.9934 265.227 72.7188 263.988 72.6447C263.981 72.6447 263.976 72.6447 263.969 72.6447V72.6352L259.344 72.5706C259.279 69.7679 258.666 67.4986 257.662 66.1044L268.533 69.6149C269.311 70.2199 270.001 71.3032 270.481 72.7188ZM255.64 92.8444L260.262 92.775C260.516 93.2916 260.799 93.7172 261.106 94.0496L256.509 93.9779C256.197 93.6909 255.907 93.3083 255.64 92.8444ZM255.519 92.622C255.265 92.1413 255.039 91.5865 254.839 90.972L259.574 90.905C259.61 91.0365 259.648 91.1657 259.686 91.29C259.826 91.7539 259.986 92.1724 260.157 92.5527L255.519 92.622ZM257.672 73.3645C257.322 73.6108 256.982 73.9504 256.658 74.3689L255.591 74.3378C255.757 74.1441 255.928 73.9743 256.104 73.8308C256.528 73.4865 256.96 73.3167 257.391 73.3215V73.3621L257.672 73.3645ZM255.412 74.5554L256.494 74.5889C256.159 75.0552 255.843 75.6028 255.552 76.2222L254.458 76.1887C254.749 75.5502 255.067 75.0002 255.412 74.5554ZM254.361 76.4087L255.45 76.4422C255.16 77.0854 254.898 77.7981 254.672 78.5633L253.633 78.5322C253.842 77.755 254.087 77.0424 254.361 76.4087ZM253.576 78.7522L254.611 78.7833C254.401 79.5222 254.225 80.309 254.09 81.1268L253.1 81.1412C253.222 80.2994 253.383 79.4983 253.576 78.7522ZM253.065 81.3683L254.049 81.354C253.949 81.9973 253.873 82.662 253.826 83.3364L252.863 83.3412C252.908 82.6644 252.977 82.0044 253.065 81.3683ZM259.082 88.32L254.244 88.3893C254.135 87.6791 254.059 86.9306 254.023 86.1558L258.915 86.041C258.937 86.8278 258.994 87.593 259.082 88.32ZM258.908 85.8162L254.014 85.931C253.985 85.1801 253.99 84.4053 254.037 83.621C254.04 83.5995 254.04 83.5803 254.042 83.5588L258.953 83.5397C258.908 84.3121 258.894 85.0749 258.908 85.8162ZM253.807 83.6066C253.759 84.4006 253.752 85.1801 253.781 85.9358L252.798 85.9597C252.784 85.1873 252.798 84.391 252.846 83.5923C252.846 83.5827 252.848 83.5732 252.848 83.5636L253.812 83.5588C253.812 83.5756 253.809 83.5923 253.807 83.6066ZM252.803 86.1845L253.793 86.1606C253.828 86.9354 253.9 87.6839 254.007 88.3917L252.965 88.4061C252.877 87.7126 252.822 86.9689 252.803 86.1845ZM254.04 88.6165C254.164 89.3793 254.325 90.0967 254.52 90.7544L253.412 90.7711C253.236 90.1326 253.093 89.4152 252.991 88.6332L254.04 88.6165ZM254.589 90.9768C254.782 91.5865 255.008 92.1413 255.258 92.6268L254.149 92.6435C253.895 92.1916 253.669 91.6368 253.479 90.9935L254.589 90.9768ZM254.77 90.7496C254.57 90.0943 254.406 89.3769 254.28 88.6117L259.11 88.5424C259.21 89.3004 259.348 90.0178 259.517 90.6802L254.77 90.7496ZM258.968 83.3173L254.059 83.3364C254.106 82.6597 254.183 81.9949 254.282 81.3516L259.168 81.2799L259.165 81.0551L254.32 81.1268C254.456 80.3114 254.632 79.527 254.839 78.7929L259.605 78.9387C259.284 80.2898 259.068 81.7749 258.968 83.3173ZM259.655 78.7163L254.901 78.5705C255.127 77.8005 255.391 77.0878 255.679 76.4493L260.304 76.5928C260.057 77.2457 259.841 77.9607 259.655 78.7163ZM260.602 75.8539C260.528 76.0213 260.459 76.1935 260.388 76.3704L255.778 76.227C256.076 75.6004 256.399 75.0504 256.742 74.5937L261.175 74.7276C260.975 75.0671 260.782 75.4402 260.602 75.8539ZM261.31 74.51L256.913 74.3784C257.284 73.9265 257.672 73.5845 258.069 73.3741L262.176 73.4315C261.874 73.7137 261.586 74.0771 261.31 74.51ZM248.8 51.2446C252.071 55.274 253.871 60.2193 253.871 65.1694C253.871 72.1234 251.134 78.7307 246.363 83.2981C242.574 86.9258 237.843 88.9728 232.885 89.1713C237.801 88.7791 242.45 86.5432 246.094 82.7816C250.522 78.207 252.908 72.0493 252.808 65.4396C252.665 55.9699 246.736 47.3467 238.2 43.9056C242.224 45.161 245.949 47.7317 248.8 51.2446ZM240.284 60.6784C239.58 60.676 237.197 60.0902 235.075 59.4612C235.146 58.4664 235.251 55.3912 234.243 51.8113C233.379 48.7504 231.534 44.8812 227.614 41.9662L230.39 42.9586L230.387 42.9682C230.445 42.9849 230.502 43.004 230.556 43.0184L232.704 43.786L232.713 43.7621C232.718 43.7645 232.721 43.7645 232.725 43.7669L232.704 43.841C232.932 43.9056 233.158 43.9749 233.382 44.0466C233.672 44.1734 233.96 44.3073 234.245 44.446C235.891 46.0291 241.323 51.9955 240.284 60.6784ZM232.466 51.7755C231.091 47.6289 228.872 45.1419 226.68 43.071C225.246 41.7151 223.654 40.7394 222.558 40.1535L223.295 40.4166C228.492 42.5975 231.917 46.493 233.477 51.9955C234.647 56.1277 234.266 59.6645 234.262 59.7004L234.224 60.0304L234.54 60.126C237.277 60.9534 239.144 61.3911 240.12 61.4413L239.223 62.13L233.227 60.566C233.358 59.8917 233.938 56.2162 232.466 51.7755ZM235.85 44.9841C243.371 48.3798 248.23 55.6973 248.23 64.0813C248.23 76.1887 238.676 86.8086 227.786 86.8086C226.675 86.8086 225.165 86.701 223.802 86.4715L223.816 86.4117C224.154 86.4189 224.489 86.4236 224.82 86.4236C225.086 86.4236 225.345 86.4212 225.6 86.4212C225.838 86.4189 226.071 86.4189 226.292 86.4189C237.651 86.4189 247.245 76.0524 247.245 63.7824C247.245 58.8754 245.48 54.2051 242.141 50.2761C240.386 48.21 238.269 46.45 235.938 45.0869C235.91 45.051 235.879 45.0175 235.85 44.9841ZM222.691 87.0597C224.313 87.4328 226.368 87.6026 227.788 87.6026C239.099 87.6026 249.022 76.612 249.022 64.0813C249.022 55.4223 244.034 47.8608 236.3 44.3145C236.462 44.171 236.671 43.9701 236.952 43.6951C246.02 46.7608 252.423 55.6423 252.57 65.4396C252.668 71.9847 250.308 78.0826 245.923 82.6118C241.996 86.6675 236.892 88.9345 231.55 88.9967C230.39 89.0111 228.732 88.8939 227.31 88.6572C226.963 88.5926 226.608 88.5209 226.254 88.4467C226.111 88.4132 225.973 88.3774 225.842 88.3391L225.838 88.3558C224.737 88.1095 223.633 87.813 222.663 87.4758C222.672 87.3395 222.682 87.2008 222.691 87.0597ZM259.988 17.4836C259.988 20.8243 256.732 23.9809 253.262 24.0383L237.596 17.0843C241.283 16.7877 244.194 13.679 244.194 9.89588C244.194 8.39651 243.782 7.03105 243.062 5.89995L257.769 12.5072C259.156 13.6383 259.988 15.4247 259.988 17.4836ZM238.138 15.5753C235.406 15.5753 233.184 13.3394 233.184 10.5942C233.184 7.8465 235.408 5.61299 238.138 5.61299C240.871 5.61299 243.092 7.84889 243.092 10.5942C243.095 13.3418 240.871 15.5753 238.138 15.5753ZM230.67 9.89588C230.67 6.37583 233.52 3.511 237.021 3.511C240.7 3.511 243.371 6.19648 243.371 9.89588C243.371 10.3598 243.321 10.8094 243.228 11.2446C243.254 11.0318 243.273 10.8142 243.273 10.5942C243.273 7.74846 240.971 5.43364 238.141 5.43364C235.311 5.43364 233.008 7.74846 233.008 10.5942C233.008 13.4399 235.311 15.7547 238.141 15.7547C239.175 15.7547 240.139 15.4438 240.945 14.9105C239.865 15.7666 238.502 16.2808 237.023 16.2808C233.52 16.2808 230.67 13.4159 230.67 9.89588ZM245.266 25.9729C246.234 24.7509 246.413 22.735 246.446 22.0009L251.597 24.287C250.501 24.4902 248.993 24.8298 247.692 25.3272C245.124 26.3125 231.02 41.3277 230.421 41.9662L230.378 42.0116C230.216 41.9518 230.05 41.8921 229.883 41.8323C232.38 39.3046 244.26 27.2451 245.266 25.9729ZM177.865 22.2759C183.418 24.4448 193.226 30.789 193.181 48.4969C193.162 56.6753 190.073 64.4233 184.707 69.756C180.348 74.0867 174.801 76.4637 169.067 76.4637C169.003 76.4637 168.939 76.4637 168.875 76.4637C167.885 76.4541 166.87 76.16 165.89 75.8778C165.045 75.6339 164.244 75.4043 163.59 75.4115L162.653 75.2369C162.622 75.2202 162.589 75.2035 162.558 75.1867L162.541 75.2154L150.863 73.0512C152.298 72.8839 153.713 72.5897 155.099 72.1665C160.653 70.471 165.402 66.8505 168.846 62.0582C172.83 56.8953 175.099 50.2594 175.099 43.3125C175.099 37.7144 173.669 32.3602 171.005 27.7664C168.76 23.5648 165.628 20.0256 161.901 17.4836L177.865 22.2759ZM167.823 24.2463C168.13 24.6529 168.427 25.0666 168.713 25.4922C167.238 25.1024 165.723 24.9016 164.192 24.9016C153.596 24.9016 144.975 34.3737 144.975 46.0171C144.975 57.2206 152.956 66.4105 163 67.0896C162.505 67.4818 162.001 67.8572 161.48 68.2112C156.367 67.9912 151.713 65.6668 148.302 61.6087C144.811 57.4549 142.887 51.8663 142.887 45.8784C142.887 39.9933 145.041 34.4263 148.956 30.2008C152.885 25.9585 158.086 23.6222 163.599 23.6222C163.721 23.6222 163.847 23.6222 163.978 23.6198C165.126 23.6102 166.703 23.5959 167.738 24.3611L167.823 24.2463ZM163.923 66.322C153.891 66.1618 145.774 57.1177 145.774 46.0171C145.774 34.8161 154.036 25.705 164.192 25.705C165.956 25.705 167.7 25.9801 169.376 26.5229C172.295 31.253 174.009 36.9946 174.009 43.181C174.012 52.4283 170.13 60.9008 163.923 66.322ZM174.801 43.1786C174.801 40.8638 174.566 38.6087 174.123 36.4422C174.613 38.6637 174.868 40.9666 174.868 43.3125C174.868 46.9593 174.238 50.5176 173.06 53.8225C174.185 50.4889 174.801 46.8947 174.801 43.1786ZM167.662 24.0311C166.575 23.3663 165.086 23.3783 163.978 23.3878C163.847 23.3878 163.721 23.3902 163.602 23.3902C158.022 23.3902 152.761 25.7529 148.79 30.0429C144.837 34.3115 142.658 39.9359 142.658 45.8808C142.658 51.9237 144.601 57.5649 148.128 61.7617C151.513 65.7864 156.105 68.1275 161.159 68.4312C160.522 68.8521 159.868 69.2418 159.197 69.6029C156.086 71.0617 152.735 71.8221 149.294 71.8221C135.193 71.8221 123.72 59.0332 123.72 43.3149C123.72 27.5966 135.19 14.8053 149.291 14.8053C154.015 14.8053 158.545 16.2258 162.486 18.8802C164.408 20.3341 166.149 22.0678 167.662 24.0311ZM122.133 43.1786C122.133 27.0538 133.77 13.9349 148.071 13.9349C152.003 13.9349 155.732 14.9273 159.076 16.7016C156.013 15.3051 152.704 14.571 149.294 14.571C135.064 14.571 123.489 27.4627 123.489 43.3101C123.489 59.1575 135.064 72.0493 149.294 72.0493C151.315 72.0493 153.308 71.7886 155.237 71.284C155.114 71.3247 154.992 71.3677 154.869 71.406C152.664 72.078 150.378 72.4199 148.071 72.4199C133.77 72.4223 122.133 59.3034 122.133 43.1786ZM169.919 77.3844C168.025 77.4346 165.978 76.7698 164.375 76.0715L164.437 75.7367C164.869 75.8228 165.34 75.9591 165.826 76.0978C166.774 76.3728 167.852 76.6837 168.872 76.6933C168.939 76.6933 169.003 76.6933 169.07 76.6933C174.863 76.6933 180.469 74.2924 184.871 69.9186C190.279 64.5429 193.395 56.7351 193.414 48.4969C193.433 40.4572 191.411 33.8739 187.399 28.9286C184.588 25.4635 181.318 23.4763 178.661 22.3428L178.733 22.1061C182.704 23.0507 186.427 25.8485 189.409 30.1936C192.903 35.2848 194.948 41.959 195.017 48.5041C195.184 64.0359 183.925 76.9898 169.919 77.3844ZM195.807 48.4969C195.735 41.7964 193.64 34.9595 190.058 29.744C188.974 28.1634 187.792 26.7812 186.534 25.607C190.912 27.8453 194.194 30.6456 196.511 34.1178C199.272 38.2572 200.616 43.2647 200.616 49.432C200.616 57.9212 197.686 65.4013 192.363 70.4949C188.189 74.4884 182.745 76.7411 176.842 76.9587C187.896 73.2832 195.949 61.8119 195.807 48.4969ZM192.907 71.0688C198.387 65.8246 201.405 58.1412 201.405 49.4296C201.405 43.0997 200.019 37.9463 197.167 33.673C196.28 32.3434 195.257 31.1119 194.094 29.9688L221.15 39.649L221.124 39.7159C221.152 39.7279 224.068 40.9236 226.52 43.2384C228.689 45.2878 230.885 47.7508 232.245 51.8472C233.848 56.6777 232.989 60.5852 232.98 60.6234L232.954 60.7334L239.273 62.3835L240.505 61.4341C240.64 61.4198 240.745 61.3935 240.812 61.348C240.935 61.2667 241.014 61.1447 241.033 61.0013C241.97 53.8775 238.712 48.4754 236.4 45.6369C238.478 46.933 240.372 48.5495 241.963 50.422C245.264 54.3079 247.01 58.9256 247.01 63.7776C247.01 75.9232 237.52 86.1821 226.287 86.1821C226.064 86.1821 225.833 86.1845 225.593 86.1845C224.696 86.1893 223.695 86.1917 222.751 86.1247C222.969 83.0542 223.231 79.35 223.231 79.35L223.248 79.1037L223.01 79.0416C222.468 78.8981 209.727 75.5215 209.12 75.4187L208.802 75.3661L208.773 75.7224L208.692 75.3182L204.093 76.2389L204.033 77.3772H203.738L203.731 77.5255L203.688 77.3987C203.619 77.4226 203.512 77.4681 203.365 77.5326C202.602 77.8698 200.57 78.7642 196.439 79.209C194.634 79.4027 192.591 79.2257 190.748 78.9292L190.76 78.879L182.49 76.9037C186.403 75.8682 189.961 73.8882 192.907 71.0688ZM194.622 87.0717C198.644 86.9569 202.794 86.7513 203.586 86.7106V88.0521L205.605 88.7935C202.511 88.9656 201.132 89.0948 200.501 89.2L200.516 89.1617L194.622 87.0717ZM185.516 84.6708C185.518 84.5847 185.52 84.4723 185.482 84.3671C185.437 83.8864 185.463 80.7729 185.494 78.5537C187.135 79.044 192.353 80.4572 196.534 80.0053C200.787 79.5461 202.896 78.6159 203.691 78.2668C203.696 78.2644 203.698 78.2644 203.703 78.262L203.308 85.931C198.114 86.1917 188.467 86.5671 186.886 86.218C185.482 85.9047 185.506 85.0725 185.516 84.6708ZM183.715 91.29C184.338 90.5941 184.248 88.8556 184.21 88.363H189.021C189.009 88.7313 189.002 89.09 188.995 89.4415C188.914 90.1135 188.748 90.7998 188.422 91.1441C188.286 91.2876 188.134 91.357 187.961 91.357H183.653C183.672 91.3355 183.694 91.3139 183.715 91.29ZM183.342 91.5889H187.837C187.813 92.555 187.521 93.0453 187.19 93.3466H182.65C182.964 93.0668 183.401 92.5096 183.342 91.5889ZM181.848 93.7818C181.951 93.6431 182.096 93.5761 182.293 93.5761H186.883C186.828 93.612 186.776 93.6455 186.724 93.6766C186.598 93.7555 186.476 93.8272 186.384 93.9133C186.017 94.2505 185.996 94.9559 186.003 95.2405L181.791 95.3601C181.696 94.9942 181.563 94.1716 181.848 93.7818ZM186.358 95.6064C187.161 95.6064 187.842 96.9695 187.842 98.5812C187.842 100.193 187.161 101.556 186.358 101.556C185.554 101.556 184.873 100.193 184.873 98.5812C184.873 96.9695 185.554 95.6064 186.358 95.6064ZM179.192 98.5812C179.192 96.9408 179.905 95.6064 180.78 95.6064C180.835 95.6064 181.013 95.604 181.199 95.6016C181.354 95.5992 181.513 95.5968 181.615 95.5968L181.62 95.6088L185.925 95.4749C185.178 95.824 184.64 97.0603 184.64 98.5788C184.64 99.9443 185.076 101.085 185.706 101.554H181.951H180.78C179.905 101.556 179.192 100.222 179.192 98.5812ZM184.189 107.738C184.131 107.233 183.827 104.945 182.871 104.206C182.298 103.763 182.024 102.96 181.958 102.355C181.922 102.032 181.955 101.845 181.981 101.788H186.358H187.452C187.406 102.285 187.295 104.041 187.873 104.665C187.961 104.76 188.039 104.837 188.108 104.906C188.555 105.351 188.698 105.492 189.188 108.226L184.189 107.738ZM190.415 102.666C190.396 102.623 190.375 102.57 190.356 102.513C190.377 102.565 190.396 102.618 190.415 102.666ZM190.103 101.769C189.958 102.309 190.232 102.826 190.284 102.919L191.117 105.686L189.464 108.465L189.442 108.338C188.914 105.385 188.764 105.236 188.27 104.744C188.201 104.674 188.125 104.6 188.041 104.509C187.452 103.871 187.689 101.709 187.694 101.688L187.708 101.558H187.007C187.637 101.087 188.072 99.9491 188.072 98.5836C188.072 96.7853 187.318 95.3768 186.358 95.3768C186.317 95.3768 186.279 95.384 186.241 95.3864L186.239 95.3457C186.239 95.3362 186.17 94.4299 186.541 94.0855C186.617 94.0138 186.724 93.9492 186.845 93.8751C187.323 93.5809 188.039 93.1385 188.07 91.577C188.263 91.5507 188.436 91.4622 188.586 91.3044C188.75 91.1322 188.876 90.8859 188.976 90.6061C188.936 96.1779 189.445 99.631 190.103 101.769ZM194.177 87.7556L199.933 89.7978C200.509 91.7085 199.101 93.3394 198.744 93.7101L194.199 93.6551C194.137 91.2781 194.156 88.9872 194.177 87.7556ZM200.547 89.7835C201.32 89.6639 203.748 89.4917 206.029 89.3674C206.038 89.4272 206.048 89.4869 206.057 89.5443L206.01 90.5822H207.477L207.415 93.7985L199.524 93.7172C200.111 92.9807 200.994 91.5148 200.547 89.7835ZM206.333 108.264C206.357 106.992 206.385 105.105 206.395 103.352C206.523 103.778 206.706 104.163 206.978 104.45V107.173L206.333 108.264ZM196.767 100.03L205.781 100.162C205.848 102.513 205.76 107.365 205.724 109.113C204.633 109.129 199.962 108.897 196.877 108.73C196.737 107.771 196.734 103.118 196.767 100.03ZM202.709 115.395C200.806 115.471 198.894 115.323 197.467 114.991C196.08 114.668 195.462 114.247 195.319 113.919L195.21 110.344C196.356 111.119 198.523 111.619 201.006 111.619C201.353 111.619 201.71 111.609 202.069 111.588C204.059 111.475 205.945 111.119 207.382 110.588C208.133 110.308 208.709 110 209.104 109.667L209.256 113.231C209.166 113.668 208.54 114.146 207.532 114.534C206.276 115.015 204.564 115.321 202.709 115.395ZM187.266 116.052C188.453 115.249 190.705 114.175 194.713 113.541L194.72 113.805H194.691C194.694 113.879 194.708 113.95 194.727 114.02L194.732 114.149L194.772 114.146C194.917 114.486 195.257 114.79 195.785 115.05L195.79 115.316C194.125 115.325 190.926 116.961 188.798 118.049C188.122 118.393 187.59 118.666 187.259 118.807C186.947 118.941 186.655 118.946 186.391 118.822C186.053 118.664 185.815 118.322 185.663 118.035L185.646 117.65C185.744 117.468 186.146 116.81 187.266 116.052ZM187.335 128.346C187.882 128.361 188.415 128.341 188.931 128.303C188.905 128.346 188.893 128.382 188.888 128.404L147.907 223.495C147.883 223.474 147.855 223.45 147.826 223.426C147.07 221.621 146.937 221.051 146.956 220.915C147.218 220.267 184.795 133.837 187.19 128.33C187.238 128.339 187.287 128.346 187.335 128.346ZM142.661 227.939L145.686 221.477L146.911 224.579L143.524 230.832L142.661 227.939ZM148.74 232.559C146.873 232.697 144.195 231.432 143.619 231.148V231.145L147.08 224.756L151.841 226.033C150.557 228.995 149.123 232.099 148.74 232.559ZM152.034 225.576C152 225.655 151.965 225.736 151.931 225.817L147.191 224.548L147.263 224.416L147.061 224.306L147.056 224.316L145.821 221.193L146.185 220.415H146.528C146.456 220.583 146.414 220.678 146.409 220.695C146.273 221.035 146.518 221.843 147.336 223.787L147.384 223.902L147.503 223.852L147.455 224.014L151.641 225.234L151.746 224.992C151.805 224.856 151.865 224.72 151.922 224.581L152.034 225.576ZM172.321 175.814C162.408 198.728 152.426 221.912 151.306 224.517L148.119 223.589L189.105 128.487L189.112 128.463C189.112 128.461 189.138 128.375 189.283 128.275C190.879 128.121 192.306 127.765 193.464 127.464C192.793 128.839 191.174 132.467 186.945 142.137C183.389 150.27 178.469 161.6 172.321 175.814ZM194.294 126.634C194.223 126.584 194.123 126.584 193.997 126.605C193.999 126.605 194.004 126.603 194.006 126.603C194.001 126.603 193.997 126.605 193.992 126.608C193.923 126.62 193.847 126.639 193.766 126.658C193.59 126.701 193.34 126.761 193.043 126.835C192.513 126.964 191.832 127.134 191.157 127.301L191.178 127.39C190.02 127.619 188.722 127.787 187.349 127.753C187.045 127.746 186.434 127.241 186.051 126.845L185.685 118.506C185.841 118.716 186.041 118.915 186.293 119.034C186.453 119.109 186.619 119.147 186.79 119.147C186.971 119.147 187.157 119.106 187.349 119.022C187.687 118.879 188.222 118.604 188.902 118.257C190.888 117.241 194.185 115.548 195.795 115.55L195.99 126.345C195.538 126.345 194.972 126.464 194.294 126.634ZM203.964 126.608C202.364 126.78 198.615 127.182 196.57 126.428C196.465 126.39 196.349 126.369 196.223 126.357L196.021 115.156C196.387 115.311 196.825 115.45 197.334 115.569C198.556 115.856 200.116 116.009 201.724 116.009C202.059 116.009 202.397 116.002 202.735 115.99C203.234 115.971 203.724 115.933 204.197 115.88L204.556 126.548C204.433 126.555 204.25 126.579 203.964 126.608ZM209.931 128.746L209.946 128.693C210.055 128.705 210.162 128.717 210.269 128.726L257.467 230.076L254.891 230.827L207.113 128.088L207.137 128.026C207.848 128.263 208.65 128.487 209.465 128.624L209.931 128.746ZM206.321 127.787L217.594 152.025L231.646 193.618L226.756 193.054C225.674 189.407 213.252 151.129 205.572 127.5L206.321 127.787ZM225.724 194.419L232.583 195.28L234.195 199.943L227.436 199.247L225.724 194.419ZM235.475 196.308L234.352 199.69L232.763 195.093L234.14 191.906L235.475 196.308ZM233.938 191.241L234.036 191.564L232.545 195.015L232.497 195.031L232.499 195.036L225.638 194.175L225.619 194.125L226.221 193.288C226.23 193.317 226.237 193.343 226.242 193.36L226.237 193.594L232.262 194.29L232.278 194.151L232.366 194.187L233.505 191.447L233.329 190.906L233.938 191.241ZM232.873 191.425L231.945 193.656L231.898 193.651L218.484 153.946L225.764 169.599L225.74 169.607L232.873 191.425ZM253.676 231.736L254.565 231.53L254.57 231.542L256.837 230.88L260.873 239.386C260.093 239.637 258.283 239.709 257.419 239.718L253.676 231.736ZM263.006 227.864L266.664 236.107C264.583 237.313 261.665 238.989 261.087 239.295L257.063 230.813L257.855 230.581L257.826 230.485L262.614 228.063L262.621 228.06L262.868 227.936V227.934L263.006 227.864ZM262.09 227.664L257.645 229.911L210.533 128.746C210.657 128.753 210.781 128.755 210.902 128.755C211.099 128.755 211.297 128.746 211.489 128.729C212.912 128.595 215.157 127.698 216.584 127.072L216.301 127.201L262.09 227.664ZM217.483 126.008C216.667 126.393 213.249 127.964 211.432 128.136C210.842 128.191 210.215 128.145 209.589 128.043L207.256 127.44C206.68 127.246 206.169 127.048 205.762 126.892C205.246 126.694 204.966 126.589 204.785 126.555L204.447 116.528C205.189 116.842 208.481 118.291 210.762 120.369C210.907 120.5 211.123 120.558 211.392 120.558C212.947 120.558 216.208 118.63 216.924 118.195C217.055 118.468 217.135 118.747 217.145 119.034C217.214 121.045 217.433 125.068 217.483 126.008ZM216.817 117.992C215.352 118.884 211.668 120.881 210.921 120.199C208.493 117.989 204.944 116.483 204.442 116.275L204.428 115.854C205.686 115.701 206.83 115.443 207.743 115.091C208.742 114.708 209.399 114.249 209.689 113.742C211.363 114.352 215.604 115.93 216.817 117.992ZM212.077 111.325C212.169 111.552 212.25 112.841 212.286 114.132C211.463 113.773 210.633 113.453 209.858 113.168C209.858 113.14 209.86 113.111 209.86 113.08H209.843L209.755 111.031C210.495 110.976 211.96 111.04 212.077 111.325ZM209.13 108.469L209.052 108.472L209.066 108.819C208.849 109.218 208.169 109.66 207.175 110.029C205.812 110.533 203.938 110.885 202.033 110.995C197.845 111.231 194.984 110.002 194.934 109.086C194.912 108.709 195.514 108.154 196.239 108.022C196.308 109.122 196.408 109.201 196.477 109.254L196.549 109.309L196.639 109.314C202.062 109.612 204.376 109.701 205.387 109.701C206.117 109.701 206.167 109.656 206.217 109.608L206.309 109.517V109.469L207.541 107.379C208.466 107.675 209.049 108.072 209.13 108.469ZM207.57 103.902V101.817H206.978V102.195C206.932 101.805 206.906 101.384 206.887 100.961L206.88 100.793C206.868 100.552 206.97 97.5529 207.099 94.3916L207.998 94.4012L208.084 89.9867H206.961C206.892 89.683 206.771 89.0852 206.752 88.6213L206.74 88.3534L204.385 87.4902V86.328L204.868 76.9109L208.752 76.1337L207.867 87.4113L212.041 88.2291C212.122 88.8269 211.944 90.9002 211.787 92.7487C211.294 98.5191 211.004 103.036 212.067 104.184C210.961 104.167 209.273 104.146 208.183 104.146C207.929 104.148 207.729 104.057 207.57 103.902ZM215.782 103.452C215.418 103.9 214.852 104.497 214.148 104.548C213.837 104.569 213.511 104.483 213.173 104.292L213.176 104.201C213.171 104.201 213.118 104.201 213.023 104.198C212.859 104.091 212.693 103.962 212.524 103.806C211.515 102.876 212.032 96.8116 212.374 92.799C212.626 89.8433 212.747 88.2793 212.543 87.8441L212.479 87.7078L208.495 86.9258L209.346 76.0835C211.004 76.4876 218.41 78.4413 222.627 79.5581C222.551 80.6342 222.244 84.9936 222.044 87.7628C221.963 88.8891 221.921 89.4798 221.897 89.7883C221.221 89.6759 219.611 89.4033 218.527 89.1761C218.358 89.1402 218.184 89.1785 218.051 89.2789C217.92 89.3769 217.839 89.5204 217.825 89.683C217.661 91.5602 217.128 96.1014 216.617 99.466C216.624 99.3369 216.626 99.2054 216.626 99.0714C216.626 96.8379 215.742 95.0875 214.612 95.0875C213.482 95.0875 212.598 96.8379 212.598 99.0714C212.598 101.305 213.482 103.055 214.612 103.055C215.364 103.055 216.006 102.276 216.351 101.099C216.137 102.362 215.934 103.261 215.782 103.452ZM216.401 99.0714C216.401 101.14 215.601 102.823 214.617 102.823C213.632 102.823 212.833 101.14 212.833 99.0714C212.833 97.0029 213.632 95.3194 214.617 95.3194C215.601 95.3194 216.401 97.0029 216.401 99.0714ZM217.749 95.604C218.115 92.6842 218.389 90.0465 218.417 89.7596C219.316 89.9485 220.563 90.1661 221.355 90.3C221.397 92.6842 221.892 94.5805 222.701 95.6901L217.749 95.604ZM221.588 90.3407C221.697 90.3598 221.795 90.3741 221.873 90.3885V90.422L222.161 90.4339C222.242 90.4363 222.304 90.4172 222.346 90.3837C222.703 94.0759 223.864 96.2497 225.605 96.3621C225.536 96.4242 225.303 96.5486 224.575 96.5486C222.841 96.5486 221.661 94.0712 221.588 90.3407ZM225.747 96.1373C223.933 96.1373 222.763 93.7148 222.51 89.5659L222.603 88.2937C224.43 88.9059 226.663 89.3817 228.504 89.6663C227.897 93.7268 226.875 96.1373 225.747 96.1373ZM248.85 91.4478L238.374 88.9991C240.6 88.2889 242.719 87.2008 244.665 85.7636L249.086 86.8565L248.85 91.4478ZM245.485 85.1227C245.97 84.7282 246.446 84.3121 246.907 83.8721C251.835 79.1563 254.661 72.3386 254.661 65.1694C254.661 65.1574 254.661 65.1479 254.661 65.1359L256.33 65.6763C257.7 66.6544 258.604 69.2203 258.685 72.5634L257.738 72.5491L257.741 72.5299C256.998 72.4175 256.275 72.6399 255.595 73.1923C253.714 74.7204 252.318 78.7833 252.037 83.5421C251.987 84.4006 251.971 85.2591 251.99 86.0889C251.995 86.3065 252.002 86.5217 252.011 86.7321L245.485 85.1227ZM254.28 92.8659L255.372 92.8492C255.617 93.2916 255.885 93.6718 256.173 93.9755L255.776 93.9683C255.222 93.9348 254.713 93.5427 254.28 92.8659ZM262.718 94.0831C261.846 94.0305 261.018 92.9281 260.447 91.0581C259.829 89.0326 259.581 86.3662 259.748 83.5492C259.914 80.7322 260.476 78.1137 261.327 76.1767C262.06 74.51 262.937 73.5319 263.758 73.4482L263.955 73.4506V73.4434C264.821 73.5104 265.641 74.608 266.207 76.4661C266.826 78.4916 267.073 81.1579 266.907 83.9749C266.74 86.7919 266.179 89.4104 265.327 91.3474C264.54 93.1385 263.579 94.1405 262.718 94.0831ZM266.681 89.9796L266.75 90.0896C268.959 88.6835 270.859 84.9434 271.589 80.5601C272.063 77.7191 271.884 74.8615 271.09 72.5084C270.755 71.5184 270.327 70.6862 269.834 70.0334L279.571 73.178L279.559 73.221C285.36 74.7682 287.619 77.6594 287.619 83.5301C287.619 89.0398 284.321 93.5235 280.266 93.5235C279.638 93.5235 279.012 93.4159 278.411 93.2007L278.396 93.2438L266.574 90.3239C266.605 90.2139 266.643 90.0991 266.681 89.9796ZM285.503 75.2561C286.361 75.7822 287.225 76.5115 287.938 77.5231C289.52 79.7685 289.986 82.8558 289.32 86.701C288.863 89.3387 287.282 91.7659 285.191 93.0357C284.344 93.5498 283.443 93.8535 282.513 93.9492C285.936 92.6507 288.447 88.4754 288.447 83.5373C288.449 79.7924 287.548 77.1381 285.503 75.2561ZM272.688 97.8829C272.674 97.1895 272.829 94.8962 273.005 92.7607L278.579 94.1381C278.655 94.1596 278.732 94.1764 278.808 94.1955L278.812 94.1979C279.193 94.2864 279.576 94.3414 279.964 94.3581C280.61 94.5351 281.255 94.6283 281.89 94.6283C283.155 94.6283 284.385 94.2792 285.524 93.5881C287.769 92.225 289.465 89.628 289.953 86.8134C290.647 82.7936 290.145 79.5437 288.461 77.1548C286.704 74.6606 284.111 73.7615 282.689 73.4434C281.857 73.0632 280.927 72.7356 279.89 72.4534L279.895 72.4367L275.606 71.0521C276.251 71.0927 277.224 71.0306 278.66 70.9301C280.187 70.8225 282.087 70.691 284.147 70.691C286.192 70.691 288.116 70.8225 289.662 70.9277C290.074 70.9564 290.445 70.9803 290.787 71.0019L290.569 83.7358C290.559 83.8362 290.54 83.951 290.521 84.0729C290.457 84.4699 290.373 84.9769 290.54 85.4217L290.312 98.7654L272.688 97.8829ZM291.125 86.0817C291.489 86.2921 291.998 86.3949 292.676 86.3949C293.09 86.3949 293.568 86.3543 294.107 86.2778L290.935 97.1847L291.125 86.0817ZM296.219 85.2136C296.089 85.1371 295.993 85.0127 295.955 84.8645C295.917 84.7162 295.939 84.5632 296.015 84.4293C296.091 84.2953 296.215 84.2021 296.362 84.1638C296.472 84.1351 296.581 84.1423 296.681 84.1734C296.752 84.3073 296.79 84.4436 296.79 84.5823C296.79 84.8836 296.619 85.0964 296.3 85.2519C296.274 85.2423 296.246 85.2304 296.219 85.2136ZM296.512 83.9247C296.457 83.9247 296.4 83.9295 296.345 83.9414L292.455 82.8271L292.393 83.0423L296.029 84.0849C295.815 84.2475 295.696 84.5153 295.72 84.7904L292.169 85.0677L292.186 85.2901L295.772 85.0104C295.827 85.1514 295.92 85.271 296.041 85.3595C295.656 85.4886 295.13 85.5723 294.486 85.6441L294.469 85.6464C292.312 86.0123 291.513 85.7445 291.225 85.4528C291.189 85.4169 291.161 85.3786 291.137 85.3404L291.17 83.334C291.213 83.0973 291.322 82.8127 291.605 82.6142C291.8 82.4755 292.11 82.356 292.592 82.356C293.037 82.356 293.632 82.4564 294.421 82.7386C295.449 83.1021 296.15 83.5038 296.512 83.9247ZM296.681 79.075L295.594 82.6023C295.304 82.4636 294.978 82.3297 294.612 82.1981C293.104 81.6625 291.984 81.6457 291.277 82.1455C291.244 82.1694 291.218 82.1957 291.189 82.2197L291.277 77.0974L296.681 79.075ZM297.09 77.6952L291.306 75.5119L291.36 72.3458L297.925 74.6726C297.706 75.4187 297.273 77.0137 297.09 77.6952Z" fill="#E9EEF1"/>
<path d="M213.829 99.0708C213.829 100.692 214.307 101.962 214.916 101.962C215.525 101.962 216.003 100.692 216.003 99.0708C216.003 97.4495 215.525 96.1797 214.916 96.1797C214.307 96.1797 213.829 97.4495 213.829 99.0708ZM215.86 99.0708C215.86 100.714 215.373 101.816 214.916 101.816C214.459 101.816 213.972 100.714 213.972 99.0708C213.972 97.428 214.459 96.3256 214.916 96.3256C215.373 96.3256 215.86 97.428 215.86 99.0708Z" fill="#E9EEF1"/>
</g>
</g>
<defs>
<clipPath id="clip0_5737_5363">
<rect width="315" height="240" fill="white"/>
</clipPath>
</defs>
</svg>
