<svg width="646" height="646" viewBox="0 0 646 646" fill="none" xmlns="http://www.w3.org/2000/svg">
<path d="M542.204 297.078C549.441 405.079 492.9 500.941 401.513 512.588C310.126 524.235 224.963 446.623 211.283 339.244C197.602 231.866 260.509 134.77 351.967 123.734C444.065 112.62 535.352 194.778 542.204 297.078Z" stroke="#C4D9DC" stroke-width="3" stroke-miterlimit="10"/>
<path d="M281.41 152.83C295.505 145.996 310.602 140.176 326.718 138.119C418.1 126.472 503.073 202.513 516.511 307.954C529.106 406.809 473.982 493.466 391.794 513.88" stroke="#C4D9DC" stroke-width="0.7853" stroke-miterlimit="10"/>
<path d="M408.005 527.841C505.488 515.419 572.582 411.717 557.865 296.214C543.148 180.712 452.192 97.1483 354.709 109.57C257.227 121.991 190.132 225.693 204.849 341.196C219.566 456.698 310.522 540.262 408.005 527.841Z" stroke="#C4D9DC" stroke-width="3" stroke-miterlimit="10"/>
<path d="M389.012 560.941C506.09 546.023 587.453 427.613 570.742 296.465C554.031 165.317 445.574 71.0933 328.497 86.0112C211.42 100.929 130.057 219.339 146.767 350.487C163.478 481.635 271.935 575.859 389.012 560.941Z" stroke="#C4D9DC" stroke-width="3" stroke-miterlimit="10"/>
<path d="M388.36 302.751C388.467 302.964 388.573 303.184 388.68 303.403C390.257 306.675 391.353 310.326 391.851 314.22C393.973 330.852 384.306 345.789 370.27 347.579C356.234 349.369 343.129 337.331 341.013 320.699C338.891 304.067 348.558 289.13 362.594 287.34C369.488 286.463 376.15 288.917 381.401 293.611" stroke="#C4D9DC" stroke-width="3" stroke-miterlimit="10"/>
<path d="M375.629 346.262C373.418 347.181 364.9 348.858 363.377 348.817C349.4 348.473 337.427 340.275 334.932 323.626C332.448 307.041 342.323 290.877 356.365 289.093" stroke="#C4D9DC" stroke-width="3" stroke-miterlimit="10"/>
<path d="M382.387 292.71C382.387 292.71 364.628 308.921 343 328.718C308.657 360.157 264.552 400.64 266.259 399.674C269.033 398.097 389.292 302.917 389.292 302.917C389.292 302.917 395.658 289.824 382.387 292.71Z" stroke="#C4D9DC" stroke-width="3" stroke-miterlimit="10"/>
<path d="M350.455 328.646L347.029 336.334L280.543 388.678L341.381 330.122L350.455 328.646Z" fill="#C4D9DC" stroke="#C4D9DC" stroke-width="3" stroke-miterlimit="10"/>
<path d="M457.081 455.633L345.594 484.114C335.856 485.015 324.185 486.1 315.976 470.511L298.763 423.893C294.051 411.623 291.526 399.514 308.94 394.683L451.865 360.968C464.632 357.4 469.682 360.506 471.235 375.656L474.91 421.219C475.817 430.952 472.646 450.156 457.081 455.633Z" stroke="#C4D9DC" stroke-width="3" stroke-miterlimit="10"/>
<path d="M459.525 359.617C462.577 361.839 464.272 365.218 465.049 372.793L468.724 418.356C469.625 428.095 466.454 447.299 450.889 452.776L339.402 481.257C334.714 481.689 329.575 482.169 324.596 480.806" stroke="#C4D9DC" stroke-width="0.7853" stroke-miterlimit="10"/>
<path d="M181.412 553.795L348.556 562.111" stroke="#C4D9DC" stroke-width="3" stroke-miterlimit="10"/>
<path d="M317.263 87.8081L161.41 123.805" stroke="#C4D9DC" stroke-width="3" stroke-miterlimit="10"/>
<path d="M182.003 554.388C111.955 525.018 63.7361 460.517 48.8348 374.115C30.5847 268.289 79.0107 167.294 161.412 123.805" stroke="#C4D9DC" stroke-width="3" stroke-miterlimit="10"/>
<path d="M308.355 142.073L321.899 181.869" stroke="#C4D9DC" stroke-width="3" stroke-miterlimit="10"/>
<path d="M242.131 427.87L270.629 403.254" stroke="#C4D9DC" stroke-width="3" stroke-miterlimit="10"/>
<path d="M517.912 322.968L486.035 323.466" stroke="#C4D9DC" stroke-width="3" stroke-miterlimit="10"/>
<path d="M460.446 189.77L435.812 221.789" stroke="#C4D9DC" stroke-width="3" stroke-miterlimit="10"/>
<path d="M500.705 251.668L465.289 268.81" stroke="#C4D9DC" stroke-width="3" stroke-miterlimit="10"/>
<path d="M388.365 143.851L381.945 187.796" stroke="#C4D9DC" stroke-width="3" stroke-miterlimit="10"/>
<path d="M215.238 266.369L255.182 279.924" stroke="#C4D9DC" stroke-width="3" stroke-miterlimit="10"/>
<path d="M212.975 340.211L252.605 333.271" stroke="#C4D9DC" stroke-width="3" stroke-miterlimit="10"/>
<path d="M245.77 193.86L276.669 221.446" stroke="#C4D9DC" stroke-width="3" stroke-miterlimit="10"/>
<path d="M282.345 385.46C282.114 386.45 281.592 387.339 280.774 388.127C279.962 388.916 278.884 389.568 277.55 390.077L277.532 390.083C276.198 390.593 274.96 390.824 273.828 390.777C272.695 390.729 271.712 390.415 270.882 389.828C270.052 389.242 269.429 388.4 269.009 387.297C268.588 386.195 268.493 385.146 268.718 384.156C268.943 383.166 269.465 382.271 270.277 381.477C271.089 380.683 272.168 380.031 273.502 379.521L273.519 379.515C274.853 379.005 276.092 378.774 277.224 378.827C278.362 378.875 279.346 379.195 280.176 379.782C281.011 380.368 281.634 381.216 282.055 382.319C282.481 383.421 282.576 384.47 282.345 385.46ZM279.34 381.204C278.723 380.843 277.977 380.671 277.105 380.689C276.228 380.706 275.262 380.92 274.207 381.323L274.189 381.329C273.134 381.732 272.275 382.218 271.611 382.787C270.947 383.356 270.508 383.978 270.295 384.66C270.082 385.341 270.111 386.047 270.39 386.776C270.668 387.505 271.113 388.05 271.723 388.412C272.334 388.773 273.075 388.939 273.946 388.922C274.817 388.904 275.784 388.69 276.839 388.287L276.856 388.281C277.911 387.878 278.771 387.392 279.441 386.829C280.105 386.26 280.549 385.644 280.768 384.962C280.988 384.286 280.958 383.581 280.68 382.852C280.407 382.111 279.956 381.566 279.34 381.204Z" fill="#C4D9DC"/>
<path d="M261.684 341.04V341.082L264.393 345.017L262.697 345.106L259.894 341.159L259.793 339.286L273.289 338.557L273.39 340.412L261.684 341.04Z" fill="#C4D9DC"/>
<path d="M277.939 285.36L274.673 278.781C274.252 277.933 273.896 277.281 273.6 276.813C273.304 276.345 273.013 276.001 272.735 275.776C272.456 275.55 272.136 275.384 271.774 275.284L271.757 275.278C271.312 275.147 270.885 275.153 270.476 275.289C270.067 275.426 269.706 275.675 269.392 276.03C269.077 276.386 268.84 276.837 268.686 277.376C268.508 277.992 268.461 278.573 268.55 279.124C268.633 279.676 268.828 280.144 269.125 280.535C269.421 280.926 269.807 281.187 270.275 281.323L270.322 281.335L269.807 283.119L269.753 283.102C269 282.888 268.396 282.467 267.933 281.857C267.471 281.241 267.181 280.511 267.056 279.658C266.932 278.804 267.009 277.921 267.27 277.008C267.53 276.113 267.916 275.367 268.437 274.756C268.959 274.151 269.546 273.725 270.21 273.488C270.873 273.245 271.543 273.221 272.219 273.416L272.237 273.422C272.711 273.559 273.138 273.79 273.529 274.122C273.914 274.454 274.311 274.946 274.726 275.604C275.141 276.262 275.621 277.163 276.172 278.307L278.656 283.416L277.814 282.586L278.816 282.876L278.211 283.291L280.452 275.527L281.892 275.941L279.077 285.698L277.939 285.36Z" fill="#C4D9DC"/>
<path d="M296.273 243.045C295.585 243.543 294.886 243.839 294.169 243.934C293.452 244.029 292.776 243.916 292.136 243.596L292.035 243.543L293.013 241.978L293.096 242.019C293.7 242.304 294.347 242.286 295.046 241.96C295.745 241.634 296.368 241.035 296.907 240.17C297.269 239.595 297.494 239.044 297.589 238.498C297.684 237.959 297.654 237.473 297.494 237.034C297.334 236.602 297.055 236.258 296.652 236.003L296.634 235.991C295.929 235.553 295.224 235.476 294.513 235.772C293.801 236.068 293.155 236.673 292.586 237.592L291.561 239.228L290.352 238.475L291.33 236.91C291.656 236.394 291.857 235.879 291.934 235.375C292.011 234.871 291.97 234.415 291.81 234C291.65 233.591 291.377 233.265 290.998 233.028L290.98 233.016C290.577 232.761 290.174 232.648 289.777 232.666C289.374 232.684 288.982 232.832 288.603 233.111C288.224 233.389 287.868 233.792 287.536 234.326C287.216 234.835 287.003 235.339 286.908 235.837C286.807 236.335 286.825 236.785 286.949 237.206C287.08 237.621 287.323 237.977 287.678 238.267L287.749 238.327L286.771 239.891L286.7 239.832C286.119 239.37 285.716 238.801 285.485 238.137C285.254 237.467 285.207 236.744 285.337 235.956C285.467 235.167 285.788 234.367 286.297 233.555C286.819 232.725 287.4 232.079 288.034 231.617C288.674 231.155 289.32 230.894 289.972 230.829C290.63 230.763 291.247 230.917 291.827 231.279L291.845 231.291C292.314 231.587 292.663 231.967 292.877 232.429C293.096 232.891 293.197 233.407 293.179 233.976C293.161 234.545 293.037 235.132 292.794 235.736L292.823 235.754C293.487 234.847 294.252 234.255 295.117 233.976C295.982 233.697 296.818 233.816 297.636 234.326L297.654 234.338C298.288 234.735 298.733 235.286 298.994 235.991C299.254 236.697 299.314 237.479 299.171 238.344C299.029 239.21 298.691 240.075 298.146 240.946C297.589 241.847 296.96 242.547 296.273 243.045Z" fill="#C4D9DC"/>
<path d="M328.376 206.319L321.72 210.255L320.943 208.939C321.02 208.186 321.092 207.427 321.169 206.675C321.246 205.916 321.323 205.163 321.4 204.404C321.477 203.646 321.554 202.893 321.625 202.14C321.696 201.387 321.773 200.629 321.85 199.876C321.927 199.123 322.004 198.365 322.075 197.612L324.518 196.166L329.212 204.108L331.085 203L331.838 204.274L329.965 205.382L331.393 207.801L329.793 208.743L328.376 206.319ZM327.618 205.045L323.658 198.347L323.605 198.382C323.54 199.022 323.468 199.663 323.403 200.303C323.332 200.943 323.267 201.583 323.196 202.217C323.125 202.857 323.059 203.498 322.988 204.138C322.917 204.784 322.852 205.424 322.781 206.064C322.71 206.704 322.644 207.344 322.579 207.985L322.597 208.014L327.618 205.045Z" fill="#C4D9DC"/>
<path d="M375.647 203.764C375.019 203.219 374.568 202.603 374.302 201.915C374.035 201.227 373.976 200.522 374.118 199.805L374.142 199.704L375.944 200.273L375.932 200.35C375.861 200.795 375.914 201.233 376.098 201.666C376.282 202.099 376.572 202.49 376.981 202.834C377.384 203.178 377.882 203.444 378.463 203.628C379.127 203.835 379.755 203.901 380.342 203.812C380.928 203.723 381.432 203.504 381.859 203.148C382.286 202.792 382.588 202.33 382.772 201.749L382.778 201.731C382.956 201.168 382.973 200.617 382.819 200.089C382.671 199.562 382.387 199.094 381.96 198.685C381.539 198.276 381 197.967 380.348 197.76C379.856 197.606 379.376 197.523 378.907 197.517C378.445 197.511 378.006 197.588 377.597 197.748C377.437 197.813 377.271 197.89 377.117 197.979C376.957 198.068 376.809 198.169 376.667 198.288L375.049 197.778L378.131 190.665L386.53 193.326L386.079 194.755L379.186 192.574L377.313 196.746L377.354 196.758C377.84 196.432 378.403 196.249 379.061 196.207C379.713 196.166 380.401 196.26 381.112 196.486C382.055 196.782 382.831 197.232 383.442 197.831C384.052 198.43 384.467 199.117 384.68 199.888C384.894 200.658 384.87 201.459 384.609 202.288L384.603 202.306C384.331 203.166 383.868 203.853 383.211 204.369C382.553 204.891 381.77 205.211 380.869 205.329C379.962 205.454 379.008 205.353 377.989 205.033C377.058 204.731 376.276 204.31 375.647 203.764Z" fill="#C4D9DC"/>
<path d="M419.57 232.802C419.285 232.132 419.149 231.409 419.161 230.638C419.173 229.868 419.386 229.067 419.801 228.244C420.216 227.42 420.892 226.59 421.822 225.748L421.834 225.736C422.966 224.723 424.086 224.035 425.207 223.668C426.327 223.3 427.394 223.259 428.413 223.543C429.433 223.828 430.358 224.438 431.193 225.369C431.78 226.021 432.201 226.696 432.468 227.402C432.734 228.107 432.835 228.795 432.782 229.476C432.728 230.158 432.515 230.774 432.142 231.343L432.071 231.45L430.767 229.998L430.814 229.897C430.992 229.536 431.087 229.156 431.093 228.759C431.098 228.362 431.015 227.959 430.85 227.55C430.684 227.141 430.423 226.744 430.073 226.353C429.439 225.641 428.739 225.232 427.987 225.12C427.228 225.007 426.457 225.108 425.675 225.434C424.893 225.76 424.14 226.228 423.411 226.839C423.357 226.874 423.31 226.91 423.268 226.951C423.221 226.993 423.18 227.034 423.132 227.076L421.787 228.901C421.36 229.287 421.075 229.749 420.927 230.294C420.779 230.84 420.785 231.403 420.933 231.984C421.081 232.565 421.378 233.104 421.81 233.59C422.249 234.076 422.747 234.432 423.304 234.645C423.861 234.858 424.418 234.929 424.97 234.852C425.521 234.775 426.013 234.55 426.434 234.171L426.446 234.159C426.884 233.768 427.169 233.305 427.311 232.784C427.453 232.256 427.441 231.711 427.287 231.148C427.127 230.585 426.825 230.051 426.374 229.547C425.93 229.05 425.432 228.688 424.881 228.457C424.329 228.226 423.784 228.149 423.245 228.22C422.705 228.291 422.219 228.516 421.793 228.901L421.787 228.907L421.36 228.433L423.067 226.904L423.215 227.07C423.648 226.957 424.128 226.945 424.644 227.028C425.159 227.111 425.681 227.301 426.208 227.597C426.736 227.888 427.228 228.297 427.696 228.813C428.354 229.542 428.793 230.324 429.012 231.154C429.237 231.984 429.243 232.79 429.042 233.572C428.834 234.355 428.413 235.03 427.779 235.599L427.767 235.611C427.109 236.204 426.363 236.554 425.533 236.66C424.703 236.767 423.867 236.648 423.025 236.305C422.184 235.961 421.413 235.398 420.708 234.615C420.234 234.07 419.854 233.471 419.57 232.802Z" fill="#C4D9DC"/>
<path d="M459.596 272.473L459.631 272.455L456.028 264.993L457.379 264.341L461.813 273.51L460.402 274.192L446.662 273.226L445.785 271.412L459.596 272.473Z" fill="#C4D9DC"/>
<path d="M464.04 322.168C464.194 321.279 464.514 320.544 464.989 319.957C465.463 319.37 466.073 319.002 466.814 318.848L466.832 318.842C467.377 318.73 467.911 318.765 468.432 318.943C468.954 319.121 469.428 319.417 469.855 319.838C470.282 320.259 470.626 320.775 470.886 321.391L470.922 321.385C470.981 320.514 471.218 319.785 471.639 319.192C472.06 318.599 472.617 318.232 473.317 318.09L473.334 318.084C473.998 317.947 474.638 318.036 475.249 318.356C475.859 318.676 476.393 319.174 476.843 319.862C477.294 320.549 477.62 321.361 477.815 322.31C478.011 323.264 478.029 324.141 477.881 324.947C477.732 325.754 477.436 326.417 476.997 326.951C476.559 327.484 476.007 327.816 475.344 327.953L475.326 327.959C474.626 328.101 473.969 327.982 473.352 327.603C472.736 327.224 472.226 326.643 471.829 325.86L471.793 325.866C471.799 326.542 471.686 327.152 471.455 327.704C471.224 328.255 470.91 328.711 470.495 329.079C470.086 329.446 469.606 329.683 469.067 329.796L469.049 329.802C468.308 329.95 467.603 329.855 466.939 329.506C466.269 329.156 465.694 328.599 465.196 327.84C464.704 327.081 464.349 326.169 464.129 325.102C463.916 324.035 463.886 323.057 464.04 322.168ZM466.263 326.589C466.583 327.081 466.957 327.443 467.389 327.668C467.822 327.899 468.278 327.965 468.752 327.87L468.77 327.864C469.256 327.763 469.653 327.526 469.962 327.147C470.27 326.767 470.483 326.287 470.584 325.706C470.691 325.125 470.673 324.485 470.531 323.792C470.388 323.092 470.157 322.5 469.831 322.008C469.505 321.516 469.126 321.154 468.693 320.929C468.261 320.704 467.798 320.638 467.318 320.733L467.3 320.739C466.82 320.84 466.429 321.077 466.121 321.456C465.813 321.836 465.611 322.322 465.504 322.897C465.404 323.478 465.421 324.112 465.564 324.799C465.712 325.505 465.943 326.097 466.263 326.589ZM472.593 325.042C472.872 325.463 473.204 325.771 473.589 325.961C473.974 326.151 474.377 326.204 474.804 326.115L474.822 326.109C475.249 326.02 475.604 325.813 475.883 325.493C476.162 325.167 476.345 324.758 476.44 324.26C476.535 323.762 476.517 323.211 476.393 322.606C476.268 322.002 476.067 321.486 475.788 321.065C475.51 320.644 475.178 320.336 474.792 320.146C474.407 319.957 474.004 319.903 473.577 319.992L473.56 319.998C473.133 320.087 472.777 320.289 472.499 320.615C472.22 320.941 472.036 321.35 471.941 321.848C471.847 322.345 471.864 322.897 471.989 323.501C472.113 324.106 472.315 324.622 472.593 325.042Z" fill="#C4D9DC"/>
<path d="M312.045 319.981C313.616 319.454 315.134 319.217 316.598 319.258C318.068 319.305 319.431 319.643 320.687 320.272C321.944 320.9 323.07 321.807 324.054 322.986C325.044 324.172 325.832 325.648 326.425 327.42C327.012 329.168 327.273 330.822 327.202 332.369C327.13 333.916 326.787 335.321 326.158 336.572C325.53 337.822 324.647 338.907 323.503 339.832C322.365 340.756 321.008 341.479 319.437 342.007C317.866 342.535 316.349 342.778 314.885 342.73C313.421 342.683 312.057 342.351 310.801 341.734C309.544 341.118 308.424 340.211 307.434 339.02C306.444 337.828 305.656 336.352 305.069 334.604C304.47 332.832 304.21 331.178 304.287 329.637C304.358 328.102 304.707 326.697 305.33 325.44C305.952 324.184 306.835 323.087 307.979 322.162C309.117 321.232 310.475 320.509 312.045 319.981ZM312.923 322.607C311.548 323.069 310.392 323.704 309.449 324.504C308.507 325.31 307.79 326.211 307.298 327.218C306.806 328.226 306.533 329.305 306.468 330.455C306.409 331.605 306.575 332.772 306.972 333.958C307.369 335.137 307.938 336.175 308.685 337.052C309.426 337.935 310.297 338.628 311.299 339.132C312.3 339.636 313.415 339.921 314.648 339.98C315.88 340.039 317.184 339.838 318.554 339.375C319.929 338.913 321.085 338.285 322.033 337.496C322.975 336.708 323.699 335.807 324.185 334.799C324.677 333.792 324.949 332.713 325.014 331.563C325.074 330.413 324.908 329.246 324.511 328.06C324.113 326.881 323.544 325.843 322.798 324.966C322.057 324.083 321.185 323.389 320.184 322.886C319.182 322.382 318.068 322.091 316.829 322.02C315.602 321.949 314.298 322.145 312.923 322.607Z" fill="#C4D9DC"/>
<path d="M319.257 288.347C320.833 288.845 322.202 289.551 323.358 290.452C324.514 291.353 325.415 292.431 326.061 293.682C326.707 294.933 327.075 296.326 327.175 297.861C327.276 299.396 327.039 301.056 326.476 302.84C325.919 304.6 325.154 306.082 324.182 307.291C323.21 308.5 322.108 309.425 320.857 310.065C319.612 310.705 318.255 311.061 316.791 311.132C315.327 311.203 313.803 310.99 312.227 310.486C310.65 309.988 309.281 309.283 308.125 308.382C306.969 307.481 306.062 306.408 305.416 305.169C304.77 303.93 304.397 302.537 304.302 300.99C304.207 299.443 304.438 297.79 304.995 296.029C305.564 294.245 306.329 292.757 307.295 291.554C308.261 290.357 309.37 289.432 310.62 288.78C311.871 288.128 313.228 287.767 314.693 287.696C316.157 287.63 317.68 287.844 319.257 288.347ZM318.421 290.985C317.04 290.547 315.73 290.375 314.497 290.464C313.264 290.552 312.15 290.867 311.16 291.388C310.17 291.91 309.311 292.621 308.581 293.516C307.852 294.411 307.301 295.454 306.922 296.64C306.542 297.831 306.394 298.999 306.477 300.149C306.554 301.299 306.851 302.372 307.36 303.373C307.87 304.375 308.599 305.258 309.559 306.035C310.52 306.811 311.687 307.416 313.068 307.854C314.449 308.293 315.753 308.471 316.986 308.388C318.219 308.305 319.328 308.008 320.318 307.481C321.307 306.959 322.167 306.248 322.896 305.353C323.625 304.458 324.176 303.415 324.556 302.229C324.935 301.044 325.083 299.87 325 298.72C324.923 297.57 324.627 296.498 324.117 295.496C323.607 294.494 322.878 293.605 321.924 292.817C320.97 292.034 319.802 291.424 318.421 290.985Z" fill="#C4D9DC"/>
<path d="M343.649 267.021C344.627 268.354 345.321 269.73 345.718 271.14C346.121 272.551 346.21 273.956 345.996 275.349C345.777 276.742 345.255 278.087 344.432 279.385C343.602 280.683 342.44 281.886 340.929 282.995C339.441 284.085 337.947 284.832 336.447 285.241C334.948 285.644 333.508 285.739 332.126 285.52C330.745 285.301 329.441 284.791 328.214 283.979C326.987 283.173 325.885 282.1 324.907 280.766C323.929 279.433 323.236 278.057 322.838 276.647C322.435 275.236 322.34 273.837 322.548 272.456C322.755 271.075 323.277 269.73 324.113 268.42C324.949 267.116 326.11 265.912 327.598 264.822C329.109 263.713 330.603 262.966 332.091 262.563C333.579 262.166 335.019 262.071 336.412 262.285C337.805 262.498 339.115 263.002 340.342 263.814C341.563 264.614 342.671 265.681 343.649 267.021ZM341.415 268.657C340.561 267.489 339.607 266.576 338.552 265.924C337.497 265.272 336.424 264.863 335.309 264.703C334.201 264.543 333.087 264.608 331.972 264.899C330.858 265.189 329.797 265.705 328.789 266.446C327.782 267.181 326.976 268.04 326.359 269.018C325.743 269.996 325.346 271.034 325.168 272.142C324.99 273.25 325.055 274.394 325.375 275.586C325.695 276.777 326.282 277.957 327.136 279.124C327.995 280.292 328.943 281.205 329.981 281.869C331.024 282.527 332.097 282.942 333.205 283.102C334.314 283.262 335.428 283.196 336.542 282.906C337.657 282.615 338.718 282.1 339.725 281.359C340.733 280.624 341.539 279.764 342.155 278.786C342.772 277.808 343.169 276.771 343.347 275.663C343.525 274.554 343.459 273.404 343.157 272.207C342.855 271.01 342.268 269.824 341.415 268.657Z" fill="#C4D9DC"/>
<path d="M376.374 265.213C376.309 266.867 375.989 268.372 375.42 269.723C374.851 271.081 374.051 272.231 373.014 273.179C371.976 274.133 370.732 274.857 369.273 275.354C367.815 275.852 366.156 276.066 364.283 275.989C362.439 275.912 360.803 275.568 359.381 274.951C357.958 274.335 356.773 273.511 355.83 272.48C354.888 271.448 354.188 270.233 353.732 268.834C353.276 267.441 353.086 265.912 353.151 264.259C353.216 262.605 353.536 261.099 354.105 259.748C354.674 258.396 355.469 257.241 356.494 256.286C357.52 255.332 358.764 254.609 360.234 254.111C361.704 253.613 363.358 253.4 365.201 253.477C367.068 253.554 368.71 253.898 370.121 254.514C371.532 255.13 372.717 255.954 373.671 256.986C374.626 258.017 375.331 259.232 375.788 260.631C376.244 262.036 376.44 263.559 376.374 265.213ZM373.606 265.1C373.666 263.654 373.488 262.344 373.073 261.182C372.658 260.015 372.071 259.025 371.301 258.207C370.536 257.389 369.623 256.749 368.568 256.28C367.513 255.812 366.363 255.551 365.118 255.504C363.874 255.451 362.706 255.617 361.615 255.996C360.525 256.375 359.564 256.944 358.735 257.697C357.905 258.45 357.241 259.392 356.749 260.518C356.257 261.645 355.978 262.937 355.919 264.383C355.86 265.829 356.032 267.139 356.435 268.301C356.838 269.469 357.419 270.458 358.189 271.276C358.954 272.094 359.867 272.74 360.922 273.203C361.977 273.671 363.127 273.932 364.372 273.979C365.616 274.033 366.784 273.867 367.875 273.487C368.965 273.108 369.925 272.539 370.755 271.786C371.585 271.033 372.255 270.091 372.759 268.965C373.262 267.833 373.547 266.546 373.606 265.1Z" fill="#C4D9DC"/>
<path d="M402.807 285.058C401.681 286.273 400.466 287.216 399.156 287.879C397.846 288.543 396.489 288.899 395.084 288.952C393.679 289.006 392.257 288.751 390.822 288.188C389.388 287.625 387.989 286.706 386.614 285.437C385.256 284.187 384.237 282.859 383.555 281.472C382.874 280.079 382.506 278.686 382.459 277.287C382.411 275.888 382.666 274.513 383.223 273.156C383.78 271.799 384.622 270.512 385.748 269.297C386.875 268.082 388.09 267.14 389.4 266.476C390.709 265.812 392.061 265.45 393.46 265.391C394.859 265.332 396.275 265.587 397.721 266.156C399.162 266.725 400.561 267.638 401.918 268.894C403.293 270.163 404.313 271.49 404.988 272.877C405.664 274.258 406.032 275.657 406.091 277.062C406.15 278.467 405.901 279.854 405.338 281.211C404.769 282.551 403.933 283.843 402.807 285.058ZM400.774 283.179C401.758 282.118 402.469 281.004 402.908 279.848C403.346 278.692 403.542 277.554 403.489 276.434C403.435 275.313 403.157 274.235 402.659 273.197C402.161 272.16 401.45 271.218 400.537 270.37C399.618 269.523 398.622 268.888 397.55 268.473C396.477 268.058 395.374 267.869 394.254 267.904C393.134 267.94 392.019 268.224 390.911 268.764C389.803 269.303 388.753 270.103 387.775 271.164C386.792 272.231 386.074 273.334 385.624 274.484C385.173 275.634 384.978 276.766 385.031 277.886C385.084 279.006 385.357 280.085 385.861 281.122C386.359 282.16 387.07 283.108 387.983 283.95C388.896 284.797 389.892 285.425 390.97 285.846C392.043 286.261 393.146 286.451 394.266 286.415C395.386 286.38 396.506 286.095 397.621 285.568C398.741 285.034 399.79 284.24 400.774 283.179Z" fill="#C4D9DC"/>
<path d="M411.107 316.572C409.477 316.851 407.936 316.851 406.496 316.578C405.056 316.306 403.757 315.76 402.613 314.942C401.47 314.124 400.497 313.057 399.709 311.736C398.921 310.414 398.364 308.831 398.055 306.988C397.747 305.168 397.747 303.497 398.055 301.979C398.364 300.456 398.927 299.128 399.739 297.99C400.551 296.852 401.594 295.916 402.868 295.181C404.137 294.446 405.589 293.942 407.225 293.663C408.855 293.385 410.396 293.385 411.836 293.657C413.277 293.93 414.575 294.469 415.713 295.276C416.857 296.082 417.823 297.149 418.617 298.482C419.411 299.816 419.963 301.392 420.271 303.212C420.585 305.056 420.585 306.733 420.277 308.239C419.969 309.744 419.405 311.078 418.593 312.228C417.781 313.377 416.738 314.32 415.47 315.055C414.195 315.79 412.743 316.294 411.107 316.572ZM410.645 313.84C412.073 313.597 413.312 313.152 414.367 312.506C415.422 311.86 416.27 311.078 416.91 310.159C417.55 309.24 417.989 308.215 418.232 307.089C418.469 305.962 418.487 304.777 418.273 303.55C418.066 302.323 417.663 301.215 417.064 300.225C416.466 299.235 415.713 298.417 414.806 297.759C413.893 297.107 412.838 296.651 411.629 296.402C410.42 296.153 409.104 296.147 407.675 296.39C406.247 296.633 405.002 297.072 403.947 297.706C402.892 298.34 402.038 299.116 401.398 300.035C400.758 300.954 400.314 301.979 400.077 303.105C399.839 304.232 399.822 305.411 400.035 306.644C400.243 307.871 400.646 308.979 401.244 309.969C401.843 310.953 402.596 311.777 403.503 312.435C404.409 313.087 405.47 313.549 406.68 313.81C407.901 314.071 409.216 314.083 410.645 313.84Z" fill="#C4D9DC"/>
<path d="M496.707 360.446C497.81 359.344 499.333 358.662 501.016 358.662C504.383 358.662 507.109 361.389 507.109 364.755C507.109 368.122 504.383 370.849 501.016 370.849" stroke="#C4D9DC" stroke-width="0.7853" stroke-miterlimit="10"/>
<path d="M501.019 370.849C497.652 370.849 494.926 368.122 494.926 364.755C494.926 363.072 495.607 361.549 496.71 360.446" stroke="#C4D9DC" stroke-width="0.7853" stroke-miterlimit="10"/>
<path d="M502.072 370.553C500.97 371.661 499.405 372.005 497.751 372.349C491.96 373.54 490.473 369.622 490.473 366.255C490.473 362.367 494.93 360.263 497.71 359.694" stroke="#C4D9DC" stroke-width="0.7853" stroke-miterlimit="10"/>
<path d="M274.07 426.216C275.137 425.149 276.607 424.491 278.231 424.491C281.479 424.491 284.117 427.129 284.117 430.377C284.117 433.625 281.479 436.263 278.231 436.263" stroke="#C4D9DC" stroke-width="0.7853" stroke-miterlimit="10"/>
<path d="M278.233 436.262C274.985 436.262 272.348 433.624 272.348 430.376C272.348 428.752 273.006 427.282 274.072 426.215" stroke="#C4D9DC" stroke-width="0.7853" stroke-miterlimit="10"/>
<path d="M279.252 435.972C278.185 437.045 276.709 437.703 275.079 437.703C271.831 437.703 269.193 435.065 269.193 431.817C269.193 428.065 272.359 426.026 275.038 425.48" stroke="#C4D9DC" stroke-width="0.7853" stroke-miterlimit="10"/>
<path d="M302.575 553.154L164.777 547.559" stroke="#C4D9DC" stroke-width="0.7853" stroke-miterlimit="10"/>
<path d="M285.299 546.599L160.008 543.12" stroke="#C4D9DC" stroke-width="0.7853" stroke-miterlimit="10"/>
<path d="M272.012 539.901L149.447 535.751" stroke="#C4D9DC" stroke-width="0.7853" stroke-miterlimit="10"/>
<path d="M262.032 533.452L137.926 529.973" stroke="#C4D9DC" stroke-width="0.7853" stroke-miterlimit="10"/>
<path d="M117.686 157.033L222.818 134.065" stroke="#C4D9DC" stroke-width="0.7853" stroke-miterlimit="10"/>
<path d="M124.027 149.867L232.787 126.97" stroke="#C4D9DC" stroke-width="0.7853" stroke-miterlimit="10"/>
<path d="M135.904 140.899L245.316 117.167" stroke="#C4D9DC" stroke-width="0.7853" stroke-miterlimit="10"/>
<path d="M144.568 132.773L263.683 107.162" stroke="#C4D9DC" stroke-width="0.7853" stroke-miterlimit="10"/>
<path d="M398.207 560.51C280.135 575.554 170.83 482.294 154.067 350.743C137.305 219.193 219.434 100.351 337.505 85.3071" stroke="#C4D9DC" stroke-width="0.7853" stroke-miterlimit="10"/>
<path d="M542.42 300.089L516.512 307.96" stroke="#C4D9DC" stroke-width="0.7853" stroke-miterlimit="10"/>
<path d="M542.421 294.618L515.92 302.49" stroke="#C4D9DC" stroke-width="0.7853" stroke-miterlimit="10"/>
<path d="M541.821 289.142L515.32 297.6" stroke="#C4D9DC" stroke-width="0.7853" stroke-miterlimit="10"/>
<path d="M540.64 283.671L514.139 292.135" stroke="#C4D9DC" stroke-width="0.7853" stroke-miterlimit="10"/>
<path d="M538.66 279.64L512.752 287.505" stroke="#C4D9DC" stroke-width="0.7853" stroke-miterlimit="10"/>
<path d="M538.661 274.168L512.16 282.034" stroke="#C4D9DC" stroke-width="0.7853" stroke-miterlimit="10"/>
<path d="M536.888 263.222L509.201 271.68" stroke="#C4D9DC" stroke-width="0.7853" stroke-miterlimit="10"/>
</svg>
