<svg width="70" height="12" viewBox="0 0 70 12" fill="none" xmlns="http://www.w3.org/2000/svg">
<path d="M5.73467 0.502902C5.84723 0.289558 6.15277 0.289558 6.26533 0.502902L7.76506 3.3454C7.80846 3.42767 7.88758 3.48516 7.97924 3.50102L11.1461 4.04895C11.3837 4.09008 11.4782 4.38067 11.31 4.55365L9.07011 6.85835C9.00527 6.92506 8.97505 7.01807 8.98829 7.11014L9.44577 10.2913C9.48011 10.53 9.23292 10.7096 9.01645 10.6032L6.13237 9.18509C6.0489 9.14404 5.9511 9.14404 5.86763 9.18509L2.98355 10.6032C2.76708 10.7096 2.51989 10.53 2.55423 10.2913L3.01171 7.11014C3.02495 7.01807 2.99473 6.92506 2.92989 6.85835L0.689956 4.55365C0.521838 4.38067 0.616256 4.09008 0.853942 4.04896L4.02076 3.50102C4.11242 3.48516 4.19154 3.42767 4.23494 3.3454L5.73467 0.502902Z" fill="#EF4335"/>
<path d="M34.5345 0.502902C34.647 0.289558 34.9526 0.289558 35.0651 0.502902L36.5649 3.3454C36.6083 3.42767 36.6874 3.48516 36.779 3.50102L39.9459 4.04895C40.1835 4.09008 40.278 4.38067 40.1098 4.55365L37.8699 6.85835C37.8051 6.92506 37.7749 7.01807 37.7881 7.11014L38.2456 10.2913C38.2799 10.53 38.0327 10.7096 37.8163 10.6032L34.9322 9.18509C34.8487 9.14404 34.7509 9.14404 34.6674 9.18509L31.7834 10.6032C31.5669 10.7096 31.3197 10.53 31.354 10.2913L31.8115 7.11014C31.8248 7.01807 31.7945 6.92506 31.7297 6.85835L29.4898 4.55365C29.3216 4.38067 29.4161 4.09008 29.6537 4.04896L32.8206 3.50102C32.9122 3.48516 32.9913 3.42767 33.0347 3.3454L34.5345 0.502902Z" fill="#EF4335"/>
<path d="M20.1351 0.502902C20.2476 0.289558 20.5532 0.289558 20.6657 0.502902L22.1654 3.3454C22.2089 3.42767 22.288 3.48516 22.3796 3.50102L25.5464 4.04895C25.7841 4.09008 25.8786 4.38067 25.7104 4.55365L23.4705 6.85835C23.4057 6.92506 23.3754 7.01807 23.3887 7.11014L23.8462 10.2913C23.8805 10.53 23.6333 10.7096 23.4168 10.6032L20.5328 9.18509C20.4493 9.14404 20.3515 9.14404 20.268 9.18509L17.3839 10.6032C17.1675 10.7096 16.9203 10.53 16.9546 10.2913L17.4121 7.11014C17.4253 7.01807 17.3951 6.92506 17.3303 6.85835L15.0903 4.55365C14.9222 4.38067 15.0166 4.09008 15.2543 4.04896L18.4211 3.50102C18.5128 3.48516 18.5919 3.42767 18.6353 3.3454L20.1351 0.502902Z" fill="#EF4335"/>
<path d="M48.9349 0.502902C49.0474 0.289558 49.353 0.289558 49.4655 0.502902L50.9653 3.3454C51.0087 3.42767 51.0878 3.48516 51.1794 3.50102L54.3463 4.04895C54.5839 4.09008 54.6784 4.38067 54.5102 4.55365L52.2703 6.85835C52.2055 6.92506 52.1752 7.01807 52.1885 7.11014L52.646 10.2913C52.6803 10.53 52.4331 10.7096 52.2166 10.6032L49.3326 9.18509C49.2491 9.14404 49.1513 9.14404 49.0678 9.18509L46.1837 10.6032C45.9673 10.7096 45.7201 10.53 45.7544 10.2913L46.2119 7.11014C46.2251 7.01807 46.1949 6.92506 46.1301 6.85835L43.8902 4.55365C43.722 4.38067 43.8165 4.09008 44.0541 4.04896L47.221 3.50102C47.3126 3.48516 47.3917 3.42767 47.4351 3.3454L48.9349 0.502902Z" fill="#EF4335"/>
<path d="M63.3343 0.502902C63.4468 0.289558 63.7524 0.289558 63.8649 0.502902L65.3647 3.3454C65.4081 3.42767 65.4872 3.48516 65.5789 3.50102L68.7457 4.04895C68.9834 4.09008 69.0778 4.38067 68.9097 4.55365L66.6697 6.85835C66.6049 6.92506 66.5747 7.01807 66.5879 7.11014L67.0454 10.2913C67.0797 10.53 66.8325 10.7096 66.6161 10.6032L63.732 9.18509C63.6485 9.14404 63.5507 9.14404 63.4672 9.18509L60.5832 10.6032C60.3667 10.7096 60.1195 10.53 60.1538 10.2913L60.6113 7.11014C60.6246 7.01807 60.5943 6.92506 60.5295 6.85835L58.2896 4.55365C58.1214 4.38067 58.2159 4.09008 58.4536 4.04896L61.6204 3.50102C61.712 3.48516 61.7911 3.42767 61.8346 3.3454L63.3343 0.502902Z" fill="#434343"/>
<mask id="mask0_7636_5113" style="mask-type:alpha" maskUnits="userSpaceOnUse" x="58" y="0" width="11" height="11">
<path d="M63.3343 0.502902C63.4468 0.289558 63.7524 0.289558 63.8649 0.502902L65.3647 3.3454C65.4081 3.42767 65.4872 3.48516 65.5789 3.50102L68.7457 4.04895C68.9834 4.09008 69.0778 4.38067 68.9097 4.55365L66.6697 6.85835C66.6049 6.92506 66.5747 7.01807 66.5879 7.11014L67.0454 10.2913C67.0797 10.53 66.8325 10.7096 66.6161 10.6032L63.732 9.18509C63.6485 9.14404 63.5507 9.14404 63.4672 9.18509L60.5832 10.6032C60.3667 10.7096 60.1195 10.53 60.1538 10.2913L60.6113 7.11014C60.6246 7.01807 60.5943 6.92506 60.5295 6.85835L58.2896 4.55365C58.1214 4.38067 58.2159 4.09008 58.4536 4.04896L61.6204 3.50102C61.712 3.48516 61.7911 3.42767 61.8346 3.3454L63.3343 0.502902Z" fill="#EF4335"/>
</mask>
<g mask="url(#mask0_7636_5113)">
<path d="M67 15.5V-2.5H58L56.5 1.5L58.5 15.5H67Z" fill="#EF4335"/>
</g>
</svg>
