<svg width="664" height="664" viewBox="0 0 664 664" fill="none" xmlns="http://www.w3.org/2000/svg">
<path d="M632.165 513.189C632.091 513.226 632.017 513.253 631.943 513.281C631.795 513.346 631.639 513.41 631.482 513.466C631.426 513.484 631.362 513.502 631.306 513.521C630.946 513.641 630.586 513.752 630.208 513.826C630.18 513.835 630.152 513.835 630.115 513.844C629.848 513.89 629.58 513.936 629.312 513.964C629.22 513.973 629.128 513.983 629.026 513.992C628.842 514.001 628.666 514.01 628.482 514.019C628.38 514.019 628.279 514.029 628.168 514.029C628.02 514.029 627.872 514.019 627.725 514.01C627.605 514.001 627.485 514.001 627.365 513.992C627.245 513.983 627.115 513.964 626.995 513.955C626.857 513.936 626.719 513.927 626.58 513.909C626.469 513.89 626.349 513.872 626.229 513.853C626.082 513.826 625.934 513.798 625.786 513.77C625.685 513.752 625.583 513.724 625.482 513.706C625.325 513.669 625.168 513.632 625.002 513.586C624.9 513.558 624.799 513.53 624.697 513.502C624.522 513.456 624.346 513.401 624.171 513.336C624.088 513.309 624.005 513.281 623.922 513.253C623.672 513.17 623.423 513.078 623.165 512.976C623.155 512.976 623.146 512.967 623.128 512.967C622.869 512.865 622.602 512.745 622.334 512.625C622.251 512.588 622.168 512.552 622.085 512.505C621.891 512.413 621.706 512.321 621.512 512.228C621.42 512.182 621.328 512.136 621.235 512.081C620.986 511.951 620.728 511.813 620.479 511.665L224.052 282.735C223.47 282.393 222.889 282.024 222.316 281.636C222.28 281.608 222.252 281.59 222.215 281.562C221.689 281.193 221.163 280.796 220.646 280.38C220.59 280.334 220.526 280.288 220.47 280.233C219.972 279.827 219.483 279.393 219.003 278.949C218.947 278.894 218.883 278.839 218.827 278.783C218.338 278.322 217.858 277.842 217.387 277.343C217.35 277.306 217.313 277.269 217.276 277.223C216.778 276.688 216.289 276.134 215.809 275.561C215.8 275.552 215.79 275.534 215.781 275.524C215.301 274.943 214.83 274.352 214.378 273.733C214.36 273.706 214.341 273.678 214.323 273.65C213.926 273.115 213.547 272.552 213.169 271.998C212.92 271.628 212.698 271.25 212.458 270.871C212.264 270.557 212.07 270.253 211.886 269.93C211.803 269.782 211.72 269.634 211.636 269.486C211.332 268.951 211.036 268.406 210.76 267.862C210.732 267.806 210.695 267.742 210.667 267.686C210.335 267.022 210.012 266.348 209.716 265.674C209.707 265.646 209.689 265.609 209.68 265.581C209.393 264.917 209.126 264.252 208.876 263.578C208.858 263.532 208.84 263.486 208.821 263.439C208.572 262.756 208.341 262.064 208.129 261.371C208.12 261.334 208.11 261.298 208.092 261.261C207.889 260.596 207.713 259.931 207.556 259.266C207.538 259.202 207.529 259.146 207.51 259.082C207.353 258.399 207.215 257.715 207.113 257.042C207.113 257.032 207.113 257.014 207.104 257.005C206.993 256.321 206.91 255.638 206.855 254.964C206.855 254.909 206.846 254.853 206.846 254.798C206.79 254.124 206.763 253.459 206.763 252.795L207.316 56.9246C207.316 56.2691 207.353 55.6321 207.409 55.0228C207.418 54.9674 207.418 54.912 207.427 54.8566C207.483 54.2934 207.566 53.7579 207.667 53.2409C207.676 53.1671 207.695 53.1025 207.704 53.0378C207.806 52.5393 207.935 52.0592 208.073 51.5976C208.101 51.5145 208.129 51.4222 208.156 51.3391C208.304 50.9052 208.461 50.4898 208.646 50.0928C208.664 50.0558 208.683 50.0097 208.701 49.9728C208.913 49.5296 209.144 49.1049 209.393 48.7079C209.43 48.6526 209.476 48.5972 209.513 48.5418C209.726 48.2279 209.947 47.9417 210.178 47.6647C210.261 47.5632 210.353 47.4708 210.446 47.3693C210.658 47.1477 210.87 46.9354 211.101 46.7415C211.193 46.6584 211.286 46.5753 211.378 46.5014C211.701 46.2429 212.033 46.0029 212.384 45.7998L30.2325 151.711C29.8817 151.915 29.5494 152.155 29.2263 152.413C29.134 152.487 29.0417 152.57 28.9401 152.653C28.7186 152.847 28.4971 153.059 28.294 153.281C28.2017 153.373 28.1094 153.475 28.0263 153.576C27.7955 153.853 27.574 154.14 27.3617 154.453C27.3247 154.509 27.2786 154.555 27.2417 154.61C27.2324 154.62 27.2232 154.638 27.214 154.647C26.974 155.017 26.7617 155.414 26.5586 155.838C26.5494 155.847 26.5494 155.866 26.5401 155.875C26.5217 155.912 26.5032 155.958 26.4847 155.995C26.3647 156.263 26.2447 156.531 26.134 156.817C26.0878 156.955 26.0417 157.094 25.9955 157.242C25.9678 157.325 25.9401 157.408 25.9124 157.5C25.8847 157.583 25.857 157.657 25.8386 157.731C25.7555 158.017 25.6817 158.312 25.6078 158.617C25.5801 158.719 25.5617 158.829 25.5432 158.94C25.5247 159.005 25.5155 159.079 25.5063 159.143C25.4878 159.254 25.4601 159.356 25.4417 159.467C25.3955 159.734 25.3494 160.011 25.3217 160.288C25.3032 160.445 25.2847 160.602 25.2755 160.759C25.2663 160.814 25.2663 160.87 25.257 160.925C25.2478 160.99 25.2386 161.054 25.2386 161.128C25.2201 161.396 25.2017 161.664 25.1924 161.941C25.1832 162.218 25.174 162.495 25.174 162.772C25.174 162.79 25.174 162.809 25.174 162.818L24.6201 358.688C24.6201 358.946 24.6201 359.205 24.6293 359.463C24.6386 359.74 24.6478 360.017 24.6663 360.294C24.6755 360.424 24.6847 360.553 24.694 360.682C24.694 360.737 24.7032 360.793 24.7032 360.848C24.7124 360.941 24.7124 361.042 24.7217 361.134C24.7493 361.411 24.777 361.698 24.814 361.984C24.8509 362.27 24.8878 362.565 24.934 362.852C24.934 362.861 24.934 362.87 24.9432 362.879C24.9432 362.889 24.9432 362.907 24.9524 362.916C24.9986 363.184 25.0447 363.452 25.0909 363.719C25.1463 364.024 25.2109 364.32 25.2755 364.624C25.3032 364.735 25.3309 364.846 25.3494 364.957C25.3678 365.021 25.377 365.077 25.3955 365.141C25.4232 365.27 25.4509 365.4 25.4878 365.529C25.5617 365.834 25.6447 366.138 25.7278 366.452C25.7924 366.683 25.857 366.905 25.9309 367.135C25.9401 367.172 25.9494 367.218 25.9678 367.255C25.977 367.292 25.9863 367.329 26.0047 367.366C26.097 367.662 26.1894 367.966 26.2909 368.262C26.3924 368.557 26.494 368.853 26.5955 369.148C26.614 369.203 26.6417 369.259 26.6601 369.323C26.6786 369.37 26.697 369.416 26.7063 369.453C26.7709 369.637 26.8355 369.813 26.9094 369.997C27.0201 370.284 27.1309 370.56 27.2509 370.837C27.334 371.041 27.4263 371.253 27.5186 371.456C27.5371 371.484 27.5463 371.521 27.5555 371.548C27.574 371.585 27.5924 371.622 27.6017 371.659C27.7217 371.936 27.8509 372.222 27.9801 372.499C28.1278 372.804 28.2755 373.109 28.4232 373.413C28.4509 373.459 28.4694 373.506 28.4971 373.552C28.5248 373.607 28.5617 373.672 28.5894 373.727C28.7094 373.967 28.8386 374.207 28.9586 374.447C29.1155 374.752 29.2909 375.047 29.4571 375.343C29.5401 375.49 29.6232 375.638 29.7063 375.786C29.7432 375.851 29.7709 375.906 29.8078 375.971C29.9555 376.229 30.1217 376.469 30.2786 376.718C30.5094 377.097 30.7401 377.475 30.9894 377.854C31.0263 377.919 31.0632 377.983 31.1094 378.039C31.4417 378.537 31.7832 379.017 32.134 379.497C32.1525 379.525 32.1802 379.562 32.1986 379.59C32.1986 379.59 32.1986 379.599 32.2078 379.599C32.4571 379.94 32.7155 380.273 32.974 380.605C33.1771 380.873 33.3894 381.131 33.6017 381.381C33.6109 381.39 33.6202 381.399 33.6202 381.408C33.6294 381.418 33.6294 381.418 33.6386 381.427C33.8602 381.694 34.0817 381.953 34.3032 382.212C34.5248 382.461 34.7463 382.71 34.9771 382.959C35.014 382.996 35.0509 383.033 35.0879 383.07C35.1248 383.107 35.1617 383.153 35.1986 383.19C35.3648 383.366 35.5217 383.532 35.6879 383.698C35.9279 383.947 36.1679 384.187 36.4171 384.418C36.4909 384.492 36.5648 384.556 36.6386 384.621C36.694 384.677 36.7494 384.732 36.814 384.778C36.934 384.889 37.054 385.009 37.1833 385.12C37.4417 385.35 37.691 385.572 37.9494 385.794C38.0602 385.886 38.171 385.978 38.2817 386.061C38.3371 386.108 38.4017 386.154 38.4571 386.209C38.5402 386.283 38.6325 386.348 38.7156 386.421C38.9648 386.615 39.2233 386.809 39.4725 387.003C39.6571 387.142 39.8417 387.262 40.0171 387.391C40.054 387.418 40.0817 387.437 40.1187 387.465C40.1556 387.483 40.1833 387.511 40.2202 387.538C40.4602 387.705 40.7094 387.871 40.9494 388.019C41.1894 388.176 41.4387 388.323 41.6787 388.462C41.734 388.499 41.7894 388.526 41.8448 388.563L438.271 617.475C438.456 617.577 438.641 617.688 438.816 617.78C438.89 617.817 438.955 617.854 439.028 617.891C439.121 617.937 439.213 617.992 439.305 618.039C439.379 618.076 439.453 618.112 439.527 618.149C439.647 618.205 439.767 618.26 439.878 618.315C439.961 618.352 440.044 618.389 440.118 618.426C440.155 618.445 440.182 618.463 440.219 618.472C440.45 618.574 440.681 618.676 440.911 618.768C440.921 618.768 440.93 618.777 440.939 618.777C441.161 618.869 441.382 618.953 441.604 619.026C441.631 619.036 441.668 619.045 441.696 619.054C441.779 619.082 441.862 619.109 441.945 619.137C442.056 619.174 442.176 619.22 442.296 619.248C442.361 619.266 442.416 619.276 442.471 619.294C442.573 619.322 442.675 619.349 442.776 619.377C442.85 619.396 442.933 619.423 443.007 619.442C443.09 619.46 443.173 619.479 443.256 619.497C443.358 619.525 443.459 619.543 443.561 619.562C443.616 619.571 443.662 619.59 443.718 619.599C443.819 619.617 443.911 619.626 444.004 619.645C444.124 619.663 444.235 619.682 444.355 619.7C444.391 619.71 444.438 619.719 444.475 619.719C444.576 619.728 444.668 619.737 444.77 619.746C444.89 619.756 445.019 619.774 445.139 619.783C445.176 619.783 445.213 619.793 445.241 619.793C445.324 619.802 445.407 619.793 445.49 619.802C445.638 619.811 445.785 619.811 445.933 619.82C445.97 619.82 446.016 619.82 446.053 619.82C446.118 619.82 446.182 619.811 446.247 619.811C446.431 619.811 446.616 619.802 446.791 619.783C446.847 619.783 446.902 619.783 446.958 619.774C446.995 619.774 447.041 619.765 447.078 619.756C447.355 619.728 447.622 619.691 447.881 619.636C447.908 619.626 447.936 619.626 447.955 619.626C447.964 619.626 447.964 619.626 447.973 619.626C448.351 619.553 448.721 619.442 449.071 619.322C449.099 619.313 449.136 619.303 449.173 619.294C449.201 619.285 449.228 619.276 449.247 619.266C449.404 619.211 449.551 619.146 449.708 619.082C449.782 619.045 449.856 619.017 449.93 618.989C450.151 618.888 450.364 618.777 450.576 618.648L632.737 512.773C632.599 512.967 632.377 513.078 632.165 513.189Z" fill="#050505" stroke="#E9EEF1" stroke-width="3" stroke-miterlimit="10"/>
<path d="M439.037 362.252L42.62 133.34C23.6692 122.4 8.20753 131.207 8.15215 152.986L7.58907 348.856C7.52445 370.635 22.8845 397.242 41.8354 408.182L438.262 637.094C457.213 648.034 472.674 639.217 472.73 617.448L473.284 421.578C473.348 399.808 457.988 373.192 439.037 362.252ZM25.1738 162.818C25.2015 151.832 33.0015 147.382 42.5646 152.903L438.991 381.815C448.554 387.336 456.299 400.759 456.271 411.746L455.717 607.616C455.69 618.602 447.89 623.043 438.327 617.522L41.8908 388.619C32.3277 383.098 24.583 369.674 24.6107 358.688L25.1738 162.818Z" fill="#050505" stroke="#E9EEF1" stroke-width="3" stroke-miterlimit="10"/>
<path d="M655.426 314.161C655.426 314.06 655.417 313.967 655.408 313.866C655.399 313.653 655.389 313.45 655.38 313.238C655.371 312.998 655.362 312.749 655.343 312.509C655.334 312.315 655.315 312.121 655.297 311.936C655.279 311.715 655.26 311.493 655.242 311.271C655.232 311.133 655.223 310.985 655.205 310.847C655.177 310.524 655.131 310.201 655.094 309.877C655.076 309.702 655.057 309.517 655.039 309.342C655.029 309.287 655.029 309.222 655.02 309.167C654.946 308.594 654.863 308.022 654.771 307.44C654.771 307.422 654.762 307.403 654.762 307.394C654.743 307.302 654.725 307.2 654.715 307.099C654.642 306.637 654.559 306.175 654.475 305.704C654.457 305.612 654.439 305.52 654.42 305.428C654.374 305.197 654.328 304.966 654.282 304.735C654.226 304.458 654.171 304.19 654.115 303.913C654.079 303.757 654.042 303.59 654.005 303.433C653.949 303.184 653.885 302.935 653.829 302.676C653.783 302.492 653.746 302.298 653.7 302.113C653.645 301.873 653.571 301.633 653.515 301.402C653.451 301.153 653.386 300.904 653.322 300.654C653.285 300.534 653.257 300.414 653.229 300.294C653.137 299.953 653.035 299.611 652.934 299.27C652.869 299.057 652.814 298.854 652.749 298.642C652.731 298.586 652.722 298.531 652.703 298.476C652.518 297.885 652.334 297.294 652.131 296.694C652.131 296.685 652.122 296.675 652.122 296.657C652.094 296.583 652.066 296.5 652.039 296.426C651.872 295.928 651.697 295.429 651.522 294.94C651.494 294.857 651.457 294.764 651.429 294.681C651.355 294.478 651.282 294.275 651.198 294.072C651.097 293.795 650.995 293.527 650.894 293.25C650.82 293.066 650.746 292.881 650.672 292.706C650.589 292.484 650.497 292.262 650.405 292.05C650.34 291.893 650.285 291.745 650.22 291.588C650.091 291.265 649.943 290.942 649.805 290.628C649.731 290.462 649.657 290.287 649.583 290.121C649.555 290.065 649.537 290.01 649.509 289.945C649.26 289.391 649.011 288.837 648.752 288.283C648.743 288.256 648.725 288.237 648.715 288.209C648.642 288.043 648.558 287.886 648.475 287.72C648.272 287.305 648.078 286.88 647.866 286.465C647.829 286.4 647.792 286.335 647.765 286.262C647.589 285.911 647.405 285.569 647.229 285.218C647.091 284.941 646.952 284.664 646.805 284.397C646.777 284.35 646.749 284.295 646.722 284.249C646.242 283.353 645.743 282.476 645.235 281.599C645.189 281.525 645.152 281.452 645.106 281.378C644.977 281.156 644.839 280.944 644.709 280.731C644.488 280.362 644.266 280.002 644.045 279.642C643.851 279.328 643.657 279.023 643.454 278.71C643.223 278.35 642.992 277.999 642.762 277.639C642.688 277.519 642.605 277.399 642.531 277.279C642.457 277.168 642.383 277.066 642.309 276.965C641.672 276.032 641.035 275.1 640.362 274.195L640.352 274.186C640.297 274.103 640.232 274.029 640.168 273.946C639.752 273.383 639.328 272.829 638.903 272.284C638.875 272.256 638.857 272.219 638.829 272.192C638.497 271.776 638.165 271.361 637.823 270.955C637.721 270.835 637.62 270.705 637.518 270.585C637.509 270.576 637.5 270.567 637.5 270.558C637.066 270.031 636.623 269.514 636.171 269.007C636.152 268.988 636.134 268.96 636.115 268.942C635.986 268.794 635.848 268.646 635.718 268.499C635.423 268.176 635.137 267.843 634.842 267.529C634.786 267.474 634.74 267.419 634.685 267.372C634.491 267.16 634.288 266.957 634.094 266.754C633.872 266.523 633.66 266.292 633.438 266.061C633.365 265.978 633.281 265.905 633.198 265.831C632.986 265.618 632.765 265.406 632.552 265.194C632.368 265.009 632.174 264.815 631.989 264.63C631.888 264.529 631.777 264.437 631.675 264.344C631.445 264.123 631.205 263.91 630.974 263.689C630.808 263.532 630.641 263.375 630.475 263.227C630.355 263.116 630.226 263.006 630.097 262.895C629.857 262.682 629.626 262.479 629.386 262.276C629.238 262.147 629.1 262.018 628.952 261.898C628.805 261.768 628.648 261.648 628.491 261.519C628.26 261.325 628.029 261.131 627.789 260.947C627.669 260.845 627.549 260.744 627.42 260.651C627.226 260.504 627.032 260.356 626.838 260.208C626.617 260.042 626.405 259.876 626.183 259.71C626.091 259.645 626.008 259.571 625.915 259.507C625.657 259.313 625.389 259.137 625.131 258.943C624.946 258.814 624.761 258.676 624.577 258.546C624.531 258.51 624.484 258.473 624.429 258.445C623.949 258.113 623.46 257.799 622.98 257.485C622.98 257.485 622.971 257.485 622.971 257.476C622.943 257.457 622.915 257.439 622.878 257.42C622.426 257.134 621.983 256.857 621.531 256.589C621.42 256.525 621.309 256.46 621.198 256.395L224.781 27.4648C224.421 27.2525 224.052 27.0494 223.692 26.8555C223.553 26.7816 223.415 26.717 223.276 26.6431C223.092 26.5416 222.907 26.4493 222.722 26.3569C222.575 26.2831 222.436 26.2 222.289 26.1354C222.058 26.0154 221.818 25.9138 221.587 25.803C221.421 25.7292 221.264 25.6461 221.098 25.5722C221.033 25.5445 220.969 25.5076 220.904 25.4799C220.442 25.2768 219.99 25.0829 219.538 24.8983C219.538 24.8983 219.538 24.8983 219.529 24.8983C219.51 24.889 219.492 24.8798 219.464 24.8706C219.021 24.6952 218.587 24.529 218.153 24.372C218.089 24.3536 218.033 24.3351 217.969 24.3074C217.802 24.252 217.636 24.1966 217.47 24.1412C217.239 24.0674 217.009 23.9843 216.787 23.9196C216.667 23.8827 216.547 23.855 216.427 23.8181C216.224 23.7627 216.021 23.7073 215.818 23.6519C215.67 23.615 215.513 23.5596 215.365 23.5227C215.199 23.4857 215.033 23.4488 214.867 23.4119C214.664 23.3657 214.461 23.3196 214.267 23.2734C214.165 23.2549 214.064 23.2272 213.962 23.2088C213.769 23.1718 213.584 23.1441 213.39 23.1164C213.159 23.0795 212.929 23.0334 212.698 23.0057C212.624 22.9964 212.541 22.978 212.458 22.9687C212.264 22.941 212.07 22.9318 211.876 22.9133C211.627 22.8856 211.378 22.8579 211.138 22.8395C211.073 22.8303 210.999 22.821 210.925 22.821C210.759 22.8118 210.593 22.8118 210.427 22.8026C210.132 22.7933 209.836 22.7749 209.55 22.7749C209.476 22.7749 209.393 22.7656 209.31 22.7656C209.181 22.7656 209.061 22.7841 208.932 22.7841C208.562 22.7933 208.202 22.8118 207.842 22.8395C207.741 22.8487 207.63 22.8487 207.519 22.8579C207.436 22.8672 207.362 22.8856 207.279 22.8949C206.735 22.9503 206.209 23.0241 205.682 23.1257C205.636 23.1349 205.581 23.1349 205.535 23.1441C205.516 23.1441 205.507 23.1534 205.488 23.1534C205.378 23.1811 205.258 23.2088 205.147 23.2365C204.824 23.3103 204.51 23.3842 204.196 23.4673C204.039 23.5134 203.882 23.5688 203.735 23.615C203.532 23.6796 203.328 23.735 203.125 23.8089C203.07 23.8273 203.024 23.855 202.978 23.8735C202.673 23.9843 202.368 24.1135 202.064 24.2428C201.916 24.3074 201.768 24.3628 201.621 24.4274C201.187 24.6305 200.753 24.8521 200.338 25.0921H200.328L18.1768 130.967C18.5921 130.727 19.026 130.505 19.4598 130.293C19.6075 130.228 19.7552 130.173 19.9029 130.108C20.1983 129.979 20.5029 129.85 20.8168 129.739C21.066 129.647 21.3152 129.564 21.5737 129.49C21.7306 129.444 21.8783 129.388 22.0352 129.342C22.3491 129.25 22.6629 129.176 22.986 129.111C23.0968 129.084 23.2076 129.056 23.3276 129.028C23.3922 129.019 23.4568 129.01 23.5214 129C24.0383 128.899 24.5737 128.825 25.1183 128.77C25.3029 128.751 25.4876 128.733 25.6814 128.723C26.0414 128.696 26.4014 128.677 26.7706 128.668C26.9737 128.668 27.1768 128.659 27.3799 128.659C27.666 128.659 27.9614 128.677 28.2568 128.687C28.4968 128.696 28.7276 128.705 28.9676 128.723C29.2076 128.742 29.4568 128.77 29.706 128.797C29.9737 128.825 30.2507 128.853 30.5184 128.899C30.7491 128.936 30.9799 128.973 31.2107 129.01C31.5061 129.056 31.8014 129.111 32.0968 129.176C32.2999 129.213 32.503 129.259 32.6968 129.314C33.0107 129.388 33.3338 129.462 33.6476 129.554C33.8507 129.61 34.0538 129.665 34.2568 129.721C34.5984 129.822 34.9492 129.933 35.2999 130.044C35.4661 130.099 35.6322 130.145 35.7984 130.21C36.2969 130.385 36.7953 130.561 37.303 130.764C37.3215 130.773 37.3399 130.782 37.3676 130.791C37.8846 131.004 38.4199 131.225 38.9461 131.465C39.103 131.539 39.2692 131.622 39.4353 131.696C39.8138 131.872 40.1923 132.056 40.5707 132.25C40.7553 132.342 40.94 132.444 41.1246 132.536C41.623 132.804 42.1215 133.072 42.6292 133.358L439.037 362.252C439.61 362.584 440.173 362.926 440.736 363.276C440.764 363.295 440.791 363.304 440.81 363.323C441.354 363.664 441.89 364.024 442.425 364.394C442.61 364.523 442.794 364.652 442.979 364.781C443.339 365.031 443.69 365.289 444.04 365.548C444.253 365.704 444.474 365.871 444.687 366.037C445.01 366.286 445.324 366.535 445.637 366.785C445.868 366.969 446.099 367.163 446.33 367.348C446.634 367.597 446.93 367.856 447.234 368.114C447.465 368.317 447.705 368.52 447.936 368.733C448.231 368.991 448.527 369.259 448.813 369.527C449.044 369.739 449.284 369.961 449.514 370.182C449.81 370.459 450.105 370.745 450.391 371.031C450.604 371.244 450.825 371.456 451.037 371.668C451.342 371.973 451.637 372.287 451.942 372.601C452.136 372.804 452.33 373.007 452.524 373.21C452.874 373.589 453.225 373.967 453.567 374.355C453.696 374.503 453.825 374.641 453.954 374.789C454.425 375.324 454.896 375.878 455.357 376.432C455.459 376.552 455.551 376.682 455.653 376.802C456.013 377.245 456.373 377.688 456.733 378.14C457.158 378.685 457.573 379.23 457.988 379.784C458.053 379.876 458.127 379.959 458.191 380.051C458.856 380.956 459.502 381.879 460.13 382.821C460.287 383.052 460.434 383.273 460.591 383.504C460.822 383.855 461.053 384.206 461.274 384.566C461.478 384.88 461.671 385.184 461.865 385.508C462.087 385.868 462.308 386.228 462.521 386.588C462.696 386.883 462.871 387.169 463.047 387.465C463.554 388.342 464.053 389.219 464.533 390.114C464.708 390.438 464.874 390.77 465.05 391.093C465.225 391.435 465.41 391.785 465.585 392.127C465.825 392.607 466.065 393.096 466.296 393.576C466.37 393.743 466.453 393.9 466.536 394.066C466.831 394.703 467.127 395.34 467.404 395.977C467.478 396.143 467.551 396.318 467.616 396.485C467.819 396.965 468.022 397.436 468.216 397.916C468.308 398.137 468.391 398.349 468.474 398.571C468.659 399.033 468.834 399.485 469.01 399.947C469.084 400.141 469.158 400.344 469.231 400.547C469.444 401.128 469.656 401.719 469.85 402.301C469.878 402.375 469.905 402.449 469.933 402.532C470.154 403.187 470.367 403.852 470.561 404.517C470.625 404.729 470.681 404.932 470.745 405.144C470.884 405.606 471.013 406.068 471.133 406.52C471.198 406.769 471.262 407.019 471.327 407.268C471.438 407.692 471.548 408.117 471.65 408.542C471.705 408.791 471.77 409.04 471.825 409.299C471.927 409.733 472.019 410.167 472.102 410.61C472.148 410.841 472.194 411.071 472.241 411.302C472.351 411.856 472.444 412.419 472.536 412.973C472.555 413.066 472.573 413.167 472.582 413.259C472.684 413.906 472.776 414.561 472.859 415.207C472.878 415.383 472.896 415.568 472.914 415.743C472.97 416.214 473.016 416.675 473.053 417.146C473.071 417.368 473.09 417.589 473.108 417.811C473.145 418.245 473.164 418.688 473.191 419.122C473.201 419.334 473.21 419.537 473.219 419.75C473.238 420.368 473.256 420.978 473.256 421.587L472.702 617.457C472.702 618.094 472.684 618.722 472.656 619.331C472.647 619.516 472.638 619.682 472.619 619.867C472.591 620.282 472.564 620.698 472.527 621.113C472.508 621.353 472.481 621.584 472.453 621.824C472.416 622.175 472.379 622.516 472.324 622.858C472.287 623.107 472.25 623.356 472.213 623.606C472.167 623.92 472.111 624.233 472.056 624.538C472.001 624.815 471.945 625.092 471.89 625.36C471.834 625.637 471.77 625.914 471.705 626.181C471.631 626.495 471.548 626.809 471.465 627.123C471.401 627.363 471.327 627.603 471.253 627.843C471.142 628.213 471.022 628.573 470.893 628.933C470.828 629.127 470.754 629.32 470.69 629.514C470.459 630.114 470.219 630.696 469.951 631.259C469.748 631.693 469.527 632.118 469.305 632.533C469.287 632.57 469.259 632.607 469.231 632.653C469.019 633.022 468.807 633.392 468.576 633.743C468.521 633.826 468.465 633.909 468.41 633.992C468.225 634.278 468.031 634.555 467.828 634.823C467.745 634.934 467.662 635.044 467.579 635.155C467.385 635.404 467.191 635.644 466.988 635.875C466.914 635.968 466.841 636.06 466.758 636.143C466.481 636.457 466.194 636.752 465.899 637.038C465.853 637.085 465.807 637.122 465.761 637.168C465.511 637.408 465.244 637.639 464.985 637.86C464.884 637.943 464.782 638.026 464.69 638.1C464.459 638.285 464.228 638.46 463.988 638.636C463.887 638.71 463.785 638.783 463.684 638.848C463.351 639.079 463.019 639.291 462.668 639.494C462.668 639.494 462.659 639.494 462.659 639.503L644.82 533.629L644.829 533.62C645.171 533.416 645.503 533.204 645.835 532.973C645.937 532.899 646.039 532.835 646.14 532.761C646.38 532.595 646.611 532.41 646.842 532.225C646.943 532.142 647.045 532.069 647.137 531.985C647.405 531.764 647.663 531.533 647.912 531.293C647.958 531.247 648.005 531.21 648.051 531.164C648.346 530.878 648.632 530.573 648.909 530.268C648.983 530.185 649.057 530.093 649.14 530C649.343 529.76 649.546 529.52 649.731 529.271C649.814 529.16 649.897 529.059 649.98 528.948C650.183 528.68 650.377 528.394 650.562 528.108C650.617 528.025 650.672 527.951 650.719 527.868C650.737 527.84 650.755 527.812 650.774 527.785C650.986 527.462 651.18 527.12 651.374 526.769C651.392 526.732 651.42 526.695 651.448 526.649C651.669 526.252 651.872 525.846 652.075 525.431C652.085 525.412 652.085 525.394 652.094 525.384C652.362 524.821 652.602 524.24 652.832 523.64C652.851 523.584 652.879 523.538 652.897 523.483C652.952 523.344 652.989 523.196 653.045 523.049C653.165 522.698 653.294 522.338 653.405 521.978C653.432 521.876 653.469 521.784 653.506 521.682C653.543 521.544 653.58 521.396 653.617 521.258C653.7 520.953 653.783 520.639 653.857 520.325C653.885 520.196 653.931 520.067 653.958 519.928C653.986 519.79 654.014 519.642 654.042 519.494C654.097 519.227 654.152 518.959 654.208 518.682C654.235 518.534 654.272 518.396 654.291 518.248C654.319 518.082 654.337 517.906 654.365 517.74C654.402 517.5 654.439 517.251 654.475 517.002C654.494 516.872 654.512 516.743 654.531 516.614C654.559 516.401 654.577 516.18 654.595 515.958C654.623 515.728 654.651 515.497 654.669 515.257C654.679 515.155 654.688 515.063 654.697 514.961C654.725 514.647 654.734 514.324 654.752 514.001C654.762 513.826 654.78 513.65 654.789 513.475C654.789 513.429 654.799 513.392 654.799 513.346C654.817 512.801 654.835 512.247 654.835 511.693C654.835 511.665 654.835 511.628 654.835 511.601L655.389 315.731C655.454 315.195 655.445 314.678 655.426 314.161Z" fill="#050505" stroke="#E9EEF1" stroke-width="3" stroke-miterlimit="10"/>
<path d="M438.982 381.814L43.6073 153.512L43.0811 340.233C43.0534 351.219 50.7981 364.643 60.3612 370.163L455.736 598.466L456.262 411.754C456.289 400.759 448.545 387.335 438.982 381.814Z" fill="#050505" stroke="#E9EEF1" stroke-width="3" stroke-miterlimit="10"/>
<path d="M247.424 331.804L68.8537 228.689L68.3368 231.182C62.5029 259.516 62.5952 288.754 68.5953 317.051L247.165 420.165L425.745 523.279L425.569 522.421C419.68 494.115 419.708 464.904 425.643 436.608L425.994 434.918L247.424 331.804Z" fill="#050505" stroke="#E9EEF1" stroke-width="3" stroke-miterlimit="10"/>
<path d="M293.024 383.061L302.615 419.473L295.868 415.577L294.16 408.163L284.966 402.855L283.221 408.274L276.474 404.378L286.277 379.165L293.024 383.061ZM286.526 397.823L292.674 401.378L289.664 388.24L289.591 388.194L286.526 397.823Z" fill="#E9EEF1"/>
<path d="M321.889 408.487L321.824 430.561L315.824 427.099L315.833 423.914L315.759 423.867C314.744 425.308 312.861 426.083 309.445 424.107C305.735 421.966 303.224 417.709 303.242 412.669L303.288 397.75L309.288 401.221L309.252 413.943C309.242 417.266 310.248 418.965 312.233 420.11C314.522 421.43 315.842 420.848 315.852 417.793L315.888 405.034L321.889 408.487Z" fill="#E9EEF1"/>
<path d="M337.342 417.414L343.342 420.885L343.286 440.799C343.268 448.083 339.612 448.49 333.806 445.129C327.723 441.621 324.926 436.368 324.252 432.444L330.252 435.915C330.621 437.337 331.554 438.87 333.658 440.088C336.354 441.648 337.258 440.531 337.268 436.866V435.574C336.437 436.266 334.748 437.014 331.932 435.389C327.021 432.555 323.883 426.249 323.901 419.87C323.92 413.49 327.077 410.822 331.997 413.656C334.812 415.281 336.492 417.977 337.249 419.584L337.342 417.414ZM333.548 431.115C335.985 432.527 337.194 431.105 337.203 427.532C337.212 423.95 336.012 421.144 333.575 419.74C331.138 418.328 329.929 419.75 329.92 423.332C329.92 426.895 331.111 429.702 333.548 431.115Z" fill="#E9EEF1"/>
<path d="M364.73 433.229L364.666 455.303L358.666 451.832L358.675 448.646L358.601 448.6C357.586 450.041 355.703 450.816 352.287 448.84C348.576 446.698 346.066 442.442 346.084 437.402L346.13 422.482L352.13 425.954L352.093 438.676C352.084 441.999 353.09 443.698 355.075 444.843C357.364 446.163 358.684 445.581 358.693 442.526L358.73 429.767L364.73 433.229Z" fill="#E9EEF1"/>
<path d="M375.271 438.62C381.418 442.175 383.809 447.142 383.994 451.13L378.363 447.88C378.187 446.006 377.357 444.584 375.409 443.449C373.72 442.479 372.861 442.664 372.861 443.744C372.861 445.305 374.052 446.034 377.015 448.48C380.8 451.619 384.547 455.248 384.529 460.251C384.52 464.914 381.437 465.68 376.111 462.596C369.243 458.636 366.63 453.577 366.455 448.988L372.077 452.238C372.261 454.546 373.526 456.355 375.889 457.722C377.578 458.7 378.52 458.599 378.52 457.343C378.529 455.441 376.729 454.149 373.692 451.619C370.434 448.924 366.834 445.452 366.843 440.845C366.861 436.839 369.87 435.5 375.271 438.62Z" fill="#E9EEF1"/>
<path d="M393.631 443.744L393.613 449.911L396.955 451.841L396.936 457.02L393.595 455.091L393.567 464.23C393.558 466.732 394.342 467.185 396.899 468.662L396.881 473.832C395.791 473.463 394.85 473.14 393.161 472.161C388.767 469.622 387.539 466.234 387.558 461.276L387.585 451.619L384.927 450.087L384.945 444.907L387.604 446.44L387.622 440.273L393.631 443.744Z" fill="#E9EEF1"/>
<path d="M159.038 327.972L162.86 330.179L162.841 336.078L159.02 333.871L159.001 340.168L152.623 336.484L152.641 330.188L140.899 323.402L140.918 316.201L152.706 306.683L159.084 310.366L159.038 327.972ZM152.659 324.288L152.687 314.668L145.607 320.208L152.659 324.288Z" fill="#E9EEF1"/>
<path d="M130.192 293.001C135.786 296.232 139.524 301.762 139.506 307.449C139.487 315.297 131.816 314.669 128.475 316.534V316.617L139.469 322.959L139.45 328.868L119.493 317.346C119.512 312.388 121.773 310.625 124.062 309.748C128.724 307.994 133.118 308.197 133.136 304.273C133.146 301.984 132.029 299.962 129.998 298.789C127.561 297.377 125.936 297.995 125.927 302.095L119.927 298.623C119.945 291.662 123.185 288.957 130.192 293.001Z" fill="#E9EEF1"/>
<path d="M172.616 319.746L172.598 325.913L175.939 327.843L175.921 333.022L172.579 331.093L172.552 340.233C172.542 342.734 173.336 343.187 175.884 344.664L175.865 349.843C174.776 349.474 173.835 349.151 172.145 348.172C167.752 345.633 166.524 342.254 166.542 337.297L166.57 327.64L163.902 326.098L163.921 320.919L166.589 322.461L166.607 316.293L172.616 319.746Z" fill="#E9EEF1"/>
<path d="M184.174 323.827L184.137 335.773L184.211 335.819C185.226 334.37 187.109 333.604 190.192 335.386C194.245 337.731 196.746 341.977 196.737 347.018L196.691 361.937L190.691 358.475L190.728 345.753C190.737 342.43 189.805 340.768 187.626 339.503C185.715 338.395 184.137 338.829 184.128 341.894L184.091 354.662L178.091 351.2L178.174 320.374L184.174 323.827Z" fill="#E9EEF1"/>
<path d="M439.037 362.252L621.207 256.377" stroke="#E9EEF1" stroke-miterlimit="10"/>
<path d="M473.284 421.578L655.454 315.703" stroke="#E9EEF1" stroke-miterlimit="10"/>
<path d="M472.73 617.447L654.901 511.573" stroke="#E9EEF1" stroke-miterlimit="10"/>
<path d="M24.6201 358.688L44.0418 347.397" stroke="#E9EEF1" stroke-miterlimit="10"/>
<path d="M41.8906 388.619L67.0261 374.004" stroke="#E9EEF1" stroke-miterlimit="10"/>
<path d="M473.303 523.224L655.464 417.349L655.436 428.262L473.275 534.136L473.303 523.224Z" stroke="#E9EEF1" stroke-miterlimit="10"/>
<path d="M247.424 331.804L246.769 334.989C241.018 363.101 241.156 392.108 247.165 420.165" stroke="#E9EEF1" stroke-width="3" stroke-miterlimit="10"/>
<path d="M425.994 434.918L425.745 523.28" stroke="#E9EEF1" stroke-width="3" stroke-miterlimit="10"/>
<path d="M376.592 164.018C376.582 164.193 376.573 164.36 376.564 164.535C376.555 164.683 376.546 164.83 376.536 164.978C376.527 165.154 376.509 165.32 376.49 165.495C376.472 165.643 376.462 165.791 376.444 165.938C376.426 166.114 376.398 166.289 376.37 166.465C376.352 166.612 376.333 166.751 376.306 166.898C376.278 167.074 376.241 167.249 376.213 167.434C376.186 167.572 376.158 167.72 376.13 167.859C376.093 168.034 376.056 168.209 376.01 168.385C375.973 168.523 375.946 168.671 375.909 168.809C375.862 168.985 375.816 169.16 375.77 169.336C375.733 169.474 375.696 169.613 375.659 169.751C375.604 169.936 375.549 170.12 375.493 170.305C375.456 170.434 375.41 170.564 375.373 170.702C375.309 170.896 375.235 171.09 375.17 171.284C375.124 171.404 375.087 171.524 375.041 171.644C374.921 171.958 374.792 172.281 374.662 172.595C374.653 172.613 374.644 172.641 374.635 172.659C374.515 172.955 374.386 173.241 374.247 173.536C374.201 173.647 374.146 173.749 374.09 173.85C373.989 174.053 373.887 174.266 373.786 174.469C373.721 174.598 373.647 174.718 373.582 174.847C373.481 175.032 373.389 175.217 373.278 175.401C373.213 175.521 373.149 175.632 373.075 175.743C372.955 175.955 372.826 176.168 372.706 176.371C372.632 176.5 372.549 176.62 372.466 176.749C372.346 176.943 372.216 177.146 372.087 177.34C372.004 177.469 371.912 177.599 371.829 177.728C371.699 177.922 371.561 178.116 371.422 178.309C371.33 178.439 371.247 178.559 371.155 178.688C371.007 178.891 370.85 179.094 370.693 179.297C370.61 179.408 370.527 179.519 370.435 179.63C370.158 179.98 369.881 180.322 369.586 180.664C369.53 180.728 369.465 180.793 369.41 180.857C369.17 181.134 368.921 181.421 368.662 181.698C368.57 181.799 368.469 181.91 368.367 182.012C368.118 182.27 367.869 182.529 367.619 182.787C367.536 182.87 367.453 182.953 367.37 183.036C367.038 183.369 366.687 183.701 366.336 184.033C366.207 184.153 366.069 184.283 365.93 184.403C365.764 184.55 365.598 184.707 365.422 184.855C365.275 184.984 365.127 185.104 364.989 185.234C364.813 185.381 364.647 185.529 364.472 185.677C364.324 185.806 364.167 185.926 364.01 186.055C363.835 186.203 363.659 186.341 363.475 186.489C363.318 186.618 363.152 186.738 362.985 186.868C362.801 187.006 362.616 187.145 362.432 187.292C362.265 187.412 362.099 187.542 361.924 187.662C361.739 187.8 361.545 187.939 361.352 188.077C361.176 188.197 361.001 188.317 360.825 188.446C360.632 188.585 360.438 188.714 360.235 188.853C360.059 188.973 359.875 189.093 359.69 189.213C359.487 189.342 359.284 189.48 359.072 189.61C358.887 189.73 358.693 189.85 358.509 189.96C358.296 190.09 358.093 190.219 357.881 190.348C357.549 190.551 357.207 190.754 356.865 190.957C356.127 191.382 355.379 191.798 354.613 192.204C354.41 192.305 354.216 192.416 354.013 192.518C353.321 192.878 352.628 193.219 351.918 193.561C351.835 193.607 351.742 193.644 351.659 193.69C350.875 194.06 350.072 194.42 349.268 194.761C349.065 194.853 348.853 194.937 348.641 195.029C347.948 195.324 347.247 195.601 346.536 195.878C346.388 195.934 346.25 195.989 346.102 196.044C345.272 196.358 344.432 196.663 343.582 196.958C343.379 197.032 343.167 197.097 342.955 197.171C342.392 197.365 341.819 197.54 341.247 197.725C340.693 197.9 340.148 198.066 339.585 198.232C339.115 198.371 338.644 198.509 338.173 198.639C337.61 198.796 337.047 198.943 336.475 199.091C336.004 199.211 335.524 199.331 335.044 199.451C334.471 199.59 333.89 199.719 333.308 199.848C332.828 199.959 332.348 200.06 331.868 200.162C331.278 200.282 330.687 200.402 330.087 200.513C329.551 200.614 329.025 200.716 328.49 200.808C328.25 200.854 328.001 200.891 327.761 200.928C326.939 201.067 326.108 201.196 325.278 201.316C325.148 201.334 325.028 201.353 324.899 201.371C323.958 201.501 323.016 201.621 322.074 201.731C321.834 201.759 321.594 201.787 321.354 201.815C320.773 201.879 320.191 201.935 319.61 201.981C318.881 202.045 318.142 202.11 317.413 202.165C316.951 202.202 316.49 202.23 316.038 202.258C315.271 202.304 314.505 202.341 313.739 202.378C313.305 202.396 312.881 202.415 312.447 202.433C311.782 202.452 311.108 202.461 310.444 202.47C309.982 202.479 309.521 202.489 309.059 202.489C308.339 202.489 307.619 202.479 306.908 202.47C306.493 202.461 306.087 202.461 305.671 202.452C305.007 202.433 304.351 202.405 303.687 202.378C303.244 202.359 302.801 202.35 302.357 202.322C301.628 202.285 300.899 202.23 300.17 202.175C299.801 202.147 299.422 202.128 299.053 202.101C298.065 202.018 297.077 201.925 296.09 201.815C295.979 201.805 295.877 201.796 295.767 201.787C294.677 201.667 293.588 201.528 292.508 201.371C292.277 201.334 292.047 201.298 291.807 201.261C290.939 201.131 290.071 201.002 289.213 200.854C288.816 200.79 288.428 200.707 288.04 200.633C287.348 200.504 286.647 200.374 285.964 200.236C285.585 200.162 285.216 200.07 284.847 199.996C284.09 199.83 283.333 199.663 282.576 199.488C282.151 199.386 281.727 199.276 281.311 199.174C280.619 198.999 279.936 198.814 279.253 198.629C278.671 198.473 278.099 198.306 277.527 198.14C277.305 198.076 277.083 198.011 276.862 197.937C275.985 197.669 275.117 197.392 274.259 197.097C274.102 197.042 273.945 196.986 273.797 196.931C273.077 196.681 272.367 196.423 271.665 196.164C271.425 196.072 271.185 195.989 270.954 195.897C270.4 195.684 269.847 195.454 269.302 195.232C268.923 195.075 268.545 194.927 268.176 194.761C267.64 194.53 267.123 194.29 266.597 194.06C266.256 193.903 265.905 193.746 265.563 193.589C264.991 193.321 264.428 193.035 263.874 192.749C263.597 192.61 263.311 192.472 263.034 192.324C262.203 191.89 261.391 191.447 260.588 190.985C247.185 183.249 240.493 173.066 240.52 162.901L240.446 189.111C240.419 199.276 247.111 209.459 260.514 217.195C261.317 217.657 262.13 218.1 262.96 218.534C263.237 218.682 263.523 218.811 263.8 218.959C264.363 219.245 264.917 219.522 265.49 219.799C265.831 219.965 266.182 220.113 266.523 220.27C267.05 220.51 267.567 220.75 268.102 220.981C268.471 221.138 268.85 221.294 269.228 221.451C269.588 221.599 269.939 221.756 270.299 221.895C270.493 221.968 270.687 222.042 270.88 222.116C271.12 222.208 271.36 222.301 271.591 222.384C272.293 222.652 273.003 222.91 273.723 223.15C273.88 223.206 274.028 223.261 274.185 223.316C275.043 223.612 275.911 223.889 276.788 224.156C277.01 224.221 277.231 224.286 277.453 224.36C277.813 224.47 278.173 224.581 278.542 224.683C278.754 224.747 278.967 224.793 279.179 224.849C279.862 225.043 280.545 225.218 281.237 225.394C281.662 225.504 282.077 225.606 282.502 225.707C283.25 225.892 284.007 226.058 284.773 226.224C285.059 226.289 285.345 226.363 285.64 226.418C285.724 226.437 285.807 226.446 285.89 226.464C286.582 226.603 287.274 226.732 287.967 226.861C288.354 226.935 288.751 227.009 289.139 227.083C289.997 227.231 290.865 227.36 291.742 227.489C291.964 227.526 292.176 227.563 292.397 227.591C292.407 227.591 292.425 227.591 292.434 227.6C293.514 227.757 294.604 227.886 295.693 228.016C295.804 228.025 295.905 228.034 296.016 228.043C297.004 228.154 297.982 228.246 298.979 228.329C298.997 228.329 299.016 228.329 299.034 228.339C299.385 228.366 299.745 228.385 300.105 228.412C300.834 228.468 301.564 228.523 302.293 228.56C302.736 228.588 303.179 228.597 303.622 228.616C304.287 228.643 304.942 228.68 305.607 228.689C305.662 228.689 305.708 228.699 305.764 228.699C306.124 228.708 306.484 228.708 306.844 228.708C307.564 228.717 308.284 228.736 308.994 228.726C309.456 228.726 309.917 228.717 310.379 228.708C311.044 228.699 311.718 228.689 312.382 228.671C312.502 228.671 312.631 228.671 312.751 228.662C313.056 228.653 313.361 228.625 313.674 228.616C314.441 228.579 315.207 228.551 315.973 228.496C316.434 228.468 316.896 228.431 317.348 228.403C318.087 228.348 318.816 228.292 319.545 228.219C319.804 228.191 320.062 228.182 320.321 228.154C320.644 228.126 320.967 228.08 321.29 228.052C321.53 228.025 321.77 227.997 322.01 227.969C322.951 227.859 323.902 227.748 324.834 227.609C324.964 227.591 325.084 227.572 325.213 227.554C326.044 227.434 326.875 227.305 327.696 227.166C327.936 227.129 328.185 227.083 328.425 227.046C328.628 227.009 328.831 226.982 329.025 226.945C329.358 226.88 329.69 226.815 330.022 226.751C330.613 226.64 331.213 226.52 331.804 226.4C332.284 226.298 332.764 226.188 333.244 226.086C333.825 225.957 334.407 225.827 334.979 225.689C335.459 225.569 335.93 225.449 336.41 225.329C336.982 225.181 337.545 225.034 338.108 224.877C338.579 224.747 339.05 224.609 339.521 224.47C340.075 224.304 340.628 224.138 341.182 223.963C341.432 223.889 341.681 223.815 341.921 223.741C342.244 223.639 342.567 223.519 342.89 223.409C343.102 223.335 343.305 223.27 343.518 223.196C344.367 222.901 345.207 222.596 346.038 222.282C346.185 222.227 346.324 222.172 346.472 222.116C347.182 221.839 347.884 221.562 348.576 221.267C348.788 221.184 348.992 221.091 349.204 220.999C350.007 220.648 350.81 220.297 351.595 219.928C351.678 219.891 351.77 219.845 351.853 219.799C352.564 219.457 353.256 219.116 353.949 218.756C354.152 218.654 354.355 218.543 354.548 218.442C355.305 218.036 356.062 217.629 356.801 217.195C357.078 217.029 357.355 216.872 357.622 216.706C357.687 216.669 357.752 216.632 357.816 216.586C358.029 216.457 358.232 216.328 358.444 216.198C358.638 216.078 358.822 215.958 359.007 215.847C359.21 215.718 359.413 215.58 359.625 215.451C359.81 215.33 359.985 215.21 360.17 215.09C360.373 214.952 360.567 214.823 360.761 214.684C360.936 214.564 361.112 214.444 361.287 214.315C361.481 214.176 361.665 214.038 361.859 213.899C362.025 213.779 362.201 213.65 362.367 213.53C362.552 213.392 362.736 213.253 362.921 213.106C363.087 212.986 363.244 212.856 363.41 212.727C363.595 212.589 363.77 212.441 363.945 212.293C364.102 212.164 364.259 212.044 364.407 211.915C364.582 211.767 364.758 211.619 364.924 211.471C365.072 211.342 365.219 211.222 365.358 211.093C365.533 210.945 365.699 210.788 365.865 210.641C365.985 210.53 366.105 210.428 366.225 210.317C366.244 210.299 366.253 210.29 366.272 210.271C366.632 209.939 366.973 209.607 367.305 209.274C367.389 209.191 367.472 209.108 367.555 209.025C367.813 208.766 368.062 208.508 368.302 208.249C368.404 208.148 368.496 208.037 368.598 207.936C368.856 207.659 369.105 207.382 369.345 207.095C369.401 207.031 369.465 206.966 369.521 206.901C369.816 206.56 370.093 206.209 370.37 205.867C370.389 205.84 370.416 205.812 370.435 205.794C370.499 205.711 370.564 205.618 370.629 205.535C370.786 205.332 370.942 205.129 371.09 204.935C371.182 204.806 371.275 204.686 371.358 204.557C371.496 204.363 371.635 204.169 371.764 203.975C371.847 203.846 371.939 203.716 372.022 203.587C372.152 203.393 372.281 203.19 372.401 202.996C372.484 202.867 372.558 202.747 372.641 202.618C372.77 202.405 372.89 202.193 373.019 201.981C373.066 201.898 373.121 201.805 373.176 201.722C373.195 201.695 373.204 201.667 373.222 201.639C373.324 201.455 373.426 201.261 373.527 201.076C373.592 200.956 373.656 200.827 373.721 200.707C373.832 200.504 373.924 200.291 374.026 200.079C374.081 199.977 374.127 199.867 374.182 199.765C374.321 199.47 374.45 199.183 374.57 198.888C374.579 198.869 374.589 198.842 374.598 198.823C374.727 198.509 374.856 198.186 374.976 197.872C374.976 197.863 374.986 197.854 374.986 197.845C375.022 197.734 375.059 197.623 375.106 197.512C375.179 197.318 375.244 197.125 375.309 196.931C375.355 196.801 375.392 196.672 375.429 196.534C375.484 196.349 375.549 196.164 375.595 195.98C375.632 195.841 375.669 195.703 375.706 195.564C375.752 195.389 375.807 195.204 375.844 195.029C375.881 194.89 375.909 194.743 375.936 194.604C375.973 194.429 376.019 194.253 376.056 194.078C376.066 194.05 376.066 194.023 376.075 193.995C376.093 193.884 376.112 193.764 376.139 193.653C376.176 193.478 376.204 193.302 376.232 193.118C376.259 192.97 376.278 192.832 376.296 192.684C376.324 192.509 376.342 192.333 376.37 192.158C376.389 192.01 376.398 191.862 376.416 191.715C376.435 191.539 376.453 191.364 376.462 191.198C376.472 191.05 376.481 190.902 376.49 190.754C376.499 190.579 376.509 190.404 376.518 190.237C376.518 190.182 376.527 190.127 376.527 190.071C376.536 189.868 376.536 189.674 376.536 189.471L376.61 163.261C376.61 163.51 376.601 163.759 376.592 164.018Z" fill="#050505" stroke="#E9EEF1" stroke-width="3" stroke-miterlimit="10"/>
<path d="M356.542 135.167C329.911 119.787 286.72 119.787 260.265 135.167C233.809 150.548 233.947 175.568 260.578 190.948C287.209 206.329 330.4 206.32 356.856 190.948C383.321 175.568 383.173 150.548 356.542 135.167Z" fill="#050505" stroke="#E9EEF1" stroke-width="3" stroke-miterlimit="10"/>
<path d="M342.355 143.421C361.102 154.25 361.213 171.874 342.576 182.704C323.948 193.533 293.524 193.533 274.776 182.704C256.019 171.874 255.926 154.25 274.554 143.421C293.182 132.591 323.598 132.591 342.355 143.421ZM275.727 182.141C293.948 192.665 323.505 192.665 341.607 182.141C359.709 171.616 359.616 154.499 341.395 143.975C323.173 133.45 293.616 133.45 275.514 143.975C257.413 154.499 257.505 171.616 275.727 182.141Z" fill="#E9EEF1"/>
<path d="M247.6 180.507V207.76" stroke="#E9EEF1" stroke-miterlimit="10"/>
<path d="M257.864 189.268V216.521" stroke="#E9EEF1" stroke-miterlimit="10"/>
<path d="M268.119 194.143V221.405" stroke="#E9EEF1" stroke-miterlimit="10"/>
<path d="M278.384 197.457V224.72" stroke="#E9EEF1" stroke-miterlimit="10"/>
<path d="M288.649 201.048V228.311" stroke="#E9EEF1" stroke-miterlimit="10"/>
<path d="M298.914 202.479V229.733" stroke="#E9EEF1" stroke-miterlimit="10"/>
<path d="M309.169 202.479V229.733" stroke="#E9EEF1" stroke-miterlimit="10"/>
<path d="M319.434 201.556V228.81" stroke="#E9EEF1" stroke-miterlimit="10"/>
<path d="M329.698 200.125V227.388" stroke="#E9EEF1" stroke-miterlimit="10"/>
<path d="M339.963 197.457V224.72" stroke="#E9EEF1" stroke-miterlimit="10"/>
<path d="M350.219 193.949V221.211" stroke="#E9EEF1" stroke-miterlimit="10"/>
<path d="M360.483 187.957V215.22" stroke="#E9EEF1" stroke-miterlimit="10"/>
<path d="M370.748 178.476V205.738" stroke="#E9EEF1" stroke-miterlimit="10"/>
</svg>
