<svg width="13" height="8" viewBox="0 0 13 8" fill="none" xmlns="http://www.w3.org/2000/svg">
<path d="M4.84565 3.86694C4.84565 3.86694 5.98146 3.78057 5.98146 2.42029C5.98146 1.06115 5.21112 0.39115 4.03367 0.39115L0 0.384766V7.89594H4.12747C4.12747 7.89594 6.19121 7.96128 6.19121 5.64258C6.19121 5.64258 6.3428 3.86694 4.84565 3.86694ZM1.5009 1.51144H3.56464C3.56464 1.51144 4.27081 1.52308 4.27081 2.43945C4.27081 3.38923 3.56464 3.38923 3.56464 3.38923H1.5009V1.51144ZM3.75225 6.76926H1.5009V4.51591H3.75225C3.75225 4.51591 4.87792 4.52755 4.87792 5.64258C4.87792 6.75762 3.91435 6.76926 3.75225 6.76926Z" fill="#E9EEF1"/>
<path d="M9.38071 2.2627C6.56165 2.2627 6.56653 5.07938 6.56653 5.07938C6.56653 5.07938 6.37891 7.89607 9.38071 7.89607C9.38071 7.89607 12.0073 7.89607 12.0073 5.64272H10.5064C10.5064 5.64272 10.5064 6.7694 9.38071 6.7694C9.38071 6.7694 8.25504 6.7694 8.25504 5.26716C8.25504 5.26716 11.2568 5.26716 12.0073 5.26716C12.0073 4.51605 12.0073 2.2627 9.38071 2.2627ZM8.25504 4.51605C8.25504 4.51605 8.23027 3.38937 9.38071 3.38937C10.5308 3.38937 10.5064 4.51605 10.5064 4.51605H8.25504Z" fill="#E9EEF1"/>
<path d="M10.8817 1.13574H7.87991V1.88686H10.8817V1.13574Z" fill="#E9EEF1"/>
</svg>
