<svg width="60" height="60" viewBox="0 0 60 60" fill="none" xmlns="http://www.w3.org/2000/svg">
<rect width="60" height="60" rx="30" fill="white" fill-opacity="0.1"/>
<path fill-rule="evenodd" clip-rule="evenodd" d="M22.0305 34.1853H27.1114V34.1152L28.2314 38.4792C28.2588 38.5774 28.3544 38.6475 28.45 38.6334H31.3046C31.4412 38.6334 31.4822 38.5634 31.4412 38.4091L26.4559 23.1121C26.4422 23.042 26.3739 23 26.2783 23H22.7818H22.7408C22.6725 23.014 22.6178 23.0841 22.6315 23.1542C22.6315 23.4626 22.6042 23.7709 22.5496 24.0652C22.4949 24.2335 22.4539 24.3596 22.4129 24.4998L18.015 38.4372C17.974 38.6054 18.015 38.6895 18.1652 38.6895H20.733C20.8559 38.7035 20.9652 38.6194 20.9925 38.4932L22.0305 34.1853ZM26.2919 31.396H22.8227C23.0276 30.8073 23.2461 30.1485 23.4237 29.4336C23.5588 29.0003 23.6887 28.5669 23.8167 28.1402C23.8956 27.8768 23.9738 27.6159 24.052 27.3591C24.2432 26.7565 24.3935 26.1537 24.5163 25.551H24.5437C24.597 25.7386 24.6503 25.9348 24.706 26.1397C24.7501 26.3024 24.7958 26.4706 24.8442 26.6443C24.9534 27.0508 25.0764 27.4573 25.213 27.8918C25.2812 28.1091 25.3461 28.3228 25.411 28.5366C25.4759 28.7503 25.5407 28.9641 25.609 29.1813C25.732 29.6019 25.8549 30.0084 25.9778 30.3868C26.1007 30.7512 26.21 31.1017 26.2919 31.396ZM35.1568 33.9238H39.487C39.6699 33.9238 39.8456 33.9387 40.0159 33.9532C40.1761 33.9667 40.3316 33.9799 40.4837 33.9799C40.7983 33.9799 41.0579 33.9659 41.2758 33.9379C41.3522 33.933 41.4202 33.9281 41.4799 33.9238C41.5911 33.9157 41.6733 33.9098 41.7266 33.9098C41.8225 33.9098 41.9043 33.8257 41.9177 33.7276C41.9242 33.6698 41.9305 33.5971 41.9381 33.5098C41.9471 33.4067 41.9578 33.2831 41.9727 33.1389C41.9862 32.8726 42.0002 32.5782 42.0002 32.2418C42.0002 31.6672 41.9177 31.0924 41.7407 30.5318C41.5629 29.9431 41.2758 29.4105 40.921 28.9339C40.5387 28.4433 40.0471 28.0649 39.487 27.8125C38.8176 27.5042 38.0939 27.364 37.3695 27.3781C36.4956 27.3781 35.7309 27.4902 35.0891 27.8125C34.4469 28.1349 33.8869 28.5835 33.4362 29.1442C32.9718 29.7188 32.6303 30.3636 32.4118 31.0644C32.1796 31.7933 32.0703 32.5362 32.0703 33.2931C32.0703 33.9939 32.166 34.6807 32.3571 35.3395C32.5483 36.0123 32.8625 36.6291 33.2996 37.1757C33.764 37.7504 34.3513 38.213 35.0206 38.5073C35.7309 38.8297 36.6049 38.9979 37.6432 38.9979C38.2985 39.0119 38.9404 38.9558 39.5823 38.8297C40.0605 38.7456 40.5112 38.6054 40.9485 38.4092C40.9894 38.3811 41.0163 38.3531 41.0438 38.3111C41.0579 38.255 41.0713 38.1989 41.0713 38.1429V35.9983C41.0713 35.8581 41.0304 35.8301 40.962 35.8862C40.5796 36.0404 40.1698 36.1525 39.7466 36.2086C39.2818 36.3067 38.8042 36.3488 38.326 36.3628C37.725 36.3768 37.124 36.2506 36.5774 36.0123C36.1676 35.8441 35.8262 35.5498 35.5807 35.1713C35.3486 34.7929 35.2118 34.3583 35.1568 33.9238ZM38.0389 31.8774H35.1568C35.1984 31.527 35.2936 31.1906 35.4573 30.8682C35.8128 30.1674 36.5231 29.7609 37.2743 29.803C38.0798 29.7749 38.8042 30.3075 39.0497 31.0924C39.1047 31.2607 39.1315 31.4289 39.1315 31.6111V31.7513C39.0363 31.8213 38.927 31.8493 38.8176 31.8634C38.654 31.8774 38.3944 31.8774 38.0389 31.8774Z" fill="#E9EEF1"/>
</svg>
