<svg width="60" height="60" viewBox="0 0 60 60" fill="none" xmlns="http://www.w3.org/2000/svg">
<rect width="60" height="60" rx="30" fill="white" fill-opacity="0.1"/>
<path d="M18 38.4333V21.2834C18 21.1667 18.0499 21.1 18.1662 21.1C18.4488 21.1 18.7147 21.1 19.097 21.0834C19.4958 21.0667 19.9113 21.0667 20.36 21.05C20.8087 21.0333 21.2907 21.0333 21.8059 21.0167C22.3211 21 22.8197 21 23.3183 21C24.6811 21 25.8112 21.1667 26.7419 21.5167C27.5729 21.8 28.3374 22.2667 28.9689 22.8834C29.5007 23.4167 29.9162 24.0667 30.1821 24.7834C30.4314 25.4833 30.5644 26.2 30.5644 26.95C30.5644 28.3833 30.232 29.5666 29.5672 30.5C28.9024 31.4333 27.9717 32.1334 26.8914 32.5334C25.7613 32.95 24.5149 33.1 23.1521 33.1C22.7533 33.1 22.4873 33.1 22.3211 33.0834C22.1549 33.0667 21.9222 33.0666 21.6065 33.0666V38.4167C21.6231 38.5334 21.54 38.6333 21.4236 38.65H18.1995C18.0665 38.65 18 38.5833 18 38.4333ZM21.6231 24.3167V29.9167C21.8558 29.9333 22.0718 29.95 22.2713 29.95H23.1521C23.8003 29.95 24.4484 29.85 25.0633 29.65C25.5951 29.5 26.0605 29.1833 26.4262 28.7667C26.7751 28.35 26.9413 27.7833 26.9413 27.05C26.958 26.5334 26.825 26.0167 26.5591 25.5667C26.2766 25.1334 25.8776 24.8 25.3957 24.6167C24.7808 24.3667 24.116 24.2667 23.4346 24.2833C23.0025 24.2833 22.6203 24.2833 22.3045 24.3C21.9721 24.2833 21.7394 24.3 21.6231 24.3167ZM40.935 28.9C40.4364 28.6334 39.9046 28.45 39.3395 28.3333C38.7245 28.2 38.1096 28.1167 37.4781 28.1167C37.1457 28.1 36.7967 28.15 36.4809 28.2334C36.2649 28.2834 36.082 28.4 35.9657 28.5667C35.8827 28.7 35.8327 28.8667 35.8327 29.0167C35.8327 29.1667 35.8993 29.3167 35.999 29.45C36.1486 29.6334 36.3479 29.7834 36.564 29.9C36.9463 30.1 37.3451 30.2833 37.744 30.45C38.6415 30.75 39.5056 31.1667 40.3034 31.6667C40.8518 32.0167 41.3006 32.4833 41.6163 33.05C41.8822 33.5833 42.0152 34.1667 41.9986 34.7667C42.0152 35.55 41.7825 36.3333 41.3504 36.9834C40.8851 37.65 40.2369 38.1667 39.489 38.4666C38.6747 38.8167 37.6775 39 36.4809 39C35.7164 39 34.9685 38.9334 34.2207 38.7833C33.639 38.6833 33.0573 38.5 32.5255 38.25C32.4091 38.1833 32.326 38.0667 32.3427 37.9334V35.0334C32.3427 34.9833 32.3593 34.9167 32.4091 34.8834C32.459 34.85 32.5089 34.8667 32.5587 34.9C33.2069 35.2833 33.8883 35.55 34.6196 35.7167C35.2511 35.8833 35.9159 35.9666 36.5806 35.9666C37.2122 35.9666 37.6609 35.8833 37.96 35.7333C38.2259 35.6167 38.4088 35.3333 38.4088 35.0334C38.4088 34.8 38.2759 34.5833 38.0099 34.3667C37.744 34.15 37.1956 33.9 36.3812 33.5833C35.5336 33.2834 34.7525 32.8834 34.0212 32.3833C33.506 32.0167 33.0739 31.5334 32.7582 30.9667C32.4923 30.4334 32.3593 29.85 32.3759 29.2667C32.3759 28.55 32.5753 27.8667 32.9409 27.25C33.3565 26.5833 33.9714 26.05 34.686 25.7167C35.4671 25.3166 36.4477 25.1334 37.6277 25.1334C38.3091 25.1334 39.0071 25.1834 39.6885 25.2833C40.1871 25.35 40.6691 25.4833 41.1177 25.6667C41.1843 25.6833 41.2507 25.75 41.284 25.8167C41.3006 25.8833 41.3172 25.95 41.3172 26.0167V28.7333C41.3172 28.8 41.284 28.8667 41.2341 28.9C41.0845 28.9333 41.0014 28.9333 40.935 28.9Z" fill="#E9EEF1"/>
</svg>
