<svg width="60" height="60" viewBox="0 0 60 60" fill="none" xmlns="http://www.w3.org/2000/svg">
<rect width="60" height="60" rx="30" fill="white" fill-opacity="0.1"/>
<path d="M26.0002 42C28.2082 42 30 40.208 30 38V34H26.0002C23.7923 34 22 35.792 22 38C22 40.208 23.7923 42 26.0002 42Z" fill="#E9EEF1"/>
<path d="M22 30C22 27.792 23.7923 26 26.0002 26H30V34H26.0002C23.7923 34 22 32.208 22 30Z" fill="#E9EEF1"/>
<path d="M22 22C22 19.792 23.7923 18 26.0002 18H30V26H26.0002C23.7923 26 22 24.208 22 22Z" fill="#E9EEF1"/>
<path opacity="0.9" d="M30 18H34.0002C36.2082 18 38 19.792 38 22C38 24.208 36.2082 26 34.0002 26H30V18Z" fill="#E9EEF1"/>
<path d="M38 30C38 32.208 36.2082 34 34.0002 34C31.7923 34 30 32.208 30 30C30 27.792 31.7923 26 34.0002 26C36.2082 26 38 27.792 38 30Z" fill="#E9EEF1"/>
</svg>
