<svg width="60" height="60" viewBox="0 0 60 60" fill="none" xmlns="http://www.w3.org/2000/svg">
<rect width="60" height="60" rx="30" fill="white" fill-opacity="0.1"/>
<path fill-rule="evenodd" clip-rule="evenodd" d="M41.4084 23.2175C41.3136 23.3804 41.2193 23.5424 41.129 23.6955C36.7795 31.0518 31.0934 31.2783 24.3879 27.9002C22.5279 26.9663 20.4619 25.9529 19.4234 25.4442C19.2414 25.3574 19.0989 25.1996 19.0274 25.0048C18.9564 24.8101 18.9614 24.5939 19.0414 24.4029L21.4054 18.839C21.4464 18.7417 21.5059 18.6539 21.5804 18.581C21.6549 18.508 21.7424 18.4513 21.8379 18.4143C21.9339 18.3772 22.0359 18.3605 22.1379 18.3652C22.2399 18.3699 22.3404 18.3959 22.4324 18.4416L27.3394 20.8659C30.9064 22.6384 32.8845 23.0517 34.851 19.6736C35.0571 19.3184 35.2506 18.9805 35.4177 18.6888C35.4768 18.5857 35.5326 18.4882 35.5845 18.3979C35.6365 18.3034 35.707 18.2212 35.7915 18.1562C35.8755 18.0913 35.9715 18.0451 36.074 18.0205C36.176 17.9959 36.2815 17.9934 36.385 18.0132C36.488 18.033 36.586 18.0747 36.6725 18.1356L41.637 21.315C41.8075 21.4244 41.9295 21.5989 41.9775 21.801C42.025 22.0032 41.995 22.2168 41.893 22.3959C41.7421 22.6439 41.5744 22.9321 41.4084 23.2175ZM18.5995 36.7848C18.6914 36.6269 18.7826 36.47 18.87 36.3216C23.22 28.9573 28.906 28.7388 35.5966 32.1208C37.4561 33.0548 39.5221 34.0682 40.5611 34.5769C40.7431 34.6636 40.8851 34.8214 40.9566 35.0162C41.0281 35.2109 41.0231 35.4272 40.9426 35.6181L38.5791 41.182C38.5376 41.2794 38.4781 41.3671 38.4041 41.4401C38.3296 41.513 38.2421 41.5697 38.1461 41.6068C38.0501 41.6439 37.9481 41.6605 37.8461 41.6558C37.7441 41.6511 37.6441 41.6252 37.5516 41.5794L32.6291 39.1432C29.0626 37.3708 27.0845 36.9575 25.1175 40.3355C24.9166 40.6824 24.7275 41.0127 24.5631 41.2996C24.4996 41.4105 24.4398 41.5149 24.3845 41.6112C24.3325 41.7019 24.264 41.781 24.1825 41.8438C24.101 41.9066 24.0085 41.9519 23.91 41.9771C23.8115 42.0022 23.7095 42.0068 23.609 41.9903C23.509 41.9739 23.413 41.9369 23.3265 41.8815L18.3625 38.7021C18.192 38.5927 18.07 38.4182 18.022 38.216C17.9745 38.0139 18.0045 37.8003 18.1065 37.6211C18.2597 37.3689 18.4306 37.075 18.5995 36.7848Z" fill="#E9EEF1"/>
</svg>
