<svg width="60" height="60" viewBox="0 0 60 60" fill="none" xmlns="http://www.w3.org/2000/svg">
<rect width="60" height="60" rx="30" fill="white" fill-opacity="0.1"/>
<path d="M26.2218 18.4968C22.4745 18.7748 19.2888 19.0305 19.139 19.0604C18.719 19.1355 18.337 19.4212 18.1574 19.7971L18 20.1278L18.0152 28.011L18.0374 35.8941L18.2773 36.3827C18.4124 36.653 19.3267 37.9158 20.3235 39.2155C22.2948 41.7779 22.437 41.921 23.1864 41.996C23.404 42.0184 25.0378 41.9433 26.8068 41.8383C28.5832 41.7257 31.431 41.5527 33.1402 41.4553C40.4401 41.0109 40.0652 41.0485 40.4847 40.6877C41.0094 40.252 40.972 40.9658 40.9942 31.3846C41.0094 23.261 41.0018 22.7278 40.8819 22.4797C40.7397 22.2017 40.4847 22.0064 37.1568 19.6616C34.931 18.0986 34.7736 18.0159 33.7763 18.0007C33.3644 17.986 29.9616 18.2112 26.2218 18.4968ZM34.6461 19.5262C34.9608 19.6687 37.262 21.2769 37.599 21.5854C37.6891 21.6756 37.7189 21.7507 37.6739 21.7959C37.5692 21.8862 23.3281 22.7354 22.9162 22.6751C22.729 22.6451 22.4517 22.5325 22.2944 22.427C21.6421 21.9836 20.0235 20.6534 20.0235 20.556C20.0235 20.3003 19.9709 20.3003 26.3195 19.8422C27.5338 19.7595 29.5275 19.6093 30.7418 19.5114C33.372 19.3009 34.1593 19.3085 34.6461 19.5262ZM39.1732 23.6369C39.2779 23.7419 39.368 23.9449 39.3978 24.1402C39.4201 24.3208 39.4353 27.6873 39.4201 31.6099C39.3978 38.343 39.3903 38.764 39.2627 38.9593C39.1879 39.0796 39.0381 39.2074 38.9252 39.245C38.611 39.3728 23.6883 40.222 23.3812 40.1317C23.239 40.0942 23.0437 39.974 22.939 39.8689L22.7589 39.6736L22.7366 32.4144C22.7214 27.3195 22.7366 25.065 22.7968 24.8621C22.8418 24.7119 22.9541 24.5313 23.0518 24.4714C23.1869 24.3811 24.0714 24.306 27.1144 24.1259C29.2507 24.0057 32.5558 23.8028 34.4522 23.6902C38.9632 23.4117 38.9485 23.4117 39.1732 23.6369Z" fill="#E9EEF1"/>
<path d="M35.1636 26.1243C34.354 26.177 33.6345 26.2521 33.552 26.2973C33.3046 26.4251 33.1548 26.6356 33.125 26.8761C33.1027 27.1242 33.1776 27.1541 33.9867 27.252L34.3389 27.2972V30.5059C34.3389 32.4144 34.309 33.6772 34.2715 33.6396C34.2341 33.5944 33.17 31.9715 31.903 30.0326C30.6365 28.0865 29.5871 26.4854 29.5719 26.4707C29.5567 26.4555 28.7325 26.5007 27.7433 26.5686C26.5289 26.6513 25.862 26.7264 25.7269 26.8015C25.5094 26.9141 25.2695 27.3123 25.2695 27.5756C25.2695 27.7334 25.5544 27.8161 26.154 27.8161H26.4687V37.0441L25.9592 37.2019C25.5619 37.3222 25.4269 37.3972 25.3596 37.5474C25.2396 37.8031 25.2472 38.036 25.3672 38.036C25.4122 38.036 26.2592 37.9832 27.2333 37.9233C29.1596 37.8107 29.3766 37.758 29.579 37.3597C29.6392 37.2395 29.6913 37.1117 29.6913 37.0741C29.6913 37.0441 29.4292 36.9539 29.1141 36.8788C28.7918 36.8037 28.4694 36.7286 28.4021 36.7134C28.2746 36.6758 28.267 36.443 28.267 33.2114V29.747L30.5455 33.3316C32.9363 37.0888 33.2363 37.5175 33.6037 37.7052C34.0611 37.9457 35.2229 37.7803 35.8073 37.3972L35.9874 37.2846L36.0025 32.1598L36.0248 27.0272L36.4221 26.9521C36.8941 26.8619 37.1117 26.6442 37.1117 26.2683C37.1117 26.0278 37.0965 26.0126 36.8718 26.0202C36.7377 26.0264 35.9656 26.0715 35.1636 26.1243Z" fill="#E9EEF1"/>
</svg>
