<svg width="28" height="28" viewBox="0 0 28 28" fill="none" xmlns="http://www.w3.org/2000/svg">
<path d="M23.3333 7.87516C24.1842 7.87516 25.0003 7.53714 25.602 6.93546C26.2036 6.33378 26.5417 5.51773 26.5417 4.66683C26.5417 3.81593 26.2036 2.99987 25.602 2.3982C25.0003 1.79652 24.1842 1.4585 23.3333 1.4585C22.4824 1.4585 21.6664 1.79652 21.0647 2.3982C20.463 2.99987 20.125 3.81593 20.125 4.66683C20.125 5.51773 20.463 6.33378 21.0647 6.93546C21.6664 7.53714 22.4824 7.87516 23.3333 7.87516Z" fill="url(#paint0_linear_1662_9322)"/>
<path d="M25.4252 6.75869C24.8704 7.31348 24.1179 7.62516 23.3333 7.62516C22.5487 7.62516 21.7963 7.31348 21.2415 6.75869C20.6867 6.20389 20.375 5.45143 20.375 4.66683C20.375 3.88223 20.6867 3.12977 21.2415 2.57497C21.7963 2.02018 22.5487 1.7085 23.3333 1.7085C24.1179 1.7085 24.8704 2.02018 25.4252 2.57497C25.98 3.12977 26.2917 3.88223 26.2917 4.66683C26.2917 5.45143 25.98 6.20389 25.4252 6.75869Z" stroke="white" stroke-opacity="0.2" stroke-width="0.5"/>
<path d="M22.213 9.50851C21.3045 9.30309 20.4727 8.84449 19.814 8.18583C19.1554 7.52717 18.6968 6.6954 18.4913 5.78684C18.3397 5.07518 18.328 4.38684 18.4563 3.73351C18.4934 3.56467 18.4921 3.38965 18.4524 3.2214C18.4127 3.05315 18.3356 2.89599 18.227 2.76155C18.1183 2.62711 17.9808 2.51884 17.8246 2.44474C17.6684 2.37065 17.4975 2.33263 17.3247 2.33351H8.16634C4.94634 2.33351 2.33301 4.94684 2.33301 8.16684V16.2752C2.33301 19.4952 4.94634 22.1085 8.16634 22.1085H9.91634C10.243 22.1085 10.663 22.3185 10.8497 22.5752L12.5997 24.8968C13.3697 25.9235 14.6297 25.9235 15.3997 24.8968L17.1497 22.5752C17.2583 22.4303 17.3993 22.3127 17.5613 22.2317C17.7233 22.1507 17.9019 22.1085 18.083 22.1085H19.8447C23.0647 22.1085 25.6663 19.5068 25.6663 16.2868V10.6752C25.6663 9.94018 24.9897 9.40351 24.2663 9.54351C23.613 9.66018 22.9247 9.66018 22.213 9.50851ZM9.33301 14.0002C8.67968 14.0002 8.16634 13.4752 8.16634 12.8335C8.16634 12.1918 8.67968 11.6668 9.33301 11.6668C9.97468 11.6668 10.4997 12.1918 10.4997 12.8335C10.4997 13.4752 9.98634 14.0002 9.33301 14.0002ZM13.9997 14.0002C13.3463 14.0002 12.833 13.4752 12.833 12.8335C12.833 12.1918 13.3463 11.6668 13.9997 11.6668C14.6413 11.6668 15.1663 12.1918 15.1663 12.8335C15.1663 13.4752 14.653 14.0002 13.9997 14.0002ZM18.6663 14.0002C18.013 14.0002 17.4997 13.4752 17.4997 12.8335C17.4997 12.1918 18.013 11.6668 18.6663 11.6668C19.308 11.6668 19.833 12.1918 19.833 12.8335C19.833 13.4752 19.3197 14.0002 18.6663 14.0002Z" fill="url(#paint1_linear_1662_9322)"/>
<path d="M22.1579 9.75236L22.1579 9.75237L22.1609 9.75302C22.9055 9.9117 23.6264 9.91173 24.3103 9.78962L24.3103 9.78964L24.3138 9.78896C24.8896 9.67751 25.4163 10.1041 25.4163 10.6752V16.2868C25.4163 19.3688 22.9266 21.8585 19.8447 21.8585H18.083C17.8631 21.8585 17.6462 21.9097 17.4495 22.0081L17.5613 22.2317L17.4495 22.0081C17.2527 22.1064 17.0816 22.2492 16.9497 22.4252L15.2 24.7464L15.1997 24.7468C14.855 25.2065 14.4176 25.4168 13.9997 25.4168C13.5817 25.4168 13.1444 25.2065 12.7997 24.7468L12.7993 24.7464L11.0505 22.4263C10.927 22.2574 10.7401 22.1184 10.5473 22.022C10.3534 21.925 10.1283 21.8585 9.91634 21.8585H8.16634C5.08441 21.8585 2.58301 19.3571 2.58301 16.2752V8.16684C2.58301 5.08492 5.08441 2.58351 8.16634 2.58351L17.3247 2.58351L17.3259 2.58351C17.4613 2.58282 17.5951 2.61259 17.7174 2.67061C17.8397 2.72864 17.9474 2.81343 18.0325 2.91871C18.1176 3.02399 18.178 3.14707 18.2091 3.27882L18.4524 3.2214L18.2091 3.27883C18.2402 3.41058 18.2412 3.54764 18.2122 3.67987L18.2121 3.67985L18.211 3.68532C18.0756 4.37474 18.0888 5.09732 18.2468 5.83895L18.2468 5.83896L18.2475 5.84198C18.4633 6.7966 18.9452 7.67055 19.6372 8.36261C20.3293 9.05467 21.2033 9.53652 22.1579 9.75236ZM7.91634 12.8335C7.91634 13.6116 8.53998 14.2502 9.33301 14.2502C10.126 14.2502 10.7497 13.6116 10.7497 12.8335C10.7497 12.0538 10.1127 11.4168 9.33301 11.4168C8.53998 11.4168 7.91634 12.0554 7.91634 12.8335ZM12.583 12.8335C12.583 13.6116 13.2066 14.2502 13.9997 14.2502C14.7927 14.2502 15.4163 13.6116 15.4163 12.8335C15.4163 12.0538 14.7794 11.4168 13.9997 11.4168C13.2066 11.4168 12.583 12.0554 12.583 12.8335ZM17.2497 12.8335C17.2497 13.6116 17.8733 14.2502 18.6663 14.2502C19.4594 14.2502 20.083 13.6116 20.083 12.8335C20.083 12.0538 19.4461 11.4168 18.6663 11.4168C17.8733 11.4168 17.2497 12.0554 17.2497 12.8335Z" stroke="white" stroke-opacity="0.2" stroke-width="0.5"/>
<defs>
<linearGradient id="paint0_linear_1662_9322" x1="23.3333" y1="1.4585" x2="23.3333" y2="7.87516" gradientUnits="userSpaceOnUse">
<stop stop-color="#80C9FF"/>
<stop offset="1" stop-color="#5ABAFF"/>
</linearGradient>
<linearGradient id="paint1_linear_1662_9322" x1="13.9997" y1="2.3335" x2="13.9997" y2="25.6668" gradientUnits="userSpaceOnUse">
<stop stop-color="#80C9FF"/>
<stop offset="1" stop-color="#5ABAFF"/>
</linearGradient>
</defs>
</svg>
