<svg width="17" height="20" viewBox="0 0 17 20" fill="none" xmlns="http://www.w3.org/2000/svg">
<path d="M11.9994 5.50107L4.19005 13.4417C3.93152 13.727 3.7926 14.1009 3.80208 14.4858C3.81156 14.8707 3.9687 15.2373 4.24097 15.5095C4.51324 15.7818 4.87978 15.9389 5.26471 15.9484C5.64964 15.9579 6.02347 15.819 6.30881 15.5604L15.6182 6.11982C16.1353 5.54915 16.4131 4.80149 16.3941 4.03163C16.3752 3.26177 16.0609 2.52869 15.5164 1.98415C14.9718 1.43961 14.2387 1.12533 13.4689 1.10638C12.699 1.08742 11.9514 1.36525 11.3807 1.88232L2.07131 11.323C1.22841 12.1658 0.754883 13.309 0.754883 14.5011C0.754883 15.6931 1.22841 16.8363 2.07131 17.6792C2.9142 18.5221 4.0574 18.9956 5.24943 18.9956C6.44146 18.9956 7.58466 18.5221 8.42756 17.6792L16.1244 10.0011" stroke="#E9EEF1" stroke-linecap="round" stroke-linejoin="round"/>
</svg>
