<svg width="25" height="28" viewBox="0 0 25 28" fill="none" xmlns="http://www.w3.org/2000/svg">
<path d="M17.4996 7.2499L5.78557 19.1608C5.39776 19.5888 5.1894 20.1496 5.20361 20.727C5.21783 21.3044 5.45354 21.8542 5.86194 22.2626C6.27034 22.671 6.82016 22.9067 7.39755 22.9209C7.97494 22.9351 8.53569 22.7268 8.9637 22.339L22.9278 8.17803C23.7034 7.32202 24.1201 6.20052 24.0917 5.04573C24.0632 3.89095 23.5918 2.79132 22.775 1.97452C21.9582 1.15771 20.8586 0.686291 19.7038 0.657859C18.549 0.629427 17.4275 1.04616 16.5715 1.82178L2.60745 15.9827C1.34311 17.2471 0.632813 18.9619 0.632812 20.7499C0.632813 22.5379 1.34311 24.2528 2.60745 25.5171C3.87178 26.7814 5.58659 27.4917 7.37463 27.4917C9.16268 27.4917 10.8775 26.7814 12.1418 25.5171L23.6871 13.9999" stroke="#E9EEF1" stroke-linecap="round" stroke-linejoin="round"/>
</svg>
