<svg width="36" height="36" viewBox="0 0 36 36" fill="none" xmlns="http://www.w3.org/2000/svg">
<path d="M21 10C22.1987 10.3217 23.2917 10.953 24.1693 11.8307C25.047 12.7083 25.6783 13.8013 26 15" stroke="#E9EEF1" stroke-linecap="round" stroke-linejoin="round"/>
<path d="M20 13C20.7201 13.1912 21.3769 13.5695 21.9037 14.0963C22.4305 14.6231 22.8088 15.2799 23 16" stroke="#E9EEF1" stroke-linecap="round" stroke-linejoin="round"/>
<path d="M14.8594 17.5585C15.6214 19.1321 16.8938 20.4012 18.4693 21.1591C18.5855 21.2141 18.714 21.238 18.8422 21.2282C18.9704 21.2185 19.0939 21.1755 19.2005 21.1036L21.5145 19.5578C21.6167 19.4885 21.7349 19.4462 21.8579 19.4348C21.9809 19.4235 22.1048 19.4435 22.2179 19.493L26.5498 21.3535C26.6978 21.4151 26.8215 21.5237 26.9018 21.6625C26.982 21.8013 27.0145 21.9627 26.994 22.1217C26.8567 23.1933 26.3337 24.1782 25.5227 24.892C24.7118 25.6059 23.6685 25.9998 22.5882 26C19.2496 26 16.0477 24.6737 13.687 22.313C11.3263 19.9523 10 16.7504 10 13.4118C10.0002 12.3315 10.3941 11.2882 11.108 10.4773C11.8218 9.66631 12.8067 9.14326 13.8783 9.00596C14.0373 8.98553 14.1987 9.01795 14.3375 9.09823C14.4763 9.17851 14.5849 9.3022 14.6465 9.45025L16.507 13.7913C16.5554 13.9027 16.5756 14.0243 16.5659 14.1454C16.5562 14.2664 16.5169 14.3832 16.4514 14.4855L14.9057 16.8365C14.8369 16.9429 14.7965 17.0651 14.7884 17.1915C14.7803 17.3179 14.8047 17.4443 14.8594 17.5585V17.5585Z" stroke="#E9EEF1" stroke-linecap="round" stroke-linejoin="round"/>
</svg>
