<svg width="36" height="36" viewBox="0 0 36 36" fill="none" xmlns="http://www.w3.org/2000/svg">
<path d="M8.375 16.25H27.625V25.875C27.625 26.1071 27.5328 26.3296 27.3687 26.4937C27.2046 26.6578 26.9821 26.75 26.75 26.75H9.25C9.01794 26.75 8.79538 26.6578 8.63128 26.4937C8.46719 26.3296 8.375 26.1071 8.375 25.875V16.25Z" stroke="#E9EEF1" stroke-linecap="round" stroke-linejoin="round"/>
<path d="M8.37487 16.2502L26.9686 11.2627L26.0608 7.88301C26.0317 7.77178 25.9807 7.66748 25.9108 7.57622C25.8408 7.48495 25.7534 7.40856 25.6536 7.35152C25.5538 7.29447 25.4436 7.25793 25.3294 7.24402C25.2153 7.23011 25.0995 7.23912 24.9889 7.27051L8.0905 11.7986C7.97905 11.8279 7.87448 11.8788 7.78278 11.9486C7.69108 12.0183 7.61406 12.1055 7.55613 12.2051C7.49821 12.3047 7.46052 12.4147 7.44524 12.5289C7.42995 12.6431 7.43737 12.7592 7.46706 12.8705L8.37487 16.2502Z" stroke="#E9EEF1" stroke-linecap="round" stroke-linejoin="round"/>
<path d="M18.2285 9.07483L23.5879 12.1701" stroke="#E9EEF1" stroke-linecap="round" stroke-linejoin="round"/>
<path d="M10.627 11.1205L15.9754 14.2158" stroke="#E9EEF1" stroke-linecap="round" stroke-linejoin="round"/>
</svg>
