<svg width="36" height="36" viewBox="0 0 36 36" fill="none" xmlns="http://www.w3.org/2000/svg">
<path d="M8.05656 9.19983L14.5166 26.4265C14.5808 26.596 14.6953 26.7419 14.8448 26.8444C14.9943 26.9469 15.1716 27.0012 15.3529 27C15.5342 26.9988 15.7107 26.9421 15.8589 26.8376C16.007 26.7331 16.1196 26.5858 16.1815 26.4154L18.7677 19.3005C18.8127 19.1785 18.8837 19.0676 18.9756 18.9756C19.0676 18.8837 19.1785 18.8127 19.3005 18.7677L26.4154 16.1815C26.5858 16.1196 26.7331 16.007 26.8376 15.8589C26.9421 15.7107 26.9988 15.5342 27 15.3529C27.0012 15.1716 26.9469 14.9943 26.8444 14.8448C26.7419 14.6953 26.596 14.5808 26.4265 14.5166L9.19983 8.05656C9.04018 7.99668 8.86667 7.98403 8.70003 8.02012C8.53338 8.05621 8.38065 8.13951 8.26008 8.26008C8.13951 8.38065 8.05621 8.53338 8.02012 8.70003C7.98403 8.86667 7.99668 9.04018 8.05656 9.19983V9.19983Z" stroke="#E9EEF1" stroke-linecap="round" stroke-linejoin="round"/>
<path d="M19 19L27 27" stroke="#E9EEF1" stroke-linecap="round" stroke-linejoin="round"/>
</svg>
