<svg width="36" height="36" viewBox="0 0 36 36" fill="none" xmlns="http://www.w3.org/2000/svg">
<path d="M14.5 27.6249H9.25001C9.01794 27.6249 8.79538 27.5327 8.63129 27.3686C8.46719 27.2045 8.37501 26.982 8.37501 26.7499V21.8608C8.37461 21.7472 8.39662 21.6346 8.43979 21.5295C8.48295 21.4244 8.54643 21.3289 8.62657 21.2483L21.7516 8.12334C21.833 8.04067 21.93 7.97501 22.0371 7.9302C22.1441 7.88538 22.259 7.8623 22.375 7.8623C22.491 7.8623 22.6059 7.88538 22.7129 7.9302C22.82 7.97501 22.917 8.04067 22.9984 8.12334L27.8766 13.0015C27.9592 13.0829 28.0249 13.1799 28.0697 13.287C28.1145 13.394 28.1376 13.5089 28.1376 13.6249C28.1376 13.7409 28.1145 13.8558 28.0697 13.9628C28.0249 14.0699 27.9592 14.1669 27.8766 14.2483L14.5 27.6249Z" stroke="#E9EEF1" stroke-linecap="round" stroke-linejoin="round"/>
<path d="M18.875 11L25 17.125" stroke="#E9EEF1" stroke-linecap="round" stroke-linejoin="round"/>
<path d="M27.625 27.625H14.5L8.42969 21.5547" stroke="#E9EEF1" stroke-linecap="round" stroke-linejoin="round"/>
<path d="M21.9375 14.0625L11.4375 24.5625" stroke="#E9EEF1" stroke-linecap="round" stroke-linejoin="round"/>
</svg>
