<svg width="32" height="32" viewBox="0 0 32 32" fill="none" xmlns="http://www.w3.org/2000/svg">
<path d="M8.70375 24.7087C8.51634 24.8954 8.26262 25.0002 7.99812 25.0002C7.73363 25.0002 7.47991 24.8954 7.2925 24.7087C7.15875 24.5725 4 21.3525 4 16C4 11.3262 6.8 7.93375 8.98125 6L6 6C5.73478 6 5.48043 5.89464 5.29289 5.70711C5.10536 5.51957 5 5.26522 5 5C5 4.73478 5.10536 4.48043 5.29289 4.29289C5.48043 4.10536 5.73478 4 6 4L12 4C12.2652 4 12.5196 4.10536 12.7071 4.29289C12.8946 4.48043 13 4.73478 13 5L13 11C13 11.2652 12.8946 11.5196 12.7071 11.7071C12.5196 11.8946 12.2652 12 12 12C11.7348 12 11.4804 11.8946 11.2929 11.7071C11.1054 11.5196 11 11.2652 11 11L11 6.93C9.08125 8.47 6 11.625 6 16C6 20.5 8.6825 23.2675 8.71 23.295C8.89657 23.4833 9.00071 23.7381 8.99954 24.0032C8.99837 24.2683 8.89198 24.5221 8.70375 24.7087ZM27 27C27 26.7348 26.8946 26.4804 26.7071 26.2929C26.5196 26.1054 26.2652 26 26 26L23.0187 26C25.2 24.0662 28 20.6737 28 16C28 10.6475 24.8412 7.4275 24.7075 7.2925C24.5202 7.10453 24.2659 6.99866 24.0005 6.99819C23.7352 6.99772 23.4805 7.10269 23.2925 7.29C23.1045 7.47731 22.9987 7.73162 22.9982 7.99698C22.9977 8.26235 23.1027 8.51703 23.29 8.705C23.3175 8.7325 26 11.5 26 16C26 20.375 22.9187 23.53 21 25.07L21 21C21 20.7348 20.8946 20.4804 20.7071 20.2929C20.5196 20.1054 20.2652 20 20 20C19.7348 20 19.4804 20.1054 19.2929 20.2929C19.1054 20.4804 19 20.7348 19 21L19 27C19 27.2652 19.1054 27.5196 19.2929 27.7071C19.4804 27.8946 19.7348 28 20 28L26 28C26.2652 28 26.5196 27.8946 26.7071 27.7071C26.8946 27.5196 27 27.2652 27 27Z" fill="#E9EEF1"/>
</svg>
