<svg width="12" height="10" viewBox="0 0 12 10" fill="none" xmlns="http://www.w3.org/2000/svg">
<path d="M3.23885 9.86319V3.3801H1.08589V9.86319H3.23908H3.23885ZM2.16282 2.4951C2.91345 2.4951 3.38076 1.99727 3.38076 1.37513C3.36671 0.738814 2.91345 0.254883 2.1771 0.254883C1.44024 0.254883 0.958984 0.738814 0.958984 1.37507C0.958984 1.99721 1.42613 2.49504 2.14871 2.49504H2.16265L2.16282 2.4951ZM4.43055 9.86319H6.58335V6.24313C6.58335 6.04962 6.5974 5.85561 6.65427 5.7174C6.80984 5.33011 7.16408 4.92921 7.75897 4.92921C8.53781 4.92921 8.84956 5.52367 8.84956 6.39529V9.86319H11.0023V6.14598C11.0023 4.15474 9.94032 3.22811 8.52387 3.22811C7.36258 3.22811 6.85255 3.87776 6.56918 4.32023H6.58352V3.38032H4.43066C4.45876 3.98852 4.43049 9.86342 4.43049 9.86342L4.43055 9.86319Z" fill="#E9EEF1"/>
</svg>
