<svg width="21" height="21" viewBox="0 0 21 21" fill="none" xmlns="http://www.w3.org/2000/svg">
<path d="M14.3351 0H6.51598C2.91785 0 0 2.91786 0 6.51598V14.3352C0 17.9333 2.91785 20.8511 6.51598 20.8511H14.3351C17.9333 20.8511 20.8511 17.9333 20.8511 14.3352V6.51598C20.8511 2.91786 17.9333 0 14.3351 0ZM18.8963 14.3352C18.8963 16.8503 16.8503 18.8963 14.3351 18.8963H6.51598C4.00081 18.8963 1.95479 16.8503 1.95479 14.3352V6.51598C1.95479 4.00081 4.00081 1.95479 6.51598 1.95479H14.3351C16.8503 1.95479 18.8963 4.00081 18.8963 6.51598V14.3352Z" fill="#E9EEF1"/>
<path d="M10.4257 5.2124C7.54691 5.2124 5.21289 7.54643 5.21289 10.4252C5.21289 13.3039 7.54691 15.638 10.4257 15.638C13.3044 15.638 15.6385 13.3039 15.6385 10.4252C15.6385 7.54643 13.3044 5.2124 10.4257 5.2124ZM10.4257 13.6832C8.62987 13.6832 7.16768 12.221 7.16768 10.4252C7.16768 8.62808 8.62987 7.1672 10.4257 7.1672C12.2215 7.1672 13.6837 8.62808 13.6837 10.4252C13.6837 12.221 12.2215 13.6832 10.4257 13.6832Z" fill="#E9EEF1"/>
</svg>
