<svg width="28" height="28" viewBox="0 0 28 28" fill="none" xmlns="http://www.w3.org/2000/svg">
<path d="M23.9165 11.8883H20.5448C17.7798 11.8883 15.5282 9.63659 15.5282 6.87159V3.49992C15.5282 2.85825 15.0032 2.33325 14.3615 2.33325H9.41484C5.8215 2.33325 2.9165 4.66659 2.9165 8.83159V19.1683C2.9165 23.3333 5.8215 25.6666 9.41484 25.6666H18.5848C22.1782 25.6666 25.0832 23.3333 25.0832 19.1683V13.0549C25.0832 12.4133 24.5582 11.8883 23.9165 11.8883ZM14.5598 18.3166C13.9532 20.2649 11.8182 21.3149 11.0832 21.3149C10.3365 21.3149 8.24817 20.2999 7.6065 18.3166C7.1865 17.0216 7.66484 15.3299 9.1465 14.8516C9.82317 14.6299 10.5465 14.7583 11.0715 15.1666C11.3443 14.9604 11.6633 14.8239 12.0008 14.769C12.3383 14.7141 12.6841 14.7424 13.0082 14.8516C14.5015 15.3299 14.9682 17.0216 14.5598 18.3166Z" fill="url(#paint0_linear_1662_9343)"/>
<path d="M20.5448 12.1383H23.9165C24.4201 12.1383 24.8332 12.5513 24.8332 13.0549V19.1683C24.8332 21.1894 24.1301 22.7454 23.0104 23.7971C21.8881 24.8511 20.3279 25.4166 18.5848 25.4166H9.41484C7.67173 25.4166 6.11155 24.8511 4.98932 23.7971C3.86956 22.7454 3.1665 21.1894 3.1665 19.1683V8.83159C3.1665 6.81041 3.86956 5.25446 4.98932 4.20277C6.11155 3.14877 7.67173 2.58325 9.41484 2.58325H14.3615C14.8651 2.58325 15.2782 2.99632 15.2782 3.49992V6.87159C15.2782 9.77466 17.6418 12.1383 20.5448 12.1383ZM11.0832 21.5649C11.3144 21.5649 11.6208 21.4856 11.9464 21.3516C12.2778 21.2151 12.6496 21.0134 13.0159 20.7491C13.7461 20.2224 14.4741 19.4323 14.7984 18.3913C15.2322 17.0149 14.7533 15.1493 13.0862 14.6141C12.7241 14.4924 12.3377 14.4609 11.9607 14.5222C11.6442 14.5737 11.3423 14.6893 11.0731 14.8612C10.4985 14.4877 9.75984 14.3877 9.06912 14.6139C7.41407 15.1486 6.92127 17.0141 7.3687 18.3937C7.71024 19.4492 8.43344 20.2389 9.15923 20.7623C9.52291 21.0245 9.89149 21.2232 10.2212 21.357C10.5456 21.4887 10.8504 21.5649 11.0832 21.5649Z" stroke="white" stroke-opacity="0.2" stroke-width="0.5"/>
<path d="M20.3348 10.2784C21.4431 10.2901 22.9831 10.2901 24.3015 10.2901C24.9665 10.2901 25.3165 9.50841 24.8498 9.04174C23.1698 7.35007 20.1598 4.30507 18.4331 2.57841C17.9548 2.10007 17.1265 2.42674 17.1265 3.09174V7.16341C17.1265 8.86674 18.5731 10.2784 20.3348 10.2784Z" fill="url(#paint1_linear_1662_9343)"/>
<path d="M20.3374 10.0284V10.0284H20.3348C18.7046 10.0284 17.3765 8.72213 17.3765 7.16341V3.09174C17.3765 2.66496 17.9245 2.4233 18.2564 2.75518C19.4217 3.92056 21.1716 5.68637 22.7028 7.23156C23.4399 7.97531 24.1262 8.66795 24.6724 9.21791L24.673 9.21852C24.9675 9.51303 24.7647 10.0401 24.3015 10.0401C22.9826 10.0401 21.4442 10.0401 20.3374 10.0284Z" stroke="white" stroke-opacity="0.2" stroke-width="0.5"/>
<defs>
<linearGradient id="paint0_linear_1662_9343" x1="13.9998" y1="2.33325" x2="13.9998" y2="25.6666" gradientUnits="userSpaceOnUse">
<stop stop-color="#80C9FF"/>
<stop offset="1" stop-color="#5ABAFF"/>
</linearGradient>
<linearGradient id="paint1_linear_1662_9343" x1="21.0949" y1="2.35107" x2="21.0949" y2="10.2901" gradientUnits="userSpaceOnUse">
<stop stop-color="#80C9FF"/>
<stop offset="1" stop-color="#5ABAFF"/>
</linearGradient>
</defs>
</svg>
