<svg width="16" height="16" viewBox="0 0 16 16" fill="none" xmlns="http://www.w3.org/2000/svg">
<path d="M7.92602 15.1479C3.95218 15.1479 0.717773 11.9135 0.717773 7.93969C0.717773 3.96585 3.95218 0.731445 7.92602 0.731445C11.8999 0.731445 15.1343 3.96585 15.1343 7.93969C15.1343 11.9135 11.8999 15.1479 7.92602 15.1479ZM7.92602 1.89407C4.59162 1.89407 1.88039 4.6053 1.88039 7.93969C1.88039 11.2741 4.59162 13.9853 7.92602 13.9853C11.2604 13.9853 13.9716 11.2741 13.9716 7.93969C13.9716 4.6053 11.2604 1.89407 7.92602 1.89407Z" fill="#E9EEF1"/>
<path d="M5.83361 7.23053C4.47102 7.23053 2.99681 7.02823 1.42495 6.61899C1.11337 6.5376 0.92735 6.22137 1.00873 5.90979C1.09012 5.59821 1.40635 5.41219 1.71793 5.49357C6.48003 6.7306 10.2074 5.94699 12.4954 3.23111C12.7024 2.98696 13.0698 2.95441 13.3139 3.16136C13.5604 3.3683 13.5906 3.73569 13.3837 3.97984C11.5677 6.13534 9.00059 7.23053 5.83361 7.23053Z" fill="#E9EEF1"/>
<path d="M2.92731 12.8713C2.79244 12.8713 2.6599 12.8248 2.55062 12.7318C2.30647 12.5225 2.27856 12.1552 2.48551 11.911C5.88501 7.93717 10.2844 6.99312 14.5558 9.32534C14.8372 9.4788 14.9418 9.83224 14.7884 10.1136C14.6349 10.3949 14.2815 10.4996 14.0001 10.3461C8.87062 7.54885 5.13861 10.5996 3.3691 12.669C3.25516 12.8016 3.0924 12.8713 2.92731 12.8713Z" fill="#E9EEF1"/>
<path d="M9.83041 14.869C9.80948 14.869 9.78856 14.8691 9.76763 14.8667C9.44907 14.8318 9.21887 14.5458 9.25375 14.225C9.70717 10.0674 8.63756 5.87502 6.07747 1.75934C5.90773 1.48729 5.99144 1.1292 6.26349 0.95946C6.53554 0.789718 6.89363 0.873426 7.06337 1.14548C9.7653 5.4867 10.8907 9.93024 10.4094 14.3528C10.3745 14.6505 10.1234 14.869 9.83041 14.869Z" fill="#E9EEF1"/>
</svg>
