<svg width="80" height="80" viewBox="0 0 80 80" fill="none" xmlns="http://www.w3.org/2000/svg">
<rect x="0.5" y="0.5" width="79" height="79" rx="19.5" stroke="#91999E"/>
<path d="M49.3333 33.8749C50.1842 33.8749 51.0003 33.5369 51.602 32.9352C52.2036 32.3335 52.5417 31.5175 52.5417 30.6666C52.5417 29.8157 52.2036 28.9996 51.602 28.398C51.0003 27.7963 50.1842 27.4583 49.3333 27.4583C48.4824 27.4583 47.6664 27.7963 47.0647 28.398C46.463 28.9996 46.125 29.8157 46.125 30.6666C46.125 31.5175 46.463 32.3335 47.0647 32.9352C47.6664 33.5369 48.4824 33.8749 49.3333 33.8749Z" fill="url(#paint0_linear_1662_9386)"/>
<path d="M51.4252 32.7584C50.8704 33.3132 50.1179 33.6249 49.3333 33.6249C48.5487 33.6249 47.7963 33.3132 47.2415 32.7584C46.6867 32.2036 46.375 31.4512 46.375 30.6666C46.375 29.882 46.6867 29.1295 47.2415 28.5747C47.7963 28.0199 48.5487 27.7083 49.3333 27.7083C50.1179 27.7083 50.8704 28.0199 51.4252 28.5747C51.98 29.1295 52.2917 29.882 52.2917 30.6666C52.2917 31.4512 51.98 32.2036 51.4252 32.7584Z" stroke="white" stroke-opacity="0.2" stroke-width="0.5"/>
<path d="M48.2133 35.5083C47.3048 35.3028 46.473 34.8442 45.8143 34.1856C45.1557 33.5269 44.6971 32.6952 44.4916 31.7866C44.34 31.0749 44.3283 30.3866 44.4566 29.7333C44.4937 29.5644 44.4924 29.3894 44.4527 29.2212C44.413 29.0529 44.3359 28.8957 44.2273 28.7613C44.1186 28.6269 43.9811 28.5186 43.8249 28.4445C43.6687 28.3704 43.4978 28.3324 43.325 28.3333H34.1666C30.9466 28.3333 28.3333 30.9466 28.3333 34.1666V42.2749C28.3333 45.4949 30.9466 48.1083 34.1666 48.1083H35.9166C36.2433 48.1083 36.6633 48.3183 36.85 48.5749L38.6 50.8966C39.37 51.9233 40.63 51.9233 41.4 50.8966L43.15 48.5749C43.2587 48.43 43.3996 48.3124 43.5616 48.2314C43.7236 48.1504 43.9022 48.1083 44.0833 48.1083H45.845C49.065 48.1083 51.6666 45.5066 51.6666 42.2866V36.6749C51.6666 35.9399 50.99 35.4033 50.2666 35.5433C49.6133 35.6599 48.925 35.6599 48.2133 35.5083ZM35.3333 39.9999C34.68 39.9999 34.1666 39.4749 34.1666 38.8333C34.1666 38.1916 34.68 37.6666 35.3333 37.6666C35.975 37.6666 36.5 38.1916 36.5 38.8333C36.5 39.4749 35.9866 39.9999 35.3333 39.9999ZM40 39.9999C39.3466 39.9999 38.8333 39.4749 38.8333 38.8333C38.8333 38.1916 39.3466 37.6666 40 37.6666C40.6416 37.6666 41.1666 38.1916 41.1666 38.8333C41.1666 39.4749 40.6533 39.9999 40 39.9999ZM44.6666 39.9999C44.0133 39.9999 43.5 39.4749 43.5 38.8333C43.5 38.1916 44.0133 37.6666 44.6666 37.6666C45.3083 37.6666 45.8333 38.1916 45.8333 38.8333C45.8333 39.4749 45.32 39.9999 44.6666 39.9999Z" fill="url(#paint1_linear_1662_9386)"/>
<path d="M48.1582 35.7521L48.1582 35.7521L48.1612 35.7528C48.9058 35.9115 49.6267 35.9115 50.3106 35.7894L50.3106 35.7894L50.3142 35.7887C50.8899 35.6773 51.4166 36.1038 51.4166 36.6749V42.2866C51.4166 45.3685 48.9269 47.8583 45.845 47.8583H44.0833C43.8634 47.8583 43.6465 47.9095 43.4498 48.0078L43.5616 48.2314L43.4498 48.0078C43.253 48.1062 43.0819 48.249 42.95 48.4249L41.2003 50.7461L41.2 50.7466C40.8553 51.2062 40.4179 51.4166 40 51.4166C39.5821 51.4166 39.1447 51.2062 38.8 50.7466L38.7996 50.7461L37.0508 48.4261C36.9274 48.2571 36.7404 48.1181 36.5476 48.0217C36.3537 47.9248 36.1286 47.8583 35.9166 47.8583H34.1666C31.0847 47.8583 28.5833 45.3569 28.5833 42.2749V34.1666C28.5833 31.0847 31.0847 28.5833 34.1666 28.5833L43.325 28.5833L43.3263 28.5833C43.4616 28.5826 43.5954 28.6123 43.7177 28.6704C43.84 28.7284 43.9477 28.8132 44.0328 28.9185C44.1179 29.0237 44.1783 29.1468 44.2094 29.2786L44.4527 29.2212L44.2094 29.2786C44.2405 29.4103 44.2415 29.5474 44.2125 29.6796L44.2124 29.6796L44.2113 29.6851C44.0759 30.3745 44.0891 31.0971 44.2471 31.8387L44.2471 31.8387L44.2478 31.8417C44.4636 32.7964 44.9455 33.6703 45.6375 34.3624C46.3296 35.0544 47.2036 35.5363 48.1582 35.7521ZM33.9166 38.8333C33.9166 39.6114 34.5403 40.2499 35.3333 40.2499C36.1263 40.2499 36.75 39.6114 36.75 38.8333C36.75 38.0535 36.1131 37.4166 35.3333 37.4166C34.5403 37.4166 33.9166 38.0552 33.9166 38.8333ZM38.5833 38.8333C38.5833 39.6114 39.2069 40.2499 40 40.2499C40.793 40.2499 41.4166 39.6114 41.4166 38.8333C41.4166 38.0535 40.7797 37.4166 40 37.4166C39.2069 37.4166 38.5833 38.0552 38.5833 38.8333ZM43.25 38.8333C43.25 39.6114 43.8736 40.2499 44.6666 40.2499C45.4597 40.2499 46.0833 39.6114 46.0833 38.8333C46.0833 38.0535 45.4464 37.4166 44.6666 37.4166C43.8736 37.4166 43.25 38.0552 43.25 38.8333Z" stroke="white" stroke-opacity="0.2" stroke-width="0.5"/>
<defs>
<linearGradient id="paint0_linear_1662_9386" x1="49.3333" y1="27.4583" x2="49.3333" y2="33.8749" gradientUnits="userSpaceOnUse">
<stop stop-color="#80C9FF"/>
<stop offset="1" stop-color="#5ABAFF"/>
</linearGradient>
<linearGradient id="paint1_linear_1662_9386" x1="40" y1="28.3333" x2="40" y2="51.6666" gradientUnits="userSpaceOnUse">
<stop stop-color="#80C9FF"/>
<stop offset="1" stop-color="#5ABAFF"/>
</linearGradient>
</defs>
</svg>
