<svg width="80" height="80" viewBox="0 0 80 80" fill="none" xmlns="http://www.w3.org/2000/svg">
<rect x="0.5" y="0.5" width="79" height="79" rx="19.5" stroke="#91999E"/>
<path d="M46.5567 38.5439C46.3184 38.5439 46.0899 38.4493 45.9215 38.2808C45.753 38.1123 45.6583 37.8838 45.6583 37.6456C45.6583 37.2139 45.2267 36.3156 44.5033 35.5339C43.7917 34.7756 43.01 34.3323 42.3567 34.3323C42.1184 34.3323 41.8899 34.2376 41.7215 34.0691C41.553 33.9007 41.4583 33.6722 41.4583 33.4339C41.4583 32.9439 41.8667 32.5356 42.3567 32.5356C43.5233 32.5356 44.7483 33.1656 45.8217 34.2973C46.825 35.3589 47.4667 36.6773 47.4667 37.6339C47.4667 38.1356 47.0583 38.5439 46.5567 38.5439ZM50.7683 38.5416C50.5301 38.5416 50.3016 38.4469 50.1331 38.2785C49.9647 38.11 49.87 37.8815 49.87 37.6433C49.87 33.5016 46.4983 30.1416 42.3683 30.1416C42.1301 30.1416 41.9016 30.0469 41.7331 29.8785C41.5647 29.71 41.47 29.4815 41.47 29.2433C41.47 28.7533 41.8667 28.3333 42.3567 28.3333C47.49 28.3333 51.6667 32.5099 51.6667 37.6433C51.6667 38.1333 51.2583 38.5416 50.7683 38.5416ZM38.8917 43.4416L36.7333 45.5999C36.2783 46.0549 35.555 46.0549 35.0883 45.6116C34.96 45.4833 34.8317 45.3666 34.7033 45.2383C33.5236 44.0506 32.4355 42.7753 31.4483 41.4233C30.4917 40.0933 29.7217 38.7633 29.1617 37.4449C28.6133 36.1149 28.3333 34.8433 28.3333 33.6299C28.3333 32.8366 28.4733 32.0783 28.7533 31.3783C29.0333 30.6666 29.4767 30.0133 30.095 29.4299C30.8417 28.6949 31.6583 28.3333 32.5217 28.3333C32.8483 28.3333 33.175 28.4033 33.4667 28.5433C33.77 28.6833 34.0383 28.8933 34.2483 29.1966L36.955 33.0116C37.165 33.3033 37.3167 33.5716 37.4217 33.8283C37.5267 34.0733 37.585 34.3183 37.585 34.5399C37.585 34.8199 37.5033 35.0999 37.34 35.3683C37.1883 35.6366 36.9667 35.9166 36.6867 36.1966L35.8 37.1183C35.6717 37.2466 35.6133 37.3983 35.6133 37.5849C35.6133 37.6783 35.625 37.7599 35.6483 37.8533C35.6833 37.9466 35.7183 38.0166 35.7417 38.0866C35.9517 38.4716 36.3133 38.9733 36.8267 39.5799C37.3517 40.1866 37.9117 40.8049 38.5183 41.4233C38.635 41.5399 38.7633 41.6566 38.88 41.7733C39.3467 42.2283 39.3583 42.9749 38.8917 43.4416ZM51.6317 47.3849C51.6301 47.8252 51.5305 48.2596 51.34 48.6566C51.1417 49.0766 50.885 49.4733 50.5467 49.8466C49.975 50.4766 49.345 50.9316 48.6333 51.2233C48.6217 51.2233 48.61 51.2349 48.5983 51.2349C47.91 51.5149 47.1633 51.6666 46.3583 51.6666C45.1683 51.6666 43.8967 51.3866 42.555 50.8149C41.2133 50.2433 39.8717 49.4733 38.5417 48.5049C38.0867 48.1666 37.6317 47.8283 37.2 47.4666L41.015 43.6516C41.3417 43.8966 41.6333 44.0833 41.8783 44.2116C41.9367 44.2349 42.0067 44.2699 42.0883 44.3049C42.1817 44.3399 42.275 44.3516 42.38 44.3516C42.5783 44.3516 42.73 44.2816 42.8583 44.1533L43.745 43.2783C44.0367 42.9866 44.3167 42.7649 44.585 42.6249C44.8533 42.4616 45.1217 42.3799 45.4133 42.3799C45.635 42.3799 45.8683 42.4266 46.125 42.5316C46.3817 42.6366 46.65 42.7883 46.9417 42.9866L50.8033 45.7283C51.1067 45.9383 51.3167 46.1833 51.445 46.4749C51.5617 46.7666 51.6317 47.0583 51.6317 47.3849Z" fill="url(#paint0_linear_1662_9401)"/>
<path d="M44.6856 35.3628L44.6868 35.3641C45.0633 35.771 45.3647 36.2088 45.5732 36.6044C45.7766 36.9901 45.9083 37.3671 45.9083 37.6456C45.9083 37.8175 45.9767 37.9824 46.0982 38.104C46.2198 38.2256 46.3847 38.2939 46.5567 38.2939C46.9203 38.2939 47.2167 37.9975 47.2167 37.6339C47.2167 36.7664 46.6207 35.5068 45.6403 34.4693L44.6856 35.3628ZM44.6856 35.3628C43.9554 34.5847 43.112 34.0823 42.3567 34.0823M44.6856 35.3628L42.3567 34.0823M42.3567 34.0823C42.1847 34.0823 42.0198 34.0139 41.8982 33.8924M42.3567 34.0823L41.8982 33.8924M41.8982 33.8924C41.7767 33.7708 41.7083 33.6059 41.7083 33.4339M41.8982 33.8924L41.7083 33.4339M41.7083 33.4339C41.7083 33.082 42.0047 32.7856 42.3567 32.7856M41.7083 33.4339L42.3567 32.7856M42.3567 32.7856C43.4327 32.7856 44.5963 33.3687 45.64 34.469L42.3567 32.7856ZM28.9855 31.4711L28.9855 31.4711L28.986 31.4698C29.2517 30.7944 29.6733 30.1714 30.2666 29.6118L30.2666 29.6118L30.2704 29.6081C30.9793 28.9102 31.7356 28.5833 32.5217 28.5833C32.8133 28.5833 33.1027 28.6459 33.3585 28.7686L33.3585 28.7687L33.3619 28.7702C33.6281 28.8931 33.8603 29.0753 34.0428 29.3389L34.0428 29.3389L34.0444 29.3412L36.7511 33.1562L36.7521 33.1577C36.9531 33.4367 37.0942 33.6879 37.1903 33.9229L37.1903 33.9229L37.1919 33.9267C37.2871 34.149 37.335 34.3602 37.335 34.5399C37.335 34.7696 37.2684 35.0051 37.1265 35.2383L37.1263 35.2382L37.1224 35.2452C36.9847 35.4889 36.7786 35.7511 36.5099 36.0198L36.5099 36.0198L36.5065 36.0233L35.6214 36.9433C35.4436 37.122 35.3633 37.3385 35.3633 37.5849C35.3633 37.7019 35.3784 37.8041 35.4058 37.9139L35.4093 37.9277L35.4143 37.941C35.4322 37.989 35.4503 38.0315 35.465 38.0664L35.4691 38.0761C35.4855 38.1147 35.4964 38.1412 35.5045 38.1656L35.5115 38.1868L35.5222 38.2063C35.744 38.613 36.1181 39.1295 36.6358 39.7414L36.6358 39.7414L36.6376 39.7435C37.1652 40.3531 37.7288 40.9754 38.3399 41.5983L38.3399 41.5983L38.3416 41.6C38.4021 41.6605 38.4652 41.7206 38.5257 41.7782L38.5268 41.7793C38.5884 41.838 38.6474 41.8942 38.7032 41.95L38.7055 41.9523C39.0735 42.3111 39.0819 42.8978 38.7149 43.2648L36.5566 45.4231C36.2007 45.779 35.6338 45.7828 35.2627 45.4324C35.1973 45.367 35.1322 45.3049 35.0694 45.2449L35.0685 45.2441C35.0041 45.1826 34.9421 45.1234 34.8804 45.0618C33.7099 43.8834 32.6302 42.618 31.6508 41.2766C30.7035 39.9595 29.9437 38.6462 29.3923 37.3484C28.8542 36.0428 28.5833 34.804 28.5833 33.6299C28.5833 32.8662 28.7181 32.1396 28.9855 31.4711ZM51.1146 48.5484L51.1139 48.5498C50.9256 48.9488 50.6824 49.3246 50.3615 49.6786C49.817 50.2787 49.2231 50.7079 48.5574 50.9841C48.5565 50.9844 48.5557 50.9847 48.5548 50.9849H48.5494L48.5041 51.0033C47.8458 51.2711 47.1311 51.4166 46.3583 51.4166C45.2079 51.4166 43.9696 51.1459 42.653 50.5849C41.3308 50.0216 40.0059 49.2616 38.6899 48.3036C38.309 48.0203 37.9329 47.7406 37.5716 47.4485L41.0402 43.9799C41.3057 44.1696 41.5486 44.3211 41.7623 44.433L41.7736 44.439L41.7855 44.4437C41.808 44.4527 41.8346 44.4647 41.8704 44.4811L41.8794 44.4852C41.9116 44.5 41.9494 44.5174 41.9899 44.5347L41.9898 44.535L42.0006 44.539C42.1304 44.5877 42.2556 44.6016 42.38 44.6016C42.6479 44.6016 42.862 44.5029 43.0346 44.3306C43.0348 44.3304 43.0349 44.3302 43.0351 44.33L43.9206 43.4562L43.9218 43.455C44.2033 43.1735 44.463 42.9706 44.7007 42.8466L44.708 42.8428L44.715 42.8385C44.9491 42.696 45.1729 42.6299 45.4133 42.6299C45.5984 42.6299 45.7996 42.6686 46.0304 42.763C46.2655 42.8592 46.5175 43.0006 46.799 43.1919L50.6586 45.9321L50.6586 45.9321L50.661 45.9338C50.9308 46.1206 51.1073 46.3301 51.2145 46.5718C51.321 46.8391 51.3816 47.0978 51.3817 47.3846C51.3802 47.7875 51.289 48.1851 51.1146 48.5484ZM50.7683 38.2916C50.5964 38.2916 50.4315 38.2233 50.3099 38.1017C50.1883 37.9801 50.12 37.8152 50.12 37.6433C50.12 33.3633 46.6362 29.8916 42.3683 29.8916C42.1964 29.8916 42.0315 29.8233 41.9099 29.7017C41.7883 29.5801 41.72 29.4152 41.72 29.2433C41.72 28.8828 42.0131 28.5833 42.3567 28.5833C47.3519 28.5833 51.4167 32.648 51.4167 37.6433C51.4167 37.9952 51.1203 38.2916 50.7683 38.2916Z" stroke="white" stroke-opacity="0.2" stroke-width="0.5"/>
<defs>
<linearGradient id="paint0_linear_1662_9401" x1="40" y1="28.3333" x2="40" y2="51.6666" gradientUnits="userSpaceOnUse">
<stop stop-color="#80C9FF"/>
<stop offset="1" stop-color="#5ABAFF"/>
</linearGradient>
</defs>
</svg>
